<?xml version="1.0" ?><!DOCTYPE svg  PUBLIC '-//W3C//DTD SVG 1.1//EN'  'http://www.w3.org/Graphics/SVG/1.1/DTD/svg11.dtd'><svg enable_background="new 0 0 500 401" height="401px" style="stroke-linejoin: round; stroke:#000; fill:#f6f3f0;" version="1.1" viewBox="0 0 500 401" width="500px" xmlns="http://www.w3.org/2000/svg" xmlns:xlink="http://www.w3.org/1999/xlink"><defs><style type="text/css"><![CDATA[path { fill-rule: evenodd; }
#context path { fill: #eee; stroke: #bbb; } ]]></style></defs><metadata><views><view h="401" padding="0" w="500"><proj id="laea" lat0="-17.819" lon0="177.974"/><bbox h="114.29" w="83.29" x="961.16" y="934.1"/><llbbox lat0="-90" lat1="90" lon0="-180" lon1="180"/></view></views></metadata><g id="admin1"><path d="M248,254L246,253L246,254L246,255L247,256Z M238,249L239,249L240,249L242,249L243,249L246,248L247,249L249,248L250,247L251,246L252,245L253,244L254,244L255,243L256,243L257,243L258,242L259,243L260,244L261,243L262,242L263,242L264,242L264,243L265,244L266,243L268,242L269,241L270,240L270,238L270,238L270,238L269,238L268,237L266,236L266,235L265,233L267,233L267,231L267,230L266,230L266,229L265,228L265,227L265,225L266,224L266,222L264,221L263,221L261,219L260,219L260,219L260,221L259,223L258,223L257,223L256,223L254,223L253,222L252,223L251,223L250,224L248,224L246,223L245,222L244,221L243,220L242,220L243,221L242,222L242,224L242,227L244,225L245,225L245,226L244,227L243,227L241,230L240,231L240,232L241,233L241,235L242,236L240,238L239,238L235,237L234,237L233,238L233,239L232,241L232,242L233,243L234,243L233,245L233,246L232,247L234,248L235,249L236,249L237,250Z " data-fips="FJ01" data-hasc="FJ.CE" data-name="Central" data-postal="CE" data-varname=""/><path d="M382,289L381,289L380,288L380,288L380,289L381,290Z M314,289L314,288L314,287L313,287L313,288L312,289L313,290Z M249,287L249,286L248,285L249,284L250,283L251,283L253,281L254,281L254,282L255,282L255,283L257,283L258,283L259,282L260,282L261,282L261,280L261,279L258,278L257,278L256,278L255,278L254,279L253,280L252,279L250,279L249,280L248,282L248,283L247,283L246,284L243,283L243,284L242,285L240,285L240,287L241,287L242,288L243,287L244,288L246,287L246,287L248,286L248,287L249,288Z M366,281L366,280L365,279L365,280L365,281Z M329,280L330,279L331,281L331,280L330,278L329,278L328,280L328,281L329,282Z M263,277L263,276L262,275L261,276L260,277L262,277Z M320,265L319,264L320,264L322,262L321,261L318,262L317,262L316,263L318,264L318,265Z M374,249L374,247L373,246L371,247L370,248L371,249L372,250L374,250Z M297,242L297,239L296,238L295,236L294,235L293,235L292,236L292,237L292,238L293,239L293,238L294,239L295,241L295,242L297,243Z M364,238L364,237L363,236L362,236L361,237L363,238L364,238Z M394,238L395,237L394,235L393,234L391,234L391,236L391,237L393,238Z M300,230L300,229L299,229L298,230L299,231L300,231Z M353,228L353,227L352,227L351,227L351,229Z M273,228L272,227L271,226L272,228Z M275,227L276,226L276,224L276,223L276,222L274,222L273,222L272,223L272,224L272,226L273,227Z M284,223L283,221L282,221L283,222L284,223Z M359,214L358,214L357,215L359,216Z M359,207L359,206L358,207L359,208Z M300,211L301,210L301,209L301,208L301,206L300,206L298,206L298,207L298,208L298,209L298,212Z M366,208L368,206L368,205L367,204L365,203L364,203L364,204L365,204L366,205L366,206L365,207L365,209Z " data-fips="FJ02" data-hasc="FJ.CE" data-name="Eastern" data-postal="CE" data-varname=""/><path d="M273,195L274,193L275,193L275,191L277,189L278,189L279,188L279,189L280,190L281,191L283,191L284,191L286,190L284,190L283,190L284,187L285,186L286,187L288,186L288,185L290,183L293,182L294,182L295,183L297,183L297,185L295,186L295,187L298,186L299,186L301,187L302,186L303,186L306,186L307,186L309,185L310,184L311,184L313,183L314,183L316,183L317,184L318,184L319,185L320,185L320,184L321,185L322,184L320,183L320,182L319,181L318,181L319,179L319,179L321,176L321,175L322,174L321,172L320,173L318,174L317,175L316,176L315,176L314,177L313,178L312,178L312,180L311,180L310,181L309,182L309,183L308,183L307,183L305,185L304,184L302,185L303,183L303,182L303,181L305,180L306,179L307,178L307,176L307,175L312,172L313,172L314,171L315,169L316,168L317,166L318,164L319,163L320,162L320,162L321,162L324,159L323,159L320,160L318,162L317,161L316,161L315,161L314,160L313,161L312,161L311,162L310,161L309,162L308,162L307,163L306,162L305,163L304,162L304,163L303,163L302,164L302,166L300,166L300,167L299,168L299,169L298,169L297,169L296,169L295,170L294,169L293,169L292,169L290,170L290,170L288,170L287,171L285,171L283,172L281,172L280,172L279,173L280,174L279,174L277,175L276,175L275,178L274,179L274,178L273,178L271,180L269,181L268,180L266,179L265,178L263,179L264,180L265,180L265,182L264,182L262,184L261,185L261,186L262,187L264,187L266,186L268,187L267,188L268,189L269,190L269,192L269,193L270,195L272,195Z M322,195L323,195L324,194L324,186L323,188L322,189L321,191L319,193L319,194L320,194L321,195Z M255,187L255,186L253,186L253,186L253,187L254,187Z M324,192L326,191L329,189L329,188L330,187L331,185L330,184L330,183L330,182L329,181L327,182L324,186L324,194Z M322,180L322,178L321,179L320,180L319,180L320,180Z M266,177L267,176L267,177L266,176L265,177Z M326,175L327,174L326,173L327,172L328,172L328,171L325,172L324,173L324,175Z M326,159L327,157L325,158L324,159L325,159Z " data-fips="FJ03" data-hasc="FJ.W" data-name="Northern" data-postal="W" data-varname=""/><path d="M106,398L105,397L105,398L106,399Z M227,261L227,260L226,259L226,261L226,262L227,263Z M233,246L233,245L234,243L233,243L232,242L232,241L233,239L233,238L234,237L235,237L239,238L240,238L242,236L241,235L241,233L240,232L240,231L241,230L243,227L244,227L245,226L245,225L244,225L242,227L242,224L242,222L243,221L242,220L243,220L244,221L245,222L246,223L248,224L250,224L251,223L252,223L253,222L254,223L256,223L257,223L258,223L259,223L260,221L260,219L260,219L260,218L258,217L257,215L256,214L255,213L253,214L252,214L252,213L253,212L253,211L252,210L252,209L251,209L249,208L249,209L247,210L246,210L244,210L242,211L242,211L239,212L238,212L237,212L236,212L235,213L234,213L234,212L234,211L233,211L231,212L231,213L229,213L227,214L227,215L227,216L227,215L226,214L226,214L224,215L222,216L221,217L221,219L219,219L219,220L218,221L217,222L216,222L217,224L218,224L218,226L218,227L217,228L215,228L216,230L215,231L214,231L211,232L211,233L211,235L211,236L211,237L212,238L212,239L213,240L213,241L214,242L215,243L219,244L220,245L222,245L225,245L227,246L228,246L229,247L232,247Z M206,208L207,206L206,205L206,206L204,206L204,207L205,208Z M209,201L210,201L212,199L212,198L212,197L211,198L210,197L209,198L208,200L208,201L207,202L208,202Z M217,191L217,190L218,189L217,190L215,191L217,192Z M219,188L220,186L223,184L224,183L224,181L223,181L224,182L223,183L221,184L220,186L218,186L218,188Z " data-fips="FJ05" data-hasc="FJ.W" data-name="Western" data-postal="W" data-varname=""/><path d="M205,1L204,0L202,0L201,1L199,1L200,1L202,2L203,2Z " data-fips="FJ04" data-hasc="FJ.RO" data-name="Rotuma" data-postal="RO" data-varname=""/></g></svg>