<?xml version="1.0" ?><!DOCTYPE svg  PUBLIC '-//W3C//DTD SVG 1.1//EN'  'http://www.w3.org/Graphics/SVG/1.1/DTD/svg11.dtd'><svg enable_background="new 0 0 500 401" height="401px" style="stroke-linejoin: round; stroke:#000; fill:#f6f3f0;" version="1.1" viewBox="0 0 500 401" width="500px" xmlns="http://www.w3.org/2000/svg" xmlns:xlink="http://www.w3.org/1999/xlink"><defs><style type="text/css"><![CDATA[path { fill-rule: evenodd; }
#context path { fill: #eee; stroke: #bbb; } ]]></style></defs><metadata><views><view h="401" padding="0" w="500"><proj id="laea" lat0="-5.949" lon0="143.459"/><bbox h="128.0" w="184.99" x="968.02" y="943.55"/><llbbox lat0="-90" lat1="90" lon0="-180" lon1="180"/></view></views></metadata><g id="admin1"><path d="M90,179L93,179L94,178L96,178L98,179L98,178L97,176L99,175L104,174L106,172L107,171L108,170L108,168L108,166L106,161L110,159L112,159L112,158L111,155L110,154L110,153L110,152L109,151L107,151L106,150L104,148L103,147L77,149L73,150L71,150L68,149L64,164L68,169L77,172L79,173L83,176L86,179L89,180Z " data-fips="PP19" data-hasc="PG.EG" data-name="Enga" data-postal="EG" data-varname=""/><path d="M73,150L77,149L103,147L105,147L106,146L119,136L123,130L124,114L124,114L123,113L123,110L122,108L121,108L119,108L118,108L116,107L115,107L114,108L113,109L112,109L111,109L110,109L109,108L110,107L108,107L106,108L104,107L103,105L101,104L100,103L98,101L97,101L95,101L95,99L94,100L93,99L92,99L91,98L89,95L87,95L79,93L78,93L76,93L75,93L74,93L74,93L74,97L73,98L71,98L65,95L64,95L63,94L61,95L60,95L59,96L59,97L58,99L58,102L58,103L58,105L58,106L59,107L59,108L59,110L59,111L58,112L56,112L56,114L56,115L55,116L53,117L32,117L31,117L32,116L31,116L30,115L28,115L17,123L16,124L16,125L16,131L16,132L17,134L19,134L21,135L44,135L48,137L49,146L54,147L56,147L59,147L60,147L62,147L68,149L71,150Z M91,92L90,92L89,91L88,92L89,93L91,93Z M106,89L106,88L105,88L105,89L106,89Z " data-fips="PP11" data-hasc="PG.ES" data-name="East Sepik" data-postal="ES" data-varname=""/><path d="M197,175L197,174L196,174L195,173L193,173L188,169L187,168L186,168L185,168L184,168L182,167L181,167L180,167L179,167L178,166L177,166L176,165L174,165L173,165L172,165L171,164L170,163L169,163L168,164L167,165L166,163L163,164L162,163L162,162L162,161L163,159L163,157L164,156L164,154L164,153L164,152L164,151L165,149L164,148L164,146L164,144L164,142L164,141L162,141L161,140L157,136L156,134L155,133L154,132L153,131L151,129L149,127L148,127L147,127L145,127L144,127L140,126L139,126L138,123L138,122L137,121L135,120L134,120L133,119L134,118L133,117L131,116L130,115L129,115L124,114L123,130L119,136L106,146L105,147L103,147L104,148L106,150L107,151L109,151L110,152L110,153L110,154L111,155L114,156L115,156L116,156L121,157L122,158L124,160L124,161L126,161L127,162L128,164L130,165L132,166L133,166L134,168L135,169L136,170L141,174L142,175L143,177L146,177L149,176L150,177L152,179L153,180L154,180L155,179L156,178L158,178L159,179L160,179L164,180L165,180L187,181Z M210,162L211,162L212,162L212,160L212,159L211,158L211,156L210,155L209,154L207,155L206,155L205,156L204,157L204,158L205,159L206,160L207,162L208,163Z M180,142L179,141L178,141L178,142L179,143Z M171,139L172,138L173,136L173,135L173,134L171,132L169,132L167,135L167,136L167,137L167,138L168,139L170,139Z M141,118L141,117L141,116L140,116L139,117L139,118L140,118Z " data-fips="PP12" data-hasc="PG.MD" data-name="Madang" data-postal="MD" data-varname=""/><path d="M46,160L48,159L48,158L49,156L50,154L50,152L49,151L49,150L49,146L48,137L44,135L21,135L19,134L17,134L16,132L16,131L16,125L16,124L17,123L28,115L30,115L31,116L32,116L31,117L32,117L53,117L55,116L56,115L56,114L56,112L58,112L59,111L59,110L59,108L59,107L58,106L58,105L58,103L58,102L58,99L59,97L59,96L60,95L61,95L63,94L64,95L65,95L71,98L73,98L74,97L74,93L74,93L72,93L69,92L69,91L67,91L66,91L65,90L58,88L55,87L51,86L47,84L45,84L44,83L42,83L41,83L40,82L40,81L38,79L36,79L34,80L32,78L31,77L24,74L17,71L16,71L14,70L13,69L12,69L11,68L10,68L9,68L7,67L6,67L5,68L4,68L4,69L4,81L4,89L4,114L4,120L4,134L4,147L4,147L5,148L45,161Z " data-fips="PP18" data-hasc="PG.SA" data-name="Sandaun" data-postal="SA" data-varname="West Sepik"/><path d="M149,205L148,204L144,203L139,199L138,199L137,198L137,196L138,195L139,195L141,195L142,195L143,194L145,193L146,192L146,191L146,189L146,187L145,186L144,185L143,184L143,183L143,179L143,177L142,175L141,174L138,174L137,174L133,174L131,174L131,179L130,180L129,181L128,182L128,183L128,184L129,185L129,186L127,190L125,191L125,192L124,194L122,193L122,195L121,196L120,196L119,197L119,199L120,200L121,200L122,200L124,202L124,203L125,204L127,204L128,205L129,205L130,205L132,206L133,206L135,205L136,206L137,207L138,207L140,207L141,208L142,208L144,209L146,209Z " data-fips="PP08" data-hasc="PG.CH" data-name="Chimbu" data-postal="CH" data-varname="Simbu"/><path d="M167,218L167,217L169,213L169,212L171,210L171,209L171,207L170,206L171,205L171,205L172,204L175,189L174,188L170,185L169,184L168,183L167,182L165,180L164,180L160,179L159,179L158,178L156,178L155,179L154,180L153,180L152,179L150,177L149,176L146,177L143,177L143,179L143,183L143,184L144,185L145,186L146,187L146,189L146,191L146,192L145,193L143,194L142,195L141,195L139,195L138,195L137,196L137,198L138,199L139,199L144,203L148,204L149,205L165,222Z " data-fips="PP09" data-hasc="PG.EH" data-name="Eastern Highlands" data-postal="EH" data-varname="Planalto Oriental"/><path d="M183,247L184,246L185,245L187,244L188,242L191,240L184,235L174,233L173,232L172,230L172,229L165,222L146,209L144,209L142,208L141,208L140,207L138,207L137,207L136,206L135,205L133,206L132,206L130,205L129,205L128,205L94,209L71,209L71,215L102,247L103,247L102,245L101,243L100,241L99,240L99,238L96,234L96,232L95,231L94,231L93,230L95,231L96,231L97,232L98,234L99,235L99,236L102,237L109,240L110,240L111,240L112,240L113,239L112,238L113,237L113,236L114,236L115,238L115,236L115,235L116,237L116,238L117,239L118,238L119,239L120,240L120,241L121,240L120,239L120,238L119,237L119,236L119,235L118,233L118,232L119,233L120,234L120,235L121,237L122,236L121,235L121,234L122,231L122,232L122,233L123,234L123,235L124,236L125,236L126,235L126,234L126,233L127,234L127,235L129,236L130,237L131,237L132,237L132,235L133,233L133,235L133,238L132,240L134,240L135,240L136,240L137,241L140,241L140,241L141,242L142,242L144,242L144,242L146,243L147,243L148,243L149,244L151,246L153,246L156,245L157,246L158,246L159,246L161,245L162,245L164,245L163,246L163,247L164,248L166,249L167,249L168,249L170,249L172,250L174,251L174,252L174,253L175,255L176,255L177,256L178,257L179,258L179,260L179,261L179,262L182,266L183,267Z " data-fips="PP02" data-hasc="PG.GU" data-name="Gulf" data-postal="GU" data-varname=""/><path d="M492,214L493,213L494,212L495,212L496,211L497,212L498,210L499,211L499,212L500,211L500,209L499,208L499,207L499,205L499,204L498,203L498,202L497,201L496,200L496,198L495,197L493,197L493,196L492,195L491,194L490,193L490,193L490,191L489,193L487,192L486,191L485,192L483,190L482,187L482,185L481,184L481,183L480,183L478,181L477,181L475,180L475,178L475,177L474,176L474,175L473,174L472,173L472,171L471,171L471,170L470,169L467,169L465,170L465,169L463,168L463,167L462,166L460,165L459,166L460,168L461,169L461,171L460,170L460,171L460,172L460,175L459,177L459,178L460,179L461,180L460,181L460,182L461,183L462,185L463,186L464,186L465,187L467,188L467,189L468,191L469,192L470,193L471,194L474,195L476,196L476,197L476,199L476,200L476,202L475,203L474,203L474,204L478,208L479,209L480,210L481,211L483,212L485,213L487,214L488,214L490,214L491,215Z M458,166L459,165L459,162L460,159L460,158L459,157L459,156L459,155L459,154L459,153L458,152L457,151L456,152L455,153L454,154L454,156L455,155L455,156L455,158L455,159L455,161L456,164L457,166Z M445,135L445,134L444,133L443,133L443,133L445,135L444,136L443,136L444,137Z M465,101L464,99L463,98L464,100L464,102Z " data-fips="PP07" data-hasc="PG.NS" data-name="North Solomons" data-postal="NS" data-varname="Northern Solomon Islands|Bougainville"/><path d="M71,209L94,209L128,205L127,204L125,204L124,203L124,202L122,200L121,200L120,200L119,199L119,197L120,196L121,196L122,195L122,193L105,181L103,181L102,181L101,180L98,179L96,178L94,178L93,179L90,179L89,180L86,179L83,176L79,173L77,172L68,169L64,164L62,147L60,147L59,147L56,147L54,147L49,146L49,150L49,151L50,152L50,154L49,156L48,158L48,159L46,160L45,161L44,164L45,165L56,176L58,178L59,179L60,181L60,205L60,206L61,208L63,208L65,209Z " data-fips="PP05" data-hasc="PG.SH" data-name="Southern Highlands" data-postal="SH" data-varname=""/><path d="M125,192L125,191L127,190L129,186L129,185L128,184L128,183L128,182L129,181L130,180L131,179L131,174L133,174L137,174L138,174L136,170L135,169L134,168L133,166L132,166L130,165L128,164L127,162L126,161L124,161L124,160L122,158L121,157L116,156L115,156L114,156L112,158L112,159L110,159L106,161L108,166L108,168L108,170L107,171L106,172L104,174L99,175L97,176L98,178L98,179L101,180L102,181L103,181L105,181L122,193L124,194Z " data-fips="PP16" data-hasc="PG.WH" data-name="Western Highlands" data-postal="WH" data-varname="Planalto Ocidental"/><path d="M63,294L64,293L63,293L62,293L60,293L59,294L59,295L60,295L62,295Z M47,291L48,290L45,289L43,290L44,290L46,291Z M60,292L62,291L62,290L66,289L67,288L69,287L70,287L71,285L72,285L73,284L77,283L78,282L79,282L80,282L82,282L83,281L84,281L84,280L85,279L85,278L85,274L84,273L83,271L82,269L80,267L76,264L75,263L73,263L69,262L68,261L66,260L65,260L64,259L62,258L59,258L58,258L56,260L55,260L53,260L52,259L51,258L50,255L50,254L48,254L46,254L45,254L44,255L43,255L44,254L45,254L46,253L47,253L49,253L50,253L51,254L52,258L53,259L55,259L56,258L58,257L59,257L61,257L62,256L66,257L69,259L71,259L78,257L81,256L82,256L91,256L92,255L92,254L90,250L89,249L87,247L86,246L85,245L84,245L83,244L84,244L86,244L87,245L87,247L88,247L90,247L93,247L94,247L95,248L97,249L100,249L101,248L100,247L99,246L98,245L100,245L101,247L102,247L71,215L71,209L65,209L63,208L61,208L60,206L60,205L60,181L59,179L58,178L56,176L45,165L44,164L45,161L5,148L4,147L4,147L4,148L4,158L4,160L4,181L4,193L4,194L3,195L2,196L3,197L3,198L2,199L1,200L1,201L0,202L1,203L0,204L0,205L1,206L1,207L2,208L2,209L3,210L3,211L4,211L4,224L4,225L4,246L4,248L5,268L5,285L6,285L9,288L10,289L12,289L13,288L16,286L17,286L18,286L19,286L20,287L22,288L24,288L25,288L26,289L27,288L28,288L32,288L34,288L36,288L38,287L43,287L44,287L46,286L47,287L49,288L51,288L53,288L54,289L55,290L56,291L57,292L59,292Z M93,270L92,269L91,269L88,266L87,265L86,265L83,264L80,263L79,261L78,262L79,263L79,264L81,264L82,265L85,267L86,268L87,268L91,270L92,271L93,272Z M91,264L91,262L91,261L90,260L87,260L85,260L83,260L82,259L82,261L84,262L85,262L87,263L89,264Z M94,262L94,261L93,260L92,259L91,259L89,259L91,260L93,262Z M94,253L94,252L92,251L91,251L92,252L92,253Z M94,250L93,249L92,248L90,248L90,249L91,250L93,250L94,251Z " data-fips="PP06" data-hasc="PG.WE" data-name="Western" data-postal="WE" data-varname="Fly"/><path d="M286,327L287,327L289,327L291,327L290,319L289,318L287,317L286,317L286,316L284,315L282,314L281,313L279,312L278,311L277,310L276,309L273,308L271,308L270,308L268,308L267,308L267,308L267,309L268,311L268,313L267,313L265,313L263,314L262,314L260,313L258,312L258,312L256,312L255,311L254,310L252,309L251,309L248,307L247,307L246,307L244,305L242,303L241,303L240,302L238,301L237,301L237,300L237,298L237,297L237,296L234,292L233,291L232,291L232,290L229,287L228,287L227,286L226,284L225,283L224,281L223,280L222,279L221,278L220,277L220,276L220,274L220,273L223,269L224,267L223,265L222,263L220,262L219,260L216,259L213,258L202,248L201,248L199,247L198,247L197,247L196,247L195,246L194,245L194,244L194,243L194,242L191,240L188,242L187,244L185,245L184,246L183,247L183,267L185,269L185,270L187,271L187,272L188,273L189,274L189,275L190,275L190,276L189,277L188,278L189,279L189,280L190,281L191,282L194,283L196,283L197,284L198,284L199,285L200,284L201,283L202,283L202,284L201,285L199,286L200,287L200,288L200,290L200,291L202,291L203,292L203,294L204,296L205,297L206,297L205,296L206,295L207,295L208,294L209,294L210,295L212,295L212,296L212,297L212,299L213,299L214,300L215,301L215,302L216,303L219,307L219,308L220,310L220,311L221,312L222,313L224,314L225,315L226,315L227,318L229,317L231,317L232,317L232,318L233,318L234,319L234,320L235,320L236,319L237,319L239,319L240,318L241,317L241,318L243,318L244,319L245,319L246,320L247,321L249,322L252,322L253,321L254,321L256,321L257,321L258,320L258,319L259,320L260,320L261,321L260,321L260,322L261,323L262,323L264,323L266,324L268,324L269,324L270,323L271,323L273,323L274,324L277,325L278,325L279,325L280,325L282,326L283,327L284,327L285,328Z " data-fips="PP01" data-hasc="PG.CE" data-name="Central" data-postal="CE" data-varname=""/><path d="M330,186L330,185L330,184L331,183L332,184L333,184L336,183L337,184L338,184L339,182L340,182L343,181L344,180L344,179L346,178L347,178L348,177L349,176L350,175L350,174L351,173L352,172L354,172L354,171L353,170L352,170L352,169L352,168L353,167L354,167L357,168L358,168L359,167L361,167L362,168L363,169L364,169L365,168L366,168L367,168L369,167L370,166L372,165L373,165L374,164L375,161L374,159L372,157L371,156L370,155L369,154L369,149L370,149L372,149L373,149L375,150L376,149L378,149L380,148L381,146L383,143L383,141L384,139L384,138L383,136L382,134L382,133L382,132L384,128L384,127L382,128L379,127L378,126L377,127L376,126L376,125L377,123L377,124L379,124L378,123L378,122L377,121L375,122L375,123L374,123L372,123L371,123L370,123L371,124L371,125L370,127L369,127L368,127L366,126L366,125L365,124L364,123L362,123L361,123L360,123L359,122L357,122L355,122L354,123L354,124L355,126L354,127L355,127L355,129L356,130L357,131L358,132L358,134L358,135L359,136L359,138L359,140L359,142L360,143L360,144L360,145L359,146L358,148L358,148L359,150L352,150L348,152L345,157L342,163L343,164L345,164L345,165L344,166L341,168L339,170L338,170L337,169L336,170L336,171L336,173L332,173L331,174L330,174L326,175L325,175L323,176L323,177L323,179L324,180L326,182L329,186L329,187Z M387,123L387,121L386,121L385,122L386,123L387,123Z " data-fips="PP10" data-hasc="PG.EN" data-name="East New Britain" data-postal="EN" data-varname="Nova Bretanha Oriental|Nuova Britannia Orientale"/><path d="M233,59L234,57L233,57L232,56L231,57L231,58L230,59L229,59L230,59L232,59Z M192,54L193,53L194,54L195,54L195,53L195,51L196,52L197,53L198,53L199,54L203,54L204,54L205,54L207,54L208,53L209,53L211,54L212,53L214,51L215,50L216,50L217,50L218,50L219,49L219,47L218,47L219,48L218,49L217,49L216,49L214,48L212,48L211,48L210,47L209,48L208,47L203,46L201,46L200,46L199,46L196,47L195,47L194,47L192,47L192,48L191,48L191,49L192,50L191,51L190,52L189,52L189,53L189,54L190,55L191,55Z " data-fips="PP13" data-hasc="PG.MN" data-name="Manus" data-postal="MN" data-varname=""/><path d="M417,372L418,372L420,372L421,372L423,372L423,371L423,370L422,370L421,369L417,368L416,367L415,366L413,366L411,365L410,364L409,364L408,363L407,363L405,362L405,364L406,364L406,365L407,366L408,367L409,367L408,368L409,368L410,368L411,368L410,369L411,370L413,370L414,370L415,371L416,371L417,371L416,372Z M436,365L436,366L437,365L439,365L440,365L440,364L440,363L438,362L438,362L437,362L436,362L434,362L435,363L436,364L434,364L432,364L431,364L432,365L433,366L435,366Z M406,360L407,359L406,359L405,358L403,358L402,357L402,358L404,359L405,360Z M391,341L392,340L394,340L395,340L394,339L393,338L392,338L391,338L390,339L388,339L387,338L385,338L384,338L385,339L387,340L390,341Z M335,338L335,337L336,336L335,336L334,336L333,336L331,336L331,337L332,338L332,337L334,337L334,338Z M309,338L310,339L311,338L313,338L314,339L315,339L316,338L316,337L318,337L319,337L324,335L323,334L322,332L318,331L317,330L316,330L315,329L313,329L312,328L313,327L315,326L316,326L318,327L320,327L321,327L323,327L324,327L328,325L329,324L330,324L328,324L327,325L325,325L323,325L321,325L320,324L321,323L319,323L318,323L316,322L315,323L314,323L312,322L311,322L310,321L309,320L308,320L307,319L306,319L304,319L303,318L301,318L300,318L299,317L298,316L297,316L297,315L296,314L293,312L292,310L293,309L295,308L297,308L298,308L301,307L303,306L302,305L302,304L301,303L298,304L296,303L295,303L293,302L292,302L291,303L290,302L289,303L287,302L287,302L284,302L283,302L282,303L272,305L270,305L268,305L268,306L267,307L267,308L268,308L270,308L271,308L273,308L276,309L277,310L278,311L279,312L281,313L282,314L284,315L286,316L286,317L287,317L289,318L290,319L291,327L292,327L293,327L294,328L296,328L297,330L298,331L299,332L299,331L300,330L301,330L302,331L303,331L302,332L301,333L299,332L298,332L298,333L297,334L298,334L299,334L300,335L301,335L301,335L302,335L302,336L303,337L304,337L305,338L307,337L307,338L308,339Z M330,337L330,336L330,335L330,334L329,334L328,334L327,335L329,337L328,337L327,337L328,337L329,338Z M342,321L343,319L343,317L344,315L344,314L342,314L341,314L340,315L339,316L339,317L338,318L337,317L336,316L335,315L336,314L335,314L334,313L331,310L329,309L329,308L328,307L326,307L326,308L326,309L327,310L328,310L329,311L330,312L330,313L331,315L332,316L333,315L334,316L333,317L332,318L333,320L334,320L336,320L340,321L341,322Z M330,305L332,305L332,304L331,303L330,302L331,301L330,300L329,299L329,298L328,297L327,296L326,297L324,297L323,297L322,296L321,295L320,295L318,294L317,294L316,295L316,296L317,299L318,300L318,301L317,302L316,304L317,304L318,303L320,303L321,304L322,304L324,305L326,304L328,304L330,305L329,307Z M335,304L335,302L334,302L333,303L334,304L335,305Z M397,291L399,291L400,291L399,290L398,290L399,289L400,290L401,289L401,287L399,287L398,285L397,285L396,285L395,284L395,283L394,283L393,283L392,283L390,283L390,283L388,282L386,283L385,284L387,284L388,285L389,286L390,287L391,289L390,290L391,290L392,290L392,289L393,290L394,291L396,291Z M314,299L313,298L314,296L314,295L313,293L313,292L311,291L309,289L307,290L306,291L306,291L305,293L305,295L307,296L308,297L309,297L310,298L310,299L311,299L313,300Z M339,276L339,275L338,274L340,269L340,268L339,267L339,265L339,264L339,263L337,264L336,265L336,266L335,267L336,268L338,268L339,270L338,271L336,274L338,275L340,277Z " data-fips="PP03" data-hasc="PG.MB" data-name="Milne Bay" data-postal="MB" data-varname=""/><path d="M235,248L234,247L232,246L231,246L230,246L229,246L227,246L227,245L227,243L226,242L224,241L225,242L224,242L224,241L223,240L222,238L220,237L220,235L218,234L217,233L216,233L215,232L214,231L212,230L211,230L210,229L209,228L209,227L209,226L209,225L208,224L208,222L208,221L206,219L206,217L206,216L206,215L204,215L203,214L202,212L202,211L202,208L203,206L204,206L205,206L206,205L208,205L209,205L210,206L216,206L218,206L220,206L221,206L223,206L224,206L229,205L232,204L232,201L232,200L232,199L233,197L232,196L232,195L231,194L231,193L230,192L228,190L227,189L226,187L225,186L225,185L222,183L221,182L221,181L220,181L219,180L217,180L216,179L215,179L214,179L212,180L211,180L207,180L206,179L205,179L204,179L202,177L202,176L201,176L200,175L198,176L197,176L197,175L187,181L167,182L168,183L169,184L170,185L174,188L175,189L172,204L171,205L171,205L170,206L171,207L171,209L171,210L169,212L169,213L167,217L167,218L165,222L172,229L172,230L173,232L174,233L184,235L191,240L194,242L194,243L194,244L194,245L195,246L196,247L197,247L198,247L199,247L201,248L202,248L236,248Z M238,175L239,175L239,173L240,169L239,168L237,167L236,166L234,166L233,165L233,165L232,164L231,164L229,165L230,167L229,168L230,169L231,171L232,172L233,173L234,174L236,174L237,175L237,176Z M242,163L242,162L241,161L240,161L240,162L240,163L241,164Z M225,160L226,159L225,158L224,158L223,158L223,159L224,160Z " data-fips="PP14" data-hasc="PG.MR" data-name="Morobe" data-postal="MR" data-varname=""/><path d="M211,298L212,299L212,297L212,296L212,295L210,295L209,294L208,294L207,295L206,295L205,296L206,297L207,296L206,296L207,296L208,296L208,298L209,298L210,299L211,299Z " data-fips="" data-hasc="PG.CE" data-name="National Capital District" data-postal="" data-varname=""/><path d="M426,120L426,118L424,118L424,119L424,120L425,121Z M428,118L427,117L426,118L427,118Z M400,144L401,143L402,142L403,141L404,140L405,139L405,138L406,137L406,136L406,135L405,134L405,133L405,132L407,130L408,129L408,128L408,125L407,124L406,123L405,122L404,119L403,118L402,117L401,117L400,116L399,115L398,114L398,113L398,112L397,113L396,113L394,113L393,112L392,111L390,111L389,110L389,109L389,108L388,107L388,106L387,105L385,105L384,104L384,103L383,102L383,101L381,100L379,99L378,98L377,97L376,96L374,94L373,92L372,91L371,90L370,90L369,89L367,89L366,89L365,89L364,88L363,87L361,86L360,85L357,83L356,82L354,82L353,80L352,79L351,79L350,79L349,78L346,78L345,78L344,77L344,76L343,75L341,74L340,74L339,73L338,72L336,72L335,70L334,69L333,68L331,68L331,69L332,70L333,70L333,71L334,72L333,72L331,73L330,72L329,74L330,74L331,75L332,75L335,74L336,75L338,75L339,76L341,77L342,78L343,78L344,79L345,80L346,81L347,81L347,82L349,82L350,83L352,84L353,86L353,86L355,87L358,88L364,95L369,97L370,98L375,99L376,99L377,100L378,101L379,101L380,102L381,103L382,104L383,105L383,106L386,110L387,111L388,111L388,113L389,114L390,115L390,116L391,117L392,121L393,123L393,124L393,125L394,126L393,130L393,132L393,133L393,135L394,136L394,138L395,139L396,140L397,141L398,142L399,143L400,144L400,145Z M412,99L411,98L411,99L412,99Z M414,97L415,97L415,96L414,96L413,97Z M393,90L393,88L393,87L392,86L392,84L390,85L389,86L389,87L391,89L392,90Z M338,81L337,81L336,80L334,79L332,80L331,80L331,82L332,81L333,81L334,81L336,81L337,82Z M374,82L374,80L372,80L371,79L370,78L370,79L371,79L372,81L373,83Z M371,76L371,76L371,75L371,74L370,73L369,73L369,75L368,77L370,77Z M319,71L320,70L319,69L320,68L319,67L319,65L318,64L316,63L315,63L314,62L312,61L311,61L310,62L308,62L307,62L304,64L303,64L304,65L305,66L306,66L307,67L308,69L309,70L310,71L311,71L314,71L315,71L316,71L317,71Z M372,71L372,70L371,69L370,70L370,71L371,71Z M305,38L304,37L303,36L303,37L302,37L303,38L304,38Z M297,34L296,32L296,31L296,30L295,29L293,28L292,27L291,27L290,27L289,29L289,30L290,32L291,32L292,33L294,34L295,34L295,34L296,35Z " data-fips="PP15" data-hasc="PG.NI" data-name="New Ireland" data-postal="NI" data-varname="Neuirland|Nouvelle-Irlande|Nova Irlanda|Nuova Irlanda"/><path d="M263,314L265,313L267,313L268,313L268,311L267,309L267,308L267,308L267,307L268,306L268,305L270,305L272,305L282,303L283,302L284,302L284,301L282,300L281,300L280,299L277,299L276,298L276,296L275,295L275,293L276,293L277,291L277,290L277,289L278,288L280,287L280,286L279,285L280,284L279,283L278,282L277,282L274,282L273,282L272,282L271,283L269,284L268,283L266,283L265,284L264,285L263,285L261,285L259,285L256,285L255,284L254,283L254,282L253,280L253,278L252,278L252,276L252,273L251,272L251,271L249,269L248,269L247,268L246,268L244,267L244,266L244,265L244,264L244,262L243,260L243,258L243,257L242,256L242,254L240,250L239,250L238,250L237,250L236,250L236,248L213,258L216,259L219,260L220,262L222,263L223,265L224,267L223,269L220,273L220,274L220,276L220,277L221,278L222,279L223,280L224,281L225,283L226,284L227,286L228,287L229,287L232,290L232,291L233,291L234,292L237,296L237,297L237,298L237,300L237,301L238,301L240,302L241,303L242,303L244,305L246,307L247,307L248,307L251,309L252,309L254,310L255,311L256,312L258,312L258,312L260,313L262,314Z " data-fips="PP04" data-hasc="PG.NO" data-name="Northern" data-postal="NO" data-varname="Oro"/><path d="M304,192L305,191L306,191L307,192L308,191L310,191L311,192L312,192L314,192L315,192L316,192L317,192L319,191L320,190L322,189L323,189L324,188L325,187L326,187L328,187L329,187L329,186L326,182L324,180L323,179L323,177L323,176L325,175L326,175L330,174L331,174L332,173L336,173L336,171L336,170L337,169L338,170L339,170L341,168L344,166L345,165L345,164L343,164L342,163L345,157L348,152L352,150L359,150L358,148L358,148L358,148L357,148L356,147L354,147L353,147L352,147L349,146L349,147L347,148L346,149L345,149L344,150L343,152L342,152L341,153L340,154L340,155L339,156L338,158L337,160L338,161L337,163L336,164L335,164L334,165L332,165L330,164L329,165L328,166L327,167L325,167L324,167L323,166L322,165L321,164L319,164L317,164L316,165L315,166L314,167L313,168L312,167L309,167L308,166L307,165L307,163L306,162L306,160L305,159L305,158L306,157L306,155L306,154L308,153L310,152L310,151L310,150L309,149L307,149L306,149L305,150L304,152L305,152L304,153L304,155L305,156L303,157L302,158L301,159L301,161L302,162L303,162L303,163L302,165L301,166L299,166L298,166L297,166L296,167L295,167L294,168L293,167L293,166L293,165L292,166L291,166L289,167L288,167L287,168L286,168L285,167L283,168L282,168L277,168L277,167L276,167L273,165L272,165L270,164L267,165L266,165L265,166L263,166L263,165L261,165L260,165L258,165L258,165L256,166L255,166L254,165L253,164L252,163L251,163L250,164L249,165L249,166L248,170L248,171L249,172L250,174L251,174L252,175L253,175L254,175L256,176L257,176L258,175L260,177L261,177L262,177L263,178L263,179L264,179L265,179L266,180L266,181L267,181L268,182L271,183L272,182L272,183L271,184L273,185L273,186L272,187L273,187L275,187L275,186L276,185L278,185L279,184L280,184L281,184L282,184L286,186L288,188L289,189L290,191L291,192L292,192L293,192L294,192L297,192L298,192L300,192L301,192L302,191L304,192L304,193Z M343,148L344,147L344,146L343,145L342,146L341,147L342,148Z M276,145L276,144L275,144L275,145L276,146Z M289,138L289,137L288,137L287,137L286,138L286,139L287,138L288,137L288,138L289,139Z " data-fips="PP17" data-hasc="PG.WN" data-name="West New Britain" data-postal="WN" data-varname="Nova Bretanha Ocidental|Nuova Britannia Occidentale"/></g></svg>