<?xml version="1.0" ?><!DOCTYPE svg  PUBLIC '-//W3C//DTD SVG 1.1//EN'  'http://www.w3.org/Graphics/SVG/1.1/DTD/svg11.dtd'><svg enable_background="new 0 0 500 401" height="401px" style="stroke-linejoin: round; stroke:#000; fill:#f6f3f0;" version="1.1" viewBox="0 0 500 401" width="500px" xmlns="http://www.w3.org/2000/svg" xmlns:xlink="http://www.w3.org/1999/xlink"><defs><style type="text/css"><![CDATA[path { fill-rule: evenodd; }
#context path { fill: #eee; stroke: #bbb; } ]]></style></defs><metadata><views><view h="401" padding="0" w="500"><proj id="laea" lat0="-9.611" lon0="160.109"/><bbox h="71.43" w="161.34" x="943.69" y="963.06"/><llbbox lat0="-90" lat1="90" lon0="-180" lon1="180"/></view></views></metadata><g id="admin1"><path d="M230,210L230,208L229,206L229,205L229,203L228,202L228,201L227,200L226,199L225,197L224,196L224,195L222,194L221,193L222,195L222,196L223,197L224,198L223,199L223,200L223,206L224,207L224,207L225,207L226,206L227,207L227,208L229,210Z M245,211L245,207L245,206L244,207L243,208L244,210L244,211L245,213Z M222,199L222,198L220,197L219,193L217,191L218,191L218,189L218,188L219,187L218,186L217,186L216,185L217,184L216,183L215,183L215,182L215,180L214,180L215,179L214,178L213,177L212,177L211,176L210,176L210,175L209,174L208,174L207,174L206,172L206,171L206,169L206,168L208,168L209,166L208,165L207,164L206,162L204,160L202,158L202,158L201,156L201,155L200,155L199,154L198,153L197,154L198,155L197,156L196,155L195,154L192,155L193,157L195,159L197,161L197,163L195,165L196,168L197,170L199,174L199,177L199,178L200,179L200,181L203,186L204,187L206,188L207,189L207,190L209,190L210,192L211,192L212,193L215,195L217,196L217,198L218,199L219,201L220,202L223,204Z " data-fips="BP03" data-hasc="SB.ML" data-name="Malaita" data-postal="ML" data-varname=""/><path d="M190,287L191,287L192,287L192,286L189,285L185,282L184,281L181,280L180,279L179,279L178,278L175,276L174,275L172,275L172,275L170,275L170,275L169,277L170,278L171,279L172,279L174,279L175,280L177,281L178,281L179,280L180,280L181,281L181,282L182,283L183,283L184,285L185,286L186,287L187,287L188,288L189,288Z M165,268L164,268L163,268L162,267L163,268Z " data-fips="BP10" data-hasc="SB.RB" data-name="Rennell and Bellona" data-postal="RB" data-varname=""/><path d="M165,186L164,184L163,184L163,186L164,187Z M181,184L182,183L182,181L180,180L179,181L178,180L176,180L176,180L175,181L174,182L174,183L176,184L177,183L178,183L179,184L180,185Z M181,187L182,186L183,187L185,186L186,185L186,185L185,184L184,184L183,182L182,183L181,185L180,186L179,186L179,187Z M141,184L141,183L141,183L141,181L140,182L139,184L139,185Z M139,183L139,181L138,181L138,180L138,180L136,180L137,181L136,181L135,182L134,183L135,184L136,185Z M174,180L175,179L174,178L173,178L173,180L173,181Z " data-fips="BP10" data-hasc="SB.GC" data-name="Central" data-postal="GC" data-varname=""/><path d="M196,215L198,214L200,214L201,213L202,212L201,211L201,210L200,209L200,208L198,207L197,206L196,206L195,205L195,203L194,202L193,201L191,200L189,200L188,198L186,198L185,196L183,196L180,196L178,196L176,196L175,196L174,196L173,196L171,196L170,197L168,196L167,196L166,195L166,194L164,193L162,191L161,190L159,189L156,191L156,192L156,193L156,194L156,196L156,197L156,199L156,200L157,201L158,203L158,204L159,205L160,206L160,207L162,208L164,210L165,210L167,210L168,211L170,211L171,211L172,211L173,211L175,211L178,211L183,212L184,212L185,213L186,213L187,214L190,214L192,215L195,216Z " data-fips="BP06" data-hasc="SB.GC" data-name="Guadalcanal" data-postal="GC" data-varname=""/><path d="M166,162L165,160L165,159L163,157L162,158L162,156L163,156L164,155L164,154L157,149L154,147L152,145L151,144L149,143L148,142L148,141L147,141L145,141L144,141L143,140L142,140L141,139L140,138L139,138L137,139L136,138L135,137L135,136L133,136L132,135L131,134L129,132L128,132L127,131L126,130L125,129L124,128L123,127L123,126L122,127L120,126L119,125L118,125L117,126L117,126L113,124L111,124L112,126L114,127L117,129L117,131L117,132L117,133L119,135L121,135L122,136L123,137L124,137L124,139L125,139L126,139L127,141L129,142L130,142L131,144L132,143L132,144L133,145L134,145L136,145L136,146L137,146L141,149L142,149L143,150L145,150L146,152L147,152L149,152L150,153L151,153L152,154L153,155L156,155L158,157L159,158L159,159L161,160L161,161L163,161L164,162L165,162L166,163Z M159,162L159,161L157,160L157,159L157,156L155,156L154,156L153,157L153,158L153,159L154,160L155,160L156,162L158,162Z M114,128L113,127L112,127L111,126L109,125L108,126L107,126L108,127L109,128L111,128L110,127L111,128L113,127L113,128L114,129Z M110,125L111,124L109,123L108,123L107,123L106,122L106,122L105,121L105,123L106,123L108,124L109,125Z M105,121L105,120L105,119L104,119L103,120L102,120L103,121L104,122Z " data-fips="BP07" data-hasc="SB.IS" data-name="Isabel" data-postal="IS" data-varname=""/><path d="M432,284L432,283L430,283L431,284Z M430,284L429,284L428,283L427,281L426,281L424,281L423,282L424,283L425,285L426,285L427,286Z M416,272L417,271L417,270L415,269L414,269L414,271L415,270L414,271L414,272Z M392,253L394,250L395,250L397,250L398,250L399,250L400,249L401,248L402,247L401,246L399,246L398,245L397,246L393,246L392,246L390,247L390,248L389,249L388,249L387,250L388,252L389,253L391,251L391,252L391,253Z M407,231L405,231L405,229L405,228L405,230L405,231L406,232Z " data-fips="BP09" data-hasc="SB.TE" data-name="Temotu" data-postal="TE" data-varname="Eastern Islands"/><path d="M82,171L80,170L79,169L79,169L78,169L77,169L76,169L74,170L75,170L77,171L79,172L81,172Z M103,173L104,172L104,171L103,169L103,168L102,170L101,171L101,172L101,173L102,174Z M96,171L97,171L97,170L99,167L98,166L98,165L99,164L100,164L99,162L98,162L97,162L95,163L95,162L95,161L93,162L93,163L92,164L91,163L90,165L90,166L90,168L92,170L93,171L94,171Z M73,170L71,169L70,167L69,166L70,165L70,164L71,164L71,163L72,162L73,161L72,160L71,158L70,158L69,159L68,160L67,162L65,162L65,163L65,164L66,165L67,166L69,168L69,169L70,170L71,170Z M88,164L87,163L88,163L90,163L90,162L91,161L91,160L90,159L90,158L89,157L89,156L88,154L87,153L86,152L85,151L84,151L83,151L82,151L81,150L81,149L80,148L80,147L80,146L80,145L80,143L80,142L79,142L75,141L74,141L73,142L71,144L70,146L69,147L69,148L68,150L67,149L66,150L65,151L66,154L67,155L69,155L70,153L70,152L72,153L74,152L75,152L76,152L77,152L78,153L79,153L79,154L80,156L80,157L79,156L78,154L78,157L79,159L80,160L81,161L82,161L84,162L85,162L87,164L87,165L88,166Z M62,154L62,153L61,151L60,150L58,150L59,151L60,152L61,153L62,154L63,155Z M65,152L65,151L64,149L62,148L61,148L61,149L62,150L63,151L64,153L65,153Z M64,146L64,144L64,142L64,140L63,139L62,137L59,137L58,137L57,137L56,138L55,140L55,141L55,143L57,146L59,147L62,147L63,147Z M50,144L49,144L49,146L51,147Z M42,149L42,147L42,146L42,145L42,143L41,142L41,141L40,140L39,141L39,143L39,146L40,147L41,150L42,150Z M46,139L46,138L46,137L48,135L49,133L49,132L48,131L46,131L45,130L44,129L43,128L43,127L42,126L42,126L40,126L39,127L38,128L38,130L39,132L40,133L41,133L41,134L42,135L42,137L44,138L44,140L45,140Z M3,119L4,118L3,118L2,117L1,117L0,118L1,119Z M10,109L11,108L12,108L13,107L14,106L13,105L12,105L10,104L8,103L8,104L7,105L6,108L7,108L8,109Z M22,103L23,102L24,102L23,101L22,100L22,99L21,98L21,97L20,98L21,99L22,101L21,101L21,103L21,104L22,104Z " data-fips="BP11" data-hasc="" data-name="Western" data-postal="" data-varname="Lauru"/><path d="M80,121L80,120L78,119L77,119L76,119L75,120L77,120L78,120L77,121L79,121Z M87,121L86,119L84,118L83,120L83,121L84,122L85,122Z M75,118L77,117L76,116L75,115L73,116L72,116L71,116L71,115L70,115L69,114L68,113L67,112L66,112L65,111L64,111L63,110L62,109L62,107L61,105L61,104L61,103L59,101L58,100L57,100L56,99L55,98L54,98L52,97L50,96L48,95L46,94L44,92L43,91L40,91L40,90L38,89L37,89L36,90L35,91L36,94L37,95L41,98L42,99L45,100L46,102L47,103L49,106L50,107L50,108L54,112L56,113L57,114L58,115L59,114L60,115L61,117L62,117L65,117L66,118L68,118L69,117L68,118L70,119L72,119L74,120Z " data-fips="BP11" data-hasc="SB.CH" data-name="Choiseul" data-postal="CH" data-varname="Lauru"/><path d="M259,251L260,250L258,250L257,250L256,250L256,248L257,248L257,246L256,244L255,244L254,243L254,241L253,241L252,238L251,237L250,236L248,236L247,237L245,236L244,235L243,235L242,235L240,235L239,235L237,234L236,234L235,233L234,232L233,232L231,230L227,228L223,226L221,226L220,226L219,226L219,228L219,229L219,230L219,231L221,231L222,231L223,231L224,231L226,232L226,232L228,233L227,233L227,235L227,236L228,236L229,238L228,240L230,240L230,241L231,241L232,242L233,243L234,244L235,244L236,245L237,246L238,246L239,246L240,246L241,247L242,248L244,248L246,248L247,248L249,249L250,250L252,250L253,249L257,250L258,251Z M237,229L237,228L236,227L236,226L235,227L236,228L236,229Z " data-fips="BP08" data-hasc="SB.MK" data-name="Makira" data-postal="MK" data-varname="Makira and Ulawa"/></g></svg>