<?xml version="1.0" ?><!DOCTYPE svg  PUBLIC '-//W3C//DTD SVG 1.1//EN'  'http://www.w3.org/Graphics/SVG/1.1/DTD/svg11.dtd'><svg enable_background="new 0 0 500 401" height="401px" style="stroke-linejoin: round; stroke:#000; fill:#f6f3f0;" version="1.1" viewBox="0 0 500 401" width="500px" xmlns="http://www.w3.org/2000/svg" xmlns:xlink="http://www.w3.org/1999/xlink"><defs><style type="text/css"><![CDATA[path { fill-rule: evenodd; }
#context path { fill: #eee; stroke: #bbb; } ]]></style></defs><metadata><views><view h="401" padding="0" w="500"><proj id="laea" lat0="-8.822" lon0="125.878"/><bbox h="16.9" w="40.02" x="977.5" y="991.52"/><llbbox lat0="-90" lat1="90" lon0="-180" lon1="180"/></view></views></metadata><g id="admin1"><path d="M233,169L238,167L241,166L246,164L253,160L259,161L268,162L271,158L274,155L276,152L274,149L259,153L251,155L246,155L243,153L239,158L237,158L234,157L230,157L222,161L222,162L223,167L227,170Z M236,122L238,120L238,119L239,115L245,100L246,95L244,94L239,97L236,101L234,103L233,105L228,109L226,111L224,113L224,115L225,116L226,118L228,119L233,121L235,122Z " data-fips="TT00" data-hasc="TP.DL" data-name="Dili" data-postal="DL" data-varname="Dilli"/><path d="M174,190L175,190L182,188L189,185L193,183L200,182L206,180L209,178L213,175L219,173L224,172L223,167L222,162L222,161L222,161L218,162L208,161L205,161L195,164L191,167L189,167L183,167L182,167L179,168L172,170L169,171L167,173L165,176L164,179L163,187L166,188L169,190Z " data-fips="TT00" data-hasc="TP.LQ" data-name="Liquica" data-postal="LQ" data-varname="Likisia"/><path d="M37,304L40,304L43,303L45,302L46,300L46,298L45,296L45,294L46,293L47,291L48,290L48,285L49,284L49,284L51,284L52,283L57,279L60,274L61,273L61,272L62,267L64,259L64,255L60,256L57,256L56,258L54,259L39,262L29,265L24,267L23,269L20,274L18,275L15,275L3,280L0,281L5,289L9,293L15,293L16,293L18,289L19,288L21,287L23,285L25,285L27,286L30,288L32,290L33,293L34,295L35,298L35,299L34,301L34,303L35,305Z " data-fips="TT00" data-hasc="TP.AM" data-name="Ambeno" data-postal="AM" data-varname="Ambino|Oecussi"/><path d="M222,205L229,204L234,202L238,198L239,195L242,195L244,193L246,192L250,192L253,192L255,195L261,192L263,190L266,189L269,182L267,176L265,173L263,168L259,161L253,160L246,164L241,166L238,167L233,169L227,170L224,172L223,173L225,176L223,181L220,183L215,185L215,187L217,189L216,192L213,196L216,198L220,200L220,203L222,205Z " data-fips="TT00" data-hasc="TP.AL" data-name="Aileu" data-postal="AL" data-varname="Alieau"/><path d="M232,261L235,259L238,257L240,256L248,257L249,257L249,256L248,250L249,248L250,245L249,242L246,240L243,238L238,236L236,232L236,227L236,224L237,222L238,219L239,216L242,214L247,214L250,213L250,209L250,206L251,202L253,192L250,192L246,192L244,193L242,195L239,195L238,198L234,202L229,204L222,205L222,205L222,206L222,210L219,213L218,215L216,217L215,220L215,223L210,225L210,229L210,233L210,233L212,235L213,237L215,238L217,242L217,248L219,250L223,251L225,253L223,260L222,264Z " data-fips="TT00" data-hasc="TP.AN" data-name="Ainaro" data-postal="AN" data-varname=""/><path d="M368,180L368,175L368,171L369,167L372,170L375,176L379,179L385,178L389,178L392,180L393,179L395,175L399,173L404,175L407,176L410,178L414,178L417,173L422,170L423,169L422,166L418,162L413,157L410,155L412,153L412,150L410,149L408,147L407,143L405,140L401,141L390,146L383,148L378,143L376,142L372,142L368,141L365,140L363,138L361,138L358,139L356,139L351,142L346,143L339,148L336,149L330,150L323,150L321,151L324,153L326,156L326,160L327,164L327,169L326,173L324,175L321,178L327,180L335,180L343,178L350,177L357,179L362,180L366,182Z " data-fips="TT00" data-hasc="TP.BC" data-name="Baucau" data-postal="BC" data-varname="Baukau"/><path d="M195,260L196,255L192,250L195,249L200,249L201,246L202,241L202,237L206,234L210,233L210,229L210,225L207,226L197,226L195,222L195,218L194,215L190,206L186,198L184,195L181,193L176,192L175,190L174,190L169,190L166,188L163,187L163,193L162,196L160,198L153,200L152,202L151,204L144,215L140,219L135,222L136,225L135,226L134,231L133,233L134,236L135,238L137,239L139,240L142,239L144,239L148,236L155,233L157,231L158,230L159,227L159,226L161,226L162,227L163,228L166,229L169,231L171,234L172,237L172,240L171,243L170,250L170,251L171,254L172,254L177,256L179,257L180,258L181,260L186,261Z " data-fips="TT00" data-hasc="TP.BB" data-name="Bobonaro" data-postal="BB" data-varname=""/><path d="M162,298L165,296L167,294L170,293L177,293L180,292L181,291L183,289L186,285L188,282L192,281L200,274L205,271L222,264L223,260L225,253L223,251L219,250L217,248L217,242L215,238L213,237L212,235L210,233L210,233L206,234L202,237L202,241L201,246L200,249L195,249L192,250L196,255L195,260L186,261L181,260L180,258L179,257L177,256L172,254L171,254L171,254L170,256L169,256L165,256L164,256L161,258L160,259L159,260L157,260L156,259L154,257L153,256L152,256L149,256L144,257L141,260L140,265L141,270L142,273L143,274L147,278L150,280L151,281L151,282L151,284L151,285L155,291L155,293L157,302Z " data-fips="TT00" data-hasc="TP.CL" data-name="Cova Lima" data-postal="CL" data-varname="Covalima|Kova-Lima"/><path d="M207,226L210,225L215,223L215,220L216,217L218,215L219,213L222,210L222,206L222,205L220,203L220,200L216,198L213,196L216,192L217,189L215,187L215,185L220,183L223,181L225,176L223,173L219,173L213,175L209,178L206,180L200,182L193,183L189,185L182,188L175,190L176,192L181,193L184,195L186,198L190,206L194,215L195,218L195,222L197,226Z " data-fips="TT00" data-hasc="TP.ER" data-name="Ermera" data-postal="ER" data-varname=""/><path d="M318,228L321,227L321,227L317,222L314,218L312,214L312,210L312,207L308,201L305,196L305,193L307,190L310,188L312,184L314,179L317,177L320,178L321,178L324,175L326,173L327,169L327,164L326,160L326,156L324,153L321,151L320,151L314,153L310,153L306,153L300,150L284,147L277,148L274,149L276,152L274,155L271,158L268,162L263,168L265,173L267,176L269,182L270,190L269,198L271,205L275,209L280,212L285,214L289,218L291,222L298,226L305,231L307,234L307,236Z " data-fips="TT00" data-hasc="TP.MT" data-name="Manatuto" data-postal="MT" data-varname=""/><path d="M251,257L261,252L264,251L270,251L272,250L275,247L277,246L280,246L289,248L292,247L307,236L307,234L305,231L298,226L291,222L289,218L285,214L280,212L275,209L271,205L269,198L270,190L266,189L263,190L261,192L255,195L251,202L250,206L250,209L250,213L247,214L242,214L239,216L238,219L237,222L236,224L236,227L236,232L238,236L243,238L246,240L249,242L250,245L249,248L248,250L249,256L249,257Z " data-fips="TT00" data-hasc="TP.MF" data-name="Manufahi" data-postal="MF" data-varname=""/><path d="M325,225L365,220L372,219L377,214L383,204L389,197L390,197L393,197L395,196L396,196L400,193L402,192L405,191L411,191L411,185L410,178L407,176L404,175L399,173L395,175L393,179L392,180L389,178L385,178L379,179L375,176L372,170L369,167L368,171L368,175L368,180L366,182L362,180L357,179L350,177L343,178L335,180L327,180L321,178L320,178L317,177L314,179L312,184L310,188L307,190L305,193L305,196L308,201L312,207L312,210L312,214L314,218L317,222L321,227L321,227Z " data-fips="TT00" data-hasc="TP.VQ" data-name="Viqueque" data-postal="VQ" data-varname="Vikeke"/><path d="M429,189L433,187L443,180L454,178L455,178L456,176L466,166L480,155L487,148L498,140L500,138L499,134L496,132L489,131L486,129L485,127L484,126L484,125L482,124L481,125L476,128L473,129L470,130L466,129L463,129L452,123L450,122L447,121L444,122L428,134L422,136L415,138L414,138L411,137L410,137L408,137L405,140L407,143L408,147L410,149L412,150L412,153L410,155L413,157L418,162L422,166L423,169L422,170L417,173L414,178L411,185L411,191Z " data-fips="ID28" data-hasc="TP.BT" data-name="Lautem" data-postal="BT" data-varname=""/></g></svg>