<?xml version="1.0" ?><!DOCTYPE svg  PUBLIC '-//W3C//DTD SVG 1.1//EN'  'http://www.w3.org/Graphics/SVG/1.1/DTD/svg11.dtd'><svg enable_background="new 0 0 500 401" height="401px" style="stroke-linejoin: round; stroke:#000; fill:#f6f3f0;" version="1.1" viewBox="0 0 500 401" width="500px" xmlns="http://www.w3.org/2000/svg" xmlns:xlink="http://www.w3.org/1999/xlink"><defs><style type="text/css"><![CDATA[path { fill-rule: evenodd; }
#context path { fill: #eee; stroke: #bbb; } ]]></style></defs><metadata><views><view h="401" padding="0" w="500"><proj id="laea" lat0="-22.182" lon0="23.815"/><bbox h="112.71" w="107.11" x="956.11" y="945.77"/><llbbox lat0="-90" lat1="90" lon0="-180" lon1="180"/></view></views></metadata><g id="admin1"><path d="M63,243L185,241L273,242L219,140L100,141L100,141L101,184L101,185L60,186L62,243Z " data-fips="BC03" data-hasc="BW.GH" data-name="Ghanzi" data-postal="GH" data-varname="Ghantsi"/><path d="M95,398L97,397L99,396L100,395L102,395L104,395L106,396L111,398L112,397L116,396L118,396L121,396L123,396L125,396L129,396L131,397L133,397L135,395L136,394L136,392L136,390L136,389L137,389L139,388L142,388L145,388L147,386L149,384L151,382L152,378L152,377L154,375L155,374L157,373L158,373L160,371L161,369L162,368L164,368L166,368L167,367L168,365L169,364L171,361L171,359L172,359L173,357L173,356L173,355L173,353L174,352L174,351L174,350L174,348L174,347L176,345L176,344L176,343L177,341L176,340L177,339L178,336L179,335L180,333L181,332L182,331L182,330L184,329L186,328L186,329L187,329L190,327L192,327L194,327L196,327L198,328L199,328L201,327L202,328L203,329L204,330L205,330L206,331L210,334L211,335L213,336L214,337L215,338L217,340L219,341L220,343L223,342L223,343L224,344L228,342L230,342L232,343L235,347L236,348L238,348L239,348L241,348L243,348L243,348L242,345L241,344L239,343L234,339L233,337L232,315L231,314L226,309L225,308L187,309L186,308L185,307L185,271L185,256L184,253L181,252L181,248L182,246L184,246L185,245L185,241L63,243L62,243L64,307L65,308L66,309L68,311L70,312L71,312L74,314L80,319L81,321L82,323L82,325L83,326L84,327L84,328L86,329L85,330L86,331L86,333L87,334L89,335L89,336L90,337L91,337L90,338L90,340L92,341L92,343L91,344L92,345L92,347L93,347L94,348L95,351L95,352L96,353L97,355L97,359L98,363L99,366L97,369L97,370L96,372L94,375L92,378L91,379L90,382L90,383L91,385L91,386L91,387L91,390L91,391L91,393L91,395L92,396L93,397L94,399Z " data-fips="BC04" data-hasc="BW.KG" data-name="Kgalagadi" data-postal="KG" data-varname=""/><path d="M219,140L219,110L220,110L221,110L223,109L224,107L226,107L227,106L229,106L230,105L231,106L233,108L234,107L236,110L237,111L239,114L241,114L243,114L244,114L270,112L271,111L271,100L264,97L265,53L305,54L304,50L299,45L297,42L297,39L296,37L295,36L294,36L293,34L290,31L289,30L286,27L285,26L285,23L283,21L282,17L281,16L280,15L278,14L277,13L276,10L275,8L274,7L274,6L274,4L276,1L276,1L273,0L272,0L270,1L269,2L267,1L265,1L264,1L263,0L262,1L259,2L258,2L257,3L256,4L255,4L254,5L253,6L250,8L248,11L247,12L244,12L243,10L242,9L242,8L240,7L239,7L237,8L235,10L234,10L233,10L231,11L229,13L228,14L226,14L224,16L222,17L221,17L220,18L219,20L217,22L217,23L216,23L212,28L210,28L209,30L207,30L206,30L206,28L205,25L205,24L204,21L203,21L202,19L201,19L200,18L199,18L198,17L198,16L197,15L196,13L196,12L195,11L195,10L194,9L193,9L181,10L119,23L98,24L98,54L100,141Z " data-fips="BC08" data-hasc="BW.NW" data-name="North-West" data-postal="NW" data-varname="North West|Bokone-Bophirima"/><path d="M334,267L335,266L337,266L337,265L338,264L339,263L339,263L340,262L342,262L342,262L342,260L343,259L344,257L345,258L346,258L346,256L346,255L347,255L348,254L349,253L348,252L350,253L351,252L352,252L352,251L353,250L355,250L356,248L358,246L358,248L359,247L360,246L361,247L361,247L362,246L365,246L366,245L366,243L367,242L367,241L368,240L368,239L369,239L370,239L372,238L373,240L374,239L375,237L375,236L375,235L376,235L377,234L378,234L380,233L381,232L382,231L382,228L383,228L384,227L386,226L386,225L386,223L387,223L389,222L389,221L390,221L391,220L391,218L391,217L393,216L395,215L397,213L398,212L400,212L403,212L406,212L407,212L409,212L410,212L411,211L414,210L416,209L418,209L418,208L420,207L422,207L423,205L424,204L424,201L425,200L426,199L427,197L433,197L434,196L435,196L438,196L440,196L436,193L436,192L435,191L431,191L430,191L429,190L427,189L427,187L426,185L427,183L427,182L428,181L428,180L428,179L425,178L424,177L422,177L420,177L415,174L413,173L411,172L409,172L407,171L405,172L404,172L400,170L399,169L397,169L392,169L389,168L387,168L386,167L385,166L385,165L384,164L384,163L384,162L383,159L382,158L382,157L381,156L380,154L379,153L378,151L375,149L374,148L373,146L373,145L373,144L373,141L373,139L373,137L374,136L374,135L375,133L375,132L375,130L374,126L374,125L375,123L375,121L373,120L372,120L370,119L368,120L365,119L360,119L359,119L357,120L358,114L358,111L357,108L355,103L354,102L352,101L351,101L350,101L349,99L348,98L346,98L345,98L343,98L339,95L336,95L335,95L334,93L333,92L331,92L330,91L329,89L328,88L326,87L323,86L323,85L322,83L321,83L319,83L319,82L319,81L319,80L318,79L316,79L314,78L312,77L311,76L307,64L306,62L305,61L305,60L304,58L304,56L305,54L265,53L264,97L271,100L271,111L270,112L244,114L243,114L241,114L239,114L237,111L236,110L234,107L233,108L231,106L230,105L229,106L227,106L226,107L224,107L223,109L221,110L220,110L219,110L219,140L293,242L294,242L297,244L299,245L332,270Z " data-fips="BC01" data-hasc="BW.CE" data-name="Central" data-postal="CE" data-varname="Centre|Ngwato|Serowe-Palapye"/><path d="M314,300L316,299L317,300L319,300L322,297L323,294L324,292L325,292L328,290L330,287L331,286L336,285L337,283L338,280L338,278L341,266L341,264L342,262L340,262L339,263L339,263L338,264L337,265L337,266L335,266L334,267L332,270L301,280L300,286L299,287L299,288L298,291L298,292L299,293L301,294L307,299L309,301Z " data-fips="BC05" data-hasc="BW.KL" data-name="Kgatleng" data-postal="KL" data-varname=""/><path d="M301,294L299,293L298,292L298,291L299,288L299,287L300,286L301,280L299,245L297,244L294,242L293,242L273,242L185,241L185,245L184,246L182,246L181,248L181,252L184,253L185,256L185,271L281,302L287,305L290,305Z " data-fips="BC06" data-hasc="BW.KW" data-name="Kweneng" data-postal="KW" data-varname=""/><path d="M289,335L290,329L294,321L295,318L296,316L296,315L297,312L298,311L298,309L297,306L298,304L299,304L302,304L303,303L309,301L307,299L301,294L290,305L289,309L288,310L288,311L288,312L287,316L289,316L289,317L284,334L288,336Z " data-fips="BC09" data-hasc="BW.SE" data-name="South-East" data-postal="SE" data-varname="Borwa-Botlhaba"/><path d="M256,351L259,350L261,349L263,348L264,348L266,348L268,348L269,349L278,348L281,347L286,343L287,340L288,336L284,334L289,317L289,316L287,316L288,312L288,311L288,310L289,309L290,305L287,305L281,302L185,271L185,307L186,308L187,309L225,308L226,309L231,314L232,315L233,337L234,339L239,343L241,344L242,345L243,348L243,348L246,349L248,351L249,351L252,351L253,351L254,351Z " data-fips="BC10" data-hasc="BW.SO" data-name="Southern" data-postal="SO" data-varname="Borwa|Ngwakets|Ngwaketse"/></g></svg>