<?xml version="1.0" ?><!DOCTYPE svg  PUBLIC '-//W3C//DTD SVG 1.1//EN'  'http://www.w3.org/Graphics/SVG/1.1/DTD/svg11.dtd'><svg enable_background="new 0 0 500 401" height="401px" style="stroke-linejoin: round; stroke:#000; fill:#f6f3f0;" version="1.1" viewBox="0 0 500 401" width="500px" xmlns="http://www.w3.org/2000/svg" xmlns:xlink="http://www.w3.org/1999/xlink"><defs><style type="text/css"><![CDATA[path { fill-rule: evenodd; }
#context path { fill: #eee; stroke: #bbb; } ]]></style></defs><metadata><views><view h="401" padding="0" w="500"><proj id="laea" lat0="6.571" lon0="20.483"/><bbox h="108.01" w="160.27" x="925.22" y="945.28"/><llbbox lat0="-90" lat1="90" lon0="-180" lon1="180"/></view></views></metadata><g id="admin1"><path d="M293,292L293,290L294,289L294,286L295,285L296,284L297,282L297,281L297,280L295,280L294,280L291,280L289,280L290,279L289,278L288,277L288,276L287,276L286,275L285,275L284,274L283,274L282,274L282,273L282,271L282,270L283,269L283,264L285,262L285,261L284,259L284,258L285,257L286,257L287,255L287,253L287,249L288,248L288,247L288,246L288,244L284,242L282,241L279,241L277,243L276,244L275,244L274,243L273,243L273,241L272,239L272,238L271,237L270,236L269,235L269,235L268,235L267,235L265,235L264,236L263,237L262,237L260,237L259,237L258,237L256,235L255,235L254,235L255,236L255,237L255,238L254,239L254,241L253,241L251,242L251,243L252,244L252,245L253,246L252,247L251,248L252,250L251,253L251,255L250,256L249,257L250,258L251,261L250,262L249,264L249,265L250,267L249,269L249,270L248,270L246,270L245,270L244,271L242,272L239,276L237,278L236,279L232,281L236,284L238,285L241,284L244,284L246,284L247,283L248,283L252,284L255,285L256,286L257,287L258,288L259,289L260,289L261,289L262,289L263,288L264,288L265,289L268,290L269,290L272,291L273,291L274,291L278,289L280,289L281,289L282,290L283,290L285,290L286,291L287,292L290,292L291,291L292,291L293,292Z " data-fips="CT02" data-hasc="CF.BK" data-name="Basse-Kotto" data-postal="BK" data-varname=""/><path d="M161,312L161,307L161,306L161,306L158,304L157,304L156,302L155,302L154,301L153,300L151,298L151,297L151,295L151,293L151,292L149,288L148,288L146,288L145,287L144,284L142,283L141,283L140,283L139,283L138,283L136,282L135,282L134,283L132,283L131,282L131,281L129,280L127,280L125,281L124,281L122,280L121,279L120,278L119,272L117,270L117,269L114,268L112,267L110,265L109,264L108,263L106,262L105,261L104,260L101,261L101,263L100,263L99,264L96,266L94,266L93,267L93,273L94,275L97,281L99,282L100,283L100,285L101,286L102,286L101,287L99,287L98,286L95,284L94,284L92,286L91,287L89,291L90,291L93,295L96,299L97,301L99,302L101,303L103,304L104,304L106,305L107,305L108,306L110,307L112,308L115,313L116,312L117,312L118,312L119,313L121,314L122,315L124,315L127,315L128,315L129,315L130,315L131,316L132,318L132,318L134,318L135,317L137,318L138,318L140,317L141,317L143,318L144,321L145,320L146,320L147,319L147,317L148,317L152,317L153,316L154,316L155,315L156,315L158,316L159,319L160,321L162,321Z " data-fips="CT07" data-hasc="CF.LB" data-name="Lobaye" data-postal="LB" data-varname=""/><path d="M33,313L39,309L41,308L42,309L43,310L44,310L45,309L46,306L51,304L55,302L57,301L64,300L65,301L66,301L70,302L72,304L73,304L75,304L76,305L78,307L79,306L80,304L81,304L82,302L84,300L84,298L84,296L84,295L85,293L87,290L88,290L89,291L91,287L92,286L94,284L95,284L98,286L99,287L101,287L102,286L101,286L100,285L100,283L99,282L97,281L94,275L93,273L93,267L94,266L96,266L99,264L100,263L101,263L101,261L100,258L101,258L101,257L102,257L104,256L104,255L102,252L101,251L97,248L95,248L94,248L92,248L91,248L90,248L89,247L87,248L82,251L64,258L62,259L61,259L60,258L59,257L58,257L57,258L55,259L54,258L53,257L53,256L53,255L53,253L52,252L51,252L50,253L49,255L49,256L49,261L45,260L44,260L43,260L42,259L39,261L37,261L36,261L35,261L27,261L26,262L25,263L24,263L23,263L21,261L20,261L19,261L17,261L14,261L10,261L10,261L11,262L10,263L11,265L12,269L11,270L11,271L12,274L12,276L13,277L14,279L20,283L23,284L23,286L25,287L25,288L26,289L26,292L26,294L26,295L27,295L28,296L29,297L30,298L29,298L27,299L26,299L24,299L26,304L29,309L33,313Z " data-fips="CT04" data-hasc="CF.HS" data-name="Mambr-Kad" data-postal="HS" data-varname="Haute-Sangha|Mambr Kadi"/><path d="M77,349L79,345L79,343L78,342L78,340L79,337L79,335L79,334L79,332L81,330L81,328L82,326L82,323L83,321L84,319L86,318L87,318L89,318L93,319L94,317L95,317L96,318L98,318L99,318L100,318L101,317L102,317L103,317L105,316L107,316L108,316L109,315L110,315L111,315L112,315L113,314L114,313L115,313L112,308L110,307L108,306L107,305L106,305L104,304L103,304L101,303L99,302L97,301L96,299L93,295L90,291L89,291L88,290L87,290L85,293L84,295L84,296L84,298L84,300L82,302L81,304L80,304L79,306L78,307L76,305L75,304L73,304L72,304L70,302L66,301L65,301L64,300L57,301L55,302L51,304L46,306L45,309L44,310L43,310L42,309L41,308L39,309L33,313L33,313L53,335L54,334L55,335L57,335L58,335L59,337L60,339L61,339L62,340L63,341L64,342L64,344L64,346L63,347L63,348L63,349L64,350L65,350L64,351L64,352L65,354L65,355L64,357L65,358L65,360L65,361L65,362L66,363L67,365L67,366L68,367L68,368Z " data-fips="CT16" data-hasc="CF.SE" data-name="Sangha-Mbar" data-postal="SE" data-varname="Sangha|Sangha-conomique|Sangha M'bar"/><path d="M25,263L26,262L27,261L35,261L36,261L37,261L39,261L42,259L43,260L44,260L45,260L49,261L49,256L49,255L50,253L51,252L52,252L53,253L53,255L53,256L53,257L54,258L55,259L57,258L58,257L59,257L60,258L61,259L62,259L64,258L82,251L81,249L81,247L81,246L81,242L81,240L81,239L80,237L78,235L76,233L74,231L72,230L72,228L71,227L70,226L69,227L68,229L67,230L66,231L64,231L63,231L61,230L60,229L59,228L58,228L57,227L55,226L54,225L54,223L54,221L54,217L53,216L52,215L51,213L51,211L53,209L54,208L53,207L52,207L50,208L48,209L45,210L44,211L43,211L41,210L40,211L39,211L38,209L37,207L36,206L36,205L36,204L36,202L35,200L34,199L33,198L31,196L31,195L30,194L27,195L23,196L22,196L21,196L16,206L15,208L15,209L15,210L13,213L7,215L6,215L5,216L3,218L2,218L2,219L1,221L0,221L1,222L2,223L3,224L3,225L4,226L6,226L7,225L8,227L9,228L9,232L9,233L8,235L8,238L8,239L8,240L9,241L8,242L8,244L7,246L7,247L6,248L6,249L5,250L6,251L8,252L9,253L10,254L10,256L10,257L10,259L10,261L14,261L17,261L19,261L20,261L21,261L23,263L24,263Z " data-fips="CT09" data-hasc="CF.NM" data-name="Nana-Mambr" data-postal="NM" data-varname="Bouar-Baboua|Buar-Baboua|Nana Nambr"/><path d="M83,239L85,238L87,235L88,234L89,233L90,232L95,230L97,230L98,229L99,229L99,228L98,227L98,226L97,225L97,222L97,221L96,219L98,219L98,218L98,217L98,216L98,214L98,212L99,211L100,211L101,211L101,210L102,209L103,208L104,207L104,206L103,205L102,205L101,205L100,205L99,205L98,205L97,206L96,205L95,205L94,204L93,202L92,201L92,200L91,199L91,198L91,197L90,195L90,193L90,192L90,189L89,188L89,187L88,187L88,185L89,184L89,183L90,183L90,182L91,181L91,180L91,178L91,177L92,175L92,171L92,170L93,169L94,168L94,167L93,166L94,165L93,164L93,164L92,163L91,162L89,160L88,160L88,159L86,159L86,158L86,156L85,155L84,155L83,154L83,153L83,152L83,151L81,152L80,153L79,154L78,154L77,155L77,158L76,159L72,159L70,161L68,161L67,161L64,162L63,163L61,165L59,166L54,167L53,167L52,166L50,164L48,164L45,165L44,165L42,165L40,168L40,169L39,169L39,170L37,172L34,173L32,175L32,176L31,178L31,181L29,182L29,183L28,185L27,189L26,190L25,192L25,193L22,194L21,195L21,196L22,196L23,196L27,195L30,194L31,195L31,196L33,198L34,199L35,200L36,202L36,204L36,205L36,206L37,207L38,209L39,211L40,211L41,210L43,211L44,211L45,210L48,209L50,208L52,207L53,207L54,208L53,209L51,211L51,213L52,215L53,216L54,217L54,221L54,223L54,225L55,226L57,227L58,228L59,228L60,229L61,230L63,231L64,231L66,231L67,230L68,229L69,227L70,226L71,227L72,228L72,230L74,231L76,233L78,235L80,237L81,239L81,240Z " data-fips="CT13" data-hasc="CF.OP" data-name="Ouham-Pend" data-postal="OP" data-varname=""/><path d="M233,184L233,183L235,182L237,182L239,180L240,179L241,177L242,176L243,176L245,176L246,176L249,174L251,171L254,167L256,166L256,165L255,163L256,162L257,161L257,159L258,158L258,155L257,152L258,150L258,148L259,147L261,147L267,146L269,146L269,145L268,141L269,140L270,139L271,138L272,137L274,137L275,137L276,137L277,136L279,135L281,134L282,134L283,135L284,136L285,137L285,138L286,139L287,139L288,139L290,138L291,137L290,136L290,135L291,132L291,130L290,127L290,126L290,124L291,123L293,123L295,123L297,124L305,125L306,124L306,122L306,121L305,121L302,120L299,119L296,117L295,116L294,111L294,109L292,107L291,106L290,105L288,104L288,102L287,102L285,101L284,98L284,97L283,96L283,93L282,92L280,91L280,90L280,89L277,86L276,85L275,85L273,85L273,84L273,83L272,81L272,79L271,79L270,79L269,80L268,81L267,81L266,82L266,82L265,83L264,84L263,85L263,86L260,86L259,86L258,87L256,87L255,88L254,89L254,90L253,91L252,91L250,92L250,93L248,94L247,93L246,92L246,92L245,92L244,93L243,94L241,94L240,95L240,97L238,97L237,96L235,97L234,97L234,99L234,100L233,101L232,102L231,103L230,103L229,104L225,104L224,103L222,103L221,104L220,104L219,102L218,103L217,103L216,105L215,105L214,105L213,106L212,106L211,106L207,106L205,107L204,107L201,108L200,107L199,107L198,108L196,108L193,107L191,108L190,108L189,108L188,108L187,107L186,107L184,107L183,108L182,108L181,108L179,108L178,109L177,109L176,110L174,111L174,112L173,112L172,114L173,114L174,115L174,116L179,118L180,119L181,120L182,121L180,121L180,122L180,123L179,124L181,126L181,128L183,132L185,133L185,134L186,135L186,136L186,137L187,138L188,138L190,141L190,142L190,143L190,144L191,145L190,146L190,147L190,148L190,149L190,151L189,152L190,153L189,154L191,156L191,155L193,156L194,157L195,157L196,157L197,158L198,158L199,158L198,160L200,160L199,162L200,163L201,163L202,164L203,164L205,164L205,165L206,166L206,169L207,169L208,170L209,171L210,171L210,172L211,174L212,176L213,176L214,177L216,178L217,179L219,180L220,181L221,182L223,183L224,184L225,184L227,184L228,184L230,184L231,184Z " data-fips="CT01" data-hasc="CF.BB" data-name="Bamingui-Bangoran" data-postal="BB" data-varname="Bamingui-Bangora|N'Dl|Ndl"/><path d="M186,206L188,206L194,204L197,204L205,205L206,205L208,206L210,206L209,201L210,200L212,197L213,196L216,194L216,193L217,191L218,190L219,189L220,186L221,185L221,183L220,181L219,180L217,179L216,178L214,177L213,176L212,176L211,174L210,172L210,171L209,171L208,170L207,169L206,169L206,166L205,165L205,164L203,164L202,164L201,163L200,163L199,162L200,160L198,160L199,158L198,158L197,158L196,157L195,157L194,157L193,156L191,155L191,156L189,154L190,153L189,152L190,151L190,149L190,148L190,147L190,146L191,145L190,144L190,143L190,142L190,141L188,138L187,138L186,137L186,136L186,135L185,134L185,133L183,132L181,128L181,126L180,125L180,127L179,127L179,128L179,130L179,131L179,132L178,133L178,135L178,136L178,137L179,138L179,140L179,141L179,142L178,143L179,144L178,146L178,147L178,148L178,149L177,150L176,150L177,152L176,152L176,153L176,154L176,155L177,156L169,160L167,162L166,163L171,175L170,176L168,177L168,178L167,179L166,180L166,181L167,182L166,182L166,183L165,186L164,186L164,188L165,189L165,190L166,192L167,193L167,194L168,195L169,196L171,197L172,198L171,199L169,201L168,202L167,204L176,203L178,203L179,204L180,206L181,206L182,207L184,207Z " data-fips="CT15" data-hasc="CF.KB" data-name="Nana-Grbizi" data-postal="KB" data-varname="Nana-Gribingui|Gribingui|Gribingui-conomique|Ibingui|Nana Gribizi"/><path d="M181,264L184,264L185,263L185,262L187,261L191,259L192,258L193,257L196,257L198,256L200,257L204,257L205,257L206,258L209,259L209,260L209,260L211,259L212,258L212,257L213,254L213,253L213,252L213,249L214,248L215,246L215,245L215,244L213,243L196,243L195,242L195,241L196,240L198,240L201,237L202,235L202,233L200,232L200,231L199,227L200,226L203,224L204,222L205,222L207,222L208,220L209,219L208,217L209,216L209,215L209,214L210,211L209,210L208,209L207,208L205,208L205,207L205,205L197,204L194,204L188,206L186,206L184,207L182,207L181,206L180,206L179,204L178,203L176,203L167,204L167,205L167,206L171,209L171,210L171,213L171,214L172,215L173,216L173,217L171,217L170,218L169,219L166,222L164,223L162,224L162,225L162,226L162,227L162,229L162,230L162,232L162,234L164,236L167,237L171,238L172,239L172,242L173,244L175,245L176,246L177,249L177,250L176,254L176,256L180,261L181,262L180,264L180,265Z " data-fips="CT06" data-hasc="CF.KG" data-name="Kmo" data-postal="KG" data-varname="Kmo-Gribingui|Kmo-Ibingui"/><path d="M236,279L237,278L239,276L242,272L244,271L245,270L246,270L248,270L249,270L249,269L250,267L249,265L249,264L250,262L251,261L250,258L249,257L250,256L251,255L251,253L252,250L251,248L252,247L253,246L252,245L252,244L251,243L251,242L253,241L254,241L254,239L255,238L255,237L255,236L254,235L255,235L256,235L258,237L259,237L260,237L262,237L263,237L264,236L265,235L267,235L268,235L269,235L269,235L270,236L271,237L272,238L272,239L273,241L273,243L274,243L275,244L276,244L277,243L279,241L279,239L281,237L283,236L284,237L286,238L286,237L288,236L288,234L289,233L289,231L289,227L288,225L287,222L286,222L285,221L284,220L284,219L284,218L283,216L282,215L282,214L284,211L284,210L283,207L283,204L283,203L283,202L282,201L280,201L279,199L278,198L277,194L277,193L278,192L278,191L278,190L277,188L277,186L276,185L275,178L275,175L275,174L273,173L272,174L270,173L269,173L269,172L269,167L269,165L268,164L267,163L265,162L262,161L261,161L260,159L258,158L257,159L257,161L256,162L255,163L256,165L256,166L254,167L251,171L249,174L246,176L245,176L243,176L242,176L241,177L240,179L239,180L237,182L235,182L233,183L233,184L231,184L230,184L228,184L227,184L225,184L224,184L223,183L221,182L221,183L221,185L220,186L219,189L218,190L217,191L216,193L216,194L213,196L212,197L210,200L209,201L210,206L208,206L206,205L205,205L205,207L205,208L207,208L208,209L209,210L210,211L209,214L209,215L209,216L208,217L209,219L208,220L207,222L205,222L204,222L203,224L200,226L199,227L200,231L200,232L202,233L202,235L201,237L198,240L196,240L195,241L195,242L196,243L213,243L215,244L215,245L215,246L214,248L213,249L213,252L213,253L213,254L212,257L212,258L211,259L209,260L209,260L210,262L212,262L215,263L216,264L217,265L218,265L221,267L223,269L225,270L227,271L228,272L229,273L230,275L231,275L232,276L232,277L232,278L232,280L232,281Z " data-fips="CT11" data-hasc="CF.UK" data-name="Ouaka" data-postal="UK" data-varname=""/><path d="M156,240L158,239L161,237L162,236L162,235L162,234L162,232L162,230L162,229L162,227L162,226L162,225L162,224L164,223L166,222L169,219L170,218L171,217L173,217L173,216L172,215L171,214L171,213L171,210L171,209L167,206L167,205L167,204L168,202L169,201L171,199L172,198L171,197L169,196L168,195L167,194L167,193L166,192L165,190L165,189L164,188L164,186L165,186L166,183L166,182L167,182L166,181L166,180L167,179L168,178L168,177L170,176L171,175L166,163L167,162L169,160L177,156L176,155L176,154L176,153L176,152L177,152L176,150L177,150L178,149L178,148L178,147L178,146L179,144L178,143L179,142L179,141L179,140L179,138L178,137L178,136L178,135L178,133L179,132L179,131L179,130L179,128L179,127L180,127L180,125L179,124L180,123L180,122L179,123L178,126L173,131L173,132L171,134L170,136L168,137L166,138L164,139L163,140L162,141L162,143L161,145L158,145L141,146L138,147L135,148L133,148L132,148L126,147L124,147L123,148L122,149L120,149L119,150L118,151L116,150L115,151L109,154L109,154L108,155L107,156L106,158L105,158L104,158L103,158L102,159L100,159L99,160L97,160L95,161L95,162L94,163L93,164L94,165L93,166L94,167L94,168L93,169L92,170L92,171L92,175L91,177L91,178L91,180L91,181L90,182L90,183L89,183L89,184L88,185L88,187L89,187L89,188L90,189L90,192L90,193L90,195L91,197L91,198L91,199L92,200L92,201L93,202L94,204L95,205L96,205L97,206L98,205L99,205L100,205L101,205L102,205L103,205L104,206L104,207L103,208L102,209L101,210L101,211L100,211L99,211L98,212L98,214L98,216L98,217L98,218L98,219L96,219L97,221L97,222L97,225L98,226L98,227L99,228L99,229L99,231L100,232L102,234L104,234L122,234L124,234L131,230L132,229L133,228L135,227L136,228L138,229L138,230L139,231L140,231L141,231L142,231L144,231L148,231L148,232L149,233L150,233L152,233L153,234L153,235L153,235L153,236L153,238L153,240L154,240Z " data-fips="CT12" data-hasc="CF.AC" data-name="Ouham" data-postal="AC" data-varname=""/><path d="M311,124L314,121L316,120L317,120L322,119L329,117L331,117L332,115L332,113L333,112L333,111L336,109L337,108L339,108L340,108L341,107L341,106L343,101L343,100L344,99L345,99L347,99L346,100L347,102L348,101L349,101L350,101L351,100L353,98L353,97L353,95L353,91L352,90L352,88L352,87L352,86L354,84L354,83L354,81L353,75L352,73L340,52L333,46L329,43L323,35L323,34L321,34L319,33L318,32L316,32L315,32L314,32L312,32L311,32L310,31L310,31L309,31L307,31L307,32L305,33L304,33L303,33L302,34L300,34L299,35L298,36L297,38L296,38L293,37L291,38L291,40L291,41L289,42L287,42L286,43L286,44L284,43L283,44L282,44L281,45L280,45L280,47L280,48L280,49L280,51L280,52L281,53L281,54L280,57L280,58L279,58L279,59L278,61L277,61L275,61L274,61L272,62L271,63L269,68L268,69L267,71L265,71L264,71L263,71L261,73L260,74L258,76L257,78L256,79L255,79L254,79L253,80L253,82L253,83L252,84L252,85L251,86L250,86L250,87L248,89L247,90L247,91L246,92L247,93L248,94L250,93L250,92L252,91L253,91L254,90L254,89L255,88L256,87L258,87L259,86L260,86L263,86L263,85L264,84L265,83L266,82L266,82L267,81L268,81L269,80L270,79L271,79L272,79L272,81L273,83L273,84L273,85L275,85L276,85L277,86L280,89L280,90L280,91L282,92L283,93L283,96L284,97L284,98L285,101L287,102L288,102L288,104L290,105L291,106L292,107L294,109L294,111L295,116L296,117L299,119L302,120L305,121L306,121L306,122L306,124L307,124L308,124L310,124Z " data-fips="CT14" data-hasc="CF.VK" data-name="Vakaga" data-postal="VK" data-varname="Birao"/><path d="M288,243L290,242L291,241L292,240L292,238L293,237L295,237L294,236L293,235L294,234L294,233L294,231L294,228L294,227L296,226L296,224L297,223L300,221L302,221L303,222L304,222L306,222L307,222L309,220L310,219L311,217L311,215L313,214L318,213L320,213L322,213L323,214L324,215L325,216L326,216L329,217L339,220L340,220L341,219L341,218L341,217L341,216L342,215L344,215L345,215L345,214L346,213L347,212L378,194L378,193L379,193L379,191L380,191L380,190L381,189L380,188L380,187L381,186L382,186L383,185L385,186L386,186L387,185L387,184L388,184L389,183L389,182L388,181L389,179L389,178L389,177L388,176L388,175L387,175L387,174L387,173L387,172L388,169L389,168L390,167L390,166L389,165L388,164L388,162L387,161L386,160L386,157L386,156L386,154L386,153L385,151L385,150L385,149L385,145L385,143L384,142L383,141L383,140L382,139L381,139L379,137L377,136L377,136L375,135L374,135L373,134L372,133L372,132L372,131L372,129L375,125L377,123L375,123L375,121L376,120L375,120L374,120L371,120L368,119L366,119L364,119L362,119L360,118L358,118L357,119L355,119L354,119L353,118L352,118L351,118L350,119L348,119L348,118L347,116L348,115L349,113L350,112L351,110L351,109L350,108L348,109L347,109L346,109L346,107L347,102L346,100L347,99L345,99L344,99L343,100L343,101L341,106L341,107L340,108L339,108L337,108L336,109L333,111L333,112L332,113L332,115L331,117L329,117L322,119L317,120L316,120L314,121L311,124L310,124L308,124L307,124L306,124L305,125L297,124L295,123L293,123L291,123L290,124L290,126L290,127L291,130L291,132L290,135L290,136L291,137L290,138L288,139L287,139L286,139L285,138L285,137L284,136L283,135L282,134L281,134L279,135L277,136L276,137L275,137L274,137L272,137L271,138L270,139L269,140L268,141L269,145L269,146L267,146L261,147L259,147L258,148L258,150L257,152L258,155L258,158L260,159L261,161L262,161L265,162L267,163L268,164L269,165L269,167L269,172L269,173L270,173L272,174L273,173L275,174L275,175L275,178L276,185L277,186L277,188L278,190L278,191L278,192L277,193L277,194L278,198L279,199L280,201L282,201L283,202L283,203L283,204L283,207L284,210L284,211L282,214L282,215L283,216L284,218L284,219L284,220L285,221L286,222L287,222L288,225L289,227L289,231L289,233L288,234L288,236L286,237L286,238L284,237L283,236L281,237L279,239L279,241L282,241L284,242L288,244Z " data-fips="CT03" data-hasc="CF.HK" data-name="Haute-Kotto" data-postal="HK" data-varname=""/><path d="M398,264L399,264L400,264L401,264L403,263L404,262L405,262L407,262L408,263L409,263L410,262L411,261L412,261L413,261L416,260L418,260L419,259L419,258L420,257L420,256L419,255L418,254L419,253L419,252L420,250L421,249L422,248L423,249L425,248L426,248L427,248L427,247L429,247L429,248L430,249L431,249L432,249L433,250L435,252L436,252L437,251L438,253L438,254L439,253L440,253L441,255L442,253L443,254L443,252L445,253L446,253L447,253L448,253L448,252L449,252L450,251L451,252L452,252L453,253L454,254L454,254L456,255L458,255L459,256L460,255L461,256L462,257L463,259L464,259L466,259L467,259L468,258L469,258L470,258L471,257L474,257L476,259L477,259L478,259L479,258L479,257L481,256L482,255L483,254L484,253L486,253L488,253L489,253L493,255L495,255L496,256L497,257L498,257L500,257L498,256L498,255L497,254L495,253L494,252L493,251L492,248L492,246L491,245L491,244L493,239L492,238L491,238L491,237L491,236L490,235L490,233L489,233L488,232L487,231L485,230L484,230L483,229L482,228L480,228L479,227L478,226L477,227L476,226L475,224L474,223L471,222L469,222L467,222L465,221L464,219L463,218L461,219L461,217L463,216L464,215L463,214L462,214L462,213L461,211L459,210L457,209L456,208L455,207L455,205L455,204L456,203L457,202L458,200L459,199L459,197L457,196L455,195L453,194L451,193L450,191L448,191L447,190L447,189L446,188L445,187L445,184L443,184L442,183L441,183L440,182L439,181L439,180L436,180L436,179L434,178L433,178L432,178L431,177L428,176L425,174L424,174L423,174L422,172L419,171L418,170L418,168L416,167L415,166L413,165L412,163L412,162L413,161L415,160L416,160L416,158L416,157L416,156L416,154L415,153L415,152L414,151L412,150L411,150L409,150L408,150L407,149L405,147L404,146L404,145L403,145L402,143L399,140L398,139L396,139L394,138L393,138L391,138L388,138L387,138L386,137L385,136L384,136L382,136L380,137L379,136L377,136L379,137L381,139L382,139L383,140L383,141L384,142L385,143L385,145L385,149L385,150L385,151L386,153L386,154L386,156L386,157L386,160L387,161L388,162L388,164L389,165L390,166L390,167L389,168L388,169L387,172L387,173L387,174L387,175L388,175L388,176L389,177L389,178L389,179L388,181L389,182L389,183L388,184L387,184L387,185L386,186L385,186L383,185L382,186L381,186L380,187L380,188L381,189L380,190L380,191L379,191L379,193L378,193L378,194L389,206L392,208L393,208L394,208L395,207L397,205L399,204L401,204L402,204L404,206L405,206L406,207L408,209L409,210L409,212L407,212L406,213L406,214L405,214L403,215L402,215L401,214L401,215L406,220L407,221L408,221L408,222L409,223L410,224L411,224L412,225L413,226L413,227L413,228L412,230L412,231L412,232L410,231L409,232L408,232L408,233L408,234L408,236L408,237L407,238L408,239L407,239L408,240L407,241L407,242L406,243L405,243L405,244L404,245L403,245L402,246L402,247L402,248L401,249L400,248L399,249L398,250L398,251L397,250L396,251L395,252L394,251L392,251L391,251L391,252L390,254L390,255L389,254L389,255L389,256L389,257L388,257L387,257L387,258L387,258L388,258L389,259L390,260L391,261L392,262L392,262L394,263L394,264L396,265Z " data-fips="CT05" data-hasc="CF.HM" data-name="Haut-Mbomou" data-postal="HM" data-varname="Haut-M'bomou|Obo-Zemio"/><path d="M308,295L309,295L310,294L312,292L312,291L312,290L313,288L315,287L315,286L314,284L314,283L315,282L317,282L318,281L318,280L319,279L320,278L319,276L320,276L321,274L322,273L323,273L324,273L325,272L326,271L326,269L327,269L328,268L329,269L330,270L330,271L331,272L332,272L333,273L335,273L337,273L338,274L340,275L340,276L341,276L342,277L343,277L345,278L346,278L346,277L347,276L348,275L349,274L352,272L354,272L356,271L359,270L360,269L362,269L363,269L364,268L366,269L366,267L367,267L368,267L370,266L372,265L373,265L374,265L376,263L378,263L378,264L379,263L380,262L382,261L383,260L382,260L382,258L384,257L385,259L385,258L387,258L387,257L388,257L389,257L389,256L389,255L389,254L390,255L390,254L391,252L391,251L392,251L394,251L395,252L396,251L397,250L398,251L398,250L399,249L400,248L401,249L402,248L402,247L402,246L403,245L404,245L405,244L405,243L406,243L407,242L407,241L408,240L407,239L408,239L407,238L408,237L408,236L408,234L408,233L408,232L409,232L410,231L412,232L412,231L412,230L413,228L413,227L413,226L412,225L411,224L410,224L409,223L408,222L408,221L407,221L406,220L401,215L401,214L402,215L403,215L405,214L406,214L406,213L407,212L409,212L409,210L408,209L406,207L405,206L404,206L402,204L401,204L399,204L397,205L395,207L394,208L393,208L392,208L389,206L378,194L347,212L346,213L345,214L345,215L344,215L342,215L341,216L341,217L341,218L341,219L340,220L339,220L329,217L326,216L325,216L324,215L323,214L322,213L320,213L318,213L313,214L311,215L311,217L310,219L309,220L307,222L306,222L304,222L303,222L302,221L300,221L297,223L296,224L296,226L294,227L294,228L294,231L294,233L294,234L293,235L294,236L295,237L293,237L292,238L292,240L291,241L290,242L288,243L288,244L288,246L288,247L288,248L287,249L287,253L287,255L286,257L285,257L284,258L284,259L285,261L285,262L283,264L283,269L282,270L282,271L282,273L282,274L283,274L284,274L285,275L286,275L287,276L288,276L288,277L289,278L290,279L289,280L291,280L294,280L295,280L297,280L297,281L297,282L296,284L295,285L294,286L294,289L293,290L293,292L293,292L294,292L296,293L297,293L297,294L299,294L300,295L303,296Z " data-fips="CT08" data-hasc="CF.MB" data-name="Mbomou" data-postal="MB" data-varname="M'Bomou"/><path d="M161,304L162,303L163,301L163,299L162,296L162,294L160,291L160,290L159,289L159,288L159,287L161,286L162,287L164,287L166,286L167,285L168,284L170,279L171,278L172,277L173,276L174,275L176,272L177,271L177,269L178,268L179,267L180,266L180,265L180,264L181,262L180,261L176,256L176,254L177,250L177,249L176,246L175,245L173,244L172,242L172,239L171,238L167,237L164,236L162,234L162,235L162,236L161,237L158,239L156,240L154,240L153,240L153,238L153,236L153,235L153,235L153,234L152,233L150,233L149,233L148,232L148,231L144,231L142,231L141,231L140,231L139,231L138,230L138,229L136,228L135,227L133,228L132,229L131,230L124,234L122,234L104,234L102,234L100,232L99,231L99,229L98,229L97,230L95,230L90,232L89,233L88,234L87,235L85,238L83,239L81,240L81,242L81,246L81,247L81,249L82,251L87,248L89,247L90,248L91,248L92,248L94,248L95,248L97,248L101,251L102,252L104,255L104,256L102,257L101,257L101,258L100,258L101,261L104,260L105,261L106,262L108,263L109,264L110,265L112,267L114,268L117,269L117,270L119,272L120,278L121,279L122,280L124,281L125,281L127,280L129,280L131,281L131,282L132,283L134,283L135,282L136,282L138,283L139,283L140,283L141,283L142,283L144,284L145,287L146,288L148,288L149,288L151,292L151,293L151,295L151,297L151,298L153,300L154,301L155,302L156,302L157,304L158,304L161,306L161,306Z " data-fips="CT10" data-hasc="CF.BG" data-name="Bangui" data-postal="BG" data-varname=""/></g></svg>