<?xml version="1.0" ?><!DOCTYPE svg  PUBLIC '-//W3C//DTD SVG 1.1//EN'  'http://www.w3.org/Graphics/SVG/1.1/DTD/svg11.dtd'><svg enable_background="new 0 0 500 401" height="401px" style="stroke-linejoin: round; stroke:#000; fill:#f6f3f0;" version="1.1" viewBox="0 0 500 401" width="500px" xmlns="http://www.w3.org/2000/svg" xmlns:xlink="http://www.w3.org/1999/xlink"><defs><style type="text/css"><![CDATA[path { fill-rule: evenodd; }
#context path { fill: #eee; stroke: #bbb; } ]]></style></defs><metadata><views><view h="401" padding="0" w="500"><proj id="laea" lat0="5.133" lon0="12.277"/><bbox h="140.88" w="94.87" x="953.61" y="901.93"/><llbbox lat0="-90" lat1="90" lon0="-180" lon1="180"/></view></views></metadata><g id="admin1"><path d="M189,286L194,283L195,282L196,282L196,282L198,284L199,284L201,283L201,282L202,280L202,278L203,277L204,276L205,276L205,274L205,273L205,271L206,271L207,270L208,269L209,268L209,267L210,265L210,264L210,262L209,261L210,260L210,259L211,258L211,257L212,257L213,255L213,254L212,253L212,252L212,251L212,250L212,248L213,247L214,246L213,244L213,243L213,241L213,240L213,239L212,238L209,237L207,239L206,239L203,240L203,241L202,244L202,245L200,246L198,246L197,247L196,247L193,246L192,247L190,250L189,253L188,253L185,253L179,254L178,257L177,256L176,255L175,255L173,255L171,257L172,259L170,259L167,262L166,263L166,265L165,269L163,270L164,273L165,273L166,273L167,273L167,275L168,276L168,277L168,279L168,280L170,281L170,283L171,283L172,285L173,285L174,282L176,281L177,280L178,280L179,280L180,279L181,280L182,281L182,282L183,284L184,285L185,286L188,286Z " data-fips="CM08" data-hasc="CM.OU" data-name="Ouest" data-postal="OU" data-varname="West"/><path d="M144,320L146,319L147,318L147,317L149,314L149,314L149,313L150,314L151,313L152,312L152,311L152,310L151,310L149,309L148,308L148,307L151,302L151,301L151,299L151,298L153,295L154,295L155,294L155,293L156,292L158,290L158,289L158,288L159,287L160,286L161,285L160,284L160,282L161,280L162,280L163,279L161,277L160,275L160,274L160,272L161,271L162,270L163,270L165,269L166,265L166,263L167,262L170,259L172,259L171,257L170,256L168,256L167,256L165,257L163,256L161,255L160,254L159,254L158,253L157,253L155,251L154,250L155,248L154,247L154,246L158,244L159,243L160,243L161,242L161,240L161,238L160,233L159,232L159,230L157,229L157,229L155,229L154,230L153,231L152,232L150,233L149,233L148,235L147,236L146,236L145,237L144,239L143,240L138,244L135,247L134,248L133,249L132,251L130,250L129,252L128,252L128,254L128,255L128,257L127,257L128,259L129,260L130,262L128,263L128,265L128,266L128,268L127,269L127,271L127,272L125,277L124,278L123,279L123,281L122,282L120,285L119,286L119,287L119,289L118,290L118,292L118,293L117,293L116,295L116,296L117,296L117,297L116,298L116,299L117,299L118,299L118,300L122,300L123,298L122,297L121,294L121,293L120,292L121,291L121,293L123,295L123,296L124,297L125,298L126,298L126,297L126,296L128,298L128,297L128,295L128,296L130,297L129,298L130,299L129,301L130,306L131,307L131,308L133,309L132,310L132,313L132,314L135,315L138,316L139,316L140,317L140,318L142,319L143,317L144,316L144,317L143,318L144,320Z " data-fips="CM09" data-hasc="CM.SW" data-name="Sud-Ouest" data-postal="SW" data-varname="South-West"/><path d="M295,382L294,358L294,356L293,356L291,358L290,358L289,360L287,360L285,359L284,359L283,358L282,358L283,360L281,359L281,358L280,357L279,357L278,357L277,357L276,357L274,357L272,357L271,356L271,357L270,356L268,356L267,356L266,355L265,355L264,353L264,349L264,347L263,346L262,344L261,342L258,340L257,338L257,337L257,333L257,332L256,331L255,329L254,329L252,331L248,334L246,336L244,341L243,342L242,341L242,340L238,338L236,337L235,337L234,336L232,339L231,340L230,340L229,341L228,343L227,344L226,345L224,347L221,347L216,347L214,348L211,347L210,348L208,345L208,344L207,344L206,343L205,339L203,338L202,338L200,337L199,338L197,338L197,337L196,336L195,335L192,336L181,339L178,340L176,334L176,333L176,332L175,331L174,332L172,332L171,333L171,334L170,335L170,336L170,337L169,339L168,341L167,341L166,342L165,343L165,343L164,343L165,344L166,349L166,350L166,351L165,352L164,353L164,355L163,356L163,361L162,363L161,367L161,375L161,376L161,377L161,378L162,379L163,380L164,380L167,381L174,381L182,381L192,381L214,381L214,380L214,379L215,378L215,377L224,376L226,376L227,377L229,377L230,377L234,377L236,377L239,377L242,377L243,377L245,377L246,377L248,377L249,376L251,377L253,377L254,377L256,378L257,378L259,378L264,379L266,378L267,379L268,378L270,378L272,378L273,378L274,379L276,378L277,377L279,378L280,378L281,378L282,379L283,380L283,382L295,382Z " data-fips="CM14" data-hasc="CM.SU" data-name="Sud" data-postal="SU" data-varname="South"/><path d="M337,109L339,109L341,109L342,109L343,109L345,108L346,108L348,108L354,110L356,110L364,108L363,106L362,106L359,105L357,103L356,101L351,96L350,94L350,93L349,92L349,91L347,90L346,90L345,89L345,88L346,86L346,85L343,80L343,78L343,76L343,75L342,73L341,66L342,63L342,62L342,61L342,60L343,58L343,57L345,55L345,54L345,53L343,51L343,49L343,48L344,47L343,46L344,45L343,43L342,42L342,41L342,40L342,39L343,39L342,38L342,36L342,35L341,34L340,34L339,34L338,33L337,32L337,31L337,30L337,29L337,26L336,24L336,22L335,21L335,20L334,15L333,16L332,15L331,14L330,14L330,13L330,12L328,12L327,11L326,12L325,11L325,10L324,9L323,8L323,7L323,5L323,4L322,3L320,0L308,0L312,19L312,21L312,23L312,25L313,25L320,25L323,26L324,27L324,28L325,29L326,30L327,31L328,31L329,32L328,33L327,36L327,37L328,39L327,41L327,42L326,46L325,48L325,49L326,49L327,50L328,51L328,53L327,55L326,56L323,57L321,58L319,59L318,60L315,62L314,63L313,63L312,64L310,64L308,63L307,63L306,63L304,64L303,65L302,67L301,68L300,70L298,72L298,73L298,74L297,75L291,84L290,86L289,90L288,97L287,100L287,101L287,103L285,104L286,104L286,105L287,105L289,105L291,105L292,104L295,103L294,102L295,101L295,100L296,100L299,100L300,100L302,100L304,101L306,101L306,103L308,103L308,104L310,105L313,106L313,108L322,108L332,110L333,110Z " data-fips="CM12" data-hasc="CM.EN" data-name="Extrme-Nord" data-postal="EN" data-varname="Extreme-North"/><path d="M166,342L167,341L168,341L169,339L170,337L170,336L170,335L171,334L171,333L172,332L174,332L175,331L176,332L176,333L177,333L178,333L179,332L180,329L180,327L181,326L181,325L182,324L185,324L185,324L187,324L187,325L188,326L189,326L190,325L190,323L191,321L190,320L191,318L192,316L193,315L194,315L195,314L197,314L198,313L200,313L202,313L202,312L205,311L206,310L206,309L203,306L201,303L200,300L200,297L200,296L199,295L198,296L196,296L195,297L195,299L193,300L192,299L192,300L191,300L189,302L188,302L186,301L185,301L184,301L183,300L182,300L181,299L182,298L183,296L185,294L185,293L185,292L184,291L183,292L180,292L181,291L181,290L183,289L184,288L185,287L185,286L184,285L183,284L182,282L182,281L181,280L180,279L179,280L178,280L177,280L176,281L174,282L173,285L172,285L171,283L170,283L170,281L168,280L168,279L168,277L168,276L167,275L167,273L166,273L165,273L164,273L163,270L162,270L161,271L160,272L160,274L160,275L161,277L163,279L162,280L161,280L160,282L160,284L161,285L160,286L159,287L158,288L158,289L158,290L156,292L155,293L155,294L154,295L153,295L151,298L151,299L151,301L151,302L148,307L148,308L149,309L151,310L152,310L152,311L152,312L151,313L150,314L150,314L151,316L152,317L154,316L155,315L157,314L158,313L159,313L158,314L156,317L155,318L155,319L156,319L159,319L159,319L158,320L156,320L157,321L159,322L159,324L158,323L157,322L156,323L154,322L153,323L154,325L154,325L156,326L155,326L153,326L153,325L152,324L152,325L154,328L155,330L155,331L158,331L159,330L160,330L161,330L160,331L157,333L155,333L159,336L160,337L163,340L164,342L165,343Z M148,320L149,320L149,320L149,318L148,317L148,316L149,317L149,317L150,318L151,318L150,316L150,315L150,315L149,314L147,317L147,318L146,319L144,320L144,320L145,320L147,321Z " data-fips="CM05" data-hasc="CM.LT" data-name="Littoral" data-postal="LT" data-varname="Litoral"/><path d="M179,254L185,253L188,253L189,253L190,250L192,247L193,246L196,247L197,247L198,246L200,246L202,245L202,244L203,241L203,240L206,239L207,239L209,237L210,236L210,234L210,232L208,232L206,232L205,230L205,227L205,226L205,225L205,223L204,222L203,221L200,220L198,219L198,217L197,216L197,214L196,214L193,212L190,211L189,210L189,209L188,208L188,209L187,210L187,211L186,214L185,215L185,217L175,217L174,215L173,212L172,213L163,220L161,220L160,220L157,229L159,230L159,232L160,233L161,238L161,240L161,242L160,243L159,243L158,244L154,246L154,247L155,248L154,250L155,251L157,253L158,253L159,254L160,254L161,255L163,256L165,257L167,256L168,256L170,256L171,257L173,255L175,255L176,255L177,256L178,257Z " data-fips="CM07" data-hasc="CM.NW" data-name="Nord-Ouest" data-postal="NW" data-varname="North-West"/><path d="M211,347L214,348L216,347L221,347L224,347L226,345L227,344L228,343L229,341L230,340L231,340L232,339L234,336L235,337L236,337L238,338L242,340L242,341L243,342L244,341L246,336L248,334L252,331L254,329L255,329L256,331L257,332L257,333L258,331L259,329L259,327L258,325L255,324L255,322L256,321L257,321L257,320L260,319L261,319L262,318L263,317L264,316L265,316L265,315L265,314L264,313L265,309L266,306L265,305L267,303L267,301L268,300L269,298L271,297L272,297L273,297L275,297L276,298L277,297L279,298L280,297L281,289L280,288L279,285L278,284L276,284L274,283L274,283L274,282L274,280L273,278L269,274L266,272L268,271L270,272L271,271L273,268L274,264L275,263L274,261L273,260L272,259L272,258L271,256L270,254L269,253L268,251L268,250L268,248L259,247L256,247L254,246L253,245L253,244L248,241L247,240L245,240L244,241L242,242L241,242L240,241L238,240L237,239L236,238L234,239L234,240L233,240L231,241L230,241L229,242L227,243L226,244L224,245L216,247L214,248L212,248L212,250L212,251L212,252L212,253L213,254L213,255L212,257L211,257L211,258L210,259L210,260L209,261L210,262L210,264L210,265L209,267L209,268L208,269L207,270L206,271L205,271L205,273L205,274L205,276L204,276L203,277L202,278L202,280L201,282L201,283L199,284L198,284L196,282L196,282L195,282L194,283L189,286L188,286L185,286L185,287L184,288L183,289L181,290L181,291L180,292L183,292L184,291L185,292L185,293L185,294L183,296L182,298L181,299L182,300L183,300L184,301L185,301L186,301L188,302L189,302L191,300L192,300L192,299L193,300L195,299L195,297L196,296L198,296L199,295L200,296L200,297L200,300L201,303L203,306L206,309L206,310L205,311L202,312L202,313L200,313L198,313L197,314L195,314L194,315L193,315L192,316L191,318L190,320L191,321L190,323L190,325L189,326L188,326L187,325L187,324L185,324L185,324L182,324L181,325L181,326L180,327L180,329L179,332L178,333L177,333L176,333L176,334L178,340L181,339L192,336L195,335L196,336L197,337L197,338L199,338L200,337L202,338L203,338L205,339L206,343L207,344L208,344L208,345L210,348Z " data-fips="CM11" data-hasc="CM.CE" data-name="Centre" data-postal="CE" data-varname="Central"/><path d="M381,397L383,396L382,392L381,389L379,388L379,386L380,385L380,384L380,383L380,382L381,381L381,380L383,381L384,379L383,378L383,377L383,376L382,375L381,373L381,372L381,371L380,370L380,368L381,367L381,366L380,364L380,363L380,362L379,362L379,359L380,358L380,357L379,355L379,354L378,353L377,353L376,352L376,351L375,349L373,348L372,348L370,349L370,348L348,326L345,321L343,316L345,317L346,316L347,316L348,315L347,314L347,313L346,313L345,312L345,310L344,308L344,307L344,306L342,304L341,302L340,302L334,298L333,297L332,295L332,294L331,291L331,290L331,289L331,285L330,284L330,283L330,282L330,280L330,279L330,277L330,276L329,275L328,274L326,273L325,272L326,271L327,270L327,269L328,268L328,266L328,265L329,264L328,263L328,262L328,260L328,259L329,257L329,256L328,252L328,251L327,250L325,251L324,250L323,250L322,248L321,247L321,247L321,245L322,245L322,245L322,245L321,243L320,244L319,245L317,245L314,246L312,246L308,246L307,245L305,245L302,247L299,247L285,247L268,248L268,250L268,251L269,253L270,254L271,256L272,258L272,259L273,260L274,261L275,263L274,264L273,268L271,271L270,272L268,271L266,272L269,274L273,278L274,280L274,282L274,283L274,283L276,284L278,284L279,285L280,288L281,289L280,297L279,298L277,297L276,298L275,297L273,297L272,297L271,297L269,298L268,300L267,301L267,303L265,305L266,306L265,309L264,313L265,314L265,315L265,316L264,316L263,317L262,318L261,319L260,319L257,320L257,321L256,321L255,322L255,324L258,325L259,327L259,329L258,331L257,333L257,337L257,338L258,340L261,342L262,344L263,346L264,347L264,349L264,353L265,355L266,355L267,356L268,356L270,356L271,357L271,356L272,357L274,357L276,357L277,357L278,357L279,357L280,357L281,358L281,359L283,360L282,358L283,358L284,359L285,359L287,360L289,360L290,358L291,358L293,356L294,356L294,358L295,382L295,382L317,382L318,381L321,382L322,383L323,382L326,381L327,380L328,380L329,381L330,382L331,383L332,383L333,384L334,384L334,385L337,384L337,383L338,384L339,385L338,387L340,387L341,387L342,386L344,387L345,388L346,387L347,387L347,386L349,386L350,386L351,386L351,387L353,388L353,389L354,390L356,389L358,388L359,388L361,388L364,389L367,389L368,390L369,390L370,392L372,392L373,393L373,394L375,394L375,395L377,395L378,395L378,396L378,397L380,399Z " data-fips="CM04" data-hasc="CM.ES" data-name="Est" data-postal="ES" data-varname="East"/><path d="M216,247L224,245L226,244L227,243L229,242L230,241L231,241L233,240L234,240L234,239L236,238L237,239L238,240L240,241L241,242L242,242L244,241L245,240L247,240L248,241L253,244L253,245L254,246L256,247L259,247L285,247L299,247L302,247L305,245L307,245L308,246L312,246L314,246L317,245L319,245L320,244L321,243L322,245L322,245L322,244L324,243L325,242L326,241L327,241L332,238L334,236L334,235L334,234L335,232L339,222L340,221L342,220L343,220L344,218L344,217L345,214L346,211L347,210L348,209L348,206L349,205L349,204L350,203L350,203L349,203L347,203L345,205L344,206L343,206L342,206L335,209L332,211L330,212L329,211L328,210L326,210L325,208L324,207L323,206L320,207L319,206L319,205L318,203L317,201L316,200L315,198L314,197L313,196L312,195L311,194L310,192L304,192L303,191L302,189L301,189L296,190L295,189L294,190L293,191L291,191L290,192L288,191L287,190L286,189L285,188L282,188L281,189L281,191L279,191L277,192L276,192L275,192L272,190L266,189L263,188L261,187L260,186L260,186L259,184L260,183L260,182L259,180L258,180L256,180L254,179L247,173L246,171L245,171L244,174L244,176L244,178L244,179L243,180L239,185L238,188L238,190L238,192L237,193L236,195L232,199L229,203L229,204L230,204L232,207L233,209L232,210L231,210L229,212L228,213L227,213L226,214L224,215L222,217L222,218L222,219L223,221L222,223L221,225L220,226L219,227L218,227L217,227L217,229L216,231L215,232L213,232L212,232L211,232L210,232L210,234L210,236L209,237L212,238L213,239L213,240L213,241L213,243L213,244L214,246L213,247L214,248Z " data-fips="CM10" data-hasc="CM.AD" data-name="Adamaoua" data-postal="AD" data-varname="Adamoua|Adamaua|Adamawa"/><path d="M332,211L335,209L342,206L343,206L344,206L345,205L347,203L349,203L350,203L350,203L351,202L353,201L355,199L356,199L357,198L356,197L358,194L359,192L360,190L361,188L360,184L358,184L357,183L355,180L353,173L347,160L345,158L343,155L341,154L340,154L339,153L338,151L338,150L336,149L335,149L334,149L319,137L318,135L318,134L308,123L305,120L307,117L309,114L311,113L312,109L313,108L313,106L310,105L308,104L308,103L306,103L306,101L304,101L302,100L300,100L299,100L296,100L295,100L295,101L294,102L295,103L292,104L291,105L289,105L287,105L286,105L286,104L285,104L284,104L282,104L280,105L280,107L280,108L280,109L279,111L280,113L281,114L281,115L280,117L280,119L280,121L279,124L276,125L274,125L271,126L269,128L267,130L268,131L269,132L268,133L268,135L267,138L266,139L266,141L266,142L265,148L265,150L264,151L263,151L262,152L261,153L260,155L257,156L256,156L254,156L253,156L252,157L250,157L251,159L251,161L250,161L249,162L248,163L246,163L245,164L245,166L245,167L246,171L247,173L254,179L256,180L258,180L259,180L260,182L260,183L259,184L260,186L260,186L261,187L263,188L266,189L272,190L275,192L276,192L277,192L279,191L281,191L281,189L282,188L285,188L286,189L287,190L288,191L290,192L291,191L293,191L294,190L295,189L296,190L301,189L302,189L303,191L304,192L310,192L311,194L312,195L313,196L314,197L315,198L316,200L317,201L318,203L319,205L319,206L320,207L323,206L324,207L325,208L326,210L328,210L329,211L330,212Z " data-fips="CM13" data-hasc="CM.NO" data-name="Nord" data-postal="NO" data-varname="North"/></g></svg>