<?xml version="1.0" ?><!DOCTYPE svg  PUBLIC '-//W3C//DTD SVG 1.1//EN'  'http://www.w3.org/Graphics/SVG/1.1/DTD/svg11.dtd'><svg enable_background="new 0 0 500 401" height="401px" style="stroke-linejoin: round; stroke:#000; fill:#f6f3f0;" version="1.1" viewBox="0 0 500 401" width="500px" xmlns="http://www.w3.org/2000/svg" xmlns:xlink="http://www.w3.org/1999/xlink"><defs><style type="text/css"><![CDATA[path { fill-rule: evenodd; }
#context path { fill: #eee; stroke: #bbb; } ]]></style></defs><metadata><views><view h="401" padding="0" w="500"><proj id="laea" lat0="-0.055" lon0="15.986"/><bbox h="107.65" w="92.58" x="940.16" y="953.56"/><llbbox lat0="-90" lat1="90" lon0="-180" lon1="180"/></view></views></metadata><g id="admin1"><path d="M230,224L235,223L239,222L240,221L241,220L243,221L251,220L255,220L257,218L262,212L263,210L264,209L263,207L256,201L258,199L260,196L261,194L262,193L262,191L260,183L259,182L258,181L254,181L253,180L252,178L252,177L251,174L250,173L250,172L250,170L250,168L252,168L254,168L255,168L257,168L261,167L264,166L266,164L266,161L263,158L261,156L263,155L265,154L266,153L267,152L268,151L267,151L267,150L265,149L264,148L263,147L262,147L260,146L259,145L259,144L259,143L260,141L259,138L259,135L259,132L258,130L258,129L259,128L260,127L261,127L262,126L262,125L261,123L259,123L258,122L256,122L255,122L254,122L253,121L251,120L249,119L248,118L247,117L246,116L245,116L244,116L241,115L236,114L235,113L234,112L233,109L233,108L232,106L232,106L229,106L228,106L226,107L224,106L221,107L219,108L220,108L220,108L221,109L222,112L222,113L222,117L222,118L223,119L225,120L226,121L227,123L227,124L228,125L228,126L229,127L231,128L230,129L230,130L230,132L228,134L226,136L225,138L225,140L224,141L221,144L220,145L218,145L215,145L213,145L211,147L212,148L212,150L211,151L208,153L207,154L205,157L204,160L203,161L204,162L204,163L204,164L205,168L206,168L206,169L206,170L205,171L206,172L205,173L204,174L202,177L202,178L202,179L204,182L205,181L206,180L208,181L209,182L210,181L212,181L214,182L215,183L216,185L216,187L217,189L217,190L219,190L221,190L222,190L223,190L224,190L226,191L227,192L228,193L231,195L232,197L232,198L232,200L230,204L230,205L230,206L230,207L230,209L230,210L229,211L228,212L228,213L228,215L227,216L229,220L229,222L229,223L229,224Z " data-fips="CF10" data-hasc="CG.CO" data-name="Cuvette-Ouest" data-postal="CO" data-varname=""/><path d="M191,388L192,386L193,386L195,386L195,384L196,384L196,382L196,381L197,378L196,374L197,373L201,372L202,373L203,374L204,375L205,375L205,375L206,374L206,373L207,371L207,370L207,367L208,365L209,365L211,364L212,363L213,362L214,361L216,360L217,359L216,357L217,355L220,353L221,352L222,353L224,353L225,352L226,351L227,350L226,349L226,348L224,347L223,346L223,344L221,342L220,341L220,338L221,337L222,336L223,336L223,334L223,333L222,332L222,331L221,330L219,329L217,328L216,328L215,329L214,330L211,333L208,333L206,333L205,332L203,331L201,334L200,335L199,336L199,337L198,338L197,338L197,339L196,341L195,341L194,340L193,341L192,342L191,342L190,342L190,343L191,343L191,345L191,345L190,346L190,347L189,348L188,350L188,351L188,352L187,354L187,354L185,355L184,355L183,355L182,355L181,354L180,351L180,350L179,349L178,349L176,349L175,349L174,349L171,349L169,349L167,349L165,349L165,349L164,348L163,347L162,347L161,346L159,345L159,344L158,341L159,340L158,340L157,337L156,336L155,335L155,333L154,332L152,332L151,332L151,331L150,331L148,331L147,332L146,333L146,335L147,337L147,338L147,339L147,340L147,342L146,343L146,345L148,345L149,346L150,348L151,350L154,354L156,355L158,357L159,359L160,361L163,367L164,368L165,368L166,370L168,370L169,370L170,370L171,370L172,370L173,371L174,371L176,371L177,372L179,376L180,377L181,379L181,379L181,381L182,382L183,382L187,384L188,385L190,386L190,387L190,388Z " data-fips="CF01" data-hasc="CG.BO" data-name="Bouenza" data-postal="BO" data-varname=""/><path d="M374,201L376,200L376,199L377,198L380,195L381,194L380,185L379,181L379,180L379,179L381,170L382,168L386,159L390,152L390,148L390,146L389,145L388,143L387,142L387,141L388,137L388,136L387,130L387,126L386,123L387,122L387,120L388,119L391,115L391,112L392,107L393,105L396,98L395,84L396,82L396,81L396,79L396,74L396,73L396,71L398,65L399,64L400,63L401,60L402,59L403,56L404,54L407,51L410,45L411,42L412,41L413,38L414,37L414,35L415,34L416,29L417,29L418,28L420,27L421,25L421,24L422,18L421,12L421,11L418,10L418,8L416,5L415,4L414,3L413,4L411,5L410,5L410,6L408,6L404,6L403,7L403,8L402,9L401,10L400,11L399,10L398,8L398,7L396,7L394,7L393,7L391,8L390,8L388,7L387,8L385,8L384,6L383,5L382,4L381,4L380,3L379,4L375,4L373,3L372,3L369,1L369,0L367,0L365,1L364,2L363,3L362,4L360,4L358,4L357,5L356,5L355,6L352,6L351,7L349,7L348,7L347,8L346,8L344,7L343,7L342,7L341,7L340,7L340,8L338,9L333,8L332,8L330,8L328,9L327,11L326,13L326,17L325,20L324,21L324,22L323,24L322,25L322,26L322,27L323,28L323,29L323,31L321,34L321,36L322,37L323,39L323,40L320,45L321,45L323,47L323,48L323,49L324,50L324,51L326,54L327,55L327,55L329,55L331,55L332,56L334,60L335,62L335,63L335,64L334,67L335,69L336,71L335,73L335,73L334,74L334,76L334,79L335,80L335,82L335,83L336,86L335,87L334,92L333,94L334,95L334,99L334,100L333,101L333,102L334,103L334,104L334,106L335,108L336,110L336,111L337,116L337,117L337,118L337,120L336,121L335,122L333,123L333,124L333,129L333,130L334,132L349,152L351,153L355,158L356,161L355,161L355,162L355,163L355,165L355,166L354,166L353,168L354,171L354,175L355,177L355,178L354,179L354,182L354,183L353,185L354,186L355,186L353,189L353,190L354,191L355,190L356,191L357,192L357,193L356,195L356,198L356,199L357,201L358,202L358,203L359,204L372,204Z " data-fips="CF06" data-hasc="CG.LI" data-name="Likouala" data-postal="LI" data-varname=""/><path d="M349,152L334,132L333,130L333,129L333,124L333,123L335,122L336,121L337,120L337,118L337,117L337,116L336,111L336,110L335,108L334,106L334,104L334,103L333,102L333,101L334,100L334,99L334,95L333,94L334,92L335,87L336,86L335,83L335,82L335,80L334,79L334,76L334,74L335,73L335,73L336,71L335,69L334,67L335,64L335,63L335,62L334,60L332,56L331,55L329,55L327,55L327,55L326,54L324,51L324,50L323,49L323,48L323,47L321,45L320,45L310,67L310,68L308,70L307,69L306,69L305,70L305,72L305,73L305,74L304,75L305,76L304,77L304,79L305,80L305,81L307,85L308,90L307,91L306,91L304,94L302,92L302,90L302,89L301,88L300,89L298,88L297,87L296,87L295,86L294,85L292,85L290,82L289,82L287,81L283,81L279,80L277,79L275,80L272,81L271,82L269,81L269,80L268,79L266,78L266,77L265,76L264,77L262,76L261,77L260,78L259,79L258,78L256,78L254,77L253,78L252,78L250,78L250,77L251,75L250,74L249,73L248,73L248,74L247,75L244,75L244,74L243,74L244,73L242,72L242,73L240,72L239,71L238,71L236,69L235,69L234,70L234,71L230,71L229,72L227,71L224,70L222,71L177,71L177,73L177,75L177,76L175,77L173,78L173,80L173,81L172,82L171,83L172,83L172,85L172,86L172,88L171,89L171,91L170,93L171,95L170,96L170,97L170,98L172,99L172,100L172,101L173,102L174,104L175,105L175,108L175,109L174,110L172,111L172,111L171,112L172,113L172,114L174,114L175,114L177,113L179,112L180,111L181,110L183,110L184,111L186,111L187,111L189,110L190,109L192,108L193,108L195,107L196,107L197,107L198,107L199,106L200,104L209,105L211,106L213,107L214,106L216,106L218,107L219,108L221,107L224,106L226,107L228,106L229,106L232,106L232,106L233,108L233,109L234,112L235,113L236,114L241,115L244,116L245,116L246,116L247,117L248,118L249,119L251,120L253,121L254,122L255,122L256,122L258,122L259,123L261,123L262,125L262,126L261,127L260,127L259,128L258,129L258,130L259,132L259,135L259,138L260,141L259,143L259,144L259,145L260,146L262,147L263,147L264,148L265,149L267,150L267,151L268,151L268,151L269,152L271,152L272,152L273,152L274,152L275,152L276,153L278,153L279,153L280,153L281,152L282,151L282,150L283,150L285,149L286,149L288,148L289,148L290,149L290,149L291,149L293,149L294,149L295,149L296,150L297,151L298,151L299,152L299,153L300,154L301,154L303,155L304,155L305,156L306,158L306,161L307,162L307,163L308,164L309,165L311,164L312,165L313,166L314,166L316,167L316,168Z " data-fips="CF10" data-hasc="CG.SA" data-name="Sangha" data-postal="SA" data-varname=""/><path d="M240,394L242,393L245,391L246,391L248,390L248,388L252,382L256,379L256,378L259,376L260,375L264,369L265,368L266,367L267,367L268,366L273,364L275,363L276,362L278,361L279,356L280,355L281,354L288,352L290,352L292,352L294,351L296,350L297,349L298,346L298,345L300,343L301,340L301,339L303,335L306,332L307,330L308,327L310,323L311,321L311,320L310,319L310,318L310,316L310,315L309,313L310,311L309,308L309,306L309,304L307,304L306,304L304,304L303,304L302,304L301,304L300,303L299,302L298,301L297,301L296,300L295,300L294,299L293,299L291,299L288,300L287,300L286,301L285,302L284,302L283,303L282,303L281,304L280,305L279,306L277,307L273,308L271,308L269,308L268,308L266,308L264,307L264,306L262,306L262,305L262,304L261,303L260,302L257,302L255,302L253,302L252,302L252,301L252,299L252,297L251,296L251,295L250,294L249,294L248,295L246,297L246,298L246,299L245,299L243,300L242,301L241,302L239,304L239,305L238,305L237,306L236,307L235,308L234,309L233,311L232,310L230,309L229,308L228,308L226,308L225,308L223,308L223,307L221,306L218,308L217,309L216,312L215,314L215,315L215,316L214,317L213,318L213,319L212,319L211,320L211,321L210,322L208,324L207,325L206,326L206,327L205,328L204,329L204,330L203,331L205,332L206,333L208,333L211,333L214,330L215,329L216,328L217,328L219,329L221,330L222,331L222,332L223,333L223,334L223,336L222,336L221,337L220,338L220,341L221,342L223,344L223,346L224,347L226,348L226,349L227,350L226,351L225,352L224,353L222,353L221,352L220,353L217,355L216,357L217,359L216,360L214,361L213,362L212,363L211,364L209,365L208,365L207,367L207,370L207,371L206,373L206,374L205,375L205,375L208,375L208,374L209,373L211,372L212,371L216,370L218,370L220,369L221,367L222,367L224,366L227,365L228,366L227,368L227,369L228,370L229,371L231,372L231,373L230,374L229,375L228,376L226,377L226,378L226,379L226,381L227,382L228,383L228,385L228,387L228,388L228,392L229,393L230,392L231,391L232,391L234,392L235,392L237,393L239,394Z " data-fips="CF11" data-hasc="CG.PO" data-name="Pool" data-postal="PO" data-varname=""/><path d="M231,262L232,261L233,260L234,260L235,259L236,258L238,255L239,253L240,252L241,251L242,249L243,248L243,247L244,246L247,243L250,242L252,242L254,241L256,240L259,236L262,228L263,226L266,222L267,222L269,221L270,219L271,219L272,218L273,218L273,217L275,214L277,214L278,213L280,213L281,213L283,212L285,213L288,213L288,215L288,216L289,217L290,218L292,219L293,219L294,220L296,221L297,222L298,222L299,224L302,224L304,225L305,225L311,229L313,229L313,230L314,232L315,233L317,237L318,238L320,238L320,239L321,240L322,240L323,240L325,240L327,240L328,240L328,241L328,242L329,242L331,242L331,241L333,239L334,237L336,234L336,233L337,231L338,229L339,227L340,227L342,225L344,223L346,222L347,220L348,220L349,219L352,219L356,217L358,217L361,216L362,215L363,214L364,213L365,212L372,204L359,204L358,203L358,202L357,201L356,199L356,198L356,195L357,193L357,192L356,191L355,190L354,191L353,190L353,189L355,186L354,186L353,185L354,183L354,182L354,179L355,178L355,177L354,175L354,171L353,168L354,166L355,166L355,165L355,163L355,162L355,161L356,161L355,158L351,153L349,152L316,168L316,167L314,166L313,166L312,165L311,164L309,165L308,164L307,163L307,162L306,161L306,158L305,156L304,155L303,155L301,154L300,154L299,153L299,152L298,151L297,151L296,150L295,149L294,149L293,149L291,149L290,149L290,149L289,148L288,148L286,149L285,149L283,150L282,150L282,151L281,152L280,153L279,153L278,153L276,153L275,152L274,152L273,152L272,152L271,152L269,152L268,151L268,151L267,152L266,153L265,154L263,155L261,156L263,158L266,161L266,164L264,166L261,167L257,168L255,168L254,168L252,168L250,168L250,170L250,172L250,173L251,174L252,177L252,178L253,180L254,181L258,181L259,182L260,183L262,191L262,193L261,194L260,196L258,199L256,201L263,207L264,209L263,210L262,212L257,218L255,220L251,220L243,221L241,220L240,221L239,222L235,223L230,224L229,224L230,225L231,226L231,227L230,229L229,230L229,230L230,232L232,234L231,235L230,236L230,237L230,239L231,240L229,241L228,242L227,243L226,244L227,244L229,246L230,247L228,248L228,249L228,253L228,254L228,257L226,258L226,258L227,260L227,262L228,262L230,262Z " data-fips="CF13" data-hasc="CG.CU" data-name="Cuvette" data-postal="CU" data-varname=""/><path d="M124,394L126,392L128,388L129,388L130,389L131,389L132,388L134,388L136,383L136,380L138,380L141,379L146,378L147,378L148,376L150,374L151,373L151,372L152,371L153,370L154,371L154,370L153,369L151,368L150,368L146,368L145,367L143,364L143,363L144,360L143,359L139,355L138,354L136,354L136,353L135,352L134,352L133,352L132,351L131,351L129,351L128,350L128,349L126,348L125,347L123,347L121,347L115,342L114,341L112,341L111,339L110,339L106,339L104,339L103,339L102,338L99,332L97,331L95,330L93,331L92,333L91,334L90,334L88,335L86,336L85,337L83,338L82,339L82,340L79,349L80,350L85,354L89,359L89,360L90,361L92,363L93,364L95,366L100,370L104,374L109,379L109,380L108,382L108,383L111,386L110,387L109,387L110,388L110,389L114,393L115,394L117,396L118,398L119,399Z " data-fips="CF04" data-hasc="CG.KO" data-name="Kouilou" data-postal="KO" data-varname=""/><path d="M185,355L187,354L187,354L188,352L188,351L188,350L189,348L190,347L190,346L191,345L191,345L191,343L190,343L190,342L191,342L192,342L193,341L194,340L195,341L196,341L197,339L197,338L198,338L199,337L199,336L200,335L201,334L203,331L204,330L204,329L205,328L206,327L206,326L207,325L208,324L210,322L211,321L211,320L212,319L213,319L213,318L214,317L215,316L215,315L215,314L216,312L217,309L218,308L221,306L222,305L223,304L223,303L224,302L225,302L225,301L224,296L223,296L223,295L223,294L222,293L221,293L220,292L219,293L217,292L216,292L216,291L217,290L218,289L217,288L216,289L215,288L216,287L216,286L215,285L214,283L214,284L213,284L211,283L208,284L208,283L207,283L205,283L204,283L203,283L202,282L202,280L203,280L204,280L205,278L204,276L203,276L203,274L202,273L201,272L200,270L200,268L199,267L199,267L198,266L197,267L196,268L196,270L195,271L192,274L191,276L190,276L189,277L188,278L187,279L186,280L185,281L184,281L183,281L182,281L180,281L171,278L170,278L169,278L166,277L164,277L163,278L163,278L165,278L166,278L166,279L166,281L166,289L166,296L167,299L166,299L165,300L164,300L164,302L165,303L166,303L167,304L169,306L170,307L169,308L169,311L169,313L168,314L167,316L165,317L164,318L163,318L161,318L160,319L160,320L159,320L157,321L156,320L155,320L154,321L152,321L151,321L149,322L149,322L148,324L147,326L146,326L146,327L147,328L147,329L148,330L148,331L150,331L151,331L151,332L152,332L154,332L155,333L155,335L156,336L157,337L158,340L159,340L158,341L159,344L159,345L161,346L162,347L163,347L164,348L165,349L165,349L167,349L169,349L171,349L174,349L175,349L176,349L178,349L179,349L180,350L180,351L181,354L182,355L183,355L184,355Z " data-fips="CF05" data-hasc="CG.LE" data-name="Lkoumou" data-postal="LE" data-varname=""/><path d="M184,391L187,389L186,388L187,387L189,387L190,388L190,387L190,386L188,385L187,384L183,382L182,382L181,381L181,379L181,379L180,377L179,376L177,372L176,371L174,371L173,371L172,370L171,370L170,370L169,370L168,370L166,370L165,368L164,368L163,367L160,361L159,359L158,357L156,355L154,354L151,350L150,348L149,346L148,345L146,345L146,343L147,342L147,340L147,339L147,338L147,337L146,335L146,333L147,332L148,331L148,330L147,329L147,328L146,327L146,326L147,326L148,324L149,322L149,322L151,321L152,321L154,321L155,320L156,320L157,321L159,320L160,320L160,319L161,318L163,318L164,318L165,317L167,316L168,314L169,313L169,311L169,308L170,307L169,306L167,304L166,303L165,303L164,302L164,300L165,300L166,299L167,299L166,296L166,289L166,281L166,279L166,278L165,278L163,278L163,278L162,277L163,276L164,275L164,274L163,273L162,271L161,269L159,270L159,268L158,267L159,266L158,265L158,264L157,263L156,262L155,259L155,257L154,257L152,256L149,254L147,253L144,253L142,255L141,256L141,257L139,257L137,256L138,261L138,263L139,265L141,266L140,268L139,269L140,271L139,272L139,274L138,275L139,276L121,280L119,280L118,279L117,277L115,276L114,277L112,278L110,278L109,278L107,280L105,280L103,278L102,277L100,276L98,276L98,277L99,280L99,281L99,284L99,285L100,287L101,288L101,289L101,291L100,292L97,298L96,300L97,301L99,299L102,299L102,300L104,302L107,306L108,308L107,309L106,309L105,309L104,311L104,315L105,315L107,316L108,317L110,319L112,319L114,320L116,321L116,322L115,323L114,325L113,326L110,332L110,333L111,334L112,335L114,335L114,336L114,337L113,338L111,339L112,341L114,341L115,342L121,347L123,347L125,347L126,348L128,349L128,350L129,351L131,351L132,351L133,352L134,352L135,352L136,353L136,354L138,354L139,355L143,359L144,360L143,363L143,364L145,367L146,368L150,368L151,368L153,369L154,370L154,371L155,371L157,371L158,371L159,372L160,375L160,376L162,377L165,381L167,382L167,380L168,379L169,379L170,381L171,382L172,384L174,385L176,387L180,388L181,389L181,391L182,393Z " data-fips="CF07" data-hasc="CG.NI" data-name="Niari" data-postal="NI" data-varname=""/><path d="M234,309L235,308L236,307L237,306L238,305L239,305L239,304L241,302L242,301L243,300L245,299L246,299L246,298L246,297L248,295L249,294L250,294L251,295L251,296L252,297L252,299L252,301L252,302L253,302L255,302L257,302L260,302L261,303L262,304L262,305L262,306L264,306L264,307L266,308L268,308L269,308L271,308L273,308L277,307L279,306L280,305L281,304L282,303L283,303L284,302L285,302L286,301L287,300L288,300L291,299L293,299L294,299L295,300L296,300L297,301L298,301L299,302L300,303L301,304L302,304L303,304L304,304L306,304L307,304L309,304L309,301L309,300L310,297L311,290L310,279L310,277L309,276L309,274L309,271L309,270L310,269L310,268L311,267L313,266L314,265L316,263L318,261L321,258L322,257L323,257L324,256L325,255L328,250L329,249L329,247L329,245L330,244L331,242L329,242L328,242L328,241L328,240L327,240L325,240L323,240L322,240L321,240L320,239L320,238L318,238L317,237L315,233L314,232L313,230L313,229L311,229L305,225L304,225L302,224L299,224L298,222L297,222L296,221L294,220L293,219L292,219L290,218L289,217L288,216L288,215L288,213L285,213L283,212L281,213L280,213L278,213L277,214L275,214L273,217L273,218L272,218L271,219L270,219L269,221L267,222L266,222L263,226L262,228L259,236L256,240L254,241L252,242L250,242L247,243L244,246L243,247L243,248L242,249L241,251L240,252L239,253L238,255L236,258L235,259L234,260L233,260L232,261L231,262L230,262L228,262L227,262L227,260L226,258L226,258L221,260L220,261L220,262L221,263L221,264L220,267L220,268L219,268L219,269L218,270L216,271L216,273L220,276L220,277L217,278L216,279L215,280L215,281L215,282L214,283L215,285L216,286L216,287L215,288L216,289L217,288L218,289L217,290L216,291L216,292L217,292L219,293L220,292L221,293L222,293L223,294L223,295L223,296L224,296L225,301L225,302L224,302L223,303L223,304L222,305L221,306L223,307L223,308L225,308L226,308L228,308L229,308L230,309L232,310L233,311Z " data-fips="CF08" data-hasc="CG.PL" data-name="Plateaux" data-postal="PL" data-varname=""/></g></svg>