<?xml version="1.0" ?><!DOCTYPE svg  PUBLIC '-//W3C//DTD SVG 1.1//EN'  'http://www.w3.org/Graphics/SVG/1.1/DTD/svg11.dtd'><svg enable_background="new 0 0 500 401" height="401px" style="stroke-linejoin: round; stroke:#000; fill:#f6f3f0;" version="1.1" viewBox="0 0 500 401" width="500px" xmlns="http://www.w3.org/2000/svg" xmlns:xlink="http://www.w3.org/1999/xlink"><defs><style type="text/css"><![CDATA[path { fill-rule: evenodd; }
#context path { fill: #eee; stroke: #bbb; } ]]></style></defs><metadata><views><view h="401" padding="0" w="500"><proj id="laea" lat0="7.96" lon0="-1.207"/><bbox h="79.3" w="54.59" x="974.8" y="960.46"/><llbbox lat0="-90" lat1="90" lon0="-180" lon1="180"/></view></views></metadata><g id="admin1"><path d="M250,197L250,196L251,196L252,195L252,193L251,192L250,190L250,189L251,188L252,187L255,186L256,185L256,184L257,181L258,180L259,180L261,179L262,178L262,177L264,177L265,177L266,177L267,177L269,177L271,177L272,177L273,178L273,179L274,180L281,185L284,187L285,188L288,188L289,188L291,186L292,183L293,183L294,183L297,183L299,183L300,183L302,183L303,182L303,181L304,179L304,178L305,177L307,177L309,176L311,176L312,176L313,176L314,177L316,178L318,180L319,181L321,181L322,181L324,181L326,181L326,179L325,176L326,176L328,175L329,175L329,173L327,172L326,172L325,172L323,172L322,173L321,173L319,172L320,171L319,170L319,168L320,168L321,167L321,166L319,165L319,164L320,162L321,161L322,160L323,160L324,160L324,159L323,158L323,156L323,155L324,154L325,153L325,151L325,150L325,149L327,148L328,148L330,149L331,149L334,149L336,149L336,148L338,148L339,148L339,147L340,147L342,147L343,146L343,144L345,142L344,139L341,134L340,132L341,131L342,129L342,127L342,125L344,124L344,122L344,119L344,118L345,117L346,116L346,114L346,111L346,109L345,108L343,107L344,106L343,105L340,104L339,104L336,104L335,104L334,105L333,106L333,107L330,108L329,108L328,108L328,107L327,105L330,104L331,104L332,103L330,102L329,102L328,102L327,101L327,98L331,99L332,99L333,98L334,99L335,99L336,98L336,96L335,96L332,97L330,96L329,95L329,93L330,92L332,93L333,94L335,93L335,92L335,91L334,89L333,88L333,87L334,81L334,78L335,77L335,76L336,75L336,74L335,72L335,71L335,70L336,70L337,70L338,69L337,67L335,67L335,65L335,61L336,58L336,56L337,54L336,53L332,54L333,52L332,51L331,50L330,49L330,47L329,47L328,47L327,47L325,47L324,47L321,42L320,41L316,38L315,37L314,36L312,35L311,34L309,34L308,33L307,32L307,30L308,29L308,29L306,29L303,31L300,31L293,33L292,33L289,35L287,35L286,35L285,34L284,34L283,35L282,37L281,38L280,38L279,38L278,39L276,38L274,39L273,40L272,40L270,40L270,39L271,38L271,37L271,36L270,35L270,34L271,33L269,33L266,32L265,33L265,34L264,35L262,36L262,37L262,38L261,39L258,41L258,42L256,42L257,40L256,40L255,40L254,40L252,39L251,39L244,42L243,43L243,45L242,45L240,46L239,48L239,49L240,51L240,52L239,53L237,54L236,53L235,53L233,52L232,51L231,50L230,49L230,48L228,47L226,46L224,46L223,46L222,46L221,47L219,50L218,51L216,53L215,53L214,55L214,56L214,59L213,61L213,62L217,66L218,68L217,68L216,69L215,69L214,69L213,69L214,70L213,71L212,71L211,71L210,72L209,73L210,75L210,76L210,78L210,79L209,80L208,80L207,81L205,83L204,83L200,82L199,82L195,82L187,84L184,84L182,84L180,83L179,84L177,84L171,84L164,86L160,86L159,87L158,88L158,89L156,90L155,90L154,91L153,92L152,93L145,94L146,94L145,94L144,95L144,96L144,97L144,99L146,101L149,104L150,106L149,108L150,109L150,111L149,112L148,113L147,114L147,115L148,116L148,116L149,117L150,117L150,118L150,120L148,121L147,122L146,124L144,126L144,127L144,129L144,130L143,131L144,132L146,132L147,132L149,132L150,133L151,134L151,136L152,139L153,139L153,141L154,146L153,147L153,148L154,147L155,148L156,149L160,151L160,152L162,155L165,157L165,159L167,160L167,161L168,164L168,165L169,166L169,167L170,168L171,168L171,169L172,171L173,173L173,177L174,178L175,178L176,179L176,180L178,182L180,183L182,186L183,187L185,187L188,187L194,185L196,183L196,182L197,181L199,180L200,180L203,182L204,182L205,182L206,181L206,180L206,179L205,176L203,176L201,176L198,175L197,174L197,173L197,172L196,171L196,170L197,169L198,167L198,166L198,163L198,161L198,160L199,159L200,158L202,157L207,158L208,157L210,156L210,155L211,155L213,154L217,155L219,155L220,154L221,153L222,151L222,150L223,149L225,149L228,149L230,149L231,150L232,151L233,152L236,154L237,154L240,155L242,155L242,156L242,158L243,160L243,161L243,162L242,164L239,167L238,168L238,171L237,172L236,173L236,174L237,175L238,176L239,178L240,179L247,198L248,198L249,199Z " data-fips="GH06" data-hasc="GH.NP" data-name="Northern" data-postal="NP" data-varname=""/><path d="M239,53L240,52L240,51L239,49L239,48L240,46L242,45L243,45L243,43L244,42L251,39L252,39L254,40L255,40L256,40L257,40L256,42L258,42L258,41L261,39L262,38L262,37L262,36L264,35L265,34L265,33L266,32L269,33L271,33L270,34L270,35L271,36L271,37L271,38L270,39L270,40L272,40L273,40L274,39L276,38L278,39L279,38L280,38L281,38L282,37L283,35L284,34L285,34L286,35L287,35L289,35L292,33L293,33L300,31L303,31L306,29L308,29L308,29L308,28L308,25L309,24L309,23L311,22L311,21L311,19L312,12L314,12L314,10L314,8L314,6L313,5L311,4L310,4L309,4L308,5L307,5L306,4L304,4L303,3L303,2L295,0L294,1L295,2L294,3L294,4L291,6L289,5L288,4L287,4L286,6L285,8L284,9L283,10L282,11L279,11L277,11L276,12L276,14L275,15L274,16L272,13L272,11L271,11L270,11L263,10L262,10L261,11L259,12L258,11L257,10L256,10L248,9L246,10L246,11L230,10L229,10L226,9L226,9L225,12L225,13L225,15L224,16L225,17L224,20L223,21L222,21L222,22L222,24L221,25L219,26L218,26L218,27L217,28L217,31L217,32L218,35L219,36L220,36L220,37L221,38L222,39L223,39L225,40L224,41L225,43L226,43L227,44L228,43L229,43L230,44L230,45L230,46L230,48L230,49L231,50L232,51L233,52L235,53L236,53L237,54Z " data-fips="GH10" data-hasc="GH.UE" data-name="Upper East" data-postal="UE" data-varname=""/><path d="M152,93L153,92L154,91L155,90L156,90L158,89L158,88L159,87L160,86L164,86L171,84L177,84L179,84L180,83L182,84L184,84L187,84L195,82L199,82L200,82L204,83L205,83L207,81L208,80L209,80L210,79L210,78L210,76L210,75L209,73L210,72L211,71L212,71L213,71L214,70L213,69L214,69L215,69L216,69L217,68L218,68L217,66L213,62L213,61L214,59L214,56L214,55L215,53L216,53L218,51L219,50L221,47L222,46L223,46L224,46L226,46L228,47L230,48L230,46L230,45L230,44L229,43L228,43L227,44L226,43L225,43L224,41L225,40L223,39L222,39L221,38L220,37L220,36L219,36L218,35L217,32L217,31L217,28L218,27L218,26L219,26L221,25L222,24L222,22L222,21L223,21L224,20L225,17L224,16L225,15L225,13L225,12L226,9L226,9L225,9L218,9L217,9L216,10L147,11L145,10L140,11L140,12L141,13L141,14L141,16L140,17L139,17L138,18L138,20L137,23L136,24L136,26L135,27L136,28L136,30L135,31L134,33L134,34L136,38L136,39L137,40L138,41L139,43L141,45L142,46L144,46L143,47L142,47L141,48L140,49L140,51L140,52L141,53L142,54L143,55L144,55L145,56L145,57L144,58L143,59L142,60L142,62L143,64L143,70L143,71L144,73L145,74L145,76L144,79L144,80L146,82L146,84L144,86L142,88L142,89L143,91L144,92L145,93L145,94Z " data-fips="GH11" data-hasc="GH.UW" data-name="Upper West" data-postal="UW" data-varname=""/><path d="M223,329L224,328L224,327L226,327L227,326L229,326L230,326L232,326L233,327L234,327L235,328L236,327L237,327L239,324L238,322L237,322L238,320L238,319L239,318L239,316L240,315L241,314L240,314L240,312L241,311L241,309L241,308L243,306L243,305L244,304L244,301L245,299L248,295L256,286L257,285L258,283L259,282L259,281L258,280L256,278L255,277L255,276L255,275L257,274L258,273L259,273L264,272L265,271L276,256L278,255L287,254L288,253L289,252L293,251L294,250L295,248L296,248L297,247L298,242L296,240L287,237L281,235L279,235L278,234L277,233L276,230L275,228L273,227L271,225L270,225L268,226L268,227L266,227L266,227L265,228L264,227L262,227L261,226L260,226L259,227L257,227L256,227L255,226L253,226L253,225L250,225L249,226L248,227L248,227L247,229L246,229L244,229L243,229L242,229L241,230L240,230L238,230L237,230L236,230L234,229L233,228L233,227L233,223L232,222L231,221L230,220L228,220L227,221L225,224L224,226L221,227L219,229L219,230L220,231L220,232L220,233L219,234L217,234L215,235L214,236L213,237L212,237L211,237L210,237L209,237L208,237L207,238L206,237L204,236L203,235L201,234L201,233L201,230L199,229L198,230L197,230L194,230L193,230L192,230L190,230L189,230L188,230L185,230L184,230L183,231L183,233L182,234L182,235L182,236L183,237L184,237L186,237L187,239L188,239L191,239L194,241L195,243L196,243L200,245L199,246L199,247L198,249L197,249L195,250L194,251L193,252L192,253L190,255L188,256L187,256L179,256L179,255L178,254L176,254L175,255L171,259L171,261L171,262L170,263L170,264L169,265L168,266L167,267L166,268L167,268L170,267L173,267L174,267L175,268L175,269L175,270L174,270L173,271L173,275L172,276L172,277L171,278L169,278L167,278L166,278L165,279L165,281L166,281L166,283L167,284L167,286L167,287L167,288L166,289L165,290L164,291L164,292L164,293L163,295L164,295L164,297L165,298L166,298L167,298L168,297L168,296L169,295L170,290L171,289L172,289L175,291L176,290L177,291L178,292L176,295L176,296L177,297L182,299L183,300L184,302L185,302L186,302L190,303L190,304L189,305L189,307L189,308L190,313L191,314L192,314L193,317L194,318L195,319L197,320L198,319L199,320L200,319L201,319L202,320L202,321L203,322L205,323L206,323L208,325L209,325L210,326L211,326L213,326L215,326L216,326L218,326L219,326L220,326L221,327L221,328L221,329L222,330Z " data-fips="GH02" data-hasc="GH.AH" data-name="Ashanti" data-postal="AH" data-varname=""/><path d="M164,295L163,295L164,293L164,292L164,291L165,290L166,289L167,288L167,287L167,286L167,284L166,283L166,281L165,281L165,279L166,278L167,278L169,278L171,278L172,277L172,276L173,275L173,271L174,270L175,270L175,269L175,268L174,267L173,267L170,267L167,268L166,268L167,267L168,266L169,265L170,264L170,263L171,262L171,261L171,259L175,255L176,254L178,254L179,255L179,256L187,256L188,256L190,255L192,253L193,252L194,251L195,250L197,249L198,249L199,247L199,246L200,245L196,243L195,243L194,241L191,239L188,239L187,239L186,237L184,237L183,237L182,236L182,235L182,234L183,233L183,231L184,230L185,230L188,230L189,230L190,230L192,230L193,230L194,230L197,230L198,230L199,229L201,230L201,233L201,234L203,235L204,236L206,237L207,238L208,237L209,237L210,237L211,237L212,237L213,237L214,236L215,235L217,234L219,234L220,233L220,232L220,231L219,230L219,229L221,227L224,226L225,224L227,221L228,220L230,220L231,221L232,222L233,223L233,227L233,228L234,229L236,230L237,230L238,230L240,230L241,230L242,229L243,229L244,229L246,229L247,229L248,227L248,227L249,226L250,225L253,225L253,226L255,226L256,227L257,227L259,227L260,226L261,226L262,227L264,227L265,228L266,227L266,227L268,227L268,226L270,225L271,225L273,227L275,228L276,230L277,233L278,234L279,235L281,235L287,237L296,240L298,242L316,247L318,247L319,248L321,249L322,248L323,247L325,247L327,246L327,245L328,242L329,239L328,236L327,236L326,235L324,235L322,233L321,232L321,228L320,226L316,219L315,214L314,213L313,212L311,212L310,212L309,211L308,208L307,207L307,204L304,198L303,197L303,196L294,189L293,189L289,188L288,188L285,188L284,187L281,185L274,180L273,179L273,178L272,177L271,177L269,177L267,177L266,177L265,177L264,177L262,177L262,178L261,179L259,180L258,180L257,181L256,184L256,185L255,186L252,187L251,188L250,189L250,190L251,192L252,193L252,195L251,196L250,196L250,197L249,199L248,198L247,198L240,179L239,178L238,176L237,175L236,174L236,173L237,172L238,171L238,168L239,167L242,164L243,162L243,161L243,160L242,158L242,156L242,155L240,155L237,154L236,154L233,152L232,151L231,150L230,149L228,149L225,149L223,149L222,150L222,151L221,153L220,154L219,155L217,155L213,154L211,155L210,155L210,156L208,157L207,158L202,157L200,158L199,159L198,160L198,161L198,163L198,166L198,167L197,169L196,170L196,171L197,172L197,173L197,174L198,175L201,176L203,176L205,176L206,179L206,180L206,181L205,182L204,182L203,182L200,180L199,180L197,181L196,182L196,183L194,185L188,187L185,187L183,187L182,186L180,183L178,182L176,180L176,179L175,178L174,178L173,177L173,173L172,171L171,169L171,168L170,168L169,167L169,166L168,165L168,164L167,161L167,160L165,159L165,157L162,155L160,152L160,151L156,149L155,148L154,147L153,148L154,148L154,149L160,183L159,184L156,186L155,186L154,186L153,187L153,189L153,190L154,192L154,193L153,194L152,194L148,196L147,196L144,200L143,200L142,200L142,205L141,206L140,207L139,208L139,209L138,210L134,220L133,222L130,242L130,244L131,245L130,246L127,250L126,254L123,255L123,255L124,258L124,260L125,261L126,262L128,262L131,261L132,262L134,263L135,263L136,264L137,267L138,268L139,271L139,273L139,274L139,276L139,277L139,278L139,279L140,280L142,281L145,283L146,283L149,283L150,283L151,284L152,286L152,287L153,287L154,288L156,289L158,295L159,295L162,295L163,296L164,297Z " data-fips="GH03" data-hasc="GH.BA" data-name="Brong Ahafo" data-postal="BA" data-varname=""/><path d="M218,381L220,380L224,380L226,379L228,378L229,378L230,378L233,377L237,377L238,376L240,375L242,374L243,373L249,370L250,370L251,370L253,370L254,370L255,370L257,370L258,369L259,370L260,370L265,369L266,369L267,367L272,364L275,362L275,362L276,362L277,361L278,361L283,360L285,358L286,358L287,356L292,352L291,348L290,346L289,345L288,345L287,344L286,344L285,342L283,338L280,337L278,336L268,337L267,337L266,337L260,336L258,335L257,336L255,336L254,335L252,335L251,334L245,335L245,334L244,332L241,328L240,327L237,327L236,327L235,328L234,327L233,327L232,326L230,326L229,326L227,326L226,327L224,327L224,328L223,329L222,330L221,329L221,328L221,327L220,326L219,326L218,326L216,326L215,326L213,326L211,326L210,326L209,325L208,325L206,323L205,323L203,322L202,321L202,320L201,319L200,319L199,320L198,319L197,320L195,319L194,318L193,317L192,314L191,314L190,313L189,308L189,307L189,305L190,304L190,303L186,302L185,304L184,305L182,306L181,306L180,307L180,309L180,311L181,312L183,313L185,314L186,314L187,315L189,318L191,319L192,319L193,321L196,325L198,326L200,327L201,328L201,329L202,330L202,332L202,333L203,334L203,335L203,336L202,337L202,339L202,340L201,341L201,342L202,344L203,344L205,344L206,343L207,344L208,344L209,345L212,345L213,345L214,346L215,347L216,348L216,349L216,350L215,350L214,352L214,353L214,354L215,355L216,357L218,357L219,359L220,361L220,362L223,364L225,365L226,366L226,367L224,369L223,370L222,370L221,370L219,371L219,372L217,374L217,375L217,377L217,382Z " data-fips="GH04" data-hasc="GH.CP" data-name="Central" data-postal="CP" data-varname=""/><path d="M283,337L283,336L283,334L284,334L287,334L288,334L288,335L289,336L290,336L292,337L294,337L295,337L296,336L297,335L299,334L300,334L300,335L302,335L303,335L304,334L305,333L305,332L306,330L307,328L310,327L310,326L312,322L313,323L314,323L315,323L318,321L320,321L321,322L322,324L324,325L326,326L327,328L328,328L329,329L330,328L331,327L334,324L334,318L334,317L331,316L329,315L328,314L324,314L323,314L320,311L320,310L320,309L321,308L320,306L320,305L320,304L323,303L324,303L325,302L326,301L327,295L327,294L327,293L325,292L325,290L324,288L323,288L321,288L321,287L321,285L322,282L322,281L323,280L324,279L327,277L327,276L327,273L326,272L325,271L323,270L323,269L323,267L323,266L324,265L325,263L326,262L327,261L327,260L327,258L327,256L327,255L327,254L328,252L328,251L325,247L323,247L322,248L321,249L319,248L318,247L316,247L297,247L296,248L295,248L294,250L293,251L289,252L288,253L287,254L278,255L276,256L265,271L264,272L259,273L258,273L257,274L255,275L255,276L255,277L256,278L258,280L259,281L259,282L258,283L257,285L256,286L248,295L245,299L244,301L244,304L243,305L243,306L241,308L241,309L241,311L240,312L240,314L241,314L240,315L239,316L239,318L238,319L238,320L237,322L238,322L239,324L240,327L241,328L244,332L245,334L245,335L251,334L252,335L254,335L255,336L257,336L258,335L260,336L266,337L267,337L268,337L278,336L280,337L283,338Z " data-fips="GH05" data-hasc="GH.EP" data-name="Eastern" data-postal="EP" data-varname=""/><path d="M187,399L192,398L193,397L195,395L196,394L201,392L205,390L206,390L206,389L209,387L213,384L214,383L213,382L214,381L215,381L217,382L217,377L217,375L217,374L219,372L219,371L221,370L222,370L223,370L224,369L226,367L226,366L225,365L223,364L220,362L220,361L219,359L218,357L216,357L215,355L214,354L214,353L214,352L215,350L216,350L216,349L216,348L215,347L214,346L213,345L212,345L209,345L208,344L207,344L206,343L205,344L203,344L202,344L201,342L201,341L202,340L202,339L202,337L203,336L203,335L203,334L202,333L202,332L202,330L201,329L201,328L200,327L198,326L196,325L193,321L192,319L191,319L189,318L187,315L186,314L185,314L183,313L181,312L180,311L180,309L180,307L181,306L182,306L184,305L185,304L186,302L185,302L184,302L183,300L182,299L177,297L176,296L176,295L178,292L177,291L176,290L175,291L172,289L171,289L170,290L169,295L168,296L168,297L167,298L166,298L165,298L164,297L163,296L162,295L159,295L158,295L156,289L154,288L153,287L152,287L152,286L151,284L150,283L149,283L146,283L145,283L142,281L140,280L139,279L139,278L139,277L139,276L139,274L139,273L139,271L138,268L137,267L136,264L135,263L134,263L132,262L131,261L128,262L126,262L125,261L124,260L124,258L123,255L123,255L122,255L115,268L114,270L114,273L115,274L116,276L115,279L114,280L113,281L113,282L117,304L118,305L120,307L121,310L123,321L124,323L127,327L127,329L127,332L127,339L131,338L130,342L131,344L132,345L133,345L135,343L136,343L141,344L142,346L142,347L142,350L143,353L143,354L145,358L145,359L145,361L144,361L142,361L141,366L142,367L142,368L142,370L144,371L143,373L142,373L141,373L138,373L137,374L135,374L133,375L132,377L131,377L130,377L129,376L128,375L122,375L121,376L121,377L122,377L131,380L140,381L148,382L158,385L168,388L175,391L175,391L176,392L178,393L180,395L181,396L182,396L184,397L184,398L185,399Z " data-fips="GH09" data-hasc="GH.WP" data-name="Western" data-postal="WP" data-varname=""/><path d="M292,352L295,351L309,347L310,346L311,345L316,344L317,343L318,341L319,341L321,340L323,338L324,338L328,336L330,335L331,335L332,335L334,334L337,334L356,335L357,334L359,334L358,332L356,332L355,331L354,330L353,329L350,323L349,322L344,321L338,320L337,321L336,321L334,323L334,324L331,327L330,328L329,329L328,328L327,328L326,326L324,325L322,324L321,322L320,321L318,321L315,323L314,323L313,323L312,322L310,326L310,327L307,328L306,330L305,332L305,333L304,334L303,335L302,335L300,335L300,334L299,334L297,335L296,336L295,337L294,337L292,337L290,336L289,336L288,335L288,334L287,334L284,334L283,334L283,336L283,337L283,338L285,342L286,344L287,344L288,345L289,345L290,346L291,348L292,352Z " data-fips="GH01" data-hasc="GH.AA" data-name="Greater Accra" data-postal="AA" data-varname=""/><path d="M371,334L373,333L375,331L376,330L376,327L376,326L377,325L378,322L379,321L382,317L384,316L387,314L387,312L387,311L381,310L380,309L379,308L378,307L377,306L376,305L375,300L370,300L369,300L368,299L366,297L364,296L361,294L360,293L359,291L358,290L358,289L358,287L358,286L359,285L357,284L355,284L355,283L354,282L353,282L353,280L353,277L353,276L352,275L352,274L351,274L349,273L346,269L346,268L346,267L347,265L348,264L347,262L345,261L344,260L346,260L350,259L351,256L351,254L350,251L351,248L352,245L353,242L353,240L354,238L352,234L350,234L349,235L348,235L346,233L345,230L344,227L345,223L345,222L347,221L348,221L349,219L349,218L349,216L350,215L351,215L351,214L351,210L351,207L351,203L350,199L350,196L350,195L350,193L349,190L349,188L350,187L350,185L349,184L349,183L350,183L352,181L353,180L356,179L357,179L357,178L357,176L356,175L356,174L356,172L353,170L353,168L351,166L347,164L346,163L344,161L343,160L341,159L338,155L337,151L336,149L334,149L331,149L330,149L328,148L327,148L325,149L325,150L325,151L325,153L324,154L323,155L323,156L323,158L324,159L324,160L323,160L322,160L321,161L320,162L319,164L319,165L321,166L321,167L320,168L319,168L319,170L320,171L319,172L321,173L322,173L323,172L325,172L326,172L327,172L329,173L329,175L328,175L326,176L325,176L326,179L326,181L324,181L322,181L321,181L319,181L318,180L316,178L314,177L313,176L312,176L311,176L309,176L307,177L305,177L304,178L304,179L303,181L303,182L302,183L300,183L299,183L297,183L294,183L293,183L292,183L291,186L289,188L293,189L294,189L303,196L303,197L304,198L307,204L307,207L308,208L309,211L310,212L311,212L313,212L314,213L315,214L316,219L320,226L321,228L321,232L322,233L324,235L326,235L327,236L328,236L329,239L328,242L327,245L327,246L328,251L328,252L327,254L327,255L327,256L327,258L327,260L327,261L326,262L325,263L324,265L323,266L323,267L323,269L323,270L325,271L326,272L327,273L327,276L327,277L324,279L323,280L322,281L322,282L321,285L321,287L321,288L323,288L324,288L325,290L325,292L327,293L327,294L327,295L326,301L325,302L324,303L323,303L320,304L320,305L320,306L321,308L320,309L320,310L320,311L323,314L324,314L328,314L329,315L331,316L334,317L334,318L334,324L334,323L336,321L337,321L338,320L344,321L349,322L350,323L353,329L354,330L355,331L356,332L358,332L359,334L357,334L356,335L359,336Z " data-fips="GH08" data-hasc="GH.TV" data-name="Volta" data-postal="TV" data-varname=""/></g></svg>