<?xml version="1.0" ?><!DOCTYPE svg  PUBLIC '-//W3C//DTD SVG 1.1//EN'  'http://www.w3.org/Graphics/SVG/1.1/DTD/svg11.dtd'><svg enable_background="new 0 0 500 401" height="401px" style="stroke-linejoin: round; stroke:#000; fill:#f6f3f0;" version="1.1" viewBox="0 0 500 401" width="500px" xmlns="http://www.w3.org/2000/svg" xmlns:xlink="http://www.w3.org/1999/xlink"><defs><style type="text/css"><![CDATA[path { fill-rule: evenodd; }
#context path { fill: #eee; stroke: #bbb; } ]]></style></defs><metadata><views><view h="401" padding="0" w="500"><proj id="laea" lat0="10.439" lon0="-10.942"/><bbox h="67.76" w="90.19" x="949.85" y="972.27"/><llbbox lat0="-90" lat1="90" lon0="-180" lon1="180"/></view></views></metadata><g id="admin1"><path d="M220,127L221,126L224,125L227,125L230,125L231,124L233,122L236,119L236,118L240,115L241,114L242,112L242,110L244,110L245,110L246,109L247,109L248,108L249,109L250,109L251,108L252,106L254,105L256,101L257,100L259,99L261,98L262,97L263,96L264,96L265,95L265,93L261,92L260,91L260,90L260,89L266,80L267,78L267,77L266,76L264,73L263,72L263,71L263,69L263,68L262,66L262,65L261,64L262,63L264,61L265,60L266,59L267,57L267,55L267,52L266,51L266,51L264,53L263,53L263,55L262,57L261,58L260,58L259,58L257,59L256,59L254,58L253,58L252,57L251,56L248,52L247,51L243,49L241,48L240,45L241,45L241,43L243,41L244,39L244,37L244,34L244,33L245,32L247,32L248,32L248,32L247,31L246,31L242,29L240,29L234,29L233,30L231,30L229,31L226,32L223,32L218,32L217,32L212,30L211,30L207,32L206,32L202,31L200,31L199,31L197,33L194,35L183,37L182,37L181,36L180,34L179,33L176,32L175,32L174,32L172,32L171,32L169,34L169,34L167,35L163,37L161,38L160,39L159,40L155,41L154,42L152,48L153,49L153,51L152,59L152,60L150,65L151,65L152,65L153,63L154,64L155,65L155,66L153,69L153,73L153,74L153,77L153,78L153,80L154,80L155,81L155,82L156,83L157,84L159,85L160,86L160,87L160,88L159,89L157,90L156,91L153,95L152,96L148,98L146,99L145,100L144,102L143,105L142,106L141,109L140,111L140,113L138,114L142,118L143,119L145,119L146,119L147,119L148,118L150,118L152,118L154,119L154,120L155,121L155,120L155,119L156,118L156,117L156,116L157,114L158,111L159,109L160,109L163,108L163,107L164,105L165,105L167,105L171,105L173,108L174,109L174,111L174,112L174,114L175,115L176,116L178,116L179,117L182,116L190,113L193,112L199,107L200,106L201,106L202,107L204,107L205,107L207,107L207,110L208,111L209,112L210,113L211,113L212,114L213,115L213,116L213,117L213,119L213,121L213,122L213,125L214,127L216,127Z " data-fips="" data-hasc="" data-name="Labe" data-postal="" data-varname=""/><path d="M407,277L411,277L412,273L413,272L415,271L416,270L417,270L419,270L420,270L422,271L423,270L424,269L425,268L426,266L426,265L427,263L428,262L428,261L428,260L428,258L428,257L429,255L432,250L432,249L432,248L433,246L433,245L433,244L434,242L435,241L434,240L434,239L434,238L434,237L434,236L433,233L434,232L435,230L437,231L438,231L440,231L443,231L454,227L462,225L466,223L468,205L468,204L466,204L466,203L466,202L466,201L465,200L465,199L466,198L467,197L466,196L466,194L467,193L468,192L469,191L472,190L474,189L475,187L475,186L476,184L477,183L478,180L479,179L478,177L478,175L477,174L476,172L475,171L471,171L470,171L468,169L468,166L467,165L466,166L465,166L463,166L462,166L461,166L459,163L457,160L456,158L455,144L455,143L453,142L453,141L454,137L455,136L455,135L455,128L455,126L454,125L452,123L450,123L448,123L447,123L445,123L444,123L443,123L442,123L440,126L439,128L438,128L437,129L436,129L435,129L433,129L432,129L431,129L430,130L429,129L429,128L429,127L429,126L430,125L433,122L434,119L434,118L435,117L437,117L437,116L438,113L439,112L441,111L442,110L442,109L443,107L446,107L447,108L448,107L449,107L450,106L450,104L449,104L447,104L447,103L448,102L449,101L450,101L449,100L447,99L443,98L440,97L439,96L439,95L438,93L437,94L435,94L431,92L430,92L430,90L429,89L429,88L427,83L426,82L424,83L423,83L422,83L421,82L420,81L418,82L422,64L421,63L420,61L420,60L420,58L420,57L419,56L417,56L416,56L414,56L413,55L413,54L413,52L414,50L414,48L414,47L413,45L412,45L410,45L409,44L408,42L408,40L409,39L410,38L410,36L410,34L409,33L408,32L406,31L398,26L395,25L389,24L388,25L387,25L385,24L384,25L381,26L381,28L382,29L383,30L385,31L385,32L386,33L387,34L387,35L387,36L385,37L385,40L384,41L380,41L379,41L376,42L375,43L373,44L365,47L364,48L363,49L362,50L362,51L362,54L361,55L360,57L356,57L354,56L353,55L352,55L350,55L348,54L346,52L345,52L344,52L341,51L339,50L338,49L336,48L335,48L334,49L333,49L331,49L330,50L328,51L326,53L327,55L328,56L328,58L328,60L329,64L330,65L330,66L329,68L328,70L327,71L326,73L325,75L325,76L326,77L326,78L325,80L324,82L324,87L325,88L327,91L332,94L335,95L336,95L338,95L339,96L340,97L345,103L346,104L348,105L351,105L352,106L354,107L356,109L358,112L357,112L355,112L354,112L352,115L350,114L346,114L344,114L341,113L339,111L338,110L335,109L326,108L323,108L322,108L312,109L309,110L303,111L302,112L301,113L299,114L298,115L297,116L296,117L294,118L294,119L295,121L294,123L292,124L291,126L290,126L289,127L288,128L288,129L287,131L286,133L286,134L284,134L283,135L281,136L281,137L281,138L282,140L283,140L292,143L293,144L295,144L296,145L298,147L299,149L301,150L302,152L303,153L303,154L304,155L306,155L307,156L310,159L311,160L312,161L313,160L315,159L316,160L318,160L321,159L323,160L324,160L326,161L326,162L327,164L328,165L329,165L329,164L331,162L332,161L332,160L333,162L333,163L333,164L332,165L332,166L332,167L332,168L330,173L329,173L328,173L326,173L326,174L326,175L326,177L326,179L326,180L327,181L327,182L327,183L327,184L326,185L325,185L324,188L322,189L321,190L320,190L320,190L320,193L319,194L318,195L318,196L318,197L318,199L319,200L319,202L320,203L320,204L318,205L317,206L316,207L316,209L317,211L316,211L315,212L314,213L314,214L314,219L314,220L313,222L322,223L323,223L325,222L326,222L326,221L328,219L329,217L330,216L331,215L333,215L336,215L340,215L342,216L345,218L349,223L355,227L356,228L364,227L367,227L369,227L374,228L373,231L373,232L372,233L371,234L367,235L366,236L365,237L364,238L363,239L363,240L363,243L362,244L361,246L361,247L361,248L364,251L365,252L368,251L370,252L372,252L372,253L373,255L372,256L370,258L369,259L370,261L371,261L374,264L374,265L376,268L377,268L381,269L383,270L386,273L394,278L396,279Z " data-fips="" data-hasc="" data-name="Kankan" data-postal="" data-varname=""/><path d="M212,200L213,196L232,196L241,196L242,195L244,192L244,190L246,188L247,186L248,185L248,184L249,180L249,178L245,175L238,171L237,171L236,170L235,169L235,167L235,165L235,164L236,163L242,152L244,150L244,148L244,147L243,145L242,144L239,142L237,141L235,140L234,139L235,136L235,134L234,129L235,128L242,124L239,122L238,121L236,119L233,122L231,124L230,125L227,125L224,125L221,126L220,127L216,127L214,127L213,125L213,122L213,121L213,119L213,117L213,116L213,115L212,114L211,113L210,113L209,112L208,111L207,110L207,107L205,107L204,107L202,107L201,106L200,106L199,107L193,112L190,113L182,116L179,117L178,116L176,116L175,115L174,114L174,112L174,111L174,109L173,108L171,105L167,105L165,105L164,105L163,107L163,108L160,109L159,109L158,111L157,114L156,116L156,117L156,118L155,119L155,120L155,121L153,123L153,124L151,127L150,126L150,127L149,128L148,128L145,130L145,131L144,133L143,134L143,135L143,137L143,138L142,139L143,140L143,141L143,142L143,144L145,145L145,146L144,149L144,150L144,151L143,152L142,154L142,155L143,156L143,157L142,160L143,160L146,160L147,160L148,159L149,159L151,159L153,159L154,160L155,161L156,162L157,163L159,163L160,162L161,161L162,160L163,159L166,158L168,157L172,153L174,153L174,155L173,156L174,158L175,158L176,159L178,159L178,161L179,162L180,162L181,163L179,166L179,168L179,169L178,170L178,172L180,177L181,177L182,177L185,176L186,176L188,177L189,177L191,177L191,178L194,183L198,189L199,190L199,193L198,194L197,197L197,198L198,201L199,203Z " data-fips="" data-hasc="" data-name="Mamou" data-postal="" data-varname=""/><path d="M89,203L90,203L91,201L92,200L93,198L93,198L92,196L91,196L88,196L86,195L79,188L78,187L78,186L82,183L84,181L88,175L89,176L91,176L93,176L94,176L95,176L96,177L97,177L99,177L100,177L101,176L101,174L102,172L103,171L104,170L105,170L106,168L106,167L105,166L105,165L106,164L107,162L108,161L109,161L112,160L113,159L113,158L113,157L112,155L112,154L114,152L116,151L116,149L114,148L113,148L112,148L110,148L110,147L110,146L110,144L110,143L110,142L109,141L108,140L107,140L105,141L95,150L91,145L90,145L88,145L85,144L84,145L83,145L82,145L81,145L80,147L80,148L79,148L78,149L77,148L76,146L74,146L74,144L77,138L77,136L84,133L87,131L88,129L87,128L86,126L85,124L85,123L87,122L88,121L89,117L89,116L89,115L88,114L87,113L87,111L86,110L85,109L84,108L83,108L85,107L87,105L90,104L93,104L94,104L96,104L97,104L98,104L99,103L101,102L103,101L109,101L110,102L111,102L111,104L110,105L111,106L113,106L115,105L116,104L121,103L122,104L124,117L125,118L128,117L134,116L137,115L138,114L140,113L140,111L141,109L142,106L143,105L144,102L145,100L146,99L148,98L152,96L153,95L156,91L157,90L159,89L160,88L160,87L160,86L159,85L157,84L156,83L155,82L155,81L154,80L153,80L153,78L153,77L153,74L153,73L153,69L155,66L155,65L154,64L153,63L152,65L151,65L150,65L152,60L152,59L153,51L153,49L152,48L154,42L155,41L159,40L160,39L161,38L163,37L167,35L169,34L169,34L169,34L167,33L167,32L165,30L164,29L163,29L161,28L157,29L156,28L155,27L154,27L151,26L151,26L151,24L149,23L148,22L146,21L144,21L143,24L143,26L142,26L141,26L139,26L138,26L137,26L136,25L135,24L135,23L135,22L136,19L137,18L137,17L136,16L135,15L134,14L133,15L132,15L130,15L129,14L127,15L126,14L125,14L123,14L122,13L121,13L119,14L118,14L117,14L114,13L92,12L91,16L92,18L92,20L94,22L95,24L96,25L96,26L96,28L95,30L95,32L95,35L94,36L94,38L93,39L91,40L86,40L87,39L86,38L84,39L83,39L81,41L79,42L77,43L76,45L76,46L76,47L78,48L79,48L80,49L82,51L84,52L85,53L87,55L88,56L91,56L92,58L92,59L91,62L91,64L92,73L92,74L92,75L91,78L90,78L89,79L87,79L85,79L85,78L84,77L83,75L82,75L82,76L82,79L81,80L80,81L78,81L76,80L73,82L72,82L69,82L68,82L65,82L64,82L63,81L62,81L60,81L54,80L52,81L51,83L50,84L44,87L38,91L35,91L30,90L27,91L25,91L24,93L17,102L16,105L15,110L8,123L6,126L5,128L4,129L3,130L2,131L0,132L0,134L0,135L1,136L2,138L3,139L4,140L7,141L8,141L9,139L8,138L7,138L7,135L7,134L8,134L9,133L11,132L11,130L11,129L10,128L8,127L10,127L11,128L12,127L12,126L12,125L11,123L13,123L14,127L16,128L18,124L19,125L20,127L21,126L22,127L23,126L24,125L24,124L26,123L26,122L27,121L27,122L28,123L27,124L26,125L24,126L24,127L23,128L22,128L20,129L19,129L18,130L18,130L18,132L19,132L18,133L19,135L18,136L19,138L21,136L22,135L23,134L22,136L22,137L22,138L21,140L21,141L19,141L19,143L20,144L21,145L21,146L22,145L23,143L24,142L27,139L28,138L28,139L28,140L26,141L26,142L25,143L24,146L25,147L26,147L25,148L25,149L26,150L28,148L30,146L31,144L32,142L33,140L34,138L35,137L38,136L38,135L38,133L39,133L38,134L38,135L38,136L38,137L37,138L35,141L34,144L33,145L33,146L32,146L31,147L30,151L30,152L31,153L32,153L31,153L30,154L29,155L28,158L28,159L28,160L28,161L29,161L30,161L31,162L32,161L34,161L35,159L36,159L36,160L35,162L35,164L35,165L36,166L40,171L41,172L41,173L41,176L41,177L42,179L43,178L44,179L46,178L47,178L48,179L52,183L54,183L55,182L56,183L55,184L55,185L56,186L57,187L59,187L60,185L60,184L61,184L63,183L63,182L64,183L63,184L61,186L60,187L60,188L61,190L62,191L63,191L64,191L65,190L66,189L66,186L67,185L69,183L71,181L72,181L70,184L69,185L67,186L68,187L69,188L70,186L71,187L72,189L71,188L69,189L68,191L68,193L69,194L71,194L72,194L73,196L74,196L76,197L77,199L79,200L80,201L81,202L82,203L83,204L84,204L85,205L86,205Z " data-fips="" data-hasc="" data-name="Boke" data-postal="" data-varname=""/><path d="M131,260L133,259L136,258L137,257L138,256L139,254L139,253L140,251L142,251L140,249L141,247L141,246L142,244L143,244L145,245L146,244L147,244L149,244L150,244L151,243L153,241L154,240L155,239L155,238L156,237L157,236L158,237L158,236L159,235L162,227L162,226L163,225L164,223L165,223L166,222L166,220L166,219L167,217L168,216L170,215L170,214L171,213L171,212L172,207L172,206L172,205L175,203L178,202L188,200L190,200L191,201L192,202L194,203L195,204L196,204L197,204L199,203L198,201L197,198L197,197L198,194L199,193L199,190L198,189L194,183L191,178L191,177L189,177L188,177L186,176L185,176L182,177L181,177L180,177L178,172L178,170L179,169L179,168L179,166L181,163L180,162L179,162L178,161L178,159L176,159L175,158L174,158L173,156L174,155L174,153L172,153L168,157L166,158L163,159L162,160L161,161L160,162L159,163L157,163L156,162L155,161L154,160L153,159L151,159L149,159L148,159L147,160L146,160L143,160L142,160L143,157L143,156L142,155L142,154L143,152L144,151L144,150L144,149L145,146L145,145L143,144L143,142L143,141L143,140L142,139L143,138L143,137L143,135L143,134L144,133L145,131L145,130L148,128L149,128L150,127L150,126L151,127L153,124L153,123L155,121L154,120L154,119L152,118L150,118L148,118L147,119L146,119L145,119L143,119L142,118L138,114L137,115L134,116L128,117L125,118L124,117L122,104L121,103L116,104L115,105L113,106L111,106L110,105L111,104L111,102L110,102L109,101L103,101L101,102L99,103L98,104L97,104L96,104L94,104L93,104L90,104L87,105L85,107L83,108L84,108L85,109L86,110L87,111L87,113L88,114L89,115L89,116L89,117L88,121L87,122L85,123L85,124L86,126L87,128L88,129L87,131L84,133L77,136L77,138L74,144L74,146L76,146L77,148L78,149L79,148L80,148L80,147L81,145L82,145L83,145L84,145L85,144L88,145L90,145L91,145L95,150L105,141L107,140L108,140L109,141L110,142L110,143L110,144L110,146L110,147L110,148L112,148L113,148L114,148L116,149L116,151L114,152L112,154L112,155L113,157L113,158L113,159L112,160L109,161L108,161L107,162L106,164L105,165L105,166L106,167L106,168L105,170L104,170L103,171L102,172L101,174L101,176L100,177L99,177L97,177L96,177L95,176L94,176L93,176L91,176L89,176L88,175L84,181L82,183L78,186L78,187L79,188L86,195L88,196L91,196L92,196L93,198L93,198L93,198L93,201L92,203L89,206L89,208L89,211L90,212L93,212L95,211L95,210L95,208L95,206L96,206L99,210L100,210L101,209L101,210L100,211L99,211L98,213L97,214L97,218L97,219L96,220L95,222L94,224L96,226L97,225L100,224L100,226L100,227L101,228L102,229L103,229L104,227L106,224L106,226L106,227L105,228L104,229L104,230L104,232L105,234L108,235L110,234L112,233L112,235L110,237L110,238L110,239L110,240L112,242L111,243L112,244L114,244L115,240L117,240L118,239L119,239L119,240L119,242L118,241L117,242L117,244L117,245L118,246L118,247L118,249L117,250L118,251L120,252L121,250L121,248L122,247L123,245L123,246L122,248L122,249L122,250L122,251L124,251L128,251L127,251L125,251L124,251L123,252L122,253L121,255L118,258L117,258L117,259L119,260L120,259L123,258L125,258L126,258L129,260L130,261Z " data-fips="" data-hasc="" data-name="Kindia" data-postal="" data-varname=""/><path d="M403,386L405,386L406,385L407,384L408,384L409,384L411,383L411,382L412,382L413,381L414,381L416,383L419,382L420,380L420,379L419,378L419,376L420,375L422,373L423,373L424,371L424,370L424,369L426,368L427,367L428,365L428,364L428,362L428,361L428,360L428,358L429,356L430,354L431,353L438,353L439,353L439,356L439,357L440,359L443,361L445,362L448,359L449,358L451,360L452,360L454,359L455,359L457,360L460,362L462,363L464,360L464,359L464,358L466,356L467,355L467,354L469,351L469,350L469,348L470,346L471,346L471,344L469,342L469,340L472,334L473,332L473,329L474,329L477,329L479,330L480,330L479,329L479,327L478,326L476,325L476,324L476,323L477,320L477,319L476,319L471,320L465,318L462,317L459,314L461,312L460,311L460,309L461,308L461,306L461,303L460,302L460,300L464,298L467,298L468,298L471,297L472,297L473,298L474,298L476,298L478,298L480,298L481,298L481,299L482,300L483,302L484,302L485,302L486,303L487,301L487,300L488,299L489,299L490,301L493,305L494,306L496,306L500,306L499,303L498,301L498,300L499,298L499,297L498,294L498,292L498,290L497,288L494,286L492,282L491,281L489,280L488,280L484,279L483,279L480,278L479,276L480,270L480,266L481,265L481,263L482,262L488,259L490,259L491,259L493,258L494,258L493,257L492,256L490,255L489,254L488,253L486,251L485,252L481,250L481,248L483,245L484,242L484,240L485,234L483,234L481,235L479,236L477,237L476,237L474,237L473,236L472,236L471,235L467,229L466,228L466,227L466,225L466,223L462,225L454,227L443,231L440,231L438,231L437,231L435,230L434,232L433,233L434,236L434,237L434,238L434,239L434,240L435,241L434,242L433,244L433,245L433,246L432,248L432,249L432,250L429,255L428,257L428,258L428,260L428,261L428,262L427,263L426,265L426,266L425,268L424,269L423,270L422,271L420,270L419,270L417,270L416,270L415,271L413,272L412,273L411,277L407,277L396,279L394,278L386,273L383,270L381,269L374,272L372,273L370,273L369,273L357,271L346,268L342,268L339,270L338,271L337,271L336,272L330,273L329,273L328,272L327,271L326,270L322,269L322,268L322,261L321,259L320,258L319,258L316,261L315,261L312,258L312,254L312,253L309,251L309,254L308,256L307,257L303,260L302,261L302,261L301,265L300,268L301,273L301,275L301,276L302,277L305,281L306,282L309,286L309,288L308,289L306,290L305,290L303,290L302,291L301,293L299,295L299,297L298,298L297,299L297,302L296,305L295,307L294,308L293,309L293,310L292,313L293,314L294,312L295,310L297,309L299,310L301,310L303,311L304,311L307,309L311,305L311,304L313,301L314,300L315,299L315,299L317,298L319,298L321,299L323,299L324,299L325,298L326,300L327,299L329,297L331,296L332,296L336,297L337,298L337,299L336,302L338,303L339,303L342,301L344,299L346,299L347,298L348,298L349,298L351,298L352,299L353,298L355,297L355,296L356,295L356,293L357,294L358,295L358,296L359,299L359,300L360,301L361,302L361,301L361,300L362,299L363,299L365,299L365,300L365,303L364,303L364,304L364,306L365,305L366,305L368,305L368,305L369,304L370,306L374,307L375,308L376,309L375,309L374,310L373,311L374,312L375,313L375,315L374,316L374,318L374,319L375,320L377,321L377,322L378,328L377,330L378,329L380,329L381,330L381,332L380,332L379,335L379,338L380,341L381,344L383,346L384,347L386,350L385,351L384,354L384,356L385,358L384,359L384,360L383,363L382,365L382,367L380,369L379,370L378,372L378,373L377,375L379,373L380,372L381,374L382,375L384,373L385,372L386,372L388,372L389,373L389,375L391,375L393,374L394,374L395,376L396,380L398,382L400,382L400,383L402,385L401,387Z " data-fips="" data-hasc="" data-name="Nzerekore" data-postal="" data-varname=""/><path d="M370,273L372,273L374,272L381,269L377,268L376,268L374,265L374,264L371,261L370,261L369,259L370,258L372,256L373,255L372,253L372,252L370,252L368,251L365,252L364,251L361,248L361,247L361,246L362,244L363,243L363,240L363,239L364,238L365,237L366,236L367,235L371,234L372,233L373,232L373,231L374,228L369,227L367,227L364,227L356,228L355,227L349,223L345,218L342,216L340,215L336,215L333,215L331,215L330,216L329,217L328,219L326,221L326,222L325,222L323,223L322,223L313,222L314,220L314,219L314,214L314,213L315,212L316,211L317,211L316,209L316,207L317,206L318,205L320,204L320,203L319,202L319,200L318,199L318,197L318,196L318,195L319,194L320,193L320,190L320,190L321,190L322,189L324,188L325,185L326,185L327,184L327,183L327,182L327,181L326,180L326,179L326,177L326,175L326,174L326,173L328,173L329,173L330,173L332,168L332,167L332,166L332,165L333,164L333,163L333,162L332,160L332,161L331,162L329,164L329,165L328,165L327,164L326,162L326,161L324,160L323,160L321,159L318,160L316,160L315,159L313,160L312,161L311,160L310,159L307,156L306,155L304,155L303,154L303,153L302,152L301,150L299,149L298,147L296,145L295,144L293,144L292,143L283,140L282,140L281,138L281,137L281,136L283,135L284,134L286,134L286,133L287,131L288,129L288,128L289,127L290,126L291,126L292,124L294,123L295,121L294,119L294,118L296,117L297,116L298,115L299,114L301,113L302,112L303,111L309,110L312,109L322,108L323,108L326,108L335,109L338,110L339,111L341,113L344,114L346,114L350,114L352,115L354,112L355,112L357,112L358,112L356,109L354,107L352,106L351,105L348,105L346,104L345,103L340,97L339,96L338,95L336,95L335,95L332,94L327,91L325,88L324,87L324,82L325,80L326,78L326,77L325,76L325,75L326,73L327,71L328,70L329,68L330,66L330,65L329,64L328,60L328,58L328,56L327,55L326,53L328,51L330,50L331,49L333,49L334,49L335,48L334,48L333,47L332,47L330,47L329,46L327,45L324,44L323,44L320,45L319,46L318,46L317,47L316,47L316,46L315,47L312,49L311,50L308,50L307,51L307,53L306,54L306,55L305,56L304,57L303,57L304,59L303,59L301,60L300,61L299,62L299,64L297,66L296,66L293,66L292,64L289,59L287,57L287,56L288,54L287,52L286,51L284,50L283,49L280,45L279,44L277,44L276,44L273,45L272,45L270,45L269,48L268,49L266,51L267,52L267,55L267,57L266,59L265,60L264,61L262,63L261,64L262,65L262,66L263,68L263,69L263,71L263,72L264,73L266,76L267,77L267,78L266,80L260,89L260,90L260,91L261,92L265,93L265,95L264,96L263,96L262,97L261,98L259,99L257,100L256,101L254,105L252,106L251,108L250,109L249,109L248,108L247,109L246,109L245,110L244,110L242,110L242,112L241,114L240,115L236,118L236,119L238,121L239,122L242,124L235,128L234,129L235,134L235,136L234,139L235,140L237,141L239,142L242,144L243,145L244,147L244,148L244,150L242,152L236,163L235,164L235,165L235,167L235,169L236,170L237,171L238,171L245,175L249,178L249,180L248,184L248,185L247,186L246,188L244,190L244,192L242,195L241,196L256,196L258,196L260,197L261,197L262,199L263,204L265,205L268,207L271,210L273,213L275,216L276,218L277,219L278,220L278,221L279,222L279,223L281,224L282,226L283,228L284,229L284,230L284,231L284,233L285,234L286,235L287,236L286,237L287,237L289,237L290,237L291,239L292,239L293,240L296,244L295,245L295,247L295,248L295,249L294,250L293,251L291,253L291,256L291,258L294,259L296,259L299,259L301,259L302,261L303,260L307,257L308,256L309,254L309,251L312,253L312,254L312,258L315,261L316,261L319,258L320,258L321,259L322,261L322,268L322,269L326,270L327,271L328,272L329,273L330,273L336,272L337,271L338,271L339,270L342,268L346,268L357,271L369,273Z " data-fips="" data-hasc="" data-name="Faranah" data-postal="" data-varname=""/><path d="M92,228L93,227L96,226L94,224L91,227L90,228Z " data-fips="" data-hasc="" data-name="Conakry" data-postal="" data-varname=""/></g></svg>