<?xml version="1.0" ?><!DOCTYPE svg  PUBLIC '-//W3C//DTD SVG 1.1//EN'  'http://www.w3.org/Graphics/SVG/1.1/DTD/svg11.dtd'><svg enable_background="new 0 0 500 401" height="401px" style="stroke-linejoin: round; stroke:#000; fill:#f6f3f0;" version="1.1" viewBox="0 0 500 401" width="500px" xmlns="http://www.w3.org/2000/svg" xmlns:xlink="http://www.w3.org/1999/xlink"><defs><style type="text/css"><![CDATA[path { fill-rule: evenodd; }
#context path { fill: #eee; stroke: #bbb; } ]]></style></defs><metadata><views><view h="401" padding="0" w="500"><proj id="laea" lat0="12.125" lon0="-14.651"/><bbox h="21.62" w="36.97" x="974.96" y="993.15"/><llbbox lat0="-90" lat1="90" lon0="-180" lon1="180"/></view></views></metadata><g id="admin1"><path d="M174,198L182,193L185,192L186,191L191,184L193,184L190,182L189,181L187,178L185,178L183,177L182,176L180,172L172,186L171,192L171,195L171,199Z " data-fips="PU11" data-hasc="GW.BS" data-name="Bissau" data-postal="BS" data-varname=""/><path d="M99,327L102,327L105,327L109,325L108,323L108,321L109,318L107,315L107,313L110,313L107,310L107,308L106,306L107,304L108,303L109,302L108,301L105,299L101,298L99,300L99,304L96,303L95,302L94,304L93,304L91,305L90,311L88,312L87,313L85,314L84,313L84,312L85,312L87,311L85,310L82,311L79,313L77,315L79,320L83,324L87,326L91,326L92,328L94,328L93,326L95,322L96,322L96,324L95,325L96,327L96,328Z M122,325L124,324L128,325L130,325L131,324L133,324L135,324L137,323L138,321L137,320L136,318L135,317L134,309L132,305L130,302L127,300L125,302L125,304L125,308L126,310L125,312L125,314L123,317L124,318L125,319L126,317L127,316L129,316L130,318L129,319L124,321L123,322L121,322L121,323L121,325Z M163,303L164,301L163,298L163,297L165,296L166,298L167,297L168,295L169,293L169,292L168,292L168,291L170,291L172,293L173,295L174,294L174,291L173,286L174,283L171,282L167,282L163,283L161,287L160,287L159,287L158,288L158,291L155,294L155,295L157,296L157,298L155,299L154,300L154,302L155,304L156,305L158,303L159,303L160,304L162,304L163,306Z M117,321L120,316L122,314L122,312L122,307L122,302L122,300L121,299L112,301L110,303L108,306L109,308L110,310L114,310L112,313L113,315L114,317L114,320L115,322Z M90,296L89,294L90,292L91,291L93,290L93,289L93,287L93,285L92,284L90,283L87,283L86,283L84,281L83,282L80,282L77,284L75,286L75,289L74,290L72,291L72,292L72,294L77,297L79,297Z M143,300L144,298L145,291L146,284L146,283L141,283L137,286L135,292L135,297L139,300Z M83,259L84,259L84,258L85,256L86,255L91,250L92,249L91,247L88,246L84,247L79,248L78,250L76,252L74,254L71,256L69,257L71,258L73,258L76,258L82,260Z M174,257L175,256L174,254L175,253L175,252L173,252L173,251L174,249L173,248L170,250L169,251L168,250L168,251L167,253L166,254L164,255L163,255L161,255L161,257L161,258L164,259L166,259L168,258L170,258L170,260Z M69,251L70,251L72,251L73,249L74,248L74,247L77,243L78,241L79,238L78,237L78,235L77,236L76,236L74,237L73,236L72,235L67,241L61,241L54,241L49,245L51,246L50,247L51,249L50,250L49,251L51,251L53,250L54,249L63,249L64,250L66,252L67,252Z M191,247L192,244L188,243L188,242L193,242L196,238L198,238L199,239L201,239L205,239L204,238L203,236L202,234L202,232L204,230L204,228L203,228L200,229L198,230L195,229L194,231L192,233L190,235L190,237L186,237L184,239L182,242L180,243L178,244L179,245L180,246L182,246L183,247L186,247L187,246L189,248Z M114,263L115,262L117,260L118,259L120,260L121,259L122,259L124,262L127,261L131,259L135,258L133,254L132,250L133,246L135,243L133,241L134,237L131,235L131,237L129,237L128,235L128,232L126,232L122,236L120,237L118,238L116,241L115,245L114,248L110,252L104,255L105,257L111,261L112,263Z M210,238L212,238L212,236L212,235L212,233L213,231L214,231L214,234L216,236L217,236L218,234L221,235L220,232L218,229L217,226L218,223L221,228L223,231L226,233L227,230L225,229L224,227L223,222L226,222L224,220L226,220L226,219L224,219L220,218L218,218L212,220L212,222L210,225L208,227L208,230L206,231L205,232L206,234L207,236L208,238L208,239L210,241Z M113,205L114,202L116,196L117,193L119,191L120,189L121,185L120,185L119,183L117,183L115,183L112,183L113,184L108,186L105,187L103,188L97,187L94,187L91,188L92,189L92,191L92,196L93,198L95,199L97,199L99,200L103,206L105,207L106,207L108,206L110,206L112,207Z M128,209L129,208L133,207L134,206L135,203L135,200L136,197L138,196L137,202L138,204L141,205L143,204L148,193L148,190L149,187L152,186L155,185L159,189L162,189L162,190L160,190L159,190L157,190L152,189L149,195L146,208L149,208L157,204L158,202L160,201L171,199L171,195L171,192L172,186L180,172L179,169L178,168L173,161L166,165L166,165L166,167L165,170L164,172L163,171L161,171L158,171L156,170L156,169L155,167L154,166L151,166L148,167L144,168L142,170L140,171L136,177L134,182L133,182L132,183L130,184L129,186L127,196L124,202L123,205L124,208L124,210L126,210Z " data-fips="PU05" data-hasc="GW.BL" data-name="Bolama" data-postal="BL" data-varname="Bolama-Bijagcs"/><path d="M100,185L101,184L102,182L103,182L104,182L108,180L109,180L121,179L124,178L126,176L127,174L128,172L127,169L128,170L129,170L131,169L130,168L129,167L133,167L137,166L140,164L141,161L142,161L143,163L145,164L151,164L153,163L154,164L155,165L156,167L157,167L160,167L163,166L164,164L165,164L166,165L173,161L172,159L172,158L174,153L174,152L173,150L173,149L175,142L176,140L175,138L174,137L169,135L167,134L166,132L162,129L160,127L159,125L159,124L161,123L161,122L160,120L160,119L162,117L163,116L164,116L165,117L166,118L167,118L169,117L169,115L169,113L171,113L172,113L176,113L179,111L180,110L181,109L182,108L188,104L191,103L193,102L196,100L197,99L199,99L201,99L202,99L204,99L205,103L207,103L208,103L214,99L215,98L216,97L217,93L217,91L217,89L217,85L214,75L213,74L213,74L171,93L166,94L136,92L123,93L120,93L110,89L106,89L104,89L92,91L91,91L89,92L88,92L84,90L83,90L81,90L56,103L51,105L43,105L35,108L32,108L10,106L4,107L0,110L1,111L3,111L5,110L7,109L9,109L11,110L17,115L18,116L19,119L20,120L21,120L25,119L26,119L30,122L31,123L31,124L35,129L36,129L36,131L37,133L39,134L42,135L43,136L44,137L45,136L46,135L49,135L51,134L52,133L52,131L55,134L56,132L59,134L62,133L63,131L64,125L66,121L67,119L67,122L66,126L66,129L69,130L74,124L76,122L82,119L85,118L93,116L97,114L99,111L101,109L104,107L108,108L107,108L103,109L102,110L100,111L98,114L97,115L95,118L83,125L79,126L77,128L75,130L75,132L76,135L76,136L75,137L73,137L73,136L73,134L70,135L68,136L66,137L65,139L60,149L61,151L62,156L63,161L63,163L64,165L66,167L68,168L72,168L74,169L77,177L79,178L83,180L88,181L92,181L95,183L96,185L98,185Z " data-fips="PU06" data-hasc="GW.CA" data-name="Cacheu" data-postal="CA" data-varname=""/><path d="M194,183L195,182L201,177L202,177L204,176L207,177L208,176L211,174L212,173L216,172L220,172L223,173L226,175L229,177L231,178L237,179L244,181L247,182L250,181L253,179L257,174L259,173L261,173L266,169L269,169L271,169L274,171L275,170L277,170L279,170L281,171L282,172L283,173L283,174L283,174L285,174L287,174L288,173L290,172L290,171L290,170L288,167L288,166L288,165L288,164L289,163L289,161L282,157L281,156L280,156L277,155L277,153L276,149L275,148L270,139L270,138L270,137L272,135L273,133L275,132L276,131L278,132L280,131L281,131L282,132L287,134L288,134L292,134L294,134L294,133L294,125L295,122L295,120L293,118L290,114L289,113L289,112L288,95L290,94L297,93L301,91L303,90L304,89L306,88L306,86L306,85L305,84L305,83L302,81L298,78L297,77L297,75L298,73L299,71L301,69L301,67L304,62L305,61L305,59L305,57L303,54L250,53L245,54L241,56L232,63L222,67L213,74L214,75L217,85L217,89L217,91L217,93L216,97L215,98L214,99L208,103L207,103L205,103L204,99L202,99L201,99L199,99L197,99L196,100L193,102L191,103L188,104L182,108L181,109L180,110L179,111L176,113L172,113L171,113L169,113L169,115L169,117L167,118L166,118L165,117L164,116L163,116L162,117L160,119L160,120L161,122L161,123L159,124L159,125L160,127L162,129L166,132L167,134L169,135L174,137L175,138L176,140L175,142L173,149L173,150L174,152L174,153L172,158L172,159L173,161L178,168L179,169L180,172L182,176L183,177L185,178L187,178L189,181L190,182L193,184Z " data-fips="PU04" data-hasc="GW.OI" data-name="Oio" data-postal="OI" data-varname=""/><path d="M203,277L205,276L208,276L209,274L210,272L212,269L214,268L216,267L219,266L220,264L220,261L222,258L224,256L227,255L227,256L226,258L224,260L223,262L222,267L223,269L225,270L229,269L238,261L237,263L238,262L247,256L250,255L253,256L256,259L257,259L258,260L261,263L262,264L263,264L265,265L266,266L267,266L273,264L278,263L280,262L286,260L288,260L289,259L291,256L293,252L294,250L295,249L296,247L296,246L296,243L296,240L298,235L306,224L309,217L304,217L308,212L308,210L304,208L303,208L301,208L301,207L300,205L299,204L299,203L297,202L296,202L295,203L294,205L292,208L288,209L285,208L283,206L281,203L278,202L274,201L270,200L269,197L268,193L267,188L269,185L270,183L271,179L271,177L267,177L264,179L262,181L260,184L255,185L254,185L252,188L251,188L231,188L227,188L221,186L217,186L215,186L214,187L213,188L212,187L211,186L210,186L208,188L207,189L207,191L206,193L205,194L203,195L197,201L196,203L195,207L192,211L192,214L192,217L193,219L194,221L195,220L196,218L198,217L199,216L200,215L202,215L202,217L202,221L201,222L204,224L207,223L212,218L212,220L218,218L220,218L224,219L226,219L226,220L227,219L228,222L229,228L229,227L230,225L230,224L231,222L232,224L234,225L235,224L236,222L235,220L233,219L231,218L231,217L229,215L230,215L235,215L235,213L235,211L236,210L238,209L237,214L237,216L239,217L237,219L237,221L238,221L239,221L241,219L242,218L242,215L243,212L244,210L245,208L246,208L249,209L251,211L251,213L249,213L248,212L247,212L246,214L246,215L246,217L248,218L244,220L243,223L244,224L247,220L248,222L250,223L251,223L250,220L252,220L253,219L253,218L254,217L255,217L256,218L257,218L259,217L260,215L260,219L258,220L255,221L254,224L256,224L258,225L260,225L263,219L264,219L265,221L265,222L262,225L261,226L261,227L263,227L265,228L267,230L267,228L268,226L270,225L272,226L271,229L272,230L270,230L269,231L268,232L269,234L270,234L275,234L277,233L278,232L280,232L280,234L279,235L278,236L276,237L274,238L268,238L266,238L264,238L263,242L261,243L261,241L261,238L260,238L259,237L258,236L260,236L267,235L266,233L264,231L263,231L261,231L261,233L258,234L258,232L258,230L257,229L256,228L255,228L253,227L251,226L250,226L248,227L247,229L247,231L249,233L250,235L249,238L247,238L243,235L244,234L244,231L245,230L242,231L241,231L238,230L236,229L236,231L237,232L239,232L240,233L241,234L240,236L240,237L242,237L239,238L237,237L235,235L233,233L232,234L230,235L227,236L227,237L229,237L230,236L232,238L234,241L234,243L231,244L231,241L229,241L227,241L226,240L224,240L224,242L223,243L225,245L224,246L221,245L219,245L217,245L215,245L214,245L215,246L216,248L216,249L217,251L215,251L214,249L213,249L212,251L211,253L210,251L210,250L208,251L207,252L205,252L204,251L204,253L204,255L205,257L208,257L203,263L202,265L202,266L199,272L199,274L199,277L201,278Z " data-fips="PU02" data-hasc="GW.QU" data-name="Quinara" data-postal="QU" data-varname="Buba"/><path d="M329,233L333,228L335,228L338,228L340,230L341,230L343,230L347,228L351,227L358,226L362,227L363,217L364,215L365,214L368,213L368,212L370,211L370,210L369,208L368,207L367,205L367,202L366,196L366,189L366,187L366,185L368,180L368,178L368,177L364,174L363,173L363,171L363,170L363,169L364,168L365,166L365,161L365,159L364,157L362,156L360,155L359,154L359,152L359,151L359,149L360,147L362,147L365,148L366,147L369,145L370,145L371,144L372,143L374,140L374,138L374,136L373,135L370,134L369,133L369,132L366,124L366,122L366,121L367,120L368,118L368,117L368,115L367,114L366,113L364,112L361,110L359,109L358,108L357,107L354,105L355,105L355,103L354,103L354,101L356,100L357,100L359,100L361,100L363,99L363,98L363,97L362,94L362,92L364,92L365,94L366,94L367,93L369,92L370,91L370,90L370,89L370,87L367,85L366,84L365,84L362,86L361,86L359,86L358,85L358,83L357,80L358,79L358,78L359,77L360,79L360,81L362,81L363,80L364,81L366,82L368,81L369,82L370,84L371,84L372,84L375,81L376,81L378,82L380,83L381,83L382,82L383,81L384,79L384,77L382,77L381,76L380,75L379,74L378,72L377,62L378,61L379,61L380,62L381,63L382,64L384,64L385,63L385,62L386,59L389,54L303,54L305,57L305,59L305,61L304,62L301,67L301,69L299,71L298,73L297,75L297,77L298,78L302,81L305,83L305,84L306,85L306,86L306,88L304,89L303,90L301,91L297,93L290,94L288,95L289,112L289,113L290,114L293,118L295,120L295,122L294,125L294,133L294,134L292,134L288,134L287,134L282,132L281,131L280,131L278,132L276,131L275,132L273,133L272,135L270,137L270,138L270,139L275,148L276,149L277,153L277,155L280,156L281,156L282,157L289,161L289,163L288,164L288,165L288,166L288,167L290,170L290,171L290,172L288,173L287,174L285,174L283,174L283,174L283,174L281,174L278,175L278,176L275,184L274,186L272,188L270,190L271,192L272,194L273,195L274,196L276,197L277,198L282,198L284,200L287,204L290,207L294,205L295,203L296,202L297,202L299,203L299,204L300,205L301,207L301,208L303,208L304,208L308,210L308,212L304,217L309,217L312,219L313,220L313,222L314,225L317,229L321,232L325,234Z " data-fips="PU01" data-hasc="GW.BA" data-name="Bafat" data-postal="BA" data-varname=""/><path d="M390,232L392,230L393,228L395,224L396,223L399,222L399,223L413,223L415,223L417,223L419,223L420,224L421,226L423,226L426,227L428,227L433,226L435,226L443,227L446,226L453,222L454,221L457,223L461,222L464,221L466,218L466,216L466,212L466,210L466,209L469,209L470,210L471,214L472,215L474,215L474,216L474,218L475,219L478,219L483,218L487,217L489,215L490,213L490,209L491,206L491,204L491,203L488,183L489,176L490,169L490,166L489,165L488,163L487,163L481,162L478,161L476,159L473,155L472,154L471,152L471,151L466,150L464,149L461,146L458,144L455,143L451,142L449,141L450,139L450,136L450,134L454,130L459,128L464,125L468,122L471,120L475,119L478,120L476,124L487,124L492,122L495,118L495,113L496,110L497,108L496,103L496,101L497,100L499,93L500,90L500,87L498,84L494,79L489,73L488,69L488,65L489,54L389,54L386,59L385,62L385,63L384,64L382,64L381,63L380,62L379,61L378,61L377,62L378,72L379,74L380,75L381,76L382,77L384,77L384,79L383,81L382,82L381,83L380,83L378,82L376,81L375,81L372,84L371,84L370,84L369,82L368,81L366,82L364,81L363,80L362,81L360,81L360,79L359,77L358,78L358,79L357,80L358,83L358,85L359,86L361,86L362,86L365,84L366,84L367,85L370,87L370,89L370,90L370,91L369,92L367,93L366,94L365,94L364,92L362,92L362,94L363,97L363,98L363,99L361,100L359,100L357,100L356,100L354,101L354,103L355,103L355,105L354,105L357,107L358,108L359,109L361,110L364,112L366,113L367,114L368,115L368,117L368,118L367,120L366,121L366,122L366,124L369,132L369,133L370,134L373,135L374,136L374,138L374,140L372,143L371,144L370,145L369,145L366,147L365,148L362,147L360,147L359,149L359,151L359,152L359,154L360,155L362,156L364,157L365,159L365,161L365,166L364,168L363,169L363,170L363,171L363,173L364,174L368,177L368,178L368,180L366,185L366,187L366,189L366,196L367,202L367,205L368,207L369,208L370,210L370,211L368,212L368,213L365,214L364,215L363,217L362,227L369,228L370,231L370,232L371,235L374,240Z " data-fips="PU10" data-hasc="GW.GA" data-name="Gab" data-postal="GA" data-varname=""/><path d="M272,344L278,339L283,334L288,328L304,297L307,284L310,278L326,254L329,251L333,248L340,248L353,249L360,248L374,240L371,235L370,232L370,231L369,228L362,227L358,226L351,227L347,228L343,230L341,230L340,230L338,228L335,228L333,228L329,233L325,234L321,232L317,229L314,225L313,222L313,220L312,219L309,217L306,224L298,235L296,240L296,243L296,246L296,247L295,249L294,250L293,252L291,256L289,259L288,260L286,260L280,262L278,263L273,264L267,266L266,266L265,265L263,264L262,264L261,263L258,260L257,259L256,259L253,256L250,255L247,256L238,262L237,263L237,263L235,266L233,268L232,269L230,270L228,272L226,273L224,272L221,271L220,270L218,272L214,277L213,279L213,281L212,283L212,285L213,286L214,286L214,287L215,288L214,290L214,298L215,302L217,304L219,304L220,305L222,306L222,308L223,309L225,310L229,310L230,310L232,311L233,312L239,311L243,313L245,310L245,306L244,304L244,301L243,298L244,295L248,295L246,299L248,313L246,320L246,322L244,323L239,326L237,327L237,329L239,331L242,334L244,334L246,334L248,332L252,326L254,322L256,319L258,317L260,316L261,315L261,312L263,313L264,311L265,309L267,311L268,310L269,309L268,306L272,305L275,303L278,300L279,296L281,297L282,300L280,304L278,306L279,307L280,307L281,309L281,310L275,311L275,313L274,314L272,314L271,315L270,316L269,319L268,321L266,322L265,324L262,336L263,338L264,339L266,339L268,339L270,338L271,337L272,336L272,335L274,335L274,336L273,337L270,340L269,341L267,342L266,343L266,345L268,346Z " data-fips="PU07" data-hasc="GW.TO" data-name="Tombali" data-postal="TO" data-varname=""/></g></svg>