<?xml version="1.0" ?><!DOCTYPE svg  PUBLIC '-//W3C//DTD SVG 1.1//EN'  'http://www.w3.org/Graphics/SVG/1.1/DTD/svg11.dtd'><svg enable_background="new 0 0 500 401" height="401px" style="stroke-linejoin: round; stroke:#000; fill:#f6f3f0;" version="1.1" viewBox="0 0 500 401" width="500px" xmlns="http://www.w3.org/2000/svg" xmlns:xlink="http://www.w3.org/1999/xlink"><defs><style type="text/css"><![CDATA[path { fill-rule: evenodd; }
#context path { fill: #eee; stroke: #bbb; } ]]></style></defs><metadata><views><view h="401" padding="0" w="500"><proj id="laea" lat0="1.607" lon0="10.488"/><bbox h="64.74" w="70.62" x="939.84" y="973.26"/><llbbox lat0="-90" lat1="90" lon0="-180" lon1="180"/></view></views></metadata><g id="admin1"><path d="M35,398L35,396L34,394L33,396L33,398L32,398L34,399Z " data-fips="EK03" data-hasc="GQ.AN" data-name="Annobn" data-postal="AN" data-varname=""/><path d="M368,211L398,211L439,211L439,211L441,209L441,208L440,207L438,206L438,205L436,200L436,198L435,197L432,196L431,195L426,190L425,188L425,186L426,184L428,182L431,177L432,175L432,174L436,171L437,170L440,169L441,167L439,168L435,167L434,167L434,166L433,165L431,166L430,167L429,166L428,166L426,167L425,166L423,166L421,167L419,168L417,168L415,168L412,168L410,166L410,165L411,163L411,160L410,159L410,158L410,157L412,154L412,153L413,151L413,149L412,148L407,144L405,141L405,141L404,141L400,141L399,140L398,138L398,136L399,135L399,133L399,132L398,129L397,126L397,122L380,122L381,126L381,130L381,131L380,133L377,136L376,137L375,138L375,139L375,141L374,149L373,150L371,154L366,162L365,164L364,165L362,165L360,166L360,168L361,169L366,170L371,171L373,172L375,174L374,175L373,178L373,179L375,181L377,182L377,187L377,189L377,190L379,191L380,191L380,193L380,195L381,196L381,198L383,199L384,198L385,197L386,198L387,199L387,201L386,202L385,203L384,204L383,204L380,205L378,205L376,205L375,204L373,204L372,205L370,205L368,207L367,208L367,209L366,211Z " data-fips="EK06" data-hasc="GQ.CS" data-name="Centro Sur" data-postal="CS" data-varname=""/><path d="M446,155L448,155L449,155L454,155L456,155L459,154L467,155L467,125L467,122L420,122L397,122L397,126L398,129L399,132L399,133L399,135L398,136L398,138L399,140L400,141L404,141L405,141L405,141L414,136L417,135L419,136L428,139L429,140L431,140L433,140L434,139L436,137L437,137L439,138L439,139L441,153L442,155L443,155L445,155Z " data-fips="EK07" data-hasc="GQ.KN" data-name="Ki-Ntem" data-postal="KN" data-varname=""/><path d="M363,216L364,216L364,215L364,212L365,211L366,211L367,209L367,208L368,207L370,205L372,205L373,204L375,204L376,205L378,205L380,205L383,204L384,204L385,203L386,202L387,201L387,199L386,198L385,197L384,198L383,199L381,198L381,196L380,195L380,193L380,191L379,191L377,190L377,189L377,187L377,182L375,181L373,179L373,178L374,175L375,174L373,172L371,171L366,170L361,169L360,168L360,166L362,165L364,165L365,164L366,162L371,154L373,150L374,149L375,141L375,139L375,138L376,137L377,136L380,133L381,131L381,130L381,126L380,122L365,122L364,122L359,120L358,119L356,119L354,117L353,116L352,115L351,113L352,112L352,110L351,109L349,110L348,111L349,113L350,114L350,116L349,126L348,128L348,129L349,130L351,137L352,140L351,142L348,145L348,146L347,147L346,149L346,150L345,152L344,153L342,154L341,155L337,160L336,162L337,164L341,167L342,167L345,165L347,165L345,166L344,167L342,168L340,168L339,167L338,167L337,166L335,167L334,170L333,172L333,173L332,174L330,176L327,178L325,179L325,181L325,184L325,185L324,187L323,188L322,189L321,189L320,191L319,195L318,196L318,197L316,197L317,198L317,200L318,200L321,203L322,203L324,202L328,201L329,200L330,201L331,201L332,202L333,203L334,207L334,208L336,207L339,206L340,205L341,203L344,201L343,203L344,204L348,203L350,204L352,205L353,205L352,206L351,206L351,207L351,209L351,211L353,211L355,212L356,213L357,214L358,215L359,216L360,216L362,217Z " data-fips="EK08" data-hasc="GQ.LI" data-name="Litoral" data-postal="LI" data-varname=""/><path d="M467,155L459,154L456,155L454,155L449,155L448,155L446,155L445,155L443,155L442,155L441,153L439,139L439,138L437,137L436,137L434,139L433,140L431,140L429,140L428,139L419,136L417,135L414,136L405,141L407,144L412,148L413,149L413,151L412,153L412,154L410,157L410,158L410,159L411,160L411,163L410,165L410,166L412,168L415,168L417,168L419,168L421,167L423,166L425,166L426,167L428,166L429,166L430,167L431,166L433,165L434,166L434,167L435,167L439,168L441,167L440,169L437,170L436,171L432,174L432,175L431,177L428,182L426,184L425,186L425,188L426,190L431,195L432,196L435,197L436,198L436,200L438,205L438,206L440,207L441,208L441,209L439,211L439,211L468,211Z " data-fips="EK09" data-hasc="GQ.WN" data-name="Wele-Nzs" data-postal="WN" data-varname=""/><path d="M282,17L283,14L286,12L286,11L287,10L287,9L287,7L287,5L286,4L284,2L283,1L281,2L279,2L276,2L274,2L273,2L270,1L271,0L268,1L265,4L263,7L262,9L262,11L263,11L265,11L266,12L269,14L271,15L272,15L274,15L276,15L277,16L279,17Z " data-fips="EK05" data-hasc="GQ.BN" data-name="Bioko Norte" data-postal="BN" data-varname=""/><path d="M267,43L270,39L273,35L274,33L274,30L274,29L276,27L277,25L278,24L279,17L277,16L276,15L274,15L272,15L271,15L269,14L266,12L265,11L263,11L262,11L261,16L261,17L260,18L259,19L258,20L258,21L259,22L258,23L257,24L254,24L253,23L252,24L250,24L249,25L248,27L247,28L247,31L246,33L247,34L248,36L248,38L250,39L252,40L253,40L254,40L256,41L257,41L260,41L262,42L264,43L266,44Z " data-fips="EK04" data-hasc="GQ.BS" data-name="Bioko Sur" data-postal="BS" data-varname=""/></g></svg>