<?xml version="1.0" ?><!DOCTYPE svg  PUBLIC '-//W3C//DTD SVG 1.1//EN'  'http://www.w3.org/Graphics/SVG/1.1/DTD/svg11.dtd'><svg enable_background="new 0 0 500 401" height="401px" style="stroke-linejoin: round; stroke:#000; fill:#f6f3f0;" version="1.1" viewBox="0 0 500 401" width="500px" xmlns="http://www.w3.org/2000/svg" xmlns:xlink="http://www.w3.org/1999/xlink"><defs><style type="text/css"><![CDATA[path { fill-rule: evenodd; }
#context path { fill: #eee; stroke: #bbb; } ]]></style></defs><metadata><views><view h="401" padding="0" w="500"><proj id="laea" lat0="27.044" lon0="18.023"/><bbox h="169.09" w="176.38" x="904.38" y="922.46"/><llbbox lat0="-90" lat1="90" lon0="-180" lon1="180"/></view></views></metadata><g id="admin1"><path d="M112,134L112,129L111,126L109,123L107,119L108,111L107,105L107,98L106,92L106,86L107,81L106,77L107,75L108,74L110,71L114,66L116,62L116,61L115,59L114,57L114,54L114,50L114,48L114,44L115,41L115,39L114,36L115,32L116,29L112,26L110,25L109,24L108,22L107,22L106,24L91,30L89,32L89,33L88,34L87,34L85,34L84,34L84,37L84,38L82,39L82,40L81,41L79,41L77,41L75,42L73,45L71,47L71,49L72,54L73,58L74,60L73,61L73,62L74,65L73,66L72,69L69,72L66,76L62,80L60,80L54,83L48,86L48,87L50,89L51,90L54,95L56,101L59,115L60,120L59,125L58,130L58,130L59,130L61,129L63,129L65,128L66,128L69,129L72,131L74,131L76,130L79,129L81,128L83,127L85,126L86,125L87,127L87,129L89,131L92,132L93,133L96,135L98,135L100,134L101,133L104,134L107,133L108,135L111,136Z " data-fips="LY56" data-hasc="LY.GD" data-name="Ghadamis" data-postal="GD" data-varname="Gadamis|Ghadames"/><path d="M297,198L297,184L297,145L293,145L285,142L280,140L280,141L277,140L273,139L269,137L266,134L265,130L264,126L262,124L260,121L259,119L258,116L256,115L254,115L252,116L250,118L248,117L244,116L241,113L238,113L235,114L230,114L226,113L223,112L220,111L217,112L215,113L213,115L210,114L208,112L206,109L205,108L204,107L201,107L199,107L196,106L192,105L191,102L189,101L187,100L187,101L185,103L184,105L184,107L185,109L185,112L185,113L183,115L181,116L178,118L176,119L176,121L175,125L176,128L177,131L178,133L180,134L182,136L186,139L189,142L190,146L190,148L190,150L193,150L196,150L200,148L203,148L205,148L208,149L210,150L212,152L213,155L212,157L211,160L210,164L212,166L214,170L215,173L216,175L217,176L218,177L220,179L222,180L222,182L222,184L222,186L222,188L223,190L225,191L227,192L228,193L230,195L230,198L231,201L234,204L236,205L238,206L239,209L243,209L248,210L251,212L254,211L256,210L259,209L261,209L265,206L266,205L269,203L272,202L275,204L278,207L280,209L283,209L286,210L290,211L294,212L296,213L298,213Z " data-fips="LY05" data-hasc="LY.JU" data-name="Al Jufrah" data-postal="JU" data-varname="al-Ghufra"/><path d="M431,384L458,383L455,325L448,183L448,178L439,179L429,179L414,180L399,181L384,182L369,182L353,183L338,183L326,183L315,183L306,184L297,184L297,198L298,213L298,228L298,242L298,257L298,271L298,286L299,300L299,314L299,329L299,330L299,331L299,334L431,399Z " data-fips="LY08" data-hasc="LY.KF" data-name="Al Kufrah" data-postal="KF" data-varname="al-Kufra"/><path d="M176,27L178,25L180,23L180,22L180,22L179,21L177,19L175,18L174,17L173,16L168,15L166,16L164,19L164,21L164,22L167,23L169,25L173,28L175,29Z " data-fips="LY50" data-hasc="LY.MB" data-name="Al Marqab" data-postal="MB" data-varname="Al Murgub|Al Khums|Homs|Khoms"/><path d="M98,200L104,197L111,192L119,187L126,182L132,178L138,174L143,173L147,174L154,177L163,179L172,178L174,178L176,177L177,175L179,173L182,172L186,170L187,167L191,165L194,165L199,164L200,163L204,162L211,160L212,157L213,155L212,152L210,150L208,149L205,148L203,148L200,148L196,150L193,150L190,150L190,148L190,146L189,142L186,139L182,136L180,134L178,133L177,131L176,128L175,125L176,121L176,119L176,117L175,115L173,113L170,111L167,109L165,108L163,108L161,108L158,111L157,112L155,114L153,116L152,119L150,121L149,123L147,125L145,128L142,131L139,133L137,134L135,135L134,136L133,138L131,140L128,140L126,138L126,136L125,136L123,136L121,135L118,134L116,134L113,133L112,134L111,136L108,135L107,133L104,134L101,133L100,134L98,135L96,135L93,133L92,132L89,131L87,129L87,127L86,125L85,126L83,127L81,128L79,129L76,130L74,131L72,131L69,129L66,128L65,128L63,129L61,129L59,130L58,130L58,130L56,140L57,142L60,152L59,154L59,154L63,156L68,159L73,160L78,162L84,164L87,165L89,167L90,170L91,177L91,181L92,187L93,195L94,198L94,202Z " data-fips="LY13" data-hasc="LY.SH" data-name="Ash Shati'" data-postal="SH" data-varname="Wadi Al Shatii|Shati|Wadi ash-Shati'"/><path d="M94,258L94,254L94,250L91,244L91,238L92,232L92,227L94,222L99,219L103,222L106,223L111,222L114,222L116,220L119,218L123,219L126,219L128,217L131,216L135,215L141,215L144,213L147,209L149,208L154,207L161,204L161,202L162,198L165,196L167,192L166,191L165,189L164,187L164,183L164,180L163,179L154,177L147,174L143,173L138,174L132,178L126,182L119,187L111,192L104,197L98,200L94,202L94,198L93,195L92,187L91,181L91,177L90,170L89,167L87,165L84,164L78,162L73,160L68,159L63,156L59,154L59,154L57,160L55,161L56,162L56,163L54,165L54,167L53,169L55,177L55,181L57,182L56,185L56,186L56,188L54,192L45,196L45,197L44,198L43,199L42,201L42,202L56,224L57,226L57,228L57,236L57,241L61,244L61,247L62,249L66,252L67,252L73,250L74,250L94,258Z " data-fips="LY52" data-hasc="LY.GT" data-name="Ghat" data-postal="GT" data-varname="Gat"/><path d="M299,331L299,330L299,329L299,314L299,300L298,286L298,271L298,257L298,242L298,228L298,213L296,213L294,212L290,211L286,210L283,209L280,209L278,207L275,204L272,202L269,203L266,205L265,206L261,209L259,209L256,210L254,211L251,212L248,210L243,209L239,209L238,206L236,205L234,204L231,201L230,198L230,195L228,193L227,192L225,191L223,190L222,188L222,186L222,184L222,182L209,185L206,186L201,187L196,187L192,188L188,189L184,190L182,192L179,195L177,198L174,201L169,203L166,204L161,204L154,207L149,208L147,209L144,213L141,215L135,215L131,216L128,217L126,219L123,219L119,218L116,220L114,222L111,222L106,223L103,222L99,219L94,222L92,227L92,232L91,238L91,244L94,250L94,254L94,258L94,258L96,259L96,260L100,268L106,282L146,293L149,295L166,310L186,300L213,287L299,334Z " data-fips="LY30" data-hasc="LY.MQ" data-name="Murzuq" data-postal="MQ" data-varname=""/><path d="M193,38L194,37L196,36L200,36L202,36L202,35L202,34L202,33L201,31L200,30L200,28L199,28L197,26L196,26L191,25L187,25L187,26L186,28L186,29L187,31L187,32L186,34L185,36L186,38L189,38Z " data-fips="LY58" data-hasc="LY.MI" data-name="Misratah" data-postal="MI" data-varname="Misrata, Misurata"/><path d="M166,204L169,203L174,201L177,198L179,195L182,192L184,190L188,189L192,188L196,187L201,187L206,186L209,185L222,182L222,180L220,179L218,177L217,176L216,175L215,173L214,170L212,166L210,164L204,162L200,163L199,164L194,165L191,165L187,167L186,170L182,172L179,173L177,175L176,177L174,178L172,178L163,179L164,180L164,183L164,187L165,189L166,191L167,192L165,196L162,198L161,202L161,204Z " data-fips="LY34" data-hasc="LY.SB" data-name="Sabha" data-postal="SB" data-varname="Sabhah, Sebha"/><path d="M183,39L185,36L186,34L187,32L187,31L186,29L186,28L187,26L187,25L186,24L184,23L180,22L180,23L178,25L176,27L175,29L175,29L171,33L175,36L177,38L180,39Z " data-fips="LY45" data-hasc="LY.MI" data-name="Zlitan" data-postal="MI" data-varname="Misrata, Misurata"/><path d="M143,28L145,28L148,28L149,27L150,27L149,25L149,23L148,20L148,17L146,15L144,17L142,19L142,20L140,24L140,26L139,28Z " data-fips="LY03" data-hasc="LY.JI" data-name="Al Jifarah" data-postal="JI" data-varname="Al Jfara|Al `Aziziyah|al-Ghifara|Al `Aziziyah"/><path d="M122,25L122,23L125,22L127,22L128,20L131,18L132,16L134,12L129,11L128,11L126,10L123,8L122,7L117,3L113,2L115,3L112,2L111,2L110,1L109,0L109,0L109,1L108,4L107,6L107,8L107,11L106,14L106,16L107,17L108,19L109,20L109,21L108,22L109,24L110,25L112,26Z " data-fips="LY51" data-hasc="LY.NQ" data-name="An Nuqat al Khams" data-postal="NQ" data-varname="an-Niqat al-Hams|Nigat al Khums"/><path d="M139,28L140,26L140,24L142,20L142,19L144,17L146,15L147,13L147,11L146,11L140,13L138,13L134,12L132,16L131,18L128,20L127,22L125,22L122,23L122,25L123,26L126,27L129,27L131,28L133,28L137,29Z " data-fips="LY53" data-hasc="LY.ZA" data-name="Az Zawiyah" data-postal="ZA" data-varname="az-Zawiya|Zavia|Zawia"/><path d="M133,138L134,136L135,135L137,134L139,133L142,131L145,128L147,125L149,123L150,121L152,119L153,116L155,114L157,112L158,111L161,108L163,108L165,108L167,109L170,111L173,113L175,115L176,117L176,119L178,118L181,116L183,115L185,113L185,112L185,109L184,107L184,105L185,103L187,101L187,100L188,99L190,98L191,95L191,92L191,88L190,84L188,82L186,81L181,80L178,78L176,76L172,74L171,71L169,65L165,59L164,58L162,57L160,53L158,51L158,48L157,45L155,42L155,38L153,33L153,31L151,29L150,27L149,27L148,28L145,28L143,28L139,28L137,29L135,31L134,33L135,34L136,36L136,37L136,39L136,42L137,44L138,45L137,47L135,47L133,47L132,45L131,47L130,49L130,52L129,53L128,56L127,58L127,60L127,62L125,63L123,63L120,63L118,62L116,62L114,66L110,71L108,74L107,75L106,77L107,81L106,86L106,92L107,98L107,105L108,111L107,119L109,123L111,126L112,129L112,134L113,133L116,134L118,134L121,135L123,136L125,136L126,136L126,138L128,140L131,140Z " data-fips="LY57" data-hasc="LY.MZ" data-name="Mizdah" data-postal="MZ" data-varname="Mizda"/><path d="M215,113L217,112L220,111L223,112L226,113L229,110L230,107L229,104L228,99L226,93L224,88L224,82L223,77L221,70L220,66L220,61L221,60L218,59L211,56L209,54L208,53L205,49L205,48L202,40L202,39L202,36L200,36L196,36L194,37L193,38L189,38L186,38L183,39L180,39L177,38L175,36L171,33L170,35L167,35L166,34L164,34L163,34L160,35L159,35L155,35L155,38L155,42L157,45L158,48L158,51L160,53L162,57L164,58L165,59L169,65L171,71L172,74L176,76L178,78L181,80L186,81L188,82L190,84L191,88L191,92L191,95L190,98L188,99L187,100L189,101L191,102L192,105L196,106L199,107L201,107L204,107L205,108L206,109L208,112L210,114L213,115Z " data-fips="LY59" data-hasc="LY.BW" data-name="Bani Walid" data-postal="BW" data-varname="Sawfajjin"/><path d="M153,25L154,24L155,21L157,21L158,20L162,19L164,19L166,16L168,15L167,14L165,14L164,14L160,14L158,13L153,10L151,10L149,10L148,10L147,11L147,13L148,17L148,20L149,23L149,25L153,26Z " data-fips="LY61" data-hasc="LY.TN" data-name="Tajura' wa an Nawahi al Arba" data-postal="TN" data-varname="Taghura' wa-n-Nawahi al-Arba"/><path d="M160,35L163,34L164,34L166,34L167,35L170,35L171,33L175,29L173,28L169,25L167,23L164,22L164,21L164,19L162,19L158,20L157,21L155,21L154,24L153,25L153,26L150,27L151,29L153,31L153,33L155,35L159,35Z " data-fips="LY41" data-hasc="LY.MB" data-name="Tarhunah" data-postal="MB" data-varname="Al Murgub|Al Khums|Homs|Khoms"/><path d="M127,62L127,60L127,58L128,56L129,53L130,52L130,49L131,47L132,45L133,47L135,47L137,47L138,45L137,44L136,42L136,39L136,37L136,36L135,34L134,33L135,31L133,28L131,28L129,27L126,27L123,26L116,29L115,32L114,36L115,39L115,41L114,44L114,48L114,50L114,54L114,57L115,59L116,61L116,62L118,62L120,63L123,63L125,63Z " data-fips="LY62" data-hasc="LY.YJ" data-name="Yafran-Jadu" data-postal="YJ" data-varname="Yafran"/><path d="M358,65L360,64L359,58L359,58L358,56L357,53L357,49L358,47L358,44L358,40L357,37L354,35L352,34L351,31L350,28L349,25L349,23L350,21L352,19L352,17L349,15L349,15L348,15L343,15L342,15L339,17L336,19L330,22L330,22L330,25L329,27L327,29L325,32L324,35L324,37L325,40L327,43L328,46L329,49L330,50L334,51L336,50L338,50L341,50L344,50L345,49L347,51L347,53L348,56L349,59L352,66Z " data-fips="LY48" data-hasc="LY.HZ" data-name="Al Hizam Al Akhdar" data-postal="HZ" data-varname="al-Hizam al-Ahdar"/><path d="M362,64L366,63L370,63L365,58L365,55L366,53L365,48L366,46L366,43L366,40L366,36L365,33L365,30L364,28L365,27L365,25L366,23L366,21L366,19L365,17L364,15L364,13L365,11L362,11L361,11L360,11L358,10L357,10L355,10L352,14L351,14L349,15L352,17L352,19L350,21L349,23L349,25L350,28L351,31L352,34L354,35L357,37L358,40L358,44L358,47L357,49L357,53L358,56L359,58L359,58L360,64Z " data-fips="LY49" data-hasc="LY.JA" data-name="Al Jabal al Akhdar" data-postal="JA" data-varname="Al Bayda'|al-Ghabal al-Ahdar|Beida|Djebel Akhdar|Jebel el Akhdar"/><path d="M306,184L315,183L326,183L338,183L353,183L369,182L384,182L399,181L414,180L429,179L439,179L448,178L448,175L447,165L446,147L446,147L433,148L421,148L409,148L397,148L396,129L395,110L394,91L393,72L392,71L391,71L389,71L387,72L384,71L382,71L380,69L378,66L375,63L373,62L370,63L366,63L362,64L360,64L358,65L352,66L340,66L335,67L332,67L330,66L327,65L325,62L324,61L321,60L320,60L320,61L320,61L321,65L321,66L319,69L317,73L317,74L316,75L315,77L311,82L307,85L305,85L303,87L301,88L299,88L298,89L296,89L294,89L291,89L290,88L287,86L286,91L285,97L285,102L286,107L285,111L282,115L280,121L280,130L280,140L285,142L293,145L297,145L297,184Z " data-fips="LY47" data-hasc="LY.AJ" data-name="Ajdabiya" data-postal="AJ" data-varname="Aghdabiya"/><path d="M335,67L340,66L349,59L348,56L347,53L347,51L345,49L344,50L341,50L338,50L336,50L334,51L330,50L329,49L328,46L327,43L325,40L324,37L324,35L325,32L327,29L329,27L330,25L330,22L330,22L330,22L326,25L326,25L324,26L323,28L318,33L318,34L315,39L315,40L315,42L315,44L314,45L315,47L315,49L315,50L316,51L318,56L319,58L320,61L320,60L321,60L324,61L325,62L327,65L330,66L332,67Z " data-fips="LY54" data-hasc="LY.BA" data-name="Benghazi" data-postal="BA" data-varname="Banghazi|Bengasi"/><path d="M280,140L280,130L280,121L282,115L285,111L286,107L285,102L285,97L286,91L287,86L286,86L285,85L283,85L283,84L281,82L275,78L273,75L271,74L267,73L265,72L264,71L263,70L261,70L259,69L257,68L253,67L252,66L251,65L250,65L246,64L241,62L235,61L226,61L221,60L220,61L220,66L221,70L223,77L224,82L224,88L226,93L228,99L229,104L230,107L229,110L230,114L235,114L238,113L241,113L244,116L248,117L250,118L252,116L254,115L256,115L258,116L259,119L260,121L262,124L264,126L265,130L266,134L269,137L273,139L277,140L280,141Z " data-fips="LY60" data-hasc="LY.SR" data-name="Surt" data-postal="SR" data-varname="Sirte"/><path d="M389,71L391,71L391,65L391,63L390,59L391,54L393,50L394,46L394,40L395,36L396,32L396,30L396,29L395,27L394,27L392,26L392,24L393,25L393,22L392,21L392,19L393,18L392,17L391,17L389,17L388,17L386,16L385,15L379,14L378,14L377,13L374,11L373,11L371,11L370,11L369,10L368,9L367,10L365,11L364,13L364,15L365,17L366,19L366,21L366,23L365,25L365,27L364,28L365,30L365,33L366,36L366,40L366,43L366,46L365,48L366,53L365,55L365,58L370,63L373,62L375,63L378,66L380,69L382,71L384,71L387,72Z " data-fips="LY55" data-hasc="LY.QB" data-name="Al Qubbah" data-postal="QB" data-varname="Al Qubah|al-Qubba"/><path d="M409,148L421,148L433,148L446,147L446,147L444,116L444,114L443,113L441,108L441,107L441,105L441,103L440,101L439,99L439,98L439,97L439,95L436,90L435,88L435,87L436,86L436,84L437,83L438,82L438,81L440,79L440,78L440,76L441,74L441,72L441,71L442,70L442,69L441,68L440,66L440,64L439,62L438,59L438,56L437,54L437,52L441,48L442,46L443,45L444,43L444,42L443,41L442,39L441,38L441,37L441,36L440,35L439,35L437,34L435,34L434,33L433,33L431,34L429,35L422,34L417,35L414,33L415,32L411,31L407,30L403,30L400,30L400,30L399,29L397,30L396,30L396,32L395,36L394,40L394,46L393,50L391,54L390,59L391,63L391,65L391,71L392,71L393,72L394,91L395,110L396,129L397,148Z " data-fips="LY42" data-hasc="LY.BU" data-name="Al Butnan" data-postal="BU" data-varname="Tobruk|Tubruq"/></g></svg>