<?xml version="1.0" ?><!DOCTYPE svg  PUBLIC '-//W3C//DTD SVG 1.1//EN'  'http://www.w3.org/Graphics/SVG/1.1/DTD/svg11.dtd'><svg enable_background="new 0 0 500 401" height="401px" style="stroke-linejoin: round; stroke:#000; fill:#f6f3f0;" version="1.1" viewBox="0 0 500 401" width="500px" xmlns="http://www.w3.org/2000/svg" xmlns:xlink="http://www.w3.org/1999/xlink"><defs><style type="text/css"><![CDATA[path { fill-rule: evenodd; }
#context path { fill: #eee; stroke: #bbb; } ]]></style></defs><metadata><views><view h="401" padding="0" w="500"><proj id="laea" lat0="-29.581" lon0="28.243"/><bbox h="25.76" w="26.14" x="986.69" y="987.54"/><llbbox lat0="-90" lat1="90" lon0="-180" lon1="180"/></view></views></metadata><g id="admin1"><path d="M222,152L226,148L231,144L233,142L234,141L235,140L240,138L241,137L242,138L247,145L249,143L249,142L251,140L252,139L259,133L260,132L261,130L261,127L259,121L258,118L257,117L257,116L255,114L255,111L257,105L252,103L250,101L249,100L248,98L246,95L244,93L242,91L240,91L239,90L235,89L233,89L232,88L230,86L229,83L228,81L227,80L223,77L221,74L219,72L217,71L215,70L213,70L212,71L210,73L209,77L207,79L205,80L204,82L199,89L197,91L195,92L192,92L191,91L189,91L187,89L185,88L184,88L178,92L176,93L175,93L173,94L167,98L165,99L163,98L161,98L158,98L154,100L152,100L152,101L148,108L139,120L138,120L136,121L134,122L133,124L133,126L134,130L135,132L133,134L132,134L132,134L133,136L134,137L135,137L135,138L135,140L135,142L135,143L136,144L137,145L139,145L143,144L145,143L147,142L149,139L150,139L151,139L155,142L158,143L163,144L165,145L168,145L169,144L169,143L169,141L170,140L171,140L172,139L175,138L177,138L179,138L182,139L192,145L193,146L195,146L200,145L202,144L205,143L208,140L210,138L213,134L215,133L216,134L216,135L217,141L218,143L218,145L217,149L217,150L218,152L219,153L220,153Z " data-fips="LT10" data-hasc="LS.BE" data-name="Berea" data-postal="BE" data-varname="Teyateyaneng"/><path d="M232,258L235,255L235,250L234,248L237,246L241,246L241,245L239,241L239,238L240,235L238,234L235,235L230,235L230,233L229,229L229,226L226,221L223,219L224,217L228,216L233,216L237,216L244,218L241,208L241,206L241,204L237,179L237,178L236,177L234,176L234,174L233,174L232,172L231,171L230,170L230,168L230,166L230,164L230,162L231,160L231,158L232,157L233,156L234,156L236,155L238,154L247,145L242,138L241,137L240,138L235,140L234,141L233,142L231,144L226,148L222,152L220,153L219,153L218,152L217,150L217,149L218,145L218,143L217,141L216,135L216,134L215,133L213,134L210,138L208,140L205,143L202,144L200,145L195,146L193,146L192,145L182,139L179,138L177,138L175,138L172,139L171,140L170,140L169,141L169,143L169,144L168,145L165,145L163,144L158,143L155,142L151,139L150,139L149,139L147,142L145,143L143,144L139,145L137,145L136,144L135,143L135,142L135,140L135,138L135,137L134,137L133,136L132,134L132,134L125,136L122,138L122,140L121,144L121,146L119,148L118,149L116,149L115,151L114,152L115,153L116,154L116,156L116,158L116,159L114,160L108,168L106,171L105,174L104,175L100,175L99,176L99,178L98,180L97,182L97,182L101,183L104,182L105,183L106,183L107,184L107,186L108,189L108,190L110,194L111,196L112,198L117,203L117,205L118,207L118,208L119,209L120,210L122,211L124,211L125,211L130,210L131,208L134,205L136,204L136,206L136,210L137,212L139,214L143,215L148,215L150,215L151,216L160,230L160,232L159,235L157,236L156,238L156,239L158,240L172,238L179,238L182,239L203,243L207,245L211,248L213,249L221,250L223,251L224,252L225,254L226,255L228,259Z " data-fips="LT14" data-hasc="LS.MS" data-name="Maseru" data-postal="MS" data-varname=""/><path d="M137,349L139,348L141,348L142,348L143,347L144,342L145,341L151,339L163,344L168,341L170,337L170,334L167,326L167,324L167,323L168,322L170,322L172,324L177,326L180,326L183,324L184,324L186,320L191,318L192,317L192,315L193,313L194,313L196,311L197,310L198,308L197,306L196,301L196,298L197,296L200,289L201,288L203,287L204,286L209,286L213,285L214,285L223,287L226,287L232,285L234,283L235,281L237,278L241,277L248,278L253,276L257,273L258,273L263,270L269,271L271,273L274,279L276,278L281,274L285,271L286,271L288,270L289,269L290,268L292,265L294,263L295,262L301,260L303,259L304,258L305,255L305,253L304,247L304,244L305,239L305,235L303,230L298,234L297,236L292,237L289,238L284,241L280,243L277,244L274,243L270,244L269,247L269,250L267,251L263,251L260,253L263,258L265,262L263,263L262,266L259,264L257,262L254,259L250,256L245,255L242,255L235,255L232,258L228,259L226,255L223,257L223,261L220,261L216,259L212,257L208,257L203,257L201,254L198,252L196,254L195,259L194,262L192,259L189,255L186,255L187,259L187,261L184,265L180,265L177,263L174,261L171,263L169,266L167,266L164,267L162,268L161,269L159,269L157,268L156,266L155,265L153,261L151,260L149,260L146,261L144,260L142,260L140,258L140,261L139,263L138,264L137,265L137,265L136,266L135,267L134,269L128,276L127,277L126,279L125,280L124,280L121,281L120,281L117,278L112,275L111,274L110,271L110,269L109,267L109,264L109,261L109,257L110,255L112,248L112,246L112,245L110,245L108,245L106,247L105,248L104,248L103,249L99,249L98,249L96,248L95,249L90,252L79,258L76,259L81,270L84,273L92,280L94,284L97,293L98,296L100,299L101,299L103,299L107,299L110,300L111,301L111,303L109,305L105,314L105,320L109,330L109,333L111,333L114,334L116,334L117,334L121,333L123,333L124,334L126,339L127,342L130,344L136,346L137,349Z " data-fips="LT15" data-hasc="LS.MH" data-name="Mohale's Hoek" data-postal="MH" data-varname="Mohales Hoek"/><path d="M227,395L226,392L226,389L227,385L228,383L230,382L231,382L232,381L234,379L234,378L237,369L237,367L237,365L235,362L234,360L236,358L250,347L252,345L253,340L252,336L251,334L248,333L246,331L247,327L249,324L253,322L256,321L261,320L262,319L263,318L265,315L267,314L269,311L272,306L269,302L268,301L267,301L265,301L251,300L249,299L248,298L247,296L247,295L247,294L247,292L248,289L249,287L250,286L255,283L258,283L259,282L260,281L259,278L257,273L253,276L248,278L241,277L237,278L235,281L234,283L232,285L226,287L223,287L214,285L213,285L209,286L204,286L203,287L201,288L200,289L197,296L196,298L196,301L197,306L198,308L197,310L196,311L194,313L193,313L192,315L192,317L191,318L186,320L184,324L183,324L180,326L177,326L172,324L170,322L168,322L167,323L167,324L167,326L170,334L170,337L168,341L163,344L151,339L145,341L144,342L143,347L142,348L141,348L139,348L137,349L137,349L137,350L142,355L146,360L146,362L146,364L146,365L148,367L158,375L167,385L171,388L177,390L184,391L186,390L187,390L189,389L190,389L192,389L194,390L195,392L197,393L200,394L203,396L223,397L227,399Z " data-fips="LT18" data-hasc="LS.QT" data-name="Quthing" data-postal="QT" data-varname=""/><path d="M300,94L302,90L302,89L303,89L305,88L306,89L313,91L315,92L317,92L319,92L321,91L323,91L325,90L326,89L328,87L329,86L330,85L330,83L331,77L332,75L333,73L337,66L339,63L340,63L341,62L345,61L350,59L351,58L352,57L352,55L351,54L351,53L350,52L350,48L352,36L352,36L346,35L345,34L340,25L338,23L330,23L328,20L327,12L326,8L325,5L323,2L319,0L317,0L315,2L307,7L304,8L281,9L277,11L274,14L269,22L266,25L263,26L259,26L255,26L252,25L250,25L251,26L254,28L255,31L255,37L256,41L257,43L258,44L262,45L263,45L265,44L267,45L269,45L275,49L277,51L278,51L281,52L282,54L284,56L285,57L287,57L289,58L291,58L293,58L295,59L296,61L296,63L296,66L296,68L297,70L298,72L297,74L294,87L294,89L294,91L296,95L297,96L298,96Z " data-fips="LT11" data-hasc="LS.BB" data-name="Butha-Buthe" data-postal="BB" data-varname="Butha Buthe"/><path d="M314,148L315,147L316,147L316,145L316,144L314,143L313,142L308,136L307,134L307,132L307,128L308,125L308,122L310,120L312,117L314,115L316,114L319,113L321,113L322,111L336,99L339,96L340,93L341,89L343,70L343,68L345,65L345,61L341,62L340,63L339,63L337,66L333,73L332,75L331,77L330,83L330,85L329,86L328,87L326,89L325,90L323,91L321,91L319,92L317,92L315,92L313,91L306,89L305,88L303,89L302,89L302,90L300,94L298,96L297,96L296,95L294,91L294,89L294,87L297,74L298,72L297,70L296,68L296,66L296,63L296,61L295,59L293,58L291,58L289,58L287,57L285,57L284,56L282,54L281,52L278,51L277,51L275,49L269,45L267,45L265,44L263,45L262,45L258,44L257,43L256,41L255,37L255,31L254,28L251,26L250,25L240,26L239,25L237,27L235,30L230,37L230,38L222,46L216,55L215,56L215,58L215,59L214,59L209,59L207,58L206,56L204,54L200,54L198,55L197,58L196,61L194,64L190,66L171,65L172,68L170,69L168,70L166,72L166,74L166,76L166,77L165,78L165,80L164,80L163,80L160,85L157,87L155,88L153,89L154,91L156,93L157,95L156,95L154,96L153,95L151,96L152,100L154,100L158,98L161,98L163,98L165,99L167,98L173,94L175,93L176,93L178,92L184,88L185,88L187,89L189,91L191,91L192,92L195,92L197,91L199,89L204,82L205,80L207,79L209,77L210,73L212,71L213,70L215,70L217,71L219,72L221,74L223,77L227,80L228,81L229,83L230,86L232,88L233,89L235,89L239,90L240,91L242,91L244,93L246,95L248,98L249,100L250,101L252,103L257,105L259,103L261,102L263,102L264,102L267,103L268,103L269,104L270,105L270,106L270,108L270,110L271,112L273,116L277,129L281,137L283,139L285,139L286,139L291,140L296,143L305,147L307,148L309,148Z " data-fips="LT12" data-hasc="LS.LE" data-name="Leribe" data-postal="LE" data-varname=""/><path d="M410,189L411,189L416,187L417,187L421,184L423,183L425,184L425,180L427,176L430,172L435,170L440,168L444,167L446,165L448,163L448,161L448,159L449,156L452,151L452,148L452,147L450,145L449,144L449,142L449,140L449,138L447,134L443,128L441,121L440,118L437,115L435,113L433,111L432,100L427,98L420,97L415,96L401,81L396,78L392,77L390,76L389,73L389,70L387,68L383,66L380,65L377,65L368,55L361,43L359,41L357,39L354,37L352,36L350,48L350,52L351,53L351,54L352,55L352,57L351,58L350,59L345,61L345,65L343,68L343,70L341,89L340,93L339,96L336,99L322,111L321,113L319,113L316,114L314,115L312,117L310,120L308,122L308,125L307,128L307,132L314,130L318,128L328,119L329,118L331,118L332,118L332,120L333,122L333,124L333,126L328,137L326,140L326,142L326,143L328,144L330,145L331,146L334,149L335,150L336,149L337,148L338,147L340,147L342,147L344,148L346,149L347,150L347,154L347,161L347,165L346,168L345,170L343,173L343,174L344,176L345,176L352,175L355,176L362,178L365,178L373,178L375,178L376,178L378,178L380,177L382,176L383,176L388,178L393,180L396,181L398,183L400,187L401,189L403,191L404,192L407,192Z " data-fips="LT16" data-hasc="LS.MK" data-name="Mokhotlong" data-postal="MK" data-varname=""/><path d="M274,304L277,301L281,300L289,301L293,300L294,299L300,295L303,295L306,295L314,298L319,298L323,297L334,293L345,290L356,286L375,273L379,271L382,269L386,266L395,261L397,261L401,259L403,258L404,257L404,255L402,251L402,248L402,247L401,245L399,244L397,240L397,236L398,231L398,226L396,227L392,227L387,224L383,224L382,224L381,226L379,238L379,240L377,242L375,245L372,246L370,247L366,247L364,247L361,246L352,239L350,238L348,237L344,237L342,237L343,240L344,242L343,245L341,245L339,245L338,245L336,245L335,245L333,247L332,248L331,249L328,250L327,249L327,248L326,247L326,245L327,242L326,240L326,239L325,237L324,236L321,234L318,232L313,230L310,229L307,229L306,229L303,230L305,235L305,239L304,244L304,247L305,253L305,255L304,258L303,259L301,260L295,262L294,263L292,265L290,268L289,269L288,270L286,271L285,271L281,274L276,278L274,279L271,273L269,271L263,270L258,273L257,273L259,278L260,281L259,282L258,283L255,283L250,286L249,287L248,289L247,292L247,294L247,295L247,296L248,298L249,299L251,300L265,301L267,301L268,301L269,302L272,306Z " data-fips="LT17" data-hasc="LS.QN" data-name="Qacha's Nek" data-postal="QN" data-varname="Quacha's Nek|Quachas Nek"/><path d="M263,251L267,251L269,250L269,247L270,244L274,243L277,244L280,243L284,241L289,238L292,237L297,236L298,234L303,230L306,229L307,229L310,229L313,230L318,232L321,234L324,236L325,237L326,239L326,240L327,242L326,245L326,247L327,248L327,249L328,250L331,249L332,248L333,247L335,245L336,245L338,245L339,245L341,245L343,245L344,242L343,240L342,237L344,237L348,237L350,238L352,239L361,246L364,247L366,247L370,247L372,246L375,245L377,242L379,240L379,238L381,226L382,224L383,224L387,224L392,227L396,227L398,226L398,226L401,220L403,215L406,210L411,206L423,203L424,202L426,200L426,197L427,193L429,192L426,189L425,184L423,183L421,184L417,187L416,187L411,189L410,189L407,192L404,192L403,191L401,189L400,187L398,183L396,181L393,180L388,178L383,176L382,176L380,177L378,178L376,178L375,178L373,178L365,178L362,178L355,176L352,175L345,176L344,176L343,174L343,173L345,170L346,168L347,165L347,161L347,154L347,150L346,149L344,148L342,147L340,147L338,147L337,148L336,149L335,150L334,149L331,146L330,145L328,144L326,143L326,142L326,140L328,137L333,126L333,124L333,122L332,120L332,118L331,118L329,118L328,119L318,128L314,130L307,132L307,134L308,136L313,142L314,143L316,144L316,145L316,147L315,147L314,148L309,148L307,148L305,147L296,143L291,140L286,139L285,139L283,139L281,137L277,129L273,116L271,112L270,110L270,108L270,106L270,105L269,104L268,103L267,103L264,102L263,102L261,102L259,103L257,105L255,111L255,114L257,116L257,117L258,118L259,121L261,127L261,130L260,132L259,133L252,139L251,140L249,142L249,143L247,145L238,154L236,155L234,156L233,156L232,157L231,158L231,160L230,162L230,164L230,166L230,168L230,170L231,171L232,172L233,174L234,174L234,176L236,177L237,178L237,179L241,204L241,206L241,208L244,218L247,218L252,222L247,228L250,232L252,244L253,245L255,246L257,247L259,250L260,253Z " data-fips="LT19" data-hasc="LS.TT" data-name="Thaba-Tseka" data-postal="TT" data-varname="Thaba Tseka"/><path d="M124,280L125,280L126,279L127,277L128,276L134,269L135,267L136,266L137,265L137,265L138,264L139,263L140,261L140,258L142,260L144,260L146,261L149,260L151,260L153,261L155,265L156,266L157,268L159,269L161,269L162,268L164,267L167,266L169,266L171,263L174,261L177,263L180,265L184,265L187,261L187,259L186,255L189,255L192,259L194,262L195,259L196,254L198,252L201,254L203,257L208,257L212,257L216,259L220,261L223,261L223,257L226,255L225,254L224,252L223,251L221,250L213,249L211,248L207,245L203,243L182,239L179,238L172,238L158,240L156,239L156,238L157,236L159,235L160,232L160,230L151,216L150,215L148,215L143,215L139,214L137,212L136,210L136,206L136,204L134,205L131,208L130,210L125,211L124,211L122,211L120,210L119,209L118,208L118,207L117,205L117,203L112,198L111,196L110,194L108,190L108,189L107,186L107,184L106,183L105,183L104,182L101,183L97,182L97,182L96,183L90,186L87,188L83,189L80,190L78,191L73,191L68,193L67,194L61,200L60,200L60,199L59,198L57,198L57,198L55,202L54,203L53,201L51,201L50,203L50,206L48,210L49,211L51,213L54,214L56,216L61,223L62,226L76,259L79,258L90,252L95,249L96,248L98,249L99,249L103,249L104,248L105,248L106,247L108,245L110,245L112,245L112,246L112,248L110,255L109,257L109,261L109,264L109,267L110,269L110,271L111,274L112,275L117,278L120,281L121,281Z M263,263L265,262L263,258L260,253L259,250L257,247L255,246L253,245L252,244L250,232L247,228L252,222L247,218L244,218L237,216L233,216L228,216L224,217L223,219L226,221L229,226L229,229L230,233L230,235L235,235L238,234L240,235L239,238L239,241L241,245L241,246L237,246L234,248L235,250L235,255L242,255L245,255L250,256L254,259L257,262L259,264L262,266Z " data-fips="LT13" data-hasc="LS.MF" data-name="Mafeteng" data-postal="MF" data-varname=""/></g></svg>