<?xml version="1.0" ?><!DOCTYPE svg  PUBLIC '-//W3C//DTD SVG 1.1//EN'  'http://www.w3.org/Graphics/SVG/1.1/DTD/svg11.dtd'><svg enable_background="new 0 0 500 401" height="401px" style="stroke-linejoin: round; stroke:#000; fill:#f6f3f0;" version="1.1" viewBox="0 0 500 401" width="500px" xmlns="http://www.w3.org/2000/svg" xmlns:xlink="http://www.w3.org/1999/xlink"><defs><style type="text/css"><![CDATA[path { fill-rule: evenodd; }
#context path { fill: #eee; stroke: #bbb; } ]]></style></defs><metadata><views><view h="401" padding="0" w="500"><proj id="laea" lat0="32.706" lon0="-5.758"/><bbox h="174.26" w="178.84" x="870.32" y="960.28"/><llbbox lat0="-90" lat1="90" lon0="-180" lon1="180"/></view></views></metadata><g id="admin1"><path d="M353,34L354,34L357,33L359,32L360,32L362,31L362,31L364,30L365,30L366,29L367,28L368,27L369,27L370,26L371,25L372,25L372,23L371,22L371,21L368,20L365,19L364,19L363,18L361,17L361,16L359,15L358,14L356,12L355,11L354,10L354,9L353,7L352,6L352,5L352,3L352,2L351,1L350,0L349,0L348,1L347,2L346,3L345,2L344,3L343,3L342,4L340,3L338,4L338,5L338,7L337,8L337,9L336,11L336,12L332,23L331,26L331,26L332,26L333,26L335,26L336,27L338,27L339,27L341,28L342,29L344,29L345,31L346,31L347,31L348,32L349,33L350,34L352,34Z " data-fips="MO16" data-hasc="MA.TO" data-name="Tanger - Ttouan" data-postal="TO" data-varname=""/><path d="M382,93L384,93L384,92L385,91L386,89L387,87L391,81L393,80L395,79L396,79L397,79L400,79L407,78L408,77L409,76L409,74L408,72L405,69L402,67L402,66L404,63L406,62L406,61L399,58L398,58L397,57L395,56L394,57L393,58L390,62L388,65L388,66L387,67L386,67L384,67L383,67L382,66L382,65L382,63L382,62L381,61L380,60L379,58L379,57L377,57L376,57L375,57L372,57L370,56L370,54L369,53L368,53L366,52L366,51L364,49L363,48L362,47L361,47L360,46L357,47L357,46L355,46L352,47L351,48L352,49L352,50L352,51L353,52L354,52L355,54L357,58L358,60L356,61L357,63L361,64L362,65L362,66L362,67L361,70L360,71L363,79L365,82L366,84L367,85L369,85L371,85L372,86L374,88L377,91L377,92L378,93L380,93Z " data-fips="MO14" data-hasc="MA.FB" data-name="Fs - Boulemane" data-postal="FB" data-varname=""/><path d="M388,66L388,65L390,62L393,58L394,57L395,56L397,57L398,58L399,58L402,55L402,53L404,52L405,51L405,49L404,48L404,46L403,44L402,43L402,42L404,40L405,39L405,37L406,36L407,36L407,35L407,34L402,32L400,32L399,33L398,34L394,37L392,36L392,35L392,34L392,33L392,31L392,30L389,29L388,29L387,28L387,22L387,21L387,20L386,20L385,19L385,18L384,19L382,19L380,20L377,21L375,22L374,22L371,21L371,22L372,23L372,25L371,25L370,26L369,27L368,27L367,28L366,29L365,30L364,30L362,31L362,31L360,32L359,32L357,33L356,35L356,37L355,39L354,39L352,40L352,41L348,44L349,45L352,47L355,46L357,46L357,47L360,46L361,47L362,47L363,48L364,49L366,51L366,52L368,53L369,53L370,54L370,56L372,57L375,57L376,57L377,57L379,57L379,58L380,60L381,61L382,62L382,63L382,65L382,66L383,67L384,67L386,67L387,67Z " data-fips="MO15" data-hasc="MA.TH" data-name="Taza - Al Hoceima - Taounate" data-postal="TH" data-varname=""/><path d="M338,51L340,50L341,48L343,49L343,50L345,51L347,51L349,50L349,48L349,45L348,44L352,41L352,40L354,39L355,39L356,37L356,35L354,34L353,34L352,34L350,34L349,33L348,32L347,31L346,31L345,31L344,29L342,29L341,28L339,27L338,27L336,27L335,26L333,26L332,26L331,26L331,26L330,29L325,40L324,41L324,43L321,46L320,49L321,50L322,50L324,51L325,50L327,50L329,50L330,50L332,50L333,50L335,51L336,51Z " data-fips="MO05" data-hasc="MA.GB" data-name="Gharb - Chrarda - Bni Hssen" data-postal="GB" data-varname=""/><path d="M311,99L312,97L313,93L314,92L316,91L318,91L320,91L321,91L323,90L329,91L331,91L335,89L335,88L336,87L334,85L333,85L333,84L333,82L332,80L328,78L327,77L325,77L323,77L322,77L319,76L317,75L317,73L318,71L317,69L318,68L318,67L316,66L313,65L313,63L312,62L312,61L311,60L310,59L309,59L308,60L307,61L305,62L305,62L304,63L304,64L304,66L304,67L303,69L301,70L300,72L299,72L298,71L299,70L297,70L295,69L294,68L292,68L291,68L290,68L289,69L289,69L290,71L290,73L289,74L288,75L287,76L286,77L287,80L288,82L288,83L288,84L289,86L290,88L291,90L292,91L293,91L295,93L298,97L299,97L302,97L304,98L305,99L308,101Z " data-fips="MO06" data-hasc="MA.CO" data-name="Chaouia - Ouardigha" data-postal="CO" data-varname=""/><path d="M300,72L301,70L303,69L304,67L304,66L304,64L304,63L305,62L305,62L305,62L303,62L302,63L301,64L299,65L298,65L297,65L296,66L295,67L293,67L292,68L294,68L295,69L297,70L299,70L298,71L299,72Z " data-fips="MO09" data-hasc="MA.GC" data-name="Grand Casablanca" data-postal="GC" data-varname=""/><path d="M325,77L327,75L327,73L327,72L328,70L328,69L329,69L331,70L331,71L332,72L334,73L335,73L337,74L338,73L340,73L341,72L341,71L341,70L341,68L342,67L341,65L342,64L343,62L343,60L342,59L342,58L342,56L341,54L341,53L340,52L338,51L336,51L335,51L333,50L332,50L330,50L329,50L327,50L325,50L324,51L322,50L321,50L320,49L319,50L317,53L315,56L311,58L310,59L311,60L312,61L312,62L313,63L313,65L316,66L318,67L318,68L317,69L318,71L317,73L317,75L319,76L322,77L323,77Z " data-fips="MO10" data-hasc="MA.RZ" data-name="Rabat - Sal - Zemmour - Zaer" data-postal="RZ" data-varname=""/><path d="M360,156L361,154L362,153L371,150L372,150L374,149L377,147L380,146L384,141L388,141L391,141L392,140L393,140L394,138L394,137L394,136L392,135L391,134L390,134L389,134L389,133L389,132L389,129L391,128L390,127L388,126L388,125L388,124L388,120L389,119L391,119L392,119L394,119L396,120L399,118L405,116L405,116L405,115L404,114L403,111L402,110L402,107L402,106L401,106L399,106L398,105L396,105L395,106L394,106L392,106L391,105L391,104L390,103L389,102L389,101L388,99L386,97L386,95L384,93L382,93L380,93L378,93L377,92L377,91L374,88L372,86L371,85L369,85L367,85L366,84L365,82L363,79L360,71L361,70L362,67L362,66L362,65L361,64L357,63L356,61L358,60L357,58L355,54L354,52L353,52L352,51L352,50L352,49L351,48L349,48L349,50L347,51L345,51L343,50L343,49L341,48L340,50L340,52L341,53L341,54L342,56L342,58L342,59L343,60L343,62L342,64L341,65L342,67L341,68L341,70L341,71L341,72L340,73L338,73L337,74L335,73L334,73L332,72L331,71L331,70L329,69L328,69L328,70L327,72L327,73L327,75L327,77L328,78L332,80L333,82L333,84L333,85L334,85L336,87L335,88L339,90L342,93L345,94L348,96L350,97L349,98L348,98L348,100L348,102L349,104L347,104L346,104L345,105L342,107L341,108L340,109L340,111L340,111L345,112L346,113L347,114L345,117L343,119L343,121L344,121L345,122L347,121L348,121L349,122L351,123L354,126L355,127L355,131L353,136L353,138L353,139L352,141L352,143L353,145L353,146L354,147L355,148L356,149L356,150L355,152L355,153L357,155L358,155L360,157Z " data-fips="MO13" data-hasc="MA.MT" data-name="Mekns - Tafilalet" data-postal="MT" data-varname=""/><path d="M317,128L318,127L319,125L325,123L326,123L328,122L335,118L340,115L340,111L340,111L340,109L341,108L342,107L345,105L346,104L347,104L349,104L348,102L348,100L348,98L349,98L350,97L348,96L345,94L342,93L339,90L335,88L335,89L331,91L329,91L323,90L321,91L320,91L318,91L316,91L314,92L313,93L312,97L311,99L310,102L310,103L310,105L310,106L310,109L311,111L312,114L311,116L310,117L307,117L306,118L305,119L306,120L309,123L308,126L309,127L310,128L311,128L313,128L315,128Z " data-fips="MO12" data-hasc="MA.TD" data-name="Tadla - Azilal" data-postal="TD" data-varname=""/><path d="M408,115L409,114L409,113L409,110L410,109L411,108L415,107L420,106L451,106L451,104L450,104L449,104L449,102L449,101L450,100L450,99L450,97L452,97L453,96L454,94L447,89L446,88L445,88L442,83L443,81L443,80L443,79L442,78L441,77L440,75L438,73L438,70L439,69L440,67L440,65L438,62L437,61L437,60L437,59L437,58L437,57L437,55L438,51L438,50L436,44L435,43L434,42L437,39L435,39L433,35L434,33L434,31L432,30L431,29L429,28L429,27L428,27L426,25L425,25L424,23L424,22L423,22L422,21L419,21L418,22L417,22L416,22L414,22L412,22L411,21L410,20L409,19L411,21L412,22L410,22L409,21L408,20L408,19L408,17L407,17L407,16L407,15L406,13L406,14L405,16L404,17L403,17L401,19L398,20L398,20L396,20L395,20L394,19L392,19L391,18L390,17L389,18L388,20L387,20L387,21L387,22L387,28L388,29L389,29L392,30L392,31L392,33L392,34L392,35L392,36L394,37L398,34L399,33L400,32L402,32L407,34L407,35L407,36L406,36L405,37L405,39L404,40L402,42L402,43L403,44L404,46L404,48L405,49L405,51L404,52L402,53L402,55L406,61L406,62L404,63L402,66L402,67L405,69L408,72L409,74L409,76L408,77L407,78L400,79L397,79L396,79L395,79L393,80L391,81L387,87L386,89L385,91L384,92L384,93L386,95L386,97L388,99L389,101L389,102L390,103L391,104L391,105L392,106L394,106L395,106L396,105L398,105L399,106L401,106L402,106L402,107L402,110L403,111L404,114L405,115L405,116L405,116Z " data-fips="MO08" data-hasc="MA.OR" data-name="Oriental" data-postal="OR" data-varname=""/><path d="M235,191L237,190L238,189L239,189L241,189L242,188L242,187L243,186L244,185L246,186L247,186L248,186L250,185L251,185L252,185L253,185L255,185L258,184L259,185L259,184L260,182L263,182L265,182L269,183L270,183L271,181L270,180L270,178L270,173L270,172L270,170L271,168L272,167L273,167L275,168L278,168L280,167L282,166L284,167L285,167L286,167L287,166L287,165L288,164L289,163L293,163L294,162L295,162L297,161L300,161L301,161L304,162L305,160L306,159L307,157L308,156L309,156L311,157L313,157L314,157L315,156L316,154L317,154L319,154L320,154L322,156L323,157L323,158L322,160L322,162L323,164L324,165L325,166L326,167L324,169L324,170L325,172L325,172L326,173L328,173L330,173L331,173L332,172L333,172L334,172L335,172L336,172L342,171L347,170L349,169L351,168L353,167L357,162L358,160L359,158L360,157L358,155L357,155L355,153L355,152L356,150L356,149L355,148L354,147L353,146L353,145L352,143L352,141L353,139L353,138L353,136L355,131L355,127L354,126L351,123L349,122L348,121L347,121L345,122L344,121L343,121L343,119L345,117L347,114L346,113L345,112L340,115L335,118L328,122L326,123L325,123L319,125L318,127L317,128L315,128L313,128L311,128L310,128L309,127L308,126L307,127L306,128L304,129L296,133L295,134L294,134L292,135L291,136L289,137L288,139L287,140L286,140L284,140L282,140L279,141L273,141L272,141L270,142L269,140L268,139L267,139L264,141L263,142L262,142L261,142L258,142L256,141L253,141L250,141L249,142L248,142L247,142L246,141L245,139L244,138L244,141L244,142L244,143L243,144L242,145L242,146L242,148L243,148L245,149L246,150L246,151L247,153L248,154L248,156L248,157L247,161L247,162L245,166L243,170L239,173L238,176L237,177L236,178L236,179L234,181L233,182L233,183L232,184L231,185L230,186L229,187L228,189L229,190L232,190L233,191L234,191Z " data-fips="MO04" data-hasc="MA.SM" data-name="Souss - Massa - Dra" data-postal="SM" data-varname=""/><path d="M249,142L250,141L253,141L256,141L258,142L261,142L262,142L263,142L264,141L267,139L268,139L269,140L270,142L272,141L273,141L279,141L282,140L284,140L286,140L287,140L288,139L289,137L291,136L292,135L294,134L295,134L296,133L304,129L306,128L307,127L308,126L309,123L306,120L305,119L306,118L307,117L310,117L311,116L312,114L311,111L310,109L310,106L310,105L310,103L310,102L308,101L305,99L304,98L302,97L299,97L298,97L295,93L293,91L292,91L291,90L290,88L288,88L287,91L287,92L287,94L285,95L284,96L283,97L282,98L281,98L280,99L279,100L278,101L278,102L278,103L279,104L282,107L282,109L280,110L278,116L276,117L275,117L272,117L269,116L268,116L265,115L264,114L264,113L263,112L260,112L256,112L254,112L253,111L252,112L252,113L251,114L248,117L248,119L247,120L246,122L246,122L245,124L244,125L244,127L245,128L244,129L243,134L244,135L244,138L245,139L246,141L247,142L248,142Z " data-fips="MO07" data-hasc="MA.MK" data-name="Marrakech - Tensift - Al Haouz" data-postal="MK" data-varname=""/><path d="M276,117L278,116L280,110L282,109L282,107L279,104L278,103L278,102L278,101L279,100L280,99L281,98L282,98L283,97L284,96L285,95L287,94L287,92L287,91L288,88L289,86L288,84L288,83L288,82L287,80L286,77L287,76L288,75L289,74L290,73L290,71L289,69L289,69L287,70L284,71L283,71L282,72L280,73L279,74L278,74L277,74L274,77L274,78L271,81L268,85L268,86L265,87L262,90L259,93L258,95L259,96L259,97L258,99L258,100L258,103L258,105L257,107L256,108L256,109L253,111L254,112L256,112L260,112L263,112L264,113L264,114L265,115L268,116L269,116L272,117L275,117Z " data-fips="MO11" data-hasc="MA.DA" data-name="Doukkala - Abda" data-postal="DA" data-varname=""/><path d="M139,318L148,316L150,316L152,316L154,316L157,317L158,316L160,315L163,313L165,312L167,311L169,310L171,308L172,307L173,304L174,300L176,296L177,292L178,289L179,286L180,283L181,281L181,279L181,278L182,276L172,275L171,269L170,264L170,263L170,262L170,261L170,260L171,258L172,256L177,252L178,250L181,244L185,235L188,232L191,229L191,229L194,227L198,226L197,225L195,220L194,218L192,214L186,216L185,217L178,218L174,219L170,219L166,219L163,220L162,221L161,223L160,225L159,225L158,226L157,227L156,228L156,229L156,230L155,233L153,236L151,239L150,240L149,244L148,246L148,248L147,249L145,252L144,254L140,256L136,259L132,260L130,260L129,261L128,262L127,263L126,263L124,264L123,264L121,266L121,268L121,269L120,272L119,274L119,275L117,277L115,280L115,281L115,283L113,285L112,287L111,290L110,294L110,297L110,298L110,299L109,300L109,301L109,303L109,304L108,305L107,307L107,308L105,309L104,310L105,310L107,311L110,313L111,313L112,315L112,316L114,316L115,316L120,315L122,315L126,315L128,315L131,316L135,317L137,318L138,318Z " data-fips="MO02" data-hasc="MA.LB" data-name="Layoune - Boujdour - Sakia El Hamra" data-postal="LB" data-varname=""/><path d="M183,275L185,275L187,274L190,274L191,273L191,272L192,270L193,268L195,266L195,265L197,263L198,262L200,260L201,259L202,258L202,256L201,254L200,252L203,251L206,250L209,250L212,249L214,249L216,249L219,249L221,250L223,251L226,253L229,254L230,254L232,253L234,253L236,253L238,254L240,254L242,254L243,253L246,251L248,249L250,248L252,248L253,248L255,248L258,248L261,248L263,248L266,248L267,247L267,246L266,244L266,242L266,241L266,239L267,238L266,236L266,234L266,232L269,232L270,203L271,202L274,201L275,200L276,199L278,197L279,197L281,195L282,194L285,193L286,192L288,190L291,188L292,187L294,186L296,184L297,184L299,185L300,184L302,183L304,180L309,178L312,178L315,178L319,180L321,180L323,178L323,177L324,176L324,174L324,173L325,172L324,170L324,169L326,167L325,166L324,165L323,164L322,162L322,160L323,158L323,157L322,156L320,154L319,154L317,154L316,154L315,156L314,157L313,157L311,157L309,156L308,156L307,157L306,159L305,160L304,162L301,161L300,161L297,161L295,162L294,162L293,163L289,163L288,164L287,165L287,166L286,167L285,167L284,167L282,166L280,167L278,168L275,168L273,167L272,167L271,168L270,170L270,172L270,173L270,178L270,180L271,181L270,183L269,183L265,182L263,182L260,182L259,184L259,185L258,184L255,185L253,185L252,185L251,185L250,185L248,186L247,186L246,186L244,185L243,186L242,187L242,188L241,189L239,189L238,189L237,190L235,191L234,191L233,191L232,190L229,190L228,189L226,191L223,193L222,194L220,195L218,196L211,199L210,200L209,201L208,202L207,203L205,205L204,206L203,207L202,208L201,210L200,211L192,214L194,218L195,220L197,225L198,226L194,227L191,229L191,229L191,229L188,232L185,235L181,244L178,250L177,252L172,256L171,258L170,260L170,261L170,262L170,263L170,264L171,269L172,275L182,276Z " data-fips="MO03" data-hasc="MA.GE" data-name="Guelmim - Es-Semara" data-postal="GE" data-varname=""/><path d="M103,399L105,398L107,395L108,393L109,391L109,389L109,388L110,387L112,384L114,383L114,382L116,381L118,379L119,378L120,376L121,374L121,372L122,368L122,364L123,360L124,358L125,354L127,347L128,345L129,342L130,340L131,338L133,336L135,335L138,334L140,333L142,332L145,332L147,331L148,330L149,328L151,324L152,322L154,319L156,317L157,317L154,316L152,316L150,316L148,316L139,318L138,318L137,318L135,317L131,316L128,315L126,315L122,315L120,315L115,316L114,316L112,316L112,315L111,313L110,313L107,311L105,310L104,310L104,311L103,312L101,312L100,313L98,314L96,317L95,318L92,320L91,321L90,321L90,323L88,324L87,325L86,326L83,326L81,328L80,329L79,331L77,333L77,335L78,334L79,333L79,331L80,330L82,330L83,329L83,328L83,329L83,331L82,332L81,334L81,335L79,336L78,337L77,338L77,340L76,342L75,343L72,347L71,349L70,350L71,350L72,351L71,352L71,353L70,354L69,355L68,355L67,356L67,357L67,358L66,360L66,362L65,364L63,366L61,370L60,371L57,371L56,371L55,372L54,373L53,374L52,375L49,381L48,382L48,384L48,385L48,386L47,388L47,389L47,390L46,394L45,396L45,395L47,395L53,394L57,394L67,395L71,395L74,395L79,396L82,397L86,398L91,398L94,399L99,399Z " data-fips="WI00" data-hasc="MA.OD" data-name="Oued el Dahab" data-postal="OD" data-varname="Ed Dakhla|Oued Eddahab"/></g></svg>