<?xml version="1.0" ?><!DOCTYPE svg  PUBLIC '-//W3C//DTD SVG 1.1//EN'  'http://www.w3.org/Graphics/SVG/1.1/DTD/svg11.dtd'><svg enable_background="new 0 0 500 401" height="401px" style="stroke-linejoin: round; stroke:#000; fill:#f6f3f0;" version="1.1" viewBox="0 0 500 401" width="500px" xmlns="http://www.w3.org/2000/svg" xmlns:xlink="http://www.w3.org/1999/xlink"><defs><style type="text/css"><![CDATA[path { fill-rule: evenodd; }
#context path { fill: #eee; stroke: #bbb; } ]]></style></defs><metadata><views><view h="401" padding="0" w="500"><proj id="laea" lat0="-19.374" lon0="46.706"/><bbox h="168.29" w="85.01" x="960.21" y="908.57"/><llbbox lat0="-90" lat1="90" lon0="-180" lon1="180"/></view></views></metadata><g id="admin1"><path d="M247,243L248,242L249,242L250,240L252,240L253,240L254,240L256,240L257,239L257,238L258,237L258,237L259,237L260,237L261,236L262,237L264,237L265,237L266,237L268,236L269,236L270,236L270,237L272,235L273,234L273,233L273,232L274,231L275,229L275,228L275,227L275,225L276,224L276,223L276,222L276,220L277,219L278,217L278,215L278,213L278,211L277,210L277,209L277,207L278,206L278,205L278,203L278,202L278,200L278,198L278,196L279,194L279,192L279,190L280,188L280,187L280,186L280,185L279,184L279,181L280,180L279,179L279,177L278,175L277,175L274,174L270,175L269,175L268,174L267,174L265,174L264,173L263,172L262,172L262,171L261,170L260,169L259,169L257,170L256,170L255,171L254,171L253,172L252,172L251,171L249,171L249,170L248,168L247,169L246,169L245,169L244,169L242,169L240,169L239,169L238,170L237,170L235,171L234,171L233,172L232,172L231,173L230,173L228,173L228,172L226,172L225,172L224,172L223,171L222,173L222,174L222,175L222,176L221,177L220,179L220,180L219,181L219,182L219,183L217,184L215,184L214,183L213,183L213,184L213,186L214,187L213,188L213,189L214,193L213,194L213,195L212,196L211,197L210,198L210,199L210,200L211,202L210,203L210,204L211,205L212,206L213,207L213,208L214,208L214,210L215,211L215,212L216,212L217,213L218,212L219,213L219,214L220,216L220,217L220,219L219,219L219,221L219,222L219,223L219,224L220,226L220,227L220,229L219,230L219,231L218,232L219,233L221,232L222,233L223,233L225,233L226,234L227,234L227,236L228,236L229,238L229,237L231,236L232,237L232,238L233,239L232,240L233,241L234,242L235,242L236,242L237,242L238,242L239,243L240,243L241,242L244,243L245,243L246,243Z " data-fips="MA05" data-hasc="MG.AV" data-name="Antananarivo" data-postal="AV" data-varname="Tananarive"/><path d="M343,118L344,116L346,113L346,112L349,107L349,106L349,105L350,103L350,102L350,100L351,99L351,97L350,96L349,95L349,93L347,91L345,86L344,84L344,83L343,82L344,81L344,80L343,79L343,75L342,73L343,72L343,70L343,68L342,66L342,65L342,64L342,62L342,60L341,53L340,51L340,50L340,49L339,48L339,47L339,46L338,43L338,42L338,41L337,41L337,39L336,37L336,36L336,34L336,32L335,31L334,30L334,29L334,28L333,27L332,26L332,25L331,24L329,24L329,25L328,25L328,24L328,22L327,21L326,21L325,19L326,19L326,16L326,17L326,16L325,14L324,15L324,13L325,13L323,12L322,12L322,11L321,10L321,8L320,9L320,10L319,10L318,9L317,9L317,8L316,8L316,7L317,6L318,7L319,6L320,7L319,6L319,4L319,4L319,3L318,1L317,0L316,0L315,2L315,3L316,4L315,5L314,4L312,4L314,5L315,5L315,6L314,7L314,8L313,9L312,10L311,10L310,11L309,11L309,12L308,13L308,16L306,16L305,14L304,13L302,13L301,14L303,15L303,16L304,17L305,18L306,18L306,19L306,20L306,21L306,22L307,24L308,25L308,26L307,28L307,29L306,30L306,31L305,33L304,36L304,37L304,38L303,40L303,41L303,42L302,43L301,43L300,44L299,43L297,44L296,43L295,42L294,42L294,43L295,45L295,46L294,46L293,46L292,47L292,48L290,47L291,48L290,50L290,51L290,53L289,54L287,54L286,53L285,52L285,51L285,49L284,48L283,48L283,46L282,46L281,47L280,47L281,46L279,46L279,48L278,47L277,49L277,50L278,51L277,52L277,53L277,55L278,57L279,57L281,59L279,60L280,61L281,62L282,61L282,60L283,59L283,58L284,58L285,57L286,57L287,56L287,57L286,58L286,59L285,60L286,60L287,60L288,62L290,63L291,63L292,63L293,63L294,62L296,62L297,64L298,64L301,66L302,66L303,65L303,66L304,67L306,66L307,64L309,65L310,65L311,66L312,66L313,68L313,69L314,69L315,70L316,71L317,73L318,74L319,74L320,75L319,76L319,77L320,78L321,81L321,82L322,84L323,84L325,87L327,89L327,90L329,92L332,91L334,91L335,91L336,92L338,95L337,96L336,97L337,98L337,100L337,101L338,103L337,105L337,106L337,107L337,108L338,110L338,111L338,112L339,113L340,117L340,117L342,118Z M291,42L290,41L290,40L290,39L290,38L290,37L289,36L288,37L288,38L287,38L286,39L286,40L286,41L287,42L288,42L289,42L290,43Z " data-fips="MA01" data-hasc="MG.AS" data-name="Antsiranana" data-postal="AS" data-varname="Digo-Suarez|Antseranana"/><path d="M251,360L252,360L252,359L253,357L252,356L252,355L252,354L253,354L255,354L254,353L255,352L257,352L258,353L261,355L263,356L263,356L263,355L264,353L265,353L265,352L267,348L268,341L267,340L267,339L268,340L271,330L272,326L273,323L274,320L274,317L275,316L276,308L277,306L277,304L284,288L288,276L289,275L289,272L289,271L290,269L290,268L291,266L291,265L291,264L292,263L294,252L296,248L296,248L293,247L292,247L290,247L290,246L289,245L288,244L287,244L286,244L285,243L284,242L283,242L283,243L283,244L282,245L281,247L281,248L280,248L279,247L278,247L277,248L275,248L274,248L273,248L272,248L272,247L271,247L270,246L270,242L271,240L271,239L270,237L270,236L269,236L268,236L266,237L265,237L264,237L262,237L261,236L260,237L259,237L258,237L258,237L257,238L257,239L256,240L254,240L253,240L252,240L250,240L249,242L248,242L247,243L246,243L245,243L244,243L241,242L240,243L239,243L238,242L237,242L236,242L235,242L234,242L233,241L232,240L233,239L232,238L232,237L231,236L229,237L229,238L228,236L227,236L227,234L226,234L225,233L223,233L222,233L221,232L219,233L218,232L218,232L218,233L218,234L219,235L219,237L218,237L218,239L219,240L219,241L219,243L220,246L220,247L220,249L219,250L219,251L220,254L220,256L219,257L218,258L218,259L218,261L219,262L218,265L218,266L217,267L218,270L217,272L216,272L215,273L214,274L213,274L213,275L212,277L212,278L212,279L213,282L212,283L212,284L211,284L210,284L209,285L208,289L207,289L207,290L206,290L204,291L204,292L204,293L205,294L205,296L205,297L206,298L205,299L205,300L205,301L204,302L204,303L204,304L203,305L203,306L202,307L201,308L200,310L200,311L199,312L199,314L199,316L199,317L198,318L198,320L198,321L198,322L199,323L199,324L200,324L201,325L202,324L204,325L204,325L205,327L206,327L207,326L208,325L208,323L209,319L214,316L219,314L221,313L223,314L224,314L227,315L228,316L230,317L231,318L232,322L233,323L233,324L234,325L235,327L237,328L237,329L237,331L237,332L237,333L237,334L237,335L236,336L236,337L237,339L238,340L238,342L237,342L237,344L236,345L236,346L236,347L238,348L238,349L239,350L241,350L243,351L244,352L244,353L244,354L245,355L247,355L248,356L249,358L248,359L249,360L250,360Z " data-fips="MA02" data-hasc="MG.FI" data-name="Fianarantsoa" data-postal="FI" data-varname=""/><path d="M193,215L194,214L195,213L196,213L197,214L198,213L199,213L199,212L198,211L197,210L198,208L198,207L197,206L197,205L196,204L196,203L197,201L196,200L195,199L195,197L194,196L194,195L193,192L193,191L192,190L191,189L191,188L192,187L193,186L194,185L195,184L196,183L197,182L199,183L200,184L201,184L202,183L203,184L205,184L208,185L209,184L210,185L211,186L213,184L213,183L214,183L215,184L217,184L219,183L219,182L219,181L220,180L220,179L221,177L222,176L222,175L222,174L222,173L223,171L224,172L225,172L226,172L228,172L228,173L230,173L231,173L232,172L233,172L234,171L235,171L237,170L238,170L239,169L240,169L242,169L244,169L245,169L246,169L247,169L248,168L249,170L249,171L251,171L252,172L253,172L254,171L255,171L256,170L257,170L259,169L260,169L261,170L262,171L262,172L263,172L264,173L265,174L267,174L268,174L269,175L270,175L274,174L278,172L279,171L279,170L279,169L279,168L280,167L281,167L281,166L281,164L282,163L282,162L283,162L283,160L282,160L283,159L283,157L284,156L284,155L285,154L285,153L285,152L285,151L285,149L284,149L283,148L282,147L282,146L282,145L281,144L281,143L280,142L280,142L279,141L278,140L279,138L279,137L278,136L278,135L278,133L278,132L278,129L278,128L278,127L279,127L280,126L281,126L282,126L283,126L284,126L285,125L288,125L289,126L290,127L291,127L291,128L292,128L293,129L294,130L296,130L297,131L297,132L298,133L298,135L298,136L298,137L298,138L298,139L299,140L300,140L301,140L303,138L304,138L306,138L307,137L307,136L308,135L309,134L309,133L310,132L311,131L312,130L312,129L314,125L314,124L313,124L311,123L308,121L309,121L309,119L310,118L311,117L311,115L311,113L310,112L310,111L310,109L311,105L311,104L311,104L312,102L311,102L309,102L309,101L309,100L309,99L310,99L311,99L312,99L313,98L314,98L315,98L316,97L317,96L318,96L319,96L319,95L319,94L320,94L321,93L321,92L321,91L322,90L321,89L322,88L323,89L324,89L325,87L323,84L322,84L321,82L321,81L320,78L319,77L319,76L320,75L319,74L318,74L317,73L316,71L315,70L314,69L313,69L313,68L312,66L311,66L310,65L309,65L307,64L306,66L304,67L303,66L303,65L302,66L301,66L298,64L297,64L296,62L294,62L293,63L292,63L291,63L290,63L288,62L287,60L286,60L285,60L286,59L286,58L287,57L287,56L286,57L285,57L284,58L283,58L283,59L282,60L282,61L281,62L281,62L282,63L282,64L281,66L281,67L280,68L280,69L280,68L280,67L280,66L280,65L281,64L280,63L278,63L279,64L279,66L279,66L278,67L276,67L275,66L274,67L274,68L273,69L272,70L272,71L272,73L273,75L272,76L274,77L274,77L274,77L273,79L271,80L271,81L270,82L270,83L268,87L267,88L267,89L266,90L265,91L263,91L264,88L264,86L267,84L266,83L266,81L265,80L264,79L261,83L260,85L261,85L262,84L262,86L261,86L260,87L258,88L258,90L257,91L255,92L254,93L253,94L254,96L255,96L255,98L257,98L257,100L257,100L258,101L258,102L257,102L255,102L254,103L253,103L251,104L251,104L251,103L253,100L254,99L253,98L252,97L251,96L251,95L250,95L248,95L246,97L243,99L241,100L242,101L241,101L240,102L239,103L238,104L237,104L235,106L233,107L233,108L232,110L233,110L234,111L233,112L233,113L234,113L236,115L237,116L237,117L236,116L235,115L235,116L234,117L233,116L233,117L232,116L231,114L230,113L230,112L230,111L230,110L229,109L227,110L226,110L225,111L224,112L226,112L225,113L225,114L223,114L222,113L222,111L220,112L218,113L216,112L215,112L214,112L213,114L214,115L214,116L213,118L213,120L212,119L212,117L211,117L206,117L206,119L207,119L207,120L205,121L204,121L204,120L204,119L203,118L203,116L202,117L200,118L199,119L198,119L197,121L196,122L194,123L193,124L192,124L191,125L190,124L189,124L183,124L181,124L180,125L180,126L179,127L179,128L179,130L181,133L180,134L179,135L179,136L180,138L180,139L179,140L178,141L177,142L177,144L176,145L175,146L174,147L174,149L172,151L172,152L171,153L169,157L168,158L168,159L166,162L166,164L166,166L168,168L168,169L169,170L169,172L168,175L168,177L170,183L170,190L172,192L174,195L175,199L176,201L176,202L176,203L175,206L175,208L175,209L176,211L177,211L178,211L180,211L181,211L182,211L183,212L184,214L185,214L187,214L188,214L189,214L191,215L192,215Z M280,81L280,79L279,78L278,79L278,80L278,79L277,79L276,78L275,76L274,77L274,76L275,76L275,76L276,77L277,77L279,77L280,78L281,78L281,79L281,80Z " data-fips="MA03" data-hasc="MG.MA" data-name="Mahajanga" data-postal="MA" data-varname="Majunga"/><path d="M332,148L333,147L335,144L335,142L337,139L335,140L335,142L333,145L332,146L331,148L331,149L331,150Z M274,248L275,248L277,248L278,247L279,247L280,248L281,248L281,247L282,245L283,244L283,243L283,242L284,242L285,243L286,244L287,244L288,244L289,245L290,246L290,247L292,247L293,247L296,248L296,248L297,245L298,241L301,236L300,234L301,235L302,233L302,231L303,226L306,217L309,208L310,207L312,202L314,196L316,193L316,191L317,190L318,184L319,182L319,181L319,180L319,179L320,175L321,171L322,169L322,167L320,160L319,158L320,156L321,153L323,149L325,145L326,145L328,144L330,144L331,143L330,143L329,142L328,141L328,139L329,138L330,138L332,135L332,133L332,131L331,131L331,130L331,129L332,125L330,124L329,123L328,122L327,120L328,119L328,117L329,116L328,114L328,112L327,112L327,111L327,109L327,108L326,105L328,103L329,102L331,102L333,102L334,103L334,105L334,106L335,107L336,108L335,109L336,111L336,112L337,112L337,114L338,115L340,117L339,113L338,112L338,111L338,110L337,108L337,107L337,106L337,105L338,103L337,101L337,100L337,98L336,97L337,96L338,95L336,92L335,91L334,91L332,91L329,92L327,90L327,89L324,89L323,89L322,88L321,89L322,90L321,91L321,92L321,93L320,94L319,94L319,95L319,96L318,96L317,96L316,97L315,98L314,98L313,98L312,99L311,99L310,99L309,99L309,100L309,101L309,102L311,102L312,102L311,104L311,104L311,105L310,109L310,111L310,112L311,113L311,115L311,117L310,118L309,119L309,121L308,121L311,123L313,124L314,124L314,125L312,129L312,130L311,131L310,132L309,133L309,134L308,135L307,136L307,137L306,138L304,138L303,138L301,140L300,140L299,140L298,139L298,138L298,137L298,136L298,135L298,133L297,132L297,131L296,130L294,130L293,129L292,128L291,128L291,127L290,127L289,126L288,125L285,125L284,126L283,126L282,126L281,126L280,126L279,127L278,127L278,128L278,129L278,132L278,133L278,135L278,136L279,137L279,138L278,140L279,141L280,142L280,142L281,143L281,144L282,145L282,146L282,147L283,148L284,149L285,149L285,151L285,152L285,153L285,154L284,155L284,156L283,157L283,159L282,160L283,160L283,162L282,162L282,163L281,164L281,166L281,167L280,167L279,168L279,169L279,170L279,171L278,172L277,175L278,175L279,177L279,179L280,180L279,181L279,184L280,185L280,186L280,187L280,188L279,190L279,192L279,194L278,196L278,198L278,200L278,202L278,203L278,205L278,206L277,207L277,209L277,210L278,211L278,213L278,215L278,217L277,219L276,220L276,222L276,223L276,224L275,225L275,227L275,228L275,229L274,231L273,232L273,233L273,234L272,235L271,239L271,240L270,242L270,246L271,247L272,247L272,248L273,248Z " data-fips="MA04" data-hasc="MG.TM" data-name="Toamasina" data-postal="TM" data-varname="Tamatave"/><path d="M204,399L211,398L213,398L215,396L216,396L219,393L223,391L226,389L231,387L235,386L238,386L241,386L242,387L244,386L245,386L246,385L247,385L248,384L249,383L250,383L252,382L253,381L254,380L254,379L254,378L255,379L255,376L257,374L257,373L257,372L260,366L260,362L260,360L261,360L263,356L261,355L258,353L257,352L255,352L254,353L255,354L253,354L252,354L252,355L252,356L253,357L252,359L252,360L251,360L250,360L249,360L248,359L249,358L248,356L247,355L245,355L244,354L244,353L244,352L243,351L241,350L239,350L238,349L238,348L236,347L236,346L236,345L237,344L237,342L238,342L238,340L237,339L236,337L236,336L237,335L237,334L237,333L237,332L237,331L237,329L237,328L235,327L234,325L233,324L233,323L232,322L231,318L230,317L228,316L227,315L224,314L223,314L221,313L219,314L214,316L209,319L208,323L208,325L207,326L206,327L205,327L204,325L204,325L202,324L201,325L200,324L199,324L199,323L198,322L198,321L198,320L198,318L199,317L199,316L199,314L199,312L200,311L200,310L201,308L202,307L203,306L203,305L204,304L204,303L204,302L205,301L205,300L205,299L206,298L205,297L205,296L205,294L204,293L204,292L204,291L206,290L207,290L207,289L208,289L209,285L210,284L211,284L212,284L212,283L213,282L212,279L212,278L212,277L213,275L213,274L214,274L215,273L216,272L217,272L218,270L217,267L218,266L218,265L219,262L218,261L218,259L218,258L219,257L220,256L220,254L219,251L219,250L220,249L220,247L220,246L219,243L219,241L219,240L218,239L218,237L219,237L219,235L218,234L218,233L218,232L218,232L219,231L219,230L220,229L220,227L220,226L219,224L219,223L219,222L219,221L219,219L220,219L220,217L220,216L219,214L219,213L218,212L217,213L216,212L215,212L215,211L214,210L214,208L213,208L213,207L212,206L211,205L210,204L210,203L211,202L210,200L210,199L210,198L211,197L212,196L213,195L213,194L214,193L213,189L213,188L214,187L213,186L211,186L210,185L209,184L208,185L205,184L203,184L202,183L201,184L200,184L199,183L197,182L196,183L195,184L194,185L193,186L192,187L191,188L191,189L192,190L193,191L193,192L194,195L194,196L195,197L195,199L196,200L197,201L196,203L196,204L197,205L197,206L198,207L198,208L197,210L198,211L199,212L199,213L198,213L197,214L196,213L195,213L194,214L193,215L192,215L191,215L189,214L188,214L187,214L185,214L184,214L183,212L182,211L181,211L180,211L178,211L177,211L176,211L178,213L179,214L179,215L181,217L181,218L182,218L182,220L182,222L181,223L180,224L180,225L180,226L180,227L179,229L180,230L181,231L182,232L182,233L182,235L182,236L181,237L181,238L179,240L178,240L176,245L176,246L176,247L174,248L174,249L173,250L172,252L172,253L172,254L170,257L169,258L167,262L166,267L165,270L165,272L164,272L163,273L162,273L161,273L160,273L158,273L157,274L156,275L155,277L155,285L154,285L152,288L152,289L152,290L151,293L151,291L151,292L150,293L150,294L150,296L150,298L150,299L151,300L151,301L149,301L150,303L150,304L150,306L151,307L151,310L151,311L151,312L152,313L153,315L153,318L153,319L154,320L154,321L155,322L156,322L157,324L159,325L159,326L160,327L160,329L160,332L161,333L162,334L163,335L164,336L164,337L164,338L164,340L164,341L162,342L161,343L161,346L162,347L162,348L162,349L162,350L162,353L162,358L163,363L164,365L164,366L166,367L167,368L168,369L169,371L170,372L170,375L172,378L172,379L172,382L175,383L176,383L177,384L178,386L179,386L181,386L182,387L182,388L181,388L180,387L181,388L182,389L186,390L188,390L191,391L192,391L194,392L196,393L197,394L198,395L201,396L202,397L203,399Z " data-fips="MA06" data-hasc="MG.TL" data-name="Toliary" data-postal="TL" data-varname="Toleary|Toliary|Tular"/></g></svg>