<?xml version="1.0" ?><!DOCTYPE svg  PUBLIC '-//W3C//DTD SVG 1.1//EN'  'http://www.w3.org/Graphics/SVG/1.1/DTD/svg11.dtd'><svg enable_background="new 0 0 500 401" height="401px" style="stroke-linejoin: round; stroke:#000; fill:#f6f3f0;" version="1.1" viewBox="0 0 500 401" width="500px" xmlns="http://www.w3.org/2000/svg" xmlns:xlink="http://www.w3.org/1999/xlink"><defs><style type="text/css"><![CDATA[path { fill-rule: evenodd; }
#context path { fill: #eee; stroke: #bbb; } ]]></style></defs><metadata><views><view h="401" padding="0" w="500"><proj id="laea" lat0="-14.422" lon0="37.923"/><bbox h="202.73" w="126.74" x="908.17" y="951.38"/><llbbox lat0="-90" lat1="90" lon0="-180" lon1="180"/></view></views></metadata><g id="admin1"><path d="M246,170L246,169L246,168L246,167L245,165L245,162L244,162L241,162L240,162L240,161L239,159L240,158L241,157L241,155L240,154L239,154L237,154L237,153L236,152L235,152L234,151L234,150L232,149L232,147L230,146L229,145L228,144L227,142L226,142L224,141L224,138L224,137L223,136L221,133L220,133L220,131L220,130L221,129L222,128L224,126L224,124L224,123L224,121L226,120L226,119L227,118L227,117L227,113L227,111L228,110L227,109L227,108L227,106L226,105L226,103L226,102L226,100L224,98L222,96L221,96L220,96L218,97L216,97L215,98L212,98L211,98L210,99L208,99L207,98L206,100L205,101L205,100L204,99L203,98L202,97L201,97L201,96L199,93L198,92L198,91L197,90L197,89L196,88L195,87L172,95L169,96L168,97L159,100L155,102L153,103L145,105L139,107L132,110L128,112L126,112L125,113L126,114L126,115L127,118L127,120L129,120L129,122L129,124L130,125L129,126L130,127L130,128L131,137L141,137L142,137L144,138L145,138L146,137L147,136L148,136L151,137L152,138L152,139L154,140L154,140L156,141L157,141L161,141L162,142L164,144L165,145L166,146L168,147L173,146L175,147L184,151L184,152L186,152L187,152L188,153L189,153L191,153L190,155L189,156L188,158L190,162L191,164L191,165L191,167L192,168L192,169L193,169L193,167L193,167L194,165L194,164L194,162L195,161L196,160L197,160L197,159L198,156L199,154L199,153L200,152L200,151L202,149L202,148L203,146L204,146L205,145L208,145L209,145L210,145L211,146L212,147L213,149L215,149L215,150L217,150L218,150L220,152L221,152L223,152L224,152L229,155L230,156L233,156L235,158L235,159L236,162L237,163L237,164L238,166L239,167L239,169L240,171L241,172L241,173L242,174L243,175L246,175Z " data-fips="MZ08" data-hasc="MZ.TE" data-name="Tete" data-postal="TE" data-varname=""/><path d="M197,270L198,269L200,268L201,269L201,269L203,268L204,268L206,266L207,266L211,266L213,266L214,266L215,266L215,265L216,264L217,264L218,261L218,260L219,259L220,259L219,257L217,256L215,255L214,249L211,248L205,242L205,240L205,239L205,238L204,237L204,236L203,234L206,232L207,231L208,231L209,231L210,232L211,232L212,231L213,230L214,229L215,229L216,228L215,227L214,227L213,226L213,224L213,223L213,222L214,221L214,215L216,206L215,205L214,204L214,203L213,203L212,202L211,202L210,201L209,200L209,199L210,198L211,197L212,196L213,195L212,194L212,194L212,192L211,190L212,189L213,189L214,188L214,187L216,187L216,189L217,189L218,190L219,189L221,189L221,187L222,184L222,183L222,182L221,181L219,179L219,177L218,174L219,171L219,170L219,168L220,167L220,166L220,164L222,161L223,160L224,159L226,159L227,157L227,156L229,155L224,152L223,152L221,152L220,152L218,150L217,150L215,150L215,149L213,149L212,147L211,146L210,145L209,145L208,145L205,145L204,146L203,146L202,148L202,149L200,151L200,152L199,153L199,154L198,156L197,159L197,160L196,160L195,161L194,162L194,164L194,165L193,167L193,167L193,169L192,169L192,169L190,172L191,173L192,174L193,175L192,177L192,179L191,180L191,181L191,183L191,184L191,185L192,188L192,189L191,190L192,191L193,191L193,192L193,193L192,194L192,195L192,196L190,196L190,197L190,199L191,200L191,202L191,203L190,203L188,203L186,205L186,206L186,207L186,208L187,209L189,209L189,210L190,211L189,213L189,214L189,215L189,216L188,218L188,220L189,220L189,221L189,223L189,224L189,225L190,225L192,224L192,225L193,226L194,227L194,228L194,229L194,231L194,233L192,233L192,235L191,235L191,237L191,238L190,239L188,243L186,246L185,246L183,246L182,247L182,248L182,249L183,255L182,256L182,257L179,261L180,262L182,265L182,265L183,265L185,266L186,266L187,267L190,268L191,269L193,269L194,269L194,271L195,271L196,271Z " data-fips="MZ10" data-hasc="MZ.MN" data-name="Manica" data-postal="MN" data-varname=""/><path d="M324,89L326,88L328,88L330,87L331,86L332,86L333,85L334,84L335,84L337,84L338,83L339,83L340,82L341,82L342,81L343,81L344,80L345,80L346,79L348,79L349,78L351,78L352,77L354,75L355,74L356,74L357,73L358,72L360,73L361,73L364,73L366,73L366,74L368,74L368,73L368,72L369,70L368,68L369,67L369,66L368,64L369,63L369,62L369,60L368,60L367,60L367,61L366,62L365,61L365,59L367,59L368,59L368,58L368,57L369,56L370,57L370,56L370,55L369,54L369,53L370,53L369,52L368,50L367,50L367,49L367,48L368,47L367,46L367,44L367,43L368,43L368,41L367,40L368,39L368,37L367,36L367,35L367,33L367,32L367,31L366,30L366,29L366,28L366,27L366,26L366,25L367,23L366,22L364,22L364,21L365,20L366,19L368,17L368,16L368,15L369,14L368,13L368,14L368,13L368,11L369,10L370,9L368,8L367,7L369,6L371,5L369,4L369,3L368,2L368,1L368,0L367,1L366,0L366,1L365,2L364,2L363,3L362,3L360,5L359,6L355,8L353,9L350,11L346,12L343,13L339,16L337,17L336,17L334,16L333,17L330,17L329,17L327,18L326,19L325,19L323,19L323,20L320,23L320,23L319,24L318,25L318,26L318,27L317,28L317,31L318,32L318,33L318,35L318,36L317,36L317,38L316,38L316,40L315,41L314,41L313,42L313,43L312,44L311,46L311,47L309,48L309,49L309,50L309,51L309,53L308,55L309,56L308,57L308,59L308,60L308,61L308,62L308,63L309,64L310,64L311,65L312,64L313,65L313,66L312,67L312,68L311,69L310,70L309,70L309,71L309,72L310,73L311,73L311,75L311,76L312,77L312,78L312,79L313,81L314,82L314,83L314,84L316,86L316,87L318,89L319,89L321,89Z " data-fips="MZ01" data-hasc="MZ.CD" data-name="Cabo Delgado" data-postal="CD" data-varname=""/><path d="M268,121L268,120L269,119L270,117L271,117L272,117L273,116L274,116L276,114L277,113L278,111L278,110L279,109L279,108L281,106L281,105L282,104L283,103L285,102L286,102L287,101L289,100L290,100L292,99L293,98L294,97L295,96L296,95L298,95L299,94L299,92L300,92L302,92L303,91L304,91L305,92L307,92L308,92L312,91L313,90L314,89L316,89L318,89L316,87L316,86L314,84L314,83L314,82L313,81L312,79L312,78L312,77L311,76L311,75L311,73L310,73L309,72L309,71L309,70L310,70L311,69L312,68L312,67L313,66L313,65L312,64L311,65L310,64L309,64L308,63L308,62L308,61L308,60L308,59L308,57L309,56L308,55L309,53L309,51L309,50L309,49L309,48L311,47L311,46L312,44L313,43L313,42L314,41L315,41L316,40L316,38L317,38L317,36L318,36L318,35L318,33L318,32L317,31L317,28L318,27L318,26L318,25L319,24L320,23L320,23L319,22L316,21L315,20L314,19L313,19L312,19L311,19L311,19L310,19L308,19L306,19L305,21L304,23L303,24L303,26L303,26L301,27L300,28L299,28L298,28L296,29L295,30L294,30L293,30L292,29L290,30L289,29L287,29L286,28L285,27L284,27L282,27L281,27L280,27L279,28L278,29L276,30L275,30L274,30L273,30L272,29L269,30L267,30L266,30L265,29L264,28L264,27L263,26L262,26L260,25L259,25L259,23L257,23L256,23L255,24L253,25L253,26L252,27L250,27L249,27L248,27L247,27L246,27L236,27L228,27L227,28L227,29L227,31L226,33L222,40L221,41L221,42L225,54L226,66L226,68L226,70L227,72L228,73L229,74L233,74L234,75L239,79L248,89L250,92L256,100L257,102L259,107L256,114L256,115L257,120L257,121L258,121L266,121L267,122L268,122Z M229,40L228,40L229,39L230,37L231,38L231,39L230,40Z M227,39L226,38L226,37L227,37L228,38Z " data-fips="MZ07" data-hasc="MZ.NS" data-name="Niassa" data-postal="NS" data-varname=""/><path d="M335,155L336,154L339,152L343,150L344,149L346,148L347,147L348,146L349,145L350,145L350,144L350,143L349,142L350,141L352,140L354,140L355,139L356,137L357,136L357,135L358,133L356,134L357,134L357,133L358,132L363,127L365,125L366,124L366,123L367,123L368,122L368,121L369,119L369,118L370,117L371,116L370,114L369,114L368,115L367,114L368,113L369,113L370,112L371,112L371,111L370,110L372,110L373,109L372,108L370,108L370,107L371,108L372,107L373,106L374,104L375,103L374,102L374,101L374,99L373,98L374,98L374,96L373,96L371,97L370,99L370,99L369,98L370,97L371,95L372,94L372,93L372,92L372,91L371,90L370,91L369,92L368,91L368,89L370,89L369,88L370,87L370,86L370,84L369,83L369,82L368,79L368,77L368,76L369,75L368,75L368,74L366,74L366,73L364,73L361,73L360,73L358,72L357,73L356,74L355,74L354,75L352,77L351,78L349,78L348,79L346,79L345,80L344,80L343,81L342,81L341,82L340,82L339,83L338,83L337,84L335,84L334,84L333,85L332,86L331,86L330,87L328,88L326,88L324,89L321,89L319,89L318,89L316,89L314,89L313,90L312,91L308,92L307,92L305,92L304,91L303,91L302,92L300,92L299,92L299,94L298,95L296,95L295,96L294,97L293,98L292,99L290,100L289,100L287,101L286,102L285,102L283,103L282,104L281,105L281,106L279,108L279,109L278,110L290,110L291,111L291,112L292,114L293,115L294,115L295,114L296,113L297,113L298,114L299,115L300,115L301,116L302,115L303,114L304,114L305,115L306,115L307,116L308,117L309,117L310,118L311,118L312,119L312,120L313,121L316,121L317,121L317,122L318,123L319,123L320,124L321,125L321,125L322,126L324,127L325,128L326,129L327,130L327,131L328,132L328,133L328,134L329,135L330,137L329,138L329,139L330,141L331,142L331,143L331,144L332,145L332,146L332,147L331,148L331,149L331,150L332,150L332,151L333,152L334,153L334,154L334,155Z " data-fips="MZ06" data-hasc="MZ.NM" data-name="Nampula" data-postal="NM" data-varname="Moambique|Mozambique"/><path d="M201,362L202,362L202,361L203,360L204,360L208,359L210,358L213,356L218,354L223,352L224,352L227,351L230,349L228,348L226,348L226,347L226,346L229,344L228,341L228,340L227,340L226,340L225,341L224,341L223,342L222,342L219,336L218,331L217,331L217,329L217,328L217,326L217,325L217,324L217,323L218,322L217,321L216,321L217,320L217,319L217,318L216,317L216,316L215,315L215,314L216,313L215,312L215,311L215,310L214,309L213,308L213,307L212,306L211,305L211,304L210,303L209,302L208,301L207,300L207,300L205,299L205,298L204,297L202,295L202,294L202,291L203,290L204,289L203,287L203,286L203,284L203,283L203,282L202,281L201,280L198,276L198,275L198,274L198,273L199,272L200,271L201,270L201,269L200,268L198,269L197,270L196,271L195,271L194,271L194,269L193,269L191,269L190,268L187,267L186,266L185,266L183,265L182,265L182,265L182,265L181,264L180,265L160,289L157,292L163,311L163,316L164,318L166,321L167,324L168,326L169,327L171,328L171,329L171,333L171,334L173,337L173,337L176,335L177,335L179,336L181,336L184,337L186,339L187,339L188,339L189,339L190,340L191,343L192,344L193,346L193,347L194,348L196,349L195,351L195,352L196,355L197,355L197,356L197,358L198,359L199,359L200,359L201,361L200,362L200,363Z " data-fips="MZ02" data-hasc="MZ.GA" data-name="Gaza" data-postal="GA" data-varname=""/><path d="M220,264L222,264L223,263L224,264L225,263L226,262L228,260L230,259L231,258L232,258L234,259L235,258L237,256L239,255L241,255L242,255L242,254L240,254L240,253L240,252L239,251L239,249L238,248L237,249L236,248L236,247L235,246L234,245L233,244L232,245L233,243L232,242L232,241L232,240L233,239L233,238L233,237L231,235L233,236L234,236L234,235L234,234L234,233L234,231L234,230L234,229L233,229L234,228L234,227L233,226L232,225L231,223L230,222L229,222L229,221L230,222L231,223L231,223L233,225L234,225L235,227L236,228L236,228L238,227L239,226L241,225L242,224L244,222L247,220L249,217L250,216L251,215L252,213L253,212L254,211L255,210L255,209L258,206L259,206L260,206L261,205L262,205L264,203L265,202L265,202L266,202L266,201L265,200L264,199L264,198L265,197L265,195L265,194L264,193L264,192L263,191L262,190L261,190L260,189L259,188L259,187L258,186L257,185L256,184L254,184L253,184L252,184L251,183L250,182L250,181L248,180L248,178L247,178L243,175L242,174L241,173L241,172L240,171L239,169L239,167L238,166L237,164L237,163L236,162L235,159L235,158L233,156L230,156L229,155L227,156L227,157L226,159L224,159L223,160L222,161L220,164L220,166L220,167L219,168L219,170L219,171L218,174L219,177L219,179L221,181L222,182L222,183L222,184L221,187L221,189L219,189L218,190L217,189L216,189L216,187L214,187L214,188L213,189L212,189L211,190L212,192L212,194L212,194L213,195L212,196L211,197L210,198L209,199L209,200L210,201L211,202L212,202L213,203L214,203L214,204L215,205L216,206L214,215L214,221L213,222L213,223L213,224L213,226L214,227L215,227L216,228L215,229L214,229L213,230L212,231L211,232L210,232L209,231L208,231L207,231L206,232L203,234L204,236L204,237L205,238L205,239L205,240L205,242L211,248L214,249L215,255L217,256L219,257L220,259L219,259L218,260L218,261L217,264Z " data-fips="MZ05" data-hasc="MZ.SO" data-name="Sofala" data-postal="SO" data-varname=""/><path d="M267,204L268,204L268,202L267,200L268,201L269,202L270,202L271,202L271,200L271,199L273,197L273,196L274,195L275,194L276,193L278,191L279,190L281,188L280,188L281,187L282,187L283,186L283,185L284,183L283,183L282,182L282,180L280,180L281,180L283,180L283,182L284,182L285,182L287,179L288,178L290,176L291,176L291,175L293,175L294,174L295,173L298,172L299,171L300,170L301,170L304,168L306,167L309,166L311,165L311,164L310,163L311,163L311,165L312,165L313,164L320,161L321,161L322,161L323,160L324,159L324,160L329,159L331,158L333,158L334,157L333,156L334,155L334,154L334,153L333,152L332,151L332,150L331,150L331,149L331,148L332,147L332,146L332,145L331,144L331,143L331,142L330,141L329,139L329,138L330,137L329,135L328,134L328,133L328,132L327,131L327,130L326,129L325,128L324,127L322,126L321,125L321,125L320,124L319,123L318,123L317,122L317,121L316,121L313,121L312,120L312,119L311,118L310,118L309,117L308,117L307,116L306,115L305,115L304,114L303,114L302,115L301,116L300,115L299,115L298,114L297,113L296,113L295,114L294,115L293,115L292,114L291,112L291,111L290,110L278,110L278,111L277,113L276,114L274,116L273,116L272,117L271,117L270,117L269,119L268,120L268,121L268,122L267,122L266,121L258,121L257,121L257,121L257,132L256,134L256,135L256,136L254,137L253,137L251,138L250,138L249,138L248,137L247,138L245,139L244,140L244,141L244,142L244,143L243,144L243,146L241,147L241,149L242,150L243,150L244,151L244,151L245,153L245,155L245,156L244,158L245,158L245,159L245,161L245,162L245,165L246,167L246,168L246,169L246,170L246,175L247,178L248,178L248,180L250,181L250,182L251,183L252,184L253,184L254,184L256,184L257,185L258,186L259,187L259,188L260,189L261,190L262,190L263,191L264,192L264,193L265,194L265,195L265,197L264,198L264,199L265,200L266,201L266,202L265,202L265,202L265,203L265,205Z " data-fips="MZ09" data-hasc="MZ.ZA" data-name="Zambezia" data-postal="ZA" data-varname=""/><path d="M230,349L234,348L237,347L244,343L245,341L245,340L248,338L251,332L252,332L252,331L252,329L253,325L253,324L252,324L251,325L249,325L250,326L249,327L248,326L249,325L249,323L249,322L248,321L249,321L250,322L250,321L250,319L250,316L251,312L252,311L251,309L251,308L252,307L253,304L254,302L253,303L252,302L251,297L251,294L252,289L252,287L252,284L252,285L252,287L251,283L251,282L250,283L250,284L250,285L249,285L249,287L249,288L249,289L249,290L249,291L248,290L247,289L247,288L248,282L247,280L247,279L247,277L246,276L246,275L246,272L246,271L245,269L243,267L243,265L242,262L243,260L241,264L241,262L242,261L241,260L241,259L241,258L242,258L241,256L242,256L242,255L241,255L239,255L237,256L235,258L234,259L232,258L231,258L230,259L228,260L226,262L225,263L224,264L223,263L222,264L220,264L217,264L216,264L215,265L215,266L214,266L213,266L211,266L207,266L206,266L204,268L203,268L201,269L201,269L201,270L200,271L199,272L198,273L198,274L198,275L198,276L201,280L202,281L203,282L203,283L203,284L203,286L203,287L204,289L203,290L202,291L202,294L202,295L204,297L205,298L205,299L207,300L207,300L208,301L209,302L210,303L211,304L211,305L212,306L213,307L213,308L214,309L215,310L215,311L215,312L216,313L215,314L215,315L216,316L216,317L217,318L217,319L217,320L216,321L217,321L218,322L217,323L217,324L217,325L217,326L217,328L217,329L217,331L218,331L219,336L222,342L223,342L224,341L225,341L226,340L227,340L228,340L228,341L229,344L226,346L226,347L226,348L228,348L230,349Z M251,271L250,269L250,272L250,274L250,275Z " data-fips="MZ03" data-hasc="MZ.IN" data-name="Inhambane" data-postal="IN" data-varname=""/><path d="M196,398L196,397L196,395L196,393L197,391L197,384L197,380L196,381L196,382L195,383L196,385L195,385L194,384L193,383L192,382L191,382L191,381L190,380L189,379L188,378L187,377L187,378L187,377L188,377L189,377L190,376L191,375L191,374L192,374L192,372L193,370L193,369L195,367L200,363L200,362L201,361L200,359L199,359L198,359L197,358L197,356L197,355L196,355L195,352L195,351L196,349L194,348L193,347L193,346L192,344L191,343L190,340L189,339L188,339L187,339L186,339L184,337L181,336L179,336L177,335L176,335L173,337L173,337L174,338L174,340L174,342L174,344L175,363L175,365L175,367L175,368L176,370L175,371L174,373L174,375L175,377L176,378L177,379L178,381L178,383L177,385L178,388L179,390L179,392L180,399L182,399L185,399Z M197,378L197,377L196,379L197,379Z " data-fips="MZ04" data-hasc="MZ.MP" data-name="Maputo" data-postal="MP" data-varname=""/></g></svg>