<?xml version="1.0" ?><!DOCTYPE svg  PUBLIC '-//W3C//DTD SVG 1.1//EN'  'http://www.w3.org/Graphics/SVG/1.1/DTD/svg11.dtd'><svg enable_background="new 0 0 500 401" height="401px" style="stroke-linejoin: round; stroke:#000; fill:#f6f3f0;" version="1.1" viewBox="0 0 500 401" width="500px" xmlns="http://www.w3.org/2000/svg" xmlns:xlink="http://www.w3.org/1999/xlink"><defs><style type="text/css"><![CDATA[path { fill-rule: evenodd; }
#context path { fill: #eee; stroke: #bbb; } ]]></style></defs><metadata><views><view h="401" padding="0" w="500"><proj id="laea" lat0="-13.4" lon0="33.808"/><bbox h="95.71" w="38.73" x="986.27" y="950.43"/><llbbox lat0="-90" lat1="90" lon0="-180" lon1="180"/></view></views></metadata><g id="admin1"><path d="M268,62L267,62L266,61L266,60L266,58L266,57L266,56L265,54L265,53L266,47L266,46L265,45L265,42L263,38L263,36L263,35L263,34L263,32L261,30L261,29L256,23L254,21L253,20L253,19L252,17L251,17L246,12L244,11L243,10L241,8L240,7L239,6L237,5L235,6L234,7L233,9L234,12L234,14L233,15L233,16L231,17L231,16L229,15L228,14L227,13L225,13L224,11L223,10L221,11L220,12L219,12L219,12L220,14L220,15L220,17L220,18L221,19L221,21L220,21L219,22L218,23L217,24L216,25L215,26L214,27L211,28L210,29L210,30L211,31L212,32L213,33L214,33L215,33L217,35L218,35L219,35L221,36L222,37L234,55L241,61L242,62L244,61L246,62Z " data-fips="MI08" data-hasc="MW.CT" data-name="Chitipa" data-postal="CT" data-varname=""/><path d="M220,61L221,61L234,55L222,37L221,36L219,35L218,35L217,35L215,33L214,33L213,33L212,32L211,31L210,30L210,29L211,28L214,27L215,26L216,25L217,24L218,23L219,22L220,21L221,21L221,19L220,18L220,17L220,15L220,14L219,12L219,12L217,12L216,11L214,11L213,11L211,12L210,12L208,12L206,11L205,10L205,9L204,8L200,5L199,6L198,6L196,6L195,6L194,7L193,6L191,5L188,3L185,1L184,0L183,0L182,1L181,1L182,4L183,5L184,5L185,6L185,8L184,11L185,13L186,13L187,12L188,13L188,14L190,14L190,13L190,12L190,11L192,11L194,11L195,12L196,13L196,15L196,16L197,18L198,19L200,21L201,22L203,23L204,25L204,27L204,28L202,30L201,32L201,34L201,35L202,36L206,38L207,39L208,40L209,40L210,41L211,42L212,43L213,44L213,45L212,48L213,49L214,53L216,55L217,57L218,58L219,58L219,60L220,61Z " data-fips="MI04" data-hasc="MW.CT" data-name="Chitipa" data-postal="CT" data-varname=""/><path d="M204,217L205,215L206,214L205,213L206,212L207,211L208,209L209,208L209,207L210,205L209,204L209,203L211,203L211,204L213,203L213,203L214,202L215,201L216,200L216,199L217,198L219,198L220,197L221,196L222,196L223,195L224,194L225,193L226,192L227,191L228,190L229,189L232,187L233,186L234,185L236,183L236,182L234,180L234,179L233,178L231,178L229,178L228,178L227,177L227,175L228,171L227,171L226,172L224,170L223,170L222,171L221,171L220,171L219,171L218,170L217,168L215,168L214,167L215,166L215,165L215,164L215,163L214,162L214,161L214,158L214,157L215,155L215,155L212,154L210,156L209,156L209,158L206,159L206,160L205,161L204,162L202,162L200,162L199,162L198,163L197,164L196,165L195,166L194,166L192,165L191,165L190,166L189,165L188,165L187,166L186,169L184,172L183,174L184,179L185,179L186,181L187,182L186,183L185,186L184,193L185,195L186,196L186,197L184,198L183,199L182,201L181,204L182,204L194,204L194,205L194,206L194,208L195,209L195,211L196,212L198,214L199,215L201,216L203,218Z " data-fips="MI09" data-hasc="MW.KS" data-name="Kasungu" data-postal="KS" data-varname=""/><path d="M227,171L228,171L229,170L231,167L232,166L233,166L235,165L237,164L239,164L240,163L241,161L241,160L240,160L239,160L238,160L237,159L234,158L232,158L232,157L231,156L231,154L229,152L228,151L227,149L225,149L224,148L224,146L225,145L228,142L225,142L224,141L223,141L222,140L222,139L223,137L224,137L225,137L226,136L227,134L227,133L227,132L226,130L226,128L227,127L227,125L227,124L226,123L226,122L225,121L225,120L225,119L225,118L225,115L226,114L227,112L228,112L230,111L231,110L233,111L234,111L235,109L236,107L238,107L239,107L240,107L241,107L241,105L241,103L240,102L238,97L237,96L237,95L239,91L239,87L238,86L238,85L237,84L233,82L233,84L232,85L227,84L225,84L223,85L224,86L223,87L222,88L221,87L220,86L217,86L216,86L215,85L214,84L212,85L212,86L211,87L210,88L208,89L208,88L208,86L208,85L207,84L206,84L204,83L201,82L200,82L201,83L201,85L202,86L203,88L204,89L205,92L205,93L204,95L201,100L201,102L200,102L200,104L199,105L197,105L198,110L197,111L197,113L198,113L200,113L201,115L202,123L201,125L201,128L202,129L201,131L201,134L199,138L198,140L199,143L201,145L202,146L202,150L203,152L205,152L209,151L211,152L212,152L212,153L212,154L215,155L215,155L214,157L214,158L214,161L214,162L215,163L215,164L215,165L215,166L214,167L215,168L217,168L218,170L219,171L220,171L221,171L222,171L223,170L224,170L226,172Z " data-fips="MI15" data-hasc="MW.MZ" data-name="Mzimba" data-postal="MZ" data-varname=""/><path d="M254,145L254,143L255,140L265,126L267,121L267,119L267,117L267,115L267,113L269,113L285,112L285,110L284,108L284,107L283,106L282,105L281,104L281,103L280,102L279,101L276,100L274,101L273,99L274,98L274,97L273,96L273,95L272,94L272,93L270,92L270,91L267,88L267,87L266,85L266,84L266,83L267,81L267,81L248,81L246,83L239,87L239,91L237,95L237,96L238,97L240,102L241,103L241,105L241,107L240,107L239,107L238,107L236,107L235,109L234,111L233,111L231,110L230,111L228,112L227,112L226,114L225,115L225,118L225,119L225,120L225,121L226,122L226,123L227,124L227,125L227,127L226,128L226,130L227,132L227,133L227,134L226,136L225,137L224,137L223,137L222,139L222,140L223,141L224,141L225,142L228,142L230,142L232,143L234,144L238,145L254,145Z M272,141L273,140L274,139L274,138L275,137L273,135L272,135L270,135L269,137L269,139L269,140L270,141L271,141Z M268,137L268,136L268,134L266,133L264,134L264,135L265,137L266,138L267,138Z " data-fips="MI17" data-hasc="MW.NA" data-name="Nkhata Bay" data-postal="NA" data-varname="Chinteche"/><path d="M246,210L248,209L253,207L265,207L265,207L263,203L263,199L264,194L261,170L254,145L238,145L234,144L232,143L230,142L228,142L225,145L224,146L224,148L225,149L227,149L228,151L229,152L231,154L231,156L232,157L232,158L234,158L237,159L238,160L239,160L240,160L241,160L241,161L240,163L239,164L237,164L235,165L233,166L232,166L231,167L229,170L228,171L227,175L227,177L228,178L229,178L231,178L233,178L234,179L234,180L236,182L236,183L234,185L233,186L232,187L232,190L233,191L234,193L234,194L235,195L236,194L237,192L239,192L239,194L240,194L241,195L241,195L242,199L241,201L242,204L245,210Z " data-fips="MI18" data-hasc="MW.NK" data-name="Nkhotakota" data-postal="NK" data-varname="Kota Kota"/><path d="M210,88L211,87L212,86L212,85L214,84L215,85L216,86L217,86L220,86L221,87L222,88L223,87L224,86L223,85L225,84L227,84L232,85L233,84L233,82L237,84L238,85L238,86L239,87L246,83L248,81L267,81L267,81L268,81L269,78L269,76L270,73L269,71L270,71L270,69L269,68L270,67L270,66L269,65L268,63L268,62L246,62L244,61L242,62L241,61L234,55L221,61L220,61L220,61L220,61L219,63L218,63L216,65L215,66L212,68L212,70L211,71L209,72L208,73L207,73L205,73L204,73L202,74L201,74L200,76L199,76L198,76L197,78L198,78L200,79L200,80L200,82L201,82L204,83L206,84L207,84L208,85L208,86L208,88L208,89Z " data-fips="MI21" data-hasc="MW.RU" data-name="Rumphi" data-postal="RU" data-varname="Rumpi"/><path d="M296,302L297,301L298,301L300,302L301,302L302,300L303,300L304,300L308,302L309,302L310,301L311,301L312,300L325,300L325,299L325,298L325,297L331,284L330,284L329,283L328,272L327,271L325,268L323,266L322,267L321,267L319,267L318,268L316,268L314,269L313,270L313,272L313,274L312,275L311,275L308,277L307,277L304,276L303,275L302,274L301,273L300,273L299,274L299,275L300,277L301,278L301,280L301,283L301,287L301,288L299,289L298,291L297,292L297,294L296,295L296,297L295,299L295,300L294,301L295,302Z " data-fips="MI28" data-hasc="MW.MA" data-name="Machinga" data-postal="MA" data-varname="Kasupe|Kasupi|Liwonde"/><path d="M220,267L220,266L220,264L221,263L222,263L225,265L226,265L228,264L231,263L232,262L233,262L239,263L240,261L242,260L245,260L250,258L252,258L253,257L255,259L256,258L257,258L258,258L259,258L260,259L261,260L263,260L266,258L269,256L273,253L273,251L273,242L264,241L262,242L261,243L260,243L259,242L258,240L256,237L256,236L252,233L250,230L249,231L248,232L247,233L246,234L246,235L244,238L243,239L243,240L242,241L241,242L241,243L239,245L238,246L237,247L234,248L234,249L233,251L233,252L231,253L230,253L228,253L227,254L226,255L222,257L221,258L221,260L220,263L219,265L218,265L217,266L218,268L219,269Z " data-fips="MI06" data-hasc="MW.DE" data-name="Dedza" data-postal="DE" data-varname=""/><path d="M241,228L242,228L244,227L245,227L247,227L249,226L249,226L250,226L251,225L251,224L251,223L250,222L250,221L249,221L248,222L246,222L245,221L243,219L242,218L243,217L243,216L242,212L240,213L239,213L235,212L233,212L231,211L230,211L227,212L224,212L223,211L223,208L222,205L221,204L221,203L219,201L217,200L217,198L216,199L216,200L215,201L214,202L213,203L213,203L211,204L211,203L209,203L209,204L210,205L209,207L209,208L208,209L207,211L208,211L209,212L208,215L209,220L210,221L212,222L215,222L224,221L224,222L224,223L225,225L226,225L228,225L231,225L232,225L233,225L235,226L236,226L237,227L237,228L239,228Z " data-fips="MI07" data-hasc="MW.DO" data-name="Dowa" data-postal="DO" data-varname=""/><path d="M218,265L219,265L220,263L221,260L221,258L222,257L226,255L227,254L228,253L230,253L231,253L233,252L233,251L234,249L234,248L237,247L238,246L239,245L241,243L241,242L242,241L243,240L243,239L244,238L246,235L246,234L247,233L248,232L249,231L250,230L250,230L248,230L247,231L245,231L246,230L247,229L249,228L249,226L247,227L245,227L244,227L242,228L241,228L239,228L237,228L237,227L236,226L235,226L233,225L232,225L231,225L228,225L226,225L225,225L224,223L224,222L224,221L215,222L212,222L210,221L209,220L208,215L209,212L208,211L207,211L206,212L205,213L206,214L205,215L204,217L203,218L202,219L202,220L201,222L200,223L200,224L200,225L199,226L199,228L199,229L199,230L200,231L201,232L202,234L203,236L203,238L203,239L203,241L203,242L203,244L204,246L204,249L205,251L206,252L208,257L210,259L212,260L213,262L214,263L215,263L216,264L217,266Z " data-fips="MI11" data-hasc="MW.LI" data-name="Lilongwe" data-postal="LI" data-varname=""/><path d="M311,275L312,275L313,274L313,272L313,270L314,269L316,268L318,268L319,267L321,267L322,267L323,266L312,251L309,245L290,222L281,214L279,213L279,213L273,242L273,251L273,253L274,258L274,262L276,266L282,275L284,275L285,277L286,277L299,275L299,274L300,273L301,273L302,274L303,275L304,276L307,277L308,277Z " data-fips="MI12" data-hasc="MW.MG" data-name="Mangochi" data-postal="MG" data-varname="Mangoche|Fort Johnston"/><path d="M204,246L203,244L203,242L203,241L203,239L203,238L203,236L202,234L201,232L200,231L199,230L199,229L199,228L199,226L200,225L200,224L200,223L201,222L202,220L202,219L203,218L201,216L199,215L198,214L196,212L195,211L195,209L194,208L194,206L194,205L194,204L182,204L181,204L181,207L180,209L178,210L177,210L177,212L176,214L174,215L172,216L171,215L169,216L169,217L170,219L171,219L173,219L175,219L177,222L176,223L174,225L174,226L176,227L178,227L180,228L182,231L183,233L183,234L185,234L185,235L185,239L187,240L189,237L190,236L192,235L193,234L194,234L195,237L196,238L199,240L200,241L201,242L201,246L202,248L203,249L204,249Z " data-fips="MI13" data-hasc="MW.MC" data-name="Mchinji" data-postal="MC" data-varname="Fort Manning"/><path d="M282,288L282,287L284,283L285,279L285,278L285,277L284,275L282,275L276,266L274,262L274,258L273,253L269,256L266,258L263,260L261,260L260,259L259,258L258,258L257,258L256,258L255,259L256,260L257,263L258,265L261,267L262,269L262,271L261,274L262,275L263,277L263,279L263,280L263,285L264,287L265,288L265,290L264,291L263,293L264,294L263,295L264,299L264,299L267,300L270,301L271,301L272,301L275,302L276,302L277,303L277,305L277,306Z " data-fips="MI16" data-hasc="MW.NU" data-name="Ntcheu" data-postal="NU" data-varname="Ncheu"/><path d="M242,212L242,204L241,201L242,199L241,195L241,195L240,194L239,194L239,192L237,192L236,194L235,195L234,194L234,193L233,191L232,190L232,187L229,189L228,190L227,191L226,192L225,193L224,194L223,195L222,196L221,196L220,197L219,198L217,198L217,200L219,201L221,203L221,204L222,205L223,208L223,211L224,212L227,212L230,211L231,211L233,212L235,212L239,213L240,213Z " data-fips="MI20" data-hasc="MW.NI" data-name="Ntchisi" data-postal="NI" data-varname="Nchisi"/><path d="M262,242L264,241L273,242L279,213L279,213L279,213L278,212L276,212L269,212L268,211L268,210L266,208L265,207L253,207L248,209L246,210L245,210L243,216L243,217L242,218L243,219L245,221L246,222L248,222L249,221L250,221L250,222L251,223L251,224L251,225L250,226L249,226L249,226L249,228L247,229L246,230L245,231L247,231L248,230L250,230L250,230L252,233L256,236L256,237L258,240L259,242L260,243L261,243Z " data-fips="MI22" data-hasc="MW.SA" data-name="Salima" data-postal="SA" data-varname=""/><path d="M291,305L292,303L294,301L295,300L295,299L296,297L296,295L297,294L297,292L298,291L299,289L301,288L301,287L301,283L301,280L301,278L300,277L286,277L285,277L285,278L285,279L284,283L282,287L282,288L288,306Z " data-fips="MI26" data-hasc="MW.BA" data-name="Balaka" data-postal="BA" data-varname=""/><path d="M280,376L281,374L282,374L283,373L284,373L284,371L284,370L287,367L288,366L288,365L290,358L290,355L289,354L283,347L280,342L280,342L279,340L280,339L278,339L278,338L279,336L279,335L279,334L279,333L279,332L278,331L273,331L263,331L261,330L253,327L252,327L251,328L250,328L248,330L248,331L247,333L248,335L249,337L251,338L255,342L256,344L256,345L255,348L255,350L257,355L258,356L260,356L262,356L263,357L264,361L266,362L267,363L268,364L269,366L273,368L274,371L277,373L277,375L278,376L280,377Z " data-fips="MI02" data-hasc="MW.CK" data-name="Chikwawa" data-postal="CK" data-varname=""/><path d="M302,339L302,338L301,329L301,327L300,324L299,323L298,321L298,320L297,319L296,318L295,317L295,316L294,317L291,320L291,322L291,323L291,324L291,329L292,331L293,333L295,334L296,335L298,336L298,338L299,339L300,340L301,341Z " data-fips="MI03" data-hasc="MW.CR" data-name="Chiradzulu" data-postal="CR" data-varname=""/><path d="M297,361L298,359L299,359L298,357L298,355L299,353L300,351L300,351L299,351L300,350L300,348L301,347L301,346L301,341L300,340L299,339L298,338L298,336L296,335L295,334L293,333L287,337L285,337L285,338L283,340L281,342L280,342L283,347L289,354L290,355L290,358L293,361L294,361L295,360L297,361Z " data-fips="MI05" data-hasc="MW.TH" data-name="Thyolo" data-postal="TH" data-varname="Cholo"/><path d="M300,398L300,397L300,396L300,393L300,392L300,391L299,389L299,388L299,387L299,385L301,384L300,383L299,381L299,380L299,376L298,375L297,374L296,373L295,373L294,373L293,372L293,371L292,368L296,366L297,364L297,361L295,360L294,361L293,361L290,358L288,365L288,366L287,367L284,370L284,371L284,373L283,373L282,374L281,374L280,376L280,377L280,377L281,379L282,379L283,380L284,381L285,382L287,383L288,383L290,383L291,383L291,385L292,387L291,389L291,390L290,391L288,391L287,392L287,394L289,396L288,398L289,398L292,399L297,399Z " data-fips="MI19" data-hasc="MW.NS" data-name="Nsanje" data-postal="NS" data-varname="Port Herald"/><path d="M306,324L308,324L309,323L310,321L312,320L313,319L314,318L317,316L318,315L318,314L320,314L321,313L327,313L327,313L327,311L325,300L312,300L311,301L310,301L309,302L308,302L304,300L303,300L302,300L301,302L300,302L298,301L297,301L296,302L295,302L294,301L292,303L291,305L288,306L286,307L287,309L288,310L290,313L291,314L292,314L291,315L291,317L294,317L295,316L295,317L296,318L297,319L298,320L298,321L299,323L300,324L304,324Z " data-fips="MI23" data-hasc="MW.ZO" data-name="Zomba" data-postal="ZO" data-varname=""/><path d="M281,342L283,340L285,338L285,337L287,337L293,333L292,331L291,329L291,324L291,323L291,322L291,320L291,317L291,315L292,314L291,314L290,313L288,310L287,309L286,307L285,308L283,308L281,309L280,311L279,316L277,317L275,319L274,320L274,324L273,325L273,326L273,327L273,331L278,331L279,332L279,333L279,334L279,335L279,336L278,338L278,339L280,339L279,340L280,342L280,342Z " data-fips="MI24" data-hasc="MW.BL" data-name="Blantyre" data-postal="BL" data-varname=""/><path d="M273,327L273,326L273,325L274,324L274,320L275,319L277,317L279,316L280,311L281,309L283,308L285,308L286,307L288,306L277,306L277,305L277,303L276,302L275,302L272,301L271,301L270,301L267,300L264,299L264,299L264,303L264,304L262,306L261,307L260,308L260,310L259,311L258,312L257,313L256,314L256,315L257,319L257,321L256,322L253,327L261,330L263,331L273,331Z " data-fips="MI25" data-hasc="MW.MW" data-name="Mwanza" data-postal="MW" data-varname=""/><path d="M300,351L304,348L305,347L307,347L308,347L309,349L310,349L311,349L312,348L313,348L318,346L319,347L320,346L324,344L324,343L325,341L325,339L325,337L325,337L324,337L323,338L322,338L321,337L320,337L318,335L317,336L315,337L313,333L313,332L312,332L311,330L310,325L310,324L311,323L312,322L312,320L310,321L309,323L308,324L306,324L304,324L301,327L301,329L302,338L302,339L301,341L301,346L301,347L300,348L300,350L299,351L300,351L300,351Z " data-fips="MI29" data-hasc="MW.MJ" data-name="Mulanje" data-postal="MJ" data-varname="Mlange|Mlanje"/><path d="M323,338L324,337L325,337L325,337L325,335L327,313L321,313L320,314L318,314L318,315L317,316L314,318L313,319L312,320L312,322L311,323L310,324L310,325L311,330L312,332L313,332L313,333L315,337L317,336L318,335L320,337L321,337L322,338Z " data-fips="MI30" data-hasc="MW.PH" data-name="Phalombe" data-postal="PH" data-varname=""/></g></svg>