<?xml version="1.0" ?><!DOCTYPE svg  PUBLIC '-//W3C//DTD SVG 1.1//EN'  'http://www.w3.org/Graphics/SVG/1.1/DTD/svg11.dtd'><svg enable_background="new 0 0 500 401" height="401px" style="stroke-linejoin: round; stroke:#000; fill:#f6f3f0;" version="1.1" viewBox="0 0 500 401" width="500px" xmlns="http://www.w3.org/2000/svg" xmlns:xlink="http://www.w3.org/1999/xlink"><defs><style type="text/css"><![CDATA[path { fill-rule: evenodd; }
#context path { fill: #eee; stroke: #bbb; } ]]></style></defs><metadata><views><view h="401" padding="0" w="500"><proj id="laea" lat0="-22.133" lon0="17.218"/><bbox h="147.66" w="159.2" x="935.26" y="936.67"/><llbbox lat0="-90" lat1="90" lon0="-180" lon1="180"/></view></views></metadata><g id="admin1"><path d="M265,399L267,399L268,398L269,397L270,396L269,394L269,393L270,392L271,391L272,392L275,391L276,390L278,387L278,385L279,385L283,384L284,384L286,383L288,382L289,382L290,382L291,381L293,288L291,288L290,288L287,290L286,290L284,289L281,288L279,287L278,287L276,287L275,287L273,288L270,284L269,284L266,286L253,285L250,283L248,282L241,282L226,286L222,286L216,285L215,285L213,286L213,292L208,290L205,290L202,291L202,290L201,289L200,288L198,288L197,287L192,286L190,286L189,285L187,288L186,289L185,287L185,286L184,286L182,286L182,287L183,296L181,295L180,295L179,295L172,287L171,286L169,287L169,286L166,270L166,267L138,267L138,268L138,269L138,271L138,274L137,277L137,278L138,280L138,282L139,284L139,285L139,287L138,289L138,292L138,293L139,294L141,295L140,297L141,298L142,300L142,301L143,303L143,304L142,306L142,307L142,309L143,312L145,313L146,314L147,315L147,316L148,318L149,321L148,323L147,321L146,322L146,323L146,324L147,326L147,327L148,329L149,330L149,331L150,331L151,333L151,334L151,335L152,337L152,339L152,341L152,342L153,345L154,346L155,348L156,349L157,350L160,355L160,357L160,359L163,362L164,363L165,364L165,365L166,366L167,368L169,370L171,372L171,373L175,375L177,378L180,380L183,384L184,385L186,387L187,387L188,386L189,386L191,385L192,384L193,383L195,382L195,383L196,382L197,381L197,379L197,378L197,377L197,376L198,376L198,375L198,374L199,373L199,372L200,372L200,369L202,369L203,369L204,369L205,368L206,368L207,369L208,370L209,371L209,372L209,374L211,375L213,374L214,375L214,376L214,377L215,378L215,379L215,381L214,381L213,382L213,383L214,384L214,385L216,386L216,388L215,389L215,390L216,390L218,390L219,390L221,390L221,391L222,392L223,392L224,392L225,392L230,393L231,393L232,394L234,395L235,396L238,397L239,396L242,396L244,397L245,396L247,396L248,396L249,396L255,395L261,396L262,398L264,398L264,399Z " data-fips="WA03" data-hasc="NA.KA" data-name="Karas" data-postal="KA" data-varname=""/><path d="M182,287L182,286L184,286L185,286L185,287L186,289L187,288L189,285L190,286L192,286L197,287L198,288L200,288L201,289L202,290L202,291L205,290L208,290L213,292L213,286L215,285L216,285L222,286L226,286L241,282L248,282L250,283L253,285L266,286L269,284L270,284L273,288L275,287L276,287L278,287L279,287L281,288L284,289L286,290L287,290L290,288L291,288L293,288L294,259L294,230L275,229L273,229L272,222L271,222L269,224L265,224L265,223L263,223L257,225L255,225L254,224L252,223L251,223L250,223L246,216L244,217L241,219L240,220L239,220L236,221L235,221L234,221L233,221L231,220L229,219L223,220L222,220L217,220L217,217L216,217L215,214L217,213L217,211L217,210L216,210L213,210L211,211L209,210L209,207L208,207L207,206L206,206L203,206L202,208L200,209L198,209L196,209L194,209L193,209L192,208L191,209L188,216L190,218L190,220L187,223L184,223L184,221L183,221L181,224L181,226L184,227L185,227L188,228L188,229L187,230L185,229L183,229L182,231L183,234L181,234L179,233L179,232L180,231L180,230L180,229L178,230L177,230L173,231L171,232L170,233L167,233L165,232L165,230L165,227L156,223L152,223L151,223L148,222L145,222L144,222L143,221L126,219L127,220L127,221L127,227L127,228L127,230L127,231L126,232L126,233L126,235L126,236L126,237L126,238L126,239L127,241L128,243L129,246L130,248L131,250L130,252L130,253L132,254L132,255L134,256L134,257L136,261L136,262L137,265L137,266L138,267L166,267L166,270L169,286L169,287L171,286L172,287L179,295L180,295L181,295L183,296Z " data-fips="WA02" data-hasc="NA.HA" data-name="Hardap" data-postal="HA" data-varname=""/><path d="M182,231L183,229L185,229L187,230L188,229L188,228L185,227L184,227L181,226L181,224L183,221L184,221L184,223L187,223L190,220L190,218L188,216L191,209L192,208L193,209L194,209L196,209L198,209L200,209L202,208L203,206L206,206L207,206L208,207L209,207L209,210L211,211L213,210L216,210L217,210L217,211L217,213L215,214L216,217L217,217L217,220L222,220L223,220L229,219L231,220L233,221L234,221L235,221L236,221L239,220L240,220L241,219L244,217L246,216L249,212L249,211L245,208L245,207L245,206L248,205L247,204L247,203L245,203L245,202L244,201L244,200L246,199L246,198L243,198L243,194L242,191L242,187L240,183L239,183L238,182L239,181L238,180L237,178L235,178L234,177L233,175L233,174L234,171L235,170L236,170L236,169L236,168L237,166L238,165L237,164L236,163L236,162L237,161L238,159L238,157L234,158L233,158L231,159L229,160L228,161L227,161L225,161L224,161L222,161L222,162L221,163L220,164L219,165L218,166L217,166L218,168L217,170L215,169L215,171L213,171L212,170L211,171L210,173L207,175L207,174L206,174L203,175L202,175L201,176L200,176L198,177L197,176L196,175L195,174L194,175L194,177L195,177L195,178L193,178L192,178L190,178L189,179L189,179L186,179L185,180L183,181L183,182L183,184L182,184L180,184L179,186L178,187L177,187L174,187L172,189L171,190L174,191L174,195L171,195L170,196L169,197L169,200L169,201L169,203L169,205L170,208L167,208L168,213L166,214L165,217L168,219L168,224L168,225L167,227L165,227L165,230L165,232L167,233L170,233L171,232L173,231L177,230L178,230L180,229L180,230L180,231L179,232L179,233L181,234L183,234Z " data-fips="WA04" data-hasc="NA.KH" data-name="Khomas" data-postal="KH" data-varname=""/><path d="M100,140L102,139L103,138L104,138L105,137L106,137L107,136L109,135L111,135L112,134L113,134L114,133L115,133L116,133L119,134L121,133L123,133L124,134L126,134L127,134L128,134L130,134L131,134L133,134L134,133L135,133L136,132L137,131L138,131L139,130L140,129L141,129L143,127L144,126L145,125L150,121L151,118L153,117L155,117L156,118L157,118L158,119L162,119L165,120L167,118L170,116L171,115L173,114L176,114L177,113L179,113L180,113L181,113L182,111L181,110L182,107L187,104L189,104L188,102L189,100L192,100L194,99L194,97L194,85L193,83L191,82L189,81L188,81L182,80L177,79L176,79L173,78L170,78L167,76L166,76L165,76L162,76L158,75L157,75L156,75L150,75L150,73L147,74L145,74L143,74L136,75L127,75L125,76L125,77L126,78L127,78L127,80L127,81L123,81L123,80L124,79L124,77L123,76L122,76L121,75L120,71L120,67L121,64L120,62L119,60L118,56L118,54L118,49L117,37L116,33L113,27L113,24L113,23L113,21L112,20L112,19L114,17L114,15L114,14L114,14L113,15L111,15L110,15L108,15L107,15L106,15L104,12L98,9L95,7L92,5L92,4L91,3L91,2L90,1L89,1L87,0L85,1L83,1L82,1L82,0L80,0L80,0L79,0L76,1L74,2L73,2L72,3L71,4L70,4L70,5L68,6L67,7L66,7L65,8L64,8L62,10L61,10L60,10L58,9L57,9L56,10L54,10L51,10L50,9L49,8L49,8L48,8L46,7L44,8L43,8L42,9L40,10L39,11L38,11L37,12L36,12L35,19L35,21L35,23L35,25L36,26L36,30L36,32L37,36L38,39L39,40L39,40L43,44L44,47L45,48L45,49L45,51L46,52L48,54L49,55L54,59L60,66L60,69L62,70L63,71L63,72L65,76L66,77L67,79L67,81L68,82L70,85L70,87L71,88L74,92L75,94L75,95L78,100L79,103L80,104L82,106L83,107L83,108L85,111L85,113L85,115L86,118L89,123L90,126L90,129L91,130L91,131L93,132L93,133L95,135L97,140L98,141Z " data-fips="WA05" data-hasc="NA.KU" data-name="Kunene" data-postal="KU" data-varname=""/><path d="M167,227L168,225L168,224L168,219L165,217L166,214L168,213L167,208L170,208L169,205L169,203L169,201L169,200L169,197L170,196L171,195L174,195L174,191L171,190L172,189L174,187L177,187L178,187L179,186L180,184L182,184L183,184L183,182L183,181L185,180L186,179L185,177L185,176L184,173L186,172L187,171L185,169L186,169L187,168L187,167L187,165L187,164L186,163L186,162L184,158L185,154L186,151L186,150L187,148L189,146L188,142L188,141L188,139L184,139L184,138L183,136L182,136L180,134L180,133L178,135L176,134L175,133L173,132L167,128L164,126L163,124L161,124L159,123L158,119L157,118L156,118L155,117L153,117L151,118L150,121L145,125L144,126L143,127L141,129L140,129L139,130L138,131L137,131L136,132L135,133L134,133L133,134L131,134L130,134L128,134L127,134L126,134L124,134L123,133L121,133L119,134L116,133L115,133L114,133L113,134L112,134L111,135L109,135L107,136L106,137L105,137L104,138L103,138L102,139L100,140L98,141L99,142L102,146L105,150L106,152L106,154L109,159L109,160L109,161L112,164L115,166L119,172L120,173L120,174L122,177L124,179L124,181L125,183L126,185L126,186L127,190L127,196L127,197L126,199L125,201L125,199L125,198L124,197L124,199L124,200L124,202L124,203L124,204L125,205L125,206L126,207L126,211L126,213L125,215L125,216L126,219L143,221L144,222L145,222L148,222L151,223L152,223L156,223L165,227Z " data-fips="WA01" data-hasc="NA.ER" data-name="Erongo" data-postal="ER" data-varname=""/><path d="M189,179L189,179L190,178L192,178L193,178L195,178L195,177L194,177L194,175L195,174L196,175L197,176L198,177L200,176L201,176L202,175L203,175L206,174L207,174L207,175L210,173L211,171L212,170L213,171L215,171L215,169L217,170L218,168L217,166L218,166L219,165L220,164L221,163L222,162L222,161L224,161L225,161L227,161L228,161L229,160L231,159L233,158L234,158L238,157L238,157L241,155L242,153L242,151L241,150L242,149L242,147L243,146L242,144L241,144L241,142L242,141L246,142L245,141L245,140L246,139L247,138L247,137L245,137L246,136L247,134L249,134L250,135L251,132L252,127L258,118L259,117L260,116L275,110L276,110L277,109L279,109L282,109L307,112L309,113L310,113L311,113L312,113L313,113L317,114L318,114L319,114L322,114L324,114L326,113L327,113L328,74L273,73L274,61L241,59L240,62L240,65L238,66L237,67L236,68L235,68L235,71L235,73L235,75L234,76L233,76L233,77L231,78L231,79L231,81L232,82L232,83L230,84L229,83L228,83L227,84L224,83L223,82L222,82L221,82L220,81L219,80L217,79L216,79L216,78L216,76L217,76L216,74L215,75L214,76L213,75L213,74L213,73L212,73L210,72L209,72L207,72L206,74L203,78L194,82L194,85L194,97L194,99L192,100L189,100L188,102L189,104L187,104L182,107L181,110L182,111L181,113L180,113L179,113L177,113L176,114L173,114L171,115L170,116L167,118L165,120L162,119L159,123L161,124L163,124L164,126L167,128L173,132L175,133L176,134L178,135L180,133L180,134L182,136L183,136L184,138L184,139L188,139L188,141L188,142L189,146L187,148L186,150L186,151L185,154L184,158L186,162L186,163L187,164L187,165L187,167L187,168L186,169L185,169L187,171L186,172L184,173L185,176L185,177L186,179Z " data-fips="WA01" data-hasc="NA.OD" data-name="Otjozondjupa" data-postal="OD" data-varname=""/><path d="M127,80L127,78L126,78L125,77L125,76L127,75L136,75L143,74L145,74L147,74L150,73L150,73L151,72L152,72L153,72L154,71L155,70L157,70L158,70L159,69L157,68L157,67L156,66L157,65L158,63L156,60L156,58L157,56L158,54L156,42L156,40L155,39L154,38L153,37L149,35L160,23L160,20L159,19L158,17L157,15L157,13L125,14L114,14L114,15L114,17L112,19L112,20L113,21L113,23L113,24L113,27L116,33L117,37L118,49L118,54L118,56L119,60L120,62L121,64L120,67L120,71L121,75L122,76L123,76L124,77L124,79L123,80L123,81L127,81Z " data-fips="WA05" data-hasc="NA.OS" data-name="Omusati" data-postal="OS" data-varname=""/><path d="M169,76L169,73L170,72L170,71L169,71L168,69L168,68L167,66L166,64L166,62L167,61L167,60L168,59L170,57L171,56L172,56L172,54L171,53L170,51L170,49L170,47L170,45L169,44L170,43L172,40L172,38L172,35L171,34L171,23L171,23L165,24L161,25L160,23L160,23L149,35L153,37L154,38L155,39L156,40L156,42L158,54L157,56L156,58L156,60L158,63L157,65L156,66L157,67L157,68L159,69L158,70L157,70L155,70L154,71L153,72L152,72L151,72L150,73L150,73L150,75L156,75L157,75L158,75L162,76L165,76L166,76L167,76L170,78Z " data-fips="WA11" data-hasc="NA.ON" data-name="Oshana" data-postal="ON" data-varname=""/><path d="M195,26L235,26L235,13L157,13L157,15L158,17L159,19L160,20L160,23L161,25L165,24L171,23L171,23L181,30L184,31Z " data-fips="WA08" data-hasc="NA.OW" data-name="Ohangwena" data-postal="OW" data-varname=""/><path d="M295,167L326,168L326,167L327,135L327,113L326,113L324,114L322,114L319,114L318,114L317,114L313,113L312,113L311,113L310,113L309,113L307,112L282,109L279,109L277,109L276,110L275,110L260,116L259,117L258,118L252,127L251,132L250,135L249,134L247,134L246,136L245,137L247,137L247,138L246,139L245,140L245,141L246,142L242,141L241,142L241,144L242,144L243,146L242,147L242,149L241,150L242,151L242,153L241,155L238,157L238,157L238,159L237,161L236,162L236,163L237,164L238,165L237,166L236,168L236,169L236,170L235,170L234,171L233,174L233,175L234,177L235,178L237,178L238,180L239,181L238,182L239,183L240,183L242,187L242,191L243,194L243,198L246,198L246,199L244,200L244,201L245,202L245,203L247,203L247,204L248,205L245,206L245,207L245,208L249,211L249,212L250,223L251,223L252,223L254,224L255,225L257,225L263,223L265,223L265,224L269,224L271,222L272,222L273,229L275,229L294,230Z " data-fips="WA09" data-hasc="NA.OH" data-name="Omaheke" data-postal="OH" data-varname=""/><path d="M328,68L329,45L329,45L329,34L326,35L325,35L324,36L323,35L322,34L321,35L319,34L318,34L317,34L316,34L315,33L313,32L312,31L310,31L309,29L307,29L305,30L304,30L302,30L301,30L299,31L298,30L297,29L291,30L290,30L289,30L288,29L287,29L285,29L280,29L274,27L272,27L271,27L270,28L267,28L263,27L260,25L258,25L258,24L256,22L255,21L254,20L252,18L251,16L250,15L250,14L249,13L235,13L235,26L235,58L241,59L274,61L273,73L328,74Z " data-fips="WA07" data-hasc="NA.OK" data-name="Kavango" data-postal="OK" data-varname=""/><path d="M232,83L232,82L231,81L231,79L231,78L233,77L233,76L234,76L235,75L235,73L235,71L235,68L236,68L237,67L238,66L240,65L240,62L241,59L235,58L235,26L195,26L184,31L181,30L171,23L171,34L172,35L172,38L172,40L170,43L169,44L170,45L170,47L170,49L170,51L171,53L172,54L172,56L171,56L170,57L168,59L167,60L167,61L166,62L166,64L167,66L168,68L168,69L169,71L170,71L170,72L169,73L169,76L170,78L173,78L176,79L177,79L182,80L188,81L189,81L191,82L193,83L194,82L203,78L206,74L207,72L209,72L210,72L212,73L213,73L213,74L213,75L214,76L215,75L216,74L217,76L216,76L216,78L216,79L217,79L219,80L220,81L221,82L222,82L223,82L224,83L227,84L228,83L229,83L230,84Z " data-fips="WA12" data-hasc="NA.OT" data-name="Oshikoto" data-postal="OT" data-varname=""/><path d="M413,53L414,52L415,52L418,48L419,48L420,47L422,46L422,45L423,44L424,43L426,43L427,42L428,42L429,41L431,39L432,39L433,39L435,39L436,37L437,37L438,37L439,37L439,39L440,40L441,41L443,40L444,39L446,37L447,37L449,35L450,34L451,34L452,34L456,33L456,33L457,34L458,33L460,34L461,33L462,32L463,32L465,32L463,32L462,31L462,30L461,29L460,29L460,28L458,27L458,25L457,26L456,25L455,25L454,24L452,23L450,23L447,22L446,22L445,23L443,23L442,22L441,22L440,22L439,21L437,21L435,21L434,21L433,21L408,25L406,25L377,30L342,36L341,35L340,34L339,34L337,33L335,33L334,33L333,33L329,34L329,45L329,45L345,45L393,37L401,37L403,38L404,38L404,40L404,41L405,42L406,44L407,43L408,44L409,45L409,46L409,47L411,49L410,50L411,52L411,53L412,53Z " data-fips="WA06" data-hasc="NA.CA" data-name="Caprivi" data-postal="CA" data-varname=""/></g></svg>