<?xml version="1.0" ?><!DOCTYPE svg  PUBLIC '-//W3C//DTD SVG 1.1//EN'  'http://www.w3.org/Graphics/SVG/1.1/DTD/svg11.dtd'><svg enable_background="new 0 0 500 401" height="401px" style="stroke-linejoin: round; stroke:#000; fill:#f6f3f0;" version="1.1" viewBox="0 0 500 401" width="500px" xmlns="http://www.w3.org/2000/svg" xmlns:xlink="http://www.w3.org/1999/xlink"><defs><style type="text/css"><![CDATA[path { fill-rule: evenodd; }
#context path { fill: #eee; stroke: #bbb; } ]]></style></defs><metadata><views><view h="401" padding="0" w="500"><proj id="laea" lat0="13.832" lon0="30.05"/><bbox h="166.29" w="199.55" x="900.92" y="896.43"/><llbbox lat0="-90" lat1="90" lon0="-180" lon1="180"/></view></views></metadata><g id="admin1"><path d="M366,377L366,375L367,371L371,360L372,359L372,358L372,357L373,356L373,354L373,353L371,346L371,345L371,344L374,341L375,338L376,337L377,336L380,335L384,338L385,339L386,340L386,339L388,339L388,338L389,337L391,335L391,333L390,332L392,325L391,324L391,323L394,315L394,313L393,312L393,310L393,309L394,307L394,306L396,305L396,304L395,302L392,300L389,297L385,293L378,283L377,282L376,281L375,280L374,280L373,280L369,282L348,295L347,295L343,294L342,295L341,295L340,296L340,298L338,304L338,308L338,312L337,313L336,315L339,337L338,339L339,340L346,342L348,345L361,356L363,360L363,361L362,363L363,364L363,366L361,370L360,372L360,375L360,376L361,377Z " data-fips="SU42" data-hasc="SD.BN" data-name="Blue Nile" data-postal="BN" data-varname="An Nil al Azraq|Nil Bleu|Nilo Azul"/><path d="M444,150L444,150L445,150L446,150L447,150L449,151L450,151L452,151L454,150L456,150L458,148L458,147L459,145L459,144L459,142L463,140L464,140L465,140L466,137L468,137L469,138L470,137L471,136L474,134L475,135L475,136L476,135L476,134L478,134L479,135L480,134L480,133L480,132L482,131L483,130L484,125L485,124L489,119L488,118L487,117L487,118L486,118L485,117L484,116L483,115L482,115L481,115L479,114L478,114L479,114L480,113L480,112L479,113L479,114L477,114L475,111L475,110L475,109L473,109L473,108L471,106L471,106L470,105L466,103L465,101L465,102L465,100L463,100L463,100L461,100L460,100L459,101L458,100L457,98L455,96L455,95L455,93L454,91L453,91L453,88L452,87L452,84L450,78L449,76L449,75L449,72L450,71L449,69L449,68L447,63L447,62L447,61L448,60L447,57L446,56L447,54L446,52L446,50L447,49L448,48L448,46L446,42L446,41L445,37L445,35L444,33L443,31L444,31L444,29L443,29L443,27L445,27L445,28L445,28L447,29L447,30L448,31L447,31L446,30L446,31L447,32L448,32L449,32L449,31L446,27L444,25L440,19L438,15L437,14L437,13L436,9L436,6L435,5L436,4L334,6L334,6L345,15L338,22L339,23L339,24L339,26L340,27L339,29L338,31L338,33L338,34L338,36L338,37L338,38L340,39L342,42L343,43L345,43L346,45L347,46L347,47L348,48L349,49L349,50L349,52L349,53L349,55L349,56L349,57L348,58L348,61L348,64L348,65L350,70L350,75L350,77L350,78L349,81L363,113L368,114L373,117L379,120L383,123L384,125L388,133L392,137L393,138L407,147L418,153L418,153Z " data-fips="EG02" data-hasc="SD.RS" data-name="Red Sea" data-postal="RS" data-varname="Ba?r al A?mar|Mar Rojo|Mar Rosso|Mar Vermelho|Mer Rouge|Rda havet|Rdehavet|Rotes Meer"/><path d="M43,322L58,317L78,304L80,303L82,303L83,302L82,299L80,294L78,292L78,291L74,289L74,287L74,285L76,283L92,268L86,268L85,267L84,266L85,265L85,264L89,260L91,258L91,257L91,255L89,255L88,255L87,255L86,255L81,257L76,259L75,259L73,259L71,258L67,257L66,256L65,255L63,254L61,254L60,253L60,251L61,249L63,245L72,235L79,225L79,224L79,223L80,222L79,220L79,218L78,216L77,214L76,213L75,211L74,210L74,208L74,207L74,202L74,201L76,190L74,191L71,190L68,189L64,189L63,190L59,191L57,191L52,190L51,190L49,191L48,193L45,195L45,197L46,198L46,199L47,201L46,205L44,207L43,208L42,209L39,212L39,213L38,214L37,215L37,216L37,218L37,220L31,221L30,222L29,223L28,224L29,225L30,226L30,230L29,231L30,232L31,233L32,233L33,234L33,236L32,237L30,237L29,239L23,241L22,242L20,245L19,246L20,247L20,248L20,249L21,250L22,252L23,253L23,255L23,256L25,258L24,260L23,261L20,264L16,265L15,266L14,267L12,272L11,274L11,276L11,277L13,279L14,280L15,280L16,280L18,280L19,280L20,279L21,278L22,277L25,280L29,281L27,285L27,286L27,287L29,294L29,295L29,298L31,298L33,297L33,298L32,300L31,309L31,310L31,312L32,313L33,314L34,315L36,315L37,316L37,317L40,317L41,318L42,320L42,322Z " data-fips="SU47" data-hasc="SD.WD" data-name="West Darfur" data-postal="WD" data-varname="Darfur al Gharbiyah|Gharb Darfur"/><path d="M77,398L79,396L83,394L86,394L88,393L88,389L91,385L92,378L93,377L95,375L95,374L95,366L95,365L96,365L97,364L99,363L100,361L101,360L102,359L102,358L102,357L102,356L104,352L105,351L106,351L108,351L109,351L110,351L111,351L112,351L113,351L114,351L116,350L118,350L119,349L120,349L122,349L123,349L124,349L126,349L127,351L128,356L129,357L131,358L132,361L133,361L135,362L146,375L148,377L150,377L162,373L169,373L170,373L175,373L178,373L182,374L185,374L179,360L179,357L169,332L167,324L167,323L166,319L166,312L165,307L161,307L150,307L149,306L148,306L146,304L144,303L143,302L142,301L141,301L139,301L138,301L137,301L135,299L132,295L130,292L128,291L127,290L127,289L128,288L131,287L132,286L131,285L125,279L123,279L119,276L113,271L112,270L111,270L110,270L105,270L100,270L92,268L76,283L74,285L74,287L74,289L78,291L78,292L80,294L82,299L83,302L82,303L80,303L78,304L58,317L43,322L42,322L42,324L42,325L41,327L41,328L39,333L43,339L46,341L52,346L61,362L61,364L62,369L62,371L61,372L60,374L60,375L60,376L61,377L60,379L61,381L60,382L59,383L58,384L57,384L56,385L55,389L55,390L57,390L59,390L59,391L58,393L56,395L56,396L57,398L58,398L59,397L60,397L61,398L62,398L63,398L64,398L65,398L67,398L69,398L70,398L71,398L74,399Z " data-fips="SU49" data-hasc="SD.SD" data-name="South Darfur" data-postal="SD" data-varname="Darfur al Janubiyah| Janub Darfur| Darfur mridional| Southern Darfur"/><path d="M317,208L318,208L322,207L323,206L329,204L334,204L336,204L336,203L338,202L339,202L340,201L341,201L348,200L349,197L352,194L353,193L355,192L362,194L371,196L367,187L366,184L362,183L361,184L357,186L355,186L354,186L352,186L350,185L347,183L332,180L323,175L322,174L307,172L306,172L304,170L300,166L299,164L298,164L292,168L300,184L304,190L310,201L311,202L313,207L313,208L316,208Z " data-fips="SU29" data-hasc="SD.KH" data-name="Khartoum" data-postal="KH" data-varname="Al Khartum|Al Khurtum|Cartum|Jartum|Khartum"/><path d="M325,257L328,254L328,250L329,249L330,249L331,250L333,250L334,245L335,244L335,243L336,242L337,242L338,241L340,241L341,242L343,245L345,245L346,245L348,242L350,241L351,240L352,240L353,240L355,241L356,241L358,241L360,242L360,240L360,239L359,238L360,236L369,220L368,218L364,212L362,208L357,206L352,204L351,203L348,200L341,201L340,201L339,202L338,202L336,203L336,204L334,204L329,204L323,206L322,207L322,210L323,211L322,212L321,212L320,212L319,214L320,215L322,215L323,216L323,217L323,222L323,223L323,224L322,225L321,226L320,228L318,231L317,234L316,235L317,237L317,239L319,241L321,246L323,249L323,250L323,251L323,256L323,257Z " data-fips="SU38" data-hasc="SD.GZ" data-name="Gezira" data-postal="GZ" data-varname="Al Jazirah"/><path d="M412,281L422,280L423,280L424,279L424,276L424,275L423,274L424,272L424,271L424,270L426,260L431,253L431,251L432,248L432,246L432,245L432,243L432,241L434,233L432,218L432,218L430,217L420,218L418,218L405,224L403,224L402,224L400,223L394,216L390,206L389,205L387,203L386,202L385,201L384,200L379,198L375,197L371,196L362,194L355,192L353,193L352,194L349,197L348,200L351,203L352,204L357,206L362,208L364,212L368,218L369,220L360,236L359,238L360,239L360,240L362,243L362,244L364,245L364,246L364,247L365,248L366,250L367,250L368,250L369,250L370,250L371,251L370,252L369,253L370,254L370,255L372,258L375,262L376,262L377,263L378,263L379,264L380,265L383,266L384,267L386,268L387,269L388,271L390,272L396,276L397,277L398,277L399,278L402,279L412,281Z " data-fips="SU39" data-hasc="SD.GD" data-name="Gedarif" data-postal="GD" data-varname="Al Qadarif|Gadarif| Gedaref| Gederaf"/><path d="M355,186L357,186L361,184L362,183L367,181L375,170L377,170L396,170L398,169L400,168L403,167L405,166L406,164L407,161L408,157L407,147L393,138L392,137L388,133L384,125L383,123L379,120L373,117L368,114L363,113L349,81L350,78L350,77L350,75L350,70L348,65L348,64L348,61L348,58L349,57L349,56L349,55L349,53L349,52L349,50L349,49L348,48L347,47L347,46L346,45L345,43L343,43L342,42L340,39L338,38L338,37L338,36L338,34L338,33L338,31L339,29L340,27L339,26L339,24L339,23L338,22L345,15L334,6L334,6L333,6L316,7L316,7L308,98L320,105L319,117L322,125L322,126L323,129L320,135L299,164L300,166L304,170L306,172L307,172L322,174L323,175L332,180L347,183L350,185L352,186L354,186Z " data-fips="SU53" data-hasc="SD.RN" data-name="River Nile" data-postal="RN" data-varname="an Nil, Nahr an Nil| Nil| Nile| Nile River|Nilen|Nilo"/><path d="M298,164L299,164L320,135L323,129L322,126L322,125L319,117L320,105L308,98L316,7L316,7L288,7L286,7L288,2L288,2L287,0L286,0L285,0L284,1L283,4L281,7L109,5L107,64L108,64L177,66L277,168L287,167L288,167L292,168Z " data-fips="SU43" data-hasc="SD.NO" data-name="Northern" data-postal="NO" data-varname=""/><path d="M326,302L326,301L326,300L326,298L326,297L326,296L340,296L336,283L336,281L336,279L336,276L336,275L333,271L331,267L330,265L330,262L330,258L329,256L329,255L328,254L325,257L323,257L323,256L323,251L323,250L323,249L321,246L319,241L317,239L317,237L316,235L317,234L318,231L320,228L321,226L322,225L323,224L323,223L323,222L323,217L323,216L322,215L320,215L319,214L320,212L321,212L322,212L323,211L322,210L318,208L317,208L316,208L313,208L313,207L304,211L303,213L303,214L300,216L297,223L296,224L294,225L293,226L292,227L291,229L290,233L291,237L291,240L291,241L292,243L292,244L293,244L294,245L295,246L297,247L298,251L300,254L301,255L302,256L303,257L304,257L305,258L306,259L305,261L305,263L306,264L306,265L305,266L302,267L298,270L295,273L294,274L294,275L296,285L297,296L298,296L301,296L303,298L307,303Z " data-fips="SU41" data-hasc="SD.WN" data-name="White Nile" data-postal="WN" data-varname="An Ba?r al Abyad|An Nil al-Abyad|Nil Blanc|Nilo Branco"/><path d="M398,304L399,303L399,302L400,301L401,300L401,298L402,296L403,296L404,295L404,293L409,284L410,283L411,282L412,281L402,279L399,278L398,277L397,277L396,276L390,272L388,271L387,269L386,268L384,267L383,266L380,265L379,264L378,263L377,263L376,262L375,262L372,258L370,255L370,254L369,253L370,252L371,251L370,250L369,250L368,250L367,250L366,250L365,248L364,247L364,246L364,245L362,244L362,243L360,242L358,241L356,241L355,241L353,240L352,240L351,240L350,241L348,242L346,245L345,245L343,245L341,242L340,241L338,241L337,242L336,242L335,243L335,244L334,245L333,250L331,250L330,249L329,249L328,250L328,254L329,255L329,256L330,258L330,262L330,265L331,267L333,271L336,275L336,276L336,279L336,281L336,283L340,296L341,295L342,295L343,294L347,295L348,295L369,282L373,280L374,280L375,280L376,281L377,282L378,283L385,293L389,297L392,300L395,302L396,304L396,305Z " data-fips="SU58" data-hasc="SD.SI" data-name="Sennar" data-postal="SI" data-varname="Al Wust, Al Awsat |An Nil al Azraq| Central"/><path d="M164,303L163,301L161,299L162,297L162,296L162,295L161,291L161,290L161,290L162,287L163,285L163,284L163,280L164,276L164,274L169,269L170,267L171,265L171,263L172,262L175,257L176,256L176,255L175,254L173,250L175,243L170,231L168,221L166,219L165,217L160,164L177,66L108,64L107,64L107,64L79,64L79,78L76,190L74,201L74,202L74,207L74,208L74,210L75,211L76,213L77,214L78,216L79,218L79,220L80,222L79,223L79,224L79,225L72,235L63,245L61,249L60,251L60,253L61,254L63,254L65,255L66,256L67,257L71,258L73,259L75,259L76,259L81,257L86,255L87,255L88,255L89,255L91,255L91,257L91,258L89,260L85,264L85,265L84,266L85,267L86,268L92,268L100,270L105,270L110,270L111,270L112,270L113,271L119,276L123,279L125,279L131,285L132,286L131,287L128,288L127,289L127,290L128,291L130,292L132,295L135,299L137,301L138,301L139,301L141,301L142,301L143,302L144,303L146,304L148,306L149,306L150,307L161,307L165,307Z " data-fips="SU55" data-hasc="SD.ND" data-name="North Darfur" data-postal="ND" data-varname="North Darfur|Darfur ash Shamaliyah|Shamal Darfur|Darfur septentrional"/><path d="M213,381L213,380L213,379L213,378L215,376L218,374L222,372L225,370L232,369L234,367L236,364L236,360L237,360L238,359L246,355L247,354L261,363L269,370L270,370L271,369L275,369L281,369L283,368L295,355L299,351L299,351L301,348L303,342L317,331L318,329L316,325L315,323L315,320L315,315L315,312L315,311L307,303L303,298L301,296L298,296L297,296L296,285L289,282L288,282L284,284L282,285L281,284L279,285L278,285L278,286L276,289L275,290L274,290L273,291L272,291L271,292L269,294L267,295L266,294L265,294L264,293L263,292L260,289L259,288L257,288L248,288L247,287L248,284L247,282L246,281L245,281L243,281L242,281L241,282L240,282L232,294L232,294L231,294L230,294L228,294L227,294L225,294L223,293L221,291L219,290L216,288L215,289L213,290L212,292L211,292L210,293L209,294L208,297L207,300L207,301L207,303L206,304L204,305L201,305L199,305L198,305L197,305L196,304L194,304L192,304L191,304L190,304L189,305L189,306L188,309L187,311L186,313L185,314L183,316L181,318L180,319L179,320L177,321L175,321L174,322L172,322L171,322L169,321L168,321L166,319L167,323L167,324L169,332L179,357L179,360L183,369L185,374L188,380L190,382Z " data-fips="SU50" data-hasc="SD.KS" data-name="South Kordufan" data-postal="KS" data-varname="Southern Kordofan|South Kordufan|Janub Kurdufan|Janub Kurdufun|Kurdufan al Janubiyah|Kordofan mridional"/><path d="M175,321L177,321L179,320L180,319L181,318L183,316L185,314L186,313L187,311L188,309L189,306L189,305L190,304L191,304L192,304L194,304L196,304L197,305L198,305L199,305L201,305L204,305L206,304L207,303L207,301L207,300L208,297L209,294L210,293L211,292L212,292L213,290L215,289L216,288L219,290L221,291L223,293L225,294L227,294L228,294L230,294L231,294L232,294L232,294L240,282L241,282L242,281L243,281L245,281L246,281L247,282L248,284L247,287L248,288L257,288L259,288L260,289L263,292L264,293L265,294L266,294L267,295L269,294L271,292L272,291L273,291L274,290L275,290L276,289L278,286L278,285L279,285L281,284L282,285L284,284L288,282L289,282L296,285L294,275L294,274L295,273L298,270L302,267L305,266L306,265L306,264L305,263L305,261L306,259L305,258L304,257L303,257L302,256L301,255L300,254L298,251L297,247L295,246L294,245L293,244L292,244L292,243L291,241L291,240L291,237L290,233L291,229L292,227L293,226L294,225L296,224L297,223L300,216L303,214L303,213L304,211L313,207L311,202L310,201L304,190L300,184L292,168L288,167L287,167L277,168L160,164L165,217L166,219L168,221L170,231L175,243L173,250L175,254L176,255L176,256L175,257L172,262L171,263L171,265L170,267L169,269L164,274L164,276L163,280L163,284L163,285L162,287L161,290L161,291L162,296L162,297L161,299L163,301L164,303L165,307L166,312L166,319L168,321L169,321L171,322L172,322L174,322Z " data-fips="SU56" data-hasc="SD.KN" data-name="North Kordufan" data-postal="KN" data-varname="Kordofan septentrional| Kurdufan ash Shamaliyah| Shamal Kurdufan| North Kordofan"/><path d="M405,224L418,218L420,218L430,217L432,218L432,218L430,208L431,207L433,204L435,200L435,199L436,198L436,197L436,196L437,189L439,188L439,186L443,175L444,174L444,172L444,171L444,170L444,169L443,168L442,167L442,166L442,164L442,163L443,162L444,160L445,159L445,157L445,156L445,154L444,153L445,152L445,151L444,150L418,153L418,153L407,147L408,157L407,161L406,164L405,166L403,167L400,168L398,169L396,170L377,170L375,170L367,181L366,184L367,187L371,196L375,197L379,198L384,200L385,201L386,202L387,203L389,205L390,206L394,216L400,223L402,224L403,224Z " data-fips="SU52" data-hasc="SD.KA" data-name="Kassala" data-postal="KA" data-varname="Cassala|Kessala"/></g></svg>