<?xml version="1.0" ?><!DOCTYPE svg  PUBLIC '-//W3C//DTD SVG 1.1//EN'  'http://www.w3.org/Graphics/SVG/1.1/DTD/svg11.dtd'><svg enable_background="new 0 0 500 401" height="401px" style="stroke-linejoin: round; stroke:#000; fill:#f6f3f0;" version="1.1" viewBox="0 0 500 401" width="500px" xmlns="http://www.w3.org/2000/svg" xmlns:xlink="http://www.w3.org/1999/xlink"><defs><style type="text/css"><![CDATA[path { fill-rule: evenodd; }
#context path { fill: #eee; stroke: #bbb; } ]]></style></defs><metadata><views><view h="401" padding="0" w="500"><proj id="laea" lat0="8.56" lon0="-11.792"/><bbox h="37.97" w="36.81" x="981.61" y="982.27"/><llbbox lat0="-90" lat1="90" lon0="-180" lon1="180"/></view></views></metadata><g id="admin1"><path d="M293,398L295,397L296,396L295,393L296,391L298,390L299,389L301,387L301,386L301,383L302,382L301,380L302,379L305,378L306,378L306,376L306,375L305,373L304,372L304,370L306,368L311,361L313,360L324,356L325,354L333,344L324,340L320,338L316,336L313,335L311,335L309,335L308,335L306,334L306,334L306,331L305,328L306,324L305,318L305,317L305,316L309,312L307,310L306,309L304,308L303,309L302,309L301,310L297,315L293,318L292,318L291,318L290,317L289,316L288,313L288,306L287,303L287,301L285,300L288,298L293,295L294,296L295,298L296,298L297,297L298,296L298,295L299,292L299,290L299,289L297,283L296,283L293,286L293,285L293,281L295,276L295,274L304,268L305,266L307,265L308,264L308,263L309,260L309,259L309,257L308,254L308,249L308,246L305,237L304,236L305,235L304,233L303,232L295,223L289,216L286,214L283,211L283,209L283,207L283,204L282,203L280,201L279,200L278,198L274,195L272,195L265,195L263,195L262,195L259,197L258,198L258,199L257,202L257,205L256,206L255,207L252,210L251,211L245,213L243,214L240,214L237,214L232,213L229,211L228,211L226,212L225,212L223,212L221,212L219,212L218,213L216,216L215,217L215,218L217,221L217,222L218,222L219,224L219,225L219,226L218,227L216,227L215,227L214,226L213,224L212,222L211,221L205,219L196,214L194,214L192,214L190,214L186,216L184,216L183,215L182,215L178,215L176,215L175,217L173,218L169,220L168,221L167,223L166,224L165,225L164,224L163,223L162,222L151,221L151,220L150,219L150,217L149,216L148,215L146,215L143,215L142,215L141,214L140,213L139,212L131,212L130,213L128,214L126,214L125,213L125,212L123,211L122,211L120,210L118,211L117,212L116,213L116,214L115,215L113,217L111,219L110,221L108,223L106,224L104,225L98,227L98,227L97,229L97,231L97,232L97,235L99,236L100,236L102,237L104,241L105,243L107,245L111,245L109,247L108,248L107,250L107,252L106,254L106,255L107,256L109,262L112,264L115,267L118,269L113,268L111,267L109,267L107,267L102,270L100,270L103,273L104,275L106,276L108,276L109,278L111,281L117,285L123,282L126,282L123,283L122,284L122,286L122,288L123,290L125,292L127,292L132,296L133,297L135,297L144,298L146,300L150,298L156,294L160,288L162,286L165,288L163,289L163,290L163,292L163,293L162,294L160,293L155,299L153,304L156,307L157,305L159,306L160,305L161,304L161,305L160,307L160,309L162,310L163,313L164,316L166,317L168,317L171,318L173,317L176,316L178,315L181,314L182,314L185,314L186,313L189,312L190,310L191,310L193,310L194,310L196,311L198,311L199,310L199,313L197,314L195,314L193,315L193,317L190,317L187,318L185,319L182,320L181,319L179,319L176,319L173,319L172,319L170,320L168,319L166,321L165,323L163,325L161,327L160,330L160,331L161,331L162,332L163,333L166,332L167,332L169,333L170,333L172,335L173,335L174,335L175,336L175,337L176,338L171,336L167,334L162,335L158,338L183,346L214,358L244,369L262,380L269,386L271,388L273,390L274,390L275,389L278,390L277,391L276,391L278,393L281,395L283,396L288,397L291,399Z M155,338L156,336L156,334L155,330L155,328L157,326L158,325L159,323L159,321L158,317L158,316L160,315L158,313L157,311L155,310L153,310L148,310L147,309L148,307L146,306L143,306L136,306L131,307L129,308L115,308L110,308L108,309L106,311L106,313L101,315L114,318L125,320L129,322L141,325L143,325L145,326L148,329L150,332L152,335L149,335L150,337L152,338Z " data-fips="SL03" data-hasc="SL.SO" data-name="Southern" data-postal="SO" data-varname=""/><path d="M76,234L80,232L83,229L86,228L92,228L93,228L95,228L96,227L97,226L98,226L98,227L104,225L106,224L108,223L106,220L105,219L106,216L105,215L104,214L102,214L94,212L93,211L92,210L89,210L87,210L84,208L81,205L76,203L74,198L72,196L70,195L68,195L66,195L63,195L63,194L61,194L58,194L59,195L60,197L61,199L60,200L60,201L58,203L60,204L61,205L61,206L62,207L65,211L66,213L67,214L68,215L72,222L74,223L73,224L73,226L74,229L74,234L75,236Z " data-fips="SL04" data-hasc="SL.WE" data-name="Western" data-postal="WE" data-varname=""/><path d="M219,226L219,225L219,224L218,222L217,222L217,221L215,218L215,217L216,216L218,213L219,212L221,212L223,212L225,212L226,212L228,211L229,211L232,213L237,214L240,214L243,214L245,213L251,211L252,210L255,207L256,206L257,205L257,202L258,199L258,198L259,197L262,195L263,195L265,195L272,195L274,195L280,190L282,189L283,188L285,188L287,188L289,189L291,189L298,187L299,188L300,189L301,189L303,189L304,190L305,191L306,190L307,189L307,188L309,183L309,182L309,180L308,179L308,178L308,177L309,173L310,171L309,169L308,168L308,167L308,164L308,158L309,157L312,155L313,154L314,152L315,149L318,142L318,141L320,140L329,137L330,136L334,134L335,133L336,131L336,130L336,127L337,126L337,125L339,122L340,121L341,120L343,120L356,122L358,122L360,124L363,127L363,128L365,129L373,135L376,136L377,136L378,136L382,135L384,135L387,136L388,136L390,136L391,135L392,133L392,132L389,130L389,129L396,124L399,123L403,124L403,123L403,122L402,121L399,120L394,119L388,120L384,118L383,113L384,108L386,104L388,103L389,102L390,101L391,100L392,99L391,96L391,95L392,94L392,92L393,91L393,89L387,84L386,84L384,83L383,81L381,79L380,79L378,79L376,79L375,79L374,79L373,78L374,77L375,75L373,74L371,72L369,69L369,68L369,66L370,64L370,63L369,62L368,61L367,60L366,56L366,55L364,54L361,51L360,50L359,47L359,46L358,45L355,44L354,43L353,39L350,33L345,27L340,22L334,18L330,16L330,14L328,6L327,3L325,2L324,2L319,0L316,0L271,0L235,0L234,8L233,10L209,15L205,16L203,16L201,15L198,14L195,12L193,10L192,9L191,9L188,9L169,13L163,15L158,18L157,19L158,20L158,22L156,32L156,34L155,34L154,35L154,37L150,39L148,41L146,45L146,50L146,51L145,51L143,51L142,52L142,53L140,57L140,58L139,58L138,59L138,61L133,75L133,75L132,76L131,77L130,78L129,78L126,79L125,81L125,82L125,83L125,84L124,84L121,86L118,91L116,92L113,93L111,93L109,93L106,94L103,92L102,93L101,94L100,96L99,98L98,101L98,103L100,105L100,106L99,106L97,106L97,107L96,108L95,110L93,114L92,115L91,116L89,118L87,119L84,120L80,123L78,123L75,122L71,119L69,119L65,120L60,121L57,124L59,127L58,133L61,135L62,134L62,133L64,135L65,134L65,133L66,136L69,138L72,139L75,139L80,137L83,136L85,138L83,138L79,139L77,140L75,143L75,144L77,144L78,145L78,147L80,147L82,146L84,146L85,146L88,147L90,147L92,146L97,148L90,147L86,148L83,149L81,149L71,149L70,148L69,147L68,147L64,151L64,165L64,169L64,171L65,173L66,174L67,177L68,179L69,183L70,185L73,190L74,191L75,192L76,191L77,191L77,189L77,188L79,186L81,183L81,180L77,178L79,177L77,176L75,175L74,174L75,172L75,173L76,174L77,174L78,173L81,176L82,178L84,179L86,178L87,176L88,172L89,173L90,174L92,175L89,177L88,178L86,180L84,180L85,182L87,183L89,183L93,181L94,181L96,181L99,181L103,180L106,177L108,174L111,170L106,180L104,183L104,184L107,185L109,184L112,185L110,185L108,187L107,188L105,187L103,187L95,186L93,186L92,187L92,188L91,190L92,191L90,190L89,191L88,192L87,194L85,195L82,196L80,197L79,200L81,202L84,204L88,205L86,205L87,207L88,208L89,209L91,210L89,210L92,210L93,211L94,212L102,214L104,214L105,215L106,216L105,219L106,220L108,223L110,221L111,219L113,217L115,215L116,214L116,213L117,212L118,211L120,210L122,211L123,211L125,212L125,213L126,214L128,214L130,213L131,212L139,212L140,213L141,214L142,215L143,215L146,215L148,215L149,216L150,217L150,219L151,220L151,221L162,222L163,223L164,224L165,225L166,224L167,223L168,221L169,220L173,218L175,217L176,215L178,215L182,215L183,215L184,216L186,216L190,214L192,214L194,214L196,214L205,219L211,221L212,222L213,224L214,226L215,227L216,227L218,227Z " data-fips="SL02" data-hasc="SL.NO" data-name="Northern" data-postal="NO" data-varname=""/><path d="M335,341L354,326L357,324L360,323L362,322L365,321L366,321L368,320L386,297L391,293L396,290L397,289L398,289L401,289L401,257L401,256L401,255L402,254L403,253L406,252L407,250L410,245L412,242L415,241L417,241L428,240L430,240L432,240L433,239L435,238L439,235L439,232L438,230L437,226L437,225L437,223L439,218L443,202L443,196L442,196L441,196L440,195L435,194L432,194L431,195L430,195L428,196L427,198L425,199L422,206L421,208L413,215L409,218L406,219L405,219L401,216L399,216L395,215L391,217L389,219L388,224L385,221L387,217L388,215L390,213L392,210L394,207L395,201L396,196L397,196L397,194L397,193L398,191L399,190L399,189L401,188L403,184L405,181L407,179L410,179L413,178L415,177L417,174L418,171L412,164L411,163L410,161L404,154L403,153L402,152L403,150L401,147L401,146L401,136L402,132L403,124L399,123L396,124L389,129L389,130L392,132L392,133L391,135L390,136L388,136L387,136L384,135L382,135L378,136L377,136L376,136L373,135L365,129L363,128L363,127L360,124L358,122L356,122L343,120L341,120L340,121L339,122L337,125L337,126L336,127L336,130L336,131L335,133L334,134L330,136L329,137L320,140L318,141L318,142L315,149L314,152L313,154L312,155L309,157L308,158L308,164L308,167L308,168L309,169L310,171L309,173L308,177L308,178L308,179L309,180L309,182L309,183L307,188L307,189L306,190L305,191L304,190L303,189L301,189L300,189L299,188L298,187L291,189L289,189L287,188L285,188L283,188L282,189L280,190L278,198L279,200L280,201L282,203L283,204L283,207L283,209L283,211L286,214L289,216L295,223L303,232L304,233L305,235L304,236L305,237L308,246L308,249L308,254L309,257L309,259L309,260L308,263L308,264L307,265L305,266L304,268L295,274L295,276L293,281L293,285L293,286L296,283L297,283L299,289L299,290L299,292L298,295L298,296L297,297L296,298L295,298L294,296L293,295L288,298L285,300L287,301L287,303L288,306L288,313L289,316L290,317L291,318L292,318L293,318L297,315L301,310L302,309L303,309L304,308L306,309L307,310L309,312L305,316L305,317L305,318L306,324L305,328L306,331L306,334L306,334L308,335L309,335L311,335L313,335L316,336L320,338L324,340L333,344Z " data-fips="SL01" data-hasc="SL.EA" data-name="Eastern" data-postal="EA" data-varname=""/></g></svg>