<?xml version="1.0" ?><!DOCTYPE svg  PUBLIC '-//W3C//DTD SVG 1.1//EN'  'http://www.w3.org/Graphics/SVG/1.1/DTD/svg11.dtd'><svg enable_background="new 0 0 500 401" height="401px" style="stroke-linejoin: round; stroke:#000; fill:#f6f3f0;" version="1.1" viewBox="0 0 500 401" width="500px" xmlns="http://www.w3.org/2000/svg" xmlns:xlink="http://www.w3.org/1999/xlink"><defs><style type="text/css"><![CDATA[path { fill-rule: evenodd; }
#context path { fill: #eee; stroke: #bbb; } ]]></style></defs><metadata><views><view h="401" padding="0" w="500"><proj id="laea" lat0="9.774" lon0="48.316"/><bbox h="168.18" w="128.57" x="909.05" y="972.55"/><llbbox lat0="-90" lat1="90" lon0="-180" lon1="180"/></view></views></metadata><g id="admin1"><path d="M359,105L360,103L363,104L369,105L369,104L370,103L371,102L371,101L371,98L373,96L373,95L374,93L374,92L375,91L375,90L376,89L379,86L380,85L381,84L381,81L381,80L382,79L384,78L386,75L386,74L385,72L385,70L386,68L386,66L386,65L386,64L387,62L387,61L388,58L387,57L387,55L388,53L388,51L388,48L391,47L393,46L397,46L398,47L400,47L401,47L402,46L402,44L401,44L400,44L399,44L398,43L397,42L396,42L396,43L396,45L392,46L391,45L392,44L393,44L394,43L394,41L395,41L394,38L394,33L394,29L394,28L394,27L395,25L395,24L394,24L393,23L392,22L393,21L393,18L394,16L394,15L394,14L395,13L396,11L397,9L397,6L398,5L398,4L397,4L395,4L394,3L391,3L389,2L383,0L382,1L381,1L380,1L379,2L378,2L377,3L377,4L376,6L376,7L375,8L374,9L372,9L369,12L367,13L366,13L365,13L363,14L360,14L359,14L358,15L357,16L356,16L353,15L351,16L349,16L349,16L348,18L347,18L345,19L344,19L342,19L341,20L340,20L336,21L332,22L331,22L331,25L331,28L331,38L331,43L331,48L331,55L331,61L331,66L331,71L335,71L335,84L336,91L338,94L341,97L346,100L353,100L356,101L357,107Z " data-fips="SO03" data-hasc="SO.BR" data-name="Bari" data-postal="BR" data-varname=""/><path d="M205,255L210,255L210,242L210,238L209,232L207,222L205,207L186,205L185,206L183,207L173,209L161,214L156,218L156,219L155,222L155,222L154,223L154,223L155,225L161,235L162,238L161,243L170,246L175,245L178,242L180,238L181,237L184,236L186,236L192,238L195,245L196,246L196,251L195,253L199,255Z " data-fips="SO01" data-hasc="SO.BK" data-name="Bakool" data-postal="BK" data-varname=""/><path d="M167,303L174,299L183,295L206,286L205,278L206,270L206,268L207,261L205,255L199,255L195,253L196,251L196,246L195,245L192,238L186,236L184,236L181,237L180,238L178,242L175,245L170,246L161,243L161,256L161,261L156,261L146,260L144,270L143,275L140,293L143,295L154,306Z " data-fips="SO04" data-hasc="SO.BY" data-name="Bay" data-postal="BY" data-varname="Baay"/><path d="M98,313L111,313L118,293L140,293L143,275L144,270L146,260L156,261L161,261L161,256L161,243L162,238L161,235L155,225L154,223L154,223L154,223L153,224L152,225L137,227L132,227L131,228L129,229L127,230L126,231L126,232L125,233L115,247L109,256L98,267L98,276L98,291L98,305L98,313Z " data-fips="SO06" data-hasc="SO.GE" data-name="Gedo" data-postal="GE" data-varname="Gado"/><path d="M163,341L166,338L171,332L172,331L172,330L167,323L165,320L154,306L143,295L140,293L118,293L111,313L134,311L141,311L146,329L149,341Z " data-fips="SO08" data-hasc="SO.JD" data-name="Jubbada Dhexe" data-postal="JD" data-varname="J. Dhexe| Central Juba| Middle Juba"/><path d="M177,327L179,325L180,323L181,323L185,321L186,319L188,318L190,316L191,315L191,314L193,313L196,310L203,305L206,303L211,299L216,296L223,293L224,293L224,293L227,288L226,287L226,271L220,262L210,255L207,261L206,268L206,270L205,278L206,286L183,295L174,299L167,303L165,320L167,323L172,330L172,331Z " data-fips="SO02" data-hasc="SO.SH" data-name="Shabeellaha Hoose" data-postal="SH" data-varname="Sh. Hoose| Lower Shabele"/><path d="M234,287L230,287L227,288L224,293L224,293Z " data-fips="SO02" data-hasc="SO.BN" data-name="Banaadir" data-postal="BN" data-varname="Benadir"/><path d="M281,244L285,241L289,236L292,232L299,224L299,224L289,220L293,199L289,188L285,183L292,167L259,160L258,161L244,175L232,189L236,199L237,201L247,204L252,202L252,206L249,212L250,221L257,227L257,237L276,250Z " data-fips="SO05" data-hasc="SO.GA" data-name="Galguduud" data-postal="GA" data-varname="Galgudug"/><path d="M244,256L246,248L248,247L257,237L257,227L250,221L249,212L252,206L252,202L247,204L237,201L236,199L232,189L217,205L214,207L205,207L207,222L209,232L210,238L210,242L210,255L221,257L224,257Z " data-fips="SO07" data-hasc="SO.HI" data-name="Hiiraan" data-postal="HI" data-varname="Hiiran"/><path d="M230,287L234,287L237,285L240,283L246,280L247,278L249,277L250,276L252,273L254,272L254,271L255,270L256,269L258,268L260,266L264,263L266,260L270,256L275,250L276,250L257,237L248,247L246,248L244,256L224,257L221,257L220,262L226,271L226,287L227,288Z " data-fips="SO13" data-hasc="SO.SD" data-name="Shabeellaha Dhexe" data-postal="SD" data-varname="Sh. Dhexe| Central Shabele"/><path d="M303,221L306,216L310,208L314,203L317,199L320,194L322,192L323,191L324,188L329,181L334,171L335,169L336,166L335,165L335,163L339,156L340,152L342,150L344,146L348,139L350,137L352,134L348,130L346,129L339,126L334,126L319,134L291,130L259,160L292,167L285,183L289,188L293,199L289,220L299,224L299,224Z " data-fips="SO10" data-hasc="SO.MU" data-name="Mudug" data-postal="MU" data-varname="Madugh| Mudugh"/><path d="M334,126L339,126L346,129L348,130L352,134L355,128L355,127L356,126L357,125L357,123L356,122L357,120L358,118L360,115L364,113L365,112L365,111L366,108L363,104L360,103L359,105L357,107L356,101L353,100L346,100L341,97L338,94L336,91L335,84L335,71L331,71L331,75L330,77L328,80L326,83L324,85L323,88L321,91L319,93L317,96L316,99L314,101L312,104L310,107L309,109L307,112L305,114L303,117L291,130L319,134Z " data-fips="SO18" data-hasc="SO.NU" data-name="Nugaal" data-postal="NU" data-varname=""/><path d="M115,398L116,396L117,395L118,393L119,392L120,391L123,386L123,385L124,385L124,384L125,383L126,381L126,380L127,379L126,378L126,377L127,376L127,377L127,379L128,378L129,377L130,376L130,375L130,374L132,374L133,373L133,372L135,370L138,366L139,365L140,364L142,363L142,362L143,360L144,360L145,359L147,357L149,355L150,354L154,350L160,344L163,341L149,341L146,329L141,311L134,311L111,313L98,313L98,313L98,320L98,335L97,349L98,375L101,379L114,395L114,397L114,399Z " data-fips="SO09" data-hasc="SO.JH" data-name="Jubbada Hoose" data-postal="JH" data-varname="J. Hoose| Lower Juba"/></g></svg>