<?xml version="1.0" ?><!DOCTYPE svg  PUBLIC '-//W3C//DTD SVG 1.1//EN'  'http://www.w3.org/Graphics/SVG/1.1/DTD/svg11.dtd'><svg enable_background="new 0 0 500 401" height="401px" style="stroke-linejoin: round; stroke:#000; fill:#f6f3f0;" version="1.1" viewBox="0 0 500 401" width="500px" xmlns="http://www.w3.org/2000/svg" xmlns:xlink="http://www.w3.org/1999/xlink"><defs><style type="text/css"><![CDATA[path { fill-rule: evenodd; }
#context path { fill: #eee; stroke: #bbb; } ]]></style></defs><metadata><views><view h="401" padding="0" w="500"><proj id="laea" lat0="15.361" lon0="18.665"/><bbox h="197.17" w="125.5" x="937.67" y="900.1"/><llbbox lat0="-90" lat1="90" lon0="-180" lon1="180"/></view></views></metadata><g id="admin1"><path d="M247,201L252,200L255,199L256,198L258,196L260,194L260,193L262,187L262,184L262,182L263,182L265,182L266,183L266,184L267,186L267,187L271,189L273,189L276,190L277,191L278,191L283,192L284,192L286,193L289,194L290,194L291,194L293,193L294,194L296,194L297,193L301,191L303,190L304,188L305,188L307,187L308,186L310,187L313,189L315,188L321,186L322,186L324,186L325,186L327,187L327,187L328,186L330,186L331,186L332,186L333,186L334,186L335,187L336,187L337,187L339,187L340,187L341,188L341,189L342,189L343,190L344,190L345,190L347,190L348,189L349,190L350,190L351,190L352,190L353,190L355,190L356,192L357,192L361,193L363,193L366,191L368,191L370,191L373,191L376,192L377,192L374,97L374,97L261,40L187,0L164,11L168,36L169,49L170,50L171,51L178,62L177,63L176,64L176,65L176,66L177,67L179,69L186,77L186,78L181,86L180,88L173,163L173,163L230,192L231,193L235,198L238,200L240,200L245,202Z " data-fips="CD03" data-hasc="TD.BT" data-name="Bet" data-postal="BT" data-varname="Bet|B.E.T."/><path d="M221,324L224,293L221,288L221,287L222,282L222,282L221,282L219,281L218,281L218,280L218,279L217,278L216,278L215,277L215,273L213,273L213,272L212,271L212,270L211,269L211,267L209,265L208,264L207,263L208,262L211,259L212,257L210,257L209,256L208,257L206,257L204,257L203,257L202,258L196,259L195,259L194,259L193,259L191,259L190,259L184,259L183,258L182,256L181,256L179,256L178,256L171,252L170,252L169,250L165,251L168,255L169,255L169,256L168,257L167,257L166,258L165,256L164,255L163,255L162,255L161,254L160,254L160,255L161,256L161,258L161,260L160,260L147,260L148,261L148,262L148,263L148,264L149,266L150,267L151,267L152,267L153,268L153,269L154,269L155,270L156,270L156,273L157,274L157,275L157,277L157,279L157,280L157,281L158,282L159,283L160,283L161,284L161,285L161,286L161,287L161,288L161,289L162,289L162,291L161,292L161,294L162,295L162,296L162,298L161,299L161,300L161,302L161,303L160,304L160,306L160,308L163,307L164,306L165,306L167,306L168,307L170,308L170,309L171,310L172,310L172,311L173,312L174,313L174,313L175,313L176,314L177,315L179,316L181,316L182,316L184,316L185,317L186,317L187,317L186,325L187,328L188,329L188,330L189,331L194,331L196,331L198,330L198,330L199,331L199,333L199,334L201,335L202,335L204,336L205,336L206,337L207,337L209,337L211,338L212,338L212,339L213,340L214,340L216,340L217,341Z " data-fips="CD04" data-hasc="TD.HD" data-name="Hadjer-Lamis" data-postal="HD" data-varname=""/><path d="M191,259L193,259L194,259L195,259L196,259L202,258L203,257L204,257L206,257L208,257L209,256L210,257L212,257L214,254L214,248L215,243L222,241L231,193L230,192L173,163L173,163L172,164L149,189L146,191L133,209L131,214L131,215L131,216L130,217L129,217L128,219L128,221L127,222L127,222L127,222L130,222L131,223L135,223L137,224L138,225L140,226L140,227L141,228L143,230L144,230L145,232L148,233L150,236L151,237L152,238L156,244L157,243L158,243L165,242L178,242L179,241L180,241L181,242L181,242L181,244L181,244L181,245L181,247L182,248L182,255L182,256L183,258L184,259L190,259Z " data-fips="CD06" data-hasc="TD.KA" data-name="Kanem" data-postal="KA" data-varname=""/><path d="M161,260L161,258L161,256L160,255L160,254L161,254L162,255L163,255L164,255L165,256L166,258L167,257L168,257L169,256L169,255L168,255L165,251L169,250L170,252L171,252L178,256L179,256L181,256L182,256L182,255L182,248L181,247L181,245L181,244L181,244L181,242L181,242L180,241L179,241L178,242L165,242L158,243L157,243L156,244L152,238L151,237L150,236L148,233L145,232L144,230L143,230L141,228L140,227L140,226L138,225L137,224L135,223L131,223L130,222L127,222L127,222L127,222L125,222L124,223L123,224L123,225L124,228L126,242L137,258L146,258L147,260L160,260Z " data-fips="CD07" data-hasc="TD.LC" data-name="Lac" data-postal="LC" data-varname=""/><path d="M277,282L279,277L280,276L281,275L281,274L282,273L283,272L284,271L283,269L285,267L286,266L286,265L285,264L281,261L288,260L289,258L289,255L288,251L288,247L288,245L287,244L287,239L282,236L281,232L278,191L277,191L276,190L273,189L271,189L267,187L267,186L266,184L266,183L265,182L263,182L262,182L262,184L262,187L260,193L260,194L258,196L256,198L255,199L252,200L247,201L245,202L240,200L238,200L235,198L222,241L215,243L214,248L214,254L212,257L211,259L208,262L207,263L208,264L209,265L211,267L211,269L212,270L212,271L213,272L213,273L215,273L215,277L216,278L217,278L218,279L218,280L218,281L219,281L221,282L222,282L222,282L222,280L230,274L233,274L235,272L244,267L259,267L260,267L261,267L265,267L267,268L267,270L264,275L265,276L265,278L265,279L268,282L273,284L277,284Z " data-fips="CD01" data-hasc="TD.BA" data-name="Batha" data-postal="BA" data-varname=""/><path d="M334,237L335,237L336,236L340,234L342,233L343,232L343,231L342,230L340,229L340,227L340,226L340,224L339,223L339,221L340,220L341,220L346,217L346,216L345,215L346,214L346,213L347,212L347,211L350,208L351,208L352,207L353,205L353,202L353,200L352,199L351,197L352,196L354,195L355,193L356,192L355,190L353,190L352,190L351,190L350,190L349,190L348,189L347,190L345,190L344,190L343,190L342,189L341,189L341,188L340,187L339,187L337,187L336,187L335,187L334,186L333,186L332,186L331,186L330,186L328,186L327,187L327,187L325,186L324,186L322,186L321,186L315,188L313,189L310,187L308,186L307,187L305,188L304,188L303,190L301,191L297,193L296,194L294,194L293,193L291,194L290,194L289,194L286,193L284,192L283,192L281,232L285,228L287,226L288,226L289,225L290,225L291,225L292,225L293,224L295,224L299,226L300,226L301,227L302,227L303,229L305,231L306,231L307,232L310,233L311,233L313,233L314,232L316,232L323,233L331,236L332,236L333,238Z " data-fips="CD02" data-hasc="TD.BI" data-name="Wadi Fira" data-postal="BI" data-varname="Biltine"/><path d="M251,339L252,339L253,336L256,336L257,336L259,335L259,334L260,333L261,333L262,332L262,331L263,330L264,329L265,328L264,327L265,327L266,325L266,325L267,324L268,323L269,324L271,324L271,323L272,322L272,321L274,318L274,314L274,313L274,312L273,311L272,311L271,310L270,310L269,310L268,310L267,309L266,308L265,308L264,307L262,307L261,306L260,306L259,306L258,305L257,304L256,303L255,303L254,302L254,301L255,293L258,294L259,296L262,294L264,290L264,289L263,286L265,279L265,278L265,276L264,275L267,270L267,268L265,267L261,267L260,267L259,267L244,267L235,272L233,274L230,274L222,280L222,282L221,287L221,288L224,293L221,324L229,324L232,327L233,327L234,327L235,327L236,327L237,328L238,329L239,329L239,330L240,330L242,330L242,331L244,332L245,333L246,334L246,334L247,335L248,336L248,338L249,338L249,339Z " data-fips="CD05" data-hasc="TD.GR" data-name="Gura" data-postal="GR" data-varname="Guera|Baguirmi"/><path d="M353,309L354,308L354,306L354,305L354,304L354,302L352,300L350,299L349,299L346,297L345,297L345,296L344,294L344,293L345,286L345,284L344,284L342,285L342,281L340,275L340,274L340,273L341,270L338,269L335,267L335,268L334,269L333,269L331,270L330,270L329,270L328,269L327,267L326,266L326,265L327,263L329,259L329,258L331,257L334,256L336,253L337,252L337,250L336,249L335,248L335,247L335,246L333,245L333,244L333,242L332,241L332,240L334,237L333,238L332,236L331,236L323,233L316,232L314,232L313,233L311,233L310,233L307,232L306,231L305,231L303,229L302,227L301,227L300,226L299,226L295,224L293,224L292,225L291,225L290,225L289,225L288,226L287,226L285,228L281,232L282,236L287,239L287,244L288,245L288,247L288,251L289,255L289,258L288,260L281,261L285,264L286,265L286,266L285,267L283,269L284,271L283,272L282,273L281,274L281,275L280,276L279,277L277,282L277,284L278,285L278,287L279,287L281,286L281,284L287,284L288,284L295,288L307,295L307,297L327,293L328,294L332,295L333,296L340,311L341,311L342,310L343,310L344,311L345,311L347,311L348,311L349,312L351,312L352,312Z " data-fips="CD12" data-hasc="TD.OD" data-name="Ouadda" data-postal="OD" data-varname="Ouaddai|Ouada"/><path d="M174,379L175,379L176,378L177,377L179,378L180,376L181,375L183,373L184,373L186,372L187,371L190,370L193,369L193,368L194,368L196,367L198,364L198,362L197,362L196,361L195,360L195,359L194,357L194,356L192,355L191,356L190,356L188,357L188,358L187,358L184,358L183,358L179,360L177,360L173,361L171,360L170,360L169,360L168,363L168,365L168,366L168,367L166,369L165,373L165,374L167,375L169,376L171,377L171,377L172,378L173,379Z " data-fips="CD08" data-hasc="TD.LO" data-name="Logone Occidental" data-postal="LO" data-varname="Logone-Occidental"/><path d="M182,398L183,397L184,396L185,396L186,396L188,395L189,395L190,394L193,393L193,391L194,391L195,390L196,389L197,390L197,391L198,392L198,393L199,394L200,394L201,395L202,396L202,397L203,397L204,396L205,395L206,395L207,394L208,394L209,393L210,394L211,393L212,392L213,392L214,390L210,382L211,382L212,382L213,381L214,380L214,379L209,370L209,369L211,367L211,366L211,361L211,359L208,360L206,360L201,359L199,358L198,358L197,357L196,357L195,359L195,360L196,361L197,362L198,362L198,364L196,367L194,368L193,368L193,369L190,370L187,371L186,372L184,373L183,373L181,375L180,376L179,378L177,377L176,378L175,379L174,379L173,379L172,378L171,377L171,377L169,376L167,375L165,374L164,375L167,382L168,387L169,389L171,390L172,391L172,393L172,395L171,396L170,397L172,398L174,397L175,397L176,399L178,399Z " data-fips="CD09" data-hasc="TD.LR" data-name="Logone Oriental" data-postal="LR" data-varname="Logone-Oriental"/><path d="M165,374L165,373L166,369L168,367L168,366L168,365L168,363L169,360L170,360L170,359L170,357L170,356L170,354L171,353L172,352L173,351L174,350L175,348L176,345L180,342L181,342L183,344L188,339L189,337L189,335L190,333L190,332L189,331L188,330L188,329L187,328L186,325L187,317L186,317L185,317L184,316L182,316L181,316L179,316L177,315L176,314L175,313L174,313L174,313L173,312L172,311L172,310L171,310L170,309L170,308L168,307L167,306L165,306L164,306L163,307L160,308L160,310L161,312L161,314L161,316L163,319L163,321L162,322L163,323L164,323L165,325L166,326L166,327L166,328L170,331L171,332L172,333L175,335L175,336L170,337L168,337L164,336L163,336L161,336L160,337L159,337L158,336L156,336L152,337L145,335L139,335L138,336L137,339L136,340L134,341L133,344L135,346L142,354L143,356L154,365L155,365L156,366L157,367L158,368L159,369L160,370L161,371L163,373L164,375Z " data-fips="CD10" data-hasc="TD.ME" data-name="Mayo-Kebbi Est" data-postal="ME" data-varname=""/><path d="M177,360L179,360L183,358L184,358L187,358L188,358L188,357L190,356L191,356L192,355L194,356L194,357L196,357L197,357L198,358L199,358L201,359L206,360L208,360L211,359L212,356L210,354L213,351L213,349L213,347L213,346L214,346L216,346L217,345L218,345L220,345L220,346L221,346L222,344L221,343L217,341L216,340L214,340L213,340L212,339L212,338L211,338L209,337L207,337L206,337L205,336L204,336L202,335L201,335L199,334L199,333L199,331L198,330L198,330L196,331L194,331L189,331L190,332L190,333L189,335L189,337L188,339L183,344L181,342L180,342L176,345L175,348L174,350L173,351L172,352L171,353L170,354L170,356L170,357L170,359L170,360L171,360L173,361Z " data-fips="CD14" data-hasc="TD.TA" data-name="Tandjil" data-postal="TA" data-varname="Tandjile"/><path d="M214,390L217,389L218,388L220,388L221,388L222,387L223,386L225,386L228,387L230,387L232,386L234,385L245,385L247,385L248,384L248,382L249,381L249,381L250,380L252,380L253,379L254,377L255,376L255,375L258,372L259,370L260,370L260,368L259,367L256,366L255,365L254,364L255,363L256,363L257,362L258,361L259,361L260,361L261,361L262,360L263,360L264,361L266,361L267,361L268,361L270,361L271,361L273,360L274,360L275,360L276,360L277,360L279,360L280,359L273,338L272,334L272,333L273,332L273,331L273,330L273,329L272,327L272,321L272,322L271,323L271,324L269,324L268,323L267,324L266,325L266,325L265,327L264,327L265,328L264,329L263,330L262,331L262,332L261,333L260,333L259,334L259,335L257,336L256,336L253,336L252,339L251,339L249,339L249,338L248,338L248,336L247,335L246,334L246,334L245,333L244,332L242,331L242,330L240,330L239,330L239,329L238,329L237,328L236,327L235,327L234,327L233,327L232,327L229,324L221,324L221,343L222,344L221,346L220,346L220,345L218,345L217,345L216,346L214,346L213,346L213,347L213,349L213,351L210,354L212,356L211,359L211,361L211,366L211,367L209,369L209,370L214,379L214,380L213,381L212,382L211,382L210,382L214,390Z " data-fips="CD11" data-hasc="TD.MA" data-name="Mandoul" data-postal="MA" data-varname=""/><path d="M281,359L282,359L283,358L284,357L285,357L286,358L288,357L289,358L292,358L293,357L294,356L295,355L294,354L295,354L296,353L297,353L299,353L298,352L299,352L301,351L301,350L302,350L303,349L304,348L305,346L306,346L306,345L307,344L307,343L308,342L309,342L309,341L310,339L312,338L314,336L315,337L316,336L317,335L317,334L319,331L320,330L321,330L322,330L323,329L324,328L324,328L324,326L325,324L324,323L324,321L324,320L325,319L326,319L327,319L328,319L328,318L330,317L331,317L331,315L332,314L335,315L336,314L337,313L338,313L339,312L340,311L333,296L332,295L328,294L327,293L307,297L307,295L295,288L288,284L287,284L281,284L281,286L279,287L278,287L278,285L277,284L273,284L268,282L263,286L264,289L264,290L262,294L259,296L258,294L255,293L254,301L254,302L255,303L256,303L257,304L258,305L259,306L260,306L261,306L262,307L264,307L265,308L266,308L267,309L268,310L269,310L270,310L271,310L272,311L273,311L274,312L274,313L274,314L274,318L272,327L273,329L273,330L273,331L273,332L272,333L272,334L273,338L280,359Z " data-fips="CD13" data-hasc="TD.SA" data-name="Salamat" data-postal="SA" data-varname=""/></g></svg>