<?xml version="1.0" ?><!DOCTYPE svg  PUBLIC '-//W3C//DTD SVG 1.1//EN'  'http://www.w3.org/Graphics/SVG/1.1/DTD/svg11.dtd'><svg enable_background="new 0 0 500 401" height="401px" style="stroke-linejoin: round; stroke:#000; fill:#f6f3f0;" version="1.1" viewBox="0 0 500 401" width="500px" xmlns="http://www.w3.org/2000/svg" xmlns:xlink="http://www.w3.org/1999/xlink"><defs><style type="text/css"><![CDATA[path { fill-rule: evenodd; }
#context path { fill: #eee; stroke: #bbb; } ]]></style></defs><metadata><views><view h="401" padding="0" w="500"><proj id="laea" lat0="8.799" lon0="1.081"/><bbox h="62.16" w="23.71" x="984.89" y="971.14"/><llbbox lat0="-90" lat1="90" lon0="-180" lon1="180"/></view></views></metadata><g id="admin1"><path d="M243,365L246,364L247,364L250,362L251,361L252,360L252,359L255,356L256,355L257,353L257,350L257,346L257,344L258,343L259,342L261,342L274,343L274,344L276,344L277,345L278,346L279,347L280,349L283,350L288,345L293,341L295,341L297,340L298,340L301,341L302,341L304,341L305,340L306,339L308,336L309,335L309,335L308,334L306,328L312,328L314,328L313,249L313,249L314,227L313,220L312,219L283,220L283,221L283,225L283,227L284,228L284,230L284,231L284,232L285,233L285,234L285,236L285,238L285,240L284,242L284,244L283,247L283,249L281,250L279,251L272,252L271,252L269,252L268,252L267,251L263,250L261,250L254,251L253,251L252,251L251,253L249,253L242,254L241,255L240,256L239,256L235,257L233,257L233,257L233,262L234,267L234,271L234,272L232,272L231,274L231,276L231,278L230,279L229,280L228,280L227,281L225,282L225,283L225,288L225,292L227,295L229,297L230,298L232,297L235,297L237,302L237,304L235,307L235,310L233,315L233,318L233,322L233,325L231,328L230,329L227,329L226,329L225,330L226,331L228,333L229,334L229,336L227,339L226,340L227,341L228,342L231,347L233,347L234,348L235,349L236,351L236,352L235,356L236,357L237,358L238,359L239,361L242,361L243,362L242,363L242,365Z " data-fips="TO25" data-hasc="TG.PL" data-name="Plateaux" data-postal="PL" data-varname="Rgion des Plateaux"/><path d="M280,399L286,396L298,393L313,390L313,388L314,387L324,385L326,385L323,373L320,369L319,369L318,367L318,366L318,364L316,363L315,362L314,361L313,361L311,359L311,358L311,357L311,355L310,354L309,353L310,351L311,350L311,349L312,348L311,346L311,344L310,343L310,342L311,338L311,338L311,337L310,336L309,335L308,336L306,339L305,340L304,341L302,341L301,341L298,340L297,340L295,341L293,341L288,345L283,350L280,349L279,347L278,346L277,345L276,344L274,344L274,343L261,342L259,342L258,343L257,344L257,346L257,350L257,353L256,355L255,356L252,359L252,360L251,361L250,362L247,364L246,364L243,365L242,365L242,366L242,368L243,370L244,372L246,374L250,376L252,377L255,380L256,381L257,381L263,381L265,388L266,389L268,390L269,391L270,393L271,394L272,394L278,395L279,396L279,399Z " data-fips="TO24" data-hasc="TG.MA" data-name="Maritime" data-postal="MA" data-varname="Rgion Maritime"/><path d="M224,182L226,182L228,181L230,180L231,179L232,179L232,178L232,177L232,176L236,174L236,172L237,171L239,170L240,169L242,168L243,167L243,166L244,165L246,166L247,166L248,167L251,168L252,168L254,169L255,169L258,168L259,168L261,168L262,167L263,166L264,164L265,163L264,161L264,158L263,156L264,155L265,153L267,152L273,152L274,152L279,152L281,152L291,149L293,149L294,149L297,146L296,144L295,141L294,133L293,130L292,131L291,130L290,128L290,126L290,125L291,123L292,121L292,120L292,118L292,114L291,93L290,90L264,73L263,75L261,76L259,75L258,76L256,77L255,76L253,76L251,77L249,78L249,77L248,76L244,76L244,77L244,78L244,80L242,83L240,86L240,87L240,89L240,90L240,91L239,93L239,94L239,96L240,99L239,100L238,100L236,99L234,99L233,99L231,100L229,100L228,98L227,97L227,96L227,95L226,95L223,94L222,94L221,94L220,93L219,92L219,91L219,90L218,88L217,87L216,88L215,87L214,89L214,90L214,91L215,93L215,94L215,95L214,96L213,98L213,99L213,103L212,109L212,111L213,113L214,114L214,115L214,117L213,118L211,118L210,117L208,115L207,117L207,119L208,121L211,121L214,121L215,121L216,123L215,124L214,124L213,124L212,123L210,124L208,124L204,124L204,127L205,128L206,128L208,128L209,128L210,130L209,131L207,131L204,132L204,133L205,134L204,135L204,136L206,136L207,136L211,135L212,133L212,131L214,131L215,130L219,130L220,130L225,133L225,134L224,135L226,136L228,137L228,139L228,143L228,146L227,147L226,147L225,149L225,150L226,153L226,154L225,156L223,158L223,160L222,162L221,165L220,167L221,170L225,176L226,180L224,182Z " data-fips="TO23" data-hasc="TG.KA" data-name="Kara" data-postal="KA" data-varname="Rgion de la Kara"/><path d="M235,257L239,256L240,256L241,255L242,254L249,253L251,253L252,251L253,251L254,251L261,250L263,250L267,251L268,252L269,252L271,252L272,252L279,251L281,250L283,249L283,247L284,244L284,242L285,240L285,238L285,236L285,234L285,233L284,232L284,231L284,230L284,228L283,227L283,225L283,221L283,220L312,219L312,219L312,217L312,215L315,211L315,209L313,206L312,204L312,202L312,165L311,163L310,161L309,158L298,147L297,146L294,149L293,149L291,149L281,152L279,152L274,152L273,152L267,152L265,153L264,155L263,156L264,158L264,161L265,163L264,164L263,166L262,167L261,168L259,168L258,168L255,169L254,169L252,168L251,168L248,167L247,166L246,166L244,165L243,166L243,167L242,168L240,169L239,170L237,171L236,172L236,174L232,176L232,177L232,178L232,179L231,179L230,180L228,181L226,182L224,182L224,182L224,183L224,185L222,186L221,186L219,186L219,187L218,188L217,187L216,186L215,187L216,191L218,196L221,200L224,203L225,204L227,206L229,207L234,210L236,213L237,216L240,218L240,220L240,221L240,223L242,223L242,225L241,226L240,227L237,228L235,229L232,232L231,232L231,234L232,235L233,237L232,238L231,239L232,241L232,244L233,247L233,249L233,252L233,257Z " data-fips="TO22" data-hasc="TG.CE" data-name="Centre" data-postal="CE" data-varname="Rgion Centrale, Rgion du Centre"/><path d="M233,99L234,99L236,99L238,100L239,100L240,99L239,96L239,94L239,93L240,91L240,90L240,89L240,87L240,86L242,83L244,80L244,78L244,77L244,76L248,76L249,77L249,78L251,77L253,76L255,76L256,77L258,76L259,75L261,76L263,75L264,73L247,61L246,60L246,58L247,50L248,45L248,42L248,35L249,33L253,28L254,26L254,24L255,20L255,18L255,16L257,11L239,12L234,13L225,16L226,13L225,12L225,11L216,9L178,1L174,0L174,1L176,3L177,3L179,4L180,4L182,3L183,3L184,3L187,4L188,6L188,8L188,11L188,12L187,13L186,14L184,23L184,25L184,26L182,27L181,29L180,30L180,33L180,34L179,36L179,38L180,40L182,41L185,42L186,43L188,43L190,45L190,46L191,47L195,50L196,51L201,59L202,57L205,58L206,58L208,58L209,59L208,61L209,62L211,64L211,65L211,66L212,66L216,66L217,68L216,69L215,70L215,72L214,73L215,75L214,81L215,83L216,84L217,84L218,86L217,87L218,88L219,90L219,91L219,92L220,93L221,94L222,94L223,94L226,95L227,95L227,96L227,97L228,98L229,100L231,100Z " data-fips="TO26" data-hasc="TG.SA" data-name="Savanes" data-postal="SA" data-varname="Rgion des Savanes"/></g></svg>