<?xml version="1.0" ?><!DOCTYPE svg  PUBLIC '-//W3C//DTD SVG 1.1//EN'  'http://www.w3.org/Graphics/SVG/1.1/DTD/svg11.dtd'><svg enable_background="new 0 0 500 401" height="401px" style="stroke-linejoin: round; stroke:#000; fill:#f6f3f0;" version="1.1" viewBox="0 0 500 401" width="500px" xmlns="http://www.w3.org/2000/svg" xmlns:xlink="http://www.w3.org/1999/xlink"><defs><style type="text/css"><![CDATA[path { fill-rule: evenodd; }
#context path { fill: #eee; stroke: #bbb; } ]]></style></defs><metadata><views><view h="401" padding="0" w="500"><proj id="laea" lat0="35.383" lon0="9.596"/><bbox h="87.8" w="42.18" x="978.32" y="975.78"/><llbbox lat0="-90" lat1="90" lon0="-180" lon1="180"/></view></views></metadata><g id="admin1"><path d="M340,278L344,276L345,275L346,273L346,270L344,268L341,265L340,263L340,260L341,254L340,248L341,245L341,241L342,235L342,233L339,231L335,228L336,229L336,230L338,231L339,231L338,233L336,233L332,231L330,231L328,231L327,231L326,230L325,229L324,227L325,226L327,226L332,227L331,227L329,225L328,225L327,225L326,223L325,222L324,222L323,214L323,212L322,210L320,209L318,208L317,207L316,208L315,208L314,209L315,210L315,211L315,212L313,213L312,214L308,216L306,217L305,216L303,213L304,211L305,210L305,205L305,204L304,203L296,207L294,207L293,207L293,207L292,208L289,211L289,212L286,217L284,219L281,220L280,221L274,225L270,226L269,227L268,227L264,227L262,228L259,227L262,230L263,231L265,232L266,232L268,232L268,233L268,238L267,239L271,239L273,239L274,239L276,238L277,236L278,235L279,235L282,236L283,236L283,235L287,233L296,229L298,229L302,229L302,230L301,231L300,232L301,233L303,233L305,234L306,234L319,240L320,241L320,244L321,244L324,247L325,248L325,249L325,251L324,253L324,259L324,261L337,271L338,272L339,271L340,272L339,273L337,275L334,276L333,276L333,277L332,278L331,279L328,284Z M313,206L315,203L316,203L316,204L317,202L318,201L321,198L320,197L319,197L318,196L316,195L315,193L313,194L311,194L308,193L306,194L305,195L305,200L305,202L306,203L307,203L309,202L310,202L311,203L311,204L311,206L312,207Z " data-fips="TS28" data-hasc="TN.ME" data-name="Mdenine" data-postal="ME" data-varname="Madaniyin|Madanin|Medenin"/><path d="M194,270L249,259L251,258L253,256L254,255L255,255L256,255L258,255L260,255L261,256L262,258L268,262L269,263L270,263L270,262L268,258L268,256L268,254L270,252L270,251L270,250L269,249L269,248L270,246L271,245L271,244L270,243L268,242L267,241L267,239L268,238L268,233L268,232L266,232L265,232L263,231L262,230L259,227L258,225L257,224L255,221L254,220L250,216L251,215L252,213L252,211L252,210L249,208L248,208L247,207L246,205L245,205L242,203L240,199L239,196L238,194L237,192L237,190L237,187L237,185L238,184L239,183L241,182L241,180L239,179L238,177L237,176L231,177L229,177L228,178L226,178L226,179L226,181L225,182L222,181L219,181L218,182L210,182L206,189L203,192L174,215L164,220L164,227L165,230L166,231L168,232L170,232L172,233L177,237L178,237L180,237L181,237L182,238L191,252L191,254L192,268L193,270Z " data-fips="TS31" data-hasc="TN.KB" data-name="Kebili" data-postal="KB" data-varname="Kebilli|Qbili|Qibili"/><path d="M260,393L261,393L265,393L266,392L272,384L277,376L281,371L284,365L285,362L285,360L284,356L284,355L284,352L284,351L282,348L281,342L277,332L278,328L278,327L281,323L285,318L286,317L287,316L292,316L296,314L296,313L297,312L298,310L300,308L300,307L301,302L302,301L304,302L305,302L307,300L309,299L310,298L312,293L313,292L328,284L331,279L332,278L333,277L333,276L334,276L337,275L339,273L340,272L339,271L338,272L337,271L324,261L324,259L324,253L325,251L325,249L325,248L324,247L321,244L320,244L320,241L319,240L306,234L305,234L303,233L301,233L300,232L301,231L302,230L302,229L298,229L296,229L287,233L283,235L283,236L282,236L279,235L278,235L277,236L276,238L274,239L273,239L271,239L267,239L267,241L268,242L270,243L271,244L271,245L270,246L269,248L269,249L270,250L270,251L270,252L268,254L268,256L268,258L270,262L270,263L269,263L268,262L262,258L261,256L260,255L258,255L256,255L255,255L254,255L253,256L251,258L249,259L194,270L193,270L194,271L200,275L225,294L226,295L226,296L227,300L249,399Z " data-fips="TS34" data-hasc="TN.TA" data-name="Tataouine" data-postal="TA" data-varname="Foum Tataouine|Tatahouine|Tatuine|Tatawin"/><path d="M174,215L203,192L206,189L210,182L207,182L205,182L195,182L195,182L194,180L194,179L193,178L192,177L189,176L187,176L186,175L185,174L184,173L184,172L180,169L181,168L183,166L185,165L185,164L183,162L184,158L184,157L183,157L179,159L177,161L173,162L171,164L170,166L168,173L166,174L163,175L162,176L160,177L159,178L156,181L155,183L155,187L154,193L154,195L155,198L155,199L157,201L157,204L157,206L164,217L164,220Z " data-fips="TS35" data-hasc="TN.TO" data-name="Tozeur" data-postal="TO" data-varname="Tawzar|Touzar|Tuzar"/><path d="M266,43L267,41L268,39L269,39L270,40L271,39L273,37L273,36L273,35L272,34L271,33L271,32L272,31L274,31L279,28L286,25L284,23L283,23L281,21L279,18L279,15L281,13L281,12L280,12L278,13L275,13L275,14L274,15L273,16L272,20L271,21L270,23L270,23L268,23L266,22L264,22L261,22L260,24L259,25L256,26L253,27L256,34L259,35L260,35L261,37L262,40L264,42L264,43Z " data-fips="TS38" data-hasc="TN.MN" data-name="Manubah" data-postal="MN" data-varname=""/><path d="M242,51L243,51L245,51L247,50L248,51L249,51L250,52L251,53L252,52L255,51L256,51L259,51L259,49L261,47L262,46L264,43L264,42L262,40L261,37L260,35L259,35L256,34L250,29L249,30L244,35L243,35L242,33L242,31L242,30L243,29L242,28L241,27L239,26L237,24L236,22L235,20L235,18L234,17L233,17L230,16L229,15L229,14L230,12L230,10L228,11L227,12L225,13L224,15L223,17L221,18L221,18L223,21L222,21L222,23L224,24L225,26L225,27L223,29L223,29L222,31L222,32L223,32L226,33L227,34L227,37L227,38L227,39L229,43L229,45L228,46L228,47L227,50L230,54L232,54L234,53L236,53L237,54L240,55Z " data-fips="TS17" data-hasc="TN.BJ" data-name="Bja" data-postal="BJ" data-varname="Bajah|Bja"/><path d="M285,49L286,49L287,44L287,42L289,38L290,34L289,35L287,34L285,33L284,32L283,30L282,31L282,31L282,33L281,34L280,35L278,35L277,35L276,37L275,37L273,37L271,39L270,40L271,41L272,42L273,42L274,43L276,43L277,45L282,49L282,50L283,50Z " data-fips="TS32" data-hasc="TN.BA" data-name="Ben Arous (Tunis Sud)" data-postal="BA" data-varname="Bin `Arus|Ben Arous|Tunis Ben Arous"/><path d="M249,30L250,29L253,27L256,26L259,25L260,24L261,22L264,22L266,22L268,23L270,23L270,23L271,21L272,20L273,16L274,15L275,14L275,13L278,13L280,12L281,12L279,12L278,12L276,10L277,10L279,9L280,10L281,10L283,9L282,9L279,7L277,6L274,6L273,4L270,6L265,5L264,5L263,7L265,6L267,8L266,10L265,11L262,11L261,9L261,7L261,6L263,5L265,4L264,1L260,0L259,0L258,1L255,1L254,1L252,3L250,3L249,3L248,4L247,4L245,4L244,4L243,5L241,6L235,7L233,9L230,10L230,12L229,14L229,15L230,16L233,17L234,17L235,18L235,20L236,22L237,24L239,26L241,27L242,28L243,29L242,30L242,31L242,33L243,35L244,35Z " data-fips="TS18" data-hasc="TN.BZ" data-name="Bizerte" data-postal="BZ" data-varname="BanzartBanzart|Bensert|Binzart|Biserta|Bizerta"/><path d="M205,53L207,53L218,52L222,51L225,50L227,50L228,47L228,46L229,45L229,43L227,39L227,38L227,37L227,34L226,33L223,32L222,32L222,31L223,29L223,29L225,27L225,26L224,24L222,23L222,21L223,21L221,18L221,18L220,19L218,20L217,21L213,21L212,21L208,23L208,24L208,25L210,28L209,29L206,30L204,30L203,30L201,30L199,32L201,33L202,34L201,36L200,38L199,39L194,42L191,43L189,44L188,45L188,47L190,48L195,49L196,50L197,51L197,52L197,55L197,55L201,55Z " data-fips="TS06" data-hasc="TN.JE" data-name="Jendouba" data-postal="JE" data-varname="Jendobah|Jenduba|Jondouba|Jundubah|Souk-El-Arba|Dschunduba"/><path d="M290,54L291,55L293,55L293,54L295,55L296,53L303,50L307,49L308,48L310,41L313,36L314,33L315,32L318,29L320,27L321,26L321,25L320,24L320,23L320,22L319,21L318,19L318,18L318,17L318,15L318,14L316,14L314,15L312,16L311,16L311,18L311,19L308,22L306,22L304,25L302,26L300,26L297,26L296,27L295,29L295,31L294,32L292,33L290,34L289,38L287,42L287,44L286,49L286,53L286,54L287,55Z " data-fips="TS19" data-hasc="TN.NB" data-name="Nabeul" data-postal="NB" data-varname="Cap Bon|Nabil|Nabol|Nabul"/><path d="M276,37L277,35L278,35L280,35L281,34L282,33L282,31L282,31L281,31L280,31L280,30L281,28L282,28L283,28L284,29L285,29L285,28L286,27L286,25L279,28L274,31L272,31L271,32L271,33L272,34L273,35L273,36L273,37L275,37Z " data-fips="TS36" data-hasc="TN.TU" data-name="Tunis" data-postal="TU" data-varname="Tounis|Tunis City|Tunus|Tnez|Tnis|Tunisi|Tunis"/><path d="M196,96L198,96L198,95L201,94L202,94L204,95L206,95L208,94L208,93L208,90L209,89L210,89L211,88L212,87L216,88L223,92L226,89L227,87L227,85L227,84L229,82L229,81L230,80L230,79L231,78L232,77L232,75L232,73L232,72L231,71L231,70L228,68L227,67L227,66L227,64L227,63L226,61L225,60L224,59L224,57L225,56L225,55L225,55L224,54L222,51L218,52L207,53L205,53L201,55L197,55L197,55L197,55L194,61L194,64L194,65L195,66L195,67L194,68L194,69L193,73L193,76L191,80L191,85L191,87L192,89L194,93L195,95L195,96Z " data-fips="TS14" data-hasc="TN.KF" data-name="Le Kef" data-postal="KF" data-varname="Al Kaf|El Kef|Kaf|Kef"/><path d="M205,151L206,150L207,149L212,147L215,146L216,145L228,138L227,137L227,136L229,134L230,132L231,131L232,131L234,131L236,130L238,129L238,128L237,127L237,126L237,124L238,122L237,120L236,120L232,118L232,117L232,116L233,114L234,113L235,112L236,110L237,109L239,108L240,106L240,105L240,104L240,103L239,102L237,101L236,101L235,100L234,99L233,98L231,97L229,97L228,96L223,92L216,88L212,87L211,88L210,89L209,89L208,90L208,93L208,94L206,95L204,95L202,94L201,94L198,95L198,96L196,96L195,96L195,101L195,103L194,107L193,109L193,111L193,113L194,115L196,116L198,116L199,118L199,119L196,123L194,125L193,127L192,131L191,134L191,137L191,139L192,144L191,146L192,146L193,146L195,147L195,147L201,149L204,151Z " data-fips="TS02" data-hasc="TN.KS" data-name="Kassrine" data-postal="KS" data-varname="Al Qa?rayn|Al Ga?rin|Al Qasrin|Kasserim|Al Qa?rayn|Sbeitla"/><path d="M264,227L268,227L269,227L270,226L274,225L280,221L281,220L284,219L286,217L289,212L289,211L292,208L293,207L293,207L292,207L289,205L287,204L280,198L279,197L275,191L274,188L273,187L273,186L272,183L272,182L272,180L272,179L272,178L270,177L270,178L269,179L267,178L266,177L265,175L263,175L262,176L261,176L260,175L259,175L258,173L257,172L256,171L255,171L252,172L251,173L249,174L247,175L240,175L237,176L238,177L239,179L241,180L241,182L239,183L238,184L237,185L237,187L237,190L237,192L238,194L239,196L240,199L242,203L245,205L246,205L247,207L248,208L249,208L252,210L252,211L252,213L251,215L250,216L254,220L255,221L257,224L258,225L259,227L262,228Z " data-fips="TS29" data-hasc="TN.GB" data-name="Gabs" data-postal="GB" data-varname="Qabis|Gabas"/><path d="M218,182L219,181L222,181L225,182L226,181L226,179L226,178L228,178L229,177L231,177L237,176L240,175L247,175L249,174L251,173L251,166L250,166L248,164L246,163L245,162L244,161L241,159L239,158L239,157L238,156L237,155L238,154L239,151L238,151L236,151L236,151L233,149L228,148L224,148L216,145L215,146L212,147L207,149L206,150L205,151L204,151L201,149L195,147L195,147L193,146L192,146L191,146L191,146L189,147L189,149L190,151L188,153L187,155L186,155L184,157L184,158L183,162L185,164L185,165L183,166L181,168L180,169L184,172L184,173L185,174L186,175L187,176L189,176L192,177L193,178L194,179L194,180L195,182L195,182L205,182L207,182L210,182Z " data-fips="TS10" data-hasc="TN.GF" data-name="Gafsa" data-postal="GF" data-varname="Gaf?ah|Qaf?ah"/><path d="M260,174L260,173L260,172L259,171L259,169L260,168L261,167L264,166L265,166L267,164L268,164L270,163L271,162L273,161L274,160L274,159L274,158L274,157L270,155L269,155L263,154L263,152L263,151L264,150L265,148L270,139L274,131L273,129L270,123L267,124L263,122L260,122L258,121L257,120L257,119L253,116L252,116L251,115L248,112L247,111L248,109L248,107L247,106L243,104L240,105L240,106L239,108L237,109L236,110L235,112L234,113L233,114L232,116L232,117L232,118L236,120L237,120L238,122L237,124L237,126L237,127L238,128L238,129L236,130L234,131L232,131L231,131L230,132L229,134L227,136L227,137L228,138L216,145L224,148L228,148L233,149L236,151L236,151L238,151L239,151L238,154L237,155L238,156L239,157L239,158L241,159L244,161L245,162L246,163L248,164L250,166L251,166L251,173L252,172L255,171L256,171L257,172L258,173L259,174Z " data-fips="TS33" data-hasc="TN.SZ" data-name="Sidi Bou Zid" data-postal="SZ" data-varname="Sidi Bu Zayd|Qamudah|Sidi Bo Sa`d|Sidi Buzid|Sidi Bu Sa`id|Sidi Bu Zayd|Sidi Bu Said"/><path d="M270,178L270,177L272,178L273,177L273,176L275,171L276,170L277,169L279,169L280,168L282,167L283,166L285,164L286,164L287,164L291,160L293,159L298,157L298,156L298,155L299,154L300,153L301,152L304,150L305,149L306,148L306,146L307,144L308,143L309,143L311,142L311,141L312,140L313,137L313,136L313,135L313,134L315,132L316,130L317,128L318,126L318,126L315,125L313,122L312,122L311,123L310,123L309,122L308,120L308,118L308,117L306,116L306,118L305,119L304,119L299,118L299,119L298,120L297,121L297,122L296,123L290,125L289,125L287,124L282,123L280,124L279,124L277,126L275,129L274,131L270,139L265,148L264,150L263,151L263,152L263,154L269,155L270,155L274,157L274,158L274,159L274,160L273,161L271,162L270,163L268,164L267,164L265,166L264,166L261,167L260,168L259,169L259,171L260,172L260,173L260,174L259,174L259,175L260,175L261,176L262,176L263,175L265,175L266,177L267,178L269,179Z M322,149L316,150L316,151L319,152Z M325,148L331,145L330,144L330,142L331,142L330,141L328,141L327,142L327,144L326,145L325,145L324,146L323,147L323,149L324,149Z " data-fips="TS32" data-hasc="TN.SF" data-name="Sfax" data-postal="SF" data-varname="Safaqis|?afaqis|?faqis"/><path d="M243,104L246,103L244,100L238,92L238,91L239,91L243,92L245,92L247,90L249,90L248,89L248,87L248,86L248,84L248,83L248,81L249,80L259,72L260,71L260,69L260,68L260,66L259,66L256,65L254,64L253,64L252,62L252,61L253,60L256,58L257,58L258,57L259,55L260,53L259,52L259,51L256,51L255,51L252,52L251,53L250,52L249,51L248,51L247,50L245,51L243,51L242,51L240,55L237,54L236,53L234,53L232,54L230,54L225,50L222,51L224,54L225,55L225,55L225,56L224,57L224,59L225,60L226,61L227,63L227,64L227,66L227,67L228,68L231,70L231,71L232,72L232,73L232,75L232,77L231,78L230,79L230,80L229,81L229,82L227,84L227,85L227,87L226,89L228,96L229,97L231,97L233,98L234,99L235,100L236,101L237,101L239,102L240,103L240,104L240,105Z " data-fips="TS22" data-hasc="TN.SL" data-name="Siliana" data-postal="SL" data-varname="Silianah|Silyanah"/><path d="M318,124L318,123L319,122L321,120L322,118L323,118L324,117L323,117L322,116L319,114L318,112L318,110L318,109L318,107L318,105L320,102L319,102L318,101L317,99L317,100L314,101L313,102L312,102L311,103L310,104L309,105L307,105L304,105L298,105L296,107L296,108L295,108L292,106L292,105L291,104L289,103L287,104L286,103L285,101L285,100L283,100L282,100L282,102L282,103L282,105L281,107L279,111L279,112L280,114L280,115L280,117L280,118L281,120L282,121L282,123L287,124L289,125L290,125L296,123L297,122L297,121L298,120L299,119L299,118L304,119L305,119L306,118L306,116L308,117L308,118L308,120L309,122L310,123L311,123L312,122L313,122L315,125L318,126L318,126Z " data-fips="TS15" data-hasc="TN.MH" data-name="Mahdia" data-postal="MH" data-varname="Al Madiyah|Al Mahdiyya|Mahdih"/><path d="M310,104L311,103L312,102L313,102L314,101L317,100L317,99L317,99L318,97L318,96L318,95L317,94L315,93L311,93L309,91L308,90L308,88L309,88L308,87L304,88L303,87L302,87L301,89L300,90L300,91L300,94L300,95L300,96L299,97L297,98L296,98L295,99L296,100L295,101L293,102L293,104L294,104L296,104L296,103L297,102L304,105L307,105L309,105Z " data-fips="TS16" data-hasc="TN.MS" data-name="Monastir" data-postal="MS" data-varname="Al Munastir"/><path d="M275,129L277,126L279,124L280,124L282,123L282,121L281,120L280,118L280,117L280,115L280,114L279,112L279,111L281,107L282,105L282,103L282,102L282,100L283,100L284,97L284,96L278,85L279,84L281,81L282,80L282,78L282,74L281,73L279,71L280,68L277,69L276,70L275,71L274,71L274,74L272,75L271,74L270,73L268,72L267,72L265,72L261,72L260,72L259,72L249,80L248,81L248,83L248,84L248,86L248,87L248,89L249,90L247,90L245,92L243,92L239,91L238,91L238,92L244,100L246,103L247,106L248,107L248,109L247,111L248,112L251,115L252,116L253,116L257,119L257,120L258,121L260,122L263,122L267,124L270,123L273,129L274,131Z " data-fips="TS03" data-hasc="TN.KR" data-name="Kairouan" data-postal="KR" data-varname="Al Qayrawan|Al Qirwan|Qairoun|Kairu|Kairouwan"/><path d="M296,108L296,107L298,105L297,102L296,103L296,104L294,104L293,104L293,102L295,101L296,100L295,99L296,98L297,98L299,97L300,96L300,95L300,94L300,91L300,90L301,89L302,87L303,87L299,83L297,80L296,79L296,78L294,76L294,74L293,73L292,72L292,71L292,65L292,63L292,61L293,58L294,56L293,54L293,55L291,55L290,54L287,55L287,59L286,60L287,61L287,62L284,63L283,63L283,65L283,67L282,67L280,68L279,71L281,73L282,74L282,78L282,80L281,81L279,84L278,85L284,96L284,97L285,100L285,101L286,103L287,104L289,103L291,104L292,105L292,106L295,108Z " data-fips="TS23" data-hasc="TN.SS" data-name="Sousse" data-postal="SS" data-varname="Sousa|Sussa|Susse|Susa|Susah"/><path d="M274,74L274,71L275,71L276,70L277,69L280,68L282,67L283,67L283,65L283,63L284,63L287,62L287,61L286,60L287,59L287,55L286,54L286,53L286,49L285,49L283,50L282,50L282,49L277,45L276,43L274,43L273,42L272,42L271,41L269,39L268,39L267,41L266,43L264,43L262,46L261,47L259,49L259,51L259,52L260,53L259,55L258,57L257,58L256,58L253,60L252,61L252,62L253,64L254,64L256,65L259,66L260,66L260,68L260,69L260,71L259,72L260,72L261,72L265,72L267,72L268,72L270,73L271,74L272,75Z " data-fips="TS37" data-hasc="TN.ZA" data-name="Zaghouan" data-postal="ZA" data-varname="Tunis South|Zachouan|Zaguan|Zaghwan|Saghuan"/></g></svg>