<?xml version="1.0" ?><!DOCTYPE svg  PUBLIC '-//W3C//DTD SVG 1.1//EN'  'http://www.w3.org/Graphics/SVG/1.1/DTD/svg11.dtd'><svg enable_background="new 0 0 500 401" height="401px" style="stroke-linejoin: round; stroke:#000; fill:#f6f3f0;" version="1.1" viewBox="0 0 500 401" width="500px" xmlns="http://www.w3.org/2000/svg" xmlns:xlink="http://www.w3.org/1999/xlink"><defs><style type="text/css"><![CDATA[path { fill-rule: evenodd; }
#context path { fill: #eee; stroke: #bbb; } ]]></style></defs><metadata><views><view h="401" padding="0" w="500"><proj id="laea" lat0="-6.27" lon0="34.823"/><bbox h="132.46" w="135.97" x="932.36" y="934.96"/><llbbox lat0="-90" lat1="90" lon0="-180" lon1="180"/></view></views></metadata><g id="admin1"><path d="M216,323L217,322L217,321L217,320L217,318L217,317L218,316L219,315L221,316L222,316L222,316L222,315L220,314L219,313L218,312L216,308L215,307L214,306L213,305L214,304L214,302L213,301L211,299L211,298L213,294L215,293L217,292L220,293L221,293L221,292L223,291L225,291L227,291L231,290L234,291L236,291L238,290L239,289L240,287L241,286L243,286L244,286L245,285L246,283L246,280L245,279L245,278L244,276L245,275L246,273L247,272L249,271L250,270L251,269L252,266L253,265L255,264L257,263L258,262L257,261L255,260L253,260L253,259L252,258L242,256L241,256L239,255L234,253L232,253L215,254L213,254L213,253L213,251L214,250L215,249L216,247L217,245L217,244L217,242L216,242L215,241L213,240L212,239L212,238L211,236L210,234L208,234L208,233L207,232L206,230L205,229L203,229L202,227L202,225L202,223L201,222L200,221L192,221L189,221L186,219L183,218L180,219L179,219L178,220L177,221L174,221L174,222L171,226L170,227L168,227L165,227L163,228L155,231L155,235L154,239L152,242L148,243L147,245L146,248L145,251L145,253L155,258L162,262L164,264L172,275L173,278L171,278L170,278L168,278L165,274L165,273L165,272L165,271L165,269L164,268L159,272L157,272L155,273L155,275L156,277L156,282L153,285L151,286L146,288L146,290L147,291L149,292L149,294L149,295L151,296L151,297L150,298L151,300L151,300L153,302L155,303L159,303L161,303L163,304L163,306L164,307L166,307L169,308L172,308L173,309L173,310L174,310L176,311L179,313L180,312L182,312L184,314L186,316L187,316L189,316L190,316L192,316L193,316L196,318L197,320L198,321L200,321L201,320L203,320L204,320L205,320L207,320L208,319L209,319L210,320L211,321L213,322L214,322L215,323L216,324Z " data-fips="TZ09" data-hasc="TZ.MB" data-name="Mbeya" data-postal="MB" data-varname=""/><path d="M150,298L151,297L151,296L149,295L149,294L149,292L147,291L146,290L146,288L151,286L153,285L156,282L156,277L155,275L155,273L157,272L159,272L164,268L165,269L165,271L165,272L165,273L165,274L168,278L170,278L171,278L173,278L172,275L164,264L162,262L155,258L145,253L145,251L146,248L147,245L148,243L152,242L154,239L155,235L155,231L163,228L165,227L166,223L166,220L166,216L166,212L167,208L170,206L171,205L171,204L172,203L171,202L170,201L165,200L164,199L162,198L161,196L160,195L159,195L157,194L156,192L155,192L153,191L152,190L151,189L150,188L150,186L149,184L148,183L148,181L148,180L147,179L147,178L146,177L143,176L142,177L140,176L139,176L138,175L136,176L135,178L134,178L133,179L130,180L128,179L127,180L126,179L124,180L123,179L121,179L118,179L117,178L116,177L114,177L113,177L113,176L113,174L113,173L112,173L109,171L109,169L110,168L109,164L108,163L107,162L106,161L106,159L105,159L104,160L102,160L101,159L100,158L99,158L99,157L97,156L96,156L86,156L84,157L82,160L80,161L79,162L71,162L70,163L74,166L75,169L77,183L79,186L81,190L82,193L84,194L85,196L85,198L85,200L85,201L82,204L81,207L80,208L71,216L70,217L71,217L74,220L80,226L82,229L85,235L86,240L87,242L88,246L96,258L98,265L99,268L100,272L102,275L104,279L107,281L108,282L110,283L111,284L114,283L115,282L116,283L118,284L119,284L121,283L122,283L122,284L124,284L125,285L126,286L128,286L129,288L129,289L129,291L130,292L134,295L135,295L137,294L143,295L142,297L142,299L143,300L145,300L146,299L147,300L149,300L151,300Z " data-fips="TZ24" data-hasc="TZ.RK" data-name="Rukwa" data-postal="RK" data-varname=""/><path d="M423,203L424,202L424,201L423,199L423,193L422,192L422,194L421,194L420,194L419,193L419,193L419,191L419,190L419,189L418,188L418,187L418,187L416,188L414,189L414,193L415,195L415,196L415,196L416,198L417,199L417,200L418,201L418,199L419,198L420,202L421,203L422,204Z " data-fips="TZ21" data-hasc="TZ.ZS" data-name="Zanzibar South and Central" data-postal="ZS" data-varname="Kusini Unguja|Zanzibar Central/South"/><path d="M169,90L169,89L169,87L169,86L171,86L172,86L173,84L174,85L175,84L176,84L177,85L178,86L179,87L180,88L181,88L182,89L184,89L185,90L185,91L188,89L189,87L191,86L192,86L194,86L195,86L197,85L198,82L199,81L199,80L200,78L201,75L201,73L200,69L200,68L202,67L203,67L204,66L207,67L208,66L210,65L210,65L211,64L210,62L208,61L206,60L205,59L205,57L206,55L208,55L210,56L215,56L214,55L215,53L216,52L216,51L217,48L217,44L215,44L214,44L212,43L212,42L210,41L209,40L208,41L206,43L205,43L204,44L202,43L200,43L198,43L196,43L194,43L194,42L193,42L192,41L190,42L189,43L189,41L189,40L190,39L191,39L192,38L191,38L192,38L193,39L194,38L196,39L195,37L196,36L197,37L200,38L202,38L203,37L201,36L200,36L198,35L199,34L198,33L197,33L196,33L194,34L193,35L192,34L193,34L193,32L192,31L194,28L196,26L197,27L198,27L198,25L198,23L199,21L198,19L194,18L170,18L139,43L137,44L134,45L134,47L134,48L135,49L136,51L136,52L136,54L139,57L139,60L139,61L138,62L137,63L137,64L137,65L138,67L138,68L140,70L141,71L142,71L142,73L141,74L141,75L141,77L141,78L141,79L141,81L140,82L143,82L146,82L147,82L149,82L150,83L150,84L151,85L152,84L153,83L155,84L155,86L156,86L157,86L158,85L159,84L160,83L162,82L163,82L164,83L164,84L164,86L164,88L165,89L168,91L170,91Z " data-fips="TZ12" data-hasc="TZ.MW" data-name="Mwanza" data-postal="MW" data-varname=""/><path d="M146,126L149,124L152,124L155,124L157,125L158,126L159,126L160,125L161,123L161,122L161,120L163,119L164,119L165,119L166,120L166,122L167,122L171,121L171,119L170,119L168,117L169,116L171,115L171,113L171,111L173,110L175,109L176,108L179,109L181,108L182,109L184,110L186,110L188,110L191,109L196,107L198,108L200,108L201,108L203,107L206,108L206,109L208,109L209,109L212,110L214,110L215,110L216,111L217,112L218,112L219,113L220,113L222,113L223,114L224,114L226,114L227,114L228,113L231,112L233,111L234,110L235,109L236,109L238,109L244,105L245,104L247,104L246,103L246,101L247,100L249,99L249,98L251,98L252,97L252,70L253,70L255,71L255,73L257,73L258,72L260,71L261,69L264,59L243,55L241,55L238,53L237,54L236,53L235,52L234,51L232,49L230,48L229,46L228,46L225,45L223,45L222,44L220,42L219,43L217,48L216,51L216,52L215,53L214,55L215,56L210,56L208,55L206,55L205,57L205,59L206,60L208,61L210,62L211,64L210,65L210,65L208,66L207,67L204,66L203,67L202,67L200,68L200,69L201,73L201,75L200,78L199,80L199,81L198,82L197,85L195,86L194,86L192,86L191,86L189,87L188,89L185,91L185,90L184,89L182,89L181,88L180,88L179,87L178,86L177,85L176,84L175,84L174,85L173,84L172,86L171,86L169,86L169,87L169,89L169,90L170,91L168,91L165,89L164,88L164,86L164,84L164,83L163,82L162,82L160,83L159,84L158,85L157,86L156,86L155,86L155,84L153,83L152,84L151,85L150,84L150,83L149,82L147,82L146,82L143,82L140,82L139,82L138,83L137,84L136,84L134,84L133,83L132,82L131,82L130,83L128,82L127,83L126,84L126,85L124,85L123,83L123,83L121,82L119,83L117,84L115,86L115,87L115,88L114,89L114,91L115,92L115,93L115,95L115,96L115,98L116,101L118,103L120,108L121,111L121,112L120,116L120,118L120,119L120,120L121,121L121,123L123,125L124,124L124,122L125,121L126,121L130,121L133,120L132,119L132,118L131,117L131,115L133,113L137,115L140,115L142,116L143,117L143,119L143,121L143,123L144,125L144,126L143,128Z " data-fips="TZ15" data-hasc="TZ.SH" data-name="Shinyanga" data-postal="SH" data-varname=""/><path d="M170,227L171,226L174,222L174,221L177,221L178,220L179,219L180,219L183,218L186,219L189,221L192,221L200,221L201,218L201,214L201,209L203,207L206,206L210,202L212,200L213,200L214,198L217,196L219,194L219,193L219,192L219,188L221,181L221,178L221,177L222,176L223,174L223,173L221,172L221,171L222,168L225,166L226,165L227,163L226,162L223,159L222,158L221,157L219,156L217,155L216,154L216,153L215,151L216,148L216,147L215,145L215,143L217,140L217,136L216,133L217,130L221,124L223,121L225,117L226,117L227,117L228,117L228,116L229,115L228,113L227,114L226,114L224,114L223,114L222,113L220,113L219,113L218,112L217,112L216,111L215,110L214,110L212,110L209,109L208,109L206,109L206,108L203,107L201,108L200,108L198,108L196,107L191,109L188,110L186,110L184,110L182,109L181,108L179,109L176,108L175,109L173,110L171,111L171,113L171,115L169,116L168,117L170,119L171,119L171,121L167,122L166,122L166,120L165,119L164,119L163,119L161,120L161,122L161,123L160,125L159,126L158,126L157,125L155,124L152,124L149,124L146,126L143,128L144,126L144,125L143,123L143,121L143,119L143,117L142,116L140,115L137,115L133,113L131,115L131,117L132,118L132,119L133,120L130,121L126,121L125,121L124,122L124,124L123,125L123,127L123,129L124,128L124,129L125,132L126,135L125,137L123,138L122,139L122,143L119,145L119,146L118,146L116,148L117,149L117,150L115,155L115,159L116,165L115,166L113,167L110,168L109,169L109,171L112,173L113,173L113,174L113,176L113,177L114,177L116,177L117,178L118,179L121,179L123,179L124,180L126,179L127,180L128,179L130,180L133,179L134,178L135,178L136,176L138,175L139,176L140,176L142,177L143,176L146,177L147,178L147,179L148,180L148,181L148,183L149,184L150,186L150,188L151,189L152,190L153,191L155,192L156,192L157,194L159,195L160,195L161,196L162,198L164,199L165,200L170,201L171,202L172,203L171,204L171,205L170,206L167,208L166,212L166,216L166,220L166,223L165,227L168,227Z " data-fips="TZ17" data-hasc="TZ.TB" data-name="Tabora" data-postal="TB" data-varname=""/><path d="M114,89L115,88L115,87L115,86L117,84L119,83L121,82L123,83L123,83L124,85L126,85L126,84L127,83L128,82L130,83L131,82L132,82L133,83L134,84L136,84L137,84L138,83L139,82L140,82L141,81L141,79L141,78L141,77L141,75L141,74L142,73L142,71L141,71L140,70L138,68L138,67L137,65L137,64L137,63L138,62L139,61L139,60L139,57L136,54L136,52L136,51L135,49L134,48L134,47L134,45L137,44L139,43L170,18L171,0L143,0L117,1L100,0L98,0L97,1L95,1L93,3L92,3L89,3L88,3L87,3L87,5L87,5L88,7L89,7L89,8L90,10L90,11L90,12L91,13L92,13L93,14L96,15L97,16L97,18L97,19L98,20L99,22L101,23L101,24L100,28L101,29L101,30L101,32L100,33L100,34L99,35L101,36L100,38L101,39L102,40L103,41L101,45L101,47L101,50L100,51L99,51L98,52L95,51L94,51L93,52L92,52L90,53L89,55L87,58L87,60L86,60L85,62L86,63L87,63L89,63L87,65L86,67L86,68L85,69L86,71L87,72L88,73L89,72L90,71L93,73L94,74L96,74L97,74L98,75L100,75L101,74L102,73L103,72L106,69L108,69L109,72L110,73L110,75L109,78L107,80L108,83L108,83L109,82L111,83L112,86L113,88L113,90L114,91Z " data-fips="TZ19" data-hasc="TZ.KR" data-name="Kagera" data-postal="KR" data-varname=""/><path d="M71,216L80,208L81,207L82,204L85,201L85,200L85,198L85,196L84,194L82,193L81,190L79,186L77,183L75,169L74,166L70,163L71,162L79,162L80,161L82,160L84,157L86,156L96,156L97,156L99,157L99,158L100,158L101,159L102,160L104,160L105,159L106,159L106,161L107,162L108,163L109,164L110,168L113,167L115,166L116,165L115,159L115,155L117,150L117,149L116,148L118,146L119,146L119,145L122,143L122,139L123,138L125,137L126,135L125,132L124,129L124,128L123,129L123,127L123,125L121,123L121,121L120,120L120,119L120,118L120,116L121,112L121,111L120,108L118,103L116,101L115,98L115,96L115,95L115,93L115,92L114,91L113,90L113,88L112,86L111,83L109,82L108,83L108,83L107,80L109,78L110,75L110,73L109,72L108,69L106,69L103,72L102,73L101,74L100,75L100,75L99,76L99,77L100,78L100,79L101,80L101,81L100,83L100,84L100,85L99,86L98,86L97,86L96,86L95,87L93,88L93,89L94,91L93,91L91,92L90,93L89,93L88,94L87,95L86,95L86,97L86,98L84,100L84,102L84,103L84,104L83,104L82,104L80,107L78,110L77,112L77,114L76,115L75,117L72,120L70,122L69,123L68,124L67,125L64,126L63,126L62,126L62,127L61,128L60,130L59,129L57,129L48,130L48,131L48,134L46,140L45,144L45,147L46,150L47,153L50,158L52,164L56,173L56,176L56,179L55,181L52,185L51,187L51,188L53,193L53,197L54,198L55,200L57,203L59,208L60,210L61,211L66,215L70,217Z " data-fips="TZ05" data-hasc="TZ.KM" data-name="Kigoma" data-postal="KM" data-varname=""/><path d="M419,231L421,229L421,230L422,230L423,228L423,227L423,225L423,224L422,221L421,220L420,219L419,219L418,218L416,218L415,217L414,217L414,218L413,217L413,216L414,215L413,214L412,214L412,213L411,211L411,210L410,209L409,208L408,207L408,208L406,209L406,211L405,212L405,214L404,215L405,216L405,217L405,218L406,219L407,220L406,222L405,223L404,225L405,225L406,226L407,225L408,224L409,224L410,223L411,223L412,222L413,222L414,222L416,222L417,224L418,225L418,230L419,231Z " data-fips="TZ23" data-hasc="TZ.DS" data-name="Dar-Es-Salaam" data-postal="DS" data-varname="Dar es Salaam"/><path d="M313,333L316,331L319,329L322,326L324,324L327,322L328,322L331,319L334,318L337,309L338,308L338,307L338,305L340,304L342,303L342,301L341,300L342,298L341,295L341,294L340,291L340,289L342,286L343,283L343,281L342,280L343,279L343,278L344,277L345,276L346,275L347,274L348,273L348,272L349,271L350,268L352,268L352,267L353,266L354,264L355,263L356,262L357,261L358,259L359,258L359,258L359,257L360,255L361,254L361,252L361,250L361,248L361,246L362,245L364,245L367,244L368,245L370,245L372,245L373,244L379,243L380,242L379,240L377,235L378,233L379,231L381,230L382,230L383,229L384,227L385,225L385,224L384,222L382,222L381,222L380,222L378,221L377,219L377,217L378,215L377,212L375,212L374,213L370,211L369,211L368,210L367,209L366,208L367,206L368,204L369,199L368,196L368,195L367,194L366,193L365,192L364,191L362,188L362,187L362,186L361,184L359,182L359,183L357,183L357,184L356,185L354,184L353,185L352,185L349,182L349,180L348,180L346,179L345,179L345,179L344,178L343,179L343,184L341,185L340,185L339,187L337,188L337,189L336,190L335,190L334,188L334,187L334,186L333,186L332,185L332,181L326,185L323,188L323,190L324,199L322,202L321,203L320,206L319,208L318,210L317,209L318,210L317,212L316,215L316,222L316,223L313,225L311,228L311,230L311,232L312,234L311,236L310,237L311,241L311,242L313,242L314,242L317,243L318,244L319,244L320,245L322,245L322,247L323,247L324,247L327,247L328,248L326,250L324,252L322,255L321,259L318,260L314,259L311,258L308,259L305,261L304,263L304,265L304,266L304,267L302,267L300,268L299,267L296,269L293,272L290,275L289,279L286,281L283,283L282,284L280,289L281,290L280,292L279,291L279,288L279,287L274,287L271,286L268,286L268,287L268,289L268,291L268,293L269,294L268,296L270,297L271,297L274,301L280,307L281,308L281,310L283,310L284,309L286,307L288,305L289,307L289,309L289,310L290,312L289,314L288,315L287,316L287,317L287,319L286,320L283,324L282,324L282,326L283,328L288,327L290,328L292,327L292,326L294,324L295,324L296,325L297,325L300,325L302,325L306,324L307,323L309,320L309,318L310,318L310,319L310,320L311,323L313,326L312,329L310,331L311,333Z " data-fips="TZ10" data-hasc="TZ.MO" data-name="Morogoro" data-postal="MO" data-varname=""/><path d="M434,157L435,156L435,154L435,154L434,153L435,152L435,150L436,149L436,148L435,146L435,148L434,148L434,149L433,148L432,147L431,146L430,146L429,146L429,147L429,148L430,149L429,149L429,150L429,151L430,152L429,153L429,155L430,155L431,156L431,155L433,156L433,157Z " data-fips="TZ13" data-hasc="TZ.PN" data-name="Kaskazini-Pemba" data-postal="PN" data-varname="Pemba North"/><path d="M432,166L432,164L433,164L434,163L435,159L435,158L434,157L433,157L433,156L431,155L431,156L431,156L431,157L429,157L428,157L429,157L431,158L432,158L432,159L431,159L429,159L430,160L429,160L428,161L429,162L428,162L427,164L427,165L428,166L430,166L431,166Z " data-fips="TZ20" data-hasc="TZ.PS" data-name="Kusini-Pemba" data-postal="PS" data-varname="Pemba South"/><path d="M389,278L390,276L391,275L394,274L395,275L398,275L402,273L409,272L411,272L413,273L413,272L414,271L415,272L415,271L416,269L417,268L418,264L419,262L419,261L419,260L419,259L418,257L419,256L419,254L418,253L417,253L415,253L416,252L415,251L415,252L414,253L413,254L412,254L414,252L414,250L414,249L413,248L413,246L414,242L414,240L416,239L416,238L416,236L415,235L416,235L417,235L417,234L418,233L419,232L419,231L418,230L418,225L417,224L416,222L414,222L413,222L412,222L411,223L410,223L409,224L408,224L407,225L406,226L405,225L404,225L405,223L406,222L407,220L406,219L405,218L405,217L405,216L404,215L405,214L405,212L406,211L406,209L408,208L408,207L407,206L405,204L404,204L405,204L403,204L402,204L402,203L400,203L400,202L399,201L398,200L398,199L398,197L398,196L398,194L397,192L396,191L396,189L395,188L395,187L396,185L393,185L392,185L391,185L389,186L386,187L385,187L384,187L383,187L381,186L380,186L379,186L378,184L377,184L375,183L374,182L372,181L369,181L368,181L367,181L365,181L359,182L361,184L362,186L362,187L362,188L364,191L365,192L366,193L367,194L368,195L368,196L369,199L368,204L367,206L366,208L367,209L368,210L369,211L370,211L374,213L375,212L377,212L378,215L377,217L377,219L378,221L380,222L381,222L382,222L384,222L385,224L385,225L384,227L383,229L382,230L381,230L379,231L378,233L377,235L379,240L380,242L379,243L373,244L372,245L370,245L368,245L367,244L364,245L362,245L361,246L361,248L361,250L361,252L361,254L360,255L359,257L359,258L359,258L364,262L366,264L370,265L374,266L377,267L380,270L382,271L384,274L385,278L386,279L388,279Z M428,261L430,260L431,258L432,258L433,258L434,257L434,255L435,254L436,252L436,250L436,248L435,249L434,250L434,251L433,252L431,253L432,253L431,254L430,254L429,254L429,255L428,256L426,258L426,259L425,260L427,261Z " data-fips="TZ02" data-hasc="TZ.PW" data-name="Pwani" data-postal="PW" data-varname=""/><path d="M412,188L416,188L418,187L418,187L417,186L417,184L417,183L417,182L417,181L417,179L415,177L414,177L414,180L413,181L412,182L411,183L410,184L410,186L411,188L411,188Z " data-fips="TZ22" data-hasc="TZ.ZN" data-name="Kaskazini-Unguja" data-postal="ZN" data-varname="Zanzibar North"/><path d="M414,196L415,196L415,195L414,193L414,189L412,188L411,188L411,188L411,189L411,191L410,193L411,195L414,198Z " data-fips="TZ25" data-hasc="TZ.ZW" data-name="Zanzibar West" data-postal="ZW" data-varname="Mjini-Magharibi|Zanzibar Urban/West"/><path d="M311,236L312,234L311,232L311,230L311,228L313,225L316,223L316,222L316,215L317,212L318,210L317,209L318,210L319,208L320,206L321,203L322,202L324,199L323,190L323,188L322,185L319,184L317,183L316,181L315,178L314,177L311,176L309,174L308,172L307,171L305,169L303,167L302,166L301,164L302,162L301,160L302,158L303,156L304,153L306,144L306,137L306,136L305,134L304,132L304,130L304,118L294,121L293,122L292,123L291,125L289,125L288,125L287,126L286,125L285,126L283,128L280,130L279,130L279,131L280,133L280,134L278,137L275,142L274,144L273,144L268,143L268,145L268,146L267,147L258,153L258,154L259,155L259,157L259,158L259,160L260,161L261,164L262,165L263,166L263,167L264,169L265,169L265,171L266,172L268,174L268,175L267,176L266,177L266,178L266,180L265,181L263,184L263,188L262,192L263,195L263,196L264,198L264,199L263,200L263,204L263,210L262,212L258,213L258,216L262,222L266,222L267,221L268,221L269,221L270,220L272,221L274,221L275,222L275,223L277,223L279,224L282,226L283,226L284,226L287,226L288,227L290,227L292,228L294,227L295,228L296,228L300,229L301,230L302,231L303,232L303,233L304,234L304,235L305,235L306,235L308,235L310,235L310,237Z " data-fips="TZ03" data-hasc="TZ.DO" data-name="Dodoma" data-postal="DO" data-varname=""/><path d="M243,354L244,354L247,352L249,350L252,348L255,346L255,343L256,342L257,342L259,342L260,342L260,340L263,336L263,334L262,332L262,330L261,328L260,328L260,327L260,326L261,325L264,324L267,320L270,319L273,316L274,315L276,314L277,313L279,312L280,311L281,310L281,308L280,307L274,301L271,297L270,297L268,296L269,294L268,293L268,291L268,289L268,287L268,286L271,286L274,287L279,287L279,288L279,291L280,292L281,290L280,289L282,284L283,283L286,281L289,279L290,275L293,272L296,269L299,267L300,268L302,267L304,267L304,266L304,265L304,263L305,261L308,259L311,258L314,259L318,260L321,259L322,255L324,252L326,250L328,248L327,247L324,247L323,247L322,247L322,245L320,245L319,244L318,244L317,243L314,242L313,242L311,242L311,241L310,237L310,235L308,235L306,235L305,235L304,235L304,234L303,233L303,232L302,231L301,230L300,229L296,228L295,228L294,227L292,228L290,227L288,227L287,226L284,226L283,226L282,226L279,224L277,223L275,223L275,222L274,221L272,221L270,220L269,221L268,221L267,221L266,222L262,222L257,220L255,219L254,219L253,219L251,220L250,221L248,222L247,223L247,226L245,229L234,231L232,233L232,235L230,235L228,235L227,235L225,235L224,236L223,238L220,240L216,242L217,242L217,244L217,245L216,247L215,249L214,250L213,251L213,253L213,254L215,254L232,253L234,253L239,255L241,256L242,256L252,258L253,259L253,260L255,260L257,261L258,262L257,263L255,264L253,265L252,266L251,269L250,270L249,271L247,272L246,273L245,275L244,276L245,278L245,279L246,280L246,283L245,285L244,286L243,286L241,286L240,287L239,289L238,290L236,291L234,291L231,290L227,291L225,291L223,291L221,292L221,293L220,293L217,292L215,293L213,294L211,298L211,299L213,301L214,302L214,304L213,305L214,306L215,307L216,308L218,312L219,313L220,314L222,315L222,316L222,316L222,316L223,317L224,319L225,319L226,320L229,324L230,324L231,325L231,326L232,327L233,328L237,333L238,335L238,337L238,338L238,339L240,342L240,344L240,346L240,351L240,352L240,353L240,354L240,354L242,355Z " data-fips="TZ04" data-hasc="TZ.IR" data-name="Iringa" data-postal="IR" data-varname=""/><path d="M371,365L372,364L374,361L377,359L386,355L390,355L391,354L392,354L393,355L395,356L397,355L398,355L399,354L402,353L403,352L406,350L408,350L409,350L409,351L410,352L411,352L412,350L413,350L414,349L415,348L417,348L420,350L421,353L422,354L423,357L425,358L426,356L427,355L427,354L426,353L426,352L426,351L427,349L428,348L429,347L435,344L436,343L438,342L438,341L435,337L434,336L433,336L432,335L431,335L430,335L428,336L429,335L428,334L429,333L431,332L430,331L431,331L432,330L431,328L430,327L429,326L428,326L428,325L429,325L429,323L428,322L429,321L428,320L427,317L426,316L426,315L424,315L423,315L423,313L424,313L425,313L426,312L426,310L426,309L425,308L426,306L426,305L425,304L424,302L423,302L422,302L421,302L421,301L420,300L421,298L420,297L420,296L419,295L419,294L417,294L418,293L419,293L420,294L422,295L423,295L421,294L420,292L419,291L419,290L418,289L417,288L416,287L416,283L415,281L414,280L414,279L414,277L414,275L414,274L413,273L411,272L409,272L402,273L398,275L395,275L394,274L391,275L390,276L389,278L388,279L386,279L385,278L384,274L382,271L380,270L377,267L374,266L370,265L366,264L364,262L359,258L358,259L357,261L356,262L355,263L354,264L353,266L352,267L352,268L350,268L349,271L348,272L348,273L347,274L346,275L345,276L344,277L343,278L343,279L342,280L343,281L343,283L342,286L340,289L340,291L341,294L341,295L342,298L341,300L342,301L342,303L340,304L338,305L338,307L338,308L337,309L334,318L334,321L333,323L331,325L328,328L325,331L324,333L324,335L324,338L324,341L326,342L335,346L355,351L357,352L358,353L359,353L360,355L360,357L361,358L362,360L362,361L363,362L365,365Z " data-fips="TZ07" data-hasc="TZ.LI" data-name="Lindi" data-postal="LI" data-varname=""/><path d="M384,387L387,384L389,383L390,382L391,382L392,382L393,382L395,380L397,379L398,379L399,378L404,378L405,378L407,378L408,379L410,379L412,378L419,373L420,372L423,372L429,371L430,370L434,368L438,366L443,362L444,361L445,361L447,358L449,357L451,357L452,356L454,355L454,353L454,352L454,350L455,349L454,348L454,349L452,349L451,349L449,345L448,344L447,343L446,345L448,346L447,346L446,346L446,346L445,345L444,346L443,345L443,345L443,343L443,342L442,341L441,341L439,341L438,341L438,342L438,343L438,344L438,342L436,343L435,344L429,347L428,348L427,349L426,351L426,352L426,353L427,354L427,355L426,356L425,358L423,357L422,354L421,353L420,350L417,348L415,348L414,349L413,350L412,350L411,352L410,352L409,351L409,350L408,350L406,350L403,352L402,353L399,354L398,355L397,355L395,356L393,355L392,354L391,354L390,355L386,355L377,359L374,361L372,364L371,365L365,365L366,373L368,382L369,381L370,382L371,383L373,382L374,382L376,383L378,386L379,386L382,387L383,388Z " data-fips="TZ11" data-hasc="TZ.MT" data-name="Mtwara" data-postal="MT" data-varname=""/><path d="M315,399L316,398L317,398L319,397L320,395L322,393L323,393L325,394L329,393L330,393L330,394L331,395L332,396L333,397L337,398L338,398L340,397L341,397L342,398L344,399L345,399L346,398L347,397L348,397L350,396L351,396L353,395L354,394L357,393L358,392L358,390L358,389L359,388L359,386L360,384L363,383L365,382L368,382L366,373L365,365L363,362L362,361L362,360L361,358L360,357L360,355L359,353L358,353L357,352L355,351L335,346L326,342L324,341L324,338L324,335L324,333L325,331L328,328L331,325L333,323L334,321L334,318L331,319L328,322L327,322L324,324L322,326L319,329L316,331L313,333L311,333L310,331L312,329L313,326L311,323L310,320L310,319L310,318L309,318L309,320L307,323L306,324L302,325L300,325L297,325L296,325L295,324L294,324L292,326L292,327L290,328L288,327L283,328L282,326L282,324L283,324L286,320L287,319L287,317L287,316L288,315L289,314L290,312L289,310L289,309L289,307L288,305L286,307L284,309L283,310L281,310L280,311L279,312L277,313L276,314L274,315L273,316L270,319L267,320L264,324L261,325L260,326L260,327L260,328L261,328L262,330L262,332L263,334L263,336L260,340L260,342L259,342L257,342L256,342L255,343L255,346L252,348L249,350L247,352L244,354L243,354L242,355L240,354L240,354L240,355L241,356L242,356L242,358L243,359L243,361L243,362L243,363L243,364L243,366L242,368L241,370L241,371L241,373L241,375L242,376L244,378L244,379L245,380L246,381L247,382L246,383L247,385L248,384L251,385L252,386L252,387L253,389L254,390L254,391L254,393L269,393L272,394L273,394L274,393L274,394L275,394L276,394L277,394L280,393L280,392L281,391L281,390L284,389L286,387L287,387L288,388L290,388L291,389L291,390L292,391L293,391L295,392L296,392L297,393L298,394L299,396L298,397L299,398L301,398L303,398L304,398L306,397L310,397L311,398L312,399Z " data-fips="TZ14" data-hasc="TZ.RV" data-name="Ruvuma" data-postal="RV" data-varname=""/><path d="M220,240L223,238L224,236L225,235L227,235L228,235L230,235L232,235L232,233L234,231L245,229L247,226L247,223L248,222L250,221L251,220L253,219L254,219L255,219L257,220L258,216L258,213L262,212L263,210L263,204L263,200L264,199L264,198L263,196L263,195L262,192L263,188L263,184L265,181L266,180L266,178L266,177L267,176L268,175L268,174L266,172L265,171L265,169L264,169L263,167L263,166L262,165L261,164L260,161L259,160L259,158L259,157L259,155L258,154L258,153L267,147L268,146L268,145L268,143L266,142L265,140L262,139L261,138L261,137L261,135L258,134L257,131L255,129L252,128L251,126L252,122L254,118L256,116L256,114L253,111L249,106L247,104L245,104L244,105L238,109L236,109L235,109L234,110L233,111L231,112L229,115L228,116L228,117L227,117L226,117L225,117L223,121L221,124L217,130L216,133L217,136L217,140L215,143L215,145L216,147L216,148L215,151L216,153L216,154L217,155L219,156L221,157L222,158L223,159L226,162L227,163L226,165L225,166L222,168L221,171L221,172L223,173L223,174L222,176L221,177L221,178L221,181L219,188L219,192L219,193L219,194L217,196L214,198L213,200L212,200L210,202L206,206L203,207L201,209L201,214L201,218L200,221L201,222L202,223L202,225L202,227L203,229L205,229L206,230L207,232L208,233L208,234L210,234L211,236L212,238L212,239L213,240L215,241L216,242Z " data-fips="TZ16" data-hasc="TZ.SD" data-name="Singida" data-postal="SD" data-varname=""/><path d="M305,116L306,115L307,115L309,115L310,115L311,115L312,115L312,113L312,108L311,104L312,102L314,99L315,99L317,98L318,97L320,96L322,97L322,98L323,98L324,97L325,96L328,96L329,95L330,94L331,93L332,93L332,86L331,83L328,82L327,81L326,80L326,79L326,77L326,74L329,74L330,73L331,72L333,70L335,69L337,69L338,69L340,69L341,70L344,71L346,72L265,26L264,41L264,43L266,44L268,44L268,46L268,48L267,50L265,51L264,59L261,69L260,71L258,72L257,73L255,73L255,71L253,70L252,70L252,97L251,98L249,98L249,99L247,100L246,101L246,103L247,104L249,106L253,107L254,107L256,106L258,105L259,104L262,102L263,102L264,101L266,101L267,100L270,98L271,98L273,98L274,99L275,99L274,100L274,101L275,103L276,103L277,102L277,100L281,99L282,98L283,96L284,97L283,100L283,103L284,105L284,104L285,103L286,101L288,99L290,98L292,100L293,103L302,116L304,116Z " data-fips="TZ26" data-hasc="TZ.AS" data-name="Arusha" data-postal="AS" data-varname=""/><path d="M332,181L336,178L337,176L338,172L339,170L342,166L343,163L344,159L344,158L344,157L349,150L352,148L353,148L355,149L357,149L360,149L361,148L365,148L366,148L367,149L368,149L368,148L368,147L367,146L367,144L366,143L366,142L366,140L366,138L368,136L367,134L366,134L364,133L361,133L360,134L358,134L355,132L351,130L349,128L348,126L348,123L348,120L348,119L348,118L349,117L349,116L349,115L347,111L347,109L347,105L346,103L345,101L344,99L342,97L341,94L340,93L339,93L338,93L337,91L336,92L335,93L334,92L332,93L331,93L330,94L329,95L328,96L325,96L324,97L323,98L322,98L322,97L320,96L318,97L317,98L315,99L314,99L312,102L311,104L312,108L312,113L312,115L311,115L310,115L309,115L307,115L306,115L305,116L304,116L302,116L293,103L292,100L290,98L288,99L286,101L285,103L284,104L284,105L283,103L283,100L284,97L283,96L282,98L281,99L277,100L277,102L276,103L275,103L274,101L274,100L275,99L274,99L273,98L271,98L270,98L267,100L266,101L264,101L263,102L262,102L259,104L258,105L256,106L254,107L253,107L253,111L256,114L256,116L254,118L252,122L251,126L252,128L255,129L257,131L258,134L261,135L261,137L261,138L262,139L265,140L266,142L268,143L273,144L274,144L275,142L278,137L280,134L280,133L279,131L279,130L280,130L283,128L285,126L286,125L287,126L288,125L289,125L291,125L292,123L293,122L294,121L304,118L304,130L304,132L305,134L306,136L306,137L306,144L304,153L303,156L302,158L301,160L302,162L301,164L302,166L303,167L305,169L307,171L308,172L309,174L311,176L314,177L315,178L316,181L317,183L319,184L322,185L326,185Z " data-fips="TZ06" data-hasc="TZ.MY" data-name="Manyara" data-postal="MY" data-varname=""/><path d="M369,134L382,116L358,99L357,98L357,95L355,94L354,94L352,93L352,92L351,91L351,90L352,89L353,88L355,88L355,87L356,86L354,77L354,76L346,72L344,71L341,70L340,69L338,69L337,69L335,69L333,70L331,72L330,73L329,74L326,74L326,77L326,79L326,80L327,81L328,82L331,83L332,86L332,93L334,92L335,93L336,92L337,91L338,93L339,93L340,93L341,94L342,97L344,99L345,101L346,103L347,105L347,109L347,111L349,115L349,116L349,117L348,118L348,119L348,120L348,123L348,126L349,128L351,130L355,132L358,134L360,134L361,133L364,133L366,134L367,134L368,136Z " data-fips="TZ06" data-hasc="TZ.KL" data-name="Kilimanjaro" data-postal="KL" data-varname=""/><path d="M265,51L267,50L268,48L268,46L268,44L266,44L264,43L264,41L265,26L220,2L218,1L218,0L215,0L205,0L197,0L175,0L171,0L170,18L194,18L198,19L199,21L198,23L198,25L198,27L197,27L196,26L194,28L192,31L193,32L193,34L192,34L193,35L194,34L196,33L197,33L198,33L199,34L198,35L200,36L201,36L203,37L202,38L200,38L197,37L196,36L195,37L196,39L194,38L193,39L192,38L191,38L192,38L191,39L190,39L189,40L189,41L189,43L190,42L192,41L193,42L194,42L194,43L196,43L198,43L200,43L202,43L204,44L205,43L206,43L208,41L209,40L210,41L212,42L212,43L214,44L215,44L217,44L219,43L220,42L222,44L223,45L225,45L228,46L229,46L230,48L232,49L234,51L235,52L236,53L237,54L238,53L241,55L243,55Z " data-fips="TZ08" data-hasc="TZ.MA" data-name="Mara" data-postal="MA" data-varname=""/><path d="M337,189L337,188L339,187L340,185L341,185L343,184L343,179L344,178L345,179L345,179L346,179L348,180L349,180L349,182L352,185L353,185L354,184L356,185L357,184L357,183L359,183L359,182L365,181L367,181L368,181L369,181L372,181L374,182L375,183L377,184L378,184L379,186L380,186L381,186L383,187L384,187L385,187L386,187L389,186L391,185L392,185L393,185L396,185L396,185L397,184L397,181L397,180L398,178L399,177L400,176L400,174L399,173L401,172L402,170L403,168L403,166L403,165L404,164L405,163L406,157L405,158L406,156L407,154L409,153L408,151L407,151L408,150L409,150L408,147L408,146L409,146L410,144L410,146L410,147L412,144L412,143L411,142L410,141L412,140L412,139L411,137L382,116L369,134L368,136L366,138L366,140L366,142L366,143L367,144L367,146L368,147L368,148L368,149L367,149L366,148L365,148L361,148L360,149L357,149L355,149L353,148L352,148L349,150L344,157L344,158L344,159L343,163L342,166L339,170L338,172L337,176L336,178L332,181L332,185L333,186L334,186L334,187L334,188L335,190L336,190Z " data-fips="TZ18" data-hasc="TZ.TN" data-name="Tanga" data-postal="TN" data-varname=""/></g></svg>