<?xml version="1.0" ?><!DOCTYPE svg  PUBLIC '-//W3C//DTD SVG 1.1//EN'  'http://www.w3.org/Graphics/SVG/1.1/DTD/svg11.dtd'><svg enable_background="new 0 0 500 401" height="401px" style="stroke-linejoin: round; stroke:#000; fill:#f6f3f0;" version="1.1" viewBox="0 0 500 401" width="500px" xmlns="http://www.w3.org/2000/svg" xmlns:xlink="http://www.w3.org/1999/xlink"><defs><style type="text/css"><![CDATA[path { fill-rule: evenodd; }
#context path { fill: #eee; stroke: #bbb; } ]]></style></defs><metadata><views><view h="401" padding="0" w="500"><proj id="laea" lat0="-30.558" lon0="23.121"/><bbox h="154.99" w="179.43" x="928.01" y="898.07"/><llbbox lat0="-90" lat1="90" lon0="-180" lon1="180"/></view></views></metadata><g id="admin1"><path d="M134,338L136,338L137,338L140,338L142,336L143,335L143,333L143,332L144,330L146,330L148,329L149,329L151,328L152,325L153,323L154,323L155,322L156,321L158,320L159,320L160,319L161,318L162,316L164,315L166,316L167,315L169,316L170,316L172,316L173,315L174,313L176,311L177,310L176,308L176,306L177,305L177,304L178,304L181,296L182,295L187,297L188,298L189,299L190,301L193,302L195,303L196,303L198,304L200,304L201,304L202,305L202,306L203,307L207,304L207,303L209,300L211,299L212,298L216,298L218,297L220,298L223,300L223,301L224,302L225,301L226,301L227,300L229,299L230,301L233,300L235,300L237,299L242,299L242,294L243,292L243,289L247,289L249,289L250,289L251,288L252,287L253,287L255,286L257,285L261,283L266,284L266,282L267,281L268,279L269,278L268,277L269,275L269,274L269,272L270,271L269,269L269,265L268,264L267,263L266,263L264,263L263,262L263,261L262,260L261,260L259,258L257,255L257,254L255,253L254,252L253,251L251,246L250,245L249,244L248,244L247,243L246,241L244,241L243,239L242,239L241,238L240,237L238,235L238,233L240,229L247,215L250,209L253,201L252,200L253,198L253,196L254,195L255,192L254,191L255,190L256,189L256,188L257,185L257,184L257,184L255,185L253,179L258,172L256,172L251,171L251,170L250,169L249,168L248,169L248,170L248,172L249,173L249,174L249,176L248,177L247,177L247,178L246,179L246,180L246,181L245,183L244,184L244,185L241,182L242,181L241,180L240,179L239,178L240,177L241,176L241,175L241,172L241,171L232,173L231,171L231,170L230,168L230,166L230,165L230,161L229,160L228,161L229,162L228,163L226,163L226,164L226,165L225,165L224,165L223,166L221,166L220,166L219,165L217,164L214,163L214,163L212,162L211,161L209,161L208,160L207,160L204,157L203,156L201,156L201,154L201,153L201,152L201,150L203,149L202,148L201,145L201,144L202,142L202,141L202,139L200,138L199,137L198,137L196,136L195,136L194,136L192,135L192,133L192,132L192,131L192,121L190,121L190,121L189,122L188,123L187,124L186,124L185,125L184,126L182,128L181,128L179,129L178,131L178,132L177,134L176,136L174,137L172,138L171,139L167,139L166,140L166,142L166,143L165,144L164,145L162,145L161,145L158,145L156,144L155,144L152,145L151,145L148,146L144,145L143,144L142,144L139,144L138,145L135,146L135,145L134,145L134,143L133,142L133,140L134,138L133,137L133,136L133,134L133,132L134,131L135,129L137,127L138,126L138,125L139,122L138,120L138,118L138,115L137,113L136,112L135,109L134,108L134,107L133,107L134,106L134,105L133,103L133,101L132,101L132,100L132,99L130,98L130,97L129,97L129,96L129,95L128,94L127,93L127,91L126,90L125,88L121,85L119,83L117,83L117,82L115,81L115,80L114,80L117,195L116,196L115,196L114,196L112,198L110,198L109,199L105,200L105,201L104,202L103,205L102,205L99,206L98,206L97,207L97,207L97,209L98,211L97,211L96,212L94,213L93,213L92,214L91,213L90,212L88,211L83,210L77,211L76,212L75,212L74,212L72,212L71,212L68,212L67,213L64,212L63,212L61,210L60,210L59,209L55,208L54,209L52,209L51,209L51,207L50,207L49,207L47,207L46,208L45,207L45,205L45,203L44,203L44,202L43,201L43,200L43,199L44,198L45,197L44,196L44,195L43,193L43,192L42,192L40,193L38,192L38,191L38,189L37,188L36,188L35,186L34,187L33,188L32,188L31,188L30,188L29,191L28,191L29,193L28,193L28,194L27,194L27,195L27,196L28,198L27,199L27,200L26,201L25,202L24,201L24,202L22,203L21,204L19,205L19,206L20,207L22,209L22,211L22,212L23,214L25,215L27,217L27,219L30,221L30,222L30,223L30,224L31,225L32,227L32,228L33,229L35,232L36,235L36,236L36,237L37,239L37,241L38,243L39,244L39,245L41,249L41,252L42,253L42,254L44,257L44,258L44,259L44,260L46,263L47,264L49,267L50,268L49,269L50,270L52,272L52,273L53,275L54,278L57,281L58,283L58,284L59,285L60,285L60,282L62,280L62,278L63,276L64,274L65,272L67,273L68,273L69,274L70,273L71,272L73,270L74,268L74,266L75,264L75,263L77,264L77,263L78,262L80,262L82,264L83,264L84,265L85,267L86,268L88,269L90,270L90,274L89,275L90,277L90,279L91,285L91,286L92,288L92,289L93,292L93,293L94,295L94,296L95,297L94,299L95,302L95,304L94,305L94,307L96,307L97,308L98,307L99,307L100,306L100,309L101,310L102,311L103,311L105,311L105,312L106,312L106,314L106,315L107,316L107,317L106,319L105,320L105,321L106,323L107,325L107,328L108,330L110,329L109,328L109,327L110,325L110,324L111,324L113,324L113,323L115,321L117,321L119,321L121,319L123,317L124,315L125,316L126,317L126,318L124,321L123,322L123,324L123,326L124,328L126,331L126,333L127,334L128,335L130,337L131,338L132,339Z " data-fips="SF06" data-hasc="ZA.NC" data-name="Northern Cape" data-postal="NC" data-varname="Noord-Kaap"/><path d="M124,398L124,397L125,396L127,395L129,394L129,393L130,392L131,392L132,391L133,390L134,388L135,388L136,387L140,386L145,387L145,386L144,385L145,384L146,384L148,384L150,384L151,384L156,386L157,386L158,385L160,384L161,384L162,383L163,383L164,384L167,384L168,384L169,384L170,384L172,383L173,381L173,380L174,379L174,379L178,378L179,378L178,377L178,376L179,375L180,374L182,374L183,374L186,374L187,374L188,373L190,372L191,372L194,373L196,373L195,372L194,371L196,372L196,373L197,374L200,374L201,374L202,374L201,373L203,373L203,374L211,375L211,374L211,373L212,372L217,371L218,371L218,370L219,368L216,365L215,365L213,365L211,365L212,364L213,363L218,360L217,358L216,356L215,355L213,354L208,353L202,352L199,353L195,353L194,352L194,350L199,343L199,342L199,340L200,338L202,336L203,335L203,333L204,334L205,334L206,334L208,334L210,334L211,333L210,332L209,330L209,329L209,328L209,327L208,325L207,324L207,323L208,322L209,321L210,319L212,320L213,319L217,319L218,318L219,316L221,315L221,314L224,315L225,316L229,314L229,313L230,312L231,311L231,310L231,308L232,308L233,306L232,305L232,304L232,303L230,301L229,299L227,300L226,301L225,301L224,302L223,301L223,300L220,298L218,297L216,298L212,298L211,299L209,300L207,303L207,304L203,307L202,306L202,305L201,304L200,304L198,304L196,303L195,303L193,302L190,301L189,299L188,298L187,297L182,295L181,296L178,304L177,304L177,305L176,306L176,308L177,310L176,311L174,313L173,315L172,316L170,316L169,316L167,315L166,316L164,315L162,316L161,318L160,319L159,320L158,320L156,321L155,322L154,323L153,323L152,325L151,328L149,329L148,329L146,330L144,330L143,332L143,333L143,335L142,336L140,338L137,338L136,338L134,338L132,339L131,338L130,337L128,335L127,334L126,333L126,331L124,328L123,326L123,324L123,322L124,321L126,318L126,317L125,316L124,315L123,317L121,319L119,321L117,321L115,321L113,323L113,324L111,324L110,324L110,325L109,327L109,328L110,329L108,330L107,328L107,325L106,323L105,321L105,320L106,319L107,317L107,316L106,315L106,314L106,312L105,312L105,311L103,311L102,311L101,310L100,309L100,306L99,307L98,307L97,308L96,307L94,307L94,305L95,304L95,302L94,299L95,297L94,296L94,295L93,293L93,292L92,289L92,288L91,286L91,285L90,279L90,277L89,275L90,274L90,270L88,269L86,268L85,267L84,265L83,264L82,264L80,262L78,262L77,263L77,264L75,263L75,264L74,266L74,268L73,270L71,272L70,273L69,274L68,273L67,273L65,272L64,274L63,276L62,278L62,280L60,282L60,285L59,285L60,287L62,288L62,290L63,291L65,293L66,294L66,295L68,296L69,299L71,300L71,302L72,303L73,305L73,306L73,307L74,308L74,310L75,312L75,315L76,319L76,321L75,322L76,323L76,325L76,327L76,329L75,330L75,332L72,335L71,336L70,336L69,336L67,334L66,334L65,335L65,336L65,337L64,338L64,339L64,340L64,341L65,342L65,343L65,344L66,344L67,343L69,344L69,345L69,347L71,347L71,348L72,349L71,349L69,348L69,347L68,346L67,347L68,348L69,348L71,350L72,352L72,353L72,354L75,356L76,357L77,358L77,359L77,360L78,361L80,363L80,365L81,368L81,369L82,370L81,371L80,371L79,373L78,375L78,376L79,377L79,378L78,379L78,380L79,380L80,382L80,383L81,384L82,385L83,385L82,384L82,382L82,380L81,379L82,378L83,377L84,377L87,376L89,376L91,377L92,379L91,380L92,382L92,383L91,384L91,385L92,386L93,385L95,385L97,385L99,384L100,383L99,384L99,385L100,387L102,387L104,386L105,387L105,388L106,389L106,391L105,393L106,392L108,393L108,394L110,394L112,396L114,398L115,397L119,397L120,397L122,399L123,399Z " data-fips="SF09" data-hasc="ZA.WC" data-name="Western Cape" data-postal="WC" data-varname="Wes-Kaap"/><path d="M257,184L257,184L257,184L259,183L259,183L260,181L261,179L262,179L263,178L264,177L264,176L265,175L267,175L269,173L272,172L273,172L274,171L275,171L276,171L277,170L280,169L281,169L282,170L283,170L285,171L286,172L287,173L287,172L287,171L288,170L288,169L291,167L292,166L292,165L293,164L295,164L296,163L297,163L300,163L299,162L299,161L299,161L299,158L298,157L298,156L300,155L301,154L302,153L302,152L303,151L305,151L306,151L306,150L307,149L308,149L309,149L310,148L312,150L312,148L313,147L313,148L314,149L316,149L318,149L319,149L320,150L321,149L323,147L324,147L326,148L328,148L329,145L330,144L330,139L331,138L331,136L332,136L332,135L329,134L328,133L324,135L322,136L321,136L321,134L320,132L321,131L324,129L323,125L325,124L326,124L327,123L328,120L328,116L330,115L333,115L335,116L336,116L338,116L340,116L342,115L342,114L343,112L343,111L342,109L344,109L346,108L346,106L347,105L346,103L347,102L348,102L348,103L349,103L351,103L353,102L353,99L351,96L350,96L349,96L348,95L347,94L347,93L348,92L349,93L351,93L351,92L351,91L350,90L348,89L347,89L345,89L343,88L342,89L337,88L337,89L335,87L334,88L333,89L333,90L332,91L331,91L330,90L329,90L327,90L324,88L321,87L320,86L320,85L319,84L318,83L318,80L317,79L316,80L315,81L311,82L310,83L308,83L307,83L306,82L300,80L299,78L299,76L298,75L297,75L296,75L292,76L288,78L287,78L285,78L284,79L284,80L284,82L284,83L284,84L283,86L283,87L282,89L281,91L278,97L277,101L276,104L275,106L271,109L269,110L263,111L262,110L261,110L260,110L259,110L257,111L255,112L252,113L251,112L249,112L248,112L246,111L244,110L242,110L241,110L239,110L238,109L236,107L235,106L233,106L230,106L229,106L227,106L226,105L225,104L224,102L223,102L222,101L220,100L216,97L215,96L214,95L213,95L211,95L210,95L209,94L207,94L206,95L203,96L202,95L201,96L200,97L199,98L198,99L197,101L196,101L196,103L196,104L196,105L196,107L195,108L194,110L194,111L194,112L193,113L193,114L193,115L193,117L193,118L192,118L191,119L190,121L192,121L192,131L192,132L192,133L192,135L194,136L195,136L196,136L198,137L199,137L200,138L202,139L202,141L202,142L201,144L201,145L202,148L203,149L201,150L201,152L201,153L201,154L201,156L203,156L204,157L207,160L208,160L209,161L211,161L212,162L214,163L214,163L217,164L219,165L220,166L221,166L223,166L224,165L225,165L226,165L226,164L226,163L228,163L229,162L228,161L229,160L230,161L230,165L230,166L230,168L231,170L231,171L232,173L241,171L241,172L241,175L241,176L240,177L239,178L240,179L241,180L242,181L241,182L244,185L244,184L245,183L246,181L246,180L246,179L247,178L247,177L248,177L249,176L249,174L249,173L248,172L248,170L248,169L249,168L250,169L251,170L251,171L256,172L258,172L253,179L255,185Z " data-fips="SF06" data-hasc="ZA.NW" data-name="North West" data-postal="NW" data-varname="North-West|Noordwes"/><path d="M307,267L309,267L309,266L310,265L311,265L311,263L313,263L314,264L315,262L316,262L317,262L318,262L319,261L319,260L320,260L320,259L321,259L322,258L321,258L321,257L321,256L320,254L321,252L321,251L320,251L319,250L318,248L317,246L316,244L314,238L312,236L312,235L313,234L314,234L315,233L316,233L317,233L319,232L320,231L321,230L322,229L323,227L323,226L324,225L325,224L326,223L326,222L327,221L329,220L330,218L331,217L330,217L331,216L332,215L332,214L333,213L337,213L337,212L339,211L339,212L341,211L342,210L343,208L344,207L345,207L347,207L349,207L350,206L350,205L352,204L356,204L358,203L359,204L359,205L360,207L361,207L362,209L364,210L364,209L365,208L365,207L366,206L367,205L368,204L370,203L371,203L373,203L374,202L374,201L374,200L376,199L377,199L378,198L379,198L380,197L383,194L385,194L386,193L387,192L388,191L388,189L387,189L387,187L387,186L388,185L388,183L389,182L389,181L390,180L389,179L389,177L389,176L390,175L392,173L391,172L390,171L390,170L392,169L391,169L390,169L389,170L388,170L387,170L385,167L385,166L384,164L383,163L383,162L381,162L380,162L380,160L378,160L377,159L376,158L375,158L374,159L373,158L373,156L372,155L372,154L370,153L369,154L368,155L367,154L365,154L364,154L362,152L360,152L361,153L359,154L358,155L358,154L357,153L356,152L355,152L354,152L354,151L353,151L352,150L350,149L349,149L348,149L347,148L347,149L346,148L345,147L344,146L343,144L343,142L342,142L341,142L340,143L339,144L337,144L336,145L335,144L333,144L332,143L331,144L330,144L329,145L328,148L326,148L324,147L323,147L321,149L320,150L319,149L318,149L316,149L314,149L313,148L313,147L312,148L312,150L310,148L309,149L308,149L307,149L306,150L306,151L305,151L303,151L302,152L302,153L301,154L300,155L298,156L298,157L299,158L299,161L299,161L299,162L300,163L297,163L296,163L295,164L293,164L292,165L292,166L291,167L288,169L288,170L287,171L287,172L287,173L286,172L285,171L283,170L282,170L281,169L280,169L277,170L276,171L275,171L274,171L273,172L272,172L269,173L267,175L265,175L264,176L264,177L263,178L262,179L261,179L260,181L259,183L259,183L257,184L257,184L257,185L256,188L256,189L255,190L254,191L255,192L254,195L253,196L253,198L252,200L253,201L250,209L247,215L240,229L238,233L238,235L240,237L241,238L242,239L243,239L244,241L246,241L247,243L248,244L249,244L250,245L251,246L253,251L254,252L255,253L257,254L257,255L259,258L261,260L262,260L263,261L263,262L264,263L266,263L267,263L268,264L269,265L270,265L272,265L273,265L273,266L274,267L276,267L277,266L279,265L280,263L281,263L281,264L282,263L283,262L285,262L287,262L288,261L289,263L290,263L290,264L292,264L295,264L296,265L296,266L298,267L300,267L301,267L302,268L303,267L304,267L306,267L306,268Z " data-fips="SF07" data-hasc="ZA.FS" data-name="Orange Free State" data-postal="FS" data-varname="Free State|Vrystaat"/><path d="M350,149L351,148L352,147L353,146L353,145L354,143L355,142L356,141L357,141L358,140L359,139L361,138L364,138L365,137L368,135L367,132L363,133L362,132L360,132L360,130L358,128L358,127L357,126L356,124L358,124L359,124L360,122L361,121L364,122L366,122L368,122L368,121L369,118L370,118L371,117L371,115L371,114L372,113L372,111L374,110L374,108L375,107L376,106L377,105L378,104L379,104L380,102L380,101L379,101L377,101L374,102L372,101L371,102L369,102L368,101L369,100L369,99L369,98L369,96L370,97L371,96L371,95L370,94L369,94L369,93L366,93L365,94L362,95L363,96L364,97L363,98L361,98L360,98L359,99L357,100L355,99L353,99L353,102L351,103L349,103L348,103L348,102L347,102L346,103L347,105L346,106L346,108L344,109L342,109L343,111L343,112L342,114L342,115L340,116L338,116L336,116L335,116L333,115L330,115L328,116L328,120L327,123L326,124L325,124L323,125L324,129L321,131L320,132L321,134L321,136L322,136L324,135L328,133L329,134L332,135L332,136L331,136L331,138L330,139L330,144L331,144L332,143L333,144L335,144L336,145L337,144L339,144L340,143L341,142L342,142L343,142L343,144L344,146L345,147L346,148L347,149L347,148L348,149L349,149Z " data-fips="SF08" data-hasc="ZA.GT" data-name="Gauteng" data-postal="GT" data-varname="Pretoria/Witwatersrand/Vaal"/><path d="M388,170L389,170L390,169L391,169L392,169L393,169L394,168L394,167L395,167L397,167L399,167L400,167L402,167L403,167L405,166L406,165L408,165L409,165L409,164L410,165L411,166L413,166L415,166L416,165L418,165L419,165L420,166L421,167L423,167L424,167L425,167L426,168L428,168L430,167L431,168L432,167L434,165L431,164L430,163L429,161L426,158L426,156L426,154L426,153L425,151L424,150L423,150L422,150L422,148L422,140L423,137L428,132L430,128L432,125L433,123L439,118L440,118L442,118L447,122L451,125L452,125L453,126L455,127L456,126L455,122L456,120L457,117L458,116L458,115L458,112L458,111L458,109L459,107L460,82L461,80L461,77L460,75L459,72L458,69L458,67L458,62L458,62L457,63L456,62L454,64L453,65L452,64L452,63L451,64L450,65L449,64L448,64L447,64L446,64L445,64L444,64L442,65L441,65L440,65L444,66L446,66L447,68L446,69L446,71L443,75L444,77L443,78L445,79L445,80L449,82L449,84L448,84L447,85L446,86L445,86L443,86L442,87L442,89L442,90L443,90L445,91L445,92L444,94L442,94L440,94L439,94L438,95L434,95L435,92L436,92L437,92L437,90L437,89L436,87L435,86L434,86L435,85L437,84L436,83L435,83L434,82L434,80L432,79L431,78L428,78L427,77L425,75L425,76L424,78L422,78L421,79L420,80L419,80L417,80L414,79L413,79L412,79L411,79L410,80L409,79L408,79L406,80L406,82L407,84L407,85L406,86L405,86L401,89L398,92L396,93L396,94L397,96L396,97L393,97L392,97L390,97L390,96L389,95L387,94L387,92L385,91L384,90L385,89L385,88L384,87L385,86L386,86L387,85L386,83L384,84L383,85L381,85L380,86L379,87L378,89L376,90L375,87L373,86L372,86L371,88L369,88L367,88L366,88L365,89L362,90L362,91L361,92L360,92L359,93L358,94L357,94L355,95L355,96L356,96L357,96L358,96L360,95L362,95L365,94L366,93L369,93L369,94L370,94L371,95L371,96L370,97L369,96L369,98L369,99L369,100L368,101L369,102L371,102L372,101L374,102L377,101L379,101L380,101L380,102L379,104L378,104L377,105L376,106L375,107L374,108L374,110L372,111L372,113L371,114L371,115L371,117L370,118L369,118L368,121L368,122L366,122L364,122L361,121L360,122L359,124L358,124L356,124L357,126L358,127L358,128L360,130L360,132L362,132L363,133L367,132L368,135L365,137L364,138L361,138L359,139L358,140L357,141L356,141L355,142L354,143L353,145L353,146L352,147L351,148L352,150L353,151L354,151L354,152L355,152L356,152L357,153L358,154L358,155L359,154L361,153L360,152L362,152L364,154L365,154L367,154L368,155L369,154L370,153L372,154L372,155L373,156L373,158L374,159L375,158L376,158L377,159L378,160L380,160L380,162L381,162L383,162L383,163L384,164L385,166L385,167L387,170Z " data-fips="SF02" data-hasc="ZA.MP" data-name="Mpumalanga" data-postal="MP" data-varname="Eastern Transvaal"/><path d="M359,99L360,98L361,98L363,98L364,97L363,96L362,95L360,95L358,96L357,96L356,96L355,96L355,95L357,94L358,94L359,93L360,92L361,92L362,91L362,90L365,89L366,88L367,88L369,88L371,88L372,86L373,86L375,87L376,90L378,89L379,87L380,86L381,85L383,85L384,84L386,83L387,85L386,86L385,86L384,87L385,88L385,89L384,90L385,91L387,92L387,94L389,95L390,96L390,97L392,97L393,97L396,97L397,96L396,94L396,93L398,92L401,89L405,86L406,86L407,85L407,84L406,82L406,80L408,79L409,79L410,80L411,79L412,79L413,79L414,79L417,80L419,80L420,80L421,79L422,78L424,78L425,76L425,75L427,77L428,78L431,78L432,79L434,80L434,82L435,83L436,83L437,84L435,85L434,86L435,86L436,87L437,89L437,90L437,92L436,92L435,92L434,95L438,95L439,94L440,94L442,94L444,94L445,92L445,91L443,90L442,90L442,89L442,87L443,86L445,86L446,86L447,85L448,84L449,84L449,82L445,80L445,79L443,78L444,77L443,75L446,71L446,69L447,68L446,66L444,66L440,65L441,65L442,65L444,64L445,64L446,64L447,64L448,64L449,64L450,65L451,64L452,63L452,64L453,65L454,64L456,62L457,63L458,62L458,62L458,62L458,61L456,59L455,58L454,55L453,51L453,50L450,47L449,46L449,44L450,36L445,12L444,10L442,10L442,10L440,9L439,9L438,9L437,9L434,8L432,7L431,7L427,7L426,8L425,8L424,8L422,7L421,7L419,8L418,8L417,8L416,8L415,7L414,6L413,6L411,6L410,6L409,5L408,5L407,4L406,3L405,3L403,2L402,2L400,0L397,0L397,0L395,0L395,0L394,1L393,1L391,1L389,1L388,1L387,1L385,1L384,1L383,2L379,2L378,3L377,4L376,5L376,8L375,9L373,9L372,9L372,10L371,11L369,11L367,12L365,12L364,12L363,13L361,12L359,12L358,13L356,14L355,15L353,15L352,17L352,18L352,19L351,19L350,20L349,21L349,22L348,23L347,24L346,24L345,25L346,26L345,27L344,28L343,28L341,29L341,30L340,31L340,32L339,32L338,31L337,32L336,32L335,33L335,34L334,35L334,36L332,37L331,37L330,38L329,37L328,38L327,37L327,38L326,39L325,40L323,40L323,41L322,41L321,41L321,42L320,43L319,44L319,45L319,45L318,45L317,46L316,47L316,48L315,50L316,51L313,60L313,61L312,64L311,65L309,66L308,67L306,68L304,69L303,70L302,71L301,74L299,76L299,78L300,80L306,82L307,83L308,83L310,83L311,82L315,81L316,80L317,79L318,80L318,83L319,84L320,85L320,86L321,87L324,88L327,90L329,90L330,90L331,91L332,91L333,90L333,89L334,88L335,87L337,89L337,88L342,89L343,88L345,89L347,89L348,89L350,90L351,91L351,92L351,93L349,93L348,92L347,93L347,94L348,95L349,96L350,96L351,96L353,99L355,99L357,100Z " data-fips="SF05" data-hasc="ZA.NP" data-name="Limpopo" data-postal="NP" data-varname="Noordelike Provinsie|Northern Transvaal|Northern Province"/><path d="M399,282L401,280L402,279L402,278L408,270L409,267L410,266L415,259L416,256L418,254L419,253L422,250L423,249L421,249L422,248L423,248L422,247L423,246L427,239L431,233L432,233L433,231L434,231L436,229L437,228L438,227L444,221L444,220L446,220L447,220L448,220L451,218L453,216L452,217L452,216L454,216L457,213L458,212L460,211L463,209L463,208L464,206L464,205L464,204L465,203L465,202L468,197L470,190L470,188L470,187L471,186L473,177L477,169L477,167L478,166L479,165L479,164L480,162L481,157L481,156L466,155L461,154L459,154L459,154L457,153L456,154L454,162L454,168L454,169L441,168L440,167L434,165L432,167L431,168L430,167L428,168L426,168L425,167L424,167L423,167L421,167L420,166L419,165L418,165L416,165L415,166L413,166L411,166L410,165L409,164L409,165L408,165L406,165L405,166L403,167L402,167L400,167L399,167L397,167L395,167L394,167L394,168L393,169L392,169L390,170L390,171L391,172L392,173L390,175L389,176L389,177L389,179L390,180L389,181L389,182L388,183L388,185L387,186L387,187L387,189L388,189L388,191L387,192L386,193L385,194L383,194L380,197L379,198L378,198L377,199L376,199L374,200L374,201L374,202L373,203L371,203L370,203L368,204L367,205L366,206L365,207L365,208L364,209L364,210L365,211L366,213L367,214L368,214L369,215L369,216L370,217L371,217L374,220L376,220L376,222L377,223L377,224L378,225L379,227L379,228L379,229L378,230L378,231L377,232L375,232L374,234L374,235L374,236L374,237L372,238L371,239L370,240L370,241L369,243L370,244L370,245L370,247L369,247L366,248L367,249L368,250L369,252L369,253L368,254L367,254L366,255L366,256L365,256L364,257L363,258L362,259L360,258L359,261L359,262L359,264L359,265L360,265L361,266L365,266L365,265L367,267L368,268L372,269L373,270L374,270L375,270L377,270L378,269L381,271L382,272L383,272L384,272L385,273L386,273L387,273L388,274L389,275L390,275L391,276L391,277L392,277L393,278L394,279L395,279L395,281L395,282L395,283L396,284L397,285Z M391,268L390,268L389,267L387,266L386,266L384,266L382,266L381,262L380,261L380,258L379,256L378,255L378,254L378,253L379,252L379,250L380,250L381,250L382,251L384,252L385,252L388,253L389,253L390,255L391,256L391,257L392,258L391,258L392,259L393,260L393,261L394,261L394,262L395,263L396,264L395,264L394,264L394,265L393,266L392,268Z " data-fips="SF03" data-hasc="ZA.NL" data-name="KwaZulu-Natal" data-postal="NL" data-varname="Natal and Zululand"/><path d="M250,377L250,376L251,375L252,374L252,372L253,372L254,371L257,371L259,371L261,372L262,372L264,373L265,373L267,373L270,374L271,374L272,373L271,372L270,371L270,370L271,368L271,367L272,366L273,365L275,364L277,364L279,364L283,364L286,365L287,365L288,365L290,365L292,366L293,366L294,365L297,364L298,363L301,362L302,362L303,361L306,360L307,360L310,359L310,358L311,357L313,356L316,354L317,354L320,352L321,351L322,350L324,349L325,348L328,346L329,345L330,345L332,343L332,343L334,342L337,339L338,338L339,336L341,336L342,335L344,334L345,333L347,332L350,329L351,328L352,327L353,326L353,326L357,322L359,321L362,318L365,314L366,313L367,312L369,311L369,310L370,309L370,308L371,307L372,306L373,305L374,305L374,303L375,303L376,302L378,302L379,300L381,300L382,299L384,296L385,296L387,295L391,291L393,290L395,288L397,285L396,284L395,283L395,282L395,281L395,279L394,279L393,278L392,277L391,277L391,276L390,275L389,275L388,274L387,273L386,273L385,273L384,272L383,272L382,272L381,271L378,269L377,270L375,270L374,270L373,270L372,269L368,268L367,267L365,265L365,266L361,266L360,265L359,265L359,264L359,262L359,261L360,258L362,259L363,258L364,257L365,256L366,256L366,255L367,254L368,254L369,253L369,252L368,250L367,249L366,248L365,249L362,251L360,251L358,252L357,252L355,252L353,252L351,253L350,253L348,253L347,255L346,256L345,256L344,257L344,258L345,259L344,260L341,262L342,264L341,266L340,266L340,267L339,268L336,268L335,267L334,267L333,267L332,267L330,266L329,264L327,263L327,262L326,261L325,259L324,259L323,258L323,257L322,257L321,257L321,258L322,258L321,259L320,259L320,260L319,260L319,261L318,262L317,262L316,262L315,262L314,264L313,263L311,263L311,265L310,265L309,266L309,267L307,267L306,268L306,267L304,267L303,267L302,268L301,267L300,267L298,267L296,266L296,265L295,264L292,264L290,264L290,263L289,263L288,261L287,262L285,262L283,262L282,263L281,264L281,263L280,263L279,265L277,266L276,267L274,267L273,266L273,265L272,265L270,265L269,265L269,269L270,271L269,272L269,274L269,275L268,277L269,278L268,279L267,281L266,282L266,284L261,283L257,285L255,286L253,287L252,287L251,288L250,289L249,289L247,289L243,289L243,292L242,294L242,299L237,299L235,300L233,300L232,303L232,304L232,305L233,306L232,308L231,308L231,310L231,311L230,312L229,313L229,314L225,316L224,315L221,314L221,315L219,316L218,318L217,319L213,319L212,320L210,319L209,321L208,322L207,323L207,324L208,325L209,327L209,328L209,329L209,330L210,332L211,333L210,334L208,334L206,334L205,334L204,334L203,333L203,335L202,336L200,338L199,340L199,342L199,343L194,350L194,352L195,353L199,353L202,352L208,353L213,354L215,355L216,356L217,358L218,360L213,363L212,364L211,365L213,365L215,365L216,365L219,368L218,370L218,371L223,372L225,373L227,373L232,374L234,375L238,376L239,376L240,377L243,378L245,377L247,378L248,378L250,378Z M392,268L393,266L394,265L394,264L395,264L396,264L395,263L394,262L394,261L393,261L393,260L392,259L391,258L392,258L391,257L391,256L390,255L389,253L388,253L385,252L384,252L382,251L381,250L380,250L379,250L379,252L378,253L378,254L378,255L379,256L380,258L380,261L381,262L382,266L384,266L386,266L387,266L389,267L390,268L391,268Z " data-fips="SF01" data-hasc="ZA.EC" data-name="Eastern Cape" data-postal="EC" data-varname="Oos-Kaap"/></g></svg>