<?xml version="1.0" ?><!DOCTYPE svg  PUBLIC '-//W3C//DTD SVG 1.1//EN'  'http://www.w3.org/Graphics/SVG/1.1/DTD/svg11.dtd'><svg enable_background="new 0 0 500 401" height="401px" style="stroke-linejoin: round; stroke:#000; fill:#f6f3f0;" version="1.1" viewBox="0 0 500 401" width="500px" xmlns="http://www.w3.org/2000/svg" xmlns:xlink="http://www.w3.org/1999/xlink"><defs><style type="text/css"><![CDATA[path { fill-rule: evenodd; }
#context path { fill: #eee; stroke: #bbb; } ]]></style></defs><metadata><views><view h="401" padding="0" w="500"><proj id="laea" lat0="-19.0" lon0="29.872"/><bbox h="83.76" w="91.77" x="945.37" y="958.23"/><llbbox lat0="-90" lat1="90" lon0="-180" lon1="180"/></view></views></metadata><g id="admin1"><path d="M357,125L358,125L359,124L360,123L360,121L361,115L360,115L360,114L361,112L362,110L363,109L373,111L371,116L371,118L372,119L374,118L376,119L377,118L381,115L382,115L382,114L383,113L384,111L389,109L390,107L391,106L396,101L397,100L397,99L397,96L397,95L397,94L398,92L400,92L401,91L402,89L403,88L404,88L405,87L406,84L406,82L407,81L407,80L408,79L409,78L411,78L412,77L412,74L413,73L414,71L416,70L418,70L419,70L420,70L422,70L423,70L424,69L425,68L426,68L429,68L431,68L433,66L435,66L436,65L444,67L446,67L449,68L450,68L451,67L453,65L452,65L451,64L450,62L450,61L449,59L428,50L424,49L412,49L407,48L406,48L405,47L405,45L404,43L401,42L400,41L397,37L395,36L394,35L385,35L383,33L382,33L381,33L379,33L378,32L377,32L377,31L376,30L375,29L374,28L373,26L372,25L371,25L370,24L364,23L362,23L360,24L359,24L358,24L356,26L354,26L353,26L352,25L350,23L347,23L322,23L321,1L321,1L319,2L317,2L316,1L316,2L316,5L317,7L317,8L317,10L301,23L302,24L303,25L304,26L304,28L304,29L305,30L305,32L306,32L307,32L307,34L305,35L304,36L304,37L304,39L304,41L303,42L303,42L302,46L303,46L304,46L305,44L306,44L308,44L309,43L311,42L311,41L311,39L312,39L314,38L315,38L316,39L317,41L318,43L322,43L323,44L323,46L323,47L322,49L322,51L322,52L321,54L321,55L320,59L321,59L322,61L323,62L325,62L327,64L328,66L328,67L329,67L329,68L330,69L330,71L329,72L328,73L329,78L329,79L330,81L329,82L330,83L330,84L331,85L333,85L334,85L335,85L336,84L337,85L338,85L339,85L340,85L340,86L339,92L338,93L338,94L337,95L337,96L337,97L335,101L334,103L335,106L335,108L334,113L334,115L343,115L343,116L342,118L343,119L346,120L349,122L350,122L351,121L352,121L354,124L355,125L356,125Z " data-fips="ZI03" data-hasc="ZW.MC" data-name="Mashonaland Central" data-postal="MC" data-varname=""/><path d="M360,143L361,143L362,142L362,140L363,139L363,138L363,137L363,136L365,135L366,134L366,133L367,132L367,131L367,130L366,129L366,127L366,126L366,125L366,124L365,123L363,123L362,122L361,121L360,121L360,123L359,124L358,125L357,125L356,125L355,125L354,124L353,126L352,128L350,128L349,129L349,130L350,131L349,133L350,134L351,135L351,136L350,137L349,139L351,139L353,140L356,142L357,143L359,143Z " data-fips="ZI10" data-hasc="ZW.HA" data-name="Harare" data-postal="HA" data-varname=""/><path d="M215,272L216,272L217,270L216,269L215,268L213,268L212,268L211,268L210,267L211,266L212,265L212,263L211,261L212,260L215,262L217,262L218,261L219,261L220,260L220,261L220,263L221,263L222,263L223,264L225,263L225,265L226,266L225,267L226,268L227,269L227,270L226,271L225,271L224,274L226,274L227,272L228,271L229,270L235,263L234,261L235,260L237,259L242,256L243,254L242,253L241,249L242,248L245,249L247,248L248,247L248,246L249,245L249,244L249,241L249,240L248,239L247,238L247,237L249,235L250,234L250,232L250,231L248,229L249,228L250,228L252,228L253,229L254,229L255,229L249,221L250,219L250,218L249,217L244,211L243,210L243,208L244,207L244,205L244,204L242,202L241,201L240,200L240,199L237,184L237,183L237,182L240,182L250,177L251,176L251,175L249,174L227,174L226,173L224,173L223,174L221,174L218,174L215,175L212,175L211,174L208,174L206,175L205,175L200,174L198,174L195,174L193,173L191,174L189,174L188,173L188,171L188,153L190,153L193,152L192,151L191,151L190,151L190,149L191,149L191,147L191,146L190,144L189,144L188,144L188,142L188,141L188,140L189,140L189,139L190,137L191,136L191,135L191,134L192,131L191,128L191,127L192,126L194,125L195,125L196,125L197,124L198,121L198,120L198,119L198,117L199,116L199,115L199,113L199,112L200,111L200,110L200,108L201,106L200,103L198,102L197,101L196,100L196,99L195,98L195,96L195,95L195,94L194,93L194,92L194,90L193,90L192,90L191,89L191,88L190,88L189,87L189,86L189,83L188,82L188,81L189,79L188,74L179,78L176,80L174,82L172,86L166,94L166,95L165,96L165,99L164,101L163,104L160,107L154,112L140,128L139,129L139,131L139,132L137,134L135,137L134,138L131,139L128,140L126,141L125,141L120,143L118,143L117,144L115,146L114,146L110,145L110,144L109,144L107,142L106,142L105,141L102,141L98,138L95,138L93,138L92,137L88,137L87,136L86,136L84,138L83,138L82,138L80,139L80,140L79,140L77,141L73,143L71,143L67,140L67,139L68,138L67,137L64,136L63,135L62,134L61,133L59,133L57,132L56,132L53,133L49,134L48,135L47,135L42,135L40,134L38,134L37,134L35,132L34,131L31,137L31,138L32,140L33,142L34,144L36,148L38,149L39,150L41,152L42,154L44,158L45,159L46,161L47,162L48,165L48,167L52,170L54,172L55,172L58,176L59,178L61,179L63,180L63,181L63,182L64,187L66,191L73,197L75,201L75,203L74,205L74,206L74,207L74,209L75,209L76,211L77,213L79,216L84,231L86,233L88,234L90,235L94,235L95,236L96,237L95,238L95,239L96,240L97,240L99,241L100,243L101,244L102,245L105,245L106,245L108,247L109,248L109,249L110,250L111,251L112,251L114,252L115,253L116,252L119,251L129,248L131,248L133,248L140,247L142,247L143,248L145,248L146,248L148,248L149,247L150,247L153,247L154,247L155,248L158,250L159,250L161,250L162,250L163,252L164,253L164,254L165,256L166,257L167,258L169,261L170,261L171,262L175,266L176,267L178,268L178,268L180,269L182,269L184,268L184,267L184,265L186,262L188,265L191,264L194,264L196,264L197,265L198,265L199,266L200,267L200,269L201,270L202,271L203,272L204,273L205,274L205,275L206,277L207,278Z " data-fips="ZI06" data-hasc="ZW.MN" data-name="Matabeleland North" data-postal="MN" data-varname=""/><path d="M281,318L284,318L287,318L288,318L289,318L296,312L297,312L298,312L299,313L300,313L301,314L302,315L303,316L304,317L306,317L307,318L308,319L309,319L310,319L312,319L313,318L314,318L316,319L317,319L322,314L323,312L323,307L324,306L324,304L325,303L325,301L325,300L326,299L326,298L325,297L324,296L324,295L324,293L324,291L324,290L321,287L321,285L320,284L319,283L318,282L317,282L316,281L316,279L314,279L313,278L312,277L312,276L312,274L312,273L312,272L312,270L310,269L309,269L307,270L307,268L307,266L308,264L309,262L308,261L309,260L313,258L322,257L322,256L323,255L324,254L324,252L324,251L324,250L325,249L331,249L332,250L334,250L335,250L337,250L338,249L337,248L337,247L337,246L338,244L338,242L339,237L339,236L338,234L339,231L339,225L340,225L341,224L340,223L339,223L339,222L346,215L345,214L344,214L343,213L342,212L341,211L340,210L339,209L339,207L339,206L339,205L339,204L338,203L337,201L336,199L337,198L335,197L334,197L332,197L331,197L329,195L328,195L325,194L324,193L323,192L322,192L317,189L315,188L314,188L313,187L311,187L310,185L308,184L306,184L304,184L303,183L301,182L300,182L297,181L296,182L295,182L293,182L291,181L290,181L289,180L288,179L287,179L286,179L285,178L284,177L282,177L281,177L279,177L276,175L275,175L274,174L274,172L274,171L275,168L275,167L275,165L276,163L276,162L273,161L266,156L264,156L263,155L262,154L261,153L259,151L258,150L257,147L256,146L255,145L255,144L255,143L254,141L254,140L254,139L255,138L257,134L257,133L258,132L259,131L259,129L260,128L261,127L260,126L260,124L261,123L262,122L262,121L262,119L261,117L261,116L261,115L262,114L263,113L263,112L265,111L265,109L264,109L263,109L259,104L259,102L258,101L257,100L256,100L255,100L253,100L249,98L248,98L247,97L245,96L241,94L240,93L240,92L239,91L239,90L238,89L236,91L235,91L233,91L232,91L229,92L227,93L226,94L225,95L224,95L223,95L221,98L220,99L220,100L217,103L216,104L215,105L213,104L212,105L211,104L209,104L204,106L202,106L201,106L200,108L200,110L200,111L199,112L199,113L199,115L199,116L198,117L198,119L198,120L198,121L197,124L196,125L195,125L194,125L192,126L191,127L191,128L192,131L191,134L191,135L191,136L190,137L189,139L189,140L188,140L188,141L188,142L188,144L189,144L190,144L191,146L191,147L191,149L190,149L190,151L191,151L192,151L193,152L190,153L188,153L188,171L188,173L189,174L191,174L193,173L195,174L198,174L200,174L205,175L206,175L208,174L211,174L212,175L215,175L218,174L221,174L223,174L224,173L226,173L227,174L249,174L251,175L251,176L250,177L240,182L237,182L237,183L237,184L240,199L240,200L241,201L242,202L244,204L244,205L244,207L243,208L243,210L244,211L249,217L250,218L250,219L249,221L259,230L259,231L260,233L262,236L263,237L263,238L264,240L266,243L267,244L267,245L266,248L267,249L267,251L269,250L270,250L271,250L275,252L278,254L281,253L282,254L282,256L283,256L287,256L288,256L289,258L290,257L292,260L292,261L288,269L288,273L284,282L284,283L284,284L283,286L282,288L281,288L278,287L278,290L278,292L277,293L276,294L277,295L278,296L279,297L281,297L278,311L269,317L270,318L272,318L273,319L275,319L277,319Z " data-fips="ZI02" data-hasc="ZW.MI" data-name="Midlands" data-postal="MI" data-varname=""/><path d="M349,213L349,212L349,210L350,210L351,210L351,209L352,208L355,209L355,210L354,211L354,212L354,214L357,214L365,214L371,213L371,210L372,209L372,206L373,205L375,205L376,206L378,206L379,205L380,205L381,207L382,208L383,208L384,209L385,207L386,206L387,205L387,203L388,202L388,201L389,201L391,202L392,202L396,202L398,202L400,205L400,205L402,206L405,207L406,207L408,207L409,207L409,206L409,204L409,203L409,202L409,199L409,198L408,196L407,196L407,195L406,189L404,186L403,186L401,185L401,184L400,182L399,181L398,180L398,179L397,178L397,176L397,175L397,174L397,172L396,171L397,170L397,169L397,168L398,167L399,167L402,166L402,165L402,163L403,162L403,160L403,159L403,157L405,154L406,152L406,151L419,137L419,135L420,133L420,132L422,131L423,131L425,130L425,129L426,128L427,127L429,126L431,123L432,123L434,122L435,122L436,122L437,121L438,120L440,119L441,119L443,118L444,118L446,115L447,114L447,113L448,112L450,112L451,111L452,110L452,109L454,105L458,102L460,100L464,99L466,99L465,96L465,93L463,89L458,79L462,75L463,74L464,72L466,66L465,64L464,65L462,66L460,66L457,65L455,65L453,65L451,67L450,68L449,68L446,67L444,67L436,65L435,66L433,66L431,68L429,68L426,68L425,68L424,69L423,70L422,70L420,70L419,70L418,70L416,70L414,71L413,73L412,74L412,77L411,78L409,78L408,79L407,80L407,81L406,82L406,84L405,87L404,88L403,88L402,89L401,91L400,92L398,92L397,94L397,95L397,96L397,99L397,100L396,101L391,106L390,107L389,109L384,111L383,113L382,114L382,115L381,115L377,118L376,119L374,118L372,119L371,118L371,116L373,111L363,109L362,110L361,112L360,114L360,115L361,115L360,121L361,121L362,122L363,123L365,123L366,124L366,125L366,126L366,127L366,129L367,130L367,131L367,132L366,133L366,134L365,135L363,136L363,137L363,138L363,139L362,140L362,142L361,143L360,143L359,143L357,143L356,142L353,140L351,139L349,139L347,137L345,136L344,136L344,138L345,139L344,140L343,141L343,143L343,145L342,146L342,149L341,151L340,153L338,153L338,155L338,157L339,158L341,160L343,162L343,164L342,165L342,166L341,175L340,176L338,178L335,182L333,183L333,184L332,184L331,183L329,184L328,185L327,185L325,183L324,180L323,181L321,186L320,190L322,192L323,192L324,193L325,194L328,195L329,195L331,197L332,197L334,197L335,197L337,198L336,199L337,201L338,203L339,204L339,205L339,206L339,207L339,209L340,210L341,211L342,212L343,213L344,214L345,214L346,215Z " data-fips="ZI04" data-hasc="ZW.ME" data-name="Mashonaland East" data-postal="ME" data-varname=""/><path d="M433,336L429,328L429,327L428,326L427,325L433,318L435,316L436,313L436,312L435,299L435,297L435,294L437,292L439,292L442,292L444,292L446,290L447,288L449,283L456,276L456,274L457,272L456,270L458,268L458,265L459,265L461,263L461,262L462,261L465,261L464,259L465,255L466,252L466,249L466,248L466,246L465,245L464,245L463,244L462,243L463,240L463,239L462,239L461,239L459,241L458,241L456,241L455,240L455,239L455,238L455,236L455,235L456,231L456,230L455,228L454,228L452,228L452,226L452,224L452,222L454,219L455,218L456,217L456,216L456,215L457,212L458,207L457,205L456,204L456,203L455,202L454,201L450,202L449,202L448,200L448,199L448,197L448,196L450,196L449,194L449,190L454,188L456,188L458,188L459,188L460,187L461,186L461,184L462,182L461,181L459,177L459,175L459,174L459,173L459,172L460,172L462,172L463,171L464,170L465,170L466,169L466,167L465,167L466,166L467,164L469,162L468,161L467,160L465,158L464,157L464,155L464,154L465,152L465,151L463,144L463,142L463,141L463,140L463,139L464,138L464,137L463,135L463,134L463,133L464,132L464,131L465,131L467,129L467,127L467,125L467,123L468,120L468,119L468,118L467,117L465,116L464,115L463,113L464,112L465,111L467,106L468,105L468,104L468,103L466,102L466,100L466,99L464,99L460,100L458,102L454,105L452,109L452,110L451,111L450,112L448,112L447,113L447,114L446,115L444,118L443,118L441,119L440,119L438,120L437,121L436,122L435,122L434,122L432,123L431,123L429,126L427,127L426,128L425,129L425,130L423,131L422,131L420,132L420,133L419,135L419,137L406,151L406,152L405,154L403,157L403,159L403,160L403,162L402,163L402,165L402,166L399,167L398,167L397,168L397,169L397,170L396,171L397,172L397,174L397,175L397,176L397,178L398,179L398,180L399,181L400,182L401,184L401,185L403,186L404,186L406,189L407,195L407,196L408,196L409,198L409,199L409,202L409,203L409,204L409,206L409,207L408,207L406,207L405,207L402,206L400,205L400,205L398,202L396,202L392,202L391,202L389,201L388,201L388,202L387,203L387,205L386,206L385,207L384,209L383,208L382,208L381,207L380,205L379,205L378,206L376,206L375,205L373,205L372,206L372,209L371,210L371,213L365,214L366,215L375,220L378,223L379,223L380,223L381,223L382,224L384,224L386,226L387,227L388,227L389,227L390,228L391,228L393,229L393,230L393,231L396,233L396,234L397,235L399,237L400,238L401,239L402,241L404,243L405,243L406,246L407,247L409,248L410,250L410,251L412,252L413,252L415,253L416,254L417,254L419,254L420,254L423,257L426,258L427,259L428,260L428,266L425,282L424,291L424,294L423,295L422,298L421,300L421,301L420,302L420,303L419,306L417,309L417,311L416,313L417,314L417,317L418,318L419,320L418,321L422,323L423,324L425,330L425,331L433,336Z " data-fips="ZI01" data-hasc="ZW.MA" data-name="Manicaland" data-postal="MA" data-varname=""/><path d="M319,396L321,395L322,395L324,394L325,394L326,394L330,394L332,394L333,395L334,395L335,394L337,393L342,393L344,392L346,393L349,393L355,394L357,395L358,395L358,395L358,394L356,393L356,393L355,392L355,391L355,389L354,388L354,387L353,387L352,387L351,385L350,385L349,384L349,383L348,382L348,381L347,380L346,380L345,379L345,378L344,377L343,376L341,376L342,375L342,374L341,373L340,372L340,371L338,368L337,366L335,365L335,364L334,362L333,361L333,361L332,361L330,360L329,360L328,359L327,357L326,356L326,355L325,355L323,354L322,353L320,353L318,352L317,352L312,351L312,349L311,349L310,348L309,348L308,346L307,346L305,346L304,345L303,344L303,343L301,342L301,342L300,340L299,339L298,338L297,338L296,337L295,335L294,334L294,333L293,332L292,330L291,329L290,328L290,327L290,326L287,325L285,321L284,318L281,318L277,319L275,319L273,319L272,318L270,318L269,317L278,311L281,297L279,297L278,296L277,295L276,294L277,293L278,292L278,290L278,287L281,288L282,288L283,286L284,284L284,283L284,282L288,273L288,269L292,261L292,260L290,257L289,258L288,256L287,256L283,256L282,256L282,254L281,253L278,254L275,252L271,250L270,250L269,250L267,251L267,249L266,248L267,245L267,244L266,243L264,240L263,238L263,237L262,236L260,233L259,231L259,230L255,229L254,229L253,229L252,228L250,228L249,228L248,229L250,231L250,232L250,234L249,235L247,237L247,238L248,239L249,240L249,241L249,244L249,245L248,246L248,247L247,248L245,249L242,248L241,249L242,253L243,254L242,256L237,259L235,260L234,261L235,263L229,270L228,271L227,272L226,274L224,274L221,272L219,271L217,273L216,272L215,272L207,278L206,277L205,275L205,274L204,273L203,272L202,271L201,270L200,269L200,267L199,266L198,265L197,265L196,264L194,264L191,264L188,265L186,262L184,265L184,267L184,268L182,269L180,269L178,268L178,268L176,267L175,266L171,262L170,261L169,261L167,258L166,257L165,256L164,254L164,253L163,252L162,250L161,250L159,250L158,250L155,248L154,247L153,247L150,247L149,247L148,248L146,248L145,248L143,248L142,247L140,247L133,248L131,248L129,248L119,251L116,252L115,253L115,253L116,254L117,255L118,256L119,256L121,256L123,256L129,259L131,260L133,259L135,260L137,261L138,263L140,263L141,263L142,263L143,264L144,264L145,265L148,273L148,276L149,279L148,288L150,287L152,287L158,287L163,287L166,286L168,287L170,287L171,288L172,288L172,289L172,292L172,294L171,296L173,301L173,303L173,305L172,308L171,309L171,311L171,313L171,316L171,317L171,319L171,320L171,322L171,323L173,325L174,326L178,329L179,331L181,333L183,335L183,337L183,338L184,339L185,340L185,341L187,344L186,345L187,346L187,347L188,348L189,349L189,350L191,351L194,351L198,352L205,352L207,352L209,353L214,355L215,356L217,355L218,355L220,354L221,355L224,355L226,357L228,358L236,361L238,362L241,362L243,362L244,363L246,364L247,364L247,365L247,367L246,368L245,369L245,373L245,374L246,377L248,378L250,379L252,380L257,380L258,381L259,383L264,387L265,387L266,386L268,385L269,385L272,385L274,385L274,384L275,384L278,384L279,383L280,383L282,383L286,383L287,383L290,385L292,386L293,387L296,387L298,388L299,389L301,390L303,391L305,392L307,393L309,392L311,392L313,393L313,394L315,395L317,396Z " data-fips="ZI07" data-hasc="ZW.MS" data-name="Matabeleland South" data-postal="MS" data-varname=""/><path d="M219,271L221,272L225,271L226,271L227,270L227,269L226,268L225,267L226,266L225,265L225,263L223,264L222,263L221,263L220,263L220,261L220,260L219,261L218,261L217,262L215,262L212,260L211,261L212,263L212,265L211,266L210,267L211,268L212,268L213,268L215,268L216,269L217,270L216,272L217,273Z " data-fips="ZI09" data-hasc="ZW.BU" data-name="Bulawayo" data-postal="BU" data-varname=""/><path d="M377,393L429,337L431,335L433,336L431,335L431,335L425,331L425,330L423,324L422,323L418,321L419,320L418,318L417,317L417,314L416,313L417,311L417,309L419,306L420,303L420,302L421,301L421,300L422,298L423,295L424,294L424,291L425,282L428,266L428,260L427,259L426,258L423,257L420,254L419,254L417,254L416,254L415,253L413,252L412,252L410,251L410,250L409,248L407,247L406,246L405,243L404,243L402,241L401,239L400,238L399,237L397,235L396,234L396,233L393,231L393,230L393,229L391,228L390,228L389,227L388,227L387,227L386,226L384,224L382,224L381,223L380,223L379,223L378,223L375,220L366,215L365,214L357,214L354,214L354,212L354,211L355,210L355,209L352,208L351,209L351,210L350,210L349,210L349,212L349,213L346,215L339,222L339,223L340,223L341,224L340,225L339,225L339,231L338,234L339,236L339,237L338,242L338,244L337,246L337,247L337,248L338,249L337,250L335,250L334,250L332,250L331,249L325,249L324,250L324,251L324,252L324,254L323,255L322,256L322,257L313,258L309,260L308,261L309,262L308,264L307,266L307,268L307,270L309,269L310,269L312,270L312,272L312,273L312,274L312,276L312,277L313,278L314,279L316,279L316,281L317,282L318,282L319,283L320,284L321,285L321,287L324,290L324,291L324,293L324,295L324,296L325,297L326,298L326,299L325,300L325,301L325,303L324,304L324,306L323,307L323,312L322,314L317,319L316,319L314,318L313,318L312,319L310,319L309,319L308,319L307,318L306,317L304,317L303,316L302,315L301,314L300,313L299,313L298,312L297,312L296,312L289,318L288,318L287,318L284,318L285,321L287,325L290,326L290,327L290,328L291,329L292,330L293,332L294,333L294,334L295,335L296,337L297,338L298,338L299,339L300,340L301,342L301,342L303,343L303,344L304,345L305,346L307,346L308,346L309,348L310,348L311,349L312,349L312,351L317,352L318,352L320,353L322,353L323,354L325,355L326,355L326,356L327,357L328,359L329,360L330,360L332,361L333,361L333,361L334,362L335,364L335,365L337,366L338,368L340,371L340,372L341,373L342,374L342,375L341,376L343,376L344,377L345,378L345,379L346,380L347,380L348,381L348,382L349,383L349,384L350,385L351,385L352,387L353,387L354,387L354,388L355,389L355,391L355,392L356,393L356,393L358,394L358,395L358,395L359,395L361,394L362,395L364,396L365,397L366,397L367,397L369,399Z " data-fips="ZI08" data-hasc="ZW.MV" data-name="Masvingo" data-postal="MV" data-varname=""/><path d="M321,186L323,181L324,180L325,183L327,185L328,185L329,184L331,183L332,184L333,184L333,183L335,182L338,178L340,176L341,175L342,166L342,165L343,164L343,162L341,160L339,158L338,157L338,155L338,153L340,153L341,151L342,149L342,146L343,145L343,143L343,141L344,140L345,139L344,138L344,136L345,136L347,137L350,137L351,136L351,135L350,134L349,133L350,131L349,130L349,129L350,128L352,128L353,126L354,124L352,121L351,121L350,122L349,122L346,120L343,119L342,118L343,116L343,115L334,115L334,113L335,108L335,106L334,103L335,101L337,97L337,96L337,95L338,94L338,93L339,92L340,86L340,85L339,85L338,85L337,85L336,84L335,85L334,85L333,85L331,85L330,84L330,83L329,82L330,81L329,79L329,78L328,73L329,72L330,71L330,69L329,68L329,67L328,67L328,66L327,64L325,62L323,62L322,61L321,59L320,59L321,55L321,54L322,52L322,51L322,49L323,47L323,46L323,44L322,43L318,43L317,41L316,39L315,38L314,38L312,39L311,39L311,41L311,42L309,43L308,44L306,44L305,44L304,46L303,46L302,46L303,42L303,42L304,41L304,39L304,37L304,36L305,35L307,34L307,32L306,32L305,32L305,30L304,29L304,28L304,26L303,25L302,24L301,23L317,10L317,8L317,7L316,5L316,2L316,1L315,1L313,1L312,2L310,2L309,1L306,1L304,1L302,1L300,2L297,2L292,0L290,0L288,0L286,1L284,2L280,3L279,3L278,3L277,3L276,2L274,3L272,5L271,5L265,6L253,12L250,14L249,14L248,15L247,17L245,19L245,20L243,20L241,20L240,20L239,21L237,23L235,24L234,26L234,27L235,28L235,30L234,32L234,35L235,36L233,40L233,41L233,42L234,44L234,46L233,48L232,50L232,51L229,53L229,54L228,55L227,56L225,56L222,56L202,65L198,67L193,72L188,74L189,79L188,81L188,82L189,83L189,86L189,87L190,88L191,88L191,89L192,90L193,90L194,90L194,92L194,93L195,94L195,95L195,96L195,98L196,99L196,100L197,101L198,102L200,103L201,106L202,106L204,106L209,104L211,104L212,105L213,104L215,105L216,104L217,103L220,100L220,99L221,98L223,95L224,95L225,95L226,94L227,93L229,92L232,91L233,91L235,91L236,91L238,89L239,90L239,91L240,92L240,93L241,94L245,96L247,97L248,98L249,98L253,100L255,100L256,100L257,100L258,101L259,102L259,104L263,109L264,109L265,109L265,111L263,112L263,113L262,114L261,115L261,116L261,117L262,119L262,121L262,122L261,123L260,124L260,126L261,127L260,128L259,129L259,131L258,132L257,133L257,134L255,138L254,139L254,140L254,141L255,143L255,144L255,145L256,146L257,147L258,150L259,151L261,153L262,154L263,155L264,156L266,156L273,161L276,162L276,163L275,165L275,167L275,168L274,171L274,172L274,174L275,175L276,175L279,177L281,177L282,177L284,177L285,178L286,179L287,179L288,179L289,180L290,181L291,181L293,182L295,182L296,182L297,181L300,182L301,182L303,183L304,184L306,184L308,184L310,185L311,187L313,187L314,188L315,188L317,189L320,190Z " data-fips="ZI05" data-hasc="ZW.MW" data-name="Mashonaland West" data-postal="MW" data-varname=""/></g></svg>