<?xml version="1.0" ?><!DOCTYPE svg  PUBLIC '-//W3C//DTD SVG 1.1//EN'  'http://www.w3.org/Graphics/SVG/1.1/DTD/svg11.dtd'><svg enable_background="new 0 0 500 401" height="401px" style="stroke-linejoin: round; stroke:#000; fill:#f6f3f0;" version="1.1" viewBox="0 0 500 401" width="500px" xmlns="http://www.w3.org/2000/svg" xmlns:xlink="http://www.w3.org/1999/xlink"><defs><style type="text/css"><![CDATA[path { fill-rule: evenodd; }
#context path { fill: #eee; stroke: #bbb; } ]]></style></defs><metadata><views><view h="401" padding="0" w="500"><proj id="laea" lat0="-24.973" lon0="136.189"/><bbox h="416.1" w="447.52" x="743.57" y="817.73"/><llbbox lat0="-90" lat1="90" lon0="-180" lon1="180"/></view></views></metadata><g id="admin1"><path d="M208,189L211,189L214,189L217,188L220,188L223,188L226,188L229,188L232,188L235,188L238,188L241,188L244,187L247,187L250,187L253,187L256,187L259,187L262,187L265,187L268,187L271,187L274,187L277,187L280,187L283,187L286,187L289,187L292,187L295,187L298,187L301,187L301,184L301,180L301,177L301,173L301,170L301,166L301,163L301,159L301,156L301,152L301,149L301,145L301,142L301,138L301,135L301,131L301,128L301,124L301,121L301,117L302,114L302,110L302,107L302,103L302,100L302,96L302,93L302,89L302,86L302,82L302,79L302,75L301,74L300,74L299,72L298,71L297,71L296,71L295,70L294,69L293,68L292,68L290,67L290,68L289,68L288,68L287,67L287,66L286,65L285,65L284,64L283,64L282,63L282,62L281,61L280,60L279,60L278,59L276,58L275,57L274,57L273,56L272,54L273,53L274,53L274,52L275,50L276,48L277,48L278,47L278,45L279,44L279,43L280,41L278,42L278,41L278,40L277,39L278,38L278,37L279,37L279,36L280,37L280,36L281,35L282,36L282,35L283,35L283,34L283,35L284,36L285,36L285,35L286,34L285,33L286,33L285,32L285,31L285,30L286,31L287,30L287,29L288,28L290,26L290,25L289,24L288,24L287,24L288,25L287,24L286,23L286,22L285,21L286,20L285,21L284,21L283,22L282,22L281,24L282,24L283,24L283,25L282,27L281,27L279,27L279,26L280,24L279,25L279,23L279,23L279,23L278,23L277,24L276,25L276,24L276,23L276,22L277,21L276,21L277,21L278,20L278,19L277,20L277,21L275,21L274,21L275,22L273,23L272,23L271,23L271,24L271,25L270,25L269,24L268,25L268,24L267,23L266,23L265,22L264,21L263,22L262,22L261,22L260,22L259,22L258,22L258,21L257,21L256,20L255,21L254,20L254,19L253,18L252,19L251,19L250,20L250,19L249,19L248,18L247,19L246,18L245,17L245,16L244,15L243,15L242,15L241,16L240,16L240,15L238,14L238,13L237,13L236,12L236,12L235,13L234,12L235,13L235,14L234,15L234,14L233,13L232,12L232,13L231,13L231,14L230,14L231,14L232,15L232,15L233,16L234,16L235,16L236,16L237,16L238,16L239,17L240,18L240,19L239,20L240,20L240,23L241,24L240,24L239,23L238,24L238,25L237,25L236,25L235,25L234,25L234,26L232,26L231,25L231,25L229,26L227,26L226,26L225,25L225,24L224,23L224,24L223,25L222,24L221,25L221,26L221,27L220,27L219,28L220,28L220,29L221,30L220,30L219,29L218,28L217,27L216,27L216,28L217,30L216,31L217,31L216,31L215,30L214,30L214,31L214,32L213,34L212,34L211,34L211,35L212,37L213,38L213,39L212,39L212,40L211,41L209,41L208,41L208,42L207,43L208,44L207,45L207,46L206,47L205,47L205,48L204,48L204,49L203,50L203,51L203,52L204,53L206,53L207,54L208,53L207,54L206,54L206,55L207,56L208,56L209,56L210,55L209,56L208,57L207,57L206,57L206,58L206,59L207,60L206,60L205,59L204,58L203,57L201,57L202,59L202,60L201,61L201,59L201,58L200,58L199,57L199,57L199,61L199,66L199,70L199,74L200,78L200,82L200,86L200,90L200,94L201,98L201,103L201,107L201,111L201,115L201,119L202,123L202,127L202,131L202,135L202,140L203,144L203,148L203,152L203,156L203,160L204,164L204,168L204,173L204,177L204,181L205,185L205,189Z M291,65L290,64L290,65L291,66Z M286,64L286,63L285,63L285,64Z M290,48L290,47L289,47L288,47L287,47L288,46L288,45L289,44L289,43L290,42L289,43L288,43L287,42L287,41L286,42L286,43L285,43L284,43L284,44L284,45L284,47L283,48L284,48L287,48L288,48L289,48Z M282,42L282,42L281,41L281,42L282,43Z M282,22L283,22L283,21L281,22L281,22Z M282,17L284,17L284,16L284,16L283,16L282,17L281,18Z M211,21L212,20L214,20L215,21L216,21L217,20L216,19L214,19L214,18L214,17L214,16L213,15L212,15L211,16L211,18L211,19L210,20L210,21Z M222,21L224,20L225,19L226,18L226,17L227,16L226,15L226,14L225,14L224,14L223,13L223,14L223,15L222,14L221,15L221,16L220,15L219,15L218,15L217,16L217,15L216,15L216,15L215,14L213,13L213,14L214,15L214,17L215,18L215,19L216,19L218,20L219,21L220,21L221,22Z M240,13L239,12L239,11L239,10L238,11L238,12L239,13L239,14Z M286,14L287,13L288,12L288,11L288,10L288,10L288,11L287,12L286,13L286,14L285,15Z " data-fips="AS03" data-hasc="AU.NT" data-name="Northern Territory" data-postal="NT" data-varname=""/><path d="M94,308L95,309L96,308L97,308L98,308L99,308L100,308L101,308L102,308L103,307L104,307L105,307L104,307L105,307L106,306L107,305L108,305L109,304L109,303L110,302L111,301L112,300L112,299L113,298L116,299L117,299L118,298L118,297L119,297L118,296L119,295L119,294L120,293L121,292L122,291L123,291L124,291L126,291L127,291L128,290L130,289L131,289L132,289L133,289L135,288L136,288L137,288L138,288L139,288L140,288L141,288L142,287L143,288L143,290L144,289L145,288L146,288L148,288L148,287L150,287L151,287L152,287L153,287L154,288L155,288L156,287L157,287L158,286L159,285L159,284L160,283L161,282L161,281L161,280L161,278L162,277L162,276L163,275L164,275L166,274L168,274L169,273L171,271L173,270L175,269L176,267L178,266L179,265L180,265L181,265L182,265L183,265L186,265L188,265L189,265L190,265L192,264L195,263L197,262L199,262L201,261L206,258L207,257L209,256L209,252L208,248L208,244L208,239L208,235L207,231L207,227L207,223L207,218L206,214L206,210L206,206L206,202L205,197L205,193L205,189L205,185L204,181L204,177L204,173L204,168L204,164L203,160L203,156L203,152L203,148L203,144L202,140L202,135L202,131L202,127L202,123L201,119L201,115L201,111L201,107L201,103L201,98L200,94L200,90L200,86L200,82L200,78L199,74L199,70L199,66L199,61L199,57L199,57L198,57L197,57L196,57L194,57L193,57L192,58L192,59L192,59L192,59L191,58L192,59L192,59L192,59L193,59L192,59L193,60L192,60L191,59L190,60L190,61L190,62L191,63L191,64L190,62L189,62L189,63L189,64L188,65L188,64L188,63L188,61L189,60L189,59L189,58L190,57L190,56L189,55L188,55L187,54L186,54L185,53L185,52L184,51L183,50L182,50L182,49L181,48L180,47L179,47L178,47L177,47L176,46L175,45L174,46L174,46L173,46L173,47L173,48L173,49L172,49L172,50L171,51L170,50L169,50L170,49L171,48L170,48L168,49L168,50L168,51L167,51L166,51L166,50L166,49L165,49L165,48L164,48L165,49L164,49L164,50L166,50L166,51L165,52L165,53L164,54L164,55L163,55L163,57L162,55L162,54L161,54L161,55L160,56L161,55L160,54L161,53L160,52L160,53L160,54L159,55L158,56L158,57L157,56L156,57L155,58L155,59L156,60L157,60L156,61L157,61L158,62L158,63L157,63L156,62L155,62L155,63L154,62L153,62L153,63L152,63L151,64L152,65L153,64L152,65L153,66L154,65L155,66L154,67L155,68L154,68L153,67L153,66L152,66L151,65L150,65L150,66L149,67L149,68L148,68L147,69L147,70L147,71L147,72L148,73L148,74L149,72L150,71L151,71L150,72L149,73L149,74L149,75L148,76L148,75L148,76L147,77L147,78L149,78L150,78L151,78L152,78L153,79L152,78L151,78L150,79L148,79L147,78L146,79L145,79L144,77L143,77L142,77L142,78L143,79L142,79L141,79L141,78L141,78L140,77L139,76L138,77L138,78L139,78L140,79L139,80L138,80L139,81L138,81L137,81L137,82L139,82L138,83L139,83L140,83L140,84L141,85L142,85L142,86L141,87L142,88L143,89L142,88L141,88L140,87L139,87L139,88L139,89L139,90L139,91L139,93L139,94L139,93L138,92L137,91L137,90L136,89L135,88L135,87L134,86L133,85L133,84L132,83L131,82L131,81L132,81L132,80L131,81L130,82L129,82L129,84L129,85L128,85L127,85L127,86L128,87L126,87L126,88L124,90L123,91L123,92L123,94L123,95L124,96L124,97L124,98L124,100L125,99L126,100L126,102L124,103L124,103L123,105L121,106L120,106L120,107L120,108L119,109L118,109L119,110L118,111L118,112L118,113L117,115L116,117L114,119L112,121L110,122L109,123L106,124L105,125L103,125L101,126L100,126L99,127L98,127L97,127L96,127L94,127L93,127L92,127L91,128L91,129L90,130L90,131L89,131L88,132L87,132L84,132L83,133L82,133L80,136L79,137L78,137L77,137L76,138L75,138L74,138L72,138L72,137L71,138L70,138L69,139L68,138L68,137L67,139L66,140L65,141L64,141L63,142L62,142L61,143L60,144L59,145L59,146L58,147L56,149L56,150L55,151L52,152L51,153L49,154L48,155L47,156L46,157L45,159L46,160L45,161L45,162L45,163L44,164L43,164L42,165L42,164L42,163L41,161L41,160L41,157L41,157L40,157L39,159L39,161L39,163L38,164L38,165L37,166L38,167L38,168L39,169L40,170L40,172L40,173L40,174L40,176L40,177L40,178L39,179L38,181L38,182L38,184L38,185L38,186L38,187L38,189L39,190L40,191L41,193L41,194L42,195L42,196L43,197L44,197L45,198L46,200L47,202L48,203L49,204L50,204L50,205L50,206L50,207L50,208L50,209L50,211L49,212L49,211L48,210L47,209L47,208L46,207L46,208L45,209L45,209L44,207L45,206L44,205L44,204L43,204L42,203L41,202L41,203L41,204L42,205L42,206L43,207L44,208L45,210L46,210L47,211L47,212L47,213L46,214L46,215L45,214L44,213L44,214L44,213L44,212L43,211L43,212L43,211L42,210L41,208L41,209L41,210L42,212L41,211L40,209L40,210L39,210L40,210L41,211L41,212L42,213L43,214L44,215L46,216L47,218L49,220L50,222L51,223L52,227L52,228L53,229L53,230L54,231L55,232L56,233L57,234L58,235L59,237L59,238L60,239L60,240L63,242L63,243L64,244L64,245L65,246L65,248L65,249L65,251L66,253L66,254L67,255L67,256L68,258L68,259L69,261L70,262L71,263L72,265L73,267L75,268L75,269L76,270L77,272L77,274L78,276L78,277L78,278L78,279L79,280L78,281L79,282L78,283L79,284L78,282L78,281L78,282L78,283L78,284L79,286L79,287L79,288L80,289L79,290L79,291L79,293L78,294L76,295L75,294L74,294L74,296L74,297L74,298L75,300L75,301L76,302L77,302L79,302L81,303L82,303L83,304L85,306L86,307L86,307L87,307L89,308L90,307L91,308L92,309L93,309Z M39,208L38,208L38,207L38,206L37,204L36,203L36,202L36,202L35,203L36,205L37,206L38,208L39,208L40,209Z M37,199L37,198L36,197L36,198L37,200Z M53,143L53,143L54,142L53,141L52,142L52,143Z M149,66L148,65L148,66L148,67L148,67Z M155,57L155,55L154,55L154,56L155,57Z " data-fips="AS08" data-hasc="AU.WA" data-name="Western Australia" data-postal="WA" data-varname=""/><path d="M405,310L405,309L406,308L406,306L406,305L407,304L408,304L409,304L408,304L408,303L407,302L406,302L405,303L403,304L403,305L403,306L403,307L403,308L403,308L403,310L404,310Z " data-fips="AS01" data-hasc="AU.CT" data-name="Australian Capital Territory" data-postal="CT" data-varname=""/><path d="M411,329L411,328L412,327L412,326L411,325L411,324L411,323L412,322L412,321L413,320L413,319L414,318L414,317L415,316L414,315L414,314L415,313L415,311L416,311L416,310L417,309L418,308L418,307L419,306L419,305L420,304L421,304L422,303L422,302L423,302L423,303L423,302L423,301L423,300L424,299L424,297L424,296L425,296L425,295L425,294L426,293L427,292L428,291L428,290L429,290L430,288L430,287L430,286L430,285L431,285L432,285L432,284L432,283L433,283L434,282L434,281L435,279L436,278L437,278L438,277L439,277L440,277L439,276L440,276L441,275L443,274L444,273L444,272L445,271L445,270L445,269L447,267L447,266L448,265L449,264L450,263L450,262L450,261L451,259L452,258L452,257L452,256L452,255L452,253L452,251L453,250L454,249L455,247L455,246L456,245L456,244L456,243L457,241L457,240L457,239L457,238L458,237L459,236L459,235L460,234L461,233L461,232L461,230L461,230L461,228L462,226L461,224L461,225L459,225L457,226L456,226L455,226L454,225L453,226L452,225L451,225L450,225L449,225L448,226L447,226L445,227L444,227L445,228L445,229L445,231L444,231L443,231L442,231L441,231L440,231L439,232L439,233L438,234L437,233L437,232L437,231L436,230L435,229L435,228L434,228L433,227L432,227L431,227L429,226L428,225L427,225L425,225L424,225L423,225L421,225L420,224L419,225L418,226L417,226L416,227L415,227L414,228L413,229L411,229L406,228L401,228L396,227L391,227L386,227L381,226L376,226L371,225L366,225L361,225L356,225L351,224L346,224L341,224L336,224L331,223L331,227L331,231L331,234L331,238L330,242L330,246L330,249L330,253L330,257L330,260L329,264L329,268L329,272L329,275L329,279L329,283L329,283L330,284L331,284L332,284L333,285L334,285L336,284L337,284L338,284L339,284L340,285L341,286L341,287L342,287L342,288L342,289L343,291L343,292L344,292L345,291L345,290L346,290L347,291L348,292L349,292L350,292L351,293L351,294L351,295L351,297L352,298L353,298L353,299L354,300L355,301L356,301L357,302L358,303L359,304L359,305L360,306L361,307L362,309L363,309L364,309L366,309L366,308L366,307L368,307L369,307L370,307L372,307L374,309L375,308L376,309L377,309L378,309L379,310L380,309L381,309L382,310L383,310L384,311L385,311L385,311L386,312L386,311L386,310L388,310L388,310L388,310L389,310L390,310L392,310L394,311L394,311L395,312L395,313L395,315L395,316L395,317L396,318L395,319L395,320L396,320L398,322L400,323L402,324L403,325L405,327L407,328L409,329L411,330Z M404,310L403,310L403,308L403,308L403,307L403,306L403,305L403,304L405,303L406,302L407,302L408,303L408,304L409,304L408,304L407,304L406,305L406,306L406,308L405,309L405,310Z " data-fips="AS02" data-hasc="AU.NS" data-name="New South Wales" data-postal="NS" data-varname=""/><path d="M295,305L296,304L297,304L298,304L299,304L300,303L299,302L298,302L297,302L296,302L295,301L295,300L295,300L293,301L292,301L290,301L287,302L286,302L285,303L285,304L285,305L286,305L287,306L288,306L289,305L290,306L291,305L293,305L294,306Z M310,302L309,301L308,301L310,302Z M326,330L326,324L327,318L327,313L327,307L328,301L328,295L328,289L329,283L329,279L329,275L329,272L329,268L329,264L330,260L330,257L330,253L330,249L330,246L330,242L331,238L331,234L331,231L331,227L331,223L331,219L331,214L332,210L332,206L332,201L332,197L332,192L332,188L328,188L325,188L321,187L317,187L313,187L309,187L305,187L301,187L298,187L295,187L292,187L289,187L286,187L283,187L280,187L277,187L274,187L271,187L268,187L265,187L262,187L259,187L256,187L253,187L250,187L247,187L244,187L241,188L238,188L235,188L232,188L229,188L226,188L223,188L220,188L217,188L214,189L211,189L208,189L205,189L205,193L205,197L206,202L206,206L206,210L206,214L207,218L207,223L207,227L207,231L208,235L208,239L208,244L208,248L209,252L209,256L210,256L211,256L213,256L214,255L216,255L218,255L220,254L222,254L224,254L226,254L227,254L229,254L231,253L232,253L234,254L237,255L238,257L240,257L241,258L242,259L243,259L244,259L244,258L246,258L247,258L248,259L249,259L250,260L251,260L252,261L253,261L254,261L254,260L255,260L256,260L257,261L258,261L258,262L259,263L258,263L259,264L260,264L260,263L261,264L262,265L262,267L262,268L261,267L260,267L261,268L260,269L261,269L262,270L262,271L263,272L264,272L265,272L266,272L266,271L267,272L267,273L268,274L268,275L268,276L268,277L269,278L270,279L271,280L272,282L272,283L273,284L273,285L273,287L274,288L275,289L273,289L273,288L271,287L271,288L273,289L273,290L274,290L275,291L277,292L277,292L278,292L279,293L279,292L279,291L278,291L278,289L279,288L279,288L280,288L281,287L281,286L282,285L283,283L283,282L284,282L285,281L285,280L286,280L287,279L288,278L289,278L290,278L291,278L292,277L292,275L293,274L293,273L294,272L294,271L295,270L296,269L297,269L297,268L297,266L297,265L297,264L298,265L298,266L298,267L299,270L300,271L299,272L298,272L298,274L298,274L299,275L299,277L298,277L297,278L296,279L296,280L295,281L295,282L295,283L294,284L294,285L294,287L294,288L294,289L294,291L294,292L293,293L292,292L291,292L289,292L289,293L289,294L288,295L288,296L289,297L290,296L291,296L292,295L293,295L294,295L295,295L296,295L296,294L297,293L297,292L298,291L298,289L298,288L298,287L299,286L299,284L300,283L301,285L301,285L302,287L302,288L303,289L304,290L304,291L304,292L304,294L303,295L303,297L303,298L302,298L301,299L300,300L301,301L302,301L303,301L304,301L305,300L306,300L308,300L307,299L308,299L309,298L310,298L311,298L312,298L312,299L311,300L312,301L311,302L311,301L310,300L309,300L309,301L310,302L312,303L313,304L314,306L315,308L314,306L313,305L312,304L310,302L311,303L313,305L314,306L314,308L315,310L316,313L316,315L316,316L315,317L315,318L315,319L315,321L318,323L318,324L319,325L320,326L320,327L321,328L322,329L323,330L324,330Z " data-fips="AS05" data-hasc="AU.SA" data-name="South Australia" data-postal="SA" data-varname=""/><path d="M376,345L376,344L377,343L377,342L376,343L375,343L374,342L375,341L376,341L377,341L378,341L379,341L381,341L382,340L383,339L384,338L386,336L388,335L390,334L391,333L393,332L395,332L398,332L399,332L401,332L403,333L405,333L406,333L407,332L408,332L409,331L411,330L409,329L407,328L405,327L403,325L402,324L400,323L398,322L396,320L395,320L395,319L396,318L395,317L395,316L395,315L395,313L395,312L394,311L394,311L392,310L390,310L389,310L388,310L388,310L388,310L386,310L386,311L386,312L385,311L385,311L384,311L383,310L382,310L381,309L380,309L379,310L378,309L377,309L376,309L375,308L374,309L372,307L370,307L369,307L368,307L366,307L366,308L366,309L364,309L363,309L362,309L361,307L360,306L359,305L359,304L358,303L357,302L356,301L355,301L354,300L353,299L353,298L352,298L351,297L351,295L351,294L351,293L350,292L349,292L348,292L347,291L346,290L345,290L345,291L344,292L343,292L343,291L342,289L342,288L342,287L341,287L341,286L340,285L339,284L338,284L337,284L336,284L334,285L333,285L332,284L331,284L330,284L329,283L329,283L328,289L328,295L328,301L327,307L327,313L327,318L326,324L326,330L326,330L328,332L330,333L331,334L332,335L332,334L333,333L334,333L335,333L337,335L338,334L340,335L341,335L342,336L343,337L344,338L346,338L347,339L348,340L349,340L350,341L351,340L352,339L353,339L353,338L354,337L355,337L356,336L357,335L358,335L359,335L360,335L361,334L361,333L359,333L359,333L360,332L362,331L362,330L363,330L364,331L365,332L365,333L364,334L364,335L363,336L362,336L361,336L363,337L364,337L365,336L366,336L366,335L367,335L368,335L368,336L368,337L367,337L367,338L368,339L369,340L370,340L371,341L371,342L372,343L373,342L374,343L374,344L375,345L376,346Z M366,337L365,337L364,338L365,338L367,338Z M368,336L367,336L366,336L367,337Z " data-fips="AS07" data-hasc="AU.VI" data-name="Victoria" data-postal="VI" data-varname=""/><path d="M439,233L439,232L440,231L441,231L442,231L443,231L444,231L445,231L445,229L445,228L444,227L445,227L447,226L448,226L449,225L450,225L451,225L452,225L453,226L454,225L455,226L456,226L457,226L459,225L461,225L461,224L461,224L461,223L460,222L461,221L461,220L460,219L460,218L460,217L459,216L459,215L458,214L458,213L458,212L459,211L460,211L459,209L459,208L460,207L459,206L460,204L460,203L460,202L460,200L461,199L461,198L460,197L460,196L460,197L460,196L459,195L459,194L459,193L460,192L459,191L459,190L458,189L457,189L457,188L456,187L455,185L455,184L455,183L454,182L452,180L451,179L451,178L450,176L449,175L449,174L449,173L448,172L448,173L446,173L446,172L445,172L445,171L444,170L443,170L443,169L442,168L441,167L440,167L440,166L440,165L440,163L440,162L439,161L440,160L440,159L440,158L441,156L440,155L440,154L439,155L439,154L440,153L439,152L438,152L438,153L438,154L438,155L437,154L436,153L435,152L434,152L434,151L433,150L433,149L432,150L431,151L431,152L432,155L431,153L431,152L430,151L429,152L428,151L428,150L428,149L427,147L427,146L427,145L426,144L427,143L427,142L426,141L425,140L426,139L425,138L424,137L425,136L424,135L424,134L423,133L422,133L421,132L421,131L420,131L420,130L420,129L420,128L421,128L422,128L421,127L421,126L421,125L420,125L420,124L419,124L418,123L418,123L417,124L416,123L416,122L415,121L414,121L413,120L412,120L411,119L411,118L410,118L410,119L409,119L408,118L408,116L408,115L407,114L406,113L407,114L405,114L403,114L403,113L402,112L401,112L400,111L399,111L398,111L397,110L396,109L396,108L394,107L394,106L395,105L395,104L395,102L394,102L394,101L393,100L392,99L392,98L392,97L393,96L393,95L393,93L393,92L394,91L393,90L393,89L392,88L392,86L391,85L392,84L392,83L391,83L390,83L390,82L389,81L389,81L388,80L387,79L387,78L386,77L386,76L387,74L387,73L387,72L386,71L386,70L386,69L386,67L385,66L385,65L386,64L385,63L385,62L385,61L385,59L385,58L384,58L383,57L382,57L381,55L380,55L379,54L378,53L378,52L378,51L377,50L376,51L374,51L373,51L373,52L372,53L371,53L370,53L369,52L368,51L368,50L368,48L368,47L367,46L366,45L366,44L367,42L367,41L367,40L366,39L366,38L366,36L366,34L367,33L366,34L365,34L365,32L365,31L365,30L364,29L363,28L363,27L361,27L362,26L362,25L363,23L362,22L361,23L360,22L359,21L359,20L359,18L359,17L359,16L359,15L358,14L359,13L358,12L358,11L357,11L356,10L355,10L356,9L356,9L356,8L356,8L354,8L354,9L353,10L352,10L351,11L351,13L351,14L351,15L349,20L349,21L348,22L349,23L349,24L348,24L348,22L347,23L346,24L346,25L345,26L344,29L345,29L345,28L346,29L347,30L348,30L347,31L348,31L349,31L348,32L348,34L347,32L347,31L346,31L346,32L345,33L344,33L344,35L344,36L345,37L345,38L344,39L343,40L343,41L342,44L342,46L344,47L344,48L344,49L343,51L343,52L343,54L344,57L344,58L344,59L343,60L343,61L342,64L341,66L341,68L341,69L341,71L340,72L340,74L339,74L339,76L339,76L338,78L337,79L336,80L335,82L335,83L335,84L334,85L334,87L333,87L332,88L331,88L330,89L329,89L327,89L326,90L324,89L324,88L322,88L320,87L319,86L318,85L316,85L316,84L315,83L315,82L315,81L314,81L313,79L311,79L310,79L309,78L307,78L306,78L305,77L304,77L303,76L302,75L302,79L302,82L302,86L302,89L302,93L302,96L302,100L302,103L302,107L302,110L302,114L301,117L301,121L301,124L301,128L301,131L301,135L301,138L301,142L301,145L301,149L301,152L301,156L301,159L301,163L301,166L301,170L301,173L301,177L301,180L301,184L301,187L305,187L309,187L313,187L317,187L321,187L325,188L328,188L332,188L332,192L332,197L332,201L332,206L332,210L331,214L331,219L331,223L336,224L341,224L346,224L351,224L356,225L361,225L366,225L371,225L376,226L381,226L386,227L391,227L396,227L401,228L406,228L411,229L413,229L414,228L415,227L416,227L417,226L418,226L419,225L420,224L421,225L423,225L424,225L425,225L427,225L428,225L429,226L431,227L432,227L433,227L434,228L435,228L435,229L436,230L437,231L437,232L437,233L438,234Z M462,217L462,216L461,216L461,217L461,218L461,219Z M462,214L462,213L462,211L461,211L461,212L461,214L461,215Z M461,194L462,192L463,190L465,187L464,186L464,185L464,184L464,183L463,184L463,186L463,187L462,188L461,189L461,191L460,191L459,193L460,194L460,195L461,195Z M444,169L444,168L444,167L444,166L443,166L442,165L442,166L442,167L443,168L443,169Z M431,149L431,148L431,148L431,150Z M424,126L424,125L423,125L423,126Z M395,101L395,100L394,99L394,100L393,100L394,101L394,102L395,102Z M320,82L319,81L319,82L320,82Z M315,77L316,78L318,77L318,77L319,76L320,75L321,75L321,74L321,74L320,74L319,74L318,74L316,75L316,76L315,77L315,78Z M353,8L352,7L351,7L351,7L352,8Z M353,2L353,1L352,1L352,2Z M352,1L351,0L351,1L352,2Z " data-fips="AS04" data-hasc="AU.QL" data-name="Queensland" data-postal="QL" data-varname=""/><path d="M374,398L375,397L375,396L375,395L376,395L376,393L376,395L378,395L378,394L378,393L379,392L379,391L379,389L379,391L380,391L380,392L381,392L380,390L381,391L382,391L383,392L384,393L383,393L382,392L381,393L382,394L383,395L383,394L384,394L384,393L385,392L384,391L383,391L384,390L384,389L385,388L385,387L385,386L385,385L386,383L387,382L387,382L388,381L388,382L388,383L389,384L389,383L389,382L389,381L389,379L389,378L389,377L389,376L389,375L389,373L390,372L390,371L390,369L390,369L389,367L388,366L387,366L387,367L386,368L385,367L384,367L383,368L382,368L381,368L380,369L378,368L377,369L377,369L378,370L377,370L376,369L375,369L375,370L374,370L373,370L371,369L370,369L369,368L368,368L367,366L366,366L365,366L364,365L363,365L362,365L361,364L360,364L359,363L358,363L358,365L357,366L358,367L358,368L358,369L358,371L358,372L359,373L359,375L360,376L360,377L361,378L362,379L361,381L362,381L363,382L364,383L363,384L363,383L362,382L361,382L361,383L361,384L361,385L362,386L362,387L362,388L363,389L364,390L364,392L365,393L365,394L366,394L366,393L367,394L368,394L368,395L367,395L366,395L367,396L367,397L368,397L369,397L370,397L371,397L372,398L372,399L374,399Z M378,396L378,396L378,395L377,396L376,397L377,397L378,397Z M379,394L379,393L378,394L379,395Z M387,389L386,388L386,388L385,388L386,389Z M393,363L392,362L391,361L390,362L389,362L389,363L390,363L391,363L392,364Z M361,363L361,363L360,362L360,364Z M391,360L392,360L392,358L392,357L390,356L389,354L388,355L388,356L388,357L388,358L389,359L389,360L390,361Z M353,355L354,354L354,353L354,352L354,351L354,350L352,350L352,351L352,352L351,353L351,354L352,355L352,356Z " data-fips="AS06" data-hasc="AU.TS" data-name="Tasmania" data-postal="TS" data-varname=""/></g></svg>