<?xml version="1.0" ?><!DOCTYPE svg  PUBLIC '-//W3C//DTD SVG 1.1//EN'  'http://www.w3.org/Graphics/SVG/1.1/DTD/svg11.dtd'><svg enable_background="new 0 0 500 401" height="401px" style="stroke-linejoin: round; stroke:#000; fill:#f6f3f0;" version="1.1" viewBox="0 0 500 401" width="500px" xmlns="http://www.w3.org/2000/svg" xmlns:xlink="http://www.w3.org/1999/xlink"><defs><style type="text/css"><![CDATA[path { fill-rule: evenodd; }
#context path { fill: #eee; stroke: #bbb; } ]]></style></defs><metadata><views><view h="401" padding="0" w="500"><proj id="laea" lat0="-21.359" lon0="165.447"/><bbox h="43.02" w="95.31" x="935.67" y="973.33"/><llbbox lat0="-90" lat1="90" lon0="-180" lon1="180"/></view></views></metadata><g id="admin1"><path d="M373,242L373,241L374,240L375,239L376,237L375,237L375,235L374,234L374,233L372,233L370,231L369,230L369,232L369,233L370,234L370,236L369,235L366,233L368,233L367,232L365,228L364,227L363,228L362,228L362,229L362,230L361,229L360,227L359,227L359,225L358,224L356,223L354,223L353,222L350,221L348,220L347,219L346,218L345,217L344,215L346,216L347,216L347,215L346,214L343,213L343,212L341,212L340,211L339,210L338,209L335,207L334,205L335,204L335,202L335,200L334,199L330,199L329,197L328,197L327,196L327,195L326,192L326,190L325,189L324,188L322,188L322,188L321,187L314,186L312,184L311,184L310,183L307,183L306,181L306,180L303,179L300,176L297,173L296,172L295,170L294,169L291,168L289,167L288,166L287,166L286,165L285,164L282,160L280,158L268,155L268,157L270,160L268,159L267,157L266,158L264,157L262,156L261,155L256,150L254,149L254,147L253,146L251,145L250,144L249,144L249,146L250,147L249,148L250,149L251,148L252,149L253,150L252,151L253,153L252,154L251,154L249,155L249,156L251,157L251,158L253,158L254,157L254,156L254,157L255,158L258,159L259,160L260,161L260,163L259,165L257,164L258,166L259,167L260,169L260,172L261,173L265,175L266,177L267,176L269,181L270,181L271,184L272,185L273,185L275,187L274,188L273,188L272,188L273,189L273,190L275,191L278,194L279,194L280,195L281,196L282,197L284,197L285,198L286,199L288,198L288,199L290,200L290,201L288,202L290,202L291,204L290,204L291,205L292,206L293,209L294,208L294,207L295,207L295,208L297,209L298,208L299,210L298,211L300,211L300,212L300,213L300,215L305,221L306,222L307,222L307,224L307,225L307,226L308,226L309,225L309,224L310,223L311,225L311,226L312,225L313,226L313,227L312,228L313,229L315,229L316,229L316,228L317,228L318,227L319,226L320,226L321,225L323,224L326,224L328,225L330,225L331,226L333,227L333,230L336,231L336,231L338,231L339,230L341,230L342,231L343,231L344,231L345,233L347,234L348,236L350,236L351,237L353,237L354,237L356,238L357,238L359,239L361,240L361,241L363,242L365,242L366,241L368,242L369,242L370,243Z M263,148L263,147L259,143L259,146L260,147L261,148L263,149L264,149Z M249,143L249,142L248,141L247,140L246,139L246,141L246,142L246,143L248,143L248,144Z M231,124L231,123L230,121L229,119L228,116L227,115L226,116L227,116L227,117L227,120L227,121L229,125Z M2,101L3,100L3,98L3,96L3,93L3,91L3,88L2,87L0,89L0,92L1,101Z " data-fips="NC00" data-hasc="NC.NO" data-name="Nord" data-postal="NO" data-varname=""/><path d="M495,246L497,246L499,245L499,244L499,241L499,239L500,236L500,234L500,233L498,234L496,234L494,234L491,233L490,232L490,231L489,230L490,229L491,226L487,229L485,230L483,229L481,229L480,229L481,232L482,233L482,234L482,236L483,238L485,240L485,241L484,242L483,243L483,244L484,243L486,243L487,243L489,244L489,246L491,247L493,247Z M456,215L457,214L457,212L457,210L457,209L459,207L457,206L456,206L455,205L455,203L456,202L455,201L454,200L453,200L451,199L450,198L449,198L449,196L450,194L449,192L449,190L449,189L450,188L450,187L450,185L449,185L444,183L442,183L442,185L441,185L440,185L438,185L436,185L435,185L434,187L434,189L439,188L443,190L443,192L442,193L441,195L439,197L439,198L438,198L436,198L433,199L435,202L435,204L437,205L437,206L439,207L440,209L442,209L448,210L448,212L449,212L451,213L451,215L452,215L454,215L455,216Z M398,186L399,185L397,185L396,185L395,186L396,187Z M402,185L404,184L405,184L406,183L407,182L409,177L407,178L406,177L406,175L407,174L408,171L408,170L409,169L412,169L412,168L410,166L409,165L408,164L407,164L406,164L405,165L406,166L407,167L408,169L407,170L407,171L406,172L405,174L405,178L404,180L403,181L402,183L401,184L400,184L401,185Z " data-fips="NC01" data-hasc="NC.IL" data-name="les Loyaut" data-postal="IL" data-varname="Loyalty Islands|Islas de la Lealtad"/><path d="M461,311L461,309L462,308L463,310L463,309L463,308L462,307L461,306L460,305L459,304L457,304L456,304L456,305L456,309L455,311L459,312L461,312Z M420,298L419,297L420,296L421,296L421,295L420,294L419,294L418,295L417,297L417,298L419,298Z M427,294L428,292L428,291L429,290L431,290L431,289L432,287L432,286L431,285L432,285L432,283L430,282L429,280L428,279L428,279L428,278L428,276L427,274L423,271L420,270L418,270L417,269L415,268L414,267L412,267L413,266L414,266L413,265L411,264L410,264L409,263L407,262L406,261L405,260L403,257L402,256L401,255L400,254L399,253L397,251L395,249L393,249L392,248L391,247L393,246L388,245L386,244L384,242L383,241L382,240L379,237L378,237L377,237L376,237L375,239L374,240L373,241L373,242L370,243L369,242L368,242L366,241L365,242L363,242L361,241L361,240L359,239L357,238L356,238L354,237L353,237L351,237L350,236L348,236L347,234L345,233L344,231L343,231L342,231L341,230L339,230L338,231L336,231L336,231L333,230L333,227L331,226L330,225L328,225L326,224L323,224L321,225L320,226L319,226L318,227L317,228L318,228L318,229L320,233L321,235L322,235L325,237L326,237L327,239L327,240L328,241L334,244L335,244L336,243L337,243L338,243L339,243L338,244L340,244L339,246L341,247L349,251L350,250L351,250L351,251L351,253L353,252L354,251L355,250L355,252L356,253L356,254L357,256L358,256L358,255L359,255L358,256L360,259L359,258L360,259L362,259L363,259L364,260L366,261L367,263L369,264L370,265L371,265L372,264L373,264L373,262L374,261L375,263L376,263L375,264L376,264L379,265L379,267L379,268L379,269L380,269L381,270L379,270L378,271L380,272L379,273L378,273L377,274L378,275L379,274L381,275L382,275L383,276L384,277L384,278L385,278L386,279L387,279L388,278L390,279L390,279L391,281L391,282L392,283L392,282L394,281L395,279L397,279L397,282L398,282L396,283L394,283L396,284L397,284L397,285L397,287L397,288L398,288L398,287L399,287L400,286L400,284L402,283L403,284L405,285L404,285L405,286L406,287L407,287L409,286L409,287L411,288L412,289L413,289L413,290L414,291L415,291L416,291L415,293L416,293L418,294L419,293L420,293L421,293L420,292L420,291L420,288L421,289L421,290L422,291L423,289L423,290L424,291L425,293L426,293L425,293L424,294L425,294Z " data-fips="NC03" data-hasc="NC.SU" data-name="Sud" data-postal="SU" data-varname=""/></g></svg>