<?xml version="1.0" ?><!DOCTYPE svg  PUBLIC '-//W3C//DTD SVG 1.1//EN'  'http://www.w3.org/Graphics/SVG/1.1/DTD/svg11.dtd'><svg enable_background="new 0 0 500 401" height="401px" style="stroke-linejoin: round; stroke:#000; fill:#f6f3f0;" version="1.1" viewBox="0 0 500 401" width="500px" xmlns="http://www.w3.org/2000/svg" xmlns:xlink="http://www.w3.org/1999/xlink"><defs><style type="text/css"><![CDATA[path { fill-rule: evenodd; }
#context path { fill: #eee; stroke: #bbb; } ]]></style></defs><metadata><views><view h="401" padding="0" w="500"><proj id="laea" lat0="-42.634" lon0="172.235"/><bbox h="159.93" w="111.37" x="950.44" y="898.48"/><llbbox lat0="-90" lat1="90" lon0="-180" lon1="180"/></view></views></metadata><g id="admin1"><path d="M306,223L307,222L309,221L314,218L315,217L317,216L317,215L321,212L324,209L324,208L325,205L326,204L328,203L328,201L329,199L330,198L331,196L332,195L332,194L333,193L334,192L336,190L337,190L338,189L336,187L334,187L333,187L332,185L332,183L332,180L332,179L331,178L331,177L330,176L328,175L326,175L326,174L327,171L327,169L328,165L329,164L328,163L328,162L329,161L330,159L332,159L332,156L332,155L331,154L332,152L331,151L330,151L329,149L328,148L327,148L325,148L324,148L323,149L322,149L322,151L321,152L319,152L317,152L315,151L315,150L315,149L316,148L316,146L316,145L317,143L316,142L314,142L315,140L314,139L315,137L314,135L315,134L315,133L316,132L316,131L316,130L315,131L314,130L313,129L312,129L310,130L309,129L309,130L308,131L306,131L304,131L303,131L302,132L300,133L300,135L297,136L296,137L296,138L297,139L298,140L298,142L300,143L300,144L302,145L301,146L299,148L298,150L297,150L296,152L298,153L298,154L298,156L299,157L300,158L300,160L300,161L300,163L299,164L299,165L298,165L296,167L295,168L295,169L295,169L296,169L298,170L299,171L302,174L304,176L304,178L305,179L305,181L306,182L307,181L308,181L308,182L306,183L305,183L305,184L305,186L305,187L304,188L304,189L304,191L303,192L302,195L301,197L300,199L298,201L298,203L297,204L296,204L295,205L296,206L296,207L295,207L294,207L293,209L291,211L290,211L289,212L290,213L290,214L292,214L293,214L294,214L295,214L294,213L294,212L295,211L296,211L296,212L296,214L296,215L296,216L296,217L297,217L299,216L300,216L303,218L303,220L303,221L303,222L304,223Z " data-fips="NZF3" data-hasc="NZ.MW" data-name="Manawatu-Wanganui" data-postal="MW" data-varname="Wanganui-Mawanatu"/><path d="M338,188L338,187L340,184L339,184L339,183L340,183L341,183L342,182L343,181L344,179L344,178L344,177L345,176L346,174L347,171L347,170L348,168L349,167L350,166L350,165L348,165L346,164L346,164L347,163L346,159L346,158L346,157L346,156L347,155L349,153L349,152L350,151L353,149L358,147L359,147L363,148L367,148L368,149L369,149L368,150L368,152L368,153L369,155L370,154L370,153L371,151L372,150L371,149L370,148L370,147L370,146L371,145L371,144L371,142L372,140L372,139L372,138L372,137L373,136L374,136L375,137L378,135L381,132L381,130L382,129L382,128L382,126L382,125L382,124L382,123L383,122L382,120L383,120L384,118L383,117L383,116L384,115L385,112L387,111L387,109L388,109L389,108L389,106L387,105L386,105L385,104L384,104L383,103L382,102L377,102L377,103L375,104L375,105L375,106L375,107L376,107L376,108L376,109L375,110L373,112L372,117L371,118L370,118L369,117L368,116L367,116L367,118L366,119L366,120L365,120L363,121L362,121L362,122L362,124L361,124L360,125L357,126L356,127L356,128L355,130L354,131L353,132L352,132L351,133L350,133L350,135L349,135L348,135L346,134L344,135L342,136L342,138L342,139L341,141L339,142L339,144L338,144L336,144L335,145L335,147L334,148L334,149L332,148L330,147L329,149L330,151L331,151L332,152L331,154L332,155L332,156L332,159L330,159L329,161L328,162L328,163L329,164L328,165L327,169L327,171L326,174L326,175L328,175L330,176L331,177L331,178L332,179L332,180L332,183L332,185L333,187L334,187L336,187L338,189Z " data-fips="NZF1" data-hasc="NZ.GI" data-name="Gisborne" data-postal="GI" data-varname="East Coast"/><path d="M321,152L322,151L322,149L323,149L324,148L325,148L327,148L328,148L330,147L332,145L330,142L329,141L328,140L327,138L328,136L330,137L331,137L330,135L330,134L330,133L330,131L328,130L327,130L327,129L328,128L329,127L330,128L331,129L332,128L333,128L334,129L333,130L334,131L335,130L335,129L337,129L338,126L337,124L333,123L333,122L332,120L332,119L332,118L332,116L331,115L329,115L328,114L327,113L326,112L325,111L325,109L325,108L324,106L324,103L323,102L323,101L322,99L323,98L322,97L323,96L324,97L324,96L325,95L325,94L326,93L326,93L326,92L325,90L325,88L325,87L325,88L325,87L324,86L325,85L325,83L324,83L325,82L325,81L325,79L324,78L324,77L323,76L321,77L321,78L321,77L321,76L321,75L322,75L323,74L324,74L323,73L322,73L321,73L320,74L318,74L319,73L318,72L318,70L318,70L316,69L317,68L316,66L315,66L314,66L313,65L312,66L312,67L313,68L314,69L315,70L316,71L315,72L315,74L316,75L315,76L315,77L315,77L314,77L314,78L315,79L316,80L317,83L317,85L317,86L317,88L317,89L317,88L317,87L316,88L315,88L314,88L312,88L311,87L311,86L311,84L311,82L311,81L309,80L308,79L307,79L306,80L305,80L305,78L304,77L303,77L303,79L302,79L302,77L301,76L300,79L300,78L300,78L300,76L298,76L297,76L296,77L295,77L294,75L295,75L294,74L295,73L296,74L297,75L298,75L297,71L296,69L297,70L298,70L299,69L297,69L296,68L296,67L296,66L297,65L297,64L296,63L297,64L298,65L298,64L298,63L298,61L300,61L299,60L299,59L298,58L297,58L297,57L295,54L295,54L292,56L290,57L291,58L290,59L289,59L288,60L287,60L286,60L285,61L287,62L288,62L289,61L290,62L290,63L290,64L290,66L291,68L290,68L290,70L288,70L287,69L288,68L287,67L286,66L285,64L284,63L283,64L284,63L283,64L283,65L284,66L287,71L288,73L289,75L289,78L290,82L292,82L292,81L294,81L294,79L295,79L297,79L299,79L298,80L298,81L299,81L299,82L300,82L301,83L301,84L300,83L299,84L297,84L296,86L297,86L296,87L296,88L295,86L294,84L294,82L293,83L292,83L293,86L294,87L294,89L295,91L296,92L297,90L298,90L298,91L297,92L296,93L295,93L296,95L297,98L299,105L300,104L301,104L301,106L300,106L299,106L298,106L297,108L297,111L297,112L298,111L299,110L299,111L298,112L297,113L298,114L298,113L299,114L300,115L298,115L298,116L297,116L296,115L295,115L295,116L295,117L295,119L295,120L294,122L294,123L293,125L293,126L293,131L292,132L292,133L294,134L296,134L297,135L300,135L300,133L302,132L303,131L304,131L306,131L308,131L309,130L309,129L310,130L312,129L313,129L314,130L315,131L316,130L316,131L316,132L315,133L315,134L314,135L315,137L314,139L315,140L314,142L316,142L317,143L316,145L316,146L316,148L315,149L315,150L315,151L317,152L319,152Z M308,75L307,74L308,74L307,73L306,74L305,74L304,75L304,75L305,76L306,76Z M324,70L323,70L322,69L323,70L324,70Z M301,64L301,64L301,62L300,63L300,64Z M307,57L307,56L306,57L307,57Z M317,60L316,59L316,57L317,56L316,56L315,54L315,54L314,53L314,52L313,53L313,54L312,55L313,56L313,57L312,57L313,58L314,59L315,59L315,60L316,60L317,61Z " data-fips="NZE7" data-hasc="NZ.AU" data-name="Auckland" data-postal="AU" data-varname=""/><path d="M334,148L335,147L335,145L336,144L338,144L339,144L339,142L341,141L342,139L342,138L342,136L344,135L346,134L348,135L349,135L350,135L350,133L351,133L352,132L353,132L354,131L355,130L356,128L356,127L357,126L360,125L361,124L362,124L362,122L362,121L363,121L365,120L366,120L366,119L367,118L367,116L368,116L369,117L370,118L371,118L372,117L373,112L375,110L376,109L376,108L376,107L375,107L375,106L375,105L375,104L377,103L377,102L376,102L375,103L373,103L373,104L371,104L368,106L368,107L367,108L366,109L365,110L365,111L364,112L362,113L361,114L359,114L358,114L357,114L354,114L353,115L352,113L354,113L353,113L351,112L349,112L348,111L346,111L345,110L344,110L339,106L338,106L337,105L336,105L334,104L333,103L332,102L332,103L332,104L331,104L331,103L330,102L329,103L328,102L328,101L326,101L326,100L326,99L325,98L326,98L328,98L328,99L329,100L328,100L329,100L330,100L330,99L329,98L327,97L326,96L327,95L326,94L326,93L325,94L325,95L324,96L324,97L323,96L322,97L323,98L322,99L323,101L323,102L324,103L324,106L325,108L325,109L325,111L326,112L327,113L328,114L329,115L331,115L332,116L332,118L332,119L332,120L333,122L333,123L337,124L338,126L337,129L335,129L335,130L334,131L333,130L334,129L333,128L332,128L331,129L330,128L329,127L328,128L327,129L327,130L328,130L330,131L330,133L330,134L330,135L331,137L330,137L328,136L327,138L328,140L329,141L330,142L332,145L330,147L332,148L334,149Z " data-fips="NZE8" data-hasc="NZ.BP" data-name="Bay of Plenty" data-postal="BP" data-varname=""/><path d="M197,327L201,324L202,323L204,323L205,323L212,324L212,323L212,322L212,321L212,320L212,319L212,318L212,316L212,314L211,312L213,311L213,310L214,309L214,307L215,304L214,304L213,303L214,303L215,304L217,303L219,302L218,301L217,300L217,298L216,297L215,296L216,297L218,298L219,299L219,300L220,300L221,300L222,299L223,299L225,297L225,294L225,295L226,297L227,297L231,294L233,293L234,292L233,291L232,290L231,288L230,288L229,287L227,285L233,288L234,289L236,292L238,291L238,290L238,288L239,287L240,287L241,287L242,288L243,289L240,290L239,291L240,291L242,290L244,290L245,289L246,289L246,290L247,291L248,292L249,292L251,292L250,290L250,289L251,288L251,289L251,290L251,291L252,292L253,291L254,290L254,288L254,287L254,286L253,285L252,285L251,285L250,286L250,285L249,284L249,285L248,284L247,284L246,285L245,284L246,283L248,283L247,282L246,280L246,277L245,278L244,279L241,279L238,278L241,279L243,278L244,278L245,277L246,277L246,275L246,274L244,274L241,273L245,273L246,273L247,272L248,270L249,269L251,267L254,267L255,266L255,265L257,264L258,263L259,262L259,262L259,260L260,260L261,259L261,258L262,253L263,253L264,252L264,250L265,249L266,247L267,247L269,247L268,246L269,245L270,244L271,243L272,242L273,240L273,239L272,238L273,239L274,239L274,238L274,236L275,235L277,233L276,232L275,232L274,232L273,232L271,232L270,232L269,232L268,233L267,234L266,234L265,235L264,236L263,239L262,240L259,241L258,243L257,244L257,245L256,247L255,248L254,248L253,248L252,247L252,246L251,245L250,244L249,243L249,242L248,241L248,240L247,239L246,238L245,237L244,237L244,238L243,241L241,242L240,243L240,244L240,245L239,246L238,246L236,247L235,248L234,249L233,251L232,251L232,253L230,254L229,254L228,254L227,256L227,257L225,258L224,258L224,260L223,261L223,262L222,262L220,262L218,262L216,263L215,263L214,264L213,265L212,266L212,267L209,267L208,268L207,270L206,271L204,272L200,275L197,278L196,278L195,278L192,280L189,281L187,284L187,285L185,287L185,288L184,289L181,292L180,293L179,294L178,298L177,299L177,300L176,302L175,303L176,310L176,310L177,312L178,314L179,314L180,315L181,316L184,317L184,317L185,318L186,321L186,322L187,323L188,324L190,324L192,324L193,324L193,326L194,327L195,328Z " data-fips="NZE9" data-hasc="NZ.CA" data-name="Canterbury" data-postal="CA" data-varname=""/><path d="M255,248L256,247L257,245L257,244L258,243L259,241L262,240L263,239L264,236L265,235L266,234L267,234L268,233L269,232L270,232L271,232L273,232L274,232L275,232L276,232L277,233L280,230L282,226L281,226L280,225L280,223L279,223L278,224L276,224L278,224L279,223L279,221L278,219L277,220L277,219L277,218L277,216L278,215L279,213L280,213L280,214L280,214L282,213L282,212L283,210L282,211L281,211L280,212L279,211L277,211L276,212L275,212L274,212L275,211L277,211L278,210L279,210L280,210L281,209L280,208L280,207L280,206L281,208L282,207L282,206L283,204L281,205L281,206L280,205L281,204L280,203L279,203L278,204L277,204L276,203L275,203L275,204L276,205L277,205L276,206L275,207L275,206L274,206L274,207L273,208L274,209L275,209L276,209L279,209L278,210L276,210L275,210L274,210L273,211L271,212L270,211L271,211L272,210L273,209L272,208L273,207L273,206L274,206L275,205L273,205L272,205L270,206L271,205L271,204L271,203L272,204L274,203L275,202L275,201L276,201L275,200L274,201L274,202L272,202L272,201L271,202L270,203L269,203L268,204L270,204L269,205L268,206L268,207L267,205L266,205L266,206L266,207L265,208L264,209L263,210L261,213L260,214L259,216L259,218L258,219L257,219L256,220L256,221L254,223L253,224L252,225L251,227L250,227L249,230L249,232L246,235L245,237L246,238L247,239L248,240L248,241L249,242L249,243L250,244L251,245L252,246L252,247L253,248L254,248Z M283,210L284,210L285,209L285,208L284,207L283,208L284,208L283,209L281,210L280,211L282,211Z M272,200L273,200L274,199L274,198L275,197L275,196L275,195L274,196L274,197L273,197L273,196L272,196L272,198L272,199L271,199L271,200L271,201Z " data-fips="NZF4" data-hasc="NZ.MA" data-name="Marlborough" data-postal="MA" data-varname=""/><path d="M261,213L263,210L264,209L265,208L266,207L266,206L266,205L266,205L266,206L265,206L264,208L263,207L262,208L260,209L259,211L258,212L257,213L257,214L260,214Z " data-fips="" data-hasc="" data-name="Nelson" data-postal="" data-varname=""/><path d="M240,243L241,242L243,241L244,238L244,237L245,237L246,235L249,232L249,230L250,227L251,227L252,225L253,224L254,223L256,221L256,220L257,219L258,219L259,218L259,216L257,214L257,213L256,213L254,212L255,211L255,210L254,209L253,208L254,206L253,205L253,203L254,202L254,201L254,199L253,198L253,197L252,196L251,197L250,198L249,198L247,197L246,196L245,195L245,193L245,192L245,191L246,190L246,189L247,188L252,188L250,188L249,188L244,188L243,188L243,190L244,190L243,191L242,191L241,190L240,191L238,194L236,195L235,196L235,196L235,198L236,200L237,201L238,202L237,203L237,204L237,205L239,204L240,204L241,205L241,206L242,207L244,208L245,209L245,210L244,211L243,211L243,212L243,214L243,215L242,216L241,216L239,216L239,217L239,218L237,220L237,222L236,223L235,224L235,225L233,225L232,226L232,227L232,228L232,230L231,231L231,233L232,234L232,235L233,237L234,237L235,238L235,239L237,239L237,240L238,242L238,243L239,243Z " data-fips="NZ00" data-hasc="" data-name="Tasman" data-postal="" data-varname=""/><path d="M282,62L283,61L283,60L283,58L282,58L280,56L280,55L279,54L278,53L278,51L277,50L276,48L277,47L277,46L277,46L277,47L277,49L278,50L278,51L279,53L280,54L281,55L282,55L283,55L283,56L284,57L286,57L287,57L286,56L285,57L285,55L284,55L283,54L285,53L285,54L286,55L287,56L288,56L288,56L289,55L289,54L290,55L289,56L288,57L287,58L286,58L287,59L288,59L289,58L290,57L292,56L295,54L295,54L294,53L294,52L294,51L293,51L291,50L291,49L291,47L291,46L292,45L291,44L289,45L288,45L288,43L288,41L289,42L289,43L290,43L291,43L292,44L293,45L294,45L293,44L293,42L293,41L292,40L292,39L293,39L293,37L292,36L291,35L292,34L291,33L290,32L289,32L288,29L289,30L290,31L289,29L288,29L288,28L288,27L288,25L287,26L286,27L285,27L284,27L283,28L285,28L285,29L284,29L283,29L283,30L283,29L282,27L282,26L281,26L280,26L281,25L280,24L282,24L282,25L283,25L282,23L281,22L280,23L279,22L278,21L277,20L277,19L275,19L274,20L273,22L272,21L273,20L274,19L273,19L272,18L271,18L270,17L269,16L269,18L269,19L268,18L267,18L266,18L265,17L264,16L265,15L266,15L266,14L266,14L265,13L265,14L264,14L263,15L263,17L263,18L262,19L261,19L261,17L262,16L258,14L258,12L259,13L259,12L258,11L257,10L256,9L256,8L255,6L254,4L255,6L254,8L253,5L254,4L253,5L252,4L253,4L254,3L255,4L255,3L255,2L256,0L255,1L251,1L249,1L248,1L247,0L247,1L246,2L248,4L249,5L255,12L256,15L258,17L259,19L259,20L259,22L259,23L258,24L256,24L257,25L258,26L259,28L260,28L259,29L260,30L261,28L262,28L262,29L261,30L261,31L264,34L264,31L265,30L266,31L266,30L267,30L268,29L268,28L268,27L269,29L269,28L270,29L269,30L269,31L268,32L268,31L267,32L266,32L265,33L265,34L264,35L264,36L275,52L276,53L279,58L280,61L281,62Z " data-fips="NZF6" data-hasc="NZ.NO" data-name="Northland" data-postal="NO" data-varname=""/><path d="M295,168L296,167L298,165L299,165L299,164L300,163L300,161L300,160L300,158L299,157L298,156L298,154L298,153L296,152L297,150L298,150L299,148L301,146L302,145L300,144L300,143L298,142L298,140L297,139L296,138L296,137L297,136L297,135L296,134L294,134L292,133L292,133L292,134L292,135L291,137L288,140L287,141L286,141L282,141L276,145L273,146L272,147L272,148L271,150L271,151L271,152L272,154L272,155L273,156L276,159L278,159L282,160L283,160L284,161L285,162L287,165L289,167L290,168L292,168L295,169Z " data-fips="NZF9" data-hasc="NZ.TK" data-name="Taranaki" data-postal="TK" data-varname="New Plymouth"/><path d="M152,312L156,310L158,309L159,307L160,305L160,304L162,303L163,301L164,300L166,300L167,300L169,299L170,299L171,300L173,298L174,298L175,297L176,296L177,295L179,294L180,293L181,292L184,289L185,288L185,287L187,285L187,284L189,281L192,280L195,278L196,278L197,278L200,275L204,272L206,271L207,270L208,268L209,267L212,267L212,266L213,265L214,264L215,263L216,263L218,262L220,262L222,262L223,262L223,261L224,260L224,258L225,258L227,257L227,256L228,254L229,254L230,254L232,253L232,251L233,251L234,249L235,248L236,247L238,246L239,246L240,245L240,244L240,243L239,243L238,243L238,242L237,240L237,239L235,239L235,238L234,237L233,237L232,235L232,234L231,233L231,231L232,230L232,228L232,227L232,226L233,225L235,225L235,224L236,223L237,222L237,220L239,218L239,217L239,216L241,216L242,216L243,215L243,214L243,212L243,211L244,211L245,210L245,209L244,208L242,207L241,206L241,205L240,204L239,204L237,205L237,204L237,203L238,202L237,201L236,200L235,198L235,196L235,196L234,197L233,198L233,199L232,199L232,201L232,204L232,206L232,207L232,211L233,212L231,212L231,213L231,214L231,216L230,216L229,218L228,219L228,220L227,222L226,223L225,224L224,224L222,226L220,226L219,227L217,227L218,229L217,230L217,231L216,233L216,235L215,236L214,237L214,238L214,243L213,244L212,247L213,248L214,248L215,247L215,248L212,248L211,249L209,252L209,254L208,254L207,255L207,256L208,258L208,259L209,260L209,261L208,260L207,260L207,261L208,262L207,264L207,262L207,260L208,259L207,257L207,256L206,257L203,261L202,262L201,263L200,264L201,265L201,266L200,265L199,264L198,264L196,265L195,266L197,267L198,268L195,267L194,267L193,268L191,269L194,270L194,272L194,273L194,271L193,270L193,269L191,269L190,269L189,270L189,272L190,271L191,270L190,272L188,272L187,273L187,274L187,276L186,275L185,276L182,277L181,278L182,279L183,280L184,280L183,280L182,280L181,280L180,280L181,281L181,283L181,282L180,282L178,283L177,284L175,285L174,285L174,287L174,288L173,287L173,286L172,286L171,286L171,287L169,288L167,289L166,290L165,291L165,292L166,293L167,294L168,295L167,294L165,294L164,292L163,293L162,294L161,295L160,296L159,297L157,297L156,297L155,296L154,297L153,297L151,298L150,299L149,300L149,301L148,302L147,303L146,304L145,305L144,306L144,306L146,306L147,306L148,306L149,308L150,309L149,310L149,312Z " data-fips="NZG3" data-hasc="NZ.WC" data-name="West Coast" data-postal="WC" data-varname=""/><path d="M172,378L173,377L175,378L176,377L176,376L178,375L179,376L180,375L182,374L182,373L180,373L182,372L183,373L184,372L184,371L184,369L185,368L188,366L189,365L190,364L191,364L192,363L192,361L192,360L193,359L194,357L196,356L197,355L202,354L203,354L204,353L203,351L202,352L202,353L200,354L199,354L200,353L201,352L202,351L203,351L203,350L201,349L201,348L202,347L202,345L203,345L203,344L204,343L204,342L205,341L205,340L206,338L205,337L206,336L206,334L207,331L210,329L211,325L205,323L204,323L202,323L201,324L197,327L195,328L194,327L193,326L193,324L192,324L190,324L188,324L187,323L186,322L186,321L185,318L184,317L184,317L181,316L180,315L179,314L178,314L177,312L176,310L176,310L175,303L176,302L177,300L177,299L178,298L177,295L176,296L175,297L174,298L173,298L171,300L170,299L169,299L167,300L166,300L164,300L163,301L162,303L160,304L160,305L159,307L158,309L156,310L152,312L149,312L148,313L147,314L146,316L146,317L146,319L146,320L145,323L145,324L145,325L146,326L146,327L147,329L149,330L148,333L149,334L149,336L150,337L152,338L153,338L157,336L158,338L159,339L160,340L162,341L163,340L165,337L167,337L169,339L169,340L168,341L167,345L166,348L165,349L165,351L165,352L166,353L167,354L167,356L167,357L168,359L168,360L169,361L169,363L170,365L170,367L169,369L170,371L170,372L171,374L170,375L170,377L170,377L171,378Z " data-fips="NZF7" data-hasc="NZ.OT" data-name="Otago" data-postal="OT" data-varname=""/><path d="M139,398L140,398L140,397L139,397L140,395L141,394L142,395L143,395L144,396L145,395L146,394L148,393L150,393L150,392L151,392L150,391L151,391L151,389L150,389L149,389L148,388L146,388L145,389L146,388L146,386L147,387L150,387L149,386L148,385L147,384L145,381L145,381L143,381L142,381L141,381L140,383L141,384L141,385L142,386L142,388L141,389L140,390L140,391L139,391L138,392L138,393L138,394L138,396L137,396L136,398L136,399L137,399Z M158,382L158,381L157,382L158,383Z M168,379L168,378L168,378L170,378L170,377L170,375L171,374L170,372L170,371L169,369L170,367L170,365L169,363L169,361L168,360L168,359L167,357L167,356L167,354L166,353L165,352L165,351L165,349L166,348L167,345L168,341L169,340L169,339L167,337L165,337L163,340L162,341L160,340L159,339L158,338L157,336L153,338L152,338L150,337L149,336L149,334L148,333L149,330L147,329L146,327L146,326L145,325L145,324L145,323L146,320L146,319L146,317L146,316L147,314L148,313L149,312L149,310L150,309L149,308L148,306L147,306L146,306L144,306L144,306L144,307L142,308L142,309L140,310L139,313L138,314L139,315L139,316L140,317L141,318L141,319L140,318L139,317L138,316L136,317L135,318L135,318L133,320L134,320L135,322L134,321L133,320L132,321L133,322L133,323L133,324L133,325L132,324L133,323L132,322L130,323L130,324L131,326L131,327L132,328L132,329L131,329L130,328L130,326L130,325L129,324L128,326L127,326L125,327L125,329L128,330L127,330L126,329L125,329L124,330L124,331L125,331L127,332L125,332L125,333L125,332L124,331L123,331L122,333L123,333L124,334L125,335L124,335L123,334L122,333L121,334L121,336L122,337L123,338L125,338L126,338L127,339L128,340L126,339L125,338L122,340L125,342L125,344L125,343L125,342L124,341L123,343L122,343L123,342L123,341L121,340L120,341L121,340L120,339L118,339L117,340L118,341L119,342L120,342L120,343L119,342L118,342L116,343L116,345L115,347L116,348L117,348L118,347L120,346L123,345L122,346L121,347L122,347L121,347L119,347L118,348L117,349L118,350L119,350L118,351L118,352L120,352L121,352L123,351L122,352L121,353L120,354L118,354L117,354L115,355L114,355L113,355L111,355L111,356L111,359L111,360L112,361L113,361L115,359L116,358L117,357L116,359L117,359L119,359L118,360L116,360L115,362L115,363L115,364L117,363L117,362L118,363L118,361L119,360L120,360L121,359L120,360L119,361L118,363L118,364L117,365L116,366L117,367L118,368L120,368L123,367L124,368L125,368L127,368L128,368L130,368L131,368L132,368L132,367L133,365L133,364L136,365L137,365L138,366L139,367L140,369L140,370L141,371L142,371L143,371L144,371L145,371L146,371L146,370L148,369L149,370L151,372L151,373L152,373L152,372L153,372L153,374L152,375L151,375L152,376L152,377L153,377L153,377L153,376L154,376L156,376L157,377L156,376L155,376L154,377L158,378L159,376L158,375L159,375L160,376L162,376L163,376L164,379L165,379L166,379Z M116,353L117,352L117,351L116,349L115,349L113,350L112,351L112,352L114,351L114,351L115,353Z M122,339L121,337L121,336L120,334L119,337L120,338L121,339Z " data-fips="NZF8" data-hasc="NZ.SO" data-name="Southland" data-postal="SO" data-varname=""/></g></svg>