<?xml version="1.0" ?><!DOCTYPE svg  PUBLIC '-//W3C//DTD SVG 1.1//EN'  'http://www.w3.org/Graphics/SVG/1.1/DTD/svg11.dtd'><svg enable_background="new 0 0 500 401" height="401px" style="stroke-linejoin: round; stroke:#000; fill:#f6f3f0;" version="1.1" viewBox="0 0 500 401" width="500px" xmlns="http://www.w3.org/2000/svg" xmlns:xlink="http://www.w3.org/1999/xlink"><defs><style type="text/css"><![CDATA[path { fill-rule: evenodd; }
#context path { fill: #eee; stroke: #bbb; } ]]></style></defs><metadata><views><view h="401" padding="0" w="500"><proj id="laea" lat0="-15.376" lon0="166.899"/><bbox h="88.94" w="39.32" x="995.45" y="971.48"/><llbbox lat0="-90" lat1="90" lon0="-180" lon1="180"/></view></views></metadata><g id="admin1"><path d="M217,69L218,68L220,65L220,62L219,61L216,60L215,60L213,61L212,61L210,62L210,63L209,64L210,67L209,68L210,69L211,69L212,69L216,70Z M214,49L214,48L214,46L215,45L216,45L217,45L219,43L218,43L217,43L217,42L217,40L216,37L215,36L213,36L211,37L210,37L209,38L209,39L209,41L209,42L210,44L211,45L212,46L212,47L213,49Z M224,34L225,34L226,33L226,32L225,31L224,31L224,32L222,35Z M207,26L207,26L206,25L205,25L207,24L206,23L204,24L204,25L205,27L206,27Z M168,11L168,10L168,8L167,8L166,9L165,9L165,11L167,11Z M164,6L165,5L164,4L165,3L164,1L164,1L162,0L162,0L162,1L162,2L162,4L162,5L163,6L164,7Z " data-fips="NH07" data-hasc="VU.TR" data-name="Torba" data-postal="TR" data-varname=""/><path d="M200,148L200,147L200,145L200,144L200,143L198,142L194,142L193,142L192,143L191,145L193,146L195,147L197,149L199,149Z M197,140L199,140L199,139L197,139L198,137L197,137L196,137L193,140L195,141Z M179,143L179,142L180,141L181,141L183,140L185,139L187,139L190,139L191,140L192,140L193,139L195,137L197,136L199,136L200,136L201,135L200,134L199,133L198,130L197,127L196,126L197,126L198,125L198,124L197,122L196,122L195,121L196,120L195,115L195,114L194,114L192,115L192,114L191,111L191,109L190,109L191,107L191,105L191,104L192,103L187,103L186,104L186,106L186,112L185,113L184,114L184,115L183,116L181,116L179,116L178,116L177,116L176,108L176,107L175,104L175,102L174,99L174,97L172,95L170,94L170,93L169,91L168,90L167,89L167,87L166,87L164,88L164,90L163,93L163,95L163,96L162,98L163,102L164,103L165,106L165,107L165,108L167,109L166,111L167,113L167,115L167,116L169,118L169,119L169,122L169,123L168,125L168,127L167,128L167,129L168,130L168,131L170,133L171,135L172,137L173,137L175,138L175,139L175,141L174,142L175,143L177,143L178,144Z M195,105L193,104L194,105L196,105Z " data-fips="NH13" data-hasc="VU.SN" data-name="Sanma" data-postal="SN" data-varname=""/><path d="M337,398L338,397L338,396L338,395L336,394L335,393L334,392L333,392L331,393L330,394L330,395L331,397L332,398L333,398L335,399Z M315,365L315,364L316,362L318,359L316,358L315,357L313,356L312,356L311,355L310,350L310,349L310,347L309,347L307,347L306,347L305,348L304,349L304,351L303,352L303,354L303,355L303,356L305,360L306,360L307,361L308,362L311,365L314,366Z M307,328L308,328L309,327L310,326L310,324L309,323L308,322L306,321L304,319L303,317L306,316L305,315L304,315L302,315L301,314L301,313L301,311L301,310L300,309L299,308L297,308L294,309L293,310L292,311L292,312L292,316L292,318L292,319L292,322L295,324L297,325L298,325L300,326L301,326L306,328L307,329Z " data-fips="NH15" data-hasc="VU.TF" data-name="Tafea" data-postal="TF" data-varname=""/><path d="M259,193L260,191L259,190L258,190L256,190L257,192L258,193Z M254,190L254,189L255,187L253,187L252,189L251,190L253,191Z M216,194L218,193L218,192L218,191L219,190L221,190L222,190L223,190L224,191L226,191L227,192L228,193L229,192L229,190L230,190L231,189L232,187L231,186L230,186L230,188L229,189L229,188L229,187L230,185L229,182L229,181L227,181L225,180L224,178L224,177L222,177L221,176L219,175L217,174L216,173L216,172L215,172L213,171L214,170L212,168L212,170L211,169L210,169L210,168L209,167L209,166L208,165L209,164L205,159L205,157L200,155L198,156L197,157L197,158L197,162L195,165L195,166L196,168L197,168L197,170L197,171L199,171L200,172L202,170L204,170L205,169L207,172L207,173L208,174L208,175L208,178L208,182L208,183L209,184L209,185L209,186L211,188L211,189L211,191L210,190L210,191L211,193L212,194L214,194L215,195Z M250,182L256,182L258,180L258,180L258,178L254,176L253,175L253,174L252,170L251,168L250,167L248,168L247,170L246,171L244,173L243,173L241,173L240,174L238,174L237,175L237,176L237,177L239,178L240,179L242,181L243,181L245,181L246,181L247,182L249,182Z " data-fips="NH16" data-hasc="VU.ML" data-name="Malampa" data-postal="ML" data-varname=""/><path d="M253,162L254,161L255,160L255,158L255,155L254,153L254,150L252,146L252,144L251,141L252,138L251,136L251,135L250,133L249,133L249,137L248,142L247,144L247,146L248,148L249,151L250,156L251,159L251,161L252,162Z M251,128L251,126L251,124L251,123L251,118L250,117L250,114L249,112L250,110L249,107L249,105L248,104L248,103L247,103L246,104L246,105L246,106L248,115L248,116L248,122L248,124L248,127L248,128L248,129L249,129L251,129Z M234,134L238,130L238,129L238,128L239,127L239,125L240,125L241,123L240,123L235,123L232,125L231,125L224,131L224,133L226,134L227,134L232,134Z " data-fips="NH17" data-hasc="VU.PM" data-name="Penama" data-postal="PM" data-varname=""/><path d="M265,263L266,264L267,263L268,263L269,262L270,260L270,256L269,256L268,255L267,254L267,253L266,252L266,250L265,250L264,248L263,248L259,248L258,249L257,248L256,248L254,249L252,253L250,254L248,258L249,259L250,259L252,257L253,256L254,257L255,257L256,259L257,259L256,260L255,260L254,261L253,262L256,261L257,260L257,262L258,262L259,262L260,263L261,264Z M252,249L254,248L256,247L255,246L253,247L251,249L252,250Z M260,243L259,242L258,241L257,243L258,244L260,245Z M260,223L261,222L263,221L261,220L258,222L258,223L259,223Z M271,215L272,212L271,211L270,211L269,212L269,214L269,215Z M265,208L266,207L265,206L264,205L261,206L260,205L259,204L258,203L258,202L256,200L255,200L253,200L253,199L252,198L251,196L250,195L249,195L248,194L249,196L248,197L247,199L247,201L247,202L248,204L249,206L251,208L253,208L254,208L256,207L259,206L261,207L262,208L265,210L266,210Z " data-fips="NH18" data-hasc="VU.SE" data-name="Shefa" data-postal="SE" data-varname=""/></g></svg>