<?xml version="1.0" ?><!DOCTYPE svg  PUBLIC '-//W3C//DTD SVG 1.1//EN'  'http://www.w3.org/Graphics/SVG/1.1/DTD/svg11.dtd'><svg enable_background="new 0 0 500 401" height="401px" style="stroke-linejoin: round; stroke:#000; fill:#f6f3f0;" version="1.1" viewBox="0 0 500 401" width="500px" xmlns="http://www.w3.org/2000/svg" xmlns:xlink="http://www.w3.org/1999/xlink"><defs><style type="text/css"><![CDATA[path { fill-rule: evenodd; }
#context path { fill: #eee; stroke: #bbb; } ]]></style></defs><metadata><views><view h="401" padding="0" w="500"><proj id="laea" lat0="33.677" lon0="65.216"/><bbox h="113.65" w="143.42" x="951.48" y="939.22"/><llbbox lat0="-90" lat1="90" lon0="-180" lon1="180"/></view></views></metadata><g id="admin1"><path d="M126,175L129,173L131,172L131,171L132,170L134,170L138,170L139,171L143,170L144,169L145,169L149,169L151,169L152,169L154,168L160,166L162,165L163,164L163,162L163,161L163,159L163,158L162,157L162,156L161,155L159,153L157,151L156,150L155,150L153,149L152,147L151,148L150,148L148,148L144,147L141,146L141,144L141,143L141,142L141,140L141,138L140,139L138,139L137,139L135,138L136,137L135,136L133,136L128,135L127,134L127,133L127,130L126,128L125,127L124,126L123,126L123,125L124,123L124,122L124,120L125,117L125,116L125,114L125,112L124,112L123,112L122,112L119,114L117,114L112,115L111,115L110,117L107,118L104,119L96,119L95,120L95,121L96,122L97,124L98,125L99,126L98,127L95,128L94,129L94,132L95,133L95,134L94,137L93,137L91,138L89,139L85,141L85,142L84,146L80,151L80,153L79,155L79,161L79,162L81,163L82,163L84,164L85,165L86,166L87,167L88,167L90,167L91,167L91,168L92,169L92,171L94,171L95,171L97,172L99,171L101,171L103,172L106,172L107,173L108,174L110,175L113,175L114,175L116,176L118,177L119,177Z " data-fips="AF02" data-hasc="AF.BG" data-name="Badghis" data-postal="BG" data-varname="Badghes|Badghisat|Badgis"/><path d="M56,250L58,248L59,248L62,248L65,248L66,248L66,246L67,244L67,243L67,242L68,241L69,240L70,239L72,239L73,239L75,239L76,239L79,238L79,237L80,236L81,236L82,236L85,235L87,235L87,236L90,235L91,233L91,232L92,230L93,229L95,228L94,227L94,225L94,223L93,222L93,221L93,220L92,219L93,218L94,217L96,216L98,216L98,215L102,214L106,214L107,214L108,213L108,211L108,209L109,208L110,208L111,207L110,206L109,205L109,203L108,202L107,201L106,200L106,199L105,198L104,195L106,192L107,190L108,187L114,187L117,188L118,188L119,189L121,190L126,190L126,189L129,190L130,190L131,189L132,188L133,188L133,187L133,186L133,185L133,184L133,182L133,181L133,180L133,179L135,179L136,179L137,178L138,178L139,178L141,177L142,178L143,178L143,177L142,175L142,174L143,170L139,171L138,170L134,170L132,170L131,171L131,172L129,173L126,175L119,177L118,177L116,176L114,175L113,175L110,175L108,174L107,173L106,172L103,172L101,171L99,171L97,172L95,171L94,171L92,171L92,169L91,168L91,167L90,167L88,167L87,167L86,166L85,165L84,164L82,163L81,163L79,162L79,161L79,155L80,153L80,151L84,146L85,142L85,141L83,142L82,144L81,145L77,146L76,145L75,145L71,143L70,144L66,148L65,146L65,144L65,143L64,142L62,141L61,140L58,136L57,136L56,135L54,135L49,136L47,136L43,136L40,135L39,133L36,130L35,130L35,129L34,128L34,127L33,127L31,127L32,130L31,132L30,134L29,135L28,136L28,138L28,141L26,141L25,142L25,143L25,144L25,146L26,148L26,149L25,151L25,153L24,154L24,156L23,157L23,158L23,160L23,161L21,162L20,164L19,165L19,166L19,167L18,169L17,169L16,170L14,172L13,172L10,173L9,174L10,174L10,175L11,176L12,177L13,178L16,182L7,183L6,184L5,185L3,186L2,188L1,190L1,191L1,196L2,202L2,204L0,207L0,208L1,211L3,213L6,215L9,215L11,215L13,215L14,216L15,217L16,217L17,217L19,218L24,220L26,220L31,220L32,220L34,220L36,219L37,218L38,218L39,218L41,218L42,219L43,219L46,219L49,221L48,222L48,223L47,226L46,227L45,228L45,229L46,231L47,234L46,235L45,236L43,238L43,239L42,239L41,240L41,242L41,243L41,245L42,245L45,245L46,246L47,248L48,248L49,248L50,247L52,245L53,245L53,246L53,248L54,249L54,250L55,250Z " data-fips="AF11" data-hasc="AF.HR" data-name="Hirat" data-postal="HR" data-varname=""/><path d="M237,200L238,200L239,200L240,199L241,199L244,198L245,197L246,195L247,194L248,193L247,191L248,190L251,189L251,188L252,186L248,184L246,184L247,183L248,182L247,181L246,181L245,181L242,180L241,179L242,178L243,177L244,177L245,176L244,175L243,173L243,172L244,171L245,171L249,170L251,169L252,170L253,170L254,170L255,171L256,171L258,171L265,172L267,172L268,170L269,169L270,168L271,168L273,166L273,166L277,163L277,163L276,162L276,161L276,159L276,158L276,156L274,154L273,155L271,153L270,154L269,153L268,152L268,150L267,149L267,148L268,147L269,145L270,144L270,143L270,141L270,140L270,138L270,136L267,136L265,136L261,136L260,135L257,136L252,135L250,136L246,137L244,137L242,137L239,138L236,139L233,140L232,141L228,141L226,140L225,140L223,143L220,147L219,147L218,148L216,149L210,148L209,149L209,150L209,152L209,153L209,154L209,156L209,157L208,158L209,159L211,160L212,161L215,163L216,164L217,165L218,167L218,168L220,168L220,169L221,170L222,170L223,170L224,172L224,173L223,174L222,176L222,177L223,178L220,180L219,180L216,181L214,184L214,185L215,185L217,185L218,186L217,187L216,188L216,189L217,192L215,194L215,196L216,197L218,199L221,200L222,200L223,199L225,199L232,200L232,201L234,201Z " data-fips="AF05" data-hasc="AF.BM" data-name="Bamyan" data-postal="BM" data-varname=""/><path d="M225,126L226,126L228,125L228,123L229,122L232,120L233,119L234,118L234,117L235,116L236,115L236,114L234,112L234,111L234,110L234,109L238,107L241,106L242,105L243,103L243,102L243,101L244,100L244,99L244,97L245,95L245,91L244,90L244,88L245,87L247,86L248,85L252,85L254,84L255,85L257,85L258,86L260,87L261,87L269,88L271,85L270,84L269,83L268,81L266,77L266,74L266,72L265,72L265,71L263,69L262,68L261,68L261,66L259,66L257,65L257,64L257,61L256,60L255,59L253,59L252,58L251,59L250,59L249,59L247,57L246,58L244,60L243,60L241,61L240,61L238,61L238,60L237,59L235,58L234,57L233,55L232,55L230,53L229,53L226,54L221,54L220,55L218,55L215,54L214,54L213,55L211,56L210,55L209,55L207,56L205,55L205,55L205,55L205,57L205,57L208,58L210,59L210,60L211,61L211,63L213,64L213,66L212,68L212,69L212,71L213,72L214,74L215,75L215,76L215,77L216,79L215,80L214,80L212,80L211,81L211,82L212,83L212,85L213,86L214,87L214,88L218,88L220,89L220,90L219,92L218,93L217,94L216,96L216,97L215,100L214,101L213,102L213,104L214,104L216,106L217,106L217,107L217,108L217,110L217,111L217,112L218,113L218,118L218,120L217,122L216,123L215,124L215,125L215,127L220,127L221,127Z " data-fips="AF30" data-hasc="AF.BK" data-name="Balkh" data-postal="BK" data-varname="Balh|Mazar-i-Sharif|Mazar"/><path d="M175,147L176,146L177,145L176,144L176,142L176,141L176,139L176,138L176,137L177,136L177,135L179,132L178,130L178,129L179,128L180,127L182,127L183,127L184,126L185,125L186,123L186,122L188,123L189,122L190,122L190,121L190,120L189,118L188,117L188,115L188,114L188,113L187,112L186,113L186,113L185,115L184,115L183,116L182,116L181,116L180,115L179,116L178,117L176,117L174,117L172,116L171,116L170,116L169,116L168,116L167,116L165,115L165,114L166,113L167,112L168,112L168,111L168,109L169,108L169,107L169,106L169,105L169,103L170,98L171,98L178,98L178,97L178,96L178,94L177,93L177,92L177,90L177,89L177,88L175,86L176,85L177,83L177,82L177,80L176,79L176,78L175,77L173,74L173,73L173,72L173,71L174,67L178,60L164,60L161,61L155,64L154,65L154,66L153,68L154,71L154,73L154,74L149,83L148,85L147,87L148,89L148,92L148,93L148,95L147,97L144,101L144,102L142,102L141,103L138,104L137,105L136,107L135,106L134,106L132,106L131,107L128,109L128,111L128,113L125,112L124,112L125,112L125,114L125,116L125,117L124,120L124,122L124,123L123,125L123,126L124,126L125,127L126,128L127,130L127,133L127,134L128,135L133,136L135,136L136,137L135,138L137,139L138,139L140,139L141,138L141,140L141,142L141,143L141,144L141,146L144,147L148,148L150,148L151,148L152,147L155,146L157,146L159,147L161,146L162,147L164,147L165,146L166,145L167,146L168,146L169,147L170,146L171,147L171,148L172,148L173,148Z " data-fips="AF07" data-hasc="AF.FB" data-name="Faryab" data-postal="FB" data-varname="Fariab|Maimana|Meymaneh"/><path d="M178,117L179,116L180,115L181,116L182,116L183,116L184,115L185,115L186,113L185,114L180,114L180,113L180,112L180,111L180,110L179,109L179,102L179,100L180,99L182,99L186,98L187,97L189,96L191,94L192,93L196,92L196,91L198,90L200,90L201,90L204,90L208,89L211,89L212,89L213,88L214,88L214,87L213,86L212,85L212,83L211,82L211,81L212,80L214,80L215,80L216,79L215,77L215,76L215,75L214,74L213,72L212,71L212,69L212,68L213,66L213,64L211,63L211,61L210,60L210,59L208,58L205,57L205,57L205,55L205,55L204,55L203,54L202,54L200,53L199,51L191,48L190,47L189,46L188,46L187,48L185,48L184,48L184,50L183,52L183,55L183,56L182,57L180,59L178,60L174,67L173,71L173,72L173,73L173,74L175,77L176,78L176,79L177,80L177,82L177,83L176,85L175,86L177,88L177,89L177,90L177,92L177,93L178,94L178,96L178,97L178,98L171,98L170,98L169,103L169,105L169,106L169,107L169,108L168,109L168,111L168,112L167,112L166,113L165,114L165,115L167,116L168,116L169,116L170,116L171,116L172,116L174,117L176,117Z " data-fips="AF31" data-hasc="AF.JW" data-name="Jawzjan" data-postal="JW" data-varname="Jaozjan|Jozjan|Juzjan|Jouzjan|Shibarghan"/><path d="M138,236L140,236L139,234L141,234L142,233L143,232L143,231L145,229L146,229L147,230L148,230L150,231L150,232L152,233L154,232L154,233L155,234L156,233L157,232L158,231L159,232L160,231L161,230L165,229L166,228L168,227L169,227L170,226L172,225L173,225L175,224L175,223L175,222L176,221L178,220L179,219L180,218L181,217L182,216L182,215L181,214L180,213L179,211L179,209L178,208L177,207L176,206L176,205L176,204L177,204L179,203L179,201L180,201L180,200L180,198L179,198L178,196L178,195L179,194L179,192L179,191L179,190L179,189L180,187L180,186L180,184L184,184L185,184L188,185L192,185L196,185L197,185L198,184L200,184L202,184L203,183L204,182L205,182L208,182L209,183L216,181L219,180L220,180L223,178L222,177L222,176L223,174L224,173L224,172L223,170L222,170L221,170L220,169L220,168L218,168L218,167L217,165L216,164L215,163L212,161L211,160L209,160L208,160L207,160L206,160L205,160L205,161L204,162L203,162L203,163L202,164L200,165L201,164L199,159L198,159L199,157L198,156L198,156L198,154L198,153L196,154L195,153L194,153L190,152L189,151L188,149L188,148L187,148L186,147L185,146L184,146L184,145L182,145L181,146L180,146L178,146L177,145L176,146L175,147L173,148L172,148L171,148L171,147L170,146L169,147L168,146L167,146L166,145L165,146L164,147L162,147L161,146L159,147L157,146L155,146L152,147L153,149L155,150L156,150L157,151L159,153L161,155L162,156L162,157L163,158L163,159L163,161L163,162L163,164L162,165L160,166L154,168L152,169L151,169L149,169L145,169L144,169L143,170L142,174L142,175L143,177L143,178L142,178L141,177L139,178L138,178L137,178L136,179L135,179L133,179L133,180L133,181L133,182L133,184L133,185L133,186L133,187L133,188L132,188L131,189L130,190L129,190L126,189L126,190L121,190L119,189L118,188L117,188L114,187L108,187L107,190L106,192L104,195L105,198L106,199L106,200L107,201L108,202L109,203L109,205L110,206L111,207L110,208L109,208L108,209L108,211L108,213L107,214L106,214L102,214L98,215L98,216L96,216L94,217L93,218L92,219L93,220L93,221L93,222L94,223L94,225L94,227L95,228L96,228L97,228L100,228L107,227L109,227L111,227L113,225L114,225L116,224L118,224L119,223L120,223L120,222L122,221L124,220L126,221L128,225L129,228L129,229L129,229L129,230L131,231L131,232L132,233L134,235L135,235L136,236L137,237Z " data-fips="AF09" data-hasc="AF.GR" data-name="Ghor" data-postal="GR" data-varname="Gawr|Ghore|Ghour|Ghur"/><path d="M202,164L203,163L203,162L204,162L205,161L205,160L206,160L207,160L208,160L209,160L209,159L208,158L209,157L209,156L209,154L209,153L209,152L209,150L209,149L210,148L216,149L218,148L219,147L220,147L223,143L225,140L226,140L227,139L228,138L229,138L231,136L231,135L231,133L231,132L232,131L232,130L231,129L232,128L232,127L232,126L226,126L225,126L221,127L220,127L215,127L215,125L215,124L216,123L217,122L218,120L218,118L218,113L217,112L217,111L217,110L217,108L217,107L217,106L216,106L214,104L213,104L213,102L214,101L215,100L216,97L216,96L217,94L218,93L219,92L220,90L220,89L218,88L214,88L213,88L212,89L211,89L208,89L204,90L201,90L200,90L198,90L196,91L196,92L192,93L191,94L189,96L187,97L186,98L182,99L180,99L179,100L179,102L179,109L180,110L180,111L180,112L180,113L180,114L185,114L186,113L186,113L187,112L188,113L188,114L188,115L188,117L189,118L190,120L190,121L190,122L189,122L188,123L186,122L186,123L185,125L184,126L183,127L182,127L180,127L179,128L178,129L178,130L179,132L177,135L177,136L176,137L176,138L176,139L176,141L176,142L176,144L177,145L178,146L180,146L181,146L182,145L184,145L184,146L185,146L186,147L187,148L188,148L188,149L189,151L190,152L194,153L195,153L196,154L198,153L198,154L198,156L198,156L199,157L198,159L199,159L201,164L200,165Z " data-fips="AF33" data-hasc="AF.SP" data-name="Sari Pul" data-postal="SP" data-varname="Sar-e Pul|Saripol"/><path d="M37,309L37,307L38,306L37,305L37,304L38,305L39,304L39,303L39,302L39,300L41,300L42,299L44,296L46,294L47,293L48,292L48,290L47,289L48,288L51,287L51,286L51,284L51,283L66,282L70,281L72,281L73,281L74,282L75,284L79,287L80,287L84,285L86,286L88,285L90,284L91,283L91,282L92,281L92,277L92,276L93,275L94,274L95,274L96,274L100,275L108,276L109,276L112,274L113,274L115,271L117,271L119,271L119,270L122,268L123,268L124,267L125,266L126,266L126,264L125,263L125,262L125,261L126,261L127,261L130,261L132,261L133,260L135,259L136,258L136,257L135,256L134,255L135,254L137,252L138,251L139,250L140,249L141,248L146,245L145,244L146,243L146,242L146,241L147,240L148,239L151,237L150,236L151,235L152,234L152,233L150,232L150,231L148,230L147,230L146,229L145,229L143,231L143,232L142,233L141,234L139,234L140,236L138,236L137,237L136,236L135,235L134,235L132,233L131,232L131,231L129,230L129,229L129,229L129,228L128,225L126,221L124,220L122,221L120,222L120,223L119,223L118,224L116,224L114,225L113,225L111,227L109,227L107,227L100,228L97,228L96,228L95,228L93,229L92,230L91,232L91,233L90,235L87,236L87,235L85,235L82,236L81,236L80,236L79,237L79,238L76,239L75,239L73,239L72,239L70,239L69,240L68,241L67,242L67,243L67,244L66,246L66,248L65,248L62,248L59,248L58,248L56,250L55,250L54,250L54,249L53,248L53,246L53,245L52,245L50,247L49,248L48,248L47,248L46,246L45,245L42,245L41,245L41,243L41,242L41,240L42,239L43,239L43,238L45,236L46,235L47,234L46,231L45,229L45,228L46,227L47,226L48,223L48,222L49,221L46,219L43,219L42,219L41,218L39,218L38,218L37,218L36,219L34,220L32,220L31,220L26,220L24,220L19,218L17,217L16,217L15,217L14,218L12,218L12,219L12,220L11,222L10,222L9,223L2,233L1,236L2,239L7,261L10,271L9,275L9,279L8,280L8,282L8,283L8,285L7,287L7,289L8,293L7,297L7,298L8,300L8,304L9,304L37,309Z " data-fips="AF06" data-hasc="AF.FH" data-name="Farah" data-postal="FH" data-varname=""/><path d="M128,397L129,395L130,393L131,393L142,390L142,390L147,362L149,354L149,340L151,318L151,317L152,310L152,308L153,304L154,302L154,298L154,297L154,296L155,292L156,291L157,289L158,288L158,287L159,284L159,284L160,283L161,282L163,282L163,283L164,283L165,282L166,280L166,279L167,278L167,277L167,276L168,275L169,274L170,272L170,269L171,268L171,267L171,266L171,264L171,263L172,261L172,260L171,257L170,257L169,257L168,256L168,255L169,252L169,251L169,249L169,248L168,247L170,243L171,242L172,241L172,239L173,239L174,238L174,237L174,236L174,235L174,234L174,232L173,232L173,231L172,229L172,228L170,228L169,227L168,227L166,228L165,229L161,230L160,231L159,232L158,231L157,232L156,233L155,234L154,233L154,232L152,233L152,234L151,235L150,236L151,237L148,239L147,240L146,241L146,242L146,243L145,244L146,245L141,248L140,249L139,250L138,251L137,252L135,254L134,255L135,256L136,257L136,258L135,259L133,260L132,261L130,261L127,261L126,261L125,261L125,262L125,263L126,264L126,266L125,266L124,267L123,268L122,268L119,270L119,271L117,271L115,271L113,274L112,274L109,276L108,276L108,278L108,279L109,281L109,282L108,283L108,284L108,285L108,286L106,288L105,290L104,291L103,293L101,307L100,313L99,314L100,316L101,318L100,321L100,322L99,323L98,324L96,327L96,328L95,329L93,330L93,332L93,335L93,337L93,338L91,339L90,341L89,342L90,343L89,344L90,346L90,347L91,348L90,349L88,350L87,352L86,353L85,355L84,357L83,359L81,360L80,361L79,361L78,362L78,364L78,367L77,368L76,370L76,372L76,374L71,395L107,393L123,396L127,398Z " data-fips="AF10" data-hasc="AF.HM" data-name="Hilmand" data-postal="HM" data-varname="Girishk|Hilmend"/><path d="M71,395L76,374L76,372L76,370L77,368L78,367L78,364L78,362L79,361L80,361L81,360L83,359L84,357L85,355L86,353L87,352L88,350L90,349L91,348L90,347L90,346L89,344L90,343L89,342L90,341L91,339L93,338L93,337L93,335L93,332L93,330L95,329L96,328L96,327L98,324L99,323L100,322L100,321L101,318L100,316L99,314L100,313L101,307L103,293L104,291L105,290L106,288L108,286L108,285L108,284L108,283L109,282L109,281L108,279L108,278L108,276L100,275L96,274L95,274L94,274L93,275L92,276L92,277L92,281L91,282L91,283L90,284L88,285L86,286L84,285L80,287L79,287L75,284L74,282L73,281L72,281L70,281L66,282L51,283L51,284L51,286L51,287L48,288L47,289L48,290L48,292L47,293L46,294L44,296L42,299L41,300L39,300L39,302L39,303L39,304L38,305L37,304L37,305L38,306L37,307L37,309L37,309L39,310L40,311L42,313L41,315L42,317L43,319L43,320L43,321L44,323L44,325L44,327L43,329L43,332L43,333L42,334L30,348L11,369L6,374L7,375L63,395L66,396Z " data-fips="AF19" data-hasc="AF.NM" data-name="Nimroz" data-postal="NM" data-varname="Neemroze|Nimrod|Nimrooz|Nimroze|Chakhansur"/><path d="M177,273L177,272L177,270L178,270L178,269L178,267L179,267L180,266L180,265L181,264L181,263L182,261L183,261L186,261L187,261L187,262L187,265L188,266L189,266L190,265L191,264L192,265L194,265L196,265L198,265L198,266L199,267L200,267L202,267L204,266L205,265L206,265L209,265L209,264L209,263L209,261L210,260L212,257L213,256L214,255L217,255L218,252L219,252L220,253L219,256L220,256L222,255L222,254L222,253L224,252L226,251L227,250L228,250L230,250L231,249L232,250L233,249L234,249L234,248L234,245L234,245L232,244L231,244L230,242L230,240L230,239L230,237L231,236L232,235L233,234L233,233L233,232L232,231L228,231L226,230L225,230L224,229L224,228L223,229L222,230L221,230L220,230L217,232L216,232L216,231L215,229L214,228L213,229L212,229L210,229L209,229L208,229L204,233L202,233L201,234L200,235L200,238L200,239L199,240L198,239L193,238L192,238L191,237L190,237L188,238L187,237L186,237L185,238L183,236L182,236L178,236L179,237L178,239L177,239L176,239L175,239L174,238L173,239L172,239L172,241L171,242L170,243L168,247L169,248L169,249L169,251L169,252L168,255L168,256L169,257L170,257L171,257L172,260L172,261L171,263L171,264L171,266L171,267L171,268L170,269L170,272L170,272L171,272L174,273L175,273L176,274Z " data-fips="AF39" data-hasc="AF.OZ" data-name="Uruzgan" data-postal="OZ" data-varname="Urozgan"/><path d="M200,239L200,238L200,235L201,234L202,233L204,233L208,229L209,229L210,229L212,229L213,229L214,228L215,229L216,231L216,232L217,232L220,230L221,230L222,230L223,229L224,228L224,229L225,230L226,230L227,228L228,227L228,225L228,224L228,222L227,219L227,218L228,217L228,216L232,215L234,214L235,214L238,213L240,212L240,211L241,210L243,208L244,207L246,205L247,204L246,203L246,202L245,201L245,200L246,198L245,197L244,198L241,199L240,199L239,200L238,200L237,200L234,201L232,201L232,200L225,199L223,199L222,200L221,200L218,199L216,197L215,196L215,194L217,192L216,189L216,188L217,187L218,186L217,185L215,185L214,185L214,184L209,183L208,182L205,182L204,182L203,183L202,184L200,184L198,184L197,185L196,185L192,185L188,185L185,184L184,184L180,184L180,186L180,187L179,189L179,190L179,191L179,192L179,194L178,195L178,196L179,198L180,198L180,200L180,201L179,201L179,203L177,204L176,204L176,205L176,206L177,207L178,208L179,209L179,211L180,213L181,214L182,215L182,216L181,217L180,218L179,219L178,220L176,221L175,222L175,223L175,224L173,225L172,225L170,226L169,227L170,228L172,228L172,229L173,231L173,232L174,232L174,234L174,235L174,236L174,237L174,238L175,239L176,239L177,239L178,239L179,237L178,236L182,236L183,236L185,238L186,237L187,237L188,238L190,237L191,237L192,238L193,238L198,239L199,240Z " data-fips="AF41" data-hasc="AF.OZ" data-name="Uruzgan" data-postal="OZ" data-varname="Urozgan"/><path d="M206,378L209,376L210,375L211,373L210,372L208,370L207,369L207,368L207,366L210,361L210,358L210,352L210,350L209,349L208,347L208,345L212,332L213,331L218,329L222,326L222,325L224,320L225,319L226,319L227,318L228,317L229,316L231,315L233,314L235,314L236,315L235,317L236,318L238,318L239,317L241,318L242,318L243,319L245,319L248,319L251,317L253,317L254,316L257,316L260,314L261,313L262,313L263,312L263,310L262,310L258,310L257,309L256,307L255,306L255,305L257,305L259,305L260,305L262,304L262,304L260,303L258,303L256,304L255,304L252,304L250,304L250,303L250,302L249,301L247,300L246,300L245,300L244,298L243,298L242,297L241,295L239,296L236,297L234,297L232,296L232,296L230,295L229,294L228,294L225,292L224,291L223,291L218,295L216,295L215,295L213,296L212,296L211,297L209,298L206,295L205,294L204,293L204,292L206,291L207,290L209,289L210,288L210,287L210,286L210,285L209,284L210,283L210,281L210,280L210,279L210,278L209,277L210,276L211,275L212,273L213,272L214,270L216,269L216,268L217,267L217,265L217,264L217,263L216,262L215,261L214,261L213,262L213,263L212,264L211,265L209,264L209,265L206,265L205,265L204,266L202,267L200,267L199,267L198,266L198,265L196,265L194,265L192,265L191,264L190,265L189,266L188,266L187,265L187,262L187,261L186,261L183,261L182,261L181,263L181,264L180,265L180,266L179,267L178,267L178,269L178,270L177,270L177,272L177,273L176,274L175,273L174,273L171,272L170,272L170,272L169,274L168,275L167,276L167,277L167,278L166,279L166,280L165,282L164,283L163,283L163,282L161,282L160,283L159,284L159,284L158,287L158,288L157,289L156,291L155,292L154,296L154,297L154,298L154,302L153,304L152,308L152,310L151,317L151,318L149,340L149,354L147,362L142,390L142,390L154,390L161,391L162,391Z " data-fips="AF23" data-hasc="AF.KD" data-name="Kandahar" data-postal="KD" data-varname="Qandahar"/><path d="M252,304L255,304L256,304L258,303L260,303L262,304L262,304L263,303L265,300L267,300L268,300L270,300L271,299L273,297L273,296L275,294L274,294L273,293L272,293L272,291L271,290L271,289L272,287L273,285L273,283L273,282L272,280L271,281L268,281L267,280L265,279L264,278L261,278L260,277L260,275L260,274L259,273L257,273L257,272L258,271L259,271L260,271L262,270L262,268L262,267L260,267L259,266L258,264L255,262L258,259L256,259L250,252L249,252L248,250L249,248L250,248L249,247L248,247L247,246L249,244L249,243L249,242L249,241L248,241L247,243L246,244L244,244L243,243L242,242L241,242L240,242L240,241L239,239L238,239L236,239L236,240L237,241L237,243L236,243L235,245L234,245L234,248L234,249L233,249L232,250L231,249L230,250L228,250L227,250L226,251L224,252L222,253L222,254L222,255L220,256L219,256L220,253L219,252L218,252L217,255L214,255L213,256L212,257L210,260L209,261L209,263L209,264L211,265L212,264L213,263L213,262L214,261L215,261L216,262L217,263L217,264L217,265L217,267L216,268L216,269L214,270L213,272L212,273L211,275L210,276L209,277L210,278L210,279L210,280L210,281L210,283L209,284L210,285L210,286L210,287L210,288L209,289L207,290L206,291L204,292L204,293L205,294L206,295L209,298L211,297L212,296L213,296L215,295L216,295L218,295L223,291L224,291L225,292L228,294L229,294L230,295L232,296L232,296L234,297L236,297L239,296L241,295L242,297L243,298L244,298L245,300L246,300L247,300L249,301L250,302L250,303L250,304Z " data-fips="AF28" data-hasc="AF.ZB" data-name="Zabul" data-postal="ZB" data-varname="Zubul|Zaboul"/><path d="M272,280L273,278L274,276L273,273L273,272L273,271L273,268L274,267L273,266L273,265L272,262L271,261L269,260L268,259L267,258L264,255L263,254L265,251L266,249L270,252L271,253L272,253L275,253L277,252L278,251L279,249L280,248L280,247L283,245L284,243L285,242L286,237L287,236L290,233L292,230L293,229L294,228L294,226L297,223L297,223L298,220L297,218L297,217L296,215L297,214L297,214L296,212L296,211L296,210L296,209L296,208L295,207L293,207L292,209L289,211L287,211L286,211L285,210L285,209L285,208L285,207L284,207L283,207L280,204L279,203L277,201L274,200L273,198L273,197L273,196L273,195L273,194L272,191L270,189L269,190L268,190L267,191L265,192L264,192L261,192L260,191L259,190L258,190L256,189L253,190L252,191L251,192L250,193L248,193L247,194L246,195L245,197L246,198L245,200L245,201L246,202L246,203L247,204L246,205L244,207L243,208L241,210L240,211L240,212L238,213L235,214L234,214L232,215L228,216L228,217L227,218L227,219L228,222L228,224L228,225L228,227L227,228L228,231L232,231L233,232L233,233L233,234L232,235L231,236L230,237L230,239L230,240L230,242L231,244L232,244L234,245L234,245L235,245L236,243L237,243L237,241L236,240L236,239L238,239L239,239L240,241L240,242L241,242L242,242L243,243L244,244L246,244L247,243L248,241L249,241L249,242L249,243L249,244L247,246L248,247L249,247L250,248L249,248L248,250L249,252L250,252L256,259L258,259L255,262L258,264L259,266L260,267L262,267L262,268L262,270L260,271L259,271L258,271L257,272L257,273L259,273L260,274L260,275L260,277L261,278L264,278L265,279L267,280L268,281L271,281Z " data-fips="AF08" data-hasc="AF.GZ" data-name="Ghazni" data-postal="GZ" data-varname="Gazni"/><path d="M323,238L324,237L325,236L327,236L329,235L330,235L332,234L333,234L336,235L337,235L340,233L342,232L343,230L344,230L346,230L352,224L352,223L351,221L349,219L348,218L347,218L346,216L346,215L347,212L347,211L346,210L345,209L344,207L343,207L341,207L340,207L339,209L338,209L337,210L336,210L334,211L332,213L330,213L328,214L327,214L326,216L325,217L326,219L325,221L324,222L323,223L321,225L321,226L320,228L320,229L319,231L320,232L320,234L319,235L318,237L318,238L319,238L323,239Z " data-fips="AF37" data-hasc="AF.KT" data-name="Khost" data-postal="KT" data-varname=""/><path d="M302,300L304,299L306,298L307,298L308,298L309,297L311,295L312,294L316,288L316,287L318,284L317,281L316,276L316,274L316,272L316,271L316,269L315,266L315,265L315,263L316,261L317,259L319,258L321,255L322,254L321,252L320,251L320,250L320,249L321,248L322,246L323,245L323,244L323,239L319,238L318,238L318,237L319,235L320,234L320,232L319,231L320,229L318,229L316,229L315,229L314,228L313,228L312,229L311,230L309,231L308,232L307,233L306,233L305,232L305,231L305,227L305,225L304,224L303,223L302,222L301,222L299,222L297,223L294,226L294,228L293,229L292,230L290,233L287,236L286,237L285,242L284,243L283,245L280,247L280,248L279,249L278,251L277,252L275,253L272,253L271,253L270,252L266,249L265,251L263,254L264,255L267,258L268,259L269,260L271,261L272,262L273,265L273,266L274,267L273,268L273,271L273,272L273,273L274,276L273,278L272,280L273,282L273,283L273,285L272,287L271,289L271,290L272,291L272,293L273,293L274,294L275,294L275,294L276,292L277,291L279,292L280,293L281,294L283,294L284,294L288,295L290,295L291,294L290,294L288,294L286,293L287,292L289,292L290,291L291,292L294,293L296,293L296,294L297,296L298,297L300,300L301,300Z " data-fips="AF29" data-hasc="AF.PK" data-name="Paktika" data-postal="PK" data-varname="Paktiya|Paktya|Southern Province"/><path d="M359,132L359,131L359,129L361,128L362,130L363,130L364,130L367,130L367,128L367,127L367,126L367,125L367,124L369,124L370,123L370,122L372,121L371,120L370,118L370,117L371,116L372,115L373,113L373,112L374,110L375,108L375,107L376,106L376,105L377,103L378,102L379,101L381,100L381,98L384,97L387,93L388,93L389,92L388,91L389,90L390,88L390,87L392,87L394,88L395,89L396,89L397,88L396,87L397,85L399,85L400,84L401,83L402,82L403,81L405,80L405,79L405,78L406,78L409,77L408,76L409,75L410,74L413,73L415,73L416,72L418,72L420,70L422,69L424,68L426,68L429,68L432,68L433,67L435,67L437,67L438,66L443,65L444,65L445,65L446,65L448,64L450,64L452,64L453,64L454,64L459,63L461,63L463,63L465,63L466,63L469,65L470,65L472,65L475,64L475,62L476,61L479,61L481,59L483,57L484,56L486,56L487,56L488,57L489,57L489,56L489,55L488,54L486,52L484,51L483,51L482,50L483,49L484,49L485,48L486,47L487,46L488,46L490,45L491,45L492,44L493,44L494,43L495,43L496,45L497,45L500,45L499,44L497,41L496,41L491,38L490,39L486,39L484,39L483,39L482,39L481,38L480,38L478,39L477,39L476,40L476,41L475,43L471,44L468,45L466,46L464,47L463,48L462,48L461,48L460,49L459,48L458,48L456,48L456,46L457,45L459,45L460,44L460,43L460,41L460,40L459,40L458,40L455,39L451,38L450,38L448,40L446,39L445,39L444,40L442,42L441,42L439,44L439,45L438,46L435,47L433,48L431,50L430,50L428,51L428,53L426,56L425,58L425,60L419,61L418,61L416,61L414,62L411,63L409,65L409,66L408,67L407,68L397,76L396,76L394,77L393,77L391,77L390,76L388,74L387,73L386,70L384,67L384,65L383,63L383,62L382,61L382,58L382,57L383,55L383,54L384,52L384,51L384,50L384,48L383,45L384,44L384,43L383,39L383,37L384,36L384,34L384,33L384,31L384,30L385,29L386,28L386,27L386,25L385,24L384,23L382,23L378,25L376,25L374,24L374,23L374,22L374,21L375,19L376,17L376,16L376,15L377,12L377,10L376,9L375,8L372,7L369,5L368,4L367,4L365,4L365,3L365,2L364,1L362,1L362,3L361,3L360,2L359,3L358,3L356,3L355,4L353,5L353,6L352,7L351,8L351,9L350,11L349,11L349,12L348,14L347,17L347,18L345,19L344,20L342,23L341,24L340,25L340,26L339,26L337,26L337,27L337,28L338,29L339,30L340,30L340,31L341,33L341,34L342,36L341,37L341,38L341,39L340,40L339,41L338,43L337,43L336,43L334,43L332,43L332,44L333,48L333,49L334,50L333,51L333,52L333,55L333,56L334,58L334,59L334,61L335,61L337,63L338,64L337,66L336,67L336,67L335,68L334,69L334,70L334,80L334,81L334,83L335,85L335,86L336,88L336,90L338,90L340,92L343,95L344,95L345,95L348,96L349,96L351,96L351,96L352,101L351,103L351,104L351,106L350,107L351,108L352,109L352,110L350,111L349,113L347,114L346,114L345,117L345,120L345,122L344,123L347,123L349,122L350,122L351,122L353,123L354,124L354,125L355,126L356,128L356,129L355,130L355,131L356,132L357,132Z " data-fips="AF01" data-hasc="AF.BD" data-name="Badakhshan" data-postal="BD" data-varname="Badahan"/><path d="M353,155L356,154L357,153L360,148L360,146L362,146L363,147L364,147L366,147L368,148L369,147L372,147L373,147L374,147L376,145L377,146L377,144L378,142L379,141L379,139L379,137L380,137L385,135L386,135L388,135L388,133L390,132L391,131L392,131L392,129L392,129L392,127L392,126L391,125L389,123L389,122L389,121L389,119L388,118L388,118L387,117L387,115L385,113L383,111L382,109L381,109L380,109L379,108L378,107L376,106L375,107L375,108L374,110L373,112L373,113L372,115L371,116L370,117L370,118L371,120L372,121L370,122L370,123L369,124L367,124L367,125L367,126L367,127L367,128L367,130L364,130L363,130L362,130L361,128L359,129L359,131L359,132L357,132L356,132L355,131L355,130L356,129L356,128L355,126L354,125L354,124L353,123L351,122L350,122L349,122L347,123L344,123L344,124L344,127L343,128L343,129L343,130L342,131L341,132L339,132L339,133L338,135L335,136L334,137L334,138L336,139L336,140L336,142L336,143L338,145L338,147L339,148L340,148L343,148L344,149L344,151L345,152L346,153L347,155L349,155L352,156Z " data-fips="AF38" data-hasc="AF.NR" data-name="Nuristan" data-postal="NR" data-varname="Nooristan|Nuristo"/><path d="M366,171L368,170L369,170L373,170L374,170L376,170L377,169L377,168L376,166L377,165L379,162L381,161L382,158L383,157L383,155L385,154L389,152L390,151L391,150L391,148L391,146L391,145L394,143L395,142L395,141L393,140L391,138L391,137L391,135L392,134L394,132L393,130L392,129L392,131L391,131L390,132L388,133L388,135L386,135L385,135L380,137L379,137L379,139L379,141L378,142L377,144L377,146L376,145L374,147L373,147L372,147L369,147L368,148L366,147L364,147L363,147L362,146L360,146L360,148L359,153L359,154L359,155L360,157L360,159L360,160L361,160L362,162L362,163L362,164L361,165L361,166L362,167L363,169L363,169L364,168L365,169L364,170L365,171Z " data-fips="AF34" data-hasc="AF.KR" data-name="Kunar" data-postal="KR" data-varname="Konarha|Kunarha"/><path d="M308,97L307,96L307,95L307,94L306,92L306,91L305,90L306,89L307,88L308,87L308,86L309,84L308,83L307,82L307,81L307,80L307,79L307,77L307,76L310,75L310,74L310,68L310,66L310,65L311,64L310,62L309,63L307,63L304,61L303,60L301,58L300,57L299,55L299,55L297,54L295,54L296,56L295,56L294,55L293,54L292,55L293,56L292,57L291,56L289,56L287,56L288,58L286,58L285,60L283,60L282,61L281,62L278,62L279,64L277,64L276,64L275,64L274,66L275,68L274,68L271,68L270,69L269,70L267,72L266,72L266,74L266,77L268,81L269,83L270,84L271,85L273,87L274,87L275,88L277,88L278,88L284,88L287,89L288,89L290,88L291,89L293,92L295,93L296,93L297,92L298,93L300,93L301,93L301,94L303,96L305,96L306,96L307,97Z " data-fips="AF24" data-hasc="AF.KZ" data-name="Kunduz" data-postal="KZ" data-varname="Kondoz|Qonduz|Qunduz"/><path d="M358,197L363,196L368,196L370,195L372,193L373,194L374,193L375,192L377,191L377,190L378,188L379,186L379,184L378,182L379,179L379,178L376,177L375,176L374,175L373,173L372,171L373,170L369,170L368,170L366,171L365,171L364,170L365,169L364,168L363,169L363,169L362,167L361,166L361,165L362,164L362,163L362,162L361,160L360,160L359,160L358,161L356,162L356,163L355,165L354,166L353,167L353,169L353,171L353,173L351,174L350,175L348,176L344,176L341,178L339,177L337,178L333,178L332,178L328,179L327,179L327,180L327,181L326,183L323,185L322,187L321,188L322,190L324,188L328,185L330,185L330,186L331,186L332,187L333,188L333,189L334,190L335,191L335,193L336,194L336,194L337,194L339,194L340,194L348,196L350,196L351,197L354,197L357,197Z " data-fips="AF18" data-hasc="AF.NG" data-name="Nangarhar" data-postal="NG" data-varname="Ningrahar|Eastern Province"/><path d="M338,117L340,117L341,116L342,115L342,114L343,115L346,114L347,114L349,113L350,111L352,110L352,109L351,108L350,107L351,106L351,104L351,103L352,101L351,96L351,96L349,96L348,96L345,95L344,95L343,95L340,92L338,90L336,90L336,88L335,86L335,85L334,83L334,81L334,80L334,70L334,69L335,68L336,67L336,67L337,66L338,64L337,63L335,61L334,61L334,59L334,58L333,56L333,55L333,52L333,51L334,50L333,49L333,48L332,44L332,43L332,42L330,41L330,41L329,40L327,41L326,41L325,42L324,41L323,41L321,42L316,42L315,44L314,45L313,46L312,47L312,48L311,49L312,52L312,53L312,54L313,55L313,57L314,58L312,60L310,62L310,62L311,64L310,65L310,66L310,68L310,74L310,75L307,76L307,77L307,79L307,80L307,81L307,82L308,83L309,84L308,86L308,87L307,88L306,89L305,90L306,91L306,92L307,94L307,95L307,96L308,97L308,98L310,99L310,100L311,101L312,100L313,100L314,100L316,100L318,97L320,97L322,96L323,96L324,95L325,97L325,99L326,100L327,100L327,101L328,106L330,107L331,108L332,110L332,111L333,112L333,113L334,114L335,118L335,118L336,118Z " data-fips="AF26" data-hasc="AF.TK" data-name="Takhar" data-postal="TK" data-varname="Takar"/><path d="M274,154L275,154L276,153L277,153L277,152L280,152L283,152L285,152L287,152L288,150L288,149L291,149L293,146L294,145L295,144L296,143L297,143L299,143L301,142L301,141L303,141L304,140L305,138L307,137L307,136L308,136L310,136L313,136L314,136L316,135L317,135L318,134L319,133L322,133L326,130L328,130L328,129L329,125L329,124L330,122L331,122L332,121L333,120L334,119L335,118L334,114L333,113L333,112L332,111L332,110L331,108L330,107L328,106L327,101L327,100L326,100L325,99L325,97L324,95L323,96L322,96L320,97L318,97L316,100L314,100L313,100L312,100L311,101L310,100L310,99L308,98L307,97L306,96L305,96L303,96L301,94L301,93L300,93L298,93L297,92L296,93L295,93L293,92L291,89L290,88L288,89L287,89L284,88L278,88L277,88L275,88L274,87L273,88L272,88L272,90L272,91L273,92L274,94L277,98L279,101L281,101L283,103L284,104L284,105L283,108L282,108L279,111L278,112L277,113L277,114L277,117L277,118L272,126L272,127L273,128L273,131L272,132L272,133L270,136L270,138L270,140L270,141L270,143L270,144L269,145L268,147L267,148L267,149L268,150L268,152L269,153L270,154L271,153L273,155Z " data-fips="AF03" data-hasc="AF.BL" data-name="Baghlan" data-postal="BL" data-varname="Baglan|Bughlan"/><path d="M321,188L322,187L323,185L326,183L327,181L327,180L327,179L328,179L332,178L332,177L332,176L333,174L333,173L332,171L333,169L333,167L333,166L334,165L336,163L336,162L334,159L333,160L333,161L330,162L329,167L328,168L327,168L326,169L322,168L322,170L321,170L319,171L318,169L318,167L317,165L316,165L315,164L314,162L313,161L312,160L311,159L309,159L308,159L305,159L302,159L301,161L300,164L299,165L298,167L299,169L298,173L298,174L298,176L298,177L299,178L300,178L302,179L302,182L308,183L309,183L311,183L314,181L315,183L316,184L318,186L318,187L319,188L320,189L320,190Z " data-fips="AF13" data-hasc="AF.KB" data-name="Kabul" data-postal="KB" data-varname="Cabul|Kabol|Kaboul"/><path d="M327,168L328,168L329,167L330,162L333,161L333,160L334,159L335,158L334,156L333,154L333,153L332,152L331,151L330,148L328,147L327,146L326,146L324,146L322,146L320,147L319,146L317,147L316,146L314,146L313,146L312,147L312,148L312,151L313,153L314,153L315,154L316,154L317,155L318,156L320,156L321,157L323,158L323,161L323,164L323,165L324,166L325,167L326,169Z " data-fips="AF14" data-hasc="AF.KP" data-name="Kapisa" data-postal="KP" data-varname="Kapesa"/><path d="M331,148L332,147L333,147L335,145L336,144L336,142L336,140L336,139L334,138L334,137L335,136L338,135L339,133L339,132L341,132L342,131L343,130L343,129L343,128L344,127L344,124L344,123L345,122L345,120L345,117L343,115L342,114L342,115L341,116L340,117L338,117L336,118L335,118L335,118L334,119L333,120L332,121L331,122L330,122L329,124L329,125L328,129L328,130L326,130L322,133L319,133L318,134L317,135L316,135L314,136L313,136L311,138L311,140L311,145L311,147L312,147L313,146L314,146L316,146L317,147L319,146L320,147L322,146L324,146L326,146L327,146L328,147L330,148Z " data-fips="AF42" data-hasc="AF.PV" data-name="Parwan" data-postal="PV" data-varname="Charikar"/><path d="M337,178L339,177L341,178L344,176L348,176L350,175L351,174L353,173L353,171L353,169L353,167L354,166L355,165L356,163L356,162L358,161L359,160L360,160L360,159L360,157L359,155L359,154L359,153L357,153L356,154L353,155L352,156L349,155L347,155L346,153L345,152L344,151L344,149L343,148L340,148L339,148L338,147L338,145L336,143L336,142L336,144L335,145L333,147L332,147L331,148L331,151L332,152L333,153L333,154L334,156L335,158L334,159L336,162L336,163L334,165L333,166L333,167L333,169L332,171L333,173L333,174L332,176L332,177L332,178L333,178Z " data-fips="AF35" data-hasc="AF.LA" data-name="Laghman" data-postal="LA" data-varname="Lagman"/><path d="M305,214L306,213L306,212L307,210L307,209L308,208L312,206L315,204L317,202L319,200L320,199L321,198L322,197L322,196L323,195L324,194L325,194L327,194L328,194L329,195L330,195L332,194L333,193L334,192L336,194L335,193L335,191L334,190L333,189L333,188L332,187L331,186L330,186L330,185L328,185L324,188L322,190L320,190L320,189L319,188L318,187L318,186L316,184L315,183L314,181L311,183L309,183L308,183L302,182L302,183L301,184L299,187L299,188L298,189L297,190L297,192L297,193L298,194L298,195L299,196L300,198L298,198L297,199L296,200L295,201L296,202L295,205L295,207L296,208L296,209L296,210L296,211L296,212L297,214L297,214L302,214L304,214Z " data-fips="AF17" data-hasc="AF.LW" data-name="Logar" data-postal="LW" data-varname="Lawghar|Loghar"/><path d="M321,170L322,170L322,168L325,167L324,166L323,165L323,164L323,161L323,158L321,157L320,156L318,156L317,155L316,154L315,154L314,153L313,153L312,151L312,148L312,147L311,147L311,145L311,140L311,138L310,136L308,136L307,136L307,137L305,138L304,140L303,141L301,141L301,142L299,143L297,143L296,143L295,144L294,145L293,146L291,149L288,149L288,150L287,152L285,152L283,152L280,152L277,152L277,153L276,153L275,154L274,154L276,156L276,158L276,159L276,161L276,162L277,163L277,163L278,164L278,166L280,168L280,169L281,171L282,171L283,170L284,169L287,168L290,168L291,169L292,169L293,169L295,170L296,170L297,170L299,169L298,167L299,165L300,164L301,161L302,159L305,159L308,159L309,159L311,159L312,160L313,161L314,162L315,164L316,165L317,165L318,167L318,169L319,171Z " data-fips="AF40" data-hasc="AF.PV" data-name="Parwan" data-postal="PV" data-varname="Charikar"/><path d="M233,140L236,139L239,138L242,137L244,137L246,137L250,136L252,135L257,136L260,135L261,136L265,136L267,136L272,133L272,132L273,131L273,128L272,127L272,126L277,118L277,117L277,114L277,113L278,112L279,111L282,108L283,108L284,105L284,104L283,103L281,101L279,101L277,98L274,94L273,92L272,91L272,90L272,88L273,88L274,87L273,87L269,88L261,87L260,87L258,86L257,85L255,85L254,84L252,85L248,85L247,86L245,87L244,88L244,90L245,91L245,95L244,97L244,99L244,100L243,101L243,102L243,103L242,105L241,106L238,107L234,109L234,110L234,111L234,112L236,114L236,115L235,116L234,117L234,118L233,119L232,120L229,122L228,123L228,125L232,126L232,127L232,128L231,129L232,130L232,131L231,132L231,133L231,135L231,136L229,138L228,138L227,139L226,140L228,141L232,141Z " data-fips="AF32" data-hasc="AF.SM" data-name="Samangan" data-postal="SM" data-varname=""/><path d="M289,211L292,209L293,207L295,205L296,202L295,201L296,200L297,199L298,198L300,198L299,196L298,195L298,194L297,193L297,192L297,190L298,189L299,188L299,187L301,184L302,183L302,182L302,179L300,178L299,178L298,177L298,176L298,174L298,173L297,170L296,170L295,170L293,169L292,169L291,169L290,168L287,168L284,169L283,170L282,171L281,171L280,169L280,168L278,166L278,164L277,163L273,166L273,166L271,168L270,168L269,169L268,170L267,172L265,172L258,171L256,171L255,171L254,170L253,170L252,170L251,169L249,170L245,171L244,171L243,172L243,173L244,175L245,176L244,177L243,177L242,178L241,179L242,180L245,181L246,181L247,181L248,182L247,183L246,184L248,184L252,186L251,188L251,189L248,190L247,191L248,193L250,193L251,192L252,191L253,190L256,189L258,190L259,190L260,191L261,192L264,192L265,192L267,191L268,190L269,190L270,189L272,191L273,194L273,195L273,196L273,197L273,198L274,200L277,201L279,203L280,204L283,207L284,207L285,207L285,208L285,209L285,210L286,211L287,211Z " data-fips="AF27" data-hasc="AF.VR" data-name="Wardak" data-postal="VR" data-varname="Verdak|Wardag|Maiden"/><path d="M307,233L308,232L309,231L311,230L312,229L313,228L314,228L315,229L316,229L318,229L320,229L320,228L321,226L321,225L323,223L324,222L325,221L326,219L325,217L326,216L327,214L328,214L330,213L332,213L334,211L336,210L337,210L338,209L339,209L340,207L339,206L338,205L338,204L336,202L335,200L334,199L335,198L335,196L335,195L336,194L336,194L334,192L333,193L332,194L330,195L329,195L328,194L327,194L325,194L324,194L323,195L322,196L322,197L321,198L320,199L319,200L317,202L315,204L312,206L308,208L307,209L307,210L306,212L306,213L305,214L304,214L302,214L297,214L296,215L297,217L297,218L298,220L297,223L297,223L299,222L301,222L302,222L303,223L304,224L305,225L305,227L305,231L305,232L306,233Z " data-fips="AF18" data-hasc="AF.PT" data-name="Paktya" data-postal="PT" data-varname="Paktiya|Southern Province"/></g></svg>