<?xml version="1.0" ?><!DOCTYPE svg  PUBLIC '-//W3C//DTD SVG 1.1//EN'  'http://www.w3.org/Graphics/SVG/1.1/DTD/svg11.dtd'><svg enable_background="new 0 0 500 401" height="401px" style="stroke-linejoin: round; stroke:#000; fill:#f6f3f0;" version="1.1" viewBox="0 0 500 401" width="500px" xmlns="http://www.w3.org/2000/svg" xmlns:xlink="http://www.w3.org/1999/xlink"><defs><style type="text/css"><![CDATA[path { fill-rule: evenodd; }
#context path { fill: #eee; stroke: #bbb; } ]]></style></defs><metadata><views><view h="401" padding="0" w="500"><proj id="laea" lat0="23.549" lon0="54.163"/><bbox h="42.74" w="54.02" x="970.82" y="968.67"/><llbbox lat0="-90" lat1="90" lon0="-180" lon1="180"/></view></views></metadata><g id="admin1"><path d="M478,145L478,145L480,144L484,143L486,142L489,139L489,139L488,138L487,136L482,136L481,135L480,135L479,133L479,131L480,130L480,128L479,127L478,124L476,120L476,119L477,118L477,117L476,115L476,114L476,113L477,106L477,104L477,103L476,101L477,99L480,99L482,98L481,97L481,96L480,92L481,89L480,89L480,88L480,87L477,86L475,87L475,87L473,89L475,90L476,90L477,91L478,91L477,92L477,93L475,95L475,96L474,98L473,99L472,99L471,100L467,99L465,100L464,100L462,99L458,99L457,101L456,102L455,104L456,105L457,107L458,109L457,110L455,115L455,117L455,118L455,120L455,121L457,124L458,127L458,128L458,128L461,130L462,133L463,138L466,140L471,145Z M455,84L456,82L456,81L458,80L460,81L461,82L461,83L463,84L468,85L470,85L471,84L472,83L473,83L474,82L474,80L472,79L471,79L470,78L469,77L469,76L472,73L472,72L473,71L472,70L471,68L470,67L469,67L467,69L466,69L464,69L460,69L459,69L458,69L458,68L457,66L456,61L456,59L456,57L457,57L459,57L460,56L462,56L464,53L465,52L466,51L468,52L469,52L474,50L475,49L475,49L474,48L474,43L474,41L475,40L476,39L477,37L476,36L474,32L473,30L474,29L476,26L476,24L477,14L477,11L477,9L477,6L475,2L474,2L469,3L467,3L466,4L464,12L462,17L460,21L461,21L461,20L462,19L463,18L463,20L462,22L461,23L460,24L456,28L455,29L455,32L454,35L454,37L453,36L454,34L454,32L455,31L452,33L447,40L443,43L440,44L439,45L438,46L436,46L434,47L433,49L433,49L437,52L438,53L439,53L442,63L442,65L442,67L442,68L443,69L443,71L447,75L448,76L448,77L448,78L447,80L450,82L454,88Z " data-fips="AE05" data-hasc="AE.RK" data-name="Ras Al Khaymah" data-postal="RK" data-varname="Ras al Khaima|Rs al Khamah|Ra's al Khayma|Ra's al Khaymah"/><path d="M444,93L446,93L448,92L449,91L450,91L451,89L450,87L450,85L450,82L447,80L448,78L448,77L448,76L447,75L443,71L443,69L442,68L442,67L442,65L442,63L439,53L438,53L437,52L433,49L433,49L432,51L428,53L427,54L424,57L423,59L422,63L421,64L419,64L417,65L414,65L413,65L412,63L413,62L414,60L415,58L413,59L412,61L410,63L410,65L410,67L410,67L417,71L420,74L421,74L428,77L430,79L435,83L436,84L437,86L438,89L439,91L441,93L442,93L443,93Z " data-fips="AE07" data-hasc="AE.UQ" data-name="Umm Al Qaywayn" data-postal="UQ" data-varname="Oumm al Qawan|Umm al Qi`iwayn|Qaiwan|Umm al Qaiwain|Umm al Qayqayn|Umm al Qaywayn|Umm el Quwain|Um al Qaiuan"/><path d="M471,155L473,155L474,154L474,152L477,149L478,145L471,145L469,151L469,153L469,155L469,155Z " data-fips="AE03" data-hasc="" data-name="Neutral Zone" data-postal="" data-varname=""/><path d="M467,99L471,100L472,99L473,99L474,98L475,96L475,95L477,93L477,92L478,91L477,91L476,90L475,90L473,89L475,87L475,87L477,86L480,87L480,88L480,89L481,89L486,87L487,86L487,85L488,83L489,82L493,80L497,76L497,75L498,64L495,56L494,55L493,55L490,54L488,53L484,54L482,54L480,54L480,53L479,51L478,50L475,49L474,50L469,52L468,52L466,51L465,52L464,53L462,56L460,56L459,57L457,57L456,57L456,59L456,61L457,66L458,68L458,69L459,69L460,69L464,69L466,69L467,69L469,67L470,67L471,68L472,70L473,71L472,72L472,73L469,76L469,77L470,78L471,79L472,79L474,80L474,82L473,83L472,83L471,84L470,85L468,85L463,84L461,83L461,82L460,81L458,87L460,88L461,89L460,90L457,93L459,97L458,99L462,99L464,100L465,100Z " data-fips="AE04" data-hasc="AE.FU" data-name="Fujayrah" data-postal="FU" data-varname="Al Foudjarah, Fudjayra|Al Fujayrah, Fujaira, Fujairah, Fujeira"/><path d="M491,126L491,125L492,124L492,123L492,121L491,120L491,119L490,117L490,115L492,115L498,116L498,100L499,95L499,92L499,90L499,87L499,87L497,90L496,90L495,92L494,93L493,95L491,97L489,97L489,97L487,99L486,99L484,100L483,100L482,98L482,98L480,99L477,99L476,101L477,103L477,104L477,106L476,113L476,114L476,115L477,117L477,118L479,119L487,127Z " data-fips="AE04" data-hasc="AE.FU" data-name="Fujayrah" data-postal="FU" data-varname="Al Foudjarah, Fudjayra|Al Fujayrah, Fujaira, Fujairah, Fujeira"/><path d="M489,138L492,136L493,134L493,134L492,135L487,136L488,138L489,139L489,139Z " data-fips="AE04" data-hasc="" data-name="Neutral Zone" data-postal="" data-varname=""/><path d="M493,134L493,134L492,132L491,132L490,130L488,131L489,132L492,135Z " data-fips="AE06" data-hasc="AE.FU" data-name="Neutral Zone" data-postal="FU" data-varname="Al Foudjarah, Fudjayra|Al Fujayrah, Fujaira, Fujairah, Fujeira"/><path d="M489,132L488,131L490,130L491,132L492,132L494,128L494,128L489,128L487,127L484,132L485,133Z " data-fips="AE4&amp;" data-hasc="AE.FU" data-name="Neutral Zone" data-postal="FU" data-varname="Al Foudjarah, Fudjayra|Al Fujayrah, Fujaira, Fujairah, Fujeira"/><path d="M460,90L461,89L460,88L458,87L457,87L456,88L456,90L457,93Z M419,83L420,82L422,78L421,77L420,77L414,76L413,75L411,74L410,74L408,74L407,73L407,74L405,78L405,77L404,79L403,80L402,78L400,80L400,80L403,82L406,83L409,84L418,84Z " data-fips="AE02" data-hasc="AE.AJ" data-name="Ajman" data-postal="AJ" data-varname="`Adjmn|Ajm|`Ajman"/><path d="M469,153L469,151L471,145L466,140L463,138L463,140L461,139L460,138L458,138L456,138L456,140L457,141L461,145L464,153L467,155L469,155Z " data-fips="AE02" data-hasc="" data-name="Neutral Zone" data-postal="" data-varname=""/><path d="M485,133L484,132L487,127L479,119L477,118L476,119L476,120L478,124L479,127L480,128L480,130L479,131L479,133L480,135L481,135L482,136L487,136Z M494,128L494,128L494,127L500,127L498,118L498,116L492,115L490,115L490,117L491,119L491,120L492,121L492,123L492,124L491,125L491,126L489,128Z M439,160L440,160L439,159L439,157L440,152L440,150L439,141L440,138L443,134L446,131L450,128L454,127L458,128L458,127L457,124L455,121L455,120L455,118L455,117L455,115L457,110L458,109L457,107L456,105L455,104L456,102L457,101L458,99L459,97L457,93L456,90L456,88L457,87L458,87L460,81L458,80L456,81L456,82L455,84L454,88L450,85L450,87L451,89L450,91L449,91L448,92L446,93L444,93L443,93L442,93L441,93L439,91L438,89L437,86L436,84L435,83L430,79L428,77L421,74L420,74L417,71L410,67L410,67L409,67L408,69L407,70L409,71L407,73L408,74L410,74L411,74L413,75L414,76L420,77L421,77L422,78L420,82L419,83L418,84L409,84L406,83L403,82L400,80L400,80L399,83L396,85L395,84L394,84L394,86L394,87L394,88L392,89L390,90L390,91L396,92L399,92L402,90L403,91L405,92L405,93L410,96L410,96L411,97L419,102L420,104L422,106L425,119L425,120L424,122L422,123L422,124L421,125L422,128L424,132L425,135L425,137L425,140L426,143L427,148L428,151L428,153L427,155L427,157L435,160Z M482,98L483,96L484,93L483,91L484,90L486,90L488,90L488,91L489,93L489,96L489,97L491,97L493,95L494,93L495,92L496,90L497,90L499,87L499,87L499,87L498,85L498,84L497,82L497,81L498,79L497,76L493,80L489,82L488,83L487,85L487,86L486,87L481,89L480,92L481,96L481,97L482,98L482,98Z " data-fips="AE06" data-hasc="AE.SH" data-name="Sharjah" data-postal="SH" data-varname="Ach Chrdjah|Chardja|Ash Shariqah|Ash Sharjah|Sharjah and Dependencies|Sharjah and Kalba"/><path d="M371,397L378,388L379,371L378,354L379,351L382,340L392,322L394,315L396,304L397,300L399,297L403,293L404,291L408,276L409,275L413,267L414,266L413,257L413,254L411,251L407,249L406,247L405,245L405,244L410,243L414,241L416,240L419,238L422,237L425,236L428,237L432,237L433,237L435,236L437,236L440,238L442,238L454,233L460,231L461,230L457,223L456,218L454,214L451,212L446,215L444,215L437,213L436,213L436,211L437,209L441,202L441,200L441,194L440,193L438,191L438,191L437,189L437,183L436,178L436,175L437,174L438,172L439,168L442,166L442,163L440,160L439,160L435,160L424,160L413,165L406,169L403,170L400,171L378,172L376,172L374,171L372,169L371,167L358,130L357,129L353,130L351,132L348,135L343,138L332,145L333,147L333,148L331,149L330,150L326,149L325,151L321,153L320,155L320,156L320,157L321,159L321,160L321,161L322,163L323,164L321,165L320,166L320,168L319,169L317,170L318,171L319,172L315,180L314,182L313,182L311,181L309,181L312,183L309,183L306,181L304,178L303,175L302,177L301,178L302,179L301,178L300,177L299,178L298,179L297,180L299,180L305,184L308,185L311,185L313,186L312,189L311,188L310,187L308,187L307,186L307,187L309,189L309,191L308,190L305,189L304,189L304,190L305,191L303,192L303,193L304,196L300,204L298,207L294,210L293,211L289,209L287,209L285,211L279,215L273,217L272,218L271,219L269,221L267,223L266,224L265,224L262,224L259,226L257,226L255,227L248,228L242,232L240,233L238,233L225,233L224,233L223,232L222,232L221,233L216,234L215,234L214,234L213,234L211,235L210,235L209,234L207,232L206,231L205,230L203,229L202,230L200,230L199,229L198,229L196,227L194,226L181,229L175,229L174,228L173,226L171,224L169,222L166,220L164,221L164,222L164,224L164,225L166,226L164,226L162,225L160,224L156,226L154,225L151,222L150,221L149,221L148,222L144,224L143,224L134,223L132,222L131,222L130,222L128,223L126,224L124,223L120,222L117,222L116,222L116,223L115,223L111,218L109,216L107,215L105,216L105,218L105,220L105,222L103,223L102,223L100,224L98,225L97,227L95,228L92,229L92,231L91,232L89,233L87,234L85,234L84,235L83,236L81,237L80,238L79,238L75,238L74,239L70,241L68,242L66,242L64,242L62,242L61,242L60,242L59,242L57,242L51,243L48,241L47,240L45,240L39,239L37,240L37,241L38,242L37,242L36,242L34,240L33,239L32,239L27,239L25,238L24,236L23,235L22,233L22,231L22,227L22,226L21,221L21,218L22,211L22,208L20,205L18,206L16,212L15,213L13,212L12,211L12,208L11,206L10,211L8,213L7,212L6,208L6,201L6,199L4,196L3,194L1,196L3,200L2,205L0,208L1,213L0,216L0,223L1,226L2,229L99,359L101,360L104,361L369,397Z M185,211L185,210L185,208L186,207L188,208L189,208L192,206L195,201L196,197L193,195L192,193L191,194L187,200L187,201L187,202L187,203L186,205L186,201L185,201L182,204L178,204L177,205L174,206L173,206L169,205L168,207L168,208L170,208L171,210L177,212L179,209L180,210L182,211L184,212Z M233,225L236,223L235,222L236,220L237,220L238,222L238,223L241,224L245,224L248,223L249,220L248,217L245,216L242,215L239,213L238,213L237,211L238,210L237,209L236,210L235,211L232,212L230,214L228,214L226,213L224,214L223,215L221,216L220,217L217,218L216,219L214,221L216,222L217,222L220,222L221,223L223,224L226,225L230,225Z M274,211L273,208L269,204L267,203L265,204L264,206L265,209L267,210L270,211L272,212L273,214Z M279,208L280,207L281,206L282,206L279,203L278,201L277,199L276,199L274,200L273,201L272,202L272,204L273,205L274,206L277,208Z M110,207L112,204L114,201L113,198L111,196L109,197L106,198L105,200L105,203L106,205L107,207L108,209Z M287,203L288,200L288,199L287,198L285,196L284,196L284,197L285,199L284,199L283,198L282,199L285,204Z M302,192L302,190L300,188L296,186L294,185L294,183L294,180L292,183L288,187L288,188L293,190L298,192L301,192Z M78,184L79,182L79,179L78,177L77,177L76,177L74,179L74,181L75,183L76,184L77,185Z " data-fips="AE01" data-hasc="AE.AZ" data-name="Abu Dhabi" data-postal="AZ" data-varname="Abo Dab|Abu Dabi|Abu ?abi|Abu ?aby"/><path d="M400,171L403,170L406,169L413,165L424,160L427,157L427,155L428,153L428,151L427,148L426,143L425,140L425,137L425,135L424,132L422,128L421,125L422,124L422,123L424,122L425,120L425,119L422,106L420,104L419,102L411,97L410,96L410,96L405,93L405,92L403,91L402,90L399,92L396,92L390,91L390,90L388,92L388,94L390,98L391,100L391,102L388,103L389,101L390,100L389,98L387,96L386,96L384,98L384,99L383,101L373,115L365,123L361,124L362,126L357,129L358,130L371,167L372,169L374,171L376,172L378,172Z " data-fips="AE03" data-hasc="AE.DU" data-name="Dubay" data-postal="DU" data-varname="Dibay|Douba|Dubai, Dubayy"/></g></svg>