<?xml version="1.0" ?><!DOCTYPE svg  PUBLIC '-//W3C//DTD SVG 1.1//EN'  'http://www.w3.org/Graphics/SVG/1.1/DTD/svg11.dtd'><svg enable_background="new 0 0 500 401" height="401px" style="stroke-linejoin: round; stroke:#000; fill:#f6f3f0;" version="1.1" viewBox="0 0 500 401" width="500px" xmlns="http://www.w3.org/2000/svg" xmlns:xlink="http://www.w3.org/1999/xlink"><defs><style type="text/css"><![CDATA[path { fill-rule: evenodd; }
#context path { fill: #eee; stroke: #bbb; } ]]></style></defs><metadata><views><view h="401" padding="0" w="500"><proj id="laea" lat0="40.534" lon0="44.563"/><bbox h="29.83" w="29.98" x="989.52" y="990.65"/><llbbox lat0="-90" lat1="90" lon0="-180" lon1="180"/></view></views></metadata><g id="admin1"><path d="M139,181L140,180L140,178L139,176L139,174L141,173L142,173L143,174L144,175L145,176L147,176L148,175L149,174L152,173L153,173L155,175L156,175L158,177L159,177L161,179L164,180L171,182L172,180L171,176L171,174L171,173L173,171L174,170L174,169L172,168L171,167L170,165L171,163L172,163L174,162L175,161L179,153L181,152L182,150L183,149L183,148L182,146L181,145L187,127L188,123L188,120L187,119L182,118L181,118L173,112L172,110L172,108L172,106L171,98L170,97L169,96L166,94L160,91L158,91L155,91L154,91L153,93L153,94L151,94L149,95L148,95L146,94L145,92L143,91L142,91L140,91L136,99L134,102L129,106L129,107L131,109L132,110L133,111L134,113L134,114L135,117L136,117L138,117L142,116L143,117L143,118L142,123L141,125L142,127L142,128L144,129L143,130L141,131L140,132L138,133L136,133L135,134L133,135L130,136L127,139L125,139L124,139L123,138L121,134L120,133L114,132L113,133L113,134L112,135L107,135L104,135L103,134L101,132L99,132L97,132L95,130L93,131L89,133L88,133L85,134L83,135L82,136L82,137L81,139L80,140L79,141L77,142L76,143L75,144L74,145L72,145L70,151L69,153L68,155L69,158L72,161L78,169L80,173L80,173L83,171L86,168L87,168L88,168L89,169L91,170L92,169L93,168L95,166L96,166L98,169L99,170L103,171L104,171L107,174L109,175L114,177L115,177L117,180L119,181L120,182L121,182L136,183Z " data-fips="AM01" data-hasc="AM.AG" data-name="Aragatsotn" data-postal="AG" data-varname="Aragacot'n"/><path d="M167,211L167,209L166,207L165,204L163,199L164,198L165,196L167,193L168,192L169,191L173,190L174,189L174,188L173,186L173,184L171,182L164,180L161,179L159,177L158,177L156,175L155,175L153,173L152,173L149,174L148,175L147,176L145,176L144,175L143,174L142,173L141,173L139,174L139,176L140,178L140,180L139,181L136,183L121,182L120,182L119,181L117,180L115,177L114,177L109,175L107,174L104,171L103,171L99,170L98,169L96,166L95,166L93,168L92,169L91,170L89,169L88,168L87,168L86,168L83,171L80,173L80,173L80,173L77,175L79,178L83,183L84,185L82,187L76,188L75,190L76,194L82,198L94,201L107,209L123,212L125,211L129,208L132,207L133,207L135,209L136,209L137,209L140,208L143,208L151,206L155,206L160,207L167,212Z " data-fips="AM03" data-hasc="AM.AV" data-name="Armavir" data-postal="AV" data-varname=""/><path d="M75,144L76,143L77,142L79,141L80,140L81,139L82,137L82,136L83,135L85,134L88,133L89,133L93,131L95,130L97,132L99,132L101,132L103,134L104,135L107,135L112,135L113,134L113,133L114,132L120,133L121,134L123,138L124,139L125,139L127,139L130,136L133,135L135,134L136,133L138,133L140,132L141,131L143,130L144,129L142,128L142,127L141,125L142,123L143,118L143,117L142,116L138,117L136,117L135,117L134,114L134,113L133,111L132,110L131,109L129,107L129,106L134,102L136,99L140,91L134,91L133,90L132,88L131,86L130,86L126,85L125,84L124,84L124,82L123,81L123,80L122,78L121,77L121,76L122,74L124,69L124,67L126,67L128,69L129,69L130,68L132,67L132,65L132,64L133,63L134,61L135,56L135,55L132,55L129,55L128,54L127,52L127,51L128,51L129,49L129,47L129,47L126,45L125,44L124,43L122,39L121,38L117,36L116,35L115,33L117,21L117,21L114,21L103,21L97,24L94,26L91,29L89,30L86,30L66,27L60,27L54,30L53,30L51,30L50,30L49,33L50,39L52,43L55,46L60,47L65,49L70,53L74,58L75,62L76,65L76,68L77,72L78,75L83,84L84,87L85,89L85,101L85,102L82,107L81,108L82,112L77,118L75,121L75,125L74,124L73,124L73,125L74,126L71,127L68,128L64,134L64,136L67,139L72,143L72,145L74,145Z " data-fips="AM07" data-hasc="AM.SH" data-name="Shirak" data-postal="SH" data-varname="irak"/><path d="M249,107L251,106L253,105L253,104L255,99L257,98L261,96L263,95L266,92L268,92L270,93L275,93L277,94L279,98L281,98L283,99L285,100L286,101L287,103L289,104L291,105L291,101L294,96L299,92L314,84L317,80L319,74L319,70L317,69L314,69L311,68L309,66L304,59L301,56L299,56L298,56L296,54L297,49L296,45L293,45L292,46L286,49L283,48L278,46L272,45L270,44L268,42L265,40L261,36L259,35L259,38L258,40L255,39L253,38L251,35L252,30L265,30L266,29L269,27L269,24L267,22L261,17L259,16L250,16L248,15L248,13L249,10L244,0L244,0L243,1L240,4L238,5L234,5L222,3L219,5L220,8L225,10L226,11L229,11L233,14L234,16L235,17L234,19L232,20L230,22L229,23L229,25L230,29L230,30L231,31L232,31L233,32L235,33L236,35L236,37L236,38L228,44L227,45L226,45L225,44L223,43L221,43L220,43L216,48L216,49L216,51L217,52L220,55L223,56L225,56L226,56L228,57L230,58L231,60L232,61L232,63L231,64L230,66L228,67L228,68L227,69L225,77L224,79L223,80L222,81L217,82L215,83L214,84L213,85L214,86L214,87L215,90L215,91L216,94L219,106L234,103L236,103L238,104L238,105L241,107L242,108L244,108Z M270,53L267,53L266,49L267,48L268,48L272,51Z M246,44L242,43L240,41L239,38L240,35L241,34L246,36L248,40Z " data-fips="AJ40" data-hasc="AM.TV" data-name="Tavush" data-postal="TV" data-varname="Tavu"/><path d="M220,261L226,260L232,260L236,259L240,256L245,253L249,251L254,253L255,254L255,251L255,245L256,242L259,235L258,233L258,232L257,228L257,227L256,225L256,223L256,222L256,218L255,216L253,216L253,215L252,213L247,200L247,198L247,196L248,191L249,186L244,186L240,186L235,188L231,190L227,191L218,197L212,198L205,199L204,199L203,198L202,195L195,202L191,204L190,204L189,204L187,203L187,202L186,200L185,199L184,198L178,197L178,196L177,194L177,193L178,190L177,189L176,188L174,188L174,189L173,190L169,191L168,192L167,193L165,196L164,198L163,199L165,204L166,207L167,209L167,211L167,212L177,218L184,224L188,228L189,230L190,233L190,234L191,235L193,237L194,238L194,240L194,241L196,240L200,245L203,247L205,247L206,247L207,249L215,259L217,262Z " data-fips="AM02" data-hasc="AM.AR" data-name="Ararat" data-postal="AR" data-varname=""/><path d="M265,231L270,227L272,225L273,225L277,223L278,223L288,223L291,222L295,222L303,221L305,220L310,218L312,216L313,213L315,213L316,213L316,214L318,215L318,213L326,208L347,211L355,210L357,209L358,207L359,200L360,198L363,196L365,192L366,188L369,177L368,175L365,171L363,169L361,168L358,168L356,169L353,169L348,163L318,147L311,140L307,131L305,129L303,127L302,126L301,124L301,121L300,119L298,116L295,114L293,112L291,108L291,105L289,104L287,103L286,101L285,100L283,99L281,98L279,98L277,94L275,93L270,93L268,92L266,92L263,95L261,96L257,98L255,99L253,104L253,105L251,106L249,107L244,108L242,108L241,107L238,105L238,104L236,103L234,103L219,106L219,110L218,112L218,113L218,115L219,123L220,125L221,126L224,125L226,126L226,127L228,130L228,131L229,132L228,134L228,136L228,137L228,138L232,141L233,142L233,143L239,165L240,167L238,168L238,169L237,171L238,172L238,173L247,183L249,186L248,191L247,196L247,198L247,200L252,213L253,215L253,216L255,216L256,218L256,222L256,223L256,225L257,227L257,228L258,232L258,233L259,235Z M311,111L313,110L315,106L311,104L310,104L308,104L306,104L304,105L304,107L303,109L304,110L305,112L309,113Z " data-fips="AM04" data-hasc="AM.GR" data-name="Gegharkunik" data-postal="GR" data-varname="Gelark'unik'"/><path d="M212,198L218,197L227,191L231,190L235,188L240,186L244,186L249,186L247,183L238,173L238,172L237,171L238,169L238,168L240,167L239,165L233,143L233,142L232,141L228,138L228,137L228,136L228,134L229,132L228,131L228,130L226,127L226,126L224,125L221,126L220,125L219,123L218,115L218,113L218,112L219,110L219,106L212,104L211,104L205,103L200,102L194,99L192,98L189,99L188,100L187,99L185,98L182,98L172,106L172,108L172,110L173,112L181,118L182,118L187,119L188,120L188,123L187,127L181,145L182,146L183,148L183,149L182,150L181,152L179,153L175,161L174,162L172,163L171,163L170,165L171,167L172,168L174,169L174,170L173,171L171,173L171,174L171,176L172,180L173,179L174,178L176,179L177,179L179,178L180,178L186,178L189,176L191,175L192,176L193,176L195,179L196,180L197,181L196,182L194,185L193,186L193,187L192,188L192,190L193,191L195,191L199,191L199,192L202,195L203,198L204,199L205,199Z " data-fips="AM05" data-hasc="AM.KT" data-name="Kotayk" data-postal="KT" data-varname="Kotaik|Kotayk'"/><path d="M212,104L216,94L215,91L215,90L214,87L214,86L213,85L214,84L215,83L217,82L222,81L223,80L224,79L225,77L227,69L228,68L228,67L230,66L231,64L232,63L232,61L231,60L230,58L228,57L226,56L225,56L223,56L220,55L217,52L216,51L216,49L216,48L220,43L221,43L223,43L225,44L226,45L227,45L228,44L236,38L236,37L236,35L235,33L233,32L232,31L231,31L230,30L230,29L229,25L229,23L230,22L232,20L234,19L235,17L234,16L233,14L229,11L226,11L226,12L225,14L222,14L204,14L198,12L196,11L193,12L192,15L190,17L188,19L186,18L185,17L185,15L184,14L183,14L182,15L179,17L176,18L173,18L171,17L164,13L163,13L161,13L160,14L159,15L158,16L155,17L153,16L147,11L143,10L142,10L141,11L140,12L140,14L140,15L139,16L138,17L135,19L133,19L127,18L125,18L120,20L117,21L117,21L115,33L116,35L117,36L121,38L122,39L124,43L125,44L126,45L129,47L129,47L129,49L128,51L127,51L127,52L128,54L129,55L132,55L135,55L135,56L134,61L133,63L132,64L132,65L132,67L130,68L129,69L128,69L126,67L124,67L124,69L122,74L121,76L121,77L122,78L123,80L123,81L124,82L124,84L125,84L126,85L130,86L131,86L132,88L133,90L134,91L140,91L142,91L143,91L145,92L146,94L148,95L149,95L151,94L153,94L153,93L154,91L155,91L158,91L160,91L166,94L169,96L170,97L171,98L182,98L185,98L187,99L188,100L189,99L192,98L194,99L200,102L205,103L211,104Z " data-fips="AM06" data-hasc="AM.LO" data-name="Lori" data-postal="LO" data-varname="Lo?i"/><path d="M191,204L195,202L199,192L199,191L195,191L193,191L192,190L192,188L193,187L193,186L194,185L196,182L197,181L196,180L195,179L193,176L192,176L191,175L189,176L186,178L180,178L179,178L177,179L176,179L174,178L173,179L172,180L171,182L173,184L173,186L174,188L176,188L177,189L178,190L177,193L177,194L178,196L178,197L184,198L185,199L186,200L187,202L187,203L189,204L190,204Z " data-fips="AM11" data-hasc="AM.ER" data-name="Erevan" data-postal="ER" data-varname="Yerevan"/><path d="M400,398L403,397L409,392L412,390L413,390L418,390L421,389L423,388L425,389L438,394L440,395L436,386L435,384L435,382L435,380L436,378L436,377L437,371L438,367L437,362L435,357L432,354L428,352L424,349L424,344L427,341L431,341L439,345L441,345L447,340L449,340L451,340L450,338L449,337L448,336L443,333L439,329L438,327L437,324L436,322L434,320L425,317L421,313L419,308L421,304L425,301L434,299L435,299L436,297L436,296L435,294L435,291L437,290L439,289L440,287L439,284L438,282L436,281L434,280L425,281L423,281L421,279L418,275L416,274L412,274L403,278L399,279L396,278L394,277L391,271L389,269L387,268L382,266L378,263L373,253L369,250L361,248L357,246L354,244L349,239L348,237L348,237L345,238L344,240L337,252L336,254L336,256L338,261L338,263L338,267L335,280L335,282L336,284L336,283L339,283L343,285L346,287L347,289L347,291L347,296L348,303L347,306L343,313L342,316L343,319L351,321L353,323L356,325L359,328L368,332L371,334L372,336L372,337L372,338L371,339L368,343L367,348L368,352L371,356L374,361L377,366L384,385L392,399Z " data-fips="AM08" data-hasc="AM.SU" data-name="Syunik" data-postal="SU" data-varname="Syunik'"/><path d="M304,297L305,296L307,295L317,289L320,287L336,284L335,282L335,280L338,267L338,263L338,261L336,256L336,254L337,252L344,240L345,238L348,237L348,237L342,225L339,222L336,220L322,219L318,217L318,215L316,214L316,213L315,213L313,213L312,216L310,218L305,220L303,221L295,222L291,222L288,223L278,223L277,223L273,225L272,225L270,227L265,231L259,235L256,242L255,245L255,251L255,254L263,265L264,268L265,271L265,275L264,281L264,283L267,285L271,284L275,280L278,279L282,284L284,288L285,290L287,290L293,291L295,292L299,296L301,297L302,297Z " data-fips="AM10" data-hasc="AM.VD" data-name="Vayots Dzor" data-postal="VD" data-varname="Vayoc'Jor"/></g></svg>