<?xml version="1.0" ?><!DOCTYPE svg  PUBLIC '-//W3C//DTD SVG 1.1//EN'  'http://www.w3.org/Graphics/SVG/1.1/DTD/svg11.dtd'><svg enable_background="new 0 0 500 401" height="401px" style="stroke-linejoin: round; stroke:#000; fill:#f6f3f0;" version="1.1" viewBox="0 0 500 401" width="500px" xmlns="http://www.w3.org/2000/svg" xmlns:xlink="http://www.w3.org/1999/xlink"><defs><style type="text/css"><![CDATA[path { fill-rule: evenodd; }
#context path { fill: #eee; stroke: #bbb; } ]]></style></defs><metadata><views><view h="401" padding="0" w="500"><proj id="laea" lat0="40.43" lon0="47.395"/><bbox h="43.13" w="55.27" x="975.12" y="981.93"/><llbbox lat0="-90" lat1="90" lon0="-180" lon1="180"/></view></views></metadata><g id="admin1"><path d="M26,96L25,93L22,92L20,93L20,95L21,96L22,98L25,99Z " data-fips="AJ40" data-hasc="AZ.QZ" data-name="Qazax" data-postal="QZ" data-varname="Qazakh"/><path d="M42,104L39,102L38,103L39,105L41,106Z " data-fips="AJ40" data-hasc="AZ.QZ" data-name="Qazax" data-postal="QZ" data-varname="Qazakh"/><path d="M60,108L61,105L63,103L65,101L67,100L70,99L72,97L73,93L72,90L71,86L74,85L79,85L80,82L83,80L86,78L89,77L87,76L84,73L82,70L84,68L86,67L87,66L85,65L79,64L67,59L65,56L63,54L62,54L59,55L58,55L56,55L53,53L51,52L48,52L46,52L33,63L33,63L33,64L37,68L38,69L42,70L45,73L47,74L57,75L57,76L57,79L55,86L56,88L55,89L54,91L55,93L55,96L55,101L56,101L59,100L59,103L58,107L59,108L60,108Z " data-fips="AJ05" data-hasc="AZ.AF" data-name="Agstafa" data-postal="AF" data-varname="Agstafa"/><path d="M97,186L97,186L98,182L102,180L108,181L114,181L120,181L122,175L126,171L126,167L123,165L120,163L118,159L121,155L124,150L122,149L120,147L117,145L114,143L110,141L106,143L103,148L99,153L93,156L92,163L93,165L94,167L94,169L93,172L93,174L93,177L92,178L92,180L91,182L94,186Z " data-fips="AJ16" data-hasc="AZ.DS" data-name="Dask?s?n" data-postal="DS" data-varname="Dashkasan"/><path d="M66,147L63,146L62,145L62,144L62,143L63,142L64,141L65,141L66,141L67,141L70,142L68,145L67,146Z M92,180L92,178L93,177L93,174L93,172L94,169L94,167L93,165L92,163L93,156L99,153L99,151L99,150L99,147L99,145L98,142L94,138L91,135L88,131L88,129L87,127L85,125L84,123L83,128L83,132L83,137L82,143L82,146L79,148L77,147L75,145L73,144L74,141L72,139L69,137L66,137L64,136L64,132L63,131L59,132L56,135L54,139L54,141L54,143L55,146L57,148L58,149L60,151L60,152L60,154L60,156L61,157L63,158L64,159L66,165L71,170L91,182Z " data-fips="AJ19" data-hasc="AZ.GD" data-name="G?d?b?y" data-postal="GD" data-varname="Gadabay"/><path d="M137,135L132,135L130,137L131,139L131,140L130,142L130,143L135,143Z " data-fips="AJ20" data-hasc="AZ.GA" data-name="G?nc?" data-postal="GA" data-varname="Ganja city"/><path d="M133,177L136,170L138,168L140,165L143,162L146,159L148,157L150,155L150,153L149,151L149,145L147,139L142,140L135,143L130,143L130,142L131,140L131,139L130,137L132,135L133,128L129,125L128,127L128,129L127,131L127,133L126,134L126,136L125,138L123,140L120,140L117,141L114,143L117,145L120,147L122,149L124,150L121,155L118,159L120,163L123,165L126,167L126,171L122,175L120,181L126,183L133,185Z " data-fips="AJ20" data-hasc="AZ.XR" data-name="Xanlar" data-postal="XR" data-varname="Khanlar"/><path d="M152,181L155,177L160,175L164,172L168,171L171,171L174,171L176,170L178,168L179,167L181,166L183,164L187,161L188,159L188,157L188,156L185,157L183,156L182,151L182,146L180,144L177,143L174,146L172,143L175,139L177,136L174,134L171,134L169,130L170,126L171,121L171,117L171,112L168,112L164,116L160,121L155,125L154,126L153,127L153,130L152,131L148,134L147,139L149,145L149,151L150,153L150,155L148,157L146,159L143,162L140,165L138,168L136,170L133,177L133,185L143,186Z " data-fips="AJ21" data-hasc="AZ.GR" data-name="Goranboy" data-postal="GR" data-varname=""/><path d="M95,238L97,236L100,234L104,231L105,228L107,225L109,227L111,229L114,229L117,228L123,227L129,225L133,224L137,223L141,222L144,220L147,219L149,217L152,219L154,220L157,219L159,216L162,214L165,214L168,212L171,212L169,210L168,207L167,205L165,203L160,199L155,199L153,200L151,201L150,198L150,194L149,190L149,186L150,185L151,184L151,183L152,181L143,186L133,185L126,183L120,181L114,181L108,181L102,180L98,182L97,186L97,186L98,185L100,185L101,186L102,187L105,191L104,192L103,199L102,202L100,204L98,206L97,212L96,213L95,214L89,214L75,212L69,215L70,216L70,218L72,219L81,220L84,221L85,223L89,231L90,233L94,237L95,238Z " data-fips="AJ26" data-hasc="AZ.KA" data-name="K?lb?c?r" data-postal="KA" data-varname="Kalbajar"/><path d="M196,132L195,131L194,129L192,129L191,130L185,130L189,135Z " data-fips="AJ33" data-hasc="AZ.MI" data-name="Ming?evir" data-postal="MI" data-varname="Mingachevir"/><path d="M55,101L55,96L55,93L54,91L55,89L56,88L55,86L57,79L57,76L57,75L47,74L45,73L42,70L38,69L37,68L33,64L33,63L33,63L24,69L27,76L26,78L27,80L28,80L34,80L35,81L39,84L40,86L41,88L39,89L38,90L29,89L28,93L29,95L31,96L33,96L33,95L34,93L35,94L38,97L39,98L41,99L42,100L46,101L50,103L52,103Z " data-fips="AJ40" data-hasc="AZ.QZ" data-name="Qazax" data-postal="QZ" data-varname="Qazakh"/><path d="M103,148L106,143L110,141L114,143L117,141L120,140L123,140L125,138L126,136L126,134L127,133L127,131L128,129L128,127L129,125L129,118L130,114L131,113L131,111L132,108L133,106L134,102L132,98L128,93L125,88L122,93L119,96L118,98L117,99L116,101L115,102L111,103L107,102L103,102L99,103L98,106L96,109L93,111L90,113L88,115L85,117L84,119L84,123L85,125L87,127L88,129L88,131L91,135L94,138L98,142L99,145L99,147L99,150L99,151L99,153Z " data-fips="AJ51" data-hasc="AZ.SM" data-name="S?mkir" data-postal="SM" data-varname="Shamkir"/><path d="M147,139L148,134L152,131L153,130L153,127L154,126L155,125L160,121L164,116L168,112L171,105L170,102L169,99L169,96L166,94L162,94L159,92L158,93L157,94L155,93L153,93L152,94L151,96L150,98L149,99L148,99L146,98L144,95L142,94L137,92L136,91L131,86L128,83L127,82L126,81L119,81L117,82L115,83L116,83L120,86L125,88L128,93L132,98L134,102L133,106L132,108L131,111L131,113L130,114L129,118L133,128L137,135L142,140Z " data-fips="AJ52" data-hasc="AZ.SX" data-name="Samux" data-postal="SX" data-varname="Samukh"/><path d="M82,146L82,143L83,137L83,132L83,128L84,123L84,119L85,117L88,115L90,113L93,111L96,109L98,106L99,103L103,102L107,102L111,103L115,102L116,101L117,99L118,98L119,96L122,93L125,88L120,86L116,83L115,83L113,84L111,85L109,85L105,85L93,80L89,77L86,78L83,80L80,82L79,85L74,85L71,86L72,90L73,93L72,97L70,99L67,100L65,101L63,103L61,105L60,108L60,108L61,108L63,110L67,115L68,116L70,117L72,117L73,118L74,121L72,125L70,128L63,131L64,132L64,136L66,137L69,137L72,139L74,141L73,144L75,145L77,147L79,148Z " data-fips="AJ58" data-hasc="AZ.TO" data-name="Tovuz" data-postal="TO" data-varname=""/><path d="M193,163L198,162L203,162L206,155L209,153L211,152L211,148L210,145L210,141L212,137L213,132L214,128L207,125L201,122L193,118L179,110L171,112L171,117L171,121L170,126L169,130L171,134L174,134L177,136L175,139L172,143L174,146L177,143L180,144L182,146L182,151L183,156L185,157L188,156L188,157L188,159L187,161L186,164L186,166L187,168Z M189,135L185,130L191,130L192,129L194,129L195,131L196,132Z " data-fips="AJ67" data-hasc="AZ.YV" data-name="Yevlax" data-postal="YV" data-varname="Yevlakh"/><path d="M498,177L499,177L500,176L500,175L498,173L497,173L496,174L495,173L495,175L496,176L497,177Z M479,167L480,166L480,165L479,163L478,162L477,161L476,158L475,159L474,158L474,161L477,164L477,167L478,167Z M396,249L398,247L399,245L397,243L397,241L397,240L397,238L397,237L399,235L399,234L398,232L398,231L399,230L400,229L401,228L400,227L399,224L399,222L399,221L399,220L400,219L401,218L402,216L404,215L403,214L403,213L401,212L401,211L399,209L399,207L400,205L405,203L404,202L404,199L404,197L405,195L406,194L410,191L411,189L418,187L422,184L428,182L431,181L434,178L433,175L436,173L438,172L440,173L443,174L444,174L445,177L447,176L450,174L451,173L455,173L457,172L459,172L462,173L466,174L468,174L470,175L474,179L477,181L478,184L480,187L480,185L480,183L479,181L478,180L477,171L476,169L475,166L473,165L472,164L470,163L468,161L467,158L466,157L465,156L457,154L455,154L454,152L452,150L451,149L451,148L450,147L441,147L439,148L434,150L432,150L430,150L427,149L422,149L421,148L421,149L420,150L421,153L423,154L425,153L426,152L430,153L434,155L437,156L435,158L431,159L427,160L425,161L423,161L421,161L420,160L417,160L414,162L416,162L418,165L420,168L421,170L420,171L418,172L416,172L414,172L414,170L412,168L411,166L410,162L408,161L405,164L403,166L400,167L397,170L397,175L398,181L398,188L396,192L394,194L394,196L394,198L393,200L392,202L391,204L391,207L392,209L390,211L389,213L388,216L387,219L389,222L390,226L391,228L393,229L393,232L392,239L392,244L393,248L394,251Z " data-fips="AJ01" data-hasc="AZ.BA" data-name="Baki" data-postal="BA" data-varname="Baku city"/><path d="M388,216L389,213L390,211L392,209L391,207L391,204L392,202L393,200L394,198L394,196L394,194L396,192L398,188L398,181L397,175L397,170L400,167L403,166L405,164L408,161L410,162L411,166L412,168L414,170L414,172L416,172L418,172L420,171L421,170L420,168L418,165L416,162L414,162L417,160L420,160L421,161L423,161L425,161L427,160L431,159L435,158L437,156L434,155L430,153L426,152L425,153L423,154L421,153L415,153L411,153L410,151L408,148L405,145L402,143L400,146L398,148L397,149L396,151L396,153L395,155L390,157L382,161L380,164L377,166L375,167L372,167L370,169L368,171L367,173L364,174L361,177L360,179L358,181L356,182L355,181L352,179L350,182L352,185L355,187L357,190L360,194L362,197L365,198L368,198L373,198L376,198L379,201L379,205L381,208L383,211L383,213L384,215L386,217L387,219Z " data-fips="AJ01" data-hasc="AZ.AR" data-name="Abseron" data-postal="AR" data-varname="Absheron"/><path d="M185,236L187,233L188,230L192,229L195,231L200,234L205,235L206,233L207,231L210,231L214,231L216,227L214,224L210,224L206,226L199,224L197,219L199,218L200,217L200,214L200,211L203,210L206,208L203,206L203,203L207,201L211,197L205,197L196,198L194,197L193,194L192,192L190,193L188,192L187,191L186,191L185,192L185,194L180,197L175,199L175,203L173,205L171,208L171,212L168,212L165,214L168,216L172,215L176,217L178,222L181,225L185,227L184,230L182,232L180,235L182,237Z " data-fips="AJ03" data-hasc="AZ.AM" data-name="Agdam" data-postal="AM" data-varname="Agdam"/><path d="M231,181L234,178L235,175L236,172L235,170L232,168L231,166L232,162L232,158L235,157L238,156L242,154L243,150L244,149L244,148L243,146L241,145L239,143L237,141L236,136L233,132L230,131L228,130L227,130L225,130L223,130L221,129L217,129L214,128L213,132L212,137L210,141L210,145L211,148L211,152L209,153L210,154L211,155L210,156L210,157L211,158L212,156L214,155L215,156L215,158L215,160L215,161L216,162L217,163L218,164L218,165L220,165L221,165L222,165L222,167L221,168L220,169L219,170L224,171L224,173L223,175L224,176L227,175L228,177L228,178L228,179L227,180L228,181L229,182Z " data-fips="AJ04" data-hasc="AZ.AS" data-name="Agdas" data-postal="AS" data-varname="Agdash"/><path d="M315,181L319,176L320,174L321,171L321,168L324,165L329,163L331,162L332,161L330,160L328,159L327,158L325,157L322,157L319,156L316,155L313,152L314,147L318,144L318,143L319,142L319,140L320,138L321,136L319,132L317,130L316,128L315,127L314,132L311,137L306,141L301,144L299,144L298,145L297,146L297,147L295,148L293,150L291,151L289,153L289,155L289,156L287,157L286,156L284,161L283,166L286,168L289,167L290,169L292,170L294,168L297,166L300,166L304,168L304,172L304,176L307,177L309,178L311,182Z " data-fips="AJ06" data-hasc="AZ.AU" data-name="Agsu" data-postal="AU" data-varname="Agsu"/><path d="M393,232L393,229L391,228L390,226L389,222L387,219L386,217L384,215L383,213L383,211L381,208L379,205L379,201L376,198L373,198L368,198L365,198L362,197L360,194L357,190L355,187L352,185L350,182L344,179L340,177L339,181L337,184L334,185L331,184L327,182L324,180L320,179L315,181L316,187L316,191L316,195L316,200L324,200L331,202L333,203L333,204L334,207L334,208L335,209L337,211L339,211L340,211L341,213L342,213L347,214L349,215L352,217L354,220L355,220L355,221L355,223L355,226L357,224L359,224L363,224L366,226L369,228L374,228L378,229L380,229L381,229L383,229L385,228L387,229L388,231L391,233Z " data-fips="AJ07" data-hasc="AZ.AB" data-name="?li Bayramli" data-postal="AB" data-varname="Ali Bayramli"/><path d="M338,394L340,393L342,391L344,390L346,389L349,389L354,390L354,371L347,373L339,373L337,375L335,375L333,375L331,376L329,377L328,378L327,381L326,383L325,386L326,388L328,392L331,394L336,395Z " data-fips="AJ08" data-hasc="AZ.AA" data-name="Astara" data-postal="AA" data-varname=""/><path d="M218,198L225,193L233,188L233,188L234,186L235,185L236,184L229,182L228,181L227,180L228,179L228,178L228,177L227,175L224,176L223,175L224,173L224,171L219,170L220,169L221,168L222,167L222,165L221,165L220,165L218,165L218,164L217,163L216,162L215,161L215,160L215,158L215,156L214,155L212,156L211,158L210,157L210,156L211,155L210,154L209,153L206,155L203,162L198,162L193,163L189,172L190,175L191,176L192,177L194,179L196,181L198,182L198,185L198,189L198,193L198,195L205,197L211,197L211,195L213,197L215,199Z " data-fips="AJ11" data-hasc="AZ.BR" data-name="B?rd?" data-postal="BR" data-varname="Barda"/><path d="M255,258L259,254L260,250L263,247L267,245L268,242L264,239L261,237L259,234L255,233L256,229L257,225L256,224L255,222L256,221L258,220L261,217L261,213L258,210L255,207L259,203L258,200L258,199L257,198L252,206L250,211L250,216L249,221L247,225L245,228L242,229L239,230L237,230L235,230L234,231L234,232L231,233L229,235L230,237L231,239L229,239L228,240L229,242L231,245L233,248L235,249L237,252L239,255L245,259L245,264Z " data-fips="AJ12" data-hasc="AZ.BQ" data-name="Beyl?qan" data-postal="BQ" data-varname="Beylagan"/><path d="M311,292L312,291L314,290L316,290L319,287L321,284L324,284L326,287L327,291L330,293L333,291L333,286L333,284L334,283L335,281L336,280L337,280L339,281L341,281L344,278L344,275L343,273L341,271L341,265L343,259L339,258L335,256L331,255L324,258L319,256L314,253L310,258L301,264L290,258L285,252L279,248L273,247L273,248L275,249L276,250L281,255L296,272L302,277L305,281L306,285L306,285L307,287L307,292L310,294Z " data-fips="AJ13" data-hasc="AZ.BS" data-name="Bil?suvar" data-postal="BS" data-varname="Bilasuvar"/><path d="M187,310L193,306L194,304L195,302L195,300L199,295L199,294L200,293L204,291L212,287L213,287L213,285L210,284L207,284L205,285L203,282L202,279L199,277L196,276L194,278L195,282L195,283L193,283L192,284L190,285L188,285L187,283L184,282L182,279L182,278L181,277L180,276L178,276L176,274L174,275L176,279L175,283L171,282L168,281L166,283L165,286L167,289L168,291L168,295L170,298L173,300L176,302L179,306L179,309L181,308L182,308L184,309L186,310Z " data-fips="AJ14" data-hasc="AZ.CB" data-name="C?brayil" data-postal="CB" data-varname="Jabrayil"/><path d="M323,327L326,324L328,321L331,320L333,319L335,317L334,315L334,312L335,312L337,312L338,311L338,310L340,310L342,303L339,296L338,291L339,287L341,284L341,281L339,281L337,280L336,280L335,281L334,283L333,284L333,286L333,291L330,293L327,291L326,287L324,284L321,284L319,287L316,290L314,290L312,291L311,292L310,294L307,292L307,287L306,285L306,285L303,286L299,289L293,290L291,292L288,294L286,297L286,301L288,304L290,307L295,312L300,314L301,315L304,321L304,322L304,324L304,325L309,325L312,324L314,324L317,326L319,329Z " data-fips="AJ15" data-hasc="AZ.CL" data-name="C?lilabad" data-postal="CL" data-varname="Jalilabad"/><path d="M345,117L347,115L346,110L345,105L347,102L349,100L351,100L352,100L354,98L354,96L354,92L353,88L355,84L361,84L364,83L367,82L370,85L373,87L374,87L374,87L373,86L373,84L372,75L371,72L370,70L369,68L366,63L366,63L361,63L357,63L353,62L349,64L346,64L343,63L341,64L337,69L337,74L339,75L339,77L338,78L336,79L332,83L330,89L334,92L337,96L336,99L334,101L332,103L333,106L334,110L338,117L342,120Z " data-fips="AJ17" data-hasc="AZ.DV" data-name="D?v?i" data-postal="DV" data-varname="Davachi"/><path d="M216,285L219,282L223,277L226,274L230,272L236,270L238,270L239,269L243,265L245,264L245,259L239,255L237,252L235,249L233,248L231,245L224,247L218,249L215,249L211,250L209,251L206,251L204,252L203,254L201,255L199,256L195,256L194,258L197,259L200,259L198,261L194,262L193,264L193,265L195,265L197,264L199,263L200,265L199,266L199,268L199,270L199,272L198,273L196,273L196,274L196,276L199,277L202,279L203,282L205,285L207,284L210,284L213,285L213,287Z " data-fips="AJ18" data-hasc="AZ.FU" data-name="Fzuli" data-postal="FU" data-varname="Fizuli"/><path d="M279,164L278,154L280,149L277,146L272,145L268,143L264,143L262,143L259,142L257,141L254,141L251,142L248,142L245,143L241,145L243,146L244,148L244,149L243,150L242,154L243,159L245,160L246,160L248,159L250,160L252,162L254,163L256,162L257,161L259,161L262,162L265,164L268,165L271,166L274,166L276,166Z " data-fips="AJ22" data-hasc="AZ.GY" data-name="Gyay" data-postal="GY" data-varname="Goychay"/><path d="M310,258L308,255L306,253L306,250L306,248L307,246L307,245L303,241L298,240L296,237L295,235L296,232L297,229L299,227L298,224L297,223L296,222L297,220L298,218L300,216L302,215L303,214L304,213L305,212L304,211L303,210L302,210L301,211L299,212L298,210L298,210L296,209L295,208L293,209L291,210L290,208L289,208L284,205L283,204L283,201L282,201L280,202L277,203L276,202L275,202L274,203L274,204L274,207L273,207L271,206L270,206L269,206L268,207L267,207L265,205L264,205L263,204L261,205L260,205L255,207L258,210L261,213L261,217L258,220L256,221L255,222L256,224L257,225L256,229L255,233L259,234L261,237L264,239L268,242L267,245L263,247L260,250L259,254L260,253L262,252L264,251L270,251L271,251L272,250L273,248L273,247L279,248L285,252L290,258L301,264Z " data-fips="AJ24" data-hasc="AZ.IM" data-name="Imisli" data-postal="IM" data-varname="Imishli"/><path d="M286,156L287,157L289,156L289,155L289,153L291,151L293,150L295,148L297,147L297,146L298,145L299,144L301,144L306,141L311,137L314,132L315,127L318,122L317,117L313,114L304,105L298,105L293,103L288,100L286,99L284,98L281,98L279,97L277,99L276,101L276,103L275,104L274,104L273,104L272,105L272,107L273,110L275,114L274,117L272,119L271,119L270,120L269,122L269,125L266,128L262,129L260,131L258,135L256,138L254,141L257,141L259,142L262,143L264,143L268,143L272,145L277,146L280,149L278,154L282,158Z " data-fips="AJ25" data-hasc="AZ.IS" data-name="Ismayilli" data-postal="IS" data-varname="Ismailli"/><path d="M301,211L302,210L303,210L304,211L305,209L306,208L308,206L311,204L313,202L316,200L316,195L316,191L316,187L311,182L309,178L307,177L304,176L304,172L304,168L300,166L297,166L294,168L292,170L290,169L289,167L286,168L283,166L284,161L286,156L282,158L279,164L276,166L275,171L275,176L273,179L271,189L272,197L271,200L269,202L266,203L264,205L265,205L267,207L268,207L269,206L270,206L271,206L273,207L274,207L274,204L274,203L275,202L276,202L277,203L280,202L282,201L283,201L283,204L284,205L289,208L290,208L291,210L293,209L295,208L296,209L298,210L298,210L299,212Z " data-fips="AJ27" data-hasc="AZ.KU" data-name="Krd?mir" data-postal="KU" data-varname="Kurdamir"/><path d="M347,373L354,371L353,354L351,348L350,347L350,345L350,341L353,342L356,339L353,338L349,338L348,339L347,340L344,342L342,343L339,345L335,346L332,344L329,342L327,346L328,351L332,354L336,356L337,359L338,361L338,363L338,365L340,366L342,368L341,371L339,373Z M358,334L360,326L360,323L359,320L358,318L359,312L360,311L360,310L360,308L361,307L361,306L362,305L366,305L368,306L369,307L369,308L370,313L370,314L374,314L376,315L377,317L377,319L376,321L375,323L374,324L370,325L369,325L369,327L369,328L371,330L375,329L381,324L382,322L382,320L382,316L383,314L384,310L384,308L383,307L379,306L376,304L373,304L370,302L368,298L366,296L362,300L358,304L354,308L351,312L351,315L351,319L353,321L355,323L355,325L355,328L357,332L357,334Z " data-fips="AJ29" data-hasc="AZ.NE" data-name="Astara" data-postal="NE" data-varname="Neftchala"/><path d="M339,345L342,343L344,342L347,340L348,339L349,338L353,338L356,339L356,338L357,334L357,332L355,328L355,325L355,323L353,321L351,319L351,315L351,312L346,312L340,310L338,310L338,311L337,312L335,312L334,312L334,315L335,317L333,319L331,320L328,321L326,324L323,327L319,329L321,333L325,334L328,337L329,342L332,344L335,346Z " data-fips="AJ29" data-hasc="AZ.MA" data-name="Masalli" data-postal="MA" data-varname="Masally"/><path d="M326,383L327,381L328,378L329,377L331,376L333,375L335,375L337,375L339,373L341,371L342,368L340,366L338,365L338,363L338,361L337,359L336,356L332,354L328,351L327,346L329,342L328,337L325,334L318,339L310,344L308,345L306,347L304,348L303,350L302,353L302,355L301,356L299,358L297,359L298,361L297,363L298,365L302,368L303,370L305,372L308,372L312,370L314,370L315,372L316,375L317,377L318,378L320,380L321,382L323,383L325,386Z " data-fips="AJ31" data-hasc="AZ.LE" data-name="Lerik" data-postal="LE" data-varname=""/><path d="M351,312L354,308L358,304L362,300L366,296L368,298L370,302L373,304L376,304L379,306L383,307L384,308L385,307L384,295L385,291L387,288L390,287L395,290L396,292L397,293L399,292L398,292L396,290L396,288L396,286L396,287L397,288L398,289L399,289L398,288L398,287L399,282L398,281L397,280L389,273L388,271L388,269L387,269L384,270L381,271L379,273L378,273L376,273L374,272L371,268L368,265L366,267L365,268L365,270L362,273L361,274L359,278L359,281L360,283L359,285L357,285L354,288L351,287L347,284L341,284L339,287L338,291L339,296L342,303L346,312Z " data-fips="AJ36" data-hasc="AZ.NE" data-name="Neftala" data-postal="NE" data-varname="Neftchala"/><path d="M358,181L360,179L361,177L364,174L367,173L368,171L370,169L372,167L375,167L377,166L380,164L382,161L378,155L373,150L370,147L365,145L361,142L358,139L356,137L354,135L349,131L345,130L341,132L338,135L337,139L337,144L336,146L335,148L335,150L337,151L337,153L337,155L338,157L338,160L338,162L338,163L340,165L339,167L338,169L337,171L337,173L335,174L333,175L333,177L337,177L340,177L344,179L352,179L355,181L356,182Z " data-fips="AJ41" data-hasc="AZ.QO" data-name="Qobustan" data-postal="QO" data-varname=""/><path d="M385,116L388,115L392,115L391,114L381,103L377,96L375,88L374,87L373,87L370,85L367,82L364,83L361,84L355,84L353,88L354,92L354,96L354,98L352,100L351,100L349,100L347,102L345,105L346,110L347,115L350,115L353,114L356,113L359,111L359,110L360,108L361,106L363,106L365,107L365,111L367,113L370,114L373,116L377,117L381,117Z " data-fips="AJ42" data-hasc="AZ.SY" data-name="Siy?z?n" data-postal="SY" data-varname="Siazan"/><path d="M325,253L327,251L331,250L335,248L337,245L337,241L336,238L336,236L336,234L336,231L334,228L330,226L326,224L323,222L320,222L319,223L318,224L317,224L315,223L315,221L315,219L316,218L314,216L312,215L309,216L306,217L304,219L301,220L300,220L298,218L297,220L296,222L297,223L298,224L299,227L297,229L296,232L295,235L296,237L298,240L303,241L307,245L307,246L306,248L306,250L306,253L308,255L310,258L314,253L319,256L324,258Z " data-fips="AJ45" data-hasc="AZ.ST" data-name="Saatli" data-postal="ST" data-varname="Saatly"/><path d="M354,259L353,256L356,255L358,253L359,252L360,251L361,248L362,246L362,245L361,243L358,241L358,239L359,237L359,236L358,235L358,233L358,231L357,230L356,228L355,223L355,221L355,220L354,220L352,217L349,215L347,214L342,213L341,213L340,211L339,211L337,211L335,209L334,208L334,207L333,204L333,203L331,202L324,200L316,200L313,202L311,204L308,206L306,208L305,209L304,211L305,212L304,213L303,214L302,215L300,216L298,218L300,220L301,220L304,219L306,217L309,216L312,215L314,216L316,218L315,219L315,221L315,223L317,224L318,224L319,223L320,222L323,222L326,224L330,226L334,228L336,231L336,234L336,236L336,238L337,241L337,245L335,248L331,250L327,251L325,253L331,255L335,256L339,258L343,259L346,259L349,258L351,260L353,260Z " data-fips="AJ46" data-hasc="AZ.SB" data-name="Sabirabad" data-postal="SB" data-varname=""/><path d="M357,285L359,285L360,283L359,281L359,278L361,274L362,273L365,270L365,268L366,267L368,265L371,268L374,272L376,273L378,273L379,273L381,271L384,270L387,269L388,269L388,268L388,265L389,263L390,260L391,258L390,256L392,254L394,251L393,248L392,244L392,239L391,233L388,231L387,229L385,228L383,229L381,229L380,229L378,229L374,228L369,228L366,226L363,224L359,224L357,224L355,226L356,228L357,230L358,231L358,233L358,235L359,236L359,237L358,239L358,241L361,243L362,245L362,246L361,248L360,251L359,252L358,253L356,255L353,256L354,259L353,260L351,260L349,258L346,259L343,259L341,265L341,271L343,273L344,275L344,278L347,284L351,287L354,288Z " data-fips="AJ49" data-hasc="AZ.SL" data-name="Salyan" data-postal="SL" data-varname=""/><path d="M337,184L339,181L340,177L337,177L333,177L333,175L335,174L337,173L337,171L338,169L339,167L340,165L338,163L338,162L338,160L338,157L337,155L337,153L337,151L335,150L335,148L336,146L337,144L337,139L338,135L341,132L345,130L341,125L342,120L338,117L328,114L322,111L316,110L313,114L317,117L318,122L315,127L316,128L317,130L319,132L321,136L320,138L319,140L319,142L318,143L318,144L314,147L313,152L316,155L319,156L322,157L325,157L327,158L328,159L330,160L332,161L331,162L329,163L324,165L321,168L321,171L320,174L319,176L320,179L324,180L327,182L331,184L334,185Z " data-fips="AJ50" data-hasc="AZ.SI" data-name="Samaxi" data-postal="SI" data-varname="Shamakhi"/><path d="M420,150L421,149L421,148L421,148L418,145L416,144L415,144L411,144L410,143L408,142L407,141L406,140L405,140L403,141L402,143L405,145L408,148L410,151L411,153L415,153Z " data-fips="AJ54" data-hasc="AZ.SQ" data-name="Sumqayit" data-postal="SQ" data-varname="Sumqayit city"/><path d="M251,183L253,182L257,181L261,182L266,181L273,179L275,176L275,171L276,166L274,166L271,166L268,165L265,164L262,162L259,161L257,161L256,162L254,163L252,162L250,160L248,159L246,160L245,160L243,159L238,156L235,157L232,158L232,162L231,166L232,168L235,170L236,172L241,176L246,179L247,181L248,183Z " data-fips="AJ59" data-hasc="AZ.UC" data-name="Ucar" data-postal="UC" data-varname="Ujar"/><path d="M395,155L396,153L396,151L397,149L398,148L400,146L402,143L403,141L405,140L406,140L406,139L404,137L404,136L404,135L405,132L406,128L406,126L405,125L404,124L402,122L400,121L399,121L395,119L393,117L392,115L388,115L385,116L381,117L377,117L373,116L370,114L367,113L365,111L365,107L363,106L361,106L360,108L359,110L359,111L356,113L353,114L350,115L347,115L345,117L342,120L341,125L345,130L349,131L354,135L356,137L358,139L361,142L365,145L370,147L373,150L378,155L390,157Z " data-fips="AJ63" data-hasc="AZ.XI" data-name="Xizi" data-postal="XI" data-varname="Khizi"/><path d="M299,358L301,356L302,355L302,353L303,350L304,348L306,347L308,345L310,344L318,339L325,334L321,333L319,329L317,326L314,324L312,324L309,325L304,325L304,325L303,327L302,328L299,330L282,334L282,335L278,338L277,340L277,344L279,347L284,352L296,357L297,359Z " data-fips="AJ66" data-hasc="AZ.YR" data-name="Yardimli" data-postal="YR" data-varname="Yardymli"/><path d="M261,205L263,204L264,205L266,203L269,202L271,200L272,197L271,189L266,181L261,182L257,181L253,182L251,183L248,183L247,181L246,179L241,176L236,172L235,175L234,178L231,181L236,184L235,185L234,186L233,188L233,188L233,188L234,189L235,193L238,197L239,196L240,195L242,194L245,195L246,197L247,197L248,196L250,197L253,193L254,196L254,198L257,198L258,199L258,200L259,203L260,205Z " data-fips="AJ71" data-hasc="AZ.ZR" data-name="Z?rdab" data-postal="ZR" data-varname="Zardab"/><path d="M224,247L231,245L229,242L228,240L229,239L231,239L230,237L229,235L231,233L234,232L234,231L235,230L237,230L239,230L242,229L245,228L247,225L249,221L250,216L250,211L252,206L254,198L254,196L253,193L250,197L248,196L247,197L246,197L245,195L242,194L240,195L239,196L238,197L235,193L234,189L233,188L233,188L225,193L218,198L215,199L213,197L211,195L211,197L207,201L203,203L203,206L206,208L203,210L200,211L200,214L200,217L199,218L197,219L199,224L206,226L210,224L214,224L216,227L214,231L215,237L219,240L220,244L218,249Z " data-fips="AJ01" data-hasc="AZ.AC" data-name="Agcab?di" data-postal="AC" data-varname="Agjabadi"/><path d="M139,42L141,40L144,38L146,38L149,37L152,35L154,33L155,29L156,26L159,24L161,23L165,20L167,17L169,13L168,11L167,12L164,12L162,13L159,15L158,16L156,16L155,15L154,13L155,8L154,6L153,5L149,5L147,5L145,4L145,4L142,11L140,14L136,18L135,19L134,20L132,20L128,19L126,19L125,21L124,24L124,25L124,30L125,35L128,37L128,36L129,35L130,36L132,40L134,40L136,42Z " data-fips="AJ10" data-hasc="AZ.BL" data-name="Balak?n" data-postal="BL" data-varname="Balakan"/><path d="M245,143L248,142L251,142L254,141L256,138L258,135L260,131L262,129L266,128L269,125L269,122L270,120L271,119L272,119L274,117L275,114L273,110L272,107L272,105L273,104L274,104L275,104L276,103L276,101L277,99L279,97L272,93L270,87L267,86L264,85L261,84L260,82L254,83L253,82L250,81L250,82L250,85L250,87L251,88L250,91L249,93L247,99L244,104L245,106L244,109L243,111L242,114L240,120L240,127L239,130L236,136L237,141L239,143L241,145Z " data-fips="AJ37" data-hasc="AZ.QA" data-name="Q?b?l?" data-postal="QA" data-varname="Qabala"/><path d="M240,120L242,114L243,111L244,109L245,106L244,104L247,99L249,93L250,91L251,88L250,87L250,85L250,82L250,81L246,79L244,79L243,79L240,81L238,81L236,80L234,77L232,76L223,75L223,75L222,80L221,86L219,89L217,93L216,98L215,102L216,105L218,107L217,108L218,109L219,109L221,109L221,111L222,113L223,115L224,117L232,123L240,127Z " data-fips="AJ37" data-hasc="AZ.OG" data-name="Oguz" data-postal="OG" data-varname="Oguz"/><path d="M186,101L180,92L176,90L176,86L176,80L178,76L180,75L181,73L181,71L183,70L186,67L190,66L197,63L204,58L206,54L207,49L207,49L205,48L205,46L204,45L204,43L203,41L201,41L199,41L198,42L194,42L194,42L191,47L186,48L181,46L175,46L171,47L168,52L165,58L162,62L161,65L161,65L162,66L163,68L166,72L165,74L164,76L164,78L164,79L162,81L161,84L161,88L159,92L162,94L166,94L169,96L169,99L170,102L171,105L179,110Z " data-fips="AJ39" data-hasc="AZ.QX" data-name="Qax" data-postal="QX" data-varname="Qakh"/><path d="M239,130L240,127L232,123L224,117L223,115L222,113L221,111L221,109L219,109L218,109L217,108L218,107L216,105L215,102L216,98L217,93L219,89L221,86L222,80L223,75L223,75L221,74L214,70L213,69L212,66L212,61L212,58L211,57L209,53L208,52L208,51L207,49L206,54L204,58L197,63L190,66L186,67L183,70L181,71L181,73L180,75L178,76L176,80L176,86L176,90L180,92L186,101L193,118L201,122L207,125L214,128L217,129L221,129L223,130L225,130L227,130L228,130L230,131L233,132Z " data-fips="AJ39" data-hasc="AZ.SK" data-name="S?ki" data-postal="SK" data-varname="Shaki"/><path d="M334,110L333,106L332,103L334,101L336,99L337,96L334,92L330,89L332,83L336,79L338,78L339,77L339,75L337,74L337,69L336,63L334,64L332,64L331,62L329,59L328,56L326,53L324,50L319,52L314,54L308,57L302,62L286,74L270,87L272,93L279,97L281,98L284,98L286,99L288,100L293,103L298,105L304,105L316,110L322,111L328,114Z " data-fips="AJ42" data-hasc="AZ.QB" data-name="Quba" data-postal="QB" data-varname=""/><path d="M286,74L302,62L308,57L314,54L319,52L324,50L323,45L321,42L322,40L322,37L320,37L318,37L317,31L318,25L316,23L314,23L313,24L312,29L310,34L309,36L308,37L306,39L299,44L295,48L292,49L283,51L280,53L279,56L277,60L276,64L274,65L272,64L271,65L271,67L270,68L270,69L269,71L268,71L267,73L266,75L267,77L267,79L267,80L265,81L261,82L260,82L261,84L264,85L267,86L270,87Z " data-fips="AJ44" data-hasc="AZ.QR" data-name="Qusar" data-postal="QR" data-varname=""/><path d="M334,64L336,63L341,64L343,63L346,64L349,64L353,62L357,63L361,63L366,63L366,63L363,57L361,55L359,54L358,53L356,50L355,49L354,47L353,45L351,45L348,38L342,32L342,29L340,27L337,24L330,14L327,12L324,10L323,9L320,16L314,23L316,23L318,25L317,31L318,37L320,37L322,37L322,40L321,42L323,45L324,50L326,53L328,56L329,59L331,62L332,64Z " data-fips="AJ60" data-hasc="AZ.XZ" data-name="Xamaz" data-postal="XZ" data-varname="Khachmaz"/><path d="M161,65L162,62L165,58L168,52L171,47L175,46L181,46L186,48L191,47L194,42L194,42L194,42L193,40L192,37L190,33L186,30L185,27L184,25L183,24L181,24L180,24L178,23L173,17L172,16L172,15L171,10L170,9L168,11L169,13L167,17L165,20L161,23L159,24L156,26L155,29L154,33L152,35L149,37L146,38L144,38L141,40L139,42L136,42L134,40L132,40L133,44L133,47L135,49L139,52L140,52L142,53L146,56L154,60L158,62L159,65Z " data-fips="AJ70" data-hasc="AZ.ZQ" data-name="Zaqatala" data-postal="ZQ" data-varname=""/><path d="M190,285L192,284L193,283L195,283L195,282L194,278L196,276L196,274L196,273L198,273L199,272L199,270L199,268L199,266L200,265L199,263L197,264L195,265L193,265L193,264L194,262L198,261L200,259L197,259L194,258L195,256L199,256L201,255L203,254L204,252L206,251L209,251L211,250L215,249L218,249L220,244L219,240L215,237L210,231L207,231L206,233L205,235L200,234L195,231L192,229L188,230L187,233L185,236L182,237L177,240L177,242L178,244L179,245L182,249L183,253L180,255L177,257L175,256L171,258L168,262L164,262L162,265L164,266L164,269L162,272L160,273L162,274L164,274L166,274L168,273L169,274L170,276L170,279L168,281L171,282L175,283L176,279L174,275L176,274L178,276L180,276L181,277L182,278L182,279L184,282L187,283L188,285Z " data-fips="AJ14" data-hasc="AZ.XD" data-name="Xocav?nd" data-postal="XD" data-varname="Khojavend"/><path d="M157,276L160,273L162,272L164,269L164,266L162,265L164,262L168,262L168,258L167,256L164,256L162,257L159,261L156,261L154,260L153,259L151,258L150,256L152,252L153,250L153,246L152,243L150,236L147,229L146,228L144,226L143,224L144,220L141,222L137,223L133,224L129,225L123,227L117,228L114,229L111,229L109,227L107,225L105,228L104,231L100,234L97,236L95,238L95,238L98,239L104,241L106,243L109,250L112,252L115,253L116,254L118,256L120,259L121,261L123,261L126,261L132,258L135,258L136,259L138,262L139,263L141,263L146,263L148,263L149,264L150,265L150,267L150,269L148,269L147,270L147,272L148,273L148,274L147,275L146,276L149,278L153,278Z " data-fips="AJ29" data-hasc="AZ.SU" data-name="L?nk?ran" data-postal="SU" data-varname="Shusha"/><path d="M166,309L169,306L172,304L176,302L173,300L170,298L168,295L168,291L167,289L165,286L166,283L168,281L170,279L170,276L169,274L168,273L166,274L164,274L162,274L160,273L157,276L153,278L149,278L146,276L140,277L137,278L136,281L137,285L140,287L146,290L147,291L148,293L148,294L149,296L151,298L156,301L156,302L156,302L159,303L160,311L163,313Z " data-fips="AJ43" data-hasc="AZ.QD" data-name="Qubadli" data-postal="QD" data-varname=""/><path d="M171,258L173,253L172,251L171,249L170,248L168,245L165,242L162,241L159,240L157,241L156,242L154,242L152,243L153,246L153,250L152,252L150,256L151,258L153,259L154,260L156,261L159,261L162,257L164,256L167,256L168,258L168,262Z " data-fips="AJ55" data-hasc="AZ.SU" data-name="Susa" data-postal="SU" data-varname="Shusha"/><path d="M171,208L173,205L175,203L175,199L180,197L185,194L185,192L186,191L187,191L188,192L190,193L192,192L193,194L194,197L196,198L198,195L198,193L198,189L198,185L198,182L196,181L194,179L192,177L191,176L190,175L189,172L187,168L186,166L186,164L183,164L181,166L179,167L178,168L176,170L174,171L171,171L168,171L164,172L160,175L155,177L152,181L151,183L151,184L150,185L149,186L149,190L150,194L150,198L151,201L153,200L155,199L160,199L165,203L167,205L168,207L169,210L171,212Z " data-fips="AJ57" data-hasc="AZ.TA" data-name="T?rt?r" data-postal="TA" data-varname="Tartar"/><path d="M180,255L183,253L182,249L179,245L178,244L177,242L177,240L180,235L182,232L184,230L185,227L181,225L178,222L176,217L172,215L168,216L165,214L162,214L159,216L157,219L154,220L152,219L149,217L147,219L144,220L143,224L144,226L146,228L147,229L150,236L152,243L154,242L156,242L157,241L159,240L162,241L165,242L168,245L170,248L171,249L172,251L173,253L175,256L177,257Z " data-fips="AJ61" data-hasc="AZ.XC" data-name="Xocali" data-postal="XC" data-varname="Khojali"/><path d="M150,340L152,340L153,339L155,338L156,336L157,335L158,333L159,330L161,328L162,327L167,324L169,323L170,319L172,317L173,317L174,315L175,314L177,311L178,310L179,309L179,306L176,302L172,304L169,306L166,309L163,313L160,311L159,303L156,302L156,302L156,304L154,304L150,306L149,307L144,304L141,303L139,305L139,309L141,311L144,313L146,314L147,318L147,321L147,324L146,329L145,330L145,331L145,333L146,334L148,340Z " data-fips="AJ69" data-hasc="AZ.ZG" data-name="Z?ngilan" data-postal="ZG" data-varname="Zangilan"/><path d="M6,250L10,246L14,245L15,243L15,242L13,244L10,244L6,244L2,245L0,246L1,247L2,251L3,253L4,254Z " data-fips="AM02" data-hasc="AZ.SD" data-name="S?d?r?k" data-postal="SD" data-varname="Sadarak"/><path d="M111,332L106,320L105,316L102,313L101,310L100,307L100,304L103,300L103,299L103,298L101,296L96,294L94,296L92,298L90,300L90,302L89,304L89,306L88,308L86,311L85,315L83,317L81,319L80,321L80,323L80,324L80,325L83,328L85,330L84,333L86,334L104,338L110,341L116,342Z " data-fips="AM08" data-hasc="AZ.OR" data-name="Ordubad" data-postal="OR" data-varname=""/><path d="M34,291L36,290L38,289L39,287L38,285L38,284L38,283L39,282L38,279L37,276L36,273L37,270L38,266L39,263L42,259L41,258L39,259L37,261L33,262L32,261L31,259L32,255L33,253L32,251L31,249L25,240L22,239L19,240L15,242L15,243L14,245L10,246L6,250L4,254L4,254L6,255L8,255L8,256L9,257L10,259L13,270L14,272L15,274L15,276L17,278L18,278L19,279L20,279L23,282L24,283L24,284L26,286L27,287L28,291L28,290L30,291L32,292Z " data-fips="AM10" data-hasc="AZ.SR" data-name="S?rur" data-postal="SR" data-varname="Sharur"/><path d="M64,328L63,325L65,324L65,322L63,319L61,315L63,312L63,308L61,306L51,305L45,301L48,298L53,299L59,299L64,299L66,297L66,294L64,294L63,292L64,292L64,290L63,289L62,288L58,286L54,284L53,281L53,279L51,278L49,277L52,274L54,272L55,271L55,271L53,268L51,267L47,266L46,266L45,265L44,262L42,259L39,263L38,266L37,270L36,273L37,276L38,279L39,282L38,283L38,284L38,285L39,287L38,289L36,290L34,291L32,292L30,291L28,290L28,291L29,292L29,293L30,294L31,300L31,301L33,301L43,304L44,303L45,304L45,305L46,306L47,306L48,307L48,308L48,310L48,311L50,312L51,314L51,316L52,317L53,318L55,320L55,321L54,323L54,324L55,325L57,326L59,328L61,328L64,329Z " data-fips="AJ35" data-hasc="AZ.BB" data-name="Bab?k" data-postal="BB" data-varname="Babek"/><path d="M85,330L83,328L80,325L80,324L80,323L80,321L81,319L83,317L85,315L86,311L88,308L89,306L89,304L90,302L90,300L92,298L94,296L96,294L95,293L93,291L91,290L89,288L84,286L84,286L82,289L80,292L78,291L76,289L73,290L69,292L66,294L66,297L64,299L62,303L61,306L63,308L63,312L61,315L63,319L65,322L65,324L63,325L64,328L64,329L64,330L67,330L72,331L79,331L84,333Z " data-fips="AJ35" data-hasc="AZ.CF" data-name="Culfa" data-postal="CF" data-varname="Julfa"/><path d="M62,303L64,299L59,299L53,299L48,298L45,301L51,305Z " data-fips="AJ35" data-hasc="AZ.NX" data-name="Naxivan" data-postal="NX" data-varname="Nakhichevan"/><path d="M66,294L69,292L73,290L76,289L78,291L80,292L82,289L84,286L84,286L84,285L84,283L87,278L88,276L87,271L87,271L87,268L87,266L87,265L85,264L82,263L80,263L69,265L67,266L60,270L59,271L58,271L56,271L55,271L54,272L52,274L49,277L51,278L53,279L53,281L54,284L58,286L62,288L63,289L64,290L64,292L63,292L64,294Z " data-fips="AJ35" data-hasc="AZ.SH" data-name="Sahbuz" data-postal="SH" data-varname="Shakhbuz"/></g></svg>