<?xml version="1.0" ?><!DOCTYPE svg  PUBLIC '-//W3C//DTD SVG 1.1//EN'  'http://www.w3.org/Graphics/SVG/1.1/DTD/svg11.dtd'><svg enable_background="new 0 0 500 401" height="401px" style="stroke-linejoin: round; stroke:#000; fill:#f6f3f0;" version="1.1" viewBox="0 0 500 401" width="500px" xmlns="http://www.w3.org/2000/svg" xmlns:xlink="http://www.w3.org/1999/xlink"><defs><style type="text/css"><![CDATA[path { fill-rule: evenodd; }
#context path { fill: #eee; stroke: #bbb; } ]]></style></defs><metadata><views><view h="401" padding="0" w="500"><proj id="laea" lat0="24.218" lon0="89.941"/><bbox h="72.49" w="52.6" x="978.47" y="970.21"/><llbbox lat0="-90" lat1="90" lon0="-180" lon1="180"/></view></views></metadata><g id="admin1"><path d="M225,255L226,255L227,254L229,253L230,251L231,248L233,246L234,245L235,245L236,243L236,242L239,242L241,242L241,243L241,245L242,246L243,248L244,248L245,248L246,248L247,246L248,245L247,244L246,244L247,242L249,242L250,242L251,243L252,244L254,245L255,244L256,243L256,243L257,241L259,241L260,241L262,240L263,239L262,240L262,241L263,241L265,239L265,237L265,232L266,233L266,231L265,230L263,227L259,226L258,226L256,225L254,224L253,223L253,222L252,221L244,216L243,215L245,216L248,217L260,220L262,220L262,219L262,218L263,217L264,216L263,209L261,209L259,209L258,209L258,208L257,207L259,208L262,208L263,207L262,206L264,206L266,205L267,206L265,207L264,208L264,210L265,213L266,213L268,212L270,211L271,212L271,211L270,209L271,209L272,208L274,206L273,205L275,205L275,203L274,201L274,200L273,199L272,198L272,197L273,195L275,192L275,191L274,190L275,189L275,188L277,187L279,187L280,187L282,188L283,188L284,187L287,184L288,181L288,179L288,178L289,176L290,175L291,174L292,172L290,171L291,170L290,169L290,167L291,167L293,164L295,164L295,163L296,162L297,162L299,161L300,160L301,157L303,156L304,155L303,154L304,153L305,152L304,151L302,150L303,149L303,148L302,146L301,146L301,145L302,144L303,142L303,140L302,139L301,138L301,136L302,136L302,134L303,133L303,132L302,131L300,131L298,131L298,130L298,126L298,123L298,122L297,119L289,119L288,119L284,112L284,110L285,108L285,107L286,106L285,103L285,100L278,101L276,101L275,100L274,99L272,99L271,100L269,100L267,99L266,99L263,100L258,99L252,101L250,101L245,99L235,96L222,91L219,91L216,91L216,90L215,88L215,85L215,83L215,83L214,84L213,84L213,85L211,89L212,92L211,94L210,95L210,96L209,97L208,100L207,104L206,107L206,113L208,121L208,122L210,125L211,125L212,126L214,127L214,129L215,130L215,131L214,135L214,137L214,139L213,140L213,141L213,143L213,144L213,146L212,149L212,154L212,157L212,160L213,161L215,163L215,164L216,165L217,165L217,167L217,168L217,170L216,171L216,173L216,174L215,175L214,176L209,180L208,182L208,184L208,185L209,189L207,189L204,189L203,190L201,191L200,191L198,191L196,189L194,188L189,185L187,184L188,187L188,189L185,198L187,201L189,201L190,201L191,201L195,206L196,207L197,209L198,210L197,211L196,212L196,214L197,212L199,212L201,213L202,215L203,216L203,221L202,221L202,223L203,225L205,227L207,227L206,228L205,229L204,230L208,231L208,232L207,234L209,235L210,234L212,234L212,236L211,236L210,238L209,238L207,238L208,239L209,240L210,241L211,241L212,245L213,246L215,248L216,250L217,252L219,252L220,254L223,255Z M263,224L261,223L258,221L256,220L254,221L255,222L257,224L258,225L259,225L260,224L262,225L264,226Z " data-fips="BG81" data-hasc="BD.DA" data-name="Dhaka" data-postal="DA" data-varname="Daca|Dacca"/><path d="M180,339L181,338L182,337L183,336L182,335L183,333L183,331L182,328L183,327L184,327L185,324L186,323L187,321L187,319L186,317L187,316L187,318L189,320L189,321L189,323L188,325L187,326L187,329L187,331L188,332L190,334L192,332L193,331L194,329L194,328L194,326L194,324L194,323L195,322L196,322L197,321L197,317L197,316L196,314L196,313L195,312L197,312L197,310L197,308L196,307L196,305L195,307L194,308L194,299L195,295L196,296L196,297L195,300L196,302L198,309L197,312L198,315L198,316L199,315L200,314L200,309L201,307L201,305L200,304L199,301L200,299L201,298L201,296L202,295L203,293L204,292L203,293L203,294L203,296L203,297L202,298L200,302L201,303L202,304L202,305L203,307L202,308L201,311L200,312L200,316L200,321L200,322L200,323L198,325L198,326L198,327L198,330L198,331L200,334L201,335L202,333L202,331L204,331L205,331L207,332L208,331L208,329L207,328L205,326L204,325L203,323L205,320L206,322L206,323L206,324L207,325L208,326L209,326L211,326L213,325L214,326L216,325L216,324L218,323L220,322L220,321L219,320L219,318L218,317L218,316L218,314L218,312L217,311L216,311L215,309L216,309L218,310L219,309L219,308L220,307L219,305L219,300L218,298L217,296L220,291L220,290L220,289L220,288L219,286L221,288L222,288L223,287L223,286L224,285L226,283L225,281L224,280L224,278L225,277L225,275L224,274L223,273L222,270L222,269L223,269L223,268L222,267L220,267L221,266L223,264L222,263L222,262L223,261L223,260L223,259L224,259L225,258L224,256L223,255L220,254L219,252L217,252L216,250L215,248L213,246L212,245L211,241L210,241L209,240L208,239L207,238L209,238L210,238L211,236L212,236L212,234L210,234L209,235L207,234L208,232L208,231L204,230L205,229L206,228L207,227L205,227L203,225L202,223L202,221L203,221L203,216L202,215L201,213L199,212L197,212L196,214L196,212L197,211L198,210L197,209L196,207L195,206L191,201L190,201L189,201L187,201L185,198L188,189L188,187L187,184L185,183L184,183L182,183L177,183L175,183L174,182L173,182L170,180L169,178L170,177L169,175L169,174L168,173L168,172L167,171L165,170L164,168L162,167L161,167L161,168L160,168L156,170L155,170L153,170L153,170L152,169L150,168L149,167L149,166L149,166L148,166L146,167L145,169L146,171L145,172L145,174L147,175L148,176L148,177L147,180L148,181L148,182L147,184L145,187L144,187L143,187L141,187L140,187L139,189L139,190L139,191L138,193L137,194L138,196L137,202L137,203L138,204L138,205L139,206L141,206L142,207L143,210L144,211L147,213L148,214L149,213L150,212L151,213L151,215L148,223L146,225L145,226L145,228L146,229L147,230L152,231L153,231L154,230L155,230L159,232L160,232L162,233L162,235L160,236L156,240L156,241L155,245L155,247L155,249L156,250L157,251L158,255L159,256L161,256L161,258L161,259L161,261L160,262L159,263L159,264L159,265L160,268L160,270L161,271L162,273L162,275L162,276L160,277L163,279L163,281L165,284L165,286L164,287L164,288L165,293L166,294L165,295L166,296L168,300L169,301L169,303L169,304L168,306L169,307L168,310L168,311L170,313L170,314L170,316L170,319L169,320L169,321L171,327L172,328L174,329L175,328L176,327L176,329L178,334L177,335L177,337L178,338L179,339Z M173,332L173,330L172,329L170,328L170,326L169,321L168,320L167,321L168,322L168,323L168,325L168,327L168,328L171,332L173,333Z " data-fips="BG82" data-hasc="BD.KH" data-name="Khulna" data-postal="KH" data-varname=""/><path d="M240,328L241,327L245,324L245,323L246,322L246,319L247,317L247,316L248,313L249,312L249,311L250,309L251,308L252,305L252,304L253,303L254,302L253,301L252,299L253,296L252,295L253,296L253,299L254,301L254,303L252,306L252,308L253,309L255,309L256,308L258,305L259,303L260,302L261,301L263,301L264,298L266,293L266,290L266,289L266,288L265,285L264,284L265,283L266,283L264,281L264,278L263,276L260,275L259,275L258,275L257,275L256,277L256,279L256,280L255,281L255,280L256,276L257,275L259,274L260,273L259,271L259,268L258,266L257,265L256,264L255,263L255,265L253,264L252,264L251,263L252,262L253,263L254,261L253,261L255,260L256,258L256,256L258,254L260,255L261,254L261,253L260,252L259,252L259,251L258,249L257,247L256,245L256,243L255,244L254,245L252,244L251,243L250,242L249,242L247,242L246,244L247,244L248,245L247,246L246,248L245,248L244,248L243,248L242,246L241,245L241,243L241,242L239,242L236,242L236,243L235,245L234,245L233,246L231,248L230,251L229,253L227,254L226,255L225,255L223,255L224,256L225,258L224,259L223,259L223,260L223,261L222,262L222,263L223,264L221,266L220,267L222,267L223,268L223,269L222,269L222,270L223,273L224,274L225,275L225,277L224,278L224,280L225,281L226,283L226,282L228,281L227,283L226,284L221,292L220,296L220,297L220,299L221,301L221,303L222,305L222,311L223,313L223,315L224,316L225,316L227,315L227,311L229,309L230,305L231,304L232,303L231,305L230,306L230,307L230,309L230,311L229,311L228,313L228,314L227,315L230,316L231,315L232,313L233,311L237,307L238,306L240,306L240,306L241,304L242,301L243,303L242,305L241,306L239,307L238,307L237,307L237,309L234,311L234,312L233,314L233,315L232,316L230,317L230,318L229,322L230,324L231,325L232,325L232,324L234,323L235,320L235,319L235,321L235,322L234,323L235,324L233,325L233,326L234,327L235,327L238,328L239,328Z M262,323L263,321L263,320L264,320L265,319L266,319L265,317L265,315L260,319L260,320L260,322L260,323L259,324L260,324Z M249,324L251,319L252,316L252,315L251,315L250,316L248,319L248,320L248,322L248,325Z M250,315L251,313L251,311L250,313L249,315L249,316Z M255,321L256,319L257,318L258,316L257,314L254,311L253,313L254,315L253,316L253,318L252,319L252,320L254,321Z M261,315L263,313L263,311L264,308L265,306L265,308L266,303L265,304L264,304L263,305L260,308L259,308L258,309L258,311L258,312L259,311L262,310L260,312L259,314L260,315Z M270,315L271,314L273,311L275,309L275,310L276,309L280,304L280,302L282,286L282,283L282,281L280,279L279,278L278,277L277,275L277,274L276,273L275,272L274,271L272,269L271,267L269,261L268,261L267,261L266,261L265,262L264,263L262,269L262,271L262,274L264,274L267,276L268,277L269,279L270,283L270,284L270,286L270,287L271,289L270,290L270,294L270,295L270,296L267,302L267,305L267,306L266,308L266,310L265,312L266,313L267,313L270,308L270,309L268,311L268,313L268,315Z M287,306L288,305L287,300L286,300L286,301L285,304L285,305L286,306Z M290,300L290,298L289,297L289,298L290,301Z M290,295L290,294L290,292L290,291L289,290L288,291L288,292L288,296L287,296L286,299L287,299Z M268,292L268,289L269,290L269,289L268,287L267,285L266,284L265,284L265,285L266,286L267,287L267,290L267,291L267,292L268,294Z M269,285L269,283L268,282L269,285Z M262,266L262,262L262,261L263,261L265,261L267,261L269,260L270,259L271,258L270,256L269,256L267,255L265,255L262,255L261,256L260,256L257,256L257,257L256,258L256,259L257,261L256,262L258,263L259,265L260,267L261,267Z M268,251L268,250L269,249L268,248L265,245L264,244L263,244L260,246L259,248L261,250L263,250L264,249L265,250L266,251L267,252L269,252Z M259,244L260,243L259,242L258,242L256,242L256,243L257,246Z " data-fips="BG85" data-hasc="BD.BA" data-name="Barisal" data-postal="BA" data-varname="Bakerganj"/><path d="M376,398L375,396L374,393L374,391L372,388L371,385L371,383L371,380L371,377L368,375L368,374L368,373L366,372L366,371L365,369L365,368L366,366L366,365L365,362L365,361L366,360L367,357L368,354L369,353L370,353L372,353L374,350L376,351L377,352L377,353L378,354L378,355L379,356L381,356L383,357L386,356L387,357L388,359L389,362L389,363L390,364L392,364L393,363L394,362L395,361L395,359L392,352L391,349L391,347L390,331L391,321L391,319L390,315L390,313L389,309L387,304L388,304L390,303L390,302L386,279L385,278L385,276L384,275L384,271L384,266L384,265L383,264L381,262L380,261L380,259L379,254L378,253L376,252L375,250L375,248L375,243L373,234L373,231L373,230L374,228L375,226L374,225L374,223L374,222L374,221L372,220L372,219L372,217L371,216L371,215L370,212L368,204L367,202L368,199L368,197L367,197L366,197L365,201L364,202L363,200L362,198L361,196L359,197L358,198L356,201L354,202L353,202L352,202L349,199L349,198L348,197L347,198L346,199L347,202L348,209L348,212L347,215L346,215L345,216L342,218L341,219L339,221L337,224L336,227L337,230L338,232L339,237L339,239L339,240L337,241L337,243L336,245L335,246L333,247L332,247L330,248L329,247L328,248L328,249L326,249L325,248L324,247L322,246L322,244L321,243L321,241L319,236L319,234L318,232L317,232L317,231L316,229L314,228L313,228L312,229L312,231L312,234L313,240L313,242L311,241L309,239L309,237L307,226L306,224L307,223L308,222L307,222L306,221L305,220L304,217L304,215L303,214L302,213L301,212L301,209L300,208L298,205L298,204L298,202L300,202L301,201L300,200L299,199L298,199L298,197L298,196L299,196L301,196L302,195L302,194L304,190L303,188L303,186L303,185L305,181L306,180L306,179L308,179L309,179L309,178L309,177L308,176L308,174L307,173L307,171L307,170L306,169L306,167L307,167L309,166L307,164L309,163L310,162L309,162L308,162L305,164L304,164L299,161L297,162L296,162L295,163L295,164L293,164L291,167L290,167L290,169L291,170L290,171L292,172L291,174L290,175L289,176L288,178L288,179L288,181L287,184L284,187L283,188L282,188L280,187L279,187L277,187L275,188L275,189L274,190L275,191L275,192L273,195L272,197L272,198L273,199L274,200L274,201L275,203L275,205L273,205L274,206L272,208L271,209L271,209L272,210L272,213L271,214L267,214L265,214L265,216L265,220L265,221L266,223L267,225L269,225L268,226L269,228L269,230L268,231L268,232L267,234L267,237L267,241L267,242L267,244L273,251L273,253L273,254L274,255L274,256L275,259L276,260L276,262L277,263L278,264L279,265L280,268L282,268L283,270L284,271L284,272L286,274L287,275L287,275L289,275L291,275L293,274L293,273L292,271L291,269L290,268L292,269L293,271L293,272L295,273L296,274L297,274L301,274L302,274L304,274L305,274L306,273L307,271L306,269L304,269L301,267L302,267L302,266L302,265L304,265L305,265L306,267L308,267L309,267L311,266L310,265L309,264L308,264L312,264L313,264L313,262L312,262L313,262L314,262L315,262L316,263L316,261L316,260L317,259L319,257L320,254L321,253L321,254L320,257L319,259L319,260L319,262L320,262L320,263L321,265L322,266L324,266L333,278L337,286L338,288L339,296L340,298L341,298L342,297L342,295L340,294L341,293L342,291L343,291L344,290L345,289L346,286L346,285L347,285L346,290L345,291L344,292L342,292L341,293L342,295L343,296L343,298L342,299L341,300L342,302L342,303L343,305L344,306L344,304L344,306L346,313L346,316L347,318L348,321L348,323L349,322L350,322L349,323L349,324L348,325L347,326L348,329L349,328L350,328L353,328L352,329L352,330L353,330L352,331L351,331L351,333L351,335L353,334L352,336L353,337L354,337L355,336L355,334L355,333L356,334L355,336L356,336L356,337L356,339L355,340L355,341L355,342L353,343L353,345L354,346L354,347L355,348L354,348L353,348L352,350L351,350L351,352L351,353L352,354L353,355L357,361L357,362L357,364L357,368L357,370L358,371L360,374L361,375L362,377L363,378L367,382L368,386L372,394L374,397L375,398L375,399Z M348,349L347,347L348,347L350,347L351,347L352,346L352,345L353,342L353,340L352,338L350,333L350,330L350,329L349,329L347,329L348,331L348,332L347,334L347,333L347,331L346,330L345,331L344,332L344,335L346,339L346,342L346,344L345,347L345,348L346,349Z M345,328L345,326L346,324L346,322L346,319L345,318L343,321L343,322L344,326L343,331L344,332Z M303,287L303,286L303,284L302,283L301,283L301,284L301,286L303,287Z M294,308L295,307L296,306L296,305L297,304L299,303L300,302L301,301L302,298L302,297L302,295L301,293L301,291L300,289L300,287L298,284L297,283L296,281L296,279L295,279L295,280L295,282L295,284L295,286L294,288L294,293L294,300L294,301L294,302L293,306L292,308L293,308Z M326,287L325,282L319,272L317,271L317,273L317,274L316,279L316,281L317,284L319,288L321,290L323,290Z " data-fips="BG80" data-hasc="BD.CG" data-name="Chittagong" data-postal="CG" data-varname="Chattagram|Parbattya Chattagram|Rangamati"/><path d="M310,179L311,176L311,173L312,172L314,171L319,172L321,172L324,172L325,172L326,171L327,170L327,169L328,164L329,164L330,166L331,167L332,168L333,168L334,168L335,167L335,166L334,164L334,163L335,162L339,163L340,166L342,167L344,167L344,166L345,160L345,159L345,156L345,155L347,155L348,156L349,155L348,152L353,153L355,153L357,152L358,150L358,148L358,144L358,143L359,142L360,141L360,141L361,140L361,139L362,136L362,134L365,125L365,124L365,123L365,122L364,119L364,118L364,117L366,116L368,117L373,120L374,121L378,119L380,119L381,117L381,115L380,114L379,113L378,112L376,110L374,109L374,108L372,107L371,106L369,105L366,104L365,104L363,103L362,102L361,101L360,101L359,101L358,100L357,100L356,99L354,98L352,97L350,97L349,98L348,98L344,98L338,99L335,99L333,99L332,100L330,100L330,102L328,102L327,102L326,101L325,101L324,99L322,100L321,100L320,101L318,101L315,101L306,98L303,97L302,97L301,98L297,98L287,99L285,100L285,103L286,106L285,107L285,108L284,110L284,112L288,119L289,119L297,119L298,122L298,123L298,126L298,130L298,131L300,131L302,131L303,132L303,133L302,134L302,136L301,136L301,138L302,139L303,140L303,142L302,144L301,145L301,146L302,146L303,148L303,149L302,150L304,151L305,152L304,153L303,154L304,155L303,156L301,157L300,160L299,161L304,164L305,164L308,162L309,162L310,162L309,163L307,164L309,166L307,167L306,167L306,169L307,170L307,171L307,173L308,174L308,176L309,177L309,178L309,179L309,179Z " data-fips="BG86" data-hasc="BD.SY" data-name="Sylhet" data-postal="SY" data-varname=""/><path d="M201,191L203,190L204,189L207,189L209,189L208,185L208,184L208,182L209,180L214,176L215,175L216,174L216,173L216,171L217,170L217,168L217,167L217,165L216,165L215,164L215,163L213,161L212,160L212,157L212,154L212,149L213,146L213,144L213,143L213,141L213,140L214,139L214,137L214,135L215,131L215,130L214,129L214,127L212,126L211,125L210,125L208,122L208,121L206,113L206,107L207,104L208,100L209,97L210,96L210,95L211,94L212,92L211,89L213,85L213,84L214,84L215,83L215,83L215,83L216,81L217,78L217,72L217,68L217,65L215,62L214,55L214,54L217,49L217,48L216,47L215,46L216,46L217,44L215,44L214,43L214,42L212,40L212,39L212,37L211,36L211,35L211,34L210,33L209,32L207,32L206,32L206,30L207,29L206,28L205,28L203,29L203,31L204,32L203,31L201,32L201,34L202,35L202,36L201,37L202,37L204,38L203,39L200,41L200,43L200,45L199,46L197,45L196,43L192,43L191,43L190,42L189,42L187,43L186,42L184,42L183,40L180,38L180,37L179,36L178,35L174,34L174,33L173,32L173,27L172,26L171,24L171,23L171,21L173,21L172,20L171,20L170,19L170,18L169,17L168,16L167,16L165,14L164,14L163,13L162,13L161,14L160,15L160,16L160,18L161,19L163,20L164,20L165,22L166,23L167,23L167,24L168,25L169,26L168,27L165,27L163,27L160,24L159,24L158,25L157,27L156,27L155,27L154,26L154,25L153,24L151,23L146,25L145,23L148,22L148,22L149,19L148,19L146,18L146,16L145,15L146,14L144,14L143,13L142,12L141,11L139,11L138,10L137,9L136,9L135,7L134,6L133,6L131,5L130,4L130,3L130,2L129,0L128,1L128,2L127,3L126,7L125,10L125,11L125,12L126,11L127,9L129,10L132,11L134,12L135,13L136,17L136,18L134,18L133,18L131,18L131,19L128,21L127,22L126,23L126,24L126,27L125,28L124,28L121,29L119,30L118,30L117,31L116,32L115,33L114,36L114,38L115,39L114,40L113,41L112,43L111,47L110,48L110,51L111,52L110,54L112,55L112,57L113,57L114,57L115,57L116,56L119,56L121,57L125,61L129,64L131,66L131,70L132,71L134,72L135,73L136,75L137,76L138,77L141,77L142,77L144,79L146,79L147,78L148,77L149,77L150,77L150,76L153,77L153,78L154,78L155,79L155,81L154,84L155,85L155,86L156,88L157,88L159,89L160,90L161,90L164,90L165,91L164,93L162,94L161,96L161,97L160,98L161,99L160,99L155,97L154,98L153,100L149,99L145,98L143,97L141,97L139,99L138,99L137,98L135,97L134,97L132,97L131,99L131,102L130,107L130,109L128,111L128,112L127,114L125,117L123,119L122,119L119,118L119,117L119,116L118,115L117,114L115,114L114,114L111,116L112,117L113,119L113,121L112,122L111,122L110,123L109,125L109,126L107,127L107,130L106,131L106,132L105,134L106,134L107,135L108,136L109,138L109,142L110,142L111,144L112,144L128,153L133,157L134,157L138,157L141,158L143,158L144,157L144,155L146,156L148,157L149,159L150,162L150,164L149,166L149,167L150,168L152,169L153,170L153,170L155,170L156,170L160,168L161,168L161,167L162,167L164,168L165,170L167,171L168,172L168,173L169,174L169,175L170,177L169,178L170,180L173,182L174,182L175,183L177,183L182,183L184,183L185,183L187,184L189,185L194,188L196,189L198,191L200,191Z " data-fips="BG83" data-hasc="BD.RJ" data-name="Rajshahi" data-postal="RJ" data-varname=""/></g></svg>