<?xml version="1.0" ?><!DOCTYPE svg  PUBLIC '-//W3C//DTD SVG 1.1//EN'  'http://www.w3.org/Graphics/SVG/1.1/DTD/svg11.dtd'><svg enable_background="new 0 0 500 401" height="401px" style="stroke-linejoin: round; stroke:#000; fill:#f6f3f0;" version="1.1" viewBox="0 0 500 401" width="500px" xmlns="http://www.w3.org/2000/svg" xmlns:xlink="http://www.w3.org/1999/xlink"><defs><style type="text/css"><![CDATA[path { fill-rule: evenodd; }
#context path { fill: #eee; stroke: #bbb; } ]]></style></defs><metadata><views><view h="401" padding="0" w="500"><proj id="laea" lat0="4.468" lon0="114.591"/><bbox h="12.84" w="16.75" x="992.72" y="992.73"/><llbbox lat0="-90" lat1="90" lon0="-180" lon1="180"/></view></views></metadata><g id="admin1"><path d="M248,381L282,349L285,343L287,328L289,321L298,308L300,302L299,295L288,300L287,292L290,289L292,287L291,286L279,279L272,270L269,259L263,248L256,239L247,230L239,220L231,212L220,205L217,196L219,185L214,177L206,177L199,176L194,169L189,164L185,155L182,146L146,159L120,174L93,179L0,176L24,187L44,190L52,194L64,204L73,207L77,210L80,218L82,219L88,219L90,220L91,222L92,225L93,228L97,232L99,236L102,246L102,257L107,264L109,281L108,284L103,289L102,291L102,296L104,300L117,301L133,304L148,301L154,301L159,306L167,330L170,337L176,344L199,365L206,371L209,374L211,377L214,386L216,389L231,391Z " data-fips="BX01" data-hasc="BN.BE" data-name="Belait" data-postal="BE" data-varname=""/><path d="M276,125L290,120L296,116L308,104L314,100L318,99L323,98L329,98L336,99L343,99L348,96L351,90L351,84L352,78L361,70L365,64L376,53L378,48L379,44L385,29L389,24L400,19L405,15L405,11L398,8L389,9L341,29L280,66L280,75L279,85L278,94L275,102L273,110L271,122L273,128Z " data-fips="BX02" data-hasc="BN.BM" data-name="Brunei and Muara" data-postal="BM" data-varname=""/><path d="M500,276L499,268L494,260L481,248L472,237L468,222L465,207L466,192L469,178L469,171L468,163L444,93L434,80L430,77L425,74L421,71L421,63L417,63L413,63L411,64L410,67L412,73L416,79L415,83L407,85L399,90L392,98L385,102L378,95L376,124L377,154L380,168L392,197L397,212L401,248L404,253L409,256L430,264L438,266L449,265L452,266L457,271L461,272L468,272L471,273L478,278L487,281L495,282Z " data-fips="BX03" data-hasc="BN.TE" data-name="Temburong" data-postal="TE" data-varname=""/><path d="M301,278L305,272L307,266L311,252L312,241L309,239L303,240L296,238L290,227L287,214L286,171L284,163L282,155L275,142L272,135L273,128L271,122L273,110L275,102L278,94L279,85L280,75L280,66L266,75L221,110L208,124L202,134L195,142L182,146L185,155L189,164L194,169L199,176L206,177L214,177L219,185L217,196L220,205L231,212L239,220L247,230L256,239L263,248L269,259L272,270L279,279L291,286L292,287Z " data-fips="BX04" data-hasc="BN.TU" data-name="Tutong" data-postal="TU" data-varname=""/></g></svg>