<?xml version="1.0" ?><!DOCTYPE svg  PUBLIC '-//W3C//DTD SVG 1.1//EN'  'http://www.w3.org/Graphics/SVG/1.1/DTD/svg11.dtd'><svg enable_background="new 0 0 500 401" height="401px" style="stroke-linejoin: round; stroke:#000; fill:#f6f3f0;" version="1.1" viewBox="0 0 500 401" width="500px" xmlns="http://www.w3.org/2000/svg" xmlns:xlink="http://www.w3.org/1999/xlink"><defs><style type="text/css"><![CDATA[path { fill-rule: evenodd; }
#context path { fill: #eee; stroke: #bbb; } ]]></style></defs><metadata><views><view h="401" padding="0" w="500"><proj id="laea" lat0="27.415" lon0="90.429"/><bbox h="20.04" w="36.86" x="981.34" y="988.81"/><llbbox lat0="-90" lat1="90" lon0="-180" lon1="180"/></view></views></metadata><g id="admin1"><path d="M152,334L152,332L151,331L150,329L149,325L151,321L152,320L153,318L155,317L156,315L156,314L156,312L156,309L156,308L156,305L154,302L154,300L156,295L154,288L154,285L151,279L141,279L142,277L142,275L142,274L138,272L135,264L130,261L126,259L124,258L121,256L120,255L123,250L132,245L131,243L126,241L125,242L124,241L124,239L123,237L122,235L120,233L119,237L119,239L118,241L115,247L115,249L116,251L116,252L116,253L114,253L110,253L108,252L106,251L104,250L100,249L91,252L91,253L93,255L92,256L91,258L89,261L89,264L87,265L86,267L86,269L86,272L86,276L89,277L90,278L90,278L91,281L91,284L85,292L80,296L81,297L82,297L83,297L86,299L87,300L88,303L89,304L89,306L92,305L94,305L95,308L95,311L100,315L106,318L115,317L121,318L127,320L131,324L131,326L129,331L131,333L133,333L139,330L142,331L150,334L152,335Z " data-fips="BT06" data-hasc="BT.CK" data-name="Chhukha" data-postal="CK" data-varname="Chukha"/><path d="M161,317L161,315L161,314L162,314L164,315L165,315L167,317L168,318L169,317L173,316L174,316L175,313L175,315L176,316L177,315L178,314L178,313L178,311L178,310L179,309L180,310L181,312L181,313L182,315L183,315L184,315L183,314L184,313L190,309L190,308L189,306L190,304L190,303L193,301L194,299L197,296L198,292L198,286L199,281L199,277L198,276L199,273L194,265L192,265L186,262L180,261L176,257L174,253L173,250L172,249L171,247L167,244L166,242L163,241L162,241L158,241L155,239L146,241L144,240L143,244L142,246L141,247L140,247L138,248L137,249L136,250L135,252L135,256L135,264L138,272L142,274L142,275L142,277L141,279L151,279L154,285L154,288L156,295L154,300L154,302L156,305L156,308L156,309L156,312L156,314L156,315L155,317L153,318L157,317L158,317L160,318Z " data-fips="BT08" data-hasc="BT.DA" data-name="Daga" data-postal="DA" data-varname="Dagana|Tagana"/><path d="M77,268L78,267L79,264L82,263L89,264L89,261L91,258L92,256L93,255L91,253L91,252L88,245L88,243L87,240L87,239L88,238L89,237L89,236L92,235L93,235L94,233L96,232L90,223L87,219L83,212L82,210L81,207L80,207L79,205L77,204L76,201L76,199L73,191L72,190L71,190L69,190L68,188L66,188L64,187L60,183L57,180L56,181L56,183L57,187L57,188L53,193L48,196L42,198L37,201L34,203L32,206L31,210L29,218L26,226L25,231L23,235L22,236L24,237L29,239L31,240L33,244L36,248L38,247L39,246L41,246L42,248L42,249L43,251L43,252L43,253L44,255L44,256L45,257L47,258L58,260L59,262L59,263L60,264L61,265L61,267L64,267L69,263L75,271Z " data-fips="BT10" data-hasc="BT.HA" data-name="Ha" data-postal="HA" data-varname="Haa"/><path d="M116,253L116,252L116,251L115,249L115,247L118,241L119,239L119,237L120,233L120,232L119,228L118,227L114,224L115,220L115,218L114,216L112,215L110,215L109,213L110,207L111,199L111,195L111,193L113,190L111,190L109,188L107,184L104,179L101,177L100,176L99,176L97,176L101,171L98,167L98,165L98,164L98,159L96,160L93,161L92,161L88,162L87,162L85,163L84,164L83,163L79,162L78,161L74,160L72,159L68,158L62,171L57,179L57,180L60,183L64,187L66,188L68,188L69,190L71,190L72,190L73,191L76,199L76,201L77,204L79,205L80,207L81,207L82,210L83,212L87,219L90,223L96,232L94,233L93,235L92,235L89,236L89,237L88,238L87,239L87,240L88,243L88,245L100,249L104,250L106,251L108,252L110,253L114,253Z " data-fips="BT13" data-hasc="BT.PR" data-name="Paro" data-postal="PR" data-varname="Rinpung"/><path d="M133,163L134,162L137,162L138,162L141,163L146,162L146,160L149,158L151,158L155,157L160,151L163,146L164,145L165,144L168,143L169,143L170,143L172,142L173,142L175,142L178,145L185,148L187,150L191,145L192,144L194,144L197,143L199,142L202,141L203,140L204,138L204,137L211,126L212,123L212,122L214,122L219,121L221,121L223,123L224,125L224,127L224,128L227,132L229,134L230,135L232,134L233,134L235,133L237,134L239,134L240,133L241,133L241,131L241,130L241,128L241,127L240,125L240,124L240,123L240,122L241,120L246,117L247,116L249,113L250,111L250,106L248,106L241,105L238,101L239,94L243,87L245,81L241,75L238,75L233,74L222,70L188,64L186,64L183,66L181,67L178,69L175,69L173,68L172,67L171,67L170,68L168,69L166,72L165,74L160,77L157,79L156,82L154,86L148,89L130,92L128,93L125,94L118,103L115,105L112,107L110,109L108,112L104,118L103,119L107,118L109,119L110,119L114,121L116,124L117,130L118,131L120,132L124,133L123,134L121,135L120,136L115,143L114,145L115,147L115,148L115,149L114,153L113,154L113,156L114,157L115,158L115,158L117,158L118,156L119,154L120,154L123,154L124,156L125,159L125,160L126,161L131,165Z " data-fips="BT15" data-hasc="BT.GA" data-name="Gasa" data-postal="GA" data-varname=""/><path d="M71,315L76,314L77,313L79,311L80,310L82,310L84,310L91,308L95,311L95,308L94,305L92,305L89,306L89,304L88,303L87,300L86,299L83,297L82,297L81,297L80,296L85,292L91,284L91,281L90,278L90,278L89,277L86,276L86,272L86,269L86,267L87,265L89,264L82,263L79,264L78,267L77,268L75,271L69,263L64,267L61,267L61,265L60,264L59,263L59,262L58,260L47,258L45,257L44,256L44,255L43,253L43,252L43,251L42,249L42,248L41,246L39,246L38,247L36,248L33,244L31,240L29,239L24,237L22,236L20,238L11,240L7,243L4,248L1,253L0,258L2,259L11,264L14,267L16,271L17,275L17,284L18,292L20,289L23,287L26,287L29,290L29,292L29,294L29,295L30,297L31,298L33,298L35,298L36,297L39,296L43,298L46,301L49,303L51,308L52,311L54,314L59,315L67,316Z " data-fips="BT16" data-hasc="BT.SM" data-name="Samchi" data-postal="SM" data-varname="Samtse"/><path d="M135,256L135,252L136,250L137,249L138,248L140,247L141,247L142,246L143,244L144,240L146,241L146,231L146,229L146,226L145,226L143,224L151,217L150,214L150,211L151,208L159,205L161,203L162,201L162,199L162,197L158,196L157,194L154,191L153,189L147,191L143,194L141,191L139,190L139,188L138,185L137,184L135,182L135,181L134,179L134,178L135,176L135,173L134,168L131,165L126,161L125,160L125,159L124,156L123,154L120,154L119,154L118,156L117,158L115,158L115,158L114,157L113,156L113,154L114,153L115,149L115,148L115,147L114,145L115,143L120,136L121,135L123,134L124,133L120,132L118,131L117,130L116,124L114,121L110,119L109,119L107,118L103,119L96,132L91,139L86,143L80,145L75,149L71,153L68,158L72,159L74,160L78,161L79,162L83,163L84,164L85,163L87,162L88,162L92,161L93,161L96,160L98,159L98,164L98,165L98,167L101,171L97,176L99,176L100,176L101,177L104,179L107,184L109,188L111,190L113,190L111,193L111,195L111,199L110,207L109,213L110,215L112,215L114,216L115,218L115,220L114,224L118,227L119,228L120,232L120,233L122,235L123,237L124,239L124,241L125,242L126,241L131,243L132,245L123,250L120,255L121,256L124,258L126,259L130,261Z " data-fips="BT20" data-hasc="BT.TM" data-name="Thimphu" data-postal="TM" data-varname="Tashi Chho Dzong|Thimbu"/><path d="M176,196L179,193L180,190L185,186L189,181L192,180L194,178L195,177L194,175L193,173L192,172L191,171L190,170L189,170L187,171L186,171L185,170L184,169L183,167L184,165L184,164L185,162L187,160L189,158L190,156L187,150L185,148L178,145L175,142L173,142L172,142L170,143L169,143L168,143L165,144L164,145L163,146L160,151L155,157L151,158L149,158L146,160L146,162L141,163L138,162L137,162L134,162L133,163L131,165L134,168L135,173L135,176L134,178L134,179L135,181L135,182L137,184L138,185L139,188L139,190L141,191L143,194L147,191L153,189L154,191L157,194L158,196L162,197L162,197L168,198Z " data-fips="BT00" data-hasc="BT.PN" data-name="Punakha" data-postal="PN" data-varname="Punaka"/><path d="M318,228L320,228L321,226L325,226L326,226L327,225L330,220L333,219L331,214L331,213L332,212L333,211L335,206L333,203L331,202L330,200L330,198L331,197L330,193L329,189L329,188L330,184L331,180L331,177L331,173L330,171L330,170L325,166L324,165L322,165L320,164L320,160L319,154L318,152L315,151L314,150L313,149L312,148L310,145L308,144L307,140L305,135L303,134L301,133L300,132L298,131L297,129L298,128L299,126L299,125L301,123L301,122L301,118L301,116L301,115L301,113L301,108L297,107L291,103L288,102L286,103L282,105L278,106L275,106L265,105L262,105L260,105L254,106L253,111L253,113L256,117L257,119L257,120L256,122L255,123L255,124L256,126L256,127L257,128L257,129L259,129L260,130L261,131L261,132L262,134L262,135L262,137L262,142L260,145L259,146L258,147L257,148L258,155L260,156L261,157L262,156L264,157L265,158L267,160L267,162L267,163L267,165L267,169L266,174L266,175L266,177L266,179L267,180L267,185L268,187L269,188L273,200L273,204L272,206L274,210L277,211L279,211L280,212L281,213L283,214L285,215L286,215L289,217L298,222L300,221L302,222L303,222L305,224L306,225L307,226L308,228L313,230Z " data-fips="BT05" data-hasc="BT.BU" data-name="Bumthang" data-postal="BU" data-varname=""/><path d="M200,316L201,315L202,314L204,313L205,312L208,312L210,311L210,310L209,308L209,307L215,299L217,298L218,296L218,294L220,292L222,289L224,285L224,280L226,277L228,273L228,272L229,268L229,267L231,265L232,264L235,262L236,261L239,260L232,259L229,260L224,262L223,261L221,260L219,258L218,258L216,258L210,259L208,259L201,255L198,256L199,273L198,276L199,277L199,281L198,286L198,292L197,296L194,299L193,301L190,303L190,304L189,306L190,308L190,309L191,311L191,313L193,315L194,316L196,316L199,317Z " data-fips="BT07" data-hasc="BT.CR" data-name="Chirang" data-postal="CR" data-varname="Tsirang"/><path d="M162,335L163,333L163,332L163,330L165,330L167,331L168,331L171,332L173,332L176,332L185,330L202,328L208,326L212,323L216,313L220,310L223,309L229,310L231,309L234,307L236,305L238,303L241,302L246,303L260,313L277,322L296,324L330,322L330,321L332,320L331,314L328,315L327,315L321,316L319,315L314,315L311,315L310,314L309,312L308,307L306,304L306,303L305,301L303,301L302,299L300,299L299,297L298,295L296,294L292,293L291,293L290,290L291,289L291,287L290,284L290,282L289,281L289,279L289,277L288,276L287,275L283,273L282,273L280,274L278,274L276,273L272,271L270,269L267,266L266,264L264,264L262,263L260,263L259,263L257,262L257,262L255,260L254,259L249,255L239,250L237,252L236,254L239,260L236,261L235,262L232,264L231,265L229,267L229,268L228,272L228,273L226,277L224,280L224,285L222,289L220,292L218,294L218,296L217,298L215,299L209,307L209,308L210,310L210,311L208,312L205,312L204,313L202,314L201,315L200,316L199,317L196,316L194,316L193,315L191,313L191,311L190,309L184,313L183,314L184,315L183,315L182,315L181,313L181,312L180,310L179,309L178,310L178,311L178,313L178,314L177,315L176,316L175,315L175,313L174,316L173,316L169,317L168,318L167,317L165,315L164,315L162,314L161,314L161,315L161,317L160,318L158,317L157,317L153,318L152,320L151,321L149,325L150,329L151,331L152,332L152,334L152,335L153,335L160,335L162,335Z " data-fips="BT09" data-hasc="BT.GE" data-name="Geylegphug" data-postal="GE" data-varname="Gaylegphug|Sarbhang|Gelephu|Sarpang"/><path d="M349,214L352,213L355,213L358,213L359,214L362,219L374,213L376,208L376,204L375,202L374,200L375,198L377,196L380,193L381,192L381,188L382,187L384,187L382,184L383,181L383,171L383,167L383,165L382,162L382,160L382,159L383,158L384,156L384,153L384,151L385,148L385,135L385,133L385,131L387,131L388,130L393,124L394,124L396,124L397,124L399,121L402,119L399,118L388,112L383,107L380,102L377,105L374,105L370,104L366,105L363,107L357,115L355,118L351,122L345,123L339,123L334,120L332,118L324,112L315,110L306,109L301,108L301,113L301,115L301,116L301,118L301,122L301,123L299,125L299,126L298,128L297,129L298,131L300,132L301,133L303,134L305,135L307,140L308,144L310,145L312,148L313,149L314,150L315,151L318,152L319,154L320,160L320,164L322,165L324,165L325,166L330,170L330,171L331,173L331,177L331,180L330,184L329,188L329,189L330,193L331,197L330,198L330,200L331,202L333,203L335,206L333,211L332,212L331,213L331,214L333,219L341,221Z " data-fips="BT11" data-hasc="BT.LH" data-name="Lhuntshi" data-postal="LH" data-varname="Lhuentse|Lhuntsi"/><path d="M421,220L424,216L426,215L434,212L439,210L444,210L445,209L445,208L446,207L446,207L443,205L439,205L435,204L433,201L432,198L428,195L426,192L423,180L424,174L431,164L431,157L430,145L431,141L432,137L434,134L434,130L432,127L429,125L426,123L423,122L417,122L411,119L406,119L403,119L402,119L399,121L397,124L396,124L394,124L393,124L388,130L387,131L385,131L385,133L385,135L385,148L384,151L384,153L384,156L383,158L382,159L382,160L382,162L383,165L383,167L383,171L383,181L382,184L384,187L386,192L397,206L399,211L399,212L402,218L416,222Z " data-fips="BT00" data-hasc="BT.TY" data-name="Tashi Yangtse" data-postal="TY" data-varname="Trashi Yangtse|Trashiyangtsi"/><path d="M340,321L338,316L339,314L339,312L340,311L341,310L342,310L348,308L351,307L352,307L353,304L360,304L363,303L364,300L363,294L361,295L359,294L358,293L357,292L356,291L355,290L353,290L352,289L351,288L350,280L347,278L342,276L337,266L336,261L337,258L338,256L339,255L339,252L339,249L337,247L337,244L336,243L334,240L332,237L331,231L330,229L327,225L326,226L325,226L321,226L320,228L318,228L313,230L308,228L307,226L306,225L305,224L303,222L302,222L300,221L298,222L296,232L295,235L294,237L295,238L295,239L295,241L294,242L290,245L279,250L280,252L285,258L284,259L277,259L276,258L274,258L273,258L271,260L270,261L268,262L266,264L267,266L270,269L272,271L276,273L278,274L280,274L282,273L283,273L287,275L288,276L289,277L289,279L289,281L290,282L290,284L291,287L291,289L290,290L291,293L292,293L296,294L298,295L299,297L300,299L302,299L303,301L305,301L306,303L306,304L308,307L309,312L310,314L311,315L314,315L319,315L321,316L327,315L328,315L331,314L332,320L330,321L330,322Z " data-fips="BT18" data-hasc="BT.SG" data-name="Shemgang" data-postal="SG" data-varname="Zhemgang"/><path d="M268,262L270,261L271,260L273,258L274,258L276,258L277,259L284,259L285,258L280,252L279,250L290,245L294,242L295,241L295,239L295,238L294,237L295,235L296,232L289,217L286,215L285,215L283,214L281,213L280,212L279,211L277,211L274,210L272,206L273,204L273,200L269,188L268,187L267,185L267,180L266,179L266,177L266,175L266,174L267,169L267,165L267,163L267,162L267,160L265,158L264,157L262,156L261,157L260,156L258,155L258,157L257,165L256,167L256,168L254,169L247,172L246,172L244,171L243,171L242,172L240,172L238,172L237,171L236,172L235,173L235,174L235,177L234,178L232,181L233,183L234,185L234,186L235,189L237,194L239,196L243,198L241,200L240,201L238,201L237,201L235,201L234,202L231,204L230,205L225,206L227,211L228,212L229,217L231,222L233,224L233,225L233,227L234,228L238,232L239,233L240,235L240,239L243,241L243,243L242,246L239,250L249,255L254,259L255,260L257,262L257,262L259,263L260,263L262,263L264,264L266,264Z " data-fips="BT21" data-hasc="BT.TO" data-name="Tongsa" data-postal="TO" data-varname="Trongsa"/><path d="M198,256L201,255L208,259L210,259L216,258L218,258L219,258L221,260L223,261L224,262L229,260L232,259L236,254L237,252L239,250L242,246L243,243L243,241L240,239L240,235L239,233L238,232L234,228L233,227L233,225L233,224L231,222L229,217L228,212L227,211L225,206L230,205L231,204L234,202L235,201L237,201L238,201L240,201L241,200L243,198L239,196L237,194L235,189L234,186L234,185L233,183L232,181L234,178L235,177L235,174L235,173L236,172L237,171L238,172L240,172L242,172L243,171L244,171L246,172L247,172L254,169L256,168L256,167L257,165L258,157L258,155L257,148L258,147L259,146L260,145L262,142L262,137L262,135L262,134L261,132L261,131L260,130L259,129L257,129L257,128L256,127L256,126L255,124L255,123L256,122L257,120L257,119L256,117L253,113L253,111L254,106L250,106L250,111L249,113L247,116L246,117L241,120L240,122L240,123L240,124L240,125L241,127L241,128L241,130L241,131L241,133L240,133L239,134L237,134L235,133L233,134L232,134L230,135L229,134L227,132L224,128L224,127L224,125L223,123L221,121L219,121L214,122L212,122L212,123L211,126L204,137L204,138L203,140L202,141L199,142L197,143L194,144L192,144L191,145L190,156L189,158L187,160L185,162L184,164L184,165L183,167L184,169L185,170L186,171L187,171L189,170L190,170L191,171L192,172L193,173L194,175L195,177L194,178L192,180L189,181L185,186L180,190L179,193L176,196L168,198L162,197L162,197L162,199L162,201L161,203L159,205L151,208L150,211L150,214L151,217L143,224L145,226L146,226L146,229L146,231L146,241L155,239L158,241L162,241L163,241L166,242L167,244L171,247L172,249L173,250L174,253L176,257L180,261L186,262L192,265L194,265Z " data-fips="BT22" data-hasc="BT.WP" data-name="Wangdi Phodrang" data-postal="WP" data-varname="Wangdiphodrang|Andguphodang|Wangdue|Wangdue Phodrang|Wangdupotrang|Wang-Phodrang"/><path d="M363,294L367,290L371,282L374,279L377,277L387,272L390,270L392,267L393,263L394,259L395,257L395,255L395,246L396,244L402,238L408,235L408,232L407,231L406,228L405,227L401,225L399,223L396,221L397,219L399,212L399,211L397,206L386,192L384,187L382,187L381,188L381,192L380,193L377,196L375,198L374,200L375,202L376,204L376,208L374,213L362,219L359,214L358,213L355,213L352,213L349,214L341,221L333,219L330,220L330,229L331,231L332,237L334,240L336,243L337,244L337,247L339,249L339,252L339,255L338,256L337,258L336,261L337,266L342,276L347,278L350,280L351,288L352,289L353,290L355,290L356,291L357,292L358,293L359,294L361,295Z " data-fips="BT12" data-hasc="BT.MO" data-name="Mongar" data-postal="MO" data-varname="Monggar|Mongor"/><path d="M393,310L394,307L397,304L398,303L400,301L403,297L403,295L402,292L403,291L403,290L405,284L406,283L411,281L412,274L407,274L404,272L401,270L400,269L398,267L397,264L397,263L399,261L401,258L395,257L394,259L393,263L392,267L390,270L387,272L377,277L374,279L371,282L367,290L368,294L372,295L378,294L380,295L381,296L382,297L384,298L387,298L389,303L388,305L387,310L391,311Z " data-fips="BT14" data-hasc="BT.PM" data-name="Pemagatsel" data-postal="PM" data-varname="Pema Gatshel|Pemagatshel"/><path d="M383,322L385,321L388,320L390,319L392,317L394,314L395,311L396,308L398,307L399,306L401,306L407,306L409,307L411,309L414,316L416,318L419,318L424,316L427,316L434,318L436,318L443,317L448,315L457,308L462,307L464,309L465,311L466,314L467,316L470,316L471,315L471,312L469,310L472,308L472,306L472,303L474,303L476,304L481,308L484,309L493,308L498,302L499,296L500,294L497,284L495,279L487,271L485,266L485,263L486,260L486,257L488,254L487,254L483,254L482,253L481,253L479,252L478,250L477,249L477,248L476,244L474,243L473,244L472,246L472,248L472,252L472,257L472,258L469,258L466,258L459,261L456,263L452,270L432,277L426,275L414,282L411,281L406,283L405,284L403,290L403,291L402,292L403,295L403,297L400,301L398,303L397,304L394,307L393,310L391,311L387,310L388,305L389,303L387,298L384,298L382,297L381,296L380,295L378,294L372,295L368,294L364,300L363,303L360,304L353,304L352,307L351,307L348,308L342,310L341,310L340,311L339,312L339,314L338,316L340,321L348,317L352,317L357,318L368,318L373,319L378,321L380,322Z " data-fips="BT17" data-hasc="BT.SJ" data-name="Samdrup Jongkhar" data-postal="SJ" data-varname="Samdrup|Samdrup Jongkha"/><path d="M426,275L432,277L452,270L456,263L459,261L466,258L469,258L472,258L472,257L472,252L472,248L472,246L473,244L474,243L476,244L477,248L477,249L478,250L479,252L481,253L482,253L483,254L487,254L488,254L488,253L490,251L491,250L491,248L492,245L492,244L494,241L499,237L500,234L499,232L486,208L483,204L481,205L477,208L475,209L469,209L465,209L454,214L449,214L449,213L448,210L446,207L445,208L445,209L444,210L439,210L434,212L426,215L424,216L421,220L416,222L402,218L397,219L396,221L399,223L401,225L405,227L406,228L407,231L408,232L408,235L402,238L396,244L395,246L395,255L395,257L401,258L399,261L397,263L397,264L398,267L400,269L401,270L404,272L407,274L412,274L411,281L414,282Z " data-fips="BT19" data-hasc="BT.TA" data-name="Tashigang" data-postal="TA" data-varname="Trashigang"/></g></svg>