<?xml version="1.0" ?><!DOCTYPE svg  PUBLIC '-//W3C//DTD SVG 1.1//EN'  'http://www.w3.org/Graphics/SVG/1.1/DTD/svg11.dtd'><svg enable_background="new 0 0 500 401" height="401px" style="stroke-linejoin: round; stroke:#000; fill:#f6f3f0;" version="1.1" viewBox="0 0 500 401" width="500px" xmlns="http://www.w3.org/2000/svg" xmlns:xlink="http://www.w3.org/1999/xlink"><defs><style type="text/css"><![CDATA[path { fill-rule: evenodd; }
#context path { fill: #eee; stroke: #bbb; } ]]></style></defs><metadata><views><view h="401" padding="0" w="500"><proj id="laea" lat0="33.42" lon0="106.514"/><bbox h="446.36" w="539.02" x="691.97" y="740.82"/><llbbox lat0="-90" lat1="90" lon0="-180" lon1="180"/></view></views></metadata><g id="admin1"><path d="M273,240L274,240L274,239L274,238L276,238L277,237L279,237L279,236L279,235L278,234L277,232L278,232L279,231L279,230L280,229L281,230L283,230L284,230L284,230L285,229L284,229L284,228L284,227L284,226L284,224L285,224L285,222L286,222L286,221L285,220L284,220L283,219L283,218L284,217L285,216L284,215L284,214L285,213L287,213L288,213L289,214L290,215L291,215L292,215L293,215L294,215L295,215L296,214L296,213L295,212L296,211L297,211L298,212L299,211L300,211L301,211L303,211L303,210L303,209L303,207L302,206L302,205L303,204L303,203L304,202L304,201L303,200L304,199L303,198L302,198L301,198L301,197L300,196L299,197L298,196L297,195L296,195L295,194L294,194L293,193L291,193L291,191L291,191L290,191L289,191L288,191L287,190L286,190L285,191L285,192L285,193L286,194L285,195L284,196L284,197L284,198L284,200L285,200L286,201L287,201L288,202L288,203L288,204L288,205L287,206L287,207L286,206L285,206L284,207L284,208L284,209L284,210L284,211L283,211L282,210L281,210L280,210L279,209L280,209L279,208L278,208L277,208L277,206L276,206L275,206L274,205L274,204L274,203L275,202L275,200L275,199L274,198L273,197L273,195L274,194L272,192L271,192L270,191L270,190L269,190L268,189L269,188L268,188L266,187L266,188L264,188L263,187L261,185L259,183L257,182L257,181L258,179L259,179L258,177L258,176L261,174L262,173L263,173L263,171L264,170L265,169L263,166L263,165L261,165L258,166L256,167L255,168L254,168L253,168L252,168L250,167L249,167L246,168L245,169L246,170L246,171L245,172L243,173L242,173L240,172L239,171L239,170L239,169L238,169L236,168L236,167L236,165L236,164L233,164L233,163L232,163L231,162L231,161L230,160L228,159L227,159L225,158L225,157L226,156L229,154L230,153L231,152L232,150L231,149L230,147L227,147L226,148L223,148L220,149L218,150L217,151L215,150L216,146L215,146L213,144L212,143L211,141L211,139L213,138L209,125L209,125L202,125L202,125L200,126L199,127L199,131L199,133L198,133L196,134L194,134L190,134L186,136L181,140L178,143L177,145L176,146L175,146L174,147L172,146L171,147L170,150L169,152L168,153L169,158L169,159L169,161L170,161L170,160L172,161L173,160L174,160L175,160L176,160L177,160L178,160L179,160L182,160L183,161L184,162L185,162L186,163L187,163L188,163L189,163L190,164L191,165L191,166L192,167L193,168L194,168L195,169L196,170L197,170L198,171L199,172L200,173L201,173L202,173L202,171L202,170L203,169L203,167L203,166L203,165L203,164L204,164L206,165L209,167L212,169L213,169L214,168L215,167L215,168L217,168L218,167L218,167L219,167L220,168L221,169L223,171L224,172L224,173L226,175L227,176L229,176L229,177L229,176L229,175L229,174L230,175L231,176L232,176L233,177L233,179L236,180L237,180L239,182L242,185L243,185L244,184L245,184L246,185L245,186L247,187L249,188L249,189L249,190L249,191L249,193L250,193L251,194L250,195L251,196L251,197L251,198L252,199L253,200L253,200L253,202L253,203L253,205L252,204L250,204L250,206L250,207L250,208L248,208L247,209L247,209L247,211L247,212L246,212L245,213L245,214L244,214L243,215L242,216L241,216L242,217L243,217L243,218L244,219L245,220L245,221L244,221L243,222L243,223L242,223L241,223L240,222L238,222L238,221L237,221L236,220L235,220L233,220L232,221L232,222L233,223L233,224L234,225L235,226L235,227L236,228L237,228L238,228L239,227L239,228L240,230L242,229L242,230L242,231L242,232L241,233L242,234L243,233L244,233L244,232L245,231L246,231L247,230L247,229L246,228L246,227L245,226L245,225L246,225L247,225L248,224L249,223L250,222L251,222L252,222L253,223L254,224L254,225L254,226L254,227L255,227L256,227L257,227L257,228L259,228L260,229L261,228L262,229L263,230L263,231L264,232L265,233L264,233L264,235L265,236L264,237L264,238L265,238L266,239L267,240L268,240L269,240L270,240L271,240L272,241Z " data-fips="CH15" data-hasc="CN.GS" data-name="Gansu" data-postal="GS" data-varname="Gans"/><path d="M188,246L187,245L188,244L189,244L190,245L191,246L192,246L193,247L193,246L193,244L194,243L195,243L196,243L197,243L198,243L198,242L198,241L199,240L199,239L200,238L201,238L202,239L203,238L202,238L201,237L201,236L200,235L200,234L200,233L201,233L201,232L201,231L203,229L204,228L203,228L202,227L201,226L201,225L201,224L202,223L203,222L204,222L204,223L205,223L207,223L209,223L210,224L211,224L212,225L212,227L213,228L213,229L213,230L213,231L214,232L216,233L217,234L218,235L219,236L220,237L222,237L222,236L223,235L223,234L224,235L225,235L225,236L226,237L225,238L226,238L227,238L228,238L229,239L229,240L228,241L229,241L230,240L230,239L231,238L232,239L233,239L235,239L235,238L235,236L235,236L235,235L236,233L237,233L238,233L238,233L239,234L240,232L240,231L240,230L240,230L239,228L239,227L238,228L237,228L236,228L235,227L235,226L234,225L233,224L233,223L232,222L232,221L233,220L235,220L236,220L237,221L238,221L238,222L240,222L241,223L242,223L243,223L243,222L244,221L245,221L245,220L244,219L243,218L243,217L242,217L241,216L242,216L243,215L244,214L245,214L245,213L246,212L247,212L247,211L247,209L247,209L248,208L250,208L250,207L250,206L250,204L252,204L253,205L253,203L253,202L253,200L253,200L252,199L251,198L251,197L251,196L250,195L251,194L250,193L249,193L249,191L249,190L249,189L249,188L247,187L245,186L246,185L245,184L244,184L243,185L242,185L239,182L237,180L236,180L233,179L233,177L232,176L231,176L230,175L229,174L229,175L229,176L229,177L229,176L227,176L226,175L224,173L224,172L223,171L221,169L220,168L219,167L218,167L218,167L217,168L215,168L215,167L214,168L213,169L212,169L209,167L206,165L204,164L203,164L203,165L203,166L203,167L203,169L202,170L202,171L202,173L201,173L200,173L199,172L198,171L197,170L196,170L195,169L194,168L193,168L192,167L191,166L191,165L190,164L189,163L188,163L187,163L186,163L185,162L184,162L183,161L182,160L179,160L178,160L177,160L176,160L175,160L174,160L173,160L172,161L170,160L170,161L169,161L169,161L168,161L165,161L164,161L163,162L161,162L159,162L157,163L156,163L155,163L153,163L152,163L151,163L149,163L148,163L147,164L146,165L145,165L144,165L144,166L146,170L145,171L145,172L146,173L147,174L148,175L149,176L150,177L150,179L151,180L151,181L151,182L150,182L149,182L147,182L146,183L145,184L145,185L146,186L147,187L148,188L148,189L148,191L148,192L147,192L145,192L144,191L141,190L139,190L139,189L138,190L137,190L135,190L135,190L133,190L133,191L134,192L135,193L136,193L136,194L135,195L135,196L135,197L133,198L132,198L132,199L132,200L132,202L133,202L134,203L134,204L133,206L134,207L133,208L133,209L133,210L132,211L131,212L132,213L132,214L133,215L133,216L134,217L135,218L135,219L135,220L136,221L136,222L137,222L138,223L139,224L140,224L141,223L142,223L143,223L144,222L146,223L146,225L148,226L149,227L149,228L151,229L152,228L152,229L153,230L154,230L155,230L156,230L157,231L158,231L160,231L160,232L161,232L163,233L164,234L165,234L166,234L167,235L168,235L169,235L170,235L172,234L173,234L174,234L175,234L175,235L176,236L177,237L177,238L178,239L180,239L181,240L181,241L180,242L180,243L181,244L181,245L182,245L183,245L184,245L186,246L187,246L188,247Z " data-fips="" data-hasc="" data-name="Qinghai" data-postal="" data-varname=""/><path d="M313,363L314,363L315,363L316,363L316,362L315,361L316,360L316,361L317,361L317,362L318,363L318,362L318,362L319,361L319,360L320,358L321,358L322,358L323,358L324,358L324,357L324,355L324,355L326,355L327,355L327,354L328,353L327,352L327,351L328,351L329,350L330,350L331,349L331,348L333,348L333,347L334,346L334,345L334,344L334,343L334,342L334,341L334,340L335,338L336,338L336,337L337,336L338,336L338,335L339,334L339,333L339,332L340,331L340,330L340,329L339,328L339,327L339,326L338,326L337,326L336,326L335,327L334,327L334,326L334,325L334,324L334,323L333,322L332,322L331,323L330,324L329,324L329,323L329,322L330,321L331,320L331,319L332,319L332,317L332,316L333,315L333,314L334,313L333,313L332,314L331,313L331,312L331,311L331,309L330,309L329,309L328,309L328,310L326,309L324,309L324,310L323,311L322,312L321,313L320,312L319,312L319,311L318,311L318,312L317,313L317,314L316,314L316,313L315,313L314,313L313,314L313,315L312,316L311,315L310,315L308,316L308,317L309,317L310,318L309,318L307,318L306,318L306,319L305,320L305,321L304,319L303,319L302,319L301,320L301,321L300,322L299,322L298,323L297,323L296,322L295,321L294,321L293,321L293,320L292,319L292,318L291,319L290,319L289,320L289,321L289,322L288,322L287,323L286,323L285,323L284,324L282,325L281,325L281,326L281,327L280,328L279,328L278,327L277,327L276,327L275,327L274,326L273,325L272,325L271,324L270,325L270,326L269,327L268,327L267,328L266,328L265,328L265,327L264,328L264,329L265,330L266,331L267,330L268,331L269,331L270,331L271,332L271,333L271,334L272,334L273,335L274,335L275,334L276,334L276,335L277,335L278,335L279,335L280,335L281,336L281,338L281,339L281,340L280,341L279,341L278,341L277,341L276,342L275,343L275,344L274,345L274,345L275,346L276,346L277,347L278,347L279,347L281,347L281,347L282,348L284,347L285,348L286,348L287,349L287,350L286,351L285,351L285,353L285,354L286,354L286,355L286,356L287,357L288,358L289,358L290,358L289,360L290,360L291,361L293,361L293,362L294,361L295,362L296,362L297,361L298,362L299,363L299,364L300,362L301,362L302,362L302,363L303,362L303,361L304,361L304,362L305,362L305,361L305,360L305,359L306,358L306,359L306,359L307,360L307,360L307,361L309,361L308,360L308,359L309,360L309,361L310,361L311,361L311,363L311,363L312,364Z " data-fips="CH16" data-hasc="CN.GX" data-name="Guangxi" data-postal="GX" data-varname="Guangxi Zhungz"/><path d="M267,328L268,327L269,327L270,326L270,325L271,324L272,325L273,325L274,326L275,327L276,327L277,327L278,327L279,328L280,328L281,327L281,326L281,325L282,325L284,324L285,323L286,323L287,323L288,322L289,322L289,321L289,320L290,319L291,319L292,318L292,319L293,320L293,321L294,321L295,321L296,322L297,323L298,323L299,322L300,322L301,321L301,320L302,319L303,319L304,319L305,321L305,320L306,319L306,318L307,318L309,318L310,318L309,317L308,317L308,316L310,315L311,315L312,316L313,315L313,314L314,313L313,311L313,310L312,309L312,308L313,307L313,306L312,305L313,305L314,304L313,303L314,302L314,301L313,300L312,301L311,301L310,301L309,302L308,302L307,301L308,300L309,299L310,298L311,297L312,297L313,295L313,294L312,293L312,292L312,291L312,290L312,289L312,288L311,288L311,287L310,286L310,288L309,289L308,289L307,289L306,289L306,288L306,286L305,287L305,288L304,287L304,286L304,284L303,284L302,283L302,282L302,281L302,279L300,280L299,280L298,280L297,280L297,279L296,279L295,278L294,278L293,279L293,280L294,281L293,282L291,282L290,282L289,282L288,283L288,283L288,285L287,285L286,286L285,285L285,284L284,283L284,284L284,285L283,285L283,285L282,286L282,285L281,285L280,284L279,283L279,284L278,285L277,285L276,286L276,287L276,288L277,288L278,289L279,290L280,290L281,290L282,291L282,292L283,293L282,294L281,294L280,294L279,294L278,295L276,295L275,294L275,294L274,294L273,294L272,295L272,296L272,297L271,298L270,298L269,299L268,299L267,299L265,299L264,298L263,298L262,298L262,299L261,299L260,298L259,298L258,299L256,301L256,302L257,302L257,302L257,304L257,305L257,306L257,307L259,307L260,307L261,306L262,306L263,306L264,306L265,307L265,308L266,309L266,310L265,311L265,312L264,313L264,313L264,314L263,316L262,316L262,317L263,318L264,319L265,319L265,320L266,321L266,322L266,323L266,324L265,325L265,326L265,327L265,328L266,328Z " data-fips="CH18" data-hasc="CN.GZ" data-name="Guizhou" data-postal="GZ" data-varname="Gizhou"/><path d="M310,288L310,286L311,285L311,283L311,282L311,281L311,280L310,279L309,277L308,277L308,276L307,275L307,274L307,273L306,273L305,272L305,271L304,272L303,272L303,271L304,270L304,269L304,268L304,266L303,266L302,265L303,264L304,264L305,263L306,263L307,263L308,262L309,262L310,263L311,262L312,263L313,262L314,261L314,260L315,260L316,259L317,260L318,260L319,259L319,257L318,256L319,255L319,254L318,253L317,252L316,252L315,251L314,250L313,250L310,250L309,249L308,248L306,247L305,246L304,245L303,245L302,245L302,246L301,247L301,248L303,249L303,250L303,251L302,252L301,253L300,254L300,255L299,256L299,257L299,258L298,259L298,260L296,260L296,260L295,260L294,260L293,262L294,263L293,264L292,266L291,267L291,268L290,268L289,269L287,269L286,269L286,268L285,266L285,266L283,266L282,267L281,266L281,266L280,265L279,265L278,265L277,266L276,267L275,268L276,269L277,270L276,271L275,271L275,272L274,273L273,273L273,274L273,275L274,276L274,277L276,277L277,277L277,279L277,280L277,281L278,281L280,281L281,281L282,282L282,283L282,284L283,285L284,285L284,284L284,283L285,284L285,285L286,286L287,285L288,285L288,283L288,283L289,282L290,282L291,282L293,282L294,281L293,280L293,279L294,278L295,278L296,279L297,279L297,280L298,280L299,280L300,280L302,279L302,281L302,282L302,283L303,284L304,284L304,286L304,287L305,288L305,287L306,286L306,288L306,289L307,289L308,289L309,289Z " data-fips="CH33" data-hasc="CN.CQ" data-name="Chongqing" data-postal="CQ" data-varname="Chngqng"/><path d="M369,160L370,160L370,159L372,159L372,159L372,158L372,156L371,156L371,155L371,154L373,154L375,153L376,152L375,151L375,150L374,149L374,148L375,148L376,147L374,147L373,147L372,147L371,146L369,145L368,144L367,145L366,145L367,147L366,147L365,147L365,148L364,149L363,149L362,150L364,152L363,153L363,154L360,155L360,156L360,157L361,158L360,159L361,160L362,160L363,161L364,160L365,160L366,160L367,160L368,161Z " data-fips="CH22" data-hasc="CN.BJ" data-name="Beijing" data-postal="BJ" data-varname="Beijing"/><path d="M395,334L395,333L394,333L394,333L394,333L394,333L395,333L395,331L396,331L397,332L397,331L397,330L397,329L398,329L398,330L399,329L399,328L400,327L401,327L401,326L400,325L399,325L398,324L400,324L400,323L401,323L402,322L402,323L403,323L404,321L405,322L405,323L406,322L407,321L407,320L406,320L406,319L406,318L407,319L407,319L408,319L409,317L408,316L409,315L408,315L409,314L410,315L410,316L411,315L412,315L412,314L412,313L411,314L410,313L410,312L411,311L412,310L412,311L414,312L414,313L414,312L415,312L415,311L414,311L413,310L414,309L414,308L414,307L415,306L414,305L413,306L412,306L411,307L410,306L410,305L411,305L412,306L413,306L413,305L414,304L414,303L415,302L416,301L415,301L414,302L413,300L414,301L416,300L415,299L414,299L413,299L413,298L413,297L414,298L414,297L415,297L415,297L415,298L416,298L416,297L418,296L417,298L416,299L416,300L417,299L418,298L418,297L418,296L417,296L418,295L419,294L419,293L419,293L420,292L419,291L418,291L419,290L419,291L420,291L420,291L420,290L419,290L418,289L417,290L416,290L415,291L414,291L413,290L413,289L413,288L412,287L411,288L411,289L410,289L409,290L408,291L407,290L406,290L406,289L405,288L404,287L404,285L403,285L404,283L404,282L403,281L402,281L401,282L400,282L400,282L400,283L399,284L397,285L396,286L395,286L394,287L394,288L393,288L392,287L391,286L390,287L389,288L389,289L388,290L388,292L388,293L389,294L388,295L388,296L387,297L386,298L385,298L384,298L383,299L383,301L383,302L384,303L384,304L383,304L383,305L382,306L383,307L382,308L382,310L381,310L380,311L380,312L379,313L379,314L379,315L379,316L378,317L378,319L378,320L378,321L379,322L380,322L381,322L383,322L384,322L384,323L385,324L386,323L387,324L387,325L388,326L389,327L390,329L389,330L390,331L390,332L391,334L392,335L393,334L394,333L394,333L394,334L394,335Z M417,311L417,310L416,310L416,309L415,310L416,311L415,311L416,312Z M412,306L410,305L411,306L412,306Z " data-fips="CH07" data-hasc="CN.FJ" data-name="Fujian" data-postal="FJ" data-varname="Fjin"/><path d="M385,268L386,267L385,266L386,265L387,265L387,266L388,266L389,267L390,268L391,268L391,269L393,268L394,269L395,268L396,269L397,269L398,269L399,268L400,267L401,266L401,265L402,263L402,262L402,261L402,260L402,259L403,259L404,259L405,259L406,258L407,258L406,257L405,256L405,255L406,255L407,254L407,253L408,252L407,249L406,249L405,249L404,248L403,248L402,249L400,249L399,248L400,247L400,246L400,245L399,244L398,244L397,244L396,243L396,242L395,241L395,240L396,239L397,238L397,237L397,236L396,235L396,234L397,234L398,234L399,234L400,235L401,235L402,234L402,233L401,232L401,231L400,230L399,230L398,231L397,231L397,233L396,233L394,233L393,232L393,231L393,230L392,229L392,228L391,229L390,229L390,228L390,227L390,225L391,225L391,223L391,222L390,222L388,223L387,222L387,221L386,221L385,220L384,219L383,219L382,219L381,219L380,218L379,217L379,216L378,216L377,216L376,215L375,214L374,214L373,215L372,215L372,216L373,217L374,217L375,218L376,218L376,219L376,220L377,221L376,222L375,223L375,223L373,224L372,224L371,223L371,222L370,221L369,221L368,221L367,222L368,223L368,225L368,226L366,227L366,228L365,229L366,230L365,231L365,232L364,232L362,232L362,233L362,234L363,234L364,234L365,235L365,237L366,238L367,238L368,238L368,239L369,239L370,238L371,238L372,237L371,238L372,239L372,241L372,243L372,245L372,246L371,246L370,246L369,247L368,248L368,249L368,251L369,252L370,253L371,252L373,253L373,254L374,254L374,255L373,256L373,257L372,257L372,258L373,259L374,261L374,262L374,262L375,263L376,264L376,266L376,267L377,268L378,267L379,266L380,266L381,265L381,264L382,264L383,265L383,266L382,267L382,268L382,269L383,269L384,269Z " data-fips="CH01" data-hasc="CN.AH" data-name="Anhui" data-postal="AH" data-varname="Anhui"/><path d="M325,375L326,374L326,373L326,372L325,372L324,371L324,370L325,371L325,370L324,370L322,369L322,368L323,367L324,366L325,365L324,364L324,363L325,364L325,365L327,365L327,364L327,364L327,365L328,364L329,363L330,363L331,363L331,362L332,362L333,362L334,362L334,362L335,361L336,362L338,361L338,360L339,359L338,359L339,359L340,359L340,358L340,357L341,357L342,358L343,359L344,359L345,358L345,357L344,356L345,355L345,356L346,356L345,358L347,358L347,357L348,356L350,356L350,357L351,356L351,355L351,354L352,354L353,355L354,355L354,354L355,353L354,352L353,350L353,349L353,350L354,352L355,352L355,353L357,353L357,352L356,351L357,350L356,348L355,347L355,346L354,346L353,345L354,345L355,345L356,344L355,343L356,344L356,343L358,342L359,343L357,343L356,343L356,344L357,345L357,346L357,347L358,347L359,348L359,349L360,350L361,349L362,349L363,349L364,348L365,348L366,349L367,349L366,348L366,347L367,346L368,346L369,346L368,347L369,348L370,348L370,347L370,346L371,346L372,345L373,345L374,344L374,345L375,346L376,346L377,347L376,346L376,345L376,344L376,344L377,344L378,343L379,344L380,345L381,344L381,343L383,344L383,343L384,342L385,343L386,342L386,341L386,340L386,339L387,340L388,339L389,339L388,338L387,338L386,337L387,338L388,338L389,336L390,335L391,334L392,335L392,335L391,334L390,332L390,331L389,330L390,329L389,327L388,326L387,325L387,324L386,323L385,324L384,323L384,322L383,322L381,322L380,322L379,322L378,321L379,322L378,322L377,323L377,324L378,325L377,326L376,325L375,324L374,323L373,324L372,324L371,325L370,325L369,325L368,325L367,326L366,326L365,326L364,327L363,326L362,326L362,325L363,324L363,323L364,322L365,321L366,321L366,320L366,318L365,318L364,317L363,317L363,318L362,319L360,318L359,319L359,318L358,317L358,317L357,318L356,318L355,318L354,318L353,318L352,317L351,317L350,318L349,319L348,319L348,320L350,320L349,321L349,322L349,323L348,323L347,323L346,322L346,321L345,321L344,321L343,321L341,321L341,322L341,323L341,324L340,325L339,326L339,327L339,328L340,329L340,330L340,331L339,332L339,333L339,334L338,335L338,336L337,336L336,337L336,338L335,338L334,340L334,341L334,342L334,343L334,344L334,345L334,346L333,347L333,348L331,348L331,349L330,350L329,350L328,351L327,351L327,352L328,353L327,354L327,355L326,355L324,355L324,355L324,357L324,358L323,358L322,358L321,358L320,358L319,360L319,361L318,362L318,362L318,362L319,362L320,363L319,364L318,365L318,366L317,366L317,368L317,369L318,369L318,370L319,371L318,372L319,373L320,373L321,374L320,375L320,374L320,375L321,376L322,376L323,376L324,376Z M324,368L326,368L326,367L325,367L324,367L323,368Z M326,366L325,366L325,366L326,367Z M349,359L350,358L349,358L349,359L349,360Z " data-fips="CH30" data-hasc="CN.GD" data-name="Guangdong" data-postal="GD" data-varname="Guangdong"/><path d="M203,287L204,285L205,284L205,285L206,286L207,285L208,284L208,283L208,282L208,281L209,280L208,279L209,278L210,278L210,279L211,280L211,279L211,278L212,277L212,276L213,275L213,275L213,275L213,273L213,272L212,271L213,269L213,268L213,268L213,266L213,265L212,261L212,260L213,259L212,258L211,257L212,256L211,255L210,254L210,253L211,253L212,252L212,251L210,249L210,248L209,247L209,246L209,245L209,244L208,243L207,241L207,240L206,240L205,239L204,238L203,238L202,239L201,238L200,238L199,239L199,240L198,241L198,242L198,243L197,243L196,243L195,243L194,243L193,244L193,246L193,247L192,246L191,246L190,245L189,244L188,244L187,245L188,246L188,247L187,246L186,246L184,245L183,245L182,245L181,245L181,244L180,243L180,242L181,241L181,240L180,239L178,239L177,238L177,237L176,236L175,235L175,234L174,234L173,234L172,234L170,235L169,235L168,235L167,235L166,234L165,234L164,234L163,233L161,232L160,232L160,231L158,231L157,231L156,230L155,230L154,230L153,230L152,229L152,228L151,229L149,228L149,227L148,226L146,225L146,223L144,222L143,223L142,223L141,223L140,224L139,224L138,223L137,222L136,222L136,221L135,220L135,219L135,218L134,217L133,216L133,215L132,214L132,213L131,212L132,211L133,210L133,209L133,208L134,207L133,206L134,204L134,203L133,202L132,202L132,200L132,199L132,198L133,198L135,197L135,196L135,195L136,194L136,193L135,193L134,192L133,191L133,190L135,190L135,190L132,187L130,187L129,187L129,185L128,185L126,184L125,184L124,184L123,184L121,184L120,184L119,184L117,184L116,183L114,184L112,184L111,183L109,184L108,183L107,184L105,184L105,185L104,186L103,187L102,187L100,187L98,187L97,186L96,186L95,186L93,186L92,187L90,187L85,188L84,187L83,188L81,187L80,187L79,186L78,186L77,185L76,184L76,183L76,182L75,182L74,182L71,181L70,182L69,183L68,183L67,184L66,185L64,185L63,184L62,183L60,182L59,182L58,182L57,182L56,181L56,181L54,180L54,179L53,179L52,180L51,181L50,182L49,183L49,184L48,184L48,185L48,186L47,187L46,188L45,189L44,188L43,188L42,188L41,188L38,188L38,188L38,189L36,190L35,191L35,193L35,194L34,196L34,197L35,198L36,200L37,201L37,201L38,202L38,203L37,204L38,205L38,206L38,207L37,208L36,209L35,209L34,209L33,210L32,210L32,209L31,208L31,207L31,206L30,206L28,206L28,207L28,208L28,210L28,211L29,213L29,214L29,215L28,216L29,217L29,218L28,218L28,219L28,221L29,221L30,221L31,220L31,221L31,222L32,223L32,224L33,225L33,226L34,227L35,226L36,227L37,228L38,229L39,229L39,230L38,231L39,232L40,233L41,234L42,234L43,235L43,236L44,237L45,238L45,239L45,240L46,240L47,239L48,239L48,238L49,237L50,237L51,237L53,238L54,239L55,239L55,240L55,241L55,242L57,243L57,244L58,244L59,246L60,247L60,248L62,248L63,249L64,250L64,251L65,252L65,253L66,254L66,255L67,255L68,255L69,254L70,255L71,255L71,256L72,258L71,259L72,260L73,260L73,261L74,262L75,263L76,263L76,264L78,264L79,264L80,264L79,266L78,267L79,268L80,268L81,268L82,268L83,269L84,268L84,270L85,270L85,271L86,272L86,274L87,274L87,273L87,272L88,271L88,272L89,273L90,274L91,274L91,273L92,272L93,272L93,273L94,274L95,275L96,275L97,276L98,276L99,277L101,277L102,277L103,278L104,277L105,277L106,277L107,277L109,277L110,276L112,276L113,277L113,278L113,279L112,281L112,282L112,283L112,284L113,284L114,283L115,283L115,282L116,281L117,280L118,279L119,278L120,277L121,277L122,277L123,276L124,276L125,276L127,276L128,277L128,279L129,279L130,279L131,279L132,280L133,280L134,281L135,281L136,280L137,281L139,281L140,282L140,283L140,284L141,284L142,285L143,285L145,284L146,284L147,284L148,284L149,284L150,284L150,283L150,282L151,281L152,281L153,280L154,280L155,279L155,278L156,276L157,276L158,276L160,277L161,276L162,276L163,275L164,275L164,274L165,274L167,272L168,272L169,271L171,271L172,272L172,272L174,273L175,273L176,274L177,274L178,274L179,273L180,272L180,272L181,271L182,271L183,271L184,271L185,272L186,273L187,273L186,274L185,275L185,276L185,277L186,275L188,275L188,276L188,277L188,279L187,280L186,281L186,282L185,283L187,282L188,282L189,282L190,283L191,283L192,284L193,283L194,284L195,285L196,285L197,284L197,283L198,282L199,283L199,284L200,284L201,285L202,286L203,287Z " data-fips="CH14" data-hasc="CN.XZ" data-name="Xizang" data-postal="XZ" data-varname="Tibet|Xizng"/><path d="M147,192L148,192L148,191L148,189L148,188L147,187L146,186L145,185L145,184L146,183L147,182L149,182L150,182L151,182L151,181L151,180L150,179L150,177L149,176L148,175L147,174L146,173L145,172L145,171L146,170L144,166L144,165L145,165L146,165L147,164L148,163L149,163L151,163L152,163L153,163L155,163L156,163L157,163L159,162L161,162L163,162L164,161L165,161L168,161L169,161L169,161L169,159L169,158L168,153L169,152L170,150L171,147L172,146L174,147L175,146L176,146L177,145L178,143L181,140L186,136L190,134L194,134L196,134L198,133L199,133L199,131L199,127L200,126L202,125L202,125L202,125L202,123L199,118L199,117L198,114L197,112L197,110L196,110L196,108L196,107L194,107L193,106L191,105L190,105L189,104L188,103L188,102L187,102L185,101L184,99L182,98L181,97L180,97L179,97L178,96L176,96L175,96L174,96L173,96L172,95L171,95L169,95L168,94L167,94L166,93L165,93L164,92L163,92L163,91L163,89L162,89L163,86L165,84L166,83L166,82L166,80L167,78L167,77L167,76L167,75L167,74L167,73L166,72L164,69L164,68L165,66L164,65L164,64L163,64L162,63L162,62L161,62L160,61L159,60L159,60L158,59L157,60L156,59L155,58L154,58L153,57L153,56L153,55L152,54L152,53L151,53L150,52L150,51L150,50L149,50L149,49L149,48L149,46L150,45L149,45L147,45L146,45L145,44L143,44L142,45L141,46L141,47L141,48L140,49L139,50L137,50L136,51L135,50L133,50L131,53L131,54L130,55L130,59L129,60L130,61L129,62L129,63L128,64L127,64L126,64L125,64L124,65L123,65L121,65L122,64L121,63L119,63L118,63L117,63L116,62L113,61L112,59L111,59L110,58L110,59L109,60L109,61L107,63L106,65L105,67L104,68L103,69L102,70L101,72L101,73L100,74L100,75L101,76L101,77L100,79L99,79L99,78L98,78L96,78L95,78L95,76L94,75L93,76L90,76L88,76L87,76L86,76L84,76L83,76L82,76L81,76L80,76L79,77L80,78L82,79L83,80L82,80L82,81L81,83L81,85L80,86L80,87L81,88L80,94L80,96L80,97L80,97L79,97L77,97L77,98L78,100L76,100L75,100L75,100L74,101L74,102L74,104L74,105L73,106L73,107L72,108L70,107L69,108L68,109L67,108L66,109L65,109L64,109L63,109L61,109L60,110L58,110L57,110L56,111L55,112L54,112L53,113L52,113L50,113L48,113L47,112L46,112L44,111L43,111L42,112L41,113L40,113L40,115L39,115L38,116L36,117L36,116L35,116L34,116L32,116L31,116L31,115L31,114L32,113L31,112L28,113L27,112L26,112L25,111L25,112L25,113L24,113L22,113L21,114L20,114L19,114L18,114L17,114L16,115L15,115L15,116L15,117L14,119L13,119L12,119L12,120L11,122L11,123L11,124L11,125L10,125L10,127L10,128L10,129L11,130L12,130L12,129L13,129L14,129L15,130L17,132L18,133L17,134L17,135L16,136L16,137L16,138L16,139L16,140L16,141L15,142L15,143L16,144L16,145L15,146L14,146L13,146L12,145L11,145L10,146L9,146L10,148L11,148L12,148L13,149L14,149L15,150L16,151L16,152L17,153L18,154L19,155L20,156L20,158L19,159L19,160L18,161L18,162L19,163L19,164L19,165L20,165L22,165L23,166L23,167L23,168L24,169L25,169L26,170L26,171L28,171L28,172L29,172L31,173L32,173L33,174L34,174L33,175L33,177L33,178L33,180L33,181L33,183L34,184L36,185L37,186L37,187L38,188L41,188L42,188L43,188L44,188L45,189L46,188L47,187L48,186L48,185L48,184L49,184L49,183L50,182L51,181L52,180L53,179L54,179L54,180L56,181L56,181L57,182L58,182L59,182L60,182L62,183L63,184L64,185L66,185L67,184L68,183L69,183L70,182L71,181L74,182L75,182L76,182L76,183L76,184L77,185L78,186L79,186L80,187L81,187L83,188L84,187L85,188L90,187L92,187L93,186L95,186L96,186L97,186L98,187L100,187L102,187L103,187L104,186L105,185L105,184L107,184L108,183L109,184L111,183L112,184L114,184L116,183L117,184L119,184L120,184L121,184L123,184L124,184L125,184L126,184L128,185L129,185L129,187L130,187L132,187L135,190L137,190L138,190L139,189L139,190L141,190L144,191L145,192Z " data-fips="CH13" data-hasc="CN.XJ" data-name="Xinjiang Uygur" data-postal="XJ" data-varname="Xinjiang Wiwer"/><path d="M318,399L318,397L320,397L321,396L322,396L322,395L323,394L324,394L325,393L326,393L327,392L326,391L326,391L327,390L327,389L326,388L327,388L328,387L328,385L329,385L329,384L329,383L330,383L332,382L331,381L331,380L330,379L328,378L328,377L328,377L327,378L327,379L326,378L325,378L325,379L324,378L323,378L322,379L321,379L321,380L320,379L319,379L318,379L317,379L316,380L316,381L315,381L314,380L313,380L312,381L312,382L313,382L312,383L311,383L310,384L309,385L308,385L307,386L307,387L307,388L307,389L307,390L307,391L307,392L307,393L307,394L307,396L309,396L309,396L311,397L312,397L313,398L314,398L315,398L316,399L317,399Z " data-fips="CH31" data-hasc="CN.HA" data-name="Hainan" data-postal="HA" data-varname="Hainn"/><path d="M284,211L284,210L284,209L284,208L284,207L285,206L286,206L287,207L287,206L288,205L288,204L288,203L288,202L287,201L286,201L285,200L284,200L284,198L284,197L284,196L285,195L286,194L285,193L285,192L285,191L286,190L287,190L288,191L289,191L290,191L291,191L291,191L291,190L291,189L291,187L291,186L292,185L293,184L294,184L293,182L292,181L291,180L290,180L289,180L287,179L286,179L285,179L284,178L285,177L286,176L286,174L287,173L288,171L288,170L288,169L287,167L286,166L285,167L284,167L283,167L282,168L282,169L281,169L281,170L280,171L280,172L279,173L279,175L278,177L279,178L278,179L278,180L278,182L278,183L277,184L276,184L274,184L273,184L272,185L271,186L269,186L267,186L266,187L266,188L266,187L268,188L269,188L268,189L269,190L270,190L270,191L271,192L272,192L274,194L273,195L273,197L274,198L275,199L275,200L275,202L274,203L274,204L274,205L275,206L276,206L277,206L277,208L278,208L279,208L280,209L279,209L280,210L281,210L282,210L283,211Z " data-fips="CH21" data-hasc="CN.NX" data-name="Ningxia Hui" data-postal="NX" data-varname="Nngxi Hiz"/><path d="M314,249L314,247L314,246L313,245L313,244L312,243L313,242L313,241L314,240L315,241L316,240L317,240L318,240L318,238L318,237L317,237L315,237L314,236L315,235L314,235L313,235L312,234L312,233L313,233L314,233L316,233L318,234L319,234L321,234L322,233L322,234L324,234L324,233L326,232L326,231L326,230L325,229L324,228L324,228L323,227L322,226L322,225L322,224L322,223L321,222L320,221L320,220L319,220L319,219L319,218L319,218L318,217L318,215L318,214L319,213L319,212L319,211L320,210L320,209L321,208L321,207L321,206L320,204L320,203L319,201L320,200L319,199L320,197L320,196L319,195L319,194L319,193L319,191L319,190L320,190L321,188L321,187L321,186L322,185L322,184L321,183L321,182L320,181L319,180L319,179L320,178L320,177L321,176L322,175L322,175L322,174L322,173L323,172L323,170L323,169L324,168L324,167L324,166L323,165L323,164L324,163L323,163L322,164L321,165L320,166L319,166L318,165L318,166L317,166L315,166L315,167L314,168L313,169L312,170L311,171L311,172L309,172L309,173L308,174L307,175L307,176L306,177L306,178L306,179L306,180L306,181L305,182L305,181L304,182L304,183L304,184L303,185L302,185L299,185L298,185L297,184L296,183L294,184L293,184L292,185L291,186L291,187L291,189L291,190L291,191L291,193L293,193L294,194L295,194L296,195L297,195L298,196L299,197L300,196L301,197L301,198L302,198L303,198L304,199L303,200L304,201L304,202L303,203L303,204L302,205L302,206L303,207L303,209L303,210L303,211L301,211L300,211L299,211L298,212L297,211L296,211L295,212L296,213L296,214L295,215L294,215L293,215L292,215L291,215L290,215L289,214L288,213L287,213L285,213L284,214L284,215L285,216L284,217L283,218L283,219L284,220L285,220L286,221L286,222L285,222L285,224L284,224L284,226L284,227L284,228L284,229L285,229L284,230L284,230L283,230L281,230L280,229L279,230L279,231L278,232L277,232L278,234L279,235L279,236L279,237L277,237L276,238L276,238L276,240L278,239L278,238L279,238L281,238L280,239L281,240L282,241L283,240L285,240L286,240L287,239L288,239L290,240L290,241L290,242L291,242L292,242L293,242L293,243L295,243L296,243L296,244L297,245L298,245L299,245L300,245L301,244L302,244L303,245L304,245L305,246L306,247L308,248L309,249L310,250L313,250Z " data-fips="CH26" data-hasc="CN.SA" data-name="Shaanxi" data-postal="SA" data-varname="Shanxi"/><path d="M322,218L323,217L324,217L325,216L326,216L327,215L328,215L329,215L330,215L331,214L331,213L332,212L333,212L334,212L334,211L335,210L338,210L339,210L339,209L340,210L342,210L343,209L344,208L345,208L345,207L346,207L347,206L348,205L348,204L348,203L348,201L348,200L348,199L348,198L348,196L347,196L346,195L346,194L346,193L347,193L348,192L348,191L348,190L348,189L348,188L349,187L349,186L350,185L351,183L351,182L350,181L349,181L349,179L348,178L348,177L346,177L345,176L345,175L345,174L345,173L346,172L347,171L347,170L347,169L347,168L348,167L349,166L350,167L351,167L351,166L352,165L352,164L352,163L353,162L352,161L351,160L351,159L351,158L349,158L348,157L347,156L348,156L349,154L350,154L351,153L350,152L349,151L349,150L348,148L348,149L348,150L348,151L347,152L346,152L345,152L343,154L341,153L341,153L340,153L338,154L338,155L336,155L335,155L334,154L333,155L333,156L332,158L331,159L331,160L330,161L329,162L328,162L326,162L326,164L325,164L324,166L324,167L324,168L323,169L323,170L323,172L322,173L322,174L322,175L322,175L321,176L320,177L320,178L319,179L319,180L320,181L321,182L321,183L322,184L322,185L321,186L321,187L321,188L320,190L319,190L319,191L319,193L319,194L319,195L320,196L320,197L319,199L320,200L319,201L320,203L320,204L321,206L321,207L321,208L320,209L320,210L319,211L319,212L319,213L318,214L318,215L318,217L319,218L319,218L320,218L321,218Z " data-fips="CH24" data-hasc="CN.SX" data-name="Shanxi" data-postal="SX" data-varname="Shanxi"/><path d="M311,279L311,277L311,276L312,275L312,274L313,274L314,273L315,273L316,272L319,271L320,272L321,273L322,272L323,271L323,270L322,270L322,269L323,268L325,268L325,268L327,268L328,268L330,268L331,269L332,269L333,269L335,269L336,270L338,272L340,272L341,273L341,272L342,272L344,271L345,270L346,270L346,271L346,272L346,273L348,273L348,273L351,269L352,269L352,270L352,271L353,271L353,272L354,273L353,274L352,275L353,276L354,277L355,277L356,276L357,276L358,275L359,274L360,274L361,274L362,273L364,273L364,272L365,272L366,271L367,271L367,270L368,270L369,270L370,269L370,267L371,267L373,268L374,268L375,268L377,268L376,267L376,266L376,264L375,263L374,262L374,262L374,261L373,259L372,258L372,257L373,257L373,256L374,255L374,254L373,254L373,253L371,252L370,253L369,252L368,251L367,250L366,250L366,249L365,249L364,250L363,250L362,250L361,249L360,249L360,248L359,247L358,248L357,247L356,246L355,247L354,247L353,247L353,246L352,244L352,243L352,242L352,241L351,241L350,241L350,242L349,242L348,241L347,241L346,241L345,241L343,242L341,242L340,242L338,242L337,242L336,241L335,241L333,240L332,239L331,239L330,238L330,238L329,237L328,236L328,235L327,234L326,233L326,232L324,233L324,234L322,234L322,233L321,234L319,234L318,234L316,233L314,233L313,233L312,233L312,234L313,235L314,235L315,235L314,236L315,237L317,237L318,237L318,238L318,240L317,240L316,240L315,241L314,240L313,241L313,242L312,243L313,244L313,245L314,246L314,247L314,249L314,250L315,251L316,252L317,252L318,253L319,254L319,255L318,256L319,257L319,259L318,260L317,260L316,259L315,260L314,260L314,261L313,262L312,263L311,262L310,263L309,262L308,262L307,263L306,263L305,263L304,264L303,264L302,265L303,266L304,266L304,268L304,269L304,270L303,271L303,272L304,272L305,271L305,272L306,273L307,273L307,274L307,275L308,276L308,277L309,277L310,279Z " data-fips="CH12" data-hasc="CN.HU" data-name="Hubei" data-postal="HU" data-varname="Hbei"/><path d="M335,327L336,326L337,326L338,326L339,326L340,325L341,324L341,323L341,322L341,321L343,321L344,321L345,321L346,321L346,322L347,323L348,323L349,323L349,322L349,321L350,320L348,320L348,319L349,319L350,318L351,317L352,317L353,318L354,318L355,318L356,318L357,318L358,317L358,317L359,316L358,315L358,314L358,313L359,312L359,310L360,310L361,309L360,308L359,309L358,309L359,308L359,306L359,306L359,305L358,304L357,303L357,301L357,300L356,300L356,299L356,298L356,297L356,296L355,297L354,296L353,294L354,293L354,292L355,291L355,290L356,289L357,289L357,287L358,286L359,286L359,285L359,284L358,283L358,282L358,281L358,280L357,279L356,278L355,277L354,277L353,276L352,275L353,274L354,273L353,272L353,271L352,271L352,270L352,269L351,269L348,273L348,273L346,273L346,272L346,271L346,270L345,270L344,271L342,272L341,272L341,273L340,272L338,272L336,270L335,269L333,269L332,269L331,269L330,268L328,268L327,268L325,268L325,268L323,268L322,269L322,270L323,270L323,271L322,272L321,273L320,272L319,271L316,272L315,273L314,273L313,274L312,274L312,275L311,276L311,277L311,279L310,279L311,280L311,281L311,282L311,283L311,285L311,287L311,288L312,288L312,289L312,290L312,291L312,292L312,293L313,294L313,295L312,297L311,297L310,298L309,299L308,300L307,301L308,302L309,302L310,301L311,301L312,301L313,300L314,301L314,302L313,303L314,304L313,305L312,305L313,306L313,307L312,308L312,309L313,310L313,311L314,313L315,313L316,313L316,314L317,314L317,313L318,312L318,311L319,311L319,312L320,312L321,313L322,312L323,311L324,310L324,309L326,309L328,310L328,309L329,309L330,309L331,309L331,311L331,312L331,313L332,314L333,313L334,313L333,314L333,315L332,316L332,317L332,319L331,319L331,320L330,321L329,322L329,323L329,324L330,324L331,323L332,322L333,322L334,323L334,324L334,325L334,326L334,327Z " data-fips="CH11" data-hasc="CN.HN" data-name="Hunan" data-postal="HN" data-varname="Hnn"/><path d="M239,311L241,311L242,311L243,310L244,309L245,309L246,309L246,310L247,310L248,309L248,309L250,309L250,308L250,307L250,306L250,305L250,304L249,303L249,302L249,301L249,299L249,298L250,298L251,297L252,296L253,296L253,295L255,293L255,293L255,291L254,291L255,290L256,288L257,288L258,288L259,287L258,285L259,284L260,284L261,284L262,284L263,284L264,285L263,285L262,286L263,287L263,288L264,288L264,289L264,290L263,291L264,292L265,293L266,293L267,293L268,293L269,292L269,291L270,290L272,291L272,292L272,293L273,294L274,294L275,294L275,294L276,295L278,295L279,294L280,294L281,294L282,294L283,293L282,292L282,291L281,290L280,290L279,290L278,289L277,288L276,288L276,287L276,286L277,285L278,285L279,284L279,283L280,284L281,285L282,285L282,286L283,285L283,285L282,284L282,283L282,282L281,281L280,281L278,281L277,281L277,280L277,279L277,277L276,277L274,277L274,276L273,275L273,274L273,273L274,273L275,272L275,271L276,271L277,270L276,269L275,268L276,267L277,266L278,265L279,265L280,265L281,266L281,266L282,267L283,266L285,266L285,266L286,268L286,269L287,269L289,269L290,268L291,268L291,267L292,266L293,264L294,263L293,262L294,260L295,260L296,260L296,260L298,260L298,259L299,258L299,257L299,256L300,255L300,254L301,253L302,252L303,251L303,250L303,249L301,248L301,247L302,246L302,245L303,245L302,244L301,244L300,245L299,245L298,245L297,245L296,244L296,243L295,243L293,243L293,242L292,242L291,242L290,242L290,241L290,240L288,239L287,239L286,240L285,240L283,240L282,241L281,240L280,239L281,238L279,238L278,238L278,239L276,240L276,238L274,238L274,239L274,240L273,240L272,241L271,240L270,240L269,240L268,240L267,240L266,239L265,238L264,238L264,237L265,236L264,235L264,233L265,233L264,232L263,231L263,230L262,229L261,228L260,229L259,228L257,228L257,227L256,227L255,227L254,227L254,226L254,225L254,224L253,223L252,222L251,222L250,222L249,223L248,224L247,225L246,225L245,225L245,226L246,227L246,228L247,229L247,230L246,231L245,231L244,232L244,233L243,233L242,234L241,233L242,232L242,231L242,230L242,229L240,230L240,231L240,232L239,234L238,233L238,233L237,233L236,233L235,235L235,236L235,236L235,238L235,239L233,239L232,239L231,238L230,239L230,240L229,241L228,241L229,240L229,239L228,238L227,238L226,238L225,238L226,237L225,236L225,235L224,235L223,234L223,235L222,236L222,237L220,237L219,236L218,235L217,234L216,233L214,232L213,231L213,230L213,229L213,228L212,227L212,225L211,224L210,224L209,223L207,223L205,223L204,223L204,222L203,222L202,223L201,224L201,225L201,226L202,227L203,228L204,228L203,229L201,231L201,232L201,233L200,233L200,234L200,235L201,236L201,237L202,238L203,238L204,238L205,239L206,240L207,240L207,241L208,243L209,244L209,245L209,246L209,247L210,248L210,249L212,251L212,252L211,253L210,253L210,254L211,255L212,256L211,257L212,258L213,259L212,260L212,261L213,265L213,266L213,268L213,268L213,269L212,271L213,272L213,273L213,275L213,275L213,275L213,277L213,279L213,280L213,281L213,282L213,283L213,284L214,286L214,286L215,287L215,285L215,284L216,283L217,283L217,281L218,280L219,280L219,281L220,282L220,283L221,283L221,285L222,285L223,286L222,287L221,288L222,289L223,290L223,291L224,292L224,293L225,291L226,292L227,291L229,295L230,296L230,297L230,298L231,299L232,300L232,301L234,303L234,304L235,304L235,305L234,306L235,307L236,308L236,308L235,309L236,310L237,310L237,311L238,312Z " data-fips="CH32" data-hasc="CN.SC" data-name="Sichuan" data-postal="SC" data-varname="Schuan"/><path d="M236,364L235,363L235,361L235,360L235,359L235,358L234,357L234,356L234,355L233,354L234,353L235,352L235,351L236,351L237,352L238,352L239,352L240,352L241,351L242,349L243,348L244,349L245,349L246,350L247,351L248,352L249,352L250,351L250,350L251,350L252,348L253,349L253,350L254,350L254,349L255,348L256,349L257,350L258,351L259,351L259,350L259,349L260,348L261,348L261,349L262,350L264,349L265,348L266,348L267,348L267,347L267,345L268,345L270,344L271,344L272,343L273,343L274,344L274,345L275,344L275,343L276,342L277,341L278,341L279,341L280,341L281,340L281,339L281,338L281,336L280,335L279,335L278,335L277,335L276,335L276,334L275,334L274,335L273,335L272,334L271,334L271,333L271,332L270,331L269,331L268,331L267,330L266,331L265,330L264,329L264,328L265,327L265,326L265,325L266,324L266,323L266,322L266,321L265,320L265,319L264,319L263,318L262,317L262,316L263,316L264,314L264,313L264,313L265,312L265,311L266,310L266,309L265,308L265,307L264,306L263,306L262,306L261,306L260,307L259,307L257,307L257,306L257,305L257,304L257,302L257,302L256,302L256,301L258,299L259,298L260,298L261,299L262,299L262,298L263,298L264,298L265,299L267,299L268,299L269,299L270,298L271,298L272,297L272,296L272,295L273,294L272,293L272,292L272,291L270,290L269,291L269,292L268,293L267,293L266,293L265,293L264,292L263,291L264,290L264,289L264,288L263,288L263,287L262,286L263,285L264,285L263,284L262,284L261,284L260,284L259,284L258,285L259,287L258,288L257,288L256,288L255,290L254,291L255,291L255,293L255,293L253,295L253,296L252,296L251,297L250,298L249,298L249,299L249,301L249,302L249,303L250,304L250,305L250,306L250,307L250,308L250,309L248,309L248,309L247,310L246,310L246,309L245,309L244,309L243,310L242,311L241,311L239,311L238,312L237,311L237,310L236,310L235,309L236,308L236,308L235,307L234,306L235,305L235,304L234,304L234,303L232,301L232,300L231,299L230,298L230,297L230,296L229,295L227,291L226,292L225,291L224,293L224,292L223,291L223,290L222,289L221,288L222,287L223,286L222,285L221,285L221,283L220,283L220,282L219,281L219,280L218,280L217,281L217,283L216,283L215,284L215,285L215,287L214,286L214,286L213,284L213,283L213,282L213,281L213,280L213,279L213,277L213,275L212,276L212,277L211,278L211,279L211,280L210,279L210,278L209,278L208,279L209,280L208,281L208,282L208,283L208,284L207,285L206,286L205,285L205,284L204,285L203,287L203,287L203,287L203,288L203,289L203,290L203,291L204,292L204,293L205,293L206,292L207,293L208,293L208,294L208,296L208,297L208,298L208,300L208,301L208,302L208,303L208,304L207,305L207,307L207,308L206,309L206,310L206,311L207,312L205,312L204,313L204,314L203,315L202,315L201,315L201,316L200,317L199,318L198,319L197,318L197,320L196,321L196,322L197,323L196,323L194,324L194,325L194,327L195,327L195,329L196,330L196,331L194,333L195,333L197,332L197,332L199,331L200,331L201,331L203,331L204,331L205,332L206,331L207,332L205,333L205,334L205,335L206,335L206,336L206,338L207,339L207,340L207,341L207,342L208,343L209,343L210,343L211,343L212,343L213,344L213,345L212,345L212,346L211,347L211,349L211,350L210,351L210,352L209,353L210,354L211,354L212,354L213,354L214,354L215,355L216,355L217,355L217,356L217,358L217,359L218,360L218,361L219,362L220,361L221,361L222,362L223,362L225,361L226,360L227,359L228,359L229,359L229,361L230,362L230,363L230,364L230,365L231,365L233,365L234,365L235,365Z " data-fips="CH29" data-hasc="CN.YN" data-name="Yunnan" data-postal="YN" data-varname="Ynnn"/><path d="M360,199L361,198L362,198L363,199L363,196L363,196L362,194L363,193L363,192L364,191L365,191L365,190L366,189L367,188L367,187L367,186L367,185L368,184L369,184L369,183L370,182L370,182L371,183L372,182L372,181L373,180L374,179L375,178L376,178L377,178L378,178L379,178L380,177L380,176L380,175L381,175L382,174L382,173L382,173L380,171L379,169L378,170L376,170L375,170L375,169L374,169L373,168L372,168L372,167L372,166L373,164L372,163L372,161L372,160L372,159L370,159L370,160L369,160L368,161L367,160L366,160L365,160L364,160L363,161L362,160L361,160L360,159L361,158L360,157L360,156L360,155L363,154L363,153L364,152L362,150L363,149L364,149L365,148L365,147L366,147L367,147L366,145L367,145L368,144L369,145L371,146L372,147L373,147L374,147L376,147L375,148L374,148L374,149L375,150L375,151L376,152L377,152L378,153L379,153L379,154L378,154L377,154L377,155L378,156L378,157L379,158L380,159L380,158L381,159L381,160L382,161L382,162L383,162L384,163L385,164L386,163L387,162L388,162L389,162L390,161L390,162L391,161L392,160L392,159L392,158L392,157L393,156L393,155L394,154L395,153L395,152L397,152L397,152L396,151L396,150L395,150L394,149L394,147L394,146L393,146L391,146L390,145L389,145L387,144L387,143L388,142L388,141L389,140L389,139L389,138L386,138L385,138L383,138L382,138L382,137L381,136L380,135L380,134L381,134L381,133L381,131L380,130L379,131L379,130L378,129L378,128L377,127L377,126L376,125L375,126L374,125L373,126L373,127L372,127L370,127L369,128L369,129L369,130L369,131L369,132L368,133L367,134L366,134L365,133L365,134L363,135L363,135L361,134L361,135L360,135L359,136L357,137L357,138L356,138L355,138L353,138L353,136L354,135L353,134L353,133L352,133L351,133L350,134L350,135L349,135L348,136L348,137L347,140L346,140L346,141L346,143L346,143L346,144L345,145L346,146L347,147L347,148L348,148L349,150L349,151L350,152L351,153L350,154L349,154L348,156L347,156L348,157L349,158L351,158L351,159L351,160L352,161L353,162L352,163L352,164L352,165L351,166L351,167L350,167L349,166L348,167L347,168L347,169L347,170L347,171L346,172L345,173L345,174L345,175L345,176L346,177L348,177L348,178L349,179L349,181L350,181L351,182L351,183L350,185L349,186L349,187L348,188L348,189L348,190L348,191L348,192L347,193L346,193L346,194L346,195L347,196L348,196L349,197L350,197L351,197L352,198L354,198L355,198L356,199L357,199L359,199L360,199Z " data-fips="CH10" data-hasc="CN.HB" data-name="Hebei" data-postal="HB" data-varname="Hbei"/><path d="M368,249L368,248L369,247L370,246L371,246L372,246L372,245L372,243L372,241L372,239L371,238L372,237L371,238L370,238L369,239L368,239L368,238L367,238L366,238L365,237L365,235L364,234L363,234L362,234L362,233L362,232L364,232L365,232L365,231L366,230L365,229L366,228L366,227L368,226L368,225L368,223L367,222L368,221L369,221L370,221L371,222L371,223L372,224L373,224L375,223L375,223L376,222L377,221L376,220L376,219L376,218L375,218L374,217L373,217L372,216L372,215L371,215L370,215L369,215L368,215L367,215L366,215L365,214L365,213L364,213L363,213L363,212L361,211L360,211L360,209L360,209L361,207L362,207L363,206L364,205L364,204L365,203L365,203L366,202L367,201L368,201L368,200L369,200L370,198L368,199L367,199L366,200L365,201L364,202L363,202L364,200L364,199L363,199L362,198L361,198L360,199L360,199L359,199L357,199L356,199L355,198L354,198L352,198L351,197L350,197L349,197L348,198L348,199L348,200L348,201L348,203L348,204L348,205L347,206L346,207L345,207L345,208L344,208L343,209L342,210L340,210L339,209L339,210L338,210L335,210L334,211L334,212L333,212L332,212L331,213L331,214L330,215L329,215L328,215L327,215L326,216L325,216L324,217L323,217L322,218L321,218L320,218L319,218L319,219L319,220L320,220L320,221L321,222L322,223L322,224L322,225L322,226L323,227L324,228L324,228L325,229L326,230L326,231L326,232L326,233L327,234L328,235L328,236L329,237L330,238L330,238L331,239L332,239L333,240L335,241L336,241L337,242L338,242L340,242L341,242L343,242L345,241L346,241L347,241L348,241L349,242L350,242L350,241L351,241L352,241L352,242L352,243L352,244L353,246L353,247L354,247L355,247L356,246L357,247L358,248L359,247L360,248L360,249L361,249L362,250L363,250L364,250L365,249L366,249L366,250L367,250Z " data-fips="CH09" data-hasc="CN.HE" data-name="Henan" data-postal="HE" data-varname="Hnn"/><path d="M411,163L413,163L413,162L414,161L413,160L415,160L416,161L415,160L416,159L417,159L417,158L418,156L419,155L420,155L420,154L421,153L422,153L423,152L424,151L425,151L425,150L426,150L427,149L427,150L428,149L429,148L430,148L431,148L432,148L433,147L434,146L434,145L434,144L435,143L436,142L437,141L438,140L439,140L439,139L440,138L440,137L441,137L442,136L442,135L443,135L443,134L443,134L443,133L443,132L443,131L442,130L442,129L441,128L440,126L439,126L438,125L438,124L438,123L438,122L438,120L437,120L437,119L436,119L436,118L435,117L434,116L433,115L433,114L432,114L432,113L432,112L431,111L430,112L430,113L429,114L428,114L428,113L428,112L427,111L426,111L425,110L424,110L424,110L423,109L422,109L422,110L422,111L422,112L422,113L419,114L418,115L418,116L418,117L416,118L415,118L413,117L412,118L413,119L412,120L411,119L410,119L409,120L409,121L408,122L407,122L406,122L405,122L402,125L401,126L400,126L400,127L399,128L398,129L398,130L397,131L396,132L395,132L395,131L394,130L394,129L393,127L392,127L391,127L390,126L390,127L389,127L389,128L390,129L389,130L389,131L389,133L390,134L390,135L391,136L391,137L389,139L389,140L388,141L388,142L387,143L387,144L389,145L390,145L391,146L393,146L394,146L394,147L394,149L395,150L396,150L396,151L397,152L397,152L397,151L399,150L400,149L401,149L402,148L402,147L402,146L403,145L404,144L404,143L405,142L405,141L406,141L406,140L408,140L409,140L410,140L411,140L412,139L412,140L414,141L415,141L415,142L416,143L416,144L415,145L415,146L414,147L414,149L413,149L412,150L412,151L411,152L411,153L411,154L410,154L409,155L410,155L411,155L412,157L414,156L415,156L414,156L414,157L413,158L413,158L413,160L412,160L411,161L410,162L409,162L409,163L410,163Z " data-fips="CH19" data-hasc="CN.LN" data-name="Liaoning" data-postal="LN" data-varname="Lionng"/><path d="M368,215L369,215L370,215L371,215L372,215L373,215L374,214L374,213L374,212L375,211L376,210L377,210L379,211L379,212L380,213L381,214L382,215L382,214L383,214L384,215L385,215L385,214L386,214L387,212L388,212L389,213L390,214L390,215L391,215L392,214L392,213L393,211L393,211L395,211L395,210L395,209L396,208L396,207L398,207L399,206L400,206L400,205L401,203L401,202L402,201L402,200L403,200L404,199L404,198L405,198L405,197L406,196L406,195L406,194L405,194L406,193L407,192L407,193L407,194L408,194L409,193L410,192L410,191L410,190L411,189L411,190L412,189L412,188L411,188L410,188L411,187L412,188L413,187L413,187L415,185L416,184L417,185L418,184L418,183L420,183L420,182L421,183L422,182L422,183L424,183L424,182L425,182L425,181L424,181L424,180L425,179L425,178L425,177L425,176L424,177L423,177L422,176L421,177L420,176L419,176L419,177L417,177L416,178L415,177L414,176L413,176L412,176L411,175L410,175L410,174L409,174L408,174L407,175L406,176L405,176L404,177L404,177L404,178L402,180L401,181L401,182L400,183L399,183L398,184L396,184L395,183L393,182L393,181L393,180L393,178L394,177L393,177L393,175L392,174L391,174L391,173L389,174L388,174L386,174L385,174L384,174L383,173L382,173L382,174L381,175L380,175L380,176L380,177L379,178L378,178L377,178L376,178L375,178L374,179L373,180L372,181L372,182L371,183L370,182L370,182L369,183L369,184L368,184L367,185L367,186L367,187L367,188L366,189L365,190L365,191L364,191L363,192L363,193L362,194L363,196L363,196L364,199L364,200L363,202L364,202L365,201L366,200L367,199L368,199L370,198L369,200L368,200L368,201L367,201L366,202L365,203L365,203L364,204L364,205L363,206L362,207L361,207L360,209L360,209L360,211L361,211L363,212L363,213L364,213L365,213L365,214L366,215L367,215Z " data-fips="CH25" data-hasc="CN.SD" data-name="Shandong" data-postal="SD" data-varname="Shandong"/><path d="M375,158L375,157L375,156L374,155L374,154L375,153L373,154L371,154L371,155L371,156L372,156L372,158L373,158L374,158Z " data-fips="CH22" data-hasc="CN.TJ" data-name="Tianjin" data-postal="TJ" data-varname="Tianjin"/><path d="M378,170L379,169L379,168L379,167L380,165L380,163L381,162L382,162L382,161L381,160L381,159L380,158L380,159L379,158L378,157L378,156L377,155L377,154L378,154L379,154L379,153L378,153L377,152L376,152L376,152L375,153L374,154L374,155L375,156L375,157L375,158L374,158L373,158L372,159L372,159L372,160L372,161L372,163L373,164L372,166L372,167L372,168L373,168L374,169L375,169L375,170L376,170Z " data-fips="CH28" data-hasc="CN.TJ" data-name="Tianjin" data-postal="TJ" data-varname="Tianjin"/><path d="M365,326L366,326L367,326L368,325L369,325L370,325L371,325L372,324L373,324L374,323L375,324L376,325L377,326L378,325L377,324L377,323L378,322L379,322L378,321L378,320L378,319L378,317L379,316L379,315L379,314L379,313L380,312L380,311L381,310L382,310L382,308L383,307L382,306L383,305L383,304L384,304L384,303L383,302L383,301L383,299L384,298L385,298L386,298L387,297L388,296L388,295L389,294L388,293L388,292L388,290L389,289L389,288L390,287L391,286L392,287L393,288L394,288L394,287L395,286L396,286L397,285L399,284L400,283L400,282L400,282L400,281L400,279L399,278L399,277L399,276L398,275L397,275L396,274L395,273L395,272L396,271L396,269L395,268L394,269L393,268L391,269L391,268L390,268L389,267L388,266L387,266L387,265L386,265L385,266L386,267L385,268L384,269L383,269L382,269L382,268L382,267L383,266L383,265L382,264L381,264L381,265L380,266L379,266L378,267L377,268L375,268L374,268L373,268L371,267L370,267L370,269L369,270L368,270L367,270L367,271L366,271L365,272L364,272L364,273L362,273L361,274L360,274L359,274L358,275L357,276L356,276L356,278L357,279L358,280L358,281L358,282L358,283L359,284L359,285L359,286L358,286L357,287L357,289L356,289L355,290L355,291L354,292L354,293L353,294L354,296L355,297L356,296L356,297L356,298L356,299L356,300L357,300L357,301L357,303L358,304L359,305L359,306L359,306L359,308L358,309L359,309L360,308L361,309L360,310L359,310L359,312L358,313L358,314L358,315L359,316L358,317L359,318L359,319L360,318L362,319L363,318L363,317L364,317L365,318L366,318L366,320L366,321L365,321L364,322L363,323L363,324L362,325L362,326L363,326L364,327Z " data-fips="CH03" data-hasc="CN.JX" data-name="Jiangxi" data-postal="JX" data-varname="Jiangxi"/><path d="M418,251L418,250L419,249L420,249L420,248L421,247L422,246L421,245L422,244L423,243L423,243L422,242L421,241L419,241L418,241L418,240L417,239L416,239L414,239L413,239L411,240L410,240L409,239L408,238L408,237L407,237L407,236L408,236L409,237L409,238L410,239L411,240L413,239L413,239L415,237L416,237L418,238L419,240L420,239L421,240L422,239L423,239L425,240L426,240L427,240L428,240L428,239L427,238L426,237L425,236L424,236L423,236L423,234L422,233L421,232L420,232L419,232L418,232L417,231L417,230L417,229L417,227L416,227L416,225L415,224L414,224L414,222L413,221L412,220L412,219L411,218L411,217L410,216L410,215L409,213L407,213L406,212L405,212L404,212L403,212L402,211L401,210L400,210L399,210L398,209L399,208L399,207L399,206L398,207L396,207L396,208L395,209L395,210L395,211L393,211L393,211L392,213L392,214L391,215L390,215L390,214L389,213L388,212L387,212L386,214L385,214L385,215L384,215L383,214L382,214L382,215L381,214L380,213L379,212L379,211L377,210L376,210L375,211L374,212L374,213L374,214L375,214L376,215L377,216L378,216L379,216L379,217L380,218L381,219L382,219L383,219L384,219L385,220L386,221L387,221L387,222L388,223L390,222L391,222L391,223L391,225L390,225L390,227L390,228L390,229L391,229L392,228L392,229L393,230L393,231L393,232L394,233L396,233L397,233L397,231L398,231L399,230L400,230L401,231L401,232L402,233L402,234L401,235L400,235L399,234L398,234L397,234L396,234L396,235L397,236L397,237L397,238L396,239L395,240L395,241L396,242L396,243L397,244L398,244L399,244L400,245L400,246L400,247L399,248L400,249L402,249L403,248L404,248L405,249L406,249L407,249L408,249L409,249L409,249L410,249L411,250L412,250L414,251L415,250L416,251L417,252Z M409,238L408,237L408,238L409,238Z " data-fips="CH04" data-hasc="CN.JS" data-name="Jiangsu" data-postal="JS" data-varname="Jiangsu"/><path d="M424,252L425,251L426,250L428,249L429,249L429,248L427,246L427,245L425,244L424,244L423,243L422,244L421,245L422,246L421,247L420,248L420,249L421,249L421,250L421,251L422,251L423,251L424,252Z M428,242L427,242L425,241L424,241L424,240L423,240L422,240L423,241L424,242L425,242L426,243L427,243Z " data-fips="CH23" data-hasc="CN.SH" data-name="Shanghai" data-postal="SH" data-varname="Shnghai"/><path d="M421,291L421,290L422,289L422,288L421,287L422,286L423,285L424,284L424,283L422,282L421,282L421,281L422,282L423,282L424,282L425,282L425,280L426,280L425,279L427,278L427,279L428,279L429,278L430,278L431,278L430,277L430,276L429,275L428,274L427,274L426,273L425,273L426,273L427,274L429,274L430,273L430,272L429,271L430,270L430,270L429,270L429,269L428,269L427,269L428,268L429,267L429,268L429,267L429,268L430,267L431,266L431,267L431,268L432,268L432,267L432,266L432,265L432,264L432,263L431,263L430,264L430,265L429,264L428,265L427,266L428,265L429,264L429,264L431,261L432,261L432,260L431,260L430,259L429,259L428,259L427,258L426,257L425,256L424,256L423,257L421,258L420,259L419,259L420,260L419,259L418,259L417,257L416,258L416,258L415,258L414,259L415,258L416,257L417,256L419,256L419,257L420,256L421,255L421,254L422,253L423,253L424,252L423,251L422,251L421,251L421,250L421,249L420,249L419,249L418,250L418,251L417,252L416,251L415,250L414,251L412,250L411,250L410,249L409,249L409,249L408,249L408,252L407,253L407,254L406,255L405,255L405,256L406,257L407,258L406,258L405,259L404,259L403,259L402,259L402,260L402,261L402,262L402,263L401,265L401,266L400,267L399,268L398,269L397,269L396,271L395,272L395,273L396,274L397,275L398,275L399,276L399,277L399,278L400,279L400,281L400,282L401,282L402,281L403,281L404,282L404,283L403,285L404,285L404,287L405,288L406,289L406,290L407,290L408,291L409,290L410,289L411,289L411,288L412,287L413,288L413,289L413,290L414,291L415,291L416,290L417,290L418,289L419,290L420,290L420,291L420,291L421,292Z M428,281L427,279L427,279L426,280L427,281Z M434,257L433,257L432,257L431,257L431,258L432,258L433,258L434,258Z " data-fips="CH02" data-hasc="CN.ZJ" data-name="Zhejiang" data-postal="ZJ" data-varname="Zhjiang"/><path d="M444,134L445,133L446,133L446,132L447,131L447,129L448,128L449,127L448,126L449,125L449,124L449,123L450,123L451,122L452,123L453,124L454,124L455,125L456,124L457,124L458,124L459,124L460,124L461,124L462,124L462,122L462,121L461,120L460,119L460,118L461,117L462,117L464,116L464,116L466,116L467,115L467,114L468,113L468,112L468,111L469,110L470,111L470,110L471,109L471,108L471,107L471,106L471,105L471,104L472,104L473,104L474,104L474,106L475,106L476,107L477,106L477,106L476,105L477,104L478,104L479,103L480,103L480,102L480,101L480,100L480,99L480,98L480,97L480,96L480,96L479,96L478,96L477,97L476,96L475,96L474,95L473,94L472,93L471,92L471,91L471,92L470,93L469,94L469,93L468,92L467,93L467,94L465,95L464,96L464,96L464,98L464,99L462,99L461,99L460,98L460,97L459,96L458,96L457,95L457,94L456,93L456,92L455,90L454,91L454,92L453,93L453,94L453,95L451,96L450,95L450,94L449,93L448,92L449,91L448,91L446,91L445,91L444,91L444,90L443,89L444,88L443,87L442,86L441,86L440,86L439,85L438,86L437,86L436,87L434,87L433,86L432,85L432,84L431,84L430,84L430,85L429,85L428,86L427,85L426,85L425,86L424,86L423,86L422,86L421,85L420,85L420,84L419,83L419,82L418,81L418,80L417,79L417,78L417,78L416,78L412,79L411,80L411,80L411,81L409,82L409,84L409,85L409,86L408,85L407,85L406,84L405,85L404,85L404,84L403,84L401,84L402,85L401,86L401,87L402,87L403,87L404,88L404,89L405,89L406,90L406,91L406,92L405,93L405,94L406,96L406,98L406,98L408,100L408,101L409,102L410,102L411,101L412,101L413,100L414,99L415,99L415,100L416,101L417,102L417,102L418,104L418,105L419,106L420,107L419,108L419,109L420,109L421,110L422,110L422,109L423,109L424,110L424,110L425,110L426,111L427,111L428,112L428,113L428,114L429,114L430,113L430,112L431,111L432,112L432,113L432,114L433,114L433,115L434,116L435,117L436,118L436,119L437,119L437,120L438,120L438,122L438,123L438,124L438,125L439,126L440,126L441,128L442,129L442,130L443,131L443,132L443,133L443,134L443,134Z " data-fips="CH05" data-hasc="CN.JL" data-name="Jilin" data-postal="JL" data-varname="Jln"/><path d="M266,187L267,186L269,186L271,186L272,185L273,184L274,184L276,184L277,184L278,183L278,182L278,180L278,179L279,178L278,177L279,175L279,173L280,172L280,171L281,170L281,169L282,169L282,168L283,167L284,167L285,167L286,166L287,167L288,169L288,170L288,171L287,173L286,174L286,176L285,177L284,178L285,179L286,179L287,179L289,180L290,180L291,180L292,181L293,182L296,183L297,184L298,185L299,185L302,185L303,185L304,184L304,183L304,182L305,181L305,182L306,181L306,180L306,179L306,178L306,177L307,176L307,175L308,174L309,173L309,172L311,172L311,171L312,170L313,169L314,168L315,167L315,166L317,166L318,166L318,165L319,166L320,166L321,165L322,164L323,163L324,163L323,164L323,165L325,164L326,164L326,162L328,162L329,162L330,161L331,160L331,159L332,158L333,156L333,155L334,154L335,155L336,155L338,155L338,154L340,153L341,153L341,153L343,154L345,152L346,152L347,152L348,151L348,150L348,149L348,148L347,148L347,147L346,146L345,145L346,144L346,143L346,143L346,141L346,140L347,140L348,137L348,136L349,135L350,135L350,134L351,133L352,133L353,133L353,134L354,135L353,136L353,138L355,138L356,138L357,138L357,137L359,136L360,135L361,135L361,134L363,135L363,135L365,134L365,133L366,134L367,134L368,133L369,132L369,131L369,130L369,129L369,128L370,127L372,127L373,127L373,126L374,125L375,126L376,125L377,126L377,127L378,128L378,129L379,130L379,131L380,130L381,131L381,133L381,134L380,134L380,135L381,136L382,137L382,138L383,138L385,138L386,138L389,138L391,137L391,136L390,135L390,134L389,133L389,131L389,130L390,129L389,128L389,127L390,127L390,126L391,127L392,127L393,127L394,129L394,130L395,131L395,132L396,132L397,131L398,130L398,129L399,128L400,127L400,126L401,126L402,125L405,122L406,122L407,122L408,122L409,121L409,120L410,119L411,119L412,120L413,119L412,118L413,117L415,118L416,118L418,117L418,116L418,115L419,114L422,113L422,112L422,111L422,110L421,110L420,109L419,109L419,108L420,107L419,106L418,105L418,104L417,102L417,102L416,101L415,100L415,99L414,99L413,100L412,101L411,101L410,102L409,102L408,101L408,100L406,98L406,98L406,96L405,94L405,93L406,92L406,91L406,90L405,89L404,89L404,88L403,87L402,87L401,87L401,86L402,85L401,84L403,84L404,84L404,85L405,85L406,84L407,85L408,85L409,86L409,85L409,84L409,82L411,81L411,80L411,80L410,78L409,77L410,75L411,76L412,75L413,74L413,73L413,72L412,73L411,72L411,73L410,74L409,73L407,71L406,71L405,70L404,69L403,69L404,68L404,66L405,65L407,63L408,62L409,61L410,59L411,58L413,54L414,54L415,55L415,56L416,57L417,57L417,56L416,55L416,53L416,52L416,51L416,50L416,49L417,47L417,46L417,45L419,45L419,44L419,43L419,42L418,41L418,40L418,38L418,37L417,36L417,35L417,34L418,33L418,32L419,31L419,30L420,29L419,28L419,27L420,26L420,25L420,24L419,23L418,22L417,22L416,21L416,20L415,20L414,19L412,19L412,20L411,21L411,22L410,22L408,23L408,24L406,23L405,24L404,24L404,25L403,25L402,25L400,25L399,25L398,24L397,24L397,22L396,21L396,19L395,16L395,15L393,15L392,14L391,13L390,14L390,15L389,16L388,16L387,15L386,14L385,14L383,13L385,11L386,9L387,8L386,7L385,7L385,6L383,5L383,5L383,5L382,6L381,6L380,6L379,7L379,8L378,9L377,10L377,11L376,12L376,13L376,14L377,14L378,14L379,14L380,15L380,16L380,17L381,17L382,18L382,19L382,20L381,21L380,22L379,23L378,25L378,26L378,27L377,28L377,29L377,30L377,31L376,32L376,33L375,34L376,35L375,36L374,37L374,38L374,39L375,40L376,41L376,42L375,43L374,44L373,44L372,44L370,45L370,46L369,47L368,48L367,49L366,49L365,50L363,49L362,49L360,49L357,47L356,51L354,58L354,59L353,63L353,65L351,67L351,68L352,69L355,71L356,70L357,69L359,69L361,68L363,69L366,70L366,69L368,66L369,66L370,66L372,66L373,66L374,66L376,68L377,68L378,69L379,70L380,70L380,71L382,72L383,73L384,74L384,74L385,76L385,77L386,78L386,79L385,79L384,80L383,80L382,80L379,80L379,79L377,79L377,80L376,80L374,80L373,80L372,81L371,81L370,82L369,83L368,82L367,83L367,84L367,85L364,85L363,85L362,86L361,87L360,88L359,91L359,92L359,93L358,93L356,95L355,96L354,96L353,97L351,97L350,97L348,97L347,98L346,99L345,100L345,101L344,102L343,103L342,103L341,104L340,105L339,105L336,105L335,104L333,104L332,104L332,103L330,102L328,102L327,102L326,103L325,103L324,107L324,108L323,109L323,110L324,111L324,112L325,114L327,115L328,116L327,117L326,118L325,120L323,120L321,121L320,122L319,124L318,125L318,126L317,127L316,128L313,130L312,130L310,131L309,132L307,132L304,132L303,133L301,132L299,132L298,132L297,132L287,134L279,137L276,139L275,140L274,140L272,141L271,141L268,141L268,138L261,139L256,137L247,134L247,133L245,130L243,130L241,130L231,128L228,129L227,129L214,126L209,125L209,125L213,138L211,139L211,141L212,143L213,144L215,146L216,146L215,150L217,151L218,150L220,149L223,148L226,148L227,147L230,147L231,149L232,150L231,152L230,153L229,154L226,156L225,157L225,158L227,159L228,159L230,160L231,161L231,162L232,163L233,163L233,164L236,164L236,165L236,167L236,168L238,169L239,169L239,170L239,171L240,172L242,173L243,173L245,172L246,171L246,170L245,169L246,168L249,167L250,167L252,168L253,168L254,168L255,168L256,167L258,166L261,165L263,165L263,166L265,169L264,170L263,171L263,173L262,173L261,174L258,176L258,177L259,179L258,179L257,181L257,182L259,183L261,185L263,187L264,188L266,188Z " data-fips="CH20" data-hasc="CN.NM" data-name="Nei Mongol" data-postal="NM" data-varname="Inner Mongol|Nimenggu"/><path d="M464,99L464,98L464,96L464,96L465,95L467,94L467,93L468,92L469,93L469,94L470,93L471,92L471,91L471,92L472,93L473,94L474,95L475,96L476,96L477,97L478,96L479,96L480,96L480,96L479,95L479,94L479,93L478,92L478,91L478,89L474,82L473,82L474,81L475,81L476,80L477,79L477,77L478,76L479,75L480,75L487,75L488,75L488,75L488,73L488,72L488,71L488,70L489,69L489,68L489,67L489,66L489,65L490,64L489,63L489,61L490,60L490,60L489,59L489,58L489,56L489,55L489,54L489,53L489,52L489,51L489,50L488,49L489,48L489,47L490,46L490,45L491,44L491,43L490,42L489,41L488,40L489,39L488,37L487,37L486,37L485,37L483,38L482,39L482,40L481,41L480,42L479,42L478,42L478,43L477,44L476,45L476,46L475,47L475,48L474,48L473,48L472,49L471,49L470,50L469,50L467,50L465,51L464,51L464,50L463,49L461,47L461,46L461,45L461,44L460,43L459,43L458,42L458,39L457,40L456,39L455,40L454,39L453,39L452,38L451,37L450,37L449,37L449,36L448,35L447,37L446,36L445,37L444,36L443,36L443,35L441,35L440,36L439,36L438,37L437,36L436,36L435,36L435,35L433,34L433,33L433,32L433,31L433,30L431,30L431,28L430,27L430,26L429,25L429,25L428,23L427,23L426,22L425,20L425,19L424,20L425,19L424,18L423,17L423,16L422,15L420,12L420,11L418,11L419,10L418,9L417,8L417,7L415,7L416,6L415,5L413,4L412,4L412,3L411,3L410,3L407,2L406,3L405,2L404,3L403,2L402,1L401,2L400,1L399,0L397,0L396,1L396,1L395,0L394,1L393,2L389,3L388,3L388,3L386,3L385,4L383,5L385,6L385,7L386,7L387,8L386,9L385,11L383,13L385,14L386,14L387,15L388,16L389,16L390,15L390,14L391,13L392,14L393,15L395,15L395,16L396,19L396,21L397,22L397,24L398,24L399,25L400,25L402,25L403,25L404,25L404,24L405,24L406,23L408,24L408,23L410,22L411,22L411,21L412,20L412,19L414,19L415,20L416,20L416,21L417,22L418,22L419,23L420,24L420,25L420,26L419,27L419,28L420,29L419,30L419,31L418,32L418,33L417,34L417,35L417,36L418,37L418,38L418,40L418,41L419,42L419,43L419,44L419,45L417,45L417,46L417,47L416,49L416,50L416,51L416,52L416,53L416,55L417,56L417,57L416,57L415,56L415,55L414,54L413,54L411,58L410,59L409,61L408,62L407,63L405,65L404,66L404,68L403,69L404,69L405,70L406,71L407,71L409,73L410,74L411,73L411,72L412,73L413,72L413,73L413,74L412,75L411,76L410,75L409,77L410,78L411,80L412,79L416,78L417,78L417,78L417,79L418,80L418,81L419,82L419,83L420,84L420,85L421,85L422,86L423,86L424,86L425,86L426,85L427,85L428,86L429,85L430,85L430,84L431,84L432,84L432,85L433,86L434,87L436,87L437,86L438,86L439,85L440,86L441,86L442,86L443,87L444,88L443,89L444,90L444,91L445,91L446,91L448,91L449,91L448,92L449,93L450,94L450,95L451,96L453,95L453,94L453,93L454,92L454,91L455,90L456,92L456,93L457,94L457,95L458,96L459,96L460,97L460,98L461,99L462,99Z " data-fips="CH08" data-hasc="CN.HL" data-name="Heilongjiang" data-postal="HL" data-varname="Heilngjiang"/></g></svg>