<?xml version="1.0" ?><!DOCTYPE svg  PUBLIC '-//W3C//DTD SVG 1.1//EN'  'http://www.w3.org/Graphics/SVG/1.1/DTD/svg11.dtd'><svg enable_background="new 0 0 500 401" height="401px" style="stroke-linejoin: round; stroke:#000; fill:#f6f3f0;" version="1.1" viewBox="0 0 500 401" width="500px" xmlns="http://www.w3.org/2000/svg" xmlns:xlink="http://www.w3.org/1999/xlink"><defs><style type="text/css"><![CDATA[path { fill-rule: evenodd; }
#context path { fill: #eee; stroke: #bbb; } ]]></style></defs><metadata><views><view h="401" padding="0" w="500"><proj id="laea" lat0="32.565" lon0="54.301"/><bbox h="183.1" w="197.2" x="901.79" y="906.7"/><llbbox lat0="-90" lat1="90" lon0="-180" lon1="180"/></view></views></metadata><g id="admin1"><path d="M163,267L165,266L170,267L177,263L177,262L177,261L177,259L177,258L176,256L176,253L178,254L181,255L182,256L183,257L185,257L186,257L188,256L188,255L188,254L188,251L187,250L184,248L182,245L180,242L180,240L178,240L177,241L176,242L172,241L163,233L162,233L158,232L156,231L155,233L152,235L149,236L148,238L148,239L149,243L149,244L149,245L149,247L153,247L154,248L155,250L158,251L159,252L159,253L158,256L158,258L159,259L159,261L159,265L162,266L163,267Z " data-fips="IR05" data-hasc="IR.KB" data-name="Kohgiluyeh and Buyer Ahmad" data-postal="KB" data-varname="Bovir Ahmadi and Kohkiluyeh|Boyer-Ahmad and Koh-Giluye|Boyer Ahmad e Kohkiluyeh|Boyer Ahmadi-ye Sardir va Kohkiluyeh|Kohgil"/><path d="M211,343L212,343L214,343L215,343L216,343L217,342L213,339L210,336L207,332L203,325L201,322L200,322L199,321L196,311L195,309L185,288L183,286L181,286L180,284L178,281L177,278L176,277L173,276L167,275L166,274L165,271L164,270L163,268L163,267L162,266L159,265L156,264L154,264L152,264L150,265L151,265L151,266L152,268L152,269L152,271L152,272L153,273L154,274L155,275L156,277L157,279L158,280L159,281L160,281L161,283L163,284L163,285L164,286L164,287L164,289L164,290L163,291L163,292L163,294L164,294L165,294L168,294L169,295L170,296L170,297L169,298L169,299L168,299L167,298L167,299L167,300L168,302L170,303L171,303L172,304L173,305L173,306L173,311L175,314L175,315L176,317L177,318L178,319L177,321L177,322L179,324L181,325L181,326L182,327L183,328L184,329L185,329L188,330L189,329L190,329L192,330L194,330L195,330L196,330L196,331L199,334L200,334L205,336L206,336L208,338L209,340L210,340L210,341L209,342L208,342L208,343L210,344Z " data-fips="IR22" data-hasc="IR.BS" data-name="Bushehr" data-postal="BS" data-varname="Banader va Jazayer-e Khalij-e Fars|Bushire|Persian Gulf|Ports and Islands of the Persian Gulf"/><path d="M189,251L190,249L190,248L190,246L192,241L193,238L193,236L193,234L191,233L190,233L189,232L188,230L191,230L192,230L195,228L197,227L200,226L200,227L201,229L202,230L207,231L208,231L215,225L216,223L216,219L217,216L217,214L217,205L218,204L220,204L221,203L222,202L223,201L226,200L227,200L234,202L258,194L261,192L262,191L263,189L264,187L265,183L266,181L268,180L270,180L271,179L273,176L273,174L272,155L271,154L218,156L217,156L207,152L206,152L200,152L198,152L193,149L186,151L184,151L179,152L177,152L176,154L175,159L176,161L176,162L174,167L173,168L172,168L170,169L169,170L168,171L158,173L155,175L153,176L152,177L152,179L152,180L149,185L149,186L145,187L144,188L144,191L142,192L140,193L140,194L141,197L142,198L144,198L146,199L146,201L146,203L150,200L152,201L153,200L154,200L156,201L157,202L158,202L160,202L161,202L165,201L169,200L170,200L171,200L171,202L172,203L173,204L173,206L173,209L176,211L177,212L180,214L181,216L181,219L180,221L179,221L180,223L180,225L179,226L178,227L179,230L181,237L180,242L182,245L184,248L187,250L188,251Z " data-fips="IR28" data-hasc="IR.ES" data-name="Esfahan" data-postal="ES" data-varname="Isfahan|Ispahan"/><path d="M241,348L242,347L241,346L242,344L242,342L243,341L246,340L252,339L254,340L255,340L256,339L258,339L264,340L267,339L269,338L270,335L270,334L274,332L276,331L278,331L279,330L279,328L278,327L276,324L276,323L277,319L277,316L277,314L269,307L269,306L270,305L269,300L264,289L262,288L257,288L255,286L255,285L255,284L253,281L252,278L247,275L244,273L243,271L242,265L241,263L238,259L234,252L229,238L226,235L222,231L208,231L207,231L202,230L201,229L200,227L200,226L197,227L195,228L192,230L191,230L188,230L189,232L190,233L191,233L193,234L193,236L193,238L192,241L190,246L190,248L190,249L189,251L188,251L188,254L188,255L188,256L186,257L185,257L183,257L182,256L181,255L178,254L176,253L176,256L177,258L177,259L177,261L177,262L177,263L170,267L165,266L163,267L163,267L163,268L164,270L165,271L166,274L167,275L173,276L176,277L177,278L178,281L180,284L181,286L183,286L185,288L195,309L196,311L199,321L200,322L201,322L203,325L207,332L210,336L213,339L217,342L218,344L220,345L226,346L229,348L231,348L238,349Z " data-fips="IR07" data-hasc="IR.FA" data-name="Fars" data-postal="FA" data-varname=""/><path d="M253,98L256,96L257,95L261,92L264,90L266,90L274,91L275,90L276,88L276,85L278,81L282,75L283,74L283,74L285,71L287,70L288,69L291,68L292,67L291,65L291,64L289,64L289,63L289,62L289,59L289,58L289,57L289,55L288,55L284,55L284,55L283,55L282,55L281,54L279,54L275,55L273,55L271,56L270,57L269,57L268,58L267,58L266,59L265,60L264,61L261,64L260,65L259,67L260,67L260,68L260,70L259,71L257,72L256,72L254,72L250,74L249,75L248,75L247,75L241,75L241,78L242,79L242,82L243,83L243,85L243,85L243,89L240,89L236,89L237,90L237,91L242,94L244,97L245,98L249,98L251,98Z " data-fips="IR37" data-hasc="IR.GO" data-name="Golestan" data-postal="GO" data-varname=""/><path d="M203,116L206,113L208,111L209,111L211,112L213,113L215,114L217,114L218,114L220,114L222,115L222,115L224,115L225,115L226,114L228,114L229,114L231,113L233,112L234,111L235,109L237,108L238,107L238,104L239,103L240,101L241,100L243,99L245,98L244,97L242,94L237,91L237,90L236,89L236,89L235,88L234,87L235,87L237,88L238,87L239,87L240,87L242,87L243,86L243,85L242,86L240,87L231,87L224,89L220,90L216,91L213,92L209,92L205,93L201,94L197,95L194,93L190,93L186,91L180,90L178,89L175,87L171,85L170,84L169,83L169,84L168,85L167,85L166,86L165,88L164,91L168,96L170,97L173,100L177,102L179,103L180,104L184,105L185,107L187,108L191,109L194,110L196,112L197,115L198,116L200,117L201,117Z " data-fips="IR17" data-hasc="IR.MN" data-name="Mazandaran" data-postal="MN" data-varname=""/><path d="M271,154L272,155L273,155L275,155L281,155L284,154L291,140L295,136L297,133L300,131L305,129L306,127L310,120L310,118L309,117L303,112L303,111L302,108L301,103L302,100L302,98L303,96L302,93L301,93L297,94L296,93L294,93L293,93L290,91L288,88L287,86L288,85L288,83L287,82L288,81L289,80L288,80L286,79L283,74L282,75L278,81L276,85L276,88L275,90L274,91L266,90L264,90L261,92L257,95L256,96L253,98L251,98L249,98L245,98L243,99L241,100L240,101L239,103L238,104L238,107L237,108L235,109L234,111L233,112L231,113L229,114L228,114L226,114L225,115L224,115L222,115L222,115L222,118L222,121L222,123L218,127L216,128L213,129L212,128L207,127L205,127L204,126L200,124L198,123L197,122L196,122L195,125L195,126L195,128L195,129L197,132L198,134L198,136L197,137L196,139L196,142L196,144L195,146L194,148L193,149L198,152L200,152L206,152L207,152L217,156L218,156Z " data-fips="IR25" data-hasc="IR.SM" data-name="Semnan" data-postal="SM" data-varname=""/><path d="M197,137L198,136L198,134L197,132L195,129L195,128L195,126L195,125L196,122L197,122L198,123L200,124L204,126L205,127L207,127L212,128L213,129L216,128L218,127L222,123L222,121L222,118L222,115L220,114L218,114L217,114L215,114L213,113L211,112L209,111L208,111L206,113L203,116L201,117L200,117L198,116L197,115L196,112L194,110L191,109L187,108L185,107L184,105L180,104L179,103L177,102L168,100L166,100L165,101L166,103L167,104L168,104L169,105L169,107L167,110L167,111L166,111L162,113L161,114L160,116L161,118L162,118L165,119L167,119L169,120L168,118L169,118L170,119L170,121L171,122L172,120L173,120L174,122L174,123L174,125L172,131L178,131L183,133L196,139Z " data-fips="IR26" data-hasc="IR.TH" data-name="Tehran" data-postal="TH" data-varname="Teheran|Thran"/><path d="M253,277L256,277L256,276L256,275L256,273L255,264L255,263L254,260L253,257L251,254L251,253L252,251L253,249L255,247L268,244L271,244L273,245L277,244L281,242L281,240L282,232L282,230L295,223L296,221L301,219L302,217L305,217L330,226L331,223L334,220L334,217L337,213L338,212L338,210L338,209L338,207L337,206L336,204L336,203L335,202L336,201L336,199L336,196L334,194L332,192L330,191L328,190L326,187L324,176L323,174L322,173L316,174L312,174L311,172L309,165L309,160L312,152L313,149L322,142L324,140L324,138L323,137L317,132L314,131L309,133L300,137L291,140L284,154L281,155L275,155L273,155L273,174L273,176L271,179L270,180L268,180L266,181L265,183L264,187L263,189L262,191L261,192L258,194L234,202L227,200L226,200L223,201L222,202L221,203L220,204L218,204L217,205L217,214L217,216L216,219L216,223L215,225L222,231L226,235L229,238L234,252L238,259L241,263L242,265L243,271L244,273L247,275L252,278Z " data-fips="IR40" data-hasc="IR.YA" data-name="Yazd" data-postal="YA" data-varname=""/><path d="M177,241L178,240L180,240L181,237L179,230L178,227L179,226L180,225L180,223L179,221L180,221L181,219L181,216L180,214L177,212L176,211L173,209L173,206L173,204L172,203L171,202L171,200L170,200L169,200L165,201L161,202L160,202L158,202L157,202L156,201L154,200L153,200L152,201L150,200L146,203L146,203L146,205L149,211L150,213L151,214L152,214L153,216L153,218L154,220L155,221L156,223L158,225L159,226L159,227L157,229L156,231L158,232L162,233L163,233L172,241L176,242Z " data-fips="IR03" data-hasc="IR.CM" data-name="Chahar Mahall and Bakhtiari" data-postal="CM" data-varname="Bakhtiari|Chaharmahal va Bakhtiyari|Charmahal-Bakhtiyari"/><path d="M117,270L118,269L118,267L119,268L121,268L123,268L124,268L124,267L124,266L125,265L124,263L124,262L123,261L123,260L123,259L125,258L127,258L126,257L125,256L127,256L128,256L129,256L130,257L131,256L132,257L132,258L131,259L130,259L129,259L127,258L126,259L125,259L126,260L127,261L128,262L129,263L130,263L131,263L131,264L132,265L134,265L135,265L136,265L137,266L138,267L138,268L138,269L140,269L147,265L149,264L150,265L152,264L154,264L156,264L159,265L159,261L159,259L158,258L158,256L159,253L159,252L158,251L155,250L154,248L153,247L149,247L149,245L149,244L149,243L148,239L148,238L149,236L152,235L155,233L156,231L157,229L159,227L159,226L158,225L156,223L155,221L154,220L153,218L153,216L152,214L151,214L150,213L149,211L146,205L146,203L146,203L146,201L146,199L144,198L142,198L141,197L140,194L138,195L135,194L130,190L125,189L123,189L122,188L120,187L118,187L116,187L110,187L109,188L106,196L104,198L102,203L100,205L100,206L100,208L99,209L96,211L96,211L97,213L98,213L98,214L99,216L100,217L100,218L101,219L101,220L97,230L97,234L96,241L104,242L103,256L106,256L107,257L107,258L107,259L108,260L110,260L110,261L111,262L112,263L112,264L112,265L112,266L113,268L113,269L114,269L115,270Z " data-fips="IR15" data-hasc="IR.KZ" data-name="Khuzestan" data-postal="KZ" data-varname="Khuzistan|Kouzistan"/><path d="M106,196L109,188L110,187L116,187L118,187L120,187L122,188L123,189L125,189L130,190L135,194L138,195L140,194L140,193L142,192L144,191L144,188L145,187L149,186L149,185L152,180L152,179L152,177L153,176L153,176L151,174L151,173L150,172L148,172L148,174L146,173L146,173L143,171L143,170L144,168L143,167L142,166L141,165L140,166L139,166L138,167L136,170L134,170L132,170L130,169L129,168L129,167L130,165L130,163L130,162L124,159L123,159L121,159L120,160L118,160L114,159L104,152L100,151L100,151L100,153L100,154L99,155L97,155L96,155L96,157L96,158L95,159L95,159L96,160L96,162L95,164L93,165L85,167L84,168L83,169L82,170L82,171L83,172L84,173L86,174L85,176L86,176L87,177L88,177L89,178L90,179L92,180L94,182L95,182L96,184L97,185L98,185L100,189L104,197L104,198Z " data-fips="IR23" data-hasc="IR.LO" data-name="Lorestan" data-postal="LO" data-varname=""/><path d="M99,209L100,208L100,206L100,205L102,203L104,198L104,197L100,189L98,185L97,185L96,184L95,182L94,182L92,180L90,179L89,178L88,177L87,177L86,176L85,176L86,174L84,173L83,172L82,171L82,170L83,169L84,168L85,167L93,165L95,164L96,162L96,160L95,159L95,159L94,158L90,160L91,161L91,163L90,164L87,164L83,164L80,164L75,162L73,160L72,159L70,159L68,158L65,157L62,157L60,157L60,158L60,160L59,163L57,167L57,167L58,168L59,167L61,168L62,169L61,170L60,171L62,171L63,171L63,172L64,173L64,174L64,175L65,177L66,178L66,179L66,180L65,181L64,181L63,182L65,183L65,184L64,185L64,186L66,186L68,186L71,187L73,189L75,190L76,191L78,192L79,193L86,200L87,201L88,201L90,200L92,201L92,202L93,204L93,205L93,206L94,207L95,207L94,209L94,210L95,210L96,211Z " data-fips="IR10" data-hasc="IR.IL" data-name="Ilam" data-postal="IL" data-varname="Ilam and Poshtkuh"/><path d="M366,393L367,393L368,393L370,392L370,391L369,390L368,388L368,387L366,387L366,385L365,384L360,380L359,379L359,378L360,377L358,376L357,376L356,375L355,376L354,376L353,376L352,376L351,375L351,374L351,372L349,372L348,372L347,372L345,372L343,372L340,372L341,371L341,370L341,368L341,363L342,362L342,360L342,358L343,358L343,357L341,355L339,354L338,353L336,353L335,355L333,355L331,354L324,351L323,349L322,339L321,337L321,336L319,335L320,333L320,332L319,330L318,329L317,328L316,327L315,326L314,325L313,321L313,318L310,317L309,317L308,318L307,318L305,321L302,322L300,323L297,322L295,321L293,319L291,316L290,314L291,312L290,301L289,301L286,302L281,306L280,306L279,305L278,305L277,303L275,302L271,301L269,300L270,305L269,306L269,307L277,314L277,316L277,319L276,323L276,324L278,327L279,328L279,330L278,331L276,331L274,332L270,334L270,335L269,338L267,339L264,340L258,339L256,339L255,340L254,340L252,339L246,340L243,341L242,342L242,344L241,346L242,347L241,348L238,349L231,348L229,348L226,346L220,345L218,344L217,342L216,343L215,343L214,343L212,343L211,343L210,344L212,345L212,345L214,347L215,347L216,348L218,349L219,350L220,350L229,353L229,355L229,356L230,357L232,359L234,360L235,361L237,361L238,361L239,361L240,360L243,360L244,360L246,361L249,360L250,361L251,363L252,364L254,364L256,365L257,366L258,366L261,366L262,366L264,364L267,362L269,361L270,360L271,360L272,359L272,358L274,359L275,359L277,359L278,359L278,359L279,358L280,357L279,355L281,354L282,353L283,353L285,352L286,352L287,352L288,352L290,351L291,350L292,349L293,348L295,348L297,347L299,347L301,348L303,348L305,348L307,348L308,349L309,348L310,350L311,350L310,351L311,352L312,352L313,353L312,354L313,355L315,356L316,362L316,364L316,368L317,369L317,370L318,372L319,374L319,375L318,377L319,378L320,379L321,380L321,382L322,383L323,385L326,385L328,386L329,385L330,386L332,385L333,386L333,387L334,388L335,387L336,387L338,387L339,387L340,389L341,390L342,390L344,390L345,390L346,389L347,389L348,388L349,389L351,389L352,389L357,389L359,389L359,390L361,390L362,391L363,393L365,393Z M255,372L254,371L254,372L255,373Z M243,367L243,366L242,365L241,365L240,365L241,367Z M226,358L227,358L226,357L224,357L222,357L223,358L225,358Z M299,357L300,355L298,356L298,357Z M274,364L276,364L277,364L279,363L279,363L281,362L282,361L283,361L285,361L285,360L287,360L288,361L289,360L291,359L292,358L294,356L294,355L295,355L296,354L297,353L295,353L294,352L291,353L287,355L284,355L285,356L285,357L284,358L283,359L281,360L279,360L276,362L274,362L273,362L273,364L273,365Z M302,351L302,350L301,350L300,351L301,351Z " data-fips="IR11" data-hasc="IR.HG" data-name="Hormozgan" data-postal="HG" data-varname="Banader va Jazayer-e Bahr-e Oman|Ports and Islands of the Sea of Oman|Saheli"/><path d="M128,76L129,75L130,75L132,75L133,75L133,73L133,72L132,71L131,69L130,68L127,62L125,57L125,55L126,54L126,53L127,52L132,46L130,45L130,44L129,43L128,43L128,42L127,40L127,40L126,38L125,37L123,37L123,36L122,35L121,34L119,32L117,30L117,29L118,28L122,27L124,26L124,25L123,23L122,23L121,22L120,20L120,18L122,18L123,17L125,17L124,15L123,13L120,9L118,8L118,7L117,8L115,8L113,9L110,11L108,12L107,12L105,13L104,14L102,16L100,16L99,17L98,19L97,20L97,20L98,21L99,22L99,24L98,25L96,26L95,26L93,27L92,26L91,27L91,28L89,28L88,29L87,30L87,31L87,33L88,33L90,33L91,32L93,32L96,33L97,33L98,32L99,30L101,26L104,25L105,24L108,23L107,27L107,29L108,32L108,34L107,36L108,36L108,38L107,38L106,38L104,38L103,39L102,40L100,42L100,43L100,45L101,45L102,45L104,46L109,46L110,46L110,48L110,51L111,53L113,56L114,57L114,58L114,59L113,62L114,65L116,66L118,68L118,70L119,71L120,72L122,73L123,74L124,75L125,75L127,77Z " data-fips="IR32" data-hasc="IR.AR" data-name="Ardebil" data-postal="AR" data-varname="Ardabil"/><path d="M155,175L158,173L168,171L169,170L170,169L172,168L173,168L174,167L176,162L176,161L171,159L169,158L163,157L162,156L161,155L160,153L160,151L159,150L157,150L156,149L155,147L156,146L158,145L157,144L158,142L159,141L161,141L163,141L164,140L167,140L170,139L170,138L170,134L171,132L174,125L174,123L174,122L173,120L172,120L171,122L170,121L170,119L169,118L168,118L169,120L167,119L165,119L162,118L161,118L161,118L159,118L155,120L154,120L153,120L152,121L148,122L147,122L147,124L143,124L143,124L143,126L143,127L142,128L141,127L141,126L140,127L140,128L141,130L141,131L140,133L139,133L138,133L138,134L139,135L142,136L143,136L144,137L144,139L145,142L144,143L142,142L142,141L141,140L141,138L139,137L135,137L135,138L135,141L134,142L134,144L134,146L133,145L130,145L130,146L131,146L131,148L131,151L133,154L133,156L133,157L133,159L133,160L130,162L130,163L130,165L129,167L129,168L130,169L132,170L134,170L136,170L138,167L139,166L140,166L141,165L142,166L143,167L144,168L143,170L143,171L146,173L146,173L148,174L148,172L150,172L151,173L151,174L153,176L153,176Z " data-fips="IR34" data-hasc="IR.MK" data-name="Markazi" data-postal="MK" data-varname=""/><path d="M175,159L176,154L177,152L179,152L184,151L186,151L193,149L194,148L195,146L196,144L196,142L183,133L178,131L172,131L171,132L170,134L170,138L170,139L167,140L164,140L163,141L161,141L159,141L158,142L157,144L158,145L156,146L155,147L156,149L157,150L159,150L160,151L160,153L161,155L162,156L163,157L169,158L171,159L176,161Z " data-fips="IR39" data-hasc="IR.QM" data-name="Qom" data-postal="QM" data-varname=""/><path d="M133,160L133,159L133,157L133,156L133,154L131,151L131,148L131,146L130,146L130,145L133,145L134,146L134,144L134,142L135,141L135,138L135,137L139,137L141,138L141,140L142,141L142,142L144,143L145,142L144,139L144,137L143,136L142,136L139,135L138,134L138,133L139,133L140,133L141,131L141,130L140,128L140,127L141,126L141,127L142,128L143,127L143,126L143,124L143,124L142,123L138,122L136,122L134,121L135,120L134,118L132,117L130,117L129,118L129,118L128,119L126,120L125,119L123,118L118,117L117,117L113,114L113,115L114,116L114,117L111,118L110,118L109,116L107,118L108,120L110,125L111,127L112,127L113,129L114,131L113,133L113,134L111,135L110,133L109,134L107,135L107,136L106,137L105,139L104,140L102,140L101,141L101,142L102,143L103,144L105,144L105,146L106,146L108,145L109,144L109,145L110,146L109,148L109,149L106,149L104,149L104,152L114,159L118,160L120,160L121,159L123,159L124,159L130,162Z " data-fips="IR09" data-hasc="IR.HD" data-name="Hamadan" data-postal="HD" data-varname="Hamedan"/><path d="M128,119L129,118L129,118L128,115L125,112L126,111L128,111L129,110L131,110L132,110L134,111L135,110L136,108L138,107L143,106L143,103L142,102L141,100L141,98L140,97L139,97L138,97L137,95L137,94L135,92L135,90L136,88L139,87L140,86L139,82L138,80L136,78L132,75L130,75L129,75L128,76L127,77L125,75L124,75L123,75L121,76L116,75L115,75L113,75L106,75L104,76L103,77L101,78L100,79L96,83L96,85L99,92L99,93L110,96L111,97L111,98L111,99L111,101L112,102L112,105L111,107L110,108L110,110L116,114L117,117L118,117L123,118L125,119L126,120Z " data-fips="IR36" data-hasc="IR.ZA" data-name="Zanjan" data-postal="ZA" data-varname=""/><path d="M147,122L148,122L152,121L153,120L154,120L155,120L159,118L161,118L161,118L160,116L161,114L162,113L166,111L167,111L167,110L169,107L169,105L168,104L167,104L166,103L165,101L166,100L168,100L173,100L170,97L168,96L160,91L158,91L157,92L153,94L152,94L150,93L149,93L148,93L145,92L144,90L143,89L142,88L140,86L139,87L136,88L135,90L135,92L137,94L137,95L138,97L139,97L140,97L141,98L141,100L142,102L143,103L143,106L138,107L136,108L135,110L134,111L132,110L131,110L129,110L128,111L126,111L125,112L128,115L129,118L130,117L132,117L134,118L135,120L134,121L136,122L138,122L142,123L143,124L147,124Z " data-fips="IR38" data-hasc="IR.QZ" data-name="Qazvin" data-postal="QZ" data-varname=""/><path d="M56,103L57,102L58,103L59,102L60,101L61,99L62,98L63,97L67,96L68,94L69,92L71,92L76,93L87,93L88,94L89,95L90,95L92,96L94,96L96,96L97,94L97,93L99,92L96,85L91,86L89,85L88,84L88,82L88,79L87,78L86,78L85,76L84,76L83,77L82,77L81,77L79,78L79,79L78,80L77,81L76,80L75,79L72,77L70,74L67,74L65,73L59,68L58,67L58,66L58,62L58,61L57,59L56,58L57,57L57,55L57,54L57,46L57,45L56,44L55,41L55,40L57,38L60,35L61,33L62,32L61,31L61,29L62,26L62,25L65,23L65,23L64,22L64,21L63,20L63,19L62,18L61,17L59,16L58,14L57,12L57,11L56,10L55,9L55,8L54,6L54,4L53,4L51,2L49,1L48,0L45,2L45,4L44,6L44,7L44,9L43,9L41,10L39,9L37,9L36,9L36,10L36,11L36,13L36,14L37,15L38,15L38,17L38,18L38,19L37,20L37,21L38,22L38,24L39,25L39,27L39,28L38,29L39,30L39,31L39,32L39,34L38,35L38,36L39,37L40,37L41,37L42,38L41,39L40,40L40,42L39,43L38,43L38,45L37,46L36,47L36,48L36,49L35,49L36,50L38,50L39,52L40,52L40,53L41,53L42,54L43,55L42,56L42,57L42,58L42,59L42,60L42,61L42,63L43,63L44,64L45,65L46,67L46,68L45,69L45,70L45,72L45,73L46,74L47,74L47,75L47,76L47,77L47,78L46,79L46,81L47,81L48,82L49,82L50,83L50,85L49,86L48,88L49,89L50,90L50,91L51,91L52,91L53,92L53,93L54,95L53,96L54,97L54,99L55,100L54,101L54,102L55,103Z " data-fips="IR01" data-hasc="IR.WA" data-name="West Azarbaijan" data-postal="WA" data-varname="Azarbayjan-e Bakhtari|Azarbaijan-e Gharbi|West Azarbayejan|Azerbadjan e Gharbi"/><path d="M96,85L96,83L100,79L101,78L103,77L104,76L106,75L113,75L115,75L116,75L121,76L123,75L124,75L123,74L122,73L120,72L119,71L118,70L118,68L116,66L114,65L113,62L114,59L114,58L114,57L113,56L111,53L110,51L110,48L110,46L109,46L104,46L102,45L101,45L100,45L100,43L100,42L102,40L103,39L104,38L106,38L107,38L108,38L108,36L107,36L108,34L108,32L107,29L107,27L108,23L105,24L104,25L101,26L99,30L98,32L97,33L96,33L93,32L91,32L90,33L88,33L87,33L87,31L87,30L88,29L89,28L91,28L91,27L92,26L93,27L95,26L96,26L98,25L99,24L99,22L98,21L97,20L97,20L96,21L94,20L93,21L93,22L92,23L91,24L89,25L88,26L87,27L86,27L84,26L83,26L81,26L80,27L78,27L77,27L75,26L71,25L70,24L68,24L66,23L65,23L62,25L62,26L61,29L61,31L62,32L61,33L60,35L57,38L55,40L55,41L56,44L57,45L57,46L57,54L57,55L57,57L56,58L57,59L58,61L58,62L58,66L58,67L59,68L65,73L67,74L70,74L72,77L75,79L76,80L77,81L78,80L79,79L79,78L81,77L82,77L83,77L84,76L85,76L86,78L87,78L88,79L88,82L88,84L89,85L91,86Z " data-fips="IR01" data-hasc="IR.EA" data-name="East Azarbaijan" data-postal="EA" data-varname="Azarbayjan-e Khavari|Azarbaijan-e Sharghi|Azarbaijan-Sharqi|East Azarbayejan|Azerbadjan e Sharqi"/><path d="M59,163L60,160L60,158L60,157L62,157L65,157L68,158L70,159L72,159L73,160L75,162L80,164L83,164L87,164L90,164L91,163L91,161L90,160L94,158L95,159L96,158L96,157L96,155L97,155L99,155L100,154L100,153L100,151L100,151L104,149L106,149L109,149L109,148L110,146L109,145L109,144L108,145L106,146L105,146L105,144L103,144L102,143L101,142L101,141L102,140L104,140L105,139L106,137L107,136L107,135L105,135L102,131L100,129L98,129L98,131L98,131L94,132L94,133L93,134L91,134L90,135L89,136L88,137L87,138L86,139L84,139L82,139L81,139L80,138L80,137L80,135L79,135L74,127L70,123L70,123L70,123L69,124L70,125L71,126L70,127L69,128L68,128L67,129L66,129L65,128L64,129L63,130L64,131L63,132L62,133L61,133L61,134L60,135L59,135L59,136L58,138L59,139L59,140L59,141L58,142L57,142L55,141L54,141L55,142L54,144L52,144L53,147L54,148L55,147L55,148L55,150L55,151L54,152L54,153L53,154L52,155L51,157L51,157L51,158L53,158L55,162L55,163L56,165L56,166L57,167Z " data-fips="IR13" data-hasc="IR.BK" data-name="Kermanshah" data-postal="BK" data-varname="Bakhtaran|Kermanshahan"/><path d="M153,94L157,92L158,91L160,91L164,91L165,88L166,86L167,85L168,85L169,84L169,83L167,82L166,80L165,79L164,78L163,77L163,76L162,75L162,73L161,72L160,71L158,71L157,70L155,69L154,70L145,68L144,68L141,66L139,65L138,63L137,61L136,60L136,59L136,57L135,56L136,55L135,52L135,49L134,48L135,46L135,45L135,43L133,42L132,43L131,43L129,43L130,44L130,45L132,46L127,52L126,53L126,54L125,55L125,57L127,62L130,68L131,69L132,71L133,72L133,73L133,75L136,78L138,80L139,82L140,86L142,88L143,89L144,90L145,92L148,93L149,93L150,93L152,94Z " data-fips="IR08" data-hasc="IR.GI" data-name="Gilan" data-postal="GI" data-varname=""/><path d="M86,139L87,138L88,137L89,136L90,135L91,134L93,134L94,133L94,132L98,131L98,131L98,129L100,129L102,131L105,135L107,135L109,134L110,133L111,135L113,134L113,133L114,131L113,129L112,127L111,127L110,125L108,120L107,118L109,116L110,118L111,118L114,117L114,116L113,115L113,114L116,114L110,110L110,108L111,107L112,105L112,102L111,101L111,99L111,98L111,97L110,96L99,93L99,92L97,93L97,94L96,96L94,96L92,96L90,95L89,95L88,94L87,93L76,93L71,92L69,92L68,94L67,96L63,97L62,98L61,99L60,101L59,102L58,103L59,103L60,104L61,105L62,106L63,108L64,108L65,108L66,108L68,108L69,108L70,108L71,109L72,109L73,109L74,109L75,109L75,110L74,111L73,112L72,112L70,112L68,112L68,114L67,115L67,116L67,117L67,118L68,120L69,122L70,123L70,123L74,127L79,135L80,135L80,137L80,138L81,139L82,139L84,139Z " data-fips="IR16" data-hasc="IR.KD" data-name="Kordestan" data-postal="KD" data-varname="Kurdistan"/><path d="M405,256L406,255L404,250L404,248L404,241L405,237L406,233L406,230L406,228L399,228L398,225L398,223L398,221L397,219L397,217L397,216L397,214L397,213L397,212L398,209L397,207L395,201L391,188L390,186L390,183L395,177L396,176L396,175L396,174L397,173L396,172L395,172L393,172L391,172L390,172L388,170L388,168L388,166L388,165L387,161L387,159L385,159L371,160L368,159L366,155L365,154L362,155L360,157L354,158L353,159L350,159L347,158L346,159L346,160L346,162L346,163L346,165L346,167L346,168L346,169L345,171L346,172L347,173L347,174L351,176L350,178L349,180L348,181L341,186L338,191L338,194L336,199L336,201L335,202L336,203L336,204L337,206L338,207L338,209L338,210L338,212L337,213L334,217L334,220L331,223L330,226L357,238L360,240L370,253L370,253L388,247L389,247L390,248L392,249L395,251L399,256L401,257Z " data-fips="IR41" data-hasc="IR.KJ" data-name="South Khorasan" data-postal="KJ" data-varname="Khorasan-e Janubi"/><path d="M338,194L338,191L341,186L348,181L349,180L350,178L351,176L347,174L347,173L346,172L345,171L346,169L346,168L346,167L346,165L346,163L346,162L346,160L346,159L347,158L350,159L353,159L354,158L360,157L362,155L365,154L366,155L368,159L371,160L385,159L387,159L387,158L387,157L387,156L388,155L389,154L390,152L395,151L393,149L393,148L392,147L391,147L392,146L393,145L394,145L395,143L396,143L396,142L396,141L397,140L398,138L398,137L398,136L398,135L399,133L399,132L399,131L400,130L399,129L399,127L398,126L399,125L400,124L400,122L401,121L401,120L402,119L402,117L402,116L401,115L400,114L401,113L401,112L401,111L400,109L400,108L399,107L398,107L399,106L398,105L399,104L399,103L399,102L398,100L398,98L398,98L397,96L397,95L398,93L398,92L398,91L397,90L396,89L395,89L379,90L378,89L377,87L375,84L373,82L373,81L371,80L368,79L367,78L364,77L363,78L362,77L361,76L360,76L360,75L359,74L358,73L357,71L357,70L357,69L356,68L356,67L354,68L351,66L350,65L349,65L348,64L346,64L345,63L345,64L343,64L342,65L341,64L340,63L339,64L338,65L336,65L335,65L333,65L332,64L332,62L331,61L330,61L329,61L325,59L323,59L323,59L322,59L320,60L319,61L319,62L319,63L319,65L329,65L329,66L330,68L332,69L333,70L332,72L332,74L331,75L331,76L330,80L329,82L331,83L332,84L332,83L333,84L334,85L332,87L333,88L334,89L333,91L332,92L331,92L325,92L310,84L307,84L302,88L300,90L300,91L301,93L302,93L303,96L302,98L302,100L301,103L302,108L303,111L303,112L309,117L310,118L310,120L306,127L305,129L300,131L297,133L295,136L291,140L300,137L309,133L314,131L317,132L323,137L324,138L324,140L322,142L313,149L312,152L309,160L309,165L311,172L312,174L316,174L322,173L323,174L324,176L326,187L328,190L330,191L332,192L334,194L336,196Z " data-fips="IR42" data-hasc="IR.KV" data-name="Razavi Khorasan" data-postal="KV" data-varname="Khorasan-e Razavi"/><path d="M300,91L300,90L302,88L307,84L310,84L325,92L331,92L332,92L333,91L334,89L333,88L332,87L334,85L333,84L332,83L332,84L331,83L329,82L330,80L331,76L331,75L332,74L332,72L333,70L332,69L330,68L329,66L329,65L319,65L319,63L319,62L319,61L320,60L322,59L322,59L320,58L319,58L318,58L317,58L313,56L314,54L313,53L312,52L311,51L311,50L310,49L309,49L308,50L307,51L306,51L303,50L302,50L300,49L299,50L297,50L296,50L294,50L293,51L291,52L292,53L291,55L290,55L289,55L289,57L289,58L289,59L289,62L289,63L289,64L291,64L291,65L292,67L291,68L288,69L287,70L285,71L283,74L283,74L286,79L288,80L289,80L288,81L287,82L288,83L288,85L287,86L288,88L290,91L293,93L294,93L296,93L297,94Z " data-fips="IR43" data-hasc="IR.KS" data-name="North Khorasan" data-postal="KS" data-varname="Khorasan-e Shemali"/><path d="M425,397L425,396L425,395L426,395L426,394L427,395L427,393L427,384L428,383L428,382L428,381L428,379L429,379L430,378L431,368L431,367L434,366L435,365L436,365L437,364L439,363L440,363L441,363L441,361L442,360L442,359L443,358L444,358L445,357L449,356L450,356L452,356L452,355L458,354L460,354L461,354L462,354L462,353L462,348L464,348L464,347L463,346L463,342L463,341L465,341L463,338L462,338L461,337L459,338L458,338L457,339L454,339L453,339L452,339L451,338L452,337L451,336L452,333L452,332L451,323L449,318L450,313L449,311L445,312L443,310L442,309L441,308L440,308L437,307L434,307L431,306L430,306L428,305L428,304L426,303L425,302L422,300L422,299L421,298L420,297L420,296L418,293L418,293L418,291L417,291L416,290L416,289L415,288L414,287L414,286L414,284L413,284L413,283L405,275L402,271L405,268L415,253L415,253L422,244L422,243L422,241L422,240L422,238L422,237L421,236L421,235L420,234L420,232L420,231L419,230L418,229L406,228L406,230L406,233L405,237L404,241L404,248L404,250L406,255L405,256L401,257L399,256L395,251L392,249L390,248L389,247L388,247L370,253L370,253L366,275L367,278L368,279L369,281L370,287L370,289L369,292L367,295L367,297L367,299L368,301L368,302L369,304L368,305L367,306L362,309L359,310L358,311L359,312L361,314L361,315L361,318L358,321L359,331L359,334L356,345L356,347L357,349L357,350L357,352L358,354L360,356L361,359L360,361L360,362L361,364L360,365L360,366L360,368L361,369L361,370L361,371L361,372L360,373L360,375L360,376L360,377L359,378L359,379L360,380L365,384L366,385L366,387L368,387L368,388L369,390L370,391L370,392L370,392L374,391L375,391L376,391L377,392L379,393L384,392L384,393L386,393L388,393L389,393L390,393L391,394L392,394L392,393L394,393L395,393L395,394L397,394L399,395L399,394L398,393L398,392L399,391L400,390L401,391L402,392L403,394L403,395L406,395L409,396L413,396L417,398L419,398L423,399Z " data-fips="IR04" data-hasc="IR.SB" data-name="Sistan and Baluchestan" data-postal="SB" data-varname="Baluchestan va Sistan|Seistan and Baluchistan|Sistan e Baloutchistan"/><path d="M360,376L360,375L360,373L361,372L361,371L361,370L361,369L360,368L360,366L360,365L361,364L360,362L360,361L361,359L360,356L358,354L357,352L357,350L357,349L356,347L356,345L359,334L359,331L358,321L361,318L361,315L361,314L359,312L358,311L359,310L362,309L367,306L368,305L369,304L368,302L368,301L367,299L367,297L367,295L369,292L370,289L370,287L369,281L368,279L367,278L366,275L370,253L360,240L357,238L305,217L302,217L301,219L296,221L295,223L282,230L282,232L281,240L281,242L277,244L273,245L271,244L268,244L255,247L253,249L252,251L251,253L251,254L253,257L254,260L255,263L255,264L256,273L256,275L256,276L256,277L253,277L252,278L253,281L255,284L255,285L255,286L257,288L262,288L264,289L269,300L271,301L275,302L277,303L278,305L279,305L280,306L281,306L286,302L289,301L290,301L291,312L290,314L291,316L293,319L295,321L297,322L300,323L302,322L305,321L307,318L308,318L309,317L310,317L313,318L313,321L314,325L315,326L316,327L317,328L318,329L319,330L320,332L320,333L319,335L321,336L321,337L322,339L323,349L324,351L331,354L333,355L335,355L336,353L338,353L339,354L341,355L343,357L343,358L342,358L342,360L342,362L341,363L341,368L341,370L341,371L340,372L343,372L345,372L347,372L348,372L349,372L351,372L351,374L351,375L352,376L353,376L354,376L355,376L356,375L357,376L358,376L360,377Z " data-fips="IR29" data-hasc="IR.KE" data-name="Kerman" data-postal="KE" data-varname=""/></g></svg>