<?xml version="1.0" ?><!DOCTYPE svg  PUBLIC '-//W3C//DTD SVG 1.1//EN'  'http://www.w3.org/Graphics/SVG/1.1/DTD/svg11.dtd'><svg enable_background="new 0 0 500 401" height="401px" style="stroke-linejoin: round; stroke:#000; fill:#f6f3f0;" version="1.1" viewBox="0 0 500 401" width="500px" xmlns="http://www.w3.org/2000/svg" xmlns:xlink="http://www.w3.org/1999/xlink"><defs><style type="text/css"><![CDATA[path { fill-rule: evenodd; }
#context path { fill: #eee; stroke: #bbb; } ]]></style></defs><metadata><views><view h="401" padding="0" w="500"><proj id="laea" lat0="33.048" lon0="43.772"/><bbox h="102.28" w="102.67" x="948.52" y="946.56"/><llbbox lat0="-90" lat1="90" lon0="-180" lon1="180"/></view></views></metadata><g id="admin1"><path d="M216,32L217,32L220,30L225,30L227,30L229,28L229,27L229,26L231,24L232,22L233,21L235,22L236,23L238,24L239,25L246,26L246,25L248,26L248,25L248,23L248,22L249,21L248,20L247,20L246,20L245,19L245,18L246,17L247,16L248,16L250,17L252,17L253,18L253,17L255,16L255,15L256,15L258,13L259,12L260,11L261,11L262,10L262,9L263,8L262,7L262,6L263,5L262,4L262,3L261,3L259,3L258,4L256,6L255,7L253,8L252,8L251,8L250,7L249,7L244,7L242,6L241,6L240,6L239,6L237,5L235,4L233,3L232,3L231,3L225,0L224,0L223,1L221,1L220,2L219,3L217,2L214,1L213,0L212,0L211,1L210,1L210,2L206,8L205,9L203,11L202,11L200,12L199,12L198,12L196,13L197,14L197,15L197,16L198,17L198,18L200,20L201,20L202,19L202,21L202,22L202,23L203,25L202,25L203,25L205,26L206,28L208,28L209,28L211,30L211,31L212,32L213,31L214,32L215,33Z " data-fips="IZ08" data-hasc="IQ.DA" data-name="Dihok" data-postal="DA" data-varname="Dahuk|D'hok"/><path d="M272,127L272,126L272,125L273,124L274,123L274,122L275,121L275,120L275,119L276,118L277,117L278,116L279,115L280,114L281,113L280,111L280,110L281,109L282,108L283,107L287,105L287,103L287,102L288,102L289,101L289,99L289,97L289,96L291,93L291,92L290,91L289,90L289,89L289,87L289,85L290,83L290,81L290,80L288,79L287,78L286,76L284,71L283,71L282,72L281,72L280,73L279,73L278,73L276,73L275,73L274,74L273,74L272,74L270,75L269,74L267,74L265,74L264,77L263,77L262,77L258,74L256,74L256,75L253,78L250,81L251,82L252,83L251,84L250,86L250,87L249,89L248,89L246,90L244,90L243,91L243,92L241,93L239,93L237,94L236,94L234,93L232,94L232,93L231,92L231,93L231,95L231,96L233,97L234,97L235,99L235,100L234,101L237,102L236,103L235,104L236,105L237,106L240,109L241,110L242,111L243,111L246,113L254,118L256,119L259,120L262,122L265,123L268,126L272,129Z " data-fips="IZ13" data-hasc="IQ.TS" data-name="At-Ta'mim" data-postal="TS" data-varname="Kirkuk|Tamin"/><path d="M239,93L241,93L243,92L243,91L244,90L246,90L248,89L249,89L250,87L250,86L251,84L252,83L251,82L250,81L253,78L256,75L256,74L258,74L262,77L263,77L264,77L265,74L267,74L269,74L270,75L272,74L273,74L274,74L275,73L276,73L278,73L279,73L280,73L281,72L282,72L283,71L284,71L285,72L286,72L287,72L288,72L289,73L290,72L291,73L292,72L292,73L293,72L293,71L294,71L295,72L296,72L297,71L297,70L295,69L294,68L292,67L289,64L288,63L284,60L283,59L284,58L285,57L286,57L286,56L284,53L283,53L280,50L280,49L282,47L283,46L284,45L285,45L287,45L288,45L290,44L292,43L294,43L295,43L297,43L298,42L298,41L298,40L299,39L299,38L299,37L300,34L299,33L298,30L296,30L295,29L294,29L293,29L292,29L291,27L292,26L293,24L293,23L294,22L293,21L293,20L293,18L293,17L292,16L291,16L290,16L290,15L289,14L288,13L289,11L287,10L283,10L282,10L280,11L279,13L278,14L277,14L276,15L273,16L272,17L271,18L271,20L269,19L268,19L268,18L267,15L266,14L266,13L267,12L267,11L268,11L269,10L269,9L269,8L268,7L267,5L266,5L262,3L262,4L263,5L262,6L262,7L263,8L262,9L262,10L261,11L260,11L259,12L258,13L256,15L255,15L255,16L253,17L253,18L255,19L257,19L258,20L259,21L260,22L260,23L261,24L261,25L263,25L264,25L265,26L268,27L270,29L270,30L271,30L271,31L269,33L268,34L268,35L267,36L266,37L265,37L264,37L263,37L262,38L261,37L260,37L259,37L258,39L257,40L256,40L256,41L255,42L254,42L254,43L254,44L253,45L252,45L252,46L252,47L251,48L250,50L248,51L247,52L246,53L245,55L243,57L243,58L242,58L241,59L240,62L240,63L239,64L234,67L235,69L236,69L236,70L235,73L235,74L234,75L233,77L233,78L233,80L233,82L234,83L234,84L235,85L235,86L235,90L235,91L236,94L237,94Z " data-fips="IZ11" data-hasc="IQ.AR" data-name="Arbil" data-postal="AR" data-varname="Arbela|Erbil|Irbil"/><path d="M200,116L201,111L206,110L220,110L221,110L221,109L222,107L221,107L220,106L220,105L219,104L219,103L219,102L219,100L218,99L217,98L216,96L216,95L216,94L216,93L216,92L216,91L217,90L219,90L220,89L221,88L226,85L229,84L230,83L231,81L233,81L233,80L233,78L233,77L234,75L235,74L235,73L236,70L236,69L235,69L234,67L239,64L240,63L240,62L241,59L242,58L243,58L243,57L245,55L246,53L247,52L248,51L250,50L251,48L252,47L252,46L252,45L253,45L254,44L254,43L254,42L255,42L256,41L256,40L257,40L258,39L259,37L260,37L261,37L262,38L263,37L264,37L265,37L266,37L267,36L268,35L268,34L269,33L271,31L271,30L270,30L270,29L268,27L265,26L264,25L263,25L261,25L261,24L260,23L260,22L259,21L258,20L257,19L255,19L253,18L252,17L250,17L248,16L247,16L246,17L245,18L245,19L246,20L247,20L248,20L249,21L248,22L248,23L248,25L248,26L246,25L246,26L239,25L238,24L236,23L235,22L233,21L232,22L231,24L229,26L229,27L229,28L227,30L225,30L220,30L217,32L216,32L215,33L214,32L213,31L212,32L211,31L211,30L209,28L208,28L206,28L205,26L203,25L202,25L203,25L202,23L202,22L202,21L202,19L201,20L200,20L198,18L198,17L197,16L197,15L195,16L193,18L176,36L175,37L174,37L162,40L159,40L158,40L157,42L154,48L153,49L152,61L152,63L153,65L156,72L156,74L156,75L156,82L156,83L155,85L154,87L152,90L152,91L151,96L149,102L149,104L149,106L150,106L155,106L162,108L164,109L175,113L180,116L183,116L189,115L190,116L191,117Z " data-fips="IZ15" data-hasc="IQ.NI" data-name="Ninawa" data-postal="NI" data-varname="Al-Mawsil|Mosul|Ninive|Nnive|Nineveh|Niniveh"/><path d="M272,186L274,185L275,183L276,182L276,181L275,180L276,177L277,175L275,174L275,173L276,171L278,168L278,166L277,164L274,162L273,162L272,162L271,162L272,160L272,159L273,158L273,157L274,156L274,155L275,154L276,154L276,153L277,152L278,152L279,152L279,151L280,150L280,148L279,147L279,146L279,145L280,144L280,142L279,141L279,140L280,140L280,139L280,138L280,136L280,135L281,135L283,136L285,137L286,136L287,135L288,133L288,132L288,131L288,129L289,129L290,128L291,127L292,127L293,125L293,124L294,123L295,123L296,122L298,121L298,116L297,115L294,113L292,113L287,113L286,112L282,108L281,109L280,110L280,111L281,113L280,114L279,115L278,116L277,117L276,118L275,119L275,120L275,121L274,122L274,123L273,124L272,125L272,126L272,127L272,129L268,126L265,123L262,122L259,120L256,119L254,118L246,113L243,111L242,111L241,110L240,109L237,106L236,105L235,104L236,103L237,102L234,101L235,100L235,99L234,97L233,97L231,96L231,95L231,93L231,92L232,93L232,94L234,93L235,91L235,90L235,86L235,85L234,84L234,83L233,82L233,80L233,81L231,81L230,83L229,84L226,85L221,88L220,89L219,90L217,90L216,91L216,92L216,93L216,94L216,95L216,96L217,98L218,99L219,100L219,102L219,103L219,104L220,105L220,106L221,107L222,107L221,109L221,110L220,110L206,110L201,111L200,116L200,116L200,127L202,134L209,140L211,141L212,141L217,139L218,143L218,146L218,147L219,149L220,151L220,154L222,159L225,163L231,169L237,174L239,175L243,175L248,177L252,179L259,178L260,179L262,181L263,182L264,185L265,187L264,188L265,189L267,190L270,190Z " data-fips="IZ18" data-hasc="IQ.SD" data-name="Sala ad-Din" data-postal="SD" data-varname="Salah ad-Din|Salaheddin"/><path d="M253,364L253,363L262,347L270,326L271,323L274,320L276,318L278,317L280,314L282,312L284,310L286,307L287,304L290,287L281,284L278,280L278,279L278,278L280,276L281,277L282,276L282,273L282,270L282,268L280,261L281,260L281,258L282,258L284,257L285,256L284,255L284,254L285,253L286,251L283,250L282,250L281,249L280,248L277,250L277,251L275,252L274,251L274,250L273,248L273,247L274,246L273,245L272,244L272,245L271,244L270,244L266,245L247,251L252,256L251,257L250,259L246,261L245,262L244,262L241,263L240,264L238,264L237,265L236,266L229,276L229,277L229,278L228,280L228,281L223,291L223,293L223,294L223,295L223,296L221,301L221,303L220,305L218,308L217,310L216,312L216,316L215,317L214,320L211,325L210,329L213,331L253,364Z " data-fips="IZ17" data-hasc="IQ.NA" data-name="An-Najaf" data-postal="NA" data-varname=""/><path d="M266,245L270,244L271,244L272,245L272,244L273,242L272,240L272,238L272,237L272,236L270,233L269,231L269,230L271,224L270,223L269,222L268,222L266,221L258,219L253,219L250,220L247,221L239,228L238,229L237,229L232,230L230,230L228,231L228,233L229,234L239,244L245,249L247,251Z " data-fips="IZ12" data-hasc="IQ.KA" data-name="Karbala'" data-postal="KA" data-varname="Kerbela"/><path d="M280,200L281,199L281,198L281,197L281,196L281,194L282,193L281,192L281,191L280,192L278,191L278,191L277,190L274,190L273,192L271,193L271,193L271,194L269,195L269,197L269,199L270,200L272,202L273,202L280,202Z " data-fips="IZ07" data-hasc="IQ.BG" data-name="Baghdad" data-postal="BG" data-varname="Bagd|Bagdad"/><path d="M374,389L377,384L379,381L380,380L381,377L384,372L385,369L385,367L387,364L390,355L391,353L393,351L400,348L402,348L413,348L415,348L425,352L424,351L425,349L425,348L424,347L425,348L425,349L425,350L426,352L428,350L430,349L432,349L434,350L436,350L438,352L439,352L441,353L444,354L449,354L450,354L450,353L449,353L447,352L446,351L445,349L444,346L443,346L442,344L443,343L443,342L443,341L443,340L441,339L440,338L439,336L438,336L435,336L434,335L434,333L433,332L433,331L431,330L427,329L426,328L426,305L425,304L412,304L411,293L411,293L406,291L400,291L398,291L392,293L391,294L390,294L389,296L389,303L389,313L388,318L388,320L388,321L388,324L388,325L387,326L380,325L367,329L368,332L368,336L369,338L369,339L374,345L374,347L374,348L374,349L371,368L371,372L371,379L371,380L370,383L369,384L369,385L368,395L368,396Z " data-fips="IZ02" data-hasc="IQ.BA" data-name="Al-Basrah" data-postal="BA" data-varname="Basra|Bassora"/><path d="M362,398L367,397L368,396L368,395L369,385L369,384L370,383L371,380L371,379L371,372L371,368L374,349L374,348L374,347L374,345L369,339L369,338L368,336L368,332L367,329L365,329L364,328L362,325L358,319L351,316L331,314L330,307L331,306L331,304L331,303L332,302L334,302L334,300L334,299L333,298L332,297L332,296L334,290L332,290L331,290L331,288L334,285L334,284L333,281L333,280L334,279L335,279L335,278L334,276L333,275L332,276L330,276L323,273L313,272L309,272L302,274L303,275L304,276L305,277L305,278L305,280L304,282L301,289L300,294L297,292L290,287L287,304L286,307L284,310L282,312L280,314L278,317L276,318L274,320L271,323L270,326L262,347L253,363L253,364L253,364L289,393L290,394L359,399Z " data-fips="IZ03" data-hasc="IQ.MU" data-name="Al-Muthannia" data-postal="MU" data-varname="Al-Muthanna"/><path d="M301,289L304,282L305,280L305,278L305,277L304,276L303,275L302,274L309,272L313,272L323,273L330,276L332,276L333,275L332,269L330,264L330,262L330,261L328,256L329,255L326,254L323,253L322,252L322,251L321,250L316,246L316,244L316,242L315,241L312,241L311,240L307,240L305,241L304,242L301,245L298,246L296,247L294,248L293,248L293,249L293,250L293,251L292,251L291,252L290,253L289,253L287,252L286,251L285,253L284,254L284,255L285,256L284,257L282,258L281,258L281,260L280,261L282,268L282,270L282,273L282,276L281,277L280,276L278,278L278,279L278,280L281,284L290,287L297,292L300,294Z " data-fips="IZ04" data-hasc="IQ.QA" data-name="Al-Qadisiyah" data-postal="QA" data-varname="Diwaniyah"/><path d="M367,329L380,325L387,326L388,325L388,324L388,321L388,320L388,318L389,313L389,303L382,298L377,299L375,297L373,295L373,294L373,292L373,291L372,289L371,289L367,286L366,285L366,283L367,282L367,280L366,279L364,277L362,275L361,274L360,272L359,269L359,268L355,263L355,260L356,259L355,258L354,257L344,258L342,259L341,259L340,259L338,260L337,260L334,261L330,261L330,262L330,264L332,269L333,275L334,276L335,278L335,279L334,279L333,280L333,281L334,284L334,285L331,288L331,290L332,290L334,290L332,296L332,297L333,298L334,299L334,300L334,302L332,302L331,303L331,304L331,306L330,307L331,314L351,316L358,319L362,325L364,328L365,329Z " data-fips="IZ09" data-hasc="IQ.DQ" data-name="Dhi-Qar" data-postal="DQ" data-varname="Dhi Qar|Muntafiq|Nasiriyah|Thi-Qar"/><path d="M382,298L389,296L390,294L391,294L392,293L398,291L400,291L406,291L411,293L411,293L411,284L417,267L417,266L417,265L416,264L414,263L414,262L413,261L412,260L410,257L410,255L407,254L406,251L405,251L404,250L403,249L402,249L402,248L403,247L403,245L402,245L401,244L400,242L398,241L398,240L399,239L398,237L397,237L396,235L395,234L392,233L389,235L388,235L387,235L385,234L384,233L371,223L370,221L367,219L365,218L365,218L364,219L363,221L360,229L360,231L360,234L360,235L360,236L359,237L359,238L360,239L361,240L359,246L360,247L365,249L365,250L366,251L364,258L363,258L361,257L360,257L354,257L355,258L356,259L355,260L355,263L359,268L359,269L360,272L361,274L362,275L364,277L366,279L367,280L367,282L366,283L366,285L367,286L371,289L372,289L373,291L373,292L373,294L373,295L375,297L377,299Z " data-fips="IZ14" data-hasc="IQ.MA" data-name="Maysan" data-postal="MA" data-varname="`Amara"/><path d="M337,260L338,260L340,259L341,259L342,259L344,258L354,257L360,257L361,257L363,258L364,258L366,251L365,250L365,249L360,247L359,246L361,240L360,239L359,238L359,237L360,236L360,235L360,234L360,231L360,229L363,221L364,219L365,218L365,218L361,216L360,215L356,213L352,212L347,212L344,212L344,210L344,209L345,208L345,207L344,206L342,206L342,205L343,204L345,204L345,203L347,202L347,201L347,199L347,198L346,197L345,196L343,193L341,191L341,190L340,188L339,186L338,187L337,188L337,190L336,191L335,191L333,192L331,194L330,194L329,195L328,196L327,198L326,199L325,201L324,202L323,204L321,206L320,207L317,206L305,203L301,203L299,203L295,202L293,202L293,203L292,204L291,205L289,207L288,207L288,208L288,209L287,210L286,209L285,208L284,207L284,208L283,210L283,211L282,210L281,211L281,212L281,217L282,218L283,220L289,220L291,221L293,222L295,223L297,223L298,224L299,225L301,231L303,235L303,236L304,236L305,237L308,237L308,239L311,240L312,241L315,241L316,242L316,244L316,246L321,250L322,251L322,252L323,253L326,254L329,255L328,256L330,261L334,261Z " data-fips="IZ16" data-hasc="IQ.WA" data-name="Wasit" data-postal="WA" data-varname="Kut|Kut-al-Imara"/><path d="M309,137L313,132L315,131L316,131L317,130L317,129L318,127L318,126L318,125L319,124L320,123L320,121L321,120L321,119L323,118L324,117L324,115L323,115L324,113L324,112L325,112L325,111L326,110L326,109L328,109L328,109L331,113L330,113L331,118L331,119L332,119L333,118L333,116L333,115L333,114L333,113L333,112L334,111L334,110L335,109L336,110L338,110L339,111L340,110L341,109L342,109L344,109L344,108L343,107L344,106L345,104L344,103L342,102L342,101L343,100L343,98L342,97L340,95L337,91L336,90L337,89L337,88L337,87L337,86L338,85L337,83L338,81L339,80L343,80L345,79L347,79L348,78L349,77L350,75L350,74L349,73L348,74L346,75L345,75L343,75L342,74L342,73L341,72L339,73L338,73L336,73L335,73L334,74L333,73L332,74L330,75L329,74L328,75L327,74L326,71L324,69L322,68L321,67L319,66L317,65L316,65L314,66L313,67L312,67L311,65L311,64L311,63L312,62L311,61L310,59L310,58L310,56L309,54L308,53L309,53L308,51L308,49L308,48L307,47L306,46L304,47L302,47L301,46L301,45L301,44L300,43L300,42L298,41L298,42L297,43L295,43L294,43L292,43L290,44L288,45L287,45L285,45L284,45L283,46L282,47L280,49L280,50L283,53L284,53L286,56L286,57L285,57L284,58L283,59L284,60L288,63L289,64L292,67L294,68L295,69L297,70L297,71L296,72L295,72L294,71L293,71L293,72L292,73L292,72L291,73L290,72L289,73L288,72L287,72L286,72L285,72L286,76L287,78L288,79L290,80L290,81L290,83L289,85L289,87L289,89L289,90L290,91L291,92L291,93L289,96L289,97L289,99L289,101L288,102L287,102L287,103L287,105L283,107L282,108L286,112L287,113L292,113L294,113L297,115L298,116L298,121L300,122L301,123L302,123L304,123L305,123L306,124L307,125L307,127L307,128L307,129L307,130L308,132L307,132L307,133L307,135L307,136L308,136L308,138Z " data-fips="IZ05" data-hasc="IQ.SU" data-name="As-Sulaymaniyah" data-postal="SU" data-varname=""/><path d="M283,210L284,208L284,207L285,208L286,209L287,210L288,209L288,208L288,207L289,207L291,205L292,204L293,203L293,202L295,202L299,203L301,203L305,203L317,206L320,207L321,206L323,204L324,202L325,201L326,199L327,198L328,196L329,195L330,194L331,194L333,192L335,191L336,191L337,190L337,188L338,187L339,186L338,186L337,187L336,187L334,186L335,185L337,183L337,182L336,182L335,181L334,180L332,180L331,181L329,182L329,179L326,177L325,176L325,174L324,173L323,171L319,165L318,165L317,165L316,165L315,163L316,162L317,161L317,160L318,159L319,157L321,156L321,155L321,154L321,153L321,151L322,149L322,148L322,147L321,146L319,146L318,146L317,145L316,140L319,139L319,138L319,137L319,135L319,134L321,134L322,135L323,135L326,135L327,135L327,134L327,133L327,131L326,130L326,129L325,128L324,127L325,125L325,123L326,122L327,122L329,121L329,120L329,118L331,118L330,113L331,113L328,109L328,109L326,109L326,110L325,111L325,112L324,112L324,113L323,115L324,115L324,117L323,118L321,119L321,120L320,121L320,123L319,124L318,125L318,126L318,127L317,129L317,130L316,131L315,131L313,132L309,137L308,138L308,136L307,136L307,135L307,133L307,132L308,132L307,130L307,129L307,128L307,127L307,125L306,124L305,123L304,123L302,123L301,123L300,122L298,121L296,122L295,123L294,123L293,124L293,125L292,127L291,127L290,128L289,129L288,129L288,131L288,132L288,133L287,135L286,136L285,137L283,136L281,135L280,135L280,136L280,138L280,139L280,140L279,140L279,141L280,142L280,144L279,145L279,146L279,147L280,148L280,150L279,151L279,152L278,152L277,152L276,153L276,154L275,154L274,155L274,156L273,157L273,158L272,159L272,160L271,162L272,162L273,162L274,162L277,164L278,166L278,168L276,171L275,173L275,174L277,175L276,177L275,180L276,181L276,182L275,183L274,185L272,186L270,190L271,193L273,192L274,190L277,190L278,191L278,191L280,192L281,191L281,192L282,193L281,194L281,196L281,197L281,198L281,199L280,200L280,203L281,204L281,206L282,207L282,208L282,210L283,211Z " data-fips="IZ10" data-hasc="IQ.DI" data-name="Diyala" data-postal="DI" data-varname=""/><path d="M211,325L214,320L215,317L216,316L216,312L217,310L218,308L220,305L221,303L221,301L223,296L223,295L223,294L223,293L223,291L228,281L228,280L229,278L229,277L229,276L236,266L237,265L238,264L240,264L241,263L244,262L245,262L246,261L250,259L251,257L252,256L247,251L245,249L239,244L229,234L228,233L228,231L230,230L232,230L237,229L238,229L239,228L247,221L250,220L253,219L258,219L265,217L264,216L263,214L262,213L261,209L260,206L259,205L255,203L253,202L253,201L254,201L256,201L259,202L264,202L265,203L268,204L269,204L270,203L270,200L269,199L269,197L269,195L271,194L271,193L271,193L270,190L267,190L265,189L264,188L265,187L264,185L263,182L262,181L260,179L259,178L252,179L248,177L243,175L239,175L237,174L231,169L225,163L222,159L220,154L220,151L219,149L218,147L218,146L218,143L217,139L212,141L211,141L209,140L202,134L200,127L200,116L200,116L191,117L190,116L189,115L183,116L180,116L175,113L164,109L162,108L155,106L150,106L149,106L149,114L149,122L149,123L149,124L142,137L140,141L139,142L138,143L128,145L50,188L54,207L59,231L56,232L58,239L58,240L67,239L67,240L68,243L67,245L65,247L62,249L98,257L112,260L114,261L116,262L181,303L197,317L210,329Z " data-fips="IZ01" data-hasc="IQ.AN" data-name="Al-Anbar" data-postal="AN" data-varname="Dulaim|Ramadi"/><path d="M291,252L292,251L293,251L293,250L293,249L293,248L294,248L296,247L298,246L301,245L304,242L305,241L307,240L308,239L308,237L305,237L304,236L303,236L303,235L301,231L299,225L298,224L297,223L295,223L293,222L291,221L289,220L283,220L282,218L281,217L281,212L281,211L282,210L282,208L282,207L281,206L281,204L280,203L280,202L273,202L272,202L270,203L269,204L268,204L265,203L264,202L259,202L256,201L254,201L253,201L253,202L255,203L259,205L260,206L261,209L262,213L263,214L264,216L265,217L266,221L268,222L269,222L270,223L271,224L269,230L269,231L270,233L272,236L272,237L272,238L272,240L273,242L273,245L274,246L273,247L273,248L274,250L274,251L275,252L277,251L277,250L280,248L281,249L282,250L283,250L286,251L287,252L289,253L290,253Z " data-fips="IZ06" data-hasc="IQ.BB" data-name="Babil" data-postal="BB" data-varname="Babylon|Hilla"/></g></svg>