<?xml version="1.0" ?><!DOCTYPE svg  PUBLIC '-//W3C//DTD SVG 1.1//EN'  'http://www.w3.org/Graphics/SVG/1.1/DTD/svg11.dtd'><svg enable_background="new 0 0 500 401" height="401px" style="stroke-linejoin: round; stroke:#000; fill:#f6f3f0;" version="1.1" viewBox="0 0 500 401" width="500px" xmlns="http://www.w3.org/2000/svg" xmlns:xlink="http://www.w3.org/1999/xlink"><defs><style type="text/css"><![CDATA[path { fill-rule: evenodd; }
#context path { fill: #eee; stroke: #bbb; } ]]></style></defs><metadata><views><view h="401" padding="0" w="500"><proj id="laea" lat0="48.16" lon0="67.301"/><bbox h="183.19" w="327.7" x="831.93" y="910.15"/><llbbox lat0="-90" lat1="90" lon0="-180" lon1="180"/></view></views></metadata><g id="admin1"><path d="M147,244L148,235L150,231L158,222L161,219L165,217L168,216L169,214L170,213L173,213L176,209L178,206L181,202L184,201L188,202L190,206L191,206L193,208L194,212L196,212L197,213L198,214L199,214L216,203L217,201L217,200L215,196L211,190L203,185L204,184L204,182L202,182L201,182L199,182L197,178L196,176L195,175L196,175L197,175L195,171L196,169L197,169L197,168L198,166L199,165L200,163L201,162L202,163L203,163L203,160L201,156L199,152L199,148L197,147L197,146L198,144L196,142L197,141L196,139L194,140L193,139L193,138L193,137L192,136L190,136L190,136L189,136L188,138L187,141L187,144L186,145L179,146L178,147L172,145L172,144L172,143L171,142L169,142L169,144L168,145L168,146L167,147L166,148L165,148L163,148L163,147L164,146L163,146L162,145L161,145L160,145L156,144L155,143L155,141L154,141L153,140L153,139L153,138L154,137L153,136L151,135L150,134L149,135L148,136L148,135L146,135L145,134L144,134L143,136L143,137L143,138L142,138L140,138L139,138L138,137L138,136L137,135L137,133L136,134L134,134L133,134L132,133L131,134L131,135L130,135L129,133L128,134L128,135L127,136L126,136L124,136L123,139L121,140L119,141L118,142L117,140L116,139L115,139L114,138L112,135L112,134L110,133L109,132L108,131L107,130L106,131L106,132L107,133L107,134L107,135L106,136L106,138L106,139L105,139L103,142L102,142L102,144L102,146L102,147L103,149L102,151L102,152L101,153L100,153L100,154L99,155L97,156L96,155L95,156L93,157L91,158L91,159L90,161L90,163L90,164L92,165L92,165L93,164L94,167L94,169L93,171L93,172L97,174L98,173L99,172L100,172L101,173L102,173L102,175L102,177L101,179L101,181L101,184L101,186L102,187L102,192L102,194L100,201L100,203L100,205L101,208L102,211L105,213L114,219L114,221L115,223L115,225L116,226L116,229L116,244L127,242L134,241L137,240L142,240L147,244Z " data-fips="KZ04" data-hasc="KZ.AT" data-name="Aqtbe" data-postal="AT" data-varname="Aktyubinsk"/><path d="M218,193L218,192L221,190L222,190L222,188L222,187L223,187L225,183L229,183L234,184L237,183L238,182L240,181L242,181L247,177L248,177L249,175L250,174L251,173L259,165L262,161L262,159L263,158L266,157L267,156L268,154L267,154L266,153L265,153L263,154L260,154L258,155L257,156L256,155L255,154L256,153L256,152L254,151L251,151L247,150L245,149L245,148L243,147L243,146L242,145L240,145L239,147L238,147L238,144L236,140L236,139L236,137L236,136L237,135L237,133L236,131L235,130L236,129L238,128L240,126L240,124L241,122L242,121L242,117L242,114L243,111L244,110L244,108L243,107L243,105L244,104L246,104L247,103L246,102L245,101L245,99L245,97L244,96L243,95L244,94L245,92L243,90L242,89L242,87L243,86L246,85L245,83L244,83L243,82L245,81L243,75L242,75L242,74L240,75L239,75L238,75L236,75L236,76L235,76L233,77L233,78L233,81L232,80L230,79L229,80L227,80L226,79L225,80L223,80L222,80L221,80L220,81L220,82L218,82L217,81L215,82L214,82L213,83L211,82L210,83L210,84L208,84L207,84L205,84L204,84L204,85L204,87L203,88L203,87L202,86L202,85L198,85L198,86L196,86L196,85L195,85L193,85L192,84L191,83L190,83L189,84L189,85L189,86L188,85L187,85L186,86L187,86L188,87L189,88L188,89L187,90L186,91L185,91L187,91L188,92L189,93L190,92L192,92L191,94L190,95L190,94L188,94L188,95L187,96L187,97L188,98L190,98L192,99L193,99L193,100L195,101L197,101L198,102L197,104L197,105L195,105L194,104L193,104L191,104L190,103L189,103L188,103L187,103L186,103L185,103L186,104L183,106L182,107L181,107L181,109L182,110L182,110L182,112L184,113L184,114L184,115L183,116L182,117L181,117L181,118L179,118L178,118L177,118L176,119L174,121L172,121L172,122L173,123L174,123L175,124L177,125L176,126L176,127L177,128L182,130L182,131L183,131L185,132L186,132L187,132L188,133L189,135L190,136L192,136L193,137L193,138L193,139L194,140L196,139L197,141L196,142L198,144L197,146L197,147L199,148L199,152L201,156L203,160L203,163L202,163L201,162L200,163L199,165L198,166L197,168L197,169L196,169L195,171L197,175L196,175L195,175L196,176L197,178L199,182L201,182L202,182L204,182L204,184L203,185L211,190L215,196Z " data-fips="KZ13" data-hasc="KZ.QS" data-name="Qostanay" data-postal="QS" data-varname="Kustanai|Kustanay"/><path d="M245,302L247,301L249,301L252,299L258,294L265,290L264,289L264,288L263,287L263,289L263,287L264,286L264,284L265,283L265,281L267,281L267,280L267,278L267,277L269,277L269,276L265,273L264,272L263,271L262,270L261,269L260,255L259,254L258,253L256,252L256,249L257,245L258,243L258,241L256,240L256,238L256,236L254,236L252,236L234,232L231,230L228,227L227,227L212,220L211,220L209,220L206,218L204,218L201,216L197,215L199,214L198,214L197,213L196,212L194,212L193,208L191,206L190,206L188,202L184,201L181,202L178,206L176,209L173,213L170,213L169,214L168,216L165,217L161,219L158,222L150,231L148,235L147,244L147,244L173,265L173,266L173,267L174,269L176,272L184,282L191,282L201,281L218,283L224,280L225,280L227,284L229,286L232,288L236,296L240,294L239,303L239,305L239,306L239,306L240,306L241,306Z M205,244L203,244L202,244L201,243L200,242L199,241L198,239L198,238L198,235L198,234L199,233L200,231L201,230L202,230L203,229L205,229L206,229L208,229L209,230L210,231L211,232L212,233L213,235L213,236L213,238L212,239L212,241L211,242L210,243L209,244L207,244L206,244Z " data-fips="KZ14" data-hasc="KZ.QO" data-name="Qyzylorda" data-postal="QO" data-varname="Kyzyl-Orda|Kzyl-Orda|Kzyl-Ordinskaya Oblast'"/><path d="M115,225L115,223L114,221L114,219L105,213L102,211L101,208L100,205L100,203L100,201L102,194L102,192L102,187L101,186L101,184L101,181L101,179L102,177L102,175L102,173L101,173L100,172L99,172L98,173L97,174L93,172L93,171L94,169L94,167L93,164L92,165L92,165L90,164L90,163L87,165L86,166L85,166L80,165L78,167L77,169L75,171L74,173L73,174L69,173L67,172L67,172L65,171L65,170L65,168L60,167L59,167L57,167L56,168L54,169L53,169L51,170L40,174L34,174L33,175L28,171L7,162L6,163L6,164L6,165L7,166L6,166L5,167L6,169L5,170L5,171L7,173L8,172L9,171L11,173L17,174L17,175L18,180L19,181L20,182L20,183L21,188L23,195L22,196L19,196L19,195L18,194L17,194L16,196L17,197L17,198L18,198L19,199L19,200L20,200L21,201L22,202L24,203L24,202L25,203L25,202L26,203L26,201L27,202L27,200L28,201L28,202L28,201L30,202L30,201L31,201L32,202L33,201L34,201L35,201L36,200L38,199L39,199L39,198L41,198L42,197L42,198L44,198L45,197L46,196L46,198L48,196L49,195L51,195L53,195L55,197L56,197L57,198L58,198L58,200L59,200L60,200L60,201L61,201L62,202L62,203L64,203L63,202L64,202L66,202L67,201L67,200L68,201L69,202L71,202L73,203L74,204L75,205L75,206L75,207L76,208L75,209L74,209L73,210L72,211L73,211L73,212L73,212L74,213L74,214L74,216L73,217L73,218L72,219L72,220L71,222L70,222L69,223L68,224L70,225L77,225L80,224L79,222L81,221L83,219L84,219L86,219L96,218L100,219L104,217L106,219L107,219L108,220L108,222L109,223L110,223L111,224L113,225L114,225L116,226Z " data-fips="KZ06" data-hasc="KZ.AR" data-name="Atyrau" data-postal="AR" data-varname="Ateransk|Gur'yev"/><path d="M34,174L40,174L51,170L53,169L54,169L56,168L57,167L59,167L60,167L65,168L65,170L65,171L67,172L67,172L69,173L73,174L74,173L75,171L77,169L78,167L80,165L85,166L86,166L87,165L90,163L90,161L91,159L91,158L93,157L95,156L96,155L97,156L99,155L100,154L100,153L101,153L102,152L102,151L103,149L102,147L102,146L102,144L102,142L103,142L105,139L104,139L103,138L103,137L104,136L104,135L105,133L104,133L102,131L102,131L101,129L101,128L100,127L100,126L99,126L96,124L96,123L97,122L96,121L95,119L93,119L92,119L90,118L89,119L88,118L87,118L86,118L84,118L84,117L84,115L83,114L83,112L83,112L82,112L81,112L79,113L79,113L77,113L76,114L76,115L75,116L74,115L74,114L73,115L71,115L70,114L70,113L72,113L72,112L71,111L70,111L67,109L66,108L65,109L65,111L64,111L63,110L62,111L62,112L61,113L60,113L59,114L59,115L57,116L54,116L52,117L51,118L48,116L47,117L46,118L46,119L46,121L45,122L44,122L42,122L41,123L38,124L37,124L35,123L36,124L36,125L36,126L36,129L36,130L36,132L35,133L36,134L36,135L35,136L33,137L30,137L29,137L28,136L28,135L27,134L27,133L27,132L27,130L27,129L26,128L25,127L25,126L24,125L23,123L22,123L21,124L20,125L19,126L19,127L18,128L19,129L18,130L17,131L16,131L13,132L12,133L9,142L10,143L10,145L10,146L9,147L8,148L7,148L6,149L3,153L0,157L5,161L7,162L28,171L33,175Z " data-fips="KZ07" data-hasc="KZ.WK" data-name="West Kazakhstan" data-postal="WK" data-varname="Ural'sk"/><path d="M296,160L297,157L299,156L300,157L300,155L300,153L301,153L303,152L303,151L305,150L306,150L307,148L309,147L310,147L312,148L312,150L312,151L312,153L313,152L316,152L316,150L317,150L319,149L319,148L320,147L321,146L322,146L322,145L323,143L325,144L326,143L327,142L327,141L329,140L330,139L330,138L329,138L328,139L328,138L327,136L328,136L330,135L333,134L333,132L334,131L336,131L337,130L338,129L337,129L335,129L334,128L333,128L333,127L333,124L335,123L334,112L329,111L327,109L322,108L321,108L321,106L320,103L319,103L318,103L317,104L315,104L313,106L309,106L307,105L307,104L307,103L307,101L307,100L306,99L305,97L302,99L301,99L299,98L299,97L296,97L294,97L293,99L292,100L291,99L290,98L288,98L289,97L289,96L286,96L286,95L286,93L285,92L283,92L281,94L281,95L280,96L280,95L279,94L278,93L277,94L275,93L274,94L274,95L273,96L273,96L272,97L271,98L272,100L272,100L274,101L274,102L275,103L274,105L274,106L274,109L273,110L272,111L271,111L270,113L269,114L267,115L266,116L267,117L265,118L265,120L264,119L261,118L260,117L258,117L258,120L256,120L255,121L251,120L249,120L249,118L246,119L245,119L244,118L242,117L242,121L241,122L240,124L240,126L238,128L236,129L235,130L236,131L237,133L237,135L236,136L236,137L236,139L236,140L238,144L238,147L239,147L240,145L242,145L243,146L243,147L245,148L245,149L247,150L251,151L254,151L256,152L256,153L255,154L256,155L257,156L258,155L260,154L263,154L265,153L266,153L265,151L269,151L272,149L273,148L274,148L277,149L277,151L276,153L276,155L275,157L275,158L279,160L281,159L281,158L282,158L282,157L284,155L285,156L286,157L287,158L288,158L292,157L293,159L292,160L293,162Z " data-fips="KZ03" data-hasc="KZ.AM" data-name="Aqmola" data-postal="AM" data-varname="Akmolin|Akmolinsk|Tselinograd"/><path d="M346,234L353,225L361,219L364,219L367,218L371,218L373,218L374,218L375,218L376,218L378,217L378,218L380,219L381,219L380,218L380,217L381,218L382,217L383,218L384,219L385,218L385,218L386,217L388,217L389,216L389,213L388,207L384,207L384,209L381,208L378,206L379,205L379,204L382,203L381,200L380,199L381,195L381,193L382,191L383,190L382,190L380,189L380,188L381,187L380,187L378,186L377,186L377,185L377,183L379,183L380,182L381,179L381,178L381,176L379,176L376,177L375,176L375,174L376,173L376,172L374,170L373,169L371,169L371,167L372,165L374,163L376,161L376,158L376,157L377,156L378,155L379,154L381,151L382,150L381,149L381,148L380,146L380,145L377,144L375,144L373,143L372,143L369,146L369,148L369,150L368,150L366,150L365,151L365,152L363,152L359,153L358,153L357,154L354,154L353,155L350,157L349,157L348,156L349,155L350,154L351,153L350,152L349,151L349,150L348,149L346,148L345,149L344,149L344,147L343,147L342,146L340,147L337,148L336,147L336,145L336,144L337,140L337,138L336,136L330,135L328,136L327,136L328,138L328,139L329,138L330,138L330,139L329,140L327,141L327,142L326,143L325,144L323,143L322,145L322,146L321,146L320,147L319,148L319,149L317,150L316,150L316,152L313,152L312,153L312,151L312,150L312,148L310,147L309,147L307,148L306,150L305,150L303,151L303,152L301,153L300,153L300,155L300,157L299,156L297,157L296,160L293,162L292,160L293,159L292,157L288,158L287,158L286,157L285,156L284,155L282,157L282,158L281,158L281,159L279,160L275,158L275,157L276,155L276,153L277,151L277,149L274,148L273,148L272,149L269,151L265,151L266,153L267,154L268,154L267,156L266,157L263,158L262,159L262,161L259,165L251,173L250,174L249,175L248,177L247,177L242,181L240,181L238,182L237,183L234,184L229,183L225,183L223,187L222,187L222,188L222,190L221,190L218,192L218,193L215,196L217,200L217,201L216,203L199,214L197,215L201,216L204,218L206,218L209,220L211,220L212,220L227,227L228,227L231,230L234,232L252,236L254,236L256,236L256,238L281,238Z " data-fips="KZ12" data-hasc="KZ.QG" data-name="Qaraghandy" data-postal="QG" data-varname="Karaganda|Karagandinskaya Oblast'"/><path d="M256,120L258,120L258,117L260,117L261,118L264,119L265,120L265,118L267,117L266,116L267,115L269,114L270,113L271,111L272,111L273,110L274,109L274,106L274,105L275,103L274,102L274,101L272,100L272,100L271,98L272,97L273,96L273,96L274,95L274,94L275,93L277,94L278,93L279,94L280,95L280,96L281,95L281,94L283,92L285,92L286,93L286,95L286,96L289,96L289,97L288,98L290,98L291,99L292,100L293,99L294,97L296,97L299,97L299,98L301,99L302,99L305,97L306,99L307,100L307,101L307,103L307,104L307,105L309,106L313,106L315,104L317,104L318,103L319,103L320,103L321,106L321,108L322,108L327,109L329,111L332,110L330,109L330,108L332,109L332,108L333,107L333,105L332,104L331,104L330,106L329,106L329,104L328,103L328,101L329,100L329,99L328,99L326,100L326,99L326,98L327,97L325,94L325,95L324,94L325,93L323,92L323,91L323,90L324,88L324,87L325,86L327,87L327,86L327,82L326,83L325,84L324,85L324,85L320,85L320,84L319,83L318,82L315,82L314,84L315,84L316,84L316,86L314,86L313,87L313,86L313,84L313,83L314,82L312,82L312,81L311,80L310,79L310,78L308,79L309,80L309,81L310,81L310,83L309,82L308,81L305,81L305,82L305,83L304,83L303,84L302,82L300,82L300,83L299,84L298,83L298,82L297,81L298,80L299,80L299,79L299,78L299,77L298,75L300,74L300,73L298,72L297,72L297,71L296,70L296,68L296,67L296,66L296,65L294,63L294,62L293,61L292,62L291,62L290,62L290,64L288,64L288,65L286,64L285,64L283,62L282,61L280,61L278,61L276,61L276,60L274,60L274,61L274,62L273,61L271,62L271,63L270,64L269,65L268,64L267,64L266,65L266,66L267,67L266,68L266,69L264,69L263,69L262,69L261,70L260,71L257,71L256,71L255,72L254,72L253,73L251,73L249,73L247,73L243,75L245,81L243,82L244,83L245,83L246,85L243,86L242,87L242,89L243,90L245,92L244,94L243,95L244,96L245,97L245,99L245,101L246,102L247,103L246,104L244,104L243,105L243,107L244,108L244,110L243,111L242,114L242,117L244,118L245,119L246,119L249,118L249,120L251,120L255,121Z " data-fips="KZ16" data-hasc="KZ.NK" data-name="North Kazakhstan" data-postal="NK" data-varname="Severo-Kazakhstan|Soltustik Qazaqstan"/><path d="M353,155L354,154L357,154L358,153L359,153L363,152L365,152L365,151L366,150L368,150L369,150L369,148L369,146L372,143L373,143L375,144L377,144L380,145L380,146L381,148L381,149L382,150L383,150L384,151L387,151L391,152L393,149L394,147L394,145L393,143L392,141L392,139L388,137L387,136L386,136L386,135L385,134L384,133L384,132L385,131L386,130L387,130L388,130L391,127L391,126L391,125L393,125L394,123L394,122L396,121L396,119L392,114L384,103L377,94L375,92L372,89L358,81L358,80L356,78L357,78L360,78L360,77L361,76L361,75L361,74L360,73L361,72L361,72L360,72L359,73L359,74L358,74L357,75L354,75L354,76L348,80L346,80L345,81L346,82L342,86L341,86L339,86L339,87L338,88L338,89L336,90L336,91L336,93L335,93L334,92L334,91L332,91L331,90L330,91L328,91L327,92L327,93L326,94L325,94L327,97L326,98L326,99L326,100L328,99L329,99L329,100L328,101L328,103L329,104L329,106L330,106L331,104L332,104L333,105L333,107L332,108L332,109L330,108L330,109L332,110L334,112L335,123L333,124L333,127L333,128L334,128L335,129L337,129L338,129L337,130L336,131L334,131L333,132L333,134L336,136L337,138L337,140L336,144L336,145L336,147L337,148L340,147L342,146L343,147L344,147L344,149L345,149L346,148L348,149L349,150L349,151L350,152L351,153L350,154L349,155L348,156L349,157L350,157Z " data-fips="KZ11" data-hasc="KZ.PA" data-name="Pavlodar" data-postal="PA" data-varname=""/><path d="M453,226L453,225L453,223L454,221L454,220L454,218L454,216L454,214L454,213L455,211L455,209L455,208L455,204L456,199L456,198L456,196L456,195L456,194L457,194L459,194L460,195L463,196L468,196L470,196L471,195L472,195L474,194L476,195L477,194L478,194L479,196L479,197L480,196L481,195L482,194L483,194L483,193L484,191L485,191L487,190L487,190L487,188L488,187L489,186L488,185L488,184L487,182L486,181L486,179L484,173L484,172L484,170L484,166L485,164L487,163L490,163L491,161L492,161L494,160L494,159L494,158L495,156L495,154L495,153L494,152L493,151L494,150L494,149L495,148L496,148L497,147L498,147L500,147L499,145L497,145L496,145L495,145L494,144L494,143L492,142L492,141L490,141L489,141L489,140L489,139L490,138L490,137L489,137L488,137L487,138L487,139L486,141L485,142L485,144L484,143L483,143L482,144L481,143L480,144L479,143L478,143L477,143L476,144L474,144L473,144L472,144L471,142L470,141L469,139L468,139L468,138L469,137L468,136L467,136L466,136L465,136L464,136L463,135L462,135L461,134L460,135L458,135L458,134L458,133L457,132L457,130L456,129L455,128L453,127L453,126L452,125L450,124L449,124L448,124L447,124L446,123L445,123L443,124L442,124L442,126L441,126L440,127L438,127L438,128L437,129L435,130L434,130L433,131L432,132L431,132L430,131L429,131L427,131L427,132L423,132L424,131L423,130L423,129L421,129L420,130L418,129L419,128L419,126L418,125L417,125L416,125L416,124L415,124L413,124L412,125L412,126L411,126L410,127L411,128L411,129L412,130L411,131L410,132L409,132L409,133L408,134L407,134L407,135L406,134L406,133L398,123L396,119L396,121L394,122L394,123L393,125L391,125L391,126L391,127L388,130L387,130L386,130L385,131L384,132L384,133L385,134L386,135L386,136L387,136L388,137L392,139L392,141L393,143L394,145L394,147L393,149L391,152L387,151L384,151L383,150L382,150L381,151L379,154L378,155L377,156L376,157L376,158L376,161L374,163L372,165L371,167L371,169L373,169L374,170L376,172L376,173L375,174L375,176L376,177L379,176L381,176L381,178L381,179L380,182L379,183L377,183L377,185L377,186L378,186L380,187L381,187L380,188L380,189L382,190L383,190L382,191L381,193L381,195L380,199L381,200L382,203L379,204L379,205L378,206L381,208L384,209L384,207L388,207L388,206L391,206L392,205L393,204L394,205L396,203L400,205L401,205L402,205L403,206L405,206L406,206L410,206L413,209L419,207L423,209L424,209L430,211L433,211L435,211L436,212L438,212L441,213L442,214L446,218L448,221L449,223L450,225L450,227L453,227Z " data-fips="KZ15" data-hasc="KZ.EK" data-name="East Kazakhstan" data-postal="EK" data-varname="Shyghys Qazaqstan|Vostochno-Kazakhstan"/><path d="M436,293L435,291L435,290L435,289L434,288L434,287L434,286L434,284L435,283L436,282L436,282L437,281L438,280L437,280L436,280L435,279L436,278L437,277L438,276L439,276L441,276L441,275L440,274L440,273L438,272L439,271L439,270L434,262L433,260L433,259L432,258L432,257L432,255L431,253L431,251L431,249L430,248L431,248L432,246L429,246L428,245L425,246L423,246L423,245L424,244L425,243L426,242L427,242L428,241L430,241L430,240L431,239L434,238L435,238L437,237L438,237L439,236L444,234L445,233L446,232L447,233L448,235L449,235L450,235L453,233L455,233L456,234L457,234L458,233L458,232L458,229L457,228L456,228L453,228L453,227L450,227L450,225L449,223L448,221L446,218L442,214L441,213L438,212L436,212L435,211L433,211L430,211L424,209L423,209L419,207L413,209L410,206L406,206L405,206L403,206L402,205L401,205L400,205L396,203L394,205L393,204L392,205L391,206L388,206L388,207L389,213L389,216L388,217L386,217L385,218L385,218L384,219L383,218L382,217L381,218L380,217L380,218L381,219L380,219L378,218L378,217L376,218L375,218L374,218L373,218L371,218L367,218L364,219L361,219L353,225L346,234L345,238L345,242L346,245L346,247L343,248L343,249L344,251L345,251L347,251L347,253L348,254L353,258L354,261L355,263L357,264L360,265L362,266L364,267L365,268L365,270L365,272L362,278L363,279L364,279L365,279L366,279L367,279L367,281L366,283L366,284L367,285L368,286L370,287L371,288L370,288L374,289L375,289L376,289L377,288L378,289L380,288L381,289L382,289L383,288L384,288L385,288L386,287L387,287L388,286L389,286L392,286L393,287L395,287L396,287L398,287L399,286L400,286L402,286L403,286L404,287L406,286L407,286L408,286L409,285L410,285L412,286L413,286L415,286L417,286L418,286L420,286L420,286L421,288L421,288L423,289L424,291L425,291L426,291L428,291L432,291L433,292L434,293L435,294L436,294Z " data-fips="KZ01" data-hasc="KZ.AA" data-name="Almaty" data-postal="AA" data-varname="Alma-Ata|Alma-Atinskaya Oblast'|Almatinskaya Oblast'"/><path d="M93,314L94,314L95,314L97,314L106,245L116,244L116,229L116,226L114,225L113,225L111,224L110,223L109,223L108,222L108,220L107,219L106,219L104,217L100,219L96,218L86,219L84,219L83,219L81,221L79,222L80,224L77,225L70,225L68,224L68,224L67,226L66,226L66,228L66,229L67,229L68,230L69,231L70,232L72,233L71,233L69,233L68,233L67,233L66,232L65,232L62,230L61,230L56,229L55,229L54,229L52,228L51,228L50,229L49,229L48,228L48,229L46,230L45,231L45,233L45,234L44,233L43,233L42,234L40,234L40,235L40,236L41,237L42,238L43,239L43,240L44,242L45,242L46,243L47,244L46,244L44,243L43,243L42,244L41,243L40,243L39,242L39,241L38,240L36,240L35,239L33,239L31,238L30,239L29,240L29,242L29,243L29,244L30,245L34,246L36,248L36,249L36,250L36,252L36,253L37,254L37,255L37,256L38,259L39,260L39,261L39,262L40,263L39,267L38,269L39,269L41,269L42,269L43,269L43,270L44,271L44,273L44,274L45,275L46,276L47,276L49,276L51,278L52,278L53,278L54,279L55,280L56,280L56,282L55,282L55,281L54,281L55,282L55,283L54,284L54,286L53,286L53,287L52,288L51,290L50,290L50,291L50,292L50,293L50,294L50,296L49,297L54,294L57,292L61,292L65,291L73,291L74,291L75,292L81,298L84,301L84,302L84,303L85,306L87,310L87,311L88,312L89,313L90,314Z M33,231L33,230L32,230L32,231L32,232Z M29,233L28,232L28,231L29,230L30,230L29,230L28,232L28,233L29,234Z " data-fips="KZ09" data-hasc="KZ.MG" data-name="Mangghystau" data-postal="MG" data-varname="Mangistau|Mangyshlak"/><path d="M274,339L275,338L275,337L274,336L274,334L275,333L276,332L276,332L277,330L278,329L279,328L280,328L281,327L281,325L281,324L282,324L283,323L284,323L285,322L286,322L286,321L287,320L288,320L289,319L291,318L293,318L294,317L295,316L296,315L298,313L298,312L299,311L301,310L301,311L302,312L303,311L304,309L304,308L305,308L306,308L307,307L306,305L306,305L306,305L305,304L304,303L303,302L301,301L301,300L299,299L298,299L297,298L297,296L297,294L296,293L296,292L295,292L295,290L294,290L292,289L291,289L289,289L288,287L287,285L288,283L292,273L292,271L290,262L286,249L283,241L281,238L256,238L256,240L258,241L258,243L257,245L256,249L256,252L258,253L259,254L260,255L261,269L262,270L263,271L264,272L265,273L269,276L269,277L267,277L267,278L267,280L267,281L265,281L265,283L264,284L264,286L263,287L263,289L263,287L264,288L264,289L265,290L258,294L252,299L249,301L247,301L245,302L241,306L240,306L239,306L239,306L238,313L245,313L246,318L247,322L248,328L248,329L250,329L263,328L264,329L266,329L267,330L267,330L268,331L268,332L268,333L267,334L266,335L267,336L269,337L270,338L273,339Z " data-fips="KZ10" data-hasc="KZ.SK" data-name="South Kazakhstan" data-postal="SK" data-varname="Chimkent"/><path d="M307,305L307,303L308,303L309,302L308,302L308,301L310,300L310,299L311,298L312,297L313,297L314,296L315,296L316,297L317,296L319,296L320,295L321,296L322,297L324,296L326,297L328,298L330,298L332,298L333,300L335,300L337,299L338,300L340,300L340,302L341,302L343,301L342,300L341,298L341,297L342,295L342,294L342,293L342,292L343,290L344,289L346,288L347,288L348,286L349,287L351,286L351,285L352,286L353,286L355,287L356,287L357,288L359,289L361,289L363,290L364,291L365,291L366,291L370,291L372,291L373,290L374,289L370,288L371,288L370,287L368,286L367,285L366,284L366,283L367,281L367,279L366,279L365,279L364,279L363,279L362,278L365,272L365,270L365,268L364,267L362,266L360,265L357,264L355,263L354,261L353,258L348,254L347,253L347,251L345,251L344,251L343,249L343,248L346,247L346,245L345,242L345,238L346,234L281,238L283,241L286,249L290,262L292,271L292,273L288,283L287,285L288,287L289,289L291,289L292,289L294,290L295,290L295,292L296,292L296,293L297,294L297,296L297,298L298,299L299,299L301,300L301,301L303,302L304,303L305,304L306,305L306,305L306,305Z " data-fips="KZ17" data-hasc="KZ.ZM" data-name="Zhambyl" data-postal="ZM" data-varname="Dzhambul"/></g></svg>