<?xml version="1.0" ?><!DOCTYPE svg  PUBLIC '-//W3C//DTD SVG 1.1//EN'  'http://www.w3.org/Graphics/SVG/1.1/DTD/svg11.dtd'><svg enable_background="new 0 0 500 401" height="401px" style="stroke-linejoin: round; stroke:#000; fill:#f6f3f0;" version="1.1" viewBox="0 0 500 401" width="500px" xmlns="http://www.w3.org/2000/svg" xmlns:xlink="http://www.w3.org/1999/xlink"><defs><style type="text/css"><![CDATA[path { fill-rule: evenodd; }
#context path { fill: #eee; stroke: #bbb; } ]]></style></defs><metadata><views><view h="401" padding="0" w="500"><proj id="laea" lat0="41.465" lon0="74.555"/><bbox h="49.97" w="102.72" x="949.47" y="977.82"/><llbbox lat0="-90" lat1="90" lon0="-180" lon1="180"/></view></views></metadata><g id="admin1"><path d="M248,107L249,105L250,105L250,104L250,103L250,102L251,101L250,100L249,99L249,97L248,99L247,100L244,100L244,101L244,102L247,104L247,105L247,107Z " data-fips="KG01" data-hasc="KG.GB" data-name="Bishkek" data-postal="GB" data-varname=""/><path d="M228,161L228,160L229,159L231,158L232,158L233,158L234,157L234,155L234,154L236,152L235,151L236,150L236,149L238,148L237,147L236,146L235,145L236,140L237,139L238,139L240,140L241,140L249,139L250,139L251,140L252,138L255,136L259,135L260,135L260,134L258,131L258,128L264,127L265,127L266,127L267,128L269,128L270,127L272,127L279,127L280,127L282,126L284,127L288,127L289,126L289,127L290,129L293,126L294,126L296,125L296,124L296,122L297,122L298,121L300,120L302,119L302,118L303,118L307,118L313,116L315,116L316,117L317,117L319,115L321,113L322,112L323,111L326,110L330,109L330,107L331,106L334,107L335,107L337,107L338,107L341,106L343,106L344,107L345,106L346,105L347,104L358,104L360,103L360,101L362,100L363,100L363,99L363,97L362,97L361,97L359,94L357,94L352,93L351,93L349,94L346,94L345,95L344,96L343,96L342,97L340,98L338,98L335,99L334,99L332,98L330,98L329,99L327,99L327,98L326,98L324,99L321,98L317,98L313,97L312,97L308,98L305,97L303,97L301,97L299,98L298,102L297,103L295,104L294,105L293,105L289,104L287,104L277,103L275,103L273,103L271,101L270,100L268,99L266,99L264,98L263,97L259,95L254,94L253,94L248,89L247,88L245,86L243,86L242,85L239,84L237,82L236,82L234,81L233,81L231,79L229,78L231,80L231,81L230,82L223,82L220,81L219,82L217,86L216,87L213,87L206,90L203,91L202,92L200,97L199,100L199,101L199,102L200,104L200,106L198,108L196,114L195,116L195,118L196,120L196,122L199,128L201,128L202,127L202,126L202,125L203,124L203,125L204,126L205,126L207,126L208,128L207,129L206,130L205,131L205,133L203,135L200,136L199,136L197,135L196,135L194,135L191,136L190,136L189,136L187,136L186,136L184,137L184,138L183,138L181,138L180,139L180,141L180,142L182,143L182,144L182,145L183,146L184,146L186,147L188,147L189,148L190,148L191,149L192,150L193,151L194,152L196,152L198,153L199,152L200,152L205,154L206,154L207,153L209,152L210,152L212,154L212,156L218,156L219,155L221,155L222,156L223,157L223,158L224,158L225,158L226,158L227,159L227,160L227,162Z M247,107L247,105L247,104L244,102L244,101L244,100L247,100L248,99L249,97L249,99L250,100L251,101L250,102L250,103L250,104L250,105L249,105L248,107Z " data-fips="KG02" data-hasc="KG.GB" data-name="Chuy" data-postal="" data-varname=""/><path d="M413,198L414,196L415,196L416,195L417,194L418,193L417,192L417,189L417,188L418,187L420,186L424,182L427,182L429,180L430,178L431,177L437,174L442,171L444,170L449,166L451,165L453,165L454,164L455,164L458,161L459,161L461,161L463,161L467,158L470,157L472,155L474,154L476,154L478,154L479,152L480,151L480,149L481,148L482,146L483,146L486,145L497,144L499,143L500,141L499,139L498,138L498,137L497,134L495,133L494,131L493,129L491,127L488,125L485,122L484,121L474,119L472,119L468,120L464,120L462,119L460,118L458,113L457,112L453,110L451,109L451,108L450,107L450,105L450,104L449,101L448,101L447,101L443,103L442,103L440,103L437,103L433,101L427,101L426,99L424,98L419,97L416,97L414,98L412,99L410,99L408,98L406,99L404,99L399,99L397,99L394,98L393,97L392,97L391,97L390,98L389,98L388,97L385,97L381,97L379,98L377,98L376,97L374,97L373,96L371,96L369,97L368,98L363,97L363,99L363,100L362,100L360,101L360,103L358,104L347,104L346,105L345,106L344,107L343,106L341,106L338,107L337,107L335,107L334,107L331,106L330,107L330,109L326,110L323,111L322,112L321,113L319,115L317,117L316,117L315,116L313,116L307,118L303,118L302,118L302,119L300,120L298,121L297,122L296,122L296,124L296,125L294,126L294,126L295,129L296,129L297,129L299,130L300,132L304,132L305,130L306,130L308,130L308,131L309,133L309,134L310,135L310,136L310,139L309,140L310,141L311,142L311,144L314,146L314,147L314,148L313,149L313,150L311,151L311,153L313,153L316,152L318,151L319,152L320,153L322,153L323,152L325,153L326,153L328,154L332,154L335,156L337,157L338,157L340,156L339,158L339,160L338,162L337,162L334,162L332,162L331,163L331,164L332,166L339,166L340,165L341,165L342,166L343,167L344,168L343,169L343,170L342,171L342,172L342,174L341,175L341,176L342,176L343,176L344,177L345,177L347,178L349,177L350,177L352,176L355,177L357,177L366,177L367,176L368,175L370,175L371,174L372,175L371,178L371,179L370,182L369,182L369,184L370,185L370,186L373,187L375,188L375,189L374,191L374,192L373,194L373,195L372,196L374,196L381,193L383,192L385,192L386,193L386,194L385,196L386,198L387,198L391,198L397,199L400,199L402,198L403,198L406,196L408,195L409,196L410,196L410,198L411,199L412,200Z " data-fips="KG06" data-hasc="KG.YK" data-name="Ysyk-Kl" data-postal="YK" data-varname="Issyk-Kul, Issyk-Kul'skaya Oblast'"/><path d="M299,256L301,255L303,255L306,256L307,256L308,255L309,255L309,254L310,253L310,252L314,250L316,250L319,251L321,250L322,248L323,247L324,247L325,248L326,252L327,252L329,251L333,248L334,247L335,245L336,241L337,239L340,237L340,235L340,229L341,227L342,225L344,224L346,222L346,222L347,220L346,219L346,218L346,217L346,216L347,215L349,214L349,213L350,212L352,211L357,210L358,210L361,211L362,211L368,212L370,211L372,211L374,211L377,212L378,213L380,213L383,212L385,212L387,211L393,208L394,207L396,207L402,208L404,208L405,208L410,203L411,202L412,200L411,199L410,198L410,196L409,196L408,195L406,196L403,198L402,198L400,199L397,199L391,198L387,198L386,198L385,196L386,194L386,193L385,192L383,192L381,193L374,196L372,196L373,195L373,194L374,192L374,191L375,189L375,188L373,187L370,186L370,185L369,184L369,182L370,182L371,179L371,178L372,175L371,174L370,175L368,175L367,176L366,177L357,177L355,177L352,176L350,177L349,177L347,178L345,177L344,177L343,176L342,176L341,176L341,175L342,174L342,172L342,171L343,170L343,169L344,168L343,167L342,166L341,165L340,165L339,166L332,166L331,164L331,163L332,162L334,162L337,162L338,162L339,160L339,158L340,156L338,157L337,157L335,156L332,154L328,154L326,153L325,153L323,152L322,153L320,153L319,152L318,151L316,152L313,153L311,153L311,151L313,150L313,149L314,148L314,147L314,146L311,144L311,142L310,141L309,140L310,139L310,136L310,135L309,134L309,133L308,131L308,130L306,130L305,130L304,132L300,132L299,130L297,129L296,129L295,129L294,126L294,126L293,126L290,129L289,127L289,126L288,127L284,127L282,126L280,127L279,127L272,127L270,127L269,128L267,128L266,127L265,127L264,127L258,128L258,131L260,134L260,135L259,135L255,136L252,138L251,140L250,139L249,139L241,140L240,140L238,139L237,139L236,140L235,145L236,146L237,147L238,148L236,149L236,150L235,151L236,152L234,154L234,155L234,157L233,158L232,158L231,158L229,159L228,160L228,161L227,162L227,160L227,159L226,158L225,158L224,158L223,158L223,157L222,156L221,155L219,155L218,156L212,156L212,157L211,159L210,160L209,160L210,161L211,163L213,163L213,162L214,161L215,162L216,162L218,162L220,163L220,164L220,165L220,169L222,170L224,170L225,170L226,171L226,172L227,177L226,178L224,177L224,175L224,174L223,173L222,172L221,172L218,172L217,174L218,174L218,176L219,176L221,177L221,178L223,178L223,179L224,180L225,180L228,179L229,180L230,180L231,181L232,180L234,180L236,180L239,181L240,181L241,180L242,179L244,180L245,180L251,177L252,176L253,176L254,177L255,178L254,180L254,183L253,184L253,186L252,188L250,191L248,192L246,193L243,193L242,194L241,194L237,196L236,197L237,199L239,201L238,201L236,201L232,202L230,202L228,203L227,203L227,204L225,204L224,205L224,206L227,210L227,211L223,215L223,217L228,221L230,223L230,224L231,225L232,226L234,228L236,229L236,231L237,232L239,233L240,234L246,236L247,237L248,238L247,239L247,240L248,241L252,242L252,243L254,243L257,243L259,243L260,243L261,243L265,246L266,247L268,247L269,247L271,246L273,246L274,247L276,247L277,246L277,245L278,245L288,237L290,236L292,236L293,237L294,239L294,243L295,245L297,246L296,248L296,249L295,250L296,251L296,254L297,255L298,256Z " data-fips="KG03" data-hasc="KG.NA" data-name="Naryn" data-postal="NA" data-varname="Tien-Shanskaya Oblast', Tyan'-Shan'"/><path d="M72,307L74,306L75,306L77,305L78,306L79,306L80,307L81,306L82,304L83,303L84,301L86,300L88,300L90,299L92,300L93,300L95,298L97,297L99,296L100,295L103,295L104,296L105,296L105,296L105,295L106,293L107,291L108,290L112,290L113,289L114,288L116,287L116,288L117,289L118,290L125,291L127,292L128,293L130,294L131,294L133,294L134,294L136,294L139,294L140,294L141,293L143,293L144,292L145,291L148,290L150,290L152,289L152,288L153,287L152,285L151,284L151,282L150,281L149,281L148,281L147,281L146,279L145,278L145,277L143,276L141,275L141,274L142,273L142,272L142,271L142,270L142,268L141,268L140,266L141,265L141,264L140,263L138,261L139,260L139,259L139,258L139,256L139,255L137,255L133,256L131,256L129,256L130,257L129,258L128,258L127,258L125,257L123,257L121,257L120,258L118,261L118,262L115,263L113,262L113,259L113,258L113,257L112,256L111,257L111,258L110,260L109,260L107,259L106,259L105,258L104,257L103,256L101,255L99,253L97,253L96,253L95,252L94,252L93,253L93,254L92,255L91,255L85,254L83,255L81,256L82,258L81,259L80,260L78,261L76,260L75,260L74,261L73,261L70,263L67,264L66,265L66,266L66,268L65,270L65,271L64,272L63,273L62,273L60,273L59,274L58,275L57,274L57,273L57,272L59,271L60,270L61,269L61,268L60,267L58,266L55,266L53,265L51,264L50,263L49,262L48,261L47,261L45,261L44,261L37,256L36,256L17,261L16,261L14,260L14,261L13,263L12,264L12,265L12,268L12,269L13,272L9,273L7,269L5,267L4,268L3,270L1,277L0,279L0,281L0,282L1,283L2,284L2,285L3,286L3,287L2,294L3,296L5,295L6,294L7,295L8,295L10,295L12,295L13,294L16,293L20,293L22,293L24,294L25,295L27,296L31,295L33,296L34,296L35,295L36,294L37,294L39,294L41,296L42,295L44,292L45,292L45,293L45,294L44,297L46,298L50,295L51,295L53,295L54,294L55,294L56,293L58,294L59,295L60,295L63,295L64,296L64,297L66,301L67,302L67,303L67,305L68,306L69,307L70,307Z M62,283L61,281L59,279L59,278L58,277L59,277L65,279L66,279L68,278L68,280L68,281L66,281L65,282Z M87,278L86,277L85,276L84,277L83,277L83,276L85,273L84,271L83,270L82,269L81,267L81,265L81,264L82,262L83,261L84,262L85,263L85,265L86,266L87,267L91,268L92,268L93,268L93,269L91,270L90,271L90,273L92,275L92,277L91,278L90,278Z M116,278L115,277L114,277L113,275L114,274L116,274L117,273L119,273L118,277Z " data-fips="KG09" data-hasc="KG.BA" data-name="Batken" data-postal="BA" data-varname=""/><path d="M172,222L176,221L177,222L178,223L180,223L181,223L181,223L182,222L183,221L186,220L187,219L187,218L187,217L187,216L187,215L187,214L188,213L191,211L192,212L193,212L194,211L194,210L195,210L196,208L197,208L199,208L203,208L204,207L204,206L204,205L206,205L206,206L207,207L207,208L203,212L202,213L204,214L205,215L206,216L207,216L208,216L208,215L208,214L209,212L211,211L213,207L215,206L216,207L216,208L217,210L217,211L218,213L223,215L227,211L227,210L224,206L224,205L225,204L227,204L227,203L228,203L230,202L232,202L236,201L238,201L239,201L237,199L236,197L237,196L241,194L242,194L243,193L246,193L248,192L250,191L252,188L253,186L253,184L254,183L254,180L255,178L254,177L253,176L252,176L251,177L245,180L244,180L242,179L241,180L240,181L239,181L236,180L234,180L232,180L231,181L230,180L229,180L228,179L225,180L224,180L223,179L223,178L221,178L221,177L219,176L218,176L218,174L217,174L218,172L221,172L222,172L223,173L224,174L224,175L224,177L226,178L227,177L226,172L226,171L225,170L224,170L222,170L220,169L220,165L220,164L220,163L218,162L216,162L215,162L214,161L213,162L213,163L211,163L210,161L209,160L210,160L211,159L212,157L212,156L212,154L210,152L209,152L207,153L206,154L205,154L200,152L199,152L198,153L196,152L194,152L193,151L192,150L191,149L190,148L189,148L188,147L186,147L184,146L183,146L182,145L180,145L179,144L174,145L173,146L172,147L172,148L171,149L169,149L168,149L166,147L165,146L164,145L162,145L159,144L157,144L155,143L154,143L152,143L151,142L151,141L149,140L148,140L144,141L142,142L141,143L141,145L140,146L139,147L138,148L135,148L134,147L132,146L127,144L125,143L124,143L117,140L116,139L110,139L109,140L107,140L106,140L100,139L99,139L99,139L98,141L97,142L93,143L86,148L85,148L82,148L80,148L80,150L79,154L79,155L77,155L73,156L71,157L67,160L65,162L63,165L62,167L61,167L59,168L56,170L49,174L48,176L49,178L50,178L57,180L58,181L59,181L60,182L61,185L62,185L64,185L70,182L71,182L72,182L73,183L75,188L75,189L75,190L74,194L75,196L77,195L79,196L79,196L80,197L81,198L82,199L84,199L86,199L87,200L89,201L91,202L93,204L94,203L94,202L94,200L95,200L96,200L97,204L98,204L99,203L100,202L103,204L104,204L104,201L104,191L105,191L107,193L109,194L111,193L112,192L114,189L114,187L115,186L114,185L113,183L113,182L114,179L115,179L117,180L117,181L117,182L117,186L118,185L119,186L119,185L120,185L124,191L124,193L125,195L125,198L125,200L126,201L129,200L130,201L132,203L133,202L134,201L135,200L136,200L138,201L138,202L138,204L138,206L139,209L139,210L138,211L138,212L139,212L142,211L144,211L144,209L146,209L147,211L148,211L149,212L152,212L152,213L153,215L155,215L157,218L158,220L160,221L162,221L168,221L169,221L169,223L170,224Z " data-fips="KG02" data-hasc="KG.DA" data-name="Jalal-Abad" data-postal="DA" data-varname="Djalal-Abad, Dzhalal-Abadskaya Oblast'|alal-Abad"/><path d="M171,149L172,148L172,147L173,146L174,145L179,144L180,145L182,145L182,144L182,143L180,142L180,141L180,139L181,138L183,138L184,138L184,137L186,136L187,136L189,136L190,136L191,136L194,135L196,135L197,135L199,136L200,136L203,135L205,133L205,131L206,130L207,129L208,128L207,126L205,126L204,126L203,125L203,124L202,125L202,126L202,127L201,128L199,128L199,128L199,129L198,129L195,128L191,127L191,125L191,124L190,123L189,122L186,122L185,122L184,121L182,120L180,120L175,121L173,121L172,120L170,120L169,119L167,116L166,114L165,114L159,112L156,112L154,112L149,108L146,107L140,106L138,107L136,107L131,104L129,103L127,102L126,102L124,102L121,102L120,103L116,105L115,106L114,106L111,104L110,104L108,103L107,103L106,104L106,105L104,106L103,107L102,106L100,106L99,108L98,109L96,110L95,111L95,115L94,115L91,116L89,117L90,119L91,122L91,123L90,123L87,122L86,123L86,124L85,126L85,127L85,128L84,129L82,131L82,133L83,135L84,135L86,135L87,135L89,133L90,133L91,134L97,138L99,139L100,139L106,140L107,140L109,140L110,139L116,139L117,140L124,143L125,143L127,144L132,146L134,147L135,148L138,148L139,147L140,146L141,145L141,143L142,142L144,141L148,140L149,140L151,141L151,142L152,143L154,143L155,143L157,144L159,144L162,145L164,145L165,146L166,147L168,149L169,149Z " data-fips="KG04" data-hasc="KG.TL" data-name="Talas" data-postal="TL" data-varname=""/><path d="M140,317L141,314L143,313L144,312L146,312L148,312L149,312L151,310L152,310L153,311L155,311L156,309L158,309L167,312L170,311L173,312L174,312L177,311L178,312L180,312L181,312L186,310L189,309L190,308L191,307L196,306L198,306L202,306L203,307L212,306L213,304L214,302L214,301L216,299L217,298L216,295L216,292L215,291L215,290L214,290L212,289L212,288L212,287L212,285L213,284L213,283L214,282L215,281L215,279L216,277L217,277L218,276L218,274L218,272L219,271L221,270L224,270L225,269L227,268L228,267L230,267L231,268L233,268L234,268L236,268L237,267L242,263L246,259L248,258L250,256L254,254L255,254L259,255L260,254L259,251L257,249L257,247L257,246L258,244L259,243L257,243L254,243L252,243L252,242L248,241L247,240L247,239L248,238L247,237L246,236L240,234L239,233L237,232L236,231L236,229L234,228L232,226L231,225L230,224L230,223L228,221L223,217L223,215L218,213L217,211L217,210L216,208L216,207L215,206L213,207L211,211L209,212L208,214L208,215L208,216L207,216L206,216L205,215L204,214L202,213L203,212L207,208L207,207L206,206L206,205L204,205L204,206L204,207L203,208L199,208L197,208L196,208L195,210L194,210L194,211L193,212L192,212L191,211L188,213L187,214L187,215L187,216L187,217L187,218L187,219L186,220L183,221L182,222L181,223L181,223L182,223L182,224L181,226L178,227L174,229L170,231L167,232L165,233L164,234L164,238L162,239L160,238L159,239L159,241L158,242L156,242L153,240L151,240L150,239L148,237L147,236L145,236L145,237L146,239L146,240L146,241L146,242L148,244L149,245L149,246L148,248L147,249L146,249L145,249L141,247L139,246L140,246L141,245L140,245L137,245L133,247L133,248L132,250L131,251L127,253L127,255L128,256L129,256L131,256L133,256L137,255L139,255L139,256L139,258L139,259L139,260L138,261L140,263L141,264L141,265L140,266L141,268L142,268L142,270L142,271L142,272L142,273L141,274L141,275L143,276L145,277L145,278L146,279L147,281L148,281L149,281L150,281L151,282L151,284L152,285L153,287L152,288L152,289L150,290L148,290L145,291L144,292L143,293L141,293L140,294L139,294L136,294L134,294L133,294L131,294L130,294L128,293L127,292L125,291L118,290L117,289L116,288L116,287L114,288L113,289L112,290L108,290L107,291L106,293L105,295L105,296L105,296L105,296L106,297L106,299L104,301L104,302L105,304L107,305L109,305L114,304L115,305L116,306L116,308L116,309L115,310L114,311L114,312L114,314L115,315L116,316L118,316L120,315L125,311L127,311L130,310L130,311L131,312L131,314L132,316L132,316L134,317L136,317L137,318L137,319L137,320L138,321Z " data-fips="KG08" data-hasc="KG.OS" data-name="Osh" data-postal="OS" data-varname=""/></g></svg>