<?xml version="1.0" ?><!DOCTYPE svg  PUBLIC '-//W3C//DTD SVG 1.1//EN'  'http://www.w3.org/Graphics/SVG/1.1/DTD/svg11.dtd'><svg enable_background="new 0 0 500 401" height="401px" style="stroke-linejoin: round; stroke:#000; fill:#f6f3f0;" version="1.1" viewBox="0 0 500 401" width="500px" xmlns="http://www.w3.org/2000/svg" xmlns:xlink="http://www.w3.org/1999/xlink"><defs><style type="text/css"><![CDATA[path { fill-rule: evenodd; }
#context path { fill: #eee; stroke: #bbb; } ]]></style></defs><metadata><views><view h="401" padding="0" w="500"><proj id="laea" lat0="36.504" lon0="128.103"/><bbox h="66.8" w="61.52" x="966.05" y="973.83"/><llbbox lat0="-90" lat1="90" lon0="-180" lon1="180"/></view></views></metadata><g id="admin1"><path d="M250,194L252,193L254,194L255,194L256,193L257,192L259,192L259,190L260,188L261,187L261,185L261,184L261,182L262,181L264,181L265,181L264,178L263,177L260,177L259,177L257,175L256,175L253,175L253,172L254,171L255,169L254,168L254,167L254,165L255,161L255,159L256,158L253,154L251,154L250,152L252,151L253,150L255,148L255,146L257,145L259,144L260,142L262,143L266,144L266,142L264,141L265,139L266,138L266,136L267,137L268,137L269,136L270,135L271,135L273,136L275,136L275,135L276,134L276,133L277,132L278,133L279,134L280,135L281,137L283,137L288,135L289,132L288,131L288,130L289,128L290,126L292,125L293,123L295,123L296,122L297,121L299,119L301,119L300,117L299,117L297,117L296,116L294,115L293,114L291,114L290,115L289,115L288,115L287,114L286,113L286,111L283,112L281,112L280,112L279,111L280,110L281,108L282,107L281,107L278,106L274,105L273,106L272,106L270,106L269,107L267,108L265,109L265,108L265,106L262,104L259,105L258,106L258,110L257,110L256,111L255,111L254,111L252,111L252,108L246,108L240,110L239,112L238,112L237,113L235,119L233,119L232,119L231,120L230,121L230,122L228,123L227,124L226,126L225,127L222,128L219,128L220,130L221,131L223,133L223,135L224,137L224,139L223,140L222,141L221,141L220,143L218,146L217,148L217,149L217,152L216,154L221,153L225,153L225,155L225,156L225,157L224,159L225,160L226,161L226,162L227,162L229,162L231,161L232,162L232,164L233,165L234,164L236,165L235,166L234,167L234,168L233,169L232,171L231,174L231,176L231,178L233,178L235,179L237,180L237,182L237,184L238,187L239,189L240,191L241,192L242,192L243,192L244,193L247,194L248,195Z " data-fips="KS05" data-hasc="KR.GB" data-name="Chungcheongbuk-do" data-postal="GB" data-varname="Chungchongbuk-Do|Chungcheongbugdo|Ch'ungch'ong-bukto|Chusei Hoku-do|North Chungchong|Ch'ungch'ong-bukto"/><path d="M171,86L170,85L169,85L167,85L167,85L168,86L168,87L170,87L171,87Z M175,85L178,84L178,84L174,86Z M175,85L175,84L176,81L176,81L175,84L174,86Z M179,81L178,81L178,81L179,81Z M177,81L177,81L177,80L177,81L176,81L176,81Z M191,90L192,88L193,87L192,86L191,85L190,84L190,82L187,78L185,79L185,80L186,83L185,83L184,83L183,84L184,87L185,89L187,89L190,91Z " data-fips="KS12" data-hasc="KR.IN" data-name="Inch'on-gwangyoksi" data-postal="IN" data-varname="Inchon|IInch'on-gwangyoksi|Jinsen"/><path d="M345,147L347,148L347,148L348,144L349,142L350,139L350,136L348,130L347,127L347,120L346,117L347,116L347,114L344,110L343,107L342,101L341,99L338,95L338,94L338,93L337,92L335,90L333,85L332,84L331,83L330,82L328,77L328,75L326,74L325,73L325,71L325,69L321,65L317,60L313,55L303,41L302,39L300,36L300,35L296,25L291,15L289,11L289,9L284,0L281,2L279,3L279,4L279,5L280,8L279,10L279,13L277,15L276,17L273,20L269,22L265,24L261,24L255,24L251,24L250,23L249,22L238,23L234,24L233,24L227,22L223,23L220,23L218,23L214,23L210,25L209,26L207,27L205,28L203,30L204,31L207,32L208,34L209,35L209,36L210,37L211,38L213,39L215,40L216,39L216,37L217,36L217,37L219,38L220,38L221,37L222,36L223,36L223,37L222,38L222,40L223,41L224,41L226,42L229,41L230,41L231,41L232,43L232,47L233,49L234,50L236,50L237,50L238,52L239,52L240,53L241,55L241,58L240,59L239,59L236,61L236,62L236,64L236,65L236,66L237,67L235,69L236,70L237,70L237,71L237,73L236,74L236,75L237,76L239,76L241,76L242,77L244,78L247,79L249,80L250,80L252,80L252,81L253,82L253,84L251,84L250,85L250,87L250,88L249,90L246,98L243,104L240,110L246,108L252,108L252,111L254,111L255,111L256,111L257,110L258,110L258,106L259,105L262,104L265,106L265,108L265,109L267,108L269,107L270,106L272,106L273,106L274,105L278,106L281,107L282,107L281,108L280,110L279,111L280,112L281,112L283,112L286,111L286,113L287,114L288,115L289,115L290,115L291,114L293,114L294,115L296,116L297,117L299,117L300,117L303,119L304,119L306,120L308,120L308,118L308,117L308,115L309,114L310,113L312,113L313,114L314,115L315,115L315,116L315,118L317,117L318,116L320,117L321,116L323,117L325,118L327,117L329,116L331,117L332,118L333,120L332,121L330,120L329,120L328,121L327,123L328,125L329,127L331,128L331,130L332,131L333,132L335,132L339,133L339,134L340,135L339,137L338,139L338,141L339,143L339,145L339,146L343,148Z " data-fips="KS06" data-hasc="KR.KW" data-name="Gangwon-do" data-postal="KW" data-varname="Kang-Won-Do|Gang'weondo|Kangwon-do|Kogen-do|South Kangwon"/><path d="M210,87L211,87L213,86L214,85L214,83L214,82L216,81L216,79L216,78L214,78L213,79L211,79L212,77L212,75L211,73L211,71L210,69L208,69L206,70L205,71L204,72L203,74L200,74L200,76L200,77L198,78L197,78L195,77L193,77L193,79L194,80L195,82L195,84L196,85L198,85L200,88L202,88L203,88L204,87L206,87L207,86L208,88Z " data-fips="KS11" data-hasc="KR.SO" data-name="Seoul" data-postal="SO" data-varname="Keijo|Soul|Seul|Sel|Sul|Soul-t'ukpyolsi"/><path d="M222,128L225,127L226,126L227,124L228,123L230,122L230,121L231,120L232,119L233,119L235,119L237,113L238,112L239,112L240,110L243,104L246,98L249,90L250,88L250,87L250,85L251,84L253,84L253,82L252,81L252,80L250,80L249,80L247,79L244,78L242,77L241,76L239,76L237,76L236,75L236,74L237,73L237,71L237,70L236,70L235,69L237,67L236,66L236,65L236,64L236,62L236,61L239,59L240,59L241,58L241,55L240,53L239,52L238,52L237,50L236,50L234,50L233,49L232,47L232,43L231,41L230,41L229,41L226,42L224,41L223,41L222,40L222,38L223,37L223,36L222,36L221,37L220,38L219,38L217,37L217,36L216,37L216,39L215,40L213,39L211,38L210,37L209,36L209,35L208,34L207,32L204,31L203,30L202,31L200,36L199,37L197,39L196,40L191,47L188,49L187,49L185,50L185,52L185,58L186,58L187,58L187,59L186,61L187,62L187,63L187,64L187,66L186,69L189,71L190,72L189,72L187,71L185,70L185,68L185,67L185,66L185,64L184,63L183,63L182,63L178,62L177,63L178,69L179,72L180,73L181,73L181,74L183,75L184,77L185,79L187,78L190,82L190,84L191,85L192,86L193,87L192,88L191,90L190,91L190,92L188,93L187,94L190,95L191,96L193,97L196,97L195,98L196,99L197,100L195,100L194,99L193,101L192,102L192,103L191,102L191,100L189,101L187,100L186,100L184,100L185,101L185,102L186,103L188,104L187,104L186,105L185,106L185,107L187,107L186,108L186,110L187,110L188,109L190,107L191,106L193,106L193,107L194,108L196,107L197,106L196,108L195,109L193,110L191,110L191,113L191,114L190,116L192,116L194,116L195,115L195,116L196,116L196,115L196,114L197,113L198,112L197,114L198,116L199,117L199,118L198,118L197,118L197,119L193,119L195,121L197,123L199,125L201,125L203,124L203,121L207,120L206,121L204,122L205,123L203,125L202,126L205,127L207,127L212,125L214,126L217,128L219,128Z M154,103L155,102L155,101L153,100L151,99L151,100L151,102L152,102L153,103Z M174,101L174,100L175,100L174,98L173,98L171,99L171,101L173,102Z M179,104L182,101L181,100L180,99L179,99L179,98L179,99L177,98L178,99L179,101L178,103L177,104Z M208,88L207,86L206,87L204,87L203,88L202,88L200,88L198,85L196,85L195,84L195,82L194,80L193,79L193,77L195,77L197,78L198,78L200,77L200,76L200,74L203,74L204,72L205,71L206,70L208,69L210,69L211,71L211,73L212,75L212,77L211,79L213,79L214,78L216,78L216,79L216,81L214,82L214,83L214,85L213,86L211,87L210,87Z M173,74L174,74L173,74L170,75L169,74L170,75Z M176,75L178,73L177,73L176,75Z M168,72L170,72L171,71L170,72L168,72L169,74Z M168,70L168,70L167,70L164,68L167,70Z M129,69L129,68L128,69L128,70Z M166,66L166,66L166,66L166,67Z M177,67L176,66L177,66L177,68Z M170,70L170,69L168,65L168,66L170,69L170,70L171,71Z M163,67L164,66L164,65L164,66L163,67L164,68Z M177,64L177,64L176,65L176,66Z M168,64L168,61L168,61L168,64Z M165,63L166,62L167,60L166,62L165,63L164,63L161,62L160,63L160,62L160,63L160,63L160,63L161,62L164,63Z M176,62L175,61L173,60L174,61L175,61L176,62Z M159,62L160,62L160,60L161,59L163,59L164,60L164,60L165,60L167,60L166,60L165,60L164,60L163,59L161,59L160,60L159,62L159,62L160,62Z M169,60L170,58L171,58L173,59L172,59L171,58L170,58L169,60L168,61Z M72,57L72,56L72,55L72,54L71,55L69,56L70,57Z M72,48L71,47L70,46L72,46L74,46L74,45L73,44L72,43L68,44L67,44L66,46L68,48L70,48Z " data-fips="KS13" data-hasc="KR.KG" data-name="Gyeonggi-do" data-postal="KG" data-varname="Kyonggi-do|Keiki-do|Kyunggi"/><path d="M241,245L241,244L242,242L244,239L244,237L244,236L243,235L243,233L242,231L242,229L241,229L241,227L242,225L242,223L243,221L244,219L244,217L245,215L245,213L247,212L248,210L249,208L251,208L252,207L255,206L256,204L258,202L258,197L256,193L255,194L254,194L252,193L250,194L248,195L247,194L244,193L243,192L242,192L241,192L240,191L239,193L237,194L236,194L234,194L233,195L229,194L229,193L228,192L226,191L224,186L222,184L221,185L220,187L219,187L217,188L214,188L212,189L210,189L209,187L209,184L207,183L201,185L198,186L195,186L192,190L196,188L196,190L194,190L192,191L189,193L188,194L187,193L186,194L183,195L181,195L181,196L180,198L180,199L181,201L183,200L186,201L187,201L193,200L193,201L192,202L192,203L190,203L186,203L185,204L186,205L187,205L188,206L190,207L190,208L191,209L190,211L188,209L186,210L185,211L185,212L184,213L182,212L181,212L174,217L173,219L172,220L171,222L173,223L182,223L183,223L184,224L184,227L183,226L181,225L180,227L179,227L176,227L175,228L173,229L172,230L169,233L168,236L168,238L169,239L170,239L176,237L178,238L177,240L177,242L177,244L178,245L180,244L182,244L184,243L185,243L186,242L187,242L188,242L189,241L189,239L190,238L190,237L190,235L192,234L194,234L195,233L196,233L197,233L199,235L202,239L203,239L204,238L204,237L205,235L207,235L208,237L207,239L208,241L209,242L209,244L210,246L213,246L214,245L216,245L217,245L218,245L219,245L220,246L223,246L225,246L227,246L229,246L230,244L233,243L236,244L240,247Z M159,224L160,223L161,221L161,221L160,221L159,222L158,223L158,224Z " data-fips="KS03" data-hasc="KR.CB" data-name="Jeollabuk-do" data-postal="CB" data-varname="Chollabuk-Do|Cholla-bukto|Jeonrabugdo|North Cholla|Zenra Hoku-do"/><path d="M221,339L220,338L220,336L219,336L219,337L219,338L220,340L221,340Z M88,334L87,332L86,331L85,332L86,333L88,334Z M174,330L176,329L177,329L178,329L177,328L175,328L173,327L172,328L172,329L172,330L172,331L173,331Z M182,330L182,329L181,328L182,326L180,326L180,327L180,328L180,330L180,331L181,332Z M197,328L197,327L196,326L196,325L194,325L193,326L193,328L193,328L194,329L196,329Z M176,326L178,326L178,325L178,324L177,324L176,323L175,323L175,324L175,325L175,326L175,327L177,327Z M193,317L194,317L195,316L195,315L194,315L192,315L191,315L190,315L188,315L187,316L189,316L190,317L191,316L192,317L192,318Z M146,318L146,317L145,317L143,316L142,317L143,318L144,319L146,319Z M206,316L206,315L208,316L207,315L206,314L205,314L204,313L203,313L202,315L203,316L205,316L205,317Z M187,319L188,319L187,318L186,316L186,316L186,315L186,314L185,312L184,311L183,311L182,311L181,311L180,313L180,315L181,316L182,317L183,317L183,318L184,319L186,319Z M154,313L160,310L160,309L162,310L163,309L164,306L164,305L164,304L164,303L163,300L161,300L160,300L159,299L158,298L157,297L156,298L158,299L158,300L158,301L156,302L155,301L154,302L153,303L152,304L152,305L150,306L148,308L147,310L149,312L149,310L151,312L150,313L151,314Z M189,312L191,312L192,311L193,311L193,310L192,310L192,309L191,308L190,308L189,309L188,310L187,311L187,312L188,313L189,314Z M233,310L235,309L234,308L233,306L232,307L231,306L230,306L229,307L230,308L231,309L232,310Z M176,318L178,318L178,317L179,312L180,311L183,310L183,308L184,308L185,308L184,307L185,306L188,305L186,302L188,302L187,300L187,299L189,297L190,297L190,298L190,301L190,302L190,306L191,307L193,308L196,310L195,308L196,307L198,307L198,304L202,301L202,299L203,298L203,296L203,295L205,295L206,294L209,292L210,291L211,290L213,290L214,290L215,289L216,286L217,284L219,287L220,288L221,287L223,287L223,288L223,290L222,292L221,293L220,292L220,291L220,290L219,289L217,291L217,293L218,294L218,296L217,298L216,298L214,298L215,296L215,295L215,294L214,295L213,296L211,298L210,300L210,301L210,302L212,302L213,303L213,302L216,300L218,303L220,306L222,308L223,308L222,307L223,306L224,306L226,305L228,301L225,301L224,300L223,298L224,297L225,297L227,297L230,298L232,298L233,298L233,297L233,296L232,295L230,294L232,294L230,292L229,291L227,289L227,286L226,285L224,285L224,284L225,283L228,282L227,281L225,281L224,280L225,280L228,280L229,280L231,279L232,278L234,275L234,276L234,277L234,278L235,280L235,281L236,282L237,285L238,286L237,287L236,289L236,290L236,292L237,293L238,294L239,294L241,295L241,291L241,290L241,289L242,287L243,287L245,288L248,287L248,283L249,281L249,280L249,278L248,279L247,279L246,279L245,279L243,281L241,281L241,280L240,279L239,278L238,276L237,275L237,273L238,272L238,271L239,271L240,274L241,275L242,274L245,272L246,271L246,269L247,268L247,270L248,270L251,270L251,270L251,269L250,267L246,263L246,261L245,260L244,258L242,257L242,256L241,252L241,250L240,248L240,247L236,244L233,243L230,244L229,246L227,246L225,246L223,246L220,246L219,245L218,245L217,245L216,245L214,245L213,246L210,246L209,244L209,242L208,241L207,239L208,237L207,235L205,235L204,237L204,238L203,239L202,239L199,235L197,233L196,233L195,233L194,234L192,234L190,235L190,237L190,238L189,239L189,241L188,242L187,242L186,242L185,243L184,243L182,244L180,244L178,245L177,244L177,242L177,240L178,238L176,237L170,239L169,239L170,241L169,241L167,239L166,241L165,242L165,243L166,244L165,245L165,246L164,247L165,248L164,248L163,248L162,248L161,249L163,249L164,249L165,250L165,251L164,252L165,253L167,256L167,258L168,258L170,259L170,260L169,261L167,264L167,263L167,262L165,261L164,260L163,259L163,258L163,256L163,255L162,256L161,258L161,256L160,256L158,256L158,257L158,258L159,261L160,262L161,261L160,260L162,260L163,261L164,263L165,265L163,267L163,268L162,268L160,268L161,269L162,270L162,271L163,272L164,272L165,270L164,269L166,268L167,267L168,268L167,269L166,270L166,271L166,273L168,274L167,276L167,277L167,278L166,279L164,281L165,282L167,282L168,281L169,281L171,280L172,281L172,283L173,282L173,282L174,279L175,277L175,275L175,274L177,274L178,275L177,276L177,277L177,278L177,280L180,279L181,280L182,281L181,281L180,281L180,282L179,282L176,281L175,282L174,282L174,284L173,285L172,285L166,284L165,284L164,285L165,287L167,286L168,286L170,286L171,287L172,287L174,290L175,291L177,293L178,294L179,294L178,295L176,294L175,293L174,293L174,294L173,295L172,293L170,292L169,292L169,290L168,289L167,289L166,290L165,292L167,292L168,294L169,294L169,296L170,296L169,297L168,296L164,295L163,292L162,290L163,289L161,285L160,284L159,285L159,286L158,288L158,290L158,293L159,293L161,294L161,295L159,296L160,297L162,298L162,297L163,298L165,299L165,301L167,300L168,300L169,300L170,300L171,299L172,299L173,298L174,299L174,300L173,301L174,301L174,302L173,302L171,303L170,303L170,305L171,305L170,306L170,307L171,308L172,309L172,310L171,312L171,313L170,314L173,314L173,316L173,318L173,319Z M215,309L216,309L217,308L217,306L216,305L214,305L213,305L211,305L210,306L209,306L209,307L209,308L211,309L212,310Z M250,304L249,303L247,300L246,300L245,302L246,302L247,303L248,304L249,305Z M146,300L147,299L147,298L148,296L147,295L146,294L145,294L145,295L146,296L146,298L144,298L143,299L144,299L143,300L145,300Z M144,298L145,297L145,296L144,295L143,293L142,295L143,297L144,298Z M106,292L107,290L108,289L109,288L107,287L107,287L106,288L105,289L105,291L105,292Z M152,287L152,286L152,284L151,284L150,284L149,283L147,283L146,284L147,285L148,286L148,287L149,286L151,287L151,288Z M141,291L142,290L142,289L142,288L141,287L140,286L139,288L136,289L137,290L138,290L139,291Z M138,286L138,284L140,284L141,283L142,284L142,282L141,281L139,282L137,282L136,283L135,284L135,286L137,287Z M152,283L152,282L152,281L151,280L149,281L148,282L149,282L150,283L151,283Z M164,278L164,277L162,276L161,276L161,275L163,274L162,273L161,273L159,273L160,274L160,275L158,276L157,276L156,277L157,278L159,277L161,277L162,278L162,279Z M146,276L147,275L147,274L147,272L147,272L146,271L145,273L144,273L143,273L142,276L144,276L145,276Z M149,281L149,279L150,279L151,278L151,276L150,275L150,275L149,275L148,277L147,277L146,278L147,279L148,281Z M157,272L157,272L157,271L155,271L156,273Z M153,263L152,262L151,262L150,262L151,263L152,264L153,264Z M158,264L158,263L157,261L156,261L155,260L156,259L155,259L154,259L153,258L152,259L152,261L153,261L154,262L156,263L156,264L158,265Z M149,262L150,261L151,260L150,258L150,257L151,255L150,255L149,256L148,258L147,258L146,259L146,261L147,262Z M201,256L197,255L194,253L192,249L193,248L195,249L197,248L202,249L203,253Z " data-fips="KS16" data-hasc="KR.KJ" data-name="Gwangju" data-postal="KJ" data-varname="Kwangju|Kwangju-gwangyoksi"/><path d="M251,298L252,297L252,295L252,294L251,293L251,291L250,290L250,288L249,288L248,289L249,290L249,292L247,293L247,296L249,298L251,298Z " data-fips="KS20" data-hasc="KR.KN" data-name="Kyongsang-namdo" data-postal="KN" data-varname="Kyongsangnam-Do|Kyongsang-namdo|Keisho Nan-do|South Kyongsang"/><path d="M234,194L236,194L237,194L239,193L240,191L239,189L238,187L237,184L237,182L237,180L235,179L233,178L231,178L231,176L231,174L232,171L233,169L234,168L234,167L235,166L236,165L234,164L233,165L232,168L231,169L230,172L228,173L227,173L225,172L224,170L223,168L222,166L222,164L223,159L223,158L213,161L207,160L208,158L209,157L216,154L217,152L217,149L217,148L218,146L220,143L221,141L222,141L223,140L224,139L224,137L223,135L223,133L221,131L220,130L219,128L217,128L214,126L212,125L207,127L205,127L202,126L201,127L198,128L197,128L196,129L196,130L198,132L197,132L196,132L196,134L196,135L195,136L194,137L194,136L195,135L195,133L194,132L194,131L194,129L194,127L194,126L193,125L191,127L192,124L192,123L191,121L190,121L188,123L187,122L186,120L185,122L184,123L183,125L182,126L182,124L182,123L182,121L181,120L180,120L179,118L178,116L177,115L176,115L175,115L176,116L177,119L179,120L179,121L178,121L177,120L176,119L175,118L175,119L179,124L179,126L179,127L178,126L177,125L176,123L175,123L175,125L174,128L173,130L173,129L173,125L173,124L173,123L172,122L171,123L171,121L172,120L171,119L170,118L168,118L168,120L167,119L166,119L165,120L166,120L167,121L166,122L167,123L169,123L170,125L170,126L169,128L167,128L169,129L167,130L166,131L164,130L165,132L166,134L164,133L162,134L162,132L163,131L163,130L163,129L164,127L163,125L163,124L163,122L163,121L162,122L162,123L162,126L162,127L161,128L159,128L158,128L159,126L157,126L156,127L156,128L158,129L157,132L158,132L159,132L158,133L156,133L157,135L156,135L155,134L155,132L154,134L152,136L153,138L153,140L154,139L154,136L156,137L157,138L157,139L157,140L154,141L155,142L156,143L157,142L158,142L160,140L161,139L161,141L161,143L163,146L162,148L162,150L163,148L165,148L164,146L165,145L164,144L163,142L163,141L164,140L165,139L165,138L167,139L167,140L168,141L167,142L167,145L169,145L169,144L171,140L171,139L172,139L173,138L174,139L174,140L173,140L174,142L175,144L175,145L175,147L175,149L174,149L173,149L172,151L173,152L173,153L174,153L175,154L174,155L173,157L173,158L174,160L175,160L178,158L181,158L180,158L177,161L175,162L174,163L174,164L176,165L178,166L178,168L176,168L175,169L176,169L178,170L179,171L178,172L177,173L176,177L177,178L178,178L179,179L180,180L178,180L176,180L175,182L173,183L174,184L175,183L176,183L178,183L179,183L181,186L182,187L181,187L182,188L183,190L184,191L184,192L185,193L186,192L188,192L189,192L190,191L191,190L192,190L195,186L198,186L201,185L207,183L209,184L209,187L210,189L212,189L214,188L217,188L219,187L220,187L221,185L222,184L224,186L226,191L228,192L229,193L229,194L233,195Z M170,161L169,160L167,158L168,157L168,156L166,155L167,154L167,153L166,150L167,149L166,149L165,149L164,151L164,153L164,156L165,158L166,158L165,159L165,161L167,160L167,161L167,162L170,163Z " data-fips="KS17" data-hasc="KR.GN" data-name="Chungcheongnam-do" data-postal="GN" data-varname="Chungchongnam-Do|Ch'ungch'ong-namdo|Chusei Nan-do|South Chungchong|Ch'ungch'ong-namdo"/><path d="M230,172L231,169L232,168L232,164L232,162L231,161L229,162L227,162L226,162L226,161L225,160L224,159L225,157L225,156L225,155L225,153L221,153L216,154L209,157L208,158L207,160L213,161L223,158L223,159L222,164L222,166L223,168L224,170L225,172L227,173L228,173Z " data-fips="KS19" data-hasc="KR.TJ" data-name="Daejeon" data-postal="TJ" data-varname="Daejeon Gwang'yeogsi|Taejon-gwangyoksi|Taiden"/><path d="M312,226L314,226L315,225L315,224L318,223L320,224L322,225L323,224L325,223L326,222L328,221L327,220L327,219L329,218L331,217L333,217L335,217L337,218L338,219L338,220L339,221L340,222L346,221L351,221L351,220L351,219L352,217L353,211L354,209L355,204L355,198L357,193L358,192L357,190L357,189L356,187L355,188L351,192L350,193L349,193L347,193L346,192L346,190L346,188L347,188L348,187L348,186L347,185L347,183L346,180L345,179L345,178L345,169L346,168L346,166L348,164L348,163L349,157L348,154L348,151L347,148L345,147L343,148L339,146L339,145L339,143L338,141L338,139L339,137L340,135L339,134L339,133L335,132L333,132L332,131L331,130L331,128L329,127L328,125L327,123L328,121L329,120L330,120L332,121L333,120L332,118L331,117L329,116L327,117L325,118L323,117L321,116L320,117L318,116L317,117L315,118L315,116L315,115L314,115L313,114L312,113L310,113L309,114L308,115L308,117L308,118L308,120L306,120L304,119L303,119L301,119L299,119L297,121L296,122L295,123L293,123L292,125L290,126L289,128L288,130L288,131L289,132L288,135L283,137L281,137L280,135L279,134L278,133L277,132L276,133L276,134L275,135L275,136L273,136L271,135L270,135L269,136L268,137L267,137L266,136L266,138L265,139L264,141L266,142L266,144L262,143L260,142L259,144L257,145L255,146L255,148L253,150L252,151L250,152L251,154L253,154L256,158L255,159L255,161L254,165L254,167L254,168L255,169L254,171L253,172L253,175L256,175L257,175L259,177L260,177L263,177L264,178L265,181L264,181L262,181L261,182L261,184L261,185L261,187L260,188L259,190L259,192L257,192L256,193L258,197L258,202L258,203L259,204L261,205L261,206L262,207L264,207L264,207L265,208L267,208L269,208L270,209L271,210L272,211L274,212L274,214L275,214L276,215L276,217L275,219L276,222L280,222L282,222L283,222L285,223L286,224L288,224L291,223L293,223L294,221L296,220L296,224L298,226L300,227L302,227L304,226L306,227L308,228L310,228Z M297,211L295,210L294,209L293,207L292,206L291,205L292,204L294,203L294,202L293,202L294,200L295,199L295,196L297,193L301,193L304,193L307,194L307,196L307,197L307,199L308,200L308,201L308,202L308,204L307,205L306,204L306,206L306,207L305,208L304,209L301,208L299,208L298,209Z M432,83L433,82L434,80L434,78L432,77L431,78L429,78L428,79L427,80L427,82L428,83L430,84L431,84Z " data-fips="KS06" data-hasc="KR.TG" data-name="Daegu" data-postal="TG" data-varname="Taegu|Daegu Gwang'yeogsi|Taegu-gwangyoksi|Taikyu"/><path d="M266,289L266,287L267,286L267,283L267,282L267,281L265,280L263,281L262,281L261,281L260,280L259,280L258,279L257,277L258,275L259,274L259,273L258,272L256,272L255,273L254,275L253,276L253,277L252,278L253,279L254,285L254,286L255,288L256,288L258,288L258,286L259,284L260,285L261,288L262,289L263,289L264,289L265,290Z M300,289L304,287L304,286L303,285L303,284L304,282L305,282L306,282L308,283L308,281L307,280L306,279L308,279L308,277L307,276L306,276L307,274L307,272L307,270L306,269L307,266L306,265L305,265L304,265L304,267L305,268L300,270L300,272L300,273L301,274L302,275L301,275L299,274L298,274L294,275L294,275L292,277L293,278L293,279L294,280L295,281L296,281L298,280L299,279L299,281L299,283L297,283L297,284L298,285L299,284L299,286L300,287L298,289Z M278,281L278,280L277,279L276,280L275,281L276,282L277,282Z M267,278L267,277L266,276L265,275L264,277L264,275L264,273L262,274L262,275L261,276L261,278L261,279L263,279L264,279L268,279Z M289,279L291,277L292,275L291,274L290,276L289,275L289,272L290,270L289,269L288,268L289,268L291,268L293,267L293,266L293,265L292,263L291,263L285,267L286,266L286,264L289,263L291,262L292,262L292,260L295,260L298,261L299,262L300,263L302,262L301,262L301,260L300,259L299,258L298,256L298,253L298,252L299,252L300,254L300,256L300,257L301,256L302,257L303,258L304,259L304,257L305,257L305,260L306,259L308,260L309,260L311,260L311,261L313,260L315,260L316,259L317,258L318,260L319,259L321,258L321,256L322,255L323,254L324,249L325,248L326,247L327,247L329,247L330,248L330,249L331,251L333,252L334,253L335,255L336,254L338,252L339,249L339,248L340,247L340,244L339,243L337,243L336,241L335,239L334,238L331,237L328,234L327,233L323,232L322,230L324,227L323,224L322,225L320,224L318,223L315,224L315,225L314,226L312,226L310,228L308,228L306,227L304,226L302,227L300,227L298,226L296,224L296,220L294,221L293,223L291,223L288,224L286,224L285,223L283,222L282,222L280,222L276,222L275,219L276,217L276,215L275,214L274,214L274,212L272,211L271,210L270,209L269,208L267,208L265,208L264,207L264,207L262,207L261,206L261,205L259,204L258,203L258,202L256,204L255,206L252,207L251,208L249,208L248,210L247,212L245,213L245,215L244,217L244,219L243,221L242,223L242,225L241,227L241,229L242,229L242,231L243,233L243,235L244,236L244,237L244,239L242,242L241,244L241,245L240,247L240,248L241,250L241,252L242,256L242,257L244,258L245,260L246,261L246,263L250,267L251,269L251,270L251,270L252,271L253,271L255,271L256,271L258,270L258,268L258,266L259,267L260,269L262,268L264,267L263,265L264,265L265,264L267,262L266,263L266,265L266,271L266,272L267,273L269,273L270,273L270,275L271,275L274,275L275,275L275,274L275,273L276,272L278,272L280,274L281,274L282,272L283,271L284,274L283,274L283,275L284,277L288,278L287,278L288,280Z M313,267L314,265L314,264L313,262L311,263L312,264L312,265L312,266L313,268Z " data-fips="KS20" data-hasc="KR.KN" data-name="Gyeongsangnam-do" data-postal="KN" data-varname="Kyongsangnam-Do|Kyongsang-namdo|Keisho Nan-do|South Kyongsang"/><path d="M203,253L202,249L197,248L195,249L193,248L192,249L194,253L197,255L201,256Z " data-fips="KS18" data-hasc="KR.KJ" data-name="Kwangju-gwangyoksi" data-postal="KJ" data-varname="Kwangju|Kwangju-gwangyoksi"/><path d="M323,264L323,263L324,261L325,262L325,261L326,259L328,258L329,259L330,259L331,259L331,257L331,256L332,255L334,256L335,255L334,253L333,252L331,251L330,249L330,248L329,247L327,247L326,247L325,248L324,249L323,254L322,255L321,256L321,258L322,257L322,259L322,260L322,261L322,263L322,264Z " data-fips="KS10" data-hasc="KR.PU" data-name="Busan" data-postal="PU" data-varname="Pusan|Busan Gwang'yeogsi|Pusan-gwangyoksi|Fusan"/><path d="M341,244L343,243L345,241L345,239L345,238L345,236L345,234L345,233L346,233L346,232L346,230L345,229L346,228L347,229L347,231L348,232L349,231L350,230L350,229L351,226L351,224L351,222L351,221L346,221L340,222L339,221L338,220L338,219L337,218L335,217L333,217L331,217L329,218L327,219L327,220L328,221L326,222L325,223L323,224L324,227L322,230L323,232L327,233L328,234L331,237L334,238L335,239L336,241L337,243L339,243L340,244Z " data-fips="KS10" data-hasc="KR.UL" data-name="Ulsan" data-postal="UL" data-varname="Ulsan-gwangyoksi"/><path d="M298,209L299,208L301,208L304,209L305,208L306,207L306,206L306,204L307,205L308,204L308,202L308,201L308,200L307,199L307,197L307,196L307,194L304,193L301,193L297,193L295,196L295,199L294,200L293,202L294,202L294,203L292,204L291,205L292,206L293,207L294,209L295,210L297,211Z " data-fips="KS15" data-hasc="KR.TG" data-name="Taegu-gwangyoksi" data-postal="TG" data-varname="Taegu|Daegu Gwang'yeogsi|Taegu-gwangyoksi|Taikyu"/><path d="M157,399L159,397L160,397L174,397L178,396L180,395L188,392L190,391L191,391L192,391L194,388L195,386L196,385L197,384L197,382L197,381L197,380L198,380L198,379L197,380L196,379L196,377L195,376L192,375L191,374L190,373L188,373L186,374L180,374L177,375L171,376L161,379L159,380L158,381L154,385L152,386L151,388L149,391L150,394L152,396L155,399L156,399Z " data-fips="KS01" data-hasc="KR.CJ" data-name="Jeju" data-postal="CJ" data-varname="Jeju-doQuelpart|Saishu-to|Cheju-do"/></g></svg>