<?xml version="1.0" ?><!DOCTYPE svg  PUBLIC '-//W3C//DTD SVG 1.1//EN'  'http://www.w3.org/Graphics/SVG/1.1/DTD/svg11.dtd'><svg enable_background="new 0 0 500 401" height="401px" style="stroke-linejoin: round; stroke:#000; fill:#f6f3f0;" version="1.1" viewBox="0 0 500 401" width="500px" xmlns="http://www.w3.org/2000/svg" xmlns:xlink="http://www.w3.org/1999/xlink"><defs><style type="text/css"><![CDATA[path { fill-rule: evenodd; }
#context path { fill: #eee; stroke: #bbb; } ]]></style></defs><metadata><views><view h="401" padding="0" w="500"><proj id="laea" lat0="29.476" lon0="47.376"/><bbox h="19.31" w="20.56" x="990.9" y="992.31"/><llbbox lat0="-90" lat1="90" lon0="-180" lon1="180"/></view></views></metadata><g id="admin1"><path d="M344,198L363,196L360,190L366,186L363,181L360,178L358,179L354,183L340,193L334,195L332,195L333,198L334,201Z M452,175L451,171L447,166L443,163L439,161L430,159L427,159L424,163L425,167L429,168L434,167L438,168L445,175L449,177Z " data-fips="KU02" data-hasc="KW.KU" data-name="Al Asimah" data-postal="KU" data-varname="Capital, Kuwait"/><path d="M370,212L363,196L344,198L334,201L330,202L329,212L334,216L337,222L337,233Z " data-fips="KU06" data-hasc="KW.FA" data-name="Al Farwaniyah" data-postal="FA" data-varname="Farwaniya"/><path d="M462,396L460,393L456,389L454,385L454,382L453,370L452,367L449,371L446,372L444,371L444,366L446,366L448,367L449,366L450,364L448,363L447,362L447,361L447,359L448,360L452,362L450,358L450,353L451,349L453,345L444,343L439,341L436,337L435,334L429,325L427,320L427,315L428,310L427,306L419,304L415,300L404,284L400,275L389,238L389,234L389,230L387,225L386,226L337,233L337,222L334,216L329,212L317,228L314,262L314,266L308,268L259,275L248,282L241,286L252,305L264,339L266,345L266,359L269,367L272,374L275,380L280,384L285,388L289,392L291,399Z " data-fips="KU04" data-hasc="KW.AH" data-name="Al Ahmadi" data-postal="AH" data-varname=""/><path d="M387,225L382,212L382,205L382,202L376,204L366,204L370,212L386,226Z " data-fips="" data-hasc="" data-name="Mubarak Al-Kabeer" data-postal="" data-varname=""/><path d="M248,282L259,275L308,268L314,266L314,262L317,228L329,212L330,202L334,201L333,198L332,195L327,195L324,194L322,191L323,186L326,181L325,178L322,180L319,181L310,181L302,183L299,183L297,181L296,180L298,178L309,171L313,167L322,154L327,148L340,140L346,134L351,127L356,119L358,118L363,118L368,120L371,123L366,123L369,126L372,127L375,126L379,127L381,128L383,131L383,133L385,135L389,138L395,139L400,137L401,132L400,126L390,113L385,101L381,90L375,90L369,81L363,69L360,60L359,54L359,45L358,39L356,35L354,31L352,26L304,2L291,0L234,0L222,2L186,16L175,24L167,35L148,83L140,98L139,102L138,110L137,112L133,122L116,149L110,166L106,171L92,187L78,211L44,248L38,255L137,268L239,282L241,286Z M423,122L431,115L438,106L442,98L443,87L440,78L405,29L402,27L399,26L396,26L393,27L390,29L389,31L391,32L395,32L394,34L395,37L395,39L396,41L398,42L401,41L404,41L407,44L406,46L403,48L399,50L400,54L399,55L396,56L393,55L388,52L385,52L382,55L385,55L387,55L390,57L389,66L388,67L386,68L381,71L378,73L374,76L376,78L380,81L383,84L392,101L400,119L405,126L415,127Z M370,32L376,29L377,28L380,25L381,24L387,20L388,18L384,17L376,18L373,20L369,26L366,28L366,30L367,31L369,32Z " data-fips="KU05" data-hasc="KW.JA" data-name="Al Jahrah" data-postal="JA" data-varname="Jahra"/><path d="M376,204L382,202L382,190L372,190L370,189L366,186L360,190L363,196L366,204Z " data-fips="KU03" data-hasc="KW.HW" data-name="Hawalli" data-postal="HW" data-varname="Hawali, Howali"/></g></svg>