<?xml version="1.0" ?><!DOCTYPE svg  PUBLIC '-//W3C//DTD SVG 1.1//EN'  'http://www.w3.org/Graphics/SVG/1.1/DTD/svg11.dtd'><svg enable_background="new 0 0 500 401" height="401px" style="stroke-linejoin: round; stroke:#000; fill:#f6f3f0;" version="1.1" viewBox="0 0 500 401" width="500px" xmlns="http://www.w3.org/2000/svg" xmlns:xlink="http://www.w3.org/1999/xlink"><defs><style type="text/css"><![CDATA[path { fill-rule: evenodd; }
#context path { fill: #eee; stroke: #bbb; } ]]></style></defs><metadata><views><view h="401" padding="0" w="500"><proj id="laea" lat0="21.718" lon0="96.041"/><bbox h="231.01" w="103.34" x="955.52" y="915.79"/><llbbox lat0="-90" lat1="90" lon0="-180" lon1="180"/></view></views></metadata><g id="admin1"><path d="M268,214L270,213L271,213L272,212L272,211L272,210L272,208L271,207L271,206L270,205L271,204L272,202L273,201L273,198L273,197L273,196L272,195L274,193L274,192L274,191L274,191L274,190L273,189L272,189L272,189L271,189L269,189L268,188L268,187L268,186L268,185L267,184L267,184L266,184L266,184L266,184L264,183L264,184L263,184L262,184L262,184L261,183L261,182L260,182L260,183L260,185L260,188L257,189L256,190L255,192L255,193L255,194L255,195L255,196L254,197L254,199L254,200L255,200L256,201L256,202L256,203L256,204L257,205L258,206L258,207L260,210L261,210L264,210L264,211L265,213L265,214L266,214Z " data-fips="BM06" data-hasc="MM.KH" data-name="Kayah" data-postal="KH" data-varname="Karenni"/><path d="M283,283L284,282L285,282L286,282L286,281L287,280L288,280L289,281L290,280L290,279L289,275L289,274L289,273L290,270L289,269L290,267L289,266L290,266L291,265L292,264L294,265L295,264L295,262L296,261L296,260L296,259L295,258L294,257L294,259L293,260L291,260L291,258L291,257L289,255L289,254L288,253L288,252L287,252L287,250L288,250L288,249L287,248L287,246L286,245L285,245L284,245L284,243L283,242L281,241L280,239L279,238L278,237L278,236L277,235L276,234L272,231L272,230L271,229L271,228L271,227L272,226L272,224L272,223L271,222L271,221L270,219L270,218L268,218L268,219L267,218L266,217L266,216L265,215L265,213L264,212L264,211L263,210L261,210L259,210L258,207L258,206L257,205L256,204L256,203L256,202L256,201L255,200L254,199L254,198L254,197L254,196L253,195L253,195L252,194L251,194L250,193L250,193L249,194L248,193L247,193L245,193L245,194L246,195L246,196L246,197L247,199L248,199L247,200L247,201L248,202L249,203L250,204L251,205L250,206L249,207L250,208L249,209L250,210L251,211L252,211L253,212L254,212L255,211L256,211L257,212L257,214L257,215L257,216L257,217L258,218L259,218L260,218L260,220L260,221L261,222L261,223L260,225L260,226L261,228L261,229L261,230L261,231L262,233L262,234L263,234L264,233L264,232L265,231L266,231L266,231L265,233L266,234L266,235L266,237L267,238L267,239L268,240L268,241L267,242L268,244L267,244L267,245L267,246L267,248L268,249L268,250L268,251L269,252L269,253L270,253L271,254L272,255L272,255L273,256L273,256L275,256L275,257L276,258L277,258L278,259L278,260L279,260L279,261L280,262L280,263L280,264L279,264L278,264L276,264L274,265L275,266L275,267L274,268L274,269L275,270L275,271L275,272L275,273L276,274L277,275L277,276L278,277L279,278L280,279L281,281L281,281L282,282L282,284Z " data-fips="BM05" data-hasc="MM.KN" data-name="Kayin" data-postal="KN" data-varname="Kawthulei|Karen|Karin|Kawthoolei|Kawthulay"/><path d="M240,194L241,193L242,193L243,193L245,193L247,193L248,193L249,194L250,193L250,193L250,192L250,191L249,191L248,190L249,190L250,189L250,188L249,187L248,186L247,185L246,185L246,184L245,183L245,182L246,181L246,180L246,179L247,178L247,177L247,174L246,173L246,172L247,171L248,171L248,169L247,169L246,168L246,167L247,166L247,166L248,165L248,164L247,163L246,163L245,162L244,162L243,162L242,161L241,161L241,159L241,158L242,157L243,157L244,156L243,155L243,154L243,153L242,151L243,150L244,149L246,149L247,148L248,148L250,147L250,146L251,146L253,145L254,145L254,144L254,143L254,142L253,141L252,140L252,139L251,138L250,138L249,137L248,136L246,136L246,135L245,133L245,132L244,132L243,131L243,130L243,129L243,128L242,127L241,125L241,124L242,123L243,123L244,123L245,123L246,123L248,122L249,122L250,121L250,120L251,119L250,119L249,119L248,117L247,117L246,117L245,117L244,118L242,118L241,117L241,116L240,115L240,114L241,113L241,112L240,111L241,111L242,110L243,108L242,107L240,107L239,106L239,105L238,105L237,106L237,107L236,108L235,110L235,111L236,113L236,115L236,124L235,124L235,125L237,128L236,129L236,131L237,133L236,134L237,135L237,136L237,138L238,140L237,142L236,142L235,143L234,143L233,146L232,147L230,147L229,146L227,145L225,145L224,147L224,148L224,148L223,149L223,151L222,152L221,153L219,154L218,154L217,154L216,155L215,156L214,156L213,157L213,159L213,160L213,162L214,163L216,163L217,163L218,164L218,165L218,166L218,168L218,169L219,171L220,169L221,168L222,168L223,168L223,167L225,167L226,166L227,166L229,166L229,167L229,168L231,171L231,173L232,174L232,175L232,177L233,178L233,179L233,180L232,181L232,182L233,183L233,185L233,186L232,187L232,188L232,189L231,190L231,192L232,193L233,193L234,194L235,193L236,193L237,194L238,194L239,195Z " data-fips="BM08" data-hasc="MM.MD" data-name="Mandalay" data-postal="MD" data-varname=""/><path d="M253,248L254,247L255,246L255,245L255,244L254,242L254,241L255,240L255,239L254,237L255,236L255,234L255,233L256,233L257,233L258,234L259,235L260,236L261,235L262,234L262,233L261,231L261,230L261,229L261,228L260,226L260,225L261,223L261,222L260,221L260,220L260,218L259,218L258,218L257,217L257,216L257,215L257,214L257,212L256,211L255,211L254,212L253,212L252,211L251,211L250,210L249,209L250,208L249,207L250,206L251,205L250,204L249,203L248,202L247,201L247,200L248,199L247,199L246,197L246,196L246,195L245,194L245,193L243,193L242,193L241,193L240,194L239,195L238,194L237,194L236,193L235,193L234,194L233,193L233,194L233,195L234,196L234,197L233,199L233,200L231,200L229,200L227,200L225,201L224,202L222,203L222,204L220,206L221,207L221,208L220,209L219,210L218,211L218,212L218,214L220,215L221,215L222,217L223,218L224,220L225,221L225,222L226,224L225,226L226,227L226,228L226,229L226,231L226,232L227,233L228,233L230,234L231,234L232,236L232,235L233,234L234,233L235,232L236,232L237,231L238,230L239,232L243,238L243,242L244,243L245,244L245,245L245,246L246,246L248,246L250,246L252,247L253,248L254,248Z " data-fips="BM16" data-hasc="MM.BA" data-name="Bago" data-postal="BA" data-varname="Pgou|Pegu"/><path d="M240,260L242,259L243,259L243,258L243,257L242,255L242,253L241,252L241,251L242,250L241,251L242,252L242,254L243,255L245,257L247,257L248,256L249,256L250,255L251,254L252,253L252,252L253,251L254,250L254,249L254,248L253,248L252,247L250,246L248,246L246,246L245,246L245,245L245,244L244,243L243,242L243,238L239,232L238,230L237,231L236,232L235,232L234,233L233,234L232,235L232,236L231,237L231,239L230,240L231,242L232,243L233,244L234,245L234,246L234,247L235,248L234,249L234,250L235,251L234,253L234,254L234,256L234,257L234,258L235,259L237,259L237,259L239,260Z " data-fips="BM17" data-hasc="MM.YA" data-name="Yangon" data-postal="YA" data-varname="Rangoon|Rangum|Rangun|Rangn"/><path d="M269,262L269,260L269,259L269,258L269,257L268,256L267,257L267,258L267,259L267,260L268,262L269,262Z M274,291L275,290L275,289L276,288L277,287L278,286L279,286L280,288L280,288L281,288L282,288L282,288L282,287L281,286L282,285L282,284L282,282L281,281L281,281L280,279L279,278L278,277L277,276L277,275L276,274L275,273L275,272L275,271L275,270L274,269L274,268L275,267L275,266L274,265L276,264L278,264L279,264L280,264L280,263L280,262L279,261L279,260L278,260L278,259L277,258L276,258L275,257L275,256L273,256L273,256L272,255L272,255L271,256L270,258L270,260L270,261L270,262L270,265L269,266L269,267L270,268L271,269L272,270L272,272L272,273L273,274L273,276L273,277L273,278L273,280L273,282L273,283L273,284L274,285L274,287L273,288L274,289L274,290L274,291Z M266,256L267,256L268,256L271,256L272,255L271,254L270,253L269,253L269,252L268,251L268,250L268,249L267,248L267,246L267,245L267,244L268,244L267,242L268,241L268,240L267,239L267,238L266,237L266,235L266,234L265,233L266,231L266,231L265,231L264,232L264,233L263,234L262,234L261,235L260,236L259,235L258,234L257,233L256,233L255,233L255,234L255,236L255,236L255,238L258,240L259,241L259,242L259,243L260,243L261,243L262,244L261,244L261,245L261,246L261,248L261,249L262,250L262,249L262,250L263,251L264,253L264,254L265,257Z " data-fips="BM13" data-hasc="MM.MO" data-name="Mon" data-postal="MO" data-varname="Mun"/><path d="M212,236L212,234L213,232L214,230L214,229L214,228L214,227L214,226L214,225L214,222L214,221L214,219L213,216L212,214L212,213L211,211L212,210L212,209L211,208L213,207L212,206L211,204L210,203L209,202L208,201L208,200L207,199L208,198L207,197L205,194L205,191L204,188L203,186L203,185L203,183L202,182L202,181L202,179L201,178L200,176L197,171L196,170L195,169L195,167L195,166L194,166L193,165L193,164L192,163L191,163L190,164L190,165L191,166L190,167L189,167L187,167L186,167L185,167L182,164L181,163L180,162L180,159L175,159L174,159L173,158L173,157L172,155L170,153L170,154L169,155L168,154L168,152L167,152L165,152L165,151L164,150L162,151L162,152L161,153L161,155L161,156L161,157L162,158L163,159L163,161L163,162L164,165L165,166L166,167L166,168L167,169L168,170L170,172L171,175L172,175L171,173L172,172L171,171L171,169L170,167L171,169L172,170L172,172L174,171L174,174L175,174L176,175L174,175L173,176L172,177L174,178L175,179L175,177L177,175L177,174L177,172L178,171L178,170L178,171L177,173L178,173L179,172L179,173L178,174L177,176L177,178L178,178L179,177L178,178L178,179L176,179L177,180L177,181L178,183L179,184L179,184L179,182L179,181L180,182L180,183L181,185L180,182L180,180L181,180L183,180L184,179L184,180L185,181L185,182L186,182L187,182L187,183L188,184L189,184L190,183L191,183L191,184L190,184L189,186L189,187L190,188L191,187L191,188L192,189L193,188L192,189L191,190L192,190L193,191L194,192L195,193L196,194L196,195L196,196L195,197L193,198L192,198L191,197L190,197L189,195L188,194L187,194L186,195L186,196L188,198L188,199L189,200L190,201L190,202L191,203L191,204L193,204L194,205L195,205L196,205L196,204L195,202L195,200L195,199L196,200L197,199L197,198L197,196L198,196L197,197L198,199L197,200L197,201L198,201L198,203L197,204L197,205L197,206L198,207L199,207L200,208L201,209L202,209L201,209L199,209L201,211L201,213L202,214L203,216L204,217L204,217L204,218L203,219L204,219L205,219L205,221L206,222L206,223L206,224L205,225L206,227L206,229L207,230L208,232L208,233L209,234L207,233L208,235L208,236L208,236L209,237L210,237L211,238Z M191,209L191,208L191,207L191,206L190,206L190,206L189,205L188,206L186,206L188,209L189,210L190,210Z M194,197L195,196L196,195L196,194L195,193L194,193L193,193L191,191L190,191L189,193L190,194L191,194L191,195L191,196L193,197Z M187,186L187,185L187,184L186,183L185,183L186,186L187,187Z M177,184L176,180L175,180L175,181L177,184L177,185Z " data-fips="BM01" data-hasc="MM.RA" data-name="Rakhine" data-postal="RA" data-varname="Arakan"/><path d="M200,167L199,165L198,164L198,162L198,161L199,158L199,157L199,156L198,155L198,154L199,151L200,148L199,147L198,146L198,144L197,143L198,141L198,140L198,138L198,136L198,132L198,131L198,130L198,127L198,126L198,125L197,123L198,122L198,120L197,119L198,118L198,116L198,114L198,113L198,112L198,111L199,110L199,109L199,107L200,107L201,105L201,103L200,101L200,100L200,100L199,99L198,98L197,98L196,98L194,98L193,97L191,96L190,97L189,97L187,97L187,96L186,96L186,95L184,95L184,96L184,97L185,98L185,99L186,102L186,103L187,104L186,109L186,110L185,111L185,113L185,115L184,117L182,117L182,116L181,117L181,118L181,119L181,121L180,121L179,122L179,125L180,127L180,128L180,129L181,131L181,133L180,134L180,135L179,135L178,135L177,137L177,138L177,139L176,138L175,139L174,138L173,137L171,136L171,137L171,138L170,138L169,139L169,141L169,144L169,150L169,151L170,153L172,155L173,157L173,158L174,159L175,159L180,159L180,162L181,163L182,164L185,167L186,167L187,167L189,167L190,167L191,166L190,165L190,164L191,163L192,163L193,164L193,165L194,166L195,166L195,167L197,168Z " data-fips="BM02" data-hasc="MM.CH" data-name="Chin" data-postal="CH" data-varname="Chin Hills"/><path d="M212,271L213,270L213,268L212,269L211,270L211,271L212,272Z M226,272L227,271L230,268L230,267L231,266L231,265L231,263L232,264L233,264L234,263L235,262L236,263L237,262L238,260L237,259L235,259L234,258L234,257L234,256L234,254L234,253L235,251L234,250L234,249L235,248L234,247L234,246L234,245L233,244L232,243L231,242L230,240L231,239L231,237L232,236L231,234L230,234L228,233L227,233L226,232L226,231L226,229L226,228L226,227L225,226L226,224L225,222L225,221L224,220L223,218L222,217L221,215L220,215L220,215L219,215L218,217L217,217L216,216L215,216L214,216L213,217L214,219L214,221L214,222L214,225L214,226L214,227L214,228L214,229L214,230L213,232L212,234L212,236L211,238L210,237L209,237L208,236L208,236L208,238L208,240L207,239L206,240L206,241L206,242L205,242L206,243L206,244L205,245L205,247L205,248L204,248L204,249L204,250L204,251L203,253L203,254L203,255L203,256L201,256L201,257L201,260L201,261L200,264L200,267L201,268L202,267L203,266L204,266L205,265L206,263L206,262L207,261L208,261L209,260L208,261L208,262L209,262L209,260L210,259L210,258L210,256L211,256L210,257L210,260L209,262L210,263L210,265L209,266L208,267L207,269L208,268L210,267L211,266L211,265L212,264L212,265L211,266L211,267L209,268L208,269L209,270L210,270L211,270L212,268L213,267L213,266L213,265L214,263L215,263L216,262L215,263L214,264L213,264L214,266L215,267L213,267L213,269L213,270L214,271L213,272L214,272L216,272L217,271L217,271L218,267L218,266L218,265L219,264L220,264L221,265L220,265L218,266L219,267L219,269L219,271L220,272L221,271L221,269L222,268L221,269L222,270L223,268L223,267L223,266L223,265L224,264L223,265L224,267L223,268L223,270L222,271L223,273L225,273Z M205,270L205,269L206,268L208,267L209,266L209,265L209,264L209,262L208,262L207,264L206,265L206,266L204,267L204,268L204,269L204,271Z " data-fips="BM03" data-hasc="MM.AY" data-name="Ayeyarwady" data-postal="AY" data-varname="Irrawaddy|Ayeyarwaddy|Ayeyawady|Irawadi|Irraouaddi|Irrauaddy"/><path d="M214,216L215,216L216,216L217,217L218,217L219,215L220,215L220,215L218,214L218,212L218,211L219,210L220,209L221,208L221,207L220,206L222,204L222,203L224,202L225,201L227,200L229,200L231,200L233,200L233,199L234,197L234,196L233,195L233,194L233,193L232,193L231,192L231,190L232,189L232,188L232,187L233,186L233,185L233,183L232,182L232,181L233,180L233,179L233,178L232,177L232,175L232,174L231,173L231,171L229,168L229,167L229,166L227,166L226,166L225,167L223,167L223,168L222,168L221,168L220,169L219,171L218,169L218,168L218,166L218,165L218,164L217,163L216,163L214,163L213,162L213,160L213,159L213,157L214,156L215,156L216,155L217,154L218,154L219,154L221,153L222,152L223,151L223,149L224,148L224,148L223,147L222,147L222,146L221,145L220,143L219,143L218,143L215,143L213,143L212,143L210,143L209,143L208,144L207,144L206,144L205,143L205,139L205,138L204,137L203,137L202,136L202,133L203,130L203,129L202,127L201,126L200,125L200,124L199,125L198,125L198,126L198,127L198,130L198,131L198,132L198,136L198,138L198,140L198,141L197,143L198,144L198,146L199,147L200,148L199,151L198,154L198,155L199,156L199,157L199,158L198,161L198,162L198,164L199,165L200,167L197,168L195,167L195,169L196,170L197,171L200,176L201,178L202,179L202,181L202,182L203,183L203,185L203,186L204,188L205,191L205,194L207,197L208,198L207,199L208,200L208,201L209,202L210,203L211,204L212,206L213,207L211,208L212,209L212,210L211,211L212,213L212,214L213,216L213,217Z " data-fips="BM15" data-hasc="MM.MG" data-name="Magway" data-postal="MG" data-varname="Magwe|Minbu"/><path d="M254,197L255,196L255,195L255,194L255,192L256,191L256,190L257,189L260,187L260,185L260,183L260,182L261,183L262,184L262,184L264,184L264,184L264,183L265,183L266,184L266,184L267,184L267,184L267,184L268,185L269,186L268,187L269,188L270,189L272,189L272,189L272,189L273,189L274,190L274,191L275,191L277,190L277,189L277,188L277,186L278,187L280,187L280,188L281,188L282,189L284,188L286,188L287,188L288,188L289,188L290,187L292,187L293,186L294,186L295,187L296,186L297,186L297,184L297,183L297,182L298,180L299,179L300,179L302,179L303,180L304,180L306,179L307,178L307,177L306,176L306,174L306,173L307,174L309,174L310,175L311,174L313,174L313,173L314,172L316,172L317,173L318,173L319,173L319,172L319,171L320,169L320,167L321,166L321,165L322,164L323,164L324,163L326,163L327,164L328,163L329,162L327,161L327,160L327,159L329,158L330,156L330,153L331,153L332,153L333,152L334,152L336,151L339,148L339,147L339,146L339,145L338,144L338,143L337,143L335,144L334,145L333,145L332,146L331,147L330,148L328,149L327,150L325,150L325,149L324,148L323,148L322,149L321,150L319,150L318,149L318,148L318,147L319,146L318,145L316,145L315,144L315,143L314,142L315,140L315,139L315,137L313,137L312,138L310,137L310,138L309,137L306,136L304,136L303,137L300,136L299,136L299,134L300,133L300,132L301,131L301,130L303,128L303,127L303,126L302,123L303,122L303,121L304,120L304,119L305,119L306,118L305,117L305,116L303,116L302,115L301,116L300,116L299,115L297,115L296,115L295,114L294,114L293,113L294,111L293,110L293,109L293,108L292,107L291,106L292,105L291,103L291,101L290,101L289,100L289,98L289,97L290,97L291,96L292,95L293,94L292,94L289,94L287,95L286,94L285,94L283,94L282,94L281,94L279,94L278,94L276,95L273,96L272,98L271,98L270,99L269,99L269,100L268,101L265,101L264,102L263,103L262,103L261,104L260,104L258,104L256,104L256,103L254,103L252,102L254,101L254,100L255,99L254,98L253,97L252,97L251,96L250,95L250,94L248,94L244,96L245,97L246,96L247,97L247,98L247,99L248,100L247,102L246,103L245,104L245,105L244,106L243,108L242,110L241,111L240,111L241,112L241,113L240,114L240,115L241,116L241,117L242,118L244,118L245,117L246,117L247,117L248,117L249,119L250,119L251,119L250,120L250,121L249,122L248,122L246,123L245,123L244,123L243,123L242,123L241,124L241,125L242,127L243,128L243,129L243,130L243,131L244,132L245,132L245,133L246,135L246,136L248,136L249,137L250,138L251,138L252,139L252,140L253,141L254,142L254,143L254,144L254,145L253,145L251,146L250,146L250,147L248,148L247,148L246,149L244,149L243,150L242,151L243,153L243,154L243,155L244,156L243,157L242,157L241,158L241,159L241,161L242,161L243,162L244,162L245,162L246,163L247,163L248,164L248,165L247,166L247,166L246,167L246,168L247,169L248,169L248,171L247,171L246,172L246,173L247,174L247,177L247,178L246,179L246,180L246,181L245,182L245,183L246,184L246,185L247,185L248,186L249,187L250,188L250,189L249,190L248,190L249,191L250,191L250,192L250,193L251,194L252,194L253,195L253,195L254,196L254,197Z " data-fips="BM11" data-hasc="MM.SH" data-name="Shan" data-postal="SH" data-varname=""/><path d="M283,396L284,395L285,394L284,393L283,394L282,395L282,395L281,396L282,398Z M283,392L284,391L283,391L283,392L283,393Z M290,377L290,376L289,376L289,377L290,378Z M285,379L285,378L284,377L284,376L283,375L283,374L282,374L281,375L281,376L282,375L283,375L283,376L284,377L284,379L284,380Z M277,376L278,375L277,375L277,376Z M290,373L290,373L290,371L290,372L289,373L289,374Z M283,363L284,363L285,362L285,361L285,360L285,358L285,357L284,356L284,358L284,359L284,360L283,361L283,362L283,363L282,364Z M290,360L290,358L290,356L290,356L289,356L288,357L287,357L287,359L287,360L288,361L289,361L290,361Z M280,358L280,357L280,357L279,355L279,357L279,358L279,359L280,359Z M291,394L292,391L293,390L294,389L294,388L295,387L295,386L295,385L295,383L295,382L295,381L295,380L296,378L297,377L298,377L300,376L299,375L300,374L301,374L301,373L303,372L303,371L304,371L305,368L306,367L307,366L307,365L308,364L308,363L309,362L309,360L310,360L311,359L312,357L312,355L311,354L311,353L311,351L310,350L311,349L310,349L309,349L309,348L309,347L309,346L308,345L308,343L307,342L308,340L308,339L306,339L306,338L305,337L304,336L304,335L303,334L303,333L302,332L303,331L302,330L301,329L301,328L302,327L303,326L303,325L303,324L303,323L303,321L302,318L302,316L302,315L301,314L301,312L300,312L299,311L299,310L298,309L298,308L296,307L293,305L292,304L291,303L290,303L289,301L287,298L287,297L284,294L283,292L283,291L282,289L282,288L281,288L280,288L280,288L279,286L278,286L277,287L276,288L275,289L275,290L274,291L274,291L274,292L275,294L276,294L276,293L277,293L277,294L278,295L279,296L277,295L276,295L276,296L277,297L276,298L277,299L278,300L278,301L278,302L278,303L279,304L280,306L280,307L280,308L279,309L280,311L280,312L280,313L280,314L280,316L281,317L281,318L281,319L282,319L282,318L282,317L282,316L282,315L282,313L282,312L282,310L283,309L283,310L283,311L283,313L283,314L284,316L284,317L286,318L286,319L287,320L287,321L288,322L288,323L289,324L289,325L290,327L291,328L290,329L291,331L291,332L292,333L291,335L292,336L293,337L292,338L292,339L292,340L292,341L293,341L291,342L291,343L292,344L293,344L293,345L290,346L290,347L291,348L292,347L293,347L293,348L292,349L292,350L292,351L293,351L294,353L293,353L292,354L290,355L292,355L293,355L292,356L292,356L292,358L293,359L294,358L295,357L295,356L296,355L296,356L295,357L297,358L296,359L295,359L294,360L294,361L294,362L295,362L295,364L294,364L294,365L294,366L294,368L294,369L294,370L293,370L294,371L294,372L294,373L294,374L293,375L292,375L291,376L291,377L291,378L291,379L290,379L288,379L289,381L289,383L289,384L290,385L290,387L290,388L290,389L289,391L290,392L290,394L291,394Z M291,353L292,353L291,352L289,352L289,351L288,350L288,352L288,353L288,354L289,354Z M281,348L281,347L280,346L279,347L279,348L280,349L281,349Z M280,345L281,344L280,344L279,344L279,344L278,345L278,346L279,346Z M285,341L284,340L283,341L284,341Z M287,344L288,342L288,341L288,340L287,341L287,340L287,340L287,338L285,338L285,340L285,342L286,342L285,344L285,345L286,345Z M285,330L285,329L284,329L283,326L283,328L284,330L284,331L285,332Z " data-fips="BM12" data-hasc="MM.TN" data-name="Tanintharyi" data-postal="TN" data-varname="Tenasserim|Thanintharyi"/><path d="M260,104L261,104L262,103L263,103L264,102L265,101L268,101L269,100L269,99L268,99L267,99L266,98L270,94L270,93L270,92L270,91L269,90L269,89L269,88L268,87L266,87L267,84L267,81L268,80L269,79L270,79L271,78L270,78L270,76L270,74L271,73L271,72L272,70L273,71L274,71L275,69L276,69L277,68L277,66L277,65L277,64L278,63L278,62L280,63L281,63L282,63L282,61L283,60L284,59L284,58L285,57L286,58L287,58L288,56L288,55L287,54L286,53L286,52L286,51L287,51L287,52L288,51L288,50L287,48L288,47L288,46L289,45L289,42L289,40L289,39L289,38L289,36L288,35L289,34L289,32L289,31L288,30L288,29L288,27L288,25L287,24L287,21L287,20L287,19L286,20L285,19L284,19L282,18L282,19L282,21L281,21L280,20L279,18L278,16L278,15L277,14L278,13L277,12L277,11L277,8L275,7L274,7L274,6L273,5L272,4L271,4L269,3L268,1L267,1L265,0L265,1L264,3L264,4L263,5L263,6L262,7L261,9L261,10L262,12L262,13L262,14L261,13L260,14L259,15L258,15L257,16L257,17L256,17L255,18L253,20L253,21L254,22L253,23L254,24L258,29L258,30L258,31L257,31L257,31L256,32L255,33L253,33L251,33L250,34L249,34L244,34L243,34L242,34L242,35L242,36L241,37L241,38L238,40L239,42L240,43L239,44L238,45L237,45L237,46L238,48L239,49L239,50L240,51L240,53L239,54L238,57L239,58L239,59L240,61L240,62L240,62L238,63L237,64L237,63L236,65L236,66L237,71L238,72L238,74L238,75L237,76L237,74L236,75L235,76L234,76L235,78L236,82L237,83L239,83L240,86L241,87L242,87L243,86L245,86L249,87L249,88L249,89L249,91L249,93L250,94L250,95L251,96L252,97L253,97L254,98L255,99L254,100L254,101L252,102L254,103L256,103L256,104L258,104Z " data-fips="BM04" data-hasc="MM.KC" data-name="Kachin" data-postal="KC" data-varname="Jingphaw Mungdaw"/><path d="M224,147L225,145L227,145L229,146L230,147L232,147L233,146L234,143L235,143L236,142L237,142L238,140L237,138L237,136L237,135L236,134L237,133L236,131L236,129L237,128L235,125L235,124L236,124L236,115L236,113L235,111L235,110L236,108L237,107L237,106L238,105L239,105L239,106L240,107L242,107L244,106L245,105L245,104L246,103L247,102L248,100L247,99L247,98L247,97L246,96L245,97L244,96L248,94L250,94L249,93L249,91L249,89L249,88L249,87L245,86L243,86L242,87L241,87L240,86L239,83L237,83L236,82L235,78L234,76L235,76L236,75L237,74L237,76L238,75L238,74L238,72L237,71L236,66L236,65L237,63L237,64L238,63L240,62L240,62L240,61L239,59L239,58L238,57L239,54L240,53L240,51L239,50L239,49L238,48L237,46L237,45L238,45L239,44L240,43L239,42L238,40L241,38L241,37L242,36L242,35L242,34L243,34L244,34L249,34L250,34L251,33L253,33L255,33L256,32L257,31L257,31L256,31L255,30L253,29L253,28L252,27L251,26L250,25L249,26L248,26L247,27L246,27L245,27L240,27L238,28L237,29L236,30L235,32L234,33L233,33L232,34L231,35L230,35L229,36L228,37L227,37L226,39L225,39L224,40L223,40L222,40L221,41L220,41L220,42L219,43L219,44L219,45L219,46L218,48L219,49L219,50L220,52L221,53L220,54L219,55L218,56L217,57L218,59L217,60L215,63L214,64L213,65L212,65L211,66L210,67L209,70L209,72L211,72L212,73L212,75L211,76L210,78L210,79L209,81L209,82L208,82L207,84L206,85L205,87L205,88L204,89L204,90L203,91L202,94L202,96L202,97L200,98L200,100L200,101L201,103L201,105L200,107L199,107L199,109L199,110L198,111L198,112L198,113L198,114L198,116L198,118L197,119L198,120L198,122L197,123L198,125L199,125L200,124L200,125L201,126L202,127L203,129L203,130L202,133L202,136L203,137L204,137L205,138L205,139L205,143L206,144L207,144L208,144L209,143L210,143L212,143L213,143L215,143L218,143L219,143L220,143L221,145L222,146L222,147L223,147L224,148Z " data-fips="BM10" data-hasc="MM.SA" data-name="Sagaing" data-postal="SA" data-varname=""/></g></svg>