<?xml version="1.0" ?><!DOCTYPE svg  PUBLIC '-//W3C//DTD SVG 1.1//EN'  'http://www.w3.org/Graphics/SVG/1.1/DTD/svg11.dtd'><svg enable_background="new 0 0 500 401" height="401px" style="stroke-linejoin: round; stroke:#000; fill:#f6f3f0;" version="1.1" viewBox="0 0 500 401" width="500px" xmlns="http://www.w3.org/2000/svg" xmlns:xlink="http://www.w3.org/1999/xlink"><defs><style type="text/css"><![CDATA[path { fill-rule: evenodd; }
#context path { fill: #eee; stroke: #bbb; } ]]></style></defs><metadata><views><view h="401" padding="0" w="500"><proj id="laea" lat0="46.056" lon0="102.876"/><bbox h="130.59" w="264.72" x="878.01" y="924.31"/><llbbox lat0="-90" lat1="90" lon0="-180" lon1="180"/></view></views></metadata><g id="admin1"><path d="M48,194L49,192L50,193L52,193L55,193L55,192L54,191L53,189L52,188L51,187L50,186L49,185L49,184L49,183L50,180L50,178L48,175L48,174L48,173L48,172L48,168L47,167L47,166L46,162L45,159L45,158L44,157L44,156L44,154L44,152L44,151L45,150L45,147L43,145L45,145L50,144L52,144L54,145L54,144L54,143L54,140L53,139L52,138L51,137L50,135L50,134L49,132L49,131L49,129L47,129L46,128L46,127L46,126L44,125L41,122L41,121L41,120L41,119L40,117L40,115L40,114L39,112L38,111L38,112L36,112L33,112L32,113L32,115L32,116L33,116L33,117L32,118L30,118L29,118L28,119L27,119L25,118L25,119L25,120L24,121L21,121L21,120L20,120L19,121L17,120L16,119L15,120L13,120L12,119L9,119L8,120L8,121L8,123L7,124L6,124L5,125L3,125L3,126L2,127L3,129L2,130L1,130L0,131L1,132L1,134L2,134L3,135L4,135L4,136L3,137L2,138L2,139L3,140L4,140L5,141L6,141L7,143L8,144L9,144L10,146L10,147L10,149L11,150L12,150L13,152L15,152L16,155L18,156L19,156L20,155L21,155L22,155L23,155L24,156L24,157L25,158L25,159L26,160L27,161L29,161L30,160L31,160L31,162L31,163L31,164L33,165L34,166L34,167L35,168L35,169L35,170L35,171L35,172L36,173L35,175L38,182L39,183L40,183L41,184L41,185L41,186L41,187L42,189L42,190L42,190L43,191L45,191L46,192L46,193L47,194Z " data-fips="MG03" data-hasc="MN.BO" data-name="Bayan-lgiy" data-postal="BO" data-varname="Bajan-lgij|Bayan lgey|Bayan-Ulegei|Bayanulgee|Bayan-Ulgii|Bajan-Ulegei"/><path d="M333,300L336,299L340,299L341,299L345,298L347,296L351,294L352,293L354,293L355,292L359,289L360,288L362,286L362,285L363,284L363,283L365,280L367,276L369,275L373,273L375,271L377,271L377,270L380,266L381,266L383,266L383,264L382,263L380,260L379,259L377,258L375,256L374,254L374,252L372,252L372,250L372,249L373,248L374,246L374,245L374,243L376,236L377,235L378,234L379,234L380,233L380,233L380,232L380,231L379,229L378,228L377,227L377,225L375,224L375,223L375,217L374,216L374,215L372,212L371,210L365,208L362,211L360,212L359,212L355,210L354,209L353,208L353,207L352,206L349,203L348,202L348,201L347,200L345,201L345,202L346,204L345,207L345,208L342,210L341,211L337,212L335,212L333,211L332,210L331,208L329,206L329,205L328,204L329,203L330,200L330,199L330,198L330,197L328,197L328,198L327,197L327,195L327,194L325,193L324,196L323,197L322,198L320,199L318,199L315,199L314,199L313,199L311,200L312,201L313,202L314,202L316,202L314,204L314,205L317,208L317,209L318,210L318,211L318,212L318,217L319,218L319,219L320,220L323,219L322,222L322,224L322,226L323,230L324,238L325,240L323,240L322,242L322,243L320,244L314,245L313,246L312,247L312,251L312,252L310,256L310,258L312,261L316,271L317,275L317,277L317,280L318,284L319,286L318,287L318,288L318,289L319,301L323,300L324,300L328,300L332,301Z " data-fips="MG07" data-hasc="MN.DG" data-name="Dornogovi" data-postal="DG" data-varname="Dornogobi|Dornogov'|Dorono Gobi|East Gobi|Dornogow'|Ostgobi|Gbi Oriental"/><path d="M271,319L272,319L273,318L274,317L276,317L282,313L298,305L319,301L318,289L318,288L318,287L319,286L318,284L317,280L317,277L317,275L316,271L312,261L310,258L310,256L308,254L306,254L305,254L304,253L294,257L293,258L292,259L290,260L288,260L283,261L281,261L280,260L278,259L278,257L278,256L277,256L276,254L273,250L273,250L268,249L261,249L254,248L252,248L252,247L251,245L251,244L251,243L251,242L251,241L251,239L245,239L245,240L244,242L243,243L240,246L237,247L236,248L233,255L233,256L232,257L232,258L231,260L232,262L232,263L226,263L218,264L213,265L212,266L203,271L202,271L189,270L188,271L186,270L184,268L182,265L179,262L173,264L173,265L173,284L175,299L181,297L202,301L205,301L207,301L209,301L211,303L213,307L215,309L216,309L234,314L245,319L259,316L259,321L260,322L266,322L268,323Z " data-fips="MG14" data-hasc="MN.OG" data-name="mngovi" data-postal="OG" data-varname="Gbi do Sul|mngov'|mn Gobi|South Gobi|Umnu|mngow'|Sdgobi"/><path d="M362,211L365,208L365,207L366,205L366,203L365,202L365,200L364,198L365,197L366,194L367,192L367,190L367,186L367,184L368,183L369,181L370,180L372,180L374,180L375,180L375,178L375,177L375,175L375,174L376,173L376,172L381,170L382,169L384,169L383,166L381,164L380,163L380,159L380,157L380,156L380,155L379,153L378,151L374,145L373,144L373,143L373,142L373,140L372,139L371,136L372,134L372,134L370,132L369,133L363,134L361,135L360,135L358,135L358,136L356,137L353,139L352,141L349,141L348,141L347,141L345,140L344,140L343,141L342,142L337,141L336,141L335,140L331,140L330,139L329,139L328,139L326,139L324,139L322,139L321,139L320,139L317,140L317,140L317,142L317,145L318,146L320,148L321,149L321,150L322,152L323,153L323,155L324,157L325,160L325,161L326,163L326,164L325,165L324,167L324,168L323,169L322,170L321,171L320,172L319,172L318,174L318,175L318,177L318,178L318,179L317,180L318,181L317,182L318,183L319,185L320,186L321,188L321,188L322,190L323,191L324,193L325,193L327,194L327,195L327,197L328,198L328,197L330,197L330,198L330,199L330,200L329,203L328,204L329,205L329,206L331,208L332,210L333,211L335,212L337,212L341,211L342,210L345,208L345,207L346,204L345,202L345,201L347,200L348,201L348,202L349,203L352,206L353,207L353,208L354,209L355,210L359,212L360,212Z " data-fips="MG11" data-hasc="MN.HN" data-name="Hentiy" data-postal="HN" data-varname="Chentii|Chentij|Hentey|Hentii|Kentai|Kentei|Khentei|Khenti"/><path d="M213,199L214,198L216,198L219,197L221,196L222,196L223,198L225,198L225,196L225,194L227,194L227,193L228,190L227,189L227,188L228,187L229,188L230,188L233,189L234,190L234,192L235,192L238,193L241,192L243,190L243,189L241,188L239,186L238,185L237,184L236,182L236,181L235,180L233,180L233,178L232,177L231,177L230,175L230,174L230,173L229,171L228,170L227,169L226,168L224,168L223,167L223,166L222,165L222,164L221,163L220,162L220,161L220,158L219,156L219,155L218,156L217,156L216,155L215,154L214,153L213,153L212,152L209,151L206,151L203,148L198,145L197,146L196,147L196,148L193,149L193,150L195,152L194,152L193,153L192,154L192,155L192,156L191,157L191,158L192,159L193,160L192,161L191,161L189,162L189,163L188,164L187,164L184,162L182,162L182,163L181,165L181,166L177,166L176,165L175,166L174,166L173,166L172,165L166,167L165,167L164,168L163,169L162,170L158,170L157,170L157,172L158,174L158,176L157,178L157,179L158,180L160,180L162,179L163,178L165,178L166,179L166,180L167,182L170,184L170,185L172,185L173,184L174,184L176,183L178,182L178,181L180,181L180,182L180,184L181,185L182,186L182,187L182,188L182,190L183,191L183,192L183,193L183,194L185,194L190,192L191,192L192,194L192,196L193,197L194,197L195,198L195,199L196,200L197,200L199,200L201,200L204,200L205,201Z " data-fips="MG01" data-hasc="MN.AR" data-name="Arhangay" data-postal="AR" data-varname="Alahangai|Ara Hangay|Ara-Khangai|Archangaj|Arkhangai|North Hangay|North Khangai|Archangai"/><path d="M175,299L173,284L173,265L173,264L179,262L182,265L184,268L186,270L188,271L189,270L202,271L203,271L212,266L209,255L209,253L208,251L208,250L208,248L208,246L206,245L205,244L203,243L203,243L202,242L202,240L202,237L202,235L202,234L202,233L203,232L204,231L204,229L204,228L205,225L205,224L205,223L205,221L205,219L206,218L207,218L208,217L208,215L208,214L208,213L208,212L209,209L209,208L209,206L207,204L205,202L205,201L204,200L201,200L199,200L197,200L196,200L195,199L195,198L194,197L193,197L192,196L192,194L191,192L190,192L185,194L183,194L183,193L183,192L183,191L182,190L182,188L182,187L182,186L181,185L180,184L180,182L180,181L178,181L178,182L176,183L174,184L173,184L172,185L170,185L170,184L167,182L166,180L166,179L165,178L163,178L162,179L160,180L160,181L160,182L159,183L158,184L158,185L158,187L157,187L156,189L155,190L154,190L152,190L151,190L151,191L151,193L148,200L147,202L147,204L147,205L146,208L147,209L147,210L148,212L149,213L151,215L152,216L154,217L155,218L157,222L158,223L158,225L158,232L158,233L156,240L155,241L154,242L154,243L154,244L154,247L153,250L153,252L152,253L151,254L148,256L148,258L148,265L147,271L147,273L147,275L145,279L144,281L144,282L144,294L172,299Z " data-fips="MG02" data-hasc="MN.BH" data-name="Bayanhongor" data-postal="BH" data-varname="Bajan-Chongor|Bayan Khangor|Bayan Khongor"/><path d="M147,202L148,200L151,193L151,191L151,190L152,190L154,190L155,190L156,189L157,187L158,187L158,185L158,184L159,183L160,182L160,181L160,180L158,180L157,179L157,178L158,176L158,174L157,172L157,170L158,170L162,170L163,169L164,168L165,167L166,167L172,165L172,163L171,160L171,158L171,157L172,155L173,154L173,152L173,151L173,149L173,147L172,145L167,146L167,147L166,148L164,149L163,149L162,148L161,147L159,147L156,147L155,148L154,147L149,143L148,143L145,142L143,142L139,138L139,136L140,135L140,134L141,133L142,132L144,130L144,130L143,129L143,128L142,127L137,126L136,127L135,126L134,125L133,126L132,125L131,124L128,123L127,123L126,124L126,123L125,122L124,123L123,124L121,124L119,124L119,124L119,126L119,127L119,128L119,129L118,130L119,132L119,133L120,135L121,135L121,136L121,137L121,138L119,142L120,143L119,144L119,145L119,146L118,148L117,149L115,149L114,150L113,150L111,151L109,151L106,151L105,151L104,150L101,150L96,148L89,151L88,152L87,153L86,153L85,156L86,156L85,157L85,158L84,160L82,161L81,162L80,163L81,166L81,167L81,168L82,171L83,174L87,174L89,173L91,172L93,171L95,172L96,172L97,173L98,173L99,174L101,175L104,175L105,175L107,175L108,176L108,178L109,178L110,178L115,179L116,180L117,181L118,181L124,186L125,187L125,189L126,191L127,193L127,194L128,196L132,195L133,195L134,196L134,198L135,200L136,201L136,202L137,203L139,203L140,204L141,203L142,202L143,202L144,202L145,203L147,204Z " data-fips="MG09" data-hasc="MN.DZ" data-name="Dzavhan" data-postal="DZ" data-varname="Dsawchan|Dzabhan|Dzabkhan|Dzavchan|Psapchyn|Zavhan|Zavkhan"/><path d="M144,282L144,281L145,279L147,275L147,273L147,271L148,265L148,258L148,256L151,254L152,253L153,252L153,250L154,247L154,244L154,243L154,242L155,241L156,240L158,233L158,232L158,225L158,223L157,222L155,218L154,217L152,216L151,215L149,213L148,212L147,210L147,209L146,208L147,205L147,204L145,203L144,202L143,202L142,202L141,203L140,204L139,203L137,203L136,202L136,201L135,200L134,198L134,196L133,195L132,195L128,196L127,194L127,193L126,191L125,189L125,187L124,186L118,181L117,181L116,180L115,179L110,178L109,178L108,178L108,176L107,175L105,175L104,175L101,175L99,174L98,173L97,173L96,172L95,172L93,171L91,172L89,173L87,174L83,174L83,176L84,177L85,178L88,181L90,183L91,185L91,186L91,188L92,189L93,192L94,193L93,194L92,195L89,196L87,197L85,198L84,199L81,198L81,199L82,201L82,203L82,204L80,207L77,211L77,213L76,214L76,215L75,216L72,217L72,218L72,224L71,226L69,234L71,234L72,235L74,235L75,236L77,236L79,238L82,242L83,243L85,244L87,244L88,246L89,248L91,248L93,250L94,251L95,252L98,254L100,255L106,255L105,256L104,258L104,259L104,261L106,262L107,262L108,265L109,270L111,276L111,279L112,280L119,288L119,289L119,292L121,292L133,292L144,294Z " data-fips="MG10" data-hasc="MN.GA" data-name="Govi-Altay" data-postal="GA" data-varname="Gobi-Altai|Gobi Altay|Gov'altaj|Gov'altay|Govyaltaj|Gow'altai"/><path d="M71,226L72,224L72,218L72,217L75,216L76,215L76,214L77,213L77,211L80,207L82,204L82,203L82,201L81,199L81,198L84,199L85,198L87,197L89,196L92,195L93,194L94,193L93,192L92,189L91,188L91,186L91,185L90,183L88,181L85,178L84,177L83,176L83,174L82,171L81,168L81,167L81,166L80,163L81,162L82,161L84,160L85,158L85,157L86,156L85,156L83,155L83,153L82,152L82,151L82,150L80,149L79,149L78,149L77,150L75,151L73,150L68,148L67,149L66,148L66,146L65,145L64,145L64,144L63,140L62,139L61,139L58,140L57,142L55,144L54,145L52,144L50,144L45,145L43,145L45,147L45,150L44,151L44,152L44,154L44,156L44,157L45,158L45,159L46,162L47,166L47,167L48,168L48,172L48,173L48,174L48,175L50,178L50,180L49,183L49,184L49,185L50,186L51,187L52,188L53,189L54,191L55,192L55,193L52,193L50,193L49,192L48,194L47,194L46,193L46,192L45,191L43,191L42,190L42,190L41,191L41,192L42,193L41,194L41,195L40,196L39,198L38,199L39,202L39,203L39,205L39,206L38,207L33,212L32,217L33,218L33,220L33,221L33,222L34,223L34,224L35,225L36,224L37,224L38,225L39,226L40,227L42,227L43,227L45,229L47,229L48,229L52,230L53,230L54,230L55,232L57,232L57,232L59,232L60,233L61,233L62,233L65,233L66,233L67,233L68,234L69,234Z " data-fips="MG00" data-hasc="MN.HD" data-name="Hovd" data-postal="HD" data-varname="Chovd|Hobdo|Khobdo|Khovd|Kobdo|Chowd"/><path d="M175,166L176,165L177,166L181,166L181,165L182,163L182,162L184,162L187,164L188,164L189,163L189,162L191,161L192,161L193,160L192,159L191,158L191,157L192,156L192,155L192,154L193,153L194,152L195,152L193,150L193,149L196,148L196,147L197,146L198,145L203,148L206,151L209,151L212,150L211,149L212,147L212,146L214,145L215,144L216,143L216,142L218,141L219,141L220,141L221,140L222,140L224,139L224,138L225,136L226,136L227,136L228,135L229,134L228,133L227,133L226,132L225,132L223,131L221,130L220,130L219,129L219,128L220,126L221,125L222,124L223,123L223,121L224,120L225,119L227,118L226,118L224,115L222,114L222,113L222,112L222,111L222,110L221,109L220,108L221,107L221,105L221,104L220,103L220,101L220,100L220,98L220,96L218,95L217,95L216,94L215,94L214,93L212,93L211,93L210,93L209,93L208,93L207,92L205,92L204,91L198,87L197,87L196,86L192,86L190,86L189,86L188,86L187,85L186,84L184,82L183,82L179,81L178,80L178,79L175,78L174,77L173,76L173,77L172,79L172,80L171,81L170,83L169,84L166,85L165,85L164,87L163,89L163,91L162,91L161,91L160,92L159,93L158,94L158,95L158,97L158,98L157,100L156,102L157,103L158,105L158,105L158,107L158,108L159,111L160,112L162,112L162,113L162,115L162,116L162,117L162,119L159,124L158,124L155,126L154,126L153,126L152,126L151,127L150,129L149,129L147,130L146,131L144,130L143,129L144,130L144,130L142,132L141,133L140,134L140,135L139,136L139,138L143,142L145,142L148,143L149,143L154,147L155,148L156,147L159,147L161,147L162,148L163,149L164,149L166,148L167,147L167,146L172,145L173,147L173,149L173,151L173,152L173,154L172,155L171,157L171,158L171,160L172,163L172,165L173,166L174,166Z " data-fips="MG13" data-hasc="MN.HG" data-name="Hvsgl" data-postal="HG" data-varname="Chvsgl|Chuwsgul|Hobsgol|Hbsgl|Hubsugul|Khubsugal|Khubsugud|Khubsugul|Kossogol"/><path d="M86,153L87,153L88,152L89,151L96,148L101,150L104,150L105,151L106,151L109,151L111,151L113,150L114,150L115,149L117,149L118,148L119,146L119,145L119,144L120,143L119,142L121,138L121,137L121,136L121,135L120,135L119,133L119,132L118,130L119,129L119,128L119,127L119,126L119,124L119,124L119,124L118,123L113,122L112,121L112,120L109,120L107,120L106,119L106,118L105,117L104,116L103,114L103,113L104,110L103,108L103,107L92,105L91,105L87,104L86,104L85,103L85,102L85,100L83,99L82,100L81,101L80,102L79,101L79,100L78,99L77,98L76,97L75,97L75,98L74,100L73,100L71,100L69,99L68,99L67,100L65,100L64,102L62,102L61,103L60,104L59,104L57,104L55,104L54,104L52,106L50,107L49,108L48,108L47,108L45,108L44,108L42,109L40,110L39,110L38,111L39,112L40,114L40,115L40,117L41,119L41,120L41,121L41,122L44,125L46,126L46,127L46,128L47,129L49,129L49,131L49,132L50,134L50,135L51,137L52,138L53,139L54,140L54,143L54,144L54,145L55,144L57,142L58,140L61,139L62,139L63,140L64,144L64,145L65,145L66,146L66,148L67,149L68,148L73,150L75,151L77,150L78,149L79,149L80,149L82,150L82,151L82,152L83,153L83,155L85,156Z " data-fips="MG19" data-hasc="MN.UV" data-name="Uvs" data-postal="UV" data-varname="Ubs|Ubsa Nor|Ubsa Nur|Ubsu Hur|Upsanol|Uws"/><path d="M247,191L249,190L251,190L251,188L250,187L249,186L251,185L253,183L254,183L256,183L256,182L258,182L260,181L260,180L259,177L259,176L258,175L256,175L254,174L254,172L252,170L253,169L254,168L255,166L256,165L256,163L256,161L256,159L256,158L256,156L256,155L255,154L253,153L252,152L250,151L248,151L248,149L249,148L250,148L252,148L253,147L254,147L256,147L256,145L256,143L257,142L257,140L257,139L258,138L258,135L258,134L258,133L256,131L255,130L255,129L256,127L256,127L256,126L255,125L255,123L254,122L252,121L252,121L251,122L250,123L249,124L247,124L244,123L241,124L240,124L239,123L238,123L236,123L236,122L235,120L234,120L231,120L231,120L229,118L227,118L225,119L224,120L223,121L223,123L222,124L221,125L220,126L219,128L219,129L220,130L221,130L223,131L225,132L226,132L227,133L228,133L229,134L228,135L227,136L226,136L225,136L224,138L224,139L222,140L221,140L220,141L219,141L218,141L216,142L216,143L215,144L214,145L212,146L212,147L211,149L212,150L212,152L213,153L214,153L215,154L216,155L217,156L218,156L219,155L219,156L220,158L220,161L220,162L221,163L222,164L222,165L223,166L223,167L224,168L226,168L227,169L228,170L229,171L230,173L230,174L230,175L231,177L232,177L233,178L233,180L235,180L236,181L236,182L237,184L238,185L239,186L241,188L243,189L243,190L245,191L246,191Z " data-fips="MG21" data-hasc="MN.BU" data-name="Bulgan" data-postal="BU" data-varname="Bulagan"/><path d="M256,151L256,150L256,149L254,147L253,147L252,148L250,148L249,148L248,149L248,151L250,151L252,152L253,153Z " data-fips="MG22" data-hasc="MN.ER" data-name="Orhon" data-postal="ER" data-varname="Erdenet|Orkhon"/><path d="M288,260L290,260L292,259L293,258L294,257L304,253L305,254L306,254L308,254L312,252L312,251L312,247L313,246L314,245L320,244L322,243L322,242L323,240L325,240L324,238L323,230L322,226L322,224L322,222L323,219L320,220L319,219L319,218L318,217L318,212L318,211L318,210L317,209L317,208L314,205L314,204L316,202L314,202L313,202L312,201L311,200L310,200L310,202L310,204L309,205L307,205L306,206L305,208L303,208L302,209L300,209L298,209L297,208L295,207L293,206L292,206L291,206L289,206L286,206L283,206L282,205L280,204L279,204L278,203L277,203L275,203L273,206L272,207L271,210L270,209L269,208L268,208L267,207L265,207L264,206L262,209L261,209L259,211L258,210L257,212L257,214L256,216L255,216L254,217L252,217L251,218L251,220L250,223L250,225L250,226L246,227L244,227L243,228L243,229L242,231L243,232L243,233L244,234L246,235L245,237L245,238L245,239L251,239L251,241L251,242L251,243L251,244L251,245L252,247L252,248L254,248L261,249L268,249L273,250L273,250L276,254L277,256L278,256L278,257L278,259L280,260L281,261L283,261Z " data-fips="MG00" data-hasc="MN.DU" data-name="Dundgovi" data-postal="DU" data-varname="Central Gobi|Dunda Gobi|Dundgobi|Dundgov'|Middle Gobi|Dundgow'|Mittelgobi|Gbi Central"/><path d="M278,147L276,147L275,146L276,144L276,142L276,140L276,139L276,138L276,137L275,136L275,134L276,133L277,133L278,132L278,131L279,130L280,132L279,133L279,134L279,135L280,136L281,137L283,137L284,137L285,136L285,135L287,136L289,137L290,138L290,139L290,140L290,142L290,143L290,144L290,146L289,147L287,147L285,146L284,146L283,145L281,146L280,146L279,147Z M265,161L266,160L267,160L269,159L270,159L270,157L270,156L271,155L272,154L273,154L276,153L277,153L278,154L279,154L279,156L279,157L280,157L281,157L283,158L286,159L287,160L289,160L290,160L291,159L293,158L294,158L295,158L296,158L297,158L298,159L300,158L301,158L302,157L304,157L304,156L305,154L305,152L304,151L303,150L302,149L303,148L304,147L305,146L307,146L309,147L310,148L311,146L312,146L314,145L315,145L317,142L317,140L317,140L316,140L315,139L313,137L312,136L311,135L309,135L308,134L308,133L307,132L307,131L307,130L306,128L307,127L306,126L304,126L303,126L298,126L297,125L296,125L295,125L293,124L293,123L292,122L291,121L288,119L287,118L285,118L283,118L280,119L279,119L277,118L276,117L275,117L274,116L271,117L267,116L266,116L264,117L263,118L260,118L259,119L257,119L256,120L254,120L253,120L252,121L254,122L255,123L255,125L256,126L256,127L256,127L255,129L255,130L256,131L258,133L258,134L258,135L258,138L257,139L257,140L257,142L256,143L256,145L256,147L256,149L256,150L256,151L253,153L255,154L256,155L256,156L256,158L256,159L259,160L260,161L262,161L263,161L264,162Z " data-fips="MG16" data-hasc="MN.SL" data-name="Selenge" data-postal="SL" data-varname="Selenga"/><path d="M213,265L218,264L226,263L232,263L232,262L231,260L232,258L232,257L233,256L233,255L236,248L237,247L240,246L243,243L244,242L245,240L245,239L245,238L245,237L246,235L244,234L243,233L243,232L242,231L243,229L243,228L244,227L246,227L250,226L250,225L250,223L251,220L251,218L252,217L254,217L255,216L256,216L257,214L257,212L258,210L257,210L255,208L255,207L255,205L254,204L254,202L253,201L253,200L254,199L254,197L254,196L253,195L251,194L251,193L251,191L251,190L249,190L247,191L246,191L245,191L241,192L238,193L235,192L234,192L234,190L233,189L230,188L229,188L228,187L227,188L227,189L228,190L227,193L227,194L225,194L225,196L225,198L223,198L222,196L221,196L219,197L216,198L214,198L213,199L205,201L205,202L207,204L209,206L209,208L209,209L208,212L208,213L208,214L208,215L208,217L207,218L206,218L205,219L205,221L205,223L205,224L205,225L204,228L204,229L204,231L203,232L202,233L202,234L202,235L202,237L202,240L202,242L203,243L203,243L205,244L206,245L208,246L208,248L208,250L208,251L209,253L209,255L212,266Z " data-fips="MG00" data-hasc="MN.OH" data-name="vrhangay" data-postal="OH" data-varname="br Hangay|vrchangaj|South Hangay|South Khangai|Ublhangai|Ubur-Khangai|Ovorkhangai|wrchangai|Uwurchangaj"/><path d="M279,147L280,146L281,146L283,145L284,146L285,146L287,147L289,147L290,146L290,144L290,143L290,142L290,140L290,139L290,138L289,137L287,136L285,135L285,136L284,137L283,137L281,137L280,136L279,135L279,134L279,133L280,132L279,130L278,131L278,132L277,133L276,133L275,134L275,136L276,137L276,138L276,139L276,140L276,142L276,144L275,146L276,147L278,147Z " data-fips="MG05" data-hasc="MN.DA" data-name="Darhan-Uul" data-postal="DA" data-varname="Darchan|Darhan|Darkhan|Darkhan-Uul|Darchan-Uul"/><path d="M300,180L299,180L297,179L296,178L294,178L292,179L289,179L288,178L287,177L287,176L287,174L286,173L286,170L285,169L285,168L284,167L288,167L290,168L291,168L293,168L294,168L296,167L297,168L298,169L299,171L300,172L301,173L302,173L303,173L304,174L304,176L303,177L303,180L302,180Z M261,209L262,209L264,206L265,207L267,207L268,208L269,208L270,209L271,210L272,207L273,206L275,203L277,203L278,203L279,204L280,204L282,205L283,206L286,206L289,206L291,206L292,206L293,206L295,207L297,208L298,209L300,209L302,209L303,208L305,208L306,206L307,205L309,205L310,204L310,202L310,200L311,200L313,199L314,199L315,199L318,199L320,199L322,198L323,197L324,196L325,193L324,193L323,191L322,190L321,188L321,188L320,186L319,185L318,183L317,182L318,181L315,181L314,179L314,177L314,176L314,175L315,174L316,173L319,172L320,172L321,171L322,170L323,169L324,168L324,167L325,165L326,164L326,163L325,161L325,160L324,157L323,155L323,153L322,152L321,150L321,149L320,148L318,146L317,145L315,145L314,145L312,146L311,146L310,148L309,147L307,146L305,146L304,147L303,148L302,149L303,150L304,151L305,152L305,154L304,156L304,157L302,157L301,158L300,158L298,159L297,158L296,158L295,158L294,158L293,158L291,159L290,160L289,160L287,160L286,159L283,158L281,157L280,157L279,157L279,156L279,154L278,154L277,153L276,153L273,154L272,154L271,155L270,156L270,157L270,159L269,159L267,160L266,160L265,161L264,162L263,161L262,161L260,161L259,160L256,159L256,161L256,163L256,165L255,166L254,168L253,169L252,170L254,172L254,174L256,175L258,175L259,176L259,177L260,180L260,181L258,182L256,182L256,183L254,183L253,183L251,185L249,186L250,187L251,188L251,190L251,191L251,193L251,194L253,195L254,196L254,197L254,199L253,200L253,201L254,202L254,204L255,205L255,207L255,208L257,210L258,210L259,211Z " data-fips="MG18" data-hasc="MN.TO" data-name="Tv" data-postal="TO" data-varname="Central|Tb|Tub|Tuvaimag|Tw|Tuw"/><path d="M317,180L318,179L318,178L318,177L318,175L318,174L316,173L315,174L314,175L314,176L314,177L314,179L315,181L318,181Z " data-fips="MG20" data-hasc="MN.GS" data-name="Govismber" data-postal="GS" data-varname="Gobisumber"/><path d="M302,180L303,180L303,177L304,176L304,174L303,173L302,173L301,173L300,172L299,171L298,169L297,168L296,167L294,168L293,168L291,168L290,168L288,167L284,167L285,168L285,169L286,170L286,173L287,174L287,176L287,177L288,178L289,179L292,179L294,178L296,178L297,179L299,180L300,180Z " data-fips="MG20" data-hasc="MN.UB" data-name="Ulaanbaatar" data-postal="UB" data-varname="Oulan-Bator|Ulan Bator|Ulan Bator Choto"/><path d="M451,194L452,193L453,192L455,192L461,191L462,190L461,188L462,187L461,186L463,185L464,185L465,186L466,186L468,186L469,184L470,183L471,183L472,181L473,181L474,180L475,180L476,180L478,180L479,180L480,179L481,179L482,179L483,178L484,177L485,178L486,177L487,179L492,179L494,178L496,178L497,178L498,178L498,176L499,176L500,175L499,174L499,173L499,171L498,170L497,169L496,168L496,166L495,165L492,164L491,163L490,162L487,160L487,159L486,159L484,159L484,158L483,156L482,155L481,155L477,155L476,154L474,151L473,150L472,150L468,150L467,150L465,151L464,151L462,152L461,153L458,158L457,159L457,160L456,161L451,158L450,158L447,157L446,158L442,159L441,159L438,159L437,160L436,161L435,164L434,164L433,164L428,160L427,159L427,158L426,155L430,152L430,151L429,146L429,145L431,139L431,138L431,137L435,121L437,113L436,112L435,111L430,110L429,110L428,110L427,111L423,114L422,114L420,114L418,115L417,115L414,113L412,111L411,110L407,108L405,108L402,109L400,108L399,109L397,110L396,111L396,112L394,114L393,114L390,117L389,117L388,118L385,121L385,122L384,125L384,127L383,127L382,128L381,129L380,129L378,130L377,129L375,129L370,132L372,134L372,134L371,136L372,139L373,140L373,142L373,143L373,144L374,145L378,151L379,153L380,155L380,156L380,157L380,159L380,163L381,164L383,166L384,169L384,171L384,174L388,171L389,171L392,173L402,173L410,178L413,179L414,180L414,185L414,186L414,187L415,188L417,189L418,189L419,190L420,191L423,194L425,193L426,192L434,191L437,189L444,188L448,193L450,194Z " data-fips="MG06" data-hasc="MN.DD" data-name="Dornod" data-postal="DD" data-varname="Choibalsan|Choybalsan|Doronad|Doronod|Eastern"/><path d="M407,238L408,237L409,236L411,234L412,233L414,233L415,232L415,230L416,229L418,227L419,225L420,224L420,222L420,221L422,220L424,219L427,220L430,219L433,219L435,218L438,217L439,216L440,214L443,210L444,210L446,209L446,207L446,206L445,204L447,200L449,196L449,195L450,194L448,193L444,188L437,189L434,191L426,192L425,193L423,194L420,191L419,190L418,189L417,189L415,188L414,187L414,186L414,185L414,180L413,179L410,178L402,173L392,173L389,171L388,171L384,174L384,171L384,169L382,169L381,170L376,172L376,173L375,174L375,175L375,177L375,178L375,180L374,180L372,180L370,180L369,181L368,183L367,184L367,186L367,190L367,192L366,194L365,197L364,198L365,200L365,202L366,203L366,205L365,207L365,208L371,210L372,212L374,215L374,216L375,217L375,223L375,224L377,225L377,227L378,228L379,229L380,231L380,232L380,233L380,233L380,233L382,233L386,233L387,233L389,234L390,235L391,236L393,237L398,237L399,238L405,237L406,238Z " data-fips="MG17" data-hasc="MN.SB" data-name="Shbaatar" data-postal="SB" data-varname="She Baatar|Suhe-Bator|Skhbaatar|Sukh-Batar|Sukhe-Bator|Schbaatar"/></g></svg>