<?xml version="1.0" ?><!DOCTYPE svg  PUBLIC '-//W3C//DTD SVG 1.1//EN'  'http://www.w3.org/Graphics/SVG/1.1/DTD/svg11.dtd'><svg enable_background="new 0 0 500 401" height="401px" style="stroke-linejoin: round; stroke:#000; fill:#f6f3f0;" version="1.1" viewBox="0 0 500 401" width="500px" xmlns="http://www.w3.org/2000/svg" xmlns:xlink="http://www.w3.org/1999/xlink"><defs><style type="text/css"><![CDATA[path { fill-rule: evenodd; }
#context path { fill: #eee; stroke: #bbb; } ]]></style></defs><metadata><views><view h="401" padding="0" w="500"><proj id="laea" lat0="21.656" lon0="57.407"/><bbox h="119.58" w="91.14" x="936.66" y="941.6"/><llbbox lat0="-90" lat1="90" lon0="-180" lon1="180"/></view></views></metadata><g id="admin1"><path d="M339,205L326,159L329,151L338,144L340,144L347,140L352,138L354,129L344,119L328,127L327,130L317,131L316,131L311,130L300,119L289,119L282,152L276,170L268,180L331,212L343,218Z " data-fips="MU02" data-hasc="OM.DA" data-name="Ad Dakhliyah" data-postal="DA" data-varname="Ad Dakhiliyah"/><path d="M313,306L322,306L323,305L325,305L326,303L325,299L325,297L323,295L323,293L323,291L323,289L324,288L324,287L323,285L321,282L321,281L321,280L321,279L321,277L321,276L320,275L320,274L321,273L323,269L323,268L324,266L325,264L325,262L326,260L326,258L326,257L325,256L326,254L326,253L327,252L329,251L331,249L331,248L330,247L331,246L332,245L333,244L335,243L335,242L335,240L336,239L338,239L339,238L340,238L342,238L347,220L343,218L331,212L268,180L240,186L231,218L277,297L311,306Z " data-fips="MU02" data-hasc="OM.WU" data-name="Al Wusta" data-postal="WU" data-varname=""/><path d="M350,248L350,247L351,246L352,245L353,243L353,242L354,240L354,239L355,237L355,236L357,235L357,234L358,233L360,232L360,230L359,231L358,231L358,230L358,229L360,228L360,226L363,224L363,222L364,220L365,219L366,218L367,216L372,210L377,207L378,206L384,203L384,201L387,196L388,194L389,190L392,186L393,184L395,182L395,180L396,177L397,176L398,175L400,172L401,170L401,168L402,162L402,160L401,159L400,158L399,158L398,158L398,160L398,159L397,158L396,158L395,157L394,156L391,157L389,157L390,156L389,155L388,155L387,154L385,153L385,151L383,149L381,148L381,146L380,144L379,145L376,148L364,146L352,138L347,140L340,144L338,144L329,151L326,159L339,205L343,218L347,220L342,238L342,239L342,240L342,241L341,243L341,245L340,244L340,246L342,247L343,248L345,247L346,247L347,248L348,248Z M359,255L359,254L361,254L361,253L363,250L363,249L363,247L364,246L365,244L367,243L369,241L367,239L367,237L367,235L367,234L366,235L366,236L365,238L363,240L363,241L362,243L362,244L360,245L359,245L359,246L358,247L357,248L357,251L357,253L357,254L357,255L358,256Z " data-fips="MU01" data-hasc="OM.SH" data-name="Ash Sharqiyah" data-postal="SH" data-varname=""/><path d="M256,366L258,365L257,364L256,363L255,364L254,364L253,365L253,366L256,366Z M142,397L149,395L152,395L158,395L160,395L162,394L163,393L163,392L164,391L166,391L168,390L169,390L171,389L173,389L175,388L175,387L176,386L178,385L182,385L190,384L191,384L193,384L195,384L197,384L199,384L200,384L202,385L203,387L205,387L206,387L207,388L208,387L210,387L211,386L212,386L213,386L214,385L215,385L217,384L219,382L220,381L221,380L222,379L223,378L224,377L225,376L224,375L225,374L226,371L226,368L225,367L224,366L224,365L224,363L225,361L229,358L229,357L230,355L231,354L232,352L233,351L234,351L235,350L237,350L241,349L251,349L252,349L255,347L260,348L262,347L268,348L268,347L268,346L270,344L271,344L273,341L275,341L276,339L276,337L278,333L278,331L278,329L279,328L279,327L279,326L279,324L279,322L280,321L284,317L285,315L286,315L288,314L290,312L297,309L302,308L311,306L277,297L231,218L215,262L98,301L126,372L127,372L128,373L139,399Z " data-fips="MU02" data-hasc="OM.JA" data-name="Dhofar" data-postal="JA" data-varname="Al Janubiyah [Zufar]"/><path d="M268,180L276,170L282,152L289,119L289,118L285,105L274,95L268,92L268,89L264,76L251,59L250,60L249,62L249,63L249,67L249,68L249,69L250,72L249,72L248,74L248,76L248,78L248,81L249,82L249,85L248,87L248,89L251,89L253,88L254,89L254,90L255,92L256,95L253,96L248,98L247,97L246,97L244,97L243,97L242,97L241,98L239,98L237,99L236,100L237,101L238,102L239,103L239,104L239,108L237,111L235,117L233,119L233,120L232,121L231,125L230,128L227,134L225,138L225,139L225,145L225,151L241,179L242,181L240,186Z " data-fips="AE02" data-hasc="OM.ZA" data-name="Al Dhahira" data-postal="ZA" data-varname="Adh Dhahirah|Az Zahirah"/><path d="M327,130L328,127L335,116L336,110L335,110L333,110L327,110L326,109L325,109L323,107L320,107L318,107L316,106L313,105L306,103L301,101L300,100L296,97L292,94L288,89L287,87L287,86L282,81L280,79L279,78L275,69L275,68L274,66L272,61L271,58L269,59L269,60L268,61L267,62L265,64L263,64L262,66L261,67L260,68L259,68L258,67L257,64L255,62L256,62L257,62L258,63L257,60L257,59L256,58L254,58L253,58L251,59L264,76L268,89L268,92L274,95L285,105L289,118L289,119L300,119L311,130L316,131L317,131Z " data-fips="AE04" data-hasc="OM.BA" data-name="Al Batnah" data-postal="BA" data-varname="Al Batinah|Ad Batinah"/><path d="M267,31L267,29L267,28L268,26L269,26L270,25L271,23L271,22L272,20L271,19L272,18L273,19L274,18L273,17L272,16L273,16L272,14L271,15L272,14L273,14L274,13L275,12L271,11L270,10L269,11L270,9L270,8L271,8L271,9L272,8L272,9L274,10L275,10L274,9L273,8L274,7L275,7L275,6L274,6L273,6L272,5L273,4L275,3L276,2L275,1L274,2L273,2L273,1L271,1L271,0L271,1L270,2L269,3L270,4L270,5L269,5L269,7L270,6L271,6L272,6L272,7L270,7L269,8L268,7L267,7L265,6L265,5L264,6L263,8L261,11L261,13L263,13L264,14L264,16L264,17L263,21L262,22L262,24L263,25L263,26L262,28L263,30L264,30L265,32L266,32Z " data-fips="MU07" data-hasc="OM.MU" data-name="Musandam" data-postal="MU" data-varname=""/><path d="M379,145L380,144L379,143L378,141L378,140L376,139L374,138L373,137L372,135L370,133L370,130L369,130L368,128L366,125L365,125L362,122L361,119L361,118L360,117L359,117L358,117L356,116L356,115L354,113L353,113L351,113L350,113L349,114L347,114L345,114L344,114L342,113L340,111L339,111L336,110L335,116L344,119L354,129L352,138L364,146L376,148Z " data-fips="MU02" data-hasc="OM.MA" data-name="Muscat" data-postal="MA" data-varname="Masqat"/><path d="M266,48L267,47L267,46L266,45L266,46L265,47L265,48Z " data-fips="MU00" data-hasc="" data-name="Fujayrah" data-postal="" data-varname="Al Foudjarah, Fudjayra|Al Fujayrah, Fujaira, Fujairah, Fujeira"/></g></svg>