<?xml version="1.0" ?><!DOCTYPE svg  PUBLIC '-//W3C//DTD SVG 1.1//EN'  'http://www.w3.org/Graphics/SVG/1.1/DTD/svg11.dtd'><svg enable_background="new 0 0 500 401" height="401px" style="stroke-linejoin: round; stroke:#000; fill:#f6f3f0;" version="1.1" viewBox="0 0 500 401" width="500px" xmlns="http://www.w3.org/2000/svg" xmlns:xlink="http://www.w3.org/1999/xlink"><defs><style type="text/css"><![CDATA[path { fill-rule: evenodd; }
#context path { fill: #eee; stroke: #bbb; } ]]></style></defs><metadata><views><view h="401" padding="0" w="500"><proj id="laea" lat0="29.967" lon0="69.386"/><bbox h="165.98" w="175.79" x="908.72" y="911.32"/><llbbox lat0="-90" lat1="90" lon0="-180" lon1="180"/></view></views></metadata><g id="admin1"><path d="M186,363L191,359L193,359L194,358L195,357L195,355L195,354L196,353L197,353L198,352L199,349L199,348L200,345L201,344L202,343L203,342L204,340L206,336L206,335L206,334L206,332L206,328L206,327L199,314L199,312L199,311L199,308L199,296L199,293L199,292L199,291L200,285L201,284L203,281L204,279L206,275L207,275L210,274L214,273L220,271L221,269L222,268L228,263L229,262L232,261L234,258L235,258L238,257L242,258L255,257L258,257L257,255L257,254L259,253L260,252L260,251L262,247L261,246L261,245L262,244L263,243L263,242L265,240L266,239L266,238L267,234L267,233L266,233L265,232L265,231L265,230L264,229L263,229L264,224L264,222L264,222L265,221L267,220L269,218L270,217L271,214L273,211L273,210L273,209L273,208L274,207L275,206L275,205L274,205L273,205L272,204L272,203L273,201L273,199L276,194L275,193L276,191L277,191L279,188L280,187L280,186L280,180L280,179L280,177L280,175L280,173L280,170L280,169L279,168L278,169L278,170L277,170L275,170L275,171L274,172L274,169L273,168L272,168L272,167L272,165L272,163L272,160L272,159L272,158L272,156L271,157L270,157L270,156L270,154L270,154L269,153L269,152L268,151L266,151L265,152L264,154L263,154L261,155L257,155L256,155L256,155L255,156L254,156L251,161L250,162L249,163L248,163L246,164L244,164L243,164L242,162L241,161L240,159L239,159L236,158L235,158L234,159L235,160L237,160L236,161L235,161L232,160L231,160L230,160L229,159L228,158L226,158L226,160L225,161L224,162L223,163L222,164L220,163L219,164L218,165L216,166L215,167L213,166L212,167L213,168L213,170L214,170L217,171L217,172L216,172L215,173L212,174L211,175L210,175L209,175L206,176L205,176L202,176L202,175L201,175L200,175L198,175L198,174L198,173L195,173L194,174L193,174L191,175L190,176L188,180L185,183L181,184L179,193L178,195L179,196L180,197L180,198L179,202L179,204L177,208L177,210L178,210L179,212L179,213L179,214L178,215L176,216L146,224L145,224L140,223L132,222L124,224L123,225L121,227L118,226L108,223L83,224L80,224L77,224L39,208L42,213L49,223L50,223L50,225L50,226L50,227L51,229L51,230L52,231L53,232L54,233L53,234L54,235L55,237L55,239L56,240L57,241L57,242L60,245L61,246L62,248L64,249L65,250L67,251L70,252L72,253L75,254L76,254L77,255L78,256L78,257L80,260L85,259L85,260L84,267L85,272L85,282L85,283L84,287L84,288L83,288L85,289L86,290L88,290L90,290L91,289L93,290L94,289L95,290L97,291L97,292L98,294L97,293L96,294L96,295L96,299L96,300L96,301L94,302L94,306L93,307L92,307L91,308L90,307L89,307L82,307L81,308L80,308L79,308L78,308L73,309L72,309L71,310L70,311L70,312L69,312L69,313L68,315L67,314L66,314L65,314L64,316L63,316L62,316L61,317L57,318L57,319L54,330L53,330L52,331L52,332L52,333L52,334L51,336L50,345L50,348L51,348L52,348L53,349L54,348L54,350L53,351L52,352L53,353L54,353L55,353L56,352L57,351L58,351L61,351L63,351L62,349L63,348L64,348L65,348L66,348L67,348L68,349L68,351L68,352L69,352L70,352L69,351L70,350L71,349L72,348L73,348L77,347L81,348L85,349L88,349L90,348L92,348L93,349L95,350L98,350L100,351L100,350L100,348L101,347L102,346L103,346L105,345L107,345L109,346L111,347L112,347L114,347L115,347L116,346L115,345L114,345L114,345L116,344L118,344L117,345L116,345L117,346L116,347L119,348L120,348L121,349L122,349L124,350L126,351L127,351L128,350L129,350L130,350L130,352L130,353L131,353L132,352L131,352L132,350L132,349L134,348L135,348L137,349L138,349L140,349L142,349L143,349L144,350L145,349L146,348L147,347L149,347L150,347L151,348L152,347L154,347L157,349L158,349L160,348L161,348L163,347L164,347L165,347L167,346L169,346L172,346L174,345L176,345L177,346L180,347L181,347L180,346L181,345L180,345L178,345L178,344L176,343L175,343L174,344L173,345L170,345L171,344L172,343L173,342L174,341L175,341L177,341L178,341L178,342L179,342L180,344L181,344L182,345L182,347L183,348L182,348L182,349L183,350L185,352L187,353L187,355L186,356L186,357L186,359L185,361L186,363Z " data-fips="PK02" data-hasc="PK.BA" data-name="Baluchistan" data-postal="BA" data-varname="Balochistan|BloutchistanBeluchistan|Baluchisto"/><path d="M381,126L381,124L381,123L381,121L380,120L378,120L377,119L375,118L374,117L373,116L372,115L372,113L373,113L375,111L375,110L376,108L376,106L376,104L374,103L373,103L371,101L371,99L371,98L373,96L376,95L378,94L378,92L378,91L376,91L375,91L373,91L371,91L370,90L369,89L369,87L371,86L371,85L371,84L370,82L368,82L367,82L366,81L366,80L366,79L367,78L368,76L369,75L369,74L369,72L370,71L374,70L376,69L378,68L379,68L381,68L387,70L396,71L398,71L399,71L401,71L401,71L401,68L401,67L400,65L398,64L397,65L396,66L394,66L393,66L392,66L390,65L386,63L385,62L384,60L383,59L383,58L381,57L380,58L379,58L377,59L374,58L373,58L372,59L372,60L373,61L372,62L372,63L371,64L371,65L369,66L369,67L368,67L366,67L365,68L364,68L363,69L363,70L362,72L362,73L361,74L360,74L358,75L357,75L357,76L357,78L357,79L357,80L357,81L358,83L358,84L359,86L359,88L359,90L360,91L360,91L361,94L361,95L361,98L362,99L362,101L362,102L362,103L363,104L363,105L363,106L363,107L363,108L362,109L362,111L363,112L362,113L362,114L363,115L364,115L364,117L363,118L365,119L366,119L368,120L369,121L370,120L371,120L372,121L372,122L381,126Z " data-fips="PK06" data-hasc="PK.JK" data-name="Azad Kashmir" data-postal="JK" data-varname="Kashmir"/><path d="M353,106L353,105L355,103L355,101L354,100L353,99L350,98L349,99L348,99L347,100L343,102L343,103L343,104L344,105L346,104L347,104L348,103L349,103L350,104L350,105L350,107L352,107Z " data-fips="PK08" data-hasc="PK.IS" data-name="F.C.T." data-postal="IS" data-varname="Islamabad|Federal Capital Territory|Federal Capital Territory Islamabad|Territoire de la Capitale fdrale"/><path d="M411,74L413,74L414,74L415,74L417,72L419,70L420,69L421,68L423,69L426,68L429,66L431,66L433,66L435,66L437,63L437,60L439,60L440,60L441,60L442,59L444,57L444,56L444,54L460,41L459,42L458,43L454,43L452,43L450,43L449,42L448,41L446,42L444,41L444,40L442,40L440,40L439,40L437,39L436,39L435,38L434,37L431,36L431,35L431,33L430,32L429,33L428,33L427,34L426,34L424,35L423,35L422,35L421,34L420,33L420,32L420,31L418,30L416,29L415,29L414,28L415,26L416,25L416,24L417,23L416,22L416,21L416,19L416,17L415,16L412,11L411,9L409,8L407,8L405,7L403,9L401,8L401,7L401,6L400,4L399,3L395,2L394,1L392,2L390,2L389,3L388,4L388,3L386,1L385,1L384,0L382,0L381,1L381,2L380,3L379,2L378,2L376,3L374,4L373,5L371,5L370,6L370,7L368,8L367,7L364,6L362,6L361,6L361,6L361,7L362,7L363,8L365,9L365,10L364,11L363,11L362,11L361,11L360,11L359,11L357,11L356,11L354,10L352,11L351,11L349,11L348,11L347,12L346,12L346,13L347,15L346,16L345,17L344,18L344,19L343,19L342,20L342,21L341,22L340,22L339,24L338,24L337,25L336,25L335,25L334,26L334,28L334,29L334,30L334,31L335,32L335,33L333,36L337,37L339,38L341,37L342,37L345,37L346,37L347,36L348,37L349,38L348,39L348,41L351,43L353,44L354,44L355,45L355,46L357,46L358,46L359,46L361,46L364,47L364,49L363,49L363,50L362,52L362,53L363,55L364,56L365,55L366,55L367,56L368,56L369,57L370,57L371,57L373,58L373,58L374,58L377,59L379,58L380,58L381,57L383,58L383,59L384,60L385,62L386,63L390,65L392,66L393,66L394,66L396,66L397,65L398,64L400,65L401,67L401,68L401,71L401,71L401,71L402,72L403,73L404,73L410,74Z " data-fips="PK07" data-hasc="PK.NA" data-name="Northern Areas" data-postal="NA" data-varname=""/><path d="M280,179L280,178L282,177L283,177L284,176L284,175L279,160L279,158L279,157L279,156L278,153L277,152L276,151L276,150L275,148L276,147L277,146L278,146L278,145L279,144L281,144L281,143L282,142L283,141L284,141L284,140L285,138L286,138L288,139L288,137L284,132L283,131L283,130L283,128L284,127L284,126L285,124L286,123L287,122L288,122L289,122L290,122L291,121L292,120L293,120L295,117L294,117L293,116L292,116L291,116L290,115L289,115L288,115L287,114L287,112L285,111L286,110L287,110L288,110L289,109L290,109L292,108L292,107L293,105L294,106L299,106L300,106L301,105L301,104L302,103L301,102L301,101L302,101L303,102L304,103L305,103L307,104L307,104L309,104L310,104L313,104L314,104L313,105L312,106L313,106L314,106L315,106L317,105L318,103L318,102L318,101L319,100L318,99L317,99L316,98L315,99L314,100L313,101L311,101L311,101L310,99L310,98L308,97L308,95L308,94L307,94L307,92L307,91L307,90L307,89L306,88L308,88L309,87L310,86L311,85L311,84L312,83L313,82L313,82L314,81L315,80L314,79L314,78L313,77L314,76L315,74L316,74L316,72L316,71L317,71L316,70L315,69L314,69L312,70L312,69L311,68L311,67L310,67L308,65L305,67L304,67L304,68L304,69L302,71L301,72L299,74L299,75L299,76L299,77L297,77L297,78L297,79L297,80L298,81L299,82L301,83L300,86L300,88L300,89L300,90L299,91L299,92L297,92L296,93L295,93L294,94L293,95L289,95L285,95L283,95L281,95L280,94L279,94L272,92L271,92L270,93L270,94L269,96L270,97L271,98L272,100L272,101L274,101L275,102L276,102L276,103L277,104L278,105L277,107L277,108L278,109L279,110L280,112L281,114L276,118L275,117L274,119L272,119L270,121L269,121L267,120L266,121L264,121L263,121L261,122L261,122L260,123L260,127L260,128L259,129L258,130L258,131L259,132L259,133L259,134L257,136L256,137L255,138L254,139L254,140L254,142L255,143L255,145L255,146L255,147L255,149L255,152L256,155L257,155L261,155L263,154L264,154L265,152L266,151L268,151L269,152L269,153L270,154L270,154L270,156L270,157L271,157L272,156L272,158L272,159L272,160L272,163L272,165L272,167L272,168L273,168L274,169L274,172L275,171L275,170L277,170L278,170L278,169L279,168L280,169L280,170L280,173L280,175L280,177L280,179L280,180L280,180Z " data-fips="PK01" data-hasc="PK.TA" data-name="F.A.T.A." data-postal="TA" data-varname="Federally Administered Tribal Areas"/><path d="M298,280L304,276L306,276L309,275L311,275L313,275L315,275L323,272L324,268L324,267L326,264L329,261L330,260L331,259L331,257L333,251L333,250L336,247L349,240L350,239L351,237L351,236L353,234L357,224L361,212L365,210L370,209L371,208L372,207L375,203L375,202L373,200L372,199L373,198L374,197L375,197L376,195L377,194L377,193L378,192L379,191L380,190L380,189L381,188L382,186L382,185L383,185L383,183L385,183L386,183L386,182L388,181L389,181L389,180L390,179L391,178L392,177L390,176L389,176L388,175L388,174L388,173L389,171L390,167L390,166L390,165L390,164L389,161L387,158L388,158L388,157L388,156L389,155L391,153L392,151L393,151L394,151L395,149L396,149L398,149L399,148L400,147L400,146L402,147L404,147L404,145L405,145L407,144L407,143L408,142L408,140L406,139L404,137L401,137L400,136L398,136L397,136L396,136L395,135L393,136L391,136L390,135L389,132L390,131L390,130L390,129L390,128L390,126L389,125L389,126L389,127L388,128L385,128L384,127L382,127L381,127L381,126L372,122L372,121L371,120L370,120L369,121L368,120L366,119L365,119L363,118L364,117L364,115L363,115L362,114L362,113L363,112L362,111L362,109L363,108L363,107L363,106L363,105L363,104L362,103L362,102L362,101L362,99L361,98L361,95L361,94L360,91L360,91L359,91L358,92L357,93L356,93L356,94L355,95L354,96L353,97L352,98L350,98L353,99L354,100L355,101L355,103L353,105L353,106L352,107L350,107L350,105L350,104L349,103L348,103L347,104L346,104L344,105L343,104L343,103L343,102L345,100L343,99L343,98L344,97L343,97L343,96L342,95L342,94L341,95L340,95L340,96L339,97L338,96L338,95L339,95L338,94L336,94L336,93L335,92L334,92L332,93L331,94L328,94L328,96L329,98L328,99L327,99L325,99L324,100L323,100L323,102L322,103L322,105L322,106L321,107L320,109L320,110L319,111L318,111L316,111L316,113L316,114L316,115L317,116L317,118L316,119L316,120L316,121L314,120L314,119L313,118L313,117L312,116L310,116L309,116L308,117L309,118L309,119L310,121L310,122L309,122L308,123L307,123L306,122L304,123L303,124L302,126L302,128L301,129L302,131L302,133L303,135L304,135L305,136L305,137L305,138L306,137L307,137L307,138L307,140L307,141L306,142L306,143L305,144L305,145L305,146L304,148L303,148L302,149L302,151L301,152L300,153L300,154L299,155L298,156L298,158L297,160L296,161L296,163L296,166L296,168L296,169L295,170L295,171L294,172L294,173L293,173L291,173L290,173L289,173L288,173L287,174L285,174L285,174L284,175L284,176L283,177L282,177L280,178L280,179L280,180L280,180L280,186L280,187L279,188L277,191L276,191L275,193L276,194L273,199L273,201L272,203L272,204L273,205L274,205L275,205L275,206L274,207L273,208L273,209L273,210L273,211L271,214L270,217L269,218L267,220L265,221L264,222L264,222L264,224L263,229L264,229L265,230L265,231L265,232L266,233L267,233L267,234L266,238L266,239L265,240L263,242L263,243L262,244L261,245L261,246L262,247L260,251L260,252L259,253L257,254L257,255L258,257L261,256L262,256L263,256L264,257L267,258L268,259L269,260L269,261L270,262L270,263L272,269L274,271L275,272L276,273L279,275L279,274L281,273L283,271L284,271L285,271L286,270L287,271L289,271L291,273L291,274L291,276L292,278L293,279L294,280L296,280Z " data-fips="PK04" data-hasc="PK.PB" data-name="Punjab" data-postal="PB" data-varname="Pendjab|Penjab"/><path d="M224,398L225,396L225,395L225,394L225,393L225,395L226,393L227,393L228,392L229,392L229,391L230,392L231,391L232,391L240,391L240,381L241,380L243,381L244,383L245,381L246,381L247,382L248,382L249,382L250,382L252,383L253,382L255,382L264,382L266,385L267,385L269,385L274,385L275,385L276,384L277,381L279,381L280,380L281,380L283,379L285,379L286,378L289,377L290,377L290,378L290,379L290,380L290,381L291,382L292,383L296,383L297,382L298,381L298,380L300,379L301,379L302,379L302,378L304,378L303,377L302,376L301,375L301,374L300,373L301,371L303,370L303,368L302,366L300,363L299,362L299,360L298,356L297,355L295,353L294,352L294,350L292,349L292,348L292,342L291,340L290,339L289,340L288,340L287,340L284,340L283,340L282,340L281,339L280,336L279,336L278,334L277,333L276,331L276,329L277,328L278,325L278,324L279,323L278,322L278,321L279,320L279,319L279,316L279,315L278,314L277,314L276,313L270,314L268,313L266,311L265,311L261,309L260,308L260,307L261,300L262,297L263,296L266,293L267,292L269,291L270,289L272,286L274,284L275,283L277,277L279,275L276,273L275,272L274,271L272,269L270,263L270,262L269,261L269,260L268,259L267,258L264,257L263,256L262,256L261,256L258,257L255,257L242,258L238,257L235,258L234,258L232,261L229,262L228,263L222,268L221,269L220,271L214,273L210,274L207,275L206,275L204,279L203,281L201,284L200,285L199,291L199,292L199,293L199,296L199,308L199,311L199,312L199,314L206,327L206,328L206,332L206,334L206,335L206,336L204,340L203,342L202,343L201,344L200,345L199,348L199,349L198,352L197,353L196,353L195,354L195,355L195,357L194,358L193,359L191,359L186,363L186,363L185,364L185,365L186,364L188,364L189,364L191,364L192,365L193,365L193,364L193,365L194,365L196,366L197,366L198,366L199,367L200,367L201,368L199,369L198,370L198,371L199,371L200,372L199,372L199,373L199,375L200,376L201,377L201,378L201,379L202,379L203,379L202,379L201,381L201,382L202,384L202,385L203,387L204,388L206,388L208,388L206,389L206,390L207,390L207,392L208,392L207,392L207,393L208,393L209,393L210,394L211,394L211,393L211,395L211,396L212,396L214,395L213,394L215,395L216,395L217,393L217,394L218,394L219,395L219,396L220,396L221,396L222,394L221,392L222,392L222,393L222,395L223,396L222,397L222,398L223,398L225,399Z M206,388L206,388L204,388L205,389L206,389Z " data-fips="PK05" data-hasc="PK.SD" data-name="Sind" data-postal="SD" data-varname="Sindh"/><path d="M285,174L285,174L287,174L288,173L289,173L290,173L291,173L293,173L294,173L294,172L295,171L295,170L296,169L296,168L296,166L296,163L296,161L297,160L298,158L298,156L299,155L300,154L300,153L301,152L302,151L302,149L303,148L304,148L305,146L305,145L305,144L306,143L306,142L307,141L307,140L307,138L307,137L306,137L305,138L305,137L305,136L304,135L303,135L302,133L302,131L301,129L302,128L302,126L303,124L304,123L306,122L307,123L308,123L309,122L310,122L310,121L309,119L309,118L308,117L309,116L310,116L312,116L313,117L313,118L314,119L314,120L316,121L316,120L316,119L317,118L317,116L316,115L316,114L316,113L316,111L318,111L319,111L320,110L320,109L321,107L322,106L322,105L322,103L323,102L323,100L324,100L325,99L327,99L328,99L329,98L328,96L328,94L331,94L332,93L334,92L335,92L336,93L336,94L338,94L339,95L338,95L338,96L339,97L340,96L340,95L341,95L342,94L342,95L343,96L343,97L344,97L343,98L343,99L345,100L347,100L348,99L349,99L350,98L352,98L353,97L354,96L355,95L356,94L356,93L357,93L358,92L359,91L360,91L359,90L359,88L359,86L358,84L358,83L357,81L357,80L357,79L357,78L357,76L357,75L358,75L360,74L361,74L362,73L362,72L363,70L363,69L364,68L365,68L366,67L368,67L369,67L369,66L371,65L371,64L372,63L372,62L373,61L372,60L372,59L373,58L373,58L371,57L370,57L369,57L368,56L367,56L366,55L365,55L364,56L363,55L362,53L362,52L363,50L363,49L364,49L364,47L361,46L359,46L358,46L357,46L355,46L355,45L354,44L353,44L351,43L348,41L348,39L349,38L348,37L347,36L346,37L345,37L342,37L341,37L339,38L337,37L333,36L335,33L335,32L334,31L334,30L334,29L334,28L334,26L335,25L336,25L337,25L338,24L339,24L340,22L341,22L342,21L342,20L343,19L344,19L344,18L345,17L346,16L347,15L346,13L346,12L347,12L348,11L349,11L351,11L352,11L354,10L356,11L357,11L359,11L360,11L361,11L362,11L363,11L364,11L365,10L365,9L363,8L362,7L361,7L361,6L361,6L359,6L356,6L355,6L353,6L352,6L350,7L349,7L345,7L344,8L342,8L341,8L339,9L337,8L335,8L334,9L333,9L331,11L330,11L329,11L328,11L325,12L324,13L324,14L323,15L322,15L321,16L320,17L320,17L318,18L317,19L316,19L315,20L315,22L314,22L314,21L312,20L311,20L310,22L310,23L310,24L308,25L306,27L304,28L304,29L303,30L302,30L302,31L301,32L301,33L302,34L303,35L304,35L306,36L306,37L307,38L308,41L309,42L309,43L309,44L309,45L309,46L311,47L311,48L311,49L312,51L312,52L311,53L310,54L311,55L312,57L313,58L312,59L310,60L310,61L310,63L309,64L309,65L308,65L310,67L311,67L311,68L312,69L312,70L314,69L315,69L316,70L317,71L316,71L316,72L316,74L315,74L314,76L313,77L314,78L314,79L315,80L314,81L313,82L313,82L312,83L311,84L311,85L310,86L309,87L308,88L306,88L307,89L307,90L307,91L307,92L307,94L308,94L308,95L308,97L310,98L310,99L311,101L311,101L313,101L314,100L315,99L316,98L317,99L318,99L319,100L318,101L318,102L318,103L317,105L315,106L314,106L313,106L312,106L313,105L314,104L313,104L310,104L309,104L307,104L307,104L305,103L304,103L303,102L302,101L301,101L301,102L302,103L301,104L301,105L300,106L299,106L294,106L293,105L292,107L292,108L290,109L289,109L288,110L287,110L286,110L285,111L287,112L287,114L288,115L289,115L290,115L291,116L292,116L293,116L294,117L295,117L293,120L292,120L291,121L290,122L289,122L288,122L287,122L286,123L285,124L284,126L284,127L283,128L283,130L283,131L284,132L288,137L288,139L286,138L285,138L284,140L284,141L283,141L282,142L281,143L281,144L279,144L278,145L278,146L277,146L276,147L275,148L276,150L276,151L277,152L278,153L279,156L279,157L279,158L279,160L284,175Z " data-fips="PK03" data-hasc="PK.NW" data-name="N.W.F.P." data-postal="NW" data-varname="North-West Frontier Province"/></g></svg>