<?xml version="1.0" ?><!DOCTYPE svg  PUBLIC '-//W3C//DTD SVG 1.1//EN'  'http://www.w3.org/Graphics/SVG/1.1/DTD/svg11.dtd'><svg enable_background="new 0 0 500 401" height="401px" style="stroke-linejoin: round; stroke:#000; fill:#f6f3f0;" version="1.1" viewBox="0 0 500 401" width="500px" xmlns="http://www.w3.org/2000/svg" xmlns:xlink="http://www.w3.org/1999/xlink"><defs><style type="text/css"><![CDATA[path { fill-rule: evenodd; }
#context path { fill: #eee; stroke: #bbb; } ]]></style></defs><metadata><views><view h="401" padding="0" w="500"><proj id="laea" lat0="25.316" lon0="51.191"/><bbox h="19.74" w="9.66" x="995.1" y="989.58"/><llbbox lat0="-90" lat1="90" lon0="-180" lon1="180"/></view></views></metadata><g id="admin1"><path d="M338,229L345,230L345,226L344,221L341,218L328,216L325,215L324,212L324,211L324,224L327,227L331,235Z " data-fips="QA01" data-hasc="QA.DA" data-name="Ad Dawhah" data-postal="DA" data-varname="Doha"/><path d="M304,266L307,255L316,247L325,241L331,235L327,227L324,224L295,195L282,187L273,168L250,172L244,178L241,186L240,193L241,211L271,220L281,243L277,249L270,255L270,258L272,261L283,267L299,274Z " data-fips="QA06" data-hasc="QA.RA" data-name="Ar Rayyan" data-postal="RA" data-varname="Al Rayyan"/><path d="M321,325L323,323L324,322L326,321L328,321L330,314L338,306L341,301L344,286L346,284L345,281L348,255L347,234L345,230L338,229L331,235L325,241L316,247L307,255L304,266L299,274L283,267L285,348L316,348Z " data-fips="QA05" data-hasc="QA.WA" data-name="Al Wakrah" data-postal="WA" data-varname=""/><path d="M230,399L242,395L257,382L256,381L258,378L262,377L266,376L269,375L271,373L273,373L273,378L281,377L285,378L287,380L286,385L284,389L283,393L285,397L288,393L291,390L293,386L295,380L297,378L306,373L309,369L310,359L311,354L314,352L315,349L316,348L285,348L283,267L272,261L270,258L270,255L277,249L281,243L271,220L241,211L234,222L224,226L218,243L218,248L218,251L212,255L201,257L156,258L158,266L164,270L165,272L165,276L165,281L162,288L163,292L173,310L175,316L177,340L175,347L169,352L165,352L181,380L192,392L203,397L217,399Z " data-fips="QA08" data-hasc="QA.JB" data-name="Jariyan al Batnah" data-postal="JB" data-varname="Jarayan al Batnah|Jarayan al Batnah|Jerian al"/><path d="M285,93L284,77L276,75L272,72L266,68L239,70L202,84L203,86L203,90L200,94L197,96L197,93L196,90L195,88L194,87L191,88L191,91L190,93L187,92L187,100L187,101L188,102L188,103L188,105L186,107L185,108L185,109L232,110L241,113Z " data-fips="QA02" data-hasc="QA.GH" data-name="Al Ghuwayriyah" data-postal="GH" data-varname=""/><path d="M201,257L212,255L218,251L218,248L218,243L224,226L234,222L241,211L240,193L241,186L244,178L250,172L273,168L273,148L264,135L241,113L232,110L185,109L183,119L184,123L187,130L192,132L197,131L204,128L202,131L199,138L197,140L194,140L192,138L191,138L188,140L187,143L187,149L186,155L186,157L183,157L182,156L181,154L179,150L179,148L179,143L180,136L181,132L180,130L178,129L176,127L175,126L174,127L173,131L172,132L169,134L166,134L163,135L160,138L163,140L168,141L170,142L171,145L171,148L170,151L170,154L170,158L171,163L174,173L168,172L163,163L159,158L152,166L155,169L155,174L152,185L156,203L156,208L154,222L154,227L155,233L155,238L154,243L156,249L156,258Z " data-fips="QA03" data-hasc="QA.JU" data-name="Al Jumayliyah" data-postal="JU" data-varname="Al Gummayalah|Al Gummaylah"/><path d="M320,148L319,135L321,136L322,137L325,135L329,134L332,132L333,126L332,124L329,121L325,119L322,118L330,114L333,113L334,119L338,117L341,112L338,106L337,108L335,109L333,109L331,108L331,105L332,102L333,100L335,99L337,100L338,103L340,104L341,103L342,100L342,97L338,70L337,65L334,61L331,58L327,55L324,53L319,52L314,51L304,52L302,52L302,53L302,82L285,93L264,135L273,148L276,152Z " data-fips="QA04" data-hasc="QA.KH" data-name="Al Khawr" data-postal="KH" data-varname="Al Khor"/><path d="M202,82L202,84L239,70L266,68L272,72L276,75L284,77L302,82L302,53L302,52L299,51L296,48L295,43L294,38L293,34L289,32L287,30L286,25L287,19L286,14L283,10L265,0L257,5L252,7L248,5L247,9L242,14L241,18L239,19L229,23L226,24L219,27L215,33L210,48L208,48L207,46L205,45L205,56L204,61L198,75L197,80L201,84Z " data-fips="QA07" data-hasc="QA.MS" data-name="Madinat ach Shamal" data-postal="MS" data-varname="Al Shamal|Ash Shamal"/><path d="M325,194L325,183L325,179L324,176L315,162L315,159L316,157L318,154L276,152L273,148L273,168L282,187L295,195Z " data-fips="QA09" data-hasc="QA.US" data-name="Umm Salal" data-postal="US" data-varname="Um Salal|Umm ?alal"/></g></svg>