<?xml version="1.0" ?><!DOCTYPE svg  PUBLIC '-//W3C//DTD SVG 1.1//EN'  'http://www.w3.org/Graphics/SVG/1.1/DTD/svg11.dtd'><svg enable_background="new 0 0 500 401" height="401px" style="stroke-linejoin: round; stroke:#000; fill:#f6f3f0;" version="1.1" viewBox="0 0 500 401" width="500px" xmlns="http://www.w3.org/2000/svg" xmlns:xlink="http://www.w3.org/1999/xlink"><defs><style type="text/css"><![CDATA[path { fill-rule: evenodd; }
#context path { fill: #eee; stroke: #bbb; } ]]></style></defs><metadata><views><view h="401" padding="0" w="500"><proj id="laea" lat0="38.665" lon0="69.42"/><bbox h="53.59" w="76.12" x="980.15" y="970.64"/><llbbox lat0="-90" lat1="90" lon0="-180" lon1="180"/></view></views></metadata><g id="admin1"><path d="M282,375L285,375L287,374L306,359L308,357L310,355L312,353L314,351L321,348L324,348L328,348L330,347L340,345L341,343L343,339L346,332L348,329L350,328L353,327L355,326L356,325L361,322L365,321L367,320L367,319L368,317L369,315L372,313L374,313L377,310L378,309L380,308L381,308L383,308L384,309L385,309L389,307L392,307L400,309L404,310L407,310L409,310L409,313L409,316L409,317L408,319L407,320L406,320L403,321L402,321L401,322L400,324L400,326L401,326L404,325L406,326L407,327L408,327L410,326L411,326L413,326L415,324L416,323L419,323L423,321L424,321L429,319L436,317L438,316L439,314L439,312L440,311L441,310L443,311L445,311L445,308L446,309L448,309L449,311L450,311L452,311L453,311L454,311L456,311L458,312L459,312L466,311L468,310L476,314L478,316L481,321L483,322L485,321L485,320L486,319L487,318L488,317L494,315L495,314L495,311L495,309L497,309L500,307L498,306L496,304L492,300L491,299L485,296L483,295L482,292L481,289L481,288L482,287L482,286L483,284L483,283L484,281L485,280L485,278L485,277L484,276L481,275L480,274L481,272L482,270L481,269L480,268L480,265L480,260L479,258L474,256L473,254L471,244L471,237L471,235L471,234L474,231L474,229L475,228L475,226L474,223L473,222L472,221L471,220L470,219L469,218L468,218L466,218L465,218L464,217L463,216L461,215L450,212L441,208L440,208L436,209L434,210L433,209L429,208L428,208L427,209L426,210L426,212L426,213L423,214L423,216L424,217L424,218L424,220L423,220L416,220L415,220L413,218L412,217L410,217L409,216L408,215L407,214L406,210L406,209L403,205L403,204L403,200L403,199L402,198L400,196L399,195L399,193L400,192L400,190L401,189L403,189L406,189L407,188L408,187L408,186L408,184L407,183L406,182L404,180L400,178L399,177L399,175L398,172L398,171L395,169L393,166L393,164L393,162L395,156L395,155L395,153L394,148L394,147L392,146L386,146L384,146L377,148L376,149L376,150L375,152L371,153L365,156L363,156L361,155L360,155L358,155L354,157L353,156L349,156L348,156L344,156L333,154L332,154L330,155L328,157L327,157L325,156L324,156L322,158L321,158L320,158L318,158L317,158L314,159L313,159L312,160L311,161L310,165L307,171L307,171L307,173L307,175L306,177L305,177L303,178L302,179L301,180L301,182L301,184L300,184L297,188L295,190L294,193L294,195L294,196L294,197L295,199L295,200L297,202L296,204L294,206L294,207L292,208L291,209L290,209L287,210L286,210L284,210L283,211L282,212L282,213L281,213L280,214L279,215L277,216L276,215L272,217L270,217L269,217L268,217L268,218L267,219L266,221L265,222L264,223L264,226L263,226L261,226L260,227L258,229L257,230L257,229L256,228L254,227L253,228L252,228L250,229L249,230L248,229L247,227L245,226L244,225L244,224L244,223L243,221L243,220L242,220L240,220L238,221L235,221L233,220L233,218L233,216L233,214L234,213L233,212L231,208L231,206L231,205L230,204L228,204L227,204L224,206L222,208L220,208L218,208L216,208L215,206L214,205L212,205L212,205L209,206L208,207L205,210L203,211L202,212L204,214L205,215L205,216L204,218L203,219L201,221L200,222L199,223L199,225L198,225L195,228L195,229L194,230L190,234L189,236L189,239L189,240L190,241L190,243L190,244L189,246L189,248L189,249L189,250L189,253L189,258L188,261L186,265L185,267L185,269L187,270L188,269L191,265L195,262L197,260L198,259L200,254L202,251L203,248L204,247L205,244L205,242L206,241L208,241L210,239L211,238L209,237L211,236L214,236L216,234L217,233L219,233L220,234L221,233L222,233L225,234L227,234L227,233L228,231L230,231L231,232L232,234L233,236L235,236L236,236L238,237L241,239L245,243L250,245L252,246L254,249L254,252L254,254L253,258L252,260L251,262L251,266L249,269L248,271L248,274L248,275L249,275L252,277L253,278L255,277L256,276L263,273L266,273L268,274L269,277L269,278L270,280L270,282L269,284L268,285L266,287L266,289L266,291L266,292L266,295L265,297L265,299L264,300L264,304L265,310L264,314L264,315L263,317L264,320L264,323L264,325L264,326L264,328L261,332L261,335L261,336L261,340L260,344L261,346L262,349L263,352L263,354L263,355L267,361L268,363L268,367L269,368L270,370L271,371L273,374L276,375L279,376Z " data-fips="TI01" data-hasc="TJ.BK" data-name="Gorno-Badakhshan" data-postal="BK" data-varname="Badakhshoni Kuni|Autonomes Gebiet der Berg-Badachschanen|Gorno-Badahshanskaya avtonomnaya oblast'|Go"/><path d="M42,356L47,352L48,351L49,350L51,349L52,349L55,350L56,350L57,349L57,345L57,344L57,342L58,342L60,342L61,342L62,343L64,342L65,342L66,341L65,339L69,338L72,338L73,337L74,335L76,335L78,335L79,334L80,332L81,331L82,331L81,329L82,329L83,328L86,329L87,329L89,329L91,331L92,330L92,328L91,325L93,324L94,325L95,326L95,327L96,328L97,329L98,328L98,326L96,325L97,324L101,325L102,325L104,326L105,328L106,331L107,332L108,333L109,334L111,338L113,339L119,343L120,343L122,342L123,342L125,341L126,340L129,338L130,337L132,333L132,332L131,332L130,331L130,329L129,326L128,324L128,323L129,321L128,320L128,317L128,316L128,314L129,313L130,313L131,311L134,309L135,308L136,304L137,304L146,305L148,304L150,303L152,303L154,304L156,304L157,303L158,302L161,301L162,301L163,302L164,303L165,305L167,305L168,306L169,307L170,307L172,307L174,308L176,308L178,307L180,304L181,303L182,301L183,301L184,300L184,299L184,297L185,296L185,295L186,294L186,293L185,290L185,289L185,288L184,287L184,286L183,284L180,283L179,281L178,279L178,276L178,274L180,275L181,276L183,275L184,274L183,273L184,272L186,271L187,270L185,269L185,267L186,265L188,261L189,258L189,253L189,250L189,249L189,248L189,246L190,244L190,243L190,241L189,240L189,239L189,236L190,234L194,230L195,229L195,228L195,227L194,225L193,224L190,221L190,221L186,221L183,221L181,222L180,223L178,226L177,225L177,223L178,221L178,220L177,219L176,218L175,217L173,216L172,215L170,213L169,211L168,211L166,211L165,211L162,212L161,213L158,217L155,221L154,222L153,222L152,222L151,221L150,220L149,221L143,229L142,230L139,233L138,234L136,235L135,236L134,237L132,239L132,240L131,241L129,242L128,244L127,244L125,244L124,243L124,242L125,241L125,240L124,239L119,239L118,237L117,236L116,235L115,235L112,236L103,237L99,238L97,240L96,241L96,243L95,243L92,244L90,242L89,242L88,242L87,244L85,244L84,244L82,244L80,243L79,243L78,244L77,246L76,247L77,251L77,252L77,254L77,255L74,259L73,262L74,263L75,264L75,265L75,267L74,269L72,270L71,271L70,273L69,277L69,277L67,278L66,277L66,277L65,277L60,278L58,277L57,276L55,274L54,275L54,275L51,275L49,276L47,277L45,285L43,289L38,295L34,299L31,303L28,308L26,313L26,316L27,322L27,326L27,329L26,331L25,334L25,335L24,340L24,341L25,343L26,344L28,344L31,345L32,346L32,348L34,350L36,351L39,355L39,356L40,357Z " data-fips="TI03" data-hasc="TJ.KL" data-name="Khatlon" data-postal="KL" data-varname="Hationskaya oblast'|Hatlonskaja oblast'"/><path d="M69,277L69,277L70,273L71,271L72,270L74,269L75,267L75,265L75,264L74,263L73,262L74,259L77,255L77,254L77,252L77,251L76,247L77,246L78,244L79,243L80,243L82,244L84,244L85,244L87,244L88,242L89,242L90,242L92,244L95,243L96,243L96,241L97,240L99,238L103,237L112,236L115,235L116,235L117,236L118,237L119,239L124,239L125,240L125,241L124,242L124,243L125,244L127,244L128,244L129,242L131,241L132,240L132,239L134,237L135,236L136,235L138,234L139,233L142,230L143,229L149,221L150,220L151,221L152,222L153,222L154,222L155,221L158,217L161,213L162,212L165,211L166,211L168,211L169,211L170,213L172,215L173,216L175,217L176,218L177,219L178,220L178,221L177,223L177,225L178,226L180,223L181,222L183,221L186,221L190,221L190,221L193,224L194,225L195,227L195,228L198,225L199,225L199,223L200,222L201,221L203,219L204,218L205,216L205,215L204,214L202,212L203,211L205,210L208,207L209,206L212,205L212,205L214,205L215,206L216,208L218,208L220,208L222,208L224,206L227,204L228,204L230,204L231,205L231,206L231,208L233,212L234,213L233,214L233,216L233,218L233,220L235,221L238,221L240,220L242,220L243,220L243,221L244,223L244,224L244,225L245,226L247,227L248,229L249,230L250,229L252,228L253,228L254,227L256,228L257,229L257,230L258,229L260,227L261,226L263,226L264,226L264,223L265,222L266,221L267,219L268,218L268,217L269,217L270,217L272,217L276,215L277,216L279,215L280,214L281,213L282,213L282,212L283,211L284,210L286,210L287,210L290,209L291,209L292,208L294,207L294,206L296,204L297,202L295,200L295,199L294,197L294,196L294,195L294,193L295,190L297,188L300,184L301,184L301,182L301,180L302,179L303,178L305,177L306,177L307,175L307,173L307,171L307,171L306,170L305,168L305,167L304,166L302,165L300,165L298,164L298,163L297,161L297,159L296,158L295,157L294,157L292,158L290,159L289,159L282,164L280,165L278,165L277,165L275,164L275,163L274,161L274,160L275,159L276,158L276,157L276,155L276,153L276,151L275,150L273,150L267,152L264,152L261,150L260,148L261,146L262,144L262,143L262,142L261,140L260,139L258,138L257,138L254,139L253,140L252,140L250,142L248,143L247,143L245,146L244,146L240,146L238,146L235,147L233,148L232,150L231,153L230,155L228,156L226,156L225,155L223,154L222,155L221,156L220,156L219,156L217,157L215,158L213,157L211,156L210,155L210,154L211,153L211,151L210,150L208,149L208,149L205,150L204,152L203,153L202,154L198,155L197,156L196,156L190,158L187,158L186,157L185,157L184,158L183,160L176,163L174,164L174,162L173,161L172,161L170,162L169,163L168,164L167,163L166,162L159,163L158,164L158,165L157,167L155,168L154,168L153,167L152,166L152,165L150,165L146,168L146,169L147,170L148,171L147,174L147,176L146,177L145,179L145,180L144,181L142,181L140,182L139,183L138,183L138,182L139,179L138,178L138,176L135,174L129,175L128,175L127,176L127,177L126,180L126,181L125,181L119,181L118,181L116,182L112,184L110,186L108,187L106,186L104,186L103,185L99,184L95,184L91,184L90,183L89,183L83,185L79,185L78,185L77,186L77,189L75,190L74,192L73,193L71,194L70,194L68,194L65,195L64,195L62,195L61,194L60,195L56,196L55,196L52,196L50,197L51,198L52,199L52,201L51,203L50,204L49,204L48,205L47,205L45,206L45,208L45,210L45,211L43,212L43,214L43,215L44,218L44,220L44,224L44,226L44,227L46,230L46,231L46,233L46,235L47,236L49,238L52,243L53,244L56,246L61,250L63,253L63,256L62,260L60,265L58,269L57,270L56,272L56,273L55,274L57,276L58,277L60,278L65,277L66,277L66,277L67,278Z " data-fips="TI02" data-hasc="TJ.RR" data-name="Tadzhikistan Territories" data-postal="RR" data-varname=""/><path d="M52,196L55,196L56,196L60,195L61,194L62,195L64,195L65,195L68,194L70,194L71,194L73,193L74,192L75,190L77,189L77,186L78,185L79,185L83,185L89,183L90,183L91,184L95,184L99,184L103,185L104,186L106,186L108,187L110,186L112,184L116,182L118,181L119,181L125,181L126,181L126,180L127,177L127,176L128,175L129,175L135,174L138,176L138,178L139,179L138,182L138,183L139,183L140,182L142,181L144,181L145,180L145,179L146,177L147,176L147,174L148,171L147,170L146,169L146,168L150,165L152,165L152,166L153,167L154,168L155,168L157,167L158,165L158,164L159,163L166,162L167,163L168,164L169,163L170,162L172,161L173,161L174,162L174,164L176,163L183,160L184,158L185,157L186,157L187,158L190,158L196,156L197,156L198,155L202,154L203,153L204,152L205,150L208,149L208,149L206,145L206,143L204,142L203,142L201,142L199,142L196,140L195,140L193,141L192,141L191,142L190,143L189,142L187,142L182,147L181,147L180,146L179,145L180,142L180,141L179,139L178,139L176,144L175,144L174,144L172,143L171,143L169,143L168,143L167,144L165,146L163,145L161,145L156,146L154,145L151,143L149,143L146,142L141,143L139,143L137,145L136,146L135,146L134,146L133,146L130,147L129,146L127,144L126,145L125,146L123,147L122,145L122,136L122,134L122,133L121,132L120,131L119,130L118,128L119,125L119,122L122,113L123,111L124,109L125,109L126,111L129,117L135,114L135,113L134,111L134,110L134,109L133,106L133,104L134,102L136,100L137,98L138,99L139,100L140,100L164,91L167,91L175,97L177,97L180,97L181,97L183,98L184,99L184,100L185,101L186,102L189,102L191,103L196,104L198,104L199,105L200,106L199,108L198,109L197,109L196,110L195,111L194,113L194,114L195,115L197,115L197,113L198,112L201,112L202,112L203,111L205,110L205,108L206,105L206,103L206,101L208,99L212,97L215,95L216,95L217,94L219,93L222,94L224,93L226,92L227,90L226,88L224,88L219,88L210,91L207,92L205,91L202,90L201,86L200,82L199,80L197,79L196,79L195,80L194,80L192,80L189,78L190,75L189,74L188,73L188,71L189,69L191,68L196,67L196,66L198,63L198,63L200,62L201,61L202,61L204,58L208,55L209,54L210,53L211,53L212,52L213,50L213,48L211,46L205,45L204,44L204,43L205,41L206,41L208,43L209,44L209,41L197,29L195,27L194,26L193,25L190,23L188,24L186,33L183,37L179,39L172,42L167,47L155,50L154,51L153,52L150,55L149,56L147,57L145,56L144,56L144,55L143,53L142,52L140,50L137,47L136,45L134,45L133,45L132,44L131,43L130,43L128,44L127,44L126,45L125,47L124,49L123,51L123,54L124,59L124,60L123,60L119,61L117,62L117,64L119,68L120,73L121,74L123,77L123,79L124,80L123,84L121,85L119,84L117,84L118,86L122,90L122,92L120,93L117,93L111,92L109,90L107,89L106,89L95,91L94,91L92,92L91,93L87,92L86,92L82,93L80,94L78,95L80,96L83,98L85,99L100,96L103,98L103,99L104,101L103,102L103,103L101,103L97,102L96,103L93,105L91,102L90,101L90,104L91,105L91,107L91,108L97,116L97,118L94,119L93,117L92,113L91,110L89,110L89,112L90,113L91,116L91,118L90,119L89,120L89,121L89,122L87,122L86,119L85,119L83,120L81,120L80,122L80,135L79,137L78,138L77,140L74,142L73,143L74,144L73,145L69,146L66,146L63,146L58,144L48,144L27,138L24,138L22,138L16,142L11,143L10,144L10,148L9,149L6,148L6,149L5,152L4,156L4,159L3,161L2,164L1,165L0,165L0,167L0,170L2,172L10,174L15,175L17,176L19,177L20,177L21,178L21,180L20,186L20,188L21,189L29,190L31,190L37,188L39,188L40,189L41,190L42,190L43,190L44,189L45,189L46,189L47,190L49,195L50,197Z M206,124L208,123L210,122L210,121L209,119L207,120L205,120L197,117L196,119L197,120L198,121L200,122L201,123L203,127Z M205,30L204,28L204,27L202,26L200,25L200,25L200,27L201,28L203,31L204,32L205,32Z " data-fips="TI04" data-hasc="TJ.LE" data-name="Leninabad" data-postal="LE" data-varname="Sogd|Hodent|Khodzhent|Khujand|Leninabadskaya oblast'|Leninobod|Sogdiyskaya oblast'|Sogdskaja oblast"/></g></svg>