<?xml version="1.0" ?><!DOCTYPE svg  PUBLIC '-//W3C//DTD SVG 1.1//EN'  'http://www.w3.org/Graphics/SVG/1.1/DTD/svg11.dtd'><svg enable_background="new 0 0 500 401" height="401px" style="stroke-linejoin: round; stroke:#000; fill:#f6f3f0;" version="1.1" viewBox="0 0 500 401" width="500px" xmlns="http://www.w3.org/2000/svg" xmlns:xlink="http://www.w3.org/1999/xlink"><defs><style type="text/css"><![CDATA[path { fill-rule: evenodd; }
#context path { fill: #eee; stroke: #bbb; } ]]></style></defs><metadata><views><view h="401" padding="0" w="500"><proj id="laea" lat0="39.122" lon0="59.384"/><bbox h="93.97" w="134.46" x="936.12" y="954.69"/><llbbox lat0="-90" lat1="90" lon0="-180" lon1="180"/></view></views></metadata><g id="admin1"><path d="M49,270L50,269L52,269L53,269L55,269L62,266L64,266L65,266L66,265L67,264L69,263L70,263L71,262L71,260L71,259L71,258L71,257L71,254L72,253L73,252L79,248L81,246L81,245L83,245L83,244L84,243L87,243L88,242L90,241L92,240L95,238L98,238L105,237L106,237L108,237L110,238L113,239L113,239L115,239L120,239L121,239L123,240L126,239L127,238L127,236L126,235L129,232L130,232L131,231L135,231L136,232L137,232L140,231L142,231L144,232L145,233L151,234L153,235L154,234L156,233L157,232L157,232L154,229L150,226L149,224L148,222L147,222L146,223L145,222L144,222L142,223L141,222L139,221L138,221L137,220L137,219L137,215L138,214L139,213L139,211L140,209L140,208L141,207L153,171L154,171L156,169L157,168L154,157L154,154L153,152L153,151L155,150L160,148L159,145L158,145L157,144L158,139L159,138L157,134L156,128L155,126L154,124L153,123L151,121L151,119L147,109L146,108L144,105L143,105L143,104L143,103L143,102L142,101L141,100L140,97L139,94L139,92L120,90L118,90L117,90L114,91L110,92L108,92L104,92L103,92L102,91L101,90L100,88L99,86L97,85L96,83L95,82L91,74L86,67L85,65L86,63L86,62L85,60L79,55L62,41L59,40L57,40L37,42L35,43L27,45L25,46L20,48L19,48L12,53L2,62L0,64L1,65L2,66L3,67L4,67L5,69L5,70L4,72L3,73L4,75L5,76L6,78L8,78L8,79L9,81L10,81L11,84L11,87L11,88L11,89L12,90L12,92L12,93L12,96L13,97L13,96L14,94L14,93L12,88L12,85L12,83L12,81L12,79L15,73L15,72L15,70L16,68L15,67L13,67L11,68L11,67L12,65L12,65L13,64L18,55L19,54L22,52L23,51L24,50L26,49L28,50L31,50L33,49L44,48L45,49L47,49L48,50L50,51L51,53L51,54L51,56L51,57L51,59L50,60L51,61L52,62L53,65L54,66L54,68L54,70L54,74L54,75L54,77L55,79L56,80L58,81L59,83L60,84L61,85L63,87L66,88L72,94L74,95L74,97L76,98L76,99L77,100L78,101L76,100L75,100L76,102L77,103L77,105L77,106L75,108L74,109L72,110L71,111L67,111L66,111L67,110L67,109L65,108L63,106L62,106L61,106L60,107L59,107L60,108L60,109L60,110L61,111L61,113L62,115L65,116L63,117L64,117L59,117L58,116L59,114L56,114L55,115L54,115L53,115L54,116L53,117L51,117L50,117L48,116L47,117L45,118L43,118L42,118L40,118L40,117L41,115L40,114L39,113L39,111L39,110L39,109L39,108L39,107L38,106L37,106L35,108L35,110L35,111L33,112L32,112L31,112L30,112L29,110L29,109L29,108L28,109L27,110L25,110L25,109L25,108L23,110L22,110L20,109L19,108L19,107L19,106L20,106L19,105L17,104L17,101L16,99L15,98L16,97L15,96L14,95L14,97L14,100L14,102L12,105L11,109L11,110L10,111L10,112L11,113L11,115L10,116L7,119L6,121L6,122L4,130L4,132L4,134L5,135L6,137L5,139L5,140L4,142L5,143L6,144L9,148L9,150L10,151L12,153L13,156L14,157L13,155L14,155L13,154L12,151L11,150L10,146L10,145L10,144L11,144L11,146L12,146L14,146L16,146L15,147L18,146L19,146L22,148L23,148L25,148L27,146L28,146L29,146L31,147L32,148L33,149L32,150L31,151L30,151L30,152L29,154L27,156L26,157L28,157L27,160L27,162L28,162L27,160L28,161L29,160L30,161L31,163L31,161L32,162L32,163L32,164L34,164L35,165L35,166L35,167L36,167L37,168L37,169L36,169L35,169L34,170L33,169L32,168L32,169L32,170L31,170L30,170L29,170L28,168L27,167L25,167L21,168L19,167L19,166L20,165L21,164L22,162L23,161L22,161L21,162L20,164L18,169L17,170L16,171L15,172L15,174L16,176L17,183L17,182L17,179L17,178L18,176L17,175L19,175L20,175L21,176L22,176L23,176L24,176L25,176L25,178L27,177L28,177L30,177L31,176L32,178L31,179L32,178L31,181L31,183L32,181L32,182L33,184L33,185L34,187L35,189L35,184L35,183L37,181L36,185L37,185L35,186L36,187L35,188L36,189L36,188L37,191L38,191L39,191L41,192L42,193L42,194L43,195L45,196L45,198L44,199L43,201L42,202L42,203L42,205L40,208L39,209L39,211L38,215L38,216L39,218L39,220L39,221L39,225L39,227L38,228L38,229L37,233L37,235L36,237L36,250L37,257L37,259L38,261L38,263L38,269L48,270Z M13,201L13,197L12,193L12,190L12,188L14,187L12,187L11,188L11,189L11,190L11,192L11,194L11,195L11,196L12,197L13,201L13,202Z M30,168L31,167L30,166L30,165L29,165L28,166L29,167L29,169Z " data-fips="TX02" data-hasc="TM.BA" data-name="Balkan" data-postal="BA" data-varname="Krasnovodsk, Krasnovodskaya Oblast"/><path d="M314,356L315,355L316,354L317,353L318,352L318,347L319,346L318,345L316,343L315,342L315,341L315,340L316,339L318,339L319,339L320,338L319,335L317,335L317,332L316,319L316,305L314,301L305,287L304,285L297,273L299,273L300,273L302,274L303,275L304,277L305,278L305,279L305,281L306,282L307,282L308,283L310,282L311,281L311,281L312,279L312,278L312,277L311,276L309,276L308,276L307,276L305,277L303,273L302,273L298,273L297,273L295,272L292,262L292,259L293,258L294,257L294,256L292,251L293,250L294,250L295,249L295,248L292,242L291,240L281,231L281,229L276,210L278,210L279,210L280,208L280,203L281,202L284,201L285,200L287,187L288,186L292,184L295,184L295,182L296,175L279,176L278,176L273,177L272,176L271,175L270,174L270,173L270,172L269,171L268,170L267,170L266,170L265,170L264,171L263,172L262,172L260,169L259,168L259,154L259,153L239,153L231,153L228,152L225,150L224,148L210,144L208,144L206,143L203,143L202,144L202,145L201,146L198,145L189,148L185,148L171,148L168,149L166,150L164,151L163,150L162,149L160,149L160,148L155,150L153,151L153,152L154,154L154,157L157,168L156,169L154,171L153,171L141,207L140,208L140,209L139,211L139,213L138,214L137,215L137,219L137,220L138,221L139,221L141,222L142,223L144,222L145,222L146,223L147,222L148,222L149,224L150,226L154,229L157,232L157,232L157,231L158,231L160,232L160,233L161,234L162,236L163,238L163,239L164,240L164,242L163,244L164,245L169,248L170,247L172,247L173,248L176,248L177,248L178,249L179,249L180,250L181,250L182,250L183,250L189,253L191,254L193,254L194,255L194,256L194,257L195,258L195,259L196,260L199,261L201,262L205,261L206,259L207,258L208,259L210,260L212,261L213,261L214,260L215,260L216,260L216,259L219,260L221,261L223,261L224,262L225,262L226,263L232,267L235,266L236,267L237,269L237,270L236,271L236,273L237,277L240,279L240,279L240,280L241,281L242,282L244,282L245,283L245,285L246,285L247,284L253,285L255,287L256,288L259,289L261,289L262,291L263,294L265,296L269,301L270,302L271,305L272,306L273,307L300,306L302,307L303,307L304,309L304,310L304,311L303,312L304,314L303,317L303,320L303,321L304,322L304,323L304,325L305,326L306,329L306,330L305,332L305,333L304,334L304,335L304,336L302,337L304,338L305,339L306,340L307,341L307,343L307,345L307,346L307,348L307,349L306,350L306,351L307,352L308,353L310,353L311,353L312,354L312,355L313,356L314,357Z " data-fips="TX01" data-hasc="TM.AL" data-name="Ahal" data-postal="AL" data-varname="Akhal|Ashkhabad|Ashkhabadskaya Oblast"/><path d="M278,176L277,176L277,167L277,153L276,139L276,138L269,138L268,137L268,107L293,106L293,105L293,96L293,97L291,96L288,95L282,96L277,97L275,97L274,97L273,96L271,94L269,93L262,89L261,88L261,87L261,83L262,81L264,81L264,79L262,76L261,74L260,72L261,71L262,70L263,70L265,71L266,72L267,71L267,70L266,69L264,67L263,66L262,65L258,63L256,63L255,62L256,61L258,61L258,59L258,57L258,54L259,54L260,53L259,51L257,51L256,50L255,48L254,47L252,47L251,47L248,47L241,48L238,48L236,46L234,46L233,44L232,41L232,39L230,37L228,37L227,37L226,37L225,37L223,37L221,36L219,34L212,25L211,25L210,26L210,30L209,31L207,31L206,31L204,31L200,29L199,30L197,31L196,31L195,32L196,34L200,36L201,37L202,38L203,40L205,45L207,47L207,48L204,48L204,46L204,45L204,43L203,42L202,41L198,40L197,39L196,40L195,40L193,38L192,38L191,38L190,39L189,40L188,41L188,42L188,45L188,46L186,49L185,50L185,51L185,52L184,53L181,53L179,54L178,54L173,53L169,53L166,54L163,57L161,61L160,62L159,63L155,65L154,66L154,68L155,72L155,73L155,75L154,76L155,78L156,79L156,80L156,82L156,83L156,85L157,86L157,87L158,88L159,89L161,90L160,91L158,91L157,92L156,94L148,93L139,92L139,94L140,97L141,100L142,101L143,102L143,103L143,104L143,105L144,105L146,108L147,109L151,119L151,121L153,123L154,124L155,126L156,128L157,134L159,138L158,139L157,144L158,145L159,145L160,148L160,149L162,149L163,150L164,151L166,150L168,149L171,148L185,148L189,148L198,145L201,146L202,145L202,144L203,143L206,143L208,144L210,144L224,148L225,150L228,152L231,153L239,153L259,153L259,154L259,168L260,169L262,172L263,172L264,171L265,170L266,170L267,170L268,170L269,171L270,172L270,173L270,174L271,175L272,176L273,177Z " data-fips="TX03" data-hasc="TM.DA" data-name="Tashauz" data-postal="DA" data-varname="Dashoguz|Dashhowuz|Dashkhovuz|Tashauzskaya Oblast"/><path d="M399,294L408,293L418,293L425,292L434,292L435,289L435,288L435,286L434,282L434,281L435,279L436,279L442,275L445,274L461,272L462,271L464,269L465,268L465,266L465,265L465,263L465,262L465,261L465,260L466,259L467,258L469,258L470,256L471,257L472,258L473,259L482,262L484,264L485,264L487,264L488,265L489,265L490,266L493,265L494,265L496,266L496,265L498,264L497,262L498,261L498,259L497,258L496,257L496,255L497,252L497,250L496,246L496,245L497,242L499,239L500,237L499,235L498,234L496,233L495,233L492,233L491,233L487,232L485,230L484,229L483,228L481,228L478,226L477,226L475,225L471,224L470,224L469,224L467,226L466,226L464,227L462,226L447,217L438,210L435,209L430,208L425,205L417,199L413,195L412,195L409,197L408,197L406,196L391,186L389,184L385,179L383,177L351,156L348,154L345,151L345,149L344,147L344,146L345,144L345,142L343,139L343,138L343,136L341,133L341,131L338,130L336,129L335,128L335,127L333,125L333,124L332,121L330,119L330,118L329,116L328,111L328,110L328,107L327,105L324,101L324,100L316,95L313,93L309,93L307,93L307,94L306,96L305,97L304,99L303,99L302,99L300,99L296,96L293,96L293,105L293,106L268,107L268,137L269,138L276,138L276,139L277,153L277,167L277,176L278,176L279,176L296,175L303,175L304,176L309,182L316,189L347,219L358,231L362,234L366,235L374,238L376,239L390,253L395,259L395,261L391,267L389,270L387,271L389,293L389,294L390,294Z " data-fips="TX04" data-hasc="TM.LE" data-name="Chardzhou" data-postal="LE" data-varname="Lebap|Chardzhouskaya Oblast"/><path d="M351,369L352,368L353,368L356,370L357,370L359,370L362,368L363,367L364,366L367,365L370,362L373,361L375,360L376,359L376,357L376,355L375,354L375,351L376,350L379,349L380,347L379,347L378,346L376,344L376,342L375,341L377,340L385,340L388,339L391,337L393,335L394,335L399,334L400,334L404,331L405,331L406,331L407,331L411,332L410,329L411,327L413,325L414,325L416,324L417,324L419,324L420,322L421,321L424,320L425,320L426,319L427,318L429,313L430,312L430,310L430,307L429,304L429,303L430,301L430,299L434,292L425,292L418,293L408,293L399,294L390,294L389,294L389,293L387,271L389,270L391,267L395,261L395,259L390,253L376,239L374,238L366,235L362,234L358,231L347,219L316,189L309,182L304,176L303,175L296,175L295,182L295,184L292,184L288,186L287,187L285,200L284,201L281,202L280,203L280,208L279,210L278,210L276,210L281,229L281,231L291,240L292,242L295,248L295,249L294,250L293,250L292,251L294,256L294,257L293,258L292,259L292,262L295,272L297,273L298,273L302,273L303,273L305,277L307,276L308,276L309,276L311,276L312,277L312,278L312,279L311,281L311,281L310,282L308,283L307,282L306,282L305,281L305,279L305,278L304,277L303,275L302,274L300,273L299,273L297,273L304,285L305,287L314,301L316,305L316,319L317,332L317,335L319,335L320,338L319,339L318,339L316,339L315,340L315,341L315,342L316,343L318,345L319,346L318,347L318,352L317,353L316,354L315,355L314,356L314,357L314,357L316,359L318,361L321,362L326,362L328,362L332,360L335,360L336,361L337,362L341,365L342,366L344,367L345,368L345,370L345,372L347,374Z " data-fips="TX05" data-hasc="TM.MA" data-name="Mary" data-postal="MA" data-varname="Maruy|Marysk|Maryyskaya Oblast"/></g></svg>