<?xml version="1.0" ?><!DOCTYPE svg  PUBLIC '-//W3C//DTD SVG 1.1//EN'  'http://www.w3.org/Graphics/SVG/1.1/DTD/svg11.dtd'><svg enable_background="new 0 0 500 401" height="401px" style="stroke-linejoin: round; stroke:#000; fill:#f6f3f0;" version="1.1" viewBox="0 0 500 401" width="500px" xmlns="http://www.w3.org/2000/svg" xmlns:xlink="http://www.w3.org/1999/xlink"><defs><style type="text/css"><![CDATA[path { fill-rule: evenodd; }
#context path { fill: #eee; stroke: #bbb; } ]]></style></defs><metadata><views><view h="401" padding="0" w="500"><proj id="laea" lat0="39.061" lon0="35.179"/><bbox h="80.65" w="183.83" x="910.43" y="959.29"/><llbbox lat0="-90" lat1="90" lon0="-180" lon1="180"/></view></views></metadata><g id="admin1"><path d="M34,248L35,248L37,247L37,247L39,243L41,243L42,243L43,244L45,244L47,246L48,246L49,246L50,246L51,247L53,247L56,247L57,246L59,244L60,243L62,244L63,245L65,247L69,247L68,246L68,245L68,244L70,243L72,244L74,242L75,241L77,240L77,238L75,238L74,236L74,235L75,233L75,231L75,230L75,229L73,228L69,226L65,227L64,228L63,228L62,228L61,229L56,228L49,229L43,228L42,228L38,230L36,231L34,231L34,231L33,232L34,233L34,234L33,236L32,237L30,237L28,237L27,238L28,238L30,239L32,240L32,242L31,243L31,244L31,245L32,245L32,246L31,247L31,248L32,249L33,249Z " data-fips="TU09" data-hasc="TR.AY" data-name="Aydin" data-postal="AY" data-varname="Aydin"/><path d="M38,230L42,228L43,228L49,229L56,228L61,229L62,228L63,228L64,228L65,227L69,226L68,224L67,221L66,220L65,219L64,219L63,218L62,218L59,219L58,217L58,216L56,216L55,215L53,215L53,216L52,217L51,217L50,216L49,214L47,213L46,211L45,210L44,209L41,208L39,208L38,207L37,204L36,203L36,202L37,201L38,200L38,199L39,197L39,196L40,195L42,195L44,194L45,193L45,191L44,189L44,188L43,184L42,180L41,179L40,178L34,181L32,182L31,183L25,187L27,188L27,189L28,191L26,191L26,192L25,193L26,195L27,196L29,195L30,195L31,196L32,196L32,197L30,198L29,198L29,199L29,199L28,199L28,200L27,201L27,201L25,201L24,201L23,202L23,203L23,204L23,205L24,206L25,207L25,208L26,209L25,208L26,209L26,210L28,212L30,211L31,211L32,212L33,212L32,213L30,213L29,213L28,213L27,214L25,214L24,214L23,214L22,212L22,211L21,212L20,213L20,214L21,215L20,215L19,213L19,212L18,211L19,210L20,210L20,209L19,208L18,207L18,206L18,204L17,203L16,203L14,202L13,203L13,204L13,206L13,207L14,209L14,210L14,209L15,210L16,211L16,212L15,211L15,212L15,213L14,214L13,214L12,214L11,213L11,212L10,213L11,214L10,215L8,215L10,216L11,217L13,217L13,218L14,219L16,219L16,220L17,221L18,222L18,221L19,219L21,219L22,219L23,221L24,222L24,224L25,225L26,224L27,224L29,225L30,226L31,227L32,228L34,227L35,229L34,230L34,231L36,231Z " data-fips="TU35" data-hasc="TR.IZ" data-name="Izmir" data-postal="IZ" data-varname="Izmir|Esmirna|Smirne|Smyrna"/><path d="M62,193L63,193L64,193L65,192L66,192L68,192L69,192L72,191L74,191L74,190L75,189L76,188L77,188L78,187L79,186L80,184L81,184L81,181L82,180L83,178L83,177L82,176L81,176L79,176L78,176L77,175L77,174L76,172L76,171L75,172L73,171L66,166L66,165L65,161L64,160L63,159L63,157L63,156L64,154L63,153L63,152L64,151L66,149L63,149L61,149L58,149L59,148L61,147L61,145L60,145L55,144L55,143L54,143L53,145L54,146L54,147L55,147L56,148L57,149L55,150L54,151L53,150L52,150L50,150L49,150L49,151L49,152L48,153L45,155L45,156L46,156L47,157L46,159L45,161L46,162L46,163L45,164L44,166L43,166L42,167L41,167L40,168L38,167L36,166L35,167L34,166L32,167L31,168L30,169L28,169L26,168L25,168L24,171L24,174L27,173L29,174L30,173L31,174L31,175L30,177L29,177L28,178L27,178L27,179L24,182L23,183L22,182L21,183L23,183L24,184L24,185L24,186L25,187L31,183L32,182L34,181L40,178L41,179L42,180L45,180L46,181L47,182L49,183L51,183L52,183L53,183L54,183L55,184L54,186L53,187L54,188L57,188L59,190L60,193L61,194Z M51,145L51,144L50,144L50,146Z M52,141L54,141L54,140L53,139L52,139L50,139L49,139L49,141L50,141L51,141Z " data-fips="TU10" data-hasc="TR.BK" data-name="Balikesir" data-postal="BK" data-varname="Balikesir|Balikisri"/><path d="M10,163L9,162L7,163L8,164L10,164Z M5,153L6,153L8,152L9,151L8,152L8,150L8,149L7,149L4,149L3,149L2,150L1,151L0,152L1,153L3,153Z M13,175L14,175L16,175L17,175L18,174L24,174L24,171L25,168L26,168L28,169L30,169L31,168L32,167L34,166L35,167L36,166L38,167L40,168L41,167L42,167L43,166L44,166L45,164L46,163L46,162L45,161L46,159L47,157L46,156L45,156L45,155L48,153L49,152L49,151L49,150L48,150L46,150L45,149L43,148L43,146L43,145L42,144L41,145L39,145L38,145L37,145L36,146L35,146L33,146L31,146L29,145L28,146L25,149L23,149L22,151L21,151L20,152L19,152L19,153L19,154L18,155L17,156L16,157L15,158L13,157L12,159L12,160L12,161L12,163L11,165L11,166L11,167L11,170L10,171L9,172L8,175L9,175L10,176Z M15,155L15,155L17,154L18,153L18,151L19,151L20,150L21,149L22,149L23,148L25,147L26,145L27,144L28,143L29,142L31,142L32,142L33,141L34,141L34,138L34,135L31,135L31,135L30,137L31,137L31,139L30,140L28,140L27,142L25,141L23,142L22,143L21,143L19,144L18,145L17,146L15,146L15,147L15,148L16,150L15,151L14,153L14,154L13,155L13,156Z " data-fips="TU17" data-hasc="TR.CK" data-name="anakkale" data-postal="CK" data-varname=""/><path d="M26,137L27,137L28,137L30,137L31,135L31,135L30,132L29,130L29,128L30,125L31,123L32,122L33,120L33,115L32,113L34,110L35,108L36,107L37,103L37,100L36,97L36,93L35,93L34,93L33,93L30,93L28,94L28,95L28,96L28,97L26,98L24,97L23,98L22,100L23,101L24,101L25,102L25,103L27,104L29,105L29,106L28,107L29,108L29,109L29,112L29,113L28,114L26,113L24,115L24,115L22,116L21,117L20,118L21,119L21,121L20,122L20,123L21,124L20,125L20,126L19,127L18,128L17,128L16,129L15,130L14,132L13,133L12,133L12,135L12,136L12,137L13,137L18,138L20,137L21,138L22,138L23,138Z " data-fips="TU22" data-hasc="TR.ED" data-name="Edirne" data-postal="ED" data-varname="Adrianople|Adrianopel"/><path d="M49,118L51,117L52,115L53,113L56,113L58,112L63,112L67,112L67,112L69,111L68,110L67,108L66,107L66,106L66,105L65,104L65,102L64,101L63,100L64,98L66,98L65,97L65,96L64,95L62,95L61,95L60,95L60,96L59,96L57,95L55,95L54,96L53,97L52,96L50,94L49,93L48,91L47,90L45,90L44,91L43,91L42,90L41,90L40,91L39,92L38,93L37,93L36,93L36,97L37,100L37,103L36,107L35,108L34,110L32,113L33,115L37,114L41,114L44,114L45,115L46,117L48,118Z " data-fips="TU39" data-hasc="TR.KL" data-name="Kirklareli" data-postal="KL" data-varname="Kirklareli"/><path d="M35,140L36,139L37,139L39,139L40,139L41,138L43,137L44,135L47,133L48,132L49,129L50,128L56,127L57,128L58,129L60,129L61,128L62,127L63,127L65,126L67,126L66,124L66,121L67,119L68,117L68,114L67,112L63,112L58,112L56,113L53,113L52,115L51,117L49,118L48,118L46,117L45,115L44,114L41,114L37,114L33,115L33,120L32,122L31,123L30,125L29,128L29,130L30,132L31,135L34,135L34,138L34,141Z " data-fips="TU59" data-hasc="TR.TG" data-name="Tekirdag" data-postal="TG" data-varname="Tekirdag"/><path d="M110,178L113,178L115,176L116,174L117,171L118,170L119,168L120,168L122,168L123,167L124,166L124,164L125,162L127,161L130,161L129,159L127,156L126,155L124,154L122,153L120,152L119,152L116,153L113,152L112,151L112,150L111,149L110,147L109,148L108,149L107,150L107,151L106,152L106,154L107,155L106,156L104,159L103,162L103,164L105,166L105,168L104,168L102,171L102,172L103,175L105,176L107,178L108,178Z " data-fips="TU11" data-hasc="TR.BC" data-name="Bilecik" data-postal="BC" data-varname=""/><path d="M90,178L91,176L91,174L92,174L93,171L94,170L95,168L96,167L99,168L101,168L104,168L105,168L105,166L103,164L103,162L104,159L106,156L107,155L106,154L106,152L107,151L107,150L108,149L109,148L110,147L106,144L105,145L100,146L98,146L97,145L95,145L94,145L92,145L88,145L87,145L84,143L84,144L82,144L81,145L80,146L82,146L84,148L85,148L86,147L88,148L89,148L89,149L88,149L88,151L87,151L84,151L83,151L82,150L81,150L79,150L78,150L77,151L75,150L74,150L73,149L71,149L69,149L66,149L64,151L63,152L63,153L64,154L63,156L63,157L63,159L64,160L65,161L66,165L66,166L73,171L75,172L76,171L76,172L77,174L77,175L78,176L79,176L81,176L82,176L83,177L84,178L85,178L87,179L89,179Z " data-fips="TU16" data-hasc="TR.BU" data-name="Bursa" data-postal="BU" data-varname="Burssa|Brusa|Brussa|Brousse"/><path d="M97,144L97,141L97,141L96,141L95,141L94,142L86,142L84,143L87,145L88,145L92,145L94,145L95,145L97,145Z M84,131L85,130L86,130L87,129L87,129L88,128L89,127L89,126L89,125L90,124L91,122L90,122L88,122L86,121L78,117L73,114L69,111L69,111L67,112L67,112L68,114L68,117L67,119L66,121L66,124L67,126L67,126L69,126L71,127L72,127L74,128L75,129L76,129L76,128L76,127L77,128L77,129L78,130L82,131L83,131Z M94,134L96,132L97,131L99,131L100,131L101,132L102,134L103,134L104,133L106,132L107,131L109,130L110,129L110,128L109,126L103,125L98,124L94,122L93,122L92,123L91,123L90,124L89,125L89,126L89,128L88,130L88,131L90,132L91,133L92,134L93,135Z " data-fips="TU34" data-hasc="TR.IB" data-name="Istanbul" data-postal="IB" data-varname="Istanbul|Constantinople|Estambul|Istambul|Konstantinopel|Stamboul"/><path d="M105,145L106,144L112,146L113,145L115,145L116,144L118,142L119,137L120,135L120,134L122,135L124,134L124,133L125,132L125,131L123,131L123,129L124,127L122,126L121,125L120,125L119,126L118,126L117,127L116,127L109,126L110,128L110,129L109,130L107,131L106,132L104,133L103,134L102,134L101,132L100,131L99,131L97,131L96,132L94,134L93,135L94,135L94,136L93,137L94,137L95,137L95,138L96,139L98,138L104,138L105,139L106,140L107,140L109,139L110,140L109,141L109,141L106,141L100,141L99,140L98,141L97,141L97,144L97,145L98,146L100,146Z " data-fips="TU41" data-hasc="TR.KC" data-name="Kocaeli" data-postal="KC" data-varname="Izmit"/><path d="M128,154L127,152L127,150L128,148L129,147L131,147L133,146L133,145L133,144L133,143L135,142L135,140L135,138L134,136L134,135L135,133L137,131L137,130L134,130L131,129L130,129L124,127L123,129L123,131L125,131L125,132L124,133L124,134L122,135L120,134L120,135L119,137L118,142L116,144L115,145L113,145L112,146L110,147L111,149L112,150L112,151L113,152L116,153L119,152L120,152L122,153L124,154L126,155Z " data-fips="TU54" data-hasc="TR.SK" data-name="Sakarya" data-postal="SK" data-varname=""/><path d="M135,160L137,158L138,157L138,155L139,153L141,154L143,155L148,155L148,156L150,156L151,157L155,156L158,156L160,156L162,155L165,154L166,154L167,153L170,154L173,153L173,152L175,150L174,147L174,145L176,144L176,143L176,141L175,139L173,137L171,137L170,136L168,134L161,133L160,133L152,132L148,129L147,128L146,129L145,129L144,130L143,130L141,130L140,130L137,130L137,131L135,133L134,135L134,136L135,138L135,140L135,142L133,143L133,144L133,145L133,146L131,147L129,147L128,148L127,150L127,152L128,154L127,156L129,159L130,161L131,161Z " data-fips="TU14" data-hasc="TR.BL" data-name="Bolu" data-postal="BL" data-varname=""/><path d="M157,197L157,195L158,195L160,194L161,193L162,192L161,190L161,189L161,188L161,187L161,186L161,184L160,183L160,181L159,180L158,177L158,175L159,174L158,173L158,172L156,171L156,170L155,168L155,167L154,167L152,166L150,166L149,166L147,166L146,165L145,165L143,165L141,166L140,165L138,165L136,166L135,166L134,165L134,163L131,161L130,161L127,161L125,162L124,164L124,166L123,167L122,168L120,168L119,168L118,170L117,171L116,174L115,176L113,178L114,179L117,182L118,184L118,187L120,190L120,192L121,193L122,193L123,195L124,196L125,197L126,197L127,196L129,195L131,194L132,193L133,194L134,195L136,194L138,193L139,193L140,192L141,191L142,191L144,193L145,196L147,198L150,197L152,197L154,198Z " data-fips="TU26" data-hasc="TR.ES" data-name="Eskisehir" data-postal="ES" data-varname="Eskisehir"/><path d="M217,139L220,138L221,136L219,135L219,133L220,132L221,130L223,128L224,126L224,125L226,125L226,121L226,119L226,118L226,117L228,116L229,113L227,111L226,111L223,111L221,110L219,110L218,110L218,108L219,107L220,105L220,103L214,102L211,103L210,102L205,102L203,101L200,101L197,101L193,103L189,104L187,105L185,105L184,106L183,106L181,106L182,107L182,109L183,111L184,113L184,115L185,116L187,116L188,117L188,119L189,120L189,122L188,123L187,125L186,126L187,130L188,130L189,130L190,132L191,133L194,133L197,135L198,136L199,136L200,136L202,134L204,134L209,132L210,132L210,133L209,135L208,136L209,138L211,138L211,139L212,140L213,140Z " data-fips="TU37" data-hasc="TR.KS" data-name="Kastamonu" data-postal="KS" data-varname=""/><path d="M173,298L174,297L175,295L175,293L175,290L175,288L175,287L174,286L173,285L172,284L171,282L170,280L171,277L170,275L169,274L168,274L166,272L167,271L167,270L166,269L165,269L163,267L163,267L162,266L161,264L159,263L158,261L156,260L154,258L147,256L144,256L143,256L142,255L140,253L138,254L137,254L136,255L133,255L129,256L128,257L126,259L125,259L123,259L121,259L116,258L115,256L113,256L109,257L108,258L103,260L101,262L101,264L99,266L99,267L98,268L96,268L93,275L93,277L93,279L91,279L90,280L90,282L88,282L87,283L86,285L85,286L85,287L84,288L86,290L87,290L88,289L88,290L90,292L93,292L92,292L94,293L93,293L94,295L95,294L96,294L97,294L98,293L99,293L100,293L101,292L102,292L103,292L104,291L105,291L106,291L107,291L108,290L110,289L113,291L114,292L114,293L115,292L116,291L117,290L117,288L117,287L117,286L118,285L118,283L119,282L120,280L119,279L119,278L120,277L120,276L120,275L120,273L121,272L121,271L123,270L124,271L125,272L130,272L140,274L141,275L142,276L147,278L148,279L151,280L152,281L153,282L155,282L156,283L158,283L159,284L160,285L161,286L161,287L162,288L163,289L163,290L164,291L165,293L165,294L166,294L167,296L168,297L169,298L172,299L173,299Z " data-fips="TU07" data-hasc="TR.AL" data-name="Antalya" data-postal="AL" data-varname="Adalia|Anatolia"/><path d="M111,239L112,237L112,234L113,233L115,232L117,230L118,229L120,228L121,227L122,226L123,226L125,225L126,225L128,224L130,223L131,221L135,218L136,217L137,217L138,217L139,219L145,217L147,215L150,211L150,210L150,208L151,207L153,203L153,202L153,200L152,197L150,197L147,198L145,196L144,193L142,191L141,191L140,192L139,193L138,193L136,194L134,195L133,194L132,193L131,194L129,195L127,196L126,197L125,197L124,196L123,195L122,193L121,193L120,192L119,195L115,196L115,198L114,199L114,201L113,203L112,205L111,205L105,210L104,211L103,212L102,214L102,215L101,217L105,218L107,223L108,224L108,226L107,227L100,232L98,232L98,233L98,237L100,237L101,238L104,239L107,240L109,240Z " data-fips="TU03" data-hasc="TR.AF" data-name="Afyon" data-postal="AF" data-varname="Afyonkarahisar"/><path d="M98,268L99,267L99,266L101,264L101,262L103,260L108,258L109,257L113,256L115,256L116,258L121,259L123,259L125,259L126,259L128,257L129,256L130,253L128,252L128,251L126,249L126,247L125,244L123,243L122,243L120,243L119,242L118,241L117,239L115,238L114,239L113,240L109,242L108,242L107,242L107,241L107,240L104,239L100,242L99,242L98,243L97,244L94,246L94,248L94,249L94,250L95,251L93,254L90,257L90,259L89,261L89,263L89,264L89,266L90,267L91,265L94,265L96,268Z " data-fips="TU15" data-hasc="TR.BD" data-name="Burdur" data-postal="BD" data-varname=""/><path d="M86,267L87,266L87,263L89,263L89,261L90,259L90,257L93,254L95,251L94,250L94,249L94,248L94,246L97,244L98,243L99,242L100,242L101,238L100,237L98,237L98,233L98,232L100,232L107,227L108,226L108,224L107,223L105,218L101,217L98,217L97,219L98,221L97,222L96,222L94,222L92,222L90,223L90,224L88,224L87,224L85,223L83,223L82,223L81,222L79,222L77,222L75,225L75,226L74,227L73,228L75,229L75,230L75,231L75,233L74,235L74,236L75,238L77,238L77,240L75,241L74,242L72,244L70,243L68,244L68,245L68,246L69,247L69,249L69,251L71,251L72,252L73,253L73,255L74,256L76,257L77,258L79,259L80,261L80,262L80,263L80,265L81,266L83,266L85,268Z " data-fips="TU20" data-hasc="TR.DN" data-name="Denizli" data-postal="DN" data-varname=""/><path d="M136,255L137,254L138,254L140,253L142,252L142,250L142,248L141,247L141,246L142,246L143,245L144,243L145,241L145,239L144,236L145,234L146,234L148,233L149,232L150,231L148,229L146,228L145,226L143,224L141,222L139,219L138,217L137,217L136,217L135,218L131,221L130,223L128,224L126,225L125,225L123,226L122,226L121,227L120,228L118,229L117,230L115,232L113,233L112,234L112,237L111,239L109,240L107,240L107,241L107,242L108,242L109,242L113,240L114,239L115,238L117,239L118,241L119,242L120,243L122,243L123,243L125,244L126,247L126,249L128,251L128,252L130,253L133,255Z " data-fips="TU33" data-hasc="TR.IP" data-name="Isparta" data-postal="IP" data-varname=""/><path d="M94,206L96,206L97,204L97,203L99,202L100,202L104,203L105,205L111,205L112,205L113,203L114,201L114,199L115,198L115,196L119,195L120,192L120,190L118,187L118,184L117,182L114,179L113,178L110,178L108,178L107,178L105,176L103,175L102,172L102,171L101,168L99,168L96,167L95,168L94,170L93,171L92,174L91,174L91,176L90,178L89,179L87,179L85,178L84,178L83,177L83,178L82,180L81,181L81,184L80,184L79,186L78,187L77,188L76,188L75,189L74,190L74,191L76,193L80,195L82,198L82,199L82,201L83,202L83,204L83,206L84,205L86,205L87,206L89,207L91,207Z " data-fips="TU43" data-hasc="TR.KU" data-name="Ktahya" data-postal="KU" data-varname="Ktanya"/><path d="M75,226L75,225L77,222L79,222L77,221L77,220L78,218L79,217L79,216L79,214L79,213L78,211L78,210L80,209L82,207L83,206L83,204L83,202L82,201L82,199L82,198L80,195L76,193L72,191L69,192L68,192L66,192L65,192L64,193L63,193L62,193L61,194L60,193L59,190L57,188L54,188L53,187L54,186L55,184L54,183L53,183L52,183L51,183L49,183L47,182L46,181L45,180L43,184L44,188L44,189L45,191L45,193L44,194L42,195L40,195L39,196L39,197L38,199L38,200L37,201L36,202L36,203L37,204L38,207L39,208L41,208L44,209L45,210L46,211L47,213L49,214L50,216L51,217L52,217L53,216L53,215L55,215L56,216L58,216L58,217L59,219L62,218L63,218L64,219L65,219L66,220L67,221L68,224L69,226L74,227Z " data-fips="TU45" data-hasc="TR.MN" data-name="Manisa" data-postal="MN" data-varname=""/><path d="M85,287L85,286L86,285L87,283L88,282L90,282L90,280L91,279L93,279L93,277L93,275L96,268L94,265L91,265L90,267L89,266L89,264L89,263L87,263L87,266L86,267L85,268L83,266L81,266L80,265L80,263L80,262L80,261L79,259L77,258L76,257L74,256L73,255L73,253L72,252L71,251L69,251L69,249L65,247L63,245L62,244L60,243L59,244L57,246L56,247L53,247L51,247L50,246L49,246L48,246L47,246L45,244L43,244L42,243L41,243L39,243L37,247L37,247L37,247L38,248L36,249L36,250L37,251L39,250L39,251L38,252L39,252L40,253L40,252L41,252L42,253L41,254L41,255L39,255L40,256L40,257L38,258L37,258L36,257L35,256L34,256L33,257L32,256L33,257L31,258L31,259L31,261L32,262L33,261L34,260L35,260L35,261L36,260L37,260L38,261L39,261L40,261L41,262L42,262L44,261L45,262L46,262L49,261L50,261L51,261L54,262L55,261L56,261L59,262L58,263L57,263L57,264L56,264L55,265L54,265L53,265L52,266L52,267L51,267L52,268L52,269L52,270L51,269L49,269L48,268L45,268L44,269L43,269L41,268L40,269L39,269L36,269L35,270L35,271L33,270L34,272L35,272L36,272L37,272L39,272L40,272L42,272L42,271L43,270L44,270L46,270L47,270L48,271L49,271L50,270L51,270L53,270L54,270L53,271L54,271L53,272L52,272L51,272L50,273L51,273L52,273L52,274L53,274L52,275L51,276L50,276L50,277L51,277L52,276L53,276L54,274L55,273L57,273L57,272L58,271L57,271L57,269L57,268L59,268L59,269L59,270L60,269L62,270L62,269L61,268L62,268L63,268L63,269L64,270L65,270L66,269L67,270L67,271L67,272L68,273L68,274L69,273L71,274L72,275L73,276L73,277L74,276L75,275L74,275L74,274L75,274L75,273L76,273L78,274L80,276L78,277L78,278L78,279L79,279L80,280L80,281L80,282L80,283L80,284L80,285L81,286L81,287L83,287L84,288Z " data-fips="TU48" data-hasc="TR.MG" data-name="Mugla" data-postal="MG" data-varname="Mugla"/><path d="M324,253L325,253L326,252L329,252L332,251L335,248L336,247L342,246L340,244L341,244L342,244L343,244L342,243L343,242L344,242L343,241L342,241L343,240L344,240L344,239L344,237L346,236L346,234L347,234L349,233L350,232L350,231L351,229L351,228L350,227L346,229L345,230L344,230L343,231L341,231L339,231L337,231L336,231L333,230L333,229L334,228L334,227L333,227L331,227L329,227L328,230L326,232L324,233L323,235L323,237L322,238L320,239L319,239L318,240L317,239L315,239L313,239L311,241L307,241L306,243L304,244L303,246L303,248L304,249L306,250L309,251L312,251L315,251L318,252L320,254L321,253L322,254L324,254Z " data-fips="TU02" data-hasc="TR.AD" data-name="Adiyaman" data-postal="AD" data-varname="Adiyaman"/><path d="M346,222L347,222L351,222L353,222L355,222L356,222L359,221L361,220L363,220L365,220L365,219L366,217L366,216L368,216L369,217L378,215L378,213L376,211L377,208L379,208L379,207L379,206L380,205L379,203L377,202L377,199L377,197L378,195L379,193L378,191L375,192L370,196L368,196L367,196L366,197L366,199L367,200L366,201L366,203L364,205L362,206L359,206L357,206L357,207L355,208L354,208L353,207L352,206L351,206L349,205L348,205L347,205L346,204L345,204L343,204L341,204L339,205L337,203L338,201L337,199L333,200L333,201L333,203L333,204L334,207L334,208L334,209L331,209L330,210L329,212L328,212L327,213L327,214L327,215L327,217L329,217L329,218L330,219L333,219L334,219L337,220L338,220L340,220L340,221L341,222L342,222L344,223Z " data-fips="TU23" data-hasc="TR.EG" data-name="Elazig" data-postal="EG" data-varname="Elazig"/><path d="M296,259L297,258L301,257L304,256L306,256L308,256L309,255L309,253L309,252L309,251L306,250L304,249L303,248L303,246L304,244L306,243L307,241L308,239L309,234L310,233L311,232L311,231L312,227L312,226L311,224L309,223L307,222L304,220L299,220L298,220L297,218L293,216L292,215L288,215L284,216L283,217L283,219L282,220L280,223L279,224L277,226L276,229L275,235L274,237L274,239L274,240L274,242L275,244L275,245L274,246L273,247L273,250L272,251L272,252L271,253L272,254L272,254L273,256L274,257L275,257L276,257L278,257L280,256L281,257L282,257L284,259L285,260L288,259L289,257L291,258L291,261L293,261Z " data-fips="TU46" data-hasc="TR.KM" data-name="K. Maras" data-postal="KM" data-varname="Kahramanmaras"/><path d="M311,241L313,239L315,239L317,239L318,240L319,239L320,239L322,238L323,237L323,235L324,233L326,232L328,230L329,227L331,227L333,227L334,227L334,228L333,229L333,230L336,231L337,231L339,231L341,231L343,231L344,230L345,230L346,229L348,224L347,222L346,222L344,223L342,222L341,222L340,221L340,220L338,220L337,220L334,219L333,219L330,219L329,218L329,217L327,217L327,215L327,214L327,213L328,212L329,212L330,210L331,209L334,209L334,208L334,207L333,204L333,203L333,201L333,200L333,198L332,198L331,197L329,197L326,196L324,197L323,198L321,199L319,199L317,199L315,199L314,200L314,201L313,201L312,202L309,202L307,201L306,201L306,203L306,204L306,206L307,207L306,209L305,211L303,212L302,213L300,215L297,218L298,220L299,220L304,220L307,222L309,223L311,224L312,226L312,227L311,231L311,232L310,233L309,234L308,239L307,241Z " data-fips="TU44" data-hasc="TR.ML" data-name="Malatya" data-postal="ML" data-varname=""/><path d="M181,300L183,299L186,300L187,300L188,299L189,298L190,299L191,298L193,298L194,298L195,298L196,298L198,298L199,298L200,298L201,297L202,297L203,298L204,297L205,296L206,295L207,295L207,294L208,292L209,293L210,294L211,296L211,294L212,293L213,292L214,291L214,289L215,289L216,287L217,286L219,283L220,283L223,281L225,279L227,278L228,277L229,277L231,276L233,276L235,277L236,278L237,279L237,279L238,278L240,277L241,277L241,275L240,273L240,271L241,269L240,268L238,268L237,267L237,265L236,262L235,261L234,259L231,256L230,257L228,258L226,258L225,259L223,260L222,261L220,262L217,263L214,265L212,265L211,266L209,268L207,268L206,268L204,268L202,268L200,269L196,269L195,270L194,270L193,271L192,272L191,272L191,273L190,274L190,275L188,274L187,275L186,275L185,276L185,277L186,278L186,279L187,280L188,282L189,282L190,283L191,284L190,285L189,284L188,284L187,285L187,286L185,287L184,287L182,287L181,288L179,288L177,287L175,288L175,290L175,293L175,295L174,297L173,298L173,299L175,300L176,301L178,301L179,302Z " data-fips="TU32" data-hasc="TR.IC" data-name="Mersin" data-postal="IC" data-varname="Iel"/><path d="M223,206L223,205L223,203L226,202L228,201L229,200L230,199L230,198L229,196L229,194L229,192L229,191L228,190L229,189L231,189L232,188L230,187L229,186L228,186L224,180L223,179L221,179L220,179L219,177L218,176L216,176L215,175L211,179L210,182L208,185L204,188L201,193L201,195L204,197L206,199L207,200L208,200L210,201L211,201L211,202L211,203L213,203L214,204L214,205L215,206L217,205L222,207Z " data-fips="TU40" data-hasc="TR.KH" data-name="Kirsehir" data-postal="KH" data-varname="Kirsehir"/><path d="M254,238L255,238L265,231L266,229L267,227L268,226L269,223L270,222L272,221L274,220L276,221L277,222L277,224L279,224L280,223L282,220L283,219L283,217L284,216L285,214L285,213L286,212L287,209L287,206L288,205L288,204L289,201L288,198L286,197L284,196L282,196L279,197L278,197L277,196L272,195L270,196L268,196L265,194L263,193L263,192L262,191L260,191L258,194L250,200L249,200L246,202L240,201L239,203L239,204L238,206L238,208L239,210L241,212L241,214L241,216L241,217L238,221L237,222L239,229L240,230L244,230L245,232L245,234L245,235L245,236L246,238L248,238L249,238L251,238Z " data-fips="TU38" data-hasc="TR.KY" data-name="Kayseri" data-postal="KY" data-varname=""/><path d="M237,222L238,221L241,217L241,216L241,214L241,212L239,210L238,208L238,206L239,204L239,203L240,201L239,200L239,199L239,197L238,196L236,195L236,194L235,192L234,191L233,190L231,189L229,189L228,190L229,191L229,192L229,194L229,196L230,198L230,199L229,200L228,201L226,202L223,203L223,205L223,206L222,207L219,206L220,209L219,211L218,212L218,214L220,215L221,215L223,215L223,217L222,219L223,221L224,221L225,222L225,223L227,223L229,223L231,223L233,224L234,224Z " data-fips="TU50" data-hasc="TR.NV" data-name="Nevsehir" data-postal="NV" data-varname="Nevsehir"/><path d="M271,308L271,306L272,304L273,304L274,303L275,303L276,302L276,297L276,296L276,295L277,296L278,296L279,295L282,296L284,295L284,294L284,293L283,292L282,292L282,291L282,290L281,289L280,287L280,286L281,285L281,284L281,282L281,281L282,279L282,278L283,277L283,275L283,275L282,275L282,273L280,273L278,271L276,271L275,271L274,270L273,269L272,269L271,269L270,269L268,269L267,269L266,269L263,272L264,274L264,273L265,272L266,272L267,272L268,273L269,274L271,276L271,277L271,280L272,281L271,282L270,283L267,285L265,287L264,288L263,289L262,290L262,291L261,291L260,293L261,294L262,295L262,296L263,297L265,300L265,303L264,306L265,306L266,307L266,308L268,308L270,309Z " data-fips="TU31" data-hasc="TR.HT" data-name="Hatay" data-postal="HT" data-varname=""/><path d="M251,162L253,161L254,160L255,159L257,159L257,158L258,157L259,155L260,153L261,152L263,152L265,153L267,153L268,154L270,153L272,151L273,150L275,149L276,147L276,146L276,145L277,144L276,142L275,141L275,140L273,138L272,136L271,135L270,136L269,137L268,139L267,139L266,140L265,140L263,140L259,139L256,139L255,138L251,134L249,135L241,133L242,133L241,135L240,136L240,139L240,142L241,145L243,146L247,147L249,148L250,149L251,150L251,151L250,154L248,157L248,159L247,161L248,161L248,162L250,162Z " data-fips="TU05" data-hasc="TR.AM" data-name="Amasya" data-postal="AM" data-varname=""/><path d="M216,171L220,171L223,170L225,169L229,170L231,169L232,169L234,169L238,167L240,168L241,168L243,166L244,165L244,163L244,162L246,162L247,161L248,159L248,157L250,154L251,151L251,150L250,149L249,148L247,147L243,146L241,145L240,142L240,139L240,136L241,135L242,133L241,133L240,132L238,133L238,131L238,130L238,129L236,127L236,128L235,129L232,127L231,126L229,126L228,126L226,126L226,125L224,125L224,126L223,128L221,130L220,132L219,133L219,135L221,136L220,138L217,139L216,142L215,143L215,145L215,146L215,147L216,149L216,150L216,151L217,153L217,155L217,156L216,157L216,158L215,159L213,161L214,164L215,165L216,166L216,167L215,169L215,170L215,172Z " data-fips="TU19" data-hasc="TR.CM" data-name="orum" data-postal="CM" data-varname=""/><path d="M339,165L340,165L340,163L339,163L339,161L339,160L339,159L340,157L343,155L342,154L341,152L338,152L337,151L337,150L337,148L338,147L339,146L338,145L339,143L341,143L341,141L344,140L344,137L344,135L344,131L343,131L341,132L338,132L337,133L335,134L334,134L333,135L332,135L331,135L330,135L329,136L327,137L325,136L324,137L322,136L320,136L319,136L318,136L318,136L318,137L318,138L317,139L317,141L317,141L318,143L317,144L318,145L317,146L317,148L320,150L322,158L322,160L323,161L324,162L326,163L328,164L330,163L333,164L337,165Z " data-fips="TU28" data-hasc="TR.GI" data-name="Giresun" data-postal="GI" data-varname="Kerasund"/><path d="M311,156L312,155L313,154L315,154L316,153L316,152L317,151L319,151L320,150L317,148L317,146L318,145L317,144L318,143L317,141L317,141L317,139L318,138L318,137L318,136L318,136L318,136L315,135L313,135L312,135L311,134L310,132L309,131L308,131L307,130L306,131L306,132L305,133L304,133L303,133L302,132L300,132L299,131L298,131L296,130L293,130L293,130L292,132L291,134L290,136L288,137L286,138L285,139L284,139L283,139L282,141L283,142L284,142L285,143L287,144L289,144L290,145L292,145L294,145L296,145L301,149L305,149L306,151L306,153L308,155L310,157Z " data-fips="TU52" data-hasc="TR.OR" data-name="Ordu" data-postal="OR" data-varname=""/><path d="M236,128L236,127L237,126L238,125L239,124L240,123L241,123L242,122L243,123L243,125L244,126L245,126L247,127L248,127L249,127L250,126L252,126L251,123L251,121L251,119L251,118L251,116L252,114L251,114L250,113L249,112L248,112L246,111L245,110L244,109L244,108L243,107L242,106L241,104L242,103L242,102L243,101L245,101L243,100L243,101L241,101L240,100L240,99L239,99L238,99L238,100L237,101L236,102L235,102L234,103L233,104L232,104L228,103L227,103L225,103L222,104L220,103L220,105L219,107L218,108L218,110L219,110L221,110L223,111L226,111L227,111L229,113L228,116L226,117L226,118L226,119L226,121L226,125L226,126L228,126L229,126L231,126L232,127L235,129Z " data-fips="TU57" data-hasc="TR.SP" data-name="Sinop" data-postal="SP" data-varname=""/><path d="M300,215L302,213L303,212L305,211L306,209L307,207L306,206L306,204L306,203L306,201L307,201L309,202L312,202L313,201L314,201L314,200L315,199L317,199L319,199L321,199L323,198L324,197L326,196L327,195L327,194L327,193L327,192L326,190L326,189L326,188L327,187L328,186L328,185L327,184L326,183L326,182L326,181L326,178L327,176L328,175L329,174L330,174L330,172L328,173L326,173L326,172L327,169L328,168L329,169L330,170L331,169L333,168L334,168L335,168L336,167L333,164L330,163L328,164L326,163L324,162L323,161L322,160L322,158L320,150L319,151L317,151L316,152L316,153L315,154L313,154L312,155L311,156L310,157L308,155L306,153L305,155L303,158L301,158L300,159L299,160L297,160L295,160L293,160L289,161L288,162L285,161L284,162L283,162L283,164L282,166L282,168L281,168L277,170L273,170L267,171L268,174L269,176L270,177L270,178L270,181L268,183L266,185L265,186L264,187L263,188L262,189L261,190L260,191L262,191L263,192L263,193L265,194L268,196L270,196L272,195L277,196L278,197L279,197L282,196L284,196L286,197L288,198L289,201L288,204L288,205L287,206L287,209L286,212L285,213L285,214L288,215L292,215L293,216Z " data-fips="TU58" data-hasc="TR.SV" data-name="Sivas" data-postal="SV" data-varname=""/><path d="M266,140L267,139L268,139L269,137L270,136L271,135L272,136L273,138L278,139L280,138L281,138L283,139L284,139L285,139L286,138L288,137L290,136L291,134L292,132L293,130L293,130L293,130L292,129L290,128L290,127L290,126L289,125L285,123L283,123L281,123L280,123L279,124L279,125L277,126L276,127L275,127L274,127L274,126L273,125L272,124L270,123L269,121L268,120L267,119L267,118L268,117L268,115L267,114L265,112L263,111L263,112L262,113L262,112L263,111L262,112L260,112L258,113L256,113L255,114L254,114L252,114L251,116L251,118L251,119L251,121L251,123L252,126L250,126L249,127L248,127L247,127L245,126L244,126L243,125L243,123L242,122L241,123L240,123L239,124L238,125L237,126L238,129L238,130L238,131L238,133L240,132L241,133L249,135L251,134L255,138L256,139L259,139L263,140L265,140Z " data-fips="TU55" data-hasc="TR.SS" data-name="Samsun" data-postal="SS" data-varname=""/><path d="M273,170L277,170L281,168L282,168L282,166L283,164L283,162L284,162L285,161L288,162L289,161L293,160L295,160L297,160L299,160L300,159L301,158L303,158L305,155L306,153L306,151L305,149L301,149L296,145L294,145L292,145L290,145L289,144L287,144L285,143L284,142L283,142L282,141L281,138L280,138L278,139L275,140L275,141L276,142L277,144L276,145L276,146L276,147L275,149L273,150L272,151L270,153L268,154L267,153L265,153L263,152L261,152L260,153L259,155L258,157L257,158L257,159L255,159L254,160L253,161L254,165L256,166L258,166L260,166L262,166L263,166L264,165L265,165L266,166L266,168L266,169L266,170L267,171Z " data-fips="TU60" data-hasc="TR.TT" data-name="Tokat" data-postal="TT" data-varname=""/><path d="M404,144L407,142L408,142L410,142L413,143L414,141L414,140L414,138L415,137L416,136L415,134L416,133L417,132L419,132L421,132L422,131L423,131L425,128L427,125L429,124L429,121L428,119L428,118L427,117L427,115L426,114L426,114L422,112L420,112L419,112L418,112L417,112L415,113L414,112L412,113L412,114L410,115L409,114L408,114L407,113L406,113L403,113L401,115L401,116L400,117L398,118L397,118L395,120L395,120L396,122L396,123L397,124L398,125L399,126L400,127L401,128L400,129L399,130L398,132L397,132L395,135L397,138L401,138L401,139L400,141L400,143L402,145Z " data-fips="TU08" data-hasc="TR.AV" data-name="Artvin" data-postal="AV" data-varname="oruh"/><path d="M417,191L418,190L419,189L422,188L423,187L425,186L425,184L425,183L425,181L430,179L431,179L432,177L432,176L432,171L432,170L428,169L427,166L430,166L431,164L433,164L433,162L432,160L431,159L430,159L429,159L428,157L427,157L424,156L423,155L422,154L423,152L426,151L428,150L429,149L429,148L430,148L431,147L431,144L431,142L431,141L430,140L429,139L428,138L427,137L427,136L426,135L424,133L423,131L422,131L421,132L419,132L417,132L416,133L415,134L416,136L415,137L414,138L414,140L414,141L413,143L410,142L408,142L407,142L404,144L402,145L400,143L400,141L401,139L401,138L397,138L393,138L390,141L389,141L387,141L387,143L385,144L384,144L383,145L380,149L381,153L382,155L383,156L386,157L388,157L387,159L386,160L383,161L382,162L381,163L379,164L374,166L374,167L375,168L380,168L382,170L382,172L383,173L384,174L385,174L386,175L385,177L384,178L384,180L387,181L390,179L391,179L394,181L396,182L397,182L399,183L404,184L406,184L407,185L410,187L412,190L414,191Z " data-fips="TU25" data-hasc="TR.EM" data-name="Erzurum" data-postal="EM" data-varname=""/><path d="M336,197L336,195L337,195L337,193L338,192L339,191L338,190L339,189L340,188L341,187L342,187L343,185L346,184L347,184L349,184L350,184L351,183L353,183L355,184L357,184L361,183L363,182L364,181L365,180L366,181L368,181L371,180L372,180L373,179L375,180L378,180L381,180L384,180L384,178L385,177L386,175L385,174L384,174L383,173L382,172L382,170L380,168L375,168L374,167L374,166L370,163L369,164L368,165L367,165L366,165L364,165L363,167L362,168L359,169L358,170L357,170L355,170L354,170L352,170L350,169L349,169L348,168L347,167L346,167L343,166L341,165L340,165L339,165L337,165L336,167L335,168L334,168L333,168L331,169L330,170L329,169L328,168L327,169L326,172L326,173L328,173L330,172L330,174L329,174L328,175L327,176L326,178L326,181L326,182L326,183L327,184L328,185L328,186L327,187L326,188L326,189L326,190L327,192L327,193L327,194L327,195L326,196L329,197L331,197L332,198L333,198L337,199Z " data-fips="TU24" data-hasc="TR.EN" data-name="Erzincan" data-postal="EN" data-varname=""/><path d="M383,145L384,144L385,144L387,143L387,141L389,141L390,141L393,138L395,135L397,132L398,132L399,130L400,129L401,128L400,127L399,126L398,125L397,124L396,123L396,122L395,120L395,120L395,120L394,121L393,121L392,122L391,123L389,124L388,125L386,124L385,126L382,128L381,129L380,129L379,130L377,130L375,132L376,134L376,136L377,138L379,142L379,145Z " data-fips="TU53" data-hasc="TR.RI" data-name="Rize" data-postal="RI" data-varname=""/><path d="M372,148L374,148L375,147L377,147L379,145L379,142L377,138L376,136L376,134L375,132L373,133L372,134L370,134L369,135L367,134L365,133L364,134L362,134L361,132L360,132L358,132L357,133L356,132L355,132L354,131L353,129L350,130L348,131L347,131L345,131L344,131L344,135L344,137L344,140L345,141L346,140L347,141L348,143L350,144L356,147L357,147L358,146L359,144L361,145L363,147L363,146L364,146L366,147L367,148L369,148L371,148Z " data-fips="TU61" data-hasc="TR.TB" data-name="Trabzon" data-postal="TB" data-varname="Trapezunt|Trebizond|Trebizonda|Trbizonde"/><path d="M440,193L441,193L442,192L446,190L450,188L450,187L450,186L450,185L448,184L447,184L448,183L451,182L451,180L452,180L454,179L456,180L458,182L459,182L461,182L462,182L464,181L466,181L467,181L469,181L470,181L473,180L473,180L473,178L474,178L475,178L477,177L479,178L480,178L481,177L482,176L482,175L482,173L482,172L482,171L483,169L482,168L481,168L477,170L475,170L473,169L470,170L468,170L468,169L466,169L464,168L463,167L462,166L461,165L460,165L459,165L457,165L455,167L454,166L453,164L453,162L453,161L451,160L450,161L449,160L446,161L438,163L433,164L431,164L430,166L427,166L428,169L432,170L432,171L432,176L432,177L431,179L432,181L433,182L434,183L435,184L436,185L437,187L438,190L437,191L437,193L439,194Z " data-fips="TU04" data-hasc="TR.AG" data-name="Agri" data-postal="AG" data-varname="Agri|Karakse"/><path d="M382,216L383,214L383,212L384,212L388,211L389,211L394,211L395,211L398,208L401,207L403,206L402,205L401,204L401,203L400,201L400,199L402,196L402,195L402,193L401,192L400,191L400,190L400,188L399,186L399,183L397,182L396,182L394,181L391,179L390,179L387,181L384,180L382,181L380,182L378,182L378,184L376,185L375,185L374,185L373,187L371,187L370,188L370,190L369,191L370,194L370,195L370,196L375,192L378,191L379,193L378,195L377,197L377,199L377,202L379,203L380,205L379,206L379,207L379,208L377,208L376,211L378,213L378,215L381,216Z " data-fips="TU12" data-hasc="TR.BG" data-name="Bingl" data-postal="BG" data-varname="apakur"/><path d="M375,250L376,249L379,247L380,246L383,244L385,244L386,241L389,240L398,240L400,239L399,238L399,237L399,235L400,234L401,233L402,229L403,227L403,225L402,222L403,220L403,218L403,216L404,216L405,215L407,214L408,214L406,212L406,210L406,209L404,208L403,206L401,207L398,208L395,211L394,211L389,211L388,211L384,212L383,212L383,214L382,216L381,216L369,217L368,216L366,216L366,217L365,219L365,220L363,220L361,220L359,221L356,222L355,222L353,222L351,222L347,222L348,224L350,227L351,228L351,229L350,231L350,232L352,233L354,234L355,234L357,234L359,236L360,237L362,238L363,239L365,239L366,239L367,240L368,240L368,244L368,247L369,248L370,251L371,252L372,254Z " data-fips="TU21" data-hasc="TR.DY" data-name="Diyarbakir" data-postal="DY" data-varname="Diyarbakir"/><path d="M410,212L410,211L414,209L419,209L421,208L422,206L423,205L423,204L422,203L422,202L425,201L426,199L427,199L428,198L430,197L434,197L436,196L437,193L437,191L438,190L437,187L436,185L435,184L434,183L433,182L432,181L431,179L430,179L425,181L425,183L425,184L425,186L423,187L422,188L419,189L418,190L417,191L414,191L412,190L410,187L407,185L406,184L404,184L399,186L400,188L400,190L400,191L401,192L402,193L402,195L402,196L400,199L400,201L401,203L401,204L402,205L403,206L404,208L406,209L406,210L406,212L409,212Z " data-fips="TU49" data-hasc="TR.MS" data-name="Mus" data-postal="MS" data-varname="Mus"/><path d="M443,230L443,228L443,227L443,226L443,225L444,224L443,221L442,220L442,218L442,217L441,214L441,212L444,211L445,209L446,208L446,207L448,204L450,202L451,200L452,198L451,196L447,195L447,193L446,190L442,192L441,193L440,193L439,194L436,196L434,197L430,197L428,198L427,199L426,199L425,201L422,202L422,203L423,204L423,205L422,206L421,208L419,209L414,209L410,211L410,212L412,212L414,217L414,219L415,220L415,221L418,223L420,224L423,223L425,222L427,222L428,224L430,225L432,226L434,226L435,226L437,227L440,229L442,230Z " data-fips="TU13" data-hasc="TR.BT" data-name="Bitlis" data-postal="BT" data-varname=""/><path d="M203,212L205,212L208,212L209,211L211,209L211,207L210,205L211,202L211,201L210,201L208,200L207,200L206,199L204,197L201,195L201,193L201,188L201,183L201,179L200,178L199,176L200,173L201,173L204,172L205,171L206,170L205,169L204,168L202,166L202,164L202,162L203,160L199,156L197,155L197,157L195,157L193,156L193,155L192,154L190,152L189,152L188,151L188,149L187,148L180,145L178,144L176,144L174,145L174,147L175,150L173,152L173,153L170,154L167,153L166,154L165,154L162,155L160,156L158,156L155,156L151,157L150,156L148,156L148,155L143,155L141,154L139,153L138,155L138,157L137,158L135,160L134,163L134,165L135,166L136,166L138,165L140,165L141,166L143,165L145,165L146,165L147,166L149,166L150,166L152,166L154,167L155,167L155,168L156,170L156,171L158,172L158,173L159,174L158,175L158,177L159,180L160,181L160,183L161,184L161,186L161,187L161,188L161,189L161,190L162,192L161,193L160,194L158,195L157,195L158,196L160,197L164,200L167,199L168,199L171,201L172,202L173,202L175,200L176,200L178,201L180,200L181,199L183,197L185,197L186,198L188,198L188,196L189,194L190,195L191,196L193,196L195,198L197,201L197,203L197,205L196,207L196,209L197,210L197,212L198,213L201,214Z " data-fips="TU68" data-hasc="TR.AN" data-name="Ankara" data-postal="AN" data-varname="Ancara|Angora"/><path d="M215,159L216,158L216,157L217,156L217,155L217,153L216,151L216,150L216,149L215,147L215,146L215,145L215,143L216,142L213,140L212,140L211,139L211,138L209,138L208,136L209,135L210,133L210,132L209,132L204,134L202,134L200,136L199,136L198,136L197,135L194,133L191,133L190,132L189,130L188,130L187,130L186,131L183,130L183,131L183,133L182,134L177,133L175,133L174,134L171,134L170,136L171,137L173,137L175,139L176,141L176,143L176,144L178,144L180,145L187,148L188,149L188,151L189,152L190,152L192,154L193,155L193,156L195,157L197,157L197,155L199,156L210,160Z " data-fips="TU82" data-hasc="TR.CI" data-name="ankiri" data-postal="CI" data-varname="ankiri|Changra"/><path d="M174,134L175,133L177,133L182,134L183,133L183,131L183,130L186,131L187,130L186,126L187,125L188,123L189,122L189,120L188,119L188,117L187,116L185,116L184,115L184,113L183,111L182,109L182,107L181,106L181,107L179,106L178,107L177,107L175,108L174,109L173,109L173,110L171,110L170,111L168,113L167,114L165,115L164,116L160,117L155,120L151,122L150,123L149,123L148,124L149,124L148,125L148,127L148,128L147,128L148,129L152,132L160,133L161,133L168,134L171,134Z " data-fips="TU85" data-hasc="TR.ZO" data-name="Zinguldak" data-postal="ZO" data-varname="Zonguldak"/><path d="M173,277L177,274L178,272L178,271L176,270L175,270L175,268L175,266L178,263L181,259L185,255L186,254L188,253L192,252L197,252L199,251L201,249L201,248L203,248L205,248L206,248L206,250L207,253L210,256L212,258L214,260L215,263L217,263L220,262L222,261L223,260L225,259L226,258L225,256L224,255L223,252L223,251L224,249L224,247L224,246L223,244L222,243L221,242L220,240L219,240L218,239L217,238L217,236L215,236L213,236L211,237L209,237L206,237L202,237L199,238L198,238L197,237L195,235L195,233L194,231L193,229L193,226L194,225L194,224L195,222L196,220L196,218L197,217L198,215L198,213L197,212L197,210L196,209L196,207L197,205L197,203L197,201L195,198L193,196L191,196L190,195L189,194L188,196L188,198L186,198L185,197L183,197L181,199L180,200L178,201L176,200L175,200L173,202L172,202L171,201L168,199L167,199L164,200L160,197L158,196L157,195L157,197L154,198L153,200L153,202L153,203L151,207L150,208L150,210L150,211L147,215L145,217L141,222L143,224L145,226L146,228L148,229L150,231L149,232L148,233L146,234L145,234L144,236L145,239L145,241L144,243L143,245L142,246L141,246L141,247L142,248L142,250L142,252L142,255L143,256L144,256L147,256L154,258L156,260L158,261L159,263L161,264L162,266L163,267L163,267L165,269L166,269L167,270L167,271L166,272L168,274L169,274L170,275L171,277L170,280Z " data-fips="TU71" data-hasc="TR.KO" data-name="Konya" data-postal="KO" data-varname="Konieh|Kunja"/><path d="M182,287L184,287L185,287L187,286L187,285L188,284L189,284L190,285L191,284L190,283L189,282L188,282L187,280L186,279L186,278L185,277L185,276L186,275L187,275L188,274L190,275L190,274L191,273L191,272L192,272L193,271L194,270L195,270L196,269L200,269L202,268L204,268L206,268L207,268L209,268L211,266L212,265L214,265L215,263L214,260L212,258L210,256L207,253L206,250L206,248L205,248L203,248L201,248L201,249L199,251L197,252L192,252L188,253L186,254L185,255L181,259L178,263L175,266L175,268L175,270L176,270L178,271L178,272L177,274L173,277L170,280L171,282L172,284L173,285L174,286L175,287L175,288L177,287L179,288L181,288Z " data-fips="TU78" data-hasc="TR.KR" data-name="Karaman" data-postal="KR" data-varname=""/><path d="M90,223L92,222L94,222L96,222L97,222L98,221L97,219L98,217L101,217L102,215L102,214L103,212L104,211L105,210L105,205L104,203L100,202L99,202L97,203L97,204L96,206L94,206L91,207L89,207L87,206L86,205L84,205L83,206L82,207L80,209L78,210L78,211L79,213L79,214L79,216L79,217L78,218L77,220L77,221L79,222L81,222L82,223L83,223L85,223L87,224L88,224L90,224Z " data-fips="TU64" data-hasc="TR.US" data-name="Usak" data-postal="US" data-varname="Usak"/><path d="M295,281L297,281L299,281L304,281L305,281L309,279L310,278L315,277L319,275L320,274L320,273L320,272L320,271L320,270L319,269L318,268L318,267L317,267L316,266L316,265L316,264L315,263L315,262L316,261L315,260L315,258L316,258L316,256L317,256L319,254L318,252L315,251L312,251L309,251L309,252L309,253L309,255L308,256L306,256L304,256L301,257L297,258L296,259L293,261L291,261L291,258L289,257L288,259L285,260L284,262L283,263L281,266L279,269L278,270L278,271L280,273L282,273L282,275L283,275L283,275L288,277L290,277L291,277L292,278L293,279L293,280L293,281L295,282Z " data-fips="TU83" data-hasc="TR.GA" data-name="Gaziantep" data-postal="GA" data-varname=""/><path d="M353,279L358,277L367,275L373,273L375,271L376,271L377,270L378,270L380,269L380,269L379,268L376,264L376,260L374,259L374,258L373,258L372,254L371,252L370,251L369,248L368,247L368,244L368,240L367,240L366,239L365,239L363,239L362,238L360,237L359,236L357,234L355,234L354,234L352,233L350,232L349,233L347,234L346,234L346,236L344,237L344,239L344,240L343,240L342,241L343,241L344,242L343,242L342,243L343,244L342,244L341,244L340,244L342,246L336,247L335,248L332,251L329,252L326,252L325,253L324,253L324,254L322,254L321,253L320,254L319,254L317,256L316,256L316,258L315,258L315,260L316,261L315,262L315,263L316,264L316,265L316,266L317,267L318,267L318,268L319,269L320,270L320,271L320,272L320,273L320,274L323,272L325,271L327,272L332,273L334,274L337,277L337,277L339,278L341,278L346,278L347,278L351,279Z " data-fips="TU63" data-hasc="TR.SU" data-name="Sanliurfa" data-postal="SU" data-varname="Sanliurfa|Urfa"/><path d="M249,284L250,284L251,283L252,283L253,284L252,283L253,283L254,284L255,283L256,282L256,281L257,280L255,281L256,280L257,279L256,279L255,280L254,279L256,279L256,278L257,278L259,277L261,277L262,276L263,275L264,274L263,272L266,269L267,269L268,269L270,269L271,269L272,269L273,269L274,270L275,271L276,271L278,271L278,270L279,269L281,266L283,263L284,262L285,260L284,259L282,257L281,257L280,256L278,257L276,257L275,257L274,257L273,256L272,254L272,254L271,253L272,252L272,251L273,250L273,247L274,246L275,245L275,244L274,242L274,240L274,239L274,237L275,235L276,229L277,226L277,224L277,222L276,221L274,220L272,221L270,222L269,223L268,226L267,227L266,229L265,231L255,238L254,238L251,238L249,238L248,238L246,238L245,238L244,240L244,242L240,246L238,246L237,246L235,246L234,247L234,249L235,251L235,253L234,253L233,255L234,259L235,261L236,262L237,265L237,267L238,268L240,268L241,269L240,271L240,273L241,275L241,277L240,277L238,278L237,279L237,279L238,279L240,280L247,284L248,285Z " data-fips="TU81" data-hasc="TR.AA" data-name="Adana" data-postal="AA" data-varname="Seyhan"/><path d="M204,188L208,185L210,182L211,179L215,175L215,173L215,172L215,170L215,169L216,167L216,166L215,165L214,164L213,161L210,160L203,160L202,162L202,164L202,166L204,168L205,169L206,170L205,171L204,172L201,173L200,173L199,176L200,178L201,179L201,183L201,188L201,193Z " data-fips="TU79" data-hasc="TR.KK" data-name="Kinkkale" data-postal="KK" data-varname="Kirikkale"/><path d="M228,258L230,257L231,256L233,255L234,253L235,253L235,251L234,249L234,247L235,246L237,246L238,246L240,246L244,242L244,240L245,238L246,238L245,236L245,235L245,234L245,232L244,230L240,230L239,229L234,224L233,224L231,223L229,223L227,223L225,223L217,236L217,238L218,239L219,240L220,240L221,242L222,243L223,244L224,246L224,247L224,249L223,251L223,252L224,255L225,256L226,258Z " data-fips="TU73" data-hasc="TR.NG" data-name="Nigde" data-postal="NG" data-varname="Nigde"/><path d="M202,237L206,237L209,237L211,237L213,236L215,236L217,236L225,223L225,222L224,221L223,221L222,219L223,217L223,215L221,215L220,215L218,214L218,212L219,211L220,209L219,206L217,205L215,206L214,205L214,204L213,203L211,203L211,202L210,205L211,207L211,209L209,211L208,212L205,212L203,212L201,214L198,215L197,217L196,218L196,220L195,222L194,224L194,225L193,226L193,229L194,231L195,233L195,235L197,237L198,238L199,238Z " data-fips="TU75" data-hasc="TR.AK" data-name="Aksaray" data-postal="AK" data-varname=""/><path d="M249,200L250,200L258,194L260,191L261,190L262,189L263,188L264,187L265,186L266,185L268,183L270,181L270,178L270,177L269,176L268,174L267,171L266,170L266,169L266,168L266,166L265,165L264,165L263,166L262,166L260,166L258,166L256,166L254,165L251,162L250,162L248,162L248,161L247,161L246,162L244,162L244,163L244,165L243,166L241,168L240,168L238,167L234,169L232,169L231,169L229,170L225,169L223,170L220,171L216,171L215,172L215,173L215,175L216,176L218,176L219,177L220,179L221,179L223,179L224,180L228,186L229,186L230,187L232,188L233,190L234,191L235,192L236,194L236,195L238,196L239,197L239,199L239,200L240,201L246,202Z " data-fips="TU66" data-hasc="TR.YZ" data-name="Yozgat" data-postal="YZ" data-varname=""/><path d="M355,170L357,170L358,170L359,169L362,168L363,167L364,165L363,163L362,161L362,160L363,159L363,157L363,152L361,145L359,144L358,146L357,147L356,147L350,144L348,143L347,141L346,140L345,141L341,141L341,143L339,143L338,145L339,146L338,147L337,148L337,150L337,151L338,152L341,152L342,154L343,155L340,157L339,159L339,160L339,161L339,163L340,163L340,165L341,165L343,166L346,167L347,167L348,168L349,169L350,169L352,170L354,170Z " data-fips="TU69" data-hasc="TR.GU" data-name="Gmshane" data-postal="GU" data-varname="Gmshane"/><path d="M366,165L367,165L368,165L369,164L370,163L379,164L381,163L382,162L383,161L386,160L387,159L388,157L386,157L383,156L382,155L381,153L380,149L377,147L375,147L374,148L372,148L371,148L369,148L367,148L366,147L364,146L363,146L363,147L363,152L363,157L363,159L362,160L362,161L363,163L364,165Z " data-fips="TU77" data-hasc="TR.BB" data-name="Bayburt" data-postal="BB" data-varname=""/><path d="M473,169L475,170L477,170L481,168L482,168L483,169L483,168L483,167L485,164L486,164L487,166L490,167L492,167L491,166L490,165L488,163L487,163L486,162L485,161L485,160L484,159L482,158L478,156L476,156L474,157L473,157L472,157L471,158L468,157L465,156L462,156L461,155L461,154L462,153L461,151L461,150L460,148L458,147L459,146L459,145L458,144L457,143L458,142L459,141L460,140L460,137L461,136L461,134L460,133L459,130L458,129L458,128L457,127L456,126L455,125L453,125L452,124L452,122L452,121L451,120L449,120L446,120L446,119L445,118L443,118L445,117L445,116L444,116L442,115L440,114L439,112L438,112L437,111L436,111L435,111L434,110L435,109L435,108L431,108L429,108L429,109L429,111L428,112L426,114L427,115L427,117L428,118L428,119L429,121L429,124L427,125L425,128L423,131L424,133L426,135L427,136L427,137L428,138L429,139L430,140L431,141L431,142L431,144L431,147L430,148L429,148L429,149L428,150L426,151L423,152L422,154L423,155L424,156L427,157L428,157L429,159L430,159L431,159L432,160L433,162L438,163L446,161L449,160L450,161L451,160L453,161L453,162L453,164L454,166L455,167L457,165L459,165L460,165L461,165L462,166L463,167L464,168L466,169L468,169L468,170L470,170Z " data-fips="TU84" data-hasc="TR.KA" data-name="Kars" data-postal="KA" data-varname=""/><path d="M383,266L384,265L386,265L387,265L390,262L392,262L397,261L403,262L405,262L412,261L423,258L423,258L422,256L421,255L418,254L417,253L418,251L420,250L422,249L423,246L422,243L415,243L412,246L408,247L405,245L403,241L401,239L400,239L398,240L389,240L386,241L385,244L383,244L380,246L379,247L376,249L375,250L372,254L373,258L374,258L374,259L376,260L376,264L379,268L380,269L380,269Z " data-fips="TU72" data-hasc="TR.MR" data-name="Mardin" data-postal="MR" data-varname=""/><path d="M412,246L415,243L417,236L412,235L409,232L408,230L409,229L412,228L413,226L414,224L415,221L415,220L414,219L414,217L412,212L410,212L409,212L408,214L407,214L405,215L404,216L403,216L403,218L403,220L402,222L403,225L403,227L402,229L401,233L400,234L399,235L399,237L399,238L400,239L401,239L403,241L405,245L408,247Z " data-fips="TU76" data-hasc="TR.BM" data-name="Batman" data-postal="BM" data-varname=""/><path d="M431,239L434,239L440,240L445,240L450,240L451,238L452,236L450,234L451,232L451,230L451,229L451,227L451,226L451,225L450,222L448,222L446,221L444,224L443,225L443,226L443,227L443,228L443,230L442,230L440,229L437,227L435,226L434,226L432,226L430,225L428,224L427,222L425,222L423,223L420,224L418,223L414,224L413,226L412,228L409,229L408,230L409,232L412,235L417,236L424,241L429,241Z " data-fips="TU74" data-hasc="TR.SI" data-name="Siirt" data-postal="SI" data-varname=""/><path d="M437,258L438,258L439,257L441,257L441,256L442,255L444,250L445,249L446,249L447,250L449,250L450,250L452,249L453,249L454,248L455,248L460,250L461,249L462,250L462,249L463,247L463,244L461,242L461,240L461,238L461,235L460,236L458,236L456,235L454,235L452,236L451,238L450,240L445,240L440,240L434,239L431,239L429,241L424,241L422,243L423,246L422,249L420,250L418,251L417,253L418,254L421,255L422,256L423,258L423,258L426,257L427,256L429,254L430,252L431,252L432,253L433,253L434,253L435,255L435,257L436,259Z " data-fips="TU80" data-hasc="TR.SR" data-name="Sirnak" data-postal="SR" data-varname="Sirnak"/><path d="M357,207L357,206L359,206L362,206L364,205L366,203L366,201L367,200L366,199L366,197L367,196L368,196L370,196L370,195L370,194L369,191L370,190L370,188L371,187L373,187L374,185L375,185L376,185L378,184L378,182L380,182L382,181L381,180L378,180L375,180L373,179L372,180L371,180L368,181L366,181L365,180L364,181L363,182L361,183L357,184L355,184L353,183L351,183L350,184L349,184L347,184L346,184L343,185L342,187L341,187L340,188L339,189L338,190L339,191L338,192L337,193L337,195L336,195L336,197L337,199L338,201L337,203L339,205L341,204L343,204L345,204L346,204L347,205L348,205L349,205L351,206L352,206L353,207L354,208L355,208Z " data-fips="TU62" data-hasc="TR.TC" data-name="Tunceli" data-postal="TC" data-varname=""/><path d="M488,258L489,256L491,255L492,254L493,253L494,252L494,251L496,251L499,251L500,251L499,250L499,249L500,248L499,246L498,245L497,244L496,244L495,243L493,242L493,241L493,240L493,238L493,237L492,236L492,234L493,233L492,232L491,231L489,231L488,231L488,230L487,229L487,229L485,228L483,229L482,228L482,228L480,228L478,228L477,230L477,232L475,233L474,233L472,234L471,233L470,233L468,234L465,235L461,235L461,238L461,240L461,242L463,244L463,247L462,249L462,250L462,250L463,250L465,251L466,251L467,251L469,252L471,251L473,252L474,252L475,252L476,251L477,250L478,249L478,248L480,248L481,248L484,249L485,250L486,251L486,252L485,253L484,254L484,256L486,258L487,259Z " data-fips="TU70" data-hasc="TR.HK" data-name="Hakkari" data-postal="HK" data-varname=""/><path d="M454,235L456,235L458,236L460,236L461,235L465,235L468,234L470,233L471,233L472,234L474,233L475,233L477,232L477,230L478,228L480,228L482,228L482,228L482,227L483,226L483,225L483,224L484,223L484,221L485,221L485,220L486,219L486,217L485,216L486,215L487,214L487,212L487,211L486,211L485,212L483,211L483,210L483,209L483,207L482,205L482,203L482,202L481,201L481,201L481,199L481,196L479,195L479,195L478,194L478,193L477,192L477,191L478,190L477,188L478,186L477,185L475,185L475,183L474,182L474,181L473,180L470,181L469,181L467,181L466,181L464,181L462,182L461,182L459,182L458,182L456,180L454,179L452,180L451,180L451,182L448,183L447,184L448,184L450,185L450,186L450,187L450,188L446,190L447,193L447,195L451,196L452,198L451,200L450,202L448,204L446,207L446,208L445,209L444,211L441,212L441,214L442,217L442,218L442,220L443,221L446,221L448,222L450,222L451,225L451,226L451,227L451,229L451,230L451,232L450,234L452,236Z " data-fips="TU65" data-hasc="TR.VA" data-name="Van" data-postal="VA" data-varname=""/></g></svg>