<?xml version="1.0" ?><!DOCTYPE svg  PUBLIC '-//W3C//DTD SVG 1.1//EN'  'http://www.w3.org/Graphics/SVG/1.1/DTD/svg11.dtd'><svg enable_background="new 0 0 500 401" height="401px" style="stroke-linejoin: round; stroke:#000; fill:#f6f3f0;" version="1.1" viewBox="0 0 500 401" width="500px" xmlns="http://www.w3.org/2000/svg" xmlns:xlink="http://www.w3.org/1999/xlink"><defs><style type="text/css"><![CDATA[path { fill-rule: evenodd; }
#context path { fill: #eee; stroke: #bbb; } ]]></style></defs><metadata><views><view h="401" padding="0" w="500"><proj id="laea" lat0="15.807" lon0="48.355"/><bbox h="84.67" w="143.62" x="930.88" y="960.27"/><llbbox lat0="-90" lat1="90" lon0="-180" lon1="180"/></view></views></metadata><g id="admin1"><path d="M70,152L70,150L72,147L73,147L74,146L75,146L76,145L77,144L78,143L79,142L81,139L82,139L87,136L90,135L92,135L95,135L97,135L101,133L102,120L88,119L85,120L84,120L81,120L79,120L75,120L71,121L69,120L68,120L67,121L66,123L64,122L62,121L61,122L60,123L59,124L58,123L57,122L56,122L54,122L52,122L51,122L49,121L47,117L45,116L41,115L39,114L37,115L34,117L30,120L28,122L30,123L31,124L31,126L29,126L28,127L27,128L27,130L26,132L26,133L26,135L26,137L25,139L25,140L26,142L27,144L28,144L29,145L29,146L28,147L27,148L28,149L28,150L28,150L29,151L36,153L37,153L40,153L45,154L51,152L53,151L54,151L56,151L58,152L63,154L64,154L66,154Z " data-fips="YM15" data-hasc="YE.SD" data-name="Sa`dah" data-postal="SD" data-varname="Sa'ada|Saadah|Sa'da|Saidah|Sa'adah"/><path d="M6,278L7,277L9,275L7,275L6,276L4,278L4,279Z M9,268L9,267L9,266L9,265L9,264L8,262L7,262L6,263L5,264L5,266L6,266L8,267L7,268Z M29,280L32,278L33,277L36,277L37,275L40,271L41,271L42,270L46,270L47,270L47,268L47,267L48,267L49,267L51,264L51,262L51,261L50,262L48,263L47,262L45,261L43,260L42,259L41,258L41,256L40,250L41,250L43,247L43,246L42,244L40,239L40,238L40,236L40,236L41,234L41,231L41,229L42,228L43,228L45,226L46,226L48,226L49,224L48,223L46,223L45,223L44,222L42,221L41,220L40,219L39,218L39,217L38,215L37,213L36,213L35,212L34,211L33,210L32,208L32,207L32,206L32,204L32,203L32,201L31,197L32,196L32,193L32,191L32,190L33,189L33,188L32,186L31,185L27,186L25,186L24,187L22,187L19,187L13,183L12,185L10,186L9,187L9,189L8,190L7,191L7,192L7,193L7,194L7,196L8,197L7,198L9,200L10,201L10,202L10,203L10,205L11,206L11,207L11,211L11,212L10,213L9,211L8,209L7,208L7,207L6,209L6,210L6,211L4,212L3,211L3,213L4,214L5,214L5,213L7,213L9,213L10,214L12,216L13,216L14,218L13,220L14,221L14,222L15,223L16,224L16,226L16,228L15,230L15,229L14,228L14,227L14,226L14,227L14,229L16,231L16,233L17,235L18,236L18,237L18,238L18,239L19,241L19,242L19,245L18,246L18,244L16,243L18,245L18,246L18,247L19,249L20,253L21,254L21,256L22,258L21,264L22,266L24,268L27,271L28,275L29,278L29,280Z M2,210L3,208L3,207L3,205L2,205L2,205L3,203L3,202L3,203L2,204L1,205L0,207L0,209L1,210Z " data-fips="YM08" data-hasc="YE.HU" data-name="Al Hudaydah" data-postal="HU" data-varname="Al Hodeida|Al-Hodeidah|Al Hudaidah|Hodiedah|Hudaidah"/><path d="M44,219L44,218L44,216L44,215L45,214L48,212L51,211L53,210L56,207L58,206L59,205L59,203L56,200L55,199L54,199L52,200L50,200L48,200L47,200L43,199L42,199L34,200L32,201L32,203L32,204L32,206L32,207L32,208L33,210L34,211L35,212L36,213L37,213L38,215L39,217L39,218L40,219L41,220L42,221Z " data-fips="YM10" data-hasc="YE.MW" data-name="Al Mahwit" data-postal="MW" data-varname="Almahweet|Mahweet"/><path d="M50,262L51,261L51,260L52,259L53,257L54,256L54,257L55,258L56,258L57,257L58,254L58,253L58,251L60,251L61,250L62,249L63,248L64,248L65,251L66,251L68,250L69,249L69,247L71,248L72,249L73,250L74,250L76,251L77,252L78,252L79,252L81,254L84,255L87,253L88,252L90,250L91,248L91,242L93,238L96,234L96,233L95,232L94,230L93,228L92,225L91,223L90,223L89,223L88,223L87,223L86,223L85,223L85,224L83,226L81,227L80,226L79,226L78,225L77,225L76,227L75,227L72,226L71,226L70,225L68,224L67,224L65,224L64,224L62,226L61,227L59,228L57,229L55,229L53,230L53,230L53,232L54,233L57,236L57,238L58,239L59,241L58,242L56,244L56,244L53,246L52,247L51,247L49,246L48,246L47,247L45,248L43,250L41,250L40,250L41,256L41,258L42,259L43,260L45,261L47,262L48,263Z " data-fips="YM11" data-hasc="YE.DH" data-name="Dhamar" data-postal="DH" data-varname=""/><path d="M34,200L42,199L43,199L47,200L48,200L49,198L49,197L49,196L50,195L51,195L52,194L53,193L53,191L52,190L52,189L52,186L52,185L51,183L50,181L49,181L47,183L47,181L48,181L48,180L47,175L47,174L46,172L45,171L45,170L45,169L45,167L45,161L45,154L40,153L37,153L36,153L29,151L28,150L28,150L28,150L27,151L25,151L24,150L24,151L23,153L22,156L21,157L18,158L16,159L16,160L16,161L15,162L13,162L11,163L12,164L12,166L12,169L13,175L13,177L13,183L19,187L22,187L24,187L25,186L27,186L31,185L32,186L33,188L33,189L32,190L32,191L32,193L32,196L31,197L32,201Z " data-fips="YM22" data-hasc="YE.HJ" data-name="Hajjah" data-postal="HJ" data-varname="Hajja"/><path d="M61,199L62,199L64,199L65,199L67,197L68,195L68,193L69,192L70,191L71,189L71,187L71,186L70,184L71,183L71,182L74,180L76,180L78,179L77,178L76,176L76,175L76,173L76,172L76,169L76,168L76,167L76,165L76,164L75,163L75,161L74,159L75,158L74,157L71,155L66,154L64,154L63,154L58,152L56,151L54,151L53,151L51,152L45,154L45,161L45,167L45,169L45,170L45,171L46,172L47,174L47,175L48,180L48,181L47,181L47,183L49,181L50,181L51,183L52,185L52,186L52,189L52,190L53,191L53,193L52,194L51,195L50,195L49,196L49,197L49,198L48,200L50,200L52,200L54,199L55,199L56,200L60,200Z " data-fips="YM00" data-hasc="YE.AM" data-name="Amran" data-postal="AM" data-varname="'Amran"/><path d="M73,279L75,278L76,277L76,275L77,274L78,272L79,272L80,270L80,269L81,268L82,268L84,268L85,267L84,265L85,264L86,262L87,262L89,261L89,260L88,259L87,258L87,256L84,255L81,254L79,252L78,252L77,252L76,251L74,250L73,250L72,249L71,248L69,247L69,249L68,250L66,251L65,251L64,248L63,248L62,249L61,250L60,251L58,251L58,253L58,254L57,257L56,258L55,258L54,257L54,256L53,257L52,259L51,260L51,261L51,262L51,264L49,267L48,267L47,267L47,268L47,270L46,270L47,272L49,272L50,272L52,272L55,272L55,273L57,273L57,274L57,275L62,276L64,276L65,277L68,278L71,279L72,279Z " data-fips="YM23" data-hasc="YE.IB" data-name="Ibb" data-postal="IB" data-varname=""/><path d="M58,326L59,326L61,326L63,325L64,324L66,324L65,325L64,325L66,326L68,325L70,325L73,324L74,323L75,324L75,324L78,319L80,318L84,317L93,315L100,313L104,313L104,313L106,303L109,295L111,293L110,292L109,291L109,290L109,288L110,286L113,283L112,282L110,282L110,281L111,280L112,279L112,278L113,277L114,276L116,276L116,274L116,272L118,268L117,266L116,266L114,267L113,268L111,269L106,274L104,276L102,277L100,278L97,279L96,279L95,279L95,283L95,284L93,285L91,284L90,285L88,286L86,287L85,288L83,285L81,285L81,286L80,287L79,287L77,287L77,289L76,289L74,289L74,291L76,291L77,292L77,293L74,293L73,294L74,296L73,297L73,299L72,299L70,300L68,300L67,300L66,301L65,301L65,303L64,303L63,304L62,305L61,305L59,304L59,307L58,307L57,307L57,306L55,305L53,304L52,304L50,305L49,306L47,307L47,308L47,309L46,312L43,314L40,319L38,322L41,320L42,320L43,320L46,321L48,322L49,322L51,323L53,324L54,324L55,326L56,326Z " data-fips="YM24" data-hasc="YE.LA" data-name="Lahij" data-postal="LA" data-varname="Laheg|Lahej|Lahj|Tuban"/><path d="M35,324L34,323L33,323L33,324L34,325Z M38,322L40,319L43,314L46,312L47,309L47,308L47,307L49,306L50,305L52,304L53,304L55,305L57,306L57,307L58,307L59,307L59,304L61,305L62,305L63,304L64,303L65,303L65,301L66,301L67,300L68,300L70,300L72,299L73,299L73,297L74,296L73,294L74,293L77,293L77,292L76,291L74,291L74,289L76,289L77,289L77,287L79,287L80,287L81,286L81,285L81,283L79,283L77,283L76,281L77,280L77,278L76,277L75,278L73,279L72,279L71,279L68,278L65,277L64,276L62,276L57,275L57,274L57,273L55,273L55,272L52,272L50,272L49,272L47,272L46,270L42,270L41,271L40,271L37,275L36,277L33,277L32,278L29,280L29,280L29,282L29,284L28,285L28,286L27,294L27,295L26,296L27,299L30,303L30,304L31,306L32,308L33,309L33,311L34,312L34,313L35,314L36,315L36,317L36,319L36,322L37,323Z " data-fips="YM25" data-hasc="YE.TA" data-name="Ta`izz" data-postal="TA" data-varname="Taez|Taiz|Taizz"/><path d="M344,220L353,218L362,215L363,215L364,214L366,214L369,213L370,213L372,211L373,210L377,210L378,209L378,208L378,207L382,205L384,204L385,204L386,204L386,203L388,202L392,200L393,200L393,199L400,197L401,197L401,196L401,195L401,193L400,191L401,187L398,186L399,184L399,183L398,182L398,181L399,179L399,178L400,176L400,174L400,173L402,172L402,170L403,169L404,168L408,165L413,161L415,160L422,158L424,157L426,156L427,155L429,155L430,154L431,153L433,153L435,153L435,152L423,126L422,125L420,124L388,53L388,53L377,69L371,87L368,100L365,112L360,124L355,132L338,146L335,150L332,152L325,155L323,156L322,157L321,158L320,161L321,162L321,163L318,176L318,177L319,179L320,179L321,180L321,182L319,186L319,187L318,188L318,190L318,191L317,192L317,193L318,194L317,196L317,197L317,199L317,200L318,201L319,201L320,202L322,202L323,203L322,205L321,206L321,208L320,209L319,211L320,212L323,213L325,213L328,213L329,212L330,212L333,212L336,213L338,213L339,213L340,214L341,216L341,218L342,219L342,220Z " data-fips="YM03" data-hasc="YE.MR" data-name="Al Mahrah" data-postal="MR" data-varname="Al Ghaydah|Al-Mahara|Almaharah|al-Mahra|Mahra"/><path d="M129,275L130,275L131,274L133,273L140,268L142,267L143,265L144,263L144,259L143,258L143,256L143,255L142,254L140,254L138,253L137,252L136,251L134,244L133,244L131,243L130,242L130,241L131,240L130,238L130,238L124,239L123,240L122,239L122,240L123,242L121,242L120,242L118,242L117,242L115,243L115,244L113,244L112,245L110,246L109,246L107,244L107,243L107,242L107,240L106,239L106,237L106,235L106,234L105,233L104,232L102,232L100,233L98,234L96,234L93,238L91,242L91,248L90,250L88,252L87,253L87,256L87,258L88,259L89,260L92,259L93,259L94,259L95,258L97,257L98,258L100,258L101,258L102,259L103,261L104,262L107,265L108,266L108,268L111,269L113,268L114,267L116,266L117,266L118,268L118,272L124,273L125,273L126,274L127,275Z " data-fips="YM20" data-hasc="YE.BA" data-name="Al Bayda'" data-postal="BA" data-varname="Albaidah|Al Baidha|Al-Baydha|Al Beida|Baidaa|Al Bayda"/><path d="M86,287L88,286L90,285L91,284L93,285L95,284L95,283L95,279L96,279L97,279L100,278L102,277L104,276L106,274L108,268L108,266L107,265L104,262L103,261L102,259L101,258L100,258L98,258L97,257L95,258L94,259L93,259L92,259L89,260L89,261L87,262L86,262L85,264L84,265L85,267L84,268L82,268L81,268L80,269L80,270L79,272L78,272L77,274L76,275L76,277L77,278L77,280L76,281L77,283L79,283L81,283L81,285L83,285L85,288Z " data-fips="YM00" data-hasc="YE.DL" data-name="Al Dali'" data-postal="DL" data-varname="Al Dhale'e"/><path d="M125,190L131,186L143,182L178,175L186,167L185,141L184,141L175,128L173,127L157,129L121,125L119,124L112,120L110,120L102,120L101,133L97,135L95,135L92,135L90,135L87,136L82,139L81,139L79,142L78,143L77,144L76,145L75,146L74,146L73,147L72,147L70,150L70,152L71,155L74,157L75,158L74,159L75,161L75,163L76,164L76,165L76,167L76,168L76,169L76,172L76,173L76,175L76,176L77,178L78,179L81,179L82,178L85,179L102,184L112,189L121,191Z " data-fips="YM21" data-hasc="YE.JA" data-name="Al Jawf" data-postal="JA" data-varname="Al Jouf|Aljowf|Jawf"/><path d="M201,283L202,282L208,277L211,273L212,273L218,271L220,270L222,267L224,267L227,266L230,267L232,267L234,268L234,269L239,268L240,267L243,267L245,268L246,268L247,268L249,266L254,266L254,266L253,264L252,262L252,260L251,259L250,258L246,256L243,255L239,255L237,255L234,254L232,252L231,250L230,249L230,248L229,246L228,245L227,244L226,244L223,244L218,243L215,242L212,240L209,237L205,234L204,233L205,232L212,226L213,225L213,223L211,221L210,220L210,219L210,218L211,214L211,213L212,211L213,209L214,207L220,199L219,197L216,196L133,217L127,222L126,225L125,226L124,228L124,229L124,231L123,232L123,233L123,235L124,237L130,238L130,238L131,240L130,241L130,242L131,243L133,244L134,244L136,251L137,252L138,253L140,254L142,254L143,255L143,256L143,258L144,259L148,259L150,258L152,258L153,257L157,255L158,255L159,255L160,256L161,258L162,260L162,261L163,262L168,262L171,260L175,259L179,259L182,259L184,260L187,261L193,261L194,262L195,264L195,266L195,267L194,269L193,270L196,275L197,279L197,280L197,282L198,284Z " data-fips="YM05" data-hasc="YE.SH" data-name="Shabwah" data-postal="SH" data-varname="Shabwa|Shibwah|Ataq"/><path d="M112,245L113,244L115,244L115,243L117,242L118,242L120,242L121,242L123,242L122,240L122,239L123,240L124,239L124,237L123,235L123,233L123,232L124,231L124,229L124,228L125,226L126,225L127,222L133,217L178,175L143,182L131,186L125,190L121,191L112,189L102,184L90,184L91,188L91,191L91,193L94,197L95,198L94,200L93,201L88,204L87,206L89,206L90,207L91,208L92,210L94,210L95,210L96,209L97,207L98,208L100,209L102,211L103,212L104,212L106,212L107,213L108,214L108,215L108,217L108,218L108,219L107,220L105,221L104,223L104,224L103,225L102,226L101,227L102,228L102,229L102,232L104,232L105,233L106,234L106,235L106,237L106,239L107,240L107,242L107,243L107,244L109,246L110,246Z " data-fips="YM14" data-hasc="YE.MA" data-name="Ma'rib" data-postal="MA" data-varname="Mareb|Marib"/><path d="M98,234L100,233L102,232L102,229L102,228L101,227L102,226L103,225L104,224L104,223L105,221L107,220L108,219L108,218L108,217L108,215L108,214L107,213L106,212L104,212L103,212L102,211L100,209L98,208L97,207L96,209L95,210L94,210L92,210L91,208L90,207L89,206L87,206L88,204L93,201L94,200L95,198L94,197L91,193L91,191L91,188L90,184L85,179L82,178L81,179L78,179L76,180L74,180L71,182L71,183L70,184L71,186L71,187L71,189L70,191L69,192L68,193L68,195L67,197L65,199L64,199L62,199L61,199L60,200L59,203L59,205L58,206L56,207L53,210L51,211L48,212L45,214L44,215L44,216L44,218L44,219L42,221L44,222L45,223L46,223L48,223L49,224L48,226L48,227L48,228L51,229L53,230L55,229L57,229L59,228L61,227L62,226L64,224L65,224L67,224L68,224L70,225L71,226L72,226L75,227L76,227L77,225L78,225L79,226L80,226L81,227L83,226L85,224L85,223L86,223L87,223L88,223L89,223L90,223L91,223L92,225L93,228L94,230L95,232L96,233L96,234Z M69,211L68,211L68,209L66,208L66,207L67,206L67,205L66,204L66,203L67,203L68,202L69,201L69,200L71,199L72,198L73,197L74,197L75,198L76,199L76,201L76,200L75,200L74,201L73,201L72,202L72,203L71,204L70,205L70,206L70,208L71,209L71,210L70,211Z " data-fips="YM16" data-hasc="YE.SN" data-name="Sana'a" data-postal="" data-varname=""/><path d="M449,346L449,346L447,346L448,347L450,347Z M409,346L410,346L410,344L409,344L409,344L403,344L402,343L401,342L399,342L397,343L398,344L399,344L401,344L401,345L403,345L404,345L405,346L408,346Z M441,345L440,345L439,344L437,344L436,345L439,346Z M475,336L477,337L478,336L480,336L484,335L485,334L487,334L488,332L489,331L494,330L496,329L496,328L497,327L500,327L499,326L498,326L495,325L489,324L488,323L486,323L485,321L484,322L483,321L482,321L481,321L480,321L479,322L478,322L477,323L473,323L472,323L471,324L470,325L469,325L467,324L464,322L462,321L461,321L457,321L455,322L455,322L453,323L452,324L452,326L452,328L450,328L448,329L450,329L455,332L457,334L457,335L459,336L460,337L462,337L465,338L467,338Z M256,266L257,265L259,262L261,261L262,260L263,259L263,258L263,257L265,256L265,255L268,254L268,253L268,251L269,249L271,246L272,245L274,245L275,246L275,244L277,243L280,242L283,240L285,240L287,239L291,236L301,234L307,232L309,232L310,232L311,233L312,232L314,232L315,231L316,232L319,230L321,228L324,228L327,225L328,224L332,223L336,222L342,220L342,219L341,218L341,216L340,214L339,213L338,213L336,213L333,212L330,212L329,212L328,213L325,213L323,213L320,212L319,211L320,209L321,208L321,206L322,205L323,203L322,202L320,202L319,201L318,201L317,200L317,199L317,197L317,196L318,194L317,193L317,192L318,191L318,190L318,188L319,187L319,186L321,182L321,180L320,179L319,179L318,177L318,176L321,163L321,162L320,161L321,158L322,157L323,156L325,155L332,152L335,150L338,146L355,132L360,124L365,112L368,100L371,87L377,69L388,53L388,53L388,52L272,70L268,71L234,89L233,90L209,119L209,121L204,133L203,135L193,141L192,141L190,141L185,141L186,167L178,175L216,196L219,197L220,199L214,207L213,209L212,211L211,213L211,214L210,218L210,219L210,220L211,221L213,223L213,225L212,226L205,232L204,233L205,234L209,237L212,240L215,242L218,243L223,244L226,244L227,244L228,245L229,246L230,248L230,249L231,250L232,252L234,254L237,255L239,255L243,255L246,256L250,258L251,259L252,260L252,262L253,264L254,266L254,266L255,266Z " data-fips="YM04" data-hasc="YE.HD" data-name="Hadramawt" data-postal="" data-varname="Hadhramaut|Hadhramawt|Hadhramout|HadramautHadramout"/><path d="M70,211L71,210L71,209L70,208L70,206L70,205L71,204L72,203L72,202L73,201L74,201L75,200L76,200L76,201L76,199L75,198L74,197L73,197L72,198L71,199L69,200L69,201L68,202L67,203L66,203L66,204L67,205L67,206L66,207L66,208L68,209L68,211L69,211Z " data-fips="" data-hasc="" data-name="Amanat Al Asimah" data-postal="" data-varname=""/><path d="M43,250L45,248L47,247L48,246L49,246L51,247L52,247L53,246L56,244L56,244L58,242L59,241L58,239L57,238L57,236L54,233L53,232L53,230L53,230L51,229L48,228L48,227L48,226L46,226L45,226L43,228L42,228L41,229L41,231L41,234L40,236L40,236L40,238L40,239L42,244L43,246L43,247L41,250Z " data-fips="" data-hasc="" data-name="Raymah" data-postal="" data-varname=""/><path d="M76,323L79,320L81,318L82,318L84,317L85,318L88,319L89,320L89,321L91,320L93,320L93,321L95,321L96,321L97,320L95,320L95,318L96,319L97,318L98,317L100,317L101,317L102,318L101,318L99,319L100,320L102,320L103,320L103,317L104,315L104,315L104,313L100,313L93,315L84,317L80,318L78,319L75,324L75,324L75,324Z " data-fips="YM01" data-hasc="YE.AD" data-name="`Adan" data-postal="AD" data-varname="Aden"/><path d="M105,312L107,310L108,310L115,308L117,307L118,306L120,303L122,301L123,300L127,296L128,296L134,294L135,294L138,294L140,293L147,293L150,293L153,292L153,293L155,293L165,293L167,292L168,292L170,292L171,292L177,290L180,288L191,286L198,284L197,282L197,280L197,279L196,275L193,270L194,269L195,267L195,266L195,264L194,262L193,261L187,261L184,260L182,259L179,259L175,259L171,260L168,262L163,262L162,261L162,260L161,258L160,256L159,255L158,255L157,255L153,257L152,258L150,258L148,259L144,259L144,263L143,265L142,267L140,268L133,273L131,274L130,275L129,275L127,275L126,274L125,273L124,273L118,272L116,272L116,274L116,276L114,276L113,277L112,278L112,279L111,280L110,281L110,282L112,282L113,283L110,286L109,288L109,290L109,291L110,292L111,293L109,295L106,303L104,313Z " data-fips="" data-hasc="" data-name="Abyan" data-postal="" data-varname=""/></g></svg>