<?xml version="1.0" ?><!DOCTYPE svg  PUBLIC '-//W3C//DTD SVG 1.1//EN'  'http://www.w3.org/Graphics/SVG/1.1/DTD/svg11.dtd'><svg enable_background="new 0 0 500 401" height="401px" style="stroke-linejoin: round; stroke:#000; fill:#f6f3f0;" version="1.1" viewBox="0 0 500 401" width="500px" xmlns="http://www.w3.org/2000/svg" xmlns:xlink="http://www.w3.org/1999/xlink"><defs><style type="text/css"><![CDATA[path { fill-rule: evenodd; }
#context path { fill: #eee; stroke: #bbb; } ]]></style></defs><metadata><views><view h="401" padding="0" w="500"><proj id="laea" lat0="42.176" lon0="43.518"/><bbox h="31.36" w="61.13" x="968.33" y="982.13"/><llbbox lat0="-90" lat1="90" lon0="-180" lon1="180"/></view></views></metadata><g id="admin1"><path d="M112,192L115,191L118,189L121,186L125,185L132,181L137,176L139,174L140,173L142,172L142,170L142,166L140,162L140,159L140,157L139,152L139,151L139,150L140,149L140,149L142,147L141,145L141,143L140,140L140,138L138,137L140,134L147,133L151,132L153,129L154,127L156,125L157,122L157,119L157,116L158,114L159,111L153,115L150,115L148,115L146,114L144,113L141,112L139,112L134,113L132,112L127,111L124,111L119,111L116,111L114,110L111,106L109,105L105,104L104,103L104,102L103,99L102,98L100,98L95,98L92,97L90,95L88,94L85,93L77,94L75,94L65,85L63,84L56,81L51,77L49,76L47,76L42,79L40,79L37,79L19,71L14,71L9,72L7,73L6,75L0,88L0,90L2,90L4,91L7,92L8,92L11,95L15,96L17,97L18,99L19,102L21,105L20,108L21,109L22,111L23,112L24,115L25,116L27,113L29,114L35,117L38,117L39,118L40,119L41,120L43,122L44,122L47,121L50,121L57,122L63,125L65,129L66,130L68,133L70,134L73,133L75,133L76,135L79,141L80,147L84,152L85,153L88,152L89,152L91,153L93,154L94,155L95,156L101,157L104,159L106,161L108,165L109,169L112,192Z " data-fips="GG02" data-hasc="GE.AB" data-name="Abkhazia" data-postal="AB" data-varname="Sokhumi"/><path d="M179,292L181,291L183,288L185,286L186,284L186,280L187,278L189,277L189,277L188,275L186,272L184,269L182,268L181,266L181,265L181,263L182,262L182,258L181,255L179,255L175,251L174,251L172,251L168,254L162,255L160,254L156,252L153,252L151,253L150,253L147,251L145,250L141,248L141,246L138,244L128,244L128,252L127,254L126,255L126,256L125,258L125,259L121,265L120,268L116,271L113,274L108,282L117,286L119,286L122,286L122,287L123,288L125,289L126,289L129,292L131,292L134,289L136,286L137,285L140,284L146,286L148,285L150,285L151,285L152,285L153,285L155,285L156,285L157,285L159,287L160,287L164,287L177,292Z " data-fips="GG04" data-hasc="GE.AJ" data-name="Ajaria" data-postal="AJ" data-varname="Batumi"/><path d="M189,255L190,253L192,252L194,252L194,247L193,242L190,241L188,242L186,241L185,240L183,239L181,237L178,237L176,235L175,232L174,230L171,229L169,231L168,231L166,231L163,230L161,227L159,223L154,222L150,219L146,218L137,220L132,220L127,220L126,223L125,226L124,228L127,233L127,235L127,237L128,244L138,244L141,246L141,248L145,250L147,251L150,253L151,253L153,252L156,252L160,254L162,255L168,254L172,251L174,251L175,251L179,255L181,255L185,255L186,255L188,256Z " data-fips="GG04" data-hasc="GE.GU" data-name="Guria" data-postal="GU" data-varname="Ozurgeti"/><path d="M125,226L126,223L127,220L132,220L137,220L146,218L150,219L154,222L159,223L165,224L167,221L167,216L168,212L169,210L170,207L173,202L179,196L180,194L180,191L181,189L182,188L183,185L185,183L189,182L190,182L192,182L186,171L188,166L185,163L177,158L173,154L175,151L177,150L181,149L181,149L182,147L183,145L185,145L187,146L197,149L202,149L204,148L205,147L206,147L214,151L219,150L224,152L226,152L227,150L227,147L229,145L231,142L234,141L232,140L224,132L221,130L220,129L220,127L221,125L221,124L215,122L212,120L210,118L208,117L206,116L203,116L199,117L197,117L196,118L194,120L193,120L191,120L187,117L185,115L183,113L178,111L173,110L161,111L159,111L158,114L157,116L157,119L157,122L156,125L154,127L153,129L151,132L147,133L140,134L138,137L140,138L140,140L141,143L141,145L142,147L140,149L140,149L139,150L139,151L139,152L140,157L140,159L140,162L142,166L142,170L142,172L140,173L139,174L137,176L132,181L125,185L121,186L118,189L115,191L112,192L112,192L113,195L115,197L116,198L119,212L120,217L120,220L120,222L121,223L122,224L124,228Z " data-fips="GG04" data-hasc="GE.SZ" data-name="Samegrelo-Zemo Svaneti" data-postal="SZ" data-varname="Zugdidi"/><path d="M206,253L213,254L216,254L219,253L227,252L228,253L230,253L252,244L253,240L255,237L257,234L257,229L259,227L261,225L263,223L264,220L265,219L266,218L266,215L266,212L266,209L271,206L277,204L277,201L278,197L276,195L274,196L272,197L270,197L267,197L258,193L250,194L242,193L235,196L233,199L229,200L224,201L221,199L219,198L217,197L216,194L212,190L208,188L207,188L205,189L203,189L201,188L193,191L193,189L192,187L192,184L192,182L190,182L189,182L185,183L183,185L182,188L181,189L180,191L180,194L179,196L173,202L170,207L169,210L168,212L167,216L167,221L165,224L161,227L163,230L166,231L168,231L169,231L171,229L174,230L175,232L176,235L178,237L181,237L183,239L185,240L186,241L188,242L190,241L193,242L194,247L194,252L198,254Z " data-fips="GG00" data-hasc="GE.IM" data-name="Imereti" data-postal="IM" data-varname="Kutaisi"/><path d="M486,328L486,327L487,324L488,323L489,322L491,322L492,323L494,322L495,320L496,317L496,314L497,310L498,309L498,308L498,305L500,304L499,303L497,299L495,298L494,297L493,297L492,294L488,292L481,289L477,286L474,285L470,283L469,281L468,279L467,274L465,271L464,271L463,273L461,271L460,267L460,261L460,258L462,257L463,256L467,257L468,257L470,256L471,255L474,251L475,249L478,242L476,240L474,239L470,239L467,238L464,234L462,233L461,232L459,233L455,234L453,234L451,233L450,230L448,231L447,230L445,229L444,229L443,230L441,230L440,230L439,229L437,223L436,222L431,221L422,216L419,214L417,213L416,211L424,188L424,185L421,182L415,180L409,179L405,179L399,181L396,181L393,180L392,179L392,177L389,181L388,186L389,189L388,191L386,193L385,195L386,199L386,203L384,204L383,204L381,206L379,208L378,213L376,215L375,221L374,224L375,227L375,230L377,233L376,236L376,239L378,240L380,240L384,241L386,244L380,245L376,243L374,244L372,246L374,248L375,251L378,253L379,255L382,257L385,257L386,260L387,263L388,269L386,275L386,278L387,279L388,280L391,280L393,281L394,283L395,286L396,287L396,288L396,290L400,292L401,292L403,292L405,291L406,291L407,292L410,295L421,299L426,299L428,301L427,301L425,302L423,304L425,307L429,310L430,310L434,313L445,316L449,317L451,317L452,316L454,315L456,313L458,313L464,313L465,313L466,314L468,317L473,321L475,322L479,323L481,324L483,327L484,328Z " data-fips="AJ52" data-hasc="GE.KA" data-name="Kakheti" data-postal="KA" data-varname="Telavi"/><path d="M347,264L348,263L349,262L351,259L353,259L355,257L356,255L358,255L364,255L365,253L366,251L368,250L372,251L375,251L374,248L372,246L374,244L376,243L380,245L386,244L384,241L380,240L378,240L376,239L376,236L377,233L375,230L375,227L374,224L375,221L376,215L378,213L379,208L381,206L383,204L384,204L386,203L386,199L385,195L386,193L388,191L389,189L388,186L389,181L392,177L391,176L390,175L383,166L381,164L378,163L377,163L374,165L373,165L371,165L370,164L362,158L358,158L357,160L356,162L354,167L352,173L351,172L349,166L349,165L346,162L345,162L342,160L339,159L336,159L332,159L330,160L325,163L322,164L315,164L313,166L312,169L309,172L309,172L310,175L311,177L315,178L317,182L319,183L320,185L317,188L317,192L318,193L318,195L318,196L319,197L320,199L320,202L320,205L322,208L322,211L321,212L319,214L319,215L318,216L317,217L316,218L315,223L315,228L315,230L315,232L317,233L317,235L319,233L322,231L324,232L330,233L332,234L333,237L334,241L336,244L338,247L337,250L335,250L333,252L333,256L331,258L331,260L336,261L339,263L343,266Z " data-fips="RS19" data-hasc="GE.MM" data-name="Mtskheta-Mtianeti" data-postal="MM" data-varname="Mtskheta"/><path d="M229,200L233,199L235,196L242,193L250,194L258,193L270,190L281,190L282,189L284,186L288,183L288,178L286,177L283,176L280,176L276,175L274,172L274,169L277,167L279,165L281,163L280,160L277,158L270,156L268,156L265,152L264,151L259,148L256,148L235,142L234,141L231,142L229,145L227,147L227,150L226,152L224,152L219,150L214,151L206,147L205,147L204,148L202,149L197,149L187,146L185,145L183,145L182,147L181,149L181,149L177,150L175,151L173,154L177,158L185,163L188,166L186,171L192,182L192,184L192,187L193,189L193,191L201,188L203,189L205,189L207,188L208,188L212,190L216,194L217,197L219,198L221,199L224,201Z " data-fips="GG00" data-hasc="GE.RK" data-name="Racha-Lechkhumi-Kvemo Svaneti" data-postal="RK" data-varname="Ambrolauri"/><path d="M369,271L372,268L371,265L370,266L369,268L367,268L365,268L364,267L363,266L362,265L362,263L360,261L360,260L358,255L356,255L355,257L353,259L351,259L349,262L348,263L347,264L348,265L348,266L349,267L352,267L358,270L360,271L362,271L364,272L367,272Z " data-fips="AJ40" data-hasc="GE.TB" data-name="Tbilisi" data-postal="TB" data-varname=""/><path d="M296,319L299,318L300,317L304,318L305,318L307,317L308,316L308,315L308,313L310,313L312,314L316,316L317,317L320,316L321,315L323,314L327,317L329,317L330,317L332,317L334,315L335,316L336,317L338,318L339,317L340,315L341,314L342,313L344,313L347,314L358,315L360,314L361,313L360,312L357,311L356,309L358,308L365,309L368,309L369,308L371,306L372,306L379,300L390,290L392,289L395,289L396,290L396,288L396,287L395,286L394,283L393,281L391,280L388,280L387,279L386,278L386,275L388,269L387,263L386,260L385,257L382,257L379,255L378,253L375,251L372,251L368,250L366,251L365,253L364,255L360,260L360,261L362,263L362,265L363,266L364,267L365,268L367,268L369,268L370,266L371,265L372,268L369,271L367,272L364,272L362,271L360,271L358,270L352,267L349,267L348,266L348,265L347,264L343,266L339,263L336,261L331,260L330,263L325,263L323,262L322,261L321,260L316,263L312,263L309,262L307,263L304,264L287,262L283,266L279,266L275,266L274,269L273,279L272,281L271,282L271,284L273,284L277,284L280,283L284,283L286,285L288,289L288,290L289,293L289,295L289,297L291,298L292,300L292,302L291,307L291,311L292,313L293,314L294,319Z " data-fips="AJ40" data-hasc="GE.KK" data-name="Kvemo Kartli" data-postal="KK" data-varname="Rustavi"/><path d="M255,325L259,324L263,324L275,325L277,325L278,325L280,323L282,321L285,320L292,320L294,319L293,314L292,313L291,311L291,307L292,302L292,300L291,298L289,297L289,295L289,293L288,290L288,289L286,285L284,283L280,283L277,284L273,284L271,284L271,282L272,281L273,279L274,269L275,266L279,266L283,266L287,262L284,258L279,258L276,259L273,257L271,256L270,254L267,253L265,251L264,250L263,249L263,247L262,246L259,245L254,243L252,244L230,253L228,253L227,252L219,253L216,254L213,254L206,253L198,254L194,252L192,252L190,253L189,255L188,256L186,255L185,255L181,255L182,258L182,262L181,263L181,265L181,266L182,268L184,269L186,272L188,275L189,277L189,277L191,277L194,276L205,277L206,278L206,279L205,280L205,281L204,283L203,284L202,285L204,286L206,288L207,288L209,286L210,286L211,287L212,289L215,290L215,291L217,292L219,296L220,297L226,301L229,304L231,306L234,306L233,308L232,309L228,311L230,312L231,311L233,312L234,313L236,318L237,319L244,317L246,317L249,317L251,318L253,320L254,323L254,326Z " data-fips="TU86" data-hasc="GE.SJ" data-name="Samtskhe-Javakheti" data-postal="SJ" data-varname="Akhaltsikhe"/><path d="M307,263L309,262L312,263L316,263L321,260L322,261L323,262L325,263L330,263L331,260L331,258L333,256L333,252L335,250L337,250L338,247L336,244L334,241L333,237L332,234L330,233L324,232L322,231L319,233L317,235L317,233L315,232L315,230L315,228L315,223L316,218L317,217L318,216L319,215L319,214L321,212L322,211L322,208L320,205L320,202L320,199L319,197L318,196L318,195L318,193L317,192L317,188L320,185L319,183L317,182L315,178L311,177L310,175L309,172L309,172L306,173L299,173L296,174L295,176L293,178L292,179L290,179L289,179L288,178L288,183L284,186L282,189L281,190L270,190L267,197L270,197L272,197L274,196L276,195L278,197L277,201L277,204L271,206L266,209L266,212L266,215L266,218L265,219L264,220L263,223L261,225L259,227L257,229L257,234L255,237L253,240L252,244L254,243L259,245L262,246L263,247L263,249L264,250L265,251L267,253L270,254L271,256L273,257L276,259L279,258L284,258L287,262L304,264Z " data-fips="GG00" data-hasc="GE.SD" data-name="Shida Kartli" data-postal="SD" data-varname="Gori"/></g></svg>