<?xml version="1.0" ?><!DOCTYPE svg  PUBLIC '-//W3C//DTD SVG 1.1//EN'  'http://www.w3.org/Graphics/SVG/1.1/DTD/svg11.dtd'><svg enable_background="new 0 0 500 401" height="401px" style="stroke-linejoin: round; stroke:#000; fill:#f6f3f0;" version="1.1" viewBox="0 0 500 401" width="500px" xmlns="http://www.w3.org/2000/svg" xmlns:xlink="http://www.w3.org/1999/xlink"><defs><style type="text/css"><![CDATA[path { fill-rule: evenodd; }
#context path { fill: #eee; stroke: #bbb; } ]]></style></defs><metadata><views><view h="401" padding="0" w="500"><proj id="laea" lat0="-0.976" lon0="114.252"/><bbox h="208.53" w="562.03" x="764.46" y="914.55"/><llbbox lat0="-90" lat1="90" lon0="-180" lon1="180"/></view></views></metadata><g id="admin1"><path d="M37,178L37,177L37,176L36,175L36,176L36,177L35,178L36,179Z M38,175L37,175L37,174L36,172L35,172L36,173L36,174L38,176Z M30,165L30,164L31,163L31,162L31,161L30,161L29,160L28,159L27,158L27,157L26,156L25,156L24,156L23,157L22,157L23,158L24,159L24,160L25,161L25,162L26,162L27,163L28,164L28,165L28,166L30,166Z M38,154L37,154L37,153L37,154Z M45,168L47,167L48,167L49,166L50,167L52,167L53,166L52,165L51,164L51,163L52,163L53,163L54,164L55,164L55,163L56,162L56,160L56,159L55,159L55,158L55,157L57,155L58,154L58,153L57,152L57,151L57,149L57,147L57,146L57,144L57,144L56,143L55,143L55,144L54,143L53,142L54,143L53,142L54,141L53,139L52,139L51,138L50,137L48,136L48,135L47,135L45,133L44,132L42,132L41,131L40,130L39,129L38,129L37,128L36,127L35,127L35,126L34,126L35,126L35,125L35,125L33,125L33,126L32,127L32,128L31,129L31,130L30,131L30,132L30,133L31,134L31,135L31,136L30,136L31,137L31,138L31,139L31,140L32,141L32,142L32,143L32,144L33,146L33,147L33,148L33,148L35,150L36,150L37,150L38,151L40,152L40,154L40,155L39,155L40,156L40,157L41,158L42,160L42,163L43,164L43,165L44,166L44,167L44,168L44,170Z " data-fips="ID26" data-hasc="ID.SU" data-name="Sumatera Utara" data-postal="SU" data-varname="Sumut"/><path d="M82,184L82,183L83,182L84,181L86,181L87,181L91,180L90,180L91,179L91,178L92,178L93,177L91,176L90,176L91,176L92,175L91,175L89,175L91,174L92,173L93,172L94,172L95,172L95,170L94,169L93,168L91,167L90,166L89,167L88,168L87,168L86,169L85,169L83,170L82,170L81,170L80,169L81,170L82,170L83,169L85,169L86,168L87,167L87,166L86,165L85,164L84,164L82,164L81,164L80,163L79,162L78,161L77,160L77,159L77,158L77,157L76,156L72,154L71,154L70,154L69,153L68,151L68,150L66,149L65,147L63,147L62,148L62,149L63,150L63,152L63,150L62,150L61,149L60,148L59,148L58,147L58,146L57,144L57,146L57,147L57,149L57,151L57,152L58,153L58,154L57,155L55,157L55,158L55,159L56,159L56,160L56,162L55,163L55,164L56,164L55,165L56,166L56,167L58,167L59,167L60,168L61,169L62,170L63,171L63,172L62,173L62,173L62,175L63,176L64,177L65,178L67,180L68,181L70,182L71,183L72,183L73,184L74,183L75,182L76,182L77,182L78,182L79,183L80,184Z M93,176L94,176L94,175L93,175L92,175L91,176L92,176Z M88,166L89,166L89,165L88,165L88,167Z M86,163L84,162L83,161L82,161L82,160L81,160L80,160L81,161L80,162L80,163L82,164L84,163L85,164L87,164Z M88,162L87,161L86,160L84,159L83,160L83,161L84,161L85,161L86,162L88,163Z M80,162L80,161L80,160L80,158L79,157L78,157L78,158L78,159L78,160L78,161L79,162Z M81,157L80,155L79,155L78,155L77,155L75,155L76,156L77,156L79,157L79,157L81,158Z M72,153L72,152L73,151L72,150L72,149L71,149L70,149L69,150L69,152L69,153L71,153Z " data-fips="ID37" data-hasc="ID.RI" data-name="Riau" data-postal="RI" data-varname="Rhio|Riou|Riouw"/><path d="M314,169L315,169L317,168L318,168L319,168L321,167L322,167L322,166L323,165L323,164L324,163L325,162L326,162L327,161L327,160L328,159L328,157L329,156L330,155L329,155L329,154L328,154L327,153L327,154L325,155L325,156L324,157L323,157L322,158L323,159L322,159L321,159L320,160L320,161L319,161L318,162L317,162L316,163L315,163L312,162L311,162L310,162L309,162L308,162L307,162L307,162L308,163L308,164L309,165L311,166L311,167L311,168L311,169L311,169L312,169L313,169Z M332,142L332,141L331,142L332,143Z M334,133L333,133L333,132L332,131L332,132L333,133L333,134L335,134Z M346,129L346,128L345,128L345,129L346,130Z M347,128L347,127L347,126L348,125L348,124L348,123L347,122L346,123L346,124L346,125L347,126L346,127L346,128Z " data-fips="ID31" data-hasc="ID.SW" data-name="Sulawesi Utara" data-postal="SW" data-varname="Sulut"/><path d="M339,198L338,195L338,194L337,194L337,196L337,197L338,198L338,199L339,199Z M334,193L337,193L338,193L339,193L340,193L341,192L340,192L338,192L336,192L335,192L333,192L332,192L331,193L333,194Z M323,194L324,194L325,193L326,193L327,194L328,193L329,193L331,193L331,191L329,191L329,191L328,192L327,191L326,191L324,190L323,190L322,190L322,190L321,191L320,192L320,193L321,194Z M357,191L359,191L361,191L362,190L361,190L360,189L359,188L358,188L358,188L357,187L356,187L355,188L354,189L354,190L354,191L355,191Z M356,186L357,186L356,186L355,185L355,186Z M358,182L359,181L358,180L356,180L356,179L357,178L356,177L356,176L355,176L354,177L353,176L353,177L353,178L353,179L354,179L354,181L355,181L356,181L357,182Z M353,181L352,180L352,179L351,180L352,181Z M352,178L352,177L352,175L352,175L351,175L351,176L350,177L350,178Z M377,174L376,173L375,172L375,173L376,174L377,175Z M364,181L363,180L361,178L361,177L360,176L360,174L359,173L359,172L359,171L359,169L359,168L360,167L361,167L362,167L363,168L364,168L365,168L367,169L368,169L369,169L368,169L368,168L367,167L367,166L366,166L365,165L364,165L363,164L363,163L364,162L365,162L366,161L368,160L368,159L368,158L368,157L368,156L368,155L367,155L366,155L365,155L364,156L363,157L362,158L361,159L362,160L361,160L360,160L359,162L359,163L358,163L357,163L356,162L357,161L357,160L359,160L359,159L360,158L360,156L360,155L360,154L360,153L359,152L358,151L359,151L360,150L360,149L361,148L359,148L359,149L358,150L357,151L356,152L355,154L355,155L355,156L355,157L354,158L354,160L354,161L355,161L355,162L356,163L356,164L355,165L355,166L355,167L356,168L357,169L357,171L357,172L357,174L357,175L358,176L359,177L359,178L360,178L361,180L362,181L363,182L365,182Z M366,149L366,148L367,147L367,146L368,145L367,143L366,143L365,144L364,144L364,145L363,147L363,148L363,149L364,150Z " data-fips="ID29" data-hasc="ID.LA" data-name="Maluku Utara" data-postal="LA" data-varname="Malut"/><path d="M58,208L58,207L59,206L59,206L58,205L58,204L57,203L56,203L56,204L56,206L57,206L57,208L58,209L59,209Z M55,204L56,203L56,202L55,201L55,201L53,201L54,201L54,203L54,204Z M51,197L50,196L50,195L49,195L49,196L49,197L50,197L51,198L52,198Z M45,191L45,190L46,191L46,190L45,190L44,188L44,187L43,187L43,186L42,185L42,184L42,183L41,183L40,183L39,183L39,184L38,186L39,187L41,189L41,190L42,191L43,192L44,192Z M65,199L67,198L68,198L68,196L67,195L67,194L66,193L66,192L66,191L67,191L70,191L71,190L72,189L72,188L72,186L73,186L73,185L73,184L72,183L71,183L70,182L68,181L67,180L65,178L64,177L63,176L62,175L62,173L62,173L63,172L63,171L62,170L61,169L60,168L59,167L58,167L56,167L56,166L55,165L56,164L55,164L54,164L53,163L52,163L51,163L51,164L52,165L53,166L52,167L50,167L49,166L48,167L47,167L45,168L44,170L45,170L46,170L47,170L48,171L49,171L50,172L51,173L51,174L51,175L52,176L53,177L53,177L54,178L55,180L57,181L57,182L58,184L58,185L58,185L59,186L60,187L60,188L60,189L61,190L61,191L62,192L63,194L63,195L63,196L64,198L65,200Z " data-fips="ID24" data-hasc="ID.SB" data-name="Sumatera Barat" data-postal="SB" data-varname="Sumbar"/><path d="M172,261L172,259L171,258L170,258L169,258L168,257L168,255L166,256L165,256L164,257L164,259L167,260L168,261L169,261L170,261L171,262L172,262Z " data-fips="ID10" data-hasc="ID.YO" data-name="Yogyakarta" data-postal="YO" data-varname="Jawa|Daerah Istimewa Yogyakarta"/><path d="M370,263L370,263L368,263L369,263Z M390,264L391,264L392,263L393,263L392,263L391,262L390,263L390,264L389,265Z M360,262L358,262L357,262L357,262L357,263L358,263L359,264Z M395,260L396,259L397,259L397,258L398,257L399,256L399,255L399,254L399,253L400,252L399,252L398,252L397,253L396,253L396,254L395,255L394,256L393,257L394,258L393,258L392,259L393,260L393,261L394,260L395,261Z M379,261L379,260L378,259L378,259L376,259L376,260L377,261Z M337,259L338,259L339,260L341,260L342,260L343,259L344,258L345,258L346,257L345,257L345,257L344,256L343,256L342,257L341,257L340,257L338,257L337,257L336,258L335,259L335,261Z M353,256L353,255L352,256L352,257Z M393,255L393,255L393,255L392,255L392,255Z M402,251L401,251L400,252L401,252L402,252Z M367,251L366,251L365,252L366,252Z M431,244L431,244L430,243L429,243L428,244L429,245L430,245Z M433,244L433,243L433,244L433,245Z M428,248L428,247L430,246L429,245L429,244L429,244L428,244L427,243L426,242L425,242L426,243L426,244L426,245L425,245L425,247L425,248L426,249L427,249Z M429,242L428,242L427,241L427,240L426,239L426,240L426,241L427,242L428,243Z M411,238L412,237L411,236L410,235L410,235L410,236L410,237L410,238Z M432,243L432,241L433,240L432,240L431,239L432,239L432,238L432,237L432,235L431,235L431,234L431,233L430,233L429,234L429,235L428,236L427,237L428,237L428,238L428,239L427,240L427,241L428,242L429,243L430,243L431,243Z M413,237L413,236L414,235L415,235L415,234L415,232L415,233L414,234L414,235L413,236L413,237L412,239Z M368,212L367,211L366,211L367,212Z M365,212L365,211L364,211L365,212Z M360,214L361,213L362,213L361,214L362,213L363,212L363,212L364,211L363,211L361,212L360,212L359,213L359,214Z M347,214L348,214L349,213L351,213L352,212L352,210L351,209L350,209L349,209L350,208L349,207L348,207L347,206L346,206L343,206L341,207L340,207L339,207L338,208L338,209L339,210L340,211L340,212L341,212L342,213L343,214L346,215Z M391,215L391,212L391,212L390,210L389,210L389,209L388,208L388,207L387,207L385,205L384,206L382,206L381,205L380,205L379,204L377,203L377,203L375,203L374,204L373,205L372,205L372,204L371,203L370,204L369,204L366,204L365,204L364,204L361,204L361,205L360,206L359,207L358,207L359,208L359,209L359,211L360,210L361,209L361,207L362,206L362,208L363,208L364,210L365,211L367,210L367,209L369,208L370,208L371,208L371,209L372,209L373,210L375,210L377,210L377,209L380,209L381,210L382,211L383,212L386,213L387,213L388,214L388,214L389,215Z M357,208L358,208L357,207L356,208Z M359,206L360,205L360,205L359,205L358,206Z " data-fips="ID28" data-hasc="ID.MA" data-name="Maluku" data-postal="MA" data-varname="Molucas||Moluccas|Molucche|Moluckerna|Moluqu"/><path d="M233,269L234,270L235,269L234,269L235,268L235,267L236,266L237,264L236,263L235,263L234,262L233,262L232,263L231,264L230,264L229,265L230,266L229,268L228,268L227,269L228,269L229,270L230,269L231,270L232,270L233,270Z M241,272L242,271L243,271L245,271L247,270L248,270L249,270L251,269L252,269L254,268L254,267L255,267L255,268L255,269L255,269L259,269L259,269L260,269L259,268L258,268L259,268L260,268L261,268L262,268L263,268L263,267L262,267L262,266L261,265L261,263L260,263L259,263L258,264L258,265L257,266L258,264L257,263L255,263L255,263L254,264L253,263L252,262L251,261L250,261L249,261L248,261L247,262L248,263L248,264L249,264L250,265L251,265L252,266L253,266L253,267L252,267L251,267L250,268L249,268L248,268L248,267L247,266L246,266L245,264L244,264L243,265L242,264L241,264L240,265L239,265L238,266L237,266L237,268L237,269L237,270L237,271L238,271L239,271L240,272Z M246,264L246,263L247,262L246,261L245,262L245,263L245,264Z " data-fips="ID17" data-hasc="ID.NB" data-name="Nusa Tenggara Barat" data-postal="NB" data-varname="NTB"/><path d="M317,238L316,237L316,238L317,238Z M304,233L304,232L306,232L307,231L307,230L306,229L306,229L305,229L305,228L305,227L305,226L306,224L307,224L308,225L308,224L307,223L307,222L306,221L305,220L304,222L304,223L303,226L303,227L303,228L303,230L302,230L302,231L301,232L300,233L301,234L302,234L303,235Z M301,231L301,230L301,229L301,228L303,227L303,226L303,225L302,223L301,223L299,224L298,225L298,226L298,227L299,228L298,229L298,230L297,231L298,231L299,231L299,232L300,231L300,232Z M295,232L295,230L294,229L293,228L293,228L293,229L292,229L292,230L293,232L294,232Z M295,225L295,224L295,223L296,222L297,221L299,221L300,221L301,221L302,221L302,221L302,220L303,220L304,221L304,220L304,219L304,218L303,217L303,218L302,217L302,216L301,216L301,215L300,215L299,213L298,213L297,212L297,211L298,210L297,209L299,209L298,209L298,208L298,207L296,206L295,206L292,205L290,205L289,205L288,205L287,204L286,204L284,204L284,204L284,205L284,206L284,207L283,208L283,209L282,210L282,211L285,213L286,214L286,215L287,215L288,216L290,217L290,218L289,219L289,221L289,222L289,224L290,224L291,225L292,225L293,225L294,226Z M307,218L308,217L307,216L306,216L305,216L305,217L305,218L306,219Z " data-fips="ID22" data-hasc="ID.SG" data-name="Sulawesi Tenggara" data-postal="SG" data-varname="Sultra"/><path d="M299,207L299,207L297,205L298,204L297,204L296,203L295,202L295,201L294,200L293,199L293,198L292,197L291,196L290,196L289,194L288,193L287,194L287,193L287,192L288,192L289,193L290,193L291,193L292,192L292,191L293,190L294,190L295,190L297,190L298,189L299,188L300,187L302,185L302,184L303,183L303,182L305,182L306,182L307,182L308,183L309,184L310,183L310,182L310,181L310,180L309,179L308,178L306,179L305,179L304,179L303,180L305,181L303,181L302,181L301,181L299,180L296,181L296,182L295,182L294,183L292,182L291,182L290,181L289,182L288,182L287,184L286,185L286,186L285,187L284,188L283,187L282,187L281,187L280,187L279,186L279,185L279,184L278,183L277,182L276,182L275,182L273,179L273,177L273,176L273,174L273,173L274,172L274,171L274,170L275,169L276,167L277,167L278,166L280,166L281,167L282,167L284,167L285,168L286,167L287,167L287,167L287,166L286,165L285,165L286,164L287,163L288,163L289,163L290,162L291,162L293,161L295,162L297,161L296,161L296,160L294,161L294,160L291,160L289,160L288,159L289,158L288,158L286,159L285,158L284,158L283,157L282,157L282,158L281,160L281,161L280,161L279,162L278,163L277,163L276,163L276,161L275,162L275,163L273,164L273,165L273,167L272,167L271,168L271,169L270,170L271,172L271,173L270,172L269,172L269,173L270,173L270,175L270,177L270,178L271,180L271,181L271,182L270,181L270,179L269,180L268,181L268,182L268,184L268,185L267,186L267,187L269,188L270,190L270,191L271,192L271,193L272,193L273,193L274,193L277,193L277,193L279,194L279,195L281,197L287,198L289,199L290,199L291,200L292,201L292,202L292,203L290,205L292,205L295,206L296,206L298,207L298,208Z M312,191L312,190L311,189L311,190L311,191Z M308,189L309,188L309,189L311,189L311,188L312,187L311,186L310,186L309,186L308,187L308,186L308,185L307,185L305,185L304,185L304,187L303,188L305,189L306,188L306,187L307,187L307,189L307,190L308,190Z M292,177L293,178L294,177L293,177L292,177L291,177L291,178Z M295,176L295,176L294,176L293,176L294,177Z " data-fips="ID21" data-hasc="ID.ST" data-name="Sulawesi Tengah" data-postal="ST" data-varname="Sulteng"/><path d="M471,267L472,266L473,265L473,264L475,264L476,263L476,263L476,261L477,261L477,259L478,258L476,257L476,256L474,255L473,255L472,256L471,256L469,256L468,258L467,258L466,260L465,260L464,262L464,263L463,264L463,267L465,267L467,267L469,267L470,267Z M476,267L476,266L475,265L475,264L474,265L473,265L472,267L474,267Z M498,270L498,263L498,255L498,250L498,249L497,248L498,247L498,246L499,245L499,244L499,241L499,233L499,229L499,225L500,220L500,218L500,210L500,207L499,202L498,202L497,202L497,201L496,200L495,200L494,200L493,200L492,200L491,199L490,199L487,199L486,199L484,198L484,198L483,197L482,197L480,195L478,195L477,194L476,193L475,193L474,193L472,192L471,191L469,191L468,190L468,189L466,189L463,191L461,192L459,193L459,194L460,195L460,196L459,196L458,196L457,197L455,198L454,198L453,198L452,197L451,197L450,198L450,199L450,200L450,201L449,202L447,203L446,204L446,205L446,206L445,207L444,208L443,208L442,209L441,210L440,210L439,210L437,210L436,210L435,209L434,208L434,207L434,206L434,205L433,206L432,204L432,204L430,206L430,207L428,208L428,209L428,210L439,215L434,220L434,220L435,221L438,222L439,222L441,222L442,223L443,223L444,223L446,223L447,224L448,225L450,225L451,225L452,226L453,227L454,227L455,228L456,228L457,228L458,228L459,229L460,228L460,229L461,230L462,230L463,231L464,231L465,232L466,233L467,232L467,234L468,234L468,235L468,236L469,237L470,236L471,236L470,237L470,238L471,238L470,239L471,241L471,243L472,244L472,245L474,246L475,247L476,248L474,248L475,249L476,249L478,250L478,251L479,251L478,251L477,250L476,250L475,250L474,250L473,251L474,251L475,253L476,253L477,253L478,254L480,253L479,254L477,254L476,254L474,254L475,254L476,255L476,256L477,257L478,258L478,259L477,260L477,261L476,262L476,263L475,264L476,265L477,265L478,264L479,264L480,263L479,264L480,265L482,265L483,265L484,264L485,264L488,264L488,263L489,262L488,263L488,264L487,265L488,266L491,268L491,269L493,270L494,272L496,275L497,276Z M451,193L452,194L453,194L454,193L455,193L456,193L456,192L455,192L453,192L451,192L450,191L449,191L447,191L446,191L444,191L442,191L441,190L441,191L442,191L443,192L444,192L446,192L447,193L448,193L449,193L450,194Z M440,189L438,189L437,189L437,189L438,190Z M449,186L450,186L451,185L449,184L449,184L448,183L447,182L447,182L445,180L444,181L443,180L442,180L441,180L440,180L440,181L441,181L443,182L444,182L445,184L445,185L446,186L447,186L448,186Z M435,184L435,183L434,183L434,185L435,185Z " data-fips="ID36" data-hasc="ID.PA" data-name="Papua" data-postal="PA" data-varname="New Guinea|Yos Sudarso or Frederick Hendrik|Waigeo|Supiori Biak|Yapen|Misool|Salawati|Batanta"/><path d="M24,149L24,148L23,148L22,148L23,149L25,150Z M15,146L14,145L14,144L13,144L11,143L11,142L10,141L9,140L9,140L8,140L7,141L7,142L8,143L9,143L10,143L11,144L13,145L14,146L15,146Z M33,147L33,146L32,144L32,143L32,142L32,141L31,140L31,139L31,138L31,137L30,136L31,136L31,135L31,134L30,133L30,132L30,131L31,130L31,129L32,128L32,127L33,126L33,125L35,125L35,125L35,125L35,123L34,122L33,122L32,121L32,120L32,119L31,118L30,118L29,116L27,114L24,115L23,115L22,114L20,114L19,114L18,115L16,114L15,114L14,114L11,113L10,112L9,111L8,110L6,110L5,110L4,110L3,110L2,110L2,112L2,113L2,114L3,115L3,116L3,116L4,118L5,119L5,120L6,121L7,122L8,123L9,124L11,126L12,126L13,127L13,128L15,130L16,131L19,131L20,131L20,132L21,133L23,136L24,137L25,139L26,140L28,141L28,143L28,144L29,146L29,147L30,147L32,147L33,148Z M4,108L3,107L2,107L3,108Z " data-fips="ID01" data-hasc="ID.AC" data-name="Aceh" data-postal="AC" data-varname="Achin|Atjeh|Nanggroe Aceh Darussalam"/><path d="M235,196L234,196L233,196L232,196L233,195L234,194L234,193L234,192L233,192L232,191L233,191L233,190L235,189L235,188L235,188L237,187L237,186L237,185L237,184L237,185L238,186L240,185L240,184L242,183L242,182L243,181L244,182L245,181L246,181L247,180L246,180L246,179L246,178L246,177L245,177L245,176L245,175L245,174L245,173L245,172L245,171L245,170L245,169L246,168L247,167L248,165L248,164L249,163L250,163L251,163L251,162L250,161L250,160L251,160L251,161L252,162L253,162L255,163L256,163L257,163L258,163L259,163L260,163L262,161L261,160L260,160L260,160L259,159L258,158L257,157L256,157L255,156L255,155L254,155L252,154L251,153L250,152L250,152L249,151L249,150L250,149L250,148L251,148L252,147L251,146L250,145L249,144L249,143L248,142L248,141L247,141L248,140L247,140L246,140L247,139L246,139L246,138L245,138L245,137L244,137L243,136L244,136L244,135L244,134L243,134L242,134L242,132L241,132L243,132L244,132L245,132L245,131L246,132L247,132L248,132L249,131L248,130L248,130L247,129L245,129L246,129L245,128L244,127L244,126L245,126L244,126L243,125L241,124L239,124L238,125L236,124L235,125L235,124L234,125L233,125L232,124L231,124L230,125L229,125L228,124L227,124L227,125L226,126L225,127L224,128L224,129L224,130L224,131L224,132L224,133L224,134L223,135L223,137L223,138L223,139L221,139L221,139L220,139L219,140L219,141L218,142L218,143L220,144L220,145L219,145L218,146L217,146L217,147L215,148L215,149L216,150L216,151L215,152L214,152L214,153L214,154L213,155L212,156L211,156L209,156L209,156L209,158L209,159L208,159L206,161L205,161L205,162L206,163L206,164L205,165L204,166L205,166L206,165L207,165L209,165L210,165L211,166L214,165L215,164L217,164L218,164L218,165L219,166L218,167L217,168L217,169L218,170L218,171L217,173L218,174L219,173L220,172L222,172L221,173L221,174L221,175L221,177L221,178L222,179L222,181L223,182L224,182L225,183L225,184L227,184L227,186L225,188L224,189L225,190L225,191L226,192L226,193L226,194L227,195L227,196L227,197L227,198L228,197L229,197L230,197L234,198L235,198Z M247,135L247,134L246,135L246,136L247,136Z M245,134L245,134L244,133L242,133L243,134L244,134Z M248,127L247,127L246,127L247,128Z M250,127L250,126L247,126L248,127L249,128Z " data-fips="ID14" data-hasc="ID.KI" data-name="Kalimantan Timur" data-postal="KI" data-varname="Kaltim"/><path d="M148,257L149,256L150,256L149,255L149,253L148,253L147,252L148,251L149,251L150,250L150,249L150,248L151,247L150,247L149,247L148,246L148,245L147,243L146,243L145,241L144,241L143,242L142,242L141,241L139,240L138,241L137,241L136,240L135,239L134,238L133,238L132,238L131,237L130,238L130,239L130,240L130,241L130,242L129,242L128,241L128,242L126,242L125,242L124,243L124,244L125,246L124,247L124,249L125,249L125,249L125,251L124,251L124,253L125,253L126,254L130,254L132,254L134,254L135,255L136,255L138,255L138,256L139,257L141,257L143,258L147,258Z " data-fips="ID30" data-hasc="ID.JR" data-name="Jawa Barat" data-postal="JR" data-varname="Jabar"/><path d="M152,257L152,257L150,257L152,257L153,257Z M174,262L174,261L175,261L176,260L177,259L177,258L177,257L176,257L176,256L176,255L176,253L177,252L178,252L179,252L180,251L181,251L181,249L181,248L181,247L181,246L181,246L180,245L179,245L178,246L175,245L175,243L174,243L173,242L172,243L171,243L170,244L170,246L169,248L168,248L167,249L165,248L164,248L162,248L160,247L158,247L156,248L153,247L152,247L151,247L150,248L150,249L150,250L149,251L148,251L147,252L148,253L149,253L149,255L150,256L151,256L152,257L153,257L154,257L157,257L158,257L159,258L161,258L162,258L164,259L164,257L165,256L166,256L168,255L168,257L169,258L170,258L171,258L172,259L172,261L172,262L172,262L174,262Z " data-fips="ID07" data-hasc="ID.JT" data-name="Jawa Tengah" data-postal="JT" data-varname="Jateng"/><path d="M80,233L80,232L79,231L78,231L77,231L79,233Z M94,226L95,225L94,224L94,223L93,222L93,221L92,220L90,220L89,219L89,219L88,218L87,217L86,217L85,216L84,216L83,215L83,214L85,213L85,212L86,212L87,210L86,210L85,209L83,209L82,209L81,209L81,208L81,207L80,206L79,206L78,206L78,205L77,204L76,203L75,203L74,202L74,202L73,202L72,201L71,200L71,199L70,198L69,197L68,198L67,198L65,199L65,200L66,201L66,201L68,203L69,205L71,207L72,208L74,210L76,211L78,213L78,214L79,215L79,216L80,217L81,218L83,219L86,222L87,222L88,223L90,224L90,225L91,226L92,226L93,226Z " data-fips="ID03" data-hasc="ID.BE" data-name="Bengkulu" data-postal="BE" data-varname="Bencoolen|Benkoelen|Benkulen"/><path d="M124,249L124,247L125,246L124,244L124,243L125,242L126,242L128,242L128,241L128,241L127,240L127,239L127,238L125,239L123,238L122,237L121,238L121,238L120,237L119,238L118,239L118,241L117,243L117,244L115,244L115,245L114,246L114,247L113,246L112,246L111,247L112,247L113,247L114,248L115,248L117,247L118,247L119,247L120,247L123,249Z M111,244L111,244L111,245L111,245Z " data-fips="ID33" data-hasc="ID.BT" data-name="Banten" data-postal="BT" data-varname=""/><path d="M130,241L130,240L130,239L129,239L127,239L127,240L128,241L128,241L129,242L130,242Z " data-fips="ID04" data-hasc="ID.JK" data-name="Jakarta Raya" data-postal="JK" data-varname="Jawa|Djakarta"/><path d="M172,204L173,204L174,203L175,202L176,201L175,200L175,198L174,195L174,194L174,193L174,191L174,190L173,190L174,189L175,189L176,188L177,188L177,187L178,186L179,185L180,185L180,184L181,183L182,182L183,182L184,181L186,180L187,180L189,180L190,180L191,180L193,179L195,178L197,178L198,177L199,178L199,176L199,175L200,175L201,174L201,173L201,171L200,170L199,169L201,169L202,169L203,169L203,168L204,167L204,166L205,165L206,164L206,163L205,162L205,161L206,161L208,159L209,159L209,158L209,156L209,156L208,156L207,156L205,157L204,158L202,158L201,158L200,158L199,157L198,157L196,156L195,156L196,156L195,155L194,155L193,155L189,155L188,156L187,157L186,158L185,160L184,160L182,161L181,161L179,161L178,161L176,160L174,161L173,161L172,162L171,162L170,162L168,163L168,162L167,161L166,161L165,159L163,159L162,158L162,157L161,156L160,156L159,155L159,154L159,152L158,152L158,151L158,150L159,149L158,150L156,151L156,152L155,153L155,154L153,156L152,158L152,159L153,158L154,157L153,158L152,159L151,160L152,161L151,162L150,163L151,164L151,165L151,166L151,167L151,168L152,169L153,169L154,171L155,172L154,172L154,173L154,174L152,175L153,176L153,177L154,178L155,178L156,178L156,179L157,180L156,180L155,180L155,182L156,182L157,181L158,182L159,183L159,183L158,183L157,183L156,186L157,186L159,186L160,185L160,184L160,183L159,183L159,183L159,183L159,183L160,182L160,183L161,184L162,184L162,186L163,186L164,188L163,190L163,191L162,192L163,193L164,194L164,195L164,196L164,197L165,199L165,200L165,201L165,202L166,203L165,204L166,205L167,204L169,204L170,205L171,206Z M152,189L151,189L150,189L150,190Z " data-fips="ID11" data-hasc="ID.KB" data-name="Kalimantan Barat" data-postal="KB" data-varname="Kalbar"/><path d="M105,237L105,236L103,233L104,233L105,233L106,234L107,235L109,235L110,235L111,234L111,233L112,232L113,234L114,235L115,235L115,236L117,237L117,236L117,235L118,234L118,233L118,231L118,230L118,229L118,227L118,226L118,225L118,224L118,222L118,221L118,220L117,219L117,218L117,218L116,217L115,217L115,216L114,215L113,214L112,214L112,214L111,214L111,215L110,216L110,217L109,218L108,218L107,219L105,219L103,220L102,221L101,222L101,223L100,224L101,225L101,226L100,226L98,227L97,227L96,227L96,226L95,225L94,226L93,226L94,227L95,228L96,228L97,229L97,230L98,230L98,231L99,233L100,233L101,234L102,235L103,236L104,237Z " data-fips="ID15" data-hasc="ID.LA" data-name="Lampung" data-postal="LA" data-varname=""/><path d="M100,226L101,226L101,225L100,224L101,223L101,222L102,221L103,220L105,219L107,219L108,218L109,218L110,217L110,216L111,215L111,214L112,214L112,214L113,214L114,215L115,216L115,217L116,217L117,218L117,218L117,218L118,216L119,215L118,214L117,213L118,210L118,209L119,208L120,208L120,207L120,205L119,205L118,205L117,204L117,202L116,202L115,201L115,200L114,199L113,198L112,198L110,198L109,198L108,198L107,198L106,198L106,199L106,200L105,201L104,201L103,202L104,201L105,200L105,199L104,198L105,198L107,196L107,195L106,194L105,195L104,194L104,193L103,193L102,191L101,191L101,192L100,192L99,192L96,192L92,194L92,196L92,197L91,197L91,199L89,197L89,196L88,197L88,198L87,199L86,198L85,198L85,199L84,201L83,201L82,202L80,202L79,202L78,201L77,202L76,203L77,204L78,205L78,206L79,206L80,206L81,207L81,208L81,209L82,209L83,209L85,209L86,210L87,210L86,212L85,212L85,213L83,214L83,215L84,216L85,216L86,217L87,217L88,218L89,219L89,219L90,220L92,220L93,221L93,222L94,223L94,224L95,225L96,226L96,227L97,227L98,227Z " data-fips="ID32" data-hasc="ID.SL" data-name="Sumatera Selatan" data-postal="SL" data-varname="Sumsel"/><path d="M127,205L126,205L126,204L126,202L127,201L128,200L127,200L125,200L123,199L123,199L122,198L121,196L121,194L121,193L120,191L119,191L119,189L118,189L118,189L117,189L116,190L116,191L117,192L116,192L115,191L115,190L114,189L113,189L112,190L112,191L112,192L111,193L110,194L110,195L111,195L112,196L114,195L115,195L116,196L117,196L117,198L118,199L118,200L118,201L118,202L119,203L120,203L123,205L124,205L125,206L126,206L127,206Z M142,208L143,207L143,206L143,205L144,203L144,202L143,202L142,201L141,200L139,200L138,200L137,201L137,202L137,203L137,205L137,206L137,207L137,208L139,207L140,206L140,207L141,208Z M129,204L128,204L127,205L129,205Z " data-fips="ID35" data-hasc="ID.BB" data-name="Bangka-Belitung" data-postal="BB" data-varname="Babel|Kepulauan Bangka Belitung"/><path d="M224,268L223,267L223,268L224,268Z M220,269L220,268L221,267L222,266L223,265L225,265L225,264L224,263L223,262L221,261L220,261L219,261L218,262L216,262L214,261L213,261L212,261L212,262L213,263L214,264L215,264L217,265L219,266L219,267L220,268L219,269Z " data-fips="ID02" data-hasc="ID.BA" data-name="Bali" data-postal="BA" data-varname="Penida|Lembongan|Ceningan|Menjangan"/><path d="M213,267L212,267L211,266L211,265L211,264L211,262L212,260L212,259L212,258L210,257L209,257L208,256L207,256L205,256L204,257L203,257L201,257L200,257L199,257L198,257L197,256L196,256L194,255L193,255L194,253L194,252L194,251L193,252L192,251L192,249L191,249L191,248L190,248L189,248L188,248L187,248L186,248L185,246L184,247L183,247L181,246L181,247L181,248L181,249L181,251L180,251L179,252L178,252L177,252L176,253L176,255L176,256L176,257L177,257L177,258L177,259L176,260L175,261L174,261L174,262L174,262L174,263L175,262L176,263L177,263L178,263L179,263L180,263L181,264L182,263L183,263L184,263L185,263L188,264L189,263L190,264L191,264L192,265L193,264L194,264L195,264L197,263L199,263L200,263L201,264L202,265L203,265L204,266L205,266L206,266L207,267L208,267L209,267L211,267L211,268L212,268L213,268Z M227,250L227,251L226,251L227,251Z M197,250L198,251L199,251L200,251L202,251L202,250L203,250L205,250L206,249L207,249L208,248L207,248L206,247L205,248L196,248L194,248L194,249L193,250L193,251L194,251L197,251Z M222,248L223,248L224,248L223,247L222,247L220,247L220,248L221,249Z M193,236L193,235L192,235L192,236Z " data-fips="ID08" data-hasc="ID.JI" data-name="Jawa Timur" data-postal="JI" data-varname="Jatim"/><path d="M233,212L233,211L233,209L233,210L232,211L233,212Z M216,217L218,216L221,215L224,214L226,212L227,212L229,211L229,210L230,208L231,208L231,207L232,206L231,205L230,204L230,203L231,204L232,205L232,204L233,203L233,201L233,200L232,201L232,200L234,199L235,200L235,198L234,198L230,197L229,197L228,197L227,198L227,197L227,196L227,195L226,194L226,193L226,192L225,191L225,190L224,189L225,188L225,187L223,188L222,188L221,192L221,193L221,194L219,196L218,197L216,198L217,199L216,200L216,201L215,202L214,202L213,203L212,204L212,205L210,210L211,210L212,210L213,209L213,211L213,212L213,214L214,216L213,217L215,218Z M231,216L232,215L232,214L232,213L232,212L232,211L232,210L232,209L231,208L230,208L230,209L229,210L229,212L229,213L230,214L229,215L230,216Z " data-fips="ID12" data-hasc="ID.KS" data-name="Kalimantan Selatan" data-postal="KS" data-varname="Kalsel"/><path d="M304,292L306,291L307,290L309,289L308,288L308,288L307,288L306,289L305,289L304,290L303,290L302,291L303,292Z M293,288L293,288L293,287L292,287L292,287L290,288L291,289Z M309,285L309,285L310,284L309,284L308,285L308,286Z M313,286L314,285L316,285L317,284L318,284L320,284L321,283L321,282L322,282L323,281L325,279L326,278L327,277L326,275L326,275L326,273L327,274L328,273L328,272L327,272L325,272L325,272L324,271L324,272L323,273L321,273L320,274L320,275L319,276L318,276L317,275L316,276L315,275L314,276L313,277L313,278L312,278L311,280L312,281L311,282L311,283L312,282L312,283L311,284L310,285L310,286L311,286L312,286Z M277,285L279,285L280,284L280,283L281,282L280,281L279,280L278,279L277,278L276,278L275,278L275,277L274,276L273,276L272,275L271,274L270,275L268,275L267,275L266,275L265,275L264,275L263,275L262,275L261,276L261,277L261,278L262,279L263,279L265,279L266,279L267,279L268,279L269,280L270,281L271,281L272,282L272,283L273,284L274,285L276,285Z M285,270L286,270L287,269L288,269L289,269L290,270L291,270L292,269L294,269L296,268L297,268L299,268L300,267L301,267L302,267L303,266L303,265L304,265L304,264L305,263L305,262L304,262L303,261L302,262L302,263L303,262L304,263L303,263L302,264L301,264L300,265L299,266L299,267L296,267L295,266L294,265L293,265L292,265L291,265L290,265L289,266L288,267L287,266L286,266L285,265L284,265L283,264L282,264L281,264L280,264L278,263L277,263L276,263L274,263L274,264L273,264L272,265L271,265L270,267L270,269L271,269L273,269L274,269L275,269L276,269L277,269L278,269L279,269L280,270L281,270L282,270L284,270Z M269,268L270,267L269,267L268,267L268,267L268,268L269,269Z M310,266L311,266L311,265L313,265L313,263L315,263L315,263L314,262L313,263L312,263L311,264L310,264L311,263L310,263L309,264L310,264L308,265L307,266L308,266L309,267Z M318,266L318,264L318,264L319,263L318,262L318,263L317,264L316,264L315,264L315,265L316,265L317,266Z M266,267L267,266L267,265L266,265L266,265L265,267L266,268Z M305,266L307,265L306,265L305,265L304,267Z M306,264L308,264L308,263L307,263L306,263L305,265Z M320,265L322,265L323,265L324,265L327,264L328,264L327,262L326,262L325,262L324,262L323,262L322,262L321,262L320,262L321,263L320,264L319,265Z " data-fips="ID18" data-hasc="ID.NT" data-name="Nusa Tenggara Timur" data-postal="NT" data-varname="NTT"/><path d="M283,252L282,252L281,252L282,252Z M280,250L280,250L279,249L279,251Z M278,242L278,241L278,240L278,239L278,237L277,236L277,238L277,239L277,240L277,241L277,242L278,243Z M271,234L271,233L272,233L274,234L275,233L276,233L277,233L277,234L277,233L277,231L276,229L276,228L276,227L276,226L277,225L277,223L277,222L276,221L277,220L277,218L276,217L277,215L277,214L277,212L277,211L277,210L277,209L277,208L276,207L276,206L275,206L275,205L276,204L279,202L280,201L281,201L282,201L284,202L284,203L284,204L286,204L287,204L288,205L289,205L290,205L292,203L292,202L292,201L291,200L290,199L289,199L287,198L281,197L279,195L279,194L277,193L277,193L274,193L273,193L272,193L270,195L269,196L269,197L270,198L270,199L270,200L270,201L270,202L269,202L268,203L268,204L269,206L268,207L266,207L267,208L267,209L267,210L267,210L267,212L267,213L267,214L268,215L268,216L268,217L268,218L268,219L268,221L268,222L267,223L267,224L267,226L267,228L266,229L266,230L265,231L266,232L267,233L267,234L268,234L269,235Z " data-fips="ID38" data-hasc="ID.SE" data-name="Sulawesi Selatan" data-postal="SE" data-varname="Sulsel"/><path d="M262,211L263,210L264,210L266,210L267,210L267,209L267,208L266,207L268,207L269,206L268,204L268,203L269,202L270,202L270,201L270,200L270,199L270,198L269,197L269,196L270,195L271,193L271,192L270,191L270,190L269,188L267,187L267,186L268,185L268,184L268,182L268,181L267,182L267,183L266,184L265,185L265,186L265,187L265,188L265,190L265,191L266,192L265,194L264,194L264,196L263,197L263,198L263,199L262,200L261,201L260,201L259,202L259,203L260,203L260,204L260,206L259,206L260,207L260,209L260,210L261,211Z " data-fips="ID41" data-hasc="ID.SR" data-name="Sulawesi Barat" data-postal="SR" data-varname="Sulsel"/><path d="M102,179L103,178L104,177L103,177L103,176L102,176L101,176L100,177L101,178L101,179Z M108,175L107,175L106,174L105,174L105,173L104,172L103,172L103,173L102,175L103,175L104,174L106,175L107,175Z M103,170L103,170L104,171L105,171Z M92,164L91,163L90,163L90,164L91,165Z M100,163L99,162L98,163L99,163Z M104,162L104,161L104,160L104,159L103,159L101,159L101,160L100,160L100,161L101,161L102,161L102,161L102,162L103,163Z M91,161L90,160L90,161L91,161Z M99,161L99,160L98,160L97,160L96,160L97,161L98,161Z M117,139L116,139L116,138L116,139L116,140Z M144,132L145,131L145,130L145,129L145,128L144,127L144,127L143,126L142,127L141,128L141,129L142,130L143,130L144,131L143,131L143,132Z " data-fips="ID40" data-hasc="ID.KR" data-name="Kepulauan Riau" data-postal="KR" data-varname="Rhio|Riou|Riouw"/><path d="M311,169L311,168L311,167L311,166L309,165L308,164L308,163L307,162L307,162L306,162L305,162L304,163L303,163L302,162L301,161L300,161L299,161L298,161L297,161L295,162L293,161L291,162L290,162L289,163L288,163L287,163L286,164L285,165L286,165L287,166L287,167L287,167L288,167L289,167L290,166L291,166L292,167L292,167L293,167L295,167L296,167L297,167L298,167L302,166L303,167L304,167L305,167L306,167L308,168L309,169Z " data-fips="ID34" data-hasc="ID.GO" data-name="Gorontalo" data-postal="GO" data-varname=""/><path d="M77,202L78,201L79,202L80,202L82,202L83,201L84,201L85,199L85,198L86,198L87,199L88,198L88,197L89,196L89,197L91,199L91,197L92,197L92,196L92,194L96,192L99,192L100,192L101,192L101,191L102,191L103,191L102,189L102,187L102,186L102,185L101,184L99,184L99,184L97,183L96,183L95,183L94,183L93,182L92,181L91,180L87,181L86,181L84,181L83,182L82,183L82,184L80,184L79,183L78,182L77,182L76,182L75,182L74,183L73,184L73,185L73,186L72,186L72,188L72,189L71,190L70,191L67,191L66,191L66,192L66,193L67,194L67,195L68,196L68,198L69,197L70,198L71,199L71,200L72,201L73,202L74,202L74,202L75,203L76,203Z " data-fips="ID05" data-hasc="ID.JA" data-name="Jambi" data-postal="JA" data-varname="Djambi"/><path d="M185,211L186,209L187,209L188,208L189,209L191,210L192,209L196,207L195,206L196,205L196,204L197,205L198,206L198,207L200,207L200,208L201,207L202,207L203,208L203,209L204,210L205,210L206,209L207,209L208,207L208,209L209,209L210,208L210,210L212,205L212,204L213,203L214,202L215,202L216,201L216,200L217,199L216,198L218,197L219,196L221,194L221,193L221,192L222,188L223,188L225,187L227,186L227,184L225,184L225,183L224,182L223,182L222,181L222,179L221,178L221,177L221,175L221,174L221,173L222,172L220,172L219,173L218,174L217,173L218,171L218,170L217,169L217,168L218,167L219,166L218,165L218,164L217,164L215,164L214,165L211,166L210,165L209,165L207,165L206,165L205,166L204,166L204,167L203,168L203,169L202,169L201,169L199,169L200,170L201,171L201,173L201,174L200,175L199,175L199,176L199,178L198,177L197,178L195,178L193,179L191,180L190,180L189,180L187,180L186,180L184,181L183,182L182,182L181,183L180,184L180,185L179,185L178,186L177,187L177,188L176,188L175,189L174,189L173,190L174,190L174,191L174,193L174,194L174,195L175,198L175,200L176,201L175,202L174,203L173,204L173,204L172,204L172,205L173,206L175,206L178,204L179,204L180,205L181,204L182,203L182,204L183,206L183,207L183,209L183,211L184,211Z " data-fips="ID13" data-hasc="ID.KT" data-name="Kalimantan Tengah" data-postal="KT" data-varname="Kalteng"/><path d="M420,220L420,220L419,219L418,219L419,220L420,220L421,220Z M439,215L428,210L428,209L428,208L430,207L430,206L432,204L432,204L432,204L432,201L431,200L430,201L430,202L431,204L430,204L430,203L429,202L429,201L428,200L427,199L427,198L427,197L426,196L427,195L427,194L426,191L427,191L428,190L428,188L428,187L427,186L427,185L426,184L426,183L427,182L426,181L424,181L423,181L422,181L420,181L419,180L418,179L415,178L414,178L413,178L411,177L408,176L408,176L406,177L405,177L404,178L403,179L402,180L401,180L398,181L397,181L396,181L395,181L396,183L395,184L395,185L394,186L393,187L393,189L394,189L395,189L396,189L396,188L397,188L397,189L398,189L400,189L401,190L401,189L402,190L403,190L402,190L403,191L404,192L403,192L403,194L404,194L404,195L404,196L406,197L407,197L408,198L409,197L410,197L411,198L412,197L413,198L415,198L416,197L417,197L418,197L419,197L420,198L421,197L422,197L423,196L424,196L424,197L424,198L425,198L424,199L425,199L423,200L423,200L423,201L422,201L422,202L421,201L420,201L419,201L419,200L418,202L418,200L418,200L417,199L416,200L414,200L413,202L412,203L411,204L410,203L409,202L408,202L407,202L405,203L404,203L403,204L403,205L404,205L405,205L406,205L407,206L409,207L410,208L410,209L411,210L412,209L412,210L413,211L413,212L412,213L411,213L412,215L412,217L413,218L414,218L415,218L416,218L417,218L418,216L419,215L419,214L420,213L421,212L420,211L421,210L421,207L422,207L424,206L424,207L423,207L422,208L422,209L422,210L421,211L422,212L422,213L423,213L424,214L425,215L426,215L427,215L427,216L427,217L428,217L429,216L430,217L430,217L431,217L432,216L433,216L434,217L433,217L432,217L432,218L432,219L433,219L434,220Z M428,193L428,192L427,193L427,194Z M385,195L385,194L387,194L386,193L386,192L386,191L385,191L384,191L382,192L381,192L380,193L379,194L380,194L381,195L383,195L383,195Z M381,185L381,185L380,185L379,186L380,186Z M393,186L393,183L393,183L392,183L392,182L390,183L389,183L389,185L390,186L391,186L392,187L393,187Z M387,183L389,182L391,182L391,181L390,181L389,181L388,182L387,181L386,183Z M389,178L388,177L387,177L387,178L388,178Z M392,177L392,176L391,176L390,175L389,174L389,173L390,174L391,174L391,175L392,176L393,176L394,176L396,176L396,176L396,175L395,174L394,173L393,173L392,173L391,172L390,173L389,173L387,173L387,174L386,174L386,175L385,175L386,175L387,175L388,176L388,177L388,176L389,176L390,177Z " data-fips="ID39" data-hasc="ID.IB" data-name="Irian Jaya Barat" data-postal="IB" data-varname="New Guinea|Yos Sudarso or Frederick Hendrik|Waigeo|Supiori Biak|Yapen|Misool|Salawati|Batanta"/></g></svg>