<?xml version="1.0" ?><!DOCTYPE svg  PUBLIC '-//W3C//DTD SVG 1.1//EN'  'http://www.w3.org/Graphics/SVG/1.1/DTD/svg11.dtd'><svg enable_background="new 0 0 500 401" height="401px" style="stroke-linejoin: round; stroke:#000; fill:#f6f3f0;" version="1.1" viewBox="0 0 500 401" width="500px" xmlns="http://www.w3.org/2000/svg" xmlns:xlink="http://www.w3.org/1999/xlink"><defs><style type="text/css"><![CDATA[path { fill-rule: evenodd; }
#context path { fill: #eee; stroke: #bbb; } ]]></style></defs><metadata><views><view h="401" padding="0" w="500"><proj id="laea" lat0="21.0" lon0="78.5"/><bbox h="346.27" w="321.43" x="883.09" y="821.58"/><llbbox lat0="-90" lat1="90" lon0="-180" lon1="180"/></view></views></metadata><g id="admin1"><path d="M179,68L178,66L178,67L179,68Z " data-fips="IN05" data-hasc="IN.CH" data-name="Chandigarh" data-postal="CH" data-varname=""/><path d="M184,99L185,99L184,98L185,97L185,96L184,95L182,94L181,94L180,95L180,96L179,97L179,98L180,99L181,98L182,99L182,99L183,100Z " data-fips="IN07" data-hasc="IN.DL" data-name="Delhi" data-postal="DL" data-varname=""/><path d="M188,72L190,71L191,70L190,69L190,68L190,67L190,66L191,65L191,64L191,63L192,62L193,61L194,61L195,61L196,60L198,59L199,60L200,60L201,60L202,61L203,61L204,62L206,61L205,60L204,59L204,59L203,59L203,58L203,57L202,56L203,55L202,54L202,53L202,52L202,51L202,49L201,49L200,46L199,45L199,43L198,42L198,42L197,42L197,41L198,40L198,40L197,39L196,40L195,40L194,41L193,40L193,39L192,38L191,37L191,36L190,35L189,36L188,36L187,37L186,37L184,37L183,36L182,35L180,34L180,33L178,32L177,32L176,32L174,33L173,33L172,34L171,35L170,35L169,36L168,36L167,37L168,37L168,38L168,39L168,41L168,42L168,42L168,44L167,44L166,45L165,46L165,47L164,48L166,48L167,49L168,50L168,50L169,51L168,52L170,55L171,57L171,59L172,59L173,58L174,57L174,58L175,59L176,60L176,61L176,62L177,63L178,64L178,65L179,65L180,65L181,66L182,67L183,68L183,69L183,70L184,71L185,71L186,72L187,72Z " data-fips="IN11" data-hasc="IN.HP" data-name="Himachal Pradesh" data-postal="HP" data-varname=""/><path d="M181,110L181,109L182,109L183,109L184,109L185,108L186,108L187,108L187,106L187,105L187,104L187,103L187,102L187,101L186,100L185,100L185,99L184,99L183,100L182,99L182,99L181,98L180,99L179,98L179,97L180,96L180,95L181,94L182,94L183,93L183,92L183,91L183,90L183,87L183,86L182,86L182,85L182,84L182,82L183,81L183,80L184,78L184,77L185,77L186,76L187,75L188,74L187,72L186,72L185,71L184,71L183,70L183,69L183,68L182,67L181,66L180,65L179,65L178,65L179,65L179,68L179,68L179,68L180,69L180,70L180,71L180,73L179,72L178,72L178,73L177,73L176,74L177,75L176,76L174,76L174,75L173,76L172,76L171,77L171,79L171,80L170,80L169,81L168,81L167,80L166,80L165,81L164,81L163,80L162,80L161,81L160,82L160,83L159,83L158,82L159,81L159,80L158,80L157,79L156,79L155,78L154,77L153,78L152,78L150,78L150,78L150,79L150,80L150,81L151,81L151,82L151,83L151,84L151,85L151,86L152,87L152,86L154,86L155,86L155,87L156,87L157,88L158,88L159,88L160,87L161,88L161,89L161,90L162,91L162,92L162,93L162,94L163,95L163,97L164,98L165,99L166,100L167,100L168,101L169,102L168,104L167,104L168,104L168,105L168,106L167,107L168,108L170,108L171,108L170,107L170,106L170,105L171,105L172,105L172,104L172,103L173,104L174,104L175,105L175,106L176,106L177,104L178,104L178,103L179,103L180,104L180,105L180,106L180,107L180,109L179,110L179,111Z " data-fips="IN10" data-hasc="IN.HR" data-name="Haryana" data-postal="HR" data-varname=""/><path d="M164,44L166,43L166,43L168,42L168,41L168,39L168,38L168,37L167,37L168,36L169,36L170,35L171,35L172,34L173,33L174,33L176,32L177,32L178,32L180,33L180,34L182,35L183,36L184,37L186,37L187,37L188,36L189,36L190,35L191,36L191,37L192,38L193,39L193,40L194,41L195,40L196,40L197,39L198,40L198,40L197,41L197,42L198,42L198,42L199,41L201,41L202,40L202,42L203,43L204,44L205,44L207,44L208,42L209,42L210,42L211,41L212,40L211,38L211,37L210,36L210,35L210,34L210,33L208,33L207,32L206,31L205,31L205,30L203,29L203,27L203,25L203,23L202,21L202,20L203,19L204,19L205,18L205,17L205,16L204,16L202,14L201,13L198,13L197,12L196,9L195,8L195,6L194,4L194,3L194,1L194,0L193,0L192,1L191,0L182,6L182,7L181,8L180,8L179,8L179,9L178,11L176,11L175,10L173,11L172,12L170,11L169,12L168,13L167,14L165,14L162,13L161,12L160,12L159,12L154,11L151,9L149,10L148,11L146,11L146,12L145,13L144,14L144,15L145,16L146,16L146,18L145,18L145,19L146,20L147,20L148,20L149,21L149,22L148,23L146,23L146,24L146,25L147,26L148,27L147,29L147,30L146,31L146,32L147,33L148,34L149,35L149,36L150,37L150,38L151,38L152,38L153,38L154,37L153,39L153,40L153,41L154,42L155,42L157,43L158,42L159,43L160,44L161,44L161,44L163,44L163,45Z " data-fips="IN12" data-hasc="IN.JK" data-name="Jammu and Kashmir" data-postal="JK" data-varname=""/><path d="M199,324L200,323L201,322L201,321L201,320L202,319L203,318L204,318L205,319L206,318L207,319L208,319L209,318L210,317L211,317L212,316L212,315L213,314L214,315L215,315L216,316L217,316L218,315L219,315L220,313L221,313L221,312L222,313L222,313L224,312L224,312L223,312L222,312L221,310L222,309L222,310L223,310L224,311L224,312L224,312L224,311L223,310L224,308L224,307L222,305L222,303L221,302L222,301L223,299L223,298L223,297L222,296L222,295L222,294L221,292L221,291L221,289L221,288L221,286L222,285L223,284L223,283L224,281L225,279L227,279L228,278L229,278L230,278L231,279L231,280L232,279L232,278L233,277L232,278L233,279L234,279L234,278L235,278L236,277L236,276L236,274L237,273L237,272L238,271L239,271L240,271L241,271L242,272L243,272L244,271L246,271L247,270L248,270L249,269L250,269L251,268L252,267L252,266L252,265L252,263L251,264L251,263L251,262L252,261L253,260L254,259L257,257L258,256L259,256L260,255L261,255L262,254L263,254L263,253L265,252L264,251L265,251L266,250L266,249L267,248L268,247L269,247L271,245L275,243L275,242L276,241L277,240L278,239L277,240L278,239L279,238L280,237L281,235L283,233L283,232L284,231L284,230L283,230L282,231L281,232L280,232L280,233L279,234L278,235L277,235L275,236L274,235L273,236L272,235L271,234L270,233L270,234L269,232L268,231L267,232L266,233L265,233L264,233L264,234L265,235L265,236L264,236L262,236L261,237L261,238L260,239L261,240L261,241L261,242L259,242L258,242L257,242L257,243L256,243L255,244L255,244L255,243L254,241L253,240L252,241L252,242L252,244L251,245L252,246L251,247L250,247L249,248L249,247L247,247L246,248L245,249L243,250L242,250L241,251L240,251L239,251L238,251L236,251L235,251L234,251L233,250L233,248L233,247L233,246L232,246L231,246L230,245L230,244L230,243L229,242L228,241L227,240L226,239L225,239L224,239L223,238L223,238L222,238L221,238L220,237L219,236L219,236L219,234L219,233L218,232L219,231L219,230L219,229L219,228L219,227L218,227L217,226L216,226L215,226L214,227L213,226L212,226L211,226L209,225L209,225L208,225L207,226L205,226L205,225L204,224L203,223L202,223L200,222L199,223L198,222L197,222L198,223L198,224L197,225L197,226L197,227L196,228L195,229L195,230L194,230L193,230L192,229L191,230L191,231L191,232L190,233L190,234L190,235L191,235L191,236L190,237L189,238L189,239L188,240L187,241L187,242L186,243L187,245L187,246L187,247L188,248L188,249L187,250L186,251L186,252L185,253L185,254L186,254L187,255L188,255L187,256L186,256L186,257L184,259L185,260L185,261L185,262L185,263L185,265L185,266L185,267L185,268L184,269L183,270L183,271L185,271L186,271L187,272L186,273L186,274L186,276L185,277L183,277L182,277L181,277L180,278L179,279L180,280L180,281L179,282L179,283L179,284L179,285L179,286L180,286L181,288L181,289L180,290L179,290L178,290L177,290L175,290L176,291L176,292L176,293L176,294L175,295L175,296L176,298L177,298L178,299L177,299L177,300L178,301L179,302L180,301L180,300L181,300L182,300L183,301L184,302L185,301L185,302L185,303L184,303L184,304L184,305L184,306L184,306L183,305L182,305L181,305L180,305L179,304L179,303L178,302L177,303L178,304L178,305L179,306L178,307L179,308L180,308L181,308L181,307L182,307L183,307L184,307L185,308L185,309L186,309L187,308L188,308L189,308L190,307L190,306L191,306L192,306L192,307L193,307L194,307L194,309L193,310L194,310L196,311L197,311L198,312L198,313L197,314L198,315L199,315L200,315L200,316L200,317L199,318L199,319L198,320L199,321L197,320L197,321L196,321L196,323L196,324L197,324Z " data-fips="IN02" data-hasc="IN.AP" data-name="Andhra Pradesh" data-postal="AP" data-varname=""/><path d="M180,386L181,385L181,384L182,383L182,382L181,381L181,380L182,379L182,378L181,377L181,375L182,374L183,371L184,369L184,368L183,368L182,368L181,367L182,365L182,363L182,362L182,361L182,359L182,358L181,357L180,357L179,358L178,358L177,358L176,357L176,356L176,355L176,354L176,352L177,351L177,350L176,349L175,349L174,348L174,347L175,346L174,345L174,345L172,345L171,344L172,343L171,342L170,341L169,341L168,340L168,339L170,339L170,338L170,337L169,337L167,336L167,335L166,335L165,334L164,334L163,334L162,334L162,333L161,332L160,332L159,331L158,331L156,329L156,327L155,326L155,326L155,325L153,325L152,324L152,323L151,323L150,322L149,322L149,323L151,326L151,327L152,329L153,330L153,331L153,332L154,333L154,332L154,332L155,331L156,331L156,332L155,332L155,333L155,334L156,334L155,334L156,335L158,337L159,339L159,340L160,341L161,342L161,343L162,346L163,348L163,350L164,351L164,353L165,354L165,355L166,357L166,358L167,359L167,358L168,359L167,360L168,361L168,360L168,361L169,362L170,364L170,365L170,366L170,367L170,368L171,368L170,369L169,368L170,367L170,366L169,364L169,364L169,365L169,366L168,363L168,362L168,363L168,364L168,367L169,369L169,371L171,373L171,374L171,375L172,377L172,376L173,376L173,377L172,377L173,378L174,379L175,380L176,382L177,383L178,385L180,386Z " data-fips="IN13" data-hasc="IN.KL" data-name="Kerala" data-postal="KL" data-varname=""/><path d="M241,251L242,250L243,250L245,249L246,248L247,247L249,247L249,248L250,247L251,247L252,246L251,245L252,244L252,242L252,241L253,240L254,241L255,243L255,244L255,244L256,243L257,243L257,242L258,242L259,242L261,242L261,241L261,240L260,239L261,238L261,237L262,236L264,236L265,236L265,235L264,234L264,233L265,233L266,233L267,232L268,231L269,232L270,234L270,233L271,234L272,235L273,236L274,235L275,236L277,235L278,235L279,234L280,233L280,232L281,232L282,231L283,230L284,230L284,231L284,231L285,229L287,228L288,227L289,225L290,225L292,224L293,223L294,222L291,224L292,222L291,223L290,223L290,224L289,225L288,225L288,224L289,223L289,222L291,221L291,220L293,219L294,220L293,221L293,223L294,222L295,222L296,221L297,221L298,220L300,220L301,219L303,219L304,218L303,217L302,216L302,215L302,216L303,216L305,217L306,215L307,214L308,214L309,212L310,211L309,211L310,210L312,208L312,207L312,206L311,206L312,205L310,202L310,200L310,199L311,198L313,195L315,195L316,194L317,194L318,194L318,193L317,192L317,191L315,191L314,190L314,189L313,189L312,190L311,189L311,188L311,187L309,187L308,186L306,185L304,184L303,184L302,184L302,183L299,182L298,182L297,182L298,183L298,185L298,186L298,187L298,188L297,189L295,189L295,188L294,188L292,188L290,187L289,188L289,188L288,189L286,188L285,187L286,187L286,185L286,184L286,182L285,183L284,184L283,183L281,184L279,184L278,185L277,185L276,185L274,185L273,184L273,183L272,183L272,184L271,185L269,185L268,187L267,187L266,189L266,190L266,191L266,192L266,193L265,193L265,194L264,197L263,198L264,199L264,200L263,200L262,201L262,202L261,203L260,203L259,202L257,203L256,203L254,203L254,205L253,206L252,206L252,207L251,207L251,209L251,210L251,212L252,213L252,215L252,216L252,217L252,218L253,219L254,219L255,219L256,220L256,221L255,222L254,222L254,221L253,221L251,221L250,222L249,220L248,219L247,218L246,219L245,218L244,219L244,220L244,221L246,222L247,223L247,224L247,225L247,226L248,227L249,228L249,229L248,230L249,231L249,232L250,234L249,235L249,236L248,237L247,238L246,238L245,239L246,240L245,241L244,242L243,243L242,243L241,244L240,245L240,246L240,247L240,248L239,249L239,250L239,251L240,251Z " data-fips="IN21" data-hasc="IN.OR" data-name="Orissa" data-postal="OR" data-varname=""/><path d="M128,216L127,216L127,215L128,215L127,214L126,214L125,216L125,217L126,218L127,218L128,218Z " data-fips="IN06" data-hasc="IN.DN" data-name="Dadra and Nagar Haveli" data-postal="DN" data-varname="DAdra et Nagar Haveli|Dadra e Nagar Haveli"/><path d="M175,338L176,338L177,337L178,336L179,336L180,337L181,336L183,336L184,336L185,336L185,335L186,334L188,334L189,333L189,332L189,331L188,331L185,330L185,329L186,329L187,328L187,326L187,325L187,324L188,324L189,323L190,322L190,321L192,321L192,322L193,321L194,322L196,323L196,321L197,321L197,320L199,321L198,320L199,319L199,318L200,317L200,316L200,315L199,315L198,315L197,314L198,313L198,312L197,311L196,311L194,310L193,310L194,309L194,307L193,307L192,307L192,306L191,306L190,306L190,307L189,308L188,308L187,308L186,309L185,309L185,308L184,307L183,307L182,307L181,307L181,308L180,308L179,308L178,307L179,306L178,305L178,304L177,303L178,302L179,303L179,304L180,305L181,305L182,305L183,305L184,306L184,306L184,305L184,304L184,303L185,303L185,302L185,301L184,302L183,301L182,300L181,300L180,300L180,301L179,302L178,301L177,300L177,299L178,299L177,298L176,298L175,296L175,295L176,294L176,293L176,292L176,291L175,290L177,290L178,290L179,290L180,290L181,289L181,288L180,286L179,286L179,285L179,284L179,283L179,282L180,281L180,280L179,279L180,278L181,277L182,277L183,277L185,277L186,276L186,274L186,273L187,272L186,271L185,271L183,271L183,270L184,269L185,268L185,267L185,266L185,265L185,263L185,262L185,261L185,260L184,259L186,257L186,256L187,256L188,255L187,255L186,254L185,254L185,253L186,252L186,251L187,250L188,249L188,248L187,247L187,246L187,245L186,244L185,244L184,243L184,242L183,242L182,243L182,244L181,245L180,245L179,246L178,247L178,248L178,249L177,250L176,250L176,251L175,251L175,252L174,251L172,252L172,252L171,253L170,254L170,255L170,256L170,257L169,257L168,257L167,257L166,257L165,257L164,257L163,256L162,256L161,256L160,255L160,256L160,257L160,258L160,259L161,260L160,261L160,262L159,262L158,262L156,263L155,263L154,264L153,263L152,263L151,263L151,264L150,264L150,265L149,265L148,266L147,267L147,268L146,268L145,267L144,267L143,268L142,268L141,269L142,269L143,270L142,271L143,272L145,273L144,274L144,275L144,276L143,277L143,278L142,279L141,280L140,279L140,280L140,281L141,281L141,283L141,284L141,285L142,286L141,287L142,288L141,289L141,290L141,291L140,291L139,292L140,292L141,292L140,292L139,293L140,294L141,294L141,295L142,296L143,297L143,298L142,297L143,298L143,299L143,300L144,301L143,301L144,302L144,303L144,304L145,305L146,306L146,308L147,309L147,309L147,310L147,311L147,313L147,314L147,316L148,317L148,318L148,321L150,321L148,321L149,322L150,322L151,323L152,323L152,324L153,325L155,325L155,326L155,326L156,327L156,329L158,331L159,331L160,332L161,332L162,333L162,334L163,334L164,334L165,334L166,335L167,335L167,336L169,337L170,337L170,338L170,338L171,337L172,338L173,339Z " data-fips="IN19" data-hasc="IN.KA" data-name="Karnataka" data-postal="KA" data-varname="Maisur|Mysore"/><path d="M140,280L140,279L141,280L142,279L143,278L143,277L144,276L144,275L144,274L145,273L143,272L142,271L143,270L142,269L141,269L142,268L143,268L144,267L145,267L146,268L147,268L147,267L148,266L149,265L150,265L150,264L151,264L151,263L152,263L153,263L154,264L155,263L156,263L158,262L159,262L160,262L160,261L161,260L160,259L160,258L160,257L160,256L160,255L161,256L162,256L163,256L164,257L165,257L166,257L167,257L168,257L169,257L170,257L170,256L170,255L170,254L171,253L172,252L172,252L174,251L175,252L175,251L176,251L176,250L177,250L178,249L178,248L178,247L179,246L180,245L181,245L182,244L182,243L183,242L184,242L184,243L185,244L186,244L186,243L187,242L187,241L188,240L189,239L189,238L190,237L191,236L191,235L190,235L190,234L190,233L191,232L191,231L191,230L192,229L193,230L194,230L195,230L195,229L196,228L197,227L197,226L197,225L198,224L198,223L197,222L198,222L199,223L200,222L202,223L203,223L204,224L205,225L205,226L207,226L208,225L209,225L209,225L211,226L212,226L213,226L214,227L215,226L216,226L217,226L218,227L219,227L219,228L219,229L219,230L219,231L218,232L219,233L219,234L219,236L219,236L220,237L221,238L222,238L223,238L223,238L223,237L224,236L223,235L224,234L224,233L225,232L225,231L226,230L227,229L228,229L229,229L230,230L231,229L231,228L232,227L231,226L230,226L229,225L228,224L227,223L226,222L225,222L226,221L226,221L227,221L227,220L227,219L226,218L225,217L226,216L227,216L227,215L228,214L228,213L228,212L227,211L226,210L227,210L227,209L227,207L226,206L225,206L225,205L226,203L227,202L228,201L228,201L226,200L225,200L225,198L224,197L223,197L222,197L220,197L219,198L218,198L217,198L216,197L215,197L214,198L213,197L213,196L212,196L211,196L209,196L208,196L207,197L205,197L205,198L203,199L202,199L201,199L200,198L199,198L198,197L197,197L196,197L195,198L195,199L193,199L191,200L190,200L188,200L187,200L186,200L186,199L186,198L187,198L187,197L187,195L186,195L183,195L182,195L181,195L180,196L178,197L177,197L177,198L176,199L175,200L175,201L175,203L173,203L172,204L171,204L170,204L168,204L168,203L168,201L167,200L166,200L165,200L164,200L162,200L161,200L160,200L157,200L156,199L155,199L154,197L153,197L152,197L151,196L150,196L149,196L148,195L147,194L147,193L147,191L146,191L145,191L144,191L143,192L142,191L141,191L140,192L138,193L137,193L138,194L138,195L137,196L138,197L139,197L140,197L141,197L143,197L144,197L143,198L141,198L140,199L139,199L139,201L137,201L137,202L136,202L135,203L136,203L136,204L137,204L138,205L138,206L138,208L137,209L137,210L136,211L135,211L134,210L133,209L132,209L132,210L132,211L132,212L131,213L131,214L131,215L131,216L129,217L128,218L127,218L126,218L125,217L124,217L123,217L122,217L122,217L122,218L122,220L121,221L122,221L122,222L122,223L122,224L123,225L124,225L122,226L123,227L124,228L124,228L126,229L126,230L125,229L124,228L123,228L123,230L123,231L123,232L123,233L123,234L124,233L125,232L125,230L125,232L126,233L125,233L124,234L125,235L126,235L125,236L125,235L124,236L123,237L124,238L124,239L125,239L125,240L124,240L124,241L124,242L125,243L126,243L126,244L125,244L124,243L125,244L125,246L125,247L125,248L126,249L127,250L126,251L127,253L128,253L127,253L127,254L127,255L128,256L128,258L128,259L128,260L128,261L128,262L128,263L129,264L129,265L129,266L129,267L129,268L129,270L130,271L130,273L131,273L131,275L131,275L132,276L133,277L133,279L134,280L134,280L136,279L137,280L137,281L138,281Z " data-fips="IN16" data-hasc="IN.MH" data-name="Maharashtra" data-postal="MH" data-varname=""/><path d="M418,398L418,397L418,396L418,394L417,393L417,392L416,392L415,393L414,394L414,395L415,396L416,397L417,398L417,399Z M414,391L415,390L415,389L414,390L413,391L414,392Z M411,383L411,382L410,382L409,382L409,383L410,383Z M412,381L411,379L411,378L411,379L412,381L411,382Z M406,379L406,378L405,377L405,378L406,379L407,379Z M401,366L401,365L400,364L399,365L400,366Z M396,346L396,345L396,344L396,343L396,342L395,341L394,342L393,343L393,344L394,346L394,347L395,347Z M397,335L397,333L397,333L397,334L397,335Z M398,332L398,331L397,330L398,330L398,327L398,326L398,327L398,325L398,324L399,323L399,322L399,321L399,320L399,319L400,319L400,318L401,317L400,316L400,315L400,314L400,313L399,312L399,311L400,310L400,310L401,309L401,308L401,307L400,306L401,305L401,304L400,303L400,303L399,303L398,304L398,305L398,307L398,308L398,309L398,311L398,312L398,313L397,314L397,315L397,316L397,317L397,321L398,322L397,323L396,323L396,324L396,325L396,326L396,327L395,327L395,328L395,329L396,330L396,331L397,332Z M402,326L402,325L401,325L401,326L402,327Z M396,314L397,313L396,312L396,313L396,314Z " data-fips="IN01" data-hasc="IN.AN" data-name="Andaman and Nicobar" data-postal="AN" data-varname="Andaman &amp; Nicobar Islands|Andaman et Nicobar|Iihas de Andama e Nicobar|Inseln Andamanen und Nikobare"/><path d="M381,152L382,151L382,150L383,149L384,148L385,149L385,149L386,149L387,148L387,148L387,147L387,145L387,144L388,143L388,142L389,141L389,140L390,139L390,138L390,136L391,135L391,134L391,133L390,132L389,131L390,131L391,129L392,128L393,127L394,125L395,126L395,127L396,126L397,125L397,124L397,123L397,122L398,119L399,118L399,117L399,116L400,117L401,116L401,115L402,114L403,114L404,113L406,112L406,110L407,110L408,110L410,108L410,108L411,107L412,106L413,106L413,105L414,104L415,105L418,103L419,103L420,102L419,101L418,101L418,100L418,99L417,99L416,98L416,97L418,94L418,93L414,94L413,95L412,95L410,96L409,96L406,98L404,99L402,100L401,101L400,101L398,101L397,101L397,102L395,105L395,105L393,108L393,109L392,110L391,111L390,111L389,112L387,111L382,112L382,111L380,111L379,111L378,112L376,112L374,113L373,114L371,114L371,114L370,115L369,114L369,116L368,115L367,115L366,116L365,116L364,115L363,115L362,116L361,117L360,116L359,116L358,117L354,117L353,117L351,117L350,116L349,117L348,117L347,118L345,119L344,119L344,119L344,120L344,121L344,123L344,124L343,125L343,126L342,127L342,127L343,128L343,129L344,129L344,130L344,132L344,133L345,134L345,135L345,137L345,137L346,136L346,135L347,134L346,134L346,132L346,131L347,130L348,129L349,129L350,129L351,128L353,128L353,130L354,129L355,129L356,129L357,129L359,129L360,129L360,130L362,130L362,131L363,131L363,130L364,129L365,129L366,128L367,127L367,128L368,128L368,126L369,126L370,126L371,126L372,126L374,125L375,126L374,127L374,128L374,129L374,130L374,131L375,130L376,130L378,130L379,131L380,132L381,132L380,133L380,134L381,134L382,135L383,136L383,137L381,138L381,138L380,139L379,139L378,141L378,141L379,142L379,143L378,143L377,142L376,143L376,144L376,146L376,147L376,147L377,148L377,149L377,150L377,151L378,152L379,152L380,153Z " data-fips="IN03" data-hasc="IN.AS" data-name="Assam" data-postal="AS" data-varname=""/><path d="M402,153L403,152L403,151L403,150L403,148L404,147L404,146L404,145L405,144L405,143L405,142L406,142L406,140L407,139L407,138L407,137L407,135L406,135L405,134L406,131L406,131L405,131L405,130L405,129L405,128L404,129L403,130L402,131L400,131L399,131L398,131L397,131L395,132L395,132L394,134L394,135L393,136L392,135L391,135L390,136L390,138L390,139L389,140L389,141L388,142L388,143L387,144L387,145L387,147L387,148L387,148L387,149L387,150L387,151L387,153L388,153L389,153L390,153L391,153L392,152L392,153L394,154L395,154L396,153L397,153L398,154L399,154L400,154L401,154L402,155Z " data-fips="IN17" data-hasc="IN.MN" data-name="Manipur" data-postal="MN" data-varname=""/><path d="M394,135L394,134L395,132L395,132L397,131L398,131L399,131L400,131L402,131L403,130L404,129L405,128L405,129L405,130L405,131L406,131L406,131L406,131L407,131L408,130L409,129L410,127L410,126L410,124L410,124L411,122L410,121L410,120L410,119L410,118L410,117L410,116L410,115L410,114L412,113L412,113L411,112L411,111L411,110L411,109L411,109L410,108L408,110L407,110L406,110L406,112L404,113L403,114L402,114L401,115L401,116L400,117L399,116L399,117L399,118L398,119L397,122L397,123L397,124L397,125L396,126L395,127L395,126L394,125L393,127L392,128L391,129L390,131L389,131L390,132L391,133L391,134L391,135L392,135L393,136Z " data-fips="IN20" data-hasc="IN.NL" data-name="Nagaland" data-postal="NL" data-varname=""/><path d="M354,140L356,140L357,140L358,140L360,140L363,139L364,139L366,140L367,139L368,140L369,139L370,139L372,139L373,138L374,139L375,139L376,140L377,140L378,141L379,139L380,139L381,138L381,138L383,137L383,136L382,135L381,134L380,134L380,133L381,132L380,132L379,131L378,130L376,130L375,130L374,131L374,130L374,129L374,128L374,127L375,126L374,125L372,126L371,126L370,126L369,126L368,126L368,128L367,128L367,127L366,128L365,129L364,129L363,130L363,131L362,131L362,130L360,130L360,129L359,129L357,129L356,129L355,129L354,129L353,130L353,128L351,128L350,129L349,129L348,129L347,130L346,131L346,132L346,134L347,134L346,135L346,136L345,137L345,137L344,138L345,139L346,139L349,140L351,140L352,141Z " data-fips="IN18" data-hasc="IN.ML" data-name="Meghalaya" data-postal="ML" data-varname=""/><path d="M160,82L161,81L162,80L163,80L164,81L165,81L166,80L167,80L168,81L169,81L170,80L171,80L171,79L171,77L172,76L173,76L174,75L174,76L176,76L177,75L176,74L177,73L178,73L178,72L179,72L180,73L180,71L180,70L180,69L179,68L179,68L178,67L178,66L179,65L178,65L178,64L177,63L176,62L176,61L176,60L175,59L174,58L174,57L173,58L172,59L171,59L171,57L170,55L168,52L169,51L168,50L168,50L167,49L166,48L164,48L165,47L165,46L166,45L167,44L168,44L168,42L168,42L166,43L166,43L164,44L163,45L163,44L161,44L161,44L161,45L161,46L161,47L160,47L158,48L157,48L156,48L155,48L154,50L153,49L153,50L152,51L151,52L151,53L152,54L152,56L152,57L151,59L151,60L151,61L153,62L151,63L151,63L150,64L149,64L148,65L147,66L147,67L146,68L145,68L145,69L144,70L143,71L142,72L143,73L143,74L144,75L143,77L148,78L149,78L150,78L152,78L153,78L154,77L155,78L156,79L157,79L158,80L159,80L159,81L158,82L159,83L160,83Z " data-fips="IN23" data-hasc="IN.PB" data-name="Punjab" data-postal="PB" data-varname=""/><path d="M146,175L147,176L149,175L150,174L149,173L148,173L148,172L148,171L149,170L150,170L152,169L152,168L153,167L153,166L153,165L153,164L153,162L153,160L153,159L152,159L151,158L151,157L152,157L152,156L151,155L151,154L152,152L153,153L154,152L154,151L153,151L152,150L153,149L153,150L155,150L156,150L156,148L156,148L157,148L159,148L158,149L158,150L159,150L158,151L157,151L157,152L157,152L159,152L160,153L161,152L163,152L164,152L165,153L166,154L165,156L164,156L164,157L164,158L164,159L164,160L165,161L164,162L163,162L162,163L161,162L160,163L161,164L162,165L163,165L164,164L165,164L166,164L167,163L167,162L169,160L169,159L169,158L170,158L170,159L171,159L172,159L173,159L174,160L175,159L176,159L176,160L177,161L178,160L178,159L178,158L178,156L178,155L179,155L179,156L181,154L180,153L179,152L178,152L177,151L178,151L179,150L178,148L179,148L180,147L181,147L183,147L184,147L185,147L185,145L185,144L185,143L184,142L183,143L182,144L181,144L180,144L179,144L178,144L177,143L176,143L174,142L174,141L174,138L174,137L175,136L176,135L177,135L178,134L179,133L180,133L181,132L182,131L183,131L184,131L184,130L185,129L186,129L188,128L189,128L190,127L191,127L192,126L192,125L193,125L194,124L195,123L196,123L196,122L196,121L195,121L194,121L193,122L192,122L191,121L189,121L189,122L186,123L185,123L186,122L186,122L189,121L190,120L189,120L187,120L187,119L188,118L189,117L188,116L188,115L187,115L186,114L185,113L185,112L185,111L184,110L184,109L183,109L182,109L181,109L181,110L179,111L179,110L180,109L180,107L180,106L180,105L180,104L179,103L178,103L178,104L177,104L176,106L175,106L175,105L174,104L173,104L172,103L172,104L172,105L171,105L170,105L170,106L170,107L171,108L170,108L168,108L167,107L168,106L168,105L168,104L167,104L168,104L169,102L168,101L167,100L166,100L165,99L164,98L163,97L163,95L162,94L162,93L162,92L162,91L161,90L161,89L161,88L160,87L159,88L158,88L157,88L156,87L155,87L155,86L154,86L152,86L152,87L151,86L151,85L151,84L151,83L151,82L151,81L150,81L150,80L150,79L150,78L150,78L149,78L148,78L143,77L144,75L143,74L143,74L142,75L141,76L139,77L136,78L134,83L132,87L131,89L130,90L123,94L121,95L120,99L119,100L118,101L117,103L116,105L112,106L111,106L110,106L109,106L108,106L107,106L104,108L102,108L101,106L101,105L100,104L99,103L98,103L97,103L96,104L95,105L94,106L92,109L91,110L90,111L89,113L88,113L87,114L86,115L86,116L85,120L85,121L88,122L89,123L92,123L93,124L93,125L93,126L93,127L93,128L93,129L92,131L92,133L93,134L93,135L94,136L95,136L97,136L99,136L99,137L99,141L100,142L100,143L101,144L102,146L102,148L103,149L103,151L103,151L104,151L106,151L108,152L109,151L110,151L111,152L112,151L113,152L114,151L115,152L116,151L117,152L118,152L120,153L119,153L120,154L121,154L122,155L122,154L123,155L124,155L125,156L126,156L127,156L128,155L129,155L130,155L130,156L131,157L130,158L129,159L130,160L131,161L132,161L133,160L133,162L133,163L133,164L133,165L134,166L135,166L135,167L136,168L136,169L136,170L137,170L138,170L139,171L140,171L141,172L142,173L143,174L144,174L144,175L145,176Z " data-fips="IN24" data-hasc="IN.RJ" data-name="Rajasthan" data-postal="RJ" data-varname="Greater Rajasthan|Rajputana"/><path d="M260,163L261,163L261,162L262,161L262,160L263,159L263,157L264,156L263,155L263,155L265,154L264,153L264,152L264,151L263,151L263,150L262,149L262,148L262,146L262,145L263,144L264,143L266,142L267,141L268,140L269,140L270,139L271,138L272,137L273,138L274,138L274,137L275,136L276,137L277,137L278,136L276,135L275,134L274,134L273,134L272,133L272,132L271,132L270,131L270,130L271,129L272,128L272,127L270,127L269,127L269,126L269,125L270,125L271,124L272,124L274,123L273,122L273,121L272,120L271,121L270,120L270,119L269,118L269,117L268,116L268,115L267,114L267,114L264,113L262,113L261,113L261,114L260,115L259,114L258,113L257,113L255,113L253,112L253,111L252,110L250,110L249,110L248,109L247,109L245,107L244,107L243,107L241,108L240,107L239,106L238,105L237,104L236,103L235,104L234,103L234,102L233,101L231,100L229,99L229,99L228,98L227,98L226,97L224,97L224,98L223,97L222,97L221,96L220,95L219,94L219,95L218,96L217,95L216,95L216,94L215,94L213,94L212,94L211,94L210,92L209,92L208,91L207,90L206,90L205,90L204,89L202,88L203,87L204,87L205,86L203,85L201,84L200,83L199,82L198,81L197,79L196,78L195,79L196,81L195,82L194,82L192,82L191,83L191,81L190,79L190,78L191,77L192,75L192,74L190,73L188,74L187,75L186,76L185,77L184,77L184,78L183,80L183,81L182,82L182,84L182,85L182,86L183,86L183,87L183,90L183,91L183,92L183,93L184,95L185,96L185,97L184,98L185,99L185,100L186,100L187,101L187,102L187,103L187,104L187,105L187,106L187,108L186,108L185,108L184,109L184,110L185,111L185,112L185,113L186,114L187,115L188,115L188,116L189,117L188,118L187,119L187,120L189,120L190,120L189,121L186,122L186,122L185,123L186,123L189,122L189,121L191,121L192,122L193,122L194,121L195,121L196,121L196,122L196,123L197,122L198,122L199,123L200,123L201,123L202,123L203,124L204,125L205,125L206,126L207,128L207,130L206,130L205,131L205,132L205,133L205,134L204,135L204,136L203,137L203,138L203,139L202,140L201,140L200,141L199,141L198,141L197,142L196,143L197,144L198,146L198,147L197,148L197,149L196,150L196,151L196,152L196,154L196,155L196,156L197,157L198,157L198,158L199,158L199,157L200,157L201,158L202,159L203,159L204,160L204,159L205,158L206,157L205,156L205,155L204,154L203,154L202,153L203,152L203,151L202,150L201,149L201,148L201,147L200,145L200,144L201,143L201,143L202,143L202,142L203,142L204,143L204,142L205,141L205,142L205,143L205,144L204,145L205,146L206,145L207,145L207,146L208,147L209,146L210,146L209,144L210,144L210,145L211,145L211,146L210,147L211,148L211,147L212,147L213,146L214,147L216,147L217,146L217,145L218,145L219,144L220,143L221,143L222,143L223,143L223,145L224,145L224,146L223,147L222,148L223,148L224,148L226,148L225,147L226,147L227,148L228,147L228,146L229,146L230,146L230,147L229,148L229,149L230,149L231,149L232,149L233,150L234,149L234,148L235,147L235,146L236,146L237,147L237,146L239,145L239,146L240,147L241,147L242,148L243,148L243,149L244,150L245,150L246,151L247,151L248,151L249,152L249,153L250,153L251,152L253,152L254,152L255,153L255,154L254,154L254,155L255,157L255,158L254,159L254,160L255,161L256,162L257,163L258,163Z " data-fips="IN36" data-hasc="IN.UP" data-name="Uttar Pradesh" data-postal="UP" data-varname="United Provinces"/><path d="M219,95L219,94L219,94L219,92L220,91L220,90L221,90L221,89L222,88L221,87L221,86L222,85L222,84L223,83L222,82L223,81L224,80L225,80L225,79L226,78L227,77L228,76L228,75L229,75L230,74L229,73L227,73L227,72L225,71L224,71L223,71L222,70L220,69L220,68L221,67L220,66L219,67L218,66L217,65L216,64L215,64L213,64L212,64L211,63L210,63L210,62L209,61L208,60L208,59L208,59L207,58L206,58L205,59L204,59L205,60L206,61L204,62L203,61L202,61L201,60L200,60L199,60L198,59L196,60L195,61L194,61L193,61L192,62L191,63L191,64L191,65L190,66L190,67L190,68L190,69L191,70L190,71L188,72L190,73L192,74L192,75L191,77L190,78L190,79L191,81L191,83L192,82L194,82L195,82L196,81L195,79L196,78L197,79L198,81L199,82L200,83L201,84L203,85L205,86L204,87L203,87L202,88L204,89L205,90L206,90L207,90L208,91L209,92L210,92L211,94L212,94L213,94L215,94L216,94L216,95L217,95L218,96Z " data-fips="IN39" data-hasc="IN.UT" data-name="Uttaranchal" data-postal="UT" data-varname="Uttarakhand"/><path d="M298,188L298,187L298,186L298,185L298,183L297,182L298,182L299,182L302,183L302,184L303,184L304,184L306,185L307,185L308,185L309,184L308,183L307,182L308,181L307,180L306,180L306,179L304,178L303,178L303,176L303,175L303,174L301,174L299,174L298,173L297,172L296,172L295,171L296,170L296,169L295,168L297,168L297,167L298,166L299,167L300,168L301,168L302,167L302,166L303,165L304,165L306,164L307,164L308,163L308,162L309,161L310,162L311,162L312,163L312,162L313,161L313,160L313,159L314,160L315,159L316,159L316,158L317,157L318,157L318,155L319,155L319,153L320,152L319,151L320,151L321,150L321,149L320,148L320,147L320,146L320,144L319,143L319,142L318,142L316,141L315,141L315,142L314,143L313,143L312,144L312,145L311,145L311,146L310,148L310,149L310,150L310,152L308,151L308,152L307,152L306,152L305,152L304,152L303,153L303,155L302,155L301,155L300,154L300,153L299,153L298,152L297,151L296,150L295,151L294,150L293,150L292,151L292,152L292,153L291,153L290,154L288,154L287,154L286,155L285,156L283,156L282,156L282,155L281,155L280,155L279,156L278,157L277,157L276,156L275,156L275,154L274,154L273,155L272,155L272,154L271,153L270,154L268,154L267,155L266,154L265,154L263,155L263,155L264,156L263,157L263,159L262,160L264,160L265,161L265,162L265,163L267,164L268,165L268,166L268,168L269,168L270,167L271,167L271,168L271,170L271,170L272,171L272,173L272,174L273,175L273,176L274,176L275,176L276,177L276,178L275,178L274,179L274,180L273,181L272,182L273,183L273,184L274,185L276,185L277,185L278,185L279,184L281,184L283,183L284,184L285,183L286,182L286,184L286,185L286,187L285,187L286,188L288,189L289,188L289,188L290,187L292,188L294,188L295,188L295,189L297,189Z " data-fips="IN38" data-hasc="IN.JH" data-name="Jharkhand" data-postal="JH" data-varname="Vananchal"/><path d="M327,192L327,191L327,189L326,190L326,193L327,193Z M333,193L333,192L333,191L332,190L332,189L333,188L333,187L333,186L333,185L333,186L333,187L334,188L334,187L334,186L334,185L334,186L334,187L334,188L334,190L334,192L335,193L336,192L336,191L336,190L337,192L338,192L339,192L339,191L338,190L338,188L337,188L338,188L339,187L338,186L338,185L338,184L338,183L337,182L337,181L337,180L337,179L336,178L336,177L336,175L336,175L335,173L335,172L335,171L335,170L334,170L332,169L333,168L333,166L332,165L331,165L330,164L330,162L330,161L332,160L332,159L332,158L331,157L331,156L332,155L332,154L331,154L330,154L329,154L328,154L323,151L323,150L323,149L323,148L324,147L323,146L324,146L325,146L326,146L327,145L327,144L327,143L328,142L329,142L330,142L331,142L332,141L334,141L333,140L332,139L332,139L332,138L331,137L330,138L328,137L328,137L327,136L326,135L325,134L324,133L323,134L322,133L322,132L322,131L323,130L323,128L324,128L325,127L325,126L326,125L327,125L326,124L325,123L325,122L326,123L327,123L328,124L329,125L330,125L329,126L330,126L331,127L332,126L333,126L333,125L332,124L333,124L334,124L334,125L335,127L335,128L336,128L337,129L338,130L339,130L341,129L341,128L341,127L342,127L343,126L343,125L344,124L344,123L344,121L344,120L344,119L344,119L343,119L342,119L340,119L340,118L339,118L338,118L337,117L336,118L335,118L334,118L333,117L332,117L331,117L330,115L330,114L329,114L328,114L327,114L326,114L325,115L324,115L323,114L321,114L321,114L321,113L320,113L319,113L319,115L320,116L321,117L321,118L322,119L322,120L322,121L321,123L322,123L323,123L323,124L324,125L324,126L323,127L322,128L321,129L320,129L319,131L319,132L319,133L320,134L320,135L322,135L322,137L322,138L321,137L320,138L319,139L318,139L319,140L319,141L319,143L320,144L320,146L320,147L320,148L321,149L321,150L320,151L319,151L320,152L319,153L319,155L318,155L318,157L317,157L316,158L316,159L315,159L314,160L313,159L313,160L313,161L312,162L312,163L311,162L310,162L309,161L308,162L308,163L307,164L306,164L304,165L303,165L302,166L302,167L301,168L300,168L299,167L298,166L297,167L297,168L295,168L296,169L296,170L295,171L296,172L297,172L298,173L299,174L301,174L303,174L303,175L303,176L303,178L304,178L306,179L306,180L307,180L308,181L307,182L308,183L309,184L308,185L307,185L308,186L309,187L311,187L311,188L311,189L312,190L313,189L314,189L314,190L315,191L317,191L317,192L318,193L318,194L321,193L322,192L323,192L324,191L325,190L325,188L326,187L327,186L326,185L324,185L324,184L323,182L324,183L324,184L325,184L326,185L327,185L327,187L327,188L327,189L327,191L327,192L328,193L329,193L329,192L329,191L329,193L330,192L330,193L331,192L331,191L331,190L331,189L331,188L331,189L332,190L332,191L332,193L332,194Z " data-fips="IN28" data-hasc="IN.WB" data-name="West Bengal" data-postal="WB" data-varname="Bangla|Bengala Occidentale|Bengala Ocidental|Bengale occidental"/><path d="M278,157L279,156L280,155L281,155L282,155L282,156L283,156L285,156L286,155L287,154L288,154L290,154L291,153L292,153L292,152L292,151L293,150L294,150L295,151L296,150L297,151L298,152L299,153L300,153L300,154L301,155L302,155L303,155L303,153L304,152L305,152L306,152L307,152L308,152L308,151L310,152L310,150L310,149L310,148L311,146L311,145L312,145L312,144L313,143L314,143L315,142L315,141L316,141L318,142L319,142L319,141L319,140L318,139L319,139L320,138L321,137L322,138L322,137L322,135L320,135L320,134L319,133L319,132L319,131L320,129L321,129L322,128L323,127L324,126L324,125L323,124L323,123L322,123L321,123L321,124L321,125L320,125L319,124L318,125L317,125L316,125L315,126L313,125L312,126L311,126L310,126L309,126L308,124L308,123L307,124L306,125L305,125L304,126L303,125L302,125L301,124L299,124L298,123L297,124L296,123L295,123L294,123L293,124L292,124L291,123L291,121L290,120L288,121L287,121L286,122L284,121L283,120L282,120L281,119L280,119L279,119L277,118L277,117L277,116L277,115L276,114L272,113L271,112L271,112L270,112L269,113L268,113L267,113L267,114L268,115L268,116L269,117L269,118L270,119L270,120L271,121L272,120L273,121L273,122L274,123L272,124L271,124L270,125L269,125L269,126L269,127L270,127L272,127L272,128L271,129L270,130L270,131L271,132L272,132L272,133L273,134L274,134L275,134L276,135L278,136L277,137L276,137L275,136L274,137L274,138L273,138L272,137L271,138L270,139L269,140L268,140L267,141L266,142L264,143L263,144L262,145L262,146L262,148L262,149L263,150L263,151L264,151L264,152L264,153L265,154L266,154L267,155L268,154L270,154L271,153L272,154L272,155L273,155L274,154L275,154L275,156L276,156L277,157Z " data-fips="IN34" data-hasc="IN.BR" data-name="Bihar" data-postal="BR" data-varname=""/><path d="M325,115L326,114L327,114L328,114L329,114L329,113L330,112L331,111L330,110L329,110L329,109L329,108L329,106L330,104L329,103L329,101L328,101L328,101L326,100L325,101L324,101L324,102L320,103L320,104L321,105L321,106L321,107L320,110L320,111L320,112L320,113L321,113L321,114L321,114L323,114L324,115Z " data-fips="IN29" data-hasc="IN.SK" data-name="Sikkim" data-postal="SK" data-varname=""/><path d="M235,251L236,251L238,251L239,251L239,250L239,249L240,248L240,247L240,246L240,245L241,244L242,243L243,243L244,242L245,241L246,240L245,239L246,238L247,238L248,237L249,236L249,235L250,234L249,232L249,231L248,230L249,229L249,228L248,227L247,226L247,225L247,224L247,223L246,222L244,221L244,220L244,219L245,218L246,219L247,218L248,219L249,220L250,222L251,221L253,221L254,221L254,222L255,222L256,221L256,220L255,219L254,219L253,219L252,218L252,217L252,216L252,215L252,213L251,212L251,210L251,209L251,207L252,207L252,206L253,206L254,205L254,203L256,203L257,203L259,202L260,203L261,203L262,202L262,201L263,200L264,200L264,199L263,198L264,197L265,194L265,193L266,193L266,192L266,191L266,190L266,189L267,187L268,187L269,185L271,185L272,184L272,183L272,182L273,181L274,180L274,179L275,178L276,178L276,177L275,176L274,176L273,176L273,175L272,174L272,173L272,171L271,170L271,170L271,168L271,167L270,167L269,168L268,168L268,166L268,165L267,164L265,163L265,162L265,161L264,160L262,160L262,161L261,162L261,163L260,163L258,163L257,163L256,162L255,163L254,164L253,165L252,165L252,165L250,165L248,165L246,165L245,165L244,165L243,165L242,165L241,164L240,165L241,166L241,167L240,168L240,169L241,170L241,169L243,169L244,170L245,171L246,171L247,172L248,172L247,174L246,175L246,176L244,176L245,177L243,178L242,179L242,181L242,182L241,182L241,183L239,184L239,184L238,185L237,184L236,185L235,184L234,185L234,186L234,187L233,188L233,189L232,190L231,190L230,192L230,193L230,195L229,195L229,197L229,199L228,201L227,202L226,203L225,205L225,206L226,206L227,207L227,209L227,210L226,210L227,211L228,212L228,213L228,214L227,215L227,216L226,216L225,217L226,218L227,219L227,220L227,221L226,221L226,221L225,222L226,222L227,223L228,224L229,225L230,226L231,226L232,227L231,228L231,229L230,230L229,229L228,229L227,229L226,230L225,231L225,232L224,233L224,234L223,235L224,236L223,237L223,238L224,239L225,239L226,239L227,240L228,241L229,242L230,243L230,244L230,245L231,246L232,246L233,246L233,247L233,248L233,250L234,251Z " data-fips="IN37" data-hasc="IN.CT" data-name="Chhattisgarh" data-postal="CT" data-varname=""/><path d="M171,204L172,204L173,203L175,203L175,201L175,200L176,199L177,198L177,197L178,197L180,196L181,195L182,195L183,195L186,195L187,195L187,197L187,198L186,198L186,199L186,200L187,200L188,200L190,200L191,200L193,199L195,199L195,198L196,197L197,197L198,197L199,198L200,198L201,199L202,199L203,199L205,198L205,197L207,197L208,196L209,196L211,196L212,196L213,196L213,197L214,198L215,197L216,197L217,198L218,198L219,198L220,197L222,197L223,197L224,197L225,198L225,200L226,200L228,201L229,199L229,197L229,195L230,195L230,193L230,192L231,190L232,190L233,189L233,188L234,187L234,186L234,185L235,184L236,185L237,184L238,185L239,184L239,184L241,183L241,182L242,182L242,181L242,179L243,178L245,177L244,176L246,176L246,175L247,174L248,172L247,172L246,171L245,171L244,170L243,169L241,169L241,170L240,169L240,168L241,167L241,166L240,165L241,164L242,165L243,165L244,165L245,165L246,165L248,165L250,165L252,165L252,165L253,165L254,164L255,163L255,161L254,160L254,159L255,158L255,157L254,155L254,154L255,154L255,153L254,152L253,152L251,152L250,153L249,153L249,152L248,151L247,151L246,151L245,150L244,150L243,149L243,148L242,148L241,147L240,147L239,146L239,145L237,146L237,147L236,146L235,146L235,147L234,148L234,149L233,150L232,149L231,149L230,149L229,149L229,148L230,147L230,146L229,146L228,146L228,147L227,148L226,147L225,147L226,148L224,148L223,148L222,148L223,147L224,146L224,145L223,145L223,143L222,143L221,143L220,143L219,144L218,145L217,145L217,146L216,147L214,147L213,146L212,147L211,147L211,148L210,147L211,146L211,145L210,145L210,144L209,144L210,146L209,146L208,147L207,146L207,145L206,145L205,146L204,145L205,144L205,143L205,142L205,141L204,142L204,143L203,142L202,142L202,143L201,143L201,143L200,144L200,145L201,147L201,148L201,149L202,150L203,151L203,152L202,153L203,154L204,154L205,155L205,156L206,157L205,158L204,159L204,160L203,159L202,159L201,158L200,157L199,157L199,158L198,158L198,157L197,157L196,156L196,155L196,154L196,152L196,151L196,150L197,149L197,148L198,147L198,146L197,144L196,143L197,142L198,141L199,141L200,141L201,140L202,140L203,139L203,138L203,137L204,136L204,135L205,134L205,133L205,132L205,131L206,130L207,130L207,128L206,126L205,125L204,125L203,124L202,123L201,123L200,123L199,123L198,122L197,122L196,123L195,123L194,124L193,125L192,125L192,126L191,127L190,127L189,128L188,128L186,129L185,129L184,130L184,131L183,131L182,131L181,132L180,133L179,133L178,134L177,135L176,135L175,136L174,137L174,138L174,141L174,142L176,143L177,143L178,144L179,144L180,144L181,144L182,144L183,143L184,142L185,143L185,144L185,145L185,147L184,147L183,147L181,147L180,147L179,148L178,148L179,150L178,151L177,151L178,152L179,152L180,153L181,154L179,156L179,155L178,155L178,156L178,158L178,159L178,160L177,161L176,160L176,159L175,159L174,160L173,159L172,159L171,159L170,159L170,158L169,158L169,159L169,160L167,162L167,163L166,164L165,164L164,164L163,165L162,165L161,164L160,163L161,162L162,163L163,162L164,162L165,161L164,160L164,159L164,158L164,157L164,156L165,156L166,154L165,153L164,152L163,152L161,152L160,153L159,152L157,152L157,152L157,151L158,151L159,150L158,150L158,149L159,148L157,148L156,148L156,148L156,150L155,150L153,150L153,149L152,150L153,151L154,151L154,152L153,153L152,152L151,154L151,155L152,156L152,157L151,157L151,158L152,159L153,159L153,160L153,162L153,164L153,165L153,166L153,167L152,168L152,169L150,170L149,170L148,171L148,172L148,173L149,173L150,174L149,175L147,176L146,175L145,176L145,177L145,178L146,178L147,179L145,182L144,182L143,183L142,183L141,184L142,185L143,185L143,186L142,186L141,186L141,187L142,188L142,189L142,190L142,191L143,192L144,191L145,191L146,191L147,191L147,193L147,194L148,195L149,196L150,196L151,196L152,197L153,197L154,197L155,199L156,199L157,200L160,200L161,200L162,200L164,200L165,200L166,200L167,200L168,201L168,203L168,204L170,204Z " data-fips="IN35" data-hasc="IN.MP" data-name="Madhya Pradesh" data-postal="MP" data-varname=""/><path d="M218,349L218,348L217,348L217,348L217,349L218,350L218,350Z M218,335L218,334L218,334L217,334L217,334L216,334L216,335L217,336L218,336Z M155,332L156,332L156,331L155,331L154,332L154,332L154,333L155,334Z " data-fips="IN22" data-hasc="IN.PY" data-name="Puducherry" data-postal="PY" data-varname="Pondicherry|Puduchcheri|Pondichry"/><path d="M186,388L187,388L189,388L190,387L193,385L194,384L194,383L194,381L195,380L195,379L195,378L196,376L198,375L199,374L201,374L202,373L203,373L205,372L206,372L207,372L208,372L210,372L211,372L212,373L213,373L211,372L211,371L210,372L208,372L207,371L206,370L206,369L206,367L206,366L207,365L208,364L209,363L210,362L210,361L210,359L211,358L212,357L213,357L214,357L215,358L217,358L216,358L215,357L218,358L219,358L219,356L218,353L218,350L218,350L217,349L217,348L217,348L218,348L218,347L219,345L218,344L218,343L217,343L216,343L217,342L218,342L217,341L217,339L217,338L218,336L217,336L216,335L216,334L217,334L217,334L218,334L218,334L219,334L219,332L220,331L220,330L221,329L221,329L222,328L223,327L223,325L224,324L224,323L224,321L224,320L224,319L225,318L225,316L225,315L225,314L225,313L224,312L222,313L222,313L221,312L221,313L220,313L219,315L218,315L217,316L216,316L215,315L214,315L213,314L212,315L212,316L211,317L210,317L209,318L208,319L207,319L206,318L205,319L204,318L203,318L202,319L201,320L201,321L201,322L200,323L199,324L197,324L196,324L196,323L194,322L193,321L192,322L192,321L190,321L190,322L189,323L188,324L187,324L187,325L187,326L187,328L186,329L185,329L185,330L188,331L189,331L189,332L189,333L188,334L186,334L185,335L185,336L184,336L183,336L181,336L180,337L179,336L178,336L177,337L176,338L175,338L173,339L172,338L171,337L170,338L170,339L168,339L168,340L169,341L170,341L171,342L172,343L171,344L172,345L174,345L174,345L175,346L174,347L174,348L175,349L176,349L177,350L177,351L176,352L176,354L176,355L176,356L176,357L177,358L178,358L179,358L180,357L181,357L182,358L182,359L182,361L182,362L182,363L182,365L181,367L182,368L183,368L184,368L184,369L183,371L182,374L181,375L181,377L182,378L182,379L181,380L181,381L182,382L182,383L181,384L181,385L180,386L180,386L180,386L182,388L183,388L185,389Z " data-fips="IN22" data-hasc="" data-name="Tamil Nadu" data-postal="TN" data-varname=""/><path d="M123,217L124,217L125,217L125,216L126,214L127,214L128,215L127,215L127,216L128,216L129,217L131,216L131,215L131,214L131,213L132,212L132,211L132,210L132,209L133,209L134,210L135,211L136,211L137,210L137,209L138,208L138,206L138,205L137,204L136,204L136,203L135,203L136,202L137,202L137,201L139,201L139,199L140,199L141,198L143,198L144,197L143,197L141,197L140,197L139,197L138,197L137,196L138,195L138,194L137,193L138,193L140,192L141,191L142,191L142,190L142,189L142,188L141,187L141,186L142,186L143,186L143,185L142,185L141,184L142,183L143,183L144,182L145,182L147,179L146,178L145,178L145,177L145,176L144,175L144,174L143,174L142,173L141,172L140,171L139,171L138,170L137,170L136,170L136,169L136,168L135,167L135,166L134,166L133,165L133,164L133,163L133,162L133,160L132,161L131,161L130,160L129,159L130,158L131,157L130,156L130,155L129,155L128,155L127,156L126,156L125,156L124,155L123,155L122,154L122,155L121,154L120,154L119,153L120,153L118,152L117,152L116,151L115,152L114,151L113,152L112,151L111,152L110,151L109,151L108,152L106,151L104,151L103,151L103,151L103,151L102,152L102,153L102,154L103,155L102,155L101,155L100,157L99,157L97,157L97,156L96,154L94,155L93,155L92,155L91,156L90,157L89,158L86,157L85,157L84,156L80,155L78,156L77,155L76,155L75,155L74,155L74,154L73,155L73,159L68,159L67,160L66,160L66,161L66,162L66,163L65,164L66,164L67,164L69,163L70,162L71,162L72,161L73,161L74,161L73,161L72,162L71,163L70,163L69,164L68,164L69,166L69,167L70,168L71,168L70,169L71,169L71,170L71,171L74,173L76,174L77,175L78,176L80,176L81,176L82,177L83,177L85,177L85,176L86,176L88,176L89,175L91,175L92,175L93,175L94,175L94,173L95,173L95,173L95,175L94,175L93,176L92,178L92,178L91,180L90,181L89,180L88,181L86,182L85,182L84,182L83,183L82,182L82,182L81,183L80,183L79,184L77,184L77,183L77,182L76,182L76,181L74,182L74,183L74,184L75,185L76,186L76,187L78,189L80,190L80,191L81,192L81,193L82,194L85,196L85,197L86,198L87,199L88,201L89,202L91,203L92,204L93,205L94,206L97,207L98,207L100,207L100,207L101,207L102,207L105,205L106,205L107,204L109,204L110,203L111,203L113,202L114,201L115,200L115,199L116,198L117,197L118,195L117,194L116,193L115,193L114,193L114,192L115,191L116,192L116,191L115,190L115,190L116,190L117,190L118,189L118,187L117,186L116,186L117,185L118,186L119,185L119,186L121,186L122,186L123,186L124,187L125,186L126,187L125,187L124,188L123,187L122,187L121,188L121,189L120,190L121,191L122,190L123,191L122,191L121,192L121,193L121,195L123,195L124,194L125,194L126,195L127,194L128,194L127,194L126,195L125,195L124,196L123,196L122,197L121,198L122,198L123,198L122,198L121,199L122,199L121,200L122,201L123,202L122,203L123,203L124,203L124,204L125,205L124,205L125,207L126,208L125,209L125,210L125,211L124,212L124,212L124,213L124,213L124,213L123,214L123,215L123,216L122,217Z " data-fips="IN32" data-hasc="" data-name="Gujarat" data-postal="" data-varname=""/><path d="M140,291L141,291L141,290L141,289L142,288L141,287L142,286L141,285L141,284L141,283L141,281L140,281L138,281L137,281L137,280L136,279L134,280L134,280L134,280L134,281L136,281L135,281L134,282L135,283L136,283L135,284L136,284L137,285L136,284L135,285L136,285L137,288L137,289L138,290L138,291L139,292Z " data-fips="IN08" data-hasc="IN.GA" data-name="Goa" data-postal="GA" data-varname="Ga"/><path d="M373,114L374,113L376,112L378,112L379,111L380,111L382,111L382,112L387,111L389,112L390,111L391,111L392,110L393,109L393,108L395,105L395,105L397,102L397,101L398,101L400,101L401,101L402,100L404,99L406,98L409,96L410,96L412,95L413,95L414,94L418,93L418,94L416,97L416,98L417,99L418,99L418,100L418,101L419,101L420,102L419,103L418,103L415,105L414,104L413,105L413,106L412,106L411,107L410,108L410,108L411,109L411,109L411,110L411,111L411,112L412,113L412,113L412,113L414,112L414,111L415,111L416,110L417,109L418,108L419,107L419,106L420,105L422,103L425,102L426,102L428,102L428,101L429,102L430,102L431,104L432,104L433,104L434,103L433,103L431,100L430,99L430,98L430,97L431,95L432,95L433,94L434,93L435,93L435,92L435,91L434,89L434,88L432,87L431,86L430,87L429,87L427,87L426,86L425,86L424,86L423,87L422,87L421,87L422,86L422,84L423,84L423,83L424,82L424,81L423,79L422,78L422,77L420,79L418,80L418,79L418,77L419,76L420,76L420,74L419,75L418,74L417,73L417,73L416,72L415,73L414,74L413,74L412,75L411,76L410,77L410,78L410,79L409,79L408,79L406,79L404,78L403,79L403,78L401,78L401,77L400,76L398,77L398,78L396,78L396,79L395,80L393,82L392,83L392,84L391,84L391,85L390,85L389,86L388,87L387,87L386,87L385,87L384,88L383,88L382,90L382,92L381,93L380,94L379,95L378,95L377,96L377,97L377,98L376,99L375,100L375,100L374,101L373,101L372,101L370,101L369,102L367,102L366,102L365,103L364,104L365,106L366,106L367,107L368,106L370,106L371,108L370,109L370,110L370,112L371,113L371,114Z " data-fips="IN30" data-hasc="IN.AR" data-name="Arunachal Pradesh" data-postal="AR" data-varname="Agence de la Frontisre du Nord-Est(French-obsolete)|North East Frontier Agency"/><path d="M385,182L386,181L387,181L388,182L389,183L390,183L389,182L390,181L390,180L392,180L392,179L392,177L391,176L391,175L391,174L390,173L391,171L391,169L390,168L391,167L392,168L393,167L393,165L393,164L393,163L393,161L393,158L392,157L392,155L391,154L391,153L390,153L389,153L388,153L387,153L387,151L387,150L387,149L387,148L386,149L385,149L385,149L384,148L383,149L382,150L382,151L381,152L380,153L379,152L378,152L378,152L378,154L379,155L379,156L378,157L378,158L378,159L378,159L378,161L379,162L379,163L380,164L380,165L380,167L380,169L380,170L381,171L382,172L383,173L383,174L383,176L384,181L384,182L385,183Z " data-fips="IN31" data-hasc="IN.MZ" data-name="Mizoram" data-postal="MZ" data-varname=""/><path d="M371,170L372,170L372,169L373,168L372,166L372,165L373,164L374,163L374,162L374,160L376,160L377,159L377,160L378,159L378,158L378,157L379,156L379,155L378,154L378,152L378,152L377,151L377,150L377,149L377,148L376,147L376,147L375,148L375,149L374,150L373,151L373,152L372,153L372,152L371,152L370,154L369,153L369,154L369,154L368,155L366,155L366,156L365,156L364,157L365,159L364,160L364,161L364,162L364,163L365,164L366,165L366,166L366,168L367,169L367,168L368,166L368,167L369,168L369,169L370,170Z " data-fips="IN26" data-hasc="IN.TR" data-name="Tripura" data-postal="TR" data-varname=""/><path d="M124,213L124,212L124,212L124,212L124,213Z " data-fips="IN32" data-hasc="" data-name="Daman and Diu" data-postal="" data-varname=""/></g></svg>