<?xml version="1.0" ?><!DOCTYPE svg  PUBLIC '-//W3C//DTD SVG 1.1//EN'  'http://www.w3.org/Graphics/SVG/1.1/DTD/svg11.dtd'><svg enable_background="new 0 0 500 401" height="401px" style="stroke-linejoin: round; stroke:#000; fill:#f6f3f0;" version="1.1" viewBox="0 0 500 401" width="500px" xmlns="http://www.w3.org/2000/svg" xmlns:xlink="http://www.w3.org/1999/xlink"><defs><style type="text/css"><![CDATA[path { fill-rule: evenodd; }
#context path { fill: #eee; stroke: #bbb; } ]]></style></defs><metadata><views><view h="401" padding="0" w="500"><proj id="laea" lat0="31.026" lon0="34.851"/><bbox h="48.39" w="17.11" x="993.63" y="970.57"/><llbbox lat0="-90" lat1="90" lon0="-180" lon1="180"/></view></views></metadata><g id="admin1"><path d="M238,399L238,397L239,396L240,394L241,393L241,392L242,389L242,387L243,385L244,382L245,377L245,374L249,363L250,361L250,355L251,350L252,349L252,348L253,344L256,338L258,334L258,331L256,325L256,322L257,320L257,315L258,314L259,313L259,312L259,310L259,309L258,307L257,306L257,303L259,299L259,297L263,284L268,274L269,271L269,269L269,268L270,266L271,266L272,264L273,263L273,261L273,259L273,256L274,254L278,251L279,249L279,246L279,243L283,235L284,232L283,229L282,226L281,224L280,222L279,219L280,216L282,214L281,211L283,208L284,204L285,202L285,195L279,196L274,199L264,206L259,208L248,208L243,209L241,210L239,210L236,210L234,208L233,205L235,202L238,195L239,192L239,189L239,186L241,183L235,179L234,178L234,177L234,175L234,174L234,173L234,172L234,170L234,169L233,168L232,168L230,165L226,167L226,166L225,165L224,164L223,163L222,163L221,164L221,165L220,165L219,166L216,165L217,164L218,164L218,163L217,161L217,160L218,161L219,160L219,159L220,158L220,157L219,156L217,156L216,156L210,168L203,181L201,184L200,186L202,188L204,190L204,192L201,195L200,196L190,205L188,209L188,211L189,214L188,216L185,219L181,222L179,224L186,246L199,281L201,289L202,293L202,295L203,297L204,298L204,299L203,302L203,304L203,305L204,306L209,311L210,312L221,345L222,346L222,348L222,353L230,373L232,384L232,391L232,393L234,397L235,399L237,399Z " data-fips="IS01" data-hasc="IL.HD" data-name="HaDarom" data-postal="HD" data-varname="Southern District"/><path d="M249,99L250,96L252,95L255,93L258,92L260,89L261,88L263,88L263,88L260,86L259,86L258,86L257,87L257,88L256,89L254,90L252,89L251,88L250,88L249,87L249,85L248,84L247,83L247,81L248,81L249,81L248,80L248,79L249,78L250,78L251,79L252,78L253,76L254,75L254,73L254,72L255,72L256,71L256,70L257,69L257,67L258,65L258,64L257,62L257,61L256,59L255,58L254,57L253,57L253,55L253,54L252,53L251,53L250,56L246,60L245,59L243,58L242,58L241,59L240,61L240,70L238,78L238,80L238,81L237,86L237,86L234,100L233,102L233,102L238,102L239,102L244,103L245,104L246,105L248,105Z " data-fips="IS04" data-hasc="IL.HA" data-name="Haifa" data-postal="HA" data-varname="Hefa"/><path d="M230,165L235,163L236,162L238,160L239,160L240,160L241,158L242,158L243,157L245,156L244,153L243,149L243,145L243,144L243,142L243,140L242,130L242,129L240,124L241,123L245,120L245,119L246,117L245,116L244,115L244,114L244,111L245,109L247,108L247,106L248,105L246,105L245,104L244,103L239,102L238,102L233,102L233,102L231,115L228,124L228,124L231,124L232,125L232,126L233,127L233,128L233,129L233,130L232,132L232,133L231,134L231,135L232,136L233,137L234,140L235,141L234,142L233,142L232,142L231,141L230,142L228,144L226,144L223,143L222,142L220,148L218,151L216,156L217,156L219,156L220,157L220,158L219,159L219,160L218,161L217,160L217,161L218,163L218,164L217,164L216,165L219,166L220,165L221,165L221,164L222,163L223,163L224,164L225,165L226,166L226,167Z " data-fips="IS02" data-hasc="IL.HM" data-name="HaMerkaz" data-postal="HM" data-varname="Central District"/><path d="M292,103L292,102L293,101L292,100L292,99L293,97L294,97L293,96L293,95L294,94L294,93L293,91L293,90L292,90L293,89L293,88L294,86L294,85L294,82L294,81L293,80L293,78L294,77L294,77L296,75L297,74L294,71L294,70L296,70L299,66L299,65L299,65L300,65L299,64L299,63L300,60L299,59L299,57L299,55L299,54L299,53L297,52L296,52L296,49L295,42L293,40L297,37L298,36L298,34L299,29L300,26L300,25L300,23L299,20L299,18L300,16L299,16L297,17L297,17L296,17L295,17L294,16L292,13L291,13L291,14L290,15L290,17L289,19L289,24L288,27L288,28L286,31L286,33L283,33L279,35L274,36L273,36L272,35L272,34L271,33L270,32L269,31L268,31L264,32L263,32L262,32L260,33L253,33L253,34L253,35L253,37L253,39L251,42L251,48L250,50L251,50L251,51L251,53L252,53L253,54L253,55L253,57L254,57L255,58L256,59L257,61L257,62L258,64L258,65L257,67L257,69L256,70L256,71L255,72L254,72L254,73L254,75L253,76L252,78L251,79L250,78L249,78L248,79L248,80L249,81L248,81L247,81L247,83L248,84L249,85L249,87L250,88L251,88L252,89L254,90L256,89L257,88L257,87L258,86L259,86L260,86L263,88L263,88L264,89L266,91L268,92L273,91L276,92L278,93L279,95L279,99L280,101L282,102L284,102L286,102L293,104Z " data-fips="IS03" data-hasc="IL.HZ" data-name="HaZafon" data-postal="HZ" data-varname="Northern"/><path d="M230,142L231,141L232,142L233,142L234,142L235,141L234,140L233,137L232,136L231,135L231,134L232,133L232,132L233,130L233,129L233,128L233,127L232,126L232,125L231,124L228,124L228,124L224,137L223,138L223,139L222,142L223,143L226,144L228,144Z " data-fips="IS05" data-hasc="IL.TA" data-name="Tel Aviv" data-postal="TA" data-varname=""/><path d="M241,183L243,181L249,176L253,173L254,171L256,171L261,169L262,170L263,169L263,167L263,166L262,164L260,163L254,162L250,160L248,160L247,162L245,162L244,162L241,162L240,160L239,160L238,160L236,162L235,163L230,165L232,168L233,168L234,169L234,170L234,172L234,173L234,174L234,175L234,177L234,178L235,179L241,183Z " data-fips="IS06" data-hasc="IL.JM" data-name="Jerusalem" data-postal="JM" data-varname="Al-Quds|Yerushalayim"/><path d="M301,73L303,71L308,68L310,67L311,65L312,64L316,59L317,56L316,55L317,52L318,50L319,49L321,47L319,44L318,42L318,40L317,33L317,31L314,30L314,29L315,27L316,25L315,22L313,21L313,16L311,14L310,14L313,10L310,7L312,6L313,5L314,3L314,1L314,0L313,2L311,6L310,7L309,7L308,8L307,8L306,8L304,9L301,12L299,13L297,14L296,15L297,17L297,17L297,17L299,16L300,16L299,18L299,20L300,23L300,25L300,26L299,29L298,34L298,36L297,37L293,40L295,42L296,49L296,52L297,52L299,53L299,54L300,55L299,57L299,59L300,60L299,63L299,64L299,65L299,65L299,65L299,67L296,70L294,70L295,72L297,74L299,74Z " data-fips="" data-hasc="" data-name="Golan" data-postal="" data-varname=""/></g></svg>