<?xml version="1.0" ?><!DOCTYPE svg  PUBLIC '-//W3C//DTD SVG 1.1//EN'  'http://www.w3.org/Graphics/SVG/1.1/DTD/svg11.dtd'><svg enable_background="new 0 0 500 401" height="401px" style="stroke-linejoin: round; stroke:#000; fill:#f6f3f0;" version="1.1" viewBox="0 0 500 401" width="500px" xmlns="http://www.w3.org/2000/svg" xmlns:xlink="http://www.w3.org/1999/xlink"><defs><style type="text/css"><![CDATA[path { fill-rule: evenodd; }
#context path { fill: #eee; stroke: #bbb; } ]]></style></defs><metadata><views><view h="401" padding="0" w="500"><proj id="laea" lat0="30.703" lon0="36.319"/><bbox h="51.88" w="45.76" x="985.27" y="966.78"/><llbbox lat0="-90" lat1="90" lon0="-180" lon1="180"/></view></views></metadata><g id="admin1"><path d="M139,394L135,364L130,342L126,332L125,330L123,329L122,327L120,326L118,326L116,325L114,325L113,326L112,326L110,326L109,326L108,326L107,325L106,324L105,323L104,322L104,321L104,319L104,317L105,312L110,303L110,300L110,289L114,278L116,270L116,264L113,264L112,263L111,262L110,260L109,259L108,258L102,254L101,253L101,253L96,263L93,275L92,277L91,281L91,283L91,284L92,286L93,287L92,289L92,290L91,291L91,292L90,297L89,298L89,301L91,307L91,310L90,313L86,318L85,322L85,324L84,326L83,329L83,335L83,337L79,347L78,349L78,355L77,357L76,359L75,361L75,364L76,364L78,366L78,367L76,371L76,374L75,382L74,383L139,395Z " data-fips="JO21" data-hasc="JO.AQ" data-name="Aqaba" data-postal="AQ" data-varname="Al `Aqabah"/><path d="M319,156L322,155L400,130L403,129L412,120L414,119L415,118L420,113L424,109L426,106L424,100L423,97L421,96L405,100L405,99L400,85L407,83L393,36L382,0L363,13L326,37L281,66L253,85L240,93L227,102L226,103L225,103L220,101L218,101L217,102L214,100L203,98L200,98L199,97L194,97L193,96L192,96L185,89L179,85L177,83L176,82L174,83L172,83L169,83L168,83L168,83L169,91L169,94L168,94L165,92L164,92L163,94L163,96L164,97L164,99L162,102L158,106L158,107L158,109L159,110L160,112L161,114L163,114L163,115L163,116L163,117L163,119L164,120L165,120L167,119L169,118L170,119L172,120L173,121L174,121L176,120L177,120L181,120L184,121L185,122L187,123L188,123L189,122L190,122L191,121L192,121L197,122L198,122L201,125L203,126L304,160Z " data-fips="JO15" data-hasc="JO.MA" data-name="Mafraq" data-postal="MA" data-varname=""/><path d="M261,204L239,180L242,180L242,179L219,156L218,156L216,156L213,159L211,159L209,158L206,156L202,152L200,150L199,148L200,147L202,146L204,144L205,143L205,141L202,138L198,133L196,132L194,131L186,131L184,131L183,132L182,134L181,134L179,135L174,135L170,136L169,136L168,136L166,137L165,137L163,136L161,132L159,130L157,128L155,129L152,131L151,132L148,133L147,134L143,138L141,140L136,142L135,143L135,145L136,146L137,146L139,147L139,148L138,151L138,152L138,154L141,153L145,153L146,153L147,152L149,153L149,160L148,161L146,164L146,166L147,168L147,169L151,173L151,175L151,177L152,178L152,179L151,181L151,182L149,187L148,188L149,192L149,194L149,196L149,198L148,199L148,201L148,202L149,203L174,204Z " data-fips="JO16" data-hasc="JO.AM" data-name="Amman" data-postal="AM" data-varname="Ama"/><path d="M141,264L147,262L148,262L149,261L150,260L152,260L154,261L157,260L160,246L156,243L155,241L153,240L150,238L149,238L148,236L148,235L135,230L128,230L126,229L125,228L123,227L122,227L121,227L120,227L119,228L118,230L117,233L117,237L116,237L115,238L114,238L113,238L108,234L107,235L106,237L106,239L106,242L106,244L105,245L103,247L103,248L102,249L102,251L101,253L102,254L108,258L109,259L110,260L111,262L112,263L113,264L116,264L119,264L123,265L131,264L134,265Z " data-fips="JO12" data-hasc="JO.AT" data-name="Tafilah" data-postal="AT" data-varname="At Tafilah|Tafela|Tafileh"/><path d="M165,399L167,398L200,370L219,338L221,336L223,335L282,322L284,321L295,292L296,290L298,288L323,274L283,227L282,226L261,204L174,204L175,213L177,218L173,232L157,260L154,261L152,260L150,260L149,261L148,262L147,262L141,264L134,265L131,264L123,265L119,264L116,264L116,270L114,278L110,289L110,300L110,303L105,312L104,317L104,319L104,321L104,322L105,323L106,324L107,325L108,326L109,326L110,326L112,326L113,326L114,325L116,325L118,326L120,326L122,327L123,329L125,330L126,332L130,342L135,364L139,394L139,395L162,399Z " data-fips="JO19" data-hasc="JO.MN" data-name="Ma`an" data-postal="MN" data-varname=""/><path d="M127,114L133,114L133,112L132,110L131,108L131,107L132,101L133,99L134,98L135,98L136,98L138,98L140,98L143,96L144,96L146,96L147,96L149,95L150,94L151,96L152,98L157,99L158,99L160,99L164,99L164,97L163,96L163,94L164,92L165,92L168,94L169,94L169,91L168,83L168,83L167,83L167,82L163,76L162,75L162,73L162,71L162,70L160,70L159,70L158,69L157,68L157,67L156,66L154,65L145,63L143,61L142,62L141,62L137,65L134,67L133,68L131,67L129,69L128,70L127,71L127,73L127,74L128,75L128,78L128,79L127,80L127,82L127,83L127,84L128,85L127,86L127,87L127,88L128,89L127,90L126,91L126,92L126,93L125,93L126,95L127,96L127,97L126,97L126,98L126,101L127,102L127,104L126,105L127,107L127,108L126,110L127,110L126,114Z " data-fips="JO18" data-hasc="JO.IR" data-name="Irbid" data-postal="IR" data-varname=""/><path d="M141,114L146,111L147,110L147,109L147,107L148,106L149,104L150,102L152,101L152,98L151,96L150,94L149,95L147,96L146,96L144,96L143,96L140,98L138,98L136,98L135,98L134,98L133,99L132,101L131,107L131,108L132,110L133,112L133,114L134,116L135,117L137,117Z " data-fips="JO20" data-hasc="JO.AJ" data-name="Ajlun" data-postal="AJ" data-varname="Ajloan|`Ajlun"/><path d="M156,119L157,118L159,118L160,117L161,116L161,114L160,112L159,110L158,109L158,107L158,106L162,102L160,99L158,99L157,99L152,101L150,102L149,104L148,106L147,107L147,109L147,110L146,111L141,114L137,117L138,119L139,119L146,118L148,119L149,119L150,120L150,121L153,123Z " data-fips="JO22" data-hasc="JO.JA" data-name="Jarash" data-postal="JA" data-varname=""/><path d="M129,162L130,161L131,159L133,155L134,155L135,154L137,154L138,154L138,152L138,151L139,148L139,147L137,146L136,146L135,145L135,143L136,142L141,140L143,138L147,134L148,133L151,132L152,131L155,129L157,128L155,127L154,126L153,123L150,121L150,120L149,119L148,119L146,118L139,119L138,119L137,117L135,117L134,116L127,114L126,114L126,116L126,117L125,118L126,119L124,122L124,123L125,124L124,125L123,127L123,131L124,133L124,134L125,136L125,138L124,139L123,140L125,147L124,149L126,154L123,157L121,162L122,162L128,162Z " data-fips="JO02" data-hasc="JO.BA" data-name="Balqa" data-postal="BA" data-varname="Al Balqa'|Balka|Belga"/><path d="M139,188L141,188L143,188L148,188L149,187L151,182L151,181L152,179L152,178L151,177L151,175L151,173L147,169L147,168L146,166L146,164L148,161L149,160L149,153L147,152L146,153L145,153L141,153L138,154L137,154L135,154L134,155L133,155L131,159L130,161L129,162L128,162L122,162L121,162L120,166L118,173L118,180L118,186L119,185L125,186L134,188L135,189L136,189Z " data-fips="JO23" data-hasc="JO.MD" data-name="Madaba" data-postal="MD" data-varname=""/><path d="M173,232L177,218L175,213L174,204L149,203L148,202L148,201L148,199L149,198L149,196L149,194L149,192L143,188L141,188L139,188L136,189L135,189L134,188L125,186L119,185L118,186L117,187L117,189L116,193L115,196L115,198L113,200L112,202L113,205L114,208L114,209L116,212L116,214L116,217L112,225L111,227L111,230L110,232L108,234L113,238L114,238L115,238L116,237L117,237L117,233L118,230L119,228L120,227L121,227L122,227L123,227L125,228L126,229L128,230L135,230L148,235L148,236L149,238L150,238L153,240L155,241L156,243L160,246Z " data-fips="JO09" data-hasc="JO.KA" data-name="Karak" data-postal="KA" data-varname="Al Karak|Kerak"/><path d="M304,160L203,126L201,125L198,122L197,122L192,121L191,121L190,122L189,122L188,123L187,123L185,122L184,121L181,120L177,120L176,120L174,121L173,121L172,120L170,119L169,118L167,119L165,120L164,120L163,119L163,117L163,116L163,115L163,114L161,114L161,116L160,117L159,118L157,118L156,119L153,123L154,126L155,127L157,128L159,130L161,132L163,136L165,137L166,137L168,136L169,136L170,136L174,135L179,135L181,134L182,134L183,132L184,131L186,131L194,131L196,132L198,133L202,138L205,141L205,143L204,144L202,146L200,147L199,148L200,150L202,152L206,156L209,158L211,159L213,159L216,156L218,156L219,156L242,179L242,180Z " data-fips="JO13" data-hasc="JO.AZ" data-name="Zarqa" data-postal="AZ" data-varname="Az Zarqa'"/></g></svg>