<?xml version="1.0" ?><!DOCTYPE svg  PUBLIC '-//W3C//DTD SVG 1.1//EN'  'http://www.w3.org/Graphics/SVG/1.1/DTD/svg11.dtd'><svg enable_background="new 0 0 500 401" height="401px" style="stroke-linejoin: round; stroke:#000; fill:#f6f3f0;" version="1.1" viewBox="0 0 500 401" width="500px" xmlns="http://www.w3.org/2000/svg" xmlns:xlink="http://www.w3.org/1999/xlink"><defs><style type="text/css"><![CDATA[path { fill-rule: evenodd; }
#context path { fill: #eee; stroke: #bbb; } ]]></style></defs><metadata><views><view h="401" padding="0" w="500"><proj id="laea" lat0="36.491" lon0="139.068"/><bbox h="262.65" w="348.82" x="818.85" y="888.29"/><llbbox lat0="-90" lat1="90" lon0="-180" lon1="180"/></view></views></metadata><g id="admin1"><path d="M172,208L171,207L171,208L171,209Z M166,209L167,208L168,208L169,207L170,207L172,207L173,206L173,207L172,207L173,208L174,208L174,206L175,205L176,206L175,207L176,207L178,205L178,204L177,203L177,202L177,200L177,199L176,197L176,196L176,195L176,194L175,194L174,194L173,194L172,194L171,194L170,194L169,194L167,196L167,197L167,198L166,198L164,198L163,198L162,198L161,198L160,199L159,199L159,201L158,202L158,202L157,204L158,204L158,205L159,208L160,209L160,208L161,206L162,206L164,206L164,207L164,208L165,209Z " data-fips="JA11" data-hasc="JP.HS" data-name="Hiroshima" data-postal="HS" data-varname="Hirosima"/><path d="M179,205L180,205L181,204L182,204L183,206L184,205L185,205L186,204L186,203L185,203L187,203L188,203L188,202L189,202L190,201L189,201L190,201L191,201L190,200L190,198L190,197L190,196L191,195L192,194L192,193L191,193L190,193L189,193L188,192L188,191L187,190L186,190L185,191L184,191L183,190L180,191L180,191L179,192L178,193L177,194L176,194L176,195L176,196L176,197L177,199L177,200L177,202L177,203L178,204L178,205L179,205L178,206Z " data-fips="JA31" data-hasc="JP.OY" data-name="Okayama" data-postal="OY" data-varname=""/><path d="M156,205L156,204L157,204L158,202L158,202L159,201L159,199L160,199L161,198L162,198L163,198L164,198L166,198L167,198L167,197L167,196L169,194L170,194L171,194L172,194L173,194L174,194L174,192L175,191L176,191L176,189L176,188L176,187L176,186L177,185L176,185L175,185L174,185L173,186L172,186L170,186L169,187L168,187L168,188L167,189L167,190L165,190L165,191L163,192L163,193L162,194L161,194L159,195L158,196L157,197L156,198L155,198L155,199L153,199L152,200L152,200L152,200L152,202L152,203L152,204L153,205L153,206L154,206L156,206Z M174,176L174,175L174,175L173,175L173,177Z M179,174L178,172L177,172L176,173L176,174L177,175L178,175Z " data-fips="JA36" data-hasc="JP.SM" data-name="Shimane" data-postal="SM" data-varname="Simane"/><path d="M177,194L178,193L179,192L180,191L180,191L183,190L184,191L185,191L186,190L187,190L188,191L188,192L189,193L190,193L191,193L193,192L194,192L194,191L193,189L193,188L193,187L192,186L192,186L190,187L188,187L186,187L184,187L183,187L181,186L180,186L179,187L177,187L176,187L176,186L176,187L176,188L176,189L176,191L175,191L174,192L174,194L175,194L176,194Z " data-fips="JA41" data-hasc="JP.TT" data-name="Tottori" data-postal="TT" data-varname=""/><path d="M162,214L163,213L161,214L160,213L160,213L159,213L160,214L161,214L161,215Z M157,215L158,214L158,213L159,212L159,211L160,210L160,209L159,208L158,205L158,204L157,204L156,204L156,205L156,206L154,206L153,206L153,205L152,204L152,203L152,202L152,200L152,200L152,200L152,200L151,200L150,201L150,201L149,202L148,204L146,204L145,204L146,204L145,203L144,204L144,203L142,203L141,203L141,204L140,205L140,206L141,207L140,208L140,209L140,210L140,212L141,211L143,210L143,211L144,212L145,212L147,211L147,210L148,211L149,211L150,211L151,211L152,210L154,211L153,212L154,212L155,213L156,213L157,214L157,215L156,216Z " data-fips="JA45" data-hasc="JP.YC" data-name="Yamaguchi" data-postal="YC" data-varname="Yamaguti"/><path d="M128,228L127,225L128,225L129,224L131,225L131,224L131,223L132,223L133,222L134,221L133,220L132,221L131,220L130,219L129,219L128,219L127,219L126,219L125,219L125,217L124,217L124,219L123,219L124,221L124,222L123,221L123,221L122,222L123,223L124,224L125,225L124,226L126,227L127,228L128,228Z " data-fips="JA33" data-hasc="JP.SG" data-name="Saga" data-postal="SG" data-varname=""/><path d="M133,228L133,227L134,226L135,226L136,226L138,227L138,225L138,224L138,223L138,222L139,221L140,220L141,219L142,220L143,220L144,219L144,218L142,217L142,216L141,214L141,214L141,213L141,212L140,212L139,212L138,212L137,211L136,212L135,212L134,212L133,214L133,215L132,215L131,216L132,216L132,217L130,217L130,216L129,216L128,217L129,218L128,218L127,219L128,219L129,219L130,219L131,220L132,221L133,220L134,221L133,222L132,223L131,223L131,224L131,225L131,226L132,227L132,228Z " data-fips="JA07" data-hasc="JP.FO" data-name="Fukuoka" data-postal="FO" data-varname="Hukuoka"/><path d="M137,244L138,244L139,243L140,243L140,242L140,241L140,240L140,239L139,238L140,236L141,236L141,235L142,234L143,233L144,232L145,232L144,230L144,229L143,228L143,227L142,226L141,225L140,226L140,227L139,228L138,227L136,226L135,226L134,226L133,227L133,228L132,228L132,229L133,230L134,232L134,233L133,233L132,234L134,235L133,236L133,237L132,238L132,239L131,240L131,241L129,242L129,242L130,243L131,243L132,243L133,243L135,244L135,244L136,244Z M127,243L127,241L126,242L126,243Z M131,236L130,236L130,236L129,236L128,237L128,238L129,238L130,238Z M125,241L126,240L127,239L127,238L127,236L127,235L126,235L125,235L125,236L124,238L124,239L125,239L124,240L124,241Z " data-fips="JA21" data-hasc="JP.KM" data-name="Kumamoto" data-postal="KM" data-varname=""/><path d="M143,257L144,255L144,254L145,253L145,253L146,250L145,249L145,248L146,246L147,244L147,243L148,241L148,240L149,239L149,238L150,238L150,237L150,236L151,236L152,235L152,234L152,232L151,232L150,233L148,233L147,233L147,232L146,232L145,232L144,232L143,233L142,234L141,235L141,236L140,236L139,238L140,239L140,240L140,241L140,242L140,243L139,243L138,244L137,244L136,244L135,244L135,244L135,245L136,247L137,248L137,250L138,250L138,251L139,252L140,253L141,253L141,254L140,255L141,256L142,257L143,257Z " data-fips="JA25" data-hasc="JP.MZ" data-name="Miyazaki" data-postal="MZ" data-varname=""/><path d="M163,231L164,232L165,231L165,229L164,228L164,227L166,227L166,227L167,226L168,224L167,223L167,222L170,222L171,221L171,219L172,219L173,217L174,217L175,216L176,216L178,216L179,216L180,216L180,215L180,213L179,213L179,213L178,214L177,213L175,213L174,214L173,214L172,214L172,213L171,212L170,210L170,212L169,212L167,213L167,214L166,215L166,216L166,217L165,218L163,219L162,220L160,221L158,222L157,222L157,223L158,223L159,222L160,222L161,222L162,223L161,224L162,225L163,226L162,227L162,228L162,229L161,229L162,229L162,231L162,232Z " data-fips="JA05" data-hasc="JP.EH" data-name="Ehime" data-postal="EH" data-varname=""/><path d="M181,213L182,212L183,212L184,212L185,212L187,212L188,211L189,211L191,211L192,210L192,210L191,209L190,209L189,208L188,207L187,207L186,207L185,207L184,207L183,208L182,209L181,209L180,209L180,210L180,212L179,213L180,213Z M191,205L191,204L190,204L189,205L190,206L191,206Z " data-fips="JA17" data-hasc="JP.KG" data-name="Kagawa" data-postal="KG" data-varname=""/><path d="M167,234L169,234L170,235L169,234L170,233L170,231L170,230L171,230L172,229L173,228L173,227L174,226L174,225L175,224L176,224L177,223L178,223L179,222L181,222L184,223L185,224L186,225L186,226L188,227L188,226L188,225L189,223L190,222L189,222L188,222L187,221L187,219L186,219L186,218L186,217L185,217L183,217L182,217L181,216L180,216L179,216L178,216L176,216L175,216L174,217L173,217L172,219L171,219L171,221L170,222L167,222L167,223L168,224L167,226L166,227L166,227L164,227L164,228L165,229L165,231L164,232L165,232L165,233L164,234L165,234L166,235Z " data-fips="JA20" data-hasc="JP.KC" data-name="Kochi" data-postal="KC" data-varname="Koti"/><path d="M154,233L154,232L155,231L156,230L154,230L153,230L154,229L155,228L154,228L153,228L154,227L153,226L153,226L154,225L153,225L151,225L148,224L149,223L150,222L150,222L151,221L152,219L151,217L149,217L148,218L148,218L146,219L145,218L144,218L144,219L143,220L142,220L141,219L140,220L139,221L138,222L138,223L138,224L138,225L138,227L139,228L140,227L140,226L141,225L142,226L143,227L143,228L144,229L144,230L145,232L146,232L147,232L147,233L148,233L150,233L151,232L152,232L152,234L153,234Z " data-fips="JA30" data-hasc="JP.OT" data-name="Oita" data-postal="OT" data-varname=""/><path d="M190,222L190,221L191,220L192,220L194,219L195,218L195,217L195,216L195,215L194,214L194,213L195,212L194,211L195,210L194,210L192,210L191,211L189,211L188,211L187,212L185,212L184,212L183,212L182,212L181,213L180,213L180,215L180,216L181,216L182,217L183,217L185,217L186,217L186,218L186,219L187,219L187,221L188,222L189,222L190,222Z " data-fips="JA39" data-hasc="JP.TS" data-name="Tokushima" data-postal="TS" data-varname="Tokusima"/><path d="M232,205L235,204L236,204L236,203L236,202L237,201L238,200L239,199L239,198L240,197L241,196L241,195L241,194L241,194L239,194L238,194L237,193L236,194L235,193L234,193L233,193L232,193L231,192L230,191L229,191L228,191L226,191L226,192L225,194L226,196L226,197L227,196L228,196L228,197L227,198L227,199L227,200L228,201L228,202L229,202L228,201L229,200L229,199L229,201L230,202L231,202L232,202L233,201L234,202L234,203L233,203L232,204L231,204L230,205Z " data-fips="JA01" data-hasc="JP.AI" data-name="Aichi" data-postal="AI" data-varname="Aiti"/><path d="M225,194L226,192L226,191L228,191L229,191L230,191L231,192L232,193L233,193L234,193L235,193L236,194L237,193L238,192L238,191L238,190L238,189L238,188L237,187L237,186L236,185L235,184L235,183L236,182L237,182L237,181L238,180L238,179L238,177L238,176L239,175L239,174L238,173L236,173L235,172L234,172L232,172L231,173L230,174L229,175L229,174L228,174L227,175L227,175L227,176L227,177L226,179L226,181L227,181L227,183L227,183L225,184L224,184L222,184L221,184L220,184L220,187L221,188L221,189L221,191L221,193L221,194L223,193L224,194Z " data-fips="JA09" data-hasc="JP.GF" data-name="Gifu" data-postal="GF" data-varname="Gihu"/><path d="M227,177L227,176L227,175L227,175L227,173L227,172L227,171L227,170L227,169L227,167L228,166L228,165L229,164L230,163L231,163L231,162L231,161L230,161L229,161L229,160L230,159L231,159L232,158L233,157L234,156L234,155L235,155L236,154L236,153L234,153L232,154L229,155L228,155L227,156L227,157L226,158L227,159L227,161L227,162L227,163L227,164L226,167L225,168L222,172L221,173L220,174L219,175L219,175L220,176L221,177L222,177L223,177L224,178L225,178Z M231,160L230,159L229,160L230,160Z " data-fips="JA15" data-hasc="JP.IS" data-name="Ishikawa" data-postal="IS" data-varname="Isikawa"/><path d="M215,220L216,217L217,216L218,215L219,215L219,214L218,213L219,213L220,212L221,211L222,211L223,210L224,210L225,210L226,210L227,210L227,211L228,210L228,209L228,208L228,207L227,206L226,206L224,205L223,204L223,203L223,202L223,201L225,199L225,198L225,197L226,197L226,196L224,194L223,193L221,194L221,194L222,195L221,196L221,198L221,199L220,199L218,200L217,199L216,201L215,201L216,203L216,204L216,205L217,205L218,206L217,207L216,208L216,209L216,210L216,211L216,213L216,215L215,215L214,216L213,217L213,218L213,220L214,220Z " data-fips="JA23" data-hasc="JP.ME" data-name="Mie" data-postal="ME" data-varname="Miye"/><path d="M242,193L243,193L244,192L245,192L246,191L246,190L246,189L247,188L247,187L247,186L247,185L247,184L247,183L248,182L250,181L251,182L252,182L253,182L254,183L254,181L253,179L253,178L253,177L253,176L253,175L253,174L253,173L252,173L251,173L250,173L250,171L250,170L251,169L251,169L252,168L253,168L254,167L254,165L253,164L252,162L251,162L250,163L248,164L248,165L247,165L245,166L245,165L244,164L243,164L242,165L242,166L241,168L241,169L240,170L240,171L239,172L239,174L239,175L238,176L238,177L238,179L238,180L237,181L237,182L236,182L235,183L235,184L236,185L237,186L237,187L238,188L238,189L238,190L238,191L238,192L238,194L239,194L241,194L241,194Z " data-fips="JA26" data-hasc="JP.NN" data-name="Nagano" data-postal="NN" data-varname=""/><path d="M257,205L259,204L259,203L259,202L260,201L261,200L261,199L260,198L260,197L260,196L259,195L258,195L258,193L259,192L258,191L256,191L254,192L253,191L252,191L252,192L252,193L251,195L250,195L250,194L249,192L248,192L248,191L248,190L248,189L247,188L247,187L247,188L246,189L246,190L246,191L245,192L244,192L243,193L242,193L241,194L241,195L241,196L240,197L239,198L239,199L238,200L237,201L236,202L236,203L236,204L239,204L241,204L243,204L244,204L247,205L247,204L248,202L249,201L249,200L250,199L251,198L252,197L253,196L254,196L255,196L256,196L257,197L256,198L255,198L255,200L255,201L255,202L255,203L256,204L256,205Z " data-fips="JA37" data-hasc="JP.SZ" data-name="Shizuoka" data-postal="SZ" data-varname="Sizuoka"/><path d="M230,174L231,173L232,172L234,172L235,172L236,173L238,173L239,172L240,171L240,170L241,169L241,168L240,163L239,163L238,163L237,163L236,165L236,166L235,166L234,167L233,166L231,165L230,164L231,163L230,163L229,164L228,165L228,166L227,167L227,169L227,170L227,171L227,172L227,173L227,175L228,174L229,174L229,175Z " data-fips="JA42" data-hasc="JP.TY" data-name="Toyama" data-postal="TY" data-varname=""/><path d="M266,71L265,70L264,71L264,72L265,73Z M275,84L276,83L277,82L278,82L278,79L279,79L280,78L280,77L281,77L281,78L282,78L284,78L285,79L286,79L287,78L288,77L286,76L285,75L284,74L283,73L282,72L281,72L280,72L279,72L277,70L276,69L276,68L276,66L277,64L278,64L280,64L281,64L284,67L284,68L285,68L286,67L287,66L288,65L290,64L292,63L293,63L294,63L296,63L297,64L298,65L301,66L302,67L304,68L305,69L308,70L311,71L313,72L314,73L315,74L315,72L316,71L316,70L315,69L316,67L317,65L318,62L319,61L321,59L322,57L324,56L326,55L328,54L329,55L330,55L331,55L333,55L333,54L334,54L336,54L337,54L337,53L338,52L338,51L339,51L340,51L342,50L343,50L343,49L344,48L345,48L346,47L347,47L346,46L344,47L344,47L343,48L342,49L341,49L340,48L340,48L340,48L340,46L339,45L339,44L338,43L337,42L336,40L337,39L337,38L337,36L339,34L339,33L340,32L339,30L338,31L337,33L337,33L336,34L335,36L333,37L332,38L330,38L328,38L327,37L326,36L325,35L325,36L324,36L324,35L322,35L322,35L319,35L318,34L319,34L317,33L315,32L314,31L313,30L312,30L311,29L309,27L308,26L306,24L304,22L303,20L299,15L297,13L296,12L296,12L295,11L295,12L294,13L293,13L292,13L292,14L292,15L291,16L291,18L293,21L293,23L294,25L294,28L294,31L293,33L293,38L292,39L292,40L291,41L290,42L289,43L289,44L289,45L289,46L289,47L290,49L290,50L289,52L289,52L287,53L286,53L285,53L284,52L283,52L282,52L281,52L280,51L279,50L278,50L276,50L276,52L276,53L277,54L278,55L278,56L278,57L277,58L276,59L275,60L274,60L273,61L272,62L270,62L270,64L270,66L270,67L269,68L269,70L270,70L271,71L273,72L273,74L274,75L274,76L274,77L273,78L272,79L272,80L272,82L272,83L273,84L274,84Z M340,44L339,43L338,43L340,44Z M322,34L321,34L320,34L321,34Z M288,18L287,17L286,16L286,17L286,18L287,19Z M284,15L284,13L284,13L284,15L284,16Z " data-fips="JA12" data-hasc="JP.HK" data-name="Hokkaido" data-postal="HK" data-varname="Ezo|Yeso|Yezo"/><path d="M213,190L214,190L215,189L216,188L217,187L217,186L218,185L220,184L221,184L222,184L224,184L225,184L227,183L227,183L227,181L226,181L226,179L225,178L224,178L223,177L222,177L221,177L220,176L219,175L219,175L219,175L218,175L217,177L216,178L216,179L215,180L216,182L217,183L217,184L216,185L216,184L215,185L215,186L214,186L213,186L213,187L212,188L211,187L211,188L210,188L211,187L210,188L209,188L208,187L208,187L207,189L208,190L209,190L212,191Z " data-fips="JA06" data-hasc="JP.FI" data-name="Fukui" data-postal="FI" data-varname="Hukui"/><path d="M198,210L199,210L199,208L199,207L199,206L200,205L200,204L199,205L198,205L198,206L196,208L195,209L196,210L197,211Z M202,203L203,202L205,202L207,202L207,202L207,200L207,199L206,198L206,197L206,196L206,195L206,194L205,194L204,193L203,192L202,192L201,192L200,191L200,190L201,190L202,189L201,187L200,187L199,186L199,185L199,185L198,185L196,185L195,185L194,185L192,186L193,187L193,188L193,189L194,191L194,192L193,192L192,193L192,194L191,195L190,196L190,197L190,198L190,200L191,201L190,201L191,201L192,201L193,200L194,200L197,200L198,201L199,202L200,203L201,203Z " data-fips="JA13" data-hasc="JP.HG" data-name="Hyogo" data-postal="HG" data-varname="Hiogo"/><path d="M213,202L215,202L215,201L215,201L214,200L213,199L213,198L213,197L213,195L213,193L213,192L212,191L209,190L208,190L207,189L208,187L208,187L207,187L206,187L207,188L206,189L206,188L205,187L204,186L205,185L206,185L205,184L204,183L202,184L201,185L200,185L199,185L199,186L200,187L201,187L202,189L201,190L200,190L200,191L201,192L202,192L203,192L204,193L205,194L206,194L206,195L206,196L206,197L207,197L208,198L209,198L210,199L211,200L211,202L212,202Z " data-fips="JA22" data-hasc="JP.KY" data-name="Kyoto" data-postal="KY" data-varname="Kioto"/><path d="M210,217L211,217L213,217L214,216L215,215L216,215L216,213L216,211L216,210L216,209L216,208L217,207L218,206L217,205L216,205L216,204L216,203L215,202L213,202L212,202L211,202L210,203L210,204L209,205L210,206L210,207L210,208L210,210L210,211L209,211L209,213L208,214L209,215L209,216L209,217Z " data-fips="JA28" data-hasc="JP.NR" data-name="Nara" data-postal="NR" data-varname=""/><path d="M205,209L208,209L210,208L210,207L210,206L209,205L210,204L210,203L211,200L210,199L209,198L208,198L207,197L206,197L206,198L207,199L207,200L207,202L207,202L207,204L207,205L206,206L204,208L201,209L202,210Z " data-fips="JA32" data-hasc="JP.OS" data-name="Osaka" data-postal="OS" data-varname=""/><path d="M216,201L217,199L218,200L220,199L221,199L221,198L221,196L222,195L221,194L221,194L221,193L221,191L221,189L221,188L220,187L218,185L217,186L217,187L216,188L215,189L214,190L213,190L212,191L213,192L213,193L213,195L213,197L213,198L213,199L214,200L215,201L215,201Z " data-fips="JA35" data-hasc="JP.SH" data-name="Shiga" data-postal="SH" data-varname="Siga"/><path d="M212,224L213,223L214,221L214,220L213,220L213,218L211,217L210,217L209,217L209,216L209,215L208,214L209,213L209,211L210,211L210,210L210,208L208,209L205,209L202,210L201,209L201,209L202,210L203,211L202,212L201,213L202,214L202,214L201,215L201,216L202,217L203,218L204,218L205,219L206,220L205,221L206,222L207,223L210,224L211,224Z " data-fips="JA43" data-hasc="JP.WK" data-name="Wakayama" data-postal="WK" data-varname=""/><path d="M272,199L273,198L273,197L275,197L275,196L277,195L278,195L279,194L279,193L279,192L279,190L279,189L280,188L283,186L284,186L285,185L285,185L285,185L284,184L283,183L282,182L281,182L279,182L278,183L275,183L272,181L271,180L269,179L270,180L271,181L271,183L271,184L271,185L271,186L271,187L272,186L273,186L274,187L275,188L274,189L273,190L272,190L272,191L271,192L270,192L271,193L271,194L271,195L271,197L271,198L270,199L271,200Z " data-fips="JA04" data-hasc="JP.CH" data-name="Chiba" data-postal="CH" data-varname="Tiba|Tsiba"/><path d="M285,185L285,184L284,183L282,178L281,177L281,175L282,173L282,172L282,170L283,169L284,166L284,165L283,164L281,164L280,165L279,166L278,165L277,164L276,164L276,166L276,167L276,168L276,169L276,170L276,172L276,173L275,173L273,173L272,174L271,175L270,175L269,176L268,176L268,178L269,179L271,180L272,181L275,183L278,183L279,182L281,182L282,182L283,183L284,184L285,185Z " data-fips="JA14" data-hasc="JP.IB" data-name="Ibaraki" data-postal="IB" data-varname=""/><path d="M261,195L261,194L262,193L263,192L265,192L266,193L267,193L268,195L269,195L269,194L269,193L268,193L268,191L269,190L269,189L270,189L270,189L268,188L266,187L266,188L265,189L265,188L264,188L263,187L262,187L260,186L260,187L260,189L258,190L258,191L259,192L258,193L258,195L259,195L260,196Z " data-fips="JA19" data-hasc="JP.KN" data-name="Kanagawa" data-postal="KN" data-varname=""/><path d="M268,184L270,184L271,184L271,183L271,181L270,180L269,179L268,178L267,177L266,177L265,177L264,176L263,176L261,176L260,176L259,177L259,178L258,178L257,179L255,180L254,181L256,183L258,183L259,182L260,183L263,184L264,184L265,184L266,184Z " data-fips="JA34" data-hasc="JP.ST" data-name="Saitama" data-postal="ST" data-varname=""/><path d="M269,176L270,175L271,175L272,174L273,173L275,173L276,173L276,172L276,170L276,169L276,168L276,167L276,166L276,164L276,163L276,162L275,161L274,160L272,160L271,160L270,160L269,161L268,161L265,163L264,164L264,166L263,166L263,168L263,169L264,169L265,170L265,171L264,172L264,173L264,174L265,175L266,175L267,176L268,176Z " data-fips="JA38" data-hasc="JP.TC" data-name="Tochigi" data-postal="TC" data-varname="Totigi"/><path d="M272,232L271,231L270,231L270,232L271,232Z M263,208L263,208L263,208L263,209Z M265,203L265,202L264,202L264,203L265,203Z M266,188L266,187L268,188L270,189L270,189L270,188L270,187L271,186L271,185L271,184L270,184L268,184L266,184L265,184L264,184L263,184L260,183L259,182L258,183L258,183L258,185L259,185L260,186L262,187L263,187L264,188L265,188L265,189Z " data-fips="JA40" data-hasc="JP.TK" data-name="Tokyo" data-postal="TK" data-varname="Edo|Yedo|Tokio|Tquio"/><path d="M251,195L252,193L252,192L252,191L253,191L254,192L256,191L258,190L260,189L260,187L260,186L259,185L258,185L258,183L258,183L256,183L254,183L253,182L252,182L251,182L250,181L248,182L247,183L247,184L247,185L247,186L247,187L247,188L248,189L248,190L248,191L248,192L249,192L250,194L250,195Z " data-fips="JA46" data-hasc="JP.YN" data-name="Yamanashi" data-postal="YN" data-varname="Yamanasi"/><path d="M282,128L283,128L283,127L283,126L283,125L283,123L283,122L282,121L281,120L282,119L282,118L282,117L283,116L283,115L283,114L283,112L283,111L284,110L284,109L284,108L284,107L284,106L285,104L285,103L285,102L285,101L284,100L283,101L282,102L281,102L280,102L279,101L277,101L276,101L274,101L273,101L271,102L272,102L273,103L272,106L272,107L271,109L270,110L268,110L268,111L269,112L271,111L272,111L273,112L273,114L273,115L273,119L273,120L272,122L271,122L271,124L271,125L271,125L272,125L273,125L274,126L275,127L277,127L278,127L279,128L280,129Z " data-fips="JA02" data-hasc="JP.AK" data-name="Akita" data-postal="AK" data-varname=""/><path d="M287,104L290,103L291,103L292,102L293,103L294,102L295,101L294,100L293,100L292,99L291,96L291,93L291,92L291,90L291,89L291,87L291,85L291,84L290,85L289,85L288,84L287,84L286,83L285,82L284,82L284,83L283,85L283,86L282,87L282,88L283,89L284,89L285,88L287,88L288,87L289,88L289,89L289,90L289,91L288,94L287,93L286,93L285,92L284,92L284,93L283,94L282,94L281,93L281,91L281,90L281,89L280,88L279,88L278,88L277,87L277,89L276,89L277,91L276,92L276,93L276,94L275,95L274,96L272,96L272,97L271,99L271,100L271,102L273,101L274,101L276,101L277,101L279,101L280,102L281,102L282,102L283,101L284,100L285,101L285,102L285,103L285,104L286,105Z " data-fips="JA03" data-hasc="JP.AO" data-name="Aomori" data-postal="AO" data-varname=""/><path d="M280,165L281,164L283,164L284,165L284,164L285,164L286,163L287,162L287,160L287,157L287,155L287,151L287,150L287,149L286,148L286,146L286,146L285,147L284,148L283,148L282,148L282,147L281,146L280,146L279,146L278,146L276,145L276,146L276,148L276,149L275,149L274,150L273,149L272,149L271,148L270,148L269,148L268,149L267,150L266,151L266,152L266,153L265,153L264,154L263,154L262,154L261,155L262,156L261,157L261,159L262,160L262,161L262,162L263,164L264,164L265,163L268,161L269,161L270,160L271,160L272,160L274,160L275,161L276,162L276,163L277,164L278,165L279,166Z " data-fips="JA08" data-hasc="JP.FS" data-name="Fukushima" data-postal="FS" data-varname="Hukusima"/><path d="M290,131L291,130L292,130L292,129L293,128L293,127L294,127L295,127L296,127L296,126L298,126L298,125L299,124L298,124L298,123L299,122L299,121L300,120L298,121L299,119L300,119L300,118L299,119L300,118L301,117L300,116L299,115L299,114L300,113L299,111L299,110L298,109L297,108L298,106L297,105L297,104L296,103L295,102L295,101L294,102L293,103L292,102L291,103L290,103L287,104L286,105L284,106L284,107L284,108L284,109L284,110L283,111L283,112L283,114L283,115L283,116L282,117L282,118L282,119L281,120L282,121L283,122L283,123L283,125L283,126L283,127L283,128L284,128L285,128L286,129L287,129L288,130L289,131Z " data-fips="JA16" data-hasc="JP.IW" data-name="Iwate" data-postal="IW" data-varname=""/><path d="M284,148L285,147L286,146L286,146L286,146L285,145L286,144L286,141L287,140L287,139L288,138L289,138L290,137L291,137L292,138L293,138L294,139L294,137L293,137L293,136L294,135L293,134L294,133L293,132L294,131L294,130L294,130L294,129L295,129L294,127L293,127L293,128L292,129L292,130L291,130L290,131L289,131L288,130L287,129L286,129L285,128L284,128L283,128L282,128L280,129L280,129L281,131L281,132L281,133L280,133L280,134L280,136L281,137L280,138L280,139L279,140L279,141L278,143L277,143L277,144L276,145L278,146L279,146L280,146L281,146L282,147L282,148L283,148Z " data-fips="JA24" data-hasc="JP.MG" data-name="Miyagi" data-postal="MG" data-varname=""/><path d="M256,167L256,166L257,165L258,164L258,163L259,163L260,162L261,163L262,162L262,161L262,160L261,159L261,157L262,156L261,155L262,154L263,154L264,154L265,153L266,153L266,152L266,151L267,150L268,149L269,148L268,147L268,147L267,146L268,145L268,143L269,141L270,141L271,140L270,139L269,138L269,138L268,137L268,136L266,135L266,136L266,137L265,138L264,142L263,144L262,145L258,147L257,148L256,149L255,151L255,152L254,153L253,155L252,156L251,156L249,158L248,159L245,160L244,161L243,161L242,162L239,163L240,163L242,166L242,165L243,164L244,164L245,165L245,166L247,165L248,165L248,164L250,163L251,162L252,162L253,164L254,165L254,167L255,167Z M250,148L252,146L252,145L253,144L252,143L251,144L251,143L252,141L252,140L251,139L250,140L250,141L249,142L248,143L248,145L249,145L249,146L249,147L248,148Z " data-fips="JA29" data-hasc="JP.NI" data-name="Niigata" data-postal="NI" data-varname=""/><path d="M275,149L276,149L276,148L276,146L276,145L277,144L277,143L278,143L279,141L279,140L280,139L280,138L281,137L280,136L280,134L280,133L281,133L281,132L281,131L280,129L279,128L278,127L277,127L275,127L274,126L273,125L272,125L271,125L271,125L271,125L271,126L269,130L269,131L268,133L267,134L266,135L268,136L268,137L269,138L269,138L270,139L271,140L270,141L269,141L268,143L268,145L267,146L268,147L268,147L269,148L270,148L271,148L272,149L273,149L274,150Z " data-fips="JA44" data-hasc="JP.YT" data-name="Yamagata" data-postal="YT" data-varname=""/><path d="M129,234L130,233L130,232L131,231L130,230L129,230L128,230L127,230L128,229L128,228L127,228L126,227L124,226L125,225L124,224L123,223L122,222L123,221L123,221L123,220L121,220L121,220L120,220L119,222L120,223L121,224L121,225L122,225L123,225L124,226L125,227L124,228L125,230L123,230L122,229L123,228L123,227L122,227L122,226L121,225L120,226L120,228L120,229L121,230L122,231L123,232L122,233L121,234L122,234L123,233L124,231L126,231L127,231L128,232L127,233L127,234L128,234Z M107,231L108,231L108,230L107,229L107,229L106,229L105,229L105,230L104,231L105,232L107,232Z M109,229L109,229L108,228L108,229Z M112,228L113,227L113,226L112,225L112,225L112,224L112,225L111,226L110,226L111,227L111,229Z M118,222L119,221L119,220L118,220L118,221L117,222L117,223Z M124,213L124,213L123,212L122,212L122,213L123,214Z M117,206L118,205L117,203L116,203L116,203L116,204L115,205L116,207Z M118,202L119,200L120,199L120,198L121,197L121,197L120,196L119,197L118,198L118,199L118,200L117,201L117,202L118,202L118,203Z " data-fips="JA32" data-hasc="JP.NS" data-name="Nagasaki" data-postal="" data-varname=""/><path d="M130,276L131,276L132,274L131,273L129,272L128,273L127,274L128,275L129,276L130,276Z M135,275L136,274L137,272L137,271L138,270L138,268L138,267L136,269L136,270L136,271L135,272L135,273L135,275Z M134,262L135,262L137,261L138,260L138,259L139,259L139,258L138,257L139,256L140,255L141,254L141,253L140,253L139,252L138,251L138,250L137,250L137,248L136,247L135,245L135,244L133,243L132,243L131,243L130,243L129,242L129,242L129,243L128,243L127,244L126,245L127,246L127,247L126,248L126,249L127,250L128,251L128,252L128,253L127,255L127,255L125,256L126,257L126,258L127,258L130,259L131,260L132,260L132,259L132,258L131,257L131,256L131,255L131,254L132,253L132,252L133,250L134,250L135,251L135,252L134,253L133,252L133,253L134,254L134,255L134,256L135,257L135,259L134,260L134,261L133,262L133,263Z M119,250L120,248L119,249L119,251Z M123,247L122,247L121,247L122,248Z " data-fips="JA18" data-hasc="JP.KS" data-name="Kagoshima" data-postal="" data-varname=""/><path d="M15,369L16,368L15,367L14,366L13,367L13,368L12,368L12,369L14,369Z M21,368L21,367L21,366L22,365L21,366L20,367L19,367L19,368L19,369Z M40,364L39,363L39,363L38,361L38,363L38,364Z M65,340L65,339L64,339L65,340Z M80,345L81,344L80,343L81,341L83,342L82,341L82,339L84,339L85,338L87,338L87,337L89,336L89,335L90,334L90,333L89,333L88,334L87,335L86,336L84,336L84,335L83,335L83,336L84,337L83,338L82,338L81,339L80,339L80,340L80,341L79,342L78,343L78,344L79,345Z M96,324L96,323L97,323L95,323L94,323L94,324Z M102,318L102,317L102,316L102,315L101,315L100,317L100,318L101,319Z M107,312L107,311L106,310L106,311L106,312L107,313L108,313Z M118,310L119,309L118,309L117,310L118,310Z M109,311L109,310L110,309L111,309L112,308L113,307L114,307L114,307L114,306L113,306L112,307L111,307L110,307L108,308L107,308L106,309L107,309L106,309L105,309L106,310L107,311L108,311Z " data-fips="JA40" data-hasc="JP.ON" data-name="Okinawa" data-postal="" data-varname=""/><path d="M255,180L257,179L258,178L259,178L259,177L260,176L261,176L263,176L264,176L265,177L266,177L267,177L268,176L267,176L266,175L265,175L264,174L264,173L264,172L265,171L265,170L264,169L263,169L263,168L263,166L264,166L264,164L263,164L261,163L260,162L259,163L258,163L258,164L257,165L256,166L256,167L255,167L253,168L252,168L251,169L251,169L250,170L250,171L250,173L251,173L252,173L253,173L253,174L253,175L253,176L253,177L253,178L253,179L254,181Z " data-fips="JA10" data-hasc="JP.GM" data-name="Gunma" data-postal="" data-varname=""/></g></svg>