<?xml version="1.0" ?><!DOCTYPE svg  PUBLIC '-//W3C//DTD SVG 1.1//EN'  'http://www.w3.org/Graphics/SVG/1.1/DTD/svg11.dtd'><svg enable_background="new 0 0 500 401" height="401px" style="stroke-linejoin: round; stroke:#000; fill:#f6f3f0;" version="1.1" viewBox="0 0 500 401" width="500px" xmlns="http://www.w3.org/2000/svg" xmlns:xlink="http://www.w3.org/1999/xlink"><defs><style type="text/css"><![CDATA[path { fill-rule: evenodd; }
#context path { fill: #eee; stroke: #bbb; } ]]></style></defs><metadata><views><view h="401" padding="0" w="500"><proj id="laea" lat0="12.714" lon0="104.564"/><bbox h="53.13" w="63.57" x="973.0" y="975.22"/><llbbox lat0="-90" lat1="90" lon0="-180" lon1="180"/></view></views></metadata><g id="admin1"><path d="M71,121L83,117L88,117L89,117L91,118L93,120L96,120L110,120L110,99L110,98L111,97L112,95L112,93L111,88L111,85L111,81L111,79L112,77L112,74L110,71L105,67L104,66L103,61L101,62L100,63L97,66L94,62L92,62L91,62L90,62L90,61L91,56L91,55L85,54L85,54L84,53L83,51L82,49L82,48L81,48L76,45L75,44L74,45L72,46L69,47L68,48L66,49L66,51L66,52L66,54L65,56L63,58L62,60L62,62L62,63L62,64L60,66L55,70L53,72L51,75L50,80L49,82L47,84L47,86L46,88L44,90L35,95L32,97L32,99L34,101L37,103L35,103L31,106L29,106L24,107L17,106L13,106L11,109L12,111L13,113L13,114L15,114L41,116L43,120L47,120L48,120L50,118L50,117L52,116L53,117L56,119L64,121L70,121Z " data-fips="CB25" data-hasc="KH.OM" data-name="Bntay Manchey" data-postal="OM" data-varname="Banteay Mean Cheay"/><path d="M56,213L58,212L60,211L61,211L63,210L69,207L70,206L72,204L73,205L74,206L76,206L77,206L79,206L80,205L81,204L83,204L85,204L86,204L88,203L90,201L94,200L101,198L103,197L112,199L118,200L121,200L124,199L126,198L127,197L128,194L130,192L131,189L130,187L130,186L129,183L131,177L131,176L130,176L129,174L129,172L130,172L132,171L133,170L134,169L134,168L134,166L135,164L136,162L136,160L135,159L134,159L134,157L135,156L139,153L146,146L141,140L137,135L135,130L133,129L126,128L125,127L124,126L122,125L122,124L120,124L117,123L114,123L113,123L111,122L110,120L96,120L93,120L91,118L89,117L88,117L83,117L71,121L70,121L64,121L56,119L53,117L52,116L50,117L50,118L48,120L47,120L43,120L41,116L15,114L13,114L13,114L13,121L12,127L13,133L17,146L19,149L23,154L24,157L25,158L27,159L27,159L29,159L32,159L33,159L35,158L36,157L36,155L36,153L36,152L38,150L39,149L41,148L44,148L46,150L48,152L49,155L51,159L51,165L51,177L50,181L49,183L42,187L29,190L27,191L28,191L33,193L35,195L42,202L45,203L45,205L46,207L47,208L50,210L51,211L51,212L54,214L55,214Z " data-fips="CB29" data-hasc="KH.BA" data-name="Batdmbng" data-postal="BA" data-varname="Battambang|Baat Dambang|Bat Dm Bng"/><path d="M102,386L102,385L102,384L101,384L100,384L100,382L101,381L100,380L99,380L98,381L98,382L98,383L100,386Z M98,374L98,373L99,372L101,372L100,370L99,370L98,369L97,369L97,368L96,367L95,366L94,365L93,365L91,365L90,367L90,368L91,369L93,370L96,372L96,373L96,374L97,375Z M137,367L139,365L140,364L140,363L142,360L142,359L142,358L143,356L143,355L144,354L147,354L148,353L150,352L157,346L161,341L163,340L165,340L166,340L167,340L169,338L171,333L172,331L173,331L176,330L173,321L171,319L171,318L172,316L172,314L173,313L173,311L173,310L172,308L171,307L169,305L168,302L168,300L168,299L170,298L169,297L168,295L165,294L164,293L162,293L160,293L159,293L157,293L156,291L155,291L149,286L147,285L146,284L145,283L145,282L145,279L143,273L143,271L143,270L143,269L144,267L144,265L143,264L143,262L144,262L151,261L150,260L146,258L143,256L140,254L139,253L137,253L135,252L133,251L131,250L130,249L130,249L128,247L124,243L122,241L121,240L119,240L117,239L115,239L112,239L109,240L108,241L107,242L104,246L103,247L99,249L90,252L89,252L87,253L86,254L84,254L82,253L80,253L78,252L76,251L72,249L52,248L51,248L52,248L53,251L54,256L58,264L62,270L64,273L65,277L66,282L65,285L67,287L67,289L68,290L68,292L69,290L69,288L68,284L68,283L69,280L69,278L68,275L64,271L63,267L66,272L69,274L69,275L69,277L71,278L75,276L76,277L77,278L79,278L80,277L79,278L78,279L77,279L76,279L74,278L72,278L71,279L70,281L69,283L70,285L71,284L71,282L72,284L73,284L73,285L75,286L76,287L74,287L73,286L72,286L71,287L71,290L71,291L72,294L70,292L68,293L70,295L71,295L72,294L73,294L75,294L75,293L76,292L75,288L76,289L77,290L77,292L77,293L77,296L78,298L80,299L81,301L82,301L84,300L84,299L85,298L84,299L85,300L88,305L86,305L85,302L84,302L82,302L81,303L80,303L79,304L79,303L78,303L78,304L80,306L80,308L81,309L81,310L81,312L82,313L83,312L85,311L85,313L86,315L85,316L84,315L82,317L79,319L78,321L78,322L77,323L78,324L80,324L81,326L81,327L82,330L83,331L83,332L82,334L82,335L81,337L81,340L82,344L82,348L81,349L80,351L82,352L85,354L83,356L84,356L86,356L88,357L90,356L91,356L92,356L92,355L93,353L97,351L99,352L101,353L103,354L104,357L105,356L106,355L107,356L108,355L110,354L110,353L110,352L110,350L110,349L111,346L111,344L112,342L114,338L114,335L113,336L114,334L115,332L114,331L116,331L117,332L118,329L120,330L123,331L125,332L126,336L127,336L128,337L131,337L133,339L132,342L134,347L136,351L137,355L138,358L137,359L137,360L136,361L135,362L133,363L133,368L134,369Z M75,320L76,319L76,317L76,316L76,314L76,312L75,311L75,309L75,308L74,306L73,305L71,306L71,305L70,307L70,309L71,313L71,317L71,319L72,320L73,321L74,321Z M75,304L77,302L76,300L75,299L75,298L74,296L73,295L72,297L72,299L73,300L74,302L74,305Z " data-fips="CB08" data-hasc="KH.KK" data-name="Kah Kong" data-postal="KK" data-varname="Koh Kong"/><path d="M153,258L154,257L155,256L157,255L158,254L159,254L160,255L161,257L163,257L164,257L165,257L169,254L168,253L169,252L171,249L172,246L174,244L177,244L178,245L179,244L181,242L179,235L180,231L180,230L183,227L184,226L187,225L188,225L190,223L191,222L194,221L194,220L195,219L196,216L199,213L199,212L199,210L199,209L199,205L200,201L185,188L177,178L146,146L139,153L135,156L134,157L134,159L135,159L136,160L136,162L135,164L134,166L134,168L134,169L133,170L132,171L130,172L129,172L129,174L130,176L131,176L131,177L129,183L130,186L130,187L131,189L130,192L128,194L127,197L126,198L124,199L121,200L118,200L112,199L103,197L101,198L94,200L90,201L88,203L86,204L85,204L83,204L81,204L80,205L79,206L77,206L76,206L74,206L73,205L72,204L70,206L69,207L63,210L61,211L60,211L58,212L56,213L55,214L54,214L51,212L51,213L50,214L48,216L47,218L47,220L45,235L45,239L50,246L51,248L52,248L72,249L76,251L78,252L80,253L82,253L84,254L86,254L87,253L89,252L90,252L99,249L103,247L104,246L107,242L108,241L109,240L112,239L115,239L117,239L119,240L121,240L122,241L124,243L128,247L130,249L130,249L131,250L133,251L135,252L137,253L139,253L140,254L143,256L146,258L150,260L151,261Z " data-fips="CB12" data-hasc="KH.PO" data-name="Pouthisat" data-postal="PO" data-varname="Pursat"/><path d="M184,178L184,178L188,173L189,172L191,171L193,170L195,169L197,168L198,167L199,165L200,160L203,154L203,152L205,152L206,151L206,149L206,141L207,139L208,138L212,137L213,135L214,133L215,121L216,119L217,117L225,107L224,106L223,107L220,108L219,108L212,106L204,104L201,104L201,102L200,101L200,100L201,98L202,95L202,94L201,89L200,88L200,86L199,84L198,83L198,82L197,81L195,80L198,75L199,73L199,72L199,70L203,59L204,55L205,53L206,51L208,49L208,48L206,47L203,43L204,42L204,40L204,37L205,35L204,34L203,33L193,32L188,30L186,30L184,30L183,31L182,32L180,31L180,29L179,30L176,33L174,32L173,32L170,32L167,34L167,34L168,39L169,40L170,41L171,42L170,43L170,44L156,50L150,53L147,55L135,67L134,68L129,70L127,71L123,74L122,75L120,75L117,75L115,76L112,77L111,79L111,81L111,85L111,88L112,93L112,95L111,97L110,98L110,99L110,120L111,122L113,123L114,123L117,123L120,124L122,124L122,125L124,126L125,127L126,128L133,129L135,130L137,135L141,140L146,146L177,178L183,181Z " data-fips="CB24" data-hasc="KH.SI" data-name="Siemrab" data-postal="SI" data-varname="Siem Reap|Siem Reab|Siem Rab|Siemreap"/><path d="M115,76L117,75L120,75L122,75L123,74L127,71L129,70L134,68L135,67L147,55L150,53L156,50L170,44L170,43L171,42L170,41L169,40L168,39L167,34L167,34L167,34L164,35L161,33L156,33L155,34L155,35L153,35L152,35L151,34L150,34L149,33L148,33L146,33L145,33L143,33L138,31L135,31L134,30L134,28L134,27L133,26L131,26L130,27L129,28L127,29L126,29L125,28L123,28L122,28L118,30L114,32L112,32L112,31L110,31L108,33L106,34L104,34L98,34L95,35L91,36L86,37L84,37L81,39L75,44L76,45L81,48L82,48L82,49L83,51L84,53L85,54L85,54L91,55L91,56L90,61L90,62L91,62L92,62L94,62L97,66L100,63L101,62L103,61L104,66L105,67L110,71L112,74L112,77Z " data-fips="CB27" data-hasc="KH.OC" data-name="Otdar Mean Chey" data-postal="OC" data-varname="Oddr Manchey"/><path d="M29,190L42,187L49,183L50,181L51,177L51,165L51,159L49,155L48,152L46,150L44,148L41,148L39,149L38,150L36,152L36,153L36,155L36,157L35,158L33,159L32,159L29,159L27,159L27,159L26,160L25,161L25,162L26,163L24,165L25,167L25,168L26,170L26,173L27,175L27,176L28,177L28,179L27,182L26,183L26,185L25,187L26,189L26,190L27,191Z " data-fips="CB30" data-hasc="KH.PL" data-name="Krong Pailin" data-postal="PL" data-varname="Pailin"/><path d="M330,284L332,283L336,285L338,285L340,284L340,282L343,279L343,278L344,277L344,275L346,273L350,274L355,275L358,275L365,277L366,278L367,279L368,281L369,282L370,282L376,280L377,281L379,281L381,282L382,283L383,283L384,282L383,279L381,275L380,274L381,272L382,271L382,269L383,267L384,264L384,262L381,257L380,255L380,255L372,256L370,256L369,256L366,257L365,257L364,256L360,256L359,255L359,254L360,253L361,252L359,249L359,248L357,247L356,247L354,245L352,245L351,244L349,243L350,242L350,241L350,240L349,238L348,238L346,238L345,235L343,234L342,233L339,232L336,231L335,231L334,231L333,232L330,232L328,228L327,228L321,227L322,224L323,223L324,222L324,220L324,216L323,208L322,205L304,207L303,208L301,209L299,210L298,209L297,209L295,208L294,207L293,207L290,207L287,218L286,219L284,219L283,219L282,217L281,217L279,217L279,216L278,216L275,216L274,216L272,216L271,216L269,216L267,217L266,218L266,219L269,223L269,225L272,233L272,234L271,234L269,232L266,233L265,233L264,233L262,232L256,231L254,231L252,229L251,228L247,228L246,229L245,234L245,236L243,240L242,242L242,245L242,246L244,248L244,252L245,253L245,254L243,253L242,254L241,255L240,256L237,262L239,265L239,267L240,269L241,268L242,269L244,269L244,270L246,269L247,269L248,269L249,264L250,264L251,264L252,262L254,262L256,266L260,269L260,270L259,270L258,271L258,273L260,274L268,276L275,271L278,267L279,267L281,265L282,265L283,264L285,265L291,267L292,269L293,272L294,273L296,273L299,274L311,276L317,276L320,278L323,280L324,281L325,281L325,281L329,280L329,281L329,282L328,285Z " data-fips="CB02" data-hasc="KH.KM" data-name="Kmpng Cham" data-postal="KM" data-varname="Kampong Chaam|Kompong Cham"/><path d="M211,276L213,274L220,271L225,270L227,270L228,270L230,269L233,266L234,263L236,263L237,262L240,256L241,255L242,254L243,253L245,254L245,253L244,252L244,248L242,246L242,245L242,242L243,240L245,236L245,234L242,229L241,226L240,224L242,224L244,221L245,219L246,217L245,216L244,216L241,217L242,215L241,214L239,210L239,209L238,208L238,206L238,203L233,202L223,197L220,197L218,197L216,198L215,198L213,199L211,201L210,202L209,204L205,204L203,203L202,203L200,201L199,205L199,209L199,210L199,212L199,213L196,216L195,219L194,220L194,221L191,222L190,223L188,225L187,225L184,226L183,227L180,230L180,231L179,235L181,242L182,245L182,246L182,248L182,249L183,250L186,253L187,254L187,256L188,258L188,259L192,264L192,267L196,271L197,272L198,272L201,272L202,273L205,275L208,276L209,276Z " data-fips="CB03" data-hasc="KH.KG" data-name="Kmpng Chhnang" data-postal="KG" data-varname="Kompong Chnang"/><path d="M273,355L271,345L271,343L272,340L274,335L275,330L276,329L279,325L280,323L280,321L278,313L278,309L278,309L280,307L280,305L280,304L278,304L272,298L267,296L266,294L264,291L264,290L266,286L266,285L266,284L265,282L266,281L268,278L268,277L268,276L260,274L258,273L258,271L259,270L260,270L260,269L256,266L254,262L252,262L251,264L250,264L249,264L248,269L247,269L246,269L244,270L244,269L242,269L241,268L240,269L239,267L239,265L237,262L236,263L234,263L233,266L232,272L232,274L231,274L229,275L229,276L228,277L227,278L226,282L224,288L223,292L222,304L223,306L226,306L233,306L234,307L230,312L233,314L234,314L235,313L236,313L239,313L241,312L242,312L244,313L247,313L248,314L248,319L248,321L249,321L251,324L252,325L254,326L256,328L256,330L255,334L255,337L255,341L255,344L255,346L255,347L256,348L257,351L257,352L258,352L259,351L261,350L262,351L263,353L264,353L273,355Z M236,305L234,302L235,297L235,296L234,295L234,294L234,291L235,289L237,285L242,285L241,284L241,282L242,282L247,282L247,284L248,287L248,290L249,293L251,294L251,298L250,299L249,300L248,301L247,304L245,303L243,301L242,302L241,303L240,304L238,305Z " data-fips="CB07" data-hasc="KH.KN" data-name="Kndal" data-postal="KN" data-varname="Kandaal"/><path d="M219,337L220,336L221,336L224,336L224,331L225,327L225,324L227,316L227,315L228,315L230,312L234,307L233,306L226,306L223,306L222,304L223,292L224,288L226,282L227,278L228,277L229,276L229,275L231,274L232,274L232,272L230,269L228,270L227,270L225,270L220,271L213,274L211,276L209,276L208,276L205,275L202,273L201,272L198,272L197,272L196,271L192,267L192,264L188,259L188,258L187,256L187,254L186,253L183,250L182,249L182,248L182,246L182,245L181,242L179,244L178,245L177,244L174,244L172,246L171,249L169,252L168,253L169,254L165,257L164,257L163,257L161,257L160,255L159,254L158,254L157,255L155,256L154,257L153,258L151,261L144,262L143,262L143,264L144,265L144,267L143,269L143,270L143,271L143,273L145,279L145,282L145,283L146,284L147,285L149,286L155,291L156,291L157,293L159,293L160,293L162,293L164,293L165,294L168,295L169,297L170,298L168,299L168,300L168,302L169,305L171,307L172,308L173,310L173,311L173,313L172,314L172,316L171,318L171,319L173,321L176,330L178,332L179,332L187,334L194,333L200,333L203,334L206,335L207,335L209,335L211,335L214,337Z " data-fips="CB04" data-hasc="KH.KS" data-name="Kmpng Sp" data-postal="KS" data-varname="Kampong Speu|Kompong Speu|Kompong Spueu"/><path d="M272,234L272,233L269,225L269,223L266,219L266,218L267,217L269,216L271,216L272,216L274,216L275,216L278,216L279,216L279,217L281,217L282,217L283,219L284,219L286,219L287,218L290,207L293,207L294,207L295,208L297,209L298,209L299,210L301,209L303,208L304,207L322,205L319,194L316,186L316,184L315,180L315,178L315,175L315,174L316,172L316,171L315,170L314,169L313,168L313,166L314,165L314,164L313,162L312,161L311,155L311,154L312,151L311,150L311,149L310,148L308,146L303,128L303,125L303,123L303,116L290,122L288,123L270,136L269,138L268,139L262,144L253,149L248,148L246,148L245,147L244,146L243,144L243,142L242,138L243,134L243,132L244,130L244,129L243,128L234,126L229,126L226,127L223,128L214,133L213,135L212,137L208,138L207,139L206,141L206,149L206,151L205,152L203,152L203,154L200,160L199,165L198,167L197,168L195,169L193,170L191,171L189,172L188,173L184,178L184,178L183,181L185,188L200,201L202,203L203,203L205,204L209,204L210,202L211,201L213,199L215,198L216,198L218,197L220,197L223,197L233,202L238,203L238,206L238,208L239,209L239,210L241,214L242,215L241,217L244,216L245,216L246,217L245,219L244,221L242,224L240,224L241,226L242,229L246,229L247,228L251,228L252,229L254,231L256,231L262,232L264,233L265,233L266,233L269,232L271,234Z " data-fips="CB05" data-hasc="KH.KT" data-name="Kmpng Thum" data-postal="KT" data-varname="Kampong Thom|Kompong Thom"/><path d="M238,305L240,304L241,303L242,302L243,301L245,303L247,304L248,301L249,300L250,299L251,298L251,294L249,293L248,290L248,287L247,284L247,282L242,282L241,282L241,284L242,285L237,285L235,289L234,291L234,294L234,295L235,296L235,297L234,302L236,305Z " data-fips="CB22" data-hasc="KH.PP" data-name="Phnom Penh" data-postal="PP" data-varname="Phnum Pnh"/><path d="M284,359L286,353L290,349L292,348L294,349L297,350L301,349L310,347L310,347L309,346L308,345L307,344L308,342L308,339L309,338L310,336L311,335L310,334L310,333L309,329L309,327L310,326L311,323L312,321L312,321L314,321L314,319L313,314L313,307L313,306L313,305L314,303L315,297L317,293L318,293L320,292L322,291L323,291L325,291L326,291L325,290L326,288L327,287L328,285L329,282L329,281L329,280L325,281L325,281L324,281L323,280L320,278L317,276L311,276L299,274L296,273L294,273L293,272L292,269L291,267L285,265L283,264L282,265L281,265L279,267L278,267L275,271L268,276L268,277L268,278L266,281L265,282L266,284L266,285L266,286L264,290L264,291L266,294L267,296L272,298L278,304L280,304L280,305L280,307L278,309L278,309L278,313L280,321L280,323L279,325L276,329L275,330L274,335L272,340L271,343L271,345L273,355L273,355L273,355L277,356L278,356L281,359L283,360Z " data-fips="CB14" data-hasc="KH.PY" data-name="Prey Vng" data-postal="PY" data-varname="Prey Veaeng"/><path d="M262,144L268,139L269,138L270,136L288,123L290,122L303,116L304,113L306,100L305,95L303,92L303,91L302,90L301,89L301,88L301,87L301,82L301,81L303,80L304,79L305,78L307,78L308,79L309,80L310,80L311,79L314,79L315,80L316,80L317,79L317,78L317,77L318,75L319,75L320,75L331,74L332,74L334,74L332,72L324,66L323,63L321,61L320,59L317,57L315,57L313,57L312,57L310,56L309,57L308,55L307,54L305,53L304,54L303,52L301,51L299,53L297,54L296,54L294,56L291,57L289,57L286,57L284,57L283,56L280,52L278,51L276,50L271,42L270,40L270,38L270,35L267,36L265,41L262,45L257,47L256,46L254,44L251,38L251,34L251,33L251,32L249,31L246,30L243,30L242,29L240,28L238,29L237,28L235,27L234,26L233,26L231,27L229,29L227,29L226,27L225,27L223,29L222,29L220,28L218,28L217,29L216,30L215,32L214,33L212,33L211,33L209,33L208,32L206,33L205,35L204,37L204,40L204,42L203,43L206,47L208,48L208,49L206,51L205,53L204,55L203,59L199,70L199,72L199,73L198,75L195,80L197,81L198,82L198,83L199,84L200,86L200,88L201,89L202,94L202,95L201,98L200,100L200,101L201,102L201,104L204,104L212,106L219,108L220,108L223,107L224,106L225,107L217,117L216,119L215,121L214,133L223,128L226,127L229,126L234,126L243,128L244,129L244,130L243,132L243,134L242,138L243,142L243,144L244,146L245,147L246,148L248,148L253,149Z " data-fips="CB13" data-hasc="KH.PH" data-name="Preah Vihar" data-postal="PH" data-varname=""/><path d="M334,148L339,146L339,146L341,142L341,140L343,140L344,140L346,140L346,139L347,136L353,127L354,126L356,126L360,125L363,126L364,125L365,124L366,123L371,121L373,120L381,120L383,120L389,124L390,125L391,125L393,125L398,128L399,126L399,125L399,124L398,123L398,121L398,118L398,116L397,115L396,111L394,108L393,107L393,105L394,102L403,85L403,83L403,82L403,81L401,76L400,64L399,59L398,59L397,58L397,57L396,56L396,55L396,53L397,46L398,44L398,43L399,41L399,39L399,37L399,35L398,34L398,32L397,29L397,28L399,24L397,23L395,20L395,20L392,19L391,18L391,15L391,14L389,11L386,14L385,14L385,16L386,17L386,18L385,18L383,17L382,18L382,19L382,21L381,21L380,23L378,24L373,25L372,25L370,25L364,21L363,22L362,27L361,29L360,31L359,32L357,32L354,32L352,32L350,32L348,32L348,34L346,34L342,33L341,33L340,34L340,35L340,36L341,37L342,38L343,40L344,41L343,44L344,46L345,47L349,49L350,50L352,56L353,57L355,58L356,60L357,61L356,63L354,65L353,65L352,67L351,68L351,73L349,74L348,74L343,73L341,73L339,74L336,74L334,74L332,74L331,74L320,75L319,75L318,75L317,77L317,78L317,79L316,80L315,80L314,79L311,79L310,80L309,80L308,79L307,78L305,78L304,79L303,80L301,81L301,82L301,87L301,88L301,89L302,90L303,91L303,92L305,95L306,100L304,113L303,116L303,123L303,125L303,128L313,138L317,139L318,140L326,146L329,147L331,148L333,148Z " data-fips="CB17" data-hasc="KH.ST" data-name="Stng Trng" data-postal="ST" data-varname="Stung Treng|Stueng Traeng|Stung Treng"/><path d="M369,256L370,256L372,256L380,255L380,255L380,254L382,254L383,254L384,254L385,255L386,256L387,256L390,254L394,254L402,255L401,254L406,255L408,254L410,252L411,249L412,247L414,245L416,245L416,245L415,240L416,233L414,231L414,230L413,229L412,228L410,227L409,226L408,226L407,225L403,224L401,224L400,223L398,222L397,221L396,217L395,214L394,213L391,211L389,210L388,210L386,209L385,208L381,205L378,204L377,203L377,201L377,199L378,197L380,188L382,185L383,183L387,181L389,180L391,179L392,179L395,178L396,177L397,175L398,174L400,173L400,172L399,168L399,167L399,166L398,166L394,164L389,161L387,159L386,159L384,159L383,159L382,157L381,156L379,155L376,151L375,150L375,147L376,146L376,145L377,144L383,144L383,143L383,142L382,141L381,140L379,139L378,138L377,134L376,132L376,130L373,120L371,121L366,123L365,124L364,125L363,126L360,125L356,126L354,126L353,127L347,136L346,139L346,140L344,140L343,140L341,140L341,142L339,146L339,146L334,148L333,148L331,148L329,147L326,146L318,140L317,139L313,138L308,146L310,148L311,149L311,150L312,151L311,154L311,155L312,161L313,162L314,164L314,165L313,166L313,168L314,169L315,170L316,171L316,172L315,174L315,175L315,178L315,180L316,184L316,186L319,194L322,205L323,208L324,216L324,220L324,222L323,223L322,224L321,227L327,228L328,228L330,232L333,232L334,231L335,231L336,231L339,232L342,233L343,234L345,235L346,238L348,238L349,238L350,240L350,241L350,242L349,243L351,244L352,245L354,245L356,247L357,247L359,248L359,249L361,252L360,253L359,254L359,255L360,256L364,256L365,257L366,257Z " data-fips="CB09" data-hasc="KH.KH" data-name="Krchh" data-postal="KH" data-varname="Kratie|Krati|Krati|Kr Chh|Krachen"/><path d="M427,245L431,244L433,242L439,236L442,232L444,231L445,230L446,228L448,225L454,223L460,221L464,220L466,222L468,226L470,227L472,227L475,223L477,222L480,221L481,219L482,217L482,214L485,207L485,205L484,203L484,202L485,201L485,200L486,197L485,194L483,184L483,181L483,179L483,177L481,174L479,171L478,170L478,169L477,166L476,164L476,162L476,161L477,161L477,160L477,158L476,157L476,156L486,131L484,131L481,130L480,130L479,129L478,129L477,128L476,128L475,128L473,129L472,130L471,131L470,132L468,132L467,132L467,131L465,129L462,129L461,129L460,128L459,125L458,124L457,124L456,125L455,126L455,128L452,129L447,128L443,130L443,129L441,129L440,130L440,131L440,133L441,134L441,136L441,137L441,138L441,140L440,141L438,143L437,143L436,142L434,142L431,143L430,143L427,143L426,143L422,143L420,143L415,141L410,138L407,135L403,132L398,128L393,125L391,125L390,125L389,124L383,120L381,120L376,130L376,132L377,134L378,138L379,139L381,140L382,141L383,142L383,143L383,144L377,144L376,145L376,146L375,147L375,150L376,151L379,155L381,156L382,157L383,159L384,159L386,159L387,159L389,161L394,164L398,166L399,166L399,167L399,168L400,172L400,173L398,174L397,175L396,177L395,178L392,179L391,179L389,180L387,181L383,183L382,185L380,188L378,197L377,199L377,201L377,203L378,204L381,205L385,208L386,209L388,210L389,210L391,211L394,213L395,214L396,217L397,221L398,222L400,223L401,224L403,224L407,225L408,226L409,226L410,227L412,228L413,229L414,230L414,231L416,233L415,240L416,245L416,245L417,245L424,245Z " data-fips="CB10" data-hasc="KH.MK" data-name="Mndl Kiri" data-postal="MK" data-varname="Mondul Kiri|Mondolkiri|Mndul Kiri"/><path d="M430,143L431,143L434,142L436,142L437,143L438,143L440,141L441,140L441,138L441,137L441,136L441,134L440,133L440,131L440,130L441,129L443,129L443,130L447,128L452,129L455,128L455,126L456,125L457,124L458,124L459,125L460,128L461,129L462,129L465,129L467,131L467,132L468,132L470,132L471,131L472,130L473,129L475,128L476,128L477,128L478,129L479,129L480,130L481,130L484,131L486,131L488,124L489,121L488,112L487,108L480,94L478,92L476,89L475,88L473,85L473,83L473,80L472,77L473,76L473,75L473,74L473,72L472,69L472,67L471,66L470,65L467,66L465,65L464,64L464,62L464,60L464,58L463,56L462,55L462,54L462,52L465,43L465,40L465,38L464,36L464,34L465,32L467,29L467,27L468,26L470,26L471,27L472,26L474,25L474,24L475,21L476,19L476,18L477,16L478,15L478,14L478,11L478,10L480,5L480,2L479,0L478,1L475,5L474,6L473,7L472,9L471,11L471,13L471,14L470,15L469,15L467,14L464,13L462,12L460,10L458,10L457,11L455,14L454,15L453,16L453,18L452,20L450,20L449,20L448,21L448,22L447,24L444,26L442,28L440,29L439,28L438,27L437,26L435,26L432,29L430,32L429,32L428,35L428,36L426,36L424,35L422,35L422,35L418,37L417,37L415,37L414,36L412,34L409,29L408,27L406,26L400,24L399,24L397,28L397,29L398,32L398,34L399,35L399,37L399,39L399,41L398,43L398,44L397,46L396,53L396,55L396,56L397,57L397,58L398,59L399,59L400,64L401,76L403,81L403,82L403,83L403,85L394,102L393,105L393,107L394,108L396,111L397,115L398,116L398,118L398,121L398,123L399,124L399,125L399,126L398,128L403,132L407,135L410,138L415,141L420,143L422,143L426,143L427,143Z " data-fips="CB23" data-hasc="KH.RO" data-name="Rtnkiri" data-postal="RO" data-varname="Ratana Kiri|Rtanakiri|Rotanah Kiri|Rotanak Kiri"/><path d="M207,399L208,398L212,392L212,391L213,390L214,389L216,388L220,388L227,389L227,388L227,380L227,378L226,377L225,377L224,373L225,372L226,368L227,367L228,366L230,364L227,355L222,354L220,354L218,354L215,355L212,353L213,350L213,348L212,343L211,342L210,341L208,340L204,340L203,338L202,337L203,334L200,333L194,333L187,334L179,332L178,332L176,330L173,331L172,331L171,333L169,338L167,340L166,340L165,340L163,340L161,341L157,346L158,349L158,359L158,364L159,371L159,373L158,375L157,377L155,380L155,381L158,383L159,383L161,384L169,386L171,386L173,386L175,385L179,387L182,387L184,385L185,385L186,385L187,386L189,384L191,385L195,384L197,385L198,386L199,389L200,391L200,393L201,395L201,396L202,396L204,399L205,399Z " data-fips="CB21" data-hasc="KH.KP" data-name="Kmpt" data-postal="KP" data-varname=""/><path d="M201,396L201,395L200,393L200,391L199,389L198,386L197,385L195,384L191,385L189,384L187,386L188,387L189,387L189,391L190,393L191,393L193,392L197,393L200,396Z " data-fips="CB26" data-hasc="KH" data-name="Kep" data-postal="KH" data-varname="Keb"/><path d="M145,395L145,393L144,391L143,390L142,390L141,391L141,392L140,392L139,393L140,394L141,395L142,395L144,395Z M131,392L135,391L138,391L140,390L139,389L137,387L136,386L138,386L139,386L140,388L141,388L144,388L145,388L146,387L147,386L149,383L150,382L151,380L150,376L150,374L151,373L151,375L152,376L153,376L155,380L157,377L158,375L159,373L159,371L158,364L158,359L158,349L157,346L150,352L148,353L147,354L144,354L143,355L143,356L142,358L142,359L142,360L140,363L140,364L139,365L137,367L134,369L134,369L127,369L123,370L122,372L121,374L121,375L120,377L119,378L118,378L117,380L118,381L119,381L121,382L122,383L123,385L124,386L125,386L126,386L127,386L128,388L128,390L128,391L130,392Z " data-fips="CB28" data-hasc="KH.KA" data-name="Krong Preah Sihanouk" data-postal="KA" data-varname="Sihanoukville|Kampong Som|Kampong Saom"/><path d="M359,357L356,353L356,351L356,349L357,347L358,347L360,347L362,347L361,345L359,339L358,338L357,337L355,336L354,337L353,339L352,337L350,336L347,333L346,332L344,328L342,327L337,326L336,324L335,322L334,320L333,319L332,319L330,318L330,316L332,309L333,306L333,305L333,303L331,299L332,296L332,295L331,294L330,293L328,293L327,292L326,291L325,291L323,291L322,291L320,292L318,293L317,293L315,297L314,303L313,305L313,306L313,307L313,314L314,319L314,321L312,321L312,321L311,323L310,326L309,327L309,329L310,333L310,334L311,335L310,336L309,338L308,339L308,342L307,344L308,345L309,346L310,347L310,347L311,347L313,346L315,345L317,344L320,343L322,343L324,345L325,348L329,352L329,353L330,357L331,358L332,359L334,361L336,360L336,360L338,358L338,356L339,354L342,357L342,358L344,360L346,361L349,362L351,363L357,364L359,364L361,366Z " data-fips="CB18" data-hasc="KH.SR" data-name="Svay Rieng" data-postal="SR" data-varname="Soairieng|Svaay Rieng"/><path d="M237,390L241,388L243,386L246,380L248,379L249,378L258,373L260,371L260,368L257,362L255,359L255,356L255,354L256,353L257,352L257,351L256,348L255,347L255,346L255,344L255,341L255,337L255,334L256,330L256,328L254,326L252,325L251,324L249,321L248,321L248,319L248,314L247,313L244,313L242,312L241,312L239,313L236,313L235,313L234,314L233,314L230,312L228,315L227,315L227,316L225,324L225,327L224,331L224,336L221,336L220,336L219,337L214,337L211,335L209,335L207,335L206,335L203,334L202,337L203,338L204,340L208,340L210,341L211,342L212,343L213,348L213,350L212,353L215,355L218,354L220,354L222,354L227,355L230,364L228,366L227,367L226,368L225,372L224,373L225,377L226,377L227,378L227,380L227,388L227,389L229,389L233,390Z " data-fips="CB19" data-hasc="KH.TA" data-name="Takv" data-postal="TA" data-varname="Takeo|Taakaev|Takaev|Takeo"/></g></svg>