<?xml version="1.0" ?><!DOCTYPE svg  PUBLIC '-//W3C//DTD SVG 1.1//EN'  'http://www.w3.org/Graphics/SVG/1.1/DTD/svg11.dtd'><svg enable_background="new 0 0 500 401" height="401px" style="stroke-linejoin: round; stroke:#000; fill:#f6f3f0;" version="1.1" viewBox="0 0 500 401" width="500px" xmlns="http://www.w3.org/2000/svg" xmlns:xlink="http://www.w3.org/1999/xlink"><defs><style type="text/css"><![CDATA[path { fill-rule: evenodd; }
#context path { fill: #eee; stroke: #bbb; } ]]></style></defs><metadata><views><view h="401" padding="0" w="500"><proj id="laea" lat0="19.905" lon0="102.471"/><bbox h="105.46" w="89.34" x="972.52" y="968.01"/><llbbox lat0="-90" lat1="90" lon0="-180" lon1="180"/></view></views></metadata><g id="admin1"><path d="M99,126L101,126L103,125L104,125L105,125L106,125L110,122L109,120L109,118L113,117L117,117L118,116L119,116L120,115L121,114L121,112L122,111L124,111L127,113L128,113L130,112L131,111L131,110L131,104L131,103L131,102L129,102L126,102L123,102L122,101L121,100L121,99L121,97L120,96L119,94L118,93L115,94L113,93L113,90L113,89L112,86L111,85L111,84L110,84L109,83L108,81L107,79L105,79L104,77L104,77L103,77L102,78L101,78L100,78L98,78L94,77L92,78L91,79L89,80L88,82L86,83L86,85L85,86L85,87L84,89L83,90L83,94L82,96L82,97L82,98L81,100L81,101L81,104L83,105L84,104L85,102L86,101L86,100L87,99L89,98L90,97L92,98L93,99L95,104L97,106L97,107L98,108L99,109L101,109L101,111L100,113L99,116L98,119L98,122L97,123L95,124L94,126L94,126L96,126L98,126Z " data-fips="LA22" data-hasc="LA.BK" data-name="Bokeo" data-postal="BK" data-varname=""/><path d="M129,102L131,102L131,102L133,102L137,101L141,100L142,97L143,96L144,95L144,94L146,91L145,86L143,85L143,84L139,82L140,81L142,78L144,77L146,76L148,76L148,74L148,73L149,71L151,71L153,70L154,68L154,67L155,63L154,62L154,63L152,64L151,63L149,61L148,61L146,62L146,60L146,59L144,59L142,58L137,60L135,61L134,62L132,61L131,60L130,58L131,56L130,55L131,54L131,52L130,52L129,51L128,50L129,46L129,45L128,45L127,46L121,51L116,53L115,55L113,56L111,55L110,55L109,55L109,56L107,62L105,66L104,67L101,68L101,70L100,71L100,72L100,75L100,75L104,75L106,75L104,76L104,77L104,77L105,79L107,79L108,81L109,83L110,84L111,84L111,85L112,86L113,89L113,90L113,93L115,94L118,93L119,94L120,96L121,97L121,99L121,100L122,101L123,102L126,102Z " data-fips="LA16" data-hasc="LA.LM" data-name="Louang Namtha" data-postal="LM" data-varname="Haut-Mekong|Luangnamtha|Muong Luang Namtha|Namtha|Hiuakhong|Houa Kh"/><path d="M126,234L127,233L128,232L129,232L130,230L130,229L135,225L137,225L137,223L137,223L137,222L139,222L140,222L140,223L141,222L142,221L143,220L144,220L144,219L143,218L144,217L143,216L142,216L142,216L141,216L139,215L138,213L138,212L139,211L139,209L138,205L137,203L138,201L138,200L141,197L142,196L143,195L145,194L145,192L146,192L148,190L149,188L150,188L151,188L153,186L154,184L154,183L156,180L156,178L156,177L158,174L158,173L158,171L156,169L156,168L156,166L156,165L156,164L156,162L156,161L156,156L157,154L156,151L157,150L158,148L158,146L160,144L158,143L157,142L156,141L156,135L156,133L155,133L154,133L153,131L154,128L154,126L154,123L153,122L152,121L151,120L151,120L150,121L149,122L148,123L147,124L145,125L132,125L131,124L128,123L127,122L125,122L124,122L122,124L121,123L121,124L119,123L117,122L111,121L110,122L106,125L105,125L104,125L103,125L101,126L99,126L98,126L96,126L94,126L94,126L93,127L93,129L94,130L94,131L94,132L95,134L96,135L96,136L97,138L98,139L99,139L101,140L102,138L103,138L104,138L108,139L109,140L110,140L112,138L114,136L114,135L115,134L119,134L120,135L121,135L123,136L124,137L126,137L127,137L128,136L129,136L130,136L131,136L131,138L132,139L131,140L131,141L130,141L129,142L128,144L128,146L128,147L129,147L129,149L130,153L130,155L130,156L131,158L133,159L134,161L134,162L132,165L131,167L130,168L130,170L130,173L129,175L129,177L131,178L130,180L128,181L127,182L127,183L126,184L124,185L123,186L123,187L121,189L121,191L122,191L123,193L126,195L125,197L126,199L126,200L127,200L127,201L126,203L126,205L127,207L127,208L125,209L124,210L123,212L123,213L121,214L120,215L119,216L119,218L118,219L118,220L118,221L118,223L117,224L117,226L115,228L114,229L115,230L117,230L119,231L121,232L122,233L124,234L125,235Z " data-fips="LA13" data-hasc="LA.XA" data-name="Xaignabouri" data-postal="XA" data-varname="Sayabouri|Sayaboury|Xaignabouli|Xayabouri|Xayabury"/><path d="M343,399L344,398L345,398L348,399L349,398L349,395L351,394L352,392L351,391L350,390L348,387L348,386L345,385L345,384L345,382L344,381L343,380L343,379L344,378L347,379L348,378L349,378L350,378L352,378L353,377L354,376L354,375L355,372L359,374L360,374L360,374L361,373L360,371L360,370L359,369L358,368L357,367L356,364L355,363L354,362L353,361L352,360L352,356L354,353L356,351L358,350L359,348L360,348L361,348L362,348L363,350L364,350L365,349L366,349L367,350L367,351L366,352L366,354L366,355L366,356L367,357L368,358L370,358L372,359L373,358L374,358L376,358L376,357L376,355L377,354L378,353L380,352L381,353L381,351L381,349L381,347L381,345L380,343L378,342L377,342L376,342L375,341L374,341L374,337L369,334L368,333L367,333L365,333L363,330L361,329L359,330L358,330L357,331L355,331L353,333L351,335L350,334L347,331L348,330L348,329L348,328L347,327L346,327L345,327L344,327L343,328L342,327L341,327L339,328L336,328L335,328L334,328L333,327L332,328L331,328L330,328L329,327L327,328L327,328L326,329L325,329L324,330L322,331L321,331L320,332L321,334L323,334L324,334L324,335L324,336L323,337L322,338L320,340L319,342L319,343L319,344L320,345L322,346L323,347L325,349L325,350L323,352L324,353L323,354L323,356L322,357L322,358L321,359L321,360L322,361L322,363L322,365L322,368L322,369L322,370L320,372L319,374L318,376L317,376L316,377L314,378L312,377L312,378L311,379L308,380L308,381L308,382L308,383L311,387L312,388L313,389L315,390L316,391L317,391L319,391L320,390L321,389L322,389L324,388L325,389L327,389L328,391L329,390L331,391L332,391L333,391L334,392L335,394L335,395L339,398L341,399L342,399Z " data-fips="LA02" data-hasc="LA.CH" data-name="Champasak" data-postal="CH" data-varname="Bassac|Champassack|Champassak|Champassac|Khong|Pakse"/><path d="M353,333L355,331L357,331L358,330L359,330L361,329L358,329L357,326L358,326L359,325L360,324L361,324L362,325L363,325L364,324L365,323L366,323L368,323L370,323L372,322L375,322L375,320L375,319L375,317L374,316L375,314L374,313L373,313L373,312L374,311L375,308L377,306L379,304L380,303L379,301L379,300L380,299L381,299L382,299L384,299L385,299L386,299L388,299L389,298L390,298L391,297L392,295L393,294L394,293L394,292L394,291L393,288L392,287L390,287L389,287L387,287L386,286L385,284L384,284L383,283L381,281L382,281L382,279L382,277L381,276L380,276L379,278L378,279L377,280L377,281L377,281L378,281L379,282L379,284L378,285L376,286L375,286L373,286L372,288L372,289L372,291L372,292L369,293L368,293L367,293L366,293L365,294L363,294L362,295L361,295L357,295L357,297L356,296L355,294L355,294L353,293L352,293L350,294L350,294L349,295L349,296L349,297L349,300L350,301L350,302L349,303L347,304L345,304L344,304L343,304L341,306L339,307L338,307L336,307L334,307L332,306L330,306L330,305L327,304L324,304L321,302L318,302L317,303L316,303L315,304L315,306L315,308L317,312L318,313L319,313L322,313L324,314L326,315L328,317L328,319L328,322L327,324L326,325L326,327L326,329L327,328L327,328L329,327L330,328L331,328L332,328L333,327L334,328L335,328L336,328L339,328L341,327L342,327L343,328L344,327L345,327L346,327L347,327L348,328L348,329L348,330L347,331L350,334L351,335Z " data-fips="LA19" data-hasc="LA.SL" data-name="Saravan" data-postal="SL" data-varname="Salavan|Salavane|Saravane"/><path d="M341,306L343,304L344,304L345,304L347,304L349,303L350,302L350,301L349,300L349,297L349,296L349,295L350,294L350,294L352,293L353,293L355,294L355,294L356,296L357,297L357,295L361,295L362,295L363,294L365,294L366,293L367,293L368,293L369,293L372,292L372,291L372,289L372,288L373,286L375,286L376,286L378,285L379,284L379,282L378,281L377,281L377,281L376,281L375,281L374,281L373,280L372,279L372,277L372,274L370,273L368,273L367,271L367,270L367,269L366,255L365,256L363,256L361,255L361,254L358,254L355,254L354,253L353,253L351,251L349,250L348,250L348,251L347,252L342,253L338,253L334,252L330,250L329,250L327,250L327,252L326,253L324,253L319,251L317,251L314,251L313,252L312,253L310,253L309,253L308,253L307,252L306,251L305,251L304,251L303,252L302,252L300,252L299,251L297,252L296,251L295,252L294,253L293,252L292,252L291,252L291,254L290,254L289,256L290,256L290,256L291,259L290,260L288,260L287,259L287,261L288,262L288,263L287,264L287,265L288,269L288,270L288,272L287,274L287,276L287,277L288,279L288,279L291,281L292,282L293,284L294,286L295,286L296,287L298,289L299,290L300,290L300,291L300,294L300,295L300,296L301,297L302,298L303,298L310,300L311,300L317,301L318,302L321,302L324,304L327,304L330,305L330,306L332,306L334,307L336,307L338,307L339,307Z " data-fips="LA20" data-hasc="LA.SV" data-name="Savannakht" data-postal="SV" data-varname="Svannakhet"/><path d="M194,219L194,217L195,216L197,215L198,214L201,212L202,211L204,210L206,210L207,210L209,210L210,210L211,209L212,208L211,205L212,203L212,203L211,202L210,204L209,204L208,203L209,202L209,201L209,199L208,198L206,197L204,196L202,196L198,196L197,197L195,197L194,198L191,199L189,199L188,199L188,197L187,197L186,196L184,196L183,196L182,196L181,196L179,195L177,194L175,193L175,192L174,191L173,190L172,190L171,190L170,191L169,191L167,191L166,190L166,191L167,193L167,194L166,198L166,200L167,201L168,200L169,200L171,200L172,201L173,203L174,204L175,206L178,208L179,208L180,208L181,209L182,210L184,211L185,211L189,211L191,212L191,214L191,218L193,219Z " data-fips="LA00" data-hasc="LA.VT" data-name="Vientiane [prefecture]" data-postal="VT" data-varname="Vientiane|Kamphaeng Nakhon Viang Chan"/><path d="M145,218L145,217L145,216L147,216L148,215L152,213L153,210L154,207L155,207L157,207L160,208L167,201L166,200L166,198L167,194L167,193L166,191L166,190L167,191L169,191L170,191L171,190L172,190L173,190L174,191L175,192L175,193L177,194L179,195L181,196L182,196L183,196L184,196L186,196L187,197L188,197L188,199L189,199L191,199L194,198L195,197L197,197L198,196L202,196L204,196L205,194L204,192L203,191L202,190L200,186L199,187L197,187L196,187L196,186L195,185L194,183L194,181L193,179L191,176L190,174L190,173L191,172L192,170L192,169L192,167L191,166L189,164L189,162L188,161L188,159L187,158L187,156L188,155L189,154L190,153L188,152L187,150L186,149L185,148L184,148L184,146L183,146L182,146L181,145L179,146L178,146L176,145L174,145L174,144L173,144L171,144L170,145L168,145L168,148L166,149L165,150L164,151L164,153L162,156L160,158L159,158L158,159L157,160L156,161L156,162L156,164L156,165L156,166L156,168L156,169L158,171L158,173L158,174L156,177L156,178L156,180L154,183L154,184L153,186L151,188L150,188L149,188L148,190L146,192L145,192L145,194L143,195L142,196L141,197L138,200L138,201L137,203L138,205L139,209L139,211L138,212L138,213L139,215L141,216L142,216L142,216L143,216L144,217L143,218L144,219Z " data-fips="LA27" data-hasc="LA.VI" data-name="Vientiane" data-postal="VI" data-varname="Viangchan"/><path d="M199,187L200,186L203,185L212,186L216,185L221,185L225,184L228,182L229,181L230,180L230,179L230,177L230,175L230,174L230,172L231,170L230,169L230,168L230,166L232,166L234,165L235,167L237,168L238,168L239,169L240,170L241,171L243,171L244,171L245,170L246,169L248,166L247,163L246,162L245,161L243,161L242,161L240,160L237,160L235,159L234,159L233,158L232,157L231,156L229,156L228,156L228,157L227,157L226,157L224,156L222,157L221,157L220,158L216,157L214,157L212,156L210,155L205,154L204,154L203,153L202,152L200,151L199,150L198,150L197,149L195,151L193,151L190,153L189,154L188,155L187,156L187,158L188,159L188,161L189,162L189,164L191,166L192,167L192,169L192,170L191,172L190,173L190,174L191,176L193,179L194,181L194,183L195,185L196,186L196,187L197,187Z " data-fips="LA27" data-hasc="LA.XS" data-name="Xaismboun" data-postal="XS" data-varname="Saysomboune,|Xaysomboun"/><path d="M256,172L258,171L259,170L260,169L261,168L262,167L262,165L263,165L264,164L264,162L263,160L264,158L263,158L262,158L261,157L261,156L259,154L254,152L252,152L251,152L250,152L248,150L247,149L246,149L247,148L249,147L250,145L251,145L252,144L254,144L254,143L255,141L256,140L256,139L256,138L255,136L253,135L252,132L253,131L256,133L257,132L258,131L259,131L261,130L261,130L261,129L260,127L260,126L261,123L261,122L261,123L260,123L259,124L257,124L256,123L255,124L254,125L250,126L249,126L248,124L247,124L247,122L247,121L247,120L247,119L245,116L243,115L242,115L241,115L239,117L238,118L238,120L237,120L236,119L235,121L233,121L232,121L231,122L230,122L229,123L227,122L224,122L223,121L222,120L220,121L219,121L218,120L216,120L214,121L214,122L213,122L211,122L210,123L209,124L207,124L206,125L206,127L206,129L204,130L202,130L203,131L202,132L200,134L197,135L197,136L196,137L194,139L193,141L194,144L195,145L196,146L197,149L198,150L199,150L200,151L202,152L203,153L204,154L205,154L210,155L212,156L214,157L216,157L220,158L221,157L222,157L224,156L226,157L227,157L228,157L228,156L229,156L231,156L232,157L233,158L234,159L235,159L237,160L240,160L242,161L243,161L245,161L246,162L247,163L248,166L249,169L253,171L254,172L255,172Z " data-fips="LA14" data-hasc="LA.XI" data-name="Xiangkhoang" data-postal="XI" data-varname="Xiang Khouang|Xieng Khouang|Xiengkhuang|Xieng Khwang"/><path d="M277,134L278,134L280,134L281,130L282,129L283,128L285,128L286,127L287,126L287,126L288,124L288,123L287,122L285,122L286,121L286,120L289,119L290,118L290,117L291,117L293,117L294,115L294,114L294,113L294,112L292,110L292,110L292,108L288,106L286,106L284,106L282,107L281,106L280,104L281,103L282,103L282,101L282,100L281,100L279,98L277,97L271,97L269,96L268,95L270,93L271,91L272,92L273,92L275,92L276,91L278,87L278,85L276,84L273,83L272,83L271,80L270,80L268,80L268,79L267,78L266,77L265,76L264,75L263,74L261,74L261,73L260,73L258,72L257,72L256,71L254,72L252,74L250,74L249,75L245,76L244,77L242,77L241,78L241,80L241,82L240,82L239,83L239,84L239,85L238,86L237,85L236,85L233,82L231,82L229,81L229,80L227,78L226,79L225,79L225,80L223,81L220,82L219,83L218,84L217,85L217,88L217,90L217,93L216,94L216,96L217,97L219,97L218,98L219,100L218,102L218,103L215,106L213,108L214,109L216,112L215,113L214,114L214,115L214,119L214,121L216,120L218,120L219,121L220,121L222,120L223,121L224,122L227,122L229,123L230,122L231,122L232,121L233,121L235,121L236,119L237,120L238,120L238,118L239,117L241,115L242,115L243,115L245,116L247,119L247,120L247,121L247,122L247,124L248,124L249,126L250,126L254,125L255,124L256,123L257,124L259,124L260,123L261,123L261,122L261,123L260,126L260,127L261,129L261,130L261,130L263,130L264,131L265,132L267,131L269,131L270,132L271,133L272,133L275,135Z " data-fips="LA03" data-hasc="LA.HO" data-name="Houaphan" data-postal="HO" data-varname="Hua Phan|Huaphanh|Sam Neua|Xam Nua"/><path d="M157,160L158,159L159,158L160,158L162,156L164,153L164,151L165,150L166,149L168,148L168,145L170,145L171,144L173,144L174,144L174,145L176,145L178,146L179,146L181,145L182,146L183,146L184,146L184,148L185,148L186,149L187,150L188,152L190,153L193,151L195,151L197,149L196,146L195,145L194,144L193,141L194,139L196,137L197,136L197,135L200,134L202,132L203,131L202,130L204,130L206,129L206,127L206,125L207,124L209,124L210,123L211,122L213,122L214,122L214,121L214,119L214,115L214,114L215,113L216,112L214,109L213,108L215,106L218,103L218,102L219,100L218,98L219,97L217,97L216,96L216,94L217,93L217,90L217,88L217,85L218,84L219,83L220,82L223,81L225,80L225,79L223,80L222,79L220,78L218,78L217,78L215,77L214,77L213,76L212,74L211,73L210,70L209,68L208,67L207,67L206,66L205,65L205,63L201,63L199,64L199,66L199,68L197,69L193,71L193,72L191,72L190,72L189,73L187,76L184,75L183,74L182,73L181,73L180,72L178,72L178,73L179,75L180,77L179,79L179,80L180,81L180,83L179,85L178,87L175,87L175,88L173,91L173,93L171,97L170,99L171,100L172,100L172,102L171,103L171,105L173,107L173,108L173,110L172,111L171,112L170,112L166,114L163,114L162,115L160,118L158,119L157,119L153,119L151,120L152,121L153,122L154,123L154,126L154,128L153,131L154,133L155,133L156,133L156,135L156,141L157,142L158,143L160,144L158,146L158,148L157,150L156,151L157,154L156,156L156,161Z " data-fips="LA17" data-hasc="LA.LP" data-name="Louangphrabang" data-postal="LP" data-varname="Loang Prabang|Louangphabang|Louang Prabang|Luang Phabang|Luangphrabang|Luang Prabang"/><path d="M145,125L147,124L148,123L149,122L150,121L151,120L151,120L153,119L157,119L158,119L160,118L162,115L163,114L166,114L170,112L171,112L172,111L173,110L173,108L173,107L171,105L171,103L172,102L172,100L171,100L170,99L171,97L173,93L173,91L175,88L175,87L178,87L179,85L180,83L180,81L179,80L179,79L180,77L179,75L178,73L178,72L177,70L175,69L174,69L172,69L171,69L169,68L168,67L166,64L165,64L161,62L159,62L157,60L157,60L157,60L156,60L155,60L154,61L154,62L155,63L154,67L154,68L153,70L151,71L149,71L148,73L148,74L148,76L146,76L144,77L142,78L140,81L139,82L143,84L143,85L145,86L146,91L144,94L144,95L143,96L142,97L141,100L137,101L133,102L131,102L131,102L131,103L131,104L131,110L131,111L130,112L128,113L127,113L124,111L122,111L121,112L121,114L120,115L119,116L118,116L117,117L113,117L109,118L109,120L110,122L111,121L117,122L119,123L121,124L121,123L122,124L124,122L125,122L127,122L128,123L131,124L132,125Z " data-fips="LA07" data-hasc="LA.OU" data-name="Oudmxai" data-postal="OU" data-varname="Oudomsai|Oudomsay|Oudomxay|UdomXay"/><path d="M189,73L190,72L191,72L193,72L193,71L197,69L199,68L199,66L199,64L201,63L205,63L205,63L203,62L203,61L203,59L202,58L201,58L199,58L201,57L202,56L203,55L203,52L204,49L203,49L201,50L203,47L204,46L206,44L207,42L206,41L206,40L206,37L205,36L202,37L201,37L201,36L201,34L200,32L200,31L199,32L199,35L198,37L197,38L195,39L193,39L192,38L192,37L192,36L192,33L192,31L190,28L189,27L187,26L185,25L185,23L185,22L184,21L183,20L182,19L181,18L180,17L177,14L174,13L173,11L172,10L171,8L171,7L170,6L170,5L169,4L168,3L164,2L163,3L161,3L160,4L159,5L158,5L157,4L155,1L153,0L152,0L151,1L150,2L149,3L149,5L149,6L148,8L147,10L146,10L145,10L144,11L144,12L146,15L146,16L145,18L145,19L146,20L147,22L147,23L148,25L149,26L151,27L151,28L152,29L153,31L154,32L153,36L153,37L154,38L154,39L155,40L156,41L156,42L154,43L153,44L153,47L153,48L153,52L152,55L153,56L156,57L157,58L157,60L157,60L159,62L161,62L165,64L166,64L168,67L169,68L171,69L172,69L174,69L175,69L177,70L178,72L180,72L181,73L182,73L183,74L184,75L187,76Z " data-fips="LA18" data-hasc="LA.PH" data-name="Phngsali" data-postal="PH" data-varname="Fong Sali|Phongsaly"/><path d="M265,216L266,214L269,209L269,207L270,206L271,203L272,201L274,201L275,200L276,199L277,199L278,200L280,201L284,203L288,206L289,207L290,209L292,209L293,210L294,211L299,212L301,211L303,209L304,207L306,204L308,201L309,197L307,197L307,196L304,195L304,193L304,192L303,191L302,190L301,189L301,188L301,186L301,183L302,182L303,181L304,181L304,180L304,179L303,179L302,176L301,176L300,177L299,176L296,175L294,175L293,174L292,173L291,173L288,173L286,173L284,172L283,171L282,171L280,170L279,168L277,167L274,164L273,164L271,164L270,163L268,161L267,160L265,159L264,158L263,160L264,162L264,164L263,165L262,165L262,167L261,168L260,169L259,170L258,171L256,172L255,172L254,172L253,171L249,169L246,169L245,170L244,171L243,171L241,171L240,170L239,169L238,168L237,168L235,167L234,165L232,166L230,166L230,168L230,169L231,170L230,172L230,174L230,175L230,177L230,179L230,180L229,181L228,182L225,184L221,185L216,185L212,186L203,185L200,186L202,190L203,191L204,192L205,194L204,196L206,197L208,198L209,199L209,201L209,202L208,203L209,204L210,204L211,202L212,203L212,203L212,204L213,203L215,202L215,201L215,199L217,198L218,198L219,197L221,197L221,196L219,194L219,193L219,192L220,191L221,190L222,190L226,189L228,190L229,190L230,190L232,190L233,190L235,191L237,192L240,193L242,194L244,194L245,195L246,196L247,197L248,196L249,195L250,194L251,194L252,194L253,195L254,196L256,200L258,204L259,206L262,209L264,214L265,215L265,216Z " data-fips="LA00" data-hasc="LA.BL" data-name="Bolikhamxai" data-postal="BL" data-varname="Bolikhamsai|Bolikhamxay|Borikhamzay|Borikane|Borikhan|Borikhane"/><path d="M291,259L290,256L290,256L289,256L290,254L291,254L291,252L292,252L293,252L294,253L295,252L296,251L297,252L299,251L300,252L302,252L303,252L304,251L305,251L306,251L307,252L308,253L309,253L310,253L312,253L313,252L314,251L317,251L319,251L324,253L326,253L327,252L327,250L329,250L330,250L334,252L338,253L342,253L347,252L348,251L348,250L349,250L351,251L353,253L354,253L355,254L358,254L361,254L360,252L360,251L357,249L356,247L356,245L356,244L355,242L354,241L354,242L353,243L352,243L351,243L343,237L339,232L338,231L335,227L334,226L333,225L330,224L329,223L328,221L327,219L326,217L324,216L324,214L324,210L323,209L322,208L322,207L321,206L320,205L319,203L318,202L318,201L317,200L315,199L314,200L313,202L313,202L312,201L311,200L310,199L310,198L310,197L309,197L308,201L306,204L304,207L303,209L301,211L299,212L294,211L293,210L292,209L290,209L289,207L288,206L284,203L280,201L278,200L277,199L276,199L275,200L274,201L272,201L271,203L270,206L269,207L269,209L266,214L265,216L265,216L266,216L269,218L269,219L270,221L271,222L272,224L273,225L274,226L282,230L285,232L286,233L287,235L288,236L289,239L290,240L290,242L290,245L289,247L289,248L287,255L286,256L287,259L288,260L290,260Z " data-fips="LA15" data-hasc="LA.KH" data-name="Khammouan" data-postal="KH" data-varname="Khammouane|Khammuan"/><path d="M385,379L386,379L387,379L388,378L389,377L390,376L391,374L393,374L394,375L395,375L396,374L397,373L398,371L399,371L400,371L400,370L400,368L401,368L402,366L404,366L405,367L406,367L407,368L409,368L409,367L409,366L410,365L410,364L411,363L413,361L413,360L412,359L413,358L412,357L412,355L414,353L414,352L411,349L410,348L410,347L409,346L411,345L412,345L412,344L413,343L412,342L411,341L410,338L408,338L407,339L406,340L405,339L403,339L402,338L402,337L401,336L400,335L397,334L393,335L392,335L391,336L390,336L389,336L388,336L387,337L385,337L384,337L383,336L381,336L380,336L378,337L378,337L377,339L376,340L376,341L375,341L376,342L377,342L378,342L380,343L381,345L381,347L381,349L381,351L381,353L380,352L378,353L377,354L376,355L376,357L376,358L374,358L373,358L372,359L370,358L368,358L367,357L366,356L366,355L366,354L366,352L367,351L367,350L366,349L365,349L364,350L363,350L362,348L361,348L360,348L359,348L358,350L356,351L354,353L352,356L352,360L353,361L354,362L355,363L356,364L357,367L358,368L359,369L360,370L360,371L361,373L360,374L360,374L362,373L364,373L364,371L365,370L366,370L366,369L367,368L368,367L369,369L370,371L371,371L372,373L373,373L377,375L378,376L379,378L381,380L383,380Z " data-fips="LA01" data-hasc="LA.AT" data-name="Attapu" data-postal="AT" data-varname="Attopu|Atpu|Attapeu|Attopeu|Muang Mai"/><path d="M413,344L415,344L416,343L416,342L416,341L417,339L417,337L419,337L419,334L418,333L416,331L415,330L415,328L414,327L412,328L411,326L411,324L409,324L408,323L407,324L405,324L402,319L400,318L399,316L399,314L398,313L396,312L395,310L397,307L398,307L399,307L403,305L405,304L406,303L408,300L408,299L408,298L408,297L407,297L404,298L403,298L402,297L401,296L399,294L398,294L396,293L395,293L394,292L394,293L393,294L392,295L391,297L390,298L389,298L388,299L386,299L385,299L384,299L382,299L381,299L380,299L379,300L379,301L380,303L379,304L377,306L375,308L374,311L373,312L373,313L374,313L375,314L374,316L375,317L375,319L375,320L375,322L372,322L370,323L368,323L366,323L365,323L364,324L363,325L362,325L361,324L360,324L359,325L358,326L357,326L358,329L361,329L363,330L365,333L367,333L368,333L369,334L374,337L374,341L375,341L376,341L376,340L377,339L378,337L378,337L380,336L381,336L383,336L384,337L385,337L387,337L388,336L389,336L390,336L391,336L392,335L393,335L397,334L400,335L401,336L402,337L402,338L403,339L405,339L406,340L407,339L408,338L410,338L411,341L412,342L413,343L412,344L412,345Z " data-fips="LA26" data-hasc="LA.XE" data-name="Xkong" data-postal="XE" data-varname="Sekong"/></g></svg>