<?xml version="1.0" ?><!DOCTYPE svg  PUBLIC '-//W3C//DTD SVG 1.1//EN'  'http://www.w3.org/Graphics/SVG/1.1/DTD/svg11.dtd'><svg enable_background="new 0 0 500 401" height="401px" style="stroke-linejoin: round; stroke:#000; fill:#f6f3f0;" version="1.1" viewBox="0 0 500 401" width="500px" xmlns="http://www.w3.org/2000/svg" xmlns:xlink="http://www.w3.org/1999/xlink"><defs><style type="text/css"><![CDATA[path { fill-rule: evenodd; }
#context path { fill: #eee; stroke: #bbb; } ]]></style></defs><metadata><views><view h="401" padding="0" w="500"><proj id="laea" lat0="33.92" lon0="35.888"/><bbox h="20.13" w="15.45" x="991.85" y="990.52"/><llbbox lat0="-90" lat1="90" lon0="-180" lon1="180"/></view></views></metadata><g id="admin1"><path d="M254,308L258,305L265,300L268,292L265,287L268,284L272,282L277,282L281,280L285,278L288,274L289,269L287,267L284,264L280,262L277,261L272,259L268,258L265,256L266,251L267,250L269,249L270,248L271,246L270,241L271,239L272,237L276,234L277,231L280,227L287,221L289,216L292,213L295,212L296,211L299,211L302,209L309,205L310,206L313,209L315,210L319,210L322,208L325,205L328,204L332,205L342,210L350,212L354,211L356,208L356,203L352,201L344,199L338,195L337,193L335,190L340,181L342,177L346,173L354,166L360,157L364,155L367,155L371,157L374,157L376,156L377,155L378,153L379,150L380,146L384,141L393,133L397,125L403,119L402,117L397,112L396,108L395,104L396,100L398,98L399,95L397,93L396,92L395,92L393,92L391,89L387,83L386,81L385,79L385,77L386,76L387,75L387,73L388,69L388,67L387,64L384,62L382,63L381,62L378,58L374,57L372,54L370,51L368,47L368,47L365,46L360,46L354,46L350,47L349,47L348,47L347,46L343,47L340,48L331,55L330,56L330,58L330,59L330,60L326,65L326,69L321,80L320,81L318,83L314,86L312,88L311,90L309,98L303,104L295,114L295,120L294,122L290,129L289,130L288,131L282,135L281,137L281,152L272,170L266,179L264,180L254,188L252,192L251,194L248,200L234,215L241,220L242,222L240,225L239,225L238,225L236,225L234,225L228,233L232,236L232,238L230,240L229,241L228,242L226,243L214,260L213,263L211,269L208,281L207,283L207,284L205,286L204,287L202,288L203,294L204,298L205,300L206,302L207,307L211,308L212,308L214,305L216,302L218,300L221,297L222,296L223,295L227,297L231,299L233,301L233,302L235,307L237,308L246,310L249,310Z " data-fips="LE11" data-hasc="LB.BI" data-name="Beqaa" data-postal="BI" data-varname="Bekaa|El Begaa|Bqaa|La Bekaa"/><path d="M289,130L290,129L294,122L295,120L295,114L303,104L309,98L311,90L312,88L314,86L318,83L320,81L321,80L326,69L326,65L330,60L330,59L330,58L330,56L331,55L340,48L343,47L347,46L345,42L349,39L350,38L354,36L358,33L359,29L359,25L359,22L362,20L365,21L367,23L369,22L369,14L365,16L360,16L355,14L351,11L346,2L343,0L339,3L338,5L338,10L337,12L335,14L333,15L321,16L320,15L318,13L317,13L315,13L312,15L298,14L293,15L288,15L284,13L281,10L279,10L277,9L275,9L277,12L278,17L279,22L279,33L278,37L275,39L272,41L261,51L245,56L242,55L242,56L245,62L242,67L231,73L228,78L225,86L222,91L218,88L213,92L211,99L210,106L210,114L209,115L209,115L215,116L228,123L233,123L235,122L241,123L243,122L245,121L248,121L250,121L251,121L253,123L255,124L259,127L260,127L261,127L263,128L264,128L265,128L266,127L267,125L268,125L270,126L271,127L277,130L279,130L280,131L281,130L288,131Z " data-fips="LE09" data-hasc="LB.AS" data-name="North Lebanon" data-postal="AS" data-varname="Ash Shamal|Liban-Nord"/><path d="M183,201L185,200L187,200L189,192L189,191L186,191L185,192L183,192L182,191L180,190L177,190L175,190L174,192L174,194L176,197L176,199L176,201L180,202Z " data-fips="LE04" data-hasc="LB.BA" data-name="Beirut" data-postal="BA" data-varname="Bayrut|Beirute|Beyrouth"/><path d="M204,287L205,286L207,284L207,283L208,281L211,269L213,263L214,260L226,243L228,242L229,241L230,240L232,238L232,236L228,233L234,225L236,225L238,225L239,225L240,225L242,222L241,220L234,215L248,200L251,194L252,192L254,188L264,180L266,179L272,170L281,152L281,137L282,135L281,130L280,131L279,130L277,130L271,127L270,126L268,125L267,125L266,127L265,128L264,128L263,128L261,127L260,127L259,127L255,124L253,123L251,121L250,121L248,121L245,121L243,122L241,123L235,122L233,123L228,123L215,116L209,115L209,115L209,115L206,117L206,119L206,127L206,131L209,136L210,139L209,147L205,157L206,163L206,164L207,165L208,166L208,168L207,169L204,170L203,170L201,172L199,178L197,180L199,181L199,182L197,184L196,189L194,190L191,191L189,191L189,192L187,200L185,200L183,201L180,202L176,201L176,211L175,216L167,236L167,239L164,241L161,251L158,254L159,255L154,269L155,269L161,269L167,272L172,273L174,273L175,273L176,272L178,272L179,272L182,271L183,270L185,270L186,270L187,270L189,269L189,268L191,267L192,266L193,266L195,266L196,265L197,265L199,265L200,266L200,268L200,273L200,275L200,276L200,278L201,279L203,280L204,281L202,288Z " data-fips="LE05" data-hasc="LB.JL" data-name="Mount Lebanon" data-postal="JL" data-varname="Jabal Lubnan|Mont-Liban"/><path d="M159,396L168,392L175,391L176,388L180,381L181,377L182,370L183,358L185,353L186,350L188,346L189,344L191,344L193,345L196,351L199,353L200,354L200,353L200,349L202,347L208,345L212,342L220,334L223,333L226,333L229,332L232,331L234,329L237,325L241,317L245,313L249,310L246,310L237,308L235,307L233,302L233,301L231,299L227,297L223,295L222,296L221,297L218,300L216,302L214,305L212,308L211,308L207,307L205,310L204,311L203,311L199,315L198,318L197,319L196,319L195,319L194,318L192,319L191,319L190,321L188,328L185,320L184,318L185,315L184,299L185,293L185,290L184,290L183,291L182,292L181,292L180,292L179,293L176,294L175,294L173,295L172,294L163,296L162,298L162,299L162,300L161,301L160,301L158,301L157,303L156,304L154,306L155,308L156,307L156,308L156,309L153,316L152,317L152,319L152,320L151,319L150,318L149,317L149,317L148,315L147,315L146,314L144,315L143,316L142,317L142,318L142,320L141,321L140,322L138,323L139,323L140,324L142,324L143,324L145,325L146,326L147,328L146,332L149,335L153,336L159,337L161,337L162,337L165,336L163,339L163,341L163,345L162,346L162,348L161,348L155,356L154,357L153,358L151,358L149,360L150,361L151,361L152,362L152,363L150,364L148,365L147,365L145,366L145,368L144,370L143,371L142,371L141,371L140,371L139,372L136,379L136,380L136,382L136,384L136,387L136,388L137,389L139,391L141,393L142,396L144,399L147,399Z " data-fips="LE07" data-hasc="LB.NA" data-name="An Nabatiyah" data-postal="NA" data-varname="Nabaty"/><path d="M117,390L119,389L120,389L123,390L124,390L132,388L134,388L136,388L136,387L136,384L136,382L136,380L136,379L139,372L140,371L141,371L142,371L143,371L144,370L145,368L145,366L147,365L148,365L150,364L152,363L152,362L151,361L150,361L149,360L151,358L153,358L154,357L155,356L161,348L162,348L162,346L163,345L163,341L163,339L165,336L162,337L161,337L159,337L153,336L149,335L146,332L147,328L146,326L145,325L143,324L142,324L140,324L139,323L138,323L140,322L141,321L142,320L142,318L142,317L143,316L144,315L146,314L147,315L148,315L149,317L149,317L150,318L151,319L152,320L152,319L152,317L153,316L156,309L156,308L156,307L155,308L154,306L156,304L157,303L158,301L160,301L161,301L162,300L162,299L162,298L163,296L172,294L173,295L175,294L176,294L179,293L180,292L181,292L182,292L183,291L184,290L185,290L185,293L184,299L185,315L184,318L185,320L188,328L190,321L191,319L192,319L194,318L195,319L196,319L197,319L198,318L199,315L203,311L204,311L205,310L207,307L206,302L205,300L204,298L203,294L202,288L204,281L203,280L201,279L200,278L200,276L200,275L200,273L200,268L200,266L199,265L197,265L196,265L195,266L193,266L192,266L191,267L189,268L189,269L187,270L186,270L185,270L183,270L182,271L179,272L178,272L176,272L175,273L174,273L172,273L167,272L161,269L155,269L154,269L151,277L151,280L149,287L143,293L132,301L133,304L132,307L128,312L127,316L127,322L127,326L123,336L120,341L115,344L120,350L119,358L112,371L111,369L110,369L111,371L110,373L108,376L107,378L102,380L100,382L98,385L97,388L97,389L98,389L98,391L115,391Z " data-fips="LE06" data-hasc="LB.JA" data-name="South Lebanon" data-postal="JA" data-varname="Al Janub|Liban-Sud|Sayda"/></g></svg>