<?xml version="1.0" ?><!DOCTYPE svg  PUBLIC '-//W3C//DTD SVG 1.1//EN'  'http://www.w3.org/Graphics/SVG/1.1/DTD/svg11.dtd'><svg enable_background="new 0 0 500 401" height="401px" style="stroke-linejoin: round; stroke:#000; fill:#f6f3f0;" version="1.1" viewBox="0 0 500 401" width="500px" xmlns="http://www.w3.org/2000/svg" xmlns:xlink="http://www.w3.org/1999/xlink"><defs><style type="text/css"><![CDATA[path { fill-rule: evenodd; }
#context path { fill: #eee; stroke: #bbb; } ]]></style></defs><metadata><views><view h="401" padding="0" w="500"><proj id="laea" lat0="7.612" lon0="80.704"/><bbox h="48.2" w="27.29" x="987.24" y="972.63"/><llbbox lat0="-90" lat1="90" lon0="-180" lon1="180"/></view></views></metadata><g id="admin1"><path d="M231,293L232,289L231,288L229,286L228,283L226,283L228,281L232,281L234,281L237,279L239,279L241,279L247,272L249,268L248,264L248,261L250,263L251,265L253,265L255,269L259,269L264,269L269,269L271,268L274,266L274,262L272,255L268,239L266,239L265,241L263,242L262,241L260,242L256,241L253,244L250,245L246,241L245,241L243,242L243,243L243,247L241,249L237,249L231,245L229,242L227,243L226,243L227,244L228,246L227,246L225,246L224,247L224,248L224,249L222,249L220,248L219,248L219,250L218,251L218,252L216,253L215,256L220,260L220,262L220,262L223,264L224,265L224,267L224,268L225,270L227,271L226,273L225,274L224,274L223,274L221,276L218,277L217,278L218,281L219,283L218,284L218,286L221,286L226,293L229,295Z " data-fips="CE29" data-hasc="LK.KY" data-name="Kandy" data-postal="KY" data-varname="Maha Nuwara"/><path d="M243,247L243,243L243,242L245,241L246,241L250,245L253,244L256,241L260,242L262,241L263,242L265,241L266,239L268,239L270,231L271,226L272,221L272,219L271,217L266,216L261,216L261,218L260,220L259,219L258,217L256,219L253,220L251,220L250,218L250,216L248,210L249,207L252,207L253,205L253,201L254,199L255,194L258,191L256,190L255,190L254,189L252,190L252,191L250,190L250,188L249,187L248,186L246,187L244,187L243,189L241,191L239,191L238,191L238,193L238,194L237,196L235,197L236,198L234,199L234,201L232,202L231,201L229,201L227,203L224,204L221,207L222,209L223,210L224,212L225,213L226,215L226,217L227,218L227,221L228,224L229,226L229,227L229,229L229,230L227,232L227,234L228,236L229,237L229,238L229,239L229,241L229,242L231,245L237,249L241,249Z " data-fips="CE29" data-hasc="LK.MT" data-name="Matale" data-postal="MT" data-varname=""/><path d="M239,314L241,314L244,314L248,313L253,310L255,310L256,308L255,308L254,307L256,305L255,304L254,302L254,301L251,299L250,297L252,297L254,297L256,296L256,294L258,292L259,291L263,291L266,287L266,285L267,283L268,283L268,282L269,280L268,279L269,278L269,277L268,276L268,274L268,271L264,269L259,269L255,269L253,265L251,265L250,263L248,261L248,264L249,268L247,272L241,279L239,279L237,279L234,281L232,281L228,281L226,283L228,283L229,286L231,288L232,289L231,293L229,295L226,293L221,286L218,286L219,287L218,288L216,289L215,290L216,292L216,296L217,298L219,299L222,301L223,304L223,305L222,308L222,309L221,309L221,310L223,312L226,312L231,313L236,314Z " data-fips="CE29" data-hasc="LK.NW" data-name="Nuwara Eliya" data-postal="NW" data-varname="Nuvara Eliya"/><path d="M351,329L353,326L352,323L355,319L355,317L356,316L357,313L357,311L357,309L358,307L362,291L363,287L363,285L362,281L361,280L362,255L359,247L358,244L357,241L356,241L356,242L355,243L355,244L355,246L354,247L354,245L352,241L352,242L351,242L349,242L346,243L344,244L340,248L340,246L339,240L338,238L338,235L336,237L329,237L323,236L321,235L318,233L317,231L317,229L318,226L318,223L315,223L311,222L309,220L306,215L303,214L300,214L297,214L297,216L297,218L296,220L295,221L295,222L293,222L291,221L286,219L283,216L279,215L277,215L273,215L271,217L272,219L272,221L271,226L272,227L273,227L274,229L274,231L275,233L277,237L279,237L280,236L281,236L284,234L289,231L293,232L293,237L292,242L292,244L292,245L292,247L293,251L294,253L296,255L298,256L299,257L300,259L301,263L302,264L304,264L306,262L305,258L305,255L308,255L310,253L311,252L311,251L311,250L311,249L311,247L312,247L313,247L314,246L314,245L315,244L316,244L319,242L321,243L320,245L321,246L321,247L322,253L322,255L322,257L324,259L326,261L326,264L328,267L327,268L325,270L323,274L325,276L325,278L326,279L327,279L329,280L332,281L335,283L335,285L335,287L335,289L335,291L336,292L337,295L337,336L339,336L340,336L342,338L345,339Z " data-fips="CE31" data-hasc="LK.AP" data-name="Ampara" data-postal="AP" data-varname="Amparai"/><path d="M344,244L346,243L349,242L351,242L351,241L352,241L351,239L350,238L349,237L351,236L351,235L350,234L351,231L348,225L346,224L345,223L345,225L344,224L345,222L344,221L343,219L340,217L339,215L338,215L337,214L336,215L335,215L334,215L333,215L334,213L335,211L336,211L338,212L339,213L342,216L343,217L345,216L345,214L343,212L339,207L338,206L336,204L334,204L332,202L331,198L332,196L333,195L332,194L330,192L329,191L329,190L330,188L329,187L327,188L327,187L326,186L325,187L324,184L323,183L322,182L321,180L320,176L319,175L318,177L317,177L315,176L314,174L313,173L313,172L313,171L313,167L315,172L316,176L318,174L317,169L306,160L305,166L304,182L304,186L306,189L306,193L302,193L300,193L297,195L296,198L296,206L297,214L300,214L303,214L306,215L309,220L311,222L315,223L318,223L318,226L317,229L317,231L318,233L321,235L323,236L329,237L336,237L338,235L338,238L339,240L340,246L340,248Z M356,239L356,237L354,228L351,222L350,219L349,218L347,215L346,213L347,215L346,216L346,218L346,219L347,220L347,221L351,226L351,227L352,228L353,231L352,237L353,239L354,240Z " data-fips="CE31" data-hasc="LK.BC" data-name="Batticaloa" data-postal="BC" data-varname=""/><path d="M295,221L296,220L297,218L297,216L297,214L296,206L296,198L297,195L300,193L302,193L306,193L306,189L304,186L304,182L305,166L302,161L301,161L300,162L300,163L298,164L297,167L297,168L296,171L292,171L293,170L294,169L293,167L293,166L293,165L293,164L291,164L290,163L288,161L286,160L284,160L277,159L273,159L271,158L271,156L269,154L268,154L266,152L264,154L263,156L262,157L261,158L257,158L253,159L251,163L250,167L249,171L248,175L248,179L250,180L248,183L248,186L249,187L250,188L250,190L252,191L252,190L254,189L255,190L256,190L258,191L255,194L254,199L253,201L253,205L252,207L249,207L248,210L250,216L250,218L251,220L253,220L256,219L258,217L259,219L260,220L261,218L261,216L266,216L273,215L277,215L279,215L283,216L286,219L291,221L293,222L295,222Z " data-fips="CE31" data-hasc="LK.PR" data-name="Polonnaruwa" data-postal="PR" data-varname=""/><path d="M296,171L297,168L297,167L298,164L300,163L300,162L301,161L302,161L306,160L315,159L314,156L313,152L312,152L310,152L309,151L309,150L308,146L309,146L311,149L312,150L312,147L310,142L310,138L309,136L308,135L306,134L305,134L304,135L302,136L303,138L301,139L296,139L294,139L293,137L291,135L290,134L288,135L286,136L286,135L287,133L289,132L290,133L292,134L294,135L295,134L294,132L293,132L293,130L294,128L295,129L296,130L295,132L298,131L297,129L295,124L293,125L294,123L295,123L296,122L296,120L295,119L292,116L293,115L291,115L290,115L289,110L288,108L285,106L284,105L282,100L280,99L279,98L277,97L274,91L270,87L270,88L269,90L267,92L266,92L264,90L265,89L266,88L265,87L265,86L263,87L261,87L259,88L258,89L253,89L248,93L248,94L250,93L253,93L256,95L260,98L262,100L263,101L264,101L263,104L261,107L261,111L263,115L264,117L262,121L262,123L263,124L264,125L264,127L267,131L269,135L269,136L271,137L271,138L270,140L269,141L268,142L267,143L267,145L266,152L268,154L269,154L271,156L271,158L273,159L277,159L284,160L286,160L288,161L290,163L291,164L293,164L293,165L293,166L293,167L294,169L293,170L292,171Z " data-fips="CE31" data-hasc="LK.TC" data-name="Trincomalee" data-postal="TC" data-varname=""/><path d="M227,203L229,201L231,201L232,202L234,201L234,199L236,198L235,197L237,196L238,194L238,193L238,191L239,191L241,191L243,189L244,187L246,187L248,186L248,183L250,180L248,179L248,175L249,171L250,167L251,163L253,159L257,158L261,158L262,157L263,156L264,154L267,145L267,143L268,142L269,141L270,140L271,138L271,137L269,136L269,135L267,131L264,127L264,125L263,124L262,123L262,121L264,117L263,115L261,111L261,107L263,104L264,101L263,101L262,100L260,98L256,95L253,93L250,93L248,94L245,95L242,96L239,98L232,98L232,100L235,101L236,104L237,106L235,108L233,110L232,112L230,114L227,117L225,119L222,119L220,118L218,117L215,118L211,123L209,128L207,128L205,131L204,131L202,130L200,127L200,126L199,125L198,124L196,124L195,121L195,117L186,120L181,120L176,118L177,124L177,134L175,137L174,141L170,144L170,145L168,146L167,149L168,152L171,162L172,164L174,164L175,163L177,164L179,164L181,165L182,167L184,168L193,172L195,173L197,174L199,175L201,175L204,176L207,179L209,180L211,182L212,182L214,183L214,184L214,185L214,188L214,189L214,191L216,192L217,192L218,193L218,195L219,197L220,200L219,203L224,204Z " data-fips="CE30" data-hasc="LK.AD" data-name="Anuradhapura" data-postal="AD" data-varname=""/><path d="M207,128L209,128L211,123L215,118L218,117L220,118L222,119L225,119L227,117L230,114L232,112L233,110L235,108L237,106L236,104L235,101L232,100L232,98L239,98L242,96L245,95L248,94L248,93L251,84L250,83L246,81L243,80L242,81L240,82L240,80L241,79L240,77L237,76L237,73L234,72L231,72L230,73L229,74L228,74L226,76L224,77L222,74L220,73L216,73L214,73L213,73L212,74L213,76L215,76L215,77L215,79L215,81L213,84L211,86L206,89L209,90L210,93L212,97L211,100L206,102L200,103L196,103L194,104L192,108L190,108L189,109L189,111L192,112L195,117L195,121L196,124L198,124L199,125L200,126L200,127L202,130L204,131L205,131Z " data-fips="CE30" data-hasc="LK.VA" data-name="Vavuniya" data-postal="VA" data-varname=""/><path d="M177,124L176,118L181,120L186,120L195,117L192,112L189,111L189,109L190,108L192,108L194,104L196,103L200,103L206,102L211,100L212,97L210,93L209,90L206,89L189,90L190,85L190,85L190,83L191,82L191,81L191,80L194,79L194,77L193,75L194,73L194,72L194,70L192,67L191,64L189,62L187,63L183,63L182,65L179,73L178,77L177,80L176,82L175,83L172,85L165,90L164,90L163,91L164,92L164,93L164,94L165,96L164,104L164,105L167,111L166,121L165,123L164,124L163,128L164,129L167,130L170,130L172,131L177,134Z M162,86L157,80L159,81L162,82L163,83L160,79L156,77L151,75L147,74L143,74L142,75L141,75L142,76L143,77L145,77L147,78L151,80L156,83L157,84L157,85L159,86L160,87L163,87Z " data-fips="CE31" data-hasc="LK.MB" data-name="Mannar" data-postal="MB" data-varname=""/><path d="M206,89L211,86L213,84L215,81L215,79L215,77L215,76L213,76L212,74L213,73L214,73L216,73L220,73L222,74L224,77L226,76L228,74L229,74L230,73L231,72L234,72L237,73L237,76L240,77L241,79L240,80L240,82L242,81L243,80L246,81L250,83L251,84L253,89L258,89L259,88L261,87L263,87L265,86L265,86L261,82L260,81L262,81L264,82L266,83L267,85L268,84L268,83L266,81L264,78L263,75L262,73L261,74L260,74L260,72L258,71L256,70L256,69L258,69L261,70L256,60L254,57L252,58L253,59L254,60L252,59L246,54L247,53L249,54L251,55L252,55L251,53L249,51L248,49L247,48L235,38L234,39L233,40L233,41L231,43L231,45L231,48L229,46L227,45L225,44L224,49L222,49L220,50L215,49L214,49L212,54L209,54L207,54L204,54L196,55L193,58L194,61L191,64L192,67L194,70L194,72L194,73L193,75L194,77L194,79L191,80L191,81L191,82L190,83L190,85L190,85L189,90Z " data-fips="CE31" data-hasc="LK.MP" data-name="Mullaitivu" data-postal="MP" data-varname="Mulativu"/><path d="M235,38L219,25L215,23L213,22L200,6L199,5L198,1L197,0L195,0L195,0L190,0L188,1L186,2L186,3L187,4L193,6L197,8L204,16L213,23L216,26L218,30L218,31L219,31L220,31L222,33L224,33L227,34L234,39L234,39Z M143,35L145,34L143,31L141,31L139,30L139,29L137,28L137,29L137,33L138,34L140,35Z M169,22L170,21L169,20L168,19L166,19L165,17L164,15L162,15L161,14L161,13L161,12L161,11L161,9L161,7L160,7L158,7L157,9L157,11L156,13L158,18L160,20L161,22L163,21L165,21L166,21L168,22Z M192,24L191,23L190,22L189,21L189,18L191,18L192,20L198,22L200,18L201,15L194,8L192,7L191,8L190,8L189,6L186,6L185,5L185,2L184,1L183,1L179,1L171,1L169,1L165,5L163,6L163,7L165,9L165,10L166,12L166,13L166,14L168,15L168,14L170,15L172,16L176,19L181,22L183,23L185,23L184,22L182,20L181,19L183,20L187,23L190,25L191,25Z " data-fips="CE31" data-hasc="LK.JA" data-name="Jaffna" data-postal="JA" data-varname=""/><path d="M187,63L189,62L194,61L193,58L196,55L204,54L207,54L209,54L212,54L214,49L215,49L220,50L222,49L224,49L225,44L227,45L229,46L231,48L231,45L231,43L233,41L233,40L234,39L234,39L229,38L223,35L217,34L215,34L206,37L201,39L199,37L199,36L199,35L200,34L199,33L197,31L195,30L189,29L183,25L180,24L177,24L179,26L186,30L188,32L189,33L191,35L192,36L190,37L188,38L186,41L185,41L183,42L180,42L178,43L177,45L177,46L178,48L178,51L179,52L182,53L183,53L183,55L183,61L183,63Z M216,31L218,31L218,30L216,26L209,22L206,20L201,15L200,18L198,22L199,22L202,24L210,31L214,31L215,32Z " data-fips="CE31" data-hasc="LK.KL" data-name="Kilinochchi" data-postal="KL" data-varname=""/><path d="M195,260L197,258L200,257L205,256L206,256L206,255L207,254L207,252L207,250L209,249L212,249L213,251L216,253L218,252L218,251L219,250L219,248L220,248L222,249L224,249L224,248L224,247L225,246L227,246L228,246L227,244L226,243L227,243L229,242L229,241L229,239L229,238L229,237L228,236L227,234L227,232L229,230L229,229L229,227L229,226L228,224L227,221L227,218L226,217L226,215L225,213L224,212L223,210L222,209L221,207L219,203L220,200L219,197L218,195L218,193L217,192L216,192L214,191L214,189L214,188L214,185L214,184L214,183L212,182L211,182L209,180L207,179L204,176L201,175L199,175L197,174L195,173L193,172L184,168L182,167L182,169L182,171L183,175L183,177L184,179L186,179L187,180L187,181L186,183L186,185L186,188L186,189L185,190L186,192L185,193L183,192L182,193L182,194L181,195L179,196L179,197L179,198L178,199L176,200L176,201L175,202L174,203L173,204L172,205L172,206L171,209L171,211L171,212L172,213L171,214L170,215L169,215L167,215L167,217L166,218L167,218L168,219L167,220L165,220L164,221L164,222L163,225L161,228L161,231L161,235L165,255L165,261L168,260L171,257L174,257L177,259L180,258L182,256L185,256L186,258L187,259L189,261L193,262Z " data-fips="CE32" data-hasc="LK.KG" data-name="Kurunegala" data-postal="KG" data-varname=""/><path d="M164,260L165,261L165,255L161,235L161,231L161,228L163,225L164,222L164,221L165,220L167,220L168,219L167,218L166,218L167,217L167,215L169,215L170,215L171,214L172,213L171,212L171,211L171,209L172,206L172,205L173,204L174,203L175,202L176,201L176,200L178,199L179,198L179,197L179,196L181,195L182,194L182,193L183,192L185,193L186,192L185,190L186,189L186,188L186,185L186,183L187,181L187,180L186,179L184,179L183,177L183,175L182,171L182,169L182,167L181,165L179,164L177,164L175,163L174,164L172,164L171,162L168,152L167,149L168,146L170,145L170,144L174,141L175,137L172,131L170,130L167,130L164,129L163,128L162,129L160,131L159,132L158,134L158,138L158,140L157,141L156,142L155,152L154,156L154,158L154,160L152,161L152,162L152,164L153,166L153,168L153,170L154,172L154,173L151,179L151,180L152,181L153,183L154,185L155,187L152,188L148,188L144,185L146,181L144,179L144,175L146,169L146,167L146,166L147,165L148,163L149,160L148,160L147,160L146,159L146,158L148,155L149,151L146,156L146,157L145,159L144,161L143,163L141,164L141,166L142,172L141,173L141,177L143,188L145,192L146,198L147,200L150,213L150,217L150,219L151,220L151,222L151,224L151,226L150,227L149,227L150,229L154,261L156,261L158,260L160,260L161,261L162,261Z " data-fips="CE32" data-hasc="LK.PX" data-name="Puttalam" data-postal="PX" data-varname=""/><path d="M267,366L266,363L265,361L264,359L263,357L261,355L259,354L258,352L256,350L256,344L256,342L255,341L257,338L259,335L260,331L261,328L263,326L264,324L265,321L264,321L261,323L259,324L257,323L255,322L254,320L255,319L258,317L258,315L257,315L255,313L254,314L253,310L248,313L244,314L241,314L239,314L236,314L231,313L226,312L223,312L221,310L221,309L222,309L222,308L220,306L218,306L215,305L213,304L211,304L210,304L207,306L204,305L204,304L203,303L201,304L200,303L198,301L194,297L193,297L191,299L190,301L190,302L189,303L192,306L189,308L190,310L192,315L191,317L192,318L193,320L196,323L197,326L198,328L199,328L202,330L203,333L201,334L202,335L206,341L211,349L213,350L214,351L216,351L219,352L221,352L221,354L223,353L225,353L226,351L228,351L232,351L234,353L233,355L235,356L237,355L238,357L240,358L245,361L252,364L254,364L256,364L258,363L260,365L261,366L265,367L267,367Z " data-fips="CE33" data-hasc="LK.RN" data-name="Ratnapura" data-postal="RN" data-varname=""/><path d="M210,395L210,394L210,393L211,391L213,390L214,389L211,388L211,386L211,385L213,385L214,383L216,382L214,380L212,379L211,377L210,375L211,373L212,371L211,370L210,368L214,369L216,367L215,364L213,361L211,360L210,358L211,357L213,358L215,359L217,361L220,362L221,359L219,357L218,356L219,354L221,354L221,352L219,352L216,351L214,351L213,350L211,349L206,349L203,351L201,352L201,354L202,356L201,358L200,357L198,355L195,353L192,353L189,355L185,354L183,353L182,351L180,350L178,350L174,348L174,347L173,347L172,347L171,347L169,346L171,351L172,354L173,359L174,361L174,364L179,374L181,376L181,377L182,378L190,387L192,389L193,388L194,388L196,390L199,391L205,393L206,394L207,394L208,394L209,395L210,395Z " data-fips="CE34" data-hasc="LK.GL" data-name="Galle" data-postal="GL" data-varname=""/><path d="M246,393L253,388L256,387L259,387L260,385L263,384L268,383L274,381L284,379L286,378L289,377L290,376L291,375L292,373L293,373L294,375L306,370L310,368L328,353L331,352L333,351L339,347L342,344L345,339L342,338L340,336L339,336L337,336L333,334L330,335L328,336L326,338L323,339L321,341L322,342L322,344L321,345L321,347L320,349L317,348L314,349L313,349L312,350L306,352L303,353L302,354L301,355L298,356L295,355L294,352L292,350L291,350L290,351L289,351L287,351L287,349L285,348L282,348L280,348L279,349L278,348L278,349L277,351L276,351L274,351L274,353L275,355L273,357L270,358L267,359L265,361L266,363L267,366L267,367L265,367L261,366L260,365L258,363L256,364L254,364L252,364L245,361L238,361L238,363L238,365L235,367L233,372L235,373L237,374L238,374L238,375L237,376L238,378L239,379L241,379L241,380L240,381L242,385L238,386L238,388L240,389L242,389L241,390L242,392L245,394Z " data-fips="CE34" data-hasc="LK.HB" data-name="Hambantota" data-postal="HB" data-varname=""/><path d="M233,399L235,397L236,396L238,396L240,395L244,396L245,394L242,392L241,390L242,389L240,389L238,388L238,386L242,385L240,381L241,380L241,379L239,379L238,378L237,376L238,375L238,374L237,374L235,373L233,372L235,367L238,365L238,363L238,361L240,358L238,357L237,355L235,356L233,355L234,353L232,351L228,351L226,351L225,353L223,353L221,354L219,354L218,356L219,357L221,359L220,362L217,361L215,359L213,358L211,357L210,358L211,360L213,361L215,364L216,367L214,369L210,368L211,370L212,371L211,373L210,375L211,377L212,379L214,380L216,382L214,383L213,385L211,385L211,386L211,388L214,389L213,390L211,391L210,393L210,394L210,395L210,395L213,395L215,395L216,394L217,395L218,396L218,397L220,398L226,397L228,397L229,398L231,399Z " data-fips="CE34" data-hasc="LK.MH" data-name="Matara" data-postal="MH" data-varname=""/><path d="M275,333L277,331L278,332L279,332L279,330L281,329L280,327L279,324L279,322L279,321L281,318L281,317L279,316L278,315L279,313L279,311L279,309L283,308L284,306L287,306L284,302L286,301L289,300L290,299L291,298L292,296L293,297L295,297L295,295L295,294L296,292L297,291L297,289L297,287L297,285L297,283L297,282L295,281L294,279L290,280L289,279L288,277L287,275L285,274L286,272L287,270L289,270L290,272L292,271L293,269L295,266L296,264L296,262L300,259L299,257L298,256L296,255L294,253L293,251L292,247L292,245L292,244L292,242L293,237L293,232L289,231L284,234L281,236L280,236L279,237L277,237L275,233L274,231L274,229L273,227L272,227L271,226L270,231L272,255L274,262L274,266L271,268L269,269L268,271L268,274L268,276L269,277L269,278L268,279L269,280L268,282L268,283L267,283L266,285L266,287L263,291L259,291L258,292L256,294L256,296L254,297L252,297L250,297L251,299L254,301L254,302L255,304L256,305L254,307L255,308L256,308L255,310L253,310L254,314L255,313L257,315L258,315L258,317L255,319L254,320L255,322L257,323L259,324L261,323L264,321L265,321L267,321L267,322L268,324L269,325L270,327L271,329L273,330L273,333L274,334L275,336Z " data-fips="CE35" data-hasc="LK.BD" data-name="Badulla" data-postal="BD" data-varname=""/><path d="M267,359L270,358L273,357L275,355L274,353L274,351L276,351L277,351L278,349L278,348L279,349L280,348L282,348L285,348L287,349L287,351L289,351L290,351L291,350L292,350L294,352L295,355L298,356L301,355L302,354L303,353L306,352L312,350L313,349L314,349L317,348L320,349L321,347L321,345L322,344L322,342L321,341L323,339L326,338L328,336L330,335L333,334L337,295L336,292L335,291L335,289L335,287L335,285L335,283L332,281L329,280L327,279L326,279L325,278L325,276L323,274L325,270L327,268L328,267L326,264L326,261L324,259L322,257L322,255L322,253L321,247L321,246L320,245L321,243L319,242L316,244L315,244L314,245L314,246L313,247L312,247L311,247L311,249L311,250L311,251L311,252L310,253L308,255L305,255L305,258L306,262L304,264L302,264L301,263L296,262L296,264L295,266L293,269L292,271L290,272L289,270L287,270L286,272L285,274L287,275L288,277L289,279L290,280L294,279L295,281L297,282L297,283L297,285L297,287L297,289L297,291L296,292L295,294L295,295L295,297L293,297L292,296L291,298L290,299L289,300L286,301L284,302L287,306L284,306L283,308L279,309L279,311L279,313L278,315L279,316L281,317L281,318L279,321L279,322L279,324L280,327L281,329L279,330L279,332L278,332L277,331L275,333L275,336L274,334L273,333L273,330L271,329L270,327L269,325L268,324L267,322L267,321L265,321L264,324L263,326L261,328L260,331L259,335L257,338L255,341L256,342L256,344L256,350L258,352L259,354L261,355L263,357L264,359L265,361Z " data-fips="CE35" data-hasc="LK.MJ" data-name="Moneragala" data-postal="MJ" data-varname="Monaragala"/><path d="M223,305L223,304L222,301L219,299L217,298L216,296L216,292L215,290L216,289L218,288L219,287L218,286L218,284L219,283L218,281L217,278L218,277L221,276L223,274L224,274L225,274L226,273L227,271L225,270L224,268L224,267L224,265L223,264L220,262L220,262L220,260L215,256L213,251L212,249L209,249L207,250L207,252L207,254L206,255L206,256L205,256L200,257L197,258L195,260L193,262L191,264L190,265L190,268L189,270L187,270L186,273L188,276L190,275L192,276L192,278L190,279L189,282L188,285L190,290L190,291L192,291L193,292L194,294L192,295L193,297L194,297L198,301L200,303L201,304L203,303L204,304L204,305L207,306L210,304L211,304L213,304L215,305L218,306L220,306Z " data-fips="CE33" data-hasc="LK.KE" data-name="Kegalle" data-postal="KE" data-varname="Kegalla"/><path d="M161,318L161,317L161,315L160,314L161,312L165,315L168,314L169,313L170,313L174,310L175,309L177,310L178,309L179,308L181,308L182,311L184,312L183,309L187,307L189,308L192,306L189,303L190,302L190,301L191,299L193,297L192,295L194,294L193,292L192,291L190,291L188,292L185,292L183,293L181,294L181,296L181,298L179,298L177,298L176,298L174,297L173,296L172,295L170,295L168,295L163,294L162,295L160,294L158,293L156,293L156,293L156,300L157,309L161,318Z " data-fips="CE36" data-hasc="LK.CO" data-name="Colombo" data-postal="CO" data-varname=""/><path d="M181,298L181,296L181,294L183,293L185,292L188,292L190,291L190,290L188,285L189,282L190,279L192,278L192,276L190,275L188,276L186,273L187,270L189,270L190,268L190,265L191,264L189,261L187,259L186,258L185,256L182,256L180,258L177,259L174,257L171,257L168,260L165,261L164,260L162,261L161,261L160,260L158,260L156,261L154,261L154,266L154,267L155,269L157,269L157,271L157,272L157,275L157,276L155,276L154,272L153,271L153,270L153,268L152,271L157,288L157,289L157,290L156,293L158,293L160,294L162,295L163,294L168,295L170,295L172,295L173,296L174,297L176,298L177,298L179,298Z " data-fips="CE36" data-hasc="LK.GQ" data-name="Gampaha" data-postal="GQ" data-varname=""/><path d="M202,356L201,354L201,352L203,351L206,349L206,341L202,335L201,334L203,333L202,330L199,328L198,328L197,326L196,323L193,320L192,318L191,317L192,315L190,310L189,308L187,307L183,309L184,312L182,311L181,308L179,308L178,309L177,310L175,309L174,310L170,313L169,313L168,314L165,315L161,312L160,314L161,315L161,317L161,318L161,318L168,336L169,342L168,342L168,344L169,344L169,346L171,347L172,347L173,347L174,347L174,348L178,350L180,350L182,351L183,353L185,354L189,355L192,353L195,353L198,355L200,357L201,358Z " data-fips="CE36" data-hasc="LK.KT" data-name="Kalutara" data-postal="KT" data-varname=""/></g></svg>