<?xml version="1.0" ?><!DOCTYPE svg  PUBLIC '-//W3C//DTD SVG 1.1//EN'  'http://www.w3.org/Graphics/SVG/1.1/DTD/svg11.dtd'><svg enable_background="new 0 0 500 401" height="401px" style="stroke-linejoin: round; stroke:#000; fill:#f6f3f0;" version="1.1" viewBox="0 0 500 401" width="500px" xmlns="http://www.w3.org/2000/svg" xmlns:xlink="http://www.w3.org/1999/xlink"><defs><style type="text/css"><![CDATA[path { fill-rule: evenodd; }
#context path { fill: #eee; stroke: #bbb; } ]]></style></defs><metadata><views><view h="401" padding="0" w="500"><proj id="laea" lat0="4.201" lon0="102.195"/><bbox h="81.93" w="240.4" x="968.73" y="958.96"/><llbbox lat0="-90" lat1="90" lon0="-180" lon1="180"/></view></views></metadata><g id="admin1"><path d="M43,213L43,212L43,210L44,210L45,211L46,211L46,212L47,213L48,213L49,212L50,211L50,210L50,208L49,207L49,205L49,204L49,203L49,202L48,202L47,200L47,199L46,199L46,198L46,196L45,195L44,194L44,193L44,192L44,191L44,190L44,189L44,188L43,187L44,186L45,185L45,184L45,183L46,183L46,182L46,181L46,179L46,178L47,177L47,176L47,175L47,174L48,173L48,172L49,172L50,170L51,170L52,171L53,170L54,170L54,168L54,167L54,166L53,166L52,166L52,165L52,164L52,163L52,162L52,161L52,159L52,160L51,159L51,158L50,157L49,156L48,156L45,157L44,158L43,158L41,159L41,160L40,161L40,162L38,163L37,163L37,161L35,161L34,160L34,159L33,160L34,161L33,163L33,164L33,165L33,166L32,166L31,167L31,168L31,170L30,170L29,171L28,171L28,172L27,173L26,174L24,176L23,177L22,177L21,176L19,176L19,176L18,177L19,178L19,179L20,180L21,181L22,181L22,182L23,182L23,184L24,184L25,185L24,186L24,188L26,188L25,189L24,189L24,190L25,191L25,193L24,194L24,195L23,196L24,197L25,198L25,199L25,201L26,201L27,201L29,203L29,204L30,204L31,204L30,205L29,205L27,206L27,207L27,208L28,209L29,209L30,209L30,209L32,209L33,209L34,210L34,211L34,211L35,210L36,210L37,211L37,212L38,211L39,212L40,212L41,213L42,213Z " data-fips="MY07" data-hasc="MY.PK" data-name="Perak" data-postal="PK" data-varname="Perak Darul Ridzuan"/><path d="M21,176L23,175L23,172L22,167L22,166L22,165L18,164L18,165L19,166L19,169L19,170L20,172L20,173L20,174L20,175L19,176Z " data-fips="MY09" data-hasc="MY.PG" data-name="Pulau Pinang" data-postal="PG" data-varname="Penang and Province Wellesley|Penang"/><path d="M15,172L16,172L17,170L18,168L17,168L16,167L15,167L14,168L14,169L14,170L14,172Z " data-fips="MY09" data-hasc="MY.PG" data-name="Pulau Pinang" data-postal="PG" data-varname="Penang and Province Wellesley|Penang"/><path d="M24,176L26,174L27,173L28,172L28,171L29,171L30,170L31,170L31,168L31,167L32,166L33,166L33,165L33,164L33,163L34,161L33,160L34,159L34,158L35,156L37,155L37,154L37,152L37,151L36,150L36,149L37,148L36,147L35,147L33,147L32,147L31,147L30,147L30,145L30,144L30,143L29,142L28,142L27,141L25,142L24,142L22,141L21,140L20,140L19,140L19,141L18,142L17,143L15,146L14,147L14,147L15,148L16,149L17,150L17,152L18,153L19,158L19,162L18,162L18,164L22,165L22,166L22,167L23,172L23,175L22,177L23,177Z " data-fips="MY02" data-hasc="MY.KH" data-name="Kedah" data-postal="KH" data-varname="Kedah Darul Aman"/><path d="M15,146L17,143L18,142L19,141L18,140L17,139L15,135L14,136L13,135L13,136L13,137L13,139L13,140L13,141L12,143L13,144L13,145L14,147Z " data-fips="MY08" data-hasc="MY.PL" data-name="Perlis" data-postal="PL" data-varname="Perlis Indra Kayangan"/><path d="M5,148L5,147L5,146L4,147L3,149L5,149Z M4,146L5,146L6,145L7,144L7,143L6,143L6,142L5,141L5,142L3,143L2,143L1,142L0,143L1,144L2,145L3,147Z " data-fips="MY08" data-hasc="MY.PL" data-name="Perlis" data-postal="PL" data-varname="Perlis Indra Kayangan"/><path d="M100,273L102,272L104,270L106,270L107,270L109,271L111,271L112,270L111,269L112,268L111,266L112,266L113,269L115,268L114,269L113,270L114,271L114,272L116,273L118,272L119,272L119,271L119,270L119,268L118,267L118,266L117,265L117,263L117,262L116,261L115,260L114,259L114,258L114,256L113,256L113,254L112,253L111,250L111,249L110,248L110,247L109,247L107,244L107,243L106,241L105,239L104,240L103,239L102,239L102,239L101,240L102,241L101,242L102,243L102,244L101,245L97,242L96,241L95,241L94,241L90,243L85,241L85,240L81,236L79,235L78,235L78,235L76,240L76,241L76,242L76,243L76,244L74,246L74,247L73,248L73,249L73,250L73,251L74,252L73,253L73,254L73,254L74,254L74,255L75,256L77,258L78,260L79,260L81,260L82,261L83,262L84,263L86,263L87,263L91,266L94,267L95,268L96,269L96,270L97,273L98,274L99,274Z M117,237L117,236L117,235L115,234L115,235L115,236L115,237L116,238Z " data-fips="MY01" data-hasc="MY.JH" data-name="Johor" data-postal="JH" data-varname="Johor Darul Takzim|Johore"/><path d="M52,190L53,189L54,188L54,187L54,186L55,185L56,186L56,187L57,188L58,188L59,188L59,186L59,185L60,186L61,186L63,185L63,186L64,187L65,188L66,188L67,188L68,188L69,188L70,187L71,186L72,187L73,187L74,187L75,187L76,187L75,186L76,185L77,185L77,184L76,183L74,182L73,181L73,180L73,179L73,177L74,176L73,176L71,175L71,174L71,173L71,171L71,170L71,169L70,167L70,165L70,164L70,163L70,161L71,160L73,158L74,157L73,156L70,150L68,149L65,148L64,148L62,147L62,148L62,150L61,152L58,154L58,155L58,157L57,158L56,159L55,160L54,160L53,159L52,161L52,162L52,163L52,164L52,165L52,166L53,166L54,166L54,167L54,168L54,170L53,170L52,171L51,170L50,170L49,172L48,172L48,173L47,174L47,175L47,176L47,177L46,178L46,179L46,181L46,182L46,183L45,183L45,184L45,185L44,186L43,187L44,188L44,189L46,190L47,190L48,189L49,190L50,190L51,190Z " data-fips="MY03" data-hasc="MY.KN" data-name="Kelantan" data-postal="KN" data-varname=""/><path d="M73,253L74,252L73,251L73,250L73,249L73,248L74,247L74,246L71,244L70,244L69,244L67,244L66,244L65,244L64,244L63,244L62,245L61,245L60,246L60,247L61,247L63,250L65,251L69,252L73,254Z " data-fips="MY04" data-hasc="MY.ME" data-name="Melaka" data-postal="ME" data-varname="Malacca|Malaka"/><path d="M61,245L62,245L63,244L64,244L65,244L66,244L67,244L69,244L70,244L71,244L76,244L76,243L76,242L76,241L76,240L78,235L78,235L77,233L72,230L71,229L70,227L68,227L65,226L63,226L62,226L61,225L60,225L60,224L59,224L58,224L58,224L59,225L59,226L59,227L59,228L59,229L58,230L58,231L57,232L57,234L56,234L55,234L54,235L54,236L54,237L54,239L53,240L53,241L54,241L55,243L56,244L56,245L57,246L58,245L60,246Z M52,234L53,233L53,232L53,231L52,232L52,233L52,234Z M53,229L54,229L54,228L54,227L54,226L54,225L53,225L52,225L51,225L50,227L51,228L51,229L52,230Z " data-fips="MY05" data-hasc="MY.NS" data-name="Negeri Sembilan" data-postal="NS" data-varname="Negeri Sembilan Darul Khusus|Negri Sembilan"/><path d="M102,244L102,243L101,242L102,241L101,240L102,239L102,239L102,239L99,236L98,234L97,232L97,231L97,225L97,224L97,221L97,220L98,217L97,216L96,215L95,214L94,212L95,210L95,209L95,208L96,206L97,205L96,203L96,201L97,200L96,200L94,200L94,201L94,202L94,203L94,204L94,205L94,207L94,208L93,207L93,206L92,205L91,204L90,204L89,203L89,203L87,202L86,202L85,201L84,202L83,201L84,200L84,199L84,198L84,197L85,196L86,195L86,195L86,193L85,193L84,193L83,193L82,192L82,191L82,190L83,189L82,188L81,187L80,187L79,187L77,186L76,185L75,186L76,187L75,187L74,187L73,187L72,187L71,186L70,187L69,188L68,188L67,188L66,188L65,188L64,187L63,186L63,185L61,186L60,186L59,185L59,186L59,188L58,188L57,188L56,187L56,186L55,185L54,186L54,187L54,188L53,189L52,190L51,190L50,190L49,190L48,189L47,190L46,190L44,189L44,190L44,191L44,192L44,193L44,194L45,195L46,196L46,198L46,199L47,199L47,200L48,202L49,202L49,203L49,204L49,205L49,207L50,208L50,210L50,211L51,212L52,212L53,213L54,213L55,214L55,215L55,217L54,218L54,219L55,220L54,221L56,223L58,224L59,224L60,224L60,225L61,225L62,226L63,226L65,226L68,227L70,227L71,229L72,230L77,233L78,235L79,235L81,236L85,240L85,241L90,243L94,241L95,241L96,241L97,242L101,245Z " data-fips="MY06" data-hasc="MY.PH" data-name="Pahang" data-postal="PH" data-varname="Pahang Darul Makmur"/><path d="M52,234L52,233L52,232L53,231L53,232L53,233L52,234Z M42,231L43,231L43,230L43,229L42,229L41,231Z M52,230L51,229L51,228L50,227L51,225L52,225L53,225L54,225L54,226L54,227L54,228L54,229L53,229Z M53,240L54,239L54,237L54,236L54,235L55,234L56,234L57,234L57,232L58,231L58,230L59,229L59,228L59,227L59,226L59,225L58,224L58,224L56,223L54,221L55,220L54,219L54,218L55,217L55,215L55,214L54,213L53,213L52,212L51,212L50,211L49,212L48,213L47,213L46,212L46,211L45,211L44,210L43,210L43,212L43,213L42,213L41,213L40,212L39,212L38,211L37,212L37,211L36,210L35,210L34,211L34,211L34,210L33,209L32,209L30,209L30,209L30,209L30,211L32,211L33,213L34,213L35,215L36,216L36,217L37,218L38,219L39,221L40,222L41,222L42,223L42,224L43,228L44,229L44,230L43,231L42,233L42,235L44,235L45,235L45,236L47,238L49,239L50,240L52,240L53,241Z " data-fips="MY12" data-hasc="MY.SL" data-name="Selangor" data-postal="SL" data-varname="Selangor Darul Ehsan"/><path d="M94,207L94,205L94,204L94,203L94,202L94,201L94,200L96,200L97,200L97,200L97,199L98,198L98,197L98,196L98,193L97,192L98,191L97,187L97,185L97,184L96,183L95,180L92,176L91,173L89,169L86,167L85,165L84,165L82,164L77,161L77,159L75,158L74,157L73,158L71,160L70,161L70,163L70,164L70,165L70,167L71,169L71,170L71,171L71,173L71,174L71,175L73,176L74,176L73,177L73,179L73,180L73,181L74,182L76,183L77,184L77,185L77,186L79,187L80,187L81,187L82,188L83,189L82,190L82,191L82,192L83,193L84,193L85,193L86,193L86,195L86,195L85,196L84,197L84,198L84,199L84,200L83,201L84,202L85,201L86,202L87,202L89,203L89,203L90,204L91,204L92,205L93,206L93,207L94,208Z " data-fips="MY13" data-hasc="MY.TE" data-name="Trengganu" data-postal="TE" data-varname="Terengganu Darul Iman"/><path d="M466,196L465,196L463,195L463,194L461,194L460,194L459,195L461,197Z M487,188L487,188L485,187L485,188L486,189Z M409,197L410,197L411,196L412,196L412,195L413,194L413,192L414,192L415,193L416,193L417,193L417,194L418,195L420,193L421,192L422,192L423,192L424,192L425,192L427,193L428,194L429,193L430,193L430,192L431,191L432,193L433,193L435,193L436,192L438,193L440,192L441,192L442,193L447,193L448,192L449,193L450,193L452,194L453,196L455,196L456,197L457,197L458,196L459,195L460,194L459,193L459,192L458,191L459,190L460,190L461,191L462,192L464,192L465,193L466,194L468,195L472,193L474,193L477,191L478,192L479,192L481,191L482,191L483,190L484,189L485,189L483,187L482,187L481,187L480,186L480,185L479,185L478,185L477,184L476,183L475,183L474,182L474,181L473,180L472,179L471,178L472,177L473,176L474,175L476,175L476,174L477,174L479,174L480,175L480,176L481,176L483,175L484,176L486,176L487,175L488,175L492,173L497,171L498,171L499,169L500,168L500,167L500,165L499,164L498,163L497,163L494,164L493,163L492,164L491,164L491,163L490,162L488,162L488,161L487,160L486,160L484,158L483,158L483,160L482,160L482,159L482,158L482,157L481,156L480,155L477,154L476,154L474,153L473,154L471,154L471,156L471,157L469,157L468,156L467,157L466,157L465,155L466,154L468,154L469,154L470,153L470,152L469,151L469,149L469,148L468,147L467,148L465,149L464,150L463,151L462,151L461,152L460,151L458,152L456,152L454,152L458,151L459,150L459,149L458,148L459,147L458,146L458,145L457,144L458,143L459,142L460,142L460,140L460,139L460,138L459,137L459,136L458,136L457,136L456,135L455,134L454,134L454,135L453,135L452,134L450,133L449,133L449,132L448,130L447,128L448,127L448,125L446,124L445,124L444,124L443,124L443,125L442,126L443,128L442,129L441,130L441,131L440,132L439,133L438,134L437,135L436,133L436,132L437,131L438,129L438,128L437,127L438,127L437,125L437,124L436,124L435,123L434,124L434,125L434,127L433,127L433,129L432,130L432,131L432,132L429,135L429,136L428,137L427,138L425,141L425,142L424,142L422,143L424,143L424,144L422,144L422,144L420,146L419,148L420,148L420,149L418,152L418,153L418,155L415,156L415,157L414,158L414,159L414,160L413,161L412,162L411,162L408,162L407,161L406,162L406,160L405,162L404,163L403,164L402,165L401,166L401,168L402,168L404,170L406,171L407,171L406,172L406,173L406,174L405,175L404,175L403,177L405,177L407,177L408,178L409,181L408,182L407,184L407,185L406,187L406,189L407,190L407,191L408,192L409,193L409,194L409,195L408,196L408,197L408,198Z M483,184L482,183L481,183L480,183L479,183L477,183L479,184L480,184L481,185L483,185Z M397,169L398,169L398,168L397,166L396,167L396,170Z M453,133L454,132L454,130L453,130L452,131L453,131L452,132L450,132L451,133L453,133Z M438,118L441,116L442,115L441,114L440,116L439,116L438,119Z M444,120L445,119L446,119L448,118L448,117L448,115L447,114L445,115L444,116L443,117L443,118L443,121Z " data-fips="MY15" data-hasc="MY.SA" data-name="Sabah" data-postal="SA" data-varname="North Borneo"/><path d="M281,284L282,284L283,283L284,283L285,283L286,282L287,281L289,280L290,280L296,279L300,280L301,280L303,280L303,281L304,282L305,281L307,280L308,280L310,281L312,280L314,278L316,277L318,277L319,277L320,273L321,271L320,270L321,269L325,267L327,267L327,266L328,266L336,266L337,266L338,265L340,266L341,266L343,266L342,268L342,268L341,270L342,269L344,269L345,270L346,270L348,270L349,271L350,271L352,273L353,273L355,272L356,272L357,274L359,274L363,271L364,269L365,269L369,268L371,268L372,269L373,269L377,267L378,267L380,269L381,269L382,268L382,267L382,265L383,264L384,263L385,262L385,260L385,259L385,258L386,257L387,257L389,256L389,255L389,254L389,253L388,253L387,252L387,251L387,250L387,249L388,247L390,247L391,246L391,245L393,244L393,244L394,243L396,241L397,241L398,240L397,239L396,238L395,238L394,238L395,236L394,235L395,235L395,234L395,232L395,231L396,230L398,228L399,227L400,228L401,228L403,227L405,226L405,225L405,223L405,222L406,219L406,217L408,217L408,216L407,215L407,214L406,212L406,210L407,209L407,206L406,205L406,204L407,203L408,202L408,201L408,198L408,197L408,196L409,195L409,194L409,193L408,192L407,191L407,190L406,189L406,187L407,185L407,184L408,182L409,181L408,178L407,177L405,177L403,177L402,178L401,178L400,179L399,178L398,178L397,178L396,179L396,179L396,180L397,181L399,186L399,187L399,188L399,189L399,190L400,192L401,192L401,194L400,194L399,193L398,193L396,193L394,192L394,189L394,188L393,186L393,185L392,183L392,180L392,178L391,179L391,180L390,181L389,181L388,182L387,183L386,183L386,184L386,185L386,186L386,189L387,191L388,192L387,194L387,195L387,196L387,197L386,199L384,201L383,202L381,201L380,200L379,199L378,198L377,196L376,196L375,196L374,195L374,194L374,193L373,191L373,190L372,189L371,189L370,188L368,188L366,188L366,190L366,191L366,192L366,193L366,194L365,196L360,203L354,208L353,209L352,210L352,211L351,212L350,213L349,214L349,215L349,216L347,218L345,220L344,221L344,222L343,223L341,225L336,226L335,227L331,228L324,230L316,232L313,232L307,234L304,235L302,237L302,238L301,240L301,241L302,242L304,242L302,243L301,243L302,244L303,245L303,246L302,245L301,245L300,246L299,246L298,245L297,244L296,245L296,247L295,248L296,249L295,250L296,251L298,251L299,252L300,251L299,252L298,252L297,252L297,253L296,254L295,256L294,258L294,259L294,261L293,262L295,263L295,264L296,264L297,265L296,264L295,264L294,263L293,263L292,263L291,265L291,266L292,267L292,269L294,270L295,270L296,270L298,270L299,270L300,271L301,272L300,272L299,272L298,271L296,271L294,271L293,270L292,270L290,268L289,267L287,266L286,266L285,268L285,268L284,269L283,269L284,268L284,267L283,266L282,266L280,265L279,266L279,265L277,265L278,263L279,262L277,262L276,263L275,263L274,262L274,261L274,260L273,261L273,263L272,264L272,263L271,263L269,263L266,263L265,263L263,263L263,262L262,261L261,261L260,260L258,259L257,259L257,258L256,257L256,255L256,254L256,253L256,255L255,256L254,257L253,258L253,259L254,260L254,261L256,261L256,264L256,265L257,266L259,269L260,269L261,270L262,271L263,271L263,271L264,273L265,274L266,274L267,275L268,276L269,276L270,277L271,278L272,281L273,281L275,282L276,283L277,284L278,285L279,285Z M301,245L301,245L301,243L300,241L300,237L300,235L298,236L298,237L299,241L299,242L299,243L299,244L300,245Z " data-fips="MY11" data-hasc="MY.SK" data-name="Sarawak" data-postal="SK" data-varname=""/></g></svg>