<?xml version="1.0" ?><!DOCTYPE svg  PUBLIC '-//W3C//DTD SVG 1.1//EN'  'http://www.w3.org/Graphics/SVG/1.1/DTD/svg11.dtd'><svg enable_background="new 0 0 500 401" height="401px" style="stroke-linejoin: round; stroke:#000; fill:#f6f3f0;" version="1.1" viewBox="0 0 500 401" width="500px" xmlns="http://www.w3.org/2000/svg" xmlns:xlink="http://www.w3.org/1999/xlink"><defs><style type="text/css"><![CDATA[path { fill-rule: evenodd; }
#context path { fill: #eee; stroke: #bbb; } ]]></style></defs><metadata><views><view h="401" padding="0" w="500"><proj id="laea" lat0="28.253" lon0="83.939"/><bbox h="50.0" w="88.83" x="957.77" y="973.05"/><llbbox lat0="-90" lat1="90" lon0="-180" lon1="180"/></view></views></metadata><g id="admin1"><path d="M151,250L159,248L160,249L160,248L160,247L161,245L163,244L165,244L168,244L170,243L169,242L166,240L166,239L168,237L171,235L172,234L174,234L176,234L178,233L180,232L180,231L180,230L179,229L178,228L179,226L179,224L180,221L182,220L183,219L182,217L181,215L181,214L182,213L185,212L186,211L185,209L185,208L183,207L178,202L177,200L175,198L175,197L174,195L174,192L175,191L176,190L177,190L178,190L179,189L179,188L178,187L179,186L180,185L183,184L186,183L189,180L189,179L187,176L178,171L176,171L172,171L169,171L168,171L166,171L163,168L163,167L163,166L162,164L160,162L158,160L154,159L152,162L151,164L150,166L149,167L143,172L138,175L136,178L135,179L134,180L133,180L132,181L131,184L129,185L127,185L125,184L122,183L120,186L119,187L119,189L120,191L120,192L120,194L119,195L117,196L117,197L117,198L118,200L118,203L122,205L123,206L124,208L125,210L122,212L121,214L120,216L120,217L123,219L124,221L125,221L126,222L129,224L130,226L130,227L130,229L129,230L128,231L126,231L124,231L122,234L122,234L123,235L124,236L125,237L128,238L135,244L140,246L143,250L146,251Z " data-fips="NP12" data-hasc="NP.MP" data-name="Rapti" data-postal="MP" data-varname=""/><path d="M263,245L264,244L264,243L266,244L267,245L268,244L270,245L269,244L269,242L270,241L272,240L276,237L278,236L279,236L280,237L281,238L282,239L282,239L283,240L284,241L285,241L287,241L287,240L287,237L287,236L286,234L286,233L286,232L288,230L289,229L292,223L293,222L294,221L295,220L297,220L298,219L299,217L300,214L300,212L301,211L304,209L306,206L306,205L308,205L308,203L308,201L308,197L309,196L310,195L310,194L310,193L311,192L312,191L312,186L309,185L307,184L306,183L304,184L304,185L303,186L301,187L299,188L298,190L297,191L295,190L292,190L290,190L289,189L287,187L286,187L283,186L282,182L281,182L280,181L278,179L275,179L274,178L273,178L272,177L270,177L269,177L268,176L267,172L265,171L264,169L263,168L259,167L256,166L255,165L255,165L253,165L250,167L247,167L246,168L244,170L243,171L241,171L239,171L238,171L237,172L235,174L232,177L230,178L229,179L229,180L232,184L232,185L229,187L229,189L229,190L228,192L227,193L226,195L226,196L225,199L224,200L223,201L224,203L225,206L226,207L227,209L228,210L228,212L226,215L226,216L225,217L223,219L223,221L221,225L221,226L220,227L216,228L215,229L213,230L211,231L209,230L208,230L207,231L208,232L209,233L209,234L211,233L213,233L214,233L215,233L217,234L220,234L221,234L226,234L227,234L228,234L230,236L231,237L233,236L234,236L237,237L238,236L241,235L242,234L244,235L246,237L247,238L250,238L255,238L258,239L259,239L259,241L260,243L261,244L262,245Z " data-fips="NP04" data-hasc="NP.PM" data-name="Gorkha" data-postal="PM" data-varname="Western|Pashchimanchal"/><path d="M113,237L115,234L117,233L120,233L122,234L124,231L126,231L128,231L129,230L130,229L130,227L130,226L129,224L126,222L125,221L124,221L123,219L120,217L120,216L121,214L122,212L125,210L124,208L123,206L122,205L118,203L118,200L117,198L117,197L117,196L119,195L120,194L120,192L120,191L119,189L119,187L120,186L122,183L125,184L127,185L129,185L131,184L132,181L133,180L134,180L135,179L136,178L138,175L143,172L149,167L150,166L151,164L152,162L154,159L151,158L149,157L148,158L147,159L146,158L145,158L144,157L144,156L145,155L145,153L145,152L142,151L136,151L130,153L129,154L128,156L127,157L126,158L125,159L124,159L123,158L122,157L121,157L115,159L110,159L109,158L108,158L107,157L106,157L103,156L98,154L96,154L94,153L94,152L94,150L93,148L89,151L87,152L84,155L84,157L84,158L86,160L89,165L91,167L92,169L92,170L93,172L94,173L92,174L91,174L90,175L91,173L90,173L90,170L88,167L87,165L86,164L85,164L79,164L77,163L76,163L72,163L70,163L67,160L65,159L64,158L62,158L61,158L60,159L59,161L61,164L64,166L66,166L67,166L68,167L69,168L71,169L70,166L71,167L72,168L73,169L73,171L74,173L76,178L76,179L76,181L75,182L74,183L65,193L63,194L62,195L61,198L61,199L67,200L68,201L70,203L71,207L72,209L75,213L76,215L75,215L75,216L76,216L76,218L78,217L79,215L81,215L82,215L83,216L84,217L85,219L85,220L86,221L87,222L92,225L93,226L94,227L95,228L98,229L100,229L101,230L103,233L106,235L108,236L110,237L111,237Z " data-fips="NP02" data-hasc="NP.MP" data-name="Banke" data-postal="MP" data-varname="Madhya Pashchimanchal"/><path d="M220,227L221,226L221,225L223,221L223,219L225,217L226,216L226,215L228,212L228,210L227,209L226,207L225,206L224,203L223,201L224,200L225,199L226,196L226,195L227,193L228,192L229,190L229,189L229,187L232,185L232,184L229,180L229,179L230,178L232,177L235,174L237,172L238,171L239,171L241,171L243,171L244,170L246,168L247,167L250,167L253,165L255,165L255,165L254,163L255,157L255,156L253,155L252,155L252,152L251,151L250,150L249,149L250,147L251,146L251,145L251,144L249,144L248,143L247,141L246,141L245,141L244,141L242,140L241,140L240,139L239,139L237,138L236,138L234,139L233,141L232,141L229,142L227,142L226,142L224,142L223,143L222,144L221,145L221,146L220,147L220,147L221,150L219,152L218,153L218,159L218,160L217,161L213,165L212,167L210,173L209,174L204,176L203,177L201,177L198,178L197,178L195,178L193,178L191,177L189,179L189,180L186,183L183,184L180,185L179,186L178,187L179,188L179,189L178,190L177,190L176,190L175,191L174,192L174,195L175,197L175,198L177,200L178,202L183,207L185,208L185,209L186,211L190,210L192,210L193,211L196,214L198,215L201,215L202,216L203,217L204,218L206,219L208,219L209,220L211,220L213,223L214,224L214,226L214,226L215,226L216,228Z " data-fips="NP03" data-hasc="NP.PM" data-name="Dhawalagiri" data-postal="PM" data-varname="Dhaulagiri"/><path d="M198,178L201,177L203,177L204,176L209,174L210,173L212,167L213,165L217,161L218,160L218,159L218,153L219,152L221,150L220,147L220,147L219,148L216,147L215,146L212,146L212,145L212,143L211,140L211,139L210,139L207,137L206,135L205,134L204,133L204,131L202,129L203,128L202,126L201,125L197,126L196,124L196,123L197,122L197,121L196,120L194,118L193,117L192,116L191,115L190,115L189,115L187,116L186,116L186,118L184,118L183,115L179,112L178,112L176,112L175,110L174,111L172,112L171,112L170,110L169,110L167,109L166,107L162,104L162,102L162,101L161,100L159,101L158,100L154,94L153,93L150,92L148,92L147,91L146,90L146,89L145,88L143,88L141,88L140,86L139,86L138,86L136,86L134,84L133,84L132,84L130,83L129,82L129,80L130,77L131,76L130,75L128,74L127,73L126,72L126,70L127,66L127,65L126,65L124,65L121,65L120,65L119,65L118,64L117,63L115,63L112,62L111,62L110,63L108,63L107,63L100,59L98,59L97,59L96,60L95,61L94,61L93,62L92,65L90,65L89,64L87,62L86,61L85,62L85,64L84,64L84,65L83,67L84,70L84,71L84,72L83,73L83,75L82,77L81,77L80,78L78,78L77,79L78,81L77,82L78,83L79,84L81,85L82,86L83,86L84,86L86,86L87,87L88,89L88,90L88,91L88,92L88,94L90,95L91,95L93,93L94,92L95,92L100,92L101,92L102,93L103,93L106,94L107,95L107,96L107,97L106,98L105,99L105,100L104,102L104,104L102,110L102,111L103,112L103,113L105,114L106,115L107,115L108,116L108,118L108,119L107,120L106,121L104,123L103,124L103,125L103,126L103,128L103,129L103,131L104,132L104,133L101,134L100,134L99,134L97,132L95,132L92,133L91,133L89,135L88,137L89,138L89,139L88,143L89,144L89,146L91,147L92,148L93,148L94,150L94,152L94,153L96,154L98,154L103,156L106,157L107,157L108,158L109,158L110,159L115,159L121,157L122,157L123,158L124,159L125,159L126,158L127,157L128,156L129,154L130,153L136,151L142,151L145,152L145,153L145,155L144,156L144,157L145,158L146,158L147,159L148,158L149,157L151,158L154,159L158,160L160,162L162,164L163,166L163,167L163,168L166,171L168,171L169,171L172,171L176,171L178,171L187,176L191,177L193,178L195,178L197,178Z " data-fips="NP06" data-hasc="NP.MP" data-name="Karnali" data-postal="MP" data-varname=""/><path d="M199,274L200,274L201,273L202,271L203,269L202,267L202,265L204,265L209,265L216,266L221,267L229,272L232,274L233,273L234,272L233,270L232,268L231,267L232,267L235,267L237,266L238,265L238,264L238,262L239,261L237,260L238,259L239,259L243,260L244,260L246,259L248,260L249,259L251,255L252,254L254,253L255,252L257,251L259,252L260,251L262,250L263,249L265,250L267,248L267,246L267,245L266,244L264,243L264,244L263,245L262,245L261,244L260,243L259,241L259,239L258,239L255,238L250,238L247,238L246,237L244,235L242,234L241,235L238,236L237,237L234,236L233,236L231,237L230,236L228,234L227,234L226,234L221,234L220,234L217,234L215,233L214,233L213,233L211,233L209,234L209,233L208,232L207,231L208,230L209,230L211,231L213,230L215,229L216,228L215,226L214,226L214,226L214,224L213,223L211,220L209,220L208,219L206,219L204,218L203,217L202,216L201,215L198,215L196,214L193,211L192,210L190,210L186,211L185,212L182,213L181,214L181,215L182,217L183,219L182,220L180,221L179,224L179,226L178,228L179,229L180,230L180,231L180,232L178,233L176,234L174,234L172,234L171,235L168,237L166,239L166,240L169,242L170,243L168,244L165,244L163,244L161,245L160,247L160,248L160,249L160,249L161,251L162,253L163,258L163,261L165,263L172,263L174,264L177,265L180,266L188,266L190,267L193,270L194,271L195,272L196,274L197,274Z " data-fips="NP08" data-hasc="NP.PM" data-name="Lumbini" data-postal="PM" data-varname=""/><path d="M28,185L27,181L27,179L28,179L29,178L30,178L30,178L30,172L30,170L29,168L28,167L28,166L29,160L28,157L29,155L30,153L30,152L31,151L31,149L32,148L32,147L33,146L35,145L36,144L39,143L40,143L41,142L42,140L42,139L43,137L43,136L44,135L45,134L46,131L46,131L49,130L51,129L53,126L50,123L48,121L47,121L45,120L44,119L45,118L46,116L46,114L46,113L45,111L46,110L48,109L49,109L51,109L52,108L54,107L56,107L57,107L58,107L61,105L63,105L63,104L64,103L64,101L63,97L63,95L62,93L61,92L61,91L62,89L64,87L65,86L66,85L65,82L65,81L64,79L63,76L62,75L62,74L61,73L56,75L55,74L55,73L54,72L53,73L52,74L51,75L52,77L51,79L47,81L46,82L44,86L42,87L39,89L38,89L36,89L35,90L34,91L34,94L32,96L29,100L28,101L24,101L22,103L21,105L21,106L22,108L23,110L23,112L23,113L22,115L21,117L19,118L19,119L18,120L17,122L16,122L15,124L13,125L12,126L13,127L14,130L14,132L15,133L16,134L16,135L16,137L15,141L13,140L12,140L12,141L13,144L13,145L12,146L11,147L10,147L9,146L7,147L5,150L5,153L5,155L4,156L4,157L3,158L2,158L1,159L0,161L0,162L0,163L0,166L1,167L3,167L5,169L7,171L8,172L9,173L11,173L12,174L13,175L14,176L15,177L17,180L18,181L19,182L20,182L21,181L22,181L24,182L26,185Z " data-fips="NP09" data-hasc="NP.SP" data-name="Mahakali" data-postal="SP" data-varname=""/><path d="M61,198L62,195L63,194L65,193L74,183L75,182L76,181L76,179L76,178L74,173L73,171L73,169L72,168L71,167L70,166L71,169L69,168L68,167L67,166L66,166L64,166L61,164L59,161L60,159L61,158L62,158L64,158L65,159L67,160L70,163L72,163L76,163L77,163L79,164L85,164L86,164L87,165L88,167L90,170L90,173L91,173L90,175L91,174L92,174L94,173L93,172L92,170L92,169L91,167L89,165L86,160L84,158L84,157L84,155L87,152L89,151L93,148L92,148L91,147L89,146L89,144L88,143L89,139L89,138L88,137L89,135L91,133L92,133L95,132L97,132L99,134L100,134L101,134L104,133L104,132L103,131L103,129L103,128L103,126L103,125L103,124L104,123L106,121L107,120L108,119L108,118L108,116L107,115L106,115L105,114L103,113L103,112L102,111L102,110L104,104L104,102L105,100L105,99L106,98L107,97L107,96L107,95L106,94L103,93L102,93L101,92L100,92L95,92L94,92L93,93L91,95L90,95L88,94L88,92L88,91L88,90L88,89L87,87L86,86L84,86L83,86L82,86L81,85L79,84L78,83L77,82L76,83L75,83L75,84L75,86L74,87L73,87L70,86L68,86L67,86L66,85L65,86L64,87L62,89L61,91L61,92L62,93L63,95L63,97L64,101L64,103L63,104L63,105L61,105L58,107L57,107L56,107L54,107L52,108L51,109L49,109L48,109L46,110L45,111L46,113L46,114L46,116L45,118L44,119L45,120L47,121L48,121L50,123L53,126L51,129L49,130L46,131L46,131L45,134L44,135L43,136L43,137L42,139L42,140L41,142L40,143L39,143L36,144L35,145L33,146L32,147L32,148L31,149L31,151L30,152L30,153L29,155L28,157L29,160L28,166L28,167L29,168L30,170L30,172L30,178L30,178L32,178L32,179L32,180L33,181L34,181L37,182L38,185L39,185L40,186L42,187L43,187L45,190L46,190L47,191L50,191L51,192L51,193L51,194L52,195L53,195L55,196L57,195L58,197L58,198L61,199Z " data-fips="NP14" data-hasc="NP.SP" data-name="Achham" data-postal="SP" data-varname="Sudur Pashchimanchal"/><path d="M347,272L347,271L348,269L349,268L352,268L354,266L353,263L353,261L354,260L355,259L355,258L358,254L360,251L361,250L362,249L363,247L364,246L364,245L366,245L366,243L366,242L366,240L366,238L367,235L366,235L363,235L362,235L361,233L361,231L361,230L361,229L361,227L358,226L358,225L357,222L357,221L356,219L356,217L355,216L353,215L351,214L349,213L348,212L346,210L345,209L345,205L344,204L344,205L343,206L342,207L339,210L338,209L337,208L336,208L334,208L333,208L332,208L329,207L327,207L326,209L325,209L324,209L323,208L321,208L319,209L317,209L316,209L315,208L313,207L312,207L311,207L309,207L308,207L308,205L306,205L306,206L304,209L301,211L300,212L300,214L299,217L298,219L297,220L295,220L294,221L293,222L292,223L289,229L288,230L286,232L286,233L286,234L287,236L287,237L287,240L287,241L285,241L284,241L283,240L282,239L282,239L281,240L281,241L282,243L283,244L283,245L283,246L284,246L289,247L290,247L291,250L295,250L296,250L297,249L299,248L300,248L302,248L307,247L309,248L312,249L315,250L316,251L317,253L318,259L318,260L319,261L319,262L320,264L321,265L325,267L327,267L329,267L331,268L333,269L334,270L336,272L345,272Z " data-fips="NP01" data-hasc="NP.MM" data-name="Bhaktapur" data-postal="MM" data-varname="Madhyamanchal"/><path d="M356,327L357,326L362,322L363,321L364,321L366,320L368,321L373,324L375,324L375,324L378,317L378,316L377,315L376,313L376,312L375,310L375,306L374,303L375,302L376,301L377,301L378,302L380,302L381,301L383,299L385,298L388,296L388,295L388,293L387,291L386,289L386,288L387,286L389,284L389,283L387,281L386,280L384,280L382,279L379,279L378,279L379,276L380,275L380,273L379,271L379,270L380,269L381,266L382,265L387,260L390,256L391,255L393,253L394,253L395,253L397,251L398,250L399,249L399,247L400,245L401,244L400,243L400,241L400,239L399,236L399,234L399,232L397,229L396,228L395,230L395,231L393,231L390,233L389,232L387,231L386,230L385,231L384,230L382,229L381,228L380,228L379,227L377,227L376,226L375,223L375,222L375,221L375,219L375,217L375,216L373,216L368,222L369,224L369,225L369,227L370,228L370,229L370,230L371,231L371,232L369,234L366,238L366,240L366,242L366,243L366,245L364,245L364,246L363,247L362,249L361,250L360,251L358,254L355,258L355,259L354,260L353,261L353,263L354,266L352,268L349,268L348,269L347,271L347,272L345,272L336,272L334,270L331,272L330,274L331,275L331,276L333,277L334,278L335,279L335,281L335,282L335,284L335,285L334,287L330,292L329,295L329,296L329,297L330,299L330,300L329,302L327,305L326,307L326,309L325,311L326,314L326,313L327,312L328,312L330,312L331,312L333,310L336,309L341,307L346,310L347,311L347,313L347,318L348,321L349,322L352,324L353,324L354,325L355,326L355,327Z " data-fips="NP05" data-hasc="NP.MM" data-name="Janakpur" data-postal="MM" data-varname=""/><path d="M324,315L326,314L325,311L326,309L326,307L327,305L329,302L330,300L330,299L329,297L329,296L329,295L330,292L334,287L335,285L335,284L335,282L335,281L335,279L334,278L333,277L331,276L331,275L330,274L331,272L334,270L333,269L331,268L329,267L327,267L325,267L321,265L320,264L319,262L319,261L318,260L318,259L317,253L316,251L315,250L312,249L309,248L307,247L302,248L300,248L299,248L297,249L296,250L295,250L291,250L290,247L289,247L284,246L283,246L283,245L283,244L282,243L281,241L281,240L282,239L281,238L280,237L279,236L278,236L276,237L272,240L270,241L269,242L269,244L270,245L268,244L267,245L267,246L267,248L265,250L263,249L262,250L260,251L259,252L257,251L255,252L254,253L252,254L251,255L249,259L248,260L246,259L244,260L243,260L239,259L238,259L237,260L239,261L238,262L238,264L238,265L237,266L237,267L240,267L242,267L243,266L246,262L248,262L249,262L249,263L250,264L252,265L253,267L255,267L256,268L257,269L258,270L259,271L277,275L279,276L280,278L281,281L282,283L282,286L282,289L281,290L280,292L280,293L281,295L289,297L290,297L292,297L293,298L294,299L297,300L299,300L300,302L300,303L300,304L302,305L303,305L305,306L305,308L306,308L310,307L311,306L313,307L314,310L314,312L316,314L322,315Z " data-fips="NP11" data-hasc="NP.MM" data-name="Narayani" data-postal="MM" data-varname=""/><path d="M411,335L413,334L415,335L417,334L418,333L420,332L420,330L422,329L424,329L424,328L426,326L426,325L426,323L426,322L427,320L428,314L429,313L430,313L434,308L436,307L437,306L437,305L438,303L438,302L438,300L437,300L435,300L427,302L425,302L424,290L423,290L422,287L422,286L422,282L422,281L422,278L422,276L423,276L424,275L424,274L424,273L421,268L421,266L421,264L422,263L423,262L424,258L425,251L426,247L426,245L425,242L425,241L426,239L426,238L425,237L424,234L424,229L424,229L422,230L420,230L419,229L418,228L417,226L416,225L411,225L409,225L409,224L409,221L408,220L407,219L406,219L404,219L401,221L401,220L400,219L399,219L397,220L397,221L397,222L397,223L397,224L396,226L396,227L396,228L397,229L399,232L399,234L399,236L400,239L400,241L400,243L401,244L400,245L399,247L399,249L398,250L397,251L395,253L394,253L393,253L391,255L390,256L387,260L382,265L381,266L380,269L379,270L379,271L380,273L380,275L379,276L378,279L379,279L382,279L384,280L386,280L387,281L389,283L389,284L387,286L386,288L386,289L387,291L388,293L388,295L388,296L385,298L383,299L381,301L380,302L378,302L377,301L376,301L375,302L374,303L375,306L375,310L376,312L376,313L377,315L378,316L378,317L375,324L375,324L376,324L377,325L378,325L380,324L382,323L383,323L384,323L385,325L386,325L388,325L390,326L393,328L395,328L397,329L398,329L398,330L399,331L400,332L405,333L409,336L410,336Z " data-fips="NP13" data-hasc="NP.PW" data-name="Sagarmatha" data-postal="PW" data-varname=""/><path d="M448,340L450,337L450,336L452,335L454,334L456,334L458,334L462,337L465,337L467,336L468,335L468,334L468,333L468,318L469,312L469,310L468,309L464,304L462,304L461,303L460,302L458,298L457,296L458,294L461,291L464,287L466,285L469,284L470,284L471,282L471,281L472,279L472,278L471,277L468,277L462,274L460,274L458,273L455,269L454,268L454,267L454,265L455,264L455,260L456,257L456,256L457,254L458,253L459,252L459,250L460,247L461,247L462,247L463,247L464,246L465,245L466,242L467,237L466,237L464,237L462,238L461,238L460,237L460,236L458,236L457,236L455,237L449,239L448,239L448,238L449,235L448,235L446,236L445,237L444,238L440,237L437,238L435,238L433,236L429,232L427,230L426,229L424,229L424,234L425,237L426,238L426,239L425,241L425,242L426,245L426,247L425,251L424,258L423,262L422,263L421,264L421,266L421,268L424,273L424,274L424,275L423,276L422,276L422,278L422,281L422,282L422,286L422,287L423,290L424,290L425,302L427,302L435,300L437,300L438,300L438,302L438,303L437,305L437,306L436,307L434,308L430,313L429,313L428,314L427,320L426,322L426,323L426,325L426,326L424,328L424,329L427,327L429,325L430,324L431,326L431,327L431,330L432,332L433,334L435,336L437,337L440,337L442,337L443,338L444,339L448,340Z " data-fips="NP07" data-hasc="NP.PW" data-name="Bhojpur" data-postal="PW" data-varname="Eastern|Purwanchal"/><path d="M491,337L493,335L495,331L495,328L495,327L495,325L496,322L499,317L500,313L500,312L500,311L500,309L499,307L499,304L499,303L498,301L497,299L496,298L495,296L494,294L492,292L492,291L491,291L489,290L488,288L487,286L487,285L488,283L488,278L489,276L490,273L490,270L489,268L489,266L490,264L490,263L490,262L489,260L489,259L491,255L494,249L496,243L496,241L497,239L497,236L497,234L496,234L494,233L493,233L490,232L488,231L486,232L485,232L483,231L478,231L476,231L476,232L475,234L474,235L472,237L470,238L469,238L467,237L466,242L465,245L464,246L463,247L462,247L461,247L460,247L459,250L459,252L458,253L457,254L456,256L456,257L455,260L455,264L454,265L454,267L454,268L455,269L458,273L460,274L462,274L468,277L471,277L472,278L472,279L471,281L471,282L470,284L469,284L466,285L464,287L461,291L458,294L457,296L458,298L460,302L461,303L462,304L464,304L468,309L469,310L469,312L468,318L468,333L468,334L468,335L469,334L470,334L471,334L472,335L473,335L474,335L475,334L476,332L477,332L478,333L479,333L481,331L482,331L484,333L485,335L486,335L488,337L489,337Z " data-fips="NP10" data-hasc="NP.PW" data-name="Mechi" data-postal="PW" data-varname=""/></g></svg>