<?xml version="1.0" ?><!DOCTYPE svg  PUBLIC '-//W3C//DTD SVG 1.1//EN'  'http://www.w3.org/Graphics/SVG/1.1/DTD/svg11.dtd'><svg enable_background="new 0 0 500 401" height="401px" style="stroke-linejoin: round; stroke:#000; fill:#f6f3f0;" version="1.1" viewBox="0 0 500 401" width="500px" xmlns="http://www.w3.org/2000/svg" xmlns:xlink="http://www.w3.org/1999/xlink"><defs><style type="text/css"><![CDATA[path { fill-rule: evenodd; }
#context path { fill: #eee; stroke: #bbb; } ]]></style></defs><metadata><views><view h="401" padding="0" w="500"><proj id="laea" lat0="11.118" lon0="122.466"/><bbox h="202.87" w="118.2" x="932.64" y="876.68"/><llbbox lat0="-90" lat1="90" lon0="-180" lon1="180"/></view></views></metadata><g id="admin1"><path d="M194,397L195,396L194,395L194,393L193,393L193,394L194,396L193,397L194,399Z M203,393L202,393L202,394L203,394Z M202,389L202,389L202,388L201,388L201,390Z M204,389L205,389L206,388L207,387L208,387L209,387L209,385L210,386L211,386L211,387L212,388L212,386L212,384L212,384L212,382L211,383L210,383L208,385L207,385L206,385L205,386L204,387L203,387L202,388L203,389Z " data-fips="RP72" data-hasc="PH.TT" data-name="Tawi-Tawi" data-postal="TT" data-varname=""/><path d="M171,341L170,341L169,341L169,342L170,342L171,342Z " data-fips="RP" data-hasc="" data-name="Sabah" data-postal="" data-varname="North Borneo"/><path d="M298,280L300,279L299,278L297,279L297,280L298,280Z M317,267L317,266L317,266L316,266L315,267L316,268Z M308,279L310,279L311,279L313,278L313,277L314,276L315,276L316,276L317,276L318,274L316,273L317,272L316,271L317,270L317,269L315,268L314,268L313,267L312,266L311,266L311,266L308,266L307,266L306,267L306,268L305,269L304,270L303,271L302,271L301,272L300,272L299,273L298,274L298,275L299,276L300,277L300,278L300,279L301,279L305,279Z " data-fips="RP11" data-hasc="PH.BO" data-name="Bohol" data-postal="BO" data-varname=""/><path d="M288,284L289,282L290,281L291,280L291,278L294,273L294,272L294,271L295,268L296,267L296,266L297,265L298,264L300,264L301,262L302,262L303,261L303,260L304,258L304,255L304,254L303,252L303,251L304,249L304,248L304,247L304,246L304,244L303,243L303,243L304,242L304,240L305,239L303,239L302,241L302,242L301,243L301,244L301,245L301,247L299,252L298,253L297,254L297,255L296,256L296,257L296,258L294,261L293,262L293,263L292,265L291,267L290,268L289,268L289,269L288,270L289,272L289,273L288,275L287,282L287,284Z M298,242L298,241L297,238L296,239L296,240L297,242Z " data-fips="RP21" data-hasc="PH.CB" data-name="Cebu" data-postal="CB" data-varname=""/><path d="M282,292L283,292L285,291L286,289L287,288L287,287L286,285L285,284L285,283L284,282L283,281L282,281L283,280L283,278L283,277L283,273L283,272L284,271L284,270L285,269L286,266L286,265L287,263L287,261L287,260L286,260L285,259L284,259L282,259L283,262L283,264L279,271L269,283L269,283L270,284L271,284L273,285L275,286L276,287L276,289L277,291L278,292L279,293L280,293Z " data-fips="RP46" data-hasc="PH.NR" data-name="Negros Oriental" data-postal="NR" data-varname=""/><path d="M295,291L296,291L296,290L295,290L296,289L296,288L295,287L294,287L293,288L293,288L291,289L291,290L293,291Z " data-fips="RP69" data-hasc="PH.SQ" data-name="Siquijor" data-postal="SQ" data-varname=""/><path d="M279,271L283,264L283,262L282,259L284,259L285,259L286,260L287,260L288,259L291,256L291,253L292,252L293,251L293,249L292,249L291,247L290,247L289,247L288,246L287,247L286,246L285,246L284,245L283,246L280,247L279,248L278,249L278,250L278,252L277,254L277,255L276,256L275,257L275,258L276,260L276,261L276,264L276,265L276,266L276,267L275,268L274,268L272,270L270,270L268,270L266,271L266,272L265,274L265,275L265,277L266,278L266,279L268,281L269,282L269,283Z " data-fips="RPH3" data-hasc="PH.ND" data-name="Negros Occidental" data-postal="ND" data-varname=""/><path d="M246,352L246,351L245,352L246,353Z M256,357L258,356L260,355L260,354L261,353L262,353L263,352L261,351L260,350L259,350L258,350L257,349L256,349L255,349L254,350L251,351L250,352L251,353L252,353L252,355L254,356L255,357Z " data-fips="RP22" data-hasc="PH.BS" data-name="Basilan" data-postal="BS" data-varname=""/><path d="M259,337L259,336L260,335L260,334L260,333L262,330L263,328L264,326L264,325L266,324L269,321L272,320L274,320L275,320L277,320L279,320L280,319L281,318L282,318L284,318L283,317L284,313L292,313L292,303L292,303L291,302L291,301L290,301L289,301L289,303L288,303L287,304L286,305L284,305L283,305L280,306L280,307L279,308L279,309L279,310L278,312L279,312L279,313L278,314L277,315L276,315L273,315L272,315L271,315L270,316L269,316L267,317L266,317L264,317L262,318L261,319L260,320L258,323L257,324L258,325L258,327L258,329L257,329L257,331L256,331L256,333L256,334L256,335L255,336L253,337L253,339L253,339L258,339Z " data-fips="RP65" data-hasc="PH.ZN" data-name="Zamboanga del Norte" data-postal="ZN" data-varname=""/><path d="M276,335L277,335L278,334L278,333L278,332L277,332L276,333L274,332L274,334L275,335Z M258,345L259,344L260,341L261,340L261,338L261,336L262,335L263,334L264,333L264,332L264,331L265,330L266,330L267,328L266,328L267,326L270,324L271,323L272,323L273,324L274,324L274,325L274,327L275,328L274,329L274,331L275,331L276,331L276,330L277,329L278,331L279,331L280,329L280,328L280,327L280,326L281,325L281,323L279,323L278,322L277,321L277,320L275,320L274,320L272,320L269,321L266,324L264,325L264,326L263,328L262,330L260,333L260,334L260,335L259,336L259,337L258,339L253,339L253,339L253,339L253,341L254,343L256,344L257,345Z " data-fips="RP65" data-hasc="PH.ZS" data-name="Zamboanga del Sur" data-postal="ZS" data-varname=""/><path d="M290,333L290,331L289,331L288,330L289,328L289,327L290,327L291,326L291,325L290,324L291,322L292,322L294,322L294,322L295,321L296,320L296,319L295,319L295,318L295,318L294,317L292,316L292,315L292,313L284,313L283,317L284,318L282,318L281,318L280,319L279,320L277,320L277,321L278,322L279,323L281,323L281,325L282,325L283,327L284,328L283,328L282,330L283,331L284,331L285,330L286,330L287,332L287,332L288,333L289,333Z " data-fips="RP66" data-hasc="PH.ZS" data-name="Zamboanga Del Sur" data-postal="ZS" data-varname=""/><path d="M295,318L296,317L298,317L300,314L300,312L300,309L300,308L299,306L298,305L297,304L296,303L294,302L293,303L293,304L292,303L292,313L292,315L292,316L294,317L295,318Z " data-fips="RP42" data-hasc="PH.MD" data-name="Misamis Occidental" data-postal="MD" data-varname=""/><path d="M228,378L227,377L226,378L227,379L228,379Z M227,375L228,374L227,374L226,375Z M236,372L236,371L235,370L234,371L235,372Z M239,369L241,368L241,367L240,367L238,367L237,366L236,366L234,365L233,364L232,364L231,365L231,365L229,366L228,367L228,368L228,369L229,369L230,369L231,368L232,369L233,369L235,368L237,369L237,370L238,370Z M253,366L251,366L250,365L250,366L252,367Z M221,360L221,359L221,357L220,358L220,360L219,361L220,361Z " data-fips="RP60" data-hasc="PH.SU" data-name="Sulu" data-postal="SU" data-varname=""/><path d="M261,237L264,236L264,235L264,234L266,234L268,234L268,233L269,232L269,231L267,231L266,230L265,229L264,228L263,228L262,227L261,226L257,225L256,224L256,223L254,223L253,224L253,225L252,226L252,227L252,226L253,226L255,225L256,225L257,226L258,227L259,227L259,228L259,229L259,230L258,231L258,233L258,234L259,235L260,236L259,238Z " data-fips="RP04" data-hasc="PH.AK" data-name="Aklan" data-postal="AK" data-varname=""/><path d="M256,258L255,258L255,257L256,254L257,253L258,252L259,251L260,251L260,249L261,248L262,246L263,245L263,244L262,243L261,242L260,241L260,240L260,239L259,238L260,236L259,235L258,234L258,233L258,231L259,230L259,229L259,228L259,227L258,227L257,226L256,225L255,225L253,226L252,226L252,227L252,227L254,227L256,228L257,228L258,229L257,234L257,237L256,238L256,239L256,240L256,244L256,245L255,248L254,250L254,251L255,252L255,254L254,256L254,257L253,258L255,259Z M244,225L243,224L242,225L243,225Z M241,221L241,220L240,218L240,219L240,220L241,221Z " data-fips="RP06" data-hasc="PH.AQ" data-name="Antique" data-postal="AQ" data-varname=""/><path d="M233,250L233,249L233,248L232,249L232,250Z " data-fips="RP06" data-hasc="PH.AQ" data-name="Antique" data-postal="AQ" data-varname=""/><path d="M262,241L263,240L266,241L267,241L268,241L268,240L270,240L271,240L273,240L275,241L276,241L276,240L277,239L278,238L278,237L279,236L280,235L281,234L281,233L280,233L279,234L277,234L276,235L276,234L278,233L276,232L275,231L274,231L273,231L272,232L271,232L270,233L269,232L268,233L268,234L266,234L264,234L264,235L264,236L261,237L259,238L260,239L260,240L260,241L261,242Z " data-fips="RP18" data-hasc="PH.CP" data-name="Capiz" data-postal="CP" data-varname=""/><path d="M256,258L258,255L259,255L260,254L261,254L262,254L264,253L266,253L268,253L269,252L270,251L271,251L272,250L273,250L274,249L274,248L274,246L274,245L276,245L277,245L278,245L279,243L280,243L280,241L281,241L282,241L282,240L282,238L282,237L283,236L283,235L282,234L283,233L282,231L281,233L281,234L280,235L279,236L278,237L278,238L277,239L276,240L276,241L275,241L273,240L271,240L270,240L268,240L268,241L267,241L266,241L263,240L262,241L261,242L262,243L263,244L263,245L262,246L261,248L260,249L260,251L259,251L258,252L257,253L256,254L255,257L255,258L256,258Z " data-fips="RP30" data-hasc="PH.II" data-name="Iloilo" data-postal="II" data-varname=""/><path d="M269,259L271,258L272,257L272,255L273,254L273,253L272,252L271,251L270,252L270,253L269,254L268,255L268,256L268,257L267,258L268,259L268,259Z " data-fips="RP30" data-hasc="PH.GU" data-name="Guimaras" data-postal="GU" data-varname=""/><path d="M211,220L212,220L213,221L214,221L215,220L216,220L216,219L215,218L214,217L214,216L213,216L213,218L212,218L211,217L210,216L209,215L207,214L206,214L206,213L205,213L205,215L205,216L205,217L206,216L206,218L206,219L207,220L209,221L210,221L211,221Z " data-fips="RP49" data-hasc="PH.MC" data-name="Occidental Mindoro" data-postal="MC" data-varname=""/><path d="M214,225L214,224L214,223L214,222L213,222L213,224L214,225Z " data-fips="RP49" data-hasc="PH.MC" data-name="Occidental Mindoro" data-postal="MC" data-varname=""/><path d="M208,229L209,227L209,226L209,225L209,224L208,223L207,222L206,221L205,222L204,222L205,224L205,225L206,226L207,227L208,226L207,227L206,228L207,229Z " data-fips="RP49" data-hasc="PH.MC" data-name="Occidental Mindoro" data-postal="MC" data-varname=""/><path d="M136,321L137,320L137,319L137,318L137,316L136,315L135,316L134,316L134,319L135,321L135,322Z M137,315L136,314L135,315L136,315Z M143,312L143,311L144,310L143,309L143,309L142,310L142,311L142,313Z M141,309L141,309L140,310L140,311Z M205,258L205,257L205,256L206,256L207,256L207,255L206,255L205,254L203,254L203,255L202,256L202,258L203,258Z M199,244L198,243L197,243L198,244L199,244Z M141,307L143,306L144,305L147,305L148,304L148,303L148,302L149,301L152,301L153,301L154,300L155,299L157,297L159,296L161,294L161,293L162,292L163,290L164,289L165,289L166,289L168,289L168,288L170,286L171,286L172,285L173,283L174,283L175,280L176,279L177,278L177,276L176,276L176,274L177,275L178,276L178,274L178,273L178,271L179,270L180,270L181,270L183,270L184,269L185,269L186,269L187,268L189,267L189,265L190,264L190,263L192,261L193,261L194,260L195,260L197,260L198,260L199,258L200,257L201,256L199,256L199,255L200,254L199,253L198,252L198,251L198,250L197,249L196,249L196,248L196,247L196,246L196,245L197,245L197,244L196,243L196,242L197,241L197,240L197,238L196,237L196,236L195,235L195,236L194,237L194,238L194,240L193,241L194,242L194,243L193,244L191,243L191,245L191,246L192,247L192,248L193,248L194,249L194,250L194,251L193,250L192,250L191,249L191,248L190,247L189,247L190,248L189,249L190,250L190,251L191,251L192,252L191,255L190,256L189,256L190,257L189,258L188,259L187,260L186,258L186,259L185,259L184,260L183,261L184,261L183,262L182,262L182,263L182,264L180,264L179,265L179,266L179,267L179,268L178,267L178,266L177,268L176,269L175,270L174,271L174,273L173,274L172,275L170,276L169,277L169,277L168,278L167,279L166,281L165,282L163,283L163,284L162,285L160,286L159,287L158,287L157,287L155,289L154,289L154,290L153,291L152,291L151,292L150,293L148,295L146,298L145,299L144,299L143,301L142,301L141,302L141,304L141,305L140,306L140,307L140,308Z M205,233L204,233L203,234L202,233L202,234L201,233L201,234L202,235L203,235L204,235Z " data-fips="RP49" data-hasc="PH.PL" data-name="Palawan" data-postal="PL" data-varname="Paragua"/><path d="M271,213L271,211L271,210L270,209L269,209L267,209L265,210L266,212L267,212L268,212L269,214L270,214Z M263,209L262,207L262,206L261,208L261,209Z M256,217L256,216L256,215L257,213L258,212L258,210L258,208L259,206L259,205L258,205L257,206L256,206L255,207L255,209L255,211L254,212L253,213L254,214L254,216L254,217L255,218L256,219Z " data-fips="RP54" data-hasc="PH.RO" data-name="Romblon" data-postal="RO" data-varname=""/><path d="M291,197L292,196L294,196L296,196L298,196L300,196L301,195L301,194L301,194L300,193L299,194L298,195L297,195L297,194L297,193L297,192L297,191L298,191L298,189L296,189L296,187L295,186L295,185L293,184L292,184L292,185L293,186L293,187L292,188L290,188L289,188L286,191L286,192L285,194L286,196L287,196L288,196L290,196L291,197Z M307,191L305,191L304,192L305,192L306,192L307,192Z M301,191L301,191L302,191L303,191Z M302,190L300,190L301,190L302,190Z M300,190L300,190L301,191L301,191Z M300,191L300,190L300,189L299,189L299,190L300,191Z " data-fips="RP05" data-hasc="PH.AL" data-name="Albay" data-postal="AL" data-varname=""/><path d="M281,175L281,174L280,173L280,172L280,170L279,170L278,169L277,167L275,166L274,166L273,165L272,165L271,164L271,165L270,165L269,165L268,165L266,164L265,165L264,165L264,166L264,167L263,168L263,169L263,170L263,171L264,170L266,169L267,169L274,173L277,173L278,174L279,176L280,177Z " data-fips="RP15" data-hasc="PH.CN" data-name="Camarines Norte" data-postal="CN" data-varname=""/><path d="M289,188L290,188L292,188L293,187L293,186L292,185L292,184L293,184L291,183L291,182L292,180L293,179L294,180L295,179L296,180L298,180L299,179L301,179L302,179L301,178L301,178L300,177L298,176L297,176L296,175L296,174L295,175L293,175L292,174L290,174L289,173L289,175L289,173L288,172L287,171L287,170L286,171L285,171L285,172L284,173L286,174L287,173L286,174L285,175L286,177L286,178L285,179L284,179L282,179L281,179L280,178L280,177L279,176L278,174L277,173L274,173L273,173L270,173L268,174L269,175L270,175L271,177L272,177L273,178L274,179L276,180L275,181L276,182L278,184L279,184L280,185L282,186L283,187L283,188L284,189L285,190L286,191Z " data-fips="RP16" data-hasc="PH.CS" data-name="Camarines Sur" data-postal="CS" data-varname=""/><path d="M308,182L309,182L310,183L311,181L312,180L312,179L312,178L312,177L312,176L311,174L309,174L309,174L309,172L308,171L307,170L305,171L306,172L305,173L306,174L305,175L305,177L305,179L304,180L303,181L304,182L305,183L307,183Z " data-fips="RP19" data-hasc="PH.CT" data-name="Catanduanes" data-postal="CT" data-varname=""/><path d="M304,226L304,224L303,223L303,222L303,221L304,221L302,220L302,219L300,216L299,216L298,215L297,216L295,213L294,212L293,212L293,211L292,210L290,209L289,209L288,209L288,210L287,210L287,209L287,208L287,207L285,207L284,207L285,210L285,211L285,213L285,214L285,215L286,215L285,216L285,217L284,218L284,220L283,221L283,222L283,223L285,221L287,219L288,219L288,218L289,217L290,216L291,216L292,217L293,218L294,219L295,220L296,221L297,222L296,222L297,223L299,223L300,224L301,224L302,225L303,226L304,227Z M297,211L297,210L297,208L296,207L295,206L294,205L293,205L293,206L296,211L298,212Z M287,203L286,201L286,200L285,199L284,199L283,199L282,198L282,197L281,196L281,195L280,194L279,194L278,194L278,196L280,197L281,198L281,199L283,200L285,201L285,201L287,204L288,204Z " data-fips="RP39" data-hasc="PH.MB" data-name="Masbate" data-postal="MB" data-varname=""/><path d="M304,208L305,207L305,206L305,205L306,205L306,201L306,200L305,199L306,197L307,196L307,195L305,195L304,196L303,195L302,194L301,194L301,195L300,196L298,196L296,196L294,196L292,196L291,197L291,197L291,198L292,199L293,199L295,199L296,199L295,200L296,199L297,200L298,200L299,199L300,198L300,197L302,198L303,198L303,199L302,200L301,200L300,201L299,200L298,201L299,202L299,204L300,205L301,206L302,207L303,208Z " data-fips="RP58" data-hasc="PH.SR" data-name="Sorsogon" data-postal="SR" data-varname=""/><path d="M227,95L228,95L229,95L230,95L231,93L232,90L232,89L233,87L235,87L235,85L235,84L235,83L235,80L234,80L233,79L232,79L232,77L231,76L230,77L228,77L226,78L225,79L223,80L222,81L221,83L221,84L220,85L220,88L221,87L223,88L222,89L221,91L222,92L223,92L224,93L225,94L225,95L226,96Z " data-fips="RP01" data-hasc="PH.AB" data-name="Abra" data-postal="AB" data-varname=""/><path d="M253,20L253,20L252,19L252,21Z M255,18L255,17L256,15L255,16L254,18L255,19Z M253,9L253,8L252,7L252,8L251,9L252,10Z " data-fips="RP07" data-hasc="PH.BN" data-name="Batanes" data-postal="BN" data-varname=""/><path d="M252,87L253,87L260,87L259,85L259,83L259,82L259,80L260,76L260,75L259,74L260,73L260,72L262,71L263,70L263,69L263,67L262,66L262,66L261,65L261,63L260,63L259,63L258,66L257,66L256,68L255,69L253,69L252,69L248,67L247,68L246,66L245,66L244,65L242,64L241,63L238,62L236,60L236,60L235,60L233,60L232,61L232,62L231,65L232,64L233,63L234,63L235,63L235,64L238,65L239,66L243,68L244,70L244,71L243,72L243,73L241,77L240,78L240,79L240,80L242,81L242,82L243,83L244,85L245,86L246,87L249,87Z M242,55L243,54L242,54L241,54L239,55L240,55Z M253,55L254,54L255,52L255,51L254,51L253,51L253,53L253,54L252,55L253,55Z M238,48L237,48L237,49L237,50L238,50Z M245,44L245,43L244,42L243,42L242,42L241,42L241,43L242,44L243,45L244,45Z M255,39L256,38L255,37L254,38L253,39L254,39Z " data-fips="RP14" data-hasc="PH.CG" data-name="Cagayan" data-postal="CG" data-varname=""/><path d="M238,95L240,94L241,93L242,93L243,93L245,93L246,92L246,90L248,89L246,87L245,86L244,85L243,83L242,82L242,81L240,80L240,79L240,78L241,77L243,73L243,72L244,71L244,70L243,68L239,66L238,65L235,64L235,63L234,63L233,63L232,64L231,65L231,65L231,66L231,67L231,68L230,69L231,70L232,71L231,72L231,74L231,75L231,76L232,77L232,79L233,79L234,80L235,80L235,83L235,84L235,85L235,87L233,87L232,89L232,90L231,93L234,95L237,96Z " data-fips="RP32" data-hasc="PH.AP" data-name="Apayao" data-postal="AP" data-varname=""/><path d="M223,80L225,79L226,78L228,77L230,77L231,76L231,75L231,74L231,72L232,71L231,70L230,69L231,68L231,67L231,66L231,65L231,65L232,62L232,61L231,62L230,61L229,60L228,60L227,61L226,62L225,63L223,63L222,64L223,65L223,67L222,68L221,70L220,73L220,74L220,76L220,77L219,78L220,78L221,78L222,80L221,81L222,81Z " data-fips="RP28" data-hasc="PH.IN" data-name="Ilocos Norte" data-postal="IN" data-varname=""/><path d="M223,107L224,103L225,102L227,102L227,100L227,98L228,96L229,95L228,95L227,95L226,96L225,95L225,94L224,93L223,92L222,92L221,91L222,89L223,88L221,87L220,88L220,85L221,84L221,83L221,81L222,80L221,78L220,78L219,78L219,80L218,81L219,82L218,83L217,83L217,87L218,88L219,89L219,91L218,92L219,93L218,94L219,95L219,99L219,101L218,102L219,102L220,102L221,102L221,103L221,104L222,105L222,106L222,107Z " data-fips="RP29" data-hasc="PH.IS" data-name="Ilocos Sur" data-postal="IS" data-varname=""/><path d="M241,146L241,145L241,144L242,143L242,143L242,143L241,142L241,141L241,140L242,139L243,137L244,135L245,134L245,133L246,132L247,130L246,130L245,129L245,128L245,127L246,125L247,125L248,124L250,122L251,122L252,121L253,121L254,121L256,120L257,119L257,118L259,118L258,119L257,120L256,122L256,123L257,122L257,121L258,120L259,119L260,118L260,118L260,116L260,114L260,114L261,113L261,112L252,117L251,119L242,126L240,136L240,138L240,140L239,145L239,146L240,147L240,148Z " data-fips="RPG8" data-hasc="PH.AU" data-name="Aurora" data-postal="AU" data-varname=""/><path d="M261,112L261,111L262,110L263,108L264,107L265,105L266,103L266,102L267,99L267,98L268,97L267,97L266,97L265,96L265,94L266,93L264,92L264,91L263,91L261,91L261,90L261,89L260,88L260,87L253,87L252,87L249,87L248,89L246,90L246,92L245,93L245,98L246,99L245,102L244,104L243,104L242,104L241,105L240,105L241,107L243,109L245,109L250,114Z " data-fips="RP31" data-hasc="PH.IB" data-name="Isabela" data-postal="IB" data-varname=""/><path d="M238,108L239,108L240,107L240,105L241,105L242,104L243,104L244,104L245,102L246,99L245,98L244,98L242,98L241,98L239,99L238,99L237,100L234,99L233,100L232,100L232,101L231,103L230,104L229,105L230,106L230,108L230,109Z " data-fips="RP32" data-hasc="PH.IF" data-name="Ifugao" data-postal="IF" data-varname=""/><path d="M231,103L232,101L232,100L233,100L234,99L237,100L238,99L239,99L241,98L242,98L244,98L243,93L242,93L241,93L240,94L238,95L237,96L234,95L230,95L229,95L228,96L227,98L227,100L227,102L228,103L230,104Z " data-fips="RP44" data-hasc="PH.MT" data-name="Mountain Province" data-postal="MT" data-varname=""/><path d="M242,126L240,122L239,121L239,118L242,115L241,114L240,113L241,107L240,105L240,107L239,108L238,108L230,109L230,112L230,114L230,115L229,116L227,116L226,118L226,119L229,120L229,122L231,121L232,121L234,121L236,122L236,124L237,125L237,126L238,128Z " data-fips="RP48" data-hasc="PH.NV" data-name="Nueva Vizcaya" data-postal="NV" data-varname=""/><path d="M251,119L252,117L250,114L245,109L243,109L240,113L241,114L242,115L239,118L239,121L240,122L242,126Z " data-fips="RP68" data-hasc="PH.QR" data-name="Quirino" data-postal="QR" data-varname=""/><path d="M220,162L222,162L222,160L222,159L222,156L221,155L221,152L221,152L220,151L219,150L219,150L218,151L217,152L216,152L215,153L214,153L214,154L214,155L216,157L217,157L217,159L217,160L218,161L219,162Z " data-fips="RP07" data-hasc="PH.BA" data-name="Bataan" data-postal="BA" data-varname=""/><path d="M218,144L220,143L221,142L223,142L226,142L227,141L226,140L226,139L226,137L226,135L226,134L226,133L225,133L224,132L224,131L222,128L222,130L220,131L219,131L218,130L217,131L216,133L212,136L212,138L213,140L216,141L217,143L217,144Z " data-fips="RP63" data-hasc="PH.TR" data-name="Tarlac" data-postal="TR" data-varname=""/><path d="M229,144L230,143L235,142L236,142L238,144L240,140L240,138L240,136L238,128L237,126L237,125L236,124L236,122L234,121L232,121L231,121L229,122L230,123L230,125L230,126L229,127L229,128L228,129L227,128L226,128L224,131L224,132L225,133L226,133L226,134L226,135L226,137L226,139L226,140L227,141L227,142L228,143L228,144Z " data-fips="RP47" data-hasc="PH.NE" data-name="Nueva Ecija" data-postal="NE" data-varname=""/><path d="M224,153L225,151L226,150L228,149L229,148L230,148L231,145L230,144L230,143L229,144L228,144L228,143L227,142L226,142L223,142L221,142L220,143L218,144L217,144L217,144L217,145L218,146L218,147L219,149L219,150L220,151L221,152L221,152L222,152L223,151L223,153L223,152L223,153L224,154Z " data-fips="RP50" data-hasc="PH.PM" data-name="Pampanga" data-postal="PM" data-varname=""/><path d="M226,119L226,118L227,116L229,116L230,115L230,114L230,112L230,109L230,108L230,106L229,105L228,103L227,102L225,102L224,103L223,107L221,110L220,111L220,113L220,116L220,117L221,118L222,118L224,119L225,119Z " data-fips="RP10" data-hasc="PH.BG" data-name="Benguet" data-postal="BG" data-varname=""/><path d="M213,153L214,151L215,152L215,153L216,152L217,152L218,151L219,150L219,150L219,149L218,147L218,146L217,145L217,144L217,144L217,143L216,141L213,140L212,138L212,136L214,132L213,130L212,130L212,128L211,128L209,127L207,129L206,129L205,130L206,131L207,132L206,133L207,134L207,135L208,136L206,137L206,138L207,139L208,141L209,142L209,143L210,148L210,151L210,153L211,154L212,154Z " data-fips="RP64" data-hasc="PH.ZM" data-name="Zambales" data-postal="ZM" data-varname=""/><path d="M221,118L220,117L220,116L220,113L220,111L221,110L222,107L222,106L222,105L221,104L221,103L221,102L220,102L219,102L218,102L217,103L216,104L216,105L216,106L216,107L216,109L215,109L216,111L216,113L217,117L218,118L218,119L218,119L220,119Z " data-fips="RP36" data-hasc="PH.LU" data-name="La Union" data-postal="LU" data-varname=""/><path d="M217,131L218,130L219,131L220,131L222,130L222,128L226,128L227,128L228,129L229,128L229,127L230,126L230,125L230,123L229,122L229,120L226,119L225,119L224,119L222,118L221,118L220,119L218,119L218,119L218,119L218,120L217,121L217,123L215,123L214,123L213,123L212,123L211,122L211,120L210,119L209,119L208,118L206,118L207,115L205,115L204,115L204,116L204,117L203,119L203,120L203,121L203,122L203,125L204,126L205,125L206,126L206,127L206,129L207,129L209,127L211,128L212,128L212,130L213,130L214,132L216,133Z M209,117L209,116L208,116L207,117L208,117L209,118Z " data-fips="RP51" data-hasc="PH.PN" data-name="Pangasinan" data-postal="PN" data-varname=""/><path d="M230,170L231,170L233,169L232,168L233,166L233,165L232,165L232,163L231,162L231,161L230,161L229,161L227,163L226,164L225,165L224,166L223,166L222,167L223,167L224,167L224,168L225,169L226,169L227,170L229,171Z " data-fips="RP07" data-hasc="PH.CV" data-name="Cavite" data-postal="CV" data-varname=""/><path d="M239,182L241,181L242,181L242,179L242,177L242,177L241,176L240,175L239,174L238,173L238,173L237,172L236,169L235,169L233,169L231,170L230,170L229,171L227,170L226,169L225,169L224,168L224,167L223,167L222,167L222,167L222,168L222,169L223,171L223,173L223,174L223,176L224,177L224,176L225,176L225,175L225,174L227,174L229,175L230,176L230,177L230,178L229,179L229,180L232,178L233,178L233,180L233,182L234,181L235,181L236,182L238,182Z " data-fips="RP09" data-hasc="PH.BT" data-name="Batangas" data-postal="BT" data-varname=""/><path d="M232,155L233,154L236,153L238,152L239,151L240,151L240,147L239,146L239,145L238,144L236,142L235,142L230,143L230,144L231,145L230,148L229,148L228,149L226,150L225,151L224,153L224,154L224,154L226,154L228,154L230,155L230,156L230,156L232,156Z " data-fips="RP13" data-hasc="PH.BU" data-name="Bulacan" data-postal="BU" data-varname=""/><path d="M240,173L242,171L244,171L244,170L245,169L245,168L246,166L246,165L244,161L243,160L242,159L241,160L240,161L241,163L241,164L240,165L239,165L239,164L240,163L240,161L239,161L238,160L237,161L237,163L238,164L237,165L237,162L236,160L235,160L235,160L235,163L232,165L233,165L233,166L232,168L233,169L235,169L236,169L237,172L238,173L238,173Z " data-fips="RP33" data-hasc="PH.LG" data-name="Laguna" data-postal="LG" data-varname=""/><path d="M240,165L241,164L241,163L240,161L241,160L242,159L241,155L240,154L240,153L240,151L239,151L238,152L236,153L234,158L235,160L235,160L236,160L237,162L237,165L238,164L237,163L237,161L238,160L239,161L240,161L240,163L239,164L239,165Z " data-fips="RP53" data-hasc="PH.RI" data-name="Rizal" data-postal="RI" data-varname=""/><path d="M235,160L234,158L233,154L232,155L232,156L230,156L230,156L230,157L231,158L231,160L231,161L231,162L232,163L235,163Z " data-fips="RPD9" data-hasc="PH.MM" data-name="Metropolitan Manila" data-postal="MM" data-varname=""/><path d="M256,191L257,190L258,187L258,186L258,185L256,184L256,184L254,184L254,184L253,183L252,183L252,184L251,186L251,187L251,189L252,190L253,190L254,191L255,192Z " data-fips="RP38" data-hasc="PH.MQ" data-name="Marinduque" data-postal="MQ" data-varname=""/><path d="M235,217L234,216L234,215L233,214L233,216L233,217L234,217Z M237,195L236,195L226,191L229,187L229,186L229,185L229,185L227,185L226,185L225,185L223,185L222,185L221,184L219,184L218,184L216,184L216,185L215,186L216,187L217,187L218,186L219,187L219,189L220,190L220,191L221,191L222,192L224,193L224,194L226,197L226,199L226,201L226,202L227,203L228,203L228,204L229,206L230,207L230,208L230,209L231,211L232,212L233,213L234,213L235,214L234,213L234,214L235,215L236,215L237,216Z M215,178L213,177L212,176L211,176L210,176L210,177L211,178L212,179L213,179L214,179Z " data-fips="RP40" data-hasc="PH.MC" data-name="Occidental Mindoro" data-postal="MC" data-varname=""/><path d="M239,214L240,213L241,213L241,212L242,212L241,210L242,209L242,208L243,208L244,206L244,205L244,204L243,202L243,200L243,199L243,197L243,196L244,195L244,194L244,193L242,193L242,193L242,191L240,191L239,189L237,187L236,186L235,187L234,188L234,187L232,187L231,185L231,184L230,184L229,185L229,186L229,187L226,191L236,195L237,195L237,216Z " data-fips="RP41" data-hasc="PH.MR" data-name="Oriental Mindoro" data-postal="MR" data-varname=""/><path d="M271,192L272,191L271,190L271,188L271,187L270,186L269,185L269,183L270,183L268,182L267,182L267,180L267,179L267,178L267,177L265,175L265,174L266,174L268,174L270,173L273,173L274,173L267,169L266,169L264,170L263,171L263,170L262,170L262,169L261,168L261,167L261,168L260,168L259,169L260,170L261,171L263,172L262,173L260,173L260,174L261,175L257,174L253,172L252,171L250,170L249,168L250,167L249,166L249,164L247,162L247,161L246,157L247,156L248,155L249,155L247,153L246,151L245,150L245,149L244,147L243,144L242,143L242,143L241,144L241,145L241,146L240,148L240,147L240,151L240,153L240,154L241,155L243,160L244,161L246,165L246,166L245,168L245,169L244,170L244,171L242,171L240,173L238,173L239,174L240,175L241,176L242,177L242,177L243,176L245,176L246,175L247,175L248,174L249,173L250,174L251,175L252,175L253,176L254,176L255,177L257,177L258,179L260,181L260,182L261,182L263,183L264,184L265,185L267,188L267,190L267,191L270,193Z M260,172L259,171L258,170L254,167L253,168L254,169L255,169L256,170L258,171L258,172L259,172Z M265,156L265,155L264,155L263,156L264,156Z M261,153L260,153L260,152L259,152L258,152L258,153L259,153L261,154Z M255,156L256,155L256,153L255,152L255,151L256,150L255,149L256,148L256,148L255,147L254,147L252,148L251,148L252,150L253,151L253,152L253,153L254,154L253,156L253,157L254,157Z " data-fips="RPH2" data-hasc="PH.QZ" data-name="Quezon" data-postal="QZ" data-varname=""/><path d="M303,324L305,322L305,320L306,320L307,318L308,317L310,317L310,315L310,314L311,313L312,313L313,314L315,315L316,316L317,317L318,317L317,316L317,315L317,314L316,312L316,311L312,309L311,309L309,310L309,311L310,312L309,313L308,313L307,313L304,314L302,314L301,315L300,316L297,318L296,319L296,320L295,321L294,322L294,322L295,323L297,323L298,325L299,325L300,325L300,324L303,325Z " data-fips="RP34" data-hasc="PH.LN" data-name="Lanao del Norte" data-postal="LN" data-varname=""/><path d="M312,327L314,326L316,326L317,327L318,327L319,327L321,327L322,327L321,326L321,325L320,323L318,322L318,321L318,320L319,320L319,319L317,317L316,316L315,315L313,314L312,313L311,313L310,314L310,315L310,317L308,317L307,318L306,320L305,320L305,322L303,324L303,325L300,324L300,325L300,325L301,325L302,326L304,327L305,328L305,329L307,332Z " data-fips="RP35" data-hasc="PH.LS" data-name="Lanao del Sur" data-postal="LS" data-varname=""/><path d="M315,331L314,329L314,326L312,327L307,332L308,332L309,333L309,333L308,335L308,336L309,337L310,337L311,337Z " data-fips="RP56" data-hasc="PH.SF" data-name="Lanao Del Sur" data-postal="SF" data-varname="Shariff Kabunsuan"/><path d="M324,350L323,348L323,343L322,343L322,341L322,340L322,340L321,337L320,338L320,340L319,340L320,341L320,343L319,343L318,343L317,342L317,341L316,341L315,341L314,340L315,338L315,337L313,337L313,338L311,338L311,339L310,339L309,338L308,338L307,338L306,338L305,339L304,340L303,342L303,343L302,347L303,348L304,347L304,348L304,348L309,348L310,349L315,349L316,349L317,348L317,347L317,346L319,346L320,346L320,348L321,348L322,350L323,351L325,351Z " data-fips="RP56" data-hasc="PH.MG" data-name="Maguindanao" data-postal="MG" data-varname=""/><path d="M311,338L310,337L309,337L308,336L308,336L307,338L308,338L309,338L310,339L311,339Z " data-fips="RP56" data-hasc="PH.SF" data-name="Shariff Kabunsuan" data-postal="SF" data-varname="Maguindanao"/><path d="M331,347L331,346L334,343L334,342L335,341L334,339L333,338L333,337L333,336L333,335L333,333L333,332L334,329L334,328L333,328L332,328L331,330L330,330L329,331L328,332L327,333L326,332L325,332L324,331L324,330L323,329L321,327L319,327L318,327L317,327L316,326L314,326L314,329L315,331L311,337L311,338L313,338L313,337L315,337L315,338L314,340L315,341L316,341L317,341L317,342L318,343L319,343L320,343L320,341L319,340L320,340L320,338L321,337L322,340L322,340L322,341L322,343L323,343L323,348Z " data-fips="RP57" data-hasc="PH.NC" data-name="North Cotabato" data-postal="NC" data-varname=""/><path d="M313,363L311,361L310,360L309,360L319,359L319,358L318,357L319,356L318,355L318,354L318,352L319,351L319,352L320,352L321,351L322,352L324,354L326,353L328,353L332,353L332,350L331,349L331,347L324,350L325,351L323,351L322,350L321,348L320,348L320,346L319,346L317,346L317,347L317,348L316,349L315,349L310,349L309,348L304,348L304,348L304,349L305,351L304,354L304,355L305,357L306,358L308,360L308,361L309,362L312,363Z " data-fips="RP71" data-hasc="PH.SK" data-name="Sultan Kudarat" data-postal="SK" data-varname=""/><path d="M317,233L318,232L317,231L316,230L316,229L314,228L313,228L313,228L311,229L312,230L313,232L314,233L315,234Z " data-fips="RP37" data-hasc="PH.BI" data-name="Biliran" data-postal="BI" data-varname=""/><path d="M346,251L345,251L344,251L344,249L343,250L343,251L345,252L346,252Z M345,243L344,241L343,240L341,239L341,240L340,240L340,239L342,237L342,236L341,235L340,235L339,234L339,233L338,232L338,231L338,230L338,229L338,227L337,226L338,226L337,225L337,223L337,222L338,220L339,219L338,218L337,217L338,217L339,216L338,215L337,214L335,214L335,213L334,213L333,214L332,213L332,212L331,212L330,213L330,215L330,216L329,218L329,219L329,221L332,221L332,223L333,232L335,235L335,237L333,239L333,240L332,243L333,243L333,242L334,242L335,242L336,243L337,243L338,242L339,243L340,241L341,242L343,242L343,243L344,244L345,244Z " data-fips="RP23" data-hasc="PH.ES" data-name="Eastern Samar" data-postal="ES" data-varname=""/><path d="M312,254L312,254L312,252L310,253L310,254L310,255Z M315,254L315,253L313,252L313,254L314,254Z M322,264L323,264L324,263L325,262L324,258L325,257L326,257L328,257L329,256L330,255L331,254L330,253L329,252L327,251L327,250L327,249L328,246L328,245L328,242L327,241L328,240L327,239L326,238L326,237L326,236L325,235L324,235L323,235L322,236L320,237L319,238L318,238L316,237L315,235L314,235L314,236L313,234L313,234L311,233L311,232L310,232L310,234L311,235L312,236L311,237L312,238L312,240L313,242L312,243L312,244L313,245L312,246L313,247L314,248L315,248L316,247L316,246L316,245L318,245L318,246L319,247L320,247L320,249L321,250L322,252L322,253L321,255L321,257L321,257L320,259L321,260L322,262L322,263L321,265Z " data-fips="RP37" data-hasc="PH.LE" data-name="Leyte" data-postal="LE" data-varname=""/><path d="M333,240L333,239L335,237L335,235L333,232L332,223L332,221L329,221L329,219L329,218L330,216L330,215L330,213L330,213L329,214L327,214L326,215L325,215L323,215L322,215L321,215L320,215L319,215L318,215L314,213L313,214L311,214L312,216L313,217L314,219L316,220L318,220L319,220L320,221L320,223L321,223L322,223L322,224L322,225L324,227L325,227L327,226L328,227L327,228L326,229L326,230L325,231L324,232L323,232L323,233L324,234L324,233L325,234L326,234L327,235L326,237L328,238L329,238L330,238L331,239L331,240L332,241L332,242L332,243Z M323,230L322,230L322,229L321,228L320,229L321,230L321,231L322,231L323,232Z " data-fips="RP55" data-hasc="PH.SM" data-name="Samar" data-postal="SM" data-varname="Western Samar"/><path d="M334,271L334,270L333,269L332,266L330,265L330,266L330,268L332,269L332,270L334,271Z M328,267L327,266L327,265L327,261L327,260L328,261L328,262L328,263L329,264L330,265L330,264L331,263L332,263L333,263L333,262L333,260L332,260L331,259L331,258L331,256L331,255L331,254L330,255L329,256L328,257L326,257L325,257L324,258L325,262L324,263L323,264L322,264L321,265L322,266L324,266L325,267L326,268L328,268Z " data-fips="RP59" data-hasc="PH.SL" data-name="Southern Leyte" data-postal="SL" data-varname=""/><path d="M323,215L325,215L326,215L327,214L329,214L330,213L330,213L331,212L332,212L332,213L333,214L334,213L334,213L334,212L335,211L334,210L333,209L332,208L331,207L330,207L328,208L327,208L327,207L326,207L324,207L323,207L323,208L319,208L316,208L315,208L313,208L312,207L311,208L310,207L309,208L311,212L311,214L313,214L314,213L318,215L319,215L320,215L321,215L322,215Z " data-fips="RP67" data-hasc="PH.NS" data-name="Northern Samar" data-postal="NS" data-varname=""/><path d="M338,303L339,301L340,301L343,301L344,300L344,298L345,288L345,288L344,287L345,285L344,284L344,283L343,283L341,282L339,282L338,283L338,283L338,284L339,286L339,287L339,288L340,289L340,292L339,293L338,294L337,294L336,294L334,294L333,293L333,292L332,292L332,292L332,293L333,295L332,296L337,304Z " data-fips="RP02" data-hasc="PH.AN" data-name="Agusan del Norte" data-postal="AN" data-varname=""/><path d="M343,318L356,318L358,318L358,316L356,314L356,312L357,310L356,309L353,308L352,307L351,305L351,303L352,302L352,301L351,300L350,299L350,298L349,297L348,296L348,295L346,295L346,293L346,292L346,291L346,290L345,288L344,298L344,300L343,301L340,301L339,301L338,303L337,304L333,307L333,309L335,311L335,312L335,313L336,315L336,318Z " data-fips="RP03" data-hasc="PH.AS" data-name="Agusan del Sur" data-postal="AS" data-varname=""/><path d="M328,332L329,331L330,330L331,330L332,328L333,328L334,328L334,328L334,327L335,326L336,326L337,326L338,324L338,323L337,321L337,320L336,318L336,315L335,313L335,312L335,311L333,309L333,307L325,304L324,304L323,305L323,305L323,308L322,308L318,308L317,311L317,314L317,315L317,316L318,317L319,319L319,320L318,320L318,321L318,322L320,323L321,325L321,326L322,327L323,329L324,330L324,331L325,332L326,332L327,333Z " data-fips="RP12" data-hasc="PH.BK" data-name="Bukidnon" data-postal="BK" data-varname=""/><path d="M322,291L322,290L322,289L321,288L319,288L318,289L319,291L321,291L322,292Z " data-fips="RP17" data-hasc="PH.CM" data-name="Camiguin" data-postal="CM" data-varname=""/><path d="M346,344L346,342L346,339L345,338L344,338L344,339L344,340L345,341L345,343L345,344L346,344Z M343,336L344,336L344,335L345,335L347,333L347,333L347,332L347,331L349,330L348,329L349,328L350,327L349,326L349,325L350,324L349,322L348,323L348,324L347,325L346,326L346,325L345,324L344,323L343,318L343,318L336,318L337,320L337,321L338,323L338,324L337,326L336,326L335,326L334,327L334,328L339,328L339,336L340,336Z " data-fips="RP24" data-hasc="PH.DV" data-name="Davao del Norte" data-postal="DV" data-varname="Davao"/><path d="M351,340L353,339L357,336L358,335L358,334L358,333L357,331L357,328L355,321L355,320L356,318L343,318L343,318L344,323L345,324L346,325L346,326L347,325L348,324L348,323L349,322L350,324L349,325L349,326L350,327L349,328L348,329L349,330L347,331L347,332L347,333L347,333L348,334L348,336L349,338L349,340L350,341Z " data-fips="RP24" data-hasc="PH.CL" data-name="Compostela Valley" data-postal="CL" data-varname=""/><path d="M349,282L348,281L347,280L346,280L345,280L343,279L342,279L341,278L341,277L340,275L339,275L338,274L337,276L336,277L337,281L338,283L339,282L341,282L343,283L344,283L344,284L345,285Z M350,278L351,277L350,276L350,275L349,275L349,276L349,277L349,278L349,279L350,280Z M354,275L355,274L354,273L353,273L354,272L354,270L352,268L352,269L350,272L351,272L350,273L351,274L352,275L353,275Z M344,271L343,270L343,268L344,267L343,266L343,265L343,264L342,263L343,262L343,260L343,259L342,258L341,259L341,260L340,260L340,261L339,262L340,263L339,264L339,266L339,267L339,268L340,267L341,268L341,269L341,270L343,271L343,272L344,272Z " data-fips="RP61" data-hasc="PH.DI" data-name="Dinagat Islands" data-postal="DI" data-varname=""/><path d="M361,319L362,318L362,317L362,315L362,314L362,312L361,313L360,313L359,312L360,311L360,310L360,309L360,308L360,306L361,305L360,305L358,304L357,304L356,305L355,305L354,303L354,302L355,301L356,301L357,301L357,300L358,299L359,299L359,297L359,296L358,294L357,293L356,292L355,291L355,289L356,288L356,286L355,286L354,287L352,287L351,286L351,284L349,284L349,283L350,282L349,282L344,287L345,288L345,288L346,290L346,291L346,292L346,293L346,295L348,295L348,296L349,297L350,298L350,299L351,300L352,301L352,302L351,303L351,305L352,307L353,308L356,309L357,310L356,312L356,314L358,316L358,318L358,318L359,320Z " data-fips="RP62" data-hasc="PH.SS" data-name="Surigao del Sur" data-postal="SS" data-varname=""/><path d="M317,311L318,308L322,308L323,308L323,305L323,305L324,304L325,304L331,297L330,297L329,298L328,297L328,296L325,294L324,294L323,293L322,294L322,295L322,296L322,298L322,299L322,300L321,301L321,302L322,304L321,305L321,306L320,307L319,306L318,308L318,306L319,306L317,305L316,304L315,304L314,303L313,303L312,304L311,306L310,307L310,308L310,309L309,310L311,309L312,309L316,311L316,312Z M332,296L333,295L332,293L332,292L332,292L332,292L331,293L332,295L331,297Z " data-fips="RP43" data-hasc="PH.MN" data-name="Misamis Oriental" data-postal="MN" data-varname=""/><path d="M338,382L337,380L336,380L336,381L337,382Z M337,377L338,376L340,373L342,370L344,368L344,367L344,365L345,364L345,363L343,359L343,357L342,356L342,354L341,354L340,353L339,352L338,352L337,351L336,350L337,349L337,348L337,347L338,346L339,344L339,343L340,341L342,341L343,339L343,338L343,337L344,336L343,336L340,336L339,336L339,328L334,328L334,328L334,329L333,332L333,333L333,335L333,336L333,337L333,338L334,339L335,341L334,342L334,343L331,346L331,347L331,349L332,350L332,353L331,353L331,355L331,356L331,356L332,357L333,358L334,359L335,359L337,359L338,359L339,359L339,360L340,362L340,363L340,364L340,365L340,366L339,369L339,371L337,375L336,376L335,377L335,377Z " data-fips="RP25" data-hasc="PH.DS" data-name="Davao Del Sur" data-postal="DS" data-varname=""/><path d="M357,357L357,355L357,351L357,349L358,348L357,347L356,346L356,345L357,344L358,345L359,347L360,346L360,345L359,344L359,342L361,342L362,342L363,341L363,340L364,339L365,337L366,336L366,335L365,334L366,332L365,331L366,331L366,330L366,328L365,327L365,325L365,324L363,324L362,323L361,322L361,321L359,320L358,318L358,318L356,318L355,320L355,321L357,328L357,331L358,333L358,334L358,335L357,336L353,339L351,340L350,341L351,341L351,342L351,344L352,346L353,346L354,347L354,349L353,351L354,355L355,356L355,357L356,358L357,359Z " data-fips="RP26" data-hasc="PH.DO" data-name="Davao Oriental" data-postal="DO" data-varname=""/><path d="M336,376L337,375L339,371L339,369L340,366L340,365L340,364L340,363L340,362L339,360L339,359L338,359L337,359L335,359L334,359L333,358L332,357L331,356L331,356L330,356L330,357L329,358L334,360L334,361L333,363L333,364L334,365L334,366L334,368L333,369L332,370L332,371L333,372L333,373L334,373L335,374L335,377Z " data-fips="RP25" data-hasc="PH.SG" data-name="Sarangani" data-postal="SG" data-varname=""/><path d="M331,365L332,364L333,364L333,363L334,361L334,360L329,358L330,357L330,356L331,356L331,355L331,353L332,353L328,353L326,353L324,354L322,352L321,351L320,352L319,352L319,351L318,352L318,354L318,355L319,356L318,357L319,358L319,359L309,360L310,360L311,361L313,363L313,361L315,362L319,364L320,365L323,366L328,366L329,365L329,366L329,367L330,368Z " data-fips="RP70" data-hasc="PH.SC" data-name="South Cotabato" data-postal="SC" data-varname=""/><path d="M330,369L330,368L329,367L329,366L329,365L328,366L323,366L320,365L319,364L315,362L313,361L313,363L313,363L312,363L313,364L317,366L318,367L319,367L320,368L322,368L324,369L326,370L328,370L329,370Z " data-fips="RP70" data-hasc="PH.SG" data-name="Sultan Kudarat" data-postal="SG" data-varname=""/></g></svg>