<?xml version="1.0" ?><!DOCTYPE svg  PUBLIC '-//W3C//DTD SVG 1.1//EN'  'http://www.w3.org/Graphics/SVG/1.1/DTD/svg11.dtd'><svg enable_background="new 0 0 500 401" height="401px" style="stroke-linejoin: round; stroke:#000; fill:#f6f3f0;" version="1.1" viewBox="0 0 500 401" width="500px" xmlns="http://www.w3.org/2000/svg" xmlns:xlink="http://www.w3.org/1999/xlink"><defs><style type="text/css"><![CDATA[path { fill-rule: evenodd; }
#context path { fill: #eee; stroke: #bbb; } ]]></style></defs><metadata><views><view h="401" padding="0" w="500"><proj id="laea" lat0="39.778" lon0="126.451"/><bbox h="66.38" w="58.93" x="979.85" y="959.49"/><llbbox lat0="-90" lat1="90" lon0="-180" lon1="180"/></view></views></metadata><g id="admin1"><path d="M195,373L196,373L196,371L197,370L197,370L198,369L198,367L199,366L201,366L202,367L203,367L204,367L205,366L205,365L205,363L203,361L203,360L204,360L205,359L210,360L212,360L213,360L215,360L216,360L219,358L219,357L219,355L219,354L218,353L219,352L219,350L218,350L217,351L215,350L214,349L214,349L213,348L209,341L209,340L209,338L209,337L209,336L209,334L209,333L209,332L207,329L207,328L208,328L212,327L213,326L214,324L215,322L217,319L218,318L218,316L219,315L219,313L218,311L219,310L220,309L221,308L224,308L225,307L226,306L226,305L227,304L227,303L227,302L226,301L225,300L225,299L221,296L219,296L216,293L215,292L212,292L211,290L209,290L206,291L204,291L203,290L202,289L201,289L200,290L200,291L201,293L201,294L202,296L204,298L205,300L206,301L206,302L205,303L203,303L201,303L198,301L197,301L196,303L196,304L197,305L197,307L196,308L194,308L190,306L189,305L187,305L185,305L184,304L183,303L181,302L180,302L179,302L178,303L176,303L175,304L175,305L175,307L175,308L176,309L178,310L180,314L181,315L180,318L180,319L177,320L176,320L175,322L174,323L172,323L170,323L168,322L167,321L164,319L164,317L163,316L156,313L153,313L151,313L149,314L145,317L143,317L143,318L144,319L144,320L145,321L146,322L146,324L146,326L147,327L147,329L148,330L148,332L148,334L148,335L149,336L149,338L150,339L150,341L150,342L150,343L151,345L152,347L151,348L151,349L152,349L153,351L153,352L154,352L155,352L157,352L158,352L159,353L159,355L160,356L162,357L162,358L163,361L164,362L165,363L166,363L168,362L171,361L173,362L174,361L175,360L176,360L177,360L180,358L182,358L184,358L186,358L187,359L190,360L191,361L192,363L193,364L193,365L192,366L192,364L191,365L190,366L190,368L190,369L190,371L191,372L190,374Z " data-fips="KN07" data-hasc="KP.WB" data-name="Hwanghae-bukto" data-postal="WB" data-varname="North Hwanghae|North Hwanghai"/><path d="M123,397L125,396L126,395L127,394L128,392L126,393L125,393L125,395L124,395L122,397Z M131,398L131,396L133,396L135,396L137,395L138,393L138,391L140,390L140,392L141,392L142,391L143,392L144,393L145,393L145,392L145,391L145,389L146,389L146,388L146,387L147,386L146,384L146,382L146,381L148,382L149,383L150,382L152,381L152,380L151,381L150,381L151,380L151,379L150,378L149,379L149,377L147,377L146,377L144,376L143,374L143,373L144,373L146,373L147,373L149,374L150,374L153,375L155,376L156,376L156,377L157,379L158,379L159,381L162,385L162,386L163,387L164,387L166,387L167,388L167,387L166,385L166,384L165,383L164,383L166,382L167,383L168,385L169,386L171,385L171,388L171,390L173,390L173,392L174,395L177,395L177,394L177,392L177,390L176,389L177,388L178,387L179,387L181,387L183,387L184,386L189,384L190,384L191,384L192,382L191,381L191,380L191,378L191,376L191,375L190,374L191,372L190,371L190,369L190,368L190,366L191,365L192,364L192,366L193,365L193,364L192,363L191,361L190,360L187,359L186,358L184,358L182,358L180,358L177,360L176,360L175,360L174,361L173,362L171,361L168,362L166,363L165,363L164,362L163,361L162,358L162,357L160,356L159,355L159,353L158,352L157,352L155,352L154,352L153,352L153,351L152,349L151,349L151,348L152,347L151,345L150,343L150,342L150,341L150,339L149,338L149,336L148,335L148,334L148,332L148,330L147,329L147,329L145,328L144,327L143,326L143,325L141,325L141,327L140,326L139,324L137,323L136,323L135,324L133,324L132,324L131,325L129,325L129,326L127,326L127,326L125,325L124,326L123,326L122,325L121,326L121,327L120,328L120,328L119,326L118,325L117,325L117,327L118,328L118,330L118,331L117,331L114,334L113,332L112,331L110,331L110,332L110,333L110,335L111,336L111,338L110,340L109,341L108,342L108,341L107,340L107,341L106,344L103,349L102,354L102,355L103,356L105,358L108,357L109,358L105,361L103,358L102,357L100,358L99,361L96,361L96,363L95,363L92,364L90,364L91,366L97,367L100,367L102,366L103,365L104,365L106,367L111,370L114,369L117,368L118,368L120,368L121,369L124,369L125,369L125,370L124,371L124,373L122,373L122,372L121,371L118,372L115,372L116,374L116,375L118,376L119,376L120,376L119,377L117,378L116,378L114,377L113,376L111,378L109,378L108,379L108,380L110,379L110,382L111,382L113,382L115,384L118,385L119,385L120,384L121,384L122,383L122,381L123,380L124,380L124,381L127,383L127,384L126,385L124,387L123,388L127,388L127,389L128,389L129,388L131,387L130,386L130,385L131,385L132,385L134,386L135,387L135,385L134,384L133,383L132,383L133,383L134,383L134,382L135,381L136,382L137,383L139,384L138,386L139,387L140,387L140,389L139,389L136,388L134,388L133,389L132,390L131,391L132,392L134,391L135,392L132,393L130,393L129,394L129,398L130,399Z M119,390L120,388L119,389L117,390L118,391Z M110,389L112,388L111,387L110,388L109,388L109,389Z M104,337L103,335L102,334L101,334L100,333L98,335L98,337L99,336L101,337L102,337Z " data-fips="KN06" data-hasc="KP.WN" data-name="Hwanghae-namdo" data-postal="WN" data-varname="South Hwanghae|South Hwanghai"/><path d="M174,323L175,322L176,320L177,320L180,319L180,318L181,315L180,314L178,310L176,309L175,308L175,307L175,305L175,304L176,303L178,303L179,302L180,302L181,302L183,303L184,304L185,305L187,305L189,305L190,306L190,302L189,301L188,298L187,297L184,296L183,295L182,293L182,292L182,291L181,290L180,289L179,290L178,289L176,288L174,288L173,287L173,286L172,284L170,284L170,285L169,286L166,286L165,284L163,284L162,284L162,285L161,286L161,287L161,289L160,289L160,288L159,287L159,286L158,285L157,284L156,283L155,282L153,281L152,280L151,281L149,282L147,283L146,284L147,285L147,287L147,288L147,289L147,290L149,292L148,292L144,296L144,297L144,301L145,303L145,305L144,310L143,310L141,311L140,312L140,313L141,314L142,315L143,316L143,317L145,317L149,314L151,313L153,313L156,313L163,316L164,317L164,319L167,321L168,322L170,323L172,323Z " data-fips="KN12" data-hasc="KP.PY" data-name="P'yongyang" data-postal="PY" data-varname="Pyongyang|Pjngjang|P'yongyang-tukpyolsi"/><path d="M146,324L146,322L145,321L144,320L144,319L143,318L143,317L143,316L142,315L141,314L140,313L140,312L141,311L143,310L144,310L145,305L145,303L143,302L142,301L141,301L140,301L138,300L137,299L136,300L135,300L133,300L132,300L130,300L130,301L130,303L130,304L131,306L131,307L130,308L129,309L128,311L127,312L127,313L127,314L128,317L125,318L126,319L124,320L125,322L126,323L128,322L127,321L128,320L128,321L130,321L131,320L131,322L133,322L135,321L135,320L134,319L135,318L136,318L137,321L138,321L141,322L142,322L145,326L146,326Z " data-fips="KN14" data-hasc="KP.PY" data-name="Namp'o-si" data-postal="PY" data-varname="Pyongyang|Pjngjang|P'yongyang-tukpyolsi"/><path d="M347,182L348,180L348,178L349,177L349,176L349,175L350,173L352,173L353,173L354,174L354,174L355,174L356,171L358,170L364,166L365,165L367,165L368,165L369,163L369,163L372,162L374,162L376,162L377,161L378,159L379,156L379,155L379,153L378,151L377,148L377,145L377,144L377,143L376,140L377,137L378,128L379,126L380,125L380,123L381,121L380,121L379,121L378,119L376,118L375,117L374,116L373,115L373,114L372,112L372,111L372,109L373,107L374,103L375,101L376,100L376,99L377,98L377,95L378,94L379,93L383,92L384,90L384,88L384,86L384,84L386,83L388,82L388,81L388,79L389,78L390,78L389,76L391,75L392,74L393,71L394,71L394,69L395,69L398,70L399,69L398,68L399,67L400,67L400,63L401,61L403,60L406,57L406,60L407,59L410,55L411,55L410,54L410,53L411,52L411,51L411,50L413,51L414,51L415,50L416,50L418,50L421,51L421,51L422,52L422,54L424,53L425,53L426,52L427,51L425,49L425,48L425,46L424,45L424,43L423,42L421,42L420,41L420,40L419,38L418,37L418,36L417,34L417,33L416,29L414,28L413,29L413,30L414,31L413,33L411,31L411,30L410,29L409,29L405,26L405,25L402,22L401,19L400,16L401,10L400,7L397,7L394,7L393,6L393,5L394,3L393,2L392,2L389,3L386,3L385,3L383,0L382,0L380,2L381,3L379,3L378,5L378,6L378,8L376,13L376,15L376,16L375,18L374,20L374,22L374,23L375,24L376,25L375,26L375,27L374,28L374,29L374,30L375,30L373,32L373,34L373,37L373,40L372,43L370,43L368,42L366,43L366,45L364,46L364,47L364,48L363,48L362,47L360,45L356,43L355,44L354,44L353,43L352,43L352,44L352,45L351,45L350,46L350,47L347,48L346,49L346,50L347,51L346,53L344,53L345,53L346,55L346,56L345,57L344,57L344,59L345,59L346,60L345,61L344,62L342,63L341,65L339,66L338,65L338,66L337,67L336,69L335,70L333,70L332,70L332,71L331,74L329,75L328,75L328,75L327,77L326,78L324,80L323,81L322,83L321,83L318,83L319,85L320,87L320,89L320,90L321,91L323,91L323,92L323,94L323,95L323,98L323,99L324,102L324,103L323,104L324,105L327,106L328,107L330,108L331,110L331,113L330,114L328,116L327,117L326,120L327,122L328,125L330,129L331,129L332,130L332,131L333,132L333,133L331,135L331,136L331,138L332,140L333,142L334,148L334,150L334,152L334,153L333,155L332,157L332,158L333,159L334,160L333,161L333,162L332,163L333,165L334,166L335,168L336,169L336,172L337,174L338,175L340,176L341,178L341,179L341,180L341,181L342,182L343,182L344,183L347,183Z " data-fips="KN04" data-hasc="KP.HG" data-name="Hamgyong-bukto" data-postal="HG" data-varname="North Hamgyong|Kankyo Hoku-do"/><path d="M223,360L224,359L226,358L228,356L229,355L231,354L235,352L239,352L241,352L244,352L248,351L253,353L255,353L259,352L270,351L271,352L273,353L276,352L283,352L286,352L290,350L294,348L297,345L298,343L300,341L300,338L300,336L300,333L300,332L300,331L302,330L305,328L305,326L305,325L305,324L303,322L302,321L299,319L296,320L289,312L284,311L283,310L281,307L280,306L279,305L278,303L277,304L277,302L275,300L274,299L273,297L271,295L270,293L268,292L265,292L263,291L262,290L261,289L256,290L255,289L254,286L253,287L253,288L251,288L249,287L248,286L248,284L247,283L247,281L248,279L248,277L248,276L249,276L251,276L253,275L252,274L251,274L249,274L248,274L247,273L250,272L251,271L250,270L249,271L247,270L244,271L242,270L240,270L237,271L234,271L233,271L232,272L232,273L231,276L231,277L231,279L230,280L229,280L228,281L227,282L227,283L228,285L229,289L229,290L226,291L225,293L225,299L225,300L226,301L227,302L227,303L227,304L226,305L226,306L225,307L224,308L221,308L220,309L219,310L218,311L219,313L219,315L218,316L218,318L217,319L215,322L214,324L213,326L212,327L208,328L207,328L207,329L209,332L209,333L209,334L209,336L209,337L209,338L209,340L209,341L213,348L214,349L214,349L215,350L217,351L218,350L219,350L219,352L218,353L219,354L219,355L219,357L219,358L221,360L221,360L222,361L223,362Z " data-fips="KN09" data-hasc="KP.KW" data-name="Kangwon-do" data-postal="KW" data-varname="Kangwon|Kogen-do|North Kangwon"/><path d="M206,390L206,389L207,388L206,382L207,379L208,379L210,379L212,377L217,369L218,368L220,366L221,365L223,362L222,361L221,360L221,360L219,358L216,360L215,360L213,360L212,360L210,360L205,359L204,360L203,360L203,361L205,363L205,365L205,366L204,367L203,367L202,367L201,366L199,366L198,367L198,369L197,370L197,370L196,371L196,373L195,373L190,374L191,375L191,376L191,378L191,380L191,381L192,382L191,384L191,384L193,387L201,392L202,392Z " data-fips="KN08" data-hasc="KP.KS" data-name="Kaesong" data-postal="KS" data-varname="Kaesong|Kaesong-chigu|Kaesong Kong-op Chigu|Kaesong Industrial Region"/><path d="M193,227L197,225L199,225L200,224L200,223L201,220L202,219L206,217L207,216L208,216L209,215L209,214L211,213L212,213L213,212L214,212L215,211L215,209L216,208L218,206L219,205L220,202L220,201L220,200L220,198L221,197L222,195L223,194L224,192L224,190L224,188L225,186L226,185L228,184L228,183L230,182L231,182L234,181L235,180L236,175L237,174L242,171L245,170L246,168L246,167L246,166L245,165L243,164L242,162L242,160L242,157L243,155L246,152L246,150L247,147L247,146L247,144L246,142L246,140L245,140L243,140L241,140L240,141L239,142L239,143L238,144L236,145L234,144L232,144L228,142L227,141L227,140L226,138L225,136L225,135L225,133L225,132L223,131L222,129L222,127L221,125L221,124L220,122L221,120L220,119L219,119L216,120L215,119L214,118L214,116L216,115L217,115L218,115L219,113L220,112L220,111L221,111L222,110L223,109L223,108L222,107L222,105L222,104L222,101L223,99L224,97L223,96L222,96L221,95L220,93L219,94L218,95L217,97L214,99L213,101L212,101L209,98L208,98L207,98L208,100L209,101L208,101L206,103L203,103L202,105L200,108L201,110L201,111L200,113L199,117L197,120L197,121L197,122L198,125L198,127L196,127L197,126L195,126L193,127L191,130L190,131L189,134L188,135L187,137L186,137L185,141L184,141L183,142L180,144L177,146L176,147L177,149L176,150L175,150L175,152L173,153L173,154L172,155L171,157L170,158L169,158L168,158L169,159L170,159L168,161L167,161L166,161L164,161L163,160L162,161L159,162L156,161L155,162L154,163L152,163L151,164L149,167L150,169L150,170L147,170L146,169L145,169L144,169L144,170L144,172L142,173L140,173L139,174L138,175L138,176L137,177L136,177L136,178L136,178L140,181L141,182L142,184L143,184L145,184L146,185L146,187L147,189L146,190L146,191L145,194L145,195L145,196L148,199L147,201L147,202L147,203L149,204L156,209L157,210L158,210L159,210L160,210L162,209L163,209L164,210L166,211L167,211L168,212L170,214L173,218L176,221L177,221L179,223L180,224L186,224L187,225L189,226L192,228Z " data-fips="KN01" data-hasc="KP.CH" data-name="Chagang-do" data-postal="CH" data-varname="Changang|Jagang"/><path d="M224,285L226,285L228,285L227,283L227,282L228,281L229,280L230,280L231,279L231,277L231,276L232,273L232,272L233,271L234,271L237,271L240,270L242,270L244,271L247,270L249,271L250,270L251,271L251,271L253,268L254,269L255,270L257,273L256,275L255,277L257,278L258,277L258,275L256,268L256,263L256,261L258,257L258,255L257,254L255,253L254,252L254,250L254,249L254,248L255,247L255,245L257,244L257,243L258,242L260,241L262,241L263,240L266,239L266,238L270,237L271,236L270,235L276,234L276,230L277,228L278,228L279,228L280,226L281,225L282,224L282,223L290,224L291,225L292,224L294,224L295,224L296,223L296,221L297,221L299,223L300,224L302,221L305,219L307,218L308,217L311,216L312,216L313,214L315,213L316,212L318,213L318,212L319,211L320,209L319,208L318,207L318,205L319,203L322,202L324,201L327,200L332,197L333,196L336,192L338,191L343,190L344,188L346,184L347,183L344,183L343,182L342,182L341,181L341,180L341,179L341,178L340,176L338,175L337,174L336,172L336,169L335,168L334,166L333,165L332,163L333,162L333,161L334,160L333,159L332,158L332,157L333,155L334,153L334,152L334,150L334,148L331,143L328,141L323,139L321,139L319,139L316,139L316,140L316,142L315,144L315,145L312,145L311,146L311,147L310,149L309,150L308,151L306,151L304,151L302,151L301,152L301,154L302,157L302,158L302,160L302,162L301,164L301,166L301,167L301,170L299,172L299,176L298,177L296,179L295,180L293,184L291,185L290,185L288,185L286,183L284,183L280,184L278,186L278,187L278,188L277,189L277,190L271,194L268,196L267,197L266,196L266,194L266,191L266,191L268,189L268,188L268,187L267,185L268,184L268,183L266,183L265,183L264,182L263,180L263,178L262,176L260,175L260,174L257,169L257,167L256,166L254,165L254,163L255,163L259,160L259,158L259,156L258,154L258,153L261,152L262,151L262,150L262,147L262,145L262,143L260,142L256,141L254,142L254,144L253,145L253,147L252,147L251,148L249,148L247,147L246,150L246,152L243,155L242,157L242,160L242,162L243,164L245,165L246,166L246,167L246,168L245,170L242,171L237,174L236,175L235,180L234,181L231,182L230,182L228,183L228,184L226,185L225,186L224,188L224,190L224,192L223,194L222,195L221,197L220,198L220,200L220,201L220,202L226,202L227,202L228,203L231,207L231,208L231,209L231,211L231,212L232,213L234,215L235,216L235,217L234,218L230,222L230,223L230,224L229,225L228,226L229,227L230,231L232,235L231,236L231,237L230,238L227,239L226,240L225,239L224,238L223,237L222,237L218,237L214,238L213,239L212,240L211,244L210,245L209,246L210,248L211,248L211,249L208,253L208,254L209,255L209,256L209,257L208,258L207,259L207,261L207,262L208,263L209,265L210,265L210,267L210,268L210,270L208,275L208,277L209,278L210,279L211,279L214,278L215,278L216,279L216,280L217,281L218,280L219,280L221,280L221,281L222,282L221,284L222,285L223,285Z " data-fips="KN13" data-hasc="KP.HN" data-name="Hamgyong-namdo" data-postal="HN" data-varname="South Hamgyong|Kankyo Nan-do"/><path d="M94,262L95,261L93,261L93,262L94,263Z M94,259L93,258L92,258L91,258L90,258L89,259L88,260L91,260L92,260Z M103,263L105,262L106,260L107,259L107,257L108,255L106,255L104,257L102,260L103,259L103,260L102,263Z M128,262L130,261L136,258L137,258L140,258L143,257L146,255L148,254L149,254L150,254L151,254L155,252L158,250L160,247L160,246L162,245L163,245L164,244L166,242L167,240L168,239L169,238L170,238L172,239L173,240L174,240L183,238L187,236L189,235L189,234L189,232L188,230L188,228L188,227L189,226L187,225L186,224L180,224L179,223L177,221L176,221L173,218L170,214L168,212L167,211L166,211L164,210L163,209L162,209L160,210L159,210L158,210L157,210L156,209L149,204L147,203L147,202L147,201L148,199L145,196L145,195L145,194L146,191L146,190L147,189L146,187L146,185L145,184L143,184L142,184L141,182L140,181L136,178L136,178L136,178L136,180L134,180L132,179L131,179L130,178L128,179L127,180L126,181L124,182L123,182L121,183L120,184L119,185L117,185L116,186L115,186L114,187L113,188L113,189L114,190L114,190L115,191L114,192L112,192L111,192L110,193L108,192L107,192L106,190L106,192L104,194L101,197L100,198L98,198L97,199L97,200L96,202L96,203L95,204L92,204L91,205L90,206L88,207L86,208L86,209L85,210L77,217L76,218L77,219L77,221L77,222L78,223L79,223L82,223L83,224L81,225L79,224L78,224L77,225L76,229L75,231L74,231L74,233L74,234L75,235L77,236L78,238L78,239L79,238L84,239L87,240L87,242L88,243L88,244L87,246L88,247L89,247L90,249L91,248L91,249L91,250L90,253L90,255L90,256L91,255L93,254L94,253L96,254L97,252L96,251L97,249L96,248L97,247L97,245L96,244L97,242L97,243L98,245L100,245L100,246L103,247L104,247L104,248L105,249L106,252L108,253L109,251L111,253L112,254L113,255L115,256L116,256L117,257L118,258L118,259L121,258L120,257L124,257L124,259L125,259L125,260L127,262Z " data-fips="KN11" data-hasc="KP.PB" data-name="P'yongan-bukto" data-postal="PB" data-varname="North Pyongan|Heian Hoku-do"/><path d="M123,319L123,318L123,316L125,317L125,318L128,317L127,314L127,313L127,312L128,311L129,309L130,308L131,307L131,306L130,304L130,303L130,301L130,300L132,300L133,300L135,300L136,300L137,299L138,300L140,301L141,301L142,301L143,302L144,301L144,297L144,296L148,292L149,292L147,290L147,289L147,288L147,287L147,285L146,284L147,283L149,282L151,281L152,280L153,281L155,282L156,283L157,284L158,285L159,286L159,287L160,288L160,289L161,289L161,287L161,286L162,285L162,284L163,284L165,284L166,286L169,286L170,285L170,284L172,284L173,286L173,287L174,288L176,288L178,289L179,290L180,289L181,290L182,291L182,292L182,293L183,295L184,296L187,297L188,298L189,301L190,302L194,308L196,308L197,307L197,305L196,304L196,303L197,301L198,301L201,303L203,303L205,303L206,302L206,301L205,300L204,298L202,296L201,294L201,293L200,291L200,290L201,289L202,289L203,290L204,291L206,291L209,290L211,290L212,292L215,292L216,293L219,296L221,296L225,293L226,291L229,290L229,289L226,285L224,285L223,285L222,285L221,284L222,282L221,281L221,280L219,280L218,280L217,281L216,280L216,279L215,278L214,278L211,279L210,279L209,278L208,277L208,275L210,270L210,268L210,267L210,265L209,265L208,263L207,262L207,261L207,259L208,258L209,257L209,256L209,255L208,254L208,253L211,249L211,248L210,248L209,246L210,245L211,244L212,240L213,239L214,238L218,237L222,237L223,237L224,238L225,239L226,240L227,239L230,238L231,237L231,236L232,235L230,231L229,227L228,226L229,225L230,224L230,223L230,222L234,218L235,217L235,216L234,215L232,213L231,212L231,211L231,209L231,208L231,207L228,203L227,202L226,202L219,205L218,206L216,208L215,209L215,211L214,212L213,212L212,213L211,213L209,214L209,215L208,216L207,216L206,217L202,219L201,220L200,223L200,224L199,225L197,225L193,227L192,228L189,226L188,227L188,228L188,230L189,232L189,234L189,235L187,236L183,238L174,240L173,240L172,239L170,238L169,238L168,239L167,240L166,242L164,244L163,245L162,245L160,246L160,247L158,250L155,252L151,254L150,254L149,254L148,254L146,255L143,257L140,258L137,258L137,258L136,260L134,262L134,264L133,265L132,266L131,267L131,269L132,268L133,268L132,270L131,271L132,272L136,272L137,272L136,274L135,274L134,274L135,275L134,276L135,277L136,278L136,279L133,283L134,284L134,285L133,284L132,284L130,285L130,287L130,288L128,289L128,290L127,291L128,292L129,294L130,295L129,295L127,295L126,295L125,296L125,297L124,299L123,301L124,301L123,304L122,305L121,305L122,307L119,310L119,313L118,314L118,315L119,316L120,316L121,317L122,319L122,320Z " data-fips="KN10" data-hasc="KP.PN" data-name="P'yongan-namdo" data-postal="PN" data-varname="South Pyongan|Heian Nan-do"/><path d="M268,196L271,194L277,190L277,189L278,188L278,187L278,186L280,184L284,183L286,183L288,185L290,185L291,185L293,184L295,180L296,179L298,177L299,176L299,172L301,170L301,167L301,166L301,164L302,162L302,160L302,158L302,157L301,154L301,152L302,151L304,151L306,151L308,151L309,150L310,149L311,147L311,146L312,145L315,145L315,144L316,142L316,140L316,139L319,139L321,139L323,139L328,141L331,143L333,142L332,140L331,138L331,136L331,135L333,133L333,132L332,131L332,130L331,129L330,129L328,125L327,122L326,120L327,117L328,116L330,114L331,113L331,110L330,108L328,107L327,106L324,105L323,104L324,103L324,102L323,99L323,98L323,95L323,94L323,92L323,91L321,91L320,90L320,89L320,87L319,85L318,83L321,83L322,83L323,81L324,80L326,78L327,77L328,75L328,75L324,74L319,73L318,75L317,75L313,75L312,76L311,77L309,77L306,78L304,77L302,77L301,76L299,76L294,75L285,78L282,78L281,78L281,79L281,80L282,87L282,88L283,89L285,90L285,91L288,96L288,97L289,99L290,100L292,102L294,103L295,104L296,106L296,107L297,108L296,111L291,122L288,124L286,124L286,122L285,123L284,123L283,122L283,121L282,122L281,121L281,119L281,118L280,118L279,119L277,117L275,118L273,119L273,120L272,120L271,120L270,119L268,120L263,120L261,119L260,120L258,119L256,118L255,118L255,116L254,117L253,116L251,115L250,116L248,117L247,116L245,116L244,116L241,116L240,115L241,114L239,113L238,113L237,113L236,112L234,114L233,114L232,113L230,113L231,111L232,110L233,110L234,109L234,109L230,107L230,106L229,106L227,104L227,102L229,102L228,101L227,99L226,98L224,97L223,99L222,101L222,104L222,105L222,107L223,108L223,109L222,110L221,111L220,111L220,112L219,113L218,115L217,115L216,115L214,116L214,118L215,119L216,120L219,119L220,119L221,120L220,122L221,124L221,125L222,127L222,129L223,131L225,132L225,133L225,135L225,136L226,138L227,140L227,141L228,142L232,144L234,144L236,145L238,144L239,143L239,142L240,141L241,140L243,140L245,140L246,140L246,142L247,144L247,146L247,147L249,148L251,148L252,147L253,147L253,145L254,144L254,142L256,141L260,142L262,143L262,145L262,147L262,150L262,151L261,152L258,153L258,154L259,156L259,158L259,160L255,163L254,163L254,165L256,166L257,167L257,169L260,174L260,175L262,176L263,178L263,180L264,182L265,183L266,183L268,183L268,184L267,185L268,187L268,188L268,189L266,191L266,191L266,194L266,196L267,197Z " data-fips="KN03" data-hasc="KP.YG" data-name="Ryanggang" data-postal="YG" data-varname="Yanggang|Ryanggang-do"/></g></svg>