<?xml version="1.0" ?><!DOCTYPE svg  PUBLIC '-//W3C//DTD SVG 1.1//EN'  'http://www.w3.org/Graphics/SVG/1.1/DTD/svg11.dtd'><svg enable_background="new 0 0 500 401" height="401px" style="stroke-linejoin: round; stroke:#000; fill:#f6f3f0;" version="1.1" viewBox="0 0 500 401" width="500px" xmlns="http://www.w3.org/2000/svg" xmlns:xlink="http://www.w3.org/1999/xlink"><defs><style type="text/css"><![CDATA[path { fill-rule: evenodd; }
#context path { fill: #eee; stroke: #bbb; } ]]></style></defs><metadata><views><view h="401" padding="0" w="500"><proj id="laea" lat0="24.023" lon0="44.585"/><bbox h="195.28" w="236.07" x="890.15" y="898.95"/><llbbox lat0="-90" lat1="90" lon0="-180" lon1="180"/></view></views></metadata><g id="admin1"><path d="M131,243L133,243L135,241L136,241L137,240L141,242L143,241L144,238L145,237L152,232L155,229L157,228L160,227L161,226L160,225L158,223L157,222L157,221L158,220L159,220L162,218L166,216L167,215L168,214L168,213L168,212L168,211L168,209L168,208L169,207L170,207L173,205L174,201L174,199L174,198L174,196L174,195L176,193L176,191L174,190L174,189L173,188L172,183L172,182L171,181L167,180L166,179L166,177L167,171L166,170L166,169L165,168L161,167L159,167L153,166L149,166L147,166L146,167L145,169L144,170L142,170L141,170L138,170L137,170L131,172L130,172L129,172L128,171L128,169L128,163L128,160L127,157L127,156L129,148L128,147L127,146L126,146L125,146L125,145L125,144L126,142L126,140L126,139L125,137L124,136L114,137L112,137L110,137L107,135L105,133L103,132L103,131L102,130L102,132L101,133L100,132L98,131L96,132L94,133L93,134L92,132L92,131L92,131L91,130L90,128L90,127L89,127L85,126L84,125L83,123L82,121L81,118L80,118L75,120L74,120L73,119L71,118L69,117L68,117L62,120L59,120L58,121L59,122L61,122L62,122L63,124L63,126L63,127L62,131L62,132L62,133L63,134L64,135L65,136L68,137L68,138L68,139L66,142L66,143L66,144L66,145L67,147L67,148L68,150L70,150L74,153L75,155L76,156L79,159L79,160L80,162L81,165L81,166L84,166L84,167L83,173L82,182L81,183L80,184L79,184L78,183L77,183L76,184L75,185L74,186L72,186L70,186L69,187L69,188L68,189L70,192L70,194L71,195L72,196L73,196L75,195L76,196L77,197L78,199L79,199L80,198L80,199L81,200L82,201L83,201L85,203L86,204L87,205L88,205L88,206L89,207L90,208L91,209L92,209L92,210L92,211L93,213L94,215L94,216L95,215L96,217L96,218L97,219L97,219L99,219L102,218L103,219L104,221L106,223L108,225L109,226L110,226L114,226L114,227L114,228L115,228L117,228L122,227L125,227L125,227L126,228L126,229L126,231L124,234L125,236L127,237L128,237L128,238L129,239L128,240L128,241L128,242L129,243L130,243Z " data-fips="SA05" data-hasc="SA.MD" data-name="Al Madinah" data-postal="MD" data-varname="Madinah|Al Madinah al Munawwarah|Monwarah|Medina|Mdine"/><path d="M177,190L179,188L180,187L181,187L183,188L184,189L186,189L190,189L191,189L194,189L195,189L198,190L199,189L200,188L200,187L200,186L199,185L199,184L199,183L202,180L204,178L205,177L213,175L214,174L215,173L217,172L218,171L219,169L220,168L221,167L222,167L223,167L228,168L233,167L235,167L236,167L237,166L237,164L236,163L236,161L235,160L235,159L235,157L234,154L231,150L229,148L229,147L229,146L229,143L229,142L229,141L229,140L230,139L232,139L234,136L234,135L235,134L237,134L238,133L239,133L239,131L239,130L238,129L238,128L237,127L236,126L233,127L231,129L230,130L228,129L226,129L225,128L222,126L220,124L219,123L218,123L217,123L216,124L207,128L205,129L204,130L203,131L202,134L201,135L196,137L193,139L187,143L184,146L184,148L183,149L182,150L181,150L180,150L179,150L178,151L178,153L178,154L178,157L177,158L176,158L174,157L173,158L172,159L172,160L173,162L173,163L172,163L170,164L169,164L164,166L162,167L161,167L165,168L166,169L166,170L167,171L166,177L166,179L167,180L171,181L172,182L172,183L173,188L174,189L174,190L176,191Z " data-fips="SA08" data-hasc="SA.QS" data-name="Al Quassim" data-postal="QS" data-varname="Al Gassim|Gasim|Qaseem|Al Qasseem"/><path d="M137,170L138,170L141,170L142,170L144,170L145,169L146,167L147,166L149,166L153,166L159,167L161,167L162,167L164,166L169,164L170,164L172,163L173,163L173,162L172,160L172,159L173,158L174,157L176,158L177,158L178,157L178,154L178,153L178,151L179,150L180,150L181,150L182,150L183,149L184,148L184,146L187,143L193,139L196,137L201,135L202,134L203,131L204,130L205,129L207,128L216,124L217,123L218,123L219,123L220,124L222,126L225,128L226,129L228,129L230,130L231,129L233,127L234,125L234,124L234,123L235,121L236,120L237,119L237,117L233,113L231,112L224,111L223,111L222,110L221,109L219,104L215,96L214,96L213,96L210,98L209,98L207,98L205,97L203,96L201,96L200,96L199,95L198,93L198,91L197,91L195,91L194,92L192,93L191,93L190,92L188,91L186,88L185,87L184,87L176,85L173,85L170,85L169,85L163,83L162,83L160,83L148,86L146,85L144,84L142,84L134,87L125,92L121,92L113,96L112,97L109,99L110,100L117,102L119,103L120,104L121,105L122,106L125,108L126,109L127,111L129,121L130,122L131,122L134,124L134,126L134,127L133,128L130,130L129,131L128,133L127,137L126,139L126,140L126,142L125,144L125,145L125,146L126,146L127,146L128,147L129,148L127,156L127,157L128,160L128,163L128,169L128,171L129,172L130,172L131,172Z " data-fips="SA13" data-hasc="SA.HA" data-name="Ha'il" data-postal="HA" data-varname="Hail"/><path d="M61,165L60,165L60,166L61,167Z M59,166L58,166L57,165L57,165L56,164L56,166L57,167L59,168Z M57,164L56,163L55,163L55,163L55,164L56,164L57,165L58,165Z M52,162L51,161L51,161L50,160L51,159L50,160L50,161L51,161L53,162Z M69,188L69,187L70,186L72,186L74,186L75,185L76,184L77,183L78,183L79,184L80,184L81,183L82,182L83,173L84,167L84,166L81,166L81,165L80,162L79,160L79,159L76,156L75,155L74,153L70,150L68,150L67,148L67,147L66,145L66,144L66,143L66,142L68,139L68,138L68,137L65,136L64,135L63,134L62,133L62,132L62,131L63,127L63,126L63,124L62,122L61,122L59,122L58,121L59,120L62,120L68,117L69,117L71,118L73,119L74,120L75,120L80,118L81,118L82,121L83,123L84,125L85,126L89,127L90,127L90,128L91,130L92,131L92,131L92,132L93,134L94,133L96,132L98,131L100,132L101,133L102,132L102,130L103,131L103,132L105,133L107,135L110,137L112,137L114,137L124,136L125,137L127,137L128,133L129,131L130,130L133,128L134,127L134,126L134,124L131,122L130,122L129,121L127,111L126,109L125,108L122,106L121,105L120,104L119,103L117,102L110,100L109,99L108,99L107,98L106,99L103,100L102,100L101,99L100,98L98,97L97,97L96,97L94,97L90,97L89,96L86,95L85,95L84,93L83,92L83,91L82,90L82,88L82,86L83,82L82,81L81,81L80,82L78,83L77,84L76,86L75,87L74,88L70,87L69,87L65,85L64,85L62,85L57,86L54,87L52,86L47,78L47,77L45,76L41,75L39,75L38,75L35,75L30,76L28,76L27,77L24,77L22,76L20,76L18,76L18,76L18,78L17,79L17,81L17,86L16,87L15,88L14,90L13,91L13,93L12,94L11,94L12,96L12,97L13,95L13,95L14,95L15,96L16,96L17,96L17,97L18,96L19,96L20,96L22,96L23,97L24,97L25,98L24,99L26,100L26,101L27,103L27,104L28,105L29,106L30,108L31,109L31,110L31,112L32,114L33,115L33,116L34,117L36,119L37,120L36,121L37,123L39,125L40,127L41,128L42,129L42,131L43,132L44,134L45,135L47,138L48,143L49,144L49,145L51,149L53,150L54,150L55,152L55,153L54,154L54,155L54,156L54,157L55,158L57,158L58,159L59,160L60,161L60,162L61,163L61,165L62,167L63,167L63,169L63,170L64,171L65,172L66,173L66,173L66,175L66,177L66,178L66,179L65,181L64,181L63,181L64,182L65,183L65,184L66,185L67,186L68,189Z M52,158L52,157L51,156L52,155L51,156L51,158L52,159Z M12,100L10,99L9,98L10,98L10,98L9,98L9,99L10,100Z " data-fips="SA19" data-hasc="SA.TB" data-name="Tabuk" data-postal="TB" data-varname="Tabouk"/><path d="M241,119L242,118L242,118L241,117L241,115L241,114L242,112L246,107L247,106L255,91L256,89L258,87L260,85L263,83L274,79L272,79L236,76L217,60L196,43L194,42L188,36L179,28L145,7L144,6L143,6L136,4L117,0L117,0L116,0L113,3L92,8L92,8L88,18L88,21L89,22L91,24L92,25L93,27L94,29L95,30L96,30L97,30L107,30L114,29L117,29L132,32L133,33L134,35L136,35L138,36L149,36L151,36L153,36L154,37L159,40L160,41L161,41L163,41L166,42L167,43L168,44L169,46L170,48L171,49L174,52L175,53L174,54L173,55L171,56L153,67L150,69L149,70L149,71L148,80L147,81L144,84L146,85L148,86L160,83L162,83L163,83L169,85L170,85L173,85L176,85L184,87L185,87L186,88L188,91L190,92L191,93L192,93L194,92L195,91L197,91L198,91L198,93L199,95L200,96L201,96L203,96L205,97L207,98L209,98L210,98L213,96L214,96L215,96L219,104L221,109L222,110L223,111L224,111L231,112L233,113L237,117L239,119L239,120L240,120Z " data-fips="SA15" data-hasc="SA.HS" data-name="Al Hudud ash Shamaliyah" data-postal="HS" data-varname="Northern Frontier"/><path d="M106,99L107,98L108,99L109,99L112,97L113,96L121,92L125,92L134,87L142,84L144,84L147,81L148,80L149,71L149,70L150,69L153,67L171,56L173,55L174,54L175,53L174,52L171,49L170,48L169,46L168,44L167,43L166,42L163,41L161,41L160,41L159,40L154,37L153,36L151,36L149,36L138,36L136,35L134,35L133,33L132,32L117,29L114,29L107,30L97,30L96,30L95,30L94,29L93,27L92,25L91,24L89,22L88,21L88,18L92,8L92,8L91,8L87,9L69,13L80,27L90,40L83,43L82,44L78,52L62,54L61,55L55,63L46,70L45,70L39,69L22,65L21,66L21,67L20,68L20,69L19,71L19,72L19,73L19,74L18,76L20,76L22,76L24,77L27,77L28,76L30,76L35,75L38,75L39,75L41,75L45,76L47,77L47,78L52,86L54,87L57,86L62,85L64,85L65,85L69,87L70,87L74,88L75,87L76,86L77,84L78,83L80,82L81,81L82,81L83,82L82,86L82,88L82,90L83,91L83,92L84,93L85,95L86,95L89,96L90,97L94,97L96,97L97,97L98,97L100,98L101,99L102,100L103,100Z " data-fips="SA03" data-hasc="SA.JF" data-name="Al Jawf" data-postal="JF" data-varname="JawfAl Joaf|Al-Jouf|Jowf"/><path d="M155,323L156,322L157,321L157,319L159,315L160,313L161,313L163,313L165,312L167,307L168,306L168,303L169,302L172,300L173,299L173,298L172,297L172,295L171,290L170,290L168,291L167,292L164,292L163,292L161,293L160,292L159,291L159,289L158,288L157,288L155,288L155,289L154,290L154,291L154,292L155,293L154,295L153,298L152,300L151,301L150,301L147,302L146,302L144,304L144,306L145,306L147,307L147,308L147,309L147,312L147,314L147,316L147,317L148,319L151,320L152,322L153,323L154,323Z " data-fips="SA02" data-hasc="SA.BA" data-name="Al Bahah" data-postal="BA" data-varname="Baha"/><path d="M210,372L211,369L211,368L211,366L211,365L211,364L211,358L211,357L211,356L211,355L211,354L211,353L211,352L212,351L216,347L219,345L219,344L220,343L220,341L221,340L222,340L224,339L225,339L226,338L228,337L228,336L229,335L229,333L229,332L228,329L228,328L229,326L231,325L232,323L231,320L222,311L220,307L218,305L218,304L219,299L219,298L221,296L221,295L221,294L220,293L219,291L217,289L216,288L215,286L212,283L209,284L205,286L204,287L202,286L201,286L199,286L197,287L195,287L194,288L192,289L187,292L180,298L179,298L178,299L177,298L176,297L172,295L172,297L173,298L173,299L172,300L169,302L168,303L168,306L167,307L165,312L166,312L167,312L168,313L169,314L169,315L168,319L168,320L169,322L169,323L168,326L167,327L166,327L163,327L162,327L161,327L160,328L158,328L157,328L157,334L157,335L157,336L158,337L159,338L161,338L163,338L164,338L164,338L165,339L167,345L167,347L166,350L169,350L170,351L169,354L169,355L170,356L170,357L172,356L173,357L174,357L174,359L175,360L176,360L181,360L182,361L182,362L183,364L186,366L187,366L188,365L189,361L189,360L190,359L191,359L192,358L194,359L194,360L194,361L196,363L197,364L198,366L199,367L200,367L201,368L203,371L205,370L206,370L207,370L209,371L210,372Z " data-fips="SA11" data-hasc="SA.AS" data-name="`Asir" data-postal="AS" data-varname="Asir|Aseer|Assyear"/><path d="M175,393L175,392L175,390L173,390L173,388L172,388L171,389L173,390L171,390L170,390L169,390L168,390L168,389L167,388L167,387L165,386L165,387L166,388L167,389L168,391L169,391L170,392L171,391L173,392L173,392L174,394Z M170,388L169,387L170,387L170,386L169,384L169,384L169,383L169,384L168,385L167,386L167,387L168,388L169,389L170,389Z M192,398L193,397L193,396L194,396L195,395L196,394L197,393L197,392L198,391L199,391L199,390L200,389L200,388L199,388L198,387L198,386L198,384L198,383L198,382L198,381L199,379L199,378L200,377L201,376L200,376L199,375L200,374L202,372L203,371L201,368L200,367L199,367L198,366L197,364L196,363L194,361L194,360L194,359L192,358L191,359L190,359L189,360L189,361L188,365L187,366L186,366L183,364L182,362L182,361L181,360L176,360L175,360L174,359L174,357L173,357L172,356L170,357L170,356L169,355L169,354L170,351L169,350L166,350L165,351L165,352L163,353L162,353L162,354L162,355L162,356L163,357L163,358L163,359L164,360L165,361L167,362L168,362L170,364L171,365L173,367L174,367L175,369L177,371L178,372L179,373L178,374L179,375L179,379L179,380L180,382L180,380L180,378L181,379L181,380L181,381L182,382L183,382L184,383L184,385L184,386L185,387L186,388L187,389L188,390L188,391L189,392L188,393L188,394L189,395L190,396L190,398L190,399Z " data-fips="SA17" data-hasc="SA.JZ" data-name="Jizan" data-postal="JZ" data-varname="Jazan|Qizan"/><path d="M162,353L163,353L165,352L165,351L166,350L167,347L167,345L165,339L164,338L164,338L163,338L161,338L159,338L158,337L157,336L157,335L157,334L157,328L158,328L160,328L161,327L162,327L163,327L166,327L167,327L168,326L169,323L169,322L168,320L168,319L169,315L169,314L168,313L167,312L166,312L165,312L163,313L161,313L160,313L159,315L157,319L157,321L156,322L155,323L154,323L153,323L152,322L151,320L148,319L147,317L147,316L147,314L147,312L147,309L147,308L147,307L145,306L144,306L144,304L146,302L147,302L150,301L151,301L152,300L153,298L154,295L155,293L154,292L154,291L154,290L155,289L155,288L157,288L158,288L159,289L159,291L160,292L161,293L163,292L164,292L167,292L168,291L170,290L171,290L176,297L177,298L178,299L179,298L180,298L187,292L192,289L194,288L195,287L197,287L199,286L201,286L202,286L204,287L205,286L209,284L212,283L206,274L205,273L205,272L206,268L206,267L206,262L207,261L208,260L208,259L208,258L207,250L207,249L207,244L206,244L204,243L203,243L200,244L199,244L198,244L197,243L196,242L196,241L196,238L197,236L196,235L195,235L193,234L188,234L185,234L183,234L182,233L181,232L179,225L178,220L177,219L176,215L175,214L174,213L173,212L173,210L170,207L169,207L168,208L168,209L168,211L168,212L168,213L168,214L167,215L166,216L162,218L159,220L158,220L157,221L157,222L158,223L160,225L161,226L160,227L157,228L155,229L152,232L145,237L144,238L143,241L141,242L137,240L136,241L135,241L133,243L131,243L130,243L129,243L128,242L128,241L128,240L129,239L128,238L128,237L127,237L125,236L124,234L126,231L126,229L126,228L125,227L125,227L122,227L117,228L115,228L114,228L114,227L114,226L110,226L109,226L108,225L106,223L104,221L103,219L102,218L99,219L97,219L97,219L97,220L97,221L97,222L97,223L98,224L99,225L99,226L99,228L99,228L99,230L101,230L101,231L102,232L103,233L102,233L101,232L101,234L103,235L103,234L104,236L103,237L104,238L104,239L105,241L105,244L105,245L106,245L106,246L105,247L105,248L104,250L104,252L104,253L103,254L103,255L103,259L103,258L102,257L102,259L103,260L103,261L104,262L105,262L104,263L105,264L105,266L106,267L106,268L106,269L106,271L104,272L105,274L106,276L106,277L106,278L107,279L108,280L108,281L109,282L110,283L110,284L111,284L112,285L112,286L112,287L114,287L113,288L114,289L114,290L115,291L115,292L117,295L119,296L120,297L121,298L124,300L123,299L124,299L125,299L127,299L128,300L128,301L129,301L130,302L131,303L133,305L134,305L135,306L135,306L136,307L137,308L137,309L138,309L139,311L139,312L140,312L142,312L143,314L143,316L143,317L145,318L147,320L147,321L147,322L147,323L148,324L148,325L149,326L149,327L149,328L150,329L151,330L152,330L152,332L151,333L151,334L152,335L153,336L153,337L153,340L153,341L154,342L155,343L156,343L156,344L157,345L158,346L158,347L158,349L159,350L159,351L160,352L160,353L161,354L162,354Z " data-fips="SA14" data-hasc="SA.MK" data-name="Makkah" data-postal="MK" data-varname="La Meca|La Mecca|La Mecque|Makka|Makkah al-Mukarramah|Mecca|Meca|Mecka|Mekka"/><path d="M296,384L302,380L305,320L250,327L244,326L241,326L240,325L238,324L232,323L231,325L229,326L228,328L228,329L229,332L229,333L229,335L228,336L228,337L226,338L225,339L224,339L222,340L221,340L220,341L220,343L219,344L219,345L216,347L212,351L211,352L211,353L211,354L211,355L211,356L211,357L211,358L211,364L211,365L211,366L211,368L211,369L210,372L210,372L212,374L214,375L215,375L216,374L217,376L218,376L218,375L220,374L221,375L222,374L223,373L225,374L227,373L229,373L230,373L233,373L235,373L247,373L249,373L253,375L254,376L275,378L285,376L285,377L291,384L295,384Z " data-fips="SA16" data-hasc="SA.NJ" data-name="Najran" data-postal="NJ" data-varname=""/><path d="M305,320L314,269L319,215L319,209L319,206L318,204L317,202L316,200L315,199L309,193L300,187L300,186L300,185L298,151L298,150L297,149L290,146L289,145L288,144L284,140L283,140L279,141L278,141L277,140L272,137L270,136L269,135L268,135L265,135L263,135L262,134L260,132L258,130L257,130L256,129L254,129L248,125L247,124L246,122L245,120L244,119L242,118L241,119L240,120L239,120L239,119L237,119L236,120L235,121L234,123L234,124L234,125L236,126L237,127L238,128L238,129L239,130L239,131L239,133L238,133L237,134L235,134L234,135L234,136L232,139L230,139L229,140L229,141L229,142L229,143L229,146L229,147L229,148L231,150L234,154L235,157L235,159L235,160L236,161L236,163L237,164L237,166L236,167L235,167L233,167L228,168L223,167L222,167L221,167L220,168L219,169L218,171L217,172L215,173L214,174L213,175L205,177L204,178L202,180L199,183L199,184L199,185L200,186L200,187L200,188L199,189L198,190L195,189L194,189L191,189L190,189L186,189L184,189L183,188L181,187L180,187L179,188L177,190L176,191L176,193L174,195L174,196L174,198L174,199L174,201L173,205L173,210L173,212L174,213L175,214L176,215L177,219L178,220L179,225L181,232L182,233L183,234L185,234L188,234L193,234L195,235L196,235L197,236L196,238L196,241L196,242L197,243L198,244L199,244L200,244L203,243L204,243L206,244L207,244L207,249L207,250L208,258L208,259L208,260L207,261L206,262L206,267L206,268L205,272L205,273L206,274L212,283L215,286L216,288L217,289L219,291L220,293L221,294L221,295L221,296L219,298L219,299L218,304L218,305L220,307L222,311L231,320L238,324L240,325L241,326L244,326L250,327Z " data-fips="SA10" data-hasc="SA.RI" data-name="Ar Riyad" data-postal="RI" data-varname="Riyad|Riad|Riyadh"/><path d="M303,379L306,371L320,353L340,342L342,341L410,329L479,299L486,271L491,251L491,248L491,247L479,231L478,233L419,229L418,228L394,201L394,200L394,198L394,197L393,196L392,195L389,195L389,196L387,195L387,194L388,193L388,192L390,190L390,189L391,188L390,188L389,188L389,189L387,190L387,189L387,188L386,188L385,188L384,189L382,189L381,190L380,189L379,189L377,188L376,185L375,185L374,184L374,182L373,181L372,179L371,179L371,178L370,177L369,176L369,175L369,174L369,173L369,172L368,170L368,169L367,168L366,167L365,166L364,167L362,164L360,162L360,161L361,162L362,162L362,163L362,162L361,161L359,159L359,157L359,156L359,155L357,154L357,153L356,154L356,152L356,151L356,150L356,149L357,150L358,151L358,151L359,152L359,151L359,150L360,150L361,149L361,146L360,145L359,143L357,143L356,142L355,139L355,137L355,136L355,135L356,137L358,137L359,138L358,137L356,135L354,133L353,133L352,133L351,132L349,131L348,130L348,130L346,128L345,127L345,126L344,125L343,125L344,126L342,126L341,125L342,124L341,124L340,125L339,124L339,122L339,121L338,121L337,120L337,119L336,119L336,118L337,118L338,118L339,118L338,117L337,116L336,116L335,116L333,116L332,115L331,114L330,115L330,115L329,114L328,113L328,112L327,111L328,109L328,111L329,110L329,111L329,110L329,109L328,108L328,107L327,107L326,105L327,105L326,104L325,104L324,103L323,102L323,101L323,99L321,97L321,96L320,95L320,94L319,92L319,91L301,91L300,91L300,90L299,88L299,86L298,83L296,80L286,79L276,78L274,79L263,83L260,85L258,87L256,89L255,91L247,106L246,107L242,112L241,114L241,115L241,117L242,118L242,118L244,119L245,120L246,122L247,124L248,125L254,129L256,129L257,130L258,130L260,132L262,134L263,135L265,135L268,135L269,135L270,136L272,137L277,140L278,141L279,141L283,140L284,140L288,144L289,145L290,146L297,149L298,150L298,151L300,185L300,186L300,187L309,193L315,199L316,200L317,202L318,204L319,206L319,209L319,215L314,269L302,380Z M345,121L347,121L348,121L345,120L344,120L343,120L343,121L344,121L344,122Z " data-fips="SA06" data-hasc="SA.SH" data-name="Ash Sharqiyah" data-postal="SH" data-varname="Eastern Province"/></g></svg>