<?xml version="1.0" ?><!DOCTYPE svg  PUBLIC '-//W3C//DTD SVG 1.1//EN'  'http://www.w3.org/Graphics/SVG/1.1/DTD/svg11.dtd'><svg enable_background="new 0 0 500 401" height="401px" style="stroke-linejoin: round; stroke:#000; fill:#f6f3f0;" version="1.1" viewBox="0 0 500 401" width="500px" xmlns="http://www.w3.org/2000/svg" xmlns:xlink="http://www.w3.org/1999/xlink"><defs><style type="text/css"><![CDATA[path { fill-rule: evenodd; }
#context path { fill: #eee; stroke: #bbb; } ]]></style></defs><metadata><views><view h="401" padding="0" w="500"><proj id="laea" lat0="35.013" lon0="38.506"/><bbox h="62.38" w="66.52" x="971.59" y="970.78"/><llbbox lat0="-90" lat1="90" lon0="-180" lon1="180"/></view></views></metadata><g id="admin1"><path d="M70,168L71,167L74,166L72,158L71,154L71,153L72,144L73,139L72,135L72,134L71,133L72,132L73,130L74,127L75,127L76,126L77,124L76,123L71,124L70,124L68,123L68,122L69,121L67,121L64,119L62,118L60,118L59,117L58,116L58,115L58,114L58,113L56,113L55,113L53,113L51,116L51,117L50,118L49,119L46,118L47,120L47,121L48,123L48,125L48,127L46,132L44,132L44,134L44,136L44,137L43,138L42,139L40,140L42,140L41,141L43,142L44,144L43,146L44,146L45,146L47,146L48,147L49,148L53,153L52,154L53,159L53,160L52,163L53,165L56,166L57,167L59,169Z " data-fips="SY02" data-hasc="SY.LA" data-name="Lattakia (Al Ladhiqiyah)" data-postal="LA" data-varname="Latakia|Al Ladhiqiyah|El Ladhiqiya|Lattakia|Lattakieh|Lattikia|Lattaquie"/><path d="M62,215L64,215L64,214L64,212L69,204L70,202L71,202L72,200L74,199L75,198L74,196L75,195L76,195L77,194L77,193L75,192L74,191L74,190L73,189L70,189L69,189L66,188L66,186L67,185L69,185L69,185L71,185L72,184L73,184L74,182L74,181L74,179L74,170L71,167L70,168L59,169L57,167L56,166L53,165L54,168L55,170L54,172L50,176L50,177L50,182L50,183L51,184L50,185L49,186L49,187L49,188L49,189L49,191L48,192L50,197L51,200L52,202L52,206L53,207L53,209L54,212L55,213L56,214L57,215L59,215L60,215Z " data-fips="SY14" data-hasc="SY.TA" data-name="Tartus" data-postal="TA" data-varname="Tartaus|Tartous"/><path d="M293,128L293,126L291,125L291,124L292,119L298,91L301,72L301,70L300,69L296,67L290,64L289,64L287,65L286,65L284,65L284,64L280,60L280,58L278,54L265,57L262,57L252,54L249,54L248,54L237,55L233,54L229,52L227,50L227,50L228,54L228,55L227,56L223,57L223,58L224,59L224,60L225,61L226,60L228,58L229,59L229,60L229,65L229,67L229,69L228,72L228,74L227,75L224,79L223,80L219,83L214,86L203,88L201,88L199,88L197,90L195,90L194,91L194,92L193,93L192,95L191,97L191,98L191,100L191,101L192,103L193,105L194,106L194,107L195,109L198,112L198,113L197,115L197,116L195,118L192,122L192,123L190,127L188,134L188,138L188,139L189,140L202,153L204,155L205,156L206,158L212,157L230,159L266,168Z " data-fips="SY04" data-hasc="SY.RA" data-name="Ar Raqqah" data-postal="RA" data-varname="Al Rakka|Raqqa|Al Rashid|Rashid"/><path d="M189,140L188,139L188,138L188,134L190,127L192,123L192,122L195,118L197,116L197,115L198,113L198,112L195,109L194,107L194,106L193,105L192,103L191,101L191,100L191,98L191,97L192,95L193,93L194,92L194,91L195,90L197,90L199,88L201,88L203,88L214,86L219,83L223,80L224,79L227,75L228,74L228,72L229,69L229,67L229,65L229,60L229,59L228,58L226,60L225,61L224,60L224,59L223,58L223,57L227,56L228,55L228,54L227,50L227,50L220,43L217,41L205,38L201,37L199,37L195,39L189,43L187,44L186,44L176,49L165,51L161,53L152,59L149,58L139,56L138,57L133,58L132,57L131,57L130,57L129,57L128,58L127,59L126,59L124,57L125,54L125,52L124,51L122,50L121,49L120,48L119,47L118,47L114,47L102,43L101,42L101,44L100,46L99,47L99,49L98,51L98,52L98,54L97,55L96,59L96,62L96,66L94,69L94,70L94,71L95,76L96,77L97,77L97,78L97,80L97,81L97,82L99,82L100,83L101,84L102,83L104,83L106,83L108,82L109,83L109,85L111,86L113,89L113,90L112,91L111,92L110,93L109,94L108,95L106,97L106,98L107,100L108,101L109,102L114,105L115,106L115,107L116,109L116,111L119,116L123,122L124,123L125,124L127,125L128,126L129,128L129,129L128,130L127,130L126,131L127,134L127,135L128,136L129,138L131,141L132,141L134,143L142,146L144,147L145,148L149,148L159,147L160,148L165,151L166,152L169,153L174,153L202,153Z " data-fips="SY09" data-hasc="SY.HL" data-name="Aleppo (Halab)" data-postal="HL" data-varname="Aleppo|Alep|Alepo|Haleb|?alab"/><path d="M121,197L125,195L126,194L127,194L129,193L130,194L131,194L132,193L133,192L134,192L135,193L136,194L137,194L138,194L139,193L139,192L140,191L141,190L142,190L143,190L143,189L144,189L145,189L147,189L148,189L150,189L152,189L153,190L154,190L154,189L154,188L154,186L154,184L155,183L156,183L158,181L160,181L161,181L164,180L170,178L171,179L172,180L173,180L174,181L175,181L175,182L176,183L176,184L176,185L177,187L178,188L182,191L182,192L185,196L186,196L188,193L188,192L188,191L189,190L189,189L190,188L190,187L192,186L193,185L201,181L202,180L202,177L202,176L203,174L204,172L205,171L205,169L206,168L206,159L206,158L205,156L204,155L202,153L174,153L169,153L166,152L165,151L160,148L159,147L149,148L145,148L144,147L142,146L135,145L134,147L132,150L131,150L129,151L128,152L127,156L127,157L128,157L129,156L130,155L131,155L131,156L131,160L130,160L129,161L128,162L127,162L126,162L124,162L123,162L122,161L122,160L122,158L123,156L123,155L123,154L122,154L121,155L119,156L118,158L117,159L116,159L115,158L114,157L114,156L112,154L111,154L103,156L99,156L95,155L93,155L92,154L91,153L91,152L89,151L87,152L85,152L85,150L83,147L84,146L83,140L83,139L84,135L85,131L84,130L82,130L81,129L80,128L79,127L78,128L77,128L75,128L75,127L74,127L73,130L72,132L71,133L72,134L72,135L73,139L72,144L71,153L71,154L72,158L74,166L74,170L74,179L74,181L74,182L73,184L72,184L71,185L69,185L69,185L67,185L66,186L66,188L69,189L70,189L73,189L74,190L74,191L75,192L77,193L77,194L77,195L77,196L78,197L78,198L79,198L80,197L81,197L82,198L85,198L85,197L85,196L86,195L86,194L88,191L89,190L91,191L90,192L90,193L91,193L92,194L93,194L94,194L96,194L99,194L104,191L105,191L106,191L109,191L110,190L112,190L113,189L115,189L116,191L118,194L120,198Z " data-fips="SY10" data-hasc="SY.HM" data-name="Hamah" data-postal="HM" data-varname="Hama|?amah"/><path d="M221,326L237,316L328,260L291,208L280,193L279,192L279,191L279,186L279,185L275,176L273,173L266,168L230,159L212,157L206,158L206,159L206,168L205,169L205,171L204,172L203,174L202,176L202,177L202,180L201,181L193,185L192,186L190,187L190,188L189,189L189,190L188,191L188,192L188,193L186,196L185,196L182,192L182,191L178,188L177,187L176,185L176,184L176,183L175,182L175,181L174,181L173,180L172,180L171,179L170,178L164,180L161,181L160,181L158,181L156,183L155,183L154,184L154,186L154,188L154,189L154,190L153,190L152,189L150,189L148,189L147,189L145,189L144,189L143,189L143,190L142,190L141,190L140,191L139,192L139,193L138,194L137,194L136,194L135,193L134,192L133,192L132,193L131,194L130,194L129,193L127,194L126,194L125,195L121,197L120,198L118,194L116,191L115,189L113,189L112,190L110,190L109,191L106,191L105,191L104,191L99,194L96,194L94,194L93,194L92,194L91,193L90,193L90,192L91,191L89,190L88,191L86,194L86,195L85,196L85,197L85,198L82,198L81,197L80,197L79,198L78,198L78,197L77,196L77,195L77,194L76,195L75,195L74,196L75,198L74,199L72,200L71,202L70,202L69,204L64,212L64,214L64,215L67,215L68,215L69,216L74,215L75,214L75,212L76,211L77,212L79,214L80,216L82,216L83,216L85,216L84,218L83,218L82,218L81,219L81,220L81,222L80,223L78,224L77,225L78,226L80,226L81,226L84,226L85,228L85,229L86,230L87,230L89,231L90,232L90,234L90,235L90,236L89,237L90,238L91,240L93,241L94,242L93,243L93,244L92,245L92,246L93,247L95,250L96,249L98,249L99,248L101,249L102,249L107,250L109,249L111,248L113,248L114,250L115,252L116,253L117,254L118,255L119,257L120,259L121,260L122,262L122,262L123,263L125,265L126,266L133,270L134,270L135,270L137,271L138,273L142,279L143,280L148,285L150,286L156,293L157,295L158,297L158,298L163,304L167,307L169,309L170,309L174,310L175,311L176,311L178,312L180,314L206,335Z " data-fips="SY11" data-hasc="SY.HI" data-name="Homs (Hims)" data-postal="HI" data-varname="Hims|Homs"/><path d="M126,162L127,162L128,162L129,161L130,160L131,160L131,156L131,155L130,155L129,156L128,157L127,157L127,156L128,152L129,151L131,150L132,150L134,147L135,145L134,143L132,141L131,141L129,138L128,136L127,135L127,134L126,131L127,130L128,130L129,129L129,128L128,126L127,125L125,124L124,123L123,122L119,116L116,111L116,109L115,107L115,106L114,105L109,102L108,101L107,100L106,98L106,97L108,95L109,94L110,93L111,92L112,91L113,90L113,89L111,86L109,85L109,83L108,82L106,83L104,83L102,83L101,84L101,85L102,86L102,87L102,90L97,91L96,91L91,90L90,90L89,91L89,92L87,92L86,91L84,90L83,90L82,90L83,92L82,93L82,94L82,106L82,108L80,108L78,107L77,108L76,111L75,111L74,110L71,111L70,113L69,119L69,121L68,122L68,123L70,124L71,124L76,123L77,124L76,126L75,127L75,128L77,128L78,128L79,127L80,128L81,129L82,130L84,130L85,131L84,135L83,139L83,140L84,146L83,147L85,150L85,152L87,152L89,151L91,152L91,153L92,154L93,155L95,155L99,156L103,156L111,154L112,154L114,156L114,157L115,158L116,159L117,159L118,158L119,156L121,155L122,154L123,154L123,155L123,156L122,158L122,160L122,161L123,162L124,162Z " data-fips="SY12" data-hasc="SY.ID" data-name="Idlib" data-postal="ID" data-varname="Adlib|Edleb|Idleb"/><path d="M401,138L402,136L402,134L402,123L401,120L400,118L395,107L393,103L393,102L393,100L395,81L395,78L400,67L402,66L403,65L408,64L427,59L429,58L430,57L457,26L460,23L461,22L463,20L463,19L462,18L461,17L461,14L461,13L460,12L461,7L460,6L457,4L456,3L455,4L453,3L452,3L452,1L451,0L450,1L450,2L447,6L445,7L442,10L439,12L432,14L406,21L389,23L387,22L385,21L369,19L358,21L355,22L346,27L343,28L342,28L341,28L339,29L338,29L330,35L325,38L323,39L321,40L318,41L312,45L299,50L278,54L280,58L280,60L284,64L284,65L286,65L287,65L289,64L290,64L296,67L300,69L301,70L301,72L303,75L308,83L316,91L365,137L367,138L368,138L372,139L374,140L379,141L392,141L399,142Z " data-fips="SY01" data-hasc="SY.HA" data-name="Hasaka (Al Haksa)" data-postal="HA" data-varname="Al Hasaka|Al-Haska|Al Hassake|El Haseke|Haseke|Hassakeh|Hazakieh|Hassetch|Al Jezira|Jezireh"/><path d="M361,239L377,234L379,233L381,231L383,226L393,204L394,202L394,200L393,186L392,173L392,171L393,166L395,157L395,149L396,146L399,142L392,141L379,141L374,140L372,139L368,138L367,138L365,137L316,91L308,83L303,75L301,72L298,91L292,119L291,124L291,125L293,126L293,128L266,168L273,173L275,176L279,185L279,186L279,191L279,192L280,193L291,208L328,260Z " data-fips="SY07" data-hasc="SY.DY" data-name="Dayr Az Zawr" data-postal="DY" data-varname="Dair-Ezzor|Dayr az Zaur|Deir Al Zour|Deir ez Zor|Der Azzor|Dier Elzour"/><path d="M106,399L117,392L128,385L152,370L152,370L150,368L147,365L138,355L137,352L137,350L136,349L135,349L133,349L132,350L131,349L128,347L127,346L127,345L126,344L126,343L125,342L124,341L119,340L118,340L116,338L116,337L116,336L113,333L113,331L112,330L112,330L109,329L109,328L108,327L91,329L89,330L87,330L86,331L85,332L85,333L85,334L85,335L85,336L85,338L85,340L86,340L88,340L89,341L89,343L89,344L85,344L82,344L81,345L79,346L77,347L76,348L76,349L76,351L75,352L75,353L76,354L77,357L77,358L77,359L77,365L76,366L76,367L77,368L78,368L79,369L81,369L82,370L82,371L82,372L81,373L80,373L79,374L79,375L79,377L79,378L80,378L81,378L83,378L84,379L85,379L86,380L85,382L85,383L86,384L87,385L87,387L87,388L87,392L86,395L95,396L98,398L99,398L100,398L105,399Z " data-fips="SY05" data-hasc="SY.SU" data-name="As Suwayda'" data-postal="SU" data-varname="Djebel Druze|Jabal Druze|Jebel Druse|Jebel ed Druz|Al Sueida|Es Sueida|Es Suweida|Soueida|Suwaidaa"/><path d="M189,346L206,335L180,314L178,312L176,311L175,311L174,310L170,309L169,309L167,307L163,304L158,298L158,297L157,295L156,293L150,286L148,285L143,280L142,279L138,273L137,271L135,270L134,270L133,270L126,266L125,265L123,263L122,262L122,262L121,260L120,259L119,257L118,255L117,254L116,253L115,252L114,250L113,248L111,248L109,249L107,250L102,249L101,249L99,248L98,249L96,249L95,250L95,250L93,252L91,254L88,257L87,258L87,261L86,261L84,262L82,261L81,262L78,265L76,267L75,268L74,269L72,273L73,274L75,275L78,276L79,277L79,278L78,279L77,279L74,279L71,277L70,277L69,277L68,278L67,278L65,278L64,277L61,278L60,279L59,279L58,279L57,280L56,282L54,284L53,286L52,287L51,288L51,290L51,291L49,291L49,293L50,294L51,294L54,295L55,296L56,297L57,297L56,299L55,300L54,301L53,302L51,301L50,302L49,303L50,305L49,307L46,309L45,309L46,311L45,312L44,313L43,314L43,316L43,317L43,318L47,320L46,321L46,322L46,323L47,324L48,323L50,324L51,324L51,325L53,328L54,330L55,330L57,329L58,328L63,328L64,327L68,326L68,325L68,324L68,322L70,321L71,323L72,324L72,325L74,326L75,327L76,328L78,329L79,328L80,327L82,325L86,322L87,321L88,322L89,324L91,327L91,328L91,329L108,327L109,328L109,329L112,330L112,330L113,331L113,333L116,336L116,337L116,338L118,340L119,340L124,341L125,342L126,343L126,344L127,345L127,346L128,347L131,349L132,350L133,349L135,349L136,349L137,350L137,352L138,355L147,365L150,368L152,370L152,370Z " data-fips="SY08" data-hasc="SY.DI" data-name="Damascus" data-postal="DI" data-varname=""/><path d="M43,356L47,353L49,351L49,350L49,348L49,347L49,346L51,347L52,347L51,345L51,344L50,342L50,341L51,336L51,335L52,333L51,332L50,330L51,325L51,324L50,324L48,323L47,324L46,323L46,322L46,321L47,320L43,318L44,319L43,320L42,321L43,321L44,322L44,325L45,326L46,328L46,329L47,329L48,330L48,332L47,333L46,333L47,334L46,335L45,335L44,337L45,344L46,345L48,346L47,348L46,349L44,353L43,356Z " data-fips="SY03" data-hasc="SY.QU" data-name="Quneitra" data-postal="QU" data-varname="Al Qunatirah|Al Qunaytirah|Al Quneitera|El Quneitra|El Kenitra|Kunaitra|Kuneitra|Qunaytira"/><path d="M87,392L87,388L87,387L87,385L86,384L85,383L85,382L86,380L85,379L84,379L83,378L81,378L80,378L79,378L79,377L79,375L79,374L80,373L81,373L82,372L82,371L82,370L81,369L79,369L78,368L77,368L76,367L76,366L77,365L77,359L77,358L77,357L76,354L75,353L75,352L76,351L76,349L76,348L77,347L79,346L81,345L82,344L85,344L89,344L89,343L89,341L88,340L86,340L85,340L85,338L85,336L85,335L85,334L85,333L85,332L86,331L87,330L89,330L91,329L91,328L91,327L89,324L88,322L87,321L86,322L82,325L80,327L79,328L78,329L76,328L75,327L74,326L72,325L72,324L71,323L70,321L68,322L68,324L68,325L68,326L64,327L63,328L58,328L57,329L55,330L54,330L53,328L50,330L51,332L52,333L51,335L51,336L50,341L50,342L51,344L51,345L52,347L51,347L49,346L49,347L49,348L49,350L49,351L47,353L43,356L43,356L42,358L41,360L40,361L39,361L38,363L39,364L46,367L48,368L49,368L48,369L49,371L51,371L53,372L53,373L53,375L53,376L56,381L57,382L59,382L61,382L63,382L64,381L65,382L67,384L71,387L77,393L78,393L79,394L83,394L84,395L86,395Z " data-fips="SY06" data-hasc="SY.DR" data-name="Dar`a" data-postal="DR" data-varname="Dara'a|Dria|Dera`a|Derraa|Hauran"/></g></svg>