<?xml version="1.0" ?><!DOCTYPE svg  PUBLIC '-//W3C//DTD SVG 1.1//EN'  'http://www.w3.org/Graphics/SVG/1.1/DTD/svg11.dtd'><svg enable_background="new 0 0 500 401" height="401px" style="stroke-linejoin: round; stroke:#000; fill:#f6f3f0;" version="1.1" viewBox="0 0 500 401" width="500px" xmlns="http://www.w3.org/2000/svg" xmlns:xlink="http://www.w3.org/1999/xlink"><defs><style type="text/css"><![CDATA[path { fill-rule: evenodd; }
#context path { fill: #eee; stroke: #bbb; } ]]></style></defs><metadata><views><view h="401" padding="0" w="500"><proj id="laea" lat0="15.7" lon0="100.844"/><bbox h="182.68" w="97.98" x="959.13" y="941.43"/><llbbox lat0="-90" lat1="90" lon0="-180" lon1="180"/></view></views></metadata><g id="admin1"><path d="M157,77L159,77L162,75L163,75L165,75L166,74L167,74L165,73L165,72L165,71L165,70L165,69L164,68L163,67L162,67L162,66L162,64L162,63L163,62L162,61L162,60L162,59L162,58L162,57L162,56L163,55L164,54L165,53L164,52L163,52L163,50L162,49L162,48L162,46L163,45L162,44L162,43L163,41L163,40L163,38L163,37L163,36L164,35L165,34L166,35L167,35L167,36L168,37L169,38L170,38L172,38L173,38L174,38L175,38L176,37L176,36L176,35L176,34L175,33L175,32L175,31L175,30L175,28L175,27L175,26L175,25L175,24L174,23L174,22L173,22L172,21L172,20L172,20L171,20L170,20L169,20L168,20L167,21L166,20L165,19L164,19L163,18L162,18L162,17L161,17L160,19L160,21L160,21L159,22L157,23L156,23L156,25L156,26L155,27L154,28L154,29L155,30L154,31L155,32L155,33L154,36L153,38L152,40L151,40L152,41L153,42L153,43L153,44L153,45L153,46L153,47L153,49L153,50L152,50L150,50L148,52L147,52L146,52L144,51L143,51L144,52L145,53L145,55L145,56L146,57L148,58L149,56L150,57L150,58L150,59L151,62L152,63L152,64L152,64L153,66L152,67L151,69L151,71L152,72L153,73L153,74L157,77Z " data-fips="TH01" data-hasc="TH.MH" data-name="Mae Hong Son" data-postal="MH" data-varname=""/><path d="M177,291L178,290L179,289L180,289L181,289L182,289L183,288L184,288L185,288L186,287L187,287L187,286L188,285L188,283L188,281L188,280L187,279L188,278L188,277L189,276L190,275L189,274L188,273L188,271L189,271L190,272L191,271L191,270L190,269L190,268L190,267L191,266L191,265L192,264L192,263L193,262L195,259L195,258L196,258L197,257L197,256L197,255L196,255L195,255L194,256L193,256L192,255L190,256L189,255L188,254L187,253L187,253L185,255L184,256L183,256L183,257L183,258L183,259L181,259L180,260L181,260L181,261L181,263L182,263L182,264L183,265L182,266L182,267L181,268L181,269L181,271L182,271L182,272L181,274L181,275L180,276L181,277L182,278L181,280L180,281L179,282L179,283L177,283L177,284L176,284L176,285L175,286L174,287L174,288L174,289L174,290L175,291L177,292Z " data-fips="TH58" data-hasc="TH.CP" data-name="Chumphon" data-postal="CP" data-varname=""/><path d="M214,339L215,338L216,338L217,337L219,337L218,332L217,327L215,323L215,322L213,321L214,323L214,325L213,324L212,324L212,323L211,321L209,320L209,318L208,313L208,312L208,310L208,308L208,307L207,305L207,304L206,301L206,300L205,300L204,300L203,301L203,303L203,304L203,305L204,306L204,307L203,307L203,308L202,309L202,310L201,311L200,311L199,311L197,312L197,314L197,315L197,316L196,317L195,318L195,319L194,320L193,320L192,321L191,321L191,323L190,324L189,325L190,326L191,327L192,328L191,330L191,331L191,332L191,333L192,334L192,335L192,337L193,338L194,338L195,338L196,339L197,338L198,337L199,337L199,336L200,336L202,336L203,336L203,337L203,338L203,339L203,339L204,339L205,338L209,338L210,338L210,339L211,340Z " data-fips="TH64" data-hasc="TH.NT" data-name="Nakhon Si Thammarat" data-postal="NT" data-varname="Nakhon Thammarat|Nagara Sridharmaraj|Nakhon Sri Thammarat|Nakhornsrithamrat|Nakornsrithamaraj"/><path d="M165,341L166,339L167,340L167,339L168,338L167,337L167,336L167,335L168,334L168,332L167,332L165,332L165,330L164,330L164,330L164,331L164,332L164,333L164,335L163,336L163,337L163,338L164,339L164,341Z " data-fips="TH62" data-hasc="TH.PU" data-name="Phuket" data-postal="PU" data-varname=""/><path d="M173,334L172,333L171,332L170,333L171,334L172,335L171,336L171,337L173,337Z M173,330L172,331L172,332L173,332Z M168,330L169,329L168,328L168,326L169,326L170,326L171,325L172,324L174,325L174,324L174,323L174,322L174,320L175,319L175,318L175,318L174,318L173,318L172,318L172,317L172,316L172,315L172,314L171,313L171,312L170,311L169,311L169,310L169,309L170,308L170,306L170,305L170,304L170,303L170,302L171,301L170,300L169,300L168,298L167,299L167,300L166,301L166,302L165,303L166,304L167,306L166,306L166,308L167,307L166,309L165,309L164,310L164,311L163,313L163,315L162,316L163,318L162,319L162,320L162,319L162,321L163,324L164,327L164,329L165,329L166,330L167,331Z M164,310L165,309L164,308L163,308L163,309L163,310L164,311Z M164,307L165,307L165,305L164,304L163,304L163,307Z " data-fips="TH59" data-hasc="TH.PG" data-name="Phangnga" data-postal="PG" data-varname=""/><path d="M171,299L173,299L174,299L174,298L175,297L175,296L176,295L177,294L177,293L177,292L175,291L174,290L174,289L174,288L174,287L175,286L176,285L176,284L177,284L177,283L179,283L179,282L180,281L181,280L182,278L181,277L180,276L181,275L181,274L182,272L182,271L181,271L181,269L181,268L182,267L182,266L183,265L182,264L182,263L181,263L181,261L181,260L180,260L180,261L178,261L177,263L177,265L177,266L178,268L177,269L177,270L177,272L176,273L176,274L176,276L175,277L174,279L173,282L173,282L172,283L172,284L171,284L171,285L171,286L172,286L171,287L170,288L172,288L171,289L170,290L170,291L169,291L170,292L170,293L170,294L168,294L168,296L167,297L167,299L168,298L169,300L170,300Z " data-fips="TH59" data-hasc="TH.RN" data-name="Ranong" data-postal="RN" data-varname=""/><path d="M181,326L183,327L184,326L185,326L187,326L188,326L189,326L190,326L189,325L190,324L191,323L191,321L192,321L193,320L194,320L195,319L195,318L196,317L197,316L197,315L197,314L197,312L199,311L200,311L201,311L202,310L202,309L203,308L203,307L204,307L204,306L203,305L203,304L203,303L203,301L204,300L203,300L201,300L200,300L199,301L197,301L197,302L195,303L193,303L192,302L191,302L190,302L189,301L189,300L190,299L191,298L192,298L190,296L189,293L189,292L188,291L188,290L188,289L187,287L187,287L186,287L185,288L184,288L183,288L182,289L181,289L180,289L179,289L178,290L177,291L177,292L177,293L177,294L176,295L175,296L175,297L174,298L174,299L173,299L171,299L170,300L171,301L170,302L170,303L170,304L170,305L170,306L170,308L169,309L169,310L169,311L170,311L171,312L171,313L172,314L172,315L172,316L172,317L172,318L173,318L174,318L175,318L175,318L176,318L177,317L178,318L179,318L180,319L181,319L181,320L180,321L181,322L180,323L180,324L180,325L181,327Z M211,297L211,296L212,294L212,293L212,293L211,293L209,293L208,294L208,295L208,296L209,297Z M212,288L210,287L210,287L209,288L210,289L211,290L212,290Z " data-fips="TH60" data-hasc="TH.ST" data-name="Surat Thani" data-postal="ST" data-varname=""/><path d="M185,348L185,347L185,345L184,345L184,346L184,347L185,349L186,349Z M186,345L186,344L184,344L185,345L186,346Z M190,344L191,343L192,342L191,340L191,339L192,338L192,337L192,335L192,334L191,333L191,332L191,331L191,330L192,328L191,327L190,326L189,326L188,326L187,326L185,326L184,326L183,327L181,326L181,327L180,325L180,324L180,323L181,322L180,321L181,320L181,319L180,319L179,318L178,318L177,317L176,318L175,318L175,319L174,320L174,322L174,323L174,324L174,325L173,326L174,327L175,327L176,328L176,330L176,331L176,333L177,334L178,334L179,335L180,334L181,334L182,335L182,336L183,337L184,338L185,338L184,339L184,341L184,343L186,343L187,342L188,343L189,344L190,344Z " data-fips="TH63" data-hasc="TH.KR" data-name="Krabi" data-postal="KR" data-varname=""/><path d="M212,358L214,357L215,357L217,357L218,356L219,356L219,355L220,354L220,354L219,353L218,353L217,352L216,349L214,348L214,347L214,346L214,342L215,341L214,341L211,340L210,339L210,338L209,338L205,338L204,339L203,339L203,339L204,342L204,343L205,344L204,345L204,346L205,347L205,348L206,350L207,352L207,353L208,354L208,356L208,357L209,358L210,360Z " data-fips="TH66" data-hasc="TH.PL" data-name="Phatthalung" data-postal="PL" data-varname=""/><path d="M225,356L225,356L223,353L221,349L220,340L219,337L217,337L216,338L215,338L214,339L214,341L215,341L216,341L217,341L218,342L218,343L218,345L218,346L217,347L218,348L219,347L221,348L221,351L221,354L221,355L223,356L224,357Z " data-fips="TH68" data-hasc="" data-name="Songkhla (Songkhla Lake)" data-postal="" data-varname=""/><path d="M213,376L214,375L214,373L214,372L214,371L215,370L215,370L215,368L215,367L215,366L215,365L214,364L213,364L212,363L212,362L211,361L211,360L210,361L209,360L207,359L206,360L205,360L205,359L205,358L204,359L203,359L203,359L202,360L201,361L201,362L201,363L202,363L201,364L202,366L205,367L205,368L206,369L207,370L208,371L209,372L209,373L210,374L210,375L211,375L212,375L213,376L213,377Z M189,373L189,373L188,374L187,374L189,375Z M201,375L202,375L202,374L201,371L200,370L200,371L200,372L199,373L200,374L201,376Z " data-fips="TH67" data-hasc="TH.SA" data-name="Satun" data-postal="SA" data-varname=""/><path d="M234,381L234,380L234,378L235,377L236,377L237,376L239,374L239,373L239,372L238,371L238,370L237,369L238,367L238,366L237,366L236,366L234,364L232,363L231,363L230,363L226,357L225,358L224,359L222,358L221,358L220,357L221,356L220,355L220,354L219,355L219,356L218,356L217,357L215,357L214,357L212,358L210,360L211,360L211,361L212,362L212,363L213,364L214,364L215,365L215,366L215,367L215,368L215,370L215,370L215,370L216,370L217,371L218,374L219,375L220,375L221,375L222,375L223,376L225,377L227,377L229,376L229,377L230,377L231,378L231,380L232,381L233,381Z " data-fips="TH68" data-hasc="TH.SG" data-name="Songkhla" data-postal="SG" data-varname=""/><path d="M211,360L210,360L209,358L208,357L208,356L208,354L207,353L207,352L206,350L205,348L205,347L204,346L204,345L205,344L204,343L204,342L203,339L203,338L203,337L203,336L202,336L200,336L199,336L199,337L198,337L197,338L196,339L195,338L194,338L193,338L192,337L192,338L191,339L191,340L192,342L191,343L190,344L190,344L190,345L191,345L191,347L192,349L192,349L192,351L192,352L193,354L195,354L196,354L196,353L197,352L197,353L198,354L199,353L198,355L197,356L198,357L198,358L200,358L201,358L202,359L203,359L204,359L205,358L205,359L205,360L206,360L207,359L209,360L210,361Z M194,356L195,355L194,355L193,355L193,357Z " data-fips="TH65" data-hasc="TH.TG" data-name="Trang" data-postal="TG" data-varname="Tab Tiang"/><path d="M241,399L242,398L243,397L243,396L244,394L245,394L246,394L247,393L250,392L250,392L250,391L250,389L249,387L249,387L248,385L247,384L247,383L247,382L248,378L250,377L251,377L252,376L252,375L252,374L251,374L250,373L249,374L248,374L247,374L245,374L245,373L245,372L244,371L244,372L243,373L242,373L240,373L239,372L239,373L239,374L237,376L236,377L235,377L234,378L234,380L234,381L233,381L232,381L232,381L232,382L233,382L235,383L236,382L237,383L239,383L239,384L238,385L238,386L239,387L239,388L239,390L238,391L237,392L236,395L236,396L237,396L239,397L239,399Z " data-fips="TH70" data-hasc="TH.YL" data-name="Yala" data-postal="YL" data-varname=""/><path d="M197,39L198,37L199,37L200,36L199,35L199,34L200,32L200,31L200,30L200,28L200,27L201,26L202,25L202,26L203,27L204,27L209,27L209,28L210,28L211,27L212,27L213,27L214,25L215,24L215,23L216,22L216,22L218,22L218,21L220,21L221,19L221,18L222,17L222,16L223,15L223,14L224,12L225,10L225,9L224,8L223,7L222,6L222,5L220,2L218,1L217,3L216,4L215,4L214,6L214,5L213,3L212,2L211,2L210,1L209,0L207,0L207,1L206,3L205,3L204,3L203,4L201,3L200,3L198,3L196,2L198,4L198,5L199,7L198,8L199,8L200,9L199,9L198,10L199,11L200,11L200,12L200,13L199,13L198,13L197,13L196,13L195,15L195,16L196,17L195,17L195,18L194,20L193,20L193,21L192,22L193,23L193,24L193,25L193,26L193,27L194,28L194,30L194,32L193,33L193,34L194,36L195,38L195,39Z " data-fips="TH03" data-hasc="TH.CR" data-name="Chiang Rai" data-postal="CR" data-varname=""/><path d="M172,85L173,85L174,84L173,83L174,82L174,81L173,80L173,79L173,78L174,77L175,76L175,76L175,74L176,74L176,73L177,72L179,72L180,73L181,73L182,73L182,72L183,71L182,70L182,69L181,67L180,67L180,66L180,63L180,62L180,61L179,59L178,58L177,57L177,56L178,55L178,54L180,53L181,53L183,51L185,49L186,48L187,48L188,47L189,47L190,47L190,48L191,49L191,50L192,50L194,51L194,50L193,49L194,48L194,47L194,46L194,44L194,43L194,42L195,41L195,40L195,39L195,38L194,36L193,34L193,33L194,32L194,30L194,28L193,27L193,26L193,25L193,24L193,23L192,22L193,21L193,20L194,20L195,18L195,17L196,17L195,16L195,15L196,13L197,13L198,13L199,13L200,13L200,12L200,11L199,11L198,10L199,9L200,9L199,8L198,8L198,8L197,9L195,10L194,10L193,10L191,9L190,9L189,9L187,9L186,10L186,11L186,13L185,14L186,15L185,17L185,18L184,18L183,19L182,18L181,17L179,18L176,19L174,20L173,20L172,20L172,21L173,22L174,22L174,23L175,24L175,25L175,26L175,27L175,28L175,30L175,31L175,32L175,33L176,34L176,35L176,36L176,37L175,38L174,38L173,38L172,38L170,38L169,38L168,37L167,36L167,35L166,35L165,34L164,35L163,36L163,37L163,38L163,40L163,41L162,43L162,44L163,45L162,46L162,48L162,49L163,50L163,52L164,52L165,53L164,54L163,55L162,56L162,57L162,58L162,59L162,60L162,61L163,62L162,63L162,64L162,66L162,67L163,67L164,68L165,69L165,70L165,71L165,72L165,73L167,74L167,74L166,75L166,77L167,77L168,79L167,80L168,81L168,82L168,84L168,85L169,85L170,86Z " data-fips="TH02" data-hasc="TH.CM" data-name="Chiang Mai" data-postal="CM" data-varname=""/><path d="M196,87L197,86L197,85L197,84L197,83L196,82L196,81L196,80L196,79L196,78L196,77L197,76L197,75L197,74L197,73L196,74L195,74L194,74L193,74L193,72L194,72L195,72L195,71L198,67L199,66L200,66L201,65L202,65L203,65L204,64L204,63L205,62L205,61L207,59L207,58L208,58L209,56L210,56L211,55L212,53L212,52L213,51L214,51L214,50L214,49L214,47L213,46L214,45L214,44L213,43L212,42L211,42L210,41L209,40L208,39L207,39L207,38L206,37L205,37L205,36L204,34L203,33L203,32L203,30L203,29L202,26L202,25L201,26L200,27L200,28L200,30L200,31L200,32L199,34L199,35L200,36L199,37L198,37L197,39L195,39L195,40L195,41L194,42L194,43L194,44L194,46L194,47L194,48L193,49L194,50L194,51L193,53L191,53L191,54L190,55L189,56L189,57L188,58L187,58L186,59L185,59L186,60L186,61L187,62L187,63L187,65L187,66L187,67L188,68L189,69L189,70L189,71L188,71L188,72L187,73L187,74L186,75L186,76L185,76L185,77L186,78L186,79L185,80L185,82L186,82L187,83L188,83L189,84L190,83L191,82L192,82L192,83L192,84L193,86L194,86L195,87Z " data-fips="TH06" data-hasc="TH.LG" data-name="Lampang" data-postal="LG" data-varname=""/><path d="M180,79L182,78L182,77L182,76L183,75L184,76L185,76L186,76L186,75L187,74L187,73L188,72L188,71L189,71L189,70L189,69L188,68L187,67L187,66L187,65L187,63L187,62L186,61L186,60L185,59L186,59L187,58L188,58L189,57L189,56L190,55L191,54L191,53L193,53L192,50L191,50L191,49L190,48L190,47L189,47L188,47L187,48L186,48L185,49L183,51L181,53L180,53L178,54L178,55L177,56L177,57L178,58L179,59L180,61L180,62L180,63L180,66L180,67L181,67L182,69L182,70L183,71L182,72L182,73L181,73L180,73L179,72L177,72L178,73L178,74L177,75L177,76L178,77L178,80L179,80Z " data-fips="TH05" data-hasc="TH.LN" data-name="Lamphun" data-postal="LN" data-varname="Hariphunchai|Lampoon"/><path d="M223,65L225,65L226,65L227,65L228,65L229,65L230,65L231,64L232,63L233,62L233,61L234,60L234,59L235,58L236,57L238,56L237,55L237,54L238,53L239,52L240,51L241,49L242,49L242,47L242,46L242,44L242,43L242,42L243,41L243,39L244,38L244,37L242,36L242,34L242,33L241,30L241,29L241,28L242,26L243,26L243,24L242,23L241,23L239,24L238,23L237,23L236,22L233,22L233,22L232,23L231,25L230,26L229,25L226,24L225,25L226,26L225,27L225,28L224,29L224,30L225,30L226,30L226,31L226,32L226,33L226,35L227,36L226,36L225,37L225,38L224,38L223,38L223,39L223,40L222,41L221,41L220,44L220,45L221,46L220,47L220,48L221,49L221,51L222,53L223,53L224,53L225,54L224,55L223,57L223,58L223,59L223,60L223,61L222,62L221,63L221,65L222,65Z " data-fips="TH04" data-hasc="TH.NA" data-name="Nan" data-postal="NA" data-varname=""/><path d="M215,44L216,44L217,44L221,41L222,41L223,40L223,39L223,38L224,38L225,38L225,37L226,36L227,36L226,35L226,33L226,32L226,31L226,30L225,30L224,30L224,29L225,28L225,27L226,26L225,25L225,26L223,25L222,24L222,23L221,21L221,21L221,19L220,21L218,21L218,22L216,22L216,22L215,23L215,24L214,25L213,27L212,27L211,27L210,28L209,28L209,27L204,27L203,27L203,29L203,30L203,32L203,33L204,34L205,36L205,37L206,37L207,38L207,39L208,39L209,40L210,41L211,42L212,42L213,43L214,44Z " data-fips="TH41" data-hasc="TH.PY" data-name="Phayao" data-postal="PY" data-varname=""/><path d="M195,74L196,74L197,73L199,71L200,71L201,71L202,72L203,73L204,73L205,72L206,71L209,71L210,72L210,71L211,70L213,70L214,70L215,69L216,68L217,67L218,67L219,68L220,68L220,67L221,66L221,65L221,63L222,62L223,61L223,60L223,59L223,58L223,57L224,55L225,54L224,53L223,53L222,53L221,51L221,49L220,48L220,47L221,46L220,45L220,44L217,44L216,44L215,44L214,44L214,45L213,46L214,47L214,49L214,50L214,51L213,51L212,52L212,53L211,55L210,56L209,56L208,58L207,58L207,59L205,61L205,62L204,63L204,64L203,65L202,65L201,65L200,66L199,66L198,67L195,71L195,72L194,72L193,72L193,74L194,74Z " data-fips="TH07" data-hasc="TH.PR" data-name="Phrae" data-postal="PR" data-varname=""/><path d="M229,109L230,108L231,108L231,107L232,105L232,104L233,102L234,102L234,101L234,100L234,99L234,98L235,97L236,96L238,95L238,95L237,94L237,93L237,92L237,91L238,90L238,88L239,87L238,86L237,86L237,85L236,84L235,84L234,83L234,82L233,81L234,80L234,79L235,78L233,77L234,76L235,75L235,74L235,74L234,74L233,74L232,75L232,76L231,77L230,78L229,79L228,80L226,81L225,82L224,82L223,82L222,82L219,83L218,83L217,84L217,85L217,87L215,88L214,88L211,88L210,88L209,88L208,89L209,90L210,91L211,92L213,93L214,94L214,95L213,96L212,96L211,96L210,97L209,97L208,99L208,100L209,101L208,103L209,104L210,105L211,105L211,106L212,106L214,106L215,105L216,104L217,104L218,105L219,106L220,106L221,105L222,106L223,105L225,106L225,107L225,108L226,109Z " data-fips="TH12" data-hasc="TH.PS" data-name="Phitsanulok" data-postal="PS" data-varname="Bisnulok|Phisanulauk|Phitsnulok|Pitsanuloke"/><path d="M208,100L208,99L209,97L210,97L211,96L212,96L213,96L214,95L214,94L213,93L211,92L210,91L209,90L208,89L209,88L210,88L210,87L210,86L211,85L211,84L211,82L211,81L211,80L210,79L209,78L209,77L210,76L210,75L209,73L209,72L206,71L205,72L204,73L203,73L202,72L201,71L200,71L199,71L197,73L197,74L197,75L197,76L196,77L196,78L196,79L196,80L196,81L196,82L197,83L197,84L197,85L197,86L196,87L195,87L194,86L193,86L193,89L192,90L192,92L192,93L192,94L193,95L194,96L195,96L196,96L198,96L199,97L199,98L203,100L204,100L206,100L207,100L209,101Z " data-fips="TH09" data-hasc="TH.SO" data-name="Sukhothai" data-postal="SO" data-varname="Sawankhalokt|Sukhotai|Sukothai|Svargalok"/><path d="M211,88L214,88L215,88L217,87L217,85L217,84L218,83L219,83L222,82L223,82L224,82L225,82L226,81L228,80L229,79L230,78L231,77L232,76L232,75L233,74L234,74L235,74L235,74L235,73L235,72L235,71L236,70L236,69L237,68L238,67L239,66L240,65L240,64L240,63L240,62L240,60L240,59L240,58L240,57L238,56L236,57L235,58L234,59L234,60L233,61L233,62L232,63L231,64L230,65L229,65L228,65L227,65L226,65L225,65L223,65L222,65L221,65L221,66L220,67L220,68L219,68L218,67L217,67L216,68L215,69L214,70L213,70L211,70L210,71L210,72L209,71L209,72L209,73L210,75L210,76L209,77L209,78L210,79L211,80L211,81L211,82L211,84L211,85L210,86L210,87L210,88Z " data-fips="TH10" data-hasc="TH.UD" data-name="Uttaradit" data-postal="UD" data-varname=""/><path d="M189,181L190,180L191,180L192,180L193,180L197,179L197,180L198,180L199,179L200,179L202,179L203,179L204,179L205,179L205,178L206,177L207,175L207,175L206,174L205,173L205,172L204,171L204,169L205,168L206,167L206,166L205,165L206,159L207,158L206,157L207,156L206,156L204,155L203,154L201,152L200,152L199,152L198,152L198,153L198,154L197,155L196,154L196,153L195,153L194,153L192,151L192,150L192,149L192,148L192,147L190,147L189,146L188,146L187,146L186,146L184,144L184,143L184,142L184,141L183,140L182,139L181,138L180,137L179,136L179,135L178,134L177,133L175,130L174,129L174,129L173,128L173,129L173,130L173,134L173,136L173,137L172,138L172,137L171,136L170,137L169,137L168,138L168,139L167,139L166,139L165,140L164,140L163,141L163,142L163,143L163,144L163,146L163,147L164,148L164,149L164,151L164,152L166,154L169,158L170,159L171,159L172,163L174,165L175,166L176,166L178,168L181,170L182,171L183,172L183,173L184,174L184,175L186,176L186,177L186,178L187,180L188,181Z " data-fips="TH50" data-hasc="TH.KN" data-name="Kanchanaburi" data-postal="KN" data-varname="Kan Buri|Park Prag"/><path d="M203,124L204,122L205,121L205,120L206,119L208,118L208,117L209,114L209,113L209,112L210,111L210,110L210,109L211,106L211,105L210,105L209,104L208,103L207,100L206,100L204,100L203,100L199,98L199,97L198,96L196,96L195,96L194,96L193,96L193,98L192,99L192,100L192,101L191,102L191,103L191,105L190,105L189,106L188,106L187,107L186,107L185,107L184,108L185,109L185,110L185,111L184,112L185,114L185,115L185,116L185,119L186,120L186,121L187,122L187,123L187,123L188,122L189,122L190,121L191,122L192,123L193,122L194,122L196,122L197,122L198,122L199,122L200,123L201,124L201,125L202,125Z " data-fips="TH11" data-hasc="TH.KP" data-name="Kamphaeng Phet" data-postal="KP" data-varname="Gampheang Phet|Kambhengbhej"/><path d="M219,121L220,122L222,122L223,122L224,122L225,121L227,121L228,121L229,122L230,120L230,120L229,119L227,118L227,117L227,115L228,114L228,113L228,112L226,109L225,108L225,107L225,106L223,105L222,106L221,105L220,106L219,106L218,105L217,104L216,104L215,105L214,106L212,106L211,106L210,109L210,110L210,111L211,112L211,114L212,115L213,116L213,117L214,118L214,120L215,121L216,122L217,122L218,122Z " data-fips="TH13" data-hasc="TH.PC" data-name="Phichit" data-postal="PC" data-varname=""/><path d="M245,137L246,136L246,134L246,133L246,132L246,130L247,128L246,127L245,126L245,123L246,123L246,121L245,120L245,119L245,118L245,114L246,113L246,112L247,110L247,109L248,108L248,107L249,106L249,105L249,103L250,102L250,101L251,102L252,101L253,101L254,101L255,102L256,101L257,100L256,99L255,99L255,97L255,96L255,95L254,94L253,92L252,92L251,93L250,93L249,91L247,91L246,91L245,91L244,91L243,90L242,90L241,90L241,91L241,92L240,92L240,93L239,94L239,95L238,95L236,96L235,97L234,98L234,99L234,100L234,101L234,102L233,102L232,104L232,105L231,107L231,108L230,108L229,109L228,112L228,113L228,114L227,115L227,117L227,118L229,119L230,120L230,120L231,123L231,124L231,125L232,128L232,129L232,130L231,131L230,133L230,133L232,134L233,134L234,134L236,134L238,135L239,135L239,136L241,136L242,136L243,137L243,138Z " data-fips="TH14" data-hasc="TH.PH" data-name="Phetchabun" data-postal="PH" data-varname=""/><path d="M207,172L208,171L210,170L211,170L214,170L215,169L216,169L217,167L217,165L218,163L217,162L217,161L217,161L216,160L215,159L216,158L216,157L216,155L216,154L216,153L216,152L216,151L216,150L215,149L216,148L214,149L213,148L212,148L211,149L210,149L209,149L207,149L205,148L203,148L202,147L201,147L200,148L199,148L198,147L195,147L194,146L193,145L192,145L192,146L192,147L192,148L192,149L192,150L192,151L194,153L195,153L196,153L196,154L197,155L198,154L198,153L198,152L199,152L200,152L201,152L203,154L204,155L206,156L207,156L206,157L207,158L206,159L205,165L206,166L206,167L205,168L204,169L204,171L205,172Z " data-fips="TH51" data-hasc="TH.SH" data-name="Suphan Buri" data-postal="SH" data-varname=""/><path d="M184,140L185,139L185,138L185,137L186,135L186,134L185,133L186,131L187,130L187,129L187,128L188,127L188,126L187,125L187,124L187,123L187,122L186,121L186,120L185,119L185,116L185,115L185,114L184,112L185,111L185,110L185,109L184,108L185,107L186,107L187,107L188,106L189,106L190,105L191,105L191,103L191,102L192,101L192,100L192,99L193,98L193,96L194,96L193,95L192,94L192,93L192,92L192,90L193,89L193,86L192,84L192,83L192,82L191,82L190,83L189,84L188,83L187,83L186,82L185,82L185,80L186,79L186,78L185,77L185,76L184,76L183,75L182,76L182,77L182,78L180,79L179,80L178,80L178,77L177,76L177,75L178,74L178,73L177,72L176,73L176,74L175,74L175,76L175,76L174,77L173,78L173,79L173,80L174,81L174,82L173,83L174,84L173,85L172,85L170,86L169,85L168,85L168,84L168,82L168,81L167,80L168,79L167,77L166,77L166,75L167,74L167,74L166,74L165,75L163,75L162,75L159,77L157,77L157,77L157,78L158,79L159,79L160,80L160,81L161,82L162,83L162,84L164,86L165,87L166,89L166,90L167,91L169,91L170,92L170,93L171,94L171,95L172,96L172,97L172,98L171,99L171,100L172,101L172,102L173,103L173,104L174,105L175,107L175,108L175,109L176,111L177,112L178,111L179,109L181,108L182,109L182,110L182,111L182,113L181,113L180,114L180,116L179,117L178,116L176,116L175,117L175,118L174,118L173,119L174,120L174,121L173,122L173,124L172,127L173,128L174,129L174,129L175,130L177,133L178,134L179,135L179,136L180,137L181,138L182,139L183,140L184,141Z " data-fips="TH08" data-hasc="TH.TK" data-name="Tak" data-postal="TK" data-varname=""/><path d="M201,147L202,147L203,148L203,147L204,146L205,145L205,144L204,142L203,141L203,140L203,139L204,138L205,138L208,139L209,139L210,139L211,139L212,139L212,138L212,137L211,136L212,135L209,133L208,132L207,131L207,130L206,130L205,130L204,129L202,128L201,129L201,130L199,130L199,131L198,131L197,132L196,131L195,130L194,130L194,129L191,128L190,127L190,126L189,126L188,126L188,127L187,128L187,129L187,130L186,131L185,133L186,134L186,135L185,137L185,138L185,139L184,140L184,141L184,142L184,143L184,144L186,146L187,146L188,146L189,146L190,147L192,147L192,146L192,145L193,145L194,146L195,147L198,147L199,148L200,148Z " data-fips="TH15" data-hasc="TH.UT" data-name="Uthai Thani" data-postal="UT" data-varname=""/><path d="M223,161L223,158L224,157L224,155L221,154L220,153L219,152L218,152L216,152L216,153L216,154L216,155L216,157L216,158L215,159L216,160L217,161L217,161L218,160L219,160L220,160L221,161L221,162L223,162Z " data-fips="TH35" data-hasc="TH.AT" data-name="Ang Thong" data-postal="AT" data-varname=""/><path d="M211,149L212,148L213,148L214,149L216,148L218,148L218,146L217,146L218,145L218,143L217,139L216,137L215,137L213,135L211,136L212,137L212,138L212,139L211,139L210,139L209,139L208,139L205,138L204,138L203,139L203,140L203,141L204,142L205,144L205,145L204,146L203,147L205,148L207,149L209,149L210,149Z " data-fips="TH32" data-hasc="TH.CN" data-name="Chai Nat" data-postal="CN" data-varname="Chainat"/><path d="M227,155L228,154L229,153L229,152L231,151L231,150L232,150L233,151L233,152L234,153L234,154L235,153L236,152L237,151L239,151L240,152L241,152L242,154L243,154L244,154L245,153L245,152L247,151L248,150L248,149L247,146L245,145L244,144L244,144L244,141L244,140L243,138L243,137L242,136L241,136L239,136L239,135L238,135L236,134L234,134L233,134L232,134L230,133L230,135L229,136L226,138L225,140L224,140L224,141L223,142L223,143L223,144L222,146L222,148L222,149L222,150L223,151L223,153L224,155L225,156Z " data-fips="TH34" data-hasc="TH.LB" data-name="Lop Buri" data-postal="LB" data-varname=""/><path d="M235,175L238,174L240,174L241,173L242,172L243,172L244,172L245,171L244,170L245,169L247,167L247,166L248,167L249,166L250,165L249,165L249,164L248,163L245,161L244,160L243,161L242,161L242,162L241,164L240,164L239,163L238,163L237,164L237,165L236,166L235,166L235,167L234,173L234,175Z " data-fips="TH43" data-hasc="TH.NN" data-name="Nakhon Nayok" data-postal="NN" data-varname="Nakon Nayok"/><path d="M259,181L260,180L260,179L259,177L259,176L259,175L260,174L260,173L261,172L262,172L263,171L264,170L263,168L262,167L261,166L262,165L262,164L261,163L260,164L260,163L259,164L258,164L257,164L256,165L255,164L254,163L253,162L252,162L250,162L249,161L248,162L248,163L249,164L249,165L250,165L249,166L248,167L247,166L247,167L245,169L244,170L245,171L244,172L243,172L242,172L241,173L240,174L240,176L240,177L241,177L242,177L243,177L244,177L246,178L251,180L252,180L253,180L254,180L255,179L256,179L257,180L257,181L258,181Z " data-fips="TH74" data-hasc="TH.PB" data-name="Prachin Buri" data-postal="PB" data-varname=""/><path d="M223,144L223,143L223,142L224,141L224,140L225,140L226,138L229,136L230,135L230,133L230,133L231,131L232,130L232,129L232,128L231,125L231,124L231,123L229,122L228,121L227,121L225,121L224,122L223,122L222,122L220,122L219,121L218,122L217,122L216,122L215,121L214,120L214,118L213,117L213,116L212,115L211,114L211,112L210,111L209,112L209,113L209,114L208,117L208,118L206,119L205,120L205,121L204,122L203,124L202,125L201,125L201,124L200,123L199,122L198,122L197,122L196,122L194,122L193,122L192,123L191,122L190,121L189,122L188,122L187,123L187,123L187,124L187,125L188,126L189,126L190,126L190,127L191,128L194,129L194,130L195,130L196,131L197,132L198,131L199,131L199,130L201,130L201,129L202,128L204,129L205,130L206,130L207,130L207,131L208,132L209,133L212,135L213,135L215,137L216,137L217,139L219,143L219,144L220,144Z " data-fips="TH16" data-hasc="TH.NS" data-name="Nakhon Sawan" data-postal="NS" data-varname=""/><path d="M225,171L226,170L227,169L232,167L232,167L232,165L231,165L231,163L230,163L230,162L230,161L230,160L230,158L229,158L228,159L227,159L226,159L225,157L225,156L224,155L224,157L223,158L223,161L223,162L221,162L221,161L220,160L219,160L218,160L217,161L217,162L218,163L217,165L217,167L216,169L216,169L218,170L218,170L222,171L223,171Z " data-fips="TH36" data-hasc="TH.PA" data-name="Phra Nakhon Si Ayutthaya" data-postal="PA" data-varname="Phranakhon Si Ayutthaya|Ayudhya|Ayutthaya|Phranakhornsri-ayuthaya"/><path d="M233,175L234,175L234,175L234,173L233,167L232,167L227,169L226,170L225,171L223,171L222,171L219,172L219,173L220,174L221,174L223,175L225,175L226,175L228,176Z " data-fips="TH39" data-hasc="TH.PT" data-name="Pathum Thani" data-postal="PT" data-varname=""/><path d="M223,153L223,151L222,150L222,149L222,148L222,146L220,144L219,144L219,143L218,143L218,145L217,146L218,146L218,148L216,148L215,149L216,150L216,151L216,152L218,152L219,152L220,153L221,154Z " data-fips="TH33" data-hasc="TH.SB" data-name="Sing Buri" data-postal="SB" data-varname=""/><path d="M233,167L235,167L235,166L236,166L237,165L237,164L238,163L239,163L240,164L241,164L242,162L242,161L243,161L242,160L241,159L242,158L241,152L240,152L239,151L237,151L236,152L235,153L234,154L234,153L233,152L233,151L232,150L231,150L231,151L229,152L229,153L228,154L227,155L225,157L226,159L227,159L228,159L229,158L230,158L230,160L230,161L230,162L230,163L231,163L231,165L232,165L232,167L232,167Z " data-fips="TH37" data-hasc="TH.SR" data-name="Saraburi" data-postal="SR" data-varname="Sara Buri"/><path d="M222,187L222,185L223,184L224,183L225,182L226,182L226,183L228,183L228,182L229,182L230,181L231,182L233,181L234,180L234,179L234,178L234,175L233,175L228,176L226,175L225,175L223,178L222,179L221,179L219,179L219,180L219,181L220,183L220,184L221,186L221,187Z " data-fips="TH40" data-hasc="TH.BM" data-name="Bangkok Metropolis" data-postal="BM" data-varname="Bangkok|Krung Thep|Krung Thep Maha Nakhon|Phra Nakhon-Thonburi"/><path d="M223,178L225,175L223,175L221,174L220,174L219,173L219,172L218,170L218,172L217,173L217,174L218,175L218,176L218,177L218,178L219,179L221,179L222,179Z " data-fips="TH38" data-hasc="TH.NO" data-name="Nonthaburi" data-postal="NO" data-varname=""/><path d="M217,183L217,182L219,181L219,180L219,179L218,178L218,177L218,176L218,175L217,174L217,173L218,172L218,170L216,169L216,169L215,169L214,170L211,170L210,170L208,171L207,172L205,172L205,173L206,174L207,175L207,175L207,175L208,176L209,176L209,178L209,179L209,180L209,181L210,181L211,181L211,182L213,182L215,182L216,183Z " data-fips="TH53" data-hasc="TH.NP" data-name="Nakhon Pathom" data-postal="NP" data-varname=""/><path d="M201,212L201,212L203,212L204,212L205,211L208,211L209,210L209,210L209,208L209,207L210,206L211,204L211,202L212,201L213,199L212,198L212,197L212,196L210,195L209,193L209,193L208,193L207,194L207,194L206,193L206,192L204,192L202,192L201,193L201,195L201,195L199,195L198,195L197,196L196,196L194,195L193,194L192,195L192,196L191,196L190,196L189,195L188,195L187,195L187,196L187,198L186,199L187,200L188,201L188,202L188,203L188,204L189,205L189,207L190,208L191,209L191,210L192,210L193,211L194,212L195,212L196,212L197,212L199,213Z " data-fips="TH56" data-hasc="TH.PE" data-name="Phetchaburi" data-postal="PE" data-varname="Phetcha Buri|Bejraburi|Petchburi|Phet Buri|Tetchburit"/><path d="M195,255L196,255L197,255L197,254L197,253L197,252L197,250L197,249L199,250L199,249L198,247L199,245L199,244L200,243L200,242L201,240L201,239L203,235L204,235L205,234L205,233L206,232L205,231L206,230L206,228L209,226L210,224L210,223L211,222L210,221L210,220L210,217L209,215L209,212L209,210L208,211L205,211L204,212L203,212L201,212L201,212L199,213L197,212L196,212L195,212L194,212L194,213L194,214L194,216L195,217L195,220L196,221L196,222L196,223L196,224L198,224L198,225L197,227L199,228L199,229L198,230L198,231L199,232L200,233L200,235L198,237L196,238L195,238L195,239L195,241L195,242L193,243L193,244L192,246L191,247L190,249L189,252L188,252L187,253L188,254L189,255L190,256L192,255L193,256L194,256Z " data-fips="TH57" data-hasc="TH.PK" data-name="Prachuap Khiri Khan" data-postal="PK" data-varname="Korh Luxk|Prachuab Girikhand|Prachuapkirikhan|Prachut Khirikhan"/><path d="M192,196L192,195L193,194L194,195L196,196L197,196L198,195L199,195L201,195L201,195L201,193L202,192L204,192L206,192L207,190L207,189L208,188L208,187L209,187L210,187L211,186L212,184L212,183L211,182L211,181L210,181L209,181L209,180L209,179L209,178L209,176L208,176L207,175L207,175L206,177L205,178L205,179L204,179L203,179L202,179L200,179L199,179L198,180L197,180L197,179L193,180L192,180L191,180L190,180L189,181L188,181L188,181L188,183L188,185L189,190L189,192L188,193L189,194L189,195L190,196L191,196Z " data-fips="TH52" data-hasc="TH.RT" data-name="Ratchaburi" data-postal="RT" data-varname=""/><path d="M233,187L233,186L234,185L234,185L235,184L234,183L231,182L230,181L229,182L228,182L228,183L226,183L226,182L225,182L224,183L223,184L222,185L222,187L225,186L226,185L226,186L228,187L230,187L232,188Z " data-fips="TH42" data-hasc="TH.SP" data-name="Samut Prakan" data-postal="SP" data-varname="Pak Nam|Samudh Prakarn|Samudraprakar|Samut Phrakhan"/><path d="M214,189L217,188L218,187L219,187L221,187L221,186L220,184L220,183L219,181L217,182L217,183L216,183L215,182L213,182L212,183L212,184L211,186L212,189Z " data-fips="TH55" data-hasc="TH.SS" data-name="Samut Sakhon" data-postal="SS" data-varname="Krokkrak Maha Chai|Mahachai|Samudrasagara"/><path d="M208,193L209,193L209,193L209,193L210,192L211,191L211,190L212,189L210,187L209,187L208,187L208,188L207,189L207,190L206,192L206,193L207,194L207,194Z " data-fips="TH54" data-hasc="TH.SM" data-name="Samut Songkhram" data-postal="SM" data-varname="Mae Klong|Samudrasonggram"/><path d="M318,163L319,163L320,163L321,162L322,162L323,163L326,163L327,163L328,163L330,163L331,162L332,162L333,161L334,162L335,161L336,162L337,162L339,162L339,162L338,161L337,161L337,160L337,159L336,158L337,155L338,155L338,154L337,153L336,151L336,150L335,149L334,148L333,148L333,147L332,146L332,144L332,142L333,142L333,141L332,140L331,139L330,139L329,139L328,139L327,139L326,139L325,138L325,138L324,137L323,137L322,137L321,136L319,133L318,132L318,131L317,131L316,132L316,133L315,134L314,135L315,135L316,136L316,137L315,138L314,139L314,140L314,141L314,142L314,143L315,144L315,145L314,147L314,147L313,148L313,150L313,151L314,151L315,152L315,154L316,155L316,156L316,158L316,159L316,161L316,163Z " data-fips="TH30" data-hasc="TH.SI" data-name="Si Sa Ket" data-postal="SI" data-varname="Sisaket|Khukhan|Khukhandh|Srisaket"/><path d="M343,166L344,165L345,164L346,163L348,163L348,162L349,162L350,161L352,161L352,160L353,159L354,158L354,156L354,154L353,152L353,151L354,150L354,149L355,148L355,147L356,146L355,145L353,144L352,142L352,141L352,140L353,139L355,138L355,137L354,137L353,136L353,135L355,135L355,134L356,133L356,131L357,130L357,128L357,127L356,126L355,125L353,125L352,125L351,124L350,122L349,121L350,119L350,118L347,117L346,117L343,116L343,116L342,117L341,119L341,121L341,122L340,122L341,124L340,125L340,126L338,130L339,131L338,133L337,133L337,132L335,132L335,131L334,131L333,130L332,129L331,129L331,130L331,131L330,131L327,130L328,131L327,132L326,132L325,132L325,133L324,134L324,135L326,136L325,137L325,138L326,139L327,139L328,139L329,139L330,139L331,139L332,140L333,141L333,142L332,142L332,144L332,146L333,147L333,148L334,148L335,149L336,150L336,151L337,153L338,154L338,155L337,155L336,158L337,159L337,160L337,161L338,161L339,162L339,162L340,162L340,163L340,165L341,166L342,167Z " data-fips="TH75" data-hasc="TH.UR" data-name="Ubon Ratchathani" data-postal="UR" data-varname=""/><path d="M338,133L339,131L338,130L340,126L340,125L341,124L340,122L341,122L341,121L341,119L342,117L343,116L343,116L342,116L341,115L341,114L340,112L339,111L339,112L338,112L337,113L335,115L334,115L331,115L329,116L329,117L328,118L327,119L327,120L326,121L326,122L326,123L325,124L325,126L325,127L326,128L326,129L326,130L327,130L330,131L331,131L331,130L331,129L332,129L333,130L334,131L335,131L335,132L337,132L337,133Z " data-fips="TH77" data-hasc="TH.AC" data-name="Amnat Charoen" data-postal="AC" data-varname=""/><path d="M325,137L326,136L324,135L324,134L325,133L325,132L326,132L327,132L328,131L327,130L326,130L326,129L326,128L325,127L325,126L325,124L326,123L326,122L326,121L327,120L327,119L328,118L329,117L329,116L331,115L334,115L335,115L335,114L332,113L331,112L331,113L330,113L329,112L328,111L327,111L327,110L325,110L324,110L322,112L321,113L320,114L320,115L319,115L318,116L317,117L317,118L317,119L316,120L315,120L314,120L314,122L315,122L315,124L314,125L316,124L316,123L317,124L318,125L318,126L317,127L318,128L319,129L319,130L318,131L318,132L319,133L321,136L322,137L323,137L324,137L325,138L325,138Z " data-fips="TH72" data-hasc="TH.YS" data-name="Yasothon" data-postal="YS" data-varname=""/><path d="M236,210L236,210L236,207L237,206L238,205L238,204L239,203L239,202L239,201L238,200L239,200L241,199L241,199L243,199L244,199L245,199L246,199L247,200L248,200L249,200L250,199L251,199L251,198L252,197L253,197L255,196L254,194L253,193L252,192L251,192L251,191L250,190L249,189L248,189L247,188L246,188L245,188L244,186L243,186L242,185L240,185L239,186L238,186L238,187L237,188L236,188L236,189L236,190L236,191L235,192L234,193L235,194L235,196L234,197L233,198L234,199L235,200L234,201L234,202L233,203L234,205L234,206L234,207L233,207L233,209L233,210L234,210L234,211L236,212Z " data-fips="TH46" data-hasc="TH.CB" data-name="Chon Buri" data-postal="CB" data-varname=""/><path d="M258,195L259,194L260,194L260,193L261,193L262,192L262,189L261,188L262,187L262,186L262,185L261,185L260,185L260,183L260,182L259,181L258,181L257,181L257,180L256,179L255,179L254,180L253,180L252,180L251,180L246,178L244,177L243,177L242,177L241,177L240,177L240,176L238,174L235,175L234,175L234,175L234,178L234,179L234,180L233,181L234,183L235,184L234,185L234,185L233,186L233,187L232,188L233,188L236,188L237,188L238,187L238,186L239,186L240,185L242,185L243,186L244,186L245,188L246,188L247,188L248,189L249,189L250,190L251,191L251,192L252,192L253,193L254,194L255,196L257,196Z " data-fips="TH44" data-hasc="TH.CC" data-name="Chachoengsao" data-postal="CC" data-varname="Chaxerngsao|Pad Rew|Paed Riu|Petrieu|Shajeun Dhrao"/><path d="M270,218L269,217L268,217L269,216L270,216L270,217L271,216L270,217L270,219L271,219L272,218L272,218L273,217L272,216L272,215L272,214L271,213L272,212L273,212L273,211L273,209L275,208L276,207L276,207L276,206L275,205L275,204L275,202L275,201L275,200L274,199L273,198L273,197L271,193L271,194L270,194L270,195L269,195L268,194L267,195L266,195L265,196L263,196L263,195L263,194L263,193L262,192L261,193L260,193L260,194L259,194L258,195L257,196L255,198L256,200L256,201L256,202L257,202L258,204L258,206L257,207L257,209L258,209L259,210L259,211L260,212L261,213L262,212L262,213L263,214L264,214L264,213L263,212L264,213L266,213L265,214L265,215L266,216L267,217L269,219L270,219Z " data-fips="TH48" data-hasc="TH.CT" data-name="Chanthaburi" data-postal="CT" data-varname="Chantaburi|Muang Chan"/><path d="M265,196L266,195L267,195L268,194L269,195L270,195L270,194L271,194L271,193L271,193L271,191L271,190L271,187L271,186L271,185L272,185L274,185L277,185L278,184L277,184L277,182L278,182L280,180L281,180L281,179L282,178L282,176L283,175L285,173L285,172L286,170L286,169L286,169L285,169L284,169L283,170L280,170L279,170L278,170L277,170L277,171L276,171L275,170L274,170L273,170L272,169L271,170L270,170L268,170L268,169L267,169L266,170L266,170L265,169L264,170L263,171L262,172L261,172L260,173L260,174L259,175L259,176L259,177L260,179L260,180L259,181L260,182L260,183L260,185L261,185L262,185L262,186L262,187L261,188L262,189L262,192L263,193L263,194L263,195L263,196Z " data-fips="TH80" data-hasc="TH.SK" data-name="Sa Kaeo" data-postal="SK" data-varname="Srakaeo"/><path d="M249,211L251,211L252,210L253,210L254,209L255,209L257,209L257,207L258,206L258,204L257,202L256,202L256,201L256,200L255,198L253,197L252,197L251,198L251,199L250,199L249,200L248,200L247,200L246,199L245,199L244,199L243,199L241,199L241,199L239,200L238,200L239,201L239,202L239,203L238,204L238,205L237,206L236,207L236,210L236,210L236,210L237,210L239,209L243,210L245,210L247,211L248,212Z " data-fips="TH47" data-hasc="TH.RY" data-name="Rayong" data-postal="RY" data-varname=""/><path d="M278,238L279,236L278,235L277,234L277,237L277,238L278,238L279,239Z M274,227L273,227L273,226L272,224L271,224L270,223L270,224L271,226L271,228L272,228L273,227L274,229Z M287,235L287,234L286,233L285,231L284,229L284,227L283,226L281,224L281,223L282,218L282,217L283,216L282,215L281,214L280,213L278,211L277,210L275,210L275,209L276,207L275,208L273,209L273,211L273,212L272,212L271,213L272,214L272,215L272,216L273,217L272,218L272,218L272,219L271,220L270,220L270,221L270,222L271,223L272,222L276,224L277,225L278,226L278,225L278,222L279,222L279,223L283,227L283,228L283,230L285,231L286,234L287,235L287,236Z " data-fips="TH49" data-hasc="TH.TT" data-name="Trat" data-postal="TT" data-varname=""/><path d="M283,170L284,169L285,169L286,169L286,169L286,168L287,168L289,167L291,165L292,165L294,165L295,164L295,163L295,162L295,161L295,160L295,158L295,157L295,156L296,155L296,153L296,152L297,151L298,151L299,150L300,149L300,148L300,146L301,146L300,145L300,143L300,142L300,141L300,140L301,139L301,138L300,137L299,138L298,137L298,137L297,138L295,138L294,137L294,137L293,136L292,135L291,135L291,133L290,133L290,132L290,131L289,130L288,129L288,128L288,127L288,126L287,125L285,126L285,128L285,129L284,130L283,129L283,131L283,132L284,133L285,133L286,133L287,133L288,134L289,135L288,135L287,137L288,137L288,138L288,139L288,140L288,141L287,142L286,142L285,142L284,143L283,145L282,146L282,147L280,148L279,148L277,148L276,148L277,149L277,150L277,152L276,152L275,151L274,151L275,153L275,154L275,155L276,157L275,159L276,160L277,162L277,163L278,164L279,166L278,167L278,168L278,170L279,170L280,170Z " data-fips="TH28" data-hasc="TH.BR" data-name="Buri Ram" data-postal="BR" data-varname="Buri Rum"/><path d="M251,140L252,139L253,138L254,138L255,138L257,137L258,136L259,137L260,136L260,135L261,134L261,133L261,131L262,131L263,129L264,130L266,129L266,128L267,127L268,126L269,126L271,124L271,123L272,122L272,121L272,120L271,119L269,118L270,117L271,116L271,115L272,114L273,113L273,111L274,109L273,108L273,107L272,108L271,108L270,107L268,107L267,106L266,106L264,106L263,106L262,105L262,104L261,103L260,103L258,102L257,102L255,102L254,101L253,101L252,101L251,102L250,101L250,102L249,103L249,105L249,106L248,107L248,108L247,109L247,110L246,112L246,113L245,114L245,118L245,119L245,120L246,121L246,123L245,123L245,126L246,127L247,128L246,130L246,132L246,133L246,134L246,136L245,137L246,140L246,140L247,141Z " data-fips="TH26" data-hasc="TH.CY" data-name="Chaiyaphum" data-postal="CY" data-varname=""/><path d="M285,129L285,128L285,126L287,125L287,124L287,123L286,122L286,121L286,120L285,119L284,118L285,116L285,115L284,114L284,112L285,112L286,110L286,110L287,109L287,107L289,107L290,106L291,105L291,104L292,103L292,102L292,101L292,100L293,98L293,97L292,96L291,97L291,96L286,97L285,96L284,96L283,94L283,93L282,92L280,91L280,93L278,97L277,99L276,99L275,98L274,98L273,98L271,98L271,97L270,96L269,96L268,96L267,97L266,96L265,96L264,96L264,96L263,97L262,97L260,97L259,98L257,100L256,101L257,102L258,102L260,103L261,103L262,104L262,105L263,106L264,106L266,106L267,106L268,107L270,107L271,108L272,108L273,107L273,108L274,109L273,111L273,113L272,114L271,115L271,116L270,117L269,118L271,119L272,120L272,121L272,122L271,123L271,124L271,126L272,126L272,127L273,128L274,128L276,127L278,127L279,127L280,127L281,128L282,129L283,129L284,130Z " data-fips="TH22" data-hasc="TH.KK" data-name="Khon Kaen" data-postal="KK" data-varname=""/><path d="M306,113L307,113L307,112L307,111L307,110L307,109L309,107L311,107L312,107L313,107L314,107L315,107L316,109L318,107L319,107L320,107L320,106L320,105L319,103L318,102L318,101L318,100L317,99L316,98L316,97L315,96L314,96L313,97L313,97L312,98L311,97L309,96L308,95L308,94L308,93L306,92L305,92L304,91L304,90L302,90L301,91L301,92L301,93L300,94L300,95L300,96L299,97L299,96L298,95L297,95L295,94L295,94L293,94L292,94L291,94L291,96L291,97L292,96L293,97L293,98L292,100L292,101L292,102L293,103L293,104L293,105L293,107L293,108L293,109L294,110L296,109L297,110L298,111L299,112L299,113L300,114L303,114L304,114L305,114Z " data-fips="TH23" data-hasc="TH.KL" data-name="Kalasin" data-postal="KL" data-varname=""/><path d="M299,135L300,133L299,132L298,132L297,132L296,130L296,129L297,127L298,127L300,127L301,122L301,121L301,120L301,118L300,117L300,116L300,114L299,113L299,112L298,111L297,110L296,109L294,110L293,109L293,108L293,107L293,105L293,104L293,103L292,102L292,103L291,104L291,105L290,106L289,107L287,107L287,109L286,110L286,110L285,112L284,112L284,114L285,115L285,116L284,118L285,119L286,120L286,121L286,122L287,123L287,124L287,125L288,126L288,127L288,128L288,129L289,130L290,131L290,132L290,133L291,133L295,134L296,135L296,135L298,135Z " data-fips="TH24" data-hasc="TH.MS" data-name="Maha Sarakham" data-postal="MS" data-varname=""/><path d="M277,170L278,170L278,168L278,167L279,166L278,164L277,163L277,162L276,160L275,159L276,157L275,155L275,154L275,153L274,151L275,151L276,152L277,152L277,150L277,149L276,148L277,148L279,148L280,148L282,147L282,146L283,145L284,143L285,142L286,142L287,142L288,141L288,140L288,139L288,138L288,137L287,137L288,135L289,135L288,134L287,133L286,133L285,133L284,133L283,132L283,131L283,129L282,129L281,128L280,127L279,127L278,127L276,127L274,128L273,128L272,127L272,126L271,126L269,126L268,126L267,127L266,128L266,129L264,130L263,129L262,131L261,131L261,133L261,134L260,135L260,136L259,137L258,136L257,137L255,138L254,138L253,138L252,139L251,140L247,141L246,140L246,140L244,140L244,141L244,144L244,144L245,145L247,146L248,149L248,150L247,151L245,152L245,153L244,154L243,154L242,154L242,158L241,159L242,160L243,161L244,160L245,161L248,162L249,161L250,162L252,162L253,162L254,163L255,164L256,165L257,164L258,164L259,164L260,163L260,164L261,163L262,164L262,165L261,166L262,167L263,168L265,169L266,170L266,170L267,169L268,169L268,170L270,170L271,170L272,169L273,170L274,170L275,170L276,171L277,171Z " data-fips="TH32" data-hasc="TH.NR" data-name="Nakhon Ratchasima" data-postal="NR" data-varname="Khorat|Nagara Rajasima|Nakaun Rachasima"/><path d="M315,134L316,133L316,132L317,131L318,131L319,130L319,129L318,128L317,127L318,126L318,125L317,124L316,123L316,124L314,125L315,124L315,122L314,122L314,120L315,120L316,120L317,119L317,118L317,117L318,116L319,115L320,115L320,114L321,113L322,112L322,110L322,108L321,107L320,107L319,107L318,107L316,109L315,107L314,107L313,107L312,107L311,107L309,107L307,109L307,110L307,111L307,112L307,113L306,113L305,114L304,114L303,114L300,116L300,117L301,118L301,120L301,121L301,122L300,127L298,127L297,127L296,129L296,130L297,132L298,132L299,132L300,133L299,135L300,134L301,134L302,134L304,134L305,134L309,134L310,134L311,134L312,134L313,135L314,135Z " data-fips="TH25" data-hasc="TH.RE" data-name="Roi Et" data-postal="RE" data-varname=""/><path d="M296,164L298,164L299,163L300,163L301,163L303,162L304,162L305,161L306,162L306,163L307,163L310,163L311,164L312,164L313,163L315,164L316,163L316,161L316,159L316,158L316,156L316,155L315,154L315,152L314,151L313,151L313,150L313,148L314,147L314,147L315,145L315,144L314,143L314,142L314,141L314,140L314,139L315,138L316,137L316,136L315,135L314,135L313,135L312,134L311,134L310,134L309,134L305,134L304,134L302,134L301,134L300,134L299,135L298,135L296,135L296,135L295,134L291,133L291,135L292,135L293,136L294,137L294,137L295,138L297,138L298,137L298,137L299,138L300,137L301,138L301,139L300,140L300,141L300,142L300,143L300,145L301,146L300,146L300,148L300,149L299,150L298,151L297,151L296,152L296,153L296,155L295,156L295,157L295,158L295,160L295,161L295,162L295,163L295,164Z " data-fips="TH29" data-hasc="TH.SU" data-name="Surin" data-postal="SU" data-varname=""/><path d="M259,98L260,97L262,97L263,97L264,96L264,96L263,95L263,94L264,93L265,93L266,92L265,91L265,90L264,90L263,89L262,89L261,88L261,87L261,86L262,85L262,85L263,84L262,83L262,82L262,81L263,81L264,81L265,80L266,79L265,77L265,76L264,76L263,75L263,73L263,72L263,71L263,69L263,68L263,67L263,66L263,65L263,65L263,63L264,62L265,61L265,60L264,60L259,65L258,64L257,64L256,65L256,66L255,68L252,69L251,69L251,71L251,71L249,72L248,73L247,73L247,74L245,75L242,78L241,79L240,80L240,80L239,80L238,80L237,79L236,78L235,78L234,79L234,80L233,81L234,82L234,83L235,84L236,84L237,85L237,86L238,86L239,87L238,88L238,90L237,91L237,92L237,93L237,94L238,95L238,95L239,95L239,94L240,93L240,92L241,92L241,91L241,90L242,90L243,90L244,91L245,91L246,91L247,91L249,91L250,93L251,93L252,92L253,92L254,94L255,95L255,96L255,97L255,99L256,99Z " data-fips="TH18" data-hasc="TH.LE" data-name="Loei" data-postal="LE" data-varname=""/><path d="M280,76L281,76L282,76L282,75L284,74L284,73L284,72L284,71L285,70L285,69L286,69L287,70L288,70L288,69L289,69L290,69L291,70L292,71L292,70L293,69L295,69L296,70L297,69L298,68L298,67L298,66L299,66L300,65L300,64L301,64L302,64L303,65L304,65L304,66L305,67L306,67L307,68L307,67L307,68L307,69L308,69L310,69L311,69L311,70L312,71L313,71L313,69L313,68L313,67L315,68L315,69L316,69L317,68L316,66L316,65L317,65L318,65L318,65L317,63L316,62L315,59L314,57L312,56L311,57L310,57L309,57L308,56L307,56L305,56L304,55L303,55L301,54L300,54L299,54L297,54L295,54L294,55L294,57L294,58L293,59L291,59L291,61L291,62L290,62L289,63L289,65L289,65L288,66L286,65L285,66L283,67L282,68L280,69L279,70L279,71L277,70L278,68L276,67L274,67L272,66L271,65L270,64L268,63L268,62L267,61L266,60L265,60L265,61L264,62L263,63L264,64L265,65L266,66L267,65L268,66L269,66L270,67L271,68L272,68L272,69L273,71L273,72L274,72L276,73L277,74L278,75L278,76L279,77Z " data-fips="TH17" data-hasc="TH.NK" data-name="Nong Khai" data-postal="NK" data-varname=""/><path d="M313,97L313,97L314,96L315,96L316,97L317,96L317,95L319,95L321,94L322,94L322,93L324,91L323,91L323,89L324,89L324,87L324,86L325,85L325,84L324,83L324,82L324,81L323,81L321,81L320,81L319,81L318,81L317,81L316,82L315,82L315,81L314,79L314,78L314,77L314,76L315,75L315,73L315,72L314,72L313,71L312,71L311,70L311,69L310,69L308,69L307,69L307,68L307,67L307,68L306,67L305,67L304,66L304,65L303,65L302,64L301,64L300,64L300,65L299,66L298,66L298,67L298,68L297,70L297,71L297,72L298,73L298,74L298,75L297,77L296,77L296,78L295,79L295,80L295,81L295,82L295,83L294,84L295,85L296,85L296,86L298,87L299,87L300,87L301,87L303,88L304,89L305,90L305,92L306,92L308,93L308,94L308,95L309,96L311,97L312,98Z " data-fips="TH20" data-hasc="TH.SN" data-name="Sakon Nakhon" data-postal="SN" data-varname=""/><path d="M300,96L300,95L300,94L301,93L301,92L301,91L302,90L304,90L304,91L305,90L304,89L303,88L301,87L300,87L299,87L298,87L296,86L296,85L295,85L294,84L295,83L295,82L295,81L295,80L295,79L296,78L296,77L297,77L298,75L298,74L298,73L297,72L297,71L297,70L297,69L296,70L295,69L293,69L292,70L292,71L291,70L290,69L289,69L288,69L288,70L287,70L286,69L285,69L285,70L284,71L284,72L284,73L284,74L282,75L282,76L281,76L280,76L279,77L278,76L278,75L277,74L276,73L274,72L273,72L273,71L272,69L272,68L271,68L270,67L269,66L268,66L267,65L266,66L265,65L264,64L263,63L263,65L263,65L263,66L263,67L263,68L263,69L263,71L263,72L263,73L263,75L264,76L265,76L265,77L266,76L267,76L268,76L269,76L270,76L272,76L272,78L272,79L273,81L273,82L273,83L274,84L275,85L274,86L275,87L276,87L278,87L277,88L276,88L275,89L276,90L276,91L280,93L280,91L282,92L283,93L283,94L284,96L285,96L286,97L291,94L292,94L293,94L295,94L295,94L297,95L298,95L299,96L299,97Z " data-fips="TH76" data-hasc="TH.UN" data-name="Udon Thani" data-postal="UN" data-varname=""/><path d="M278,97L276,91L276,90L275,89L276,88L277,88L278,87L276,87L275,87L274,86L275,85L274,84L273,83L273,82L273,81L272,79L272,78L272,76L270,76L269,76L268,76L267,76L266,76L265,77L266,79L265,80L264,81L263,81L262,81L262,82L262,83L263,84L262,85L262,85L261,86L261,87L261,88L262,89L263,89L264,90L265,90L265,91L266,92L265,93L264,93L263,94L263,95L264,96L265,96L266,96L267,97L268,96L269,96L270,96L271,97L271,98L273,98L274,98L275,98L276,99L277,99Z " data-fips="TH79" data-hasc="TH.NB" data-name="Nong Bua Lam Phu" data-postal="NB" data-varname="Nong Bua Lamphu"/><path d="M333,98L333,97L333,96L333,95L333,93L333,91L334,87L335,85L334,84L334,82L334,80L333,80L332,79L331,78L330,77L326,75L325,74L324,73L323,72L322,70L320,69L320,67L319,65L318,65L317,65L316,65L316,66L317,68L316,69L315,69L315,68L313,67L313,68L313,69L314,72L315,72L315,73L315,75L314,76L314,77L314,78L314,79L315,81L315,82L316,82L317,81L318,81L319,81L320,81L321,81L323,81L324,81L324,82L324,83L325,84L325,85L324,86L324,87L324,89L323,89L323,91L324,91L322,93L322,94L321,94L321,96L322,96L323,96L324,96L325,96L327,96L328,97L329,96L330,97L331,97L331,98Z " data-fips="TH73" data-hasc="TH.NF" data-name="Nakhon Phanom" data-postal="NF" data-varname=""/><path d="M337,113L338,112L339,112L339,111L339,111L338,110L337,109L337,108L336,107L336,106L334,105L333,105L333,103L333,102L333,101L334,100L333,97L333,98L331,98L331,97L330,97L329,96L328,97L327,96L325,96L324,96L323,96L322,96L321,96L319,95L317,95L317,96L316,97L316,98L317,99L318,100L318,101L318,102L319,103L320,105L320,106L320,107L321,107L322,108L322,110L324,110L325,110L327,110L327,111L328,111L329,112L330,113L331,113L331,112L332,113L335,114Z " data-fips="TH78" data-hasc="TH.MD" data-name="Mukdahan" data-postal="MD" data-varname=""/><path d="M259,395L259,394L260,394L261,393L261,392L261,391L262,389L262,389L264,387L265,386L265,383L265,382L264,381L261,378L258,377L257,376L256,374L255,374L254,372L253,372L252,373L252,375L252,376L251,377L250,377L248,378L247,382L247,383L247,384L248,385L249,387L249,387L250,389L250,391L250,392L250,392L251,392L252,392L253,393L253,394L254,395L255,395L256,395L257,396L258,396Z " data-fips="TH31" data-hasc="TH.NW" data-name="Narathiwat" data-postal="NW" data-varname=""/><path d="M252,373L253,372L254,372L255,374L256,374L254,371L251,366L251,366L249,365L248,365L247,365L245,364L244,364L245,364L246,366L245,365L244,365L242,366L238,366L238,367L237,369L238,370L238,371L239,372L240,373L242,373L243,373L244,372L244,371L245,372L245,373L245,374L247,374L248,374L249,374L250,373L251,374L252,374Z " data-fips="TH69" data-hasc="TH.PI" data-name="Pattani" data-postal="PI" data-varname=""/></g></svg>