<?xml version="1.0" ?><!DOCTYPE svg  PUBLIC '-//W3C//DTD SVG 1.1//EN'  'http://www.w3.org/Graphics/SVG/1.1/DTD/svg11.dtd'><svg enable_background="new 0 0 500 401" height="401px" style="stroke-linejoin: round; stroke:#000; fill:#f6f3f0;" version="1.1" viewBox="0 0 500 401" width="500px" xmlns="http://www.w3.org/2000/svg" xmlns:xlink="http://www.w3.org/1999/xlink"><defs><style type="text/css"><![CDATA[path { fill-rule: evenodd; }
#context path { fill: #eee; stroke: #bbb; } ]]></style></defs><metadata><views><view h="401" padding="0" w="500"><proj id="laea" lat0="23.754" lon0="120.946"/><bbox h="41.76" w="41.81" x="970.04" y="981.06"/><llbbox lat0="-90" lat1="90" lon0="-180" lon1="180"/></view></views></metadata><g id="admin1"><path d="M282,322L282,319L280,316L281,313L283,304L283,300L283,297L284,294L284,291L285,289L292,289L296,288L298,285L302,283L308,286L310,284L313,283L317,287L319,289L323,286L324,286L328,286L328,284L325,282L324,280L323,276L324,272L328,269L329,267L330,262L331,257L330,253L330,250L333,248L334,246L333,244L334,241L337,239L339,238L341,236L348,235L348,234L346,230L344,228L342,227L341,225L342,224L344,223L345,221L344,218L342,215L340,214L338,214L331,218L327,220L326,223L324,225L321,227L318,230L316,232L311,235L308,235L305,235L304,236L304,238L304,240L304,246L300,252L295,259L293,262L290,265L287,267L284,270L282,273L281,275L280,277L277,279L275,280L273,281L272,282L268,282L265,282L258,281L256,280L252,278L253,284L254,286L255,288L256,289L256,290L255,291L255,292L255,294L257,298L259,302L260,303L264,300L266,301L267,302L268,300L270,300L270,302L269,305L270,308L272,311L272,314L270,316L269,318L268,321L269,323L270,326L265,319L270,326L276,331L277,330L278,331Z " data-fips="" data-hasc="TW.TW.KH" data-name="Kaohsiung" data-postal="KH" data-varname="Gaoxiong"/><path d="M269,318L270,316L272,314L272,311L270,308L269,305L270,302L270,300L268,300L267,302L266,301L264,300L260,303L260,304L261,306L261,308L260,310L260,312L262,314L265,317L268,320L268,321Z " data-fips="TW02" data-hasc="TW.KH" data-name="Kaohsiung City" data-postal="KH" data-varname="Gaoxiong Shi"/><path d="M325,397L325,393L324,389L326,388L328,387L329,384L329,381L329,360L327,360L323,358L321,356L320,353L319,351L319,349L318,347L317,346L316,344L316,343L317,341L319,340L320,338L318,336L317,334L317,331L316,328L316,326L315,323L315,317L317,314L318,311L319,309L321,307L325,306L327,305L331,303L331,301L332,299L333,293L330,292L328,291L328,289L324,286L323,286L319,289L317,287L313,283L310,284L308,286L302,283L298,285L296,288L292,289L285,289L284,291L284,294L283,297L283,300L283,304L281,313L280,316L282,319L282,322L278,331L278,331L279,331L281,333L283,334L287,336L289,338L290,340L291,340L292,341L296,344L296,345L298,349L300,352L301,353L309,374L309,376L308,377L308,378L308,383L308,385L308,386L310,390L310,394L311,395L313,395L314,394L314,392L317,393L320,394L323,396L325,399Z " data-fips="" data-hasc="TW.TW.PT" data-name="Pingtung" data-postal="PT" data-varname="Pingdong"/><path d="M273,281L275,280L277,279L280,277L281,275L282,273L284,270L287,267L290,265L293,262L295,259L300,252L304,246L301,242L300,242L298,242L296,243L294,243L292,242L292,240L292,234L292,231L288,227L287,225L286,223L285,222L282,221L278,221L272,222L269,224L266,226L264,228L261,230L259,231L258,233L255,234L253,233L248,233L248,235L246,236L244,239L244,241L243,242L242,244L243,245L243,246L243,248L243,249L242,250L241,250L240,252L242,253L243,255L244,256L240,257L245,258L244,259L242,260L244,261L247,261L250,260L253,259L259,261L259,263L258,266L260,269L261,271L260,273L256,280L258,281L265,282L268,282L272,282Z " data-fips="" data-hasc="TW.TW.TA" data-name="Tainan" data-postal="TA" data-varname=""/><path d="M260,273L261,271L260,269L258,266L259,263L259,261L253,259L250,260L247,261L244,261L242,260L242,260L240,261L240,262L240,263L240,264L241,265L242,265L243,264L244,263L246,264L246,265L246,268L246,269L248,269L248,268L249,265L252,266L252,268L251,271L249,272L251,274L252,275L252,278Z " data-fips="" data-hasc="TW.TW.TN" data-name="Tainan City" data-postal="TN" data-varname="Tainan Shi"/><path d="M339,66L340,64L341,62L344,61L346,61L347,60L347,59L346,57L345,56L343,55L337,53L333,51L332,52L332,53L333,55L332,56L331,57L329,62L329,64L331,65L333,66L334,67L336,68Z " data-fips="" data-hasc="TW.TW.HH" data-name="Hsinchu city" data-postal="HH" data-varname="Xinzhu"/><path d="M375,100L376,100L378,96L384,90L385,88L385,86L386,84L385,81L382,79L380,78L378,78L375,76L373,74L373,73L375,70L375,67L375,64L375,62L373,61L372,60L370,58L369,57L367,57L366,56L365,55L363,54L360,53L359,52L359,49L358,48L355,47L353,46L352,45L350,45L348,41L346,40L341,40L339,40L338,41L338,44L337,45L336,46L335,46L334,48L334,49L334,50L333,51L337,53L343,55L345,56L346,57L347,59L347,60L346,61L344,61L341,62L340,64L339,66L340,72L341,74L344,76L349,78L350,79L351,82L351,83L350,85L350,86L350,87L351,89L350,91L350,93L351,93L355,92L357,92L359,92L364,91L366,93L367,94L368,96L370,99L371,101Z " data-fips="" data-hasc="TW.TW.HH" data-name="Hsinchu" data-postal="HH" data-varname="Xinzhu"/><path d="M424,113L424,112L425,111L425,108L425,107L426,106L426,105L426,102L426,101L429,97L431,96L432,95L432,94L432,93L431,91L431,90L434,89L434,87L434,84L433,81L434,81L436,81L437,80L434,80L431,78L430,76L430,72L430,71L430,69L429,63L429,60L429,57L429,54L430,51L432,49L439,40L441,38L446,35L446,35L445,34L442,34L439,36L437,37L433,38L432,39L433,41L433,42L431,44L429,44L428,45L426,47L425,49L423,50L421,51L415,54L410,56L408,57L406,59L406,61L406,63L406,65L405,66L402,67L400,69L398,70L396,71L393,72L391,73L392,79L391,80L390,81L388,80L386,84L385,86L385,88L384,90L378,96L376,100L378,101L378,103L378,105L380,105L382,106L383,107L385,107L387,106L389,106L391,108L392,109L395,110L401,112L405,113L407,113L409,111L410,108L412,108L419,113L424,113Z " data-fips="" data-hasc="TW.TW.IL" data-name="Ilan" data-postal="IL" data-varname="Yilan"/><path d="M424,26L425,26L425,25L424,23L423,22L424,17L419,16L417,15L416,14L414,15L411,16L410,17L410,18L411,20L412,21L413,23L415,24L416,25L420,27L422,27Z " data-fips="" data-hasc="TW.TW.CL" data-name="Keelung City" data-postal="CL" data-varname="Jilong Shi|Chilung City"/><path d="M331,117L334,116L334,113L336,112L340,112L343,113L345,115L347,116L351,114L353,113L358,109L361,108L362,106L364,105L366,105L368,104L369,102L370,99L368,96L367,94L366,93L364,91L359,92L357,92L355,92L351,93L350,93L350,91L351,89L350,87L350,86L350,85L351,83L351,82L350,79L349,78L344,76L341,74L340,72L336,68L334,67L333,66L331,65L329,64L329,64L327,66L326,68L324,70L323,71L324,73L321,73L319,73L317,75L315,77L314,78L314,79L313,80L310,80L310,81L309,84L307,88L306,91L305,93L305,95L302,98L305,104L307,106L310,108L316,113L319,114L322,115L326,117Z " data-fips="" data-hasc="TW.TW.ML" data-name="Miaoli" data-postal="ML" data-varname=""/><path d="M412,33L412,31L411,30L409,29L409,27L409,24L409,22L407,21L406,17L406,15L405,14L405,12L405,11L404,10L403,10L401,10L400,11L395,14L394,16L393,18L392,19L392,20L393,21L396,24L396,26L395,29L397,32L399,34L401,36L402,37L404,37L407,37Z " data-fips="TW03" data-hasc="TW.TW" data-name="Taipei" data-postal="TW" data-varname="Taibei"/><path d="M398,70L400,69L402,67L405,66L406,65L406,63L406,61L406,59L408,57L410,56L415,54L421,51L423,50L425,49L426,47L428,45L429,44L431,44L433,42L433,41L432,39L433,38L437,37L439,36L442,34L445,34L446,35L446,35L450,33L449,32L447,32L446,31L444,31L441,31L439,29L438,26L438,24L438,23L439,21L438,20L424,17L423,22L424,23L425,25L425,26L424,26L422,27L420,27L416,25L415,24L413,23L412,21L411,20L410,18L410,17L411,16L414,15L416,14L415,13L414,12L415,11L414,10L413,10L412,11L410,8L406,2L404,0L400,0L395,1L391,3L389,5L388,8L386,10L385,11L385,12L386,13L388,16L390,18L388,18L387,17L386,16L385,15L384,15L382,16L379,18L378,19L373,19L375,21L377,22L379,24L380,25L382,25L384,26L386,29L386,31L386,33L384,34L379,36L378,37L378,40L377,42L378,44L380,46L380,48L380,51L382,52L385,52L387,53L390,58L390,60L389,61L389,64L389,66L393,69L396,71Z M407,37L404,37L402,37L401,36L399,34L397,32L395,29L396,26L396,24L393,21L392,20L392,19L393,18L394,16L395,14L400,11L401,10L403,10L404,10L405,11L405,12L405,14L406,15L406,17L407,21L409,22L409,24L409,27L409,29L411,30L412,31L412,33Z " data-fips="TW03" data-hasc="TW.TP" data-name="Taipei City" data-postal="TP" data-varname="Taibei|Taip|Taipeh"/><path d="M388,80L390,81L391,80L392,79L391,73L393,72L393,69L389,66L389,64L389,61L390,60L390,58L387,53L385,52L382,52L380,51L380,48L380,46L378,44L377,42L378,40L378,37L379,36L384,34L386,33L386,31L386,29L384,26L382,25L380,25L379,24L377,22L375,21L373,19L365,21L361,22L359,23L358,25L356,26L349,28L346,31L343,34L339,40L341,40L346,40L348,41L350,45L352,45L353,46L355,47L358,48L359,49L359,52L360,53L363,54L365,55L366,56L367,57L369,57L370,58L372,60L373,61L375,62L375,64L375,67L375,70L373,73L373,74L375,76L378,78L380,78L382,79L385,81Z " data-fips="" data-hasc="TW.TW.TY" data-name="Taoyuan" data-postal="TY" data-varname=""/><path d="M306,177L308,176L308,175L306,174L304,173L303,172L302,169L302,164L303,161L303,159L304,156L304,154L304,153L305,152L307,151L307,149L304,147L303,147L302,146L302,144L301,143L300,141L298,139L293,138L291,135L291,132L290,130L288,128L286,127L281,133L280,134L280,135L280,139L279,140L277,142L276,143L276,144L275,145L274,146L272,147L271,149L269,156L267,159L266,162L265,163L262,166L262,167L261,171L264,173L273,172L276,172L279,173L284,174L292,175L297,178L299,178L305,178Z " data-fips="" data-hasc="TW.TW.CG" data-name="Changhwa" data-postal="CG" data-varname="Zhanghua|Changhua"/><path d="M298,242L300,242L301,242L304,240L304,238L304,236L305,235L308,235L311,235L316,232L318,230L321,227L324,225L326,223L327,220L331,218L338,214L338,214L327,214L324,213L324,211L324,209L323,206L322,204L323,202L323,200L321,199L320,199L317,197L314,197L314,199L314,201L312,201L308,202L305,202L304,201L302,199L299,200L297,201L292,199L290,196L288,194L285,194L280,195L277,196L270,200L268,202L267,203L264,205L262,205L261,206L260,208L258,210L256,210L252,208L248,208L248,211L249,213L250,214L249,215L248,216L250,218L249,219L250,223L248,229L247,229L247,231L248,230L250,230L250,231L248,233L253,233L255,234L258,233L259,231L261,230L264,228L266,226L269,224L272,222L278,221L282,221L285,222L286,223L287,225L288,227L292,231L292,234L292,240L292,242L294,243L296,243Z M283,217L280,217L277,215L275,214L275,211L276,210L280,209L283,209L286,210L287,211L288,212L289,215L288,216Z " data-fips="" data-hasc="TW.TW.CH" data-name="Chiayi" data-postal="CH" data-varname="Jiayi|Chiai"/><path d="M288,216L289,215L288,212L287,211L286,210L283,209L280,209L276,210L275,211L275,214L277,215L280,217L283,217Z " data-fips="" data-hasc="TW.TW.CH" data-name="Chiayi city" data-postal="CH" data-varname="Jiayi|Chiai"/><path d="M378,256L378,253L378,250L379,248L381,242L383,239L384,236L385,233L386,231L388,228L388,225L387,222L388,220L393,218L394,218L399,192L401,188L404,172L406,165L408,158L408,155L408,154L410,151L410,150L410,149L409,148L409,147L408,145L408,143L408,141L411,136L413,131L414,129L415,128L417,126L417,124L418,124L420,122L422,119L425,116L425,115L425,114L424,113L419,113L412,108L410,108L409,111L407,113L405,113L401,112L395,110L392,109L391,108L390,110L389,112L388,114L385,116L384,118L384,120L382,122L380,123L380,127L380,128L378,129L375,130L374,131L374,135L375,137L377,138L378,140L378,141L374,146L372,150L371,153L372,155L373,156L373,159L372,164L371,167L369,171L368,173L368,175L366,179L367,181L368,182L368,184L369,187L368,191L367,196L366,198L364,199L361,201L360,203L359,206L357,208L354,208L351,209L349,210L348,212L348,213L348,216L347,217L345,221L344,223L342,224L341,225L342,227L344,228L346,230L348,234L348,235L348,238L350,241L354,242L356,243L358,245L361,246L363,246L367,253L372,257L375,257Z " data-fips="" data-hasc="TW.TW.HL" data-name="Hualien" data-postal="HL" data-varname="Hualia"/><path d="M347,217L348,216L348,213L348,212L349,210L351,209L354,208L357,208L359,206L360,203L361,201L364,199L366,198L367,196L368,191L369,187L368,184L368,182L367,181L366,179L368,175L368,173L369,171L371,167L372,164L373,159L373,156L372,155L371,153L372,150L374,146L378,141L378,140L377,138L375,137L374,135L374,131L375,130L378,129L380,128L380,127L374,124L372,123L370,123L365,125L363,126L360,126L357,128L355,128L353,129L350,132L348,133L345,133L343,135L342,137L340,137L337,134L336,135L333,138L331,138L327,138L324,139L322,143L319,148L317,150L316,151L308,150L307,151L305,152L304,153L304,154L304,156L303,159L303,161L302,164L302,169L303,172L304,173L306,174L308,175L308,176L306,177L305,178L305,181L304,183L304,186L304,189L303,192L303,194L305,196L307,197L310,196L313,196L317,197L320,199L321,199L323,200L323,202L322,204L323,206L324,209L324,211L324,213L327,214L338,214L338,214L340,214L342,215L344,218Z " data-fips="" data-hasc="" data-name="" data-postal="" data-varname=""/><path d="M305,139L303,138L300,137L297,135L297,133L298,132L299,127L301,127L303,127L305,127L307,127L312,129L313,129L315,127L318,126L321,129L321,131L319,132L311,133L310,135L309,137L307,138Z M317,150L319,148L322,143L324,139L327,138L331,138L333,138L336,135L337,134L340,137L342,137L343,135L345,133L348,133L350,132L353,129L355,128L357,128L360,126L363,126L365,125L370,123L372,123L374,124L380,123L382,122L384,120L384,118L385,116L388,114L389,112L390,110L391,108L389,106L387,106L385,107L383,107L382,106L380,105L378,105L378,103L378,101L376,100L375,100L371,101L369,102L368,104L366,105L364,105L362,106L361,108L358,109L353,113L351,114L347,116L345,115L343,113L340,112L336,112L334,113L334,116L331,117L326,117L322,115L319,114L316,113L310,108L307,106L305,104L302,98L296,104L295,106L294,110L290,117L289,122L288,125L286,126L286,127L288,128L290,130L291,132L291,135L293,138L298,139L300,141L301,143L302,144L302,146L303,147L304,147L307,149L308,150L316,151Z " data-fips="" data-hasc="TW.TW.TH" data-name="Taichung" data-postal="TH" data-varname="Taizhong"/><path d="M307,138L309,137L310,135L311,133L319,132L321,131L321,129L318,126L315,127L313,129L312,129L307,127L305,127L303,127L301,127L299,127L298,132L297,133L297,135L300,137L303,138L305,139Z " data-fips="" data-hasc="TW.TW.TG" data-name="Taichung City" data-postal="TG" data-varname="Taizhong Shi"/><path d="M260,208L261,206L262,205L264,205L267,203L268,202L270,200L277,196L280,195L285,194L288,194L290,196L292,199L297,201L299,200L302,199L304,201L305,202L308,202L312,201L314,201L314,199L314,197L313,196L310,196L307,197L305,196L303,194L303,192L304,189L304,186L304,183L305,181L299,178L297,178L292,175L284,174L279,173L276,172L273,172L264,173L261,171L260,171L258,174L257,175L255,178L254,179L253,183L252,187L249,190L247,194L247,199L247,202L248,207L248,208L252,208L256,210L258,210Z " data-fips="" data-hasc="TW.TW.YL" data-name="Yunlin" data-postal="YL" data-varname="Yanlin"/><path d="M407,386L407,385L406,384L404,382L404,381L404,380L404,379L404,378L396,378L397,379L397,380L397,381L397,382L399,384L401,385L404,387Z M396,312L396,312L397,310L397,309L396,308L392,308L393,310L394,312L395,313Z M329,360L329,354L329,347L330,345L334,338L336,331L337,326L338,323L341,319L343,317L345,311L346,310L347,310L351,305L358,300L360,298L362,296L363,294L363,293L363,292L363,289L363,288L364,287L370,282L371,281L375,275L376,272L377,267L379,263L380,261L380,260L381,259L383,258L384,257L386,253L386,249L386,244L387,240L388,237L389,235L391,231L392,229L394,218L393,218L388,220L387,222L388,225L388,228L386,231L385,233L384,236L383,239L381,242L379,248L378,250L378,253L378,256L375,257L372,257L367,253L363,246L361,246L358,245L356,243L354,242L350,241L348,238L348,235L341,236L339,238L337,239L334,241L333,244L334,246L333,248L330,250L330,253L331,257L330,262L329,267L328,269L324,272L323,276L324,280L325,282L328,284L328,286L328,289L328,291L330,292L333,293L332,299L331,301L331,303L327,305L325,306L321,307L319,309L318,311L317,314L315,317L315,323L316,326L316,328L317,331L317,334L318,336L320,338L319,340L317,341L316,343L316,344L317,346L318,347L319,349L319,351L320,353L321,356L323,358L327,360Z " data-fips="" data-hasc="TW.TW.TT" data-name="Taitung" data-postal="TT" data-varname="Taidong"/><path d="M189,208L191,206L192,205L193,204L194,204L195,203L197,203L198,204L198,205L199,203L198,202L196,198L195,199L193,199L192,199L193,197L191,198L188,200L186,199L186,201L186,203L187,202L187,203L189,204L190,204L188,206L186,206L185,206L184,204L183,205L185,207L187,208Z M177,202L178,202L179,201L179,199L180,196L181,194L182,194L180,192L179,194L178,198L178,200L177,201L175,201L174,203L176,203Z M190,195L190,193L191,192L190,191L189,190L188,189L185,191L187,192L188,194L188,195L190,195Z " data-fips="" data-hasc="TW.TW.PH" data-name="Penghu" data-postal="PH" data-varname=""/><path d="M54,102L55,102L56,101L58,100L60,99L62,100L65,101L66,102L67,101L68,99L69,94L67,90L65,88L63,88L62,89L59,95L57,95L53,93L51,93L51,94L51,96L52,97L52,98L51,100L50,101L51,102L52,102Z " data-fips="" data-hasc="" data-name="Chinmen" data-postal="" data-varname=""/></g></svg>