<?xml version="1.0" ?><!DOCTYPE svg  PUBLIC '-//W3C//DTD SVG 1.1//EN'  'http://www.w3.org/Graphics/SVG/1.1/DTD/svg11.dtd'><svg enable_background="new 0 0 500 401" height="401px" style="stroke-linejoin: round; stroke:#000; fill:#f6f3f0;" version="1.1" viewBox="0 0 500 401" width="500px" xmlns="http://www.w3.org/2000/svg" xmlns:xlink="http://www.w3.org/1999/xlink"><defs><style type="text/css"><![CDATA[path { fill-rule: evenodd; }
#context path { fill: #eee; stroke: #bbb; } ]]></style></defs><metadata><views><view h="401" padding="0" w="500"><proj id="laea" lat0="41.75" lon0="63.17"/><bbox h="103.48" w="159.49" x="933.44" y="951.9"/><llbbox lat0="-90" lat1="90" lon0="-180" lon1="180"/></view></views></metadata><g id="admin1"><path d="M245,296L248,293L249,292L253,290L255,290L260,288L260,287L259,285L259,284L259,283L262,280L263,280L266,277L267,275L267,273L266,272L265,271L264,271L263,269L263,268L263,267L258,265L256,265L256,264L254,263L253,263L251,260L251,259L251,258L252,257L253,256L253,255L255,254L256,252L258,250L259,249L260,249L259,248L258,247L259,246L259,244L258,244L258,242L259,241L261,241L262,242L263,242L267,241L267,239L269,238L269,235L271,234L272,234L272,232L272,230L273,228L272,228L263,228L260,227L259,226L258,226L257,224L257,223L256,219L256,219L255,220L254,220L253,221L249,221L247,222L246,226L238,225L236,224L236,221L236,220L235,218L234,218L232,220L231,223L229,226L225,227L224,226L224,225L215,219L210,217L206,215L203,214L199,207L194,201L194,200L193,198L190,198L180,202L188,214L186,222L187,224L187,225L186,229L180,236L181,237L182,237L185,239L185,241L186,243L186,244L186,246L187,249L187,250L187,252L187,254L187,255L190,258L192,260L218,279L220,281L223,285L225,287L237,296L238,296L240,296L242,295L244,295L245,297Z " data-fips="UZ02" data-hasc="UZ.BU" data-name="Bukhoro" data-postal="BU" data-varname="Bukhara|Buxoro|Mawarranahr|Transoxania|Turan"/><path d="M186,229L187,225L187,224L186,222L180,217L179,217L176,211L171,206L169,204L168,204L166,203L161,202L159,202L158,202L157,203L156,205L155,205L153,205L153,203L151,201L148,200L147,200L146,198L145,198L138,191L137,190L137,189L136,187L136,186L134,186L133,185L132,184L132,183L131,181L131,179L130,178L129,178L127,178L127,177L125,177L123,179L122,179L122,181L121,182L122,183L124,184L124,185L124,186L123,186L122,185L121,185L119,185L119,186L119,188L120,189L121,192L121,193L120,194L119,196L119,200L119,200L125,204L127,205L128,207L129,207L130,208L132,208L136,207L141,206L143,207L145,208L146,208L148,208L151,210L153,210L154,210L155,210L155,209L157,207L157,206L158,205L159,205L162,206L165,207L172,213L174,216L174,218L174,221L174,222L175,225L175,227L176,228L177,230L178,233L179,235L180,236Z " data-fips="UZ05" data-hasc="UZ.KH" data-name="Khorezm" data-postal="KH" data-varname="Khiva|Khwarazm|Khorazm|Xorazm"/><path d="M188,214L180,202L168,184L168,183L175,179L174,178L171,171L172,163L173,159L181,145L189,131L189,130L181,127L180,126L177,121L177,121L175,120L159,101L153,94L151,90L151,87L150,86L150,85L97,47L84,38L83,37L74,39L68,41L54,44L33,49L12,54L0,196L16,198L23,199L30,201L32,198L33,198L34,197L32,196L31,195L31,194L31,193L30,192L31,190L31,189L30,188L30,187L29,186L29,184L30,183L30,182L30,179L30,177L31,176L33,175L35,174L36,173L38,170L40,168L43,166L46,167L50,168L51,167L53,167L56,167L56,165L56,164L58,164L59,161L59,160L59,158L59,157L60,156L61,155L62,155L63,155L64,155L65,157L66,156L68,156L70,158L71,159L72,160L72,162L72,163L73,164L75,163L75,162L73,161L72,157L71,155L70,154L69,153L66,151L65,150L66,149L67,149L69,148L70,148L73,149L74,150L76,150L77,150L77,148L78,145L79,145L85,152L87,154L89,155L91,155L93,155L94,155L96,157L96,159L97,162L98,163L100,163L102,165L103,165L109,164L112,165L113,165L114,165L115,166L116,167L117,168L118,169L119,170L118,171L117,171L117,173L117,175L117,176L116,177L115,178L115,179L117,179L120,180L121,181L121,182L122,181L122,179L123,179L125,177L127,177L127,178L129,178L130,178L131,179L131,181L132,183L132,184L133,185L134,186L136,186L136,187L137,189L137,190L138,191L145,198L146,198L147,200L148,200L151,201L153,203L153,205L155,205L156,205L157,203L158,202L159,202L161,202L166,203L168,204L169,204L171,206L176,211L179,217L180,217Z " data-fips="UZ09" data-hasc="UZ.QR" data-name="Karakalpakstan" data-postal="QR" data-varname="Qoraqalpog`iston autonomous republic|Kara-Kalpakia|Qoraqalpoghiston|Qoraqalpog`iston|Qoraqalpoghiston Respublikasi"/><path d="M269,272L269,270L270,268L270,267L269,263L268,262L267,261L267,260L269,260L271,259L272,258L274,259L275,259L276,258L277,256L277,254L276,253L277,252L277,250L278,249L281,250L282,251L283,252L285,253L286,253L288,254L289,254L296,252L297,250L298,249L297,249L296,248L297,246L297,245L298,243L297,242L298,240L298,239L297,237L298,237L298,236L298,235L298,233L299,232L299,231L301,231L302,232L303,232L304,231L307,230L308,231L309,232L309,234L310,235L314,226L315,224L314,222L314,220L314,219L310,218L310,217L309,212L310,211L313,209L312,209L311,207L308,196L306,187L304,177L290,177L290,163L290,161L291,160L291,158L292,139L283,143L275,127L274,126L268,123L265,120L259,112L257,111L256,112L245,118L244,118L210,115L189,119L177,121L180,126L181,127L189,130L189,131L181,145L173,159L172,163L171,171L174,178L175,179L168,183L168,184L180,202L190,198L193,198L194,200L194,201L199,207L203,214L206,215L210,217L215,219L224,225L224,226L225,227L229,226L231,223L232,220L234,218L235,218L236,220L236,221L236,224L238,225L246,226L247,222L249,221L253,221L254,220L255,220L256,219L256,219L257,223L257,224L258,226L259,226L260,227L263,228L272,228L273,228L272,230L272,232L272,234L271,234L269,235L269,238L267,239L267,241L263,242L262,242L261,241L259,241L258,242L258,244L259,244L259,246L258,247L259,248L260,249L259,249L258,250L256,252L255,254L253,255L253,256L252,257L251,258L251,259L251,260L253,263L254,263L256,264L256,265L258,265L263,267L263,268L263,269L264,271L265,271L266,272L267,273L267,275L271,275Z " data-fips="UZ07" data-hasc="UZ.NW" data-name="Navoi" data-postal="NW" data-varname="Navoiy|Navoiy"/><path d="M296,281L297,280L300,279L304,277L306,278L307,279L309,279L311,278L312,276L314,276L316,276L319,276L320,278L320,279L320,280L321,281L325,280L325,279L327,279L334,280L335,280L335,279L335,277L335,276L335,274L336,273L336,273L334,271L332,270L332,269L332,266L332,265L333,265L334,264L334,263L334,262L334,261L336,260L337,259L336,255L330,254L329,254L328,254L325,254L324,253L323,251L322,250L321,251L320,250L320,248L321,248L321,247L320,245L320,244L319,243L318,241L318,239L319,238L319,236L318,235L317,235L315,235L314,235L310,235L309,234L309,232L308,231L307,230L304,231L303,232L302,232L301,231L299,231L299,232L298,233L298,235L298,236L298,237L297,237L298,239L298,240L297,242L298,243L297,245L297,246L296,248L297,249L298,249L297,250L296,252L289,254L288,254L286,253L285,253L283,252L282,251L281,250L278,249L277,250L277,252L276,253L277,254L277,256L276,258L275,259L274,259L272,258L271,259L269,260L267,260L267,261L268,262L269,263L270,267L270,268L269,270L269,272L271,275L284,275L285,274L286,273L286,272L287,272L288,272L289,274L289,275L291,276L291,277L292,278L292,279L293,280L295,281Z " data-fips="UZ10" data-hasc="UZ.SA" data-name="Samarkand" data-postal="SA" data-varname="Samarqand"/><path d="M315,332L316,330L316,329L316,328L320,324L320,323L321,321L322,320L323,320L325,319L329,315L329,314L329,312L330,311L331,309L332,308L334,307L334,306L336,302L337,302L338,302L339,302L340,302L341,301L341,300L341,299L341,298L341,297L340,296L339,293L340,292L341,292L343,291L344,291L344,290L344,286L343,286L342,285L341,285L338,285L335,284L334,283L334,281L334,280L327,279L325,279L325,280L321,281L320,280L320,279L320,278L319,276L316,276L314,276L312,276L311,278L309,279L307,279L306,278L304,277L300,279L297,280L296,281L295,281L293,280L292,279L292,278L291,277L291,276L289,275L289,274L288,272L287,272L286,272L286,273L285,274L284,275L271,275L266,277L263,280L262,280L259,283L259,284L259,285L260,287L260,288L255,290L253,290L249,292L248,293L245,296L245,297L246,299L253,304L257,306L261,308L263,309L270,315L283,323L285,324L288,323L290,321L291,321L294,323L297,323L299,325L301,325L302,326L303,327L304,328L308,330L311,330L312,330L313,331L314,331L314,332Z " data-fips="UZ08" data-hasc="UZ.QA" data-name="Kashkadarya" data-postal="QA" data-varname="Kashka-Dar'ya|Kashkadar|Kashkadar'ya|Qashqadaryo"/><path d="M337,361L339,360L340,359L341,358L343,358L344,360L345,359L346,359L348,359L350,359L351,360L351,359L352,358L352,356L352,355L351,352L351,350L352,348L353,345L354,343L356,341L358,338L359,336L360,332L361,331L363,331L364,331L364,330L364,328L365,326L366,324L366,322L366,320L365,319L363,317L361,316L360,314L358,313L358,312L357,310L357,309L356,307L356,304L356,303L356,302L357,300L356,299L357,298L358,298L359,297L359,296L359,295L358,293L357,291L356,290L355,291L354,291L353,290L351,291L348,292L345,291L344,291L343,291L341,292L340,292L339,293L340,296L341,297L341,298L341,299L341,300L341,301L340,302L339,302L338,302L337,302L336,302L334,306L334,307L332,308L331,309L330,311L329,312L329,314L329,315L325,319L323,320L322,320L321,321L320,323L320,324L316,328L316,329L316,330L315,332L314,332L315,333L314,335L312,338L311,340L311,341L311,344L311,346L311,348L311,350L312,351L312,352L311,354L311,355L312,356L314,356L316,356L317,356L318,356L322,355L325,354L327,355L328,355L329,356L330,358L331,359L332,359L333,360L334,361L335,362Z " data-fips="UZ12" data-hasc="UZ.SU" data-name="Surkhandarya" data-postal="SU" data-varname="Sukhan-Dar'ya|Surxondaryo|Surkhan-Dar'ya"/><path d="M480,226L480,225L481,224L480,223L478,221L478,220L478,219L479,218L480,218L482,220L483,220L485,221L486,220L487,219L487,218L489,218L489,215L490,214L491,214L493,213L495,211L498,210L499,209L500,207L499,207L497,207L496,206L494,207L492,208L492,206L491,206L487,207L486,207L484,207L483,206L481,204L480,204L480,202L478,202L477,202L476,200L475,201L474,202L473,202L472,203L471,204L471,207L470,208L467,208L463,208L461,208L460,208L459,208L456,209L455,210L455,212L455,213L455,214L456,215L457,216L459,216L460,216L461,216L462,217L464,219L465,219L466,219L468,219L470,219L471,219L472,220L474,221L474,222L474,223L475,224L476,225L475,225L476,225L478,226Z " data-fips="UZ01" data-hasc="UZ.AN" data-name="Andijon" data-postal="AN" data-varname="Andijan|Andizhan"/><path d="M463,246L463,244L462,245L461,245L461,246L462,247L463,247Z M442,249L443,249L444,250L445,249L447,249L447,247L446,246L446,245L447,243L447,242L445,243L445,243L443,243L442,241L441,240L440,239L439,240L439,242L439,243L440,245L441,245L442,245L442,247L441,249L441,250Z M430,239L431,238L435,237L438,236L439,235L441,235L444,235L446,234L446,232L447,233L449,233L450,233L451,234L453,234L454,235L455,236L456,236L457,236L457,234L458,234L459,236L460,238L461,238L462,237L463,236L463,234L464,233L465,233L466,233L468,233L469,233L469,232L467,232L467,230L470,229L470,228L471,227L471,226L473,224L475,224L474,223L474,222L474,221L472,220L471,219L470,219L468,219L466,219L465,219L464,219L462,217L461,216L460,216L459,216L457,216L456,215L455,214L452,215L449,217L449,219L447,221L446,221L444,220L443,220L442,219L441,218L440,218L441,216L437,216L437,216L436,216L434,217L433,217L432,218L431,219L430,220L429,220L429,221L427,223L426,224L425,225L424,225L423,227L421,228L420,229L420,230L421,231L421,233L423,233L424,233L425,233L426,234L427,236L427,238L429,239Z " data-fips="UZ03" data-hasc="UZ.FA" data-name="Ferghana" data-postal="FA" data-varname="Farghona|Farg`ona|Fergana"/><path d="M447,221L449,219L449,217L452,215L455,214L455,213L455,212L455,210L456,209L459,208L460,208L461,208L463,208L467,208L470,208L471,207L471,204L472,203L471,203L471,202L471,201L471,199L470,198L470,196L468,196L467,197L466,198L464,196L461,197L461,195L461,194L461,192L460,191L456,187L456,188L455,188L455,188L455,188L455,186L455,184L454,184L453,185L453,187L454,188L454,189L453,190L453,193L452,194L451,194L450,193L448,193L449,199L448,201L446,200L445,201L444,202L444,201L443,199L442,199L442,201L441,202L440,200L438,200L437,199L436,199L434,200L433,199L432,198L430,198L429,198L429,197L429,195L429,193L426,190L425,190L421,192L420,192L420,194L418,196L419,197L420,198L420,199L419,201L420,202L421,204L421,208L422,208L423,209L428,215L427,215L426,215L427,217L430,217L431,217L431,219L432,218L433,217L434,217L436,216L437,216L437,216L441,216L440,218L441,218L442,219L443,220L444,220L446,221Z M426,210L426,210L425,209L424,207L425,207L426,209Z " data-fips="TI04" data-hasc="UZ.NG" data-name="Namangan" data-postal="NG" data-varname=""/><path d="M336,272L338,272L338,270L340,269L343,267L344,267L346,267L356,269L360,269L363,269L364,269L366,269L368,268L368,267L369,266L370,265L370,264L370,257L371,257L371,256L371,254L370,254L371,254L371,251L371,250L370,249L371,248L372,246L372,246L371,246L369,245L369,244L370,244L370,244L370,242L370,241L371,240L362,242L355,243L354,242L354,241L354,240L357,231L355,231L355,230L356,228L358,227L358,226L357,225L355,224L352,221L351,221L350,220L352,219L352,218L353,217L353,216L353,214L353,212L353,211L352,210L351,211L350,211L349,209L348,207L348,207L347,206L345,207L344,207L342,206L315,209L313,209L310,211L309,212L310,217L310,218L314,219L314,220L314,222L315,224L314,226L310,235L314,235L315,235L317,235L318,235L319,236L319,238L318,239L318,241L319,243L320,244L320,245L321,247L321,248L320,248L320,250L321,251L322,250L323,251L324,253L325,254L328,254L329,254L330,254L336,255L337,259L336,260L334,261L334,262L334,263L334,264L333,265L332,265L332,266L332,269L332,270L334,271L336,273L336,273Z " data-fips="UZ04" data-hasc="UZ.JI" data-name="Jizzakh" data-postal="JI" data-varname="Dzhizak|Jizzax"/><path d="M373,256L374,257L375,256L375,254L375,253L375,252L376,253L376,255L377,256L378,254L375,250L374,248L375,248L376,249L378,247L380,248L381,246L381,246L380,245L379,244L372,246L371,248L370,249L371,250L371,251L371,254L370,254L371,254L371,256L371,257L371,257Z M373,243L375,243L377,242L382,241L383,241L383,241L383,238L383,237L383,234L383,233L384,232L383,231L383,230L382,230L383,228L383,227L382,227L382,226L382,225L381,224L379,225L380,223L378,223L378,222L377,222L377,221L376,220L374,219L374,218L373,218L372,218L371,217L370,215L370,215L369,214L367,215L366,216L366,218L366,219L366,222L367,223L368,224L369,225L368,227L367,228L365,227L365,228L364,228L358,226L358,227L356,228L355,230L355,231L357,231L354,240L354,241L354,242L355,243L362,242L371,240L370,241L370,242L370,244L370,244Z " data-fips="UZ11" data-hasc="UZ.SI" data-name="Sirdaryo" data-postal="SI" data-varname="Syr-Dar'ya"/><path d="M388,242L389,241L387,239L387,238L390,238L390,236L389,235L388,233L387,230L386,228L387,227L389,226L389,224L388,222L389,221L389,220L390,219L390,218L392,218L393,219L395,220L397,222L398,222L399,224L400,224L401,223L402,222L404,221L409,219L411,216L414,215L416,213L418,211L418,207L419,207L421,208L421,204L420,202L419,201L420,199L420,198L419,197L418,196L420,194L420,192L419,192L418,191L417,190L416,189L412,189L411,189L410,188L411,186L415,183L417,182L418,181L419,181L419,180L420,178L421,176L424,173L425,173L427,172L429,171L428,169L429,167L430,167L431,167L433,167L436,163L439,162L440,161L440,160L439,160L435,157L433,157L431,159L429,160L428,161L427,161L426,161L425,162L424,163L424,164L423,165L423,167L421,169L420,168L419,167L418,166L417,166L415,167L414,169L413,170L413,171L412,172L411,173L409,176L408,177L406,179L405,180L404,181L403,182L402,182L399,183L395,185L394,186L393,187L391,188L389,189L388,191L389,192L387,192L385,193L384,193L382,194L381,196L380,196L379,197L379,198L379,199L379,203L379,204L378,205L377,205L375,205L374,206L374,207L372,208L371,209L370,213L369,214L370,215L370,215L371,217L372,218L373,218L374,218L374,219L376,220L377,221L377,222L378,222L378,223L380,223L379,225L381,224L382,225L382,226L382,227L383,227L383,228L382,230L383,230L383,231L384,232L383,233L383,234L383,237L383,238L383,241L383,241L384,242L387,243Z " data-fips="UZ13" data-hasc="UZ.TA" data-name="Tashkent" data-postal="TA" data-varname="Taschkent|Toshkent"/></g></svg>