<?xml version="1.0" ?><!DOCTYPE svg  PUBLIC '-//W3C//DTD SVG 1.1//EN'  'http://www.w3.org/Graphics/SVG/1.1/DTD/svg11.dtd'><svg enable_background="new 0 0 500 401" height="401px" style="stroke-linejoin: round; stroke:#000; fill:#f6f3f0;" version="1.1" viewBox="0 0 500 401" width="500px" xmlns="http://www.w3.org/2000/svg" xmlns:xlink="http://www.w3.org/1999/xlink"><defs><style type="text/css"><![CDATA[path { fill-rule: evenodd; }
#context path { fill: #eee; stroke: #bbb; } ]]></style></defs><metadata><views><view h="401" padding="0" w="500"><proj id="laea" lat0="21.491" lon0="105.314"/><bbox h="182.32" w="86.67" x="963.55" y="976.85"/><llbbox lat0="-90" lat1="90" lon0="-180" lon1="180"/></view></views></metadata><g id="admin1"><path d="M279,71L279,70L280,69L279,68L278,68L277,68L276,67L276,68L276,69L277,70L278,71L279,72Z M287,67L286,67L286,67L287,67Z M275,69L273,67L273,66L272,66L272,68L273,68L274,69Z M290,67L291,66L291,65L291,66L290,67L290,69Z M290,66L291,65L291,64L291,62L290,63L290,64L289,65L288,66Z M292,62L293,60L292,61L292,62L292,63Z M288,62L289,61L290,60L291,59L292,58L291,58L291,58L290,57L289,57L288,58L288,59L287,61L287,62Z M301,53L302,53L302,52L299,53L299,54Z M266,74L266,74L267,73L267,73L268,74L269,74L270,73L269,72L271,72L272,72L273,72L272,71L271,70L271,69L271,68L270,67L271,67L271,65L270,65L269,64L269,63L270,63L271,63L273,63L273,65L272,65L273,66L274,67L274,65L276,66L275,65L275,64L276,65L277,65L278,64L277,64L278,63L279,63L280,63L281,63L280,64L280,65L281,65L282,65L283,64L284,63L285,63L286,63L287,62L287,61L287,60L286,58L287,57L287,56L289,56L288,55L290,55L291,55L291,54L292,55L293,55L293,54L294,53L295,53L296,52L296,51L297,50L297,49L298,49L298,50L299,50L300,49L301,50L301,51L302,50L301,49L300,48L298,47L298,46L297,46L296,46L294,47L292,47L291,47L290,48L289,47L288,46L287,47L286,47L286,47L283,49L284,51L283,52L282,53L281,54L279,54L277,55L277,57L276,58L275,59L274,59L273,59L271,59L266,59L265,60L264,61L263,62L264,62L267,63L267,65L266,66L266,67L265,68L265,69L266,70L264,71L263,71L263,73L264,74L265,74Z " data-fips="VM13" data-hasc="VN.QN" data-name="Qu?ng Ninh" data-postal="QN" data-varname="Quang Ninh"/><path d="M261,334L262,333L263,334L264,333L264,332L265,330L264,329L264,329L263,328L263,327L262,325L262,324L263,323L264,321L265,320L266,319L266,319L266,318L266,316L265,315L264,316L262,315L260,315L260,315L259,314L257,313L256,313L255,313L253,313L253,315L252,316L251,316L249,316L248,316L248,317L248,319L249,319L249,320L250,322L249,323L249,326L250,327L251,328L253,329L254,330L255,331L256,332L257,331L257,332L258,334L259,335Z " data-fips="VM33" data-hasc="VN.TN" data-name="Ty Ninh" data-postal="TN" data-varname="Tay Ninh"/><path d="M182,68L182,67L183,66L183,64L184,64L184,62L185,61L186,62L187,62L188,61L187,59L188,57L188,56L188,55L187,54L186,53L187,52L188,51L188,50L189,49L190,49L191,47L191,45L191,43L191,40L191,37L191,36L192,33L193,31L195,30L196,29L197,28L197,26L196,25L194,25L193,25L192,24L192,23L193,22L192,21L191,19L191,20L189,21L188,20L187,18L187,16L186,16L185,15L184,17L183,19L181,20L180,21L181,22L179,23L178,24L178,25L177,25L176,24L175,23L174,22L173,21L173,20L171,19L169,18L168,18L167,17L166,17L165,16L164,15L163,16L162,18L161,19L162,20L158,23L158,25L157,25L155,25L155,26L156,27L156,28L157,29L158,30L159,31L161,33L162,34L163,35L164,35L164,36L164,37L165,38L166,38L167,39L168,41L168,42L168,44L168,46L170,46L171,45L172,43L173,41L173,42L173,44L174,44L176,44L176,45L176,47L176,48L174,50L173,52L175,52L174,53L174,55L172,56L172,57L173,57L174,58L174,59L175,60L175,61L176,62L177,62L178,64L179,66L180,68L181,68L182,68Z " data-fips="VM22" data-hasc="VN.DB" data-name="i?n Bin" data-postal="DB" data-varname="Dien Bien"/><path d="M249,42L250,41L251,40L252,40L253,39L254,39L255,36L256,35L257,34L258,31L258,29L258,28L257,27L256,25L255,24L255,23L255,22L253,22L252,23L251,23L249,24L248,24L247,23L247,21L246,20L246,19L246,18L245,17L244,18L243,19L242,20L242,22L242,23L242,24L242,25L241,26L240,28L239,30L239,33L239,34L240,35L241,37L241,38L242,38L242,37L243,36L245,36L246,37L247,38L247,39L247,40L247,42L248,42Z " data-fips="VM72" data-hasc="" data-name="ng B?c" data-postal="" data-varname="North East"/><path d="M247,54L248,54L252,53L253,53L254,51L254,50L254,47L256,47L258,46L259,45L257,43L256,42L256,41L255,40L254,39L253,39L252,40L251,40L250,41L249,42L248,42L247,42L247,40L247,39L247,38L246,37L245,36L243,36L242,37L242,38L241,38L241,39L240,41L240,46L240,48L241,49L243,51L246,53L246,54Z " data-fips="VM85" data-hasc="VN.TY" data-name="Thi Nguyn" data-postal="TY" data-varname="Thai Nguyen"/><path d="M200,44L201,43L201,42L200,40L201,39L202,38L203,39L204,39L205,39L206,40L207,39L208,38L209,38L211,39L212,39L213,39L213,38L213,37L212,35L212,34L213,33L214,33L217,34L218,32L218,32L218,30L217,30L217,28L216,27L215,26L214,25L214,24L213,23L213,22L214,21L212,19L211,18L210,18L210,18L208,17L208,16L208,15L205,15L204,16L203,17L203,18L202,20L202,21L202,23L201,23L200,22L199,21L198,20L197,19L195,17L193,15L192,16L191,17L191,18L191,19L192,21L193,22L192,23L192,24L193,25L194,25L196,25L197,26L197,28L196,29L195,30L193,31L192,33L191,36L192,36L193,37L194,40L195,40L198,44L199,45Z " data-fips="VM56" data-hasc="VN.LO" data-name="Lo Cai" data-postal="LO" data-varname="Lao Cai"/><path d="M281,54L282,53L283,52L284,51L283,49L286,47L286,47L286,47L285,45L284,44L283,45L282,44L279,42L277,42L277,41L277,40L278,39L276,38L275,39L274,38L273,37L272,37L271,37L270,37L269,38L268,37L269,35L269,34L269,33L268,32L269,31L268,28L267,28L265,27L265,26L264,26L263,27L262,27L261,26L259,25L258,25L257,27L258,28L258,29L258,31L257,34L256,35L255,36L255,40L256,41L256,42L257,43L259,45L258,46L256,49L257,50L258,50L260,51L261,52L262,53L264,52L265,51L266,48L267,48L268,47L269,48L271,49L272,48L273,48L273,49L274,50L275,51L275,52L276,52L278,52L278,54L279,54Z " data-fips="VM39" data-hasc="VN.LS" data-name="L?ng Son" data-postal="LS" data-varname="Lang Son"/><path d="M222,75L223,74L223,73L223,72L224,71L227,71L228,71L229,70L229,69L227,67L225,64L224,63L224,62L225,61L224,61L224,60L224,58L224,57L223,55L221,55L221,54L220,53L218,53L217,53L216,53L214,54L213,54L211,53L210,51L210,50L210,49L210,48L211,46L210,45L209,45L208,46L206,46L202,45L200,44L199,45L198,44L195,40L194,40L193,37L192,36L191,36L191,37L191,40L191,43L191,45L191,47L190,49L189,49L188,50L188,51L187,52L186,53L187,54L188,55L188,56L188,57L187,59L188,61L187,62L186,62L185,61L184,62L184,64L183,64L183,66L182,67L182,68L182,68L183,68L185,69L186,69L187,69L188,69L188,70L190,71L192,71L193,72L194,73L195,72L195,71L196,70L196,69L196,68L197,68L198,67L201,66L202,66L203,65L205,65L206,65L207,66L208,67L209,67L210,67L210,69L211,69L212,70L214,71L214,72L215,73L217,74L218,74L219,74L221,75L221,75Z " data-fips="VM32" data-hasc="" data-name="Son La" data-postal="" data-varname="Son La"/><path d="M248,110L248,109L247,108L247,107L248,106L248,105L248,103L248,102L248,100L249,98L250,98L250,97L251,96L251,95L251,94L251,93L253,91L253,91L254,90L253,89L251,89L250,88L249,87L248,87L246,86L241,81L240,81L239,81L235,79L232,77L231,75L230,75L229,75L225,75L223,74L222,75L221,75L221,75L219,74L218,74L217,74L217,74L215,76L214,77L213,76L212,78L211,78L212,79L213,80L217,80L218,81L219,82L219,83L218,84L218,85L219,86L220,85L221,85L222,85L225,87L225,88L226,89L226,90L226,91L226,91L227,92L229,93L231,93L231,95L230,96L231,97L232,99L234,101L234,102L234,104L235,103L236,104L238,105L240,105L241,106L242,108L243,108L245,110L246,110L248,111Z " data-fips="VM34" data-hasc="VN.TH" data-name="Thanh Ha" data-postal="TH" data-varname="Thanh Hoa"/><path d="M239,50L241,50L241,49L240,48L240,46L240,41L241,39L241,38L241,37L240,35L239,34L239,33L239,30L240,28L241,26L242,25L242,24L242,23L242,22L240,21L237,21L236,21L233,20L231,20L231,21L230,23L229,24L229,25L228,28L227,27L226,28L226,29L225,30L224,31L224,34L225,35L226,36L227,38L227,39L229,41L230,42L229,44L230,45L231,46L233,47L234,49L235,50L237,51Z " data-fips="VM68" data-hasc="VN.TQ" data-name="Tuyn Quang" data-postal="TQ" data-varname="Tuyen Quang"/><path d="M225,54L225,53L224,51L224,50L225,48L226,47L227,46L229,46L230,45L229,44L230,42L229,41L227,39L227,38L226,36L225,35L224,34L222,32L221,31L220,30L219,30L218,30L218,32L218,32L217,34L214,33L213,33L212,34L212,35L213,37L213,38L213,39L212,39L211,39L209,38L208,38L207,39L206,40L205,39L204,39L203,39L202,38L201,39L200,40L201,42L201,43L200,44L202,45L206,46L208,46L209,45L210,45L211,46L210,48L210,49L210,50L210,51L211,53L213,54L214,54L216,53L217,53L218,53L220,53L221,54L221,55L223,55Z " data-fips="VM70" data-hasc="VN.YB" data-name="Yn Bi" data-postal="YB" data-varname="Yen Bai"/><path d="M245,81L245,80L246,79L247,78L247,76L245,74L244,74L244,73L243,71L242,70L240,69L240,67L240,66L240,65L239,64L238,63L237,63L235,64L235,65L234,66L232,66L231,66L230,65L228,64L225,62L225,61L224,62L224,63L225,64L227,67L229,69L229,70L228,71L227,71L224,71L223,72L223,73L223,74L225,75L229,75L230,75L231,75L232,77L235,79L239,81L240,81L241,81L241,81L242,81L244,82L245,82Z " data-fips="VM56" data-hasc="VN.HO" data-name="Ha Bnh" data-postal="HO" data-varname="Hoa Binh"/><path d="M263,71L264,71L266,70L265,69L265,68L266,67L266,66L267,65L267,63L264,62L263,62L264,61L265,60L266,59L265,58L264,58L262,58L261,59L260,62L260,63L259,64L258,64L256,66L256,67L255,68L256,69L257,70L259,72Z " data-fips="VM79" data-hasc="VN.HD" data-name="H?i Duong" data-postal="HD" data-varname="Hai Duong"/><path d="M255,73L256,73L258,73L259,72L257,70L256,69L255,68L256,67L256,66L254,64L252,64L250,65L250,66L250,66L250,67L250,68L250,69L251,70L251,71L252,72L253,72L253,73L254,74Z " data-fips="VM81" data-hasc="" data-name="?ng B?ng Sng H?ng" data-postal="" data-varname="Red River Delta"/><path d="M250,66L250,65L252,64L252,63L252,62L251,61L250,60L250,58L251,57L251,56L248,54L247,54L246,54L247,55L246,57L247,60L246,61L246,62L246,63L245,63L246,64L247,65L247,66L248,66Z " data-fips="VM44" data-hasc="VN.TY" data-name="Thi Nguyn" data-postal="TY" data-varname="Thai Nguyen"/><path d="M259,64L260,63L260,62L259,59L258,59L254,58L253,58L251,57L250,58L250,60L251,61L252,62L252,63L252,64L254,64L258,64Z " data-fips="VM74" data-hasc="VN.BN" data-name="B?c Ninh" data-postal="BN" data-varname="Bac Ninh"/><path d="M247,60L246,57L247,55L246,54L246,53L243,51L241,50L239,50L237,51L235,50L236,53L237,53L238,54L239,55L238,56L238,56L238,58L239,59L240,59L244,60L245,60L246,61Z " data-fips="VM86" data-hasc="VN.VC" data-name="Vinh Phc" data-postal="VC" data-varname="Vinh Phuc"/><path d="M247,74L248,73L249,73L250,73L252,72L252,72L251,71L251,70L250,69L250,68L250,67L250,66L250,66L248,66L247,66L247,65L246,64L245,63L246,63L246,62L246,61L245,60L244,60L240,59L239,59L238,58L238,56L237,56L236,56L236,56L236,57L235,58L234,60L235,61L234,62L237,63L238,63L239,64L240,65L240,66L240,67L240,69L242,70L243,71L244,73L244,74L245,74L247,76Z " data-fips="VM51" data-hasc="VN.HA" data-name="H Ty" data-postal="HA" data-varname="Ha Tay"/><path d="M255,90L256,87L256,86L256,85L255,84L254,84L253,84L251,83L251,82L250,81L246,79L245,80L245,81L245,82L244,82L242,81L241,81L241,81L246,86L248,87L249,87L250,88L251,89L253,89L254,90L253,91L253,91L253,91L255,92Z " data-fips="VM59" data-hasc="VN.NB" data-name="Ninh Bnh" data-postal="NB" data-varname="Ninh Binh"/><path d="M251,80L252,79L253,80L253,79L255,78L256,78L257,78L257,77L256,76L256,75L254,74L253,73L253,72L252,72L252,72L250,73L249,73L248,73L247,74L247,76L247,78L250,81L251,82Z " data-fips="VM80" data-hasc="VN.HM" data-name="H Nam" data-postal="HM" data-varname="Ha Nam"/><path d="M257,91L258,90L259,89L260,88L261,87L261,86L262,85L264,85L266,84L266,83L265,83L265,83L264,83L262,82L260,81L259,82L259,81L259,80L258,79L258,78L257,78L256,78L255,78L253,79L253,80L252,79L251,80L251,82L251,83L253,84L254,84L255,84L256,85L256,86L256,87L255,90L255,91L256,92Z " data-fips="VM82" data-hasc="VN.ND" data-name="Nam ?nh" data-postal="ND" data-varname="Nam Dinh"/><path d="M235,65L235,64L234,62L235,61L234,60L235,58L236,57L236,56L236,56L237,56L238,56L238,56L239,55L238,54L237,53L236,53L235,50L234,49L233,47L231,46L230,45L229,46L227,46L226,47L225,48L224,50L224,51L225,53L225,54L223,55L224,57L224,58L224,60L224,61L225,61L225,62L228,64L230,65L231,66L232,66L234,66Z " data-fips="VM83" data-hasc="VN.PT" data-name="Ph Th?" data-postal="PT" data-varname="Phu Tho"/><path d="M261,59L262,58L264,58L265,58L271,59L273,59L274,59L275,59L276,58L277,57L277,55L279,54L278,54L278,52L276,52L275,52L275,51L274,50L273,49L273,48L272,48L271,49L269,48L268,47L267,48L266,48L265,51L264,52L262,53L261,52L260,51L258,50L257,50L256,49L256,47L254,47L254,50L254,51L253,53L252,53L251,56L251,57L253,58L254,58L258,59L259,59Z " data-fips="VM71" data-hasc="VN.BG" data-name="B?c Giang" data-postal="BG" data-varname="Bac Giang"/><path d="M265,83L265,83L266,82L267,83L267,82L267,81L267,80L267,79L265,79L266,78L267,77L267,76L265,76L268,75L268,74L267,73L266,74L266,74L265,74L264,74L263,73L263,71L259,72L258,73L256,73L255,73L256,75L256,76L257,77L257,78L258,78L258,79L259,80L259,81L259,82L260,81L262,82L264,83Z " data-fips="VM35" data-hasc="VN.TB" data-name="Thi Bnh" data-postal="TB" data-varname="Thai Binh"/><path d="M261,147L261,146L262,146L265,146L266,146L264,143L263,141L262,142L261,143L261,142L261,141L260,140L260,139L259,139L257,138L256,138L255,138L255,137L254,136L253,134L252,134L251,133L250,132L249,131L248,129L247,127L247,127L247,126L247,125L247,126L246,127L245,128L245,129L244,130L243,129L240,129L238,129L237,129L234,128L231,128L231,128L230,129L229,130L229,132L229,133L230,134L231,135L231,137L232,137L233,138L234,138L234,139L235,140L237,141L237,140L238,140L239,140L240,142L240,143L241,144L241,145L242,146L243,146L245,145L246,144L248,144L249,143L251,143L253,144L254,144L254,145L255,146L256,147L259,147Z " data-fips="VM52" data-hasc="" data-name="Ha Tinh" data-postal="" data-varname="Ha Tinh"/><path d="M245,129L245,128L246,127L246,127L246,125L246,124L245,123L244,122L245,122L244,121L243,120L243,118L243,117L243,116L245,115L246,115L246,113L247,112L248,111L246,110L245,110L243,108L242,108L241,106L240,105L238,105L236,104L235,103L234,104L234,102L234,101L232,99L231,97L230,96L231,95L231,93L229,93L227,92L226,91L226,91L225,91L224,92L223,93L221,94L222,95L222,96L222,97L220,98L219,98L218,99L216,101L215,102L214,102L212,100L211,100L210,99L209,100L208,99L207,99L205,99L204,100L203,100L201,100L202,102L203,102L204,104L204,105L203,105L202,107L201,107L200,107L199,109L198,110L199,110L200,111L201,111L202,112L205,113L207,114L208,115L209,116L210,116L211,117L212,118L213,118L214,119L216,121L217,121L218,122L219,123L220,124L221,124L222,124L224,124L225,125L227,125L229,126L230,126L231,127L231,128L234,128L237,129L238,129L240,129L243,129L244,130Z " data-fips="VM58" data-hasc="VN.NA" data-name="Ngh? An" data-postal="NA" data-varname="Nghe An"/><path d="M268,173L273,173L274,172L275,171L276,169L279,167L277,166L272,163L270,160L269,159L268,158L267,156L267,155L266,153L264,153L263,153L262,152L264,152L262,152L260,151L262,151L263,152L264,152L265,152L265,152L264,150L264,149L264,148L265,147L266,146L265,146L262,146L261,146L261,147L259,147L256,147L255,146L254,145L254,144L253,144L251,143L249,143L248,144L246,144L245,145L243,146L242,146L242,146L242,149L243,150L244,151L245,152L246,154L247,155L249,156L251,159L253,161L257,165L259,165L260,164L260,165L261,166L261,167L261,168L263,170L263,171L264,172L265,173L266,172L266,173Z " data-fips="VM62" data-hasc="VN.QB" data-name="Qu?ng Bnh" data-postal="QB" data-varname="Quang Binh"/><path d="M292,313L293,312L295,312L296,311L298,309L299,309L300,310L301,310L302,310L303,310L304,311L304,312L306,312L307,312L308,310L308,309L308,308L308,307L307,306L306,305L306,304L306,303L308,302L309,302L310,301L311,302L313,302L313,301L314,300L315,300L317,299L319,298L320,298L322,298L323,298L324,298L324,296L324,294L324,293L326,293L327,293L328,293L329,292L329,290L329,289L330,288L331,287L332,287L333,285L331,285L329,284L327,283L326,283L325,282L319,278L318,277L317,274L317,272L315,271L309,269L308,269L307,269L304,270L300,270L297,271L296,271L294,272L292,279L292,280L292,281L292,282L293,283L293,284L294,285L294,287L295,291L294,293L294,294L293,296L293,298L291,298L291,300L289,299L288,298L287,298L286,298L286,298L286,305L287,307L289,308L289,309L290,311L290,312L290,313L291,313Z " data-fips="VM07" data-hasc="" data-name="Dak Lak" data-postal="" data-varname="Dak Lak|Dac Lac"/><path d="M323,278L324,277L325,276L327,275L329,274L329,272L328,271L328,269L328,268L327,267L327,264L327,261L327,258L326,257L325,255L324,254L324,253L324,251L323,250L322,249L322,248L322,246L323,242L323,240L323,238L321,235L318,236L317,235L316,236L316,237L316,238L315,239L314,241L312,242L309,243L300,247L298,247L296,249L296,250L295,251L294,252L293,253L291,255L291,255L291,256L291,257L291,258L292,259L293,261L295,265L295,266L295,269L294,272L296,271L297,271L300,270L304,270L307,269L308,269L309,269L315,271L317,272L317,274L318,277L319,278Z " data-fips="VM49" data-hasc="" data-name="Gia Lai" data-postal="" data-varname="Gia Lai"/><path d="M338,311L338,310L336,310L336,308L337,308L338,306L338,305L337,304L338,302L338,304L339,306L339,309L340,309L340,307L340,306L339,306L338,304L339,302L338,301L338,300L338,298L339,297L338,296L338,295L337,295L337,293L338,294L339,295L340,296L341,295L341,294L340,294L340,293L339,291L339,290L338,290L338,289L338,288L339,287L339,286L340,285L342,285L343,286L342,287L341,288L342,288L343,287L344,288L343,289L344,290L344,289L345,288L343,287L342,284L342,283L341,282L341,283L340,283L338,283L337,283L336,284L335,285L333,285L332,287L331,287L330,288L329,289L329,290L329,292L328,293L327,293L326,293L324,293L324,294L324,296L324,298L325,299L327,302L328,303L328,305L329,306L330,307L332,308L334,309L335,310L335,311L336,311L338,311Z M341,300L340,299L339,300L341,300Z M343,289L342,288L341,289L342,290L343,290Z " data-fips="VM54" data-hasc="VN.KH" data-name="Khnh Ha" data-postal="KH" data-varname="Khanh Hoa"/><path d="M309,327L310,326L311,325L313,325L314,324L315,323L315,322L315,320L315,319L317,319L321,319L322,319L323,318L322,316L323,315L324,314L324,312L323,311L323,310L324,307L324,304L324,303L324,302L325,299L324,298L323,298L322,298L320,298L319,298L317,299L315,300L314,300L313,301L313,302L311,302L310,301L309,302L308,302L306,303L306,304L306,305L307,306L308,307L308,308L308,309L308,310L307,312L306,312L304,312L304,311L303,310L302,310L301,310L300,310L299,309L298,309L296,311L295,312L293,312L292,313L291,313L290,313L288,315L287,316L288,317L288,318L289,318L290,318L290,319L291,320L292,321L292,322L293,322L294,322L297,324L298,324L300,325L307,325L308,325L308,326L308,328Z " data-fips="VM23" data-hasc="VN.LD" data-name="Lm ?ng" data-postal="LD" data-varname="Lam Dong"/><path d="M332,324L334,323L333,322L334,320L334,318L334,317L334,316L335,317L336,317L337,316L338,315L338,314L339,313L338,311L336,311L335,311L335,310L334,309L332,308L330,307L329,306L328,305L328,303L327,302L324,302L324,303L324,304L324,307L323,310L323,311L324,312L324,314L323,315L322,316L323,318L324,318L325,319L326,320L327,321L327,322L329,322L330,323L330,324L331,324Z " data-fips="VM60" data-hasc="VN.NT" data-name="Ninh Thu?n" data-postal="NT" data-varname="Ninh Thuan"/><path d="M335,285L336,284L337,283L338,283L340,283L341,283L341,282L342,283L343,283L344,283L345,282L344,281L343,278L342,278L341,276L340,275L340,274L340,272L340,271L340,272L339,271L340,270L339,269L339,268L338,267L338,266L339,265L340,266L339,267L340,268L341,267L340,266L340,265L339,264L338,263L338,262L339,263L340,264L340,263L339,262L338,261L338,260L337,260L336,261L334,263L331,264L330,264L327,264L327,267L328,268L328,269L328,271L329,272L329,274L327,275L325,276L324,277L323,278L325,282L326,283L327,283L329,284L331,285L333,285Z " data-fips="VM61" data-hasc="VN.PY" data-name="Ph Yn" data-postal="PY" data-varname="Phu Yen"/><path d="M274,336L275,336L275,336L275,335L274,334L274,333L275,332L276,333L277,333L279,332L279,330L279,329L278,328L278,326L277,325L275,325L274,325L272,325L272,324L271,325L270,325L270,324L270,323L269,321L268,321L267,320L266,319L266,319L265,320L264,321L263,323L262,324L262,325L263,327L263,328L264,329L264,329L265,330L266,330L267,330L269,332L270,333L271,334L271,335L272,337L273,337Z " data-fips="VM75" data-hasc="VN.BI" data-name="Bnh Duong" data-postal="BI" data-varname="Binh Duong"/><path d="M280,325L281,324L282,323L282,322L283,321L283,320L286,319L288,318L288,317L287,316L288,315L290,313L290,312L290,311L289,309L289,308L287,307L286,305L286,298L286,298L285,298L284,299L283,300L282,301L281,302L278,304L276,305L274,305L273,305L272,307L271,307L270,308L268,307L267,307L265,308L265,307L264,308L265,310L264,311L264,312L264,313L265,315L266,316L266,318L266,319L266,319L266,319L267,320L268,321L269,321L270,323L270,324L270,325L271,325L272,324L272,325L274,325L275,325L277,325L278,326Z " data-fips="VM76" data-hasc="VN.BP" data-name="Bnh Phu?c" data-postal="BP" data-varname="Binh Phuoc"/><path d="M331,264L334,263L336,261L337,260L338,260L338,260L338,259L338,257L338,256L339,255L339,256L340,258L340,257L340,255L339,254L338,251L337,248L337,247L338,248L337,247L337,245L336,243L335,243L335,241L335,240L334,239L333,236L334,235L333,233L332,233L331,234L328,234L326,234L324,235L323,238L323,240L323,242L322,246L322,248L322,249L323,250L324,251L324,253L324,254L325,255L326,257L327,258L327,261L327,264L330,264Z " data-fips="VM46" data-hasc="VN.BD" data-name="Bnh ?nh" data-postal="BD" data-varname="Binh Dinh"/><path d="M293,253L294,252L295,251L296,250L296,249L298,247L300,247L309,243L312,242L314,241L315,239L316,238L316,237L316,236L317,235L318,236L321,235L321,233L320,231L320,230L318,229L317,229L316,228L315,226L314,225L313,224L312,224L310,224L310,226L309,226L308,226L308,225L307,224L307,222L307,221L305,220L304,219L303,219L301,219L301,219L300,218L299,217L298,217L297,215L295,215L294,215L294,215L295,217L296,217L296,219L295,220L295,221L295,222L294,223L294,224L292,224L291,225L291,226L292,227L293,228L293,229L292,231L292,232L293,233L293,235L292,237L292,238L292,240L291,241L290,241L289,242L289,243L288,244L289,245L289,246L288,249L288,250L288,251L289,253L290,253L291,254L291,255Z " data-fips="VM55" data-hasc="" data-name="Kon Tum" data-postal="" data-varname=""/><path d="M310,226L310,224L312,224L313,224L313,222L312,221L313,219L313,218L314,217L315,217L318,216L319,216L323,215L325,214L324,214L323,213L323,212L322,213L321,212L322,212L323,211L321,211L317,205L316,203L315,201L314,200L313,199L312,198L312,198L310,198L307,199L306,199L305,198L305,197L304,196L303,196L300,196L299,197L298,197L297,198L297,196L295,196L294,197L292,197L290,197L290,198L290,199L288,201L287,201L284,203L283,203L283,205L285,207L285,208L286,209L287,210L289,212L290,212L291,212L292,213L292,214L294,215L295,215L297,215L298,217L299,217L300,218L301,219L301,219L303,219L304,219L305,220L307,221L307,222L307,224L308,225L308,226L309,226Z " data-fips="" data-hasc="" data-name="Qung Nam" data-postal="DA" data-varname=""/><path d="M326,234L328,234L331,234L332,233L333,233L334,234L333,232L332,231L331,229L330,225L329,223L329,221L328,221L329,220L329,219L330,218L329,218L328,217L328,216L327,215L326,214L326,215L326,216L325,215L325,214L323,215L319,216L318,216L315,217L314,217L313,218L313,219L312,221L313,222L313,224L314,225L315,226L316,228L317,229L318,229L320,230L320,231L321,233L321,235L324,235Z " data-fips="VM63" data-hasc="VN.QG" data-name="Qu?ng Ngi" data-postal="QG" data-varname="Quang Ngai"/><path d="M280,191L281,189L282,188L283,186L282,185L282,184L282,183L283,183L286,182L287,182L287,181L289,178L288,178L285,175L284,174L283,175L282,175L283,175L283,173L282,171L282,171L281,169L279,167L276,169L275,171L274,172L273,173L268,173L266,173L267,180L267,182L268,183L269,183L269,185L270,186L271,187L272,187L272,187L273,185L274,184L275,185L275,186L275,187L276,189L277,190L278,191L279,191L280,191Z " data-fips="VM64" data-hasc="VN.QT" data-name="Qu?ng Tr?" data-postal="QT" data-varname="Quang Tri"/><path d="M298,197L299,197L300,196L302,195L303,193L304,192L306,192L307,193L308,193L309,192L308,192L307,192L306,191L307,192L306,190L305,189L304,190L303,189L303,190L302,191L301,191L300,190L300,188L299,187L298,186L297,185L296,185L296,184L294,183L293,183L292,182L291,181L294,182L291,180L289,178L287,181L287,182L286,182L283,183L282,183L282,184L282,185L283,186L282,188L281,189L280,191L280,191L281,191L282,192L282,193L283,194L284,195L285,195L287,197L288,197L290,197L292,197L294,197L295,196L297,196L297,198Z " data-fips="VM66" data-hasc="VN.TT" data-name="Th?a Thin - Hu?" data-postal="TT" data-varname="Thua Thien - Hue"/><path d="M310,198L312,198L312,198L312,198L312,197L311,196L312,195L313,195L313,194L312,194L311,194L311,195L311,197L311,198L310,198L311,197L310,196L309,196L308,195L309,194L308,193L307,193L306,192L304,192L303,193L302,195L303,196L304,196L305,197L305,198L306,199L307,199Z " data-fips="VM78" data-hasc="VN.DA" data-name=" N?ng" data-postal="DA" data-varname="Da Nang City|Da Nang"/><path d="M284,350L285,349L285,348L285,348L284,349L283,349L282,350L283,351Z M288,349L289,348L290,348L292,347L294,347L294,346L296,345L295,344L292,339L291,339L289,342L288,342L288,341L287,340L286,340L284,342L283,342L281,343L281,344L280,347L281,347L281,347L282,347L283,347L284,348L285,347L286,348L286,349L287,350Z " data-fips="VM45" data-hasc="VN.BV" data-name="B R?a - Vung Tu" data-postal="BV" data-varname="Ba Ria - VTau|Ba Ria-Vung Tau"/><path d="M296,344L298,344L299,343L301,342L302,341L304,341L305,341L307,341L307,339L308,338L308,337L309,336L310,335L313,334L314,335L315,334L316,334L316,333L317,332L318,332L319,331L320,330L321,329L322,328L323,328L324,328L325,328L326,327L327,326L327,325L329,324L330,324L330,323L329,322L327,322L327,321L326,320L325,319L324,318L323,318L322,319L321,319L317,319L315,319L315,320L315,322L315,323L314,324L313,325L311,325L310,326L309,327L308,328L308,326L308,325L307,325L300,325L298,324L297,324L296,324L295,324L294,326L293,327L293,328L292,330L292,331L291,332L292,333L293,333L294,333L295,334L296,336L296,337L295,339L295,344L296,345Z " data-fips="VM47" data-hasc="VN.BU" data-name="Bnh Thu?n" data-postal="BU" data-varname="Binh Thuan"/><path d="M280,346L279,345L280,343L280,345L281,346L280,344L280,344L280,342L279,341L280,342L281,343L283,342L284,342L286,340L287,340L288,341L288,342L289,342L291,339L292,339L295,339L296,337L296,336L295,334L294,333L293,333L292,333L291,332L292,331L292,330L293,328L293,327L294,326L295,324L296,324L294,322L293,322L292,322L292,321L291,320L290,319L290,318L289,318L288,318L286,319L283,320L283,321L282,322L282,323L281,324L280,325L278,328L279,329L279,330L279,332L277,333L276,333L275,332L274,333L274,334L275,335L275,336L275,336L276,337L277,339L276,340L275,340L274,340L273,340L273,341L274,342L274,342L275,342L276,343L277,343L278,343L279,344L279,345L280,346Z " data-fips="VM43" data-hasc="" data-name="ng Nam B?" data-postal="" data-varname="South East"/><path d="M234,354L235,354L236,353L237,354L238,353L239,353L240,351L241,350L242,348L241,348L241,347L240,346L237,345L237,344L237,343L236,342L235,342L234,341L233,339L232,338L232,337L232,337L229,336L228,335L227,336L227,338L227,339L228,340L228,342L224,344L223,346L222,347L221,347L219,346L219,346L224,350L233,355Z " data-fips="VM01" data-hasc="VN.AG" data-name="An Giang" data-postal="AG" data-varname="An Giang"/><path d="M246,355L247,356L248,357L250,357L251,355L250,354L250,353L249,352L248,352L247,351L246,350L245,349L243,349L242,348L241,350L240,351L243,354L244,357L245,357Z " data-fips="VM09" data-hasc="VN.DT" data-name="?ng Thp" data-postal="DT" data-varname="Dong Thap"/><path d="M249,352L249,351L252,347L252,346L251,345L250,344L244,339L242,337L241,336L241,335L239,335L238,335L237,335L236,336L235,338L233,337L232,337L232,338L233,339L234,341L235,342L236,342L237,343L237,344L237,345L240,346L241,347L241,348L242,348L243,349L245,349L246,350L247,351L248,352L249,352Z " data-fips="VM09" data-hasc="VN.DT" data-name="?ng Thp" data-postal="DT" data-varname="Dong Thap"/><path d="M278,350L279,349L278,349L279,347L278,346L277,347L277,348L277,349L277,350Z M277,345L278,346L278,345L278,344L276,344L276,345L276,346L277,346Z M280,346L279,345L279,344L278,343L277,343L278,344L278,346L279,347L279,348Z M273,345L274,344L273,343L274,342L273,341L273,340L274,340L275,340L276,340L277,339L276,337L275,336L274,336L273,337L272,337L271,335L271,334L270,333L269,332L267,330L266,330L265,330L264,332L264,333L263,334L264,335L265,335L266,336L267,338L267,339L266,341L267,341L268,342L270,342L270,343L272,343L273,343L273,344L273,346Z M276,349L275,348L276,347L276,347L276,346L276,345L276,343L274,343L273,342L274,344L274,345L273,346L273,347L274,348L275,349Z M276,343L275,342L274,342L275,343L276,343Z " data-fips="VM20" data-hasc="VN.HC" data-name="H? Ch Minh city" data-postal="HC" data-varname="Ho Chi Minh City|Ho Chi Minh"/><path d="M235,376L234,375L235,374L235,373L235,371L237,372L237,370L236,369L237,368L240,364L241,363L240,362L239,361L235,357L234,356L233,355L224,350L219,346L219,346L219,346L217,346L215,346L214,347L213,349L212,349L213,350L214,350L213,350L214,352L214,353L215,353L216,354L216,355L216,357L217,356L218,355L219,354L220,354L222,356L222,357L223,357L225,358L226,358L227,358L228,359L229,361L229,362L229,363L230,364L228,362L226,363L226,365L224,366L223,367L222,373L222,373L223,374L224,373L225,373L226,373L228,373L229,374L233,376Z M201,359L201,358L201,356L202,354L202,350L200,348L199,349L199,350L198,351L196,351L196,352L198,353L199,354L199,356L200,358L200,360L201,360Z " data-fips="VM21" data-hasc="VN.KG" data-name="Kin Giang" data-postal="KG" data-varname="Kien Giang"/><path d="M268,349L269,349L270,349L269,349L269,347L269,348L270,347L271,347L272,347L273,346L273,344L273,343L272,343L270,343L270,342L268,342L267,341L266,341L267,339L267,338L266,336L265,335L264,335L263,334L262,333L261,334L259,335L258,334L257,335L257,336L257,337L258,340L257,339L254,339L253,338L252,337L251,336L251,337L250,338L249,337L248,336L248,335L247,333L245,333L244,334L243,334L241,335L241,336L242,337L244,339L250,344L251,345L252,346L253,346L255,346L256,346L257,345L258,345L260,345L262,345L263,347L264,347L265,348L266,349Z " data-fips="VM24" data-hasc="VN.LA" data-name="Long An" data-postal="LA" data-varname="Long An"/><path d="M268,364L266,363L265,362L267,364L268,365Z M273,353L272,353L268,353L267,352L268,353L272,354L273,354Z M270,365L271,363L271,365L272,364L271,363L270,362L268,361L266,359L263,356L262,354L261,353L262,354L263,354L265,358L267,359L268,360L270,361L271,361L272,360L271,359L272,358L273,359L275,357L274,356L273,356L273,355L266,353L265,352L266,352L267,352L269,353L272,353L273,353L275,352L274,349L273,348L272,348L271,349L271,348L270,349L269,349L268,349L266,349L265,348L264,347L263,347L262,345L260,345L258,345L257,345L256,346L255,346L253,346L252,346L252,347L249,351L249,352L251,353L253,353L255,353L256,354L257,354L264,361L267,363L269,365Z " data-fips="VM03" data-hasc="VN.BR" data-name="B?n Tre" data-postal="BR" data-varname="Ben Tre"/><path d="M239,372L242,371L245,370L248,368L249,367L251,363L249,360L248,359L247,359L244,357L243,354L240,351L239,353L238,353L237,354L236,353L235,354L234,354L233,355L234,356L235,357L239,361L240,362L241,363L240,364L237,368L236,369L237,370L237,372Z " data-fips="VM60" data-hasc="" data-name="d?ng b?ng sng C?u Long" data-postal="" data-varname="Mekong River Delta"/><path d="M238,387L239,386L241,384L247,382L250,380L249,377L247,377L246,377L245,377L244,377L243,376L242,375L242,371L239,372L237,372L235,371L235,373L235,374L234,375L235,376L235,378L234,379L235,380L234,381L235,382L235,383L235,385L236,386L238,386L238,387Z " data-fips="VM73" data-hasc="VN.BL" data-name="B?c Liu" data-postal="BL" data-varname="Bac Lieu"/><path d="M229,398L230,397L231,395L234,394L234,394L236,392L238,387L238,386L236,386L235,385L235,383L235,382L234,381L235,380L234,379L235,378L233,376L229,374L228,373L226,373L225,373L224,373L223,374L222,373L222,373L222,374L222,377L222,378L222,382L221,384L221,387L222,388L221,389L222,391L221,392L222,393L223,393L224,392L224,394L224,394L223,395L224,395L225,395L224,396L222,396L221,397L219,398L220,398L222,399L223,399Z " data-fips="VM77" data-hasc="VN.CM" data-name="C Mau" data-postal="CM" data-varname="Ca Mau"/><path d="M270,395L271,395L271,394L271,394L270,394L269,394L269,396L270,396Z M254,379L258,378L259,377L258,376L259,375L259,373L256,369L255,367L251,363L249,367L248,368L245,370L242,371L242,375L243,376L244,377L245,377L246,377L247,377L249,377L250,380Z M261,373L261,371L259,371L259,370L257,369L256,367L256,368L257,369L257,370L258,371L259,372L259,371L260,372L260,373Z " data-fips="VM65" data-hasc="VN.ST" data-name="Sc Trang" data-postal="ST" data-varname="Soc Trang"/><path d="M265,372L267,372L268,372L269,370L269,368L268,367L267,367L267,365L266,364L263,361L261,360L261,359L260,358L259,359L258,360L257,361L257,362L255,362L253,363L255,366L260,370L262,372L264,373Z " data-fips="VM51" data-hasc="VN.TV" data-name="Tr Vinh" data-postal="TV" data-varname="Tra Vinh"/><path d="M255,362L257,362L257,361L258,360L259,359L260,358L259,358L258,356L257,355L256,354L255,353L253,353L251,353L250,353L250,354L251,355L250,357L248,357L247,356L246,355L245,357L247,359L248,359L249,360L250,361L251,362L253,363L253,363Z " data-fips="VM50" data-hasc="VN.VL" data-name="Vinh Long" data-postal="VL" data-varname="Vinh Long"/><path d="M264,26L265,26L265,25L266,24L266,21L267,20L268,21L269,21L270,19L270,18L271,16L272,15L270,15L269,14L268,14L267,13L266,12L264,12L263,13L259,14L258,14L258,12L257,11L255,11L254,10L252,11L251,12L249,12L248,12L246,10L245,9L244,9L243,8L241,8L240,7L240,8L239,10L238,10L237,11L236,12L235,14L238,16L239,17L240,19L242,20L243,19L244,18L245,17L246,18L246,19L246,20L247,21L247,23L248,24L249,24L251,23L252,23L253,22L255,22L255,23L255,24L256,25L258,25L259,25L261,26L262,27L263,27Z " data-fips="VM05" data-hasc="VN.CB" data-name="Cao B?ng" data-postal="CB" data-varname="Cao Bang"/><path d="M224,31L225,30L226,29L226,28L227,27L228,28L229,25L229,24L230,23L231,21L231,20L233,20L236,21L237,21L240,21L240,19L239,17L238,16L235,14L236,12L237,11L238,10L239,10L240,8L240,5L239,4L238,3L237,2L236,2L235,1L235,0L234,0L233,1L233,2L232,3L231,3L228,4L227,5L225,6L224,5L224,6L223,7L222,8L223,12L221,13L220,14L219,15L218,15L217,15L216,15L213,17L211,18L212,19L214,21L213,22L213,23L214,24L214,25L215,26L216,27L217,28L217,30L218,30L219,30L220,30L221,31L222,32Z " data-fips="VM50" data-hasc="VN.HG" data-name="H Giang" data-postal="HG" data-varname="Ha Giang"/></g></svg>