<?xml version="1.0" ?><!DOCTYPE svg  PUBLIC '-//W3C//DTD SVG 1.1//EN'  'http://www.w3.org/Graphics/SVG/1.1/DTD/svg11.dtd'><svg enable_background="new 0 0 500 401" height="401px" style="stroke-linejoin: round; stroke:#000; fill:#f6f3f0;" version="1.1" viewBox="0 0 500 401" width="500px" xmlns="http://www.w3.org/2000/svg" xmlns:xlink="http://www.w3.org/1999/xlink"><defs><style type="text/css"><![CDATA[path { fill-rule: evenodd; }
#context path { fill: #eee; stroke: #bbb; } ]]></style></defs><metadata><views><view h="401" padding="0" w="500"><proj id="laea" lat0="60.198" lon0="19.952"/><bbox h="7.13" w="9.66" x="997.31" y="996.45"/><llbbox lat0="-90" lat1="90" lon0="-180" lon1="180"/></view></views></metadata><g id="admin1"><path d="M450,381L447,374L445,365L442,361L438,362L434,364L431,369L433,376L435,378L439,381L447,384Z M472,369L470,363L465,360L465,359L470,359L474,358L473,355L471,353L468,353L454,350L449,353L447,356L449,359L453,364L470,373Z M327,318L329,314L331,312L339,320L342,319L345,314L348,310L349,305L349,301L347,299L351,298L352,297L350,296L349,295L349,294L348,291L346,291L343,292L342,291L342,289L341,286L339,287L336,288L333,288L329,289L324,294L316,309L315,316L318,320L323,321Z M293,309L299,299L302,282L298,283L290,289L283,299L279,307L283,311Z M320,297L321,294L323,288L326,283L328,279L325,277L320,279L319,282L322,283L321,283L310,285L305,288L305,298L314,301Z M141,291L139,280L138,272L144,267L157,265L165,269L169,269L171,263L170,258L168,255L166,254L164,252L164,243L165,233L169,213L166,217L163,221L161,224L158,226L156,224L154,219L151,215L142,211L137,206L132,200L128,193L128,186L132,183L140,182L141,189L140,191L138,195L143,201L160,208L159,202L159,196L161,191L164,186L159,181L153,171L148,158L147,147L156,155L163,149L165,137L162,129L162,125L174,127L173,138L166,151L162,162L165,174L170,180L174,188L173,203L175,203L181,182L190,172L202,169L214,168L209,176L194,178L187,184L185,190L183,200L182,209L185,213L198,212L202,214L204,217L206,218L210,216L211,214L214,205L216,201L219,198L221,197L224,196L228,195L225,191L221,181L230,177L232,168L243,147L230,145L224,142L219,138L217,140L212,142L215,126L211,119L195,112L188,102L184,98L181,101L177,102L167,95L162,94L164,99L166,112L161,104L153,97L145,94L132,97L129,89L127,77L125,68L117,66L110,66L104,69L97,77L94,83L92,89L89,95L84,98L92,99L97,104L102,112L107,123L110,125L112,121L115,109L118,105L120,105L121,108L123,112L127,117L131,124L133,134L134,145L132,148L128,151L125,152L123,149L123,143L122,139L121,129L119,138L118,151L117,160L110,169L108,186L102,181L97,177L98,183L99,192L98,200L96,203L91,202L89,197L86,182L84,176L81,172L80,166L85,152L90,134L86,132L84,134L82,131L75,129L78,136L80,139L82,142L70,150L66,151L63,153L60,159L58,166L56,173L57,161L54,156L49,155L43,155L50,181L50,186L54,190L56,198L58,216L63,232L74,260L79,278L83,270L88,264L93,261L99,265L98,271L101,274L105,275L110,274L113,271L113,267L114,264L119,261L126,261L131,267L136,287L135,293L138,295Z M243,283L240,270L246,259L249,247L243,234L236,232L235,236L239,249L237,256L233,249L225,229L223,238L220,248L218,259L219,269L221,272L232,278L235,281L237,285L240,286Z M372,254L374,249L373,243L372,241L371,237L367,231L365,228L363,227L360,229L357,232L358,240L363,250L369,254Z M379,196L382,190L379,184L372,177L367,179L365,186L366,193L368,197L373,200Z M295,168L294,163L294,160L292,157L290,155L285,159L275,152L268,155L265,163L264,173L267,179L276,171L278,176L278,183L277,186L277,190L276,194L276,198L279,199Z M23,238L27,230L29,220L27,210L25,199L31,205L38,219L42,225L45,224L48,225L50,224L51,219L51,207L50,203L49,199L47,195L41,189L40,184L40,177L39,172L37,167L31,161L26,158L21,158L18,162L15,166L9,173L8,176L7,183L8,190L8,196L5,201L1,205L0,207L0,210L1,216L4,230L10,239L16,242Z M412,167L416,167L421,166L424,161L425,154L423,151L413,144L410,141L404,141L402,155L405,171L414,175Z M401,115L403,110L404,105L405,98L403,92L400,89L396,89L394,90L393,93L392,97L391,99L390,101L387,108L386,111L386,116L386,119L387,123L389,124Z M497,33L500,26L499,18L497,15L496,15L493,15L490,19L488,24L490,32L494,35Z " data-fips="FI01" data-hasc="AX.EC" data-name="Finstrm" data-postal="EC" data-varname="Eckeroe"/></g></svg>