<?xml version="1.0" ?><!DOCTYPE svg  PUBLIC '-//W3C//DTD SVG 1.1//EN'  'http://www.w3.org/Graphics/SVG/1.1/DTD/svg11.dtd'><svg enable_background="new 0 0 500 401" height="401px" style="stroke-linejoin: round; stroke:#000; fill:#f6f3f0;" version="1.1" viewBox="0 0 500 401" width="500px" xmlns="http://www.w3.org/2000/svg" xmlns:xlink="http://www.w3.org/1999/xlink"><defs><style type="text/css"><![CDATA[path { fill-rule: evenodd; }
#context path { fill: #eee; stroke: #bbb; } ]]></style></defs><metadata><views><view h="401" padding="0" w="500"><proj id="laea" lat0="42.761" lon0="25.231"/><bbox h="37.24" w="56.5" x="973.66" y="981.55"/><llbbox lat0="-90" lat1="90" lon0="-180" lon1="180"/></view></views></metadata><g id="admin1"><path d="M300,263L302,263L304,264L306,264L309,261L310,257L309,252L313,242L312,241L309,240L309,236L312,236L314,234L313,231L315,230L319,232L323,230L324,226L326,225L327,224L326,222L325,221L327,219L330,218L334,219L339,217L340,216L341,214L343,214L343,213L346,213L347,212L347,211L348,208L348,204L345,206L342,206L340,205L338,204L336,203L335,201L337,199L339,198L341,196L341,193L341,191L342,190L341,187L340,184L341,182L340,179L339,176L338,171L335,170L334,169L332,170L330,171L328,171L325,169L324,170L323,169L323,168L321,167L319,168L318,168L316,168L316,169L316,171L316,172L315,173L313,174L312,176L310,177L308,177L307,181L303,183L301,184L300,186L300,189L299,192L297,192L296,192L294,194L292,195L287,194L283,195L280,203L283,211L285,215L286,219L281,222L282,224L284,224L285,227L286,230L285,232L287,236L287,239L288,241L292,246L294,251L293,259L297,264Z " data-fips="BU39" data-hasc="BG.SL" data-name="Sliven" data-postal="SL" data-varname="Slivno"/><path d="M292,325L293,323L294,322L296,322L297,321L301,320L300,319L300,318L300,316L300,315L300,313L301,313L302,312L305,310L307,310L311,310L313,308L315,308L317,311L318,312L320,312L323,312L322,311L321,309L322,306L323,303L326,300L335,301L338,299L340,298L340,296L341,293L339,294L337,293L335,292L333,290L333,286L331,283L328,283L327,285L325,287L325,285L324,282L321,280L314,279L307,276L303,277L300,279L298,277L296,274L291,269L285,267L284,268L283,269L279,272L276,274L274,272L270,268L268,266L266,267L264,267L265,265L265,263L265,261L262,260L258,263L255,262L253,263L252,266L250,270L248,270L247,269L246,269L244,269L241,268L239,267L237,267L237,272L238,275L239,279L238,280L239,281L240,282L239,284L237,289L232,292L231,294L234,301L239,302L241,301L243,299L244,298L246,298L247,300L247,302L248,303L251,305L253,306L254,306L256,304L258,304L259,306L260,307L262,307L263,308L264,309L266,314L264,318L264,321L266,322L268,322L270,321L271,322L273,322L274,321L275,319L278,318L281,319L281,321L282,323L286,327L289,329Z " data-fips="BU43" data-hasc="BG.KK" data-name="Haskovo" data-postal="KK" data-varname="Khaskovo"/><path d="M303,277L307,276L307,273L306,270L306,264L304,264L302,263L300,263L297,264L293,259L294,251L292,246L288,241L287,239L287,236L285,232L286,230L285,227L284,224L282,224L281,222L286,219L285,215L283,211L280,203L278,195L276,196L275,195L273,195L270,196L269,197L268,198L266,197L264,197L265,199L264,200L262,199L261,197L259,197L258,199L256,198L255,199L253,200L252,199L251,199L249,201L246,201L242,199L238,198L234,200L233,199L232,197L228,197L224,199L220,200L215,199L215,203L216,211L216,213L214,214L216,218L216,220L217,222L218,224L221,226L225,226L227,225L229,228L227,232L229,234L230,234L230,236L230,237L228,237L225,236L223,237L224,241L224,244L225,246L226,250L224,251L221,252L220,256L221,261L224,261L225,262L226,263L227,264L226,265L228,265L229,263L231,263L233,262L236,262L239,265L241,268L244,269L246,269L247,269L248,270L250,270L252,266L253,263L255,262L258,263L262,260L265,261L265,263L265,265L264,267L266,267L268,266L270,268L274,272L276,274L279,272L283,269L284,268L285,267L291,269L296,274L298,277L300,279Z " data-fips="BU43" data-hasc="BG.SZ" data-name="Stara Zagora" data-postal="SZ" data-varname=""/><path d="M141,312L141,309L140,307L138,306L138,303L141,303L145,303L148,306L148,308L147,310L149,310L150,309L155,309L158,306L159,301L162,296L164,294L167,293L169,289L171,281L169,276L169,273L170,271L170,266L172,265L174,264L175,262L174,261L173,260L173,258L173,255L172,252L171,250L171,248L172,245L170,242L169,241L169,239L168,237L168,234L168,233L167,230L166,230L166,225L165,219L163,219L162,219L161,218L160,217L158,216L158,215L157,213L155,212L153,212L151,212L150,213L147,214L144,217L143,218L141,218L137,220L135,219L133,218L131,217L129,217L126,218L126,221L127,223L128,225L129,226L130,227L133,230L137,230L138,232L137,236L134,237L131,237L129,242L130,247L131,248L132,249L130,251L129,250L127,249L127,248L125,249L124,252L121,256L117,257L117,258L117,260L116,260L115,263L117,264L118,266L118,268L118,270L117,271L117,273L119,275L116,278L114,283L114,285L114,287L115,289L116,290L116,295L118,299L120,301L122,303L124,303L125,302L126,304L127,306L136,312L137,314L139,315Z " data-fips="BU51" data-hasc="BG.PZ" data-name="Pazardzhik" data-postal="PZ" data-varname="Pazardjik|Tatar Pazardik|Bazargic|Bazardzhik|Dobritch|Dobrici|Hagi Oglu"/><path d="M222,302L223,300L224,298L225,296L226,294L228,294L228,292L230,291L232,292L237,289L239,284L240,282L239,281L238,280L239,279L238,275L237,272L237,267L239,267L241,268L239,265L236,262L233,262L231,263L229,263L228,265L226,265L227,264L226,263L225,262L224,261L221,261L220,256L221,252L224,251L226,250L225,246L224,244L224,241L223,237L225,236L228,237L230,237L230,236L230,234L229,234L227,232L229,228L227,225L225,226L221,226L218,224L217,222L216,220L216,218L214,214L216,213L216,211L215,203L215,199L213,199L212,200L212,201L208,203L205,203L201,203L196,202L196,203L195,204L191,203L188,200L185,196L181,195L178,194L174,194L169,199L166,198L163,203L164,208L168,210L170,214L172,215L172,218L170,219L166,225L166,230L167,230L168,233L168,234L168,237L169,239L169,241L170,242L172,245L171,248L171,250L172,252L173,255L173,258L173,260L174,261L175,262L174,264L172,265L170,266L170,271L169,273L169,276L171,281L179,293L183,292L187,289L191,288L195,287L199,289L202,292L205,295L207,297L209,299L212,299L214,299L217,303L218,303L220,303L222,304Z " data-fips="BU51" data-hasc="BG.PD" data-name="Plovdiv" data-postal="PD" data-varname="Philippopolis"/><path d="M227,356L226,350L226,349L227,348L226,347L225,346L226,343L227,341L226,340L227,338L226,333L221,334L220,337L218,336L216,333L215,329L214,327L214,325L215,324L217,325L220,324L222,322L221,321L221,318L222,316L221,315L220,311L218,309L217,307L218,305L220,303L218,303L217,303L214,299L212,299L209,299L207,297L205,295L202,292L199,289L195,287L191,288L187,289L183,292L179,293L169,289L167,293L164,294L162,296L159,301L158,306L155,309L150,309L149,310L147,310L148,308L148,306L145,303L141,303L138,303L138,306L140,307L141,309L141,312L139,315L140,315L140,317L143,318L141,320L139,322L149,330L150,329L151,328L153,328L154,330L156,332L156,333L157,333L158,333L161,333L164,332L165,332L167,333L168,332L170,330L172,330L174,329L176,330L177,333L177,337L178,338L179,339L180,340L180,342L181,343L182,343L185,343L184,345L186,345L188,345L189,346L191,347L194,351L196,352L197,352L198,351L198,349L198,347L201,347L204,346L205,346L207,348L221,354L223,354L224,355L227,357Z " data-fips="BU51" data-hasc="BG.SM" data-name="Smolyan" data-postal="SM" data-varname="Smoljan"/><path d="M238,364L251,360L253,359L255,360L256,359L257,358L258,357L258,356L259,356L267,357L269,358L271,358L272,357L274,356L277,355L281,353L282,354L285,356L286,357L288,357L290,356L291,356L293,356L295,355L297,353L298,353L305,351L306,351L307,349L308,347L309,343L310,343L310,341L309,340L308,337L309,336L309,335L309,333L309,332L308,330L307,330L306,329L306,326L306,324L305,323L305,322L304,321L302,321L301,321L301,320L297,321L296,322L294,322L293,323L292,325L289,329L286,327L282,323L281,321L281,319L278,318L275,319L274,321L273,322L271,322L270,321L268,322L266,322L264,321L264,318L266,314L264,309L263,308L262,307L260,307L259,306L258,304L256,304L254,306L253,306L251,305L248,303L247,302L247,300L246,298L244,298L243,299L241,301L239,302L234,301L231,294L232,292L230,291L228,292L228,294L226,294L225,296L224,298L223,300L222,302L222,304L220,303L218,305L217,307L218,309L220,311L221,315L222,316L221,318L221,321L222,322L220,324L217,325L215,324L214,325L214,327L215,329L216,333L218,336L220,337L221,334L226,333L227,338L226,340L227,341L226,343L225,346L226,347L227,348L226,349L226,350L227,356L227,357L227,357L229,358L232,363L234,364L236,364Z " data-fips="GR01" data-hasc="BG.KZ" data-name="Kardzhali" data-postal="KZ" data-varname="Kurdjali|Krdali|Kirjali"/><path d="M106,232L105,229L103,226L99,219L95,210L94,208L96,201L100,192L102,189L103,186L100,188L97,187L94,185L91,185L87,187L83,186L79,183L78,182L76,181L74,185L74,190L70,193L71,195L71,197L70,199L68,199L66,199L65,198L61,198L59,201L61,203L63,205L64,206L66,207L67,209L67,211L67,215L70,216L74,219L82,225L85,227L88,228L90,225L92,222L95,222L95,224L96,226L97,229L96,232L98,234L102,233L104,234Z " data-fips="BU42" data-hasc="BG.SG" data-name="Grad Sofiya" data-postal="SG" data-varname=""/><path d="M99,267L101,263L104,263L106,262L109,262L111,262L112,262L113,261L116,260L117,260L117,258L117,257L121,256L124,252L125,249L127,248L127,249L129,250L130,251L132,249L131,248L130,247L129,242L131,237L134,237L137,236L138,232L137,230L133,230L130,227L129,226L128,225L127,223L126,221L126,218L129,217L131,217L133,218L135,219L137,220L141,218L143,218L144,217L147,214L150,213L151,212L153,212L155,212L157,213L158,215L158,216L160,217L161,218L162,219L163,219L165,219L170,219L172,218L172,215L170,214L168,210L164,208L163,203L166,198L164,199L161,198L159,197L157,196L147,195L146,193L147,188L147,185L147,181L145,178L142,178L140,176L138,174L139,171L138,169L137,168L137,166L135,165L133,165L132,167L130,168L128,167L127,166L119,165L116,163L114,165L112,167L110,168L108,168L107,166L106,165L102,168L99,170L97,168L96,165L94,163L92,161L91,160L90,159L90,156L91,155L93,155L92,154L90,153L87,153L84,156L81,157L78,156L76,157L73,158L65,157L63,155L58,148L54,149L54,150L53,154L52,158L50,160L49,161L48,161L47,162L46,165L42,168L41,170L40,170L38,171L37,171L36,172L36,174L34,179L34,180L34,180L36,182L37,184L38,186L38,187L40,187L41,187L42,185L43,186L43,189L44,190L46,189L48,191L49,194L51,194L52,195L54,196L56,196L58,198L59,201L61,198L65,198L66,199L68,199L70,199L71,197L71,195L70,193L74,190L74,185L76,181L78,182L79,183L83,186L87,187L91,185L94,185L97,187L100,188L103,186L102,189L100,192L96,201L94,208L95,210L99,219L103,226L105,229L106,232L104,234L102,233L98,234L96,232L97,229L96,226L95,224L95,222L92,222L90,225L88,228L85,227L82,225L73,225L71,230L72,235L71,236L70,238L72,238L73,239L75,239L77,239L79,245L80,245L81,246L82,248L84,249L85,251L84,252L82,253L81,255L79,258L80,260L84,260L87,259L89,261L91,264L93,264L95,265L94,267L92,269L97,271Z " data-fips="BU42" data-hasc="BG.SF" data-name="Sofia" data-postal="SF" data-varname="Sofiya|Sofija"/><path d="M43,239L46,236L51,236L53,235L57,237L59,238L60,238L61,235L64,237L66,237L68,239L70,238L71,236L72,235L71,230L73,225L74,219L70,216L67,215L67,211L67,209L66,207L64,206L63,205L61,203L59,201L58,198L56,196L54,196L52,195L51,194L49,194L48,191L46,189L44,190L43,189L43,186L42,185L41,187L40,187L38,187L38,186L37,184L36,182L34,180L34,180L34,180L33,181L30,182L28,183L22,181L20,181L18,182L17,183L16,183L15,183L14,184L13,185L12,186L10,187L9,188L9,189L10,194L11,196L13,197L12,198L11,199L9,203L10,205L9,207L9,208L9,208L12,208L16,209L19,209L22,210L23,213L24,216L25,217L26,220L27,221L29,221L31,223L30,226L32,228L33,230L34,232L36,234L38,235L39,238L41,239Z " data-fips="BU58" data-hasc="BG.PN" data-name="Pernik" data-postal="PN" data-varname=""/><path d="M249,201L251,199L252,199L253,200L255,199L256,198L258,199L259,197L261,197L262,199L264,200L265,199L264,197L262,193L264,189L265,187L265,184L264,182L262,182L259,178L261,172L259,168L254,167L252,167L246,167L241,166L239,165L238,162L237,160L226,160L224,158L223,155L221,154L217,151L214,150L212,154L212,158L209,160L208,165L208,168L204,173L205,178L205,180L205,181L205,183L206,184L210,186L213,188L215,193L215,199L220,200L224,199L228,197L232,197L233,199L234,200L238,198L242,199L246,201Z " data-fips="BU46" data-hasc="BG.GB" data-name="Gabrovo" data-postal="GB" data-varname=""/><path d="M196,203L196,202L201,203L205,203L208,203L212,201L212,200L213,199L215,193L213,188L210,186L206,184L205,183L205,181L205,180L205,178L204,173L208,168L208,165L209,160L212,158L212,154L214,150L217,151L224,148L221,138L219,134L217,132L217,135L215,136L213,138L211,139L209,140L206,140L205,138L202,138L200,138L195,138L191,141L190,143L189,143L188,142L187,143L186,145L185,147L182,149L181,150L180,148L176,148L170,146L169,145L168,143L166,141L165,141L163,142L162,143L160,145L158,145L156,146L154,147L152,146L149,145L148,145L146,144L142,146L137,148L138,152L137,157L136,159L134,159L133,158L132,159L132,162L133,165L135,165L137,166L137,168L138,169L139,171L138,174L140,176L142,178L145,178L147,181L147,185L147,188L146,193L147,195L157,196L159,197L161,198L164,199L166,198L169,199L174,194L178,194L181,195L185,196L188,200L191,203L195,204Z " data-fips="BU46" data-hasc="BG.LV" data-name="Lovech" data-postal="LV" data-varname="Lovec"/><path d="M182,149L185,147L186,145L187,143L188,142L189,143L190,143L191,141L195,138L200,138L202,138L205,138L206,140L209,140L211,139L213,138L215,136L217,135L217,132L219,134L221,138L225,141L227,141L228,139L229,138L233,135L232,131L231,128L230,124L226,124L226,121L228,119L230,116L232,112L232,111L230,111L230,108L232,105L233,100L235,98L237,96L235,95L231,94L221,93L212,90L195,91L192,91L175,84L173,84L170,85L166,88L164,89L163,89L162,94L159,99L154,101L152,101L149,103L147,105L145,107L147,110L148,114L150,118L153,118L155,124L155,126L154,128L153,134L150,136L147,135L144,136L143,136L142,138L141,137L139,137L134,139L132,142L131,144L132,146L137,148L142,146L146,144L148,145L149,145L152,146L154,147L156,146L158,145L160,145L162,143L163,142L165,141L166,141L168,143L169,145L170,146L176,148L180,148L181,150Z " data-fips="BU46" data-hasc="BG.PV" data-name="Pleven" data-postal="PV" data-varname="Plevila|Plevna|Plyeven"/><path d="M269,197L270,196L273,195L275,195L276,196L278,195L283,195L287,194L292,195L294,194L296,192L297,192L299,192L300,189L300,186L301,184L303,183L307,181L308,177L305,175L302,174L302,172L303,170L303,169L302,168L301,167L301,166L300,163L299,161L299,158L300,156L300,154L301,152L302,152L303,152L302,148L299,145L299,142L301,140L299,138L296,137L293,137L290,136L289,133L289,131L287,131L284,132L282,132L280,131L278,131L275,130L273,129L272,128L271,128L270,126L268,126L267,128L263,127L258,122L259,119L260,116L258,116L257,117L256,117L256,115L252,112L252,110L253,109L255,105L254,100L253,99L252,99L248,100L247,101L243,100L240,99L237,96L235,98L233,100L232,105L230,108L230,111L232,111L232,112L230,116L228,119L226,121L226,124L230,124L231,128L232,131L233,135L229,138L228,139L227,141L225,141L224,148L221,154L223,155L224,158L226,160L237,160L238,162L239,165L241,166L246,167L252,167L254,167L259,168L261,172L259,178L262,182L264,182L265,184L265,187L264,189L262,193L264,197L266,197L268,198Z " data-fips="BU46" data-hasc="BG.VT" data-name="Veliko Tarnovo" data-postal="VT" data-varname="Veliko Turnovo|Gorna Oryahovitsa|Gorna Orjahovica|Turnovo|Tirnovo|Trnova"/><path d="M76,157L78,156L81,157L84,156L87,153L87,150L89,148L91,148L92,145L88,142L82,140L82,137L84,135L86,132L88,129L89,125L89,121L91,117L95,115L96,116L98,117L100,117L101,115L103,113L105,114L106,113L106,112L105,111L104,110L103,109L102,109L101,108L100,107L101,105L102,104L103,103L103,101L103,100L105,97L106,93L107,83L106,80L104,79L96,74L83,73L76,74L73,76L70,76L68,77L61,78L61,82L60,84L58,85L56,84L55,86L56,87L58,88L59,89L60,91L61,93L60,95L56,96L53,100L52,106L53,108L54,108L55,110L54,112L49,113L45,114L42,115L40,115L40,118L38,123L34,127L35,127L40,133L42,136L42,138L42,139L44,141L46,144L47,145L49,146L53,147L54,148L54,149L58,148L63,155L65,157L73,158Z " data-fips="BU47" data-hasc="BG.MT" data-name="Montana" data-postal="MT" data-varname="Mikhaylovgrad|Mihailovgrad"/><path d="M102,168L106,165L107,166L108,168L110,168L112,167L114,165L116,163L119,165L127,166L128,167L130,168L132,167L133,165L132,162L132,159L133,158L134,159L136,159L137,157L138,152L137,148L132,146L131,144L132,142L134,139L139,137L141,137L142,138L143,136L144,136L147,135L150,136L153,134L154,128L155,126L155,124L153,118L150,118L148,114L147,110L145,107L147,105L149,103L152,101L154,101L159,99L162,94L163,89L148,89L120,82L116,79L114,78L107,80L106,80L107,83L106,93L105,97L103,100L103,101L103,103L102,104L101,105L100,107L101,108L102,109L103,109L104,110L105,111L106,112L106,113L105,114L103,113L101,115L100,117L98,117L96,116L95,115L91,117L89,121L89,125L88,129L86,132L84,135L82,137L82,140L88,142L92,145L91,148L89,148L87,150L87,153L90,153L92,154L93,155L91,155L90,156L90,159L91,160L92,161L94,163L96,165L97,168L99,170Z " data-fips="BU47" data-hasc="BG.VR" data-name="Vratsa" data-postal="VR" data-varname="Vraca"/><path d="M39,278L41,276L42,275L44,275L44,273L47,269L49,269L50,271L53,271L55,272L57,274L60,273L62,273L64,271L69,269L70,269L72,269L73,269L84,273L88,272L92,269L94,267L95,265L93,264L91,264L89,261L87,259L84,260L80,260L79,258L81,255L82,253L84,252L85,251L84,249L82,248L81,246L80,245L79,245L77,239L75,239L73,239L72,238L70,238L68,239L66,237L64,237L61,235L60,238L59,238L57,237L53,235L51,236L46,236L43,239L41,239L39,238L38,235L36,234L34,232L33,230L32,228L30,226L31,223L29,221L27,221L26,220L25,217L24,216L23,213L22,210L19,209L16,209L12,208L9,208L9,208L8,211L8,213L8,215L12,219L14,221L15,222L16,224L16,225L16,228L15,229L14,232L14,233L13,234L12,234L10,235L9,236L8,240L6,242L5,242L2,242L0,243L-0,243L8,254L11,256L12,260L13,262L14,264L21,269L26,271L28,272L29,273L30,273L34,273L35,274L35,275L36,276L38,276L39,276L39,278Z " data-fips="BU58" data-hasc="BG.KY" data-name="Kyustendil" data-postal="KY" data-varname="Keustendil|Kjustendil"/><path d="M38,123L40,118L40,115L42,115L45,114L49,113L54,112L55,110L54,108L53,108L52,106L53,100L56,96L60,95L61,93L60,91L59,89L58,88L56,87L55,86L56,84L58,85L60,84L61,82L61,78L51,78L49,78L47,76L46,74L46,71L48,63L49,61L50,60L52,59L55,59L57,58L60,57L61,54L60,50L57,49L54,48L51,47L34,35L30,37L29,39L27,40L28,42L27,44L27,45L27,46L27,47L27,51L26,52L25,53L23,52L21,53L20,54L20,56L19,57L17,57L13,57L12,58L11,60L10,61L10,64L10,66L9,69L8,72L8,75L6,77L6,80L7,83L9,86L9,89L9,90L9,92L10,93L11,94L12,95L14,97L15,97L15,99L15,101L16,103L15,104L16,105L15,106L15,107L16,109L17,115L18,117L19,118L22,120L23,121L25,122L27,122L28,123L29,125L30,126L32,126L34,127Z " data-fips="BU47" data-hasc="BG.VD" data-name="Vidin" data-postal="VD" data-varname=""/><path d="M423,289L421,288L422,287L422,287L424,286L425,285L426,285L426,283L432,282L435,282L440,284L441,284L442,284L443,283L442,282L442,281L442,280L442,279L443,279L446,278L448,279L450,280L451,280L455,279L456,280L459,280L459,279L459,278L459,276L459,275L458,273L457,273L457,272L456,271L456,270L455,269L455,268L454,267L450,265L447,261L445,259L445,258L445,258L443,257L442,256L442,254L439,251L437,250L437,248L438,246L439,243L438,242L439,241L438,241L436,242L434,241L433,240L433,239L433,237L434,236L433,236L432,234L434,234L433,233L432,232L431,231L430,233L428,233L427,231L427,229L426,228L425,229L423,229L422,228L421,230L419,229L418,230L416,231L414,228L414,231L413,232L413,230L413,229L412,228L412,226L413,225L414,226L415,223L416,221L417,218L419,217L426,217L428,217L427,216L426,213L426,210L427,208L429,208L432,206L435,206L433,205L433,205L433,204L433,202L433,201L435,200L438,200L443,201L447,199L447,197L447,192L446,189L445,187L445,185L445,185L443,186L441,188L439,188L437,187L434,186L432,185L430,183L428,181L426,180L424,179L421,181L414,183L410,182L407,180L405,180L403,179L400,175L397,172L393,171L389,174L384,175L380,177L376,178L373,177L370,177L367,178L365,176L360,177L359,177L357,177L356,181L353,182L350,183L347,182L347,179L346,178L340,179L341,182L340,184L341,187L342,190L341,191L341,193L341,196L339,198L337,199L335,201L336,203L338,204L340,205L342,206L345,206L348,204L353,205L356,211L356,214L357,217L359,217L359,219L359,220L360,221L363,225L365,226L365,228L373,234L373,236L374,237L377,238L379,238L381,240L383,243L383,246L380,248L379,250L379,252L379,254L379,256L378,259L379,262L381,265L380,269L380,270L382,270L383,271L385,272L387,273L389,273L391,273L391,272L393,270L394,269L396,268L399,269L401,271L403,273L407,278L409,280L411,282L417,285L418,286L420,289L421,289Z " data-fips="BU39" data-hasc="BG.BR" data-name="Burgas" data-postal="BR" data-varname="Bourgas"/><path d="M341,293L341,292L341,290L340,289L340,288L341,287L343,285L345,284L346,284L354,285L355,284L356,284L358,282L360,282L361,283L363,283L364,283L364,282L366,281L368,281L369,280L372,280L373,279L373,278L374,277L375,276L377,275L378,271L380,270L380,269L381,265L379,262L378,259L379,256L379,254L379,252L379,250L380,248L383,246L383,243L381,240L379,238L377,238L374,237L373,236L373,234L365,228L365,226L363,225L360,221L359,220L359,219L359,217L357,217L356,214L356,211L353,205L348,204L348,208L347,211L347,212L346,213L343,213L343,214L341,214L340,216L339,217L334,219L330,218L327,219L325,221L326,222L327,224L326,225L324,226L323,230L319,232L315,230L313,231L314,234L312,236L309,236L309,240L312,241L313,242L309,252L310,257L309,261L306,264L306,270L307,273L307,276L314,279L321,280L324,282L325,285L325,287L327,285L328,283L331,283L333,286L333,290L335,292L337,293L339,294Z " data-fips="BU39" data-hasc="BG.YA" data-name="Yambol" data-postal="YA" data-varname="Jambol|Jamboli"/><path d="M342,134L344,131L346,130L348,130L348,126L350,126L352,123L351,121L351,118L354,116L357,115L358,113L357,111L359,109L361,107L363,105L365,104L366,106L367,106L372,99L374,98L370,92L369,89L367,89L366,90L365,88L365,86L364,85L363,84L361,83L360,81L360,79L358,79L357,80L356,81L355,81L354,83L353,81L352,79L349,78L342,76L340,73L340,71L338,69L336,68L334,69L332,70L330,68L327,67L325,68L319,74L317,78L314,81L314,85L318,87L320,87L322,88L321,90L321,94L319,95L318,98L317,99L313,99L310,101L309,100L308,99L307,101L307,104L307,105L307,106L307,110L309,113L312,112L315,113L320,115L323,118L322,122L323,123L324,124L328,124L333,126L332,130L333,133L338,133L340,134Z " data-fips="BU52" data-hasc="BG.RG" data-name="Razgrad" data-postal="RG" data-varname=""/><path d="M310,177L312,176L313,174L315,173L316,172L316,171L316,169L316,168L318,168L319,168L321,167L323,168L323,169L324,170L325,169L328,171L330,171L332,170L334,169L335,170L338,171L342,172L343,171L345,170L345,168L343,167L345,166L346,166L347,164L347,162L348,162L349,160L348,159L347,158L348,155L351,154L352,152L353,149L354,148L355,148L355,143L352,138L353,136L354,133L355,132L356,131L355,127L350,126L348,126L348,130L346,130L344,131L342,134L340,134L338,133L333,133L332,130L333,126L328,124L324,124L323,123L322,122L323,118L320,115L315,113L312,112L309,113L307,114L305,114L303,114L301,114L300,115L297,116L297,120L296,122L294,124L292,126L290,126L290,129L292,131L294,131L296,132L296,134L296,137L299,138L301,140L299,142L299,145L302,148L303,152L302,152L301,152L300,154L300,156L299,158L299,161L300,163L301,166L301,167L302,168L303,169L303,170L302,172L302,174L305,175L308,177Z " data-fips="BU52" data-hasc="BG.TU" data-name="Targovishte" data-postal="TU" data-varname="Torgovishte|Tgovite"/><path d="M353,182L356,181L357,177L359,177L360,177L365,176L367,178L370,177L373,177L376,178L380,177L384,175L382,173L381,170L382,169L387,166L391,165L390,162L387,161L389,159L387,157L388,155L391,153L391,151L388,150L386,148L386,145L388,143L391,143L394,142L394,140L394,138L396,137L398,135L397,133L395,131L395,129L396,126L397,125L400,120L399,119L398,118L399,117L400,114L396,113L400,109L406,107L405,104L403,103L400,104L397,105L395,104L393,101L383,97L380,93L377,92L374,98L372,99L367,106L366,106L365,104L363,105L361,107L359,109L357,111L358,113L357,115L354,116L351,118L351,121L352,123L355,127L356,131L355,132L354,133L353,136L352,138L355,143L355,148L354,148L353,149L352,152L351,154L348,155L347,158L348,159L349,160L348,162L347,162L347,164L346,166L345,166L343,167L345,168L345,170L343,171L342,172L339,176L340,179L346,178L347,179L347,182L350,183Z " data-fips="BU61" data-hasc="BG.SH" data-name="Shumen" data-postal="SH" data-varname="Kolarovgrad|umla|umen"/><path d="M457,130L460,128L462,125L465,123L467,123L472,123L473,123L476,121L478,121L482,121L484,122L486,124L489,125L490,127L490,125L491,124L491,123L496,118L497,117L498,114L499,111L500,108L500,106L499,105L498,104L498,102L497,100L497,87L497,86L486,87L469,84L452,78L450,76L446,63L444,60L439,61L434,64L429,65L426,61L424,61L422,63L423,65L421,67L420,67L420,68L420,70L418,71L416,69L414,70L413,73L413,76L410,79L406,77L404,78L402,80L403,85L400,85L396,82L394,83L393,85L390,89L390,94L392,97L390,97L393,101L395,104L397,105L400,104L403,103L405,104L406,107L409,108L412,111L412,114L414,115L416,114L417,113L419,113L420,111L421,110L424,114L427,117L430,117L432,119L434,122L438,126L442,129L444,128L445,127L448,125L450,125L452,128L454,130Z " data-fips="BU61" data-hasc="BG.DO" data-name="Dobrich" data-postal="DO" data-varname="Tolbukhin"/><path d="M441,188L443,186L445,185L445,185L445,185L447,184L447,182L447,175L446,173L445,168L445,165L446,163L446,162L447,161L448,156L449,151L449,150L449,149L446,146L447,146L448,146L453,144L455,143L456,141L457,130L454,130L452,128L450,125L448,125L445,127L444,128L442,129L438,126L434,122L432,119L430,117L427,117L424,114L421,110L420,111L419,113L417,113L416,114L414,115L412,114L412,111L409,108L406,107L400,109L396,113L400,114L399,117L398,118L399,119L400,120L397,125L396,126L395,129L395,131L397,133L398,135L396,137L394,138L394,140L394,142L391,143L388,143L386,145L386,148L388,150L391,151L391,153L388,155L387,157L389,159L387,161L390,162L391,165L387,166L382,169L381,170L382,173L384,175L389,174L393,171L397,172L400,175L403,179L405,180L407,180L410,182L414,183L421,181L424,179L426,180L428,181L430,183L432,185L434,186L437,187L439,188Z " data-fips="BU61" data-hasc="BG.VN" data-name="Varna" data-postal="VN" data-varname="Stalin"/><path d="M392,97L390,94L390,89L393,85L394,83L396,82L400,85L403,85L402,80L404,78L406,77L410,79L413,76L413,73L414,70L416,69L418,71L420,70L420,68L420,67L421,67L423,65L422,63L424,61L426,61L425,61L423,57L422,57L417,58L402,59L401,58L400,56L399,55L394,53L393,51L393,48L391,47L389,48L388,47L380,45L374,42L372,43L363,44L355,49L352,50L348,50L346,51L344,52L342,52L320,56L320,57L321,60L323,60L324,63L325,68L327,67L330,68L332,70L334,69L336,68L338,69L340,71L340,73L342,76L349,78L352,79L353,81L354,83L355,81L356,81L357,80L358,79L360,79L360,81L361,83L363,84L364,85L365,86L365,88L366,90L367,89L369,89L370,92L377,92L380,93L383,97L390,97Z " data-fips="RO41" data-hasc="BG.SI" data-name="Silistra" data-postal="SI" data-varname=""/><path d="M296,134L296,132L294,131L292,131L290,129L290,126L292,126L294,124L296,122L297,120L297,116L300,115L301,114L303,114L305,114L307,114L309,113L307,110L307,106L307,105L307,104L307,101L308,99L309,100L310,101L313,99L317,99L318,98L319,95L321,94L321,90L322,88L320,87L318,87L314,85L314,81L317,78L319,74L325,68L324,63L323,60L321,60L320,57L320,56L318,56L312,59L305,61L302,63L300,66L298,68L298,70L288,77L288,78L287,79L285,83L283,84L281,86L278,88L278,89L276,92L273,93L268,93L266,94L265,96L263,97L262,97L260,98L259,99L257,99L253,99L254,100L255,105L253,109L252,110L252,112L256,115L256,117L257,117L258,116L260,116L259,119L258,122L263,127L267,128L268,126L270,126L271,128L272,128L273,129L275,130L278,131L280,131L282,132L284,132L287,131L289,131L289,133L290,136L293,137L296,137Z " data-fips="BU52" data-hasc="BG.RS" data-name="Ruse" data-postal="RS" data-varname="Russe|Rucuk|Rustchuk"/><path d="M63,354L65,353L66,353L66,352L67,351L67,348L69,347L70,346L72,345L74,345L75,346L76,347L77,348L79,348L80,347L83,346L84,345L92,345L98,348L100,349L102,348L104,346L105,345L108,345L111,346L112,345L114,342L115,342L117,342L118,342L120,341L121,341L124,339L128,342L129,342L132,340L132,339L135,340L136,340L137,338L136,336L136,332L139,331L142,331L144,332L145,333L147,333L147,331L149,330L139,322L141,320L143,318L140,317L140,315L139,315L137,314L136,312L127,306L126,304L125,302L124,303L122,303L120,301L118,299L116,295L116,290L115,289L114,287L114,285L114,283L116,278L119,275L117,273L117,271L118,270L118,268L118,266L117,264L115,263L113,261L112,262L111,262L109,262L106,262L104,263L101,263L99,267L97,271L92,269L88,272L84,273L73,269L72,269L70,269L69,269L64,271L62,273L60,273L57,274L55,272L53,271L50,271L49,269L47,269L44,273L44,275L42,275L41,276L39,278L39,278L40,279L40,280L40,281L40,284L41,287L42,290L42,292L42,293L44,294L44,295L45,299L46,303L48,304L51,305L52,307L52,310L51,312L49,315L49,317L48,317L46,318L46,319L45,321L45,322L46,325L46,326L46,327L46,329L46,331L46,339L47,340L46,341L45,343L45,345L46,348L45,350L43,351L59,354Z " data-fips="MK78" data-hasc="BG.BL" data-name="Blagoevgrad" data-postal="BL" data-varname="Gorna Cumaya|Cuma-i Bala|Gorna Djumaya|Gorna Dzhumaya"/></g></svg>