<?xml version="1.0" ?><!DOCTYPE svg  PUBLIC '-//W3C//DTD SVG 1.1//EN'  'http://www.w3.org/Graphics/SVG/1.1/DTD/svg11.dtd'><svg enable_background="new 0 0 500 401" height="401px" style="stroke-linejoin: round; stroke:#000; fill:#f6f3f0;" version="1.1" viewBox="0 0 500 401" width="500px" xmlns="http://www.w3.org/2000/svg" xmlns:xlink="http://www.w3.org/1999/xlink"><defs><style type="text/css"><![CDATA[path { fill-rule: evenodd; }
#context path { fill: #eee; stroke: #bbb; } ]]></style></defs><metadata><views><view h="401" padding="0" w="500"><proj id="laea" lat0="46.565" lon0="2.55"/><bbox h="379.19" w="777.83" x="286.26" y="944.2"/><llbbox lat0="-90" lat1="90" lon0="-180" lon1="180"/></view></views></metadata><g id="admin1"><path d="M477,132L476,131L476,131L475,130L476,129L477,128L477,128L478,127L479,127L480,127L480,126L480,125L480,125L481,125L482,124L483,124L483,124L484,123L484,122L483,121L483,120L482,120L483,119L483,118L483,117L482,116L482,115L482,114L481,114L480,114L479,115L479,116L478,116L478,115L478,114L478,115L477,115L475,115L474,115L474,114L473,114L473,114L472,114L472,115L471,116L470,116L469,116L468,116L467,117L466,116L466,117L466,118L465,119L465,120L466,121L467,122L467,123L468,123L469,123L469,124L469,125L469,126L468,126L467,127L466,128L467,129L467,130L468,131L469,131L470,131L471,131L471,131L472,132L473,131L474,132L475,132L475,133Z " data-fips="FRB9" data-hasc="" data-name="Rhne-Alpes" data-postal="" data-varname="Rhone-Alpes"/><path d="M2,188L2,187L2,186L1,185L0,185L0,186L0,187L0,188L1,189L1,189Z " data-fips="MB**" data-hasc="" data-name="Martinique" data-postal="FF" data-varname=""/><path d="M15,321L16,321L18,320L18,320L19,318L20,317L21,317L23,316L24,315L25,314L26,314L27,313L28,312L28,311L28,310L28,309L27,308L26,309L25,310L26,309L26,307L26,306L25,305L24,305L25,304L24,303L24,302L23,300L23,299L22,297L21,296L20,295L19,294L19,293L18,292L17,291L16,290L15,290L14,291L13,292L12,292L11,292L10,293L10,294L10,295L9,297L9,298L9,299L9,300L9,301L9,302L10,303L10,304L10,306L10,307L9,307L8,308L8,309L7,310L6,311L5,312L4,312L3,313L4,314L5,315L5,315L6,316L7,316L8,316L9,317L10,318L11,318L12,319L12,320L13,321L14,321Z " data-fips="FG01" data-hasc="GF.CY" data-name="French Guiana" data-postal="CY" data-varname=""/><path d="M450,100L449,99L450,99L450,98L450,97L449,96L449,95L448,95L448,94L448,93L447,92L447,91L446,91L445,91L444,92L443,91L442,91L441,91L440,91L439,90L439,89L438,88L437,88L436,89L436,90L436,91L437,91L437,92L437,93L437,95L437,96L438,96L437,96L437,97L438,98L439,97L440,98L441,98L442,98L443,98L444,98L445,98L445,98L445,99L446,98L447,98L448,99L449,100L450,101Z " data-fips="FR99" data-hasc="" data-name="Basse-Normandie" data-postal="" data-varname="Baja Normanda|Lower Normandy"/><path d="M433,105L434,105L435,104L436,104L437,103L438,103L439,103L439,102L440,101L440,100L440,99L440,98L439,97L438,98L437,97L437,96L437,97L436,96L435,96L435,97L435,96L434,97L433,96L432,96L431,97L431,96L430,95L429,94L429,94L428,94L427,95L426,95L425,95L424,95L423,95L422,95L421,96L420,97L420,98L422,98L423,97L422,98L423,98L422,98L422,100L420,100L421,100L422,101L422,102L423,101L424,102L425,102L426,103L427,103L428,104L429,104L430,104L431,104L430,105L431,105L432,106Z " data-fips="FRA2" data-hasc="" data-name="Bretagne" data-postal="" data-varname="Bretaa|Brittany"/><path d="M445,124L446,124L446,123L447,122L447,121L448,120L448,120L449,119L450,118L449,117L449,116L450,115L451,115L451,114L450,113L450,113L449,112L448,110L447,110L446,109L446,109L445,109L445,109L444,109L443,109L442,110L441,110L440,110L440,111L441,112L441,113L441,114L442,115L441,115L440,115L439,115L439,115L439,117L439,118L438,119L439,120L438,119L438,120L439,121L440,122L441,123L441,123L442,123L443,124L444,125Z " data-fips="FRB7" data-hasc="" data-name="Poitou-Charentes" data-postal="" data-varname=""/><path d="M442,115L441,114L441,113L441,112L440,111L440,110L441,110L442,110L443,109L444,109L445,109L445,109L446,107L446,106L446,105L448,105L448,104L449,104L450,103L450,102L450,101L449,100L448,99L447,98L446,98L445,99L445,98L445,98L444,98L443,98L442,98L441,98L440,98L440,99L440,100L440,101L439,102L439,103L438,103L437,103L436,104L435,104L434,105L433,105L432,106L431,106L432,107L433,107L434,107L435,107L434,107L433,107L434,108L434,110L433,110L434,111L435,112L435,113L436,114L437,114L438,115L439,115L440,115L441,115Z " data-fips="FRA5" data-hasc="" data-name="Pays de la Loire" data-postal="" data-varname=""/><path d="M442,143L442,142L442,141L443,141L444,140L444,139L444,138L444,137L443,136L443,135L444,134L445,134L445,134L446,134L448,133L449,133L449,132L449,131L450,130L450,129L451,128L452,128L453,127L453,126L452,125L452,124L452,123L452,122L451,122L450,121L449,121L448,120L448,120L447,121L447,122L446,123L446,124L445,124L444,125L443,124L442,123L441,123L441,123L441,125L441,126L441,125L441,124L440,123L439,122L438,122L438,123L438,124L437,128L438,127L438,128L437,129L437,130L437,131L437,133L436,135L436,136L436,137L435,138L434,139L435,139L436,140L435,141L436,141L437,141L438,142L439,142L440,142L441,143Z " data-fips="FR97" data-hasc="" data-name="Aquitaine" data-postal="" data-varname=""/><path d="M499,152L499,151L499,150L499,149L499,148L500,147L500,146L500,144L500,143L499,143L499,142L499,141L498,140L498,141L498,142L497,142L497,143L495,144L495,145L494,145L495,146L494,147L495,148L495,149L496,149L495,150L496,151L496,152L497,152L498,153Z " data-fips="FR14" data-hasc="" data-name="Corse" data-postal="" data-varname="Crcega|Crsega|Corsica"/><path d="M480,140L481,140L482,140L482,139L483,138L484,137L485,137L485,136L486,135L487,135L487,133L488,132L487,132L486,132L485,131L484,131L484,130L483,129L484,128L484,126L483,126L482,125L482,124L481,125L480,125L480,125L480,126L480,127L479,127L478,127L477,128L477,128L476,129L475,130L476,131L476,131L477,132L475,133L475,132L474,132L473,131L472,132L471,131L471,131L471,132L471,133L472,134L471,135L471,136L470,136L469,137L468,138L471,139L472,139L472,138L472,138L471,137L472,138L473,138L473,137L474,138L474,139L475,139L475,140L476,140L477,140L478,140L479,141Z " data-fips="FRB8" data-hasc="" data-name="Provence-Alpes-Cte-d'Azur" data-postal="" data-varname="Provenza-Alpes-Costa de Azul"/><path d="M459,147L461,146L462,146L463,146L462,145L462,144L461,143L462,142L462,141L463,140L464,139L466,138L466,137L465,138L467,137L468,137L468,138L469,137L470,136L471,136L471,135L472,134L471,133L471,132L471,131L470,131L469,131L468,131L467,130L467,129L466,128L466,128L465,127L464,127L463,126L462,127L462,128L461,129L462,130L462,131L463,132L463,133L464,134L463,135L462,135L462,136L461,137L459,138L459,138L458,138L457,139L456,138L455,139L454,139L454,140L455,141L456,142L455,143L455,144L456,144L455,145L454,145L454,146L455,147L456,146L457,146L458,147Z " data-fips="FRA9" data-hasc="" data-name="Languedoc-Roussillon" data-postal="" data-varname="Languedoc-Rosellon"/><path d="M455,145L456,144L455,144L455,143L456,142L455,141L454,140L454,139L455,139L456,138L457,139L458,138L459,138L459,138L461,137L462,136L462,135L463,135L464,134L463,133L463,132L462,131L462,130L461,129L461,128L461,127L460,126L459,127L459,128L458,129L457,128L456,127L456,126L455,126L454,126L453,126L453,126L453,127L452,128L451,128L450,129L450,130L449,131L449,132L449,133L448,133L446,134L445,134L445,134L444,134L443,135L443,136L444,137L444,138L444,139L444,140L443,141L442,141L442,142L442,143L443,143L443,144L444,144L446,144L447,144L448,143L449,143L450,143L451,144L452,144L452,145L453,145L454,145Z " data-fips="FRB3" data-hasc="" data-name="Midi-Pyrnes" data-postal="" data-varname=""/><path d="M462,128L462,127L463,126L464,127L465,127L466,128L467,127L468,126L469,126L469,125L469,124L469,123L468,123L467,123L467,122L466,121L465,120L465,119L466,118L466,117L466,116L467,115L467,114L466,114L465,113L464,112L463,112L462,112L461,112L460,112L459,113L459,114L458,114L458,115L458,116L459,117L459,118L459,119L458,120L459,121L459,122L458,123L458,123L457,124L457,125L456,126L456,127L457,128L458,129L459,128L459,127L460,126L461,127L461,128L461,129Z " data-fips="FR98" data-hasc="" data-name="Auvergne" data-postal="" data-varname=""/><path d="M468,116L469,116L470,116L471,116L472,115L472,114L473,114L473,114L474,114L474,114L474,113L474,112L474,111L474,110L474,109L475,108L475,107L474,106L474,105L473,104L472,104L472,103L471,103L470,102L469,102L467,102L466,103L466,102L465,101L464,100L463,99L463,99L462,99L461,100L462,102L461,103L461,104L461,105L461,106L461,107L461,108L461,109L462,110L462,111L462,112L463,112L464,112L465,113L466,114L467,114L467,115L466,116L467,117Z " data-fips="FRA1" data-hasc="" data-name="Bourgogne" data-postal="" data-varname="Borgoa|Burgundy"/><path d="M454,115L455,114L456,115L458,114L459,114L459,113L460,112L461,112L462,111L462,110L461,109L461,108L461,107L461,106L461,105L461,104L461,103L462,102L460,101L459,100L458,100L457,100L456,99L455,98L454,97L454,97L454,96L453,95L453,96L452,96L451,96L450,97L450,98L450,99L449,99L450,100L450,101L450,102L450,103L449,104L448,104L448,105L446,105L446,106L446,107L445,109L446,109L446,109L447,110L448,110L449,112L450,113L450,113L451,114L451,115L452,115L453,115Z " data-fips="FRA3" data-hasc="" data-name="Centre" data-postal="" data-varname=""/><path d="M451,96L452,96L453,96L453,95L453,94L454,93L455,92L455,91L454,90L454,89L455,88L454,87L453,86L452,86L450,87L449,87L448,88L447,89L446,90L447,90L448,90L447,91L447,92L448,93L448,94L448,95L449,95L449,96L450,97Z " data-fips="FRA7" data-hasc="" data-name="Haute-Normandie" data-postal="" data-varname="Alta Normanda|Upper Normandy"/><path d="M461,100L462,99L463,99L463,99L463,98L464,97L464,96L463,95L462,93L461,94L460,94L459,93L457,93L456,92L455,93L454,93L453,94L453,95L454,96L454,97L454,97L455,98L456,99L457,100L458,100L459,100L460,101Z " data-fips="FRA8" data-hasc="" data-name="le-de-France" data-postal="" data-varname=""/><path d="M456,126L457,125L457,124L458,123L458,123L459,122L459,121L458,120L459,119L459,118L459,117L458,116L458,115L456,115L455,114L454,115L453,115L452,115L451,115L450,115L449,116L449,117L450,118L449,119L448,120L448,120L448,120L449,121L450,121L451,122L452,122L452,123L452,124L452,125L453,126L453,126L454,126L455,126Z " data-fips="FRB1" data-hasc="" data-name="Limousin" data-postal="" data-varname="Lemosin"/><path d="M475,104L476,104L476,103L477,102L476,101L475,100L475,100L474,99L474,98L473,98L472,97L471,96L471,95L471,94L471,92L472,91L472,90L472,90L473,89L473,89L472,89L471,88L471,87L470,86L470,85L470,85L469,86L468,87L467,87L467,87L467,88L466,89L466,90L466,91L465,91L465,92L464,93L464,94L464,96L464,97L463,98L463,99L464,100L465,101L466,102L466,103L467,102L469,102L470,102L471,103L472,103L472,104L473,104L474,105Z " data-fips="FRA4" data-hasc="" data-name="Champagne-Ardenne" data-postal="" data-varname="Champaa-Ardenne"/><path d="M467,86L467,85L466,84L465,84L464,84L464,83L463,82L462,82L462,81L461,80L460,81L459,80L459,79L459,78L459,78L458,78L457,78L456,78L455,79L454,80L454,81L454,82L454,83L454,84L455,83L456,84L457,85L458,84L459,85L460,85L461,86L462,86L463,86L464,86L465,86L466,86L467,86Z " data-fips="FRB4" data-hasc="" data-name="Nord-Pas-de-Calais" data-postal="" data-varname=""/><path d="M464,94L464,93L465,92L465,91L466,91L466,90L466,89L467,88L467,87L467,87L467,86L466,86L465,86L464,86L463,86L462,86L461,86L460,85L459,85L458,84L457,85L456,84L455,83L454,84L454,83L454,84L453,85L453,86L454,87L455,88L454,89L454,90L455,91L455,92L455,93L456,92L457,93L459,93L460,94L461,94L462,93L463,95Z " data-fips="FRB6" data-hasc="" data-name="Picardie" data-postal="" data-varname=""/><path d="M478,115L478,114L478,114L478,113L479,112L480,111L480,110L481,110L481,109L482,108L483,107L482,106L483,105L483,105L483,105L483,104L482,103L481,103L480,102L479,102L478,102L477,102L477,102L476,103L476,104L475,104L474,106L475,107L475,108L474,109L474,110L474,111L474,112L474,113L474,114L474,114L474,115L475,115L477,115Z " data-fips="FRA6" data-hasc="" data-name="Franche-Comt" data-postal="" data-varname="Franco-Condado"/><path d="M485,105L486,104L485,103L485,102L486,101L485,100L486,99L486,98L486,97L486,96L487,95L488,95L488,93L486,93L485,93L485,94L484,94L483,94L482,93L482,94L483,95L484,96L483,97L483,98L483,99L483,101L482,102L482,103L483,104L483,105L483,105L483,105L484,106Z " data-fips="FR96" data-hasc="" data-name="Alsace" data-postal="" data-varname="Alsacia"/><path d="M482,102L483,101L483,99L483,98L483,97L484,96L483,95L482,94L482,93L483,94L484,94L485,94L485,93L485,93L484,92L483,93L482,93L481,92L480,92L480,91L479,90L478,90L477,90L476,90L475,90L474,90L473,89L472,90L472,90L472,91L471,92L471,94L471,95L471,96L472,97L473,98L474,98L474,99L475,100L475,100L476,101L477,102L477,102L478,102L479,102L480,102L481,103L482,103Z " data-fips="FRB2" data-hasc="" data-name="Lorraine" data-postal="" data-varname="Lorena"/></g></svg>