<?xml version="1.0" ?><!DOCTYPE svg  PUBLIC '-//W3C//DTD SVG 1.1//EN'  'http://www.w3.org/Graphics/SVG/1.1/DTD/svg11.dtd'><svg enable_background="new 0 0 500 401" height="401px" style="stroke-linejoin: round; stroke:#000; fill:#f6f3f0;" version="1.1" viewBox="0 0 500 401" width="500px" xmlns="http://www.w3.org/2000/svg" xmlns:xlink="http://www.w3.org/1999/xlink"><defs><style type="text/css"><![CDATA[path { fill-rule: evenodd; }
#context path { fill: #eee; stroke: #bbb; } ]]></style></defs><metadata><views><view h="401" padding="0" w="500"><proj id="laea" lat0="62.05" lon0="-6.864"/><bbox h="12.4" w="7.88" x="995.5" y="995.69"/><llbbox lat0="-90" lat1="90" lon0="-180" lon1="180"/></view></views></metadata><g id="admin1"><path d="M308,398L310,393L309,387L306,381L302,379L302,375L303,374L295,373L292,375L290,379L289,375L287,373L286,371L283,371L283,368L288,369L291,369L298,365L300,365L302,366L304,365L304,362L296,357L296,355L298,353L299,351L298,349L296,346L294,346L290,347L288,346L287,344L285,340L283,337L279,335L281,333L284,333L287,334L289,337L292,339L295,339L297,335L296,330L292,326L280,324L275,317L259,319L259,317L268,308L266,309L264,309L262,308L260,306L261,305L265,300L262,298L259,298L252,303L253,304L253,306L250,306L251,312L252,314L253,321L257,331L263,340L268,346L267,356L275,368L292,385L299,395L304,399Z M308,258L310,255L311,252L312,251L313,240L312,238L312,236L313,234L315,229L314,226L309,220L307,214L305,212L291,208L289,206L286,201L284,199L282,198L276,199L272,199L264,195L260,194L262,201L266,210L266,217L268,222L270,225L273,226L290,229L293,232L305,258L306,259Z M298,181L298,174L299,169L299,166L293,162L292,156L294,150L296,145L291,140L278,140L272,137L272,134L282,134L284,132L283,128L280,122L278,117L261,118L264,117L266,115L269,113L270,110L271,106L271,102L270,100L260,97L250,87L243,85L244,76L235,58L232,49L230,43L223,39L211,36L210,36L208,35L207,33L205,49L205,57L208,63L205,65L204,68L204,72L203,77L202,78L201,78L200,80L199,84L199,87L200,88L202,91L203,93L209,98L211,99L214,97L217,95L219,94L221,99L218,100L218,104L219,108L223,110L237,112L240,114L243,117L246,121L247,125L248,131L249,136L250,139L253,140L260,143L270,161L281,169L287,177L292,183Z M208,148L219,142L218,142L216,142L214,141L213,139L216,137L219,137L222,139L226,139L230,138L232,133L234,128L236,123L232,117L228,116L223,117L218,115L216,112L213,106L211,104L209,104L202,99L202,96L203,96L203,93L190,97L187,100L185,101L184,102L184,104L183,106L182,107L178,107L176,107L174,105L167,98L163,99L163,107L167,116L172,120L181,123L186,125L190,128L172,128L172,131L175,131L182,137L194,139L202,145L204,145L204,141L203,138L200,135L199,134L202,132L204,134L206,139L208,145L207,146L205,151Z M141,119L143,119L141,117L139,115L134,112L128,112L123,115L124,118L139,120Z M306,131L306,129L307,128L309,126L308,123L308,123L307,122L306,121L308,117L312,115L315,115L319,115L319,112L312,105L309,102L305,102L305,99L314,103L324,104L317,97L294,85L294,83L298,81L309,83L314,82L316,81L315,78L308,73L298,69L296,69L292,71L291,72L289,71L285,67L283,66L283,63L287,62L290,58L292,54L290,53L275,50L279,48L280,47L277,42L273,42L259,47L258,51L260,63L257,60L256,55L255,50L255,43L257,40L261,38L265,35L264,31L262,31L260,29L258,27L256,25L254,25L246,27L239,32L235,34L233,33L231,31L229,31L227,34L228,36L229,39L231,41L233,43L239,63L251,83L253,85L255,86L258,90L260,92L261,94L269,93L284,112L291,118L295,110L293,99L288,93L282,88L278,83L283,81L289,86L294,94L297,102L298,111L298,121L300,129L307,134Z M335,89L334,86L333,82L329,69L331,67L334,70L340,81L342,85L346,86L350,85L353,82L353,80L351,78L351,76L350,69L347,71L343,68L336,58L337,55L341,59L347,62L353,61L356,55L347,49L339,41L332,30L327,14L328,12L323,15L322,21L324,28L326,36L326,39L327,50L327,54L326,57L326,59L326,60L324,61L324,60L322,58L321,61L320,68L322,74L329,82L329,84L330,85L330,87L332,88L334,89Z M368,60L370,59L372,56L373,54L372,50L371,46L377,40L377,38L374,36L368,36L362,42L359,44L357,47L357,51L359,57L362,61L365,61Z M353,41L354,39L355,35L353,31L352,30L351,29L349,29L347,32L345,32L344,30L344,27L343,23L340,20L338,15L336,9L334,4L332,1L327,0L325,3L327,8L329,11L331,21L334,27L338,35L344,41L349,43Z M321,52L320,47L320,43L318,37L310,19L308,13L305,10L302,13L301,22L303,31L308,43L310,47L314,53L318,55Z M309,64L310,60L308,55L307,54L294,28L289,15L286,10L284,8L282,10L282,15L286,25L287,28L292,38L295,44L297,46L299,52L300,58L303,63L306,65Z " data-fips="FO00" data-hasc="FO.OS" data-name="Eysturoyar" data-postal="OS" data-varname="ster|Eysturoy"/></g></svg>