<?xml version="1.0" ?><!DOCTYPE svg  PUBLIC '-//W3C//DTD SVG 1.1//EN'  'http://www.w3.org/Graphics/SVG/1.1/DTD/svg11.dtd'><svg enable_background="new 0 0 500 401" height="401px" style="stroke-linejoin: round; stroke:#000; fill:#f6f3f0;" version="1.1" viewBox="0 0 500 401" width="500px" xmlns="http://www.w3.org/2000/svg" xmlns:xlink="http://www.w3.org/1999/xlink"><defs><style type="text/css"><![CDATA[path { fill-rule: evenodd; }
#context path { fill: #eee; stroke: #bbb; } ]]></style></defs><metadata><views><view h="401" padding="0" w="500"><proj id="laea" lat0="53.0" lon0="-1.6"/><bbox h="133.73" w="72.41" x="952.91" y="903.2"/><llbbox lat0="-90" lat1="90" lon0="-180" lon1="180"/></view></views></metadata><g id="admin1"><path d="M224,207L224,206L225,205L225,204L226,203L227,203L229,203L229,204L230,203L230,201L231,199L232,198L233,197L233,197L233,196L233,194L233,193L231,194L230,194L229,194L228,194L229,193L229,192L228,191L227,189L225,188L222,186L222,186L221,188L220,188L220,190L221,190L222,191L221,192L220,192L221,193L222,193L223,194L224,195L223,196L222,197L223,198L223,200L222,199L220,200L221,201L222,202L223,203L223,204L223,206L222,207L223,208L223,208Z " data-fips="UK87" data-hasc="GB.EA" data-name="East Ayrshire" data-postal="EA" data-varname=""/><path d="M230,181L231,181L232,180L232,179L231,179L230,176L229,177L227,177L228,178L227,179L225,180L226,181L227,181L228,181L228,181Z " data-fips="UK87" data-hasc="GB.ED" data-name="East Dunbartonshire" data-postal="ED" data-varname=""/><path d="M228,188L228,187L228,186L227,185L226,185L225,184L225,184L224,185L222,186L222,186L225,188L227,189Z " data-fips="UK87" data-hasc="GB.ER" data-name="East Renfrewshire" data-postal="ER" data-varname=""/><path d="M229,184L230,184L231,183L230,182L228,181L228,181L227,181L226,181L226,182L226,183L225,184L226,185L227,185L229,185Z " data-fips="UK87" data-hasc="GB.GG" data-name="Glasgow" data-postal="GG" data-varname="Glasgow City"/><path d="M221,182L220,181L220,180L219,179L218,179L216,179L215,179L214,181L215,182L215,182L216,182L218,183L219,183L220,183Z " data-fips="UK87" data-hasc="GB.IC" data-name="Inverclyde" data-postal="IC" data-varname=""/><path d="M220,192L221,192L222,191L221,190L220,190L220,188L221,188L222,186L222,186L222,186L221,186L219,185L218,184L216,182L215,182L215,182L215,183L215,185L215,187L214,187L215,189L216,190L216,190L218,192L219,193L219,193Z " data-fips="UK87" data-hasc="GB.ED" data-name="North Ayshire" data-postal="ED" data-varname=""/><path d="M236,187L237,186L238,186L239,185L239,182L237,182L237,181L235,180L236,179L234,179L234,178L233,177L231,177L231,179L232,179L232,180L231,181L230,181L230,182L231,183L231,184L233,186L235,187Z " data-fips="UK87" data-hasc="GB.NN" data-name="North Lanarkshire" data-postal="NN" data-varname=""/><path d="M224,185L225,184L225,184L226,183L226,182L225,182L224,181L223,180L223,180L220,180L220,181L221,182L220,183L219,183L218,183L218,184L219,185L221,186L222,186Z " data-fips="UK87" data-hasc="GB.RF" data-name="Renfrewshire" data-postal="RF" data-varname=""/><path d="M211,213L212,214L213,212L216,212L217,212L219,212L218,211L218,209L219,209L221,208L222,207L223,206L223,204L223,203L222,202L221,201L220,200L222,199L223,200L223,198L222,197L223,196L224,195L223,194L222,193L221,193L220,192L219,193L219,193L219,194L220,196L219,197L217,198L216,200L216,201L215,202L214,204L214,206L212,207L211,208L211,209L210,210L210,211L210,212L210,214Z " data-fips="UK87" data-hasc="GB.SA" data-name="South Ayrshire" data-postal="SA" data-varname=""/><path d="M240,203L241,202L241,200L242,199L243,197L243,196L243,194L242,193L243,192L243,191L245,188L244,188L244,186L242,186L241,185L239,185L238,186L237,186L236,187L235,187L233,186L231,184L230,184L229,184L229,185L228,186L228,187L228,188L228,191L229,192L229,193L228,194L229,194L230,194L231,194L233,193L233,194L233,196L233,197L233,197L233,198L235,198L236,198L237,199L238,201L238,203L240,204Z " data-fips="UK87" data-hasc="GB.SL" data-name="South Lanarkshire" data-postal="SL" data-varname=""/><path d="M226,181L225,180L225,178L224,177L223,176L224,175L223,175L222,174L221,174L221,175L221,177L221,178L221,179L223,180L224,181L225,182L226,182Z " data-fips="UK87" data-hasc="GB.WD" data-name="West Dunbartonshire" data-postal="WD" data-varname="Dumbarton and Clydebank"/><path d="M269,138L270,138L272,138L273,138L273,137L273,135L273,133L272,133L271,133L270,133L269,133L269,134L269,135L269,136L267,137L268,138Z " data-fips="UK82" data-hasc="GB.AR" data-name="Aberdeen" data-postal="AR" data-varname="Aberdeen City"/><path d="M266,151L266,150L268,149L268,148L270,147L270,146L271,145L270,143L271,142L271,141L273,138L272,138L270,138L269,138L268,138L267,137L269,136L269,135L269,134L269,133L270,133L271,133L272,133L273,133L275,129L278,127L278,126L279,124L279,123L279,122L278,120L278,119L276,117L275,117L275,116L272,116L270,117L268,116L267,116L266,117L265,116L264,117L263,116L261,116L260,116L258,115L258,117L258,118L260,120L261,122L260,123L259,122L257,122L256,123L255,124L254,125L255,127L255,128L255,129L255,130L254,131L253,131L252,131L251,132L250,133L249,134L248,135L248,136L248,138L246,138L245,138L243,138L242,138L241,137L240,139L239,140L239,141L239,142L238,143L239,143L240,144L242,144L243,144L243,145L244,145L245,146L246,145L247,145L248,145L249,144L251,145L252,145L253,143L254,142L256,142L257,142L258,143L260,143L261,144L261,145L261,147L261,148L262,150L264,150L264,151L266,151Z " data-fips="UK82" data-hasc="GB.AS" data-name="Aberdeenshire" data-postal="AS" data-varname=""/><path d="M248,138L248,136L248,135L249,134L250,133L251,132L252,131L253,131L254,131L255,130L255,129L255,128L255,127L254,125L255,124L256,123L257,122L259,122L260,123L261,122L260,120L258,118L258,117L258,115L256,116L255,116L253,117L251,116L249,115L247,115L245,115L245,116L244,117L243,116L243,117L243,117L241,117L240,118L240,119L241,120L241,121L241,122L241,123L241,125L241,126L241,125L243,125L245,124L247,126L247,127L246,128L246,129L245,130L246,131L245,132L246,134L245,135L244,135L243,136L242,137L241,137L242,138L243,138L245,138L246,138Z " data-fips="UK82" data-hasc="GB.MO" data-name="Moray" data-postal="MO" data-varname="Elgin"/><path d="M238,181L239,180L240,180L241,179L242,178L243,178L241,177L240,177L239,177L238,176L238,176L237,176L235,176L234,178L234,179L236,179L235,180L237,181L237,182Z " data-fips="UK79" data-hasc="GB.FK" data-name="Falkirk" data-postal="FK" data-varname=""/><path d="M228,178L227,177L229,177L230,176L231,177L233,177L235,176L237,176L238,176L238,176L238,175L237,174L236,173L237,172L237,171L237,170L235,169L233,168L232,167L231,167L230,166L229,165L229,164L230,163L231,161L232,160L231,159L230,159L229,159L228,159L227,158L226,158L224,158L223,159L221,159L221,160L220,160L219,160L218,161L217,162L217,164L218,165L219,165L220,165L220,166L219,168L219,169L220,171L220,172L221,174L222,174L223,175L224,175L223,176L224,177L225,178L227,179Z " data-fips="UK79" data-hasc="GB.ZG" data-name="Stirling" data-postal="ZG" data-varname=""/><path d="M238,175L239,174L241,172L242,171L241,171L240,171L239,171L238,170L237,172L236,173L237,174L237,174L238,174L238,175Z " data-fips="UK88" data-hasc="GB.CC" data-name="Clackmannanshire" data-postal="CC" data-varname=""/><path d="M247,172L248,171L248,171L248,169L247,169L247,168L248,167L248,166L249,165L247,164L249,164L251,162L253,161L252,161L252,160L251,160L251,158L251,157L252,156L251,155L251,154L250,154L249,153L248,152L247,151L247,149L247,148L246,147L246,145L245,146L244,145L243,145L243,144L242,144L240,144L239,143L238,143L238,143L236,143L235,143L235,145L234,144L232,145L231,144L230,145L229,146L227,147L226,147L224,148L224,148L223,149L222,149L222,150L222,152L221,152L220,152L220,153L220,153L221,153L222,155L222,156L220,157L221,158L220,159L221,160L221,159L223,159L224,158L226,158L227,158L228,159L229,159L230,159L231,159L232,160L231,161L230,163L229,164L229,165L230,166L231,167L232,167L233,168L235,169L237,170L237,171L238,170L239,171L240,171L241,171L242,171L241,172L242,173L243,173L244,173L246,173Z " data-fips="UK88" data-hasc="" data-name="Perthshire and Kinross" data-postal="" data-varname="Perth and Kinross"/><path d="M260,160L261,159L262,158L264,156L265,155L264,154L265,153L266,151L264,151L264,150L262,150L261,148L261,147L261,145L261,144L260,143L258,143L257,142L256,142L254,142L253,143L252,145L251,145L249,144L248,145L247,145L246,145L246,147L247,148L247,149L247,151L248,152L249,153L250,154L251,154L251,155L252,156L251,157L251,158L251,160L252,160L252,161L252,160L253,159L255,159L256,159L257,160L258,161L260,161Z " data-fips="UK84" data-hasc="GB.AG" data-name="Angus" data-postal="AG" data-varname="Forfar"/><path d="M258,161L257,160L256,159L255,159L253,159L252,160L252,161L253,161Z " data-fips="UK84" data-hasc="GB.DU" data-name="Dundee" data-postal="DU" data-varname="Dundee City"/><path d="M247,177L249,176L251,175L251,174L252,173L253,172L255,171L256,170L258,171L260,170L261,170L261,169L262,168L262,167L260,166L258,165L257,165L258,164L258,162L257,162L256,161L255,162L250,164L249,165L248,166L248,167L247,168L247,169L248,169L248,171L248,171L247,172L246,173L244,173L243,173L242,173L239,174L238,175L238,175L238,175L240,176L242,176L246,177Z " data-fips="UK84" data-hasc="GB.FI" data-name="Fife" data-postal="FI" data-varname=""/><path d="M261,184L262,184L263,184L264,183L266,183L265,182L267,180L265,179L263,178L262,178L262,177L261,176L258,176L257,177L257,178L256,178L255,179L252,180L252,180L253,181L255,183L258,184L259,185Z " data-fips="UK84" data-hasc="GB.EL" data-name="East Lothian" data-postal="EL" data-varname="Haddington"/><path d="M246,184L248,183L250,182L251,182L252,181L252,180L252,180L251,179L247,179L246,178L244,178L244,178L244,180L245,181L245,182L245,185L246,185Z " data-fips="UK84" data-hasc="GB.EB" data-name="Edinburgh" data-postal="EB" data-varname="dimbourg|Edimburgo"/><path d="M252,188L252,187L255,185L256,186L255,183L253,181L252,180L252,180L252,180L252,181L251,182L250,182L248,183L246,184L246,185L247,186L247,186L249,186L250,185L250,187L250,188Z " data-fips="UK84" data-hasc="GB.ML" data-name="Midlothian" data-postal="ML" data-varname="Edinburgh"/><path d="M244,185L245,185L245,182L245,181L244,180L244,178L244,178L243,178L242,178L241,179L240,180L239,180L238,181L237,182L239,182L239,185L238,186L239,185L241,185L242,186L244,186Z " data-fips="UK84" data-hasc="GB.WH" data-name="West Lothian" data-postal="WH" data-varname="Linlithgow"/><path d="M257,210L259,209L260,208L261,207L261,206L261,205L263,203L264,202L266,202L267,202L267,201L268,200L269,200L270,199L270,198L270,197L269,196L269,195L268,193L268,192L268,191L269,191L271,189L272,188L272,187L273,186L274,185L272,183L272,182L271,181L268,181L267,180L265,182L266,183L264,183L263,184L262,184L261,184L259,185L258,184L256,186L255,185L252,187L252,188L250,188L250,187L250,185L249,186L247,186L247,186L246,185L245,185L244,185L244,186L244,188L245,188L243,191L243,192L242,193L243,194L243,196L243,197L242,199L245,200L246,199L247,199L248,199L247,201L247,202L248,202L249,201L250,202L251,203L252,204L252,205L254,205L255,205L255,206L256,206L255,208L255,210L256,211Z " data-fips="UK78" data-hasc="GB.BO" data-name="Scottish Borders" data-postal="BO" data-varname="The Borders"/><path d="M286,222L287,221L287,220L288,220L288,218L287,217L287,216L286,215L286,214L285,213L284,213L283,213L281,213L281,214L280,214L279,215L278,216L278,219L279,219L280,219L281,219L283,219L283,220L284,222L285,223Z " data-fips="UK41" data-hasc="GB.TW" data-name="Tyne and Wear" data-postal="TW" data-varname=""/><path d="M286,234L286,232L287,231L286,230L286,230L285,231L284,231L283,230L281,230L281,231L281,232L281,232L282,233L283,234L284,235L285,235L286,235Z " data-fips="UK13" data-hasc="GB.DA" data-name="Darlington" data-postal="DA" data-varname=""/><path d="M272,235L274,235L275,235L277,233L279,234L279,232L281,232L281,231L281,230L283,230L284,231L285,231L286,230L286,230L287,229L287,228L288,228L288,227L289,226L290,225L289,224L289,223L288,220L287,220L287,221L286,222L285,223L284,222L283,220L283,219L281,219L280,219L279,219L278,219L277,220L277,221L276,221L274,220L272,221L271,222L270,222L269,223L267,225L267,227L268,228L267,229L268,230L269,232L270,233L271,234L271,235L271,235Z " data-fips="UK13" data-hasc="GB.DH" data-name="Durham" data-postal="DH" data-varname="County Durham"/><path d="M291,229L292,228L291,227L292,226L290,225L289,226L288,227L288,228L287,228L287,229L287,229L288,229L290,230Z " data-fips="UK07" data-hasc="GB.HP" data-name="Hartlepool" data-postal="HP" data-varname=""/><path d="M290,234L291,233L291,233L291,232L290,231L289,231L289,232L289,234L290,234Z " data-fips="UK07" data-hasc="GB.MB" data-name="Middlesbrough" data-postal="MB" data-varname=""/><path d="M299,234L299,232L300,231L300,231L295,230L294,229L293,229L292,228L291,229L291,232L291,233L291,233L294,233L295,234L296,234L297,234Z " data-fips="UK07" data-hasc="GB.RC" data-name="Redcar and Cleveland" data-postal="RC" data-varname=""/><path d="M290,234L289,234L289,232L289,231L290,231L290,230L288,229L287,229L287,229L286,230L287,231L286,232L286,234L286,234L287,234L288,235Z " data-fips="UK07" data-hasc="GB.ZT" data-name="Stockton-on-Tees" data-postal="ZT" data-varname="Stockton"/><path d="M270,222L271,222L272,221L274,220L276,221L277,221L277,220L278,219L278,216L279,215L280,214L281,214L281,213L283,213L284,213L285,213L285,212L285,211L285,210L284,209L284,208L284,207L283,205L283,204L283,203L283,202L283,201L283,200L283,197L282,196L282,195L282,194L280,193L279,193L279,192L278,192L277,191L277,190L274,185L273,186L272,187L272,188L271,189L269,191L268,191L268,192L268,193L269,195L269,196L270,197L270,198L270,199L269,200L268,200L267,201L267,202L266,202L264,202L263,203L261,205L261,206L261,207L260,208L260,208L261,210L262,211L262,212L264,212L264,214L262,216L262,217L262,218L261,219L262,220L262,222L263,222L266,221L266,222L269,223Z " data-fips="UK32" data-hasc="GB.NB" data-name="Northumberland" data-postal="NB" data-varname=""/><path d="M285,371L286,371L287,370L289,370L289,369L287,367L286,366L287,365L288,364L289,365L289,366L289,368L289,368L290,369L292,370L292,370L294,370L294,369L293,368L294,368L295,368L296,368L297,368L298,368L298,367L298,366L298,364L299,363L299,361L300,360L301,360L302,359L302,359L301,358L300,357L300,355L301,354L302,353L303,352L300,350L298,349L297,349L296,349L294,349L294,349L291,349L287,349L286,350L285,350L284,350L284,351L284,352L284,353L283,353L282,354L280,354L280,355L281,357L282,358L282,359L282,360L283,362L282,363L282,364L281,364L280,363L279,363L278,363L276,362L275,365L276,365L278,365L277,366L278,367L278,369L278,370L278,371L279,372L281,372L281,372L282,372L283,373Z " data-fips="UK19" data-hasc="GB.HA" data-name="Hampshire" data-postal="HA" data-varname="Southampton"/><path d="M289,366L289,365L288,364L287,365L286,366L289,368Z " data-fips="UK19" data-hasc="GB.ZH" data-name="Southampton" data-postal="ZH" data-varname=""/><path d="M282,313L283,312L284,312L286,312L286,310L282,309L281,309L279,307L279,306L278,304L276,304L276,303L276,302L275,301L275,302L272,303L271,302L270,303L269,304L270,305L271,306L270,307L270,308L272,310L273,310L274,310L273,311L274,311L276,311L277,312L277,312L278,313L279,313L281,313Z " data-fips="UK43" data-hasc="GB.WM" data-name="West Midlands" data-postal="WM" data-varname=""/><path d="M304,327L304,325L304,324L305,323L305,321L304,320L304,318L301,320L300,320L300,321L299,322L300,323L300,325L301,326L302,327Z " data-fips="UK31" data-hasc="GB.MK" data-name="Milton Keynes" data-postal="MK" data-varname=""/><path d="M269,340L270,341L271,340L272,338L274,339L275,338L276,339L276,338L278,338L278,337L280,338L281,337L281,336L280,334L281,333L281,331L281,330L281,329L282,328L282,326L282,325L281,325L280,323L279,322L278,322L278,323L276,323L277,324L277,325L275,325L274,325L272,325L270,325L271,324L270,324L270,326L269,326L268,327L266,326L265,325L265,325L264,326L263,325L263,326L262,327L263,328L264,329L262,330L261,331L260,331L259,331L258,333L258,334L258,335L258,336L258,337L258,338L258,340L260,337L262,336L262,335L264,335L265,334L264,335L263,336L262,337L261,338L261,338L262,338L263,338L265,339L265,340L267,340L268,341Z " data-fips="UK16" data-hasc="GB.GC" data-name="Gloucestershire" data-postal="GC" data-varname=""/><path d="M308,344L308,342L308,341L307,340L307,339L307,337L306,336L307,335L306,335L304,334L304,333L303,333L303,331L304,332L304,332L306,333L307,332L307,332L306,331L305,330L303,329L302,327L301,326L300,325L298,325L297,323L296,323L295,324L294,324L295,326L294,327L295,328L294,329L294,330L295,331L295,332L294,332L294,334L295,335L296,335L297,335L298,335L299,337L299,338L298,339L297,340L298,340L298,341L299,342L300,342L302,342L303,342L303,344L304,344L305,343L306,343L307,344L308,345Z " data-fips="UK04" data-hasc="GB.BU" data-name="Buckinghamshire" data-postal="BU" data-varname=""/><path d="M308,331L308,329L309,329L310,328L310,328L310,326L311,327L312,326L313,326L314,325L315,324L315,321L314,320L313,319L313,318L312,317L311,317L310,316L309,315L308,314L307,315L306,316L305,316L304,317L304,318L304,320L305,321L305,323L304,324L304,325L304,327L303,329L305,330L306,331L307,332L307,332L308,332Z " data-fips="UK02" data-hasc="GB.BD" data-name="Bedfordshire" data-postal="BD" data-varname=""/><path d="M309,340L311,340L312,339L314,338L315,338L316,337L319,335L320,334L321,333L323,333L323,332L323,331L323,329L322,329L322,328L321,326L320,324L318,323L317,324L316,324L315,324L314,325L313,326L312,326L311,327L310,326L310,328L310,328L310,329L311,330L311,331L310,332L308,332L307,332L306,333L304,332L304,332L303,331L303,333L304,333L304,334L306,335L307,335L306,336L307,337L307,339L307,340L308,341Z " data-fips="UK21" data-hasc="GB.HT" data-name="Hertfordshire" data-postal="HT" data-varname=""/><path d="M264,351L265,351L266,350L267,348L267,347L266,347L264,348L262,347L261,347L260,348L259,349L258,350L257,349L258,351L259,352L260,352L261,351L262,352L263,352Z " data-fips="UK01" data-hasc="GB.BN" data-name="Bath and North East Somerset" data-postal="BN" data-varname=""/><path d="M261,347L261,346L261,345L260,344L259,344L258,343L257,344L257,344L258,345L259,346L259,347L260,348Z " data-fips="UK01" data-hasc="GB.BS" data-name="Bristol" data-postal="BS" data-varname=""/><path d="M255,351L255,350L257,349L258,350L259,349L259,347L259,346L258,345L257,344L257,344L256,344L255,345L253,347L252,348L251,348L251,349L250,350L250,350L251,351L252,351L253,351L254,351Z " data-fips="UK01" data-hasc="GB.NS" data-name="North Somerset" data-postal="NS" data-varname="North West Somerset"/><path d="M266,347L267,347L267,345L266,344L268,343L267,342L267,340L265,340L265,339L263,338L262,338L261,338L261,338L260,338L260,339L259,340L258,343L259,344L260,344L261,345L261,346L262,347L264,348Z " data-fips="UK01" data-hasc="GB.SJ" data-name="South Gloucestershire" data-postal="SJ" data-varname=""/><path d="M252,368L254,367L256,367L257,367L258,366L259,366L259,365L259,364L260,363L261,362L262,363L263,364L264,364L265,363L265,362L266,361L266,359L265,358L267,355L268,353L267,352L265,351L264,351L263,352L262,352L261,351L260,352L259,352L258,351L255,350L255,351L254,351L253,351L252,351L251,351L250,350L250,350L250,350L250,351L250,353L250,354L250,355L250,354L248,355L246,355L244,355L241,355L240,354L237,353L235,353L234,353L234,354L233,355L232,355L231,355L231,357L233,358L234,359L235,360L236,360L236,361L238,361L239,361L240,361L241,362L241,363L243,363L244,364L245,364L246,364L247,366L249,366L249,367L250,367L251,368L251,369Z " data-fips="UK36" data-hasc="GB.SM" data-name="Somerset" data-postal="SM" data-varname=""/><path d="M234,390L234,389L235,388L235,387L237,386L237,385L236,384L235,384L234,383L235,382L235,380L237,380L238,380L238,380L238,379L239,377L239,376L239,374L240,376L241,376L243,375L243,374L245,374L246,373L247,373L248,373L250,373L251,372L251,372L251,371L252,369L251,369L251,368L250,367L249,367L249,366L247,366L246,364L245,364L244,364L243,363L241,363L241,362L240,361L239,361L238,361L236,361L236,360L235,360L234,359L233,358L231,357L231,355L232,355L233,355L234,354L234,353L232,353L231,353L229,353L228,353L224,354L222,354L222,355L221,356L222,357L222,358L221,359L219,361L218,361L217,361L215,361L215,362L214,364L216,364L216,365L217,367L216,368L216,369L217,370L218,370L218,372L218,373L219,374L219,375L220,377L220,378L221,379L222,380L221,380L221,382L222,381L222,383L223,382L224,382L225,383L225,384L224,385L223,385L224,386L224,387L225,387L226,387L227,387L229,388L230,390L232,390L233,391Z " data-fips="UK11" data-hasc="GB.DO" data-name="Devon" data-postal="DO" data-varname=""/><path d="M286,350L287,349L291,349L294,349L294,349L296,349L297,349L298,349L300,350L303,349L304,348L305,347L306,346L307,346L307,344L306,343L305,343L304,344L303,344L303,342L302,342L300,342L299,342L299,343L299,344L298,345L296,346L295,344L294,344L293,343L292,343L291,343L290,342L288,343L287,343L286,343L285,342L283,342L283,343L283,344L283,344L284,345L284,347L283,347L285,349L285,350Z " data-fips="UK03" data-hasc="GB.BK" data-name="Berkshire" data-postal="BK" data-varname=""/><path d="M276,373L278,373L277,372L276,372L275,372L276,373Z " data-fips="UK12" data-hasc="GB.BM" data-name="Bournemouth" data-postal="BM" data-varname=""/><path d="M263,379L262,378L263,376L264,375L265,376L269,376L272,377L274,377L274,375L274,374L273,374L272,373L271,374L273,373L273,372L273,371L274,371L276,372L277,372L278,373L279,373L281,372L279,372L278,371L278,370L278,369L278,367L277,366L278,365L276,365L275,365L273,363L272,364L271,364L270,363L269,361L267,360L266,359L266,361L265,362L265,363L264,364L263,364L262,363L261,362L260,363L259,364L259,365L259,366L258,366L257,367L256,367L254,367L252,368L251,369L252,369L251,371L251,372L251,372L253,372L257,374L262,377L262,378L262,380Z " data-fips="UK12" data-hasc="GB.DS" data-name="Dorset" data-postal="DS" data-varname=""/><path d="M276,373L275,372L274,371L273,371L273,372L273,373L273,373L275,374Z " data-fips="UK12" data-hasc="GB.BM" data-name="Poole" data-postal="BM" data-varname=""/><path d="M321,323L323,323L323,322L324,322L326,322L327,323L328,321L328,320L329,319L330,318L330,317L329,316L327,317L326,316L327,315L328,316L330,315L329,314L329,313L328,312L327,310L328,309L327,308L327,307L326,307L324,307L324,306L323,305L323,304L324,303L323,301L322,300L321,298L320,299L319,299L319,301L318,301L317,303L316,304L315,304L314,305L313,306L312,307L310,306L309,305L309,307L311,307L311,309L310,310L309,311L308,313L308,314L309,315L310,316L311,317L312,317L313,318L313,319L314,320L315,321L316,324L317,324L318,323L320,324L321,324Z " data-fips="UK05" data-hasc="GB.CM" data-name="Cambridgeshire" data-postal="CM" data-varname=""/><path d="M293,305L292,304L292,302L293,301L295,303Z M293,311L294,310L295,311L295,309L297,309L299,309L298,308L299,307L301,307L302,307L301,306L301,305L300,303L300,301L300,300L301,299L302,299L303,297L303,295L302,294L301,293L301,291L301,290L300,290L300,291L299,293L297,294L297,295L296,296L295,296L294,296L292,297L291,297L290,295L290,294L288,294L287,296L286,297L285,298L284,299L284,300L283,301L283,303L284,304L285,305L287,307L289,308L291,310L292,312Z " data-fips="UK26" data-hasc="" data-name="England" data-postal="" data-varname=""/><path d="M308,262L311,261L311,261L310,260L309,260L308,260L308,261L308,262Z " data-fips="UK22" data-hasc="GB.KH" data-name="Kingston upon Hull" data-postal="KH" data-varname="Hull"/><path d="M316,271L317,270L318,269L317,269L316,267L315,267L314,266L313,265L313,265L312,267L314,268L313,269L313,271L314,272L315,273Z " data-fips="UK22" data-hasc="GB.NE" data-name="North East Lincolnshire" data-postal="NE" data-varname=""/><path d="M306,272L307,271L307,270L309,269L307,269L308,268L310,268L313,265L313,265L312,263L311,262L307,263L305,263L304,263L303,263L302,263L302,264L301,264L300,265L299,267L298,268L298,269L297,270L297,271L298,272L301,271L301,270L304,270L304,272L305,272Z " data-fips="UK22" data-hasc="GB.NL" data-name="North Lincolnshire" data-postal="NL" data-varname=""/><path d="M287,293L286,292L285,291L284,292L284,293L285,294Z " data-fips="UK10" data-hasc="GB.DE" data-name="Derby" data-postal="DE" data-varname=""/><path d="M285,294L284,293L284,292L285,291L286,292L287,293Z M284,300L284,299L285,298L286,297L287,296L288,294L290,294L291,293L290,292L290,291L289,289L289,288L288,287L289,286L289,284L290,283L291,283L291,282L291,280L292,279L292,278L290,278L289,277L288,278L287,277L286,278L284,278L282,277L283,276L281,275L280,275L280,274L280,273L278,271L275,270L275,271L274,272L273,273L274,274L273,275L273,275L274,276L274,280L274,281L275,282L277,282L278,283L278,284L279,286L279,288L279,289L278,290L278,291L277,292L278,293L279,294L280,295L282,295L282,296L282,297L281,298L281,299L282,300Z " data-fips="UK10" data-hasc="GB.DB" data-name="Derbyshire" data-postal="DB" data-varname=""/><path d="M322,343L323,343L324,342L323,341L323,340L322,340L322,342L321,343L321,344Z " data-fips="UK17" data-hasc="GB.BA" data-name="Barking and Dagenham" data-postal="BA" data-varname=""/><path d="M323,346L324,345L324,344L324,344L322,343L322,344L321,345L322,347L323,347Z " data-fips="UK17" data-hasc="GB.XB" data-name="Bexley" data-postal="XB" data-varname=""/><path d="M313,341L312,341L312,342L313,343L315,343Z " data-fips="UK17" data-hasc="GB.BE" data-name="Brent" data-postal="BE" data-varname=""/><path d="M322,350L323,349L323,347L322,347L321,346L320,346L320,347L319,347L318,347L318,348L319,348L320,350L320,350L321,351L321,351Z " data-fips="UK17" data-hasc="GB.BZ" data-name="Bromley" data-postal="BZ" data-varname=""/><path d="M317,343L317,342L315,341L315,343L316,343L317,344Z " data-fips="UK17" data-hasc="GB.CN" data-name="Camden" data-postal="CN" data-varname=""/><path d="M318,350L320,350L319,348L318,348L316,347L317,348L316,350L316,350L316,351L317,351Z " data-fips="UK17" data-hasc="GB.CY" data-name="Croydon" data-postal="CY" data-varname=""/><path d="M312,344L313,343L312,342L311,342L311,343L310,344L311,344Z " data-fips="UK17" data-hasc="GB.EG" data-name="Ealing" data-postal="EG" data-varname=""/><path d="M316,341L316,340L319,339L319,338L319,338L316,337L315,338L314,338L312,339L312,339L313,341L315,341Z " data-fips="UK17" data-hasc="GB.EF" data-name="Enfield" data-postal="EF" data-varname=""/><path d="M321,345L322,344L322,343L321,344L321,344L319,344L320,345L320,346L321,346Z " data-fips="UK17" data-hasc="GB.GR" data-name="Greenwich" data-postal="GR" data-varname=""/><path d="M311,347L311,346L312,345L314,344L312,344L311,344L310,344L310,345L309,346L310,347Z " data-fips="UK17" data-hasc="GB.HU" data-name="Hounslow" data-postal="HU" data-varname=""/><path d="M317,343L317,343L317,342L317,343Z " data-fips="UK17" data-hasc="GB.IT" data-name="Islington" data-postal="IT" data-varname=""/><path d="M316,347L316,347L315,346L314,347L314,348L315,348Z " data-fips="UK17" data-hasc="GB.ME" data-name="Merton" data-postal="ME" data-varname=""/><path d="M322,340L323,340L321,340L320,339L320,341L320,342L320,341L322,342Z " data-fips="UK17" data-hasc="GB.RB" data-name="Redbridge" data-postal="RB" data-varname=""/><path d="M312,348L312,346L314,345L314,344L312,345L311,346L311,347L310,347L311,348L312,348Z " data-fips="UK17" data-hasc="GB.RU" data-name="Richmond upon Thames" data-postal="RU" data-varname=""/><path d="M316,350L317,348L315,348L314,348L314,348L314,350L316,350Z " data-fips="UK17" data-hasc="GB.SU" data-name="Sutton" data-postal="SU" data-varname=""/><path d="M319,342L318,342L317,343L319,343Z " data-fips="UK17" data-hasc="GB.TH" data-name="Tower Hamlets" data-postal="TH" data-varname=""/><path d="M320,341L320,339L319,338L319,339L318,340L318,341L320,342Z " data-fips="UK17" data-hasc="GB.WF" data-name="Waltham Forest" data-postal="WF" data-varname=""/><path d="M316,347L316,345L316,344L315,345L314,345L315,346L316,347Z " data-fips="UK17" data-hasc="GB.WW" data-name="Wandsworth" data-postal="WW" data-varname=""/><path d="M316,343L315,343L315,344L316,344Z " data-fips="UK17" data-hasc="GB.WE" data-name="Westminster" data-postal="WE" data-varname=""/><path d="M311,301L312,302L315,302L316,301L318,301L319,301L319,299L320,299L321,298L323,299L324,297L324,295L324,296L323,295L321,293L320,292L318,293L319,291L320,291L322,288L324,286L325,285L326,283L326,281L325,280L323,275L323,274L322,273L321,272L321,271L320,270L318,269L317,270L316,271L315,273L314,272L313,271L313,269L314,268L312,267L310,268L308,268L307,269L309,269L307,270L307,271L306,272L305,272L304,272L304,270L301,270L301,271L300,273L301,274L301,275L301,277L301,278L301,280L302,280L304,280L303,281L302,282L302,283L302,284L302,286L303,287L301,288L301,289L301,290L301,291L301,293L302,294L303,295L303,297L305,298L306,298L307,299L309,300L308,301L308,302L309,302Z " data-fips="UK32" data-hasc="GB.LI" data-name="Lincolnshire" data-postal="LI" data-varname=""/><path d="M191,228L192,228L193,227L191,226L191,226L191,225L190,225L188,225L188,225L187,226L188,227L188,228L190,229Z " data-fips="UK58" data-hasc="GB.BF" data-name="Belfast" data-postal="BF" data-varname=""/><path d="M168,218L167,217L167,215L167,214L166,213L166,211L165,210L166,209L165,208L163,209L163,208L163,209L161,209L160,211L160,212L160,212L160,213L162,213L163,214L162,215L164,215L165,216L166,217L167,218Z " data-fips="UK70" data-hasc="GB.LD" data-name="Derry" data-postal="LD" data-varname="Londonderry"/><path d="M157,231L158,231L159,231L160,231L161,231L162,230L164,230L165,229L166,229L167,228L168,228L168,225L168,223L168,222L168,220L168,219L167,219L165,220L163,220L162,220L161,221L159,222L159,222L158,223L157,223L156,223L154,224L154,225L155,226L155,227L155,229L155,230L155,231L156,232Z " data-fips="UK76" data-hasc="GB.OM" data-name="Omagh" data-postal="OM" data-varname=""/><path d="M174,241L176,240L177,240L178,239L179,239L180,238L180,236L180,235L180,234L179,235L178,234L177,233L177,231L176,231L175,232L174,231L173,232L173,233L171,233L171,234L170,235L169,236L170,237L169,238L170,238L170,239L171,240L172,241L173,241L174,242Z " data-fips="UK54" data-hasc="GB.AM" data-name="Armagh" data-postal="AM" data-varname=""/><path d="M187,248L188,246L190,245L190,244L191,242L190,242L189,243L188,242L187,243L187,242L187,240L185,240L184,240L181,239L179,239L178,239L177,240L176,240L174,241L174,242L174,242L174,243L173,245L173,246L174,247L175,246L177,246L178,246L179,246L180,245L181,245L182,245L183,245L184,246L186,248Z " data-fips="UK73" data-hasc="GB.NM" data-name="Newry and Mourne" data-postal="NM" data-varname="Mourne"/><path d="M187,240L187,239L188,239L189,238L189,237L188,235L187,234L185,233L184,233L183,233L183,234L181,234L180,234L180,235L180,236L180,238L181,239L184,240L185,240Z " data-fips="UK57" data-hasc="GB.BB" data-name="Banbridge" data-postal="BB" data-varname=""/><path d="M180,234L181,234L183,234L183,233L184,233L183,232L183,230L183,230L182,228L182,227L182,227L183,226L182,227L182,227L181,227L179,228L178,228L177,228L177,229L176,230L177,231L177,233L178,234L179,235Z " data-fips="UK63" data-hasc="GB.CR" data-name="Craigavon" data-postal="CR" data-varname=""/><path d="M170,235L171,234L171,233L173,233L173,232L174,231L175,232L176,231L177,231L176,230L177,229L177,228L177,229L176,228L175,228L173,228L172,227L171,227L170,227L168,228L167,228L166,229L165,229L164,230L162,230L161,231L160,231L159,231L160,232L160,233L161,234L162,235L163,235L163,235L164,235L165,233L166,232L168,233L169,235L169,236Z " data-fips="UK65" data-hasc="GB.DN" data-name="Dungannon" data-postal="DN" data-varname=""/><path d="M190,234L190,233L191,232L191,231L190,230L188,228L188,227L187,226L186,226L184,227L182,228L183,230L183,230L183,232L184,233L185,233L187,234L188,235Z " data-fips="UK69" data-hasc="GB.LB" data-name="Lisburn" data-postal="LB" data-varname=""/><path d="M177,228L178,228L179,228L179,228L179,226L180,225L180,224L178,222L176,222L175,223L174,222L172,221L171,221L170,221L168,220L168,222L168,223L168,225L170,227L171,227L172,227L173,228L175,228L176,228L177,229Z " data-fips="UK62" data-hasc="" data-name="Ulster" data-postal="" data-varname=""/><path d="M181,227L182,227L182,227L183,226L184,227L186,226L187,226L188,225L188,225L188,224L188,223L188,221L188,221L185,219L184,220L183,220L182,219L181,220L179,220L179,220L179,221L180,224L180,225L179,226L179,228L179,228Z " data-fips="UK52" data-hasc="GB.AN" data-name="Antrim" data-postal="AN" data-varname=""/><path d="M176,222L178,222L179,221L179,220L179,220L179,219L179,218L179,216L178,214L178,214L177,214L176,214L175,214L174,214L173,214L173,215L173,216L172,217L170,216L170,218L170,219L168,220L170,221L171,221L172,221L174,222L175,223Z " data-fips="UK71" data-hasc="GB.MF" data-name="Magherafelt" data-postal="MF" data-varname=""/><path d="M182,219L183,220L184,220L185,219L189,220L189,219L190,219L190,218L189,217L189,216L189,215L188,214L187,213L186,212L185,211L184,212L183,212L182,213L181,213L180,213L181,214L180,215L179,216L179,218L179,219L179,220L181,220Z " data-fips="UK55" data-hasc="GB.BL" data-name="Ballymena" data-postal="BL" data-varname=""/><path d="M196,220L195,219L195,218L194,218L195,220L193,219L193,218L193,217L192,216L192,215L191,213L190,213L190,211L190,210L190,210L189,211L188,214L189,215L189,216L189,217L190,218L190,219L189,219L189,220L189,220L190,221L194,221L195,221Z " data-fips="UK67" data-hasc="GB.LR" data-name="Larne" data-postal="LR" data-varname=""/><path d="M192,224L193,223L194,223L195,222L195,221L194,221L191,222L191,223L191,224Z " data-fips="UK59" data-hasc="GB.CF" data-name="Carrickfergus" data-postal="CF" data-varname=""/><path d="M191,224L191,223L191,222L190,221L189,220L189,220L188,221L188,221L188,223L188,224L188,225L190,225L191,225Z " data-fips="UK74" data-hasc="GB.NW" data-name="Newtownabbey" data-postal="NW" data-varname=""/><path d="M197,226L198,225L198,225L195,225L194,225L192,225L191,226L193,227L195,227L196,227Z " data-fips="UK75" data-hasc="GB.ND" data-name="North Down" data-postal="ND" data-varname=""/><path d="M188,242L189,243L190,242L191,242L191,241L192,241L194,240L195,241L196,240L197,239L198,239L198,238L198,236L196,236L195,236L196,235L196,233L194,232L193,232L192,231L191,232L190,233L190,234L189,237L189,238L188,239L187,239L187,240L187,242L187,243Z " data-fips="UK64" data-hasc="GB.DW" data-name="Down" data-postal="DW" data-varname=""/><path d="M174,214L175,214L176,214L177,214L178,214L178,214L178,213L177,212L177,210L177,209L178,208L178,207L179,206L179,204L179,203L178,204L177,204L174,205L172,205L172,205L172,206L173,207L173,209L173,210L173,212L173,213L173,214Z " data-fips="UK61" data-hasc="GB.CL" data-name="Coleraine" data-postal="CL" data-varname=""/><path d="M181,214L180,213L181,213L182,213L183,212L184,212L185,211L186,211L185,209L185,208L183,208L182,207L180,207L178,207L178,208L177,209L177,210L177,212L178,213L178,214L180,215Z " data-fips="UK56" data-hasc="GB.BY" data-name="Ballymoney" data-postal="BY" data-varname=""/><path d="M170,216L172,217L173,216L173,215L173,214L173,213L173,212L173,210L173,209L173,207L172,206L172,205L172,205L171,204L170,204L169,206L169,207L168,208L168,209L167,209L166,209L165,210L166,211L166,213L167,214L167,215L167,217L168,218L169,217L170,218Z " data-fips="UK68" data-hasc="GB.LM" data-name="Limavady" data-postal="LM" data-varname=""/><path d="M192,231L192,230L193,229L194,228L193,227L192,228L191,228L190,229L190,230L191,231L191,232Z " data-fips="UK60" data-hasc="GB.CS" data-name="Castlereagh" data-postal="CS" data-varname=""/><path d="M226,337L226,337L227,336L227,334L228,333L230,333L231,332L233,332L234,330L234,329L235,327L235,325L235,325L236,323L236,322L235,322L234,321L232,321L231,320L230,320L229,321L228,321L227,321L225,321L225,322L224,323L222,323L221,323L219,323L217,323L215,323L216,324L217,325L216,326L214,327L212,327L211,329L211,330L210,330L211,331L212,331L213,331L213,332L213,334L215,334L216,334L218,334L218,333L219,333L220,333L219,334L220,335L219,334L220,336L221,337L223,336L224,337Z " data-fips="UK91" data-hasc="GB.CI" data-name="Carmarthenshire" data-postal="CI" data-varname=""/><path d="M221,323L222,323L224,323L225,322L225,321L227,321L228,321L229,321L230,320L231,320L232,321L234,321L234,320L234,317L234,316L235,315L234,313L235,313L236,312L235,311L235,309L234,309L235,308L235,307L234,307L232,306L233,305L232,304L230,304L230,305L230,305L228,306L227,306L227,307L227,309L226,311L225,312L224,314L221,317L220,317L218,318L217,319L217,319L214,319L213,320L212,321L212,322L214,322L214,323L215,323L217,323L219,323Z " data-fips="UK91" data-hasc="" data-name="Ceredigion" data-postal="" data-varname="Cardiganshire"/><path d="M207,338L208,337L210,337L211,337L212,336L212,335L213,334L213,332L213,331L212,331L211,331L210,330L211,330L211,329L212,327L214,327L216,326L217,325L216,324L215,323L214,323L214,322L212,322L212,321L213,320L211,320L211,321L210,322L209,323L209,323L207,323L206,324L204,323L204,324L203,325L202,326L201,326L200,327L199,327L199,329L201,328L202,329L203,330L203,332L202,332L201,333L200,334L201,335L202,334L205,335L207,334L207,333L207,332L208,332L208,334L208,335L207,335L206,335L205,335L204,336L203,336L204,336L204,338L206,338Z " data-fips="UK91" data-hasc="GB.PE" data-name="Pembrokeshire" data-postal="PE" data-varname=""/><path d="M256,277L257,275L257,275L257,274L259,275L259,274L259,272L260,273L261,273L260,271L259,271L257,270L257,269L256,271L255,270L254,269L253,268L253,270L251,268L251,267L253,265L253,264L253,262L253,263L251,264L250,267L250,268L253,275L253,276L254,276L256,277Z " data-fips="UK28" data-hasc="GB.MS" data-name="Merseyside" data-postal="MS" data-varname=""/><path d="M250,277L251,278L252,278L253,277L253,277L251,273L250,272L249,273L248,274L248,275L249,276L250,278Z " data-fips="UK28" data-hasc="GB.HL" data-name="Halton" data-postal="HL" data-varname=""/><path d="M263,290L264,290L265,289L265,289L265,287L266,287L267,286L269,285L270,283L271,282L272,283L274,282L274,281L274,280L274,276L273,275L273,275L273,275L272,275L271,276L270,277L269,276L268,276L267,275L266,275L264,276L262,277L261,277L260,276L259,275L259,275L257,274L257,275L257,275L256,277L256,277L256,277L257,276L258,276L257,276L257,277L256,278L255,277L254,278L253,277L252,278L251,278L250,277L250,278L250,279L250,279L251,279L253,281L253,282L252,283L253,283L254,285L254,287L255,288L256,289L257,289L257,290L260,289L261,290L262,291Z " data-fips="UK06" data-hasc="GB.CH" data-name="Cheshire" data-postal="CH" data-varname=""/><path d="M198,398L199,397L200,397L201,395L200,394L199,394L200,393L201,392L201,391L202,390L202,392L204,390L205,390L206,389L207,389L208,387L208,387L208,386L210,385L211,386L215,386L217,384L218,384L221,385L221,386L221,385L221,384L219,383L221,383L221,382L221,382L221,380L222,380L221,379L220,378L220,377L219,375L219,374L218,373L218,372L218,370L217,370L216,369L216,368L217,367L216,365L216,364L214,364L214,365L214,368L213,369L212,371L211,372L209,373L209,374L208,375L207,376L205,376L205,378L206,378L204,378L204,377L203,377L202,378L202,379L202,382L200,382L199,383L199,384L198,385L194,388L193,389L192,389L190,389L189,389L186,391L186,392L185,393L186,395L187,395L189,395L190,394L190,392L191,392L193,393L195,394L195,395L196,396L196,398L197,399Z " data-fips="UK08" data-hasc="GB.CO" data-name="Cornwall" data-postal="CO" data-varname="Cornouailles|Cornovaglia|Cornualha|Cornualles|Cornwall and Isles of Scilly"/><path d="M238,334L239,333L240,333L242,332L244,333L244,332L246,332L248,332L249,332L249,331L250,330L249,327L250,326L250,326L249,324L249,323L248,322L248,321L248,320L249,320L248,319L249,318L250,317L251,316L252,316L251,315L251,314L252,313L252,313L249,313L249,312L247,311L246,310L246,309L247,308L249,307L251,306L252,305L251,304L250,305L249,305L249,304L249,303L250,302L250,301L251,300L251,299L252,299L252,298L251,297L249,296L247,296L245,296L245,295L243,293L241,293L241,294L240,294L238,295L238,297L239,298L238,299L236,300L235,300L233,300L233,302L232,303L232,304L230,304L232,304L233,305L232,306L234,307L235,307L235,308L234,309L235,309L235,311L236,312L235,313L234,313L235,315L234,316L234,317L234,320L235,322L236,322L236,323L235,325L235,325L235,327L234,329L234,330L233,332L233,334L235,333L236,333L237,334Z " data-fips="UK95" data-hasc="GB.PO" data-name="Powys" data-postal="PO" data-varname=""/><path d="M237,346L238,345L238,344L240,342L240,340L239,339L238,338L237,338L235,338L235,340L236,341L236,342L235,342L233,342L233,343L234,344L235,344L236,345L237,346Z " data-fips="UK94" data-hasc="GB.BJ" data-name="Bridgend" data-postal="BJ" data-varname=""/><path d="M246,342L247,342L249,341L248,340L250,340L249,339L249,337L248,336L247,335L245,335L245,334L244,333L243,334L244,336L244,337L244,338L245,341L245,342Z " data-fips="UK94" data-hasc="GB.CP" data-name="Caerphilly" data-postal="CP" data-varname=""/><path d="M244,337L244,336L243,334L242,332L241,334L242,336L244,338Z " data-fips="UK94" data-hasc="GB.MT" data-name="Merthyr Tydfil" data-postal="MT" data-varname=""/><path d="M244,343L245,342L245,341L244,338L242,336L241,334L240,333L239,333L238,334L237,334L238,335L237,337L238,338L239,339L240,340L240,342L241,343L242,343Z " data-fips="UK94" data-hasc="GB.RT" data-name="Rhondda, Cynon, Taff" data-postal="RT" data-varname=""/><path d="M247,345L247,344L249,343L249,343L247,342L246,342L245,342L244,343L244,344L244,345L246,345L246,345Z " data-fips="UK96" data-hasc="GB.CA" data-name="Cardiff" data-postal="CA" data-varname=""/><path d="M245,347L246,347L246,345L246,345L244,345L244,344L242,343L241,343L238,344L238,345L237,346L237,346L238,347L244,348Z " data-fips="UK96" data-hasc="GB.VG" data-name="Vale of Glamorgan" data-postal="VG" data-varname=""/><path d="M236,342L236,341L235,340L235,338L237,338L238,338L237,337L238,335L237,334L236,333L235,333L233,334L231,332L230,333L230,334L231,335L232,336L230,339L231,339L232,340L233,341L233,342L235,342Z " data-fips="UK97" data-hasc="GB.NP" data-name="Neath Port Talbot" data-postal="NP" data-varname="Neath and Port Talbot"/><path d="M224,341L225,341L226,341L227,341L228,341L228,339L228,339L230,339L232,336L231,335L230,334L228,333L227,334L227,336L226,337L226,337L226,337L226,338L224,338L223,338L222,338L221,339L221,340L221,341L223,342Z " data-fips="UK97" data-hasc="GB.SW" data-name="Swansea" data-postal="SW" data-varname=""/><path d="M295,257L297,257L297,256L297,254L296,253L295,252L295,251L293,250L292,251L292,252L291,253L290,254L291,255L292,257L292,257L294,257Z " data-fips="UK30" data-hasc="GB.YK" data-name="York" data-postal="YK" data-varname=""/><path d="M264,303L265,301L266,296L264,295L263,296L262,297L260,297L259,298L259,299L261,300L262,302L263,303Z " data-fips="UK35" data-hasc="GB.TK" data-name="Telford and Wrekin" data-postal="TK" data-varname="The Wrekin, Wrekin"/><path d="M263,266L264,265L266,265L266,264L265,263L265,262L264,260L263,261L262,262L262,263L262,265L263,266Z " data-fips="UK25" data-hasc="GB.BW" data-name="Blackburn with Darwen" data-postal="BW" data-varname="Blackburn, Blackburn and Darwen"/><path d="M257,269L257,270L258,268L258,267L259,266L260,267L262,267L263,266L262,265L262,263L262,262L263,261L264,260L265,262L265,263L266,264L267,265L268,264L268,266L268,265L269,264L270,263L270,262L271,261L272,259L273,258L272,257L272,255L270,254L270,253L269,253L268,253L267,252L266,251L266,250L264,250L264,249L262,248L262,246L263,246L264,243L262,244L261,245L260,245L259,246L258,245L257,245L256,246L257,247L256,249L255,249L254,250L254,252L256,252L255,253L254,253L252,254L251,255L251,256L251,259L251,260L252,261L254,261L253,262L253,264L253,265L251,267L251,268L253,270L253,268L254,269L255,270L256,271Z " data-fips="UK25" data-hasc="GB.LA" data-name="Lancashire" data-postal="LA" data-varname=""/><path d="M321,266L320,265L316,259L314,255L313,254L313,252L312,251L313,249L313,249L315,248L315,247L312,247L311,247L309,246L308,246L308,247L307,248L305,249L304,249L303,251L303,252L301,251L298,252L297,254L297,256L297,257L297,258L297,259L297,260L297,262L295,263L293,263L293,264L294,265L296,264L297,265L300,265L301,264L302,264L302,263L302,263L303,262L305,262L306,262L308,262L308,261L308,260L309,260L310,260L311,261L311,261L312,262L315,265L317,265L319,265L320,266L320,267Z " data-fips="UK22" data-hasc="GB.EY" data-name="East Riding of Yorkshire" data-postal="EY" data-varname="East Riding, East Yorkshire"/><path d="M243,293L243,292L244,292L245,291L247,291L248,290L249,290L249,289L248,288L248,285L248,284L247,283L246,283L245,282L244,280L244,279L244,278L243,277L244,275L244,275L240,277L240,277L240,278L240,279L241,280L241,282L241,283L239,285L240,285L241,286L241,288L242,290L241,291L241,292L241,293Z " data-fips="UK90" data-hasc="GB.DI" data-name="Denbighshire" data-postal="DI" data-varname=""/><path d="M250,285L252,283L253,282L253,281L251,279L250,279L250,279L250,280L249,279L246,277L245,276L244,275L243,277L244,278L244,279L244,280L245,282L246,283L247,283L248,284L248,285L249,285Z " data-fips="UK90" data-hasc="GB.FL" data-name="Flintshire" data-postal="FL" data-varname=""/><path d="M248,296L248,295L249,294L249,293L249,292L250,291L251,290L252,290L253,291L255,291L256,292L258,291L257,289L256,289L255,288L254,287L254,285L253,283L252,283L250,285L249,285L248,288L249,289L249,290L248,290L247,291L245,291L244,292L243,292L243,293L245,295L245,296L247,296Z " data-fips="UK90" data-hasc="GB.WX" data-name="Wrexham" data-postal="WX" data-varname=""/><path d="M224,282L225,281L225,280L226,279L227,279L228,276L227,276L226,277L225,277L225,276L225,275L224,274L224,273L222,272L220,272L217,273L217,274L217,275L217,277L217,278L219,280L219,281L220,282L221,281L221,283L222,283Z M217,277L216,276L215,276L214,276L215,277L216,277L217,279Z " data-fips="UK93" data-hasc="GB.AY" data-name="Anglesey" data-postal="AY" data-varname=""/><path d="M234,290L235,289L237,289L238,288L239,290L240,289L241,288L241,286L240,285L239,285L241,283L241,282L241,280L240,279L240,278L240,277L240,277L238,278L236,277L235,276L234,276L233,276L233,277L230,279L230,279L231,281L231,282L230,283L229,284L230,285L230,286L230,287L231,288L232,288L232,289L233,290Z " data-fips="UK93" data-hasc="GB.CW" data-name="Conwy" data-postal="CW" data-varname="Aberconwy and Colwyn"/><path d="M230,305L230,304L232,304L232,303L233,302L233,300L235,300L236,300L238,299L239,298L238,297L238,295L240,294L241,294L241,293L241,292L241,291L242,290L240,289L239,290L238,288L237,289L235,289L234,290L233,290L232,289L232,288L231,288L230,287L230,286L230,285L229,284L230,283L231,282L231,281L230,279L230,279L229,279L228,279L226,279L225,280L225,281L224,282L223,283L222,284L222,285L221,287L219,288L217,290L216,290L212,294L212,295L213,295L215,295L216,294L217,295L218,294L218,293L219,292L220,292L223,291L224,291L225,291L227,291L228,291L226,292L226,294L226,295L226,296L228,298L229,298L228,299L227,300L226,302L226,303L228,305Z " data-fips="UK93" data-hasc="GB.GD" data-name="Gwynedd" data-postal="GD" data-varname="Caernarfonshire and Merionethshire"/><path d="M248,335L248,334L248,333L246,332L244,332L244,333L245,334L245,335L247,335L248,336Z " data-fips="UK92" data-hasc="GB.BG" data-name="Blaenau Gwent" data-postal="BG" data-varname=""/><path d="M256,341L257,341L258,340L258,338L258,337L258,336L258,335L258,334L258,333L258,332L257,331L256,331L256,330L253,328L252,329L251,327L250,326L249,327L250,330L249,331L249,332L248,332L248,333L249,333L250,334L250,335L251,336L251,338L252,339L253,339L255,339L255,340L254,341L255,341Z " data-fips="UK92" data-hasc="GB.MM" data-name="Monmouthshire" data-postal="MM" data-varname=""/><path d="M249,343L250,342L251,341L252,342L254,342L255,341L254,341L255,340L255,339L253,339L252,339L251,339L250,340L248,340L249,341L249,343L249,343Z " data-fips="UK92" data-hasc="GB.NO" data-name="Newport" data-postal="NO" data-varname=""/><path d="M251,339L251,338L251,336L250,335L250,334L249,333L248,333L248,334L248,335L249,337L249,339L250,340Z " data-fips="UK92" data-hasc="GB.TF" data-name="Torfaen" data-postal="TF" data-varname=""/><path d="M154,224L156,223L157,223L158,223L159,222L159,222L161,221L162,220L163,220L165,220L167,219L168,219L170,219L170,218L169,217L168,218L167,218L166,217L165,216L164,215L162,215L163,214L162,213L160,213L160,212L160,212L160,212L159,213L159,214L158,216L156,218L156,219L155,219L154,219L152,220L151,220L150,219L149,220L148,221L149,222L149,223L150,223L151,224L152,224Z " data-fips="UK77" data-hasc="GB.SB" data-name="Strabane" data-postal="SB" data-varname=""/><path d="M160,241L160,242L161,242L161,241L161,240L163,239L163,238L163,237L162,236L163,235L162,235L161,234L160,233L160,232L159,231L158,231L157,231L156,232L155,231L155,230L155,229L155,227L155,226L154,225L152,224L151,224L149,226L147,226L145,226L145,227L144,228L143,228L142,229L143,230L144,232L145,233L146,234L147,235L148,236L148,238L148,239L149,239L151,239L153,240L153,241L156,242L157,242L158,242L159,243Z " data-fips="UK66" data-hasc="GB.FE" data-name="Fermanagh" data-postal="FE" data-varname=""/><path d="M199,236L200,235L200,234L200,233L200,232L200,230L200,229L199,228L199,226L198,225L197,226L196,227L195,227L194,228L193,229L192,230L192,231L193,232L194,232L196,233L196,232L196,230L195,230L195,228L196,229L198,230L198,232L198,233L197,234L197,235L198,236L199,237Z " data-fips="UK53" data-hasc="GB.ND" data-name="Ards" data-postal="ND" data-varname=""/><path d="M213,226L213,225L212,224L212,222L211,221L212,220L212,219L213,219L215,219L215,220L216,220L220,223L221,225L222,225L223,226L224,225L224,224L224,222L224,221L223,221L223,220L223,218L224,218L224,219L227,220L227,219L227,221L228,222L230,222L231,221L230,222L231,223L232,223L234,222L235,221L235,220L236,219L237,220L238,219L241,218L241,217L241,216L241,215L242,215L243,215L250,216L252,216L252,214L253,213L254,213L255,212L256,212L256,211L255,210L255,208L256,206L255,206L255,205L254,205L252,205L252,204L251,203L250,202L249,201L248,202L247,202L247,201L248,199L247,199L246,199L245,200L241,200L241,202L240,203L240,204L238,203L238,201L237,199L236,198L235,198L233,198L233,197L232,198L231,199L230,201L230,203L229,204L229,203L227,203L226,203L225,204L225,205L224,206L224,207L223,208L223,208L221,208L219,209L218,209L218,211L219,212L217,212L216,212L213,212L212,214L211,213L210,214L210,214L211,216L210,217L209,216L209,215L209,214L208,212L207,213L207,214L207,215L207,216L207,218L208,219L210,221L210,222L211,223L211,224L211,225L212,226Z " data-fips="UK80" data-hasc="GB.DG" data-name="Dumfries and Galloway" data-postal="DG" data-varname=""/><path d="M250,248L250,247L251,246L251,245L252,244L252,245L253,246L254,246L255,245L256,244L257,243L256,244L255,245L256,246L257,245L258,245L259,246L260,245L261,245L262,244L264,243L266,243L267,243L267,242L267,241L267,240L266,239L268,238L268,237L269,235L271,235L271,234L270,233L269,232L268,230L267,229L268,228L267,227L267,225L266,222L266,221L263,222L262,222L262,220L261,219L262,218L262,217L262,216L264,214L264,212L262,212L262,211L261,210L260,208L260,208L259,209L257,210L256,211L256,212L255,212L254,213L253,213L252,214L252,216L252,216L251,217L252,217L250,217L248,216L247,217L246,218L247,218L246,219L246,218L245,219L244,220L243,222L243,223L243,224L242,225L241,226L241,228L240,231L239,233L240,234L242,237L244,239L244,241L244,242L245,243L245,244L246,244L247,243L248,243L248,244L247,245L247,246L247,248L248,248L249,249Z " data-fips="UK09" data-hasc="GB.CU" data-name="Cumbria" data-postal="CU" data-varname=""/><path d="M294,265L293,264L293,263L295,263L297,262L297,260L297,259L297,258L297,257L295,257L294,257L292,257L292,257L291,255L290,254L291,253L292,252L292,251L293,250L295,251L295,252L296,253L298,252L301,251L303,252L303,251L304,249L305,249L307,248L308,247L308,246L309,246L311,247L312,247L311,245L311,244L310,243L309,243L308,242L308,241L308,239L307,237L306,237L306,235L305,234L300,231L299,232L299,234L297,234L296,234L295,234L294,233L291,233L290,234L290,234L288,235L287,234L286,234L286,235L285,235L284,235L283,234L282,233L281,232L281,232L279,232L279,234L277,233L275,235L274,235L272,235L271,235L271,235L269,235L268,237L268,238L266,239L267,240L267,241L267,242L267,243L266,243L263,246L262,246L262,248L264,249L264,250L266,250L266,251L267,252L268,253L269,253L270,253L270,254L272,255L272,257L273,258L275,257L274,255L275,254L276,253L277,254L279,254L279,255L280,256L282,255L284,255L284,254L284,255L286,255L287,254L288,254L289,255L289,257L288,258L289,259L289,260L289,262L290,262L291,263L290,264L291,265L293,265Z " data-fips="UK30" data-hasc="GB.NY" data-name="North Yorkshire" data-postal="NY" data-varname=""/><path d="M224,385L225,384L225,383L224,382L223,382L222,383L222,383L223,385L223,385Z " data-fips="UK08" data-hasc="GB.DO" data-name="Plymouth" data-postal="DO" data-varname=""/><path d="M238,385L238,384L237,383L237,382L238,382L238,380L237,380L235,380L235,382L234,383L235,384L236,384L237,385Z " data-fips="UK11" data-hasc="GB.TB" data-name="Torbay" data-postal="TB" data-varname=""/><path d="M332,343L333,343L334,342L334,342L335,340L336,341L338,342L339,341L340,340L340,338L341,336L341,335L340,334L338,335L336,336L335,335L337,334L338,335L339,334L339,333L340,332L341,331L342,332L343,333L345,332L347,331L348,329L346,329L347,327L343,326L342,326L341,326L339,326L338,326L336,326L336,325L335,324L335,322L333,322L331,323L330,322L327,323L326,322L324,322L323,322L323,323L321,323L321,324L321,326L322,328L322,329L323,329L323,331L323,332L323,333L321,333L320,334L319,335L319,338L319,338L321,340L323,339L325,339L326,340L327,341L329,342L330,342L332,343Z " data-fips="UK15" data-hasc="GB.EX" data-name="Essex" data-postal="EX" data-varname=""/><path d="M343,326L344,326L345,326L346,326L348,326L347,325L346,325L346,324L347,325L350,326L351,324L352,323L353,322L355,320L355,319L355,317L355,315L356,313L356,312L357,309L358,306L357,304L356,304L355,305L356,306L355,307L354,307L353,307L352,307L351,307L350,308L349,309L348,310L347,310L345,311L344,311L343,311L342,311L340,311L339,311L338,311L337,310L335,311L334,310L333,310L334,309L333,309L331,308L329,309L328,309L327,310L328,312L329,313L329,314L330,315L328,316L327,315L326,316L327,317L329,316L330,317L330,318L329,319L328,320L328,321L330,322L331,323L333,322L335,322L335,324L336,325L336,326L338,326L339,326L341,326L342,326Z " data-fips="UK39" data-hasc="GB.SF" data-name="Suffolk" data-postal="SF" data-varname=""/><path d="M347,310L348,310L349,309L350,308L351,307L352,307L353,307L354,307L355,307L356,306L355,305L356,304L357,304L357,304L357,302L357,301L357,300L356,299L356,297L355,295L349,291L346,290L339,289L340,289L339,290L338,290L336,289L334,289L333,289L332,289L331,289L329,290L329,291L328,292L328,294L327,295L326,297L325,296L324,295L324,297L323,299L322,300L323,301L324,303L323,304L323,305L324,306L324,307L326,307L327,307L327,308L328,309L329,309L331,308L333,309L334,309L333,310L334,310L335,311L337,310L338,311L339,311L340,311L342,311L343,311L344,311L345,311Z " data-fips="UK29" data-hasc="GB.NF" data-name="Norfolk" data-postal="NF" data-varname=""/><path d="M320,370L319,369L318,368L317,367L315,367L314,367L315,368L316,368L320,370Z " data-fips="UK44" data-hasc="GB.BH" data-name="Brighton and Hove" data-postal="BH" data-varname=""/><path d="M324,344L325,344L326,343L326,340L325,339L323,339L323,340L323,341L324,342L323,343L324,344Z " data-fips="UK15" data-hasc="GB.HV" data-name="Havering" data-postal="HV" data-varname=""/><path d="M328,345L328,345L329,344L330,343L332,343L330,342L329,342L327,341L326,343L325,344L324,344L324,345L325,345L327,345Z " data-fips="UK15" data-hasc="GB.TR" data-name="Thurrock" data-postal="TR" data-varname=""/><path d="M328,369L328,369L329,368L334,367L335,366L338,364L340,364L340,364L339,364L337,362L336,362L335,361L333,362L332,361L330,360L329,359L328,359L327,357L326,358L325,357L323,358L322,357L321,357L320,358L319,359L320,360L319,361L319,363L318,362L317,363L317,365L318,368L319,369L320,370L320,370L322,370L323,371L324,371L325,371L326,371Z " data-fips="UK14" data-hasc="GB.ES" data-name="East Sussex" data-postal="ES" data-varname=""/><path d="M334,349L335,347L333,347L332,347L333,346L334,345L336,345L335,344L331,344L331,344L330,345L331,346L330,347L330,348L331,349L332,349L333,350Z " data-fips="UK24" data-hasc="GB.MW" data-name="Medway" data-postal="MW" data-varname="Medway Towns"/><path d="M338,342L336,341L335,340L334,342L334,342L335,342L337,342Z " data-fips="UK24" data-hasc="GB.SS" data-name="Southend-on-Sea" data-postal="SS" data-varname="Southend"/><path d="M253,75L251,75L252,74L252,73L251,71L250,71L249,70L248,71L248,72L249,73L249,74L250,75L250,76L252,76Z M257,77L257,75L258,74L258,74L257,74L255,75L256,76L256,77L257,78Z M260,71L261,71L261,70L261,69L260,69L259,70L259,69L259,68L258,69L258,68L257,68L256,67L255,68L254,67L255,66L256,65L255,64L254,63L253,62L253,62L251,62L250,63L249,64L249,66L249,67L249,68L250,69L251,68L251,67L252,67L252,68L251,69L252,71L254,71L254,70L255,70L256,69L257,71L259,72Z M265,64L264,63L263,62L263,62L263,64L263,65L263,64L264,65Z M256,62L257,61L255,61L255,60L254,61L254,62L255,63Z M261,61L261,60L260,59L260,59L260,60L260,61L260,61L261,62Z M259,58L258,58L258,56L256,56L257,55L257,54L256,55L255,56L255,57L256,58L257,57L258,57L259,58L258,59Z M263,60L264,60L266,59L266,58L267,57L267,56L266,57L265,58L264,58L265,57L264,58L263,59L262,60L262,61Z " data-fips="UK83" data-hasc="GB.MO" data-name="Moray" data-postal="MO" data-varname="Elgin"/><path d="M201,157L203,155L204,154L205,153L205,152L206,152L207,151L208,150L209,149L210,148L210,148L212,146L211,148L209,150L210,151L213,151L212,151L211,152L209,151L208,152L207,153L208,153L211,154L212,154L213,153L214,153L216,153L216,153L218,153L220,153L220,152L221,152L222,152L222,150L222,149L223,149L224,148L224,148L226,147L227,147L229,146L230,145L231,144L232,145L234,144L235,145L235,143L236,143L238,143L238,143L239,142L239,141L239,140L240,139L241,137L242,137L243,136L244,135L245,135L246,134L245,132L246,131L245,130L246,129L246,128L247,127L247,126L245,124L243,125L241,125L241,126L241,125L241,123L241,122L241,121L241,120L240,119L240,118L238,119L236,119L233,119L234,120L233,121L232,122L232,122L230,122L231,121L230,120L231,120L232,120L233,119L233,118L235,117L235,115L234,116L233,116L231,116L230,116L230,117L228,118L228,119L227,119L227,118L229,116L230,116L232,115L234,114L235,115L236,115L237,114L240,110L239,109L238,111L237,110L236,110L234,110L232,110L231,109L230,109L229,109L229,108L230,109L232,109L233,109L234,109L235,108L236,107L235,106L234,106L235,106L236,105L238,104L239,104L239,102L241,101L245,98L246,97L247,96L249,94L251,93L252,92L253,91L254,89L254,88L254,87L253,87L253,86L253,85L254,84L255,83L255,82L255,81L253,81L251,80L249,80L248,80L248,81L249,82L248,82L247,82L245,81L244,81L242,82L240,83L238,83L236,83L235,82L234,83L233,84L232,84L232,85L231,84L230,84L229,85L228,86L227,86L228,85L228,84L226,82L225,82L225,84L224,85L223,86L222,87L222,86L223,84L224,83L223,82L221,82L221,83L221,84L221,83L221,82L220,81L217,80L217,81L217,83L216,83L215,84L215,85L217,87L216,86L215,87L216,88L216,89L214,88L214,89L213,90L214,91L214,92L215,93L216,94L217,93L218,94L217,94L218,95L216,94L215,94L214,93L213,94L212,93L211,94L209,94L210,96L210,97L212,98L211,98L211,99L210,100L209,100L209,99L208,100L209,102L210,103L211,104L212,105L212,106L214,108L214,109L213,107L212,107L211,106L210,106L209,105L208,106L210,107L210,108L211,109L209,108L209,107L207,106L206,108L205,107L205,106L204,105L203,106L203,107L204,108L204,110L203,111L203,110L203,109L202,107L201,107L200,108L200,109L200,110L200,112L202,113L202,114L201,113L200,114L199,115L200,116L201,117L202,118L202,119L204,119L205,120L204,120L203,120L202,120L201,119L200,118L199,118L198,119L198,120L198,121L198,122L199,123L199,125L199,126L201,126L203,125L202,126L203,126L204,126L206,124L206,125L205,126L202,126L201,127L201,129L202,129L204,129L205,128L206,128L205,129L205,130L206,131L205,130L203,130L202,131L202,132L201,133L201,134L203,135L204,135L206,136L205,136L203,135L202,135L201,135L200,135L199,137L200,138L201,138L201,139L203,139L204,139L203,140L201,140L200,139L200,138L199,138L198,139L197,141L196,142L196,143L199,143L198,144L199,145L201,144L199,145L197,145L197,146L199,147L197,147L196,147L196,148L195,147L194,147L193,147L190,148L189,149L189,150L191,150L192,150L193,150L194,150L195,151L196,151L198,150L196,152L195,152L193,152L193,153L196,156L197,156L198,155L198,156L199,157L200,158Z M202,151L200,151L198,150L198,150L198,150L198,150L199,150L201,151L203,151Z M189,139L189,138L189,137L188,136L186,137L185,138L186,139L187,140L188,140Z M185,136L184,135L183,136L184,136Z M196,137L197,135L198,135L199,134L199,133L200,133L201,132L201,131L202,130L200,129L200,129L198,130L197,129L196,129L195,128L193,128L194,127L192,127L193,126L192,125L193,124L192,124L192,123L193,122L193,121L193,120L193,117L192,116L191,115L191,114L190,113L189,113L189,114L188,115L188,116L189,117L188,118L188,119L189,120L189,121L188,119L187,120L186,119L186,119L184,117L184,116L183,116L183,117L183,118L183,119L183,120L183,122L182,121L181,119L181,120L181,121L180,122L181,123L181,124L182,125L184,125L184,124L185,123L185,124L186,123L186,124L186,126L187,126L188,127L188,126L186,126L185,127L186,128L187,130L188,131L189,131L188,133L191,131L192,132L192,133L193,134L193,133L194,132L194,131L195,132L197,133L198,132L196,133L195,134L194,135L194,137L194,138Z M196,127L195,127L195,128L196,128Z M195,126L195,125L195,123L195,122L196,121L195,120L195,121L194,122L194,123L194,126L194,127Z " data-fips="UK83" data-hasc="GB.HI" data-name="Highland" data-postal="HI" data-varname=""/><path d="M210,196L210,195L209,193L210,193L209,191L209,188L208,187L206,187L205,188L204,189L204,191L204,193L204,194L204,195L205,196L206,197L207,197L209,197Z M186,190L187,189L188,189L189,189L190,188L191,187L191,186L190,185L190,184L189,183L189,182L189,180L189,178L188,178L187,179L185,180L185,182L185,181L184,180L183,180L182,181L182,182L182,183L181,185L181,187L182,187L183,186L184,185L184,183L185,183L186,183L185,184L185,186L186,186L186,188L185,188L184,190L185,191Z M197,201L198,202L199,201L200,201L200,199L200,198L199,197L200,196L201,195L201,194L202,193L202,192L202,191L202,189L202,188L203,187L204,185L205,185L205,183L205,182L204,181L204,180L204,179L203,178L204,175L204,176L205,175L206,174L208,172L211,170L211,169L212,168L213,168L215,167L214,168L213,168L212,169L211,171L210,172L208,172L206,176L206,178L205,179L206,180L206,182L207,182L208,183L208,181L207,180L208,179L209,178L209,179L211,180L211,179L210,177L211,179L211,180L212,181L213,181L213,180L214,179L214,178L213,177L214,177L215,176L215,175L215,174L215,173L215,170L215,171L216,172L218,170L216,172L215,175L215,176L215,177L216,178L217,177L217,175L217,176L218,177L219,178L221,179L221,178L221,177L221,175L221,174L220,172L220,171L219,169L219,168L220,166L220,165L219,165L218,165L217,164L217,162L218,161L219,160L220,160L221,160L220,159L221,158L220,157L222,156L222,155L221,153L220,153L220,153L218,153L216,153L216,153L214,153L213,153L212,154L211,154L208,153L207,153L207,153L206,154L206,155L205,156L207,156L208,156L209,156L208,156L206,157L205,157L204,159L205,158L206,159L209,160L210,159L211,158L212,156L211,158L210,160L208,160L207,160L204,160L203,161L203,162L203,163L204,163L202,163L201,164L201,165L201,167L202,167L202,168L201,169L201,171L202,170L201,172L202,173L201,173L199,175L198,177L198,178L199,177L200,175L201,175L200,176L198,179L198,180L199,180L201,178L200,179L199,180L198,182L199,184L200,185L201,184L203,182L202,183L201,185L200,186L199,187L198,188L198,189L197,190L197,192L197,193L197,194L197,195L196,197L195,198L195,199L195,202Z M212,186L212,185L212,184L211,183L211,182L210,181L209,179L208,180L209,182L209,183L210,185L211,186L212,187Z M188,174L189,172L189,171L188,171L188,172L187,173L186,174L187,174Z M192,182L193,181L194,180L195,178L196,175L198,173L199,172L199,171L197,171L196,172L195,173L194,174L193,174L192,175L192,177L193,177L191,178L190,179L190,180L190,182L192,183Z M200,167L200,166L200,167L199,168L200,169Z M188,165L190,165L191,165L192,164L194,164L195,163L196,163L195,164L197,164L198,163L199,162L197,162L199,161L200,161L200,160L199,159L199,158L198,158L197,157L196,156L194,156L193,153L192,152L191,151L190,152L189,153L188,153L187,153L187,154L186,155L187,156L189,156L190,157L190,158L191,158L193,158L193,158L191,159L190,160L189,161L189,161L190,162L191,162L192,162L191,162L189,163L187,163L186,162L185,163L185,164L186,165L187,165Z M202,162L203,161L202,161L201,162Z M190,158L188,157L188,157L189,158L190,158Z M175,157L176,157L177,156L178,155L178,154L176,155L175,155L173,156L173,157L175,158Z M182,153L183,152L184,151L184,150L183,150L182,150L181,151L180,153L180,153L181,154Z " data-fips="UK83" data-hasc="GB.AB" data-name="Argyll and Bute" data-postal="AB" data-varname="Earra-Ghaidheal agus Bd"/><path d="M282,48L283,47L282,48L282,49Z M288,28L287,27L287,28L287,29Z M293,26L292,24L292,24L291,25L291,27L292,27Z M289,35L289,34L289,33L289,31L290,31L290,30L290,29L290,27L290,26L291,25L290,24L291,23L290,24L290,22L290,21L291,22L292,21L291,20L292,19L291,18L292,18L292,17L291,17L292,15L292,15L291,16L290,16L290,15L290,14L289,13L288,14L289,15L288,15L287,16L288,14L287,13L287,12L288,10L288,9L288,9L288,8L287,9L286,9L286,10L285,11L285,12L286,13L284,12L284,11L283,12L283,13L283,14L284,13L285,14L285,13L285,14L286,16L286,17L287,17L288,18L289,18L287,18L287,19L287,21L286,19L285,20L285,21L285,20L284,20L283,20L282,20L281,20L281,21L282,23L283,23L284,23L284,22L285,23L284,24L284,25L285,25L286,24L287,23L287,22L286,22L287,22L287,24L289,22L288,23L289,24L288,26L289,27L288,28L288,30L287,31L288,33L287,34L287,35L288,35L289,36Z M294,19L294,18L295,17L293,18L293,19Z M298,9L297,9L297,8L294,8L296,10L297,10Z M293,11L293,10L293,9L292,9L293,9L293,7L294,7L293,6L293,5L293,4L292,4L291,5L291,6L291,7L291,8L291,7L290,8L291,13L292,13L293,13Z M295,6L296,6L296,5L297,3L297,2L297,1L297,1L296,0L296,1L295,0L295,1L295,2L294,4L294,5L294,6Z " data-fips="UK83" data-hasc="GB.AR" data-name="Shetland Islands" data-postal="" data-varname="Aberdeen City"/><path d="M302,372L303,371L306,370L310,370L313,368L315,368L314,367L315,367L317,367L317,365L317,363L318,362L319,363L319,361L320,360L319,359L320,358L319,357L318,357L316,357L315,356L312,358L311,358L310,359L308,359L307,359L305,359L304,360L302,359L301,360L300,360L299,361L299,363L298,364L298,366L298,367L298,368L299,369L300,370L299,371L301,372Z " data-fips="UK44" data-hasc="GB.WS" data-name="West Sussex" data-postal="WS" data-varname=""/><path d="M292,326L294,324L295,324L296,323L297,323L298,325L300,323L299,322L300,321L300,320L301,320L304,318L304,317L305,316L306,316L307,315L308,314L308,313L309,311L310,310L311,309L311,307L309,307L309,305L309,305L308,305L308,303L307,302L306,304L303,306L302,307L301,307L299,307L298,308L299,309L297,309L295,309L295,311L294,310L293,311L292,312L292,313L291,314L291,315L291,316L290,318L290,318L289,320L291,322L289,323L290,325L291,326Z " data-fips="UK31" data-hasc="GB.NA" data-name="Northamptonshire" data-postal="NA" data-varname=""/><path d="M284,327L285,326L285,323L285,322L287,322L288,322L288,321L289,320L290,318L290,318L291,316L291,315L291,314L292,313L291,310L289,308L287,307L285,305L284,304L283,303L283,301L282,302L282,303L281,304L279,306L279,307L281,309L282,309L286,310L286,312L284,312L283,312L282,313L281,313L279,313L278,313L277,312L277,312L277,312L276,313L277,314L276,316L275,316L276,317L275,318L275,320L276,320L277,320L278,321L279,322L280,323L281,325L282,325L282,326L283,327Z " data-fips="UK42" data-hasc="GB.WR" data-name="Warwickshire" data-postal="WR" data-varname=""/><path d="M298,345L299,344L299,343L299,342L298,341L298,340L297,340L298,339L299,338L299,337L298,335L297,335L296,335L295,335L294,334L294,332L295,332L295,331L294,330L294,329L295,328L294,327L295,326L292,326L291,326L290,325L289,323L291,322L289,320L288,321L288,322L287,322L285,322L285,323L285,326L284,327L283,327L282,328L281,329L281,330L281,331L281,333L280,334L281,336L281,337L280,338L281,339L281,340L281,342L283,343L283,342L285,342L286,343L287,343L288,343L290,342L291,343L292,343L293,343L294,344L295,344L296,346Z " data-fips="UK34" data-hasc="GB.OX" data-name="Oxfordshire" data-postal="OX" data-varname=""/><path d="M311,331L311,330L310,329L310,328L309,329L308,329L308,331L310,332Z " data-fips="UK02" data-hasc="GB.LU" data-name="Luton" data-postal="LU" data-varname=""/><path d="M310,344L311,343L311,342L311,342L310,341L309,340L308,341L308,342L308,344L308,345L310,345Z " data-fips="UK40" data-hasc="GB.HD" data-name="Hillingdon" data-postal="HD" data-varname=""/><path d="M314,348L314,348L314,347L312,346L312,348L312,348L312,349L313,350Z " data-fips="UK40" data-hasc="GB.KT" data-name="Kingston upon Thames" data-postal="KT" data-varname=""/><path d="M305,359L307,359L308,359L310,359L311,358L312,358L315,356L316,357L318,357L319,357L321,357L321,355L320,354L321,353L321,351L320,350L320,350L318,350L317,351L316,351L316,350L314,350L314,348L313,350L312,349L312,348L311,348L310,347L309,346L308,345L307,346L306,346L305,347L304,348L303,349L303,352L302,353L301,354L300,355L300,357L301,358L302,359L302,359L304,360Z " data-fips="UK40" data-hasc="GB.SR" data-name="Surrey" data-postal="SR" data-varname=""/><path d="M282,345L283,344L283,343L281,342L281,340L281,339L280,338L280,338L279,339L278,340L277,341L277,342L277,344L278,345L279,345L280,346Z " data-fips="UK46" data-hasc="GB.SN" data-name="Swindon" data-postal="SN" data-varname="Thamesdown"/><path d="M282,364L282,363L283,362L282,360L282,359L282,358L281,357L280,355L280,354L282,354L283,353L284,353L284,352L284,351L284,350L285,350L285,349L283,347L284,347L284,345L283,344L283,344L282,345L280,346L279,345L278,345L277,344L277,342L277,341L278,340L279,339L278,337L278,338L276,338L276,339L275,338L274,339L272,338L271,340L270,341L269,340L268,341L267,342L268,343L266,344L267,345L267,347L267,348L266,350L267,352L268,353L267,355L265,358L266,359L267,360L269,361L270,363L271,364L272,364L273,363L276,362L278,363L279,363L280,363L281,364Z " data-fips="UK46" data-hasc="GB.WL" data-name="Wiltshire" data-postal="WL" data-varname=""/><path d="M293,376L293,375L294,375L295,374L294,372L293,372L290,371L288,371L287,372L285,373L284,375L285,375L286,375L290,378Z " data-fips="UK23" data-hasc="GB.IW" data-name="Isle of Wight" data-postal="IW" data-varname=""/><path d="M298,370L297,370L297,369L296,370Z M296,369L297,368L296,368L295,368L294,368L295,369L294,370L295,370Z " data-fips="UK23" data-hasc="GB.PS" data-name="Portsmouth" data-postal="PS" data-varname=""/><path d="M313,306L314,305L315,304L316,304L317,303L316,301L315,302L312,302L311,301L309,302L308,302L308,303L308,305L309,305L310,306L312,307Z " data-fips="UK05" data-hasc="GB.PB" data-name="Peterborough" data-postal="PB" data-varname=""/><path d="M295,303L293,301L292,302L292,304L293,305Z " data-fips="UK26" data-hasc="GB.LC" data-name="Leicester" data-postal="LC" data-varname=""/><path d="M303,306L306,304L307,302L308,301L309,300L307,299L306,298L305,298L302,299L301,299L300,300L300,301L300,303L301,305L301,306L302,307Z " data-fips="UK26" data-hasc="GB.RL" data-name="Rutland" data-postal="RL" data-varname=""/><path d="M293,291L293,289L292,289L291,291L291,292L291,293Z " data-fips="UK33" data-hasc="GB.NG" data-name="Nottingham" data-postal="NG" data-varname=""/><path d="M291,293L291,292L291,291L292,289L293,289L293,291Z M292,297L294,296L295,296L296,296L297,295L297,294L299,293L300,291L300,290L301,290L301,289L301,288L303,287L302,286L302,284L302,283L302,282L303,281L304,280L302,280L301,280L301,278L301,277L301,275L301,274L300,273L298,272L297,271L296,272L296,273L295,274L294,274L293,276L293,277L292,278L292,279L291,280L291,282L291,283L290,283L289,284L289,286L288,287L289,288L289,289L290,291L290,292L291,293L290,294L290,295L291,297Z " data-fips="UK33" data-hasc="GB.NT" data-name="Nottinghamshire" data-postal="NT" data-varname=""/><path d="M318,342L319,342L318,341L317,343L317,343Z " data-fips="UK17" data-hasc="GB.HK" data-name="Hackney" data-postal="HK" data-varname=""/><path d="M318,341L318,340L316,340L316,341L315,341Z " data-fips="UK17" data-hasc="GB.HY" data-name="Haringey" data-postal="HY" data-varname=""/><path d="M312,342L312,341L312,339L312,339L311,340L310,341L311,342L311,342Z " data-fips="UK17" data-hasc="GB.HR" data-name="Harrow" data-postal="HR" data-varname=""/><path d="M317,346L317,345L317,344L316,344L316,345L316,347L316,347Z " data-fips="UK17" data-hasc="GB.LT" data-name="Lambeth" data-postal="LT" data-varname=""/><path d="M320,347L320,346L320,345L319,344L318,345L318,346L318,347L319,347Z " data-fips="UK17" data-hasc="GB.LW" data-name="Lewisham" data-postal="LW" data-varname=""/><path d="M321,344L321,343L320,341L320,342L319,342L319,343L321,344Z " data-fips="UK17" data-hasc="GB.NH" data-name="Newham" data-postal="NH" data-varname=""/><path d="M318,346L318,345L317,343L317,344L317,345L317,346L318,347Z " data-fips="UK17" data-hasc="GB.SQ" data-name="Southwark" data-postal="SQ" data-varname=""/><path d="M166,138L167,137L166,137L166,136L165,135L165,136L164,137L164,137L163,138L165,139Z M170,132L169,132L168,131L170,131L170,130L169,129L168,128L170,128L170,127L171,126L170,125L169,124L168,124L168,123L169,124L170,124L170,123L168,122L168,122L167,123L167,124L167,126L167,127L166,128L167,129L166,130L167,132L168,133L170,133Z M171,121L170,121L171,120L170,119L170,119L168,119L168,120L168,121L170,122Z M173,117L172,117L171,117L170,117L171,116L172,117L173,117L174,116L173,115L172,115L172,114L173,114L174,115L175,114L174,113L172,113L173,113L172,112L171,113L170,112L169,113L167,112L166,114L165,115L167,116L168,116L169,117L169,118L170,118L171,118L173,118Z M176,104L177,104L176,104L175,105Z M179,109L179,108L180,107L181,107L182,107L181,105L182,105L183,106L183,105L183,104L182,102L182,101L183,100L183,99L184,99L183,100L183,101L183,102L184,104L185,104L185,104L186,104L187,103L187,102L187,101L189,101L189,100L189,99L189,98L188,98L185,98L186,98L188,98L188,97L190,96L190,95L190,94L191,94L192,95L193,94L194,94L193,93L192,94L191,93L191,92L192,91L193,90L194,89L193,88L194,86L194,85L194,84L193,83L192,83L191,85L187,87L187,88L185,88L184,89L183,89L182,91L182,92L183,93L183,94L183,95L182,94L181,94L180,95L180,96L180,97L180,96L179,94L180,93L178,92L177,92L177,93L177,94L175,95L175,96L175,97L177,98L177,99L179,99L177,100L176,100L175,101L176,102L177,102L178,103L179,103L180,104L179,104L178,105L178,106L177,106L175,107L174,107L175,108L176,109L177,110Z M181,92L181,92L180,92L180,93L182,93Z " data-fips="UK89" data-hasc="GB.WI" data-name="Eilean Siar" data-postal="WI" data-varname="Western Isles"/><path d="M189,211L190,210L190,210L189,210L188,210L189,208L189,206L188,204L186,204L185,204L182,203L181,203L180,203L179,203L179,204L179,206L180,207L182,207L183,208L185,208L185,209L186,211L186,212L187,213Z M187,201L186,201L185,201L186,201L186,202Z " data-fips="UK72" data-hasc="GB.MY" data-name="Moyle" data-postal="MY" data-varname=""/><path d="M262,277L264,276L264,274L264,273L262,272L261,273L260,273L259,272L259,274L259,275L259,275L260,276L261,277Z " data-fips="UK06" data-hasc="GB.WT" data-name="Warrington" data-postal="WT" data-varname=""/><path d="M259,331L260,331L261,331L262,330L264,329L263,328L262,327L263,326L263,325L264,326L265,325L265,325L265,324L266,322L265,321L264,320L264,319L264,317L263,317L262,316L262,317L260,317L260,316L259,315L258,313L258,314L257,313L257,313L256,312L255,311L254,312L253,312L252,313L251,314L251,315L252,316L251,316L250,317L249,318L248,319L249,320L248,320L248,321L248,322L249,323L249,324L250,326L250,326L251,327L252,329L253,328L256,330L256,331L257,331L258,332Z " data-fips="UK20" data-hasc="GB.HE" data-name="Herefordshire" data-postal="HE" data-varname=""/><path d="M269,326L270,326L270,324L271,324L270,325L272,325L274,325L275,325L277,325L277,324L276,323L278,323L278,322L279,322L278,321L277,320L276,320L275,320L275,318L276,317L275,316L276,316L277,314L276,313L277,312L277,312L276,311L274,311L273,311L274,310L273,310L272,310L270,310L269,310L267,309L267,310L266,310L266,311L264,312L263,312L263,313L262,313L261,314L260,314L259,315L260,316L260,317L262,317L262,316L263,317L264,317L264,319L264,320L265,321L266,322L265,324L265,325L266,326L268,327Z " data-fips="UK20" data-hasc="GB.WC" data-name="Worcestershire" data-postal="WC" data-varname=""/><path d="M270,308L270,307L271,306L270,305L269,304L270,303L271,302L272,303L275,302L275,301L276,302L276,303L276,304L278,304L281,304L282,303L282,302L283,301L282,300L281,299L281,298L282,297L282,296L282,295L280,295L279,294L278,293L277,292L278,291L278,290L279,289L279,288L279,286L278,284L278,283L277,282L275,282L274,281L274,282L272,283L271,282L270,283L269,285L269,286L270,287L271,288L272,290L271,291L270,291L269,289L269,288L269,287L267,286L266,287L265,287L265,289L265,289L266,289L265,291L264,291L264,293L264,294L265,293L266,296L267,299L267,301L268,301L268,302L268,303L267,304L268,305L268,306L267,307L267,308L267,309L269,310L270,310Z " data-fips="UK38" data-hasc="GB.ST" data-name="Staffordshire" data-postal="ST" data-varname=""/><path d="M272,290L271,288L270,287L269,286L269,285L269,287L269,288L269,289L270,291L271,291Z " data-fips="UK38" data-hasc="GB.SO" data-name="Stoke-on-Trent" data-postal="SO" data-varname=""/><path d="M258,313L260,314L261,314L262,313L263,313L263,312L264,312L266,311L266,310L267,310L267,309L267,308L267,307L268,306L268,305L267,304L268,303L268,302L268,301L267,301L267,299L265,301L264,303L263,303L262,302L261,300L259,299L259,298L260,297L262,297L263,296L264,295L265,293L264,294L264,293L264,291L265,291L266,289L265,289L264,290L263,290L262,291L261,290L260,289L257,290L258,291L256,292L255,291L253,291L252,290L251,290L250,291L249,292L249,293L249,294L248,295L248,296L249,296L251,297L252,298L252,299L251,299L251,300L250,301L250,302L249,303L249,304L249,305L250,305L251,304L252,305L251,306L249,307L247,308L246,309L246,310L247,311L249,312L249,313L252,313L252,313L253,312L254,312L255,311L256,312L257,313L257,313L258,314Z " data-fips="UK35" data-hasc="GB.SP" data-name="Shropshire" data-postal="SP" data-varname="Salop"/><path d="M281,269L282,268L283,267L284,267L285,267L286,267L288,267L289,268L290,264L291,263L290,262L289,262L289,260L289,259L288,258L289,257L289,255L288,254L287,254L286,255L284,255L284,254L284,255L282,255L280,256L279,255L279,254L277,254L276,253L275,254L274,255L275,257L273,258L272,259L271,261L270,262L270,263L271,263L272,264L273,264L273,265L273,266L274,267L275,268L279,269Z " data-fips="UK45" data-hasc="GB.WY" data-name="West Yorkshire" data-postal="WY" data-varname=""/><path d="M271,276L272,275L273,275L273,275L274,274L273,273L274,272L275,271L275,270L275,268L274,267L273,266L273,265L273,264L272,264L271,263L270,263L269,264L268,265L268,266L268,264L267,265L266,265L264,265L263,266L263,266L262,267L260,267L259,266L258,267L258,268L257,270L259,271L260,271L261,273L262,272L264,273L264,274L266,275L267,275L268,276L269,276L270,277Z " data-fips="UK18" data-hasc="GB.MN" data-name="Manchester" data-postal="MN" data-varname=""/><path d="M286,278L287,277L288,278L289,277L290,278L292,278L293,277L293,276L294,274L295,274L296,273L296,272L297,271L297,270L298,269L298,268L299,267L297,265L296,264L294,265L293,265L291,265L289,268L288,267L286,267L285,267L284,267L283,267L282,268L281,269L279,269L278,271L280,273L280,274L280,275L281,275L283,276L282,277L284,278Z " data-fips="UK37" data-hasc="GB.SY" data-name="South Yorkshire" data-postal="SY" data-varname=""/><path d="M342,363L342,362L343,360L344,359L345,358L347,358L347,358L348,357L349,357L351,355L352,354L352,353L352,351L351,350L351,349L352,348L352,347L345,348L342,349L337,348L336,347L335,346L336,347L335,347L334,349L333,350L332,349L331,349L330,348L330,347L331,346L330,345L331,344L331,344L329,345L328,345L327,345L325,345L324,345L323,346L323,347L323,349L322,350L321,351L321,351L321,353L320,354L321,355L321,357L322,357L323,358L325,357L326,358L327,357L328,359L329,359L330,360L332,361L333,362L335,361L336,362L337,362L339,364L340,364L340,364L342,364Z M341,348L341,347L340,346L336,345L336,346L337,347L338,348Z " data-fips="UK24" data-hasc="GB.KE" data-name="Kent" data-postal="KE" data-varname=""/></g></svg>