<?xml version="1.0" ?><!DOCTYPE svg  PUBLIC '-//W3C//DTD SVG 1.1//EN'  'http://www.w3.org/Graphics/SVG/1.1/DTD/svg11.dtd'><svg enable_background="new 0 0 500 401" height="401px" style="stroke-linejoin: round; stroke:#000; fill:#f6f3f0;" version="1.1" viewBox="0 0 500 401" width="500px" xmlns="http://www.w3.org/2000/svg" xmlns:xlink="http://www.w3.org/1999/xlink"><defs><style type="text/css"><![CDATA[path { fill-rule: evenodd; }
#context path { fill: #eee; stroke: #bbb; } ]]></style></defs><metadata><views><view h="401" padding="0" w="500"><proj id="laea" lat0="45.723" lon0="16.693"/><bbox h="50.8" w="51.2" x="972.4" y="989.82"/><llbbox lat0="-90" lat1="90" lon0="-180" lon1="180"/></view></views></metadata><g id="admin1"><path d="M395,398L394,396L393,395L392,394L391,393L390,392L390,390L390,388L391,387L390,385L389,385L387,385L385,384L383,381L381,381L377,380L375,379L362,371L358,368L357,367L354,363L352,362L349,361L346,358L346,356L346,353L344,352L343,353L342,353L339,352L337,351L336,352L335,353L334,354L336,355L338,355L337,356L338,357L340,359L338,359L335,356L334,356L333,355L332,354L329,353L327,352L326,352L325,351L324,352L323,352L321,351L320,351L320,349L318,347L315,346L305,342L299,341L293,341L291,341L289,339L288,339L289,341L289,341L289,342L289,343L291,344L292,345L294,345L302,345L303,346L304,347L307,347L312,351L317,352L319,353L319,356L325,358L329,359L333,361L336,361L339,363L341,364L341,365L342,365L341,362L340,362L339,360L340,361L342,363L343,363L344,362L345,362L347,362L349,364L351,364L350,366L352,367L356,369L359,372L361,373L362,372L363,374L364,375L363,375L363,376L364,377L365,377L367,377L368,377L371,379L375,380L375,381L375,384L376,386L389,393L389,395L390,395L392,396L393,397L395,399Z M281,370L282,369L283,368L283,366L282,365L277,365L275,365L274,366L274,367L275,366L275,368L274,368L275,369L277,370L277,369L279,369L279,370Z M340,371L336,370L334,369L330,368L328,367L325,366L322,365L319,365L317,365L316,364L314,364L315,363L315,363L314,363L312,364L311,364L311,365L313,366L314,367L315,366L341,373Z M280,353L286,351L289,351L295,352L298,351L300,351L302,351L299,349L298,348L297,347L295,347L290,346L282,346L280,347L279,348L275,348L271,347L269,346L268,345L266,345L264,345L263,345L261,346L263,346L265,346L267,348L262,350L263,351L264,351L266,351L269,352L277,353Z M333,348L334,347L334,344L332,339L330,336L329,336L319,329L319,329L318,330L317,330L316,330L315,329L314,329L312,329L312,330L313,330L314,331L315,333L316,334L315,335L313,336L314,337L316,339L318,338L318,339L319,341L320,341L318,342L320,341L321,341L322,340L323,341L321,341L321,342L321,343L322,345L323,346L324,348L325,348L327,348L329,349Z " data-fips="HR03" data-hasc="HR.DN" data-name="Dubrovacko-Neretvanska" data-postal="DN" data-varname="Dubrovnik-Neretva"/><path d="M217,295L218,295L219,294L221,294L220,293L220,292L221,292L223,291L222,290L221,288L220,287L220,286L221,285L222,284L224,284L228,278L229,277L234,279L235,278L236,277L237,276L239,276L242,274L242,273L241,272L242,271L242,270L242,268L247,265L247,263L244,260L243,259L241,258L241,257L242,254L241,253L240,253L239,253L233,255L232,255L231,255L229,254L228,253L228,251L228,250L228,248L228,247L228,246L228,245L228,244L227,244L225,245L223,246L222,245L219,246L219,247L219,248L219,249L218,249L217,251L217,252L214,253L213,253L212,255L210,255L209,253L205,253L203,253L202,252L202,253L202,254L202,255L201,256L200,257L200,258L200,259L198,259L197,259L195,257L192,259L191,259L189,257L188,256L186,258L188,260L192,262L194,264L195,265L194,265L193,264L190,263L192,265L193,265L195,266L196,268L197,269L201,270L203,270L203,271L207,273L208,275L209,276L210,276L211,277L213,278L213,276L214,277L213,278L212,279L214,280L213,281L212,280L210,281L212,281L215,282L211,283L211,285L211,286L212,287L211,288L213,288L213,289L212,289L214,291L215,291L216,291L216,292L216,293L214,294L215,295Z M195,281L194,280L193,279L193,278L190,278L189,278L190,279L193,281L195,281L199,283Z M173,267L172,266L171,264L166,260L166,259L164,258L163,258L164,259L165,261L166,262L167,263L169,265L170,266L175,268Z " data-fips="HR13" data-hasc="HR.SB" data-name="ibensko-Kninska" data-postal="SB" data-varname="ibenik"/><path d="M225,342L232,341L232,340L233,339L234,338L235,336L234,337L232,336L230,337L231,336L229,335L226,335L223,336L221,337L220,337L221,339L222,339L223,340L223,341L221,342L223,343Z M266,332L301,331L298,330L295,330L289,330L285,329L280,329L279,328L278,328L277,328L270,328L268,328L267,327L266,326L264,324L263,323L262,323L260,322L259,322L258,323L257,322L254,322L256,324L258,326L256,326L254,324L252,323L249,323L248,324L245,325L244,324L243,325L247,326L248,327L250,328L256,330L264,332Z M244,310L243,309L241,307L240,306L238,306L238,305L236,304L232,304L231,304L231,305L231,306L233,307L237,308L241,311L243,312Z M274,318L277,317L278,316L279,315L280,314L279,313L277,312L276,311L275,311L274,311L273,310L274,310L265,307L252,307L248,306L247,306L248,308L249,310L248,310L247,312L246,312L245,312L247,313L252,316L257,318L261,318Z M243,296L240,295L239,295L236,294L234,295L234,296L233,296L232,296L233,297L234,297L236,297L237,297L240,297Z M315,335L316,334L315,333L314,331L313,330L312,330L312,329L314,329L315,329L316,330L317,330L318,330L319,329L319,329L319,329L318,328L317,326L316,324L316,323L315,322L313,321L311,318L308,314L306,309L307,301L306,299L304,297L297,296L293,294L292,293L289,291L286,287L275,275L267,269L266,267L265,265L265,264L265,262L262,260L260,257L256,253L254,250L251,250L250,250L248,252L246,254L245,255L244,255L242,254L241,257L241,258L243,259L244,260L247,263L247,265L242,268L242,270L242,271L241,272L242,273L242,274L239,276L237,276L236,277L235,278L234,279L229,277L228,278L224,284L222,284L221,285L220,286L220,287L221,288L222,290L223,291L221,292L220,292L220,293L221,294L219,294L218,295L218,295L220,296L222,296L224,297L225,297L225,296L229,296L229,295L228,294L225,293L234,293L237,292L239,291L241,290L248,291L249,291L250,292L249,293L248,293L246,294L245,294L250,294L253,295L254,295L255,296L261,300L266,301L270,303L279,305L280,306L281,306L283,308L290,316L291,317L291,319L293,321L294,321L295,322L296,324L297,324L300,326L310,331L313,336Z " data-fips="HR15" data-hasc="HR.SD" data-name="Splitsko-Dalmatinska" data-postal="SD" data-varname="Split-Dalmacia"/><path d="M192,259L195,257L197,259L198,259L200,259L200,258L200,257L201,256L202,255L202,254L202,253L202,252L203,253L205,253L209,253L210,255L212,255L213,253L214,253L217,252L217,251L218,249L219,249L219,248L219,247L219,246L222,245L223,246L225,245L227,244L228,244L228,245L228,246L228,247L228,248L228,250L228,251L228,253L229,254L231,255L232,255L233,255L239,253L240,253L241,253L242,254L244,255L245,255L246,254L248,252L250,250L251,250L254,250L253,249L252,248L251,247L248,246L247,244L247,243L246,241L243,241L242,240L240,239L239,237L238,233L237,232L234,228L233,227L231,222L231,219L231,218L231,217L232,215L232,212L231,211L230,210L228,210L227,210L228,209L229,208L229,206L228,205L227,200L226,198L226,196L225,195L224,195L221,196L220,196L218,194L219,193L220,191L221,190L221,188L220,187L219,186L217,186L216,185L215,183L214,181L213,180L212,180L211,179L211,177L209,176L209,178L207,179L206,179L204,178L204,177L203,177L201,175L199,172L199,170L198,169L200,167L201,167L202,166L202,165L202,163L201,161L200,159L200,156L200,156L199,157L198,156L197,156L195,155L193,156L191,156L190,155L188,154L187,154L186,156L186,157L188,160L188,161L188,163L187,164L186,165L186,166L187,167L188,167L189,168L191,169L190,171L188,172L187,173L186,173L185,174L182,174L182,176L183,177L185,178L185,180L186,181L186,184L187,185L188,188L187,189L188,190L192,194L193,195L194,199L190,201L190,203L190,203L191,204L192,205L192,206L192,208L192,209L191,210L190,211L188,212L187,213L186,214L184,212L183,211L177,210L176,209L175,208L174,207L172,206L171,206L170,207L169,211L170,212L177,216L179,219L184,219L185,220L185,221L183,221L178,220L177,220L172,217L170,216L168,214L166,214L167,215L168,216L169,217L169,218L168,218L169,222L168,222L167,221L165,219L162,217L163,218L161,218L163,220L162,221L160,222L160,221L159,219L158,219L157,219L156,220L157,221L159,223L159,225L158,227L162,231L163,232L163,233L164,234L167,238L170,242L171,242L173,244L174,246L178,251L179,253L180,254L181,254L182,255L183,255L184,256L186,258L188,256L189,257L191,259Z M178,256L178,255L177,254L176,253L175,252L175,251L174,249L172,248L168,246L167,245L166,245L167,246L168,248L169,250L170,251L172,252L172,253L173,254L173,255L176,255L176,256L178,257L179,257Z M165,242L164,240L152,230L153,232L153,233L154,234L156,237L158,239L160,240L161,241L162,241L162,242L163,241L164,242L165,243L165,244Z M161,258L160,257L159,256L157,254L158,253L161,256L163,256L163,254L158,251L156,247L154,247L151,243L150,242L150,241L149,239L148,238L148,237L147,237L145,236L144,235L144,233L140,230L138,228L139,231L145,238L147,239L148,241L151,247L152,249L155,253L156,254L157,255L159,257L160,258Z M138,231L137,231L136,230L136,229L135,231L136,232L138,232Z M132,220L133,220L134,219L133,218L131,217L131,218L130,219L131,220Z M124,214L122,212L121,212L123,215L125,215Z M135,212L135,210L135,208L135,206L133,205L132,205L132,208L131,210L133,212Z " data-fips="HR19" data-hasc="HR.ZD" data-name="Zadarska" data-postal="ZD" data-varname="Zadar-Knin"/><path d="M225,57L226,57L228,56L230,54L230,54L231,53L232,53L232,52L232,51L233,50L233,49L232,48L232,47L234,47L235,47L236,42L236,40L236,38L236,37L235,36L235,34L234,34L233,33L232,32L231,33L231,34L230,35L229,35L227,34L226,35L225,35L223,35L222,35L221,35L218,34L217,34L216,33L215,32L215,32L212,30L211,29L211,28L208,28L207,28L206,28L205,29L204,31L202,32L198,32L196,32L195,32L194,34L193,36L192,39L192,42L192,44L195,46L197,47L198,48L199,49L198,50L198,51L197,53L197,55L198,55L203,56L204,56L205,55L207,55L209,55L213,57L214,57L215,59L216,61L217,62Z " data-fips="SI92" data-hasc="HR.KZ" data-name="Krapinsko-Zagorska" data-postal="KZ" data-varname="Krapina-Zagorje"/><path d="M188,160L186,157L186,156L187,154L188,154L190,155L191,156L193,156L195,155L197,156L198,156L199,157L200,156L200,156L200,155L202,152L202,150L201,147L202,146L203,141L203,140L203,133L205,131L205,131L203,130L202,129L200,129L199,130L198,130L193,128L193,127L194,126L194,125L195,124L195,123L195,121L195,120L196,119L196,118L196,117L197,115L196,114L196,113L196,110L195,109L197,108L199,109L200,110L201,110L202,110L203,111L205,112L206,111L207,109L207,107L207,106L208,105L208,104L207,103L206,99L205,99L204,99L202,97L201,95L202,94L201,92L200,93L199,92L198,91L196,91L193,89L192,89L191,90L190,91L189,91L187,89L186,87L185,86L182,85L181,84L181,82L180,82L177,82L176,84L175,84L175,84L176,87L175,87L173,88L171,89L170,90L169,92L170,93L170,94L170,96L171,98L172,100L175,103L173,105L172,106L170,105L166,107L166,107L166,108L166,109L166,111L165,113L165,114L163,116L163,117L162,118L160,119L158,120L157,120L156,119L154,118L152,117L150,119L149,121L149,122L148,123L149,124L149,125L149,127L149,132L148,133L148,134L150,137L158,139L161,139L163,137L164,138L164,139L165,139L166,140L166,141L176,147L178,151L178,152L180,154L181,156L182,157L184,157L185,158L186,159L188,161Z " data-fips="HR05" data-hasc="HR.KA" data-name="Karlovacka" data-postal="KA" data-varname="Karlovac"/><path d="M160,216L157,214L159,214L162,215L163,215L163,214L164,214L163,213L162,212L161,211L160,210L161,211L163,212L165,213L166,213L165,212L163,210L162,209L161,208L154,201L151,200L152,202L153,203L154,205L155,206L152,203L146,195L143,192L144,192L146,193L147,194L150,196L149,197L151,197L153,199L154,199L153,197L152,196L152,195L149,194L148,193L146,190L145,188L142,186L141,187L141,189L138,187L134,181L131,177L131,179L133,182L140,191L140,192L142,195L143,197L142,198L146,200L150,204L151,207L152,208L154,207L155,207L157,208L156,210L155,210L155,211L156,212L155,213L156,214L157,216L159,217Z M187,213L188,212L190,211L191,210L192,209L192,208L192,206L192,205L191,204L190,203L190,203L190,201L194,199L193,195L192,194L188,190L187,189L188,188L187,185L186,184L186,181L185,180L185,178L183,177L182,176L182,174L185,174L186,173L187,173L188,172L190,171L191,169L189,168L188,167L187,167L186,166L186,165L187,164L188,163L188,161L186,159L185,158L184,157L182,157L181,156L180,154L178,152L178,151L176,147L166,141L166,140L165,139L164,139L164,138L163,137L161,139L158,139L150,137L152,139L152,141L151,142L150,142L148,142L146,142L145,141L142,143L142,145L144,150L144,153L144,155L143,156L141,162L141,164L141,169L141,171L142,173L142,174L141,175L142,179L149,190L150,191L152,193L154,194L156,196L159,201L169,211L170,207L171,206L172,206L174,207L175,208L176,209L177,210L183,211L184,212L186,214Z " data-fips="HR08" data-hasc="HR.LS" data-name="Licko-Senjska" data-postal="LS" data-varname="Lika-Senj"/><path d="M116,198L116,196L111,190L108,186L108,186L108,183L107,181L108,178L106,177L105,176L103,175L103,177L104,180L104,181L106,184L106,186L105,188L106,190L107,190L108,189L109,189L110,190L111,192L110,193L111,193L113,196L115,198Z M116,185L117,183L116,182L115,182L115,181L115,179L114,178L113,176L112,174L113,173L113,172L113,170L112,168L112,167L113,167L113,165L112,162L112,159L112,158L112,155L113,154L113,152L114,151L112,149L111,149L109,147L108,144L107,140L106,139L106,136L107,132L106,131L104,131L103,131L102,132L101,133L101,135L101,137L101,138L105,143L107,149L108,151L109,153L108,153L108,155L108,156L107,157L105,156L103,154L101,153L102,155L101,156L102,158L103,164L105,165L106,166L105,170L106,171L107,171L108,172L107,176L110,181L113,185L115,185Z M98,184L98,183L98,182L98,181L99,180L99,179L98,179L97,180L96,182L96,184L97,185L99,185Z M139,176L139,174L137,171L136,170L135,169L132,166L131,165L133,164L132,163L131,163L130,162L131,164L129,163L128,163L128,164L130,166L130,168L129,167L129,168L127,168L126,168L129,171L130,171L131,171L132,172L132,171L131,170L134,172L137,176L139,177Z M132,154L133,153L132,151L134,151L136,151L137,151L136,148L132,144L132,141L129,141L128,141L127,140L127,138L127,134L127,133L126,133L124,133L123,132L124,131L124,129L122,127L122,126L123,125L120,124L119,124L119,125L119,127L119,128L118,129L119,131L118,132L117,134L118,135L117,136L114,135L113,137L113,138L112,138L111,139L111,141L113,143L115,144L116,145L122,146L123,146L123,144L124,145L124,148L124,150L126,151L129,154L131,154Z M142,143L145,141L146,142L148,142L150,142L151,142L152,141L152,139L150,137L148,134L148,133L149,132L149,127L149,125L149,124L148,123L149,122L149,121L150,119L152,117L154,118L156,119L157,120L158,120L160,119L162,118L163,117L163,116L165,114L165,113L166,111L166,109L166,108L166,107L166,107L163,108L160,107L154,102L150,102L149,101L148,101L147,100L145,99L144,99L144,101L143,103L140,104L137,103L136,101L136,101L130,98L128,96L129,94L128,93L127,93L125,91L124,90L123,88L123,87L123,85L123,84L122,84L121,84L120,86L119,87L118,89L117,90L116,91L116,94L116,95L115,97L113,98L111,99L111,100L110,101L108,101L105,102L102,101L99,100L98,99L96,100L93,101L91,101L91,102L91,104L92,105L96,107L96,108L96,109L96,111L97,114L97,116L96,117L96,118L95,119L95,121L96,126L96,129L96,131L96,132L98,132L99,129L100,123L101,119L102,117L103,114L105,113L106,114L107,114L110,115L117,119L118,120L119,121L120,119L119,118L121,120L122,120L121,121L121,123L122,124L123,124L127,129L134,135L138,138L139,138L140,140L140,141L142,145Z " data-fips="HR12" data-hasc="HR.PG" data-name="Primorsko-Goranska" data-postal="PG" data-varname="Primorje-Gorski Kotar"/><path d="M242,149L242,148L243,145L244,142L245,141L244,140L246,138L248,137L249,136L251,131L254,128L258,129L272,133L274,132L275,132L275,130L276,128L277,127L278,126L279,125L280,124L282,123L283,126L283,127L284,127L284,126L285,126L287,128L287,126L288,128L288,129L289,128L290,131L293,133L295,134L294,131L293,130L292,129L293,127L295,125L296,124L297,123L298,122L300,122L300,121L299,120L299,119L300,118L299,116L296,117L291,113L290,112L290,111L291,110L290,109L288,109L286,107L284,106L282,104L280,105L279,103L278,103L276,103L275,102L275,101L276,101L278,99L277,98L276,97L275,96L274,95L273,94L272,90L270,90L269,90L268,88L263,86L262,86L261,86L260,85L259,84L256,82L255,82L253,81L253,80L253,78L253,77L252,76L250,72L249,71L248,70L247,71L245,71L245,72L245,73L244,75L244,78L242,78L240,78L239,79L238,81L239,84L239,88L238,91L237,91L234,92L233,91L232,90L231,90L230,89L229,88L228,89L227,90L225,92L224,92L222,92L222,93L222,94L223,94L223,95L224,96L225,97L226,98L226,100L226,101L225,101L224,101L222,104L220,103L219,103L218,104L217,104L214,104L214,103L214,101L213,100L212,99L212,99L210,98L210,97L209,96L208,97L206,99L207,103L208,104L208,105L207,106L207,107L207,109L206,111L205,112L203,111L202,110L201,110L200,110L199,109L197,108L195,109L196,110L196,113L196,114L197,115L196,117L196,118L196,119L195,120L195,121L195,123L195,124L194,125L194,126L193,127L193,128L198,130L199,130L200,129L202,129L203,130L205,131L205,131L206,129L210,129L217,129L218,129L220,129L220,130L220,132L221,132L222,133L223,133L224,135L225,139L227,141L233,147L235,148L237,149L240,150Z " data-fips="HR14" data-hasc="HR.SM" data-name="Sisacko-Moslavacka" data-postal="SM" data-varname="Sisak-Moslavina"/><path d="M206,99L208,97L209,96L210,97L210,98L212,99L212,99L215,92L214,90L213,89L212,88L211,87L210,86L206,84L204,82L203,81L204,79L204,78L208,72L209,71L207,69L206,68L203,68L203,66L204,65L206,65L207,63L207,62L207,61L210,61L213,60L215,59L214,57L213,57L209,55L207,55L205,55L204,56L203,56L198,55L197,55L197,58L197,60L197,61L196,62L196,63L196,65L197,67L197,68L196,69L195,70L194,70L191,70L188,70L186,70L185,71L183,71L182,70L181,72L181,74L180,74L174,76L172,77L168,79L168,81L169,81L170,83L172,84L172,83L174,83L175,84L176,84L177,82L180,82L181,82L181,84L182,85L185,86L186,87L187,89L189,91L190,91L191,90L192,89L193,89L196,91L198,91L199,92L200,93L201,92L202,94L201,95L202,97L204,99L205,99Z " data-fips="HR20" data-hasc="HR.ZG" data-name="Zagrebacka" data-postal="ZG" data-varname="Zagreb"/><path d="M218,104L219,103L220,103L222,104L224,101L225,101L226,101L226,100L226,98L225,97L224,96L223,95L223,94L222,94L222,93L222,92L224,92L225,92L227,90L228,89L229,88L230,89L231,90L232,90L233,91L234,92L237,91L238,91L239,88L237,85L236,84L236,83L235,82L233,81L234,80L233,79L234,78L234,76L233,77L232,76L230,75L229,75L228,73L227,73L228,72L230,73L232,73L232,72L233,70L233,69L234,68L234,66L231,62L230,59L228,56L226,57L225,57L217,62L216,61L215,59L213,60L210,61L207,61L207,62L207,63L206,65L204,65L203,66L203,68L206,68L207,69L209,71L208,72L204,78L204,79L203,81L204,82L206,84L210,86L211,87L212,88L213,89L214,90L215,92L212,99L213,100L214,101L214,103L214,104L217,104Z " data-fips="HR21" data-hasc="HR.GZ" data-name="Grad Zagreb" data-postal="GZ" data-varname=""/><path d="M75,168L74,166L74,164L73,163L74,163L75,163L76,164L77,165L78,165L81,165L80,164L79,163L79,162L79,160L80,160L80,158L80,157L79,156L80,157L82,156L83,156L83,155L84,153L83,151L85,151L86,149L86,148L85,147L84,146L84,144L84,143L85,144L85,145L86,147L87,149L86,150L86,152L87,151L87,150L89,149L90,150L91,149L92,148L93,145L92,143L91,141L92,142L92,140L93,140L94,138L95,137L95,136L94,134L96,135L98,132L96,132L96,131L96,129L96,126L95,121L95,119L96,118L96,117L97,116L97,114L96,111L96,109L96,108L96,107L92,105L91,104L91,102L91,101L91,101L89,101L87,101L86,99L85,98L84,98L82,97L81,97L80,98L80,99L82,101L81,102L77,103L76,104L75,106L71,105L70,105L69,104L66,101L60,102L57,102L55,99L53,98L50,97L49,96L49,97L49,99L50,101L50,102L50,103L51,109L52,111L51,111L51,112L52,113L53,114L56,115L55,116L53,117L54,118L55,119L54,119L53,120L54,122L54,123L54,124L54,125L54,126L53,127L54,128L54,129L54,131L54,132L55,133L57,132L60,132L62,133L63,133L57,133L55,135L56,137L56,139L57,139L58,140L60,142L63,147L66,150L67,154L67,155L67,157L68,158L70,157L69,159L68,159L67,159L66,159L67,160L68,160L69,161L70,161L71,162L71,163L73,165L74,166L74,169Z " data-fips="HR04" data-hasc="HR.IS" data-name="Istarska" data-postal="IS" data-varname="Istra"/><path d="M392,142L392,140L392,140L390,138L390,136L389,134L390,133L390,132L392,130L388,128L380,125L377,125L375,126L374,126L372,127L370,127L369,127L364,126L363,125L349,121L348,122L347,123L347,124L347,125L346,125L346,126L344,128L342,128L340,129L340,131L339,131L338,132L336,131L335,130L336,129L335,127L335,125L335,125L334,124L332,124L331,124L329,124L328,124L326,123L324,122L323,121L320,118L319,116L313,112L311,112L306,114L305,113L304,113L302,114L299,116L300,118L299,119L299,120L300,121L300,122L298,122L297,123L296,124L295,125L293,127L292,129L293,130L294,131L295,134L300,135L304,134L305,131L308,133L309,134L312,136L313,136L314,136L316,135L318,134L318,136L317,137L319,137L321,136L320,138L324,138L326,138L327,137L330,134L331,134L333,134L336,135L337,137L341,142L343,143L345,143L347,142L349,141L350,140L354,135L355,135L356,135L357,135L361,139L363,139L364,140L366,140L367,139L368,139L369,138L369,136L369,135L370,134L371,134L373,134L376,137L377,137L382,137L383,138L384,139L387,141L389,143L391,143L392,143Z " data-fips="HR02" data-hasc="HR.SP" data-name="Brodsko-Posavska" data-postal="SP" data-varname="Slavonski Brod-Posavina"/><path d="M393,129L394,128L394,126L393,125L390,125L389,124L390,120L391,119L394,119L395,118L398,117L398,116L398,115L399,113L399,110L400,110L402,109L403,108L409,108L409,107L409,105L408,104L409,103L411,103L412,102L413,101L414,102L415,102L416,103L417,104L418,105L419,106L419,106L422,106L423,104L423,104L422,102L423,99L428,100L430,98L428,96L427,96L425,95L425,94L423,93L422,93L421,94L420,95L420,96L418,95L416,93L416,92L416,90L416,88L418,86L420,83L419,82L418,81L417,80L416,79L416,78L415,75L415,74L412,71L411,70L411,69L412,68L412,65L415,64L415,63L414,62L413,61L414,60L414,60L415,59L415,58L414,58L412,59L411,59L409,60L408,60L407,61L407,62L405,63L403,61L399,60L397,61L396,62L396,64L395,65L394,68L393,69L390,72L388,73L387,72L385,73L383,76L381,77L380,77L379,75L378,75L377,76L376,76L374,76L373,75L372,75L370,73L368,73L362,73L361,74L359,74L352,73L348,73L348,73L348,75L349,76L350,78L351,79L353,80L354,81L355,83L355,84L356,85L360,87L360,88L365,89L367,90L368,91L369,92L370,93L369,94L367,95L368,97L369,98L369,99L370,99L374,100L376,101L376,101L379,101L380,100L380,98L382,98L382,99L384,100L384,101L385,102L384,103L382,103L381,103L377,105L376,104L375,105L370,108L369,108L367,108L366,109L363,112L362,114L360,115L360,116L361,116L362,117L362,119L362,120L363,125L364,126L369,127L370,127L372,127L374,126L375,126L377,125L380,125L388,128L392,130L393,130Z " data-fips="HR10" data-hasc="HR.OB" data-name="Osjecko-Baranjska" data-postal="OB" data-varname="Osijek-Baranja"/><path d="M339,131L340,131L340,129L342,128L344,128L346,126L346,125L347,125L347,124L347,123L348,122L349,121L362,120L362,119L362,117L361,116L360,116L360,115L362,114L363,112L366,109L367,108L369,108L370,108L375,105L376,104L377,105L381,103L382,103L384,103L385,102L384,101L384,100L382,99L382,98L380,98L380,100L379,101L376,101L376,101L374,100L370,99L369,99L369,98L368,97L367,95L369,94L370,93L369,92L368,91L367,90L365,89L360,88L358,89L352,97L351,99L350,101L349,102L347,104L346,104L344,103L341,104L341,104L340,102L339,102L336,101L335,101L331,100L328,98L326,97L321,94L321,95L321,96L320,95L319,95L316,94L316,95L316,96L316,99L315,100L314,100L313,100L309,100L302,101L301,100L300,100L299,99L298,100L297,100L295,100L294,100L292,101L290,101L289,101L288,101L284,100L284,99L284,97L283,97L282,100L282,102L282,104L284,106L286,107L288,109L290,109L291,110L290,111L290,112L291,113L296,117L299,116L302,114L304,113L305,113L306,114L311,112L313,112L319,116L320,118L323,121L324,122L326,123L328,124L329,124L331,124L332,124L334,124L335,125L335,125L335,127L336,129L335,130L336,131L338,132Z " data-fips="HR11" data-hasc="HR.SP" data-name="Brodsko-Posavska" data-postal="SP" data-varname="Slavonski Brod-Posavina"/><path d="M425,161L424,158L423,156L426,155L428,157L429,156L430,155L432,153L433,152L432,150L431,150L430,149L430,148L430,146L430,145L430,142L429,138L428,137L427,136L426,134L427,133L431,134L433,133L433,132L432,130L432,129L434,129L435,130L436,131L437,132L439,132L442,130L443,130L444,131L450,130L451,129L451,127L450,125L449,125L448,123L434,120L431,119L429,116L429,115L428,113L426,113L424,113L423,112L422,111L421,110L425,108L425,107L425,106L423,104L422,106L419,106L419,106L418,105L417,104L416,103L415,102L414,102L413,101L412,102L411,103L409,103L408,104L409,105L409,107L409,108L403,108L402,109L400,110L399,110L399,113L398,115L398,116L398,117L395,118L394,119L391,119L390,120L389,124L390,125L393,125L394,126L394,128L393,129L393,130L392,130L390,132L390,133L389,134L390,136L390,138L392,140L392,140L392,140L393,139L394,140L395,139L397,139L398,139L398,141L399,142L400,142L401,141L402,140L402,141L405,146L407,147L409,147L410,148L410,149L410,150L410,152L409,153L408,154L409,157L412,159L414,161L417,161Z " data-fips="HR18" data-hasc="HR.VS" data-name="Vukovarsko-Srijemska" data-postal="VS" data-varname="Vukovar-Srijem"/><path d="M344,103L346,104L347,104L349,102L350,101L351,99L352,97L358,89L360,88L360,87L356,85L355,84L355,83L354,81L353,80L351,79L350,78L349,76L348,75L348,73L348,73L347,73L346,74L344,74L343,72L341,71L333,68L331,68L331,67L330,65L330,63L329,62L326,59L324,58L321,57L315,57L314,58L313,56L311,57L310,57L310,56L309,54L309,54L308,56L307,55L307,55L306,55L302,55L301,55L300,56L299,56L297,59L296,61L296,62L295,64L305,73L305,74L306,75L307,76L308,77L311,77L311,78L311,80L311,81L313,82L314,81L315,81L316,80L317,81L320,83L320,84L315,92L316,94L319,95L320,95L321,96L321,95L321,94L326,97L328,98L331,100L335,101L336,101L339,102L340,102L341,104L341,104Z " data-fips="HR17" data-hasc="HR.VP" data-name="Viroviticko-Podravska" data-postal="VP" data-varname="Virovitica-Podravina"/><path d="M282,104L282,102L282,100L283,97L284,97L284,99L284,100L288,101L289,101L290,101L292,101L294,100L295,100L297,100L298,100L299,99L300,100L301,100L302,101L309,100L313,100L314,100L315,100L316,99L316,96L316,95L316,94L315,92L320,84L320,83L317,81L316,80L315,81L314,81L313,82L311,81L311,80L311,78L311,77L308,77L307,76L306,75L305,74L305,73L294,63L293,63L292,62L291,60L290,59L288,59L286,60L286,59L286,57L285,56L284,55L281,54L280,52L281,50L280,49L279,49L278,48L278,47L277,46L276,45L275,46L274,48L273,48L272,48L271,47L270,48L269,49L268,50L267,51L267,53L266,55L266,56L266,60L266,62L266,66L266,67L265,69L264,70L263,71L262,70L262,69L261,68L259,71L259,72L259,74L257,74L254,74L254,75L252,76L253,77L253,78L253,80L253,81L255,82L256,82L259,84L260,85L261,86L262,86L263,86L268,88L269,90L270,90L272,90L273,94L274,95L275,96L276,97L277,98L278,99L276,101L275,101L275,102L276,103L278,103L279,103L280,105Z " data-fips="HR01" data-hasc="HR.BB" data-name="Bjelovarska-Bilogorska" data-postal="BB" data-varname="Bjelovar-Bilagora"/><path d="M296,62L296,61L297,59L299,56L300,56L301,55L302,55L306,55L307,55L307,55L307,55L306,54L308,53L307,52L306,52L305,52L304,49L303,45L300,41L294,41L293,41L290,38L289,37L288,36L285,33L284,32L282,29L280,26L279,25L278,23L278,21L278,20L277,18L277,18L276,21L273,26L273,25L271,24L269,23L271,25L271,26L271,27L270,28L270,29L269,30L268,31L266,33L265,33L264,33L263,32L262,33L259,33L253,38L252,39L251,40L249,40L248,39L245,41L244,41L243,41L242,42L243,44L243,45L243,49L243,51L249,53L250,54L251,56L251,57L252,57L253,56L254,55L256,58L259,59L260,60L261,60L261,60L263,61L265,60L266,60L266,56L266,55L267,53L267,51L268,50L269,49L270,48L271,47L272,48L273,48L274,48L275,46L276,45L277,46L278,47L278,48L279,49L280,49L281,50L280,52L281,54L284,55L285,56L286,57L286,59L286,60L288,59L290,59L291,60L292,62L293,63L294,63L295,64Z " data-fips="HR06" data-hasc="HR.KK" data-name="Koprivnicko-Krievacka" data-postal="KK" data-varname="Koprivnica-Krievci"/><path d="M276,21L277,18L277,18L276,17L275,16L275,17L274,16L273,15L271,15L270,16L269,14L267,13L266,11L265,10L263,8L262,7L260,7L259,7L258,7L257,7L254,4L252,3L251,3L249,3L248,2L247,1L246,1L244,1L242,0L241,1L240,2L239,2L237,3L235,5L235,7L235,8L236,11L236,13L237,14L238,15L238,16L238,16L239,17L241,17L241,18L242,19L243,21L243,22L252,24L254,24L259,22L260,22L268,23L269,23L271,24L273,25L273,26Z " data-fips="HR09" data-hasc="HR.ME" data-name="Medimurska" data-postal="ME" data-varname="Medimurje"/><path d="M240,52L241,51L243,51L243,49L243,45L243,44L242,42L243,41L244,41L245,41L248,39L249,40L251,40L252,39L253,38L259,33L262,33L263,32L264,33L265,33L266,33L268,31L269,30L270,29L270,28L271,27L271,26L271,25L269,23L268,23L260,22L259,22L254,24L252,24L243,22L243,21L242,19L241,18L241,17L239,17L238,16L238,16L238,17L236,17L233,17L232,17L231,17L229,15L228,15L227,16L226,17L225,17L223,16L223,18L223,19L223,21L223,22L222,23L221,24L219,25L218,25L216,25L214,26L211,28L211,29L212,30L215,32L215,32L216,33L217,34L218,34L221,35L222,35L223,35L225,35L226,35L227,34L229,35L230,35L231,34L231,33L232,32L233,33L234,34L235,34L235,36L236,37L236,38L236,40L236,42L238,49L238,51L239,52Z " data-fips="HR16" data-hasc="HR.VA" data-name="Varadinska" data-postal="VA" data-varname="Varadin|Varasd"/><path d="M239,84L238,81L239,79L240,78L242,78L244,78L244,75L245,73L245,72L245,71L247,71L248,70L249,71L250,72L252,76L254,75L254,74L257,74L259,74L259,72L259,71L261,68L262,69L262,70L263,71L264,70L265,69L266,67L266,66L266,62L266,60L265,60L263,61L261,60L261,60L260,60L259,59L256,58L254,55L253,56L252,57L251,57L251,56L250,54L249,53L243,51L241,51L240,52L239,52L238,51L238,49L235,47L234,47L232,47L232,48L233,49L233,50L232,51L232,52L232,53L231,53L230,54L230,54L228,56L230,59L231,62L234,66L234,68L233,69L233,70L232,72L232,73L230,73L228,72L227,73L228,73L229,75L230,75L232,76L233,77L234,76L234,78L233,79L234,80L233,81L235,82L236,83L236,84L237,85Z " data-fips="HR20" data-hasc="HR.GZ" data-name="Grad Zagreb" data-postal="GZ" data-varname=""/></g></svg>