<?xml version="1.0" ?><!DOCTYPE svg  PUBLIC '-//W3C//DTD SVG 1.1//EN'  'http://www.w3.org/Graphics/SVG/1.1/DTD/svg11.dtd'><svg enable_background="new 0 0 500 401" height="401px" style="stroke-linejoin: round; stroke:#000; fill:#f6f3f0;" version="1.1" viewBox="0 0 500 401" width="500px" xmlns="http://www.w3.org/2000/svg" xmlns:xlink="http://www.w3.org/1999/xlink"><defs><style type="text/css"><![CDATA[path { fill-rule: evenodd; }
#context path { fill: #eee; stroke: #bbb; } ]]></style></defs><metadata><views><view h="401" padding="0" w="500"><proj id="laea" lat0="47.07" lon0="19.134"/><bbox h="35.05" w="56.58" x="974.35" y="981.32"/><llbbox lat0="-90" lat1="90" lon0="-180" lon1="180"/></view></views></metadata><g id="admin1"><path d="M20,246L24,241L23,237L27,237L30,235L32,232L35,229L37,227L38,225L39,223L42,222L49,221L52,220L54,220L55,220L56,218L59,218L61,218L65,217L68,215L68,214L68,213L69,211L71,212L72,213L73,213L75,210L85,208L83,197L84,192L83,189L84,186L85,185L86,184L86,181L91,179L87,176L84,172L82,169L81,168L73,171L74,169L75,166L73,166L65,170L59,169L57,167L52,171L50,171L48,169L44,168L43,167L42,166L39,168L31,171L30,170L28,169L27,171L27,175L26,176L27,177L27,177L30,182L30,184L29,185L28,186L26,187L26,189L25,192L25,194L27,194L27,196L26,198L27,199L30,198L31,198L32,199L32,200L30,203L28,203L28,205L28,206L31,208L30,209L30,209L26,210L25,211L27,212L28,212L29,213L30,214L28,214L26,214L25,215L24,215L22,214L21,213L18,214L15,213L14,213L13,214L13,216L12,216L11,218L10,219L9,220L8,221L6,222L5,223L2,227L1,227L0,228L3,229L6,229L14,229L15,230L16,231L17,231L17,233L17,234L16,235L15,237L15,238L16,242L17,243L17,244L18,245L19,245L20,247Z " data-fips="HU22" data-hasc="HU.VA" data-name="Vas" data-postal="VA" data-varname=""/><path d="M172,354L173,353L176,350L177,349L179,350L181,349L184,346L185,345L187,341L188,340L189,338L190,337L190,336L192,336L195,337L199,339L201,338L201,337L202,336L203,337L203,337L201,335L203,333L204,330L205,327L205,325L205,324L205,321L204,318L204,317L203,316L202,315L196,314L193,312L190,309L188,306L186,302L185,300L183,301L182,301L178,298L176,298L175,299L172,301L171,292L169,288L167,285L167,283L166,282L164,281L155,282L154,284L153,286L151,286L149,285L147,287L147,289L145,291L137,292L129,301L127,302L123,303L120,304L118,306L118,313L116,316L112,319L114,325L113,327L114,331L115,333L117,335L118,338L118,341L116,342L114,342L115,343L117,343L126,346L128,347L130,351L131,350L132,348L133,348L139,348L146,351L148,350L150,349L156,349L158,350L160,352L162,352L163,353L164,354L166,353L167,352L168,353L170,354L171,354Z " data-fips="HU02" data-hasc="HU.BA" data-name="Baranya" data-postal="BA" data-varname=""/><path d="M87,171L89,170L90,169L91,169L94,168L97,168L99,170L100,170L102,170L103,169L104,169L106,169L107,167L111,167L113,166L116,167L119,165L123,164L125,165L127,164L128,164L129,165L130,163L132,165L134,165L136,162L135,158L137,159L138,157L136,154L138,150L136,148L136,145L135,143L136,141L136,138L135,136L135,135L131,135L125,133L120,130L119,129L119,128L117,127L116,126L114,125L112,126L111,125L108,121L107,120L105,119L98,109L96,107L91,106L87,105L84,104L82,106L77,110L78,110L77,112L77,113L76,114L77,115L77,117L76,118L76,119L74,120L72,121L71,121L71,123L73,124L74,127L73,128L73,130L74,132L74,136L74,137L76,138L74,139L69,139L63,141L60,140L59,137L58,138L57,140L55,141L50,140L49,139L49,138L49,137L48,136L47,135L42,132L39,132L36,133L35,134L35,136L34,137L31,139L30,140L29,139L28,140L27,141L26,142L28,143L32,144L34,144L39,146L41,146L43,147L44,148L44,151L44,153L45,153L46,154L47,156L47,158L46,159L44,160L43,161L43,165L42,166L43,167L44,168L48,169L50,171L52,171L57,167L59,169L65,170L73,166L75,166L74,169L73,171L81,168L82,169L84,172Z " data-fips="HU09" data-hasc="HU.GS" data-name="Gyor-Moson-Sopron" data-postal="GS" data-varname="Gyor-Sopron"/><path d="M118,341L118,338L117,335L115,333L114,331L113,327L114,325L112,319L116,316L118,313L118,306L120,304L123,303L127,302L129,301L137,292L145,291L147,289L147,287L149,285L147,275L145,274L144,270L146,265L148,260L148,256L149,252L151,249L151,247L151,245L152,244L153,242L155,241L158,240L158,237L158,231L158,229L157,226L155,222L152,220L148,220L140,224L138,224L137,225L134,228L130,229L117,237L101,243L98,244L95,245L90,245L86,247L83,252L84,267L82,270L81,273L80,276L70,279L70,282L71,285L71,287L70,289L68,289L67,289L62,291L60,289L57,290L57,292L59,293L61,297L63,300L64,301L68,305L68,305L69,307L69,308L73,310L74,311L81,312L84,316L84,317L85,321L85,322L86,323L87,324L88,324L88,325L87,326L87,326L88,327L90,328L91,327L91,328L91,330L93,330L95,329L96,330L97,330L104,330L107,331L110,332L113,336L114,338L114,340L114,342L116,342Z " data-fips="HU17" data-hasc="HU.SO" data-name="Somogy" data-postal="SO" data-varname=""/><path d="M83,252L86,247L90,245L95,245L98,244L101,243L117,237L130,229L134,228L137,225L138,224L140,224L148,220L152,220L155,222L158,218L159,212L159,210L159,202L158,200L156,198L154,192L151,189L150,186L150,183L153,183L151,178L142,179L140,179L140,177L139,175L137,174L134,173L135,170L132,165L130,163L129,165L128,164L127,164L125,165L123,164L119,165L116,167L113,166L111,167L107,167L106,169L104,169L103,169L102,170L100,170L99,170L97,168L94,168L91,169L90,169L89,170L87,171L84,172L87,176L91,179L86,181L86,184L85,185L84,186L83,189L84,192L83,197L85,208L75,210L76,211L77,212L79,213L79,214L79,216L78,217L78,218L78,243L77,250L79,254Z " data-fips="HU23" data-hasc="HU.VE" data-name="Veszprm" data-postal="VE" data-varname=""/><path d="M67,289L68,289L70,289L71,287L71,285L70,282L70,279L80,276L81,273L82,270L84,267L83,252L79,254L77,250L78,243L78,218L78,217L79,216L79,214L79,213L77,212L76,211L75,210L73,213L72,213L71,212L69,211L68,213L68,214L68,215L65,217L61,218L59,218L56,218L55,220L54,220L52,220L49,221L42,222L39,223L38,225L37,227L35,229L32,232L30,235L27,237L23,237L24,241L20,246L20,247L20,247L21,247L23,248L23,250L22,251L20,252L20,253L20,254L21,255L24,257L27,261L29,264L31,269L34,271L35,272L36,271L37,271L39,272L41,273L42,275L43,277L45,279L47,280L48,282L49,281L51,281L52,282L53,283L54,282L55,283L56,285L57,287L56,288L57,290L60,289L62,291Z " data-fips="HU24" data-hasc="HU.ZA" data-name="Zala" data-postal="ZA" data-varname=""/><path d="M234,173L236,171L239,169L241,164L240,163L238,163L233,158L231,159L231,157L228,155L227,153L223,151L220,151L218,153L216,154L212,155L212,161L215,169L215,170L213,173L213,177L221,176L225,178L227,178Z " data-fips="HU05" data-hasc="HU.BU" data-name="Budapest" data-postal="BU" data-varname="Budapeste"/><path d="M203,337L205,336L207,335L208,334L209,334L214,334L215,335L215,334L215,333L215,332L217,330L219,331L220,330L220,327L221,325L223,324L225,325L226,327L228,328L234,329L236,328L237,327L238,326L238,325L240,323L241,323L244,323L245,323L246,322L247,321L247,320L248,319L250,319L251,318L252,317L252,316L254,314L253,312L254,310L256,309L258,308L259,308L261,308L265,307L267,307L269,308L270,309L270,309L269,306L267,302L266,299L266,295L267,293L267,291L267,288L269,287L270,287L272,287L274,287L277,286L279,285L281,285L281,283L283,278L282,273L278,270L278,266L281,264L287,265L290,262L291,250L291,248L289,247L292,242L296,239L294,238L293,238L291,238L291,236L292,233L293,231L296,230L298,230L299,228L298,227L298,225L299,225L301,226L303,224L302,223L301,223L299,223L299,221L302,219L299,216L297,215L295,216L292,217L289,221L287,220L285,219L282,219L280,221L279,223L278,223L276,223L274,223L268,219L263,214L259,207L256,205L251,204L250,205L250,207L249,209L247,210L245,211L243,214L241,215L239,213L240,210L242,207L241,204L239,202L236,201L228,204L223,209L219,210L216,210L214,215L213,217L213,218L214,220L214,224L214,226L213,228L212,229L212,231L211,232L211,234L211,235L212,237L214,239L215,241L216,242L216,243L216,245L217,248L217,249L216,251L215,253L213,255L208,257L206,259L207,262L210,268L211,272L211,275L209,281L208,285L209,287L210,289L210,290L210,300L209,301L205,302L203,303L203,304L205,304L206,305L204,309L203,309L202,309L201,310L202,312L204,313L202,315L202,315L203,316L204,317L204,318L205,321L205,324L205,325L205,327L204,330L203,333L201,335L203,337L203,337Z " data-fips="HU01" data-hasc="HU.BK" data-name="Bcs-Kiskun" data-postal="BK" data-varname="Bacs-Bodrog-Kiskun"/><path d="M193,249L194,249L197,246L205,237L208,235L211,234L211,232L212,231L212,229L213,228L214,226L214,224L214,220L213,218L213,217L214,215L211,209L210,208L209,208L209,205L208,201L208,199L208,197L208,195L210,191L211,186L210,184L207,184L206,183L206,181L203,177L201,173L201,169L200,167L197,162L181,157L179,158L177,162L176,163L175,164L172,166L169,168L168,169L169,170L169,172L165,173L164,172L163,170L159,166L157,166L156,168L154,169L152,169L152,171L152,175L151,176L151,178L153,183L150,183L150,186L151,189L154,192L156,198L158,200L159,202L159,210L159,212L158,218L155,222L157,226L158,229L158,231L158,237L158,240L162,239L167,239L172,243L175,244L179,245L180,244L181,242L182,241L184,241L189,249L191,250Z " data-fips="HU08" data-hasc="HU.FE" data-name="Fejr" data-postal="FE" data-varname=""/><path d="M151,178L151,176L152,175L152,171L152,169L154,169L156,168L157,166L159,166L163,170L164,172L165,173L169,172L169,170L168,169L169,168L172,166L175,164L176,163L177,162L179,158L181,157L196,154L197,151L198,149L200,148L200,146L199,145L203,144L207,145L206,139L209,138L211,139L212,137L211,136L211,133L210,131L208,129L206,128L203,127L201,127L200,128L199,129L196,131L194,132L192,133L190,132L187,131L184,131L169,132L164,135L161,135L152,134L135,135L135,136L136,138L136,141L135,143L136,145L136,148L138,150L136,154L138,157L137,159L135,158L136,162L134,165L135,170L134,173L137,174L139,175L140,177L140,179L142,179Z " data-fips="HU12" data-hasc="HU.KE" data-name="Komrom-Esztergom" data-postal="KE" data-varname="Komarom"/><path d="M279,223L280,221L282,219L285,219L287,220L289,221L292,217L295,216L297,215L299,216L302,219L306,216L301,214L297,211L295,206L295,200L297,195L294,191L292,190L291,188L291,186L291,185L291,183L291,181L277,168L276,166L273,164L273,162L272,160L269,160L267,158L266,155L266,152L265,151L265,149L263,146L262,144L261,142L262,141L262,139L261,139L259,137L255,138L250,140L250,133L247,128L244,126L229,123L223,124L214,117L212,113L215,111L215,106L212,102L205,104L204,105L201,110L199,110L198,111L199,112L199,113L198,118L198,120L198,122L201,124L203,127L206,128L208,129L210,131L211,133L211,136L212,137L211,139L209,138L206,139L207,145L203,144L199,145L200,146L200,148L198,149L197,151L196,154L197,162L200,167L201,169L201,173L203,177L206,181L206,183L207,184L210,184L211,186L210,191L208,195L208,197L208,199L208,201L209,205L209,208L210,208L211,209L216,210L219,210L223,209L228,204L236,201L239,202L241,204L242,207L240,210L239,213L241,215L243,214L245,211L247,210L249,209L250,207L250,205L251,204L256,205L259,207L263,214L268,219L274,223L276,223L278,223Z M227,178L225,178L221,176L213,177L213,173L215,170L215,169L212,161L212,155L216,154L218,153L220,151L223,151L227,153L228,155L231,157L231,159L233,158L238,163L240,163L241,164L239,169L236,171L234,173Z " data-fips="HU16" data-hasc="HU.PE" data-name="Pest" data-postal="PE" data-varname=""/><path d="M204,313L202,312L201,310L202,309L203,309L204,309L206,305L205,304L203,304L203,303L205,302L209,301L210,300L210,290L210,289L209,287L208,285L209,281L211,275L211,272L210,268L207,262L206,259L208,257L213,255L215,253L216,251L217,249L217,248L216,245L216,243L216,242L215,241L214,239L212,237L211,235L211,234L208,235L205,237L197,246L194,249L193,249L191,250L189,249L184,241L182,241L181,242L180,244L179,245L175,244L172,243L167,239L162,239L158,240L155,241L153,242L152,244L151,245L151,247L151,249L149,252L148,256L148,260L146,265L144,270L145,274L147,275L149,285L151,286L153,286L154,284L155,282L164,281L166,282L167,283L167,285L169,288L171,292L172,301L175,299L176,298L178,298L182,301L183,301L185,300L186,302L188,306L190,309L193,312L196,314L202,315Z " data-fips="HU21" data-hasc="HU.TO" data-name="Tolna" data-postal="TO" data-varname=""/><path d="M255,138L259,137L266,129L269,128L273,121L275,120L277,121L279,120L280,118L281,116L282,116L283,117L285,116L287,114L287,111L288,109L290,107L292,107L291,103L290,100L288,99L289,98L290,97L292,96L293,95L295,94L297,92L295,91L293,90L292,89L292,89L289,90L288,91L284,94L283,94L281,94L278,91L277,91L273,92L273,90L273,89L273,88L272,86L270,86L266,86L265,84L264,84L262,83L256,85L254,86L253,88L253,92L252,94L252,95L252,96L248,99L238,99L233,102L224,101L220,101L217,101L216,102L212,102L215,106L215,111L212,113L214,117L223,124L229,123L244,126L247,128L250,133L250,140Z " data-fips="HU14" data-hasc="HU.NO" data-name="Ngrd" data-postal="NO" data-varname=""/><path d="M348,142L350,142L356,141L359,137L360,136L362,131L366,130L365,127L367,124L367,122L367,120L367,119L368,117L370,114L371,113L371,111L372,108L372,107L373,106L376,103L378,103L379,102L380,101L382,102L383,103L384,103L385,103L387,103L390,103L392,102L394,100L395,97L395,95L394,95L394,94L394,92L394,90L395,89L396,87L397,86L398,86L403,86L406,86L407,86L410,87L411,87L413,87L419,83L420,83L421,82L423,80L424,80L428,79L430,79L431,78L433,75L435,71L436,71L438,72L440,70L442,68L444,62L446,60L445,60L444,60L442,62L441,63L440,63L436,63L434,63L433,64L429,64L428,64L426,66L423,66L419,68L417,69L415,68L413,67L411,65L407,59L406,57L405,53L404,52L403,51L400,52L399,50L398,48L397,47L395,46L393,45L392,45L388,46L386,46L385,46L383,47L383,48L382,49L381,51L380,51L379,50L377,50L375,50L369,53L368,53L366,51L364,50L362,50L360,50L358,50L354,48L351,48L350,47L348,45L347,45L346,45L331,49L326,49L324,50L324,52L324,54L324,55L323,57L321,59L320,61L319,62L316,71L315,74L313,77L311,79L308,80L308,79L305,79L303,81L302,81L301,81L299,81L298,83L298,85L297,86L295,87L292,89L293,90L295,91L297,92L298,92L300,93L301,95L303,95L304,95L305,97L306,98L308,98L310,96L313,95L316,97L320,91L325,96L326,99L326,101L325,106L322,109L321,111L321,113L323,115L324,116L324,118L324,119L323,121L324,122L329,130L332,134L333,137L335,140L343,141L345,142Z " data-fips="HU04" data-hasc="HU.BZ" data-name="Borsod-Abaj-Zempln" data-postal="BZ" data-varname=""/><path d="M449,149L450,147L450,146L452,142L452,140L453,139L454,138L455,137L456,135L457,134L458,133L460,132L464,133L465,133L466,132L467,131L468,127L470,126L475,129L478,129L481,129L483,127L485,125L487,123L488,122L489,121L491,121L492,119L491,117L492,116L493,115L496,114L497,112L499,109L500,108L497,105L497,104L498,103L498,101L498,100L498,99L498,97L497,95L496,94L494,92L491,90L490,90L488,90L487,91L486,91L481,92L479,92L478,89L476,86L475,84L469,76L467,77L466,77L465,77L463,77L462,78L461,77L457,72L456,69L456,68L456,67L456,66L455,65L453,65L453,63L454,60L451,59L449,58L446,59L446,60L444,62L442,68L440,70L438,72L436,71L435,71L433,75L431,78L430,79L428,79L424,80L423,80L421,82L420,83L419,83L413,87L411,87L410,87L407,86L406,86L403,86L398,86L397,86L396,87L395,89L394,90L394,92L394,94L394,95L395,95L395,97L394,100L392,102L390,103L387,103L385,103L384,103L383,103L382,102L380,101L379,102L378,103L376,103L373,106L372,107L372,108L371,111L377,111L383,116L386,115L398,113L401,112L403,112L404,115L403,120L403,127L410,132L411,133L415,134L416,135L419,136L421,136L422,137L424,139L425,139L427,138L427,136L429,133L432,132L437,135L439,139L439,142L441,143L444,139L445,141L447,148L449,150Z " data-fips="HU18" data-hasc="HU.SZ" data-name="Szabolcs-Szatmr-Bereg" data-postal="SZ" data-varname="Szabolcs-Szatmr"/><path d="M371,299L375,294L378,294L379,292L380,290L380,285L380,282L382,281L383,280L386,280L388,279L387,276L385,272L385,270L386,268L388,267L388,265L389,260L389,258L390,257L392,256L394,257L396,256L397,254L398,254L398,252L399,250L401,250L402,249L404,247L404,245L401,243L401,241L402,240L403,236L404,234L406,233L409,232L409,231L410,230L410,228L410,227L409,226L410,224L413,221L414,221L415,215L415,214L413,213L413,212L411,213L408,214L403,220L400,220L394,221L392,221L390,220L391,217L390,216L388,215L387,213L387,210L387,202L385,199L380,197L377,197L374,196L363,191L362,192L361,194L361,195L359,196L358,197L358,198L356,199L356,200L355,201L353,201L352,201L347,207L346,208L346,210L346,211L343,215L343,216L344,218L344,221L344,225L343,225L341,226L340,227L339,227L338,226L336,225L335,226L333,226L330,229L328,228L325,229L322,231L322,234L323,238L329,240L333,241L335,243L336,250L335,255L335,264L336,266L338,267L338,270L336,273L336,275L336,277L336,281L338,280L337,283L341,283L345,282L345,284L347,283L348,285L349,287L349,290L348,292L349,294L350,295L351,296L352,296L354,295L356,296L357,297L359,297L360,296L362,297L364,298L366,298L367,297L368,298L370,299Z " data-fips="HU03" data-hasc="HU.BE" data-name="Bks" data-postal="BE" data-varname=""/><path d="M313,310L326,310L327,307L331,307L334,308L337,311L338,311L342,310L344,309L345,308L345,307L345,306L346,304L348,305L348,303L347,301L348,299L351,296L350,295L349,294L348,292L349,290L349,287L348,285L347,283L345,284L345,282L341,283L337,283L338,280L336,281L336,277L336,275L336,273L338,270L338,267L336,266L335,264L335,255L336,250L335,243L333,241L329,240L323,238L320,240L318,240L315,242L313,242L310,239L301,242L296,239L292,242L289,247L291,248L291,250L290,262L287,265L281,264L278,266L278,270L282,273L283,278L281,283L281,285L279,285L277,286L274,287L272,287L270,287L269,287L267,288L267,291L267,293L266,295L266,299L267,302L269,306L270,309L270,309L275,312L276,312L283,309L284,309L287,308L292,309L295,310L297,310L300,309L301,310L302,311L303,311L305,310L306,311L310,314Z " data-fips="HU06" data-hasc="HU.CS" data-name="Csongrd" data-postal="CS" data-varname=""/><path d="M400,220L403,220L408,214L411,213L413,212L412,212L415,208L417,207L420,204L422,203L422,202L423,200L423,199L424,198L425,196L426,195L426,194L426,192L426,190L426,189L427,188L427,187L428,183L428,181L429,180L431,177L432,176L434,175L437,174L438,171L438,167L437,163L437,160L438,157L440,155L445,151L449,150L447,148L445,141L444,139L441,143L439,142L439,139L437,135L432,132L429,133L427,136L427,138L425,139L424,139L422,137L421,136L419,136L416,135L415,134L411,133L410,132L403,127L403,120L404,115L403,112L401,112L398,113L386,115L383,116L377,111L371,111L371,113L370,114L368,117L367,119L367,120L367,122L367,124L365,127L366,130L362,131L360,136L359,137L356,141L350,142L352,147L355,150L358,151L360,152L362,154L363,158L364,167L366,172L367,178L366,184L374,196L377,197L380,197L385,199L387,202L387,210L387,213L388,215L390,216L391,217L390,220L392,221L394,221Z " data-fips="HU07" data-hasc="HU.HB" data-name="Hajd-Bihar" data-postal="HB" data-varname=""/><path d="M322,169L324,167L326,166L327,165L328,163L328,162L341,153L341,151L343,150L343,149L342,148L343,147L345,146L346,145L345,142L343,141L335,140L333,137L332,134L329,130L324,122L323,121L324,119L324,118L324,116L323,115L321,113L321,111L322,109L325,106L326,101L326,99L325,96L320,91L316,97L313,95L310,96L308,98L306,98L305,97L304,95L303,95L301,95L300,93L298,92L297,92L295,94L293,95L292,96L290,97L289,98L288,99L290,100L291,103L292,107L290,107L288,109L287,111L287,114L285,116L283,117L282,116L281,116L280,118L279,120L277,121L275,120L273,121L269,128L266,129L259,137L261,139L262,139L262,141L261,142L262,144L263,146L265,149L265,151L266,152L270,150L274,150L277,151L281,146L282,145L284,145L287,144L290,145L291,149L292,153L296,156L300,155L299,154L298,153L305,151L306,151L307,154L308,156L311,158L312,161L312,163L313,165L314,167L318,170L320,170Z " data-fips="HU11" data-hasc="HU.HE" data-name="Heves" data-postal="HE" data-varname=""/><path d="M318,240L320,240L323,238L322,234L322,231L325,229L328,228L330,229L333,226L335,226L336,225L338,226L339,227L340,227L341,226L343,225L344,225L344,221L344,218L343,216L343,215L346,211L346,210L346,208L347,207L352,201L353,201L355,201L356,200L356,199L358,198L358,197L359,196L361,195L361,194L362,192L363,191L366,184L367,178L366,172L364,167L363,158L362,154L360,152L358,151L355,150L352,147L350,142L348,142L346,145L345,146L343,147L342,148L343,149L343,150L341,151L341,153L328,162L328,163L327,165L326,166L324,167L322,169L320,170L318,170L314,167L313,165L312,163L312,161L311,158L308,156L307,154L306,151L305,151L298,153L299,154L300,155L296,156L292,153L291,149L290,145L287,144L284,145L282,145L281,146L277,151L274,150L270,150L266,152L266,155L267,158L269,160L272,160L273,162L273,164L276,166L277,168L291,181L291,183L291,185L291,186L291,188L292,190L294,191L297,195L295,200L295,206L297,211L301,214L306,216L302,219L299,221L299,223L301,223L302,223L303,224L301,226L299,225L298,225L298,227L299,228L298,230L296,230L293,231L292,233L291,236L291,238L293,238L294,238L296,239L301,242L310,239L313,242L315,242Z " data-fips="HU20" data-hasc="HU.JN" data-name="Jsz-Nagykun-Szolnok" data-postal="JN" data-varname=""/></g></svg>