<?xml version="1.0" ?><!DOCTYPE svg  PUBLIC '-//W3C//DTD SVG 1.1//EN'  'http://www.w3.org/Graphics/SVG/1.1/DTD/svg11.dtd'><svg enable_background="new 0 0 500 401" height="401px" style="stroke-linejoin: round; stroke:#000; fill:#f6f3f0;" version="1.1" viewBox="0 0 500 401" width="500px" xmlns="http://www.w3.org/2000/svg" xmlns:xlink="http://www.w3.org/1999/xlink"><defs><style type="text/css"><![CDATA[path { fill-rule: evenodd; }
#context path { fill: #eee; stroke: #bbb; } ]]></style></defs><metadata><views><view h="401" padding="0" w="500"><proj id="laea" lat0="64.764" lon0="-18.48"/><bbox h="39.09" w="56.81" x="969.05" y="977.78"/><llbbox lat0="-90" lat1="90" lon0="-180" lon1="180"/></view></views></metadata><g id="admin1"><path d="M127,144L126,145L127,145L128,144L129,141L130,140L131,139L129,139L127,139L126,138L126,136L123,134L121,132L121,131L121,130L119,127L118,125L117,124L116,122L116,121L115,120L111,118L107,115L106,116L100,119L99,119L98,119L95,117L94,116L76,111L75,110L73,112L73,113L73,115L74,116L74,117L74,119L74,120L75,121L75,123L75,124L74,125L73,126L73,127L73,128L74,129L75,128L76,126L76,124L78,125L79,126L79,127L78,127L76,130L74,132L76,132L76,133L78,133L79,134L79,136L80,136L82,136L81,127L81,126L81,124L81,123L82,122L83,123L84,123L83,125L83,127L83,129L84,133L85,134L86,133L86,130L87,132L88,133L89,132L90,131L90,129L90,127L90,125L90,123L91,124L91,128L92,130L92,131L92,132L92,134L93,137L95,136L96,135L96,133L96,132L97,134L98,133L100,132L101,131L101,133L99,135L102,135L103,134L105,133L108,128L110,128L108,129L108,131L108,132L107,134L106,134L104,135L99,136L98,137L97,140L99,141L101,143L103,146L105,145L105,144L106,143L107,142L108,141L108,140L109,139L109,137L109,135L110,136L110,139L111,140L112,140L112,138L113,139L114,138L115,140L115,141L117,142L116,144L116,145L118,145L121,146L123,146Z " data-fips="IC04" data-hasc="IS.VF.AB" data-name="Reykhlahreppur" data-postal="AB" data-varname=""/><path d="M100,119L106,116L107,115L109,115L110,114L110,113L109,112L108,111L108,110L109,109L110,108L111,106L113,107L116,104L117,103L117,102L116,101L116,99L116,98L116,97L115,96L115,94L115,92L115,91L115,89L115,87L116,85L116,84L114,82L114,81L114,79L114,78L113,75L113,73L113,72L113,71L111,69L110,68L111,67L112,65L115,62L116,60L117,59L119,58L120,56L120,55L119,55L118,55L115,55L115,54L114,53L113,55L112,53L111,54L109,55L109,53L109,52L109,50L109,48L110,47L108,46L109,45L108,43L104,41L104,39L103,37L102,34L101,33L100,33L100,34L101,35L101,36L100,37L98,35L96,34L95,32L93,33L93,34L92,35L91,37L89,37L89,36L87,34L85,34L83,32L79,31L81,33L82,34L82,36L81,35L80,33L75,34L75,35L76,36L74,35L73,34L72,33L70,34L71,36L72,38L74,39L75,39L74,42L72,43L70,42L68,42L67,43L68,44L69,46L71,47L78,49L79,48L81,45L83,43L84,44L84,44L83,46L83,48L86,47L89,44L91,43L93,43L91,43L90,45L89,48L88,49L88,51L90,51L93,51L95,50L98,48L98,50L97,50L96,51L94,52L95,53L97,54L103,54L102,54L99,55L97,56L96,56L94,56L95,58L94,59L92,57L92,56L90,56L86,54L84,54L78,55L76,56L77,61L80,65L90,70L92,73L97,75L98,74L101,73L99,75L98,75L97,76L97,77L96,79L96,80L97,80L98,82L98,83L99,85L99,87L99,89L100,91L101,93L99,94L97,100L95,100L96,99L97,97L97,96L97,92L97,94L96,92L97,91L96,90L95,88L95,87L94,86L93,87L93,89L89,97L88,101L87,100L88,98L90,92L90,90L91,89L91,88L91,85L90,82L88,80L88,78L87,77L84,76L84,77L83,79L83,81L82,84L82,87L80,92L80,90L81,88L81,85L80,82L79,84L78,86L77,88L75,88L77,87L78,85L79,82L80,80L79,80L78,80L77,78L76,77L76,78L75,79L74,81L71,84L70,85L71,84L73,80L74,78L74,77L74,75L74,73L73,72L73,70L71,70L69,73L69,71L69,69L68,67L67,65L67,65L65,64L61,61L54,58L53,58L52,60L50,61L50,61L53,64L56,67L57,68L59,72L61,75L62,76L62,77L62,79L61,80L61,81L63,82L64,84L65,85L64,87L64,88L64,89L65,91L66,93L67,95L70,98L70,99L71,103L71,104L71,105L71,107L75,110L76,111L94,116L95,117L98,119L99,119Z " data-fips="IC19" data-hasc="IS.VF" data-name="Vestfirir" data-postal="VF" data-varname="Western Fjords|Western Peninsula"/><path d="M157,196L156,195L156,191L155,188L154,186L154,185L154,183L154,181L154,179L154,178L154,177L153,177L153,176L153,174L153,172L152,170L151,168L151,167L149,161L149,160L150,158L150,156L150,154L150,152L150,151L149,150L150,148L149,147L147,145L146,143L145,142L144,143L142,144L137,145L139,144L142,142L145,138L146,134L145,129L143,130L140,132L138,132L139,131L141,128L142,127L141,125L140,124L132,124L131,123L130,122L130,120L130,119L129,119L130,118L130,116L130,115L129,112L128,112L125,110L127,109L128,109L130,110L131,113L131,114L132,116L133,117L134,119L140,119L141,118L145,113L141,111L140,112L139,111L144,109L145,108L146,107L148,101L146,99L148,98L148,97L148,95L148,93L146,92L142,92L144,91L144,90L143,89L139,90L136,91L135,91L135,90L140,89L141,88L147,87L147,85L146,84L145,83L144,83L139,84L138,83L137,80L137,79L138,79L138,77L138,76L137,75L135,75L133,76L134,79L134,81L133,82L132,83L132,82L133,81L133,79L133,78L132,77L131,78L130,76L130,74L130,72L129,71L130,69L130,68L129,66L129,65L126,63L124,64L124,63L121,61L120,61L119,61L122,59L120,56L119,58L117,59L116,60L115,62L112,65L111,67L110,68L111,69L113,71L113,72L113,73L113,75L114,78L114,79L114,81L114,82L116,84L116,85L115,87L115,89L115,91L115,92L115,94L115,96L116,97L116,98L116,99L116,101L117,102L117,103L116,104L113,107L111,106L110,108L109,109L108,110L108,111L109,112L110,113L110,114L109,115L111,118L115,120L116,121L116,122L117,124L118,125L119,127L121,130L121,131L121,132L123,134L126,136L126,138L127,139L129,139L131,139L132,141L132,144L131,145L131,148L131,149L130,150L129,152L129,153L130,155L134,154L136,154L137,155L137,157L140,163L141,164L142,166L143,166L145,170L146,172L146,175L146,177L144,180L144,181L144,182L144,183L145,186L145,188L147,189L148,191L148,192L152,196L153,197L154,198L157,198Z " data-fips="IC30" data-hasc="IS.VF.SD" data-name="rneshreppur" data-postal="SD" data-varname=""/><path d="M36,141L38,139L39,138L39,136L41,137L47,137L49,135L50,134L51,133L52,135L54,135L55,136L58,137L59,136L60,134L61,133L60,131L61,129L61,127L63,127L62,129L64,130L66,131L67,131L70,130L71,129L71,128L72,124L73,126L74,125L75,124L75,123L75,121L74,120L74,119L74,117L74,116L73,115L73,113L73,112L71,111L70,113L69,114L65,114L64,114L56,114L55,114L53,113L51,114L50,114L47,111L48,113L50,115L52,116L58,115L56,116L55,116L52,117L52,119L53,120L52,120L49,119L49,120L48,118L46,121L44,121L45,119L45,118L45,117L45,115L44,114L43,111L25,99L23,99L21,100L21,102L21,103L21,104L21,106L23,110L24,112L25,113L27,114L29,116L31,117L32,118L33,119L34,121L32,120L28,118L22,116L22,117L24,119L25,121L27,124L27,125L28,126L29,127L30,129L31,129L33,129L30,130L29,130L28,129L27,128L27,127L26,126L23,125L21,124L18,120L17,119L13,116L11,116L10,117L9,118L9,120L8,122L8,123L7,124L4,126L3,127L2,128L0,129L1,131L2,132L15,131L22,135L23,137L23,135L25,135L25,136L25,138L24,138L24,139L24,141L26,143L28,143Z " data-fips="IC34" data-hasc="IS.VF.VB" data-name="Vesturbygg" data-postal="VB" data-varname=""/><path d="M64,114L65,114L69,114L70,113L71,111L71,107L71,105L71,104L71,103L70,99L70,98L67,95L66,93L65,91L64,89L64,88L64,87L65,85L64,84L63,82L61,81L61,80L62,79L62,77L62,76L61,75L59,72L57,68L56,67L53,64L50,61L50,61L50,61L49,61L48,62L48,64L49,65L53,65L54,66L55,69L56,70L53,66L50,66L46,66L44,67L46,69L48,71L50,74L51,74L53,75L54,76L55,76L56,80L55,81L55,80L54,79L54,77L53,78L50,77L43,72L41,71L39,71L38,73L37,74L38,79L39,81L41,83L42,84L42,85L44,86L46,89L47,90L51,91L53,94L54,94L58,95L59,96L62,98L61,99L59,98L56,95L54,95L49,92L45,93L45,92L43,90L39,89L36,87L34,89L34,92L34,96L35,99L38,102L39,104L41,103L43,105L45,106L57,107L59,105L60,105L63,105L62,105L60,107L61,108L59,109L56,108L55,109L51,109L50,108L47,110L47,111L50,114L51,114L53,113L55,114L56,114Z " data-fips="IC36" data-hasc="IS.VF.IS" data-name="safjararbr" data-postal="IS" data-varname=""/><path d="M328,329L333,325L334,327L335,326L338,328L341,328L343,327L344,326L343,325L343,324L343,323L342,322L342,320L344,320L345,319L344,318L344,317L345,314L346,315L346,316L346,318L346,321L346,322L345,323L346,325L346,326L346,328L347,327L346,326L347,325L347,323L347,320L348,323L347,325L348,326L348,325L348,323L348,321L349,320L350,320L352,323L353,324L353,325L354,326L354,325L354,323L354,322L354,321L354,320L355,321L362,319L369,313L368,315L367,316L368,315L371,311L374,308L375,307L375,305L374,306L375,304L376,302L378,300L378,302L379,302L382,300L381,298L383,297L383,298L384,297L385,296L387,293L388,293L391,290L389,290L390,288L402,284L404,282L403,282L399,283L403,280L405,278L405,279L406,278L409,277L412,277L415,275L416,274L414,274L413,274L414,273L417,273L418,273L418,271L419,269L418,268L417,266L418,267L419,266L419,265L418,262L417,261L416,261L414,260L414,260L415,260L417,260L418,261L419,262L420,264L421,267L420,268L421,269L423,270L423,269L422,268L422,267L423,266L424,267L424,269L425,270L427,270L426,273L427,273L428,272L428,271L429,271L430,271L431,269L432,269L433,270L435,272L436,273L437,273L439,273L440,273L441,271L442,271L442,269L441,268L441,268L439,269L439,268L439,266L440,265L441,264L441,265L441,266L441,265L442,264L443,262L446,260L448,257L449,256L449,254L455,254L456,255L454,256L450,257L448,259L449,259L452,257L457,256L458,254L458,253L458,252L458,251L458,251L456,250L455,248L454,249L453,250L452,249L450,248L449,248L448,248L447,245L446,244L445,243L442,243L440,244L439,244L438,244L436,243L436,241L435,240L435,239L434,236L433,234L433,232L434,230L433,229L429,228L425,226L423,225L422,226L420,227L420,228L420,229L419,229L418,231L418,233L417,234L417,235L416,236L415,237L398,244L393,247L391,249L389,252L388,254L387,256L387,258L386,259L385,260L383,260L376,260L327,301L325,308L325,310L325,329L325,330Z " data-fips="IC06" data-hasc="IS.AL.AS" data-name="Sveitarflagi Hornafjrur" data-postal="AS" data-varname=""/><path d="M383,260L385,260L386,259L387,258L387,256L388,254L389,252L391,249L393,247L398,244L415,237L416,236L417,235L417,234L418,233L418,231L419,229L420,229L420,228L420,227L422,226L423,225L425,226L429,223L431,220L431,219L431,217L431,216L432,213L432,212L433,210L435,207L435,205L435,204L435,202L435,201L438,193L439,191L439,189L440,184L445,180L447,176L448,175L449,174L451,170L455,165L457,162L458,158L458,157L458,155L458,153L457,152L457,151L458,149L458,148L458,146L458,145L459,143L460,143L461,144L463,143L464,144L465,145L472,148L471,149L470,151L470,152L471,153L470,154L469,156L469,157L470,159L470,160L472,161L472,162L471,162L470,162L468,162L467,162L466,161L466,162L465,165L466,166L466,167L467,169L468,169L469,169L473,167L474,167L476,166L484,165L486,164L490,161L495,160L495,159L493,158L491,156L490,156L485,157L483,157L476,161L475,160L477,159L480,158L482,156L483,156L485,156L487,155L488,154L487,152L484,151L483,150L484,149L488,149L490,148L490,147L490,146L489,144L491,143L491,142L490,139L490,138L491,137L492,136L491,133L489,131L488,131L488,130L488,129L486,129L485,130L483,133L483,132L482,131L482,130L482,128L481,127L479,127L480,126L480,124L479,123L478,123L473,124L472,124L462,119L462,120L464,121L464,122L461,120L460,120L459,120L454,129L452,132L451,133L450,134L449,137L449,138L449,136L449,134L450,133L453,128L454,126L456,123L457,120L458,119L461,118L460,117L457,115L455,114L455,112L456,111L457,106L456,105L454,105L451,108L441,111L438,113L436,114L435,113L435,111L436,108L437,106L435,109L434,110L432,110L435,108L435,106L435,104L436,103L439,100L442,96L442,95L443,92L443,90L444,89L444,87L443,85L443,83L441,83L441,82L441,79L440,78L439,77L438,76L436,77L432,80L430,80L427,79L422,79L422,78L423,77L423,75L422,74L419,74L418,73L418,70L419,69L423,69L424,67L422,66L421,66L418,66L416,66L416,67L415,68L415,71L413,75L412,76L412,77L412,79L412,80L413,81L412,84L412,86L412,87L412,89L412,91L412,92L412,94L413,96L413,97L413,98L413,101L413,103L412,105L409,107L408,108L408,109L407,110L398,114L397,115L397,118L398,119L398,120L398,123L398,124L399,126L399,128L398,131L398,133L397,135L383,133L382,133L382,135L382,138L381,139L381,141L380,144L378,144L377,147L377,148L376,149L377,151L377,151L381,154L382,155L383,158L384,159L383,161L383,162L382,164L379,166L378,169L377,171L376,173L376,174L376,176L376,177L376,179L376,180L376,182L376,186L376,188L376,189L377,189L376,191L375,193L374,194L371,196L369,198L366,202L365,202L362,203L360,204L358,204L358,205L358,207L358,208L358,210L358,211L357,212L356,215L356,216L357,220L358,222L358,224L358,226L358,227L357,232L356,235L376,260Z " data-fips="IC20" data-hasc="IS.AL" data-name="Austurland" data-postal="AL" data-varname="Eastland"/><path d="M458,251L458,250L458,249L460,245L460,243L460,242L460,241L464,235L465,233L463,235L461,239L459,240L458,241L457,240L456,239L455,238L454,236L461,235L462,234L462,233L461,231L460,230L458,230L458,229L460,227L468,228L468,227L467,226L464,225L463,223L462,222L462,220L461,219L459,218L458,217L459,215L458,214L457,214L456,213L460,214L462,217L463,218L465,223L466,223L468,224L478,221L481,218L480,217L479,216L477,213L478,213L479,212L480,212L486,212L487,211L487,210L486,210L481,208L482,207L488,208L489,206L490,204L489,203L486,200L479,199L477,197L480,198L484,197L488,199L491,199L492,197L491,196L486,194L484,192L483,190L483,189L482,188L467,187L476,186L478,184L477,183L476,182L476,181L477,182L480,184L482,185L484,186L485,186L486,188L487,189L487,190L488,191L491,190L495,190L496,188L497,187L496,186L496,185L496,184L498,183L499,183L500,181L500,180L500,179L499,177L499,176L499,174L499,171L498,170L497,172L495,176L494,177L493,176L491,176L492,175L493,174L492,173L488,174L490,173L491,173L493,171L493,170L494,168L493,167L492,167L489,168L482,168L476,170L475,169L478,168L480,168L486,167L492,165L493,164L495,161L495,160L490,161L486,164L484,165L476,166L474,167L473,167L469,169L468,169L467,169L466,167L466,166L465,165L466,162L466,161L467,162L468,162L470,162L471,162L472,162L472,161L470,160L470,159L469,157L469,156L470,154L471,153L470,152L470,151L471,149L472,148L465,145L464,144L463,143L461,144L460,143L459,143L458,145L458,146L458,148L458,149L457,151L457,152L458,153L458,155L458,157L458,158L457,162L455,165L451,170L449,174L448,175L447,176L445,180L440,184L439,189L439,191L438,193L435,201L435,202L435,204L435,205L435,207L433,210L432,212L432,213L431,216L431,217L431,219L431,220L429,223L429,228L433,229L434,230L433,232L433,234L434,236L435,239L435,240L436,241L436,243L438,244L439,244L440,244L442,243L445,243L446,244L447,245L448,248L449,248L450,248L452,249L453,250L454,249L455,248L456,250L458,251Z " data-fips="IC31" data-hasc="IS.AL.SM" data-name="Austur-Hra" data-postal="SM" data-varname=""/><path d="M217,224L230,220L241,221L254,215L252,206L250,201L249,199L248,198L247,196L247,194L245,193L244,191L242,189L242,188L241,185L240,183L231,166L230,164L230,162L228,160L228,159L228,157L228,155L227,153L227,151L225,148L224,147L223,148L221,147L219,146L218,146L218,144L218,143L221,141L221,140L220,139L219,138L218,137L217,136L216,135L215,134L213,133L212,134L211,134L211,131L210,130L209,129L208,128L207,128L207,126L207,125L206,122L207,121L207,119L207,118L207,116L206,113L205,112L204,111L204,110L204,109L204,107L204,106L203,105L203,104L202,102L202,100L202,98L201,97L201,96L200,95L199,92L199,91L197,86L197,85L197,82L197,81L198,80L200,74L200,74L197,74L194,76L193,76L192,77L190,78L189,77L188,78L187,78L187,80L187,82L186,83L186,84L186,85L187,86L187,88L188,90L188,93L188,94L190,98L191,102L191,105L190,107L191,108L192,110L193,113L193,115L193,117L192,119L192,120L191,121L191,122L191,124L192,124L191,124L190,125L190,128L189,129L187,131L187,133L187,134L187,136L187,137L187,139L186,137L186,132L185,131L183,133L182,133L180,133L182,134L184,134L185,136L184,139L184,140L184,142L183,142L183,143L184,147L185,149L185,150L184,151L183,152L183,154L183,155L184,160L184,161L186,164L188,169L198,203L212,204L212,205L212,207L211,208L206,214L203,218L215,224L216,224Z " data-fips="IC05" data-hasc="IS.NV" data-name="Norurland vestra" data-postal="NV" data-varname="Northland West"/><path d="M297,220L296,216L296,215L297,213L297,207L299,197L299,191L300,186L300,184L300,183L300,181L300,173L300,171L300,169L300,168L300,167L300,165L298,159L298,158L298,157L298,156L298,154L298,152L299,151L301,148L301,146L301,145L301,144L301,141L302,140L301,139L301,138L300,137L299,136L299,134L298,133L298,130L297,129L296,126L295,124L294,123L291,123L292,124L292,126L290,127L290,125L290,124L290,122L288,120L286,118L286,117L286,112L285,110L285,108L285,104L284,103L283,103L282,102L282,100L281,99L281,98L280,97L279,95L278,94L275,94L273,92L270,91L270,89L271,86L270,84L270,82L270,80L269,79L268,78L267,78L266,79L265,79L266,76L266,74L265,73L264,72L263,70L262,70L258,73L258,72L259,69L259,68L257,67L256,66L255,67L256,69L255,71L253,72L253,69L252,68L248,69L246,72L246,72L248,74L249,75L250,77L252,81L255,85L256,88L255,89L255,90L255,91L254,92L254,93L254,94L255,95L256,97L256,98L255,100L254,102L253,102L251,103L250,104L250,105L250,107L251,108L252,109L255,112L256,113L257,116L257,117L257,119L258,120L258,121L258,122L258,123L256,125L255,126L255,128L254,129L254,130L254,131L253,132L253,134L254,134L255,135L256,137L258,137L259,138L260,139L260,140L261,141L262,142L261,143L260,145L260,146L260,148L259,149L259,151L260,152L262,153L262,154L262,155L263,157L264,158L267,158L268,159L268,160L268,164L269,166L270,167L272,169L276,172L277,174L277,175L278,177L278,182L278,187L278,190L278,192L278,194L277,202L279,214L297,225Z M278,91L278,90L277,88L276,87L275,86L276,88L276,90L277,91Z " data-fips="IC09" data-hasc="IS.NE.AY" data-name="Akureyri" data-postal="AY" data-varname=""/><path d="M277,202L278,194L278,192L278,190L278,187L278,182L278,177L277,175L277,174L276,172L272,169L270,167L269,166L268,164L268,160L268,159L267,158L264,158L263,157L262,155L262,154L262,153L260,152L259,151L259,149L260,148L260,146L260,145L261,143L262,142L261,141L260,140L260,139L259,138L258,137L256,137L255,135L254,134L253,134L253,132L254,131L254,130L254,129L255,128L255,126L256,125L258,123L258,122L258,121L258,120L257,119L257,117L257,116L256,113L255,112L252,109L251,108L250,107L250,105L250,104L251,103L253,102L254,102L255,100L256,98L256,97L255,95L254,94L254,93L254,92L255,91L255,90L255,89L256,88L255,85L252,81L250,77L249,75L248,74L246,72L246,72L246,73L245,75L245,77L246,78L246,79L246,81L244,79L244,77L243,78L243,80L242,80L239,78L234,79L231,80L230,81L230,83L230,85L230,86L231,88L231,89L230,90L228,91L227,92L227,94L230,97L231,101L231,104L232,106L232,109L231,112L231,115L230,117L229,118L228,117L229,116L227,115L226,114L225,115L224,117L223,116L221,115L220,114L220,113L220,110L219,107L218,105L218,104L218,102L217,102L216,101L215,101L214,100L211,99L210,98L211,96L210,95L209,94L208,92L208,91L208,90L207,88L206,84L205,83L204,80L204,79L203,78L202,77L202,76L202,74L200,74L198,80L197,81L197,82L197,85L197,86L199,91L199,92L200,95L201,96L201,97L202,98L202,100L202,102L203,104L203,105L204,106L204,107L204,109L204,110L204,111L205,112L206,113L207,116L207,118L207,119L207,121L206,122L207,125L207,126L207,128L208,128L209,129L210,130L211,131L211,134L212,134L213,133L215,134L216,135L217,136L218,137L219,138L220,139L221,140L221,141L218,143L218,144L218,146L219,146L221,147L223,148L224,147L225,148L227,151L227,153L228,155L228,157L228,159L228,160L230,162L230,164L231,166L240,183L241,185L242,188L242,189L244,191L245,193L247,194L247,196L248,198L249,199L250,201L252,206L254,215Z " data-fips="IC28" data-hasc="IS.NV.SG" data-name="Akrahreppur" data-postal="SG" data-varname=""/><path d="M185,201L187,202L198,203L188,169L186,164L184,161L184,160L183,155L183,154L183,152L184,151L185,150L185,149L184,147L183,143L183,142L182,142L181,142L180,141L180,139L179,138L178,137L178,136L178,134L178,133L177,132L176,132L176,134L177,136L176,137L175,135L175,134L176,132L175,130L176,128L177,123L176,122L175,121L174,120L173,122L171,123L168,126L163,130L161,133L161,137L160,139L160,140L160,142L160,144L160,148L160,151L161,155L162,157L160,157L160,155L158,153L157,148L156,146L155,145L154,147L154,150L155,158L155,160L154,162L153,163L153,165L153,166L153,167L154,168L154,170L154,172L155,175L154,177L154,178L154,179L154,181L154,183L154,185L154,186L155,188L156,191L156,195L157,196L157,198L158,199L162,202L167,203L168,205L169,205Z " data-fips="IC35" data-hasc="IS.NV.VH" data-name="Hnaing vestra" data-postal="VH" data-varname=""/><path d="M380,144L381,141L381,139L382,138L382,135L382,133L383,133L397,135L398,133L398,131L399,128L399,126L398,124L398,123L398,120L398,119L397,118L397,115L398,114L407,110L408,109L408,108L409,107L412,105L413,103L413,101L413,98L413,97L413,96L412,94L412,92L412,91L412,89L412,87L412,86L412,84L413,81L412,80L412,79L412,77L412,76L413,75L415,71L415,68L416,67L416,66L418,66L421,66L422,66L424,67L427,63L428,62L428,60L427,59L426,57L425,56L424,55L425,54L426,52L430,51L433,48L441,44L435,44L434,43L432,42L431,42L427,43L426,43L424,45L424,47L423,48L423,50L420,53L420,55L417,56L411,56L410,57L410,58L410,60L410,62L410,64L410,66L409,67L410,68L409,69L408,68L407,67L405,66L404,64L402,63L402,62L402,61L401,62L400,60L398,61L394,61L394,59L394,57L392,56L391,56L391,55L392,54L393,52L394,49L393,45L394,44L393,43L392,42L387,42L387,41L385,40L383,41L383,39L382,38L383,37L383,35L384,34L385,33L383,32L379,28L376,30L374,29L373,29L371,30L371,32L370,32L369,32L369,33L368,34L366,35L366,33L365,32L364,31L362,33L362,34L362,35L361,34L361,33L361,32L360,31L359,32L358,33L358,34L358,33L356,32L355,34L355,35L356,37L357,40L358,41L357,42L358,43L358,44L358,46L358,48L360,50L360,52L361,53L362,55L362,56L363,58L362,59L362,61L362,62L361,63L360,64L360,65L360,67L360,68L361,69L363,72L362,71L360,69L358,68L354,70L355,68L359,66L358,66L356,67L353,68L351,70L352,71L352,72L353,75L354,75L355,77L354,77L353,75L352,73L350,72L350,73L348,75L347,74L348,72L350,72L348,72L343,73L341,74L342,75L341,76L340,75L340,74L340,73L339,68L338,66L337,67L336,69L336,71L336,73L336,74L336,75L337,78L336,79L336,81L335,82L335,83L336,86L336,88L336,90L337,91L348,92L349,93L350,94L350,95L350,97L350,98L351,101L351,103L350,105L350,108L355,109L366,108L365,109L365,111L366,112L366,113L366,115L366,117L366,119L366,120L366,121L368,122L371,124L375,129L375,131L378,133L378,134L377,135L377,136L377,138L377,139L378,141L378,142L379,143L378,144Z " data-fips="IC21" data-hasc="IS.NE.NT" data-name="Kelduneshreppur" data-postal="NT" data-varname=""/><path d="M356,235L357,232L358,227L358,226L358,224L358,222L357,220L356,216L356,215L357,212L358,211L358,210L358,208L358,207L358,205L358,204L360,204L362,203L365,202L366,202L369,198L371,196L374,194L375,193L376,191L377,189L376,189L376,188L376,186L376,182L376,180L376,179L376,177L376,176L376,174L376,173L377,171L378,169L379,166L382,164L383,162L383,161L384,159L383,158L382,155L381,154L377,151L377,151L376,149L377,148L377,147L378,144L379,143L378,142L378,141L377,139L377,138L377,136L377,135L378,134L378,133L375,131L375,129L371,124L368,122L366,121L366,120L366,119L366,117L366,115L366,113L366,112L365,111L365,109L366,108L355,109L350,108L350,105L351,103L351,101L350,98L350,97L350,95L350,94L349,93L348,92L337,91L336,90L336,88L336,86L335,83L335,82L336,81L336,79L337,78L336,75L336,74L336,73L336,71L336,69L337,67L338,66L338,66L336,66L332,65L331,64L330,66L328,67L327,68L326,71L326,72L326,73L326,75L324,75L323,76L322,78L322,79L322,81L322,83L321,84L320,85L321,87L320,89L319,90L320,91L319,93L319,91L318,89L311,89L312,90L316,90L315,91L314,91L312,91L313,93L313,94L314,96L314,98L313,97L311,92L310,90L310,89L308,88L308,86L307,83L306,82L304,79L303,78L301,76L299,76L298,75L297,72L295,71L291,72L290,72L289,71L287,71L285,69L280,69L279,72L279,77L280,83L281,86L281,87L281,88L282,90L283,91L284,92L284,94L284,96L286,98L287,97L288,98L288,100L289,100L289,102L291,107L291,109L290,111L289,112L289,114L289,115L289,117L289,118L289,120L291,121L291,122L291,123L294,123L295,124L296,126L297,129L298,130L298,133L299,134L299,136L300,137L301,138L301,139L302,140L301,141L301,144L301,145L301,146L301,148L299,151L298,152L298,154L298,156L298,157L298,158L298,159L300,165L300,167L300,168L300,169L300,171L300,173L300,181L300,183L300,184L300,186L299,191L299,197L297,207L297,213L296,215L296,216L297,220L297,225L321,238Z M294,30L294,29L292,28L292,30L293,31Z " data-fips="IC32" data-hasc="IS.NE" data-name="Hlshreppur" data-postal="NE" data-varname="Norurland eystra|Northland East"/><path d="M160,325L161,326L162,326L163,325L165,323L166,321L166,320L165,318L166,319L166,318L166,316L167,314L168,313L169,312L171,311L172,311L173,310L176,307L176,305L177,304L179,303L181,302L185,302L186,303L187,303L188,303L190,303L196,299L198,299L202,296L203,295L204,295L208,296L207,297L208,298L209,298L211,297L211,296L213,292L215,290L218,288L220,287L222,285L223,284L225,282L229,280L230,279L231,278L232,276L233,274L234,272L235,271L239,269L241,266L241,265L242,264L243,263L243,261L247,259L248,256L253,254L253,253L253,252L253,250L253,249L256,248L258,247L259,246L260,246L261,245L262,244L262,243L263,242L265,241L266,240L267,238L268,237L273,233L274,232L274,231L275,230L276,229L276,227L277,226L277,224L278,223L281,221L282,219L282,218L279,214L254,215L241,221L230,220L217,224L216,224L215,224L203,218L202,221L202,222L202,224L202,226L202,227L201,228L200,229L172,244L165,246L163,247L158,253L151,260L135,275L135,276L134,278L134,280L134,282L134,284L133,285L129,293L127,297L126,299L124,300L123,302L121,302L109,315L108,316L107,318L114,316L116,316L117,317L119,319L120,320L134,319L135,319L134,317L135,316L137,315L139,315L141,315L142,316L141,314L140,313L138,312L138,311L140,309L141,308L144,308L147,309L150,309L149,311L147,311L143,311L143,313L143,315L144,317L145,318L146,318L148,320L154,323L158,326L160,327Z " data-fips="IC03" data-hasc="IS.SL" data-name="Biskupstungnahreppur" data-postal="SL" data-varname=""/><path d="M73,319L74,318L78,319L79,319L80,318L82,318L84,317L85,317L84,317L85,318L86,317L87,316L88,315L101,319L104,318L106,318L107,318L108,316L109,315L121,302L123,302L124,300L126,299L127,297L129,293L125,294L123,293L121,292L121,291L121,289L121,288L121,287L120,287L119,285L118,283L117,283L116,283L115,283L115,285L114,285L115,286L116,286L114,287L113,286L112,285L105,283L104,284L105,284L107,285L110,288L109,289L110,290L108,290L106,290L107,289L106,288L105,288L104,289L104,290L105,291L106,292L107,293L107,294L106,293L105,295L103,296L99,296L97,298L95,298L94,297L93,297L91,298L89,299L87,299L87,300L87,302L86,302L85,303L80,302L79,302L79,301L79,298L78,295L76,293L75,292L73,290L72,290L71,292L71,294L71,296L71,298L70,300L70,302L71,303L73,305L74,304L74,305L71,306L70,310L69,311L70,312L71,313L71,314L71,315L70,317L70,318L72,320Z " data-fips="IC10" data-hasc="IS.SU" data-name="Suurnes" data-postal="SU" data-varname="Southern Peninsula"/><path d="M186,368L186,367L186,366L186,364L185,364L184,365L184,366L184,368L185,369Z M227,362L227,361L228,359L228,357L228,356L229,355L229,351L230,350L241,343L244,339L247,335L250,331L251,329L251,327L251,326L251,325L251,324L251,323L251,322L251,320L249,317L250,315L251,312L251,311L251,309L252,308L255,304L256,303L257,300L262,295L263,294L263,292L264,292L266,291L280,277L283,275L285,274L289,274L321,238L297,225L282,218L282,219L281,221L278,223L277,224L277,226L276,227L276,229L275,230L274,231L274,232L273,233L268,237L267,238L266,240L265,241L263,242L262,243L262,244L261,245L260,246L259,246L258,247L256,248L253,249L253,250L253,252L253,253L253,254L248,256L247,259L243,261L243,263L242,264L241,265L241,266L239,269L235,271L234,272L233,274L232,276L231,278L230,279L229,280L225,282L223,284L222,285L220,287L218,288L215,290L213,292L211,296L211,297L209,298L208,298L207,297L208,296L204,295L203,295L202,296L198,299L196,299L190,303L188,303L187,303L186,303L185,302L181,302L179,303L177,304L176,305L176,307L173,310L172,311L171,311L169,312L168,313L167,314L166,316L166,318L166,319L167,319L168,322L167,325L165,328L166,328L170,328L169,329L170,330L169,329L167,330L166,329L163,329L166,331L167,332L169,334L172,335L172,334L172,333L172,332L173,330L174,330L175,329L176,328L179,325L179,323L180,322L180,324L180,325L178,328L183,331L184,333L184,334L183,334L180,331L179,330L176,330L174,331L173,333L174,335L173,336L174,338L175,340L178,343L178,341L177,340L175,336L177,337L177,338L178,340L179,341L180,342L181,343L181,345L179,345L181,346L182,345L183,345L183,346L185,347L183,348L182,347L183,348L190,354L192,355L195,355L195,354L196,353L197,355L210,356L205,354L210,355L212,354L212,356L211,356L213,357L221,360L226,364L227,364Z " data-fips="IC23" data-hasc="IS.SL" data-name="Suurland" data-postal="SL" data-varname="Southland|South"/><path d="M270,369L276,366L286,364L285,364L283,363L283,362L282,360L282,359L280,357L280,356L280,355L281,355L285,357L286,357L289,357L290,357L288,358L287,360L285,361L286,363L289,363L292,360L297,358L300,355L301,352L302,349L298,349L298,348L298,346L299,346L299,345L301,346L302,347L303,346L305,342L304,342L300,342L299,343L297,343L297,341L298,340L300,341L300,339L300,338L301,336L301,335L303,335L304,334L305,333L304,333L306,333L307,333L308,333L309,333L309,331L309,330L310,331L314,333L312,333L311,334L309,335L309,338L315,333L315,332L315,331L316,331L317,330L317,329L317,330L317,331L317,333L321,332L325,330L325,329L325,310L325,308L327,301L321,238L289,274L285,274L283,275L280,277L266,291L264,292L263,292L263,294L262,295L257,300L256,303L255,304L252,308L251,309L251,311L251,312L250,315L249,317L251,320L251,322L251,323L251,324L251,325L251,326L251,327L251,329L250,331L247,335L244,339L241,343L230,350L229,351L229,355L228,356L228,357L228,359L227,361L227,362L227,364L230,365L233,367L240,368L241,367L242,368L244,368L243,369L244,370L248,368L258,371L260,372Z M308,339L308,338L308,337L307,336L306,337L304,339L307,339L307,340Z " data-fips="IC37" data-hasc="IS.SL.VS" data-name="Mrdalshreppur" data-postal="VS" data-varname=""/><path d="M110,268L111,267L113,265L114,265L116,265L116,263L117,262L121,259L125,259L133,260L132,261L131,262L133,262L135,261L134,262L137,261L141,261L144,260L146,260L147,261L147,262L151,260L158,253L163,247L165,246L172,244L186,231L183,226L182,225L181,225L166,224L163,226L159,227L158,227L139,227L135,228L134,228L134,229L133,231L131,232L132,233L127,232L126,233L123,235L128,236L126,237L127,238L128,239L129,240L132,241L128,240L127,240L127,238L125,238L125,236L123,236L122,236L121,237L120,238L118,240L117,242L118,242L119,243L116,243L110,246L109,247L109,248L108,250L108,252L107,252L106,254L106,255L106,256L105,257L106,259L107,260L108,259L110,259L114,259L113,260L111,260L110,261L109,261L108,261L106,263L104,265L102,267L106,269L108,269Z " data-fips="IC07" data-hasc="IS.VL.AK" data-name="Akranes" data-postal="AK" data-varname=""/><path d="M130,207L131,208L133,208L134,208L138,204L138,203L137,202L137,201L140,200L141,199L141,198L141,196L143,195L148,192L148,191L147,189L145,188L145,186L144,183L144,182L144,181L144,180L146,177L146,175L146,172L145,170L143,166L142,166L141,164L140,163L137,157L137,155L136,154L134,154L130,155L129,153L129,152L130,150L131,149L131,148L131,145L132,144L132,141L131,139L130,140L129,141L128,144L127,145L126,145L125,146L119,148L116,150L116,151L114,150L113,152L110,153L108,155L104,158L99,159L97,160L95,163L93,163L93,165L92,165L90,166L88,168L88,170L87,171L89,171L90,171L91,172L90,172L90,171L89,172L87,173L87,174L89,175L93,174L94,174L97,177L110,180L112,180L120,174L119,172L121,171L123,171L124,173L124,176L122,182L121,183L120,184L119,184L118,186L120,186L121,187L120,189L119,190L114,190L113,189L112,190L112,190L112,191L111,193L109,196L109,197L109,199L110,201L111,201L114,200L114,200L115,199L116,200L116,203L117,203L118,204L118,205L118,206L120,206L121,206L123,205L125,205L126,205L126,207L126,208L127,208Z " data-fips="IC08" data-hasc="IS.VF.SD" data-name="Bjarhreppur" data-postal="SD" data-varname=""/><path d="M129,293L133,285L134,284L134,282L134,280L134,278L135,276L135,275L147,262L147,261L146,260L144,260L141,261L137,261L134,262L133,263L132,263L126,261L125,262L124,262L122,263L122,264L120,264L119,264L118,265L117,267L116,269L114,271L112,273L112,274L111,275L110,276L111,277L113,276L115,276L115,277L115,279L116,278L118,278L119,278L120,279L118,280L117,282L118,282L120,281L118,283L119,285L120,287L121,287L121,288L121,289L121,291L121,292L123,293L125,294Z " data-fips="IC15" data-hasc="IS.HO" data-name="Hfuborgarsvi" data-postal="HO" data-varname="Capital|Reykjavik and Reykjane"/><path d="M102,250L104,249L104,248L104,247L106,244L106,243L106,241L107,240L108,240L107,242L107,243L107,244L108,244L110,243L112,241L114,240L115,241L116,239L118,238L120,236L121,235L122,233L123,232L125,230L124,232L123,234L124,234L127,231L128,231L131,232L133,231L134,229L134,228L135,228L139,227L158,227L159,227L163,226L166,224L181,225L182,225L183,226L186,231L200,229L201,228L202,227L202,226L202,224L202,222L202,221L203,218L206,214L211,208L212,207L212,205L212,204L198,203L187,202L185,201L169,205L168,205L167,203L162,202L158,199L157,198L154,198L153,197L152,196L143,195L141,196L141,198L141,199L140,200L137,201L137,202L138,203L138,204L134,208L133,208L131,208L130,207L127,208L126,208L126,207L126,205L125,205L123,205L121,206L120,206L118,206L118,205L118,204L117,203L116,203L110,206L109,208L106,213L105,214L104,216L103,217L102,219L101,220L101,221L101,221L99,223L94,226L94,227L92,229L93,230L92,231L91,230L90,229L88,228L89,229L89,230L91,231L91,233L92,233L92,234L92,235L91,237L92,239L92,240L93,240L95,240L97,239L96,240L97,241L97,242L98,243L97,245L97,248L98,246L98,248L98,250L99,251L101,251Z " data-fips="IC17" data-hasc="IS.VL" data-name="Vesturland" data-postal="VL" data-varname="Westland|West"/><path d="M92,226L93,225L95,224L96,224L98,223L101,221L101,220L102,219L103,217L104,216L105,214L106,213L109,208L110,206L116,203L116,200L115,199L114,200L114,200L111,201L110,201L109,199L109,197L109,196L111,193L112,191L112,190L112,190L112,190L111,190L110,189L109,188L105,188L104,190L100,187L94,186L90,186L85,186L85,188L84,188L82,190L83,192L84,193L82,191L80,189L80,187L78,188L77,187L79,187L79,186L80,184L79,183L77,183L73,186L71,187L75,188L72,189L69,190L68,191L68,192L67,190L66,188L64,189L63,191L62,192L62,193L60,193L60,194L59,195L59,197L60,199L57,195L58,193L59,193L59,191L60,190L61,189L61,188L58,187L56,187L54,189L54,191L54,192L54,194L54,195L54,196L53,197L52,196L51,197L51,195L51,194L50,195L49,195L49,192L47,192L47,193L47,195L43,194L41,194L39,197L36,197L35,199L30,197L26,194L21,195L20,196L17,198L16,198L16,203L17,205L18,206L19,210L20,211L20,212L21,213L21,214L25,217L28,216L29,215L32,216L33,215L34,212L35,210L36,208L38,208L37,209L42,211L44,210L44,210L45,208L50,207L52,208L55,211L61,212L67,212L72,213L74,213L76,215L77,215L74,213L74,212L79,212L80,214L80,215L79,216L78,215L79,216L83,216L82,215L83,214L85,212L88,212L89,212L89,213L90,212L91,211L91,212L90,214L90,216L89,217L92,217L94,217L95,219L94,220L94,221L93,223L92,224L89,226L90,227Z " data-fips="IC29" data-hasc="IS.VL.SH" data-name="Eyja- og Miklaholtshreppur" data-postal="SH" data-varname=""/></g></svg>