<?xml version="1.0" ?><!DOCTYPE svg  PUBLIC '-//W3C//DTD SVG 1.1//EN'  'http://www.w3.org/Graphics/SVG/1.1/DTD/svg11.dtd'><svg enable_background="new 0 0 500 401" height="401px" style="stroke-linejoin: round; stroke:#000; fill:#f6f3f0;" version="1.1" viewBox="0 0 500 401" width="500px" xmlns="http://www.w3.org/2000/svg" xmlns:xlink="http://www.w3.org/1999/xlink"><defs><style type="text/css"><![CDATA[path { fill-rule: evenodd; }
#context path { fill: #eee; stroke: #bbb; } ]]></style></defs><metadata><views><view h="401" padding="0" w="500"><proj id="laea" lat0="55.336" lon0="23.897"/><bbox h="31.58" w="41.29" x="979.12" y="986.29"/><llbbox lat0="-90" lat1="90" lon0="-180" lon1="180"/></view></views></metadata><g id="admin1"><path d="M99,218L101,217L102,216L103,214L112,212L114,212L114,208L115,206L115,205L116,203L116,201L114,200L113,200L111,200L108,200L108,199L106,198L104,197L101,198L100,199L99,200L98,199L98,196L98,195L97,192L96,189L96,188L95,187L87,183L84,182L83,182L83,181L84,179L90,172L92,170L93,169L94,168L94,164L96,163L96,162L95,161L92,160L89,158L87,157L86,157L83,158L82,157L81,149L81,148L79,147L79,146L78,140L77,139L77,138L82,135L83,133L82,132L78,128L76,124L75,123L74,121L74,119L73,117L72,114L72,112L72,111L73,109L72,108L71,108L69,109L65,109L63,109L62,109L62,107L63,106L62,105L61,104L60,102L61,101L60,100L58,101L57,102L53,100L53,99L54,98L55,97L60,93L60,92L62,90L61,88L60,85L59,84L59,82L60,76L60,74L60,72L61,72L63,71L64,71L65,69L68,64L68,61L72,57L73,57L77,57L78,56L80,54L81,54L85,54L86,53L87,53L89,49L90,45L91,44L92,42L93,42L94,41L94,39L91,33L90,32L90,30L90,29L90,26L90,24L88,23L88,21L89,19L92,18L93,17L93,15L69,26L62,26L59,27L47,36L46,36L42,36L39,38L36,40L33,43L31,46L29,51L29,55L27,58L24,59L19,59L16,59L16,65L15,77L15,79L14,81L14,82L14,89L15,102L15,105L16,108L17,110L18,111L21,117L21,119L21,121L22,124L25,133L25,134L25,135L25,136L25,138L25,140L26,141L27,142L27,144L28,148L28,154L28,158L27,159L26,160L22,168L23,169L29,165L29,168L29,170L30,171L31,173L31,175L31,176L30,177L29,178L29,179L29,183L36,178L38,177L41,180L46,189L49,192L57,192L61,194L67,199L68,201L69,203L75,204L78,207L80,208L83,209L85,210L86,210L89,208L91,208L92,209L92,211L92,213L93,216L95,217L97,218Z M6,176L10,170L11,167L12,164L13,161L15,158L16,156L15,154L15,151L17,149L18,147L18,141L18,139L19,137L19,135L20,122L19,115L16,112L17,116L16,125L17,128L17,130L16,133L15,145L11,157L7,166L0,177L5,179Z " data-fips="LH58" data-hasc="LT.KP" data-name="Klaipedos" data-postal="KP" data-varname="Klaipeda|Memel"/><path d="M92,131L93,131L95,131L97,129L98,128L98,126L98,125L99,124L100,123L101,124L102,124L103,123L105,122L108,121L115,120L117,120L119,122L120,122L123,122L124,123L125,123L135,119L136,118L136,117L135,115L135,114L135,112L136,111L136,109L136,108L135,104L136,103L137,103L138,102L139,102L140,101L141,100L142,99L141,96L142,95L142,94L144,94L145,94L146,93L147,92L148,88L151,85L150,84L151,83L153,82L151,81L151,80L150,78L148,78L148,79L146,80L145,80L144,79L143,78L143,77L143,75L145,74L145,73L145,72L145,70L145,67L145,66L146,65L150,64L151,63L152,63L153,62L152,61L152,60L151,58L152,57L152,56L151,55L150,54L148,54L146,55L145,56L144,56L143,57L142,57L139,57L135,58L134,58L133,58L132,57L131,56L131,55L130,54L129,54L129,53L130,51L129,50L126,49L128,40L130,37L131,36L133,34L133,32L133,31L132,30L133,28L133,28L134,26L135,25L136,25L138,26L139,26L140,26L142,25L142,24L143,23L143,21L142,20L142,18L143,17L144,16L144,16L138,15L114,15L112,14L109,12L108,11L104,11L93,15L93,17L92,18L89,19L88,21L88,23L90,24L90,26L90,29L90,30L90,32L91,33L94,39L94,41L93,42L92,42L91,44L90,45L89,49L87,53L86,53L85,54L81,54L80,54L78,56L77,57L73,57L72,57L68,61L68,64L65,69L64,71L63,71L61,72L60,72L60,74L60,76L59,82L59,84L60,85L61,88L62,90L60,92L60,93L55,97L54,98L53,99L53,100L57,102L58,101L60,100L61,101L60,102L61,104L62,105L63,106L62,107L62,109L63,109L65,109L69,109L71,108L72,108L73,109L72,111L72,112L72,114L73,117L74,119L74,121L75,123L76,124L78,128L82,132Z " data-fips="LH63" data-hasc="LT.TL" data-name="Teliai" data-postal="TL" data-varname="Teliai|Telsche|Telschi|Telshe"/><path d="M298,389L308,380L313,377L318,376L321,375L323,378L324,379L326,379L331,378L333,377L334,375L334,370L333,368L332,365L331,362L331,359L332,358L334,356L333,355L333,354L334,353L336,352L336,352L335,349L334,346L334,345L332,344L330,343L329,342L329,341L329,340L338,330L342,326L342,324L343,319L343,317L344,316L344,316L347,315L348,314L349,313L348,306L344,306L337,309L332,312L331,312L329,311L328,312L327,313L325,313L324,311L325,309L324,308L321,307L319,306L318,306L316,307L314,308L313,309L310,310L309,310L301,309L299,308L299,307L299,306L299,305L300,302L299,301L298,299L298,298L298,296L298,293L290,294L289,293L287,293L286,292L284,290L283,290L281,290L280,291L269,293L268,292L266,292L264,292L262,293L261,294L261,295L261,296L261,297L262,298L262,299L257,301L254,304L251,305L250,305L250,304L242,305L241,304L236,303L235,301L234,300L232,298L231,298L223,304L223,305L222,306L222,307L222,308L222,310L222,311L215,314L214,315L214,316L215,317L215,319L212,319L210,320L208,321L207,323L206,326L206,327L205,328L205,329L205,330L205,332L204,337L204,340L205,341L206,343L208,346L209,347L210,347L212,348L214,351L215,354L216,357L216,360L218,367L218,371L216,373L215,374L214,375L214,377L215,378L215,379L216,380L217,381L217,383L220,384L228,389L229,389L230,389L235,387L240,386L242,385L244,385L245,386L247,386L254,382L255,382L256,382L259,384L260,384L266,384L269,384L274,381L277,380L280,381L282,384L284,388L285,390L286,390L289,390L292,391L295,391Z " data-fips="LH56" data-hasc="LT.AS" data-name="Alytaus" data-postal="AS" data-varname="Alytus|Olita|Alitus"/><path d="M251,305L254,304L257,301L262,299L262,298L261,297L261,296L261,295L261,294L262,293L264,292L266,292L268,292L269,293L280,291L281,290L283,290L284,290L286,292L287,293L289,293L290,294L298,293L299,291L299,289L299,286L300,285L300,284L302,284L303,284L304,283L305,280L305,279L303,278L303,275L303,274L303,273L303,272L303,270L303,269L305,268L308,267L309,265L311,265L314,265L316,264L316,263L316,261L316,260L316,258L317,257L317,255L318,252L319,251L320,250L325,247L327,246L328,242L331,240L330,239L328,237L327,236L325,235L321,235L320,234L315,230L311,228L309,226L310,224L311,222L311,221L312,221L314,220L315,219L316,218L317,217L318,215L317,213L316,212L314,211L313,207L311,206L310,207L309,207L308,206L307,205L307,203L306,201L306,200L304,199L304,198L303,197L302,196L302,194L303,192L304,191L303,190L299,189L298,188L298,187L297,181L295,179L295,177L295,175L295,174L295,172L296,170L297,166L295,163L294,161L292,159L291,158L287,156L287,157L286,158L285,158L283,158L282,157L281,156L280,154L278,154L278,155L273,157L272,157L270,157L269,158L266,159L266,158L266,156L266,155L266,153L266,152L263,150L263,149L261,147L260,147L258,147L257,147L256,147L255,146L254,145L254,142L254,141L253,140L252,140L239,145L235,148L233,150L232,151L231,153L230,153L229,152L226,152L225,149L226,148L226,147L227,146L226,145L224,145L223,143L221,143L221,144L220,144L218,145L218,146L217,147L216,147L213,146L211,145L205,140L200,142L199,143L198,143L197,142L196,139L195,138L194,138L192,138L187,138L185,140L183,142L183,143L183,144L182,145L179,147L166,152L163,151L163,150L162,148L161,148L154,149L150,150L147,153L149,156L150,158L151,159L153,159L154,161L153,162L154,164L156,165L157,165L158,165L160,165L160,166L160,167L160,169L160,171L160,172L160,173L161,174L163,176L164,177L164,179L165,180L167,179L167,178L168,178L169,176L170,176L170,174L171,174L172,176L178,180L178,181L177,183L176,184L177,185L179,185L182,184L183,183L185,183L186,184L189,183L190,183L191,183L193,184L193,185L194,188L195,188L201,188L204,188L205,188L207,189L207,190L208,191L213,190L215,190L217,192L216,194L215,195L215,197L215,200L215,201L215,203L215,204L214,205L212,208L211,213L213,213L218,217L219,217L221,217L223,217L225,218L225,220L225,221L224,222L223,222L222,222L221,223L220,225L219,226L218,227L213,227L212,227L211,228L210,229L211,231L215,232L216,233L216,234L218,240L220,240L222,238L224,239L225,239L228,241L229,243L230,244L230,246L230,248L230,249L231,251L231,253L230,253L230,254L230,255L228,257L229,258L231,258L232,259L232,261L232,263L233,264L233,265L233,267L234,274L234,275L233,277L231,278L229,279L230,280L231,281L231,281L234,282L234,284L234,285L233,286L233,287L233,289L235,290L236,292L237,292L238,293L240,293L241,294L242,298L243,300L242,301L241,303L241,304L242,305L250,304L250,305Z " data-fips="LH57" data-hasc="LT.KS" data-name="Kauno" data-postal="KS" data-varname="Kaunas|Kowno|Kovno"/><path d="M204,337L205,332L205,330L205,329L205,328L206,327L206,326L207,323L208,321L210,320L212,319L215,319L215,317L214,316L214,315L215,314L222,311L222,310L222,308L222,307L222,306L223,305L223,304L231,298L232,298L234,300L235,301L236,303L241,304L241,303L242,301L243,300L242,298L241,294L240,293L238,293L237,292L236,292L235,290L233,289L233,287L233,286L234,285L234,284L234,282L231,281L231,281L230,280L229,279L231,278L233,277L234,275L234,274L233,267L233,265L233,264L232,263L232,261L232,259L231,258L229,258L228,257L230,255L230,254L230,253L231,253L231,251L230,249L230,248L230,246L230,244L229,243L228,241L225,239L224,239L222,238L220,240L218,240L216,234L216,233L215,232L211,231L210,229L211,228L212,227L213,227L218,227L219,226L220,225L221,223L222,222L223,222L224,222L225,221L225,220L225,218L223,217L221,217L219,217L218,217L213,213L211,213L203,214L176,208L174,209L172,210L171,211L170,211L165,210L161,211L156,212L156,213L153,214L146,215L144,215L142,214L142,213L139,214L140,215L141,218L142,225L143,228L144,230L146,231L151,231L152,232L153,233L153,234L155,234L154,236L154,237L159,240L160,241L161,243L162,249L163,252L162,254L161,257L160,258L157,260L156,262L155,263L154,264L153,265L152,265L152,266L152,268L150,270L150,271L149,273L150,276L150,278L150,281L148,288L147,299L147,305L149,310L154,320L156,319L159,314L161,313L163,314L169,317L172,316L172,317L173,318L173,320L174,321L175,321L178,323L178,324L177,326L177,327L179,329L181,329L183,329L185,328L186,329L192,334L195,336L202,338L204,340Z " data-fips="LH59" data-hasc="LT.MA" data-name="Marijampoles" data-postal="MA" data-varname="Marijampole|Mariampol"/><path d="M299,164L301,164L302,164L305,160L306,159L307,157L307,155L308,153L309,151L310,151L312,152L313,152L315,152L315,150L313,149L312,147L313,147L317,143L316,142L316,141L316,138L316,137L317,136L318,135L319,133L319,132L319,130L318,128L317,128L316,127L315,126L315,125L318,124L319,125L321,126L322,125L322,124L322,122L319,120L320,118L320,116L326,117L327,116L328,116L331,117L332,117L333,116L334,115L337,115L338,115L339,114L342,114L348,114L349,115L350,117L352,119L352,120L352,121L354,121L356,120L366,116L367,116L369,117L370,116L371,115L370,113L371,111L377,107L379,109L379,110L381,112L382,113L383,112L384,111L385,112L387,115L390,113L391,112L393,112L402,111L403,111L403,112L404,113L407,110L407,109L408,106L410,106L411,106L413,107L414,105L415,101L416,99L418,95L418,93L419,92L420,91L422,89L422,88L423,87L424,86L424,84L424,82L426,79L418,74L409,64L404,61L403,60L402,58L400,53L400,52L399,52L394,52L392,52L388,50L383,51L354,47L351,45L348,40L347,35L346,34L343,31L342,29L341,27L339,18L337,11L335,9L333,8L332,9L332,11L332,13L331,14L328,13L318,18L314,21L308,30L306,32L301,35L299,36L296,35L290,31L288,30L285,31L275,36L273,36L273,39L273,41L273,42L272,43L272,44L272,46L273,46L275,46L275,47L275,50L275,51L274,52L271,52L270,54L270,55L269,56L269,58L269,59L267,62L266,64L266,67L265,68L264,69L264,68L262,68L262,69L262,71L262,75L262,76L262,77L263,78L264,79L265,79L267,80L267,81L267,83L267,85L266,87L267,89L266,91L264,92L262,93L261,94L260,95L260,97L260,98L256,98L257,103L260,104L261,106L261,107L262,108L263,111L264,114L264,116L264,118L263,119L263,120L262,120L261,121L261,123L262,127L262,129L261,129L259,129L257,131L254,131L254,133L252,136L251,138L252,140L253,140L254,141L254,142L254,145L255,146L256,147L257,147L258,147L260,147L261,147L263,149L263,150L266,152L266,153L266,155L266,156L266,158L266,159L269,158L270,157L272,157L273,157L278,155L278,154L280,154L281,156L282,157L283,158L285,158L286,158L287,157L287,156L291,158L292,159L294,161L295,163L297,166Z " data-fips="LH60" data-hasc="LT.PA" data-name="Panevezio" data-postal="PA" data-varname="Paneveys|Ponewiesch|Ponewjesh|Poneviezli"/><path d="M232,151L233,150L235,148L239,145L251,138L252,136L254,133L254,131L257,131L259,129L261,129L262,129L262,127L261,123L261,121L262,120L263,120L263,119L264,118L264,116L264,114L263,111L262,108L261,107L261,106L260,104L257,103L256,98L260,98L260,97L260,95L261,94L262,93L264,92L266,91L267,89L266,87L267,85L267,83L267,81L267,80L265,79L264,79L263,78L262,77L262,76L262,75L262,71L262,69L262,68L264,68L264,69L265,68L266,67L266,64L267,62L269,59L269,58L269,56L270,55L270,54L271,52L274,52L275,51L275,50L275,47L275,46L273,46L272,46L272,44L272,43L273,42L273,41L273,39L273,36L273,37L270,36L268,34L260,28L250,25L247,25L241,26L239,26L239,24L238,23L237,22L235,22L229,22L226,23L221,26L218,26L204,19L202,19L193,21L191,22L192,24L188,28L184,29L180,26L177,19L175,14L172,13L170,13L164,17L152,22L151,22L150,21L146,17L144,16L143,17L142,18L142,20L143,21L143,23L142,24L142,25L140,26L139,26L138,26L136,25L135,25L134,26L133,28L133,28L132,30L133,31L133,32L133,34L131,36L130,37L128,40L126,49L129,50L130,51L129,53L129,54L130,54L131,55L131,56L132,57L133,58L134,58L135,58L139,57L142,57L143,57L144,56L145,56L146,55L148,54L150,54L151,55L152,56L152,57L151,58L152,60L152,61L153,62L152,63L151,63L150,64L146,65L145,66L145,67L145,70L145,72L145,73L145,74L143,75L143,77L143,78L144,79L145,80L146,80L148,79L148,78L150,78L151,80L151,81L153,82L151,83L150,84L151,85L148,88L147,92L146,93L145,94L144,94L142,94L142,95L141,96L142,99L141,100L140,101L139,102L138,102L137,103L136,103L135,104L136,108L136,109L136,111L135,112L135,114L135,115L136,117L136,118L135,119L132,124L132,125L133,126L135,128L134,129L134,131L135,133L136,134L137,135L141,138L142,139L145,144L146,144L146,145L144,148L145,152L147,153L150,150L154,149L161,148L162,148L163,150L163,151L166,152L179,147L182,145L183,144L183,143L183,142L185,140L187,138L192,138L194,138L195,138L196,139L197,142L198,143L199,143L200,142L205,140L211,145L213,146L216,147L217,147L218,146L218,145L220,144L221,144L221,143L223,143L224,145L226,145L227,146L226,147L226,148L225,149L226,152L229,152L230,153L231,153Z " data-fips="LH61" data-hasc="LT.SH" data-name="iauliai" data-postal="SH" data-varname="iauliai|Schaulen|Shavli"/><path d="M153,214L156,213L156,212L161,211L165,210L170,211L171,211L172,210L174,209L176,208L203,214L211,213L212,208L214,205L215,204L215,203L215,201L215,200L215,197L215,195L216,194L217,192L215,190L213,190L208,191L207,190L207,189L205,188L204,188L201,188L195,188L194,188L193,185L193,184L191,183L190,183L189,183L186,184L185,183L183,183L182,184L179,185L177,185L176,184L177,183L178,181L178,180L172,176L171,174L170,174L170,176L169,176L168,178L167,178L167,179L165,180L164,179L164,177L163,176L161,174L160,173L160,172L160,171L160,169L160,167L160,166L160,165L158,165L157,165L156,165L154,164L153,162L154,161L153,159L151,159L150,158L149,156L147,153L145,152L144,148L146,145L146,144L145,144L142,139L141,138L137,135L136,134L135,133L134,131L134,129L135,128L133,126L132,125L132,124L125,123L124,123L123,122L120,122L119,122L117,120L115,120L108,121L105,122L103,123L102,124L101,124L100,123L99,124L98,125L98,126L98,128L97,129L95,131L93,131L92,131L82,132L83,133L82,135L77,138L77,139L78,140L79,146L79,147L81,148L81,149L82,157L83,158L86,157L87,157L89,158L92,160L95,161L96,162L96,163L94,164L94,168L93,169L92,170L90,172L84,179L83,181L83,182L84,182L87,183L95,187L96,188L96,189L97,192L98,195L98,196L98,199L99,200L100,199L101,198L104,197L106,198L108,199L108,200L111,200L113,200L114,200L116,201L116,203L115,205L115,206L114,208L114,212L128,215L137,212L139,214L142,213L142,214L144,215L146,215Z " data-fips="LH62" data-hasc="LT.TG" data-name="Taurages" data-postal="TG" data-varname="Taurage|Tauroggen"/><path d="M379,219L380,218L391,214L400,212L403,213L404,214L409,214L410,214L410,213L410,212L410,211L411,209L412,208L411,207L412,206L414,203L412,202L411,201L409,200L408,199L407,197L406,196L403,194L402,192L402,191L401,190L402,187L402,186L405,184L407,181L408,180L409,174L413,176L416,177L419,175L420,176L421,178L422,179L423,179L425,178L427,179L427,180L428,181L430,180L431,180L432,179L432,178L433,177L434,175L435,175L441,174L442,175L444,176L445,177L446,178L446,179L445,180L445,181L445,183L445,184L446,185L448,184L449,183L450,183L452,184L455,186L459,187L471,187L480,184L484,181L486,180L490,178L491,178L493,179L495,183L497,183L499,181L500,178L499,176L497,175L483,173L478,174L476,174L471,172L470,172L469,170L470,167L472,163L473,162L473,156L474,155L477,152L477,150L476,147L476,143L477,140L479,138L481,135L482,132L482,128L481,124L480,120L475,120L471,119L459,114L453,110L449,102L446,98L444,94L436,87L430,82L426,79L424,82L424,84L424,86L423,87L422,88L422,89L420,91L419,92L418,93L418,95L416,99L415,101L414,105L413,107L411,106L410,106L408,106L407,109L407,110L404,113L403,112L403,111L402,111L393,112L391,112L390,113L387,115L385,112L384,111L383,112L382,113L381,112L379,110L379,109L377,107L371,111L370,113L371,115L370,116L369,117L367,116L366,116L356,120L354,121L352,121L352,120L352,119L350,117L349,115L348,114L342,114L339,114L338,115L337,115L334,115L333,116L332,117L331,117L328,116L327,116L326,117L320,116L320,118L319,120L322,122L322,124L322,125L321,126L319,125L318,124L315,125L315,126L316,127L317,128L318,128L319,130L319,132L319,133L318,135L317,136L316,137L316,138L316,141L316,142L317,143L327,155L329,157L329,159L329,160L328,161L327,162L327,164L327,165L328,166L328,167L329,168L331,168L335,168L336,169L336,171L337,172L339,171L342,170L343,170L343,171L344,172L344,173L344,175L345,176L352,175L352,179L353,180L355,181L356,183L358,183L359,183L360,183L361,183L362,184L361,186L360,189L360,191L362,191L363,191L367,193L368,194L368,195L366,196L365,197L364,198L362,200L359,201L359,204L358,206L358,208L359,209L362,210L364,211L365,212L366,214L366,217L370,217L376,219L377,219Z " data-fips="LH64" data-hasc="LT.UN" data-name="Utenos" data-postal="UN" data-varname="Utena"/><path d="M356,353L360,351L363,347L364,344L366,336L367,334L369,334L374,336L381,336L384,334L387,329L389,328L390,328L391,329L397,338L395,338L393,339L393,341L395,342L396,343L395,344L392,345L392,346L393,349L395,351L397,352L405,353L407,353L408,352L409,350L410,350L413,350L414,350L416,348L417,346L417,338L418,336L417,335L417,335L416,333L415,332L414,330L413,329L411,329L410,327L410,325L410,324L408,323L407,324L402,327L398,327L396,326L395,324L395,321L397,317L401,312L402,309L402,306L402,303L402,299L403,296L405,294L410,291L411,289L413,287L413,284L412,281L410,276L409,273L409,271L410,269L410,268L411,266L411,265L410,257L410,255L411,254L414,252L415,251L415,250L415,249L414,246L414,245L415,242L417,240L419,238L420,236L421,235L421,233L421,232L422,231L425,230L427,230L430,230L432,230L442,228L445,226L446,225L448,222L449,220L452,213L452,212L453,210L452,206L453,204L455,200L459,199L469,201L470,200L471,200L472,199L473,199L482,202L484,202L485,200L486,195L486,191L487,190L488,188L490,185L492,184L495,183L493,179L491,178L490,178L486,180L484,181L480,184L471,187L459,187L455,186L452,184L450,183L449,183L448,184L446,185L445,184L445,183L445,181L445,180L446,179L446,178L445,177L444,176L442,175L441,174L435,175L434,175L433,177L432,178L432,179L431,180L430,180L428,181L427,180L427,179L425,178L423,179L422,179L421,178L420,176L419,175L416,177L413,176L409,174L408,180L407,181L405,184L402,186L402,187L401,190L402,191L402,192L403,194L406,196L407,197L408,199L409,200L411,201L412,202L414,203L412,206L411,207L412,208L411,209L410,211L410,212L410,213L410,214L409,214L404,214L403,213L400,212L391,214L380,218L379,219L377,219L376,219L370,217L366,217L366,214L365,212L364,211L362,210L359,209L358,208L358,206L359,204L359,201L362,200L364,198L365,197L366,196L368,195L368,194L367,193L363,191L362,191L360,191L360,189L361,186L362,184L361,183L360,183L359,183L358,183L356,183L355,181L353,180L352,179L352,175L345,176L344,175L344,173L344,172L343,171L343,170L342,170L339,171L337,172L336,171L336,169L335,168L331,168L329,168L328,167L328,166L327,165L327,164L327,162L328,161L329,160L329,159L329,157L327,155L313,147L312,147L313,149L315,150L315,152L313,152L312,152L310,151L309,151L308,153L307,155L307,157L306,159L305,160L302,164L301,164L299,164L297,166L296,170L295,172L295,174L295,175L295,177L295,179L297,181L298,187L298,188L299,189L303,190L304,191L303,192L302,194L302,196L303,197L304,198L304,199L306,200L306,201L307,203L307,205L308,206L309,207L310,207L311,206L313,207L314,211L316,212L317,213L318,215L317,217L316,218L315,219L314,220L312,221L311,221L311,222L310,224L309,226L311,228L315,230L320,234L321,235L325,235L327,236L328,237L330,239L331,240L328,242L327,246L325,247L320,250L319,251L318,252L317,255L317,257L316,258L316,260L316,261L316,263L316,264L314,265L311,265L309,265L308,267L305,268L303,269L303,270L303,272L303,273L303,274L303,275L303,278L305,279L305,280L304,283L303,284L302,284L300,284L300,285L299,286L299,289L299,291L298,293L298,296L298,298L298,299L299,301L300,302L299,305L299,306L299,307L299,308L301,309L309,310L310,310L313,309L314,308L316,307L318,306L319,306L321,307L324,308L325,309L324,311L325,313L327,313L328,312L329,311L331,312L332,312L337,309L344,306L348,306L349,313L348,314L347,315L344,316L344,316L343,317L343,319L342,324L342,326L338,330L329,340L329,341L329,342L330,343L332,344L334,345L334,346L335,349L336,352L336,352L337,351L341,351L345,351L352,354Z " data-fips="LH65" data-hasc="LT.VI" data-name="Vilniaus" data-postal="VI" data-varname="Vilnius|Wilna|Vilna|Vilnious"/></g></svg>