<?xml version="1.0" ?><!DOCTYPE svg  PUBLIC '-//W3C//DTD SVG 1.1//EN'  'http://www.w3.org/Graphics/SVG/1.1/DTD/svg11.dtd'><svg enable_background="new 0 0 500 401" height="401px" style="stroke-linejoin: round; stroke:#000; fill:#f6f3f0;" version="1.1" viewBox="0 0 500 401" width="500px" xmlns="http://www.w3.org/2000/svg" xmlns:xlink="http://www.w3.org/1999/xlink"><defs><style type="text/css"><![CDATA[path { fill-rule: evenodd; }
#context path { fill: #eee; stroke: #bbb; } ]]></style></defs><metadata><views><view h="401" padding="0" w="500"><proj id="laea" lat0="49.771" lon0="6.088"/><bbox h="9.05" w="6.27" x="997.03" y="995.01"/><llbbox lat0="-90" lat1="90" lon0="-180" lon1="180"/></view></views></metadata><g id="admin1"><path d="M161,255L168,253L183,252L189,251L198,247L210,243L210,237L210,231L211,225L212,217L212,214L217,209L218,206L222,201L223,197L224,195L227,191L233,188L236,188L240,189L245,192L249,194L252,195L264,191L267,191L277,194L280,197L287,204L298,209L305,197L305,195L306,193L304,192L303,191L302,189L302,186L304,182L306,180L309,178L315,178L314,174L312,171L307,167L295,162L290,157L278,129L272,119L268,126L266,122L260,106L254,97L253,93L254,87L252,75L249,71L246,69L249,62L249,61L247,60L249,45L250,38L253,30L248,27L247,23L247,18L246,13L241,9L239,9L236,11L233,13L225,14L221,14L217,12L215,8L214,2L211,0L211,0L206,4L199,5L196,10L194,18L191,25L186,31L173,37L167,42L166,46L165,55L165,58L162,61L157,66L155,69L156,76L156,81L155,85L152,88L145,91L143,94L142,101L145,104L146,107L142,115L139,117L134,119L132,120L129,124L128,127L127,129L126,133L113,154L112,159L116,161L124,167L127,172L118,171L118,174L117,176L117,177L116,179L119,182L115,185L114,190L114,197L116,204L120,210L123,212L127,212L132,215L134,218L142,235L143,237L143,245L143,246L145,248L150,250L152,251L154,251L157,250L159,251L161,254L161,255Z " data-fips="LU01" data-hasc="LU.DI" data-name="Diekirch" data-postal="DI" data-varname="Dikrech|Dikkrich"/><path d="M334,387L332,371L335,348L335,331L337,325L343,316L352,305L356,297L358,294L359,291L358,288L356,286L354,284L353,282L355,280L359,274L385,258L384,256L381,254L383,251L384,250L387,251L385,248L383,244L382,240L383,235L386,232L386,230L385,227L385,223L387,211L387,207L388,206L386,204L385,204L374,201L357,201L351,199L345,195L335,186L329,182L326,182L321,185L318,185L318,183L315,178L309,178L306,180L304,182L302,186L302,189L303,191L304,192L306,193L305,195L305,197L298,209L304,215L306,217L308,219L308,220L304,233L299,233L297,233L292,236L289,238L273,264L300,265L305,266L310,269L312,272L316,287L322,298L314,304L313,306L312,308L314,310L316,312L317,314L318,316L317,320L311,321L308,322L297,333L294,338L295,345L299,364L300,373L317,385L326,391L334,391Z " data-fips="LU02" data-hasc="LU.GR" data-name="Grevenmacher" data-postal="GR" data-varname="Grivemaacher"/><path d="M204,397L234,395L239,393L243,388L247,386L248,383L248,380L249,377L252,376L262,375L260,370L280,367L290,368L300,372L300,373L299,364L295,345L294,338L297,333L308,322L311,321L317,320L318,316L317,314L316,312L314,310L312,308L313,306L314,304L322,298L316,287L312,272L310,269L305,266L300,265L273,264L289,238L292,236L297,233L299,233L304,233L308,220L308,219L306,217L304,215L298,209L287,204L280,197L277,194L267,191L264,191L252,195L249,194L245,192L240,189L236,188L233,188L227,191L224,195L223,197L222,201L218,206L217,209L212,214L212,217L211,225L210,231L210,237L210,243L198,247L189,251L183,252L168,253L161,255L161,255L161,258L160,260L158,262L158,265L158,269L157,270L156,272L157,276L160,278L167,279L169,281L171,289L169,294L166,297L163,300L158,313L156,318L152,322L158,325L154,334L146,342L138,346L149,361L155,367L164,371L186,377L193,383L198,399Z " data-fips="LU03" data-hasc="LU.LU" data-name="Luxembourg" data-postal="LU" data-varname="Ltzebuerg|Luxemburg"/></g></svg>