<?xml version="1.0" ?><!DOCTYPE svg  PUBLIC '-//W3C//DTD SVG 1.1//EN'  'http://www.w3.org/Graphics/SVG/1.1/DTD/svg11.dtd'><svg enable_background="new 0 0 500 401" height="401px" style="stroke-linejoin: round; stroke:#000; fill:#f6f3f0;" version="1.1" viewBox="0 0 500 401" width="500px" xmlns="http://www.w3.org/2000/svg" xmlns:xlink="http://www.w3.org/1999/xlink"><defs><style type="text/css"><![CDATA[path { fill-rule: evenodd; }
#context path { fill: #eee; stroke: #bbb; } ]]></style></defs><metadata><views><view h="401" padding="0" w="500"><proj id="laea" lat0="41.6" lon0="21.698"/><bbox h="18.76" w="23.66" x="988.41" y="990.47"/><llbbox lat0="-90" lat1="90" lon0="-180" lon1="180"/></view></views></metadata><g id="admin1"><path d="M54,383L55,382L58,380L62,378L63,374L64,370L67,364L70,357L70,352L69,348L69,344L69,341L69,338L69,335L70,332L70,331L67,329L65,328L63,327L62,324L60,319L60,317L57,316L56,315L55,314L47,314L43,314L41,316L40,320L37,326L36,332L36,336L37,336L39,338L41,342L45,359L49,375L51,381L54,383Z " data-fips="MK" data-hasc="" data-name="Ohrid" data-postal="" data-varname="Ochrida|Okhrida"/><path d="M129,397L143,393L148,393L156,394L156,392L157,389L158,386L158,385L159,383L158,382L156,381L156,377L156,374L155,373L152,373L150,373L148,372L148,370L147,369L145,365L142,364L139,364L136,364L134,364L132,363L132,361L132,359L131,358L129,356L128,354L128,352L128,349L127,349L123,348L122,346L122,343L123,341L124,340L126,338L128,335L129,332L128,329L127,327L127,326L126,325L124,322L123,318L123,314L122,309L121,307L120,307L118,307L116,305L116,303L114,307L111,309L107,312L103,315L100,317L95,319L93,322L91,324L89,327L87,331L86,336L86,340L86,342L86,344L84,345L83,346L83,348L83,350L85,351L86,354L86,356L85,359L84,361L82,361L79,361L76,363L75,366L75,369L74,372L74,375L75,376L75,378L75,378L86,380L95,383L99,386L100,391L100,398Z " data-fips="MK86" data-hasc="MK.RE" data-name="Resen" data-postal="RE" data-varname=""/><path d="M36,332L37,326L40,320L41,316L43,314L47,314L55,314L56,315L56,315L57,313L57,312L57,311L57,309L57,308L56,307L55,306L55,304L55,303L56,301L57,299L59,297L60,292L61,287L61,284L59,282L58,280L57,278L56,276L56,274L56,270L55,264L53,260L51,256L49,252L47,248L47,247L45,247L44,248L42,251L39,253L34,252L27,252L21,252L18,252L18,253L18,257L17,261L15,264L12,268L9,269L7,268L6,274L7,282L10,296L12,303L19,313L22,319L23,325L23,330L24,333L28,335L30,336L33,336L36,336Z " data-fips="MK99" data-hasc="MK.VV" data-name="Vevcani" data-postal="VV" data-varname=""/><path d="M172,394L175,392L182,385L187,383L192,383L207,385L207,385L208,382L208,379L207,376L207,374L207,372L204,369L202,366L199,363L199,361L197,360L194,360L194,358L194,354L194,352L192,350L191,349L191,348L190,345L191,344L191,342L192,341L192,338L192,337L192,337L190,336L189,336L188,337L186,338L184,339L183,339L182,338L180,338L179,336L179,335L179,333L179,330L179,328L179,326L179,325L177,324L175,323L173,321L171,319L170,317L169,315L169,312L170,311L171,309L171,307L169,304L168,304L167,303L165,302L164,302L163,303L161,307L157,309L155,311L153,311L152,313L150,315L148,315L145,317L143,320L141,321L138,322L136,322L133,323L132,324L129,325L127,326L127,327L128,329L129,332L128,335L126,338L124,340L123,341L122,343L122,346L123,348L127,349L128,349L128,352L128,354L129,356L131,358L132,359L132,361L132,363L134,364L136,364L139,364L142,364L145,365L147,369L148,370L148,372L150,373L152,373L155,373L156,374L156,377L156,381L158,382L159,383L158,385L158,386L157,389L156,392L156,394L159,395L165,395Z " data-fips="MK06" data-hasc="MK.TL" data-name="Bitola" data-postal="TL" data-varname=""/><path d="M129,325L132,324L133,323L136,322L138,322L141,321L143,320L145,317L148,315L150,315L152,313L153,311L155,311L157,309L161,307L163,303L164,302L165,302L165,299L165,297L165,294L165,292L164,290L162,288L161,285L161,282L158,279L156,278L155,279L153,279L151,279L151,278L151,277L151,274L151,271L151,268L150,266L147,266L144,265L141,266L141,264L141,262L140,261L137,259L135,258L132,259L131,261L128,264L125,266L119,266L115,266L110,266L105,268L101,272L99,274L99,277L100,279L101,281L103,282L105,283L107,284L107,287L109,290L110,291L112,293L112,296L113,299L114,300L115,302L116,303L116,305L118,307L120,307L121,307L122,309L123,314L123,318L124,322L126,325L127,326Z " data-fips="MK24" data-hasc="MK.DM" data-name="Demir Hisar" data-postal="DM" data-varname=""/><path d="M64,384L71,379L75,378L75,376L74,375L74,372L75,369L75,366L76,363L79,361L82,361L84,361L85,359L86,356L86,354L85,351L83,350L83,348L83,346L84,345L86,344L86,342L86,340L86,336L87,331L89,327L91,324L93,322L95,319L100,317L103,315L107,312L111,309L114,307L116,303L115,302L114,300L111,301L106,300L102,299L97,296L92,294L90,293L87,293L84,293L81,294L76,294L74,295L73,296L72,298L70,299L68,302L68,304L68,307L68,309L67,310L64,311L63,313L60,313L57,313L56,315L56,315L57,316L60,317L60,319L62,324L63,327L65,328L67,329L70,331L70,332L69,335L69,338L69,341L69,344L69,348L70,352L70,357L67,364L64,370L63,374L62,378L58,380L55,382L54,383L54,383L56,385L61,386Z " data-fips="MK74" data-hasc="MK.OD" data-name="Ohrid" data-postal="OD" data-varname=""/><path d="M60,313L63,313L64,311L67,310L68,309L68,307L68,304L68,302L70,299L72,298L73,296L74,295L76,294L81,294L84,293L87,293L90,293L92,294L97,296L102,299L106,300L111,301L114,300L113,299L112,296L112,293L110,291L109,290L107,287L107,284L105,283L103,282L101,281L100,279L99,277L99,274L98,272L97,269L95,267L91,266L90,263L90,260L90,256L88,252L86,248L79,248L75,247L69,246L64,246L55,247L49,246L47,248L49,252L51,256L53,260L55,264L56,270L56,274L56,276L57,278L58,280L59,282L61,284L61,287L60,292L59,297L57,299L56,301L55,303L55,304L55,306L56,307L57,308L57,309L57,311L57,312L57,313Z " data-fips="MK00" data-hasc="" data-name="Debarca" data-postal="" data-varname=""/><path d="M240,149L242,147L243,146L244,146L245,147L246,149L248,149L249,149L250,148L250,145L251,143L252,140L252,138L253,135L253,133L252,131L252,128L253,127L256,127L259,126L261,124L263,123L265,121L265,118L266,115L266,113L264,112L263,109L261,108L258,108L256,108L255,109L254,110L252,110L251,109L250,107L248,106L247,105L244,104L242,103L241,105L240,107L239,109L239,111L240,112L241,114L240,115L239,116L237,116L235,116L233,115L232,114L230,114L229,115L227,117L224,118L222,119L222,120L220,122L219,124L220,125L221,126L223,126L224,126L226,126L228,126L230,128L232,128L233,129L233,132L233,139L233,142L231,144L231,146L233,147L235,147L237,147L238,146L239,146L239,148L239,150L240,150Z " data-fips="MK79" data-hasc="MK.PE" data-name="Skopje" data-postal="PE" data-varname=""/><path d="M135,252L136,251L138,251L141,249L143,249L147,246L146,244L144,243L142,243L140,242L139,240L138,238L138,236L138,234L137,233L134,233L133,235L131,235L130,236L128,236L126,236L125,236L120,236L117,236L116,237L116,239L117,241L117,243L117,245L119,248L121,247L122,247L122,247L124,246L126,246L126,247L128,250L130,251L133,252L134,253Z " data-fips="MK80" data-hasc="MK.PN" data-name="Southwestern" data-postal="PN" data-varname=""/><path d="M284,338L285,335L286,334L289,331L289,331L289,328L289,326L289,324L287,324L286,324L285,324L283,324L282,323L282,321L281,317L282,312L282,309L280,306L279,306L278,304L278,301L278,298L279,296L280,294L281,292L282,291L280,290L278,290L277,290L275,290L273,290L271,290L270,288L269,284L269,282L269,278L269,275L269,274L270,271L270,270L270,268L270,266L270,264L269,262L268,260L268,258L268,256L268,253L268,252L268,248L268,247L267,248L266,249L266,250L265,251L264,251L263,250L260,248L259,246L259,244L258,243L257,241L257,240L255,239L253,238L251,237L251,236L250,235L248,235L247,236L246,237L244,237L242,237L240,238L239,239L239,241L239,244L238,247L237,248L235,248L233,248L233,246L232,245L230,244L229,244L226,243L224,244L222,246L221,249L221,252L219,253L217,254L214,257L212,258L206,258L204,259L201,260L199,260L197,260L196,260L195,262L193,263L193,265L191,265L190,266L188,268L185,271L185,273L186,273L186,275L187,276L189,276L191,276L192,277L192,279L191,281L190,282L190,284L189,288L188,290L187,291L185,293L183,294L181,294L179,295L179,296L180,298L183,299L185,299L188,300L190,304L192,306L193,308L194,309L196,309L198,309L200,310L201,312L205,314L207,315L209,315L211,314L212,313L213,313L217,316L219,317L222,317L225,318L225,319L227,317L229,317L229,318L230,320L231,322L234,324L237,325L240,325L245,326L247,326L251,328L253,329L256,330L258,330L260,332L262,334L264,335L266,336L269,336L271,336L272,334L273,335L274,336L275,338L277,340L279,340L284,342Z " data-fips="MK82" data-hasc="MK.PP" data-name="Prilep" data-postal="PP" data-varname=""/><path d="M342,139L344,139L346,138L343,132L340,128L340,126L341,125L342,125L344,123L345,122L347,121L348,119L348,117L349,115L350,112L352,111L353,111L354,110L356,109L358,106L361,104L362,102L363,100L365,99L367,98L368,95L368,92L367,88L364,86L362,85L358,84L355,84L353,85L351,85L351,90L351,93L349,95L347,94L346,93L344,91L343,92L342,93L341,93L339,93L338,92L337,90L335,89L333,90L328,92L326,93L324,93L321,93L320,93L319,94L317,96L316,98L316,100L316,101L314,100L313,99L311,98L309,98L308,98L307,101L306,103L306,106L306,107L309,110L312,112L314,114L316,117L318,121L319,122L322,123L322,124L322,126L321,128L320,129L321,131L323,133L324,132L325,132L327,132L328,133L329,134L330,133L331,133L332,134L335,133L336,133L337,135L337,136L337,138L339,139Z " data-fips="MK83" data-hasc="MK.PT" data-name="Probistip" data-postal="PT" data-varname=""/><path d="M403,225L403,224L402,223L401,221L402,220L403,220L405,219L406,218L408,215L409,215L412,217L414,219L416,220L418,222L420,222L421,221L422,219L422,216L422,215L422,213L421,211L421,209L421,208L419,207L418,204L416,203L416,201L417,199L418,198L419,195L420,194L421,194L424,194L426,193L426,191L425,189L425,187L426,185L428,182L429,181L429,180L428,179L427,178L425,177L425,173L424,170L424,169L423,168L421,168L419,167L417,166L415,164L414,163L412,162L411,162L410,161L409,159L408,158L406,158L406,159L406,160L404,161L402,162L400,162L397,162L396,161L395,161L394,159L392,158L390,158L389,158L387,160L385,161L385,165L385,167L384,170L382,171L382,173L381,173L380,175L378,178L377,181L376,182L376,184L374,185L372,184L370,184L368,183L367,182L365,181L364,182L363,183L361,185L360,186L361,188L362,192L363,193L363,195L364,197L364,199L364,201L367,203L369,203L370,203L372,204L373,205L375,207L377,207L379,207L383,207L385,207L387,209L390,212L392,215L393,217L394,218L394,219L394,221L393,221L392,222L392,223L393,224L395,225L397,225L401,226Z " data-fips="MK84" data-hasc="MK.RV" data-name="Radovis" data-postal="RV" data-varname=""/><path d="M332,75L334,75L336,74L338,73L340,71L340,70L341,67L342,67L342,68L343,69L346,69L348,69L351,69L355,68L357,67L358,66L359,67L361,69L365,70L368,71L370,73L371,72L372,72L375,72L377,71L379,71L380,71L382,71L384,71L385,70L387,69L389,66L393,64L396,62L398,61L401,59L399,55L396,47L389,42L369,16L366,16L362,15L359,12L356,9L356,7L356,3L355,1L353,2L348,7L321,18L315,20L312,19L312,23L313,25L313,27L313,30L313,32L312,33L311,33L308,34L307,35L308,37L309,39L309,40L309,42L309,45L309,47L310,48L312,51L312,53L312,54L311,55L310,56L309,57L311,59L313,59L313,60L314,63L314,65L317,65L319,65L322,66L324,69L327,72L329,74L331,75Z " data-fips="MK85" data-hasc="MK.KZ" data-name="Kriva Palanka" data-postal="KZ" data-varname=""/><path d="M277,247L278,246L281,246L284,246L285,245L286,242L287,241L288,241L290,241L291,242L293,244L294,244L295,244L295,242L296,241L297,240L299,238L300,234L299,231L301,228L301,228L301,223L300,218L299,214L297,214L296,215L295,218L295,219L294,219L292,219L291,218L289,217L288,218L286,220L286,222L285,223L282,223L279,222L278,221L276,220L274,221L274,222L274,224L275,226L275,228L274,229L273,229L272,229L270,230L269,230L268,232L267,234L267,236L267,239L267,240L268,242L270,245L272,246L275,247Z " data-fips="MK87" data-hasc="MK.RM" data-name="Vardar" data-postal="RM" data-varname=""/><path d="M152,129L152,127L155,126L160,125L163,123L165,120L167,118L171,115L174,113L176,113L179,113L179,112L179,111L179,106L179,102L174,102L171,98L169,93L167,89L166,85L165,84L163,84L162,85L160,86L158,85L157,81L156,76L157,73L156,73L154,71L154,72L151,75L149,75L147,75L144,75L142,76L139,77L139,78L140,79L142,81L143,81L144,80L146,80L146,82L146,85L145,86L144,87L142,88L142,89L143,91L144,95L144,97L143,97L141,98L138,99L136,100L136,101L138,101L141,102L143,104L146,106L146,107L146,110L146,113L145,117L144,121L144,124L146,126L147,126L150,129L151,129L151,130Z " data-fips="MK90" data-hasc="MK.AJ" data-name="Saraj" data-postal="AJ" data-varname=""/><path d="M176,169L176,169L175,166L175,163L176,159L177,156L176,154L175,153L174,152L174,150L175,149L177,149L177,146L178,141L179,139L181,137L183,137L183,136L182,135L180,135L178,134L175,134L175,131L175,128L176,127L179,126L182,126L184,126L187,128L192,128L195,127L195,125L196,121L196,118L195,116L195,114L195,113L194,112L192,112L188,112L184,112L179,112L179,113L176,113L174,113L171,115L167,118L165,120L163,123L160,125L155,126L152,127L152,129L151,130L151,131L153,133L155,135L156,136L156,138L156,142L155,146L157,148L159,151L162,155L165,160L168,166L172,170L175,170Z " data-fips="MK92" data-hasc="MK.SS" data-name="Sopiste" data-postal="SS" data-varname=""/><path d="M295,72L298,72L300,69L301,65L302,62L302,60L301,57L301,56L302,55L304,55L307,55L310,56L311,55L312,54L312,53L312,51L310,48L309,47L309,45L309,42L309,40L309,39L308,37L307,35L308,34L311,33L312,33L313,32L313,30L313,27L313,25L312,23L312,19L308,19L302,17L292,11L289,11L287,12L281,18L279,18L272,18L268,19L249,30L251,32L255,35L257,35L259,36L260,36L261,38L261,40L261,41L259,42L258,42L257,43L256,44L257,47L257,48L257,51L257,53L257,54L256,55L256,57L256,58L256,60L256,63L257,65L258,67L260,69L262,71L263,72L265,72L266,70L268,69L269,69L271,68L272,67L275,67L276,67L277,68L278,69L280,69L283,70L285,70L286,69L286,68L286,67L288,66L289,66L291,66L291,68L292,71L293,73Z " data-fips="MK97" data-hasc="MK.NA" data-name="Northeastern" data-postal="NA" data-varname=""/><path d="M353,217L354,217L354,215L356,214L357,213L359,211L361,209L364,206L366,204L367,203L364,201L364,199L364,197L363,195L363,193L362,192L361,188L360,186L361,185L363,183L364,182L365,181L367,182L368,183L370,184L372,184L374,185L376,184L376,182L377,181L378,178L380,175L381,173L382,173L381,171L378,171L375,172L371,173L366,174L362,174L359,171L357,168L353,165L351,164L349,164L346,161L343,158L340,156L337,156L333,156L331,155L329,153L328,149L327,144L327,141L329,137L331,133L330,133L329,134L328,133L327,132L325,132L324,132L323,133L323,134L322,135L321,135L320,136L320,137L320,139L321,140L321,141L322,143L322,144L322,146L321,147L320,147L318,150L317,152L315,154L314,156L313,156L311,157L310,158L310,159L311,161L312,162L312,164L312,166L311,167L311,168L312,169L313,171L312,172L311,172L309,171L308,169L306,168L305,169L306,170L305,172L304,172L303,172L302,173L301,174L300,174L299,172L298,171L297,170L296,170L295,171L294,173L293,174L292,175L292,177L291,178L292,180L293,181L295,182L296,183L296,184L297,186L300,186L302,186L305,188L306,189L306,189L308,190L310,191L312,191L313,192L314,195L317,197L318,196L318,195L319,194L320,192L321,192L322,193L323,194L323,196L324,199L324,201L325,204L327,205L328,204L331,205L333,205L337,206L337,207L337,211L339,212L341,213L343,214L346,216L349,217Z " data-fips="MK98" data-hasc="MK.ST" data-name="tip" data-postal="ST" data-varname=""/><path d="M187,183L187,179L188,178L191,177L192,175L193,173L194,171L195,168L197,167L201,166L203,165L203,165L203,163L203,161L204,159L203,157L201,154L200,152L200,150L200,147L201,144L203,142L204,142L205,143L205,146L206,146L208,146L209,145L209,143L209,141L210,140L212,138L213,136L213,132L216,131L218,129L220,128L222,127L223,126L221,126L220,125L219,124L220,122L219,119L218,117L217,117L216,118L213,120L212,120L211,121L210,122L209,123L209,125L208,126L207,127L204,126L204,125L204,122L204,119L202,117L200,117L199,118L196,118L196,121L195,125L195,127L192,128L187,128L184,126L182,126L179,126L176,127L175,128L175,131L175,134L178,134L180,135L182,135L183,136L183,137L181,137L179,139L178,141L177,146L177,149L175,149L174,150L174,152L175,153L176,154L177,156L176,159L175,163L175,166L176,169L176,169L178,170L180,170L182,172L182,178L182,180L184,185L186,186Z " data-fips="MKA2" data-hasc="MK.SU" data-name="Studenicani" data-postal="SU" data-varname=""/><path d="M192,96L191,93L191,89L189,86L188,85L186,85L185,86L185,89L185,91L187,92L188,93L189,95L190,96L191,96Z " data-fips="MKA3" data-hasc="MK.CI" data-name="Cair" data-postal="CI" data-varname=""/><path d="M312,172L313,171L312,169L311,168L311,167L312,166L312,164L312,162L311,161L310,159L310,158L311,157L313,156L314,156L315,154L317,152L318,150L320,147L321,147L322,146L322,144L322,143L321,141L321,140L320,139L320,137L320,136L321,135L322,135L323,134L323,133L321,131L320,129L321,128L322,126L322,124L322,123L319,122L318,121L316,117L314,114L312,112L309,110L306,107L306,106L306,103L307,101L308,98L308,98L307,98L305,98L304,98L303,98L302,98L301,98L301,99L300,101L298,102L295,103L292,105L290,105L289,104L288,101L286,99L283,98L280,99L278,99L276,100L274,103L272,104L272,106L272,108L271,109L269,110L269,112L266,115L265,118L265,121L265,122L265,125L266,130L267,133L270,136L272,139L274,141L277,142L279,142L281,146L283,148L286,149L288,150L290,151L293,155L296,159L300,163L303,166L308,169L309,171L311,172Z " data-fips="MKA4" data-hasc="MK.SL" data-name="Sveti Nikole" data-postal="SL" data-varname=""/><path d="M260,200L260,198L261,197L262,197L264,197L266,197L268,194L269,191L270,189L271,186L274,183L276,181L277,177L277,175L277,173L276,172L274,169L273,168L272,167L271,167L270,167L269,166L270,164L270,162L272,160L272,158L272,156L271,155L270,154L269,152L268,151L268,150L268,149L270,148L271,147L272,145L274,144L274,143L272,139L270,136L267,133L266,130L265,125L265,122L265,121L263,123L261,124L259,126L256,127L253,127L252,128L252,131L253,133L253,135L252,138L252,140L251,143L250,145L250,148L249,149L248,149L246,149L245,147L244,146L243,146L242,147L240,149L240,150L239,150L239,148L239,146L238,146L237,147L235,147L233,147L231,146L230,146L230,147L230,149L230,151L231,152L232,152L232,154L232,157L231,159L229,162L228,164L227,164L224,165L220,167L221,168L223,172L224,175L225,176L226,176L228,174L229,174L230,174L231,175L233,176L235,176L238,177L240,178L241,180L241,185L243,187L244,189L244,191L244,192L245,194L246,194L248,193L249,192L250,191L251,192L251,194L251,197L251,199L253,201L258,202L260,202Z " data-fips="MKB1" data-hasc="MK.VE" data-name="Veles" data-postal="VE" data-varname=""/><path d="M119,251L122,249L122,247L121,247L119,248L117,245L117,243L117,241L116,239L116,237L117,236L120,236L123,236L123,235L124,233L125,232L127,231L128,229L131,227L133,224L136,222L137,221L137,219L136,218L133,217L131,215L130,213L129,209L128,207L127,209L126,212L123,214L121,215L119,216L118,219L117,223L115,225L113,227L110,227L107,228L105,233L104,236L103,236L102,237L101,239L102,241L102,243L105,245L108,246L108,248L108,250L109,251L111,251L114,251L117,251Z " data-fips="MKB6" data-hasc="MK.VC" data-name="Vranetica" data-postal="VC" data-varname=""/><path d="M207,166L210,166L214,166L219,166L224,165L227,164L228,164L229,162L231,159L232,157L232,154L232,152L231,152L230,151L230,149L230,147L230,146L231,144L233,142L233,139L233,132L233,129L232,128L230,128L228,126L226,126L224,126L223,126L222,127L220,128L218,129L216,131L213,132L213,136L212,138L210,140L209,141L209,143L209,145L208,146L206,146L205,146L205,143L204,142L203,142L201,144L200,147L200,150L200,152L201,154L203,157L204,159L203,161L203,163L203,165L203,165L204,166Z " data-fips="MKC2" data-hasc="MK.ZK" data-name="Zelenikovo" data-postal="ZK" data-varname=""/><path d="M156,142L156,138L156,136L155,135L153,133L151,131L151,130L151,129L150,129L147,126L146,126L144,124L144,121L145,117L146,113L146,110L146,107L146,106L143,104L141,102L138,101L136,101L135,101L133,101L132,101L131,103L130,103L126,102L124,102L123,101L124,99L124,98L123,97L122,98L120,98L116,97L116,96L114,96L113,98L112,100L113,101L115,101L115,102L116,104L119,105L118,107L116,107L115,108L114,111L115,114L117,116L119,116L120,117L120,119L120,123L122,124L124,124L125,124L126,127L125,128L124,128L123,130L123,133L123,135L125,136L128,136L130,136L133,138L134,139L136,139L139,139L140,139L141,138L141,136L142,136L144,136L145,138L147,140L149,142L151,144L153,145L155,146Z " data-fips="MKC3" data-hasc="MK.ZE" data-name="elino" data-postal="ZE" data-varname=""/><path d="M217,101L218,100L220,99L222,98L223,98L225,97L227,94L229,92L231,89L232,88L232,87L232,85L231,84L228,83L226,84L225,88L224,89L221,88L220,87L218,84L217,83L215,81L214,81L214,83L214,84L215,86L216,87L216,88L216,90L217,93L216,94L215,95L214,97L214,99L214,102L216,102Z " data-fips="MK01" data-hasc="MK.AR" data-name="Aracinovo" data-postal="AR" data-varname=""/><path d="M225,88L226,84L226,82L226,80L226,79L227,78L229,77L230,76L232,74L233,72L233,69L233,67L233,65L233,63L234,63L236,63L237,64L238,64L238,63L238,61L238,59L238,57L240,56L241,56L242,56L243,55L243,53L242,50L241,47L241,44L241,38L241,37L241,37L237,37L231,35L221,35L218,34L210,36L206,36L203,34L201,36L203,41L203,43L205,46L207,49L209,50L210,51L210,55L209,58L207,60L205,61L203,63L205,66L207,70L209,72L210,75L213,78L215,81L217,83L218,84L220,87L221,88L224,89Z " data-fips="MK01" data-hasc="MK.LI" data-name="Lipkovo" data-postal="LI" data-varname=""/><path d="M200,96L200,92L200,90L200,87L201,82L203,78L206,73L209,72L207,70L205,66L203,63L203,61L200,62L198,66L195,71L194,75L194,81L194,90L192,91L191,93L192,96L193,97L193,97L195,98L196,99L199,99Z " data-fips="MK13" data-hasc="MK.BU" data-name="Butel" data-postal="BU" data-varname=""/><path d="M237,248L238,247L239,244L239,241L239,239L240,238L242,237L244,237L246,237L247,236L248,235L250,235L251,236L251,237L253,238L255,239L257,240L257,241L258,243L259,244L259,244L261,242L262,239L263,238L266,239L267,240L267,239L267,236L267,234L268,232L267,231L265,230L263,229L262,226L262,224L262,221L264,220L265,218L266,216L266,214L265,212L263,211L260,209L259,207L259,205L260,202L258,202L253,201L251,199L251,197L251,194L251,192L250,191L249,192L248,193L246,194L245,194L244,192L244,191L244,189L243,187L241,185L241,180L240,178L238,177L235,176L233,176L231,175L230,174L229,174L228,174L226,176L225,176L224,175L223,172L221,168L220,167L219,166L214,166L210,166L207,166L204,166L203,165L201,166L197,167L195,168L194,171L193,173L192,175L191,177L188,178L187,179L187,183L186,186L186,188L185,190L183,192L182,193L181,194L181,196L182,198L182,200L182,204L183,204L186,205L188,206L191,207L193,209L193,211L194,213L195,214L197,215L198,217L199,220L199,224L199,226L200,229L202,230L204,231L206,231L208,231L209,231L210,230L211,230L213,230L213,232L214,234L214,235L215,236L216,237L218,238L221,238L223,239L225,240L226,242L229,244L230,244L232,245L233,246L233,248L235,248Z " data-fips="MK15" data-hasc="MK.CA" data-name="Caka" data-postal="CA" data-varname=""/><path d="M196,100L195,98L193,97L193,97L192,100L192,101L193,102L194,102L194,103Z " data-fips="MK17" data-hasc="MK.CE" data-name="Centar" data-postal="CE" data-varname=""/><path d="M390,151L391,149L391,147L391,145L391,142L391,139L390,136L390,134L389,133L388,132L387,132L386,132L384,134L383,136L381,135L380,134L379,134L379,135L378,136L376,138L374,138L373,138L373,141L373,143L375,145L377,148L379,150L380,152L382,152L385,153Z " data-fips="MK19" data-hasc="MK.ZR" data-name="Eastern" data-postal="ZR" data-varname=""/><path d="M379,153L380,152L379,150L377,148L375,145L373,143L373,141L373,138L372,137L370,136L369,135L368,133L368,132L367,131L367,129L366,125L366,123L367,122L368,121L367,119L366,119L363,119L359,119L356,117L354,114L352,111L350,112L349,115L348,117L348,119L347,121L345,122L344,123L342,125L341,125L340,126L340,128L343,132L349,140L353,144L358,147L362,148L366,149L368,148L371,148L373,151L375,153L377,153Z " data-fips="MK19" data-hasc="MK.CH" data-name="Ceinovo-Obleevo" data-postal="CH" data-varname=""/><path d="M193,97L192,96L191,96L190,96L189,95L188,93L187,92L185,91L185,89L185,86L186,85L188,85L189,86L191,89L192,91L194,90L194,81L194,75L195,71L198,66L200,62L203,61L205,61L207,60L209,58L210,55L210,51L209,50L207,49L205,46L203,43L203,41L201,36L200,37L198,36L196,35L194,34L191,36L191,38L193,40L193,42L191,42L184,39L181,40L178,42L167,59L167,62L167,63L168,64L168,67L168,72L168,72L170,74L176,80L179,87L179,91L181,91L184,93L185,95L187,98L190,98L192,98Z " data-fips="MK20" data-hasc="MK.CS" data-name="Cucer Sandevo" data-postal="CS" data-varname=""/><path d="M348,286L352,283L358,279L359,279L359,278L360,276L362,275L363,274L364,274L367,274L369,274L371,274L372,273L372,272L372,270L372,268L371,266L371,265L370,263L370,262L370,260L369,259L368,256L367,254L367,251L368,249L368,247L367,244L367,242L368,240L369,239L370,237L369,235L367,234L365,233L363,232L362,231L361,232L359,234L358,235L357,236L356,237L356,238L355,239L354,240L352,240L350,239L349,238L347,237L346,236L345,235L344,235L342,235L340,235L338,238L336,240L335,241L334,245L334,248L333,250L332,251L331,252L330,253L329,253L328,255L329,256L330,258L331,259L332,261L332,262L332,263L331,265L331,266L330,267L329,268L327,268L324,268L322,268L321,268L320,268L322,269L325,273L327,274L328,275L330,276L331,277L332,278L333,278L334,279L335,282L338,284L341,286L344,287Z " data-fips="MK25" data-hasc="MK.DK" data-name="Demir Kapija" data-postal="DK" data-varname=""/><path d="M180,266L182,266L183,265L185,265L186,265L190,266L191,265L193,265L193,263L195,262L196,260L197,260L199,260L201,260L204,259L206,258L212,258L214,257L217,254L219,253L221,252L221,249L222,246L224,244L226,243L226,242L225,240L223,239L221,238L218,238L216,237L215,236L214,235L214,234L213,232L213,230L211,230L210,230L209,231L208,231L206,231L204,231L202,230L200,229L199,226L199,224L199,220L198,217L197,215L195,214L194,213L193,211L193,209L191,207L188,206L186,205L183,204L182,204L180,204L180,208L180,212L178,215L177,217L175,219L174,221L173,223L172,224L172,228L173,231L172,231L170,230L169,229L167,229L165,229L164,230L163,232L162,232L161,232L159,234L160,237L162,241L165,244L167,245L167,247L167,249L164,249L162,249L161,249L160,250L160,252L162,253L164,256L167,259L167,260L169,261L169,260L170,260L171,260L174,258L175,259L176,261L176,263L176,265L177,266L178,266L179,266Z " data-fips="MK28" data-hasc="MK.DE" data-name="Dolneni" data-postal="DE" data-varname=""/><path d="M222,119L222,119L222,117L222,115L221,113L220,111L219,110L218,109L216,108L215,108L213,106L212,105L213,103L214,102L214,99L214,97L215,95L216,94L217,93L216,90L216,88L216,87L215,86L214,84L214,83L214,81L213,78L210,75L209,72L206,73L203,78L201,82L200,87L200,90L200,92L200,96L199,99L196,99L196,100L197,103L198,104L200,104L203,106L207,109L212,112L215,114L217,117L218,117L219,119L222,120Z " data-fips="MK32" data-hasc="MK.GB" data-name="Gazi Baba" data-postal="GB" data-varname=""/><path d="M269,230L270,230L272,229L273,229L274,229L275,228L275,226L274,224L274,222L274,221L276,220L278,221L279,222L282,223L285,223L286,222L286,220L288,218L289,217L291,218L292,219L294,219L295,219L295,218L296,215L297,214L299,214L301,214L302,214L303,215L303,218L304,220L304,221L305,221L307,220L308,218L309,216L309,215L307,214L307,212L307,211L309,209L309,208L310,206L310,205L310,203L308,202L307,202L306,203L304,204L303,205L301,205L300,204L300,203L300,201L300,200L301,198L302,196L303,196L304,193L305,192L306,190L306,189L305,188L302,186L300,186L297,186L295,187L293,189L291,191L290,191L288,190L285,190L284,189L283,187L283,185L283,183L283,180L283,178L282,175L281,172L281,172L280,171L278,171L277,172L277,173L277,175L277,177L276,181L274,183L271,186L270,189L269,191L268,194L266,197L264,197L262,197L261,197L260,198L260,200L260,202L259,205L259,207L260,209L263,211L265,212L266,214L266,216L265,218L264,220L262,221L262,224L262,226L263,229L265,230L267,231L268,232Z " data-fips="MK35" data-hasc="MK.GR" data-name="Gradsko" data-postal="GR" data-varname=""/><path d="M291,191L293,189L295,187L296,184L296,183L295,182L293,181L292,180L291,178L292,177L292,175L293,174L294,173L295,171L296,170L297,170L298,171L299,172L300,174L301,174L302,173L303,172L304,172L305,172L306,170L305,169L306,168L303,166L300,163L296,159L293,155L290,151L288,150L286,149L283,148L281,146L279,142L277,142L274,141L274,143L274,144L272,145L271,147L270,148L268,149L268,150L268,151L269,152L270,154L271,155L272,156L272,158L272,160L270,162L270,164L269,166L270,167L271,167L272,167L273,168L274,169L276,172L277,173L277,172L278,171L280,171L281,172L281,172L282,175L283,178L283,180L283,183L283,185L283,187L284,189L285,190L288,190L290,191Z " data-fips="MK35" data-hasc="MK.LO" data-name="Lozovo" data-postal="LO" data-varname=""/><path d="M370,247L370,246L375,244L379,243L384,242L387,241L390,242L391,242L391,242L392,240L395,239L397,238L399,238L400,239L402,239L403,238L403,237L403,236L403,234L402,232L402,230L402,228L401,226L397,225L395,225L393,224L392,223L392,222L393,221L394,221L394,219L394,218L393,217L392,215L390,212L387,209L385,207L383,207L379,207L377,207L375,207L373,205L372,204L370,203L369,203L367,203L366,204L364,206L361,209L359,211L357,213L356,214L354,215L354,217L356,219L358,221L360,224L361,226L362,228L362,231L363,232L365,233L367,234L369,235L370,237L369,239L368,240L367,242L367,244L368,247L370,248Z " data-fips="MK35" data-hasc="MK.KN" data-name="Konce" data-postal="KN" data-varname=""/><path d="M224,118L227,117L229,115L230,114L232,114L233,115L235,116L237,116L239,116L240,115L241,114L240,112L239,111L239,109L240,107L241,105L242,103L242,102L242,101L243,100L243,98L243,96L242,95L241,95L240,95L238,93L235,91L233,89L232,88L231,89L229,92L227,94L225,97L223,98L222,98L220,99L218,100L217,101L216,102L214,102L213,103L212,105L213,106L215,108L216,108L218,109L219,110L220,111L221,113L222,115L222,117L222,119L222,119Z " data-fips="MK36" data-hasc="MK.IL" data-name="Ilinden" data-postal="IL" data-varname=""/><path d="M366,174L371,173L375,172L378,171L381,171L382,173L382,171L384,170L385,167L385,165L385,161L387,160L389,158L390,158L390,156L385,153L382,152L380,152L379,153L377,153L375,153L373,151L371,148L368,148L366,149L362,148L358,147L353,144L349,140L346,138L344,139L342,139L339,139L337,138L337,136L337,135L336,133L335,133L332,134L329,137L327,141L327,144L328,149L329,153L331,155L333,156L337,156L340,156L343,158L346,161L349,164L351,164L353,165L357,168L359,171L362,174Z " data-fips="MK40" data-hasc="MK.KB" data-name="Karbinci" data-postal="KB" data-varname=""/><path d="M192,110L193,107L194,106L193,105L194,103L194,102L193,102L192,101L192,100L192,98L190,98L187,98L185,95L184,93L181,91L179,91L179,92L179,98L179,102L179,106L179,111L179,112L184,112L188,112L192,112Z " data-fips="MK41" data-hasc="MK.KX" data-name="Karpo" data-postal="KX" data-varname=""/><path d="M291,330L297,327L310,323L311,322L313,319L315,320L316,321L316,323L323,327L324,327L328,326L335,319L340,317L344,317L346,317L345,314L345,313L346,311L346,310L347,309L351,309L354,309L355,308L355,307L355,306L354,304L354,302L354,301L353,299L354,297L356,297L358,296L359,294L362,292L363,292L363,290L362,290L361,289L360,288L360,286L360,283L360,280L359,279L358,279L352,283L348,286L344,287L341,286L338,284L335,282L334,279L333,278L332,278L331,277L330,276L328,275L327,274L325,273L322,269L320,268L321,268L319,267L317,266L317,265L317,263L317,261L315,258L314,254L314,249L314,245L313,241L313,238L312,235L312,230L311,228L309,227L308,228L306,229L304,229L302,229L301,228L299,231L300,234L299,238L297,240L296,241L295,242L295,244L294,244L293,244L291,242L290,241L288,241L287,241L286,242L285,245L284,246L281,246L278,246L277,247L275,247L272,246L270,245L268,242L267,240L266,239L263,238L262,239L261,242L259,244L259,244L259,246L260,248L263,250L264,251L265,251L266,250L266,249L267,248L268,247L268,248L268,252L268,253L268,256L268,258L268,260L269,262L270,264L270,266L270,268L270,270L270,271L269,274L269,275L269,278L269,282L269,284L270,288L271,290L273,290L275,290L277,290L278,290L280,290L282,291L281,292L280,294L279,296L278,298L278,301L278,304L279,306L280,306L282,309L282,312L281,317L282,321L282,323L283,324L285,324L286,324L287,324L289,324L289,326L289,328L289,331L289,331Z " data-fips="MK42" data-hasc="MK.AV" data-name="Kavadartsi" data-postal="AV" data-varname=""/><path d="M217,117L215,114L212,112L207,109L203,106L200,104L198,104L197,103L194,103L193,105L194,106L195,108L198,108L200,111L202,112L206,114L209,115L212,117L216,118Z " data-fips="MK44" data-hasc="MK.AD" data-name="Aerodrom" data-postal="AD" data-varname=""/><path d="M208,126L209,125L209,123L210,122L211,121L212,120L213,120L212,117L209,115L206,114L202,112L200,111L198,108L195,108L194,106L193,107L192,110L194,112L195,113L195,114L195,116L196,118L199,118L200,117L202,117L204,119L204,122L204,125L204,126L207,127Z " data-fips="MK44" data-hasc="MK.VD" data-name="Skopje" data-postal="VD" data-varname=""/><path d="M374,138L376,138L378,136L379,135L379,134L380,134L381,135L383,136L384,134L386,132L387,132L388,132L388,131L389,130L389,123L389,121L390,118L390,115L391,111L391,110L393,110L395,110L396,111L397,112L398,113L399,114L400,114L401,114L403,112L404,112L404,110L403,108L402,106L403,104L402,101L401,100L401,98L399,96L398,95L399,93L398,89L397,88L394,87L392,86L392,84L392,78L391,75L390,74L389,73L388,73L387,75L386,76L385,75L382,71L380,71L379,71L377,71L375,72L372,72L371,72L370,73L370,74L371,75L372,78L372,79L372,82L370,84L370,87L368,92L368,95L367,98L365,99L363,100L362,102L361,104L358,106L356,109L354,110L353,111L354,114L356,117L359,119L363,119L366,119L367,119L368,121L367,122L366,123L366,125L367,129L367,131L368,132L368,133L369,135L370,136L372,137L373,138Z " data-fips="MK46" data-hasc="MK.OC" data-name="Kocani" data-postal="OC" data-varname=""/><path d="M316,100L316,98L317,96L319,94L320,93L321,93L324,93L326,93L328,92L333,90L335,89L337,90L338,92L339,93L341,93L342,93L343,92L344,91L346,93L347,94L349,95L351,93L351,90L351,85L353,85L355,84L358,84L362,85L364,86L367,88L370,87L370,84L372,82L372,79L372,78L371,75L370,74L370,73L368,71L365,70L361,69L359,67L358,66L357,67L355,68L351,69L348,69L346,69L343,69L342,68L342,67L341,67L340,70L340,71L338,73L336,74L334,75L332,75L331,75L329,74L327,72L324,69L322,66L319,65L317,65L314,65L314,63L313,60L313,59L311,59L309,57L307,55L304,55L302,55L301,56L301,57L302,60L302,62L301,65L300,69L298,72L295,72L293,73L292,74L292,78L289,80L288,83L288,85L289,86L291,86L292,86L294,86L295,88L295,90L295,92L296,93L298,94L300,96L301,98L302,98L303,98L304,98L305,98L307,98L308,98L309,98L311,98L313,99L314,100L316,101Z " data-fips="MK51" data-hasc="MK.KY" data-name="Kratovo" data-postal="KY" data-varname=""/><path d="M183,294L185,293L187,291L188,290L189,288L190,284L190,282L191,281L192,279L192,277L191,276L189,276L187,276L186,275L186,273L185,273L185,271L188,268L186,265L185,265L183,265L182,266L180,266L179,266L178,266L177,266L176,265L176,263L176,261L175,259L174,258L171,260L170,260L169,260L169,261L169,262L169,264L169,268L169,271L170,273L170,274L172,275L173,278L173,280L173,283L173,285L172,286L171,287L171,288L172,289L173,289L174,290L174,290L176,291L178,294L181,294Z " data-fips="MK53" data-hasc="MK.KG" data-name="Krivogatani" data-postal="KG" data-varname=""/><path d="M168,303L167,302L168,299L169,297L170,293L171,291L174,290L173,289L172,289L171,288L171,287L172,286L173,285L173,283L173,280L173,278L172,275L170,274L170,273L169,271L169,268L169,264L169,262L169,261L167,260L167,259L164,256L162,253L160,252L160,250L161,249L162,249L164,249L167,249L167,247L167,245L165,244L162,241L160,237L158,236L157,236L156,237L156,239L156,241L155,243L153,245L149,246L143,249L141,249L138,251L136,251L135,252L134,253L134,254L135,257L137,259L140,261L141,262L141,264L141,266L144,265L147,266L150,266L151,268L151,271L151,274L151,277L151,278L151,279L153,279L155,279L156,278L158,279L161,282L161,285L162,288L164,290L165,292L165,294L165,297L165,299L165,302L167,303L168,304L169,304Z " data-fips="MK54" data-hasc="MK.KS" data-name="Kruevo" data-postal="KS" data-varname=""/><path d="M269,112L269,110L271,109L272,108L272,106L272,104L274,103L276,100L278,99L280,99L283,98L286,99L288,101L289,104L290,105L292,105L295,103L298,102L300,101L301,99L301,98L300,96L298,94L296,93L295,92L295,90L295,88L294,86L292,86L291,86L289,86L288,85L288,83L289,80L292,78L292,74L292,71L291,68L291,66L289,66L288,66L286,67L286,68L286,69L285,70L283,70L280,69L278,69L277,68L276,67L275,67L272,67L271,68L269,69L268,69L266,70L265,72L263,72L262,71L260,69L258,67L257,65L256,63L256,60L256,58L256,57L256,55L257,54L257,53L257,51L257,48L257,47L256,44L257,43L258,42L259,42L261,41L261,40L261,38L260,36L259,36L257,35L255,35L251,32L249,30L246,32L244,35L241,37L241,38L241,44L241,47L242,50L243,53L243,55L242,56L241,56L240,56L238,57L238,59L238,61L238,63L238,64L237,64L236,63L234,63L233,63L233,65L233,67L233,69L233,72L232,74L230,76L229,77L227,78L226,79L226,80L226,82L228,83L231,84L232,85L232,87L232,88L233,89L235,91L238,93L240,95L241,95L242,95L243,96L243,98L243,100L242,101L242,102L244,104L247,105L248,106L250,107L251,109L252,110L254,110L255,109L256,108L258,108L261,108L263,109L264,112L266,113Z " data-fips="MK57" data-hasc="MK.UM" data-name="Kumanovo" data-postal="UM" data-varname=""/><path d="M149,246L153,245L155,243L156,241L156,239L156,237L157,236L158,236L159,234L161,232L162,232L163,232L164,230L165,229L167,229L169,229L170,230L172,231L173,231L172,228L172,224L173,223L174,221L175,219L177,217L178,215L180,212L180,208L180,204L182,204L182,200L182,198L181,196L181,194L182,193L183,192L185,190L186,188L186,186L184,185L182,180L182,178L182,172L180,170L178,170L176,169L175,170L172,170L168,166L165,160L162,155L159,151L157,148L155,146L153,145L151,144L149,142L147,140L144,140L142,140L138,143L133,148L130,153L127,155L124,156L123,156L119,157L118,159L118,163L118,165L118,166L116,166L115,167L115,169L116,171L117,173L118,175L118,177L118,178L119,180L120,181L120,186L120,192L121,193L123,193L125,193L128,195L129,197L129,200L129,204L128,207L129,209L130,213L131,215L133,217L136,218L137,219L137,221L136,222L133,224L131,227L128,229L127,231L125,232L124,233L123,235L123,236L125,236L126,236L128,236L130,236L131,235L133,235L134,233L137,233L138,234L138,236L138,238L139,240L140,242L142,243L144,243L146,244L147,246Z " data-fips="MK63" data-hasc="MK.MD" data-name="Brod" data-postal="MD" data-varname=""/><path d="M186,338L188,337L189,336L190,336L192,337L192,337L193,336L194,334L197,331L199,331L202,333L205,334L210,334L214,335L216,333L219,329L222,326L225,323L225,319L225,318L222,317L219,317L217,316L213,313L212,313L211,314L209,315L207,315L205,314L201,312L200,310L198,309L196,309L194,309L193,308L192,306L190,304L188,300L185,299L183,299L180,298L179,296L179,295L178,294L176,291L174,290L174,290L171,291L170,293L169,297L168,299L167,302L168,303L169,304L171,307L171,309L170,311L169,312L169,315L170,317L171,319L173,321L175,323L177,324L179,325L179,326L179,328L179,330L179,333L179,335L179,336L180,338L182,338L183,339L184,339Z " data-fips="MK67" data-hasc="MK.MG" data-name="Pelagonia" data-postal="MG" data-varname=""/><path d="M327,268L329,268L330,267L331,266L331,265L332,263L332,262L332,261L331,259L330,258L329,256L328,255L329,253L330,253L331,252L332,251L333,250L334,248L334,245L335,241L336,240L338,238L340,235L342,235L344,235L345,235L346,236L347,237L349,238L350,239L352,240L354,240L355,239L356,238L356,237L357,236L358,235L359,234L361,232L362,231L362,228L361,226L360,224L358,221L356,219L353,217L349,217L346,216L343,214L341,213L339,212L337,211L337,207L337,206L333,205L331,205L328,204L327,205L325,204L324,201L324,199L323,196L323,194L322,193L321,192L320,192L319,194L318,195L318,196L317,197L314,195L313,192L312,191L310,191L308,190L306,189L306,189L306,190L305,192L304,193L303,196L302,196L301,198L300,200L300,201L300,203L300,204L301,205L303,205L304,204L306,203L307,202L308,202L310,203L310,205L310,206L309,208L309,209L307,211L307,212L307,214L309,215L309,216L308,218L307,220L305,221L304,221L304,220L303,218L303,215L302,214L301,214L300,218L301,223L301,228L301,228L302,229L304,229L306,229L308,228L309,227L311,228L312,230L312,235L313,238L313,241L314,245L314,249L314,254L315,258L317,261L317,263L317,265L317,266L319,267L321,268L322,268L324,268Z " data-fips="MK69" data-hasc="MK.NG" data-name="Negotino" data-postal="NG" data-varname=""/><path d="M223,393L228,388L230,387L231,386L234,387L235,386L236,385L236,381L237,380L242,378L252,380L258,379L260,376L261,373L261,371L262,368L264,366L271,361L274,356L281,349L283,345L284,342L279,340L277,340L275,338L274,336L273,335L272,334L271,336L269,336L266,336L264,335L262,334L260,332L258,330L256,330L253,329L251,328L247,326L245,326L240,325L237,325L234,324L231,322L230,320L229,318L229,317L227,317L225,319L225,323L222,326L219,329L216,333L214,335L210,334L205,334L202,333L199,331L197,331L194,334L193,336L192,337L192,338L192,341L191,342L191,344L190,345L191,348L191,349L192,350L194,352L194,354L194,358L194,360L197,360L199,361L199,363L202,366L204,369L207,372L207,374L207,376L208,379L208,382L207,385L207,385L208,385L216,393L222,394Z " data-fips="MK71" data-hasc="MK.NV" data-name="Novatsi" data-postal="NV" data-varname=""/><path d="M179,98L179,92L179,91L179,87L176,80L170,74L168,72L168,72L168,74L166,75L157,73L156,76L157,81L158,85L160,86L162,85L163,84L165,84L166,85L167,89L169,93L171,98L174,102L179,102Z " data-fips="MK00" data-hasc="MK.GP" data-name="Gjorce Petrov" data-postal="GP" data-varname=""/><path d="M89,219L93,218L95,217L97,216L98,215L100,215L102,214L103,213L104,210L106,208L106,205L106,201L105,198L104,194L103,192L101,190L98,188L95,186L91,185L89,185L86,185L85,186L82,186L80,186L78,188L75,192L73,193L69,193L66,195L67,197L68,198L72,198L74,198L75,201L76,204L77,208L81,208L82,211L83,215L86,218L87,221L88,221Z " data-fips="MKC1" data-hasc="MK.ZA" data-name="Zajas" data-postal="ZA" data-varname=""/><path d="M42,251L44,248L45,247L44,244L41,244L41,240L41,236L40,232L38,232L36,230L35,225L32,221L29,221L24,221L22,225L18,227L13,229L10,233L7,235L7,236L8,238L8,242L9,244L10,245L13,245L15,246L17,250L18,252L21,252L27,252L34,252L39,253Z " data-fips="MK18" data-hasc="MK.CZ" data-name="Centar upa" data-postal="CZ" data-varname=""/><path d="M48,244L49,242L50,239L50,237L51,234L52,233L54,232L55,233L55,232L55,229L52,227L48,226L45,223L43,219L39,216L37,216L30,214L25,210L22,206L18,204L18,205L17,208L15,209L12,211L10,212L0,214L1,218L0,225L1,229L4,230L5,231L7,235L10,233L13,229L18,227L22,225L24,221L29,221L32,221L35,225L36,230L38,232L40,232L41,236L41,240L41,244L44,244L45,247L47,247Z " data-fips="MK21" data-hasc="MK.DB" data-name="Debar" data-postal="DB" data-varname=""/><path d="M101,272L105,268L110,266L115,266L119,266L125,266L128,264L131,261L132,259L135,258L135,257L134,254L134,253L133,252L130,251L128,250L126,247L126,246L124,246L122,247L122,247L122,249L119,251L117,251L114,251L111,251L109,251L108,250L108,248L108,246L105,245L102,243L102,241L101,239L102,237L103,236L104,236L103,235L100,233L97,232L94,230L91,228L90,227L89,225L87,221L86,218L83,215L82,211L81,208L77,208L76,204L75,201L74,198L72,198L72,200L73,207L73,212L73,214L73,218L70,220L70,223L70,226L68,227L65,232L63,234L61,235L58,234L55,233L54,232L52,233L51,234L50,237L50,239L49,242L48,244L47,247L47,248L49,246L55,247L64,246L69,246L75,247L79,248L86,248L88,252L90,256L90,260L90,263L91,266L95,267L97,269L98,272Z " data-fips="MK30" data-hasc="MK.DR" data-name="Southwestern" data-postal="DR" data-varname=""/><path d="M105,233L107,228L110,227L110,225L110,223L109,221L106,220L105,221L104,221L103,219L103,217L100,215L98,215L97,216L95,217L93,218L89,219L88,221L89,225L90,227L91,228L94,230L97,232L100,233L103,235L104,236Z " data-fips="MK43" data-hasc="MK.KH" data-name="Kicevo" data-postal="KH" data-varname=""/><path d="M63,234L65,232L68,227L70,226L70,223L70,220L73,218L73,214L73,212L73,207L72,200L72,198L68,198L67,197L66,195L69,193L73,193L75,192L78,188L80,186L82,186L85,186L86,185L89,185L88,183L86,179L83,175L82,173L83,171L85,170L85,168L83,168L79,168L77,168L75,170L73,167L73,162L70,158L69,157L66,156L62,156L59,155L55,155L53,157L51,160L49,161L45,161L41,160L38,158L33,155L31,153L27,152L22,149L22,151L20,153L16,157L14,160L12,163L12,166L13,185L14,190L18,203L18,204L22,206L25,210L30,214L37,216L39,216L43,219L45,223L48,226L52,227L55,229L55,232L55,233L58,234L61,235Z " data-fips="MK64" data-hasc="MK.MR" data-name="Mavrovo and Rostusa" data-postal="MR" data-varname=""/><path d="M113,227L115,225L117,223L118,219L119,216L121,215L123,214L126,212L127,209L128,207L129,204L129,200L129,197L128,195L125,193L123,193L121,193L120,192L119,190L118,190L116,191L114,191L112,192L109,193L107,194L106,195L105,198L106,201L106,205L106,208L104,210L103,213L102,214L103,217L103,219L104,221L105,221L106,220L109,221L110,223L110,225L110,227Z " data-fips="MK77" data-hasc="MK.OS" data-name="Oslomej" data-postal="OS" data-varname="Oslomej"/><path d="M115,94L116,93L121,92L125,91L128,90L129,86L131,83L133,81L135,79L135,76L134,74L133,73L131,72L130,71L128,68L125,64L122,60L118,56L115,58L110,61L91,67L93,68L96,69L98,71L100,72L102,74L103,77L104,80L105,81L107,82L108,82L110,83L111,85L112,86L111,88L111,90L111,92L112,93L113,94Z " data-fips="MKA5" data-hasc="MK.TR" data-name="Tearce" data-postal="TR" data-varname=""/><path d="M61,113L62,112L65,111L67,108L70,107L73,106L76,104L78,102L80,101L83,101L88,102L94,103L96,104L98,107L101,110L102,110L102,109L103,107L105,106L106,107L107,108L110,110L111,110L115,108L116,107L118,107L119,105L116,104L115,102L115,101L113,101L112,100L113,98L114,96L116,96L113,94L112,93L111,92L111,90L111,88L112,86L111,85L110,83L108,82L107,82L105,81L104,80L103,77L102,74L100,72L98,71L96,69L93,68L91,67L73,73L68,76L64,80L62,86L60,99L59,105L61,113Z " data-fips="MKA6" data-hasc="MK.ET" data-name="Tetovo" data-postal="ET" data-varname=""/><path d="M82,146L87,146L93,147L96,146L98,144L98,142L98,140L98,138L99,138L101,137L100,136L99,135L100,132L99,131L98,131L97,129L95,129L90,126L84,123L78,121L72,119L66,119L63,119L61,121L61,122L59,126L55,132L54,134L54,134L56,136L61,139L64,139L66,139L69,139L70,141L71,144L72,146L76,148L79,148Z " data-fips="MKB7" data-hasc="MK.VH" data-name="Polog" data-postal="VH" data-varname="Vrapcite"/><path d="M100,130L100,128L100,127L101,125L103,125L104,124L105,122L106,120L107,118L107,116L105,116L102,116L101,115L101,111L101,110L98,107L96,104L94,103L88,102L83,101L80,101L78,102L76,104L73,106L70,107L67,108L65,111L62,112L61,113L61,113L62,115L61,121L63,119L66,119L72,119L78,121L84,123L90,126L95,129L97,129L98,131L99,131L101,131Z " data-fips="MK10" data-hasc="MK.VJ" data-name="Bogovinje" data-postal="VJ" data-varname=""/><path d="M127,155L130,153L133,148L138,143L142,140L144,140L145,138L144,136L142,136L141,136L141,138L140,139L139,139L136,139L134,139L133,138L130,136L128,136L125,136L123,135L123,133L123,130L124,128L125,128L126,127L125,124L124,124L122,124L120,123L120,119L120,117L119,116L117,116L115,114L114,111L111,110L110,110L107,108L106,107L105,106L103,107L102,109L102,110L101,110L101,111L101,115L102,116L105,116L107,116L107,118L106,120L105,122L104,124L103,125L101,125L100,127L100,128L100,130L101,131L99,131L100,132L99,135L100,136L101,137L102,138L106,140L110,141L113,140L115,140L115,143L115,144L116,146L120,149L122,152L124,154L124,156Z " data-fips="MK12" data-hasc="MK.BN" data-name="Brvenica" data-postal="BN" data-varname=""/><path d="M107,194L109,193L112,192L114,191L116,191L118,190L119,190L120,186L120,181L119,180L118,178L118,177L118,175L117,173L116,171L115,169L115,167L116,166L118,166L118,165L118,163L118,159L119,157L123,156L124,156L124,154L122,152L120,149L116,146L115,144L115,143L115,140L113,140L110,141L106,140L102,138L101,137L99,138L98,138L98,140L98,142L98,144L96,146L93,147L87,146L82,146L79,148L76,148L72,146L71,144L70,141L69,139L66,139L64,139L61,139L56,136L54,134L54,134L51,136L47,138L45,136L42,131L40,130L39,131L37,135L35,136L32,136L30,135L25,130L20,133L20,137L20,139L21,145L22,149L27,152L31,153L33,155L38,158L41,160L45,161L49,161L51,160L53,157L55,155L59,155L62,156L66,156L69,157L70,158L73,162L73,167L75,170L77,168L79,168L83,168L85,168L85,170L83,171L82,173L83,175L86,179L88,183L89,185L91,185L95,186L98,188L101,190L103,192L104,194L106,195Z " data-fips="MK34" data-hasc="MK.GT" data-name="Gostivar" data-postal="GT" data-varname=""/><path d="M132,101L133,101L135,101L136,100L138,99L141,98L143,97L144,97L144,95L143,91L142,89L142,88L144,87L145,86L146,85L146,82L146,80L144,80L143,81L142,81L140,79L139,78L139,77L142,76L144,75L147,75L149,75L151,75L154,72L154,71L153,70L151,66L148,61L142,54L134,49L132,47L130,47L129,47L124,50L118,56L122,60L125,64L128,68L130,71L131,72L133,73L134,74L135,76L135,79L133,81L131,83L129,86L128,90L125,91L121,92L116,93L115,94L116,96L116,97L120,98L122,98L123,97L124,98L124,99L123,101L124,102L126,102L130,103L131,103Z " data-fips="MK38" data-hasc="MK.JG" data-name="Jegunovce" data-postal="JG" data-varname=""/><path d="M426,277L427,277L429,276L429,275L430,275L432,275L432,276L434,275L435,274L436,271L437,268L439,268L440,267L442,268L446,269L450,271L453,274L457,270L460,270L459,269L459,268L459,263L459,259L458,255L458,254L457,254L455,254L454,255L452,256L451,255L449,255L448,254L447,253L447,251L447,249L446,248L445,248L443,249L442,250L441,250L440,249L438,248L438,247L439,245L439,244L440,242L439,241L438,239L438,237L436,235L434,235L432,237L430,238L429,238L427,239L423,239L421,239L420,237L418,235L417,234L415,233L413,231L412,231L410,230L408,231L407,232L407,233L406,235L404,236L403,237L403,238L402,239L400,239L399,238L397,238L395,239L392,240L391,242L391,242L391,243L392,244L394,247L396,249L398,251L400,252L403,252L404,252L406,252L407,253L408,254L408,255L407,257L406,259L405,261L405,262L406,264L408,267L409,268L409,271L409,272L410,272L413,272L415,272L417,271L418,271L420,273L422,275L422,276L423,277Z " data-fips="MKA1" data-hasc="MK.RU" data-name="Southeastern" data-postal="RU" data-varname=""/><path d="M403,303L404,302L405,301L407,300L407,299L407,296L407,294L408,292L411,292L412,294L415,295L415,295L417,295L419,294L420,291L422,289L423,288L427,288L430,288L431,287L431,285L431,284L432,282L434,281L436,281L438,282L439,282L441,282L442,282L444,282L445,282L447,282L449,283L451,276L453,274L450,271L446,269L442,268L440,267L439,268L437,268L436,271L435,274L434,275L432,276L432,275L430,275L429,275L429,276L427,277L426,277L423,277L422,276L422,275L420,273L418,271L417,271L415,272L413,272L410,272L409,272L409,271L409,268L408,267L406,264L405,262L405,261L406,259L407,257L408,255L408,254L407,253L406,252L404,252L403,252L400,252L398,251L396,249L394,247L392,244L391,243L391,242L390,242L387,241L384,242L379,243L375,244L370,246L370,247L370,248L368,249L367,251L367,254L368,256L369,259L370,260L370,260L373,260L374,260L376,261L378,263L380,264L382,264L384,265L385,268L388,271L390,274L391,275L394,276L396,277L396,278L396,281L396,286L397,288L398,292L398,295L398,297L400,297L401,298L401,300L402,301L403,303Z " data-fips="MKA8" data-hasc="MK.VA" data-name="Valandovo" data-postal="VA" data-varname=""/><path d="M429,238L430,238L432,237L434,235L436,234L437,233L438,233L439,232L441,232L442,230L444,229L445,226L446,225L446,223L446,220L447,217L447,215L446,211L445,209L440,208L437,208L436,208L436,206L437,205L438,205L438,204L438,202L438,200L438,198L437,197L434,197L432,194L430,194L429,194L428,197L427,197L426,195L426,193L424,194L421,194L420,194L419,195L418,198L417,199L416,201L416,203L418,204L419,207L421,208L421,209L421,211L422,213L422,215L422,216L422,219L421,221L420,222L418,222L416,220L414,219L412,217L409,215L408,215L406,218L405,219L403,220L402,220L401,221L402,223L403,224L403,225L402,228L402,230L402,232L403,234L403,236L403,237L404,236L406,235L407,233L407,232L408,231L410,230L412,231L413,231L415,233L417,234L418,235L420,237L421,239L423,239L427,239Z " data-fips="MKA9" data-hasc="MK.VL" data-name="Vasilevo" data-postal="VL" data-varname=""/><path d="M420,325L423,323L427,318L427,316L427,314L428,312L430,311L433,312L434,310L434,308L434,306L434,304L433,304L431,302L429,301L428,301L426,301L424,301L423,301L421,301L420,301L419,300L418,299L417,298L415,297L415,295L412,294L411,292L408,292L407,294L407,296L407,299L407,300L405,301L404,302L403,303L403,303L404,304L405,305L406,307L407,308L407,310L407,311L407,313L406,315L406,317L406,318L406,319L407,320L409,320L411,320L413,321L416,322L419,324L419,326Z " data-fips="MK08" data-hasc="MK.BG" data-name="Bogdanci" data-postal="BG" data-varname=""/><path d="M454,255L455,254L457,254L458,254L458,253L460,252L460,251L461,250L461,248L461,245L461,243L460,241L461,239L463,238L464,237L466,236L468,233L469,232L470,230L471,229L472,227L472,224L470,223L469,220L467,219L463,219L460,219L457,218L454,218L451,216L450,214L449,212L448,210L446,211L447,215L447,217L446,220L446,223L446,225L445,226L444,229L442,230L441,232L439,232L438,233L437,233L436,234L436,235L438,237L438,239L439,241L440,242L439,244L439,245L438,247L438,248L440,249L441,250L442,250L443,249L445,248L446,248L447,249L447,251L447,253L448,254L449,255L451,255L452,256Z " data-fips="MK11" data-hasc="MK.BS" data-name="Southeastern" data-postal="BS" data-varname=""/><path d="M396,328L399,328L402,326L406,326L412,327L416,327L419,326L419,324L416,322L413,321L411,320L409,320L407,320L406,319L406,318L406,317L406,315L407,313L407,311L407,310L407,308L406,307L405,305L404,304L403,303L402,301L401,300L401,298L400,297L398,297L398,295L398,292L397,288L396,286L396,281L396,278L396,277L394,276L391,275L390,274L388,271L385,268L384,265L382,264L380,264L378,263L376,261L374,260L373,260L370,260L370,260L370,262L370,263L371,265L371,266L372,268L372,270L372,272L372,273L371,274L369,274L367,274L364,274L363,274L362,275L360,276L359,278L359,279L360,280L360,283L360,286L360,288L361,289L362,290L363,290L363,292L362,292L359,294L358,296L356,297L354,297L353,299L354,301L354,302L354,304L355,306L355,307L355,308L354,309L351,309L347,309L346,310L346,311L345,313L345,314L346,317L348,317L356,319L362,320L363,321L364,322L365,326L366,326L368,325L371,325L376,324L379,324L380,325L385,328L387,329L393,329Z " data-fips="MK33" data-hasc="MK.GV" data-name="Southeastern" data-postal="GV" data-varname=""/><path d="M488,266L489,261L488,256L487,250L488,249L490,246L490,244L490,243L489,240L489,239L488,221L488,221L486,221L484,222L478,223L473,223L472,224L472,227L471,229L470,230L469,232L468,233L466,236L464,237L463,238L461,239L460,241L461,243L461,245L461,248L461,250L460,251L460,252L458,253L458,254L458,255L459,259L459,263L459,268L459,269L460,270L466,269L483,270Z " data-fips="MK72" data-hasc="MK.NS" data-name="Novo Selo" data-postal="NS" data-varname=""/><path d="M445,320L447,315L447,313L448,305L449,294L449,283L447,282L445,282L444,282L442,282L441,282L439,282L438,282L436,281L434,281L432,282L431,284L431,285L431,287L430,288L427,288L423,288L422,289L420,291L419,294L417,295L415,295L415,295L415,297L417,298L418,299L419,300L420,301L421,301L423,301L424,301L426,301L428,301L429,301L431,302L433,304L434,304L434,306L434,308L434,310L433,312L434,313L435,315L436,317L440,320L442,321Z " data-fips="MK00" data-hasc="MK.SD" data-name="Dojran" data-postal="SD" data-varname=""/><path d="M424,168L426,167L428,167L431,167L433,164L434,161L435,158L435,154L434,151L434,150L434,147L435,145L435,143L436,141L437,138L438,134L439,130L440,127L441,126L442,125L441,124L440,124L438,123L436,123L432,121L428,119L424,117L422,117L421,116L421,114L421,111L421,108L421,104L419,101L416,101L415,101L413,102L413,104L413,106L411,109L410,112L408,113L407,113L405,112L404,112L403,112L401,114L400,114L399,114L398,113L397,112L396,111L395,110L393,110L391,110L391,111L390,115L390,118L389,121L389,123L389,130L388,131L388,132L389,133L390,134L390,136L391,139L391,142L391,145L391,147L391,149L390,151L390,156L390,158L392,158L394,159L395,161L396,161L397,162L400,162L402,162L404,161L406,160L406,159L406,158L408,158L409,159L410,161L411,162L412,162L414,163L415,164L417,166L419,167L421,168L423,168L424,169Z " data-fips="MKB4" data-hasc="MK.NI" data-name="Vinitsa" data-postal="NI" data-varname=""/><path d="M473,223L478,223L484,222L486,221L488,221L488,221L488,217L489,212L489,211L488,209L486,206L486,205L485,201L485,198L486,194L487,191L488,190L491,189L492,188L493,187L494,183L495,181L495,180L492,178L490,177L487,176L483,173L480,172L477,171L476,172L475,172L474,170L473,168L471,167L463,165L460,166L459,166L458,168L457,168L456,166L456,164L455,162L454,161L453,158L451,154L451,152L450,152L447,150L444,150L440,149L437,149L435,149L434,150L434,151L435,154L435,158L434,161L433,164L431,167L428,167L426,167L424,168L424,170L425,173L425,177L427,178L428,179L429,180L429,181L428,182L426,185L425,187L425,189L426,191L426,193L426,195L427,197L428,197L429,194L430,194L432,194L434,197L437,197L438,198L438,200L438,202L438,204L438,205L437,205L436,206L436,208L437,208L440,208L445,209L448,210L449,212L450,214L451,216L454,218L457,218L460,219L463,219L467,219L469,220L470,223Z " data-fips="MK04" data-hasc="MK.BR" data-name="Berovo" data-postal="BR" data-varname=""/><path d="M454,152L456,150L457,148L460,147L461,147L462,145L464,141L465,139L468,136L471,134L473,132L475,130L474,130L474,128L474,124L474,122L471,116L470,110L469,104L469,101L467,98L467,95L467,93L466,92L463,90L462,90L459,91L458,91L456,90L456,88L455,87L454,86L452,85L444,86L442,85L441,84L441,83L440,83L434,81L425,77L425,79L424,83L424,87L424,90L424,93L424,96L423,96L421,96L420,98L421,104L421,108L421,111L421,114L421,116L422,117L424,117L428,119L432,121L436,123L438,123L440,124L441,124L442,125L441,126L440,127L439,130L438,134L437,138L436,141L435,143L435,145L434,147L435,149L437,149L440,149L444,150L447,150L450,152L451,152L453,152Z " data-fips="MK22" data-hasc="MK.DL" data-name="Delcevo" data-postal="DL" data-varname=""/><path d="M408,113L410,112L411,109L413,106L413,104L413,102L415,101L416,101L419,101L420,98L421,96L423,96L424,96L424,93L424,90L424,87L424,83L425,79L425,77L423,76L406,64L402,60L401,59L398,61L396,62L393,64L389,66L387,69L385,70L384,71L385,75L386,76L387,75L388,73L389,73L390,74L391,75L392,78L392,84L392,86L394,87L397,88L398,89L399,93L398,95L399,96L401,98L401,100L402,101L403,104L402,106L403,108L404,110L404,112L405,112L407,113Z " data-fips="MK52" data-hasc="MK.MK" data-name="Makedonska Kamenica" data-postal="MK" data-varname=""/><path d="M498,176L500,170L500,164L496,159L494,158L490,158L487,157L486,155L482,145L480,136L478,133L477,132L475,130L473,132L471,134L468,136L465,139L464,141L462,145L461,147L460,147L457,148L456,150L454,152L453,152L451,152L451,154L453,158L454,161L455,162L456,164L456,166L457,168L458,168L459,166L460,166L463,165L471,167L473,168L474,170L475,172L476,172L477,171L480,172L483,173L487,176L490,177L492,178L495,180L495,181Z " data-fips="MK78" data-hasc="MK.PH" data-name="Phecevo" data-postal="PH" data-varname=""/></g></svg>