<?xml version="1.0" ?><!DOCTYPE svg  PUBLIC '-//W3C//DTD SVG 1.1//EN'  'http://www.w3.org/Graphics/SVG/1.1/DTD/svg11.dtd'><svg enable_background="new 0 0 500 401" height="401px" style="stroke-linejoin: round; stroke:#000; fill:#f6f3f0;" version="1.1" viewBox="0 0 500 401" width="500px" xmlns="http://www.w3.org/2000/svg" xmlns:xlink="http://www.w3.org/1999/xlink"><defs><style type="text/css"><![CDATA[path { fill-rule: evenodd; }
#context path { fill: #eee; stroke: #bbb; } ]]></style></defs><metadata><views><view h="401" padding="0" w="500"><proj id="laea" lat0="42.792" lon0="19.254"/><bbox h="20.93" w="17.4" x="992.56" y="990.66"/><llbbox lat0="-90" lat1="90" lon0="-180" lon1="180"/></view></views></metadata><g id="admin1"><path d="M225,356L220,346L219,340L224,340L230,343L234,343L244,340L246,339L244,336L234,329L231,326L229,322L230,319L231,318L231,318L229,316L224,309L220,306L215,306L209,304L205,301L203,297L201,294L198,292L190,289L187,292L186,297L182,298L175,295L169,296L172,302L177,307L181,312L182,315L177,321L179,325L180,326L181,326L182,326L182,329L184,331L190,331L193,336L195,337L196,338L195,342L196,345L206,354L206,360L207,359L224,362Z " data-fips="AL49" data-hasc="ME.BA" data-name="Bar" data-postal="BA" data-varname=""/><path d="M245,396L245,390L244,388L242,386L242,384L242,383L242,382L243,380L243,379L242,373L243,372L244,372L246,371L246,367L245,366L243,362L243,358L243,353L244,349L247,342L247,342L246,339L244,340L234,343L230,343L224,340L219,340L220,346L225,356L224,362L207,359L206,360L207,367L206,368L207,370L210,372L210,374L210,375L210,377L211,379L213,380L217,381L220,383L233,388L236,389L242,396L246,399Z " data-fips="AL49" data-hasc="ME.UL" data-name="Ulcinj" data-postal="UL" data-varname=""/><path d="M182,315L181,312L177,307L172,302L169,296L167,289L162,284L156,283L152,281L147,279L144,284L145,291L145,298L145,299L146,298L147,297L150,296L151,297L152,298L152,299L154,297L156,296L159,296L162,297L163,301L165,308L167,312L174,317L176,320L177,321Z " data-fips="MJ00" data-hasc="ME.BU" data-name="Budva" data-postal="BU" data-varname=""/><path d="M186,297L187,292L190,289L198,292L201,294L201,294L205,285L207,277L202,272L196,266L192,262L188,258L181,253L175,248L174,246L177,244L179,245L180,240L182,235L183,233L181,231L179,228L175,225L171,222L170,213L167,209L163,207L160,204L158,202L152,200L147,201L142,197L135,195L134,199L132,202L130,203L128,205L129,209L127,213L125,215L121,216L121,217L124,224L127,228L129,233L130,237L134,240L140,245L142,252L142,258L142,261L141,264L141,267L143,275L147,279L152,281L156,283L162,284L167,289L175,295L182,298Z " data-fips="MJ00" data-hasc="ME.CE" data-name="Cetinje" data-postal="CE" data-varname=""/><path d="M391,184L391,181L391,179L391,177L392,174L394,173L400,171L414,168L416,159L415,153L413,150L402,144L393,138L388,136L379,135L377,134L377,134L373,146L371,151L369,156L367,162L364,166L363,178L364,184L366,183L368,182L374,183L381,187L387,189Z " data-fips="AL47" data-hasc="ME.RO" data-name="Roaje" data-postal="RO" data-varname=""/><path d="M326,254L327,253L333,249L335,248L339,245L348,245L352,244L358,235L362,232L366,235L369,232L369,229L368,225L368,222L369,220L371,216L373,209L371,207L361,197L361,197L355,198L339,202L339,202L331,208L324,216L314,224L311,226L311,228L310,229L309,232L309,233L309,237L309,238L309,241L312,248L318,252L321,254L324,254Z " data-fips="AL49" data-hasc="ME.PV" data-name="Plav" data-postal="PV" data-varname=""/><path d="M123,273L122,270L120,265L106,261L104,261L103,264L104,266L109,270L108,270L107,271L109,272L111,274L114,275L115,277L119,277L120,278L122,278Z M97,267L99,261L96,258L96,257L114,259L122,258L118,247L115,241L110,238L105,235L99,227L97,223L93,225L94,227L95,229L94,231L92,231L90,230L88,230L86,230L84,232L85,236L85,240L84,243L84,245L84,247L85,251L87,254L89,257L91,258L94,260L95,262L94,266L97,268L100,270Z " data-fips="HR03" data-hasc="ME.HN" data-name="Herceg Novi" data-postal="HN" data-varname=""/><path d="M145,299L145,298L145,291L144,284L143,275L141,267L141,264L142,261L142,258L142,252L140,245L134,240L130,237L129,233L127,228L124,224L121,217L121,216L120,216L113,217L103,216L102,218L98,222L97,223L99,227L105,235L110,238L115,241L118,247L122,258L122,258L128,250L127,252L131,255L136,263L132,275L129,280L129,281L130,282L131,283L132,284L132,287L135,291L141,296L142,299L143,300Z " data-fips="HR03" data-hasc="ME.KT" data-name="Kotor" data-postal="KT" data-varname=""/><path d="M314,224L324,216L331,208L339,202L339,202L339,202L334,196L331,192L331,188L334,184L328,183L316,179L309,174L301,170L299,170L293,171L291,175L293,178L296,180L296,185L297,193L297,199L293,205L295,213L296,215L299,212L303,210L307,212L310,217L311,224L311,226Z " data-fips="MJ00" data-hasc="ME.AN" data-name="Andrijevica" data-postal="AN" data-varname=""/><path d="M355,198L361,197L361,197L361,197L359,193L359,189L361,187L364,184L363,178L364,166L367,162L369,156L371,151L373,146L377,134L377,134L374,134L364,123L364,124L359,132L355,134L349,136L348,137L343,139L336,143L332,143L326,141L320,142L316,146L310,148L303,151L302,151L298,159L299,170L301,170L309,174L316,179L328,183L334,184L331,188L331,192L334,196L339,202L339,202Z " data-fips="MJ00" data-hasc="ME.BE" data-name="Berane" data-postal="BE" data-varname=""/><path d="M310,148L316,146L320,142L326,141L332,143L336,143L343,139L348,137L349,136L355,134L359,132L364,124L364,123L364,123L358,117L347,110L345,108L344,106L343,104L342,102L340,101L338,102L334,106L332,107L326,108L321,107L317,106L313,103L310,99L305,90L303,90L302,91L300,92L296,91L289,89L285,87L282,85L276,77L276,77L275,84L274,90L273,95L271,100L268,103L264,106L261,113L264,118L271,119L275,121L276,122L281,124L289,126L294,129L296,134L297,140L296,143L299,146L303,151Z " data-fips="MJ00" data-hasc="ME.BP" data-name="Bijelo Polje" data-postal="BP" data-varname=""/><path d="M208,250L216,250L217,249L218,243L219,235L220,230L222,227L226,224L227,218L227,213L232,208L227,200L227,197L227,194L224,188L219,186L218,189L218,193L219,198L213,201L204,200L198,199L195,198L191,199L185,203L182,208L181,215L179,218L171,222L175,225L179,228L181,231L183,233L182,235L180,240L179,245L183,246L189,249L195,250Z " data-fips="MJ00" data-hasc="ME.DA" data-name="Danilovgrad" data-postal="DA" data-varname=""/><path d="M253,207L259,205L264,203L268,198L268,193L275,190L281,191L282,196L283,201L287,203L293,205L297,199L297,193L296,185L296,180L293,178L291,175L293,171L299,170L298,159L293,155L288,154L282,152L270,152L260,153L254,149L246,144L244,148L241,152L233,152L221,150L219,152L217,155L217,159L218,162L220,167L219,172L218,178L219,186L224,188L227,194L227,197L227,200L236,206L245,209Z " data-fips="MJ00" data-hasc="ME.KL" data-name="Kolain" data-postal="KL" data-varname=""/><path d="M302,151L303,151L299,146L296,143L297,140L296,134L294,129L289,126L281,124L276,122L275,121L271,119L264,118L255,117L253,118L252,119L248,123L242,124L240,126L239,131L239,132L241,140L246,144L254,149L260,153L270,152L282,152L288,154L293,155Z " data-fips="MJ00" data-hasc="ME.MK" data-name="Mojkovac" data-postal="MK" data-varname=""/><path d="M181,215L182,208L185,203L191,199L195,198L198,199L204,200L213,201L219,198L218,193L218,189L219,186L218,178L219,172L220,167L218,162L207,161L198,157L192,153L184,147L178,145L175,143L165,142L156,139L151,134L145,124L141,113L137,106L132,103L120,100L117,99L117,100L117,106L120,124L113,123L103,123L93,125L88,130L85,139L85,143L86,148L90,156L91,161L90,163L88,165L86,167L86,171L88,177L90,183L96,193L100,196L102,200L104,207L104,213L103,216L113,217L120,216L121,216L125,215L127,213L129,209L128,205L130,203L132,202L134,199L135,195L142,197L147,201L152,200L158,202L160,204L163,207L167,209L170,213L179,218Z " data-fips="MJ00" data-hasc="ME.NK" data-name="Nikic" data-postal="NK" data-varname=""/><path d="M180,143L180,134L171,128L170,122L174,112L178,107L185,106L187,103L183,96L181,91L181,84L181,70L181,65L181,65L177,60L176,57L175,56L175,54L175,52L174,51L169,47L165,46L155,47L152,48L152,49L153,52L154,53L149,54L132,66L128,70L125,74L129,76L122,86L119,92L117,99L120,100L132,103L137,106L141,113L145,124L151,134L156,139L165,142L175,143L178,145Z " data-fips="MJ00" data-hasc="ME.PU" data-name="Pluine" data-postal="PU" data-varname=""/><path d="M255,117L261,113L264,106L268,103L271,100L273,95L274,90L275,84L276,77L276,77L270,72L268,70L266,63L263,60L253,49L246,39L243,36L220,26L215,22L213,16L212,9L216,4L208,2L204,3L199,8L196,10L192,10L189,9L187,6L185,2L183,0L179,0L176,2L172,7L169,8L167,10L166,11L166,13L168,15L171,15L172,16L174,20L174,21L173,23L173,24L177,23L178,24L184,32L189,46L194,57L193,57L189,58L186,59L187,61L189,72L191,78L195,83L201,82L207,81L215,85L221,89L229,95L238,101L244,106L249,112L253,118Z " data-fips="MJ00" data-hasc="ME.PL" data-name="Pljevlja" data-postal="PL" data-varname=""/><path d="M235,314L251,288L252,286L251,283L252,281L253,278L254,276L263,266L265,262L269,260L272,256L274,252L276,248L277,244L279,243L282,241L284,239L285,236L286,230L287,227L290,222L294,216L296,215L295,213L287,203L283,201L282,196L281,191L275,190L268,193L268,198L264,203L259,205L253,207L245,209L236,206L232,208L227,213L227,218L226,224L222,227L220,230L219,235L218,243L217,249L216,250L208,250L195,250L189,249L183,246L179,245L177,244L174,246L175,248L181,253L188,258L192,262L196,266L202,272L207,277L205,285L201,294L201,294L203,297L205,301L209,304L215,306L220,306L224,309L229,316L231,318L231,318Z " data-fips="MJ00" data-hasc="ME.PG" data-name="Podgorica" data-postal="PG" data-varname=""/><path d="M132,275L136,263L131,255L127,252L127,254L127,256L131,265L131,268L130,272L127,269L122,266L120,265L122,270L123,273L126,273L129,276L129,280Z " data-fips="MJ00" data-hasc="ME.TI" data-name="Tivat" data-postal="TI" data-varname=""/><path d="M217,159L217,155L219,152L221,150L233,152L241,152L244,148L246,144L241,140L239,132L239,131L229,127L226,126L224,122L219,118L213,118L210,119L207,115L203,111L197,112L194,112L191,109L185,106L178,107L174,112L170,122L171,128L180,134L180,143L178,145L184,147L192,153L198,157L207,161L218,162Z " data-fips="MJ00" data-hasc="ME.SA" data-name="avnik" data-postal="SA" data-varname=""/><path d="M240,126L242,124L248,123L252,119L253,118L249,112L244,106L238,101L229,95L221,89L215,85L207,81L201,82L195,83L191,78L189,72L187,61L186,59L185,60L184,62L183,65L181,66L181,65L181,70L181,84L181,91L183,96L187,103L191,109L194,112L197,112L203,111L207,115L210,119L213,118L219,118L224,122L226,126L229,127L239,131Z " data-fips="MJ00" data-hasc="ME.ZA" data-name="abljak" data-postal="ZA" data-varname=""/></g></svg>