<?xml version="1.0" ?><!DOCTYPE svg  PUBLIC '-//W3C//DTD SVG 1.1//EN'  'http://www.w3.org/Graphics/SVG/1.1/DTD/svg11.dtd'><svg enable_background="new 0 0 500 401" height="401px" style="stroke-linejoin: round; stroke:#000; fill:#f6f3f0;" version="1.1" viewBox="0 0 500 401" width="500px" xmlns="http://www.w3.org/2000/svg" xmlns:xlink="http://www.w3.org/1999/xlink"><defs><style type="text/css"><![CDATA[path { fill-rule: evenodd; }
#context path { fill: #eee; stroke: #bbb; } ]]></style></defs><metadata><views><view h="401" padding="0" w="500"><proj id="laea" lat0="52.077" lon0="5.389"/><bbox h="34.72" w="29.11" x="984.29" y="981.66"/><llbbox lat0="-90" lat1="90" lon0="-180" lon1="180"/></view></views></metadata><g id="admin1"><path d="M361,129L362,128L366,126L368,125L370,125L376,128L377,129L377,130L377,131L378,132L379,130L382,130L390,129L395,131L399,130L400,130L404,131L405,128L406,123L406,108L407,103L407,101L407,100L405,98L404,97L403,97L404,91L404,91L399,85L395,80L392,77L389,74L387,72L385,70L381,66L378,63L377,62L375,62L369,63L368,61L365,57L363,56L362,54L359,52L358,51L355,50L352,53L350,54L349,55L348,57L348,58L347,59L346,62L345,64L343,67L342,66L342,68L343,69L346,71L346,72L346,74L347,75L351,81L353,84L352,85L349,89L345,92L342,90L341,90L338,90L337,91L334,95L332,106L333,107L333,108L333,109L330,113L328,114L327,115L330,123L331,125L332,125L334,125L335,124L336,124L339,126L344,126L345,128L346,129L347,130L348,131L349,133L350,133L352,133L353,132L354,133L355,133L356,132L357,132L361,134Z " data-fips="NL01" data-hasc="NL.DR" data-name="Drenthe" data-postal="DR" data-varname=""/><path d="M225,48L227,45L233,38L236,37L237,37L239,36L235,35L229,39L224,44L220,48L223,50Z M278,109L284,104L286,103L288,103L292,103L297,108L300,106L302,107L304,107L305,107L308,105L309,104L310,103L312,103L313,102L314,104L315,105L318,105L320,103L320,102L322,102L323,102L334,95L337,91L338,90L341,90L342,90L345,92L349,89L352,85L353,84L351,81L347,75L346,74L346,72L346,71L343,69L342,68L342,66L341,66L338,64L336,63L332,63L331,62L330,61L330,58L330,55L331,53L334,48L334,47L334,45L335,43L336,41L337,39L338,37L339,35L338,35L339,34L339,32L338,30L336,30L335,31L334,30L333,29L331,28L330,28L329,25L330,23L331,21L322,22L313,22L308,25L306,25L303,27L289,33L286,36L282,36L281,37L279,38L278,40L276,42L273,43L271,45L268,48L267,53L264,62L263,66L261,67L257,68L255,69L254,71L245,79L246,80L246,81L252,99L262,110Z M260,25L263,24L267,22L270,22L271,21L271,19L276,19L278,18L280,15L267,18L266,19L265,20L254,22L252,22L250,24L246,25L245,28L246,30L248,30Z M292,17L294,16L303,16L311,14L308,12L287,13L286,13L285,14L284,16L286,18L288,19Z M328,13L342,8L343,7L341,6L333,7L331,8L327,9L325,11L326,13L326,14L326,15Z " data-fips="NL02" data-hasc="NL.FR" data-name="Friesland" data-postal="FR" data-varname="Frise|Frisia|Frsia"/><path d="M257,257L259,257L260,255L261,253L262,251L263,248L264,247L268,248L270,247L271,246L273,245L275,246L276,247L282,246L286,247L287,250L288,251L290,251L296,255L305,256L305,254L307,253L308,254L310,256L312,257L314,256L314,253L313,250L311,249L311,248L312,247L316,246L318,245L319,244L321,243L324,242L327,243L329,243L331,244L329,242L326,238L325,238L328,236L331,237L334,239L337,241L339,240L341,241L342,243L345,243L347,244L347,246L350,245L351,244L350,241L356,242L357,242L359,242L363,238L372,235L379,235L382,233L384,231L386,227L386,227L388,226L388,224L387,223L385,220L379,217L377,217L375,216L375,214L376,212L378,212L379,211L379,210L380,207L382,206L384,205L384,205L383,204L374,203L375,200L375,198L374,197L373,197L369,197L368,196L367,195L365,196L362,196L360,196L357,193L353,187L352,186L350,186L347,187L344,189L339,189L333,188L332,188L331,188L330,189L329,188L329,187L328,186L327,185L327,184L327,183L326,179L323,177L322,176L322,175L323,172L324,170L324,168L327,167L328,164L328,162L326,159L325,157L324,155L323,154L322,152L321,151L320,149L319,149L316,150L313,153L310,153L310,153L308,149L307,148L305,148L304,150L304,153L302,156L300,159L299,161L296,163L293,164L289,166L286,168L284,169L282,171L280,173L278,176L277,179L276,182L273,183L267,184L265,184L265,186L264,189L264,191L268,194L267,196L266,197L267,198L269,198L271,199L272,200L273,201L274,202L274,204L274,205L273,205L272,207L272,208L271,209L271,211L274,211L275,211L276,210L276,209L277,208L276,207L278,207L278,210L279,211L279,215L279,219L280,221L282,223L283,225L283,226L283,229L280,228L273,224L270,223L269,224L267,225L265,225L263,224L261,225L258,227L256,227L252,225L250,225L249,226L247,226L245,226L243,231L240,238L240,239L239,240L232,243L230,243L230,244L230,245L230,246L230,247L230,248L232,250L235,252L237,252L238,252L241,254L241,257L241,259Z " data-fips="NL03" data-hasc="NL.GE" data-name="Gelderland" data-postal="GE" data-varname="Geldern|Gheldria|Guelders|Gueldre"/><path d="M408,99L415,87L417,83L417,78L417,73L416,63L416,62L415,60L415,58L415,57L416,54L417,52L417,49L417,47L416,43L409,42L407,40L407,38L406,36L407,35L407,34L406,35L405,35L404,35L403,34L402,35L398,33L395,32L394,30L391,29L388,17L387,15L385,15L377,13L357,17L344,21L342,22L341,22L338,21L331,21L330,23L329,25L330,28L331,28L333,29L334,30L335,31L336,30L338,30L339,32L339,34L338,35L339,35L338,37L337,39L336,41L335,43L334,45L334,47L334,48L331,53L330,55L330,58L330,61L331,62L332,63L336,63L338,64L341,66L342,66L343,67L345,64L346,62L347,59L348,58L348,57L349,55L350,54L352,53L355,50L358,51L359,52L362,54L363,56L365,57L368,61L369,63L375,62L377,62L378,63L381,66L385,70L387,72L389,74L392,77L395,80L399,85L404,91L404,91L403,97L404,97L405,98L407,100L407,101Z M358,2L353,0L352,1L354,2L357,3Z " data-fips="NL04" data-hasc="NL.GR" data-name="Groningen" data-postal="GR" data-varname="Groninga|Groningue"/><path d="M318,399L318,397L317,396L316,395L316,394L315,392L317,393L318,391L318,390L318,388L318,387L319,386L320,385L322,385L323,384L324,383L324,381L323,378L324,376L321,375L319,374L318,373L318,372L318,370L318,369L318,367L315,367L313,367L311,366L310,367L308,368L307,368L307,365L305,361L305,357L307,356L308,357L309,358L311,359L312,359L313,358L315,354L316,353L324,346L329,343L331,341L329,340L332,338L330,337L325,340L323,339L322,336L323,333L323,330L324,329L326,326L331,318L331,317L334,315L335,314L335,312L335,309L336,308L334,306L334,304L335,301L335,298L335,295L334,291L331,287L325,279L324,277L325,275L326,272L320,269L318,267L319,263L318,262L316,260L315,260L312,259L312,257L310,256L308,254L307,253L305,254L305,256L307,256L306,258L307,260L309,261L312,261L313,262L315,267L316,269L316,271L317,271L318,272L319,275L320,276L321,281L322,282L322,283L320,284L317,282L313,284L310,284L309,284L306,283L303,283L304,292L306,300L309,304L312,309L308,311L306,313L304,314L297,316L289,319L287,321L286,322L285,325L284,330L283,331L281,331L279,332L278,333L279,334L284,335L285,336L286,337L287,338L289,338L293,337L294,337L295,338L297,341L298,342L301,341L302,341L303,344L302,345L302,346L304,349L302,350L300,350L301,351L301,352L300,354L300,355L299,356L297,355L297,356L297,358L298,360L297,363L293,369L296,369L297,369L296,371L294,374L293,376L292,377L291,377L290,378L284,384L284,387L286,390L288,391L290,392L291,392L291,394L290,397L293,398L294,398L296,396L297,396L299,398L300,398L307,398L309,399L316,399Z " data-fips="NL05" data-hasc="NL.LI" data-name="Limburg" data-postal="LI" data-varname="Limbourg|Limburgo"/><path d="M389,204L390,203L392,199L393,198L397,196L399,194L401,191L402,190L406,187L405,185L404,182L404,180L405,177L406,173L407,168L406,165L400,156L399,157L398,158L396,159L394,159L392,159L387,157L380,156L378,155L376,153L376,151L375,149L375,146L374,144L375,144L380,141L377,139L377,138L377,137L377,136L377,134L376,133L378,132L377,131L377,130L377,129L376,128L370,125L368,125L366,126L362,128L361,129L361,134L357,132L356,132L355,133L354,133L353,132L352,133L350,133L349,133L348,131L347,130L346,129L345,128L344,126L339,126L336,124L335,124L334,125L332,125L331,125L330,123L327,115L328,114L330,113L333,109L333,108L333,107L332,106L323,102L322,102L320,102L320,103L318,105L315,105L314,104L313,102L312,103L310,103L309,104L308,105L305,107L304,107L302,107L300,106L297,108L304,111L308,114L309,116L309,117L310,120L311,124L310,125L310,126L311,127L314,128L316,129L318,131L315,133L310,134L308,134L307,134L302,136L302,137L302,139L303,140L307,148L308,149L310,153L310,153L313,153L316,150L319,149L320,149L321,151L322,152L323,154L324,155L325,157L326,159L328,162L328,164L327,167L324,168L324,170L323,172L322,175L322,176L323,177L326,179L327,183L327,184L327,185L328,186L329,187L329,188L330,189L331,188L332,188L333,188L339,189L344,189L347,187L350,186L352,186L353,187L357,193L360,196L362,196L365,196L367,195L368,196L369,197L373,197L374,197L375,198L375,200L374,203L383,204L384,205L384,205Z " data-fips="NL15" data-hasc="NL.OV" data-name="Overijssel" data-postal="OV" data-varname=""/><path d="M273,183L276,182L277,179L278,176L280,173L282,171L284,169L289,166L293,164L296,163L299,161L300,159L302,156L304,153L304,150L305,148L303,140L302,139L302,137L302,136L307,134L308,134L310,134L315,133L318,131L316,129L314,128L311,127L310,126L310,125L311,124L310,120L309,117L309,116L308,114L304,111L297,108L296,105L293,103L290,103L288,103L286,103L284,104L281,106L278,109L262,110L262,110L261,124L256,123L254,124L252,130L238,139L240,148L244,155L246,161L244,161L239,165L239,170L243,175L246,176L249,176L251,176L254,176L262,182L265,184L267,184Z " data-fips="NL16" data-hasc="NL.FL" data-name="Flevoland" data-postal="FL" data-varname=""/><path d="M136,332L140,329L151,324L155,320L159,316L159,314L160,310L158,309L156,310L154,312L151,311L150,311L148,310L147,310L146,309L145,307L144,306L143,305L141,304L139,304L138,305L138,308L136,309L128,313L126,313L122,312L119,312L117,311L114,309L105,306L100,302L99,302L97,303L83,308L83,313L83,317L83,320L84,324L86,326L89,327L91,328L96,327L96,326L96,324L96,322L97,321L98,321L100,321L103,320L105,320L108,321L118,325L120,326L121,328L120,329L121,331L122,332L123,333L133,333Z M165,308L164,308L164,305L164,303L164,302L164,300L163,300L160,300L158,300L157,299L152,300L150,299L149,297L147,293L146,290L142,287L138,285L130,284L130,283L133,281L132,279L131,278L129,276L128,275L126,275L102,277L93,282L92,284L92,286L93,288L96,290L97,292L98,294L100,296L101,297L106,298L108,298L112,297L113,297L117,301L122,303L124,306L126,306L127,306L130,305L132,305L133,303L136,298L137,298L140,298L142,299L147,303L148,304L150,305L158,305L160,305L161,303L162,304L162,305L162,306L162,308L163,310L165,310Z M162,286L162,286L162,284L162,282L159,279L157,277L155,276L147,276L145,276L140,279L147,285L149,287L150,287L153,287L154,287L158,288L161,289Z M157,275L158,272L157,271L155,270L153,269L151,271L151,272L151,273L152,274L153,275L154,275L157,275Z M146,273L147,272L149,271L150,270L150,267L148,266L144,265L144,264L143,263L139,259L138,258L136,257L128,257L127,256L125,256L117,257L114,259L114,263L115,265L117,266L121,265L123,263L125,263L126,265L130,266L131,267L132,269L132,271L134,272L138,274L139,274Z " data-fips="NL10" data-hasc="NL.ZE" data-name="Zeeland" data-postal="ZE" data-varname="Zelanda|Zlande|Zelndia"/><path d="M279,332L281,331L283,331L284,330L285,325L286,322L287,321L289,319L297,316L304,314L306,313L308,311L312,309L309,304L306,300L304,292L303,283L306,283L309,284L310,284L313,284L317,282L320,284L322,283L322,282L321,281L320,276L319,275L318,272L317,271L316,271L316,269L315,267L313,262L312,261L309,261L307,260L306,258L307,256L305,256L296,255L290,251L288,251L287,250L286,247L282,246L276,247L275,246L273,245L271,246L270,247L268,248L264,247L263,248L262,251L261,253L260,255L259,257L257,257L241,259L241,257L241,254L238,252L237,252L235,252L232,250L230,248L230,247L230,246L228,247L224,246L221,246L218,249L216,249L211,249L208,251L206,253L205,256L201,261L198,261L196,262L192,263L189,264L186,264L177,262L174,267L170,270L166,271L162,271L158,272L157,275L157,275L158,275L159,276L159,279L162,282L162,284L162,286L162,286L161,289L162,289L164,291L166,293L167,296L166,299L164,300L164,302L164,303L164,305L164,308L165,308L165,310L166,310L169,312L171,313L175,313L177,312L177,310L177,308L175,306L174,305L174,303L175,302L175,301L174,300L179,297L183,296L186,295L187,295L188,297L188,299L187,301L187,302L188,303L189,304L192,303L195,304L196,304L197,303L199,302L205,294L208,293L209,293L211,294L212,295L213,296L214,298L213,300L213,302L213,305L209,303L208,303L208,305L210,305L216,306L218,306L221,308L223,307L225,305L227,302L229,300L229,298L229,297L230,296L232,296L234,298L236,301L236,304L235,306L234,309L235,310L238,314L238,315L239,318L240,319L241,320L245,319L246,320L248,322L248,327L249,327L253,326L263,327L265,326L269,323L271,323L273,323L275,324L276,326L277,329L278,333Z " data-fips="NL06" data-hasc="NL.NB" data-name="Noord-Brabant" data-postal="" data-varname="Brabante del Norte|Brabante do Norte|Brabante settentrionale|Brabant-septentrional|Nord-Brabant|Nort"/><path d="M220,229L223,229L225,226L228,224L233,225L235,223L237,222L239,221L240,221L241,222L242,224L243,225L245,226L247,226L249,226L250,225L252,225L256,227L258,227L261,225L263,224L265,225L267,225L269,224L270,223L273,224L280,228L283,229L283,226L283,225L282,223L280,221L279,219L279,215L279,211L278,210L278,207L276,207L277,208L276,209L276,210L275,211L274,211L271,211L271,209L272,208L272,207L273,205L274,205L274,204L274,202L273,201L272,200L271,199L269,198L267,198L266,197L267,196L268,194L264,191L264,189L265,186L265,184L258,182L254,182L252,183L251,185L249,190L249,191L248,192L248,194L247,195L245,196L241,196L237,197L236,197L233,198L233,195L232,193L233,190L235,188L234,186L233,186L232,184L233,183L235,182L232,182L230,182L230,181L228,181L226,182L225,183L223,183L222,185L218,186L216,187L215,188L213,189L210,192L211,193L213,194L218,198L217,198L217,200L218,201L217,203L215,202L214,202L211,204L212,206L214,206L215,211L219,211L218,212L215,214L212,219L216,219L217,220L215,221L214,222L215,223L218,227L219,230Z " data-fips="NL09" data-hasc="NL.UT" data-name="Utrecht" data-postal="" data-varname=""/><path d="M162,271L166,271L170,270L174,267L177,262L186,264L189,264L192,263L196,262L198,261L201,261L205,256L206,253L208,251L211,249L216,249L218,249L221,246L224,246L228,247L230,246L230,245L230,244L230,243L232,243L239,240L240,239L240,238L243,231L245,226L243,225L242,224L241,222L240,221L239,221L237,222L235,223L233,225L228,224L225,226L223,229L220,229L219,230L218,227L215,223L214,222L215,221L217,220L216,219L212,219L215,214L218,212L219,211L215,211L214,206L212,206L211,204L214,202L215,202L217,203L218,201L217,200L217,198L218,198L213,194L211,193L210,192L207,192L205,191L204,188L201,189L199,190L195,191L193,191L192,191L190,190L190,189L191,187L192,185L192,183L196,177L194,176L192,177L190,177L186,175L178,189L167,205L154,220L151,222L148,222L144,221L143,222L143,223L144,226L145,231L145,234L145,235L145,237L146,238L148,241L148,243L146,244L145,244L143,243L140,242L138,242L138,243L132,245L130,246L131,250L132,250L134,249L136,249L138,249L140,247L142,249L144,251L146,254L146,259L148,261L154,263L156,264L157,265L154,265L152,266L151,267L151,269L151,271L153,269L155,270L157,271L158,272Z " data-fips="NL11" data-hasc="NL.ZH" data-name="Zuid-Holland" data-postal="" data-varname="Hollande-mridionale|South Holland"/><path d="M236,197L237,197L241,196L245,196L247,195L248,194L248,192L249,191L249,190L251,185L252,183L254,182L258,182L254,176L251,176L249,176L246,176L243,175L239,170L239,165L244,161L246,161L244,155L240,148L238,139L252,130L254,124L256,123L261,124L262,110L252,99L246,81L246,80L245,79L237,86L233,88L230,88L228,89L225,92L223,93L219,93L216,92L214,90L215,85L214,84L214,85L208,84L207,85L207,88L206,92L206,94L205,99L202,108L201,113L201,115L199,122L195,149L193,153L193,154L192,158L187,173L186,175L190,177L192,177L194,176L196,177L192,183L192,185L191,187L190,189L190,190L192,191L193,191L195,191L199,190L201,189L204,188L205,191L207,192L213,189L215,188L216,187L218,186L222,185L223,183L225,183L226,182L228,181L230,181L230,182L232,182L235,182L233,183L232,184L233,186L234,186L235,188L233,190L232,193L233,195L233,198Z M213,80L215,76L219,73L221,69L222,67L223,65L221,64L223,63L223,61L222,58L221,56L221,55L221,53L218,53L216,57L214,61L210,64L208,68L206,72L205,76L207,79L210,80Z " data-fips="NL07" data-hasc="NL.NH" data-name="Noord-Holland" data-postal="" data-varname="Holanda do Norte|Hollande-septentrionale|North Holland"/></g></svg>