<?xml version="1.0" ?><!DOCTYPE svg  PUBLIC '-//W3C//DTD SVG 1.1//EN'  'http://www.w3.org/Graphics/SVG/1.1/DTD/svg11.dtd'><svg enable_background="new 0 0 500 401" height="401px" style="stroke-linejoin: round; stroke:#000; fill:#f6f3f0;" version="1.1" viewBox="0 0 500 401" width="500px" xmlns="http://www.w3.org/2000/svg" xmlns:xlink="http://www.w3.org/1999/xlink"><defs><style type="text/css"><![CDATA[path { fill-rule: evenodd; }
#context path { fill: #eee; stroke: #bbb; } ]]></style></defs><metadata><views><view h="401" padding="0" w="500"><proj id="laea" lat0="40.309" lon0="-8.058"/><bbox h="145.83" w="235.21" x="781.88" y="977.23"/><llbbox lat0="-90" lat1="90" lon0="-180" lon1="180"/></view></views></metadata><g id="admin1"><path d="M111,147L110,146L110,145L108,145L107,146L108,147L109,147L110,148Z M112,126L113,124L112,123L109,123L106,123L105,122L104,123L102,122L102,122L101,121L100,120L99,119L98,121L99,122L101,124L102,125L104,125L105,126L106,126L108,126Z M57,96L56,96L55,95L54,94L53,93L51,91L49,91L48,91L48,93L50,95L53,96L53,97L55,96L56,97Z M78,95L79,94L79,93L79,92L77,91L74,90L73,90L72,92L73,93L73,94L74,94L76,95L77,95Z M46,91L47,91L47,89L45,88L44,88L43,88L43,89L44,91L45,91L47,91Z M63,93L62,93L59,90L55,88L55,88L54,87L55,88L56,89L56,90L58,92L59,92L60,93L61,94L62,94L64,95Z M63,80L62,79L61,79L61,81L62,81L63,81Z M2,57L3,56L3,55L3,53L2,53L1,53L1,54L0,55L0,56L1,57Z M6,49L5,48L5,49L5,50Z " data-fips="PO23" data-hasc="PT.AC" data-name="Azores" data-postal="AC" data-varname="Aores"/><path d="M270,284L271,283L272,282L273,282L272,281L271,281L270,280L269,279L267,279L266,280L265,280L264,279L263,278L262,278L261,279L261,280L262,281L263,282L267,284L268,285Z M282,275L283,274L282,273L281,274L281,275Z " data-fips="PO10" data-hasc="PT.MA" data-name="Madeira" data-postal="MA" data-varname=""/><path d="M456,93L457,92L458,90L458,89L459,88L460,88L459,87L459,85L459,84L459,83L458,82L459,81L460,80L460,79L461,78L463,78L462,77L462,76L463,75L462,75L460,75L460,73L459,73L459,73L458,73L457,74L456,73L455,74L454,74L453,74L452,74L452,75L450,84L451,82L451,81L451,80L452,79L452,81L453,82L452,82L452,83L451,84L450,84L449,85L449,87L449,87L452,89L453,88L453,89L454,90L455,90L455,91L455,92L455,93Z " data-fips="PO02" data-hasc="PT.AV" data-name="Aveiro" data-postal="AV" data-varname=""/><path d="M442,120L444,119L445,119L445,118L446,116L446,115L447,115L449,114L450,114L451,113L451,112L451,111L451,110L452,109L451,108L451,107L453,106L454,106L455,105L456,107L456,108L457,107L458,106L459,106L460,105L461,105L462,104L463,102L462,100L461,99L460,99L459,101L459,102L458,102L457,102L456,101L455,101L454,102L454,101L453,100L452,101L451,100L450,100L449,100L448,100L447,100L445,105L443,110L442,111L442,112L441,113L441,114L440,115L440,116L439,116L438,117L436,117L437,118L437,119L438,119L439,119L440,119L442,121Z " data-fips="PO13" data-hasc="PT.LE" data-name="Leiria" data-postal="LE" data-varname=""/><path d="M451,58L452,58L453,58L454,58L455,57L455,56L456,55L457,55L459,55L461,53L461,53L460,52L460,51L461,49L462,49L463,47L462,47L461,47L461,46L460,45L459,45L458,46L455,46L454,47L453,47L452,48L451,49L450,49L450,50L449,51L448,53L447,54L447,55L448,56L449,56L451,56L450,56L448,57L449,58L449,59Z " data-fips="PO20" data-hasc="PT.VC" data-name="Viana do Castelo" data-postal="VC" data-varname="Vianna do Castello"/><path d="M464,171L465,169L466,169L467,168L468,168L469,167L471,167L473,167L474,166L475,166L475,166L475,165L475,164L476,163L476,161L477,160L479,158L479,156L480,154L481,154L482,154L483,153L483,152L485,153L485,152L486,150L486,149L486,148L485,148L484,149L483,149L483,149L482,148L481,147L481,147L480,146L480,145L479,145L477,146L477,147L476,147L475,148L473,148L471,148L470,147L468,147L466,146L465,145L464,145L463,145L462,145L462,147L461,148L460,148L459,149L459,150L458,150L457,151L457,152L458,153L459,153L459,155L458,157L457,157L456,157L454,157L453,158L453,159L452,160L451,160L450,159L449,158L448,158L448,161L449,160L448,161L448,163L448,164L448,165L448,168L449,168L450,169L451,169L452,169L453,169L454,170L455,170L456,169L457,169L458,168L459,169L460,170L462,171L463,171Z " data-fips="PO03" data-hasc="PT.BE" data-name="Beja" data-postal="BE" data-varname=""/><path d="M483,149L483,148L482,146L481,145L479,142L478,141L478,140L479,139L479,137L479,136L480,134L481,133L481,133L481,131L479,132L479,132L477,132L477,131L477,130L476,129L475,128L474,127L474,128L473,129L472,129L471,129L470,130L469,130L468,129L466,128L465,129L464,128L464,127L463,128L463,127L462,127L461,127L460,128L460,129L460,130L461,130L461,131L462,132L461,133L461,132L460,132L459,131L458,131L457,132L456,132L455,133L454,133L454,134L454,135L452,137L452,138L452,139L454,140L455,140L456,140L457,139L458,140L458,141L459,142L459,143L459,144L460,144L462,145L463,145L464,145L465,145L466,146L468,147L470,147L471,148L473,148L475,148L476,147L477,147L477,146L479,145L480,145L480,146L481,147L481,147L482,148L483,149Z " data-fips="PO08" data-hasc="PT.EV" data-name="vora" data-postal="EV" data-varname=""/><path d="M469,179L473,177L474,176L476,175L477,175L477,173L477,172L476,170L476,168L476,167L475,166L475,166L474,166L473,167L471,167L469,167L468,168L467,168L466,169L465,169L464,171L463,171L462,171L460,170L459,169L458,168L457,169L456,169L455,170L454,170L453,169L452,169L451,169L450,169L449,168L448,168L448,169L447,170L447,171L446,173L446,174L446,175L445,176L444,178L444,179L445,179L446,179L447,178L448,178L449,177L451,177L452,176L454,177L455,177L458,177L459,178L463,178L464,179L465,179L466,179L468,180Z " data-fips="PO09" data-hasc="PT.FA" data-name="Faro" data-postal="FA" data-varname=""/><path d="M453,159L453,158L454,157L456,157L457,157L458,157L459,155L459,153L458,153L457,152L457,151L458,150L459,150L459,149L460,148L461,148L462,147L462,145L460,144L459,144L459,143L459,142L458,141L458,140L457,139L456,140L455,140L454,140L452,139L452,138L452,137L454,135L454,134L454,133L452,133L452,132L450,132L450,133L449,134L448,134L447,134L446,133L446,132L446,131L446,130L447,128L447,127L447,126L449,125L448,126L446,126L445,128L444,130L445,131L445,132L445,133L444,134L443,135L442,136L440,135L439,136L439,137L440,138L440,139L440,140L440,142L441,142L443,141L446,140L448,141L449,141L448,140L449,139L449,140L449,141L450,142L451,142L452,142L451,143L448,142L447,141L445,141L447,142L448,143L448,147L448,150L448,152L446,155L448,156L448,157L448,158L449,158L450,159L451,160L452,160Z M438,135L440,135L441,134L442,133L442,132L443,131L444,128L445,127L446,126L448,126L449,125L448,124L447,123L447,122L448,122L446,121L445,120L445,119L444,119L442,120L442,121L440,119L439,119L438,119L437,119L437,121L437,123L436,124L436,126L436,127L436,128L435,131L434,133L434,135L436,135L437,135Z " data-fips="PO14" data-hasc="PT.LI" data-name="Lisboa" data-postal="LI" data-varname="Lisbon|Lisbona|Lisbonne|Lissabon"/><path d="M481,133L482,132L483,132L484,131L484,130L485,129L486,127L486,126L485,125L484,124L483,124L482,124L482,123L481,122L480,122L480,121L480,120L479,119L478,118L479,116L479,115L477,114L477,113L476,113L475,112L474,110L474,109L473,110L471,110L470,111L470,112L469,113L468,113L467,113L466,113L465,114L465,115L466,116L465,117L464,118L464,119L463,120L462,120L461,121L460,122L459,123L458,125L459,126L460,127L461,127L462,127L463,127L463,128L464,127L464,128L465,129L466,128L468,129L469,130L470,130L471,129L472,129L473,129L474,128L474,127L475,128L476,129L477,130L477,131L477,132L479,132L479,132L481,131L481,133L481,133Z " data-fips="PO16" data-hasc="PT.PA" data-name="Portalegre" data-postal="PA" data-varname=""/><path d="M450,133L450,132L452,132L452,133L454,133L455,133L456,132L457,132L458,131L459,131L460,132L461,132L461,133L462,132L461,131L461,130L460,130L460,129L460,128L461,127L460,127L459,126L458,125L459,123L460,122L461,121L462,120L463,120L464,119L464,118L465,117L466,116L465,115L465,114L466,113L467,113L468,113L469,113L469,112L468,111L467,110L466,110L466,109L465,108L464,108L463,110L464,111L462,111L462,111L460,110L460,108L460,107L458,106L457,107L456,108L456,107L455,105L454,106L453,106L451,107L451,108L452,109L451,110L451,111L451,112L451,113L450,114L449,114L447,115L446,115L446,116L445,118L445,119L445,120L446,121L448,122L447,122L447,123L448,124L449,125L449,125L447,126L447,127L447,128L446,130L446,131L446,132L446,133L447,134L448,134L449,134Z " data-fips="PO18" data-hasc="PT.SA" data-name="Santarm" data-postal="SA" data-varname=""/><path d="M466,64L466,63L467,62L468,61L468,59L468,59L467,59L466,59L465,59L465,57L464,56L463,56L463,55L464,54L464,53L463,54L461,53L459,55L457,55L456,55L455,56L455,57L454,58L453,58L452,58L451,58L449,59L449,58L449,59L449,60L449,61L449,62L450,62L451,63L452,63L453,65L453,66L455,65L456,65L457,65L459,65L460,65L460,64L462,65L463,66L465,66Z " data-fips="PO04" data-hasc="PT.BR" data-name="Braga" data-postal="BR" data-varname=""/><path d="M486,73L488,73L489,71L490,70L491,69L492,67L493,67L494,67L496,66L497,64L498,63L498,62L499,61L500,59L499,58L498,57L497,57L495,57L494,57L493,57L493,56L493,54L494,52L493,51L493,50L492,49L491,50L489,50L488,49L487,50L485,50L484,50L483,50L481,49L480,50L480,51L480,52L480,54L481,55L481,56L480,57L479,60L480,61L479,61L478,62L477,63L477,65L478,66L477,67L477,68L476,69L477,69L477,70L481,71L482,70L483,71L483,72L485,73L486,73Z " data-fips="PO05" data-hasc="PT.BA" data-name="Bragana" data-postal="BA" data-varname="Braganza"/><path d="M470,112L470,111L471,110L473,110L474,109L474,109L478,110L479,109L480,109L481,109L485,109L485,107L485,106L486,105L486,104L487,103L487,102L487,101L486,99L485,98L484,97L484,96L485,95L486,94L486,94L485,93L483,93L483,93L482,93L481,94L479,94L479,93L479,92L479,90L479,90L478,91L477,91L476,90L474,92L474,92L472,93L471,94L470,95L469,95L469,97L470,98L470,99L469,99L469,100L468,99L467,100L466,101L465,101L464,102L463,102L462,104L461,105L460,105L459,106L460,107L460,108L460,110L462,111L462,111L464,111L463,110L464,108L465,108L466,109L466,110L467,110L468,111L469,112L469,113Z " data-fips="PO06" data-hasc="PT.CB" data-name="Castelo Branco" data-postal="CB" data-varname=""/><path d="M459,102L459,101L460,99L461,99L462,100L463,102L463,102L464,102L465,101L466,101L467,100L468,99L469,100L469,99L470,99L470,98L469,97L469,95L468,94L469,93L469,92L469,91L468,90L469,89L468,88L468,88L467,89L466,90L465,91L464,91L462,92L461,92L460,92L459,92L457,92L456,93L455,93L455,92L455,91L455,90L454,90L453,89L453,88L452,89L449,87L449,87L449,89L448,94L447,95L447,97L448,97L449,98L447,98L447,100L448,100L449,100L450,100L451,100L452,101L453,100L454,101L454,102L455,101L456,101L457,102L458,102Z " data-fips="PO07" data-hasc="PT.CO" data-name="Coimbra" data-postal="CO" data-varname=""/><path d="M470,95L471,94L472,93L474,92L474,92L476,90L477,91L478,91L479,90L479,90L479,92L479,93L479,94L481,94L482,93L483,93L483,93L485,93L486,94L486,94L487,94L488,93L489,91L488,90L488,88L488,87L488,86L488,85L488,84L488,82L488,81L488,79L488,78L487,77L487,75L486,75L486,73L485,73L483,72L483,71L482,70L481,71L478,72L478,74L477,75L478,76L477,77L476,77L476,78L475,79L475,78L473,78L473,79L472,80L473,81L473,82L474,83L474,84L473,86L472,86L470,87L469,88L468,88L469,89L468,90L469,91L469,92L469,93L468,94L469,95Z " data-fips="PO11" data-hasc="PT.GU" data-name="Guarda" data-postal="GU" data-varname=""/><path d="M456,73L457,74L458,73L459,73L459,73L461,72L464,72L466,71L467,71L467,69L467,68L467,67L466,66L465,66L463,66L462,65L460,64L460,65L459,65L457,65L456,65L455,65L453,66L453,65L452,63L451,63L450,62L449,62L449,65L450,66L450,67L450,68L451,70L452,71L452,72L452,74L453,74L454,74L455,74Z " data-fips="PO17" data-hasc="PT.PO" data-name="Porto" data-postal="PO" data-varname="Oporto"/><path d="M461,92L462,92L464,91L465,91L466,90L467,89L468,88L468,88L469,88L470,87L472,86L473,86L474,84L474,83L473,82L473,81L472,80L473,79L473,78L475,78L475,79L476,78L476,77L477,77L478,76L477,75L478,74L478,72L477,70L477,69L476,69L473,70L471,70L470,71L469,70L468,70L467,71L466,71L464,72L461,72L459,73L460,73L460,75L462,75L463,75L462,76L462,77L463,78L461,78L460,79L460,80L459,81L458,82L459,83L459,84L459,85L459,87L460,88L459,88L458,89L458,90L459,92L460,92Z " data-fips="PO22" data-hasc="PT.VI" data-name="Viseu" data-postal="VI" data-varname="Vizeu"/><path d="M471,70L473,70L476,69L477,68L477,67L478,66L477,65L477,63L478,62L479,61L480,61L479,60L480,57L481,56L481,55L480,54L480,52L480,51L479,52L478,53L476,53L476,54L475,52L474,52L473,53L472,53L472,52L471,52L470,51L468,52L467,52L467,52L466,51L466,52L465,52L464,53L464,54L463,55L463,56L464,56L465,57L465,59L466,59L467,59L468,59L468,59L468,61L467,62L466,63L466,64L466,66L467,67L467,68L467,69L467,71L468,70L469,70L470,71Z " data-fips="PO21" data-hasc="PT.VR" data-name="Vila Real" data-postal="VR" data-varname="Villa Real"/></g></svg>