<?xml version="1.0" ?><!DOCTYPE svg  PUBLIC '-//W3C//DTD SVG 1.1//EN'  'http://www.w3.org/Graphics/SVG/1.1/DTD/svg11.dtd'><svg enable_background="new 0 0 500 401" height="401px" style="stroke-linejoin: round; stroke:#000; fill:#f6f3f0;" version="1.1" viewBox="0 0 500 401" width="500px" xmlns="http://www.w3.org/2000/svg" xmlns:xlink="http://www.w3.org/1999/xlink"><defs><style type="text/css"><![CDATA[path { fill-rule: evenodd; }
#context path { fill: #eee; stroke: #bbb; } ]]></style></defs><metadata><views><view h="401" padding="0" w="500"><proj id="laea" lat0="45.844" lon0="24.969"/><bbox h="57.21" w="81.55" x="959.59" y="969.84"/><llbbox lat0="-90" lat1="90" lon0="-180" lon1="180"/></view></views></metadata><g id="admin1"><path d="M206,360L208,359L208,358L209,356L210,354L210,353L209,351L210,350L211,350L211,349L211,347L209,346L207,346L206,345L207,343L207,342L207,341L208,340L209,341L210,340L209,338L209,336L209,334L209,333L209,332L207,330L206,330L203,328L203,327L202,326L201,324L199,322L199,322L198,320L197,319L196,319L195,318L193,315L191,314L190,313L190,312L191,310L193,308L192,306L191,305L190,304L189,300L188,299L186,298L184,296L184,295L182,292L181,293L181,294L181,295L181,297L181,298L181,299L181,300L181,301L178,301L173,303L168,306L167,307L164,307L163,307L161,308L158,308L157,309L158,309L157,310L156,311L155,313L153,313L153,314L152,316L153,317L154,317L155,318L156,318L156,319L154,319L151,321L150,322L150,324L150,326L148,329L148,331L149,332L149,334L147,335L146,335L141,340L142,340L143,343L142,345L140,346L139,346L137,347L135,347L134,347L134,349L132,355L132,356L133,358L134,359L136,360L148,359L149,358L151,358L153,357L158,356L167,357L173,360L175,361L180,360L181,360L184,362L203,367Z " data-fips="RO17" data-hasc="RO.DJ" data-name="Dolj" data-postal="DJ" data-varname=""/><path d="M173,303L178,301L181,301L181,300L181,299L181,298L181,297L181,295L181,294L181,293L182,292L184,289L185,285L184,276L184,275L184,274L185,272L187,266L187,265L187,263L187,262L188,258L188,257L187,256L187,254L187,252L187,249L187,248L185,247L182,247L180,247L178,246L176,246L174,246L171,247L168,248L167,249L166,249L165,248L163,248L162,248L161,248L159,249L156,250L153,251L152,251L149,250L148,251L144,252L143,251L142,251L139,250L138,249L137,249L125,253L122,256L120,258L119,259L120,260L121,261L123,261L124,262L123,264L126,265L128,268L129,269L130,269L132,269L133,269L134,270L135,271L136,272L137,273L138,274L138,275L138,277L138,278L138,280L138,282L139,283L143,289L147,293L149,294L150,294L159,297L160,298L164,300L167,304L168,306Z " data-fips="RO19" data-hasc="RO.GJ" data-name="Gorj" data-postal="GJ" data-varname=""/><path d="M146,335L147,335L149,334L149,332L148,331L148,329L150,326L150,324L150,322L151,321L154,319L156,319L156,318L155,318L154,317L153,317L152,316L153,314L153,313L155,313L156,311L157,310L158,309L157,309L158,308L161,308L163,307L164,307L167,307L168,306L167,304L164,300L160,298L159,297L150,294L149,294L147,293L143,289L139,283L138,282L138,280L138,278L138,277L138,275L138,274L137,273L136,272L135,271L134,270L133,269L132,269L130,269L129,269L128,268L126,265L123,264L121,266L119,269L119,270L119,272L118,273L118,274L117,276L115,280L114,283L113,287L112,288L111,289L110,290L109,289L109,288L107,287L106,287L104,287L103,285L101,284L100,285L100,286L100,287L99,288L98,290L97,292L97,294L97,296L97,297L97,298L97,300L96,301L95,301L93,300L90,301L90,302L91,303L92,304L92,306L93,307L94,308L96,308L97,308L98,307L104,296L104,295L105,294L108,294L109,293L111,291L112,291L114,292L118,296L120,297L121,298L126,300L129,303L129,304L128,305L126,306L125,306L124,305L122,304L121,304L120,303L119,304L118,305L118,306L118,307L116,308L114,308L113,309L113,310L113,312L114,313L115,314L115,316L115,318L117,320L119,322L121,323L123,323L124,324L124,325L124,328L124,329L136,338L138,339L140,339L141,340Z " data-fips="RO26" data-hasc="RO.MH" data-name="Mehedinti" data-postal="MH" data-varname="Mehedin?i"/><path d="M215,366L218,364L220,363L222,364L231,367L231,367L232,365L234,364L235,363L236,363L235,361L233,357L231,354L229,349L229,348L230,347L231,345L232,345L234,344L235,344L237,342L238,341L240,341L241,340L241,338L240,337L240,336L240,334L241,331L241,330L241,326L241,323L241,321L241,319L240,318L238,318L237,317L236,316L236,313L236,310L236,309L236,307L236,304L235,303L235,301L235,299L234,298L233,296L233,295L234,294L235,293L234,292L232,292L231,292L230,291L229,290L227,285L226,284L226,283L226,281L225,281L224,282L224,283L223,284L221,286L220,286L219,280L218,279L217,280L216,281L215,283L214,285L214,286L213,289L213,290L212,291L211,293L211,294L212,297L212,299L212,300L213,301L213,303L214,304L213,305L212,304L211,303L211,302L211,301L210,303L209,305L207,306L206,306L205,305L204,305L202,306L201,309L199,309L199,308L198,307L197,307L195,307L193,308L191,310L190,312L190,313L191,314L193,315L195,318L196,319L197,319L198,320L199,322L199,322L201,324L202,326L203,327L203,328L206,330L207,330L209,332L209,333L209,334L209,336L209,338L210,340L209,341L208,340L207,341L207,342L207,343L206,345L207,346L209,346L211,347L211,349L211,350L210,350L209,351L210,353L210,354L209,356L208,358L208,359L206,360L203,367L203,367Z " data-fips="RO29" data-hasc="RO.OT" data-name="Olt" data-postal="OT" data-varname=""/><path d="M273,375L275,374L276,373L279,373L280,373L281,373L282,373L283,372L284,371L285,370L286,370L290,370L289,362L288,361L287,359L286,357L285,349L284,345L284,344L285,342L286,340L286,337L287,337L288,337L289,335L289,334L288,332L288,331L288,329L288,328L287,326L286,326L284,324L279,323L278,322L277,320L277,319L276,318L276,317L277,314L278,312L278,311L276,310L273,309L272,308L271,309L271,311L270,312L269,314L268,314L267,316L266,316L264,315L263,315L261,314L260,314L257,315L256,315L254,317L253,317L251,317L250,317L249,318L248,319L247,319L244,318L241,319L241,321L241,323L241,326L241,330L241,331L240,334L240,336L240,337L241,338L241,340L240,341L238,341L237,342L235,344L234,344L232,345L231,345L230,347L229,348L229,349L231,354L233,357L235,361L236,363L235,363L234,364L232,365L231,367L231,367L233,368L236,368L247,367L254,370L261,370L263,371L265,372L267,373L269,375L272,375Z " data-fips="RO35" data-hasc="RO.TR" data-name="Teleorman" data-postal="TR" data-varname=""/><path d="M315,328L316,327L319,324L319,322L321,319L322,318L323,317L324,316L327,314L328,313L328,312L327,311L326,310L326,309L327,308L326,307L323,306L323,304L324,303L324,302L327,301L327,300L326,299L323,297L322,295L322,294L322,293L322,292L321,291L319,291L315,290L313,290L312,290L309,291L305,291L303,294L302,295L302,296L301,297L301,299L303,300L302,301L300,304L298,305L300,309L299,311L298,313L298,314L298,318L298,319L298,320L300,321L302,322L303,323L304,323L305,324L309,327L310,328L312,328L313,328Z " data-fips="RO10" data-hasc="RO.BI" data-name="Bucharest" data-postal="BI" data-varname="Bucarest|Bucareste|Bucuresti|Bukarest"/><path d="M337,341L339,340L341,340L342,339L345,339L347,339L352,335L358,335L359,334L363,336L369,337L370,338L372,338L373,336L374,335L383,336L384,335L385,335L386,333L389,331L391,331L395,331L398,330L399,329L401,328L408,325L410,324L412,322L405,316L400,314L397,313L396,312L395,311L392,310L390,309L382,308L381,308L379,308L377,309L367,309L364,310L363,310L361,310L357,308L356,308L355,308L352,309L351,308L349,307L347,308L346,308L345,307L344,307L342,305L341,305L340,306L339,307L337,308L335,308L333,306L331,306L327,308L326,309L326,310L327,311L328,312L328,313L327,314L324,316L323,317L322,318L321,319L319,322L319,324L321,327L326,329L327,331L328,332L329,334L329,336L329,337L328,338L327,340L326,342L326,343Z " data-fips="RO41" data-hasc="RO.CL" data-name="Calarasi" data-postal="CL" data-varname="Calara?i|Kalarasch"/><path d="M267,316L268,314L269,314L270,312L271,311L271,309L272,308L273,309L276,310L279,308L280,307L282,307L298,305L300,304L302,301L303,300L301,299L301,297L302,296L302,295L303,294L304,292L302,291L299,287L297,286L294,285L293,284L293,283L293,282L293,281L293,280L293,279L292,277L290,277L289,277L288,276L287,275L287,274L286,272L286,269L285,267L283,265L280,259L279,258L278,257L277,256L277,255L277,253L277,251L276,250L275,249L274,248L274,247L273,243L272,239L271,240L270,241L269,243L267,246L267,247L267,249L265,252L265,253L265,254L265,255L264,257L263,259L262,260L261,260L260,258L259,259L258,261L258,262L258,263L259,266L259,267L261,269L262,272L262,273L260,275L260,277L260,278L261,282L261,283L261,290L260,291L259,293L259,294L260,295L261,297L260,297L260,299L262,302L263,304L264,304L265,305L266,305L266,306L265,309L265,311L266,312L266,313L264,315L266,316Z " data-fips="RO16" data-hasc="RO.DB" data-name="Dmbovita" data-postal="DB" data-varname="Dmbovi?a"/><path d="M290,370L292,369L294,366L295,364L297,363L298,362L299,360L300,359L300,358L307,353L307,352L308,350L310,348L312,347L316,346L321,344L326,343L326,342L327,340L328,338L329,337L329,336L329,334L328,332L327,331L326,329L321,327L319,324L316,327L315,328L313,328L312,328L310,328L309,327L305,324L304,323L303,323L302,322L300,321L298,320L298,319L298,318L298,314L298,313L299,311L300,309L298,305L282,307L280,307L279,308L278,311L278,312L277,314L276,317L276,318L277,319L277,320L278,322L279,323L284,324L286,326L287,326L288,328L288,329L288,331L288,332L289,334L289,335L288,337L287,337L286,337L286,340L285,342L284,344L284,345L285,349L286,357L287,359L288,361L289,362L290,370Z " data-fips="RO42" data-hasc="RO.GR" data-name="Giurgiu" data-postal="GR" data-varname=""/><path d="M415,315L417,313L417,312L417,311L417,309L416,307L415,307L414,306L412,306L411,305L412,304L413,300L413,298L413,297L410,294L409,294L407,293L406,293L405,292L404,291L404,289L404,288L406,287L404,285L403,284L401,284L399,285L398,285L397,286L396,286L394,287L379,287L377,286L375,286L374,287L372,287L366,285L367,287L368,287L367,288L366,289L363,289L363,288L363,287L362,286L361,285L360,285L358,285L357,286L355,286L354,285L352,285L351,285L349,285L348,285L344,284L341,285L339,284L337,283L335,282L334,284L333,285L333,286L331,287L327,287L326,288L325,289L324,289L323,288L321,288L320,289L319,291L321,291L322,292L322,293L322,294L322,295L323,297L326,299L327,300L327,301L324,302L324,303L323,304L323,306L326,307L327,308L331,306L333,306L335,308L337,308L339,307L340,306L341,305L342,305L344,307L345,307L346,308L347,308L349,307L351,308L352,309L355,308L356,308L357,308L361,310L363,310L364,310L367,309L377,309L379,308L381,308L382,308L390,309L392,310L395,311L396,312L397,313L400,314L405,316Z " data-fips="RO22" data-hasc="RO.IL" data-name="Ialomita" data-postal="IL" data-varname="Ialomi?a"/><path d="M445,364L445,362L445,361L445,359L446,358L446,353L448,350L448,349L448,347L449,345L449,344L448,340L447,334L447,332L447,331L449,331L448,330L448,329L447,326L446,324L446,321L446,319L448,318L449,317L450,315L454,308L457,306L460,299L460,298L461,296L460,298L460,299L459,300L458,300L457,300L456,302L455,304L453,305L453,307L452,308L452,307L452,305L452,303L453,302L451,301L451,302L451,301L451,300L453,299L452,299L452,297L452,296L453,296L454,296L453,297L456,296L457,295L458,294L459,293L460,292L461,292L462,292L462,291L463,291L463,292L462,294L461,295L463,295L464,294L464,292L464,291L463,290L459,289L460,291L459,292L458,293L456,294L453,295L453,293L453,292L454,291L453,292L453,290L454,289L458,286L460,286L461,285L460,284L461,283L461,281L461,281L459,278L457,277L456,276L457,275L456,274L457,272L457,271L460,269L461,269L462,268L462,267L464,267L466,267L469,269L469,270L466,271L466,273L466,277L467,279L468,280L470,279L469,278L469,277L471,278L472,280L472,282L471,283L469,284L467,285L465,286L464,286L463,287L463,288L464,289L465,291L466,289L467,287L473,283L474,283L481,282L492,279L493,279L495,279L495,278L496,277L497,276L496,275L497,273L497,270L497,269L497,268L497,267L498,265L498,263L498,257L499,255L500,253L498,253L497,252L497,251L496,249L498,249L498,248L497,247L498,245L498,242L497,239L495,238L492,236L485,234L480,233L479,233L478,233L478,234L477,235L476,235L474,235L473,235L472,236L471,238L469,238L469,239L468,239L466,240L462,243L461,243L460,244L460,246L459,246L457,246L456,245L455,244L452,243L451,244L451,245L451,246L450,247L450,248L450,249L452,249L451,251L449,251L447,251L440,250L435,248L431,247L428,245L427,245L425,243L424,239L424,237L424,237L423,236L421,235L420,235L420,235L419,236L419,238L418,238L415,237L414,237L412,238L411,239L410,241L410,244L409,245L409,247L408,248L411,250L413,251L416,251L416,252L416,253L415,254L415,256L415,256L416,257L418,257L419,258L419,259L419,260L418,261L418,262L417,263L417,266L417,267L417,268L417,271L418,273L417,274L417,277L417,279L415,280L415,282L415,283L414,285L413,287L412,288L411,288L410,288L409,287L408,287L406,287L404,288L404,289L404,291L405,292L406,293L407,293L409,294L410,294L413,297L413,298L413,300L412,304L411,305L412,306L414,306L415,307L416,307L417,309L417,311L417,312L417,313L415,315L412,322L410,324L408,325L401,328L399,329L398,330L395,331L391,331L389,331L386,333L385,335L384,335L383,336L374,335L373,336L372,338L373,338L372,340L374,341L377,343L379,345L390,345L393,344L394,344L395,346L398,350L401,349L405,347L408,346L409,348L412,357L414,358L425,363L437,364Z " data-fips="RO14" data-hasc="RO.CT" data-name="Constanta" data-postal="CT" data-varname="Constan?a|Konstanza"/><path d="M105,202L107,201L108,201L109,199L110,199L113,196L113,194L114,193L114,191L113,190L114,188L115,186L115,185L115,184L115,182L116,180L117,179L119,179L123,180L124,179L125,179L126,178L127,176L128,175L129,173L132,170L130,168L127,168L125,167L121,166L116,166L115,166L114,164L113,163L110,161L106,158L105,158L104,157L103,156L103,155L102,152L101,150L99,149L98,149L97,148L92,148L91,147L90,146L88,146L87,145L86,144L85,144L67,144L65,144L64,143L63,145L62,146L61,146L59,146L58,146L57,147L57,148L56,151L56,153L55,154L54,155L54,157L55,160L55,161L54,162L52,162L51,162L50,163L49,165L49,168L49,170L47,171L45,171L43,174L42,175L41,173L39,173L38,173L36,172L35,172L33,172L32,171L31,171L30,171L29,172L27,173L26,174L27,176L26,177L25,177L24,178L25,179L32,184L34,186L35,188L35,189L37,190L40,191L42,190L43,191L44,191L44,193L45,194L46,194L47,193L47,192L48,191L50,191L50,192L50,193L51,194L53,195L54,194L56,194L57,194L59,195L60,194L61,193L62,192L62,190L63,190L66,191L66,192L67,193L67,194L69,194L70,194L71,195L72,196L73,198L72,199L73,200L74,201L75,201L75,199L77,198L78,198L79,198L80,199L81,200L82,201L82,199L83,198L84,199L85,199L86,198L87,196L88,195L90,196L91,197L93,198L95,198L96,199L96,200L97,201L98,202L100,202L102,202L104,203Z " data-fips="RO02" data-hasc="RO.AR" data-name="Arad" data-postal="AR" data-varname=""/><path d="M130,168L129,164L129,159L129,157L130,155L131,154L131,153L133,153L134,153L135,151L135,149L135,148L134,147L133,146L132,142L132,141L131,140L129,138L128,136L129,135L130,134L132,133L133,132L134,130L134,129L133,127L130,126L130,125L131,122L132,121L131,120L129,118L125,115L125,114L123,111L121,107L121,106L121,105L121,104L123,101L123,100L124,99L125,97L125,95L125,94L125,92L123,91L122,90L120,88L119,88L118,89L117,89L116,89L114,89L113,88L113,86L111,83L110,82L110,81L108,79L107,78L106,76L105,74L105,74L104,75L101,76L98,78L96,80L95,81L95,84L96,86L96,89L95,91L92,91L91,92L90,93L89,95L88,97L87,100L86,101L86,103L86,104L85,106L84,107L83,108L83,110L82,111L79,113L78,114L76,117L77,117L77,119L76,123L73,125L73,127L73,128L72,130L70,130L69,131L68,132L67,135L66,136L67,138L68,139L68,140L67,141L66,142L64,142L64,143L65,144L67,144L85,144L86,144L87,145L88,146L90,146L91,147L92,148L97,148L98,149L99,149L101,150L102,152L103,155L103,156L104,157L105,158L106,158L110,161L113,163L114,164L115,166L116,166L121,166L125,167L127,168Z " data-fips="RO05" data-hasc="RO.BH" data-name="Bihor" data-postal="BH" data-varname=""/><path d="M96,301L97,300L97,298L97,297L97,296L97,294L97,292L98,290L99,288L100,287L100,286L100,285L101,284L103,285L104,287L106,287L107,287L109,288L109,289L110,290L111,289L112,288L113,287L114,283L115,280L117,276L118,274L118,273L119,272L119,270L119,269L121,266L123,264L124,262L123,261L121,261L120,260L119,259L120,258L122,256L125,253L125,251L126,250L127,248L127,247L127,245L126,243L126,242L127,241L127,240L127,238L127,236L126,234L126,233L125,232L123,230L122,229L121,228L120,228L119,227L119,226L119,226L118,225L116,225L115,222L114,221L108,222L106,223L105,226L103,226L102,226L101,225L99,225L98,226L97,227L96,227L94,227L92,227L92,228L93,230L93,231L92,231L91,232L89,232L88,231L87,230L87,229L86,228L85,227L83,229L80,230L79,230L78,229L77,229L76,228L75,227L73,227L71,226L70,227L68,228L68,230L68,231L67,232L64,233L63,235L63,236L63,238L62,239L62,240L62,241L64,243L66,244L66,246L66,247L66,249L65,250L64,251L65,254L64,255L63,257L62,257L62,258L62,260L61,260L60,261L60,262L59,263L59,264L58,266L57,267L56,267L55,268L54,269L56,270L56,271L57,272L60,272L61,273L63,274L64,275L64,276L63,278L61,278L59,279L56,278L55,279L53,280L53,281L54,282L55,282L57,285L61,286L65,285L66,286L67,287L67,288L67,289L68,291L70,293L72,294L75,294L77,293L79,293L81,293L86,295L88,296L90,301L93,300L95,301Z " data-fips="RO12" data-hasc="RO.CS" data-name="Caras-Severin" data-postal="CS" data-varname="Cara?-Severin"/><path d="M63,257L64,255L65,254L64,251L65,250L66,249L66,247L66,246L66,244L64,243L62,241L62,240L62,239L63,238L63,236L63,235L64,233L67,232L68,231L68,230L68,228L70,227L71,226L73,227L75,227L76,228L77,229L78,229L79,230L80,230L83,229L85,227L86,228L87,229L87,230L88,231L89,232L91,232L92,231L93,231L93,230L92,228L92,227L94,227L96,227L97,227L98,226L99,225L101,225L102,226L103,226L105,226L106,223L108,222L114,221L115,220L115,219L116,217L117,216L120,213L120,212L119,212L118,212L117,211L116,209L115,207L113,205L113,203L112,202L112,201L110,199L109,199L108,201L107,201L105,202L104,203L102,202L100,202L98,202L97,201L96,200L96,199L95,198L93,198L91,197L90,196L88,195L87,196L86,198L85,199L84,199L83,198L82,199L82,201L81,200L80,199L79,198L78,198L77,198L75,199L75,201L74,201L73,200L72,199L73,198L72,196L71,195L70,194L69,194L67,194L67,193L66,192L66,191L63,190L62,190L62,192L61,193L60,194L59,195L57,194L56,194L54,194L53,195L51,194L50,193L50,192L50,191L48,191L47,192L47,193L46,194L45,194L44,193L44,191L43,191L42,190L40,191L37,190L35,189L35,188L34,186L32,184L25,179L24,178L24,179L23,180L22,181L19,181L18,180L16,179L14,178L12,178L11,179L2,179L0,182L3,186L4,187L5,191L5,192L6,193L8,194L9,194L12,197L13,198L15,198L16,198L16,199L18,203L19,204L20,205L20,207L20,208L21,209L22,211L23,211L25,211L25,209L27,209L27,211L27,212L26,216L26,218L25,219L25,221L25,222L26,225L27,227L27,228L26,229L25,230L26,231L27,232L28,233L30,236L33,239L35,242L36,242L41,245L41,246L43,246L44,245L45,246L47,248L47,250L49,251L50,251L52,251L58,253L59,254L61,256L62,257Z " data-fips="RO36" data-hasc="RO.TM" data-name="Timis" data-postal="TM" data-varname="Timi?"/><path d="M336,86L337,84L339,83L340,84L341,84L350,84L351,85L352,86L353,87L355,87L356,86L356,85L355,82L356,81L357,81L358,81L360,82L362,83L363,83L364,82L365,80L366,79L367,78L369,78L371,78L373,76L373,76L372,75L370,74L367,69L366,67L365,66L366,65L366,64L365,63L365,62L364,61L363,60L362,58L364,57L363,56L362,55L362,53L361,52L359,50L359,48L359,47L359,46L358,45L357,44L357,43L355,44L355,43L356,42L355,41L353,40L353,39L352,36L353,35L352,34L351,35L350,35L349,34L350,33L350,32L348,31L348,30L347,30L346,31L345,29L342,27L340,25L338,26L337,25L336,25L336,25L334,24L333,24L331,25L329,26L322,28L319,28L316,29L315,29L315,32L315,33L314,36L314,38L312,41L311,42L310,43L309,46L306,47L305,47L305,47L307,53L307,53L309,54L311,56L313,57L315,58L320,66L321,67L325,72L326,73L327,74L328,75L328,77L329,82L329,84L330,85L331,87L332,88L334,88Z " data-fips="RO07" data-hasc="RO.BT" data-name="Botosani" data-postal="BT" data-varname="Botosani|Botoschani"/><path d="M178,235L178,234L176,232L176,230L176,229L177,228L177,226L177,224L177,223L176,222L176,220L176,218L178,214L178,213L180,212L181,213L182,212L182,210L184,207L183,206L182,206L181,205L182,202L183,202L184,203L185,203L186,203L187,203L189,202L190,201L190,199L189,198L189,197L190,195L194,195L195,195L197,197L198,196L198,195L198,194L199,193L203,188L205,187L205,186L207,185L207,184L207,179L206,178L206,177L205,174L205,173L204,172L200,171L198,168L199,167L200,166L200,164L199,163L197,163L197,163L195,164L192,163L191,163L188,163L185,163L184,164L181,164L180,165L180,166L178,166L177,165L177,164L178,163L178,161L177,161L174,161L173,160L171,159L168,157L166,157L161,157L159,159L158,160L157,160L154,159L153,159L150,161L149,161L148,160L148,159L147,158L146,157L145,156L144,155L137,155L134,153L133,153L131,153L131,154L130,155L129,157L129,159L129,164L130,168L132,170L135,172L140,172L141,173L141,174L142,176L143,179L144,180L146,180L147,181L148,182L149,183L150,186L149,186L148,187L148,188L153,195L155,196L156,196L158,202L159,203L161,206L162,211L163,215L163,216L164,217L163,219L164,220L165,221L165,223L165,224L165,225L165,226L166,227L167,228L169,229L170,230L171,231L174,235L174,236L176,238Z " data-fips="RO01" data-hasc="RO.AB" data-name="Alba" data-postal="AB" data-varname=""/><path d="M217,141L220,140L222,139L223,139L224,138L224,136L224,135L226,133L226,132L227,131L228,129L229,128L231,128L232,128L233,129L235,130L236,129L236,127L237,126L237,125L239,122L240,120L242,118L244,116L246,116L249,115L253,114L253,108L253,105L253,104L251,104L251,102L251,101L252,100L252,99L252,97L251,95L250,94L249,92L251,91L252,91L252,90L251,89L252,88L254,87L254,86L254,84L253,83L252,81L243,77L241,78L238,81L237,81L227,81L217,79L213,81L212,82L211,85L210,86L205,86L204,88L204,89L204,90L200,95L198,99L197,100L197,100L195,103L195,104L195,108L196,110L197,111L201,113L202,114L204,115L205,116L205,118L205,120L205,122L206,122L206,123L206,125L207,126L209,127L210,128L210,129L210,130L210,131L209,135L208,138L212,140L215,141Z " data-fips="RO06" data-hasc="RO.BN" data-name="Bistrita-Nasaud" data-postal="BN" data-varname="Bistrisa-Nasaud|Bistritz"/><path d="M180,165L181,164L184,164L185,163L188,163L191,163L192,163L195,164L197,163L197,163L196,162L196,160L198,158L199,157L199,156L199,154L199,153L199,151L200,150L201,149L203,149L204,147L204,145L203,144L203,143L205,139L206,138L208,138L209,135L210,131L210,130L210,129L210,128L209,127L207,126L206,125L206,123L206,122L205,122L205,120L205,118L205,116L204,115L202,114L201,113L197,111L196,110L195,108L195,104L195,103L197,100L197,100L198,99L190,96L189,98L189,99L189,101L188,102L188,104L187,105L184,105L182,106L181,107L180,108L179,108L178,110L177,109L176,110L175,110L173,111L172,112L172,114L171,115L170,116L170,117L171,118L171,120L170,122L169,122L168,122L167,122L166,124L165,123L164,124L164,125L165,126L165,127L164,129L163,129L163,128L161,128L160,127L159,126L159,125L158,126L157,127L157,128L157,130L155,130L154,130L153,130L151,130L150,130L149,130L147,130L146,129L145,128L143,128L142,127L142,126L141,124L140,122L138,122L132,121L131,122L130,125L130,126L133,127L134,129L134,130L133,132L132,133L130,134L129,135L128,136L129,138L131,140L132,141L132,142L133,146L134,147L135,148L135,149L135,151L137,155L144,155L145,156L146,157L147,158L148,159L148,160L149,161L150,161L153,159L154,159L157,160L158,160L159,159L161,157L166,157L168,157L171,159L173,160L174,161L177,161L178,161L178,163L177,164L177,165L178,166L180,166Z " data-fips="RO13" data-hasc="RO.CJ" data-name="Cluj" data-postal="CJ" data-varname="Klausenburg"/><path d="M137,249L138,249L139,250L142,251L143,251L144,252L148,251L149,250L152,251L153,251L156,250L159,249L161,248L162,248L163,248L165,248L166,249L167,249L168,248L171,247L174,246L175,243L174,240L174,236L174,235L171,231L170,230L169,229L167,228L166,227L165,226L165,225L165,224L165,223L165,221L164,220L163,219L164,217L163,216L163,215L162,211L161,206L159,203L158,202L156,196L155,196L153,195L148,188L148,187L149,186L150,186L149,183L148,182L147,181L146,180L144,180L143,179L142,176L141,174L141,173L140,172L135,172L132,170L129,173L128,175L127,176L126,178L125,179L124,179L123,180L119,179L117,179L116,180L115,182L115,184L115,185L115,186L114,188L113,190L114,191L114,193L113,194L113,196L110,199L112,201L112,202L113,203L113,205L115,207L116,209L117,211L118,212L119,212L120,212L120,213L117,216L116,217L115,219L115,220L114,221L115,222L116,225L118,225L119,226L119,226L119,227L120,228L121,228L122,229L123,230L125,232L126,233L126,234L127,236L127,238L127,240L127,241L126,242L126,243L127,245L127,247L127,248L126,250L125,251L125,253Z " data-fips="RO21" data-hasc="RO.HD" data-name="Hunedoara" data-postal="HD" data-varname=""/><path d="M187,98L190,96L200,95L204,90L204,89L204,88L205,86L210,86L211,85L212,82L213,81L217,79L227,81L237,81L238,81L241,78L243,77L250,76L251,75L250,74L248,71L247,69L246,67L246,67L244,68L243,67L242,65L240,62L239,61L235,59L233,58L232,57L232,55L232,54L231,53L229,52L227,50L226,50L223,50L219,49L218,50L216,52L214,52L210,53L209,53L205,52L203,50L202,50L200,49L199,48L198,48L192,50L191,50L191,49L188,46L184,46L183,46L181,46L177,45L174,45L173,46L173,47L173,47L173,50L176,54L177,55L179,57L180,58L179,59L172,65L171,65L169,65L167,65L165,64L161,64L160,65L160,67L161,67L165,69L166,70L166,72L165,74L165,74L164,76L163,78L162,79L161,80L160,80L158,80L155,78L155,77L153,77L150,81L149,83L149,84L148,85L145,87L145,88L147,89L152,90L154,89L160,89L161,89L162,90L164,91L170,93L171,93L179,93L181,93L181,94L182,96L184,96L185,97L186,98Z " data-fips="RO25" data-hasc="RO.MM" data-name="Maramures" data-postal="MM" data-varname="Maramure?"/><path d="M236,191L238,191L239,190L240,190L241,190L243,189L245,190L246,191L248,190L249,189L250,188L252,187L257,187L259,186L255,182L251,179L249,180L248,179L247,178L243,173L243,172L245,171L246,170L247,170L248,169L247,168L246,167L246,166L250,164L250,163L251,160L251,159L255,155L257,154L259,153L261,150L261,149L264,147L264,146L264,144L264,142L264,141L264,140L264,139L263,135L263,134L263,129L263,124L263,123L262,121L261,120L260,119L258,115L253,114L249,115L246,116L244,116L242,118L240,120L239,122L237,125L237,126L236,127L236,129L235,130L233,129L232,128L231,128L229,128L228,129L227,131L226,132L226,133L224,135L224,136L224,138L223,139L222,139L220,140L217,141L215,141L212,140L208,138L206,138L205,139L203,143L203,144L204,145L204,147L203,149L201,149L200,150L199,151L199,153L199,154L199,156L199,157L198,158L196,160L196,162L197,163L199,163L200,164L200,166L199,167L198,168L200,171L204,172L205,173L205,174L206,177L206,178L207,179L211,179L213,178L217,180L219,179L220,179L224,179L226,179L226,178L228,177L229,178L231,177L233,177L232,178L232,180L232,182L232,186L233,188L233,190L235,191Z " data-fips="RO27" data-hasc="RO.MS" data-name="Mures" data-postal="MS" data-varname="Mure?"/><path d="M153,130L154,130L155,130L157,130L157,128L157,127L158,126L159,125L159,126L160,127L161,128L163,128L163,129L164,129L165,127L165,126L164,125L164,124L165,123L166,124L167,122L168,122L169,122L170,122L171,120L171,118L170,117L170,116L171,115L172,114L172,112L173,111L175,110L176,110L177,109L178,110L179,108L180,108L181,107L182,106L184,105L187,105L188,104L188,102L189,101L189,99L189,98L187,98L186,98L185,97L184,96L182,96L181,94L181,93L179,93L171,93L170,93L164,91L162,90L161,89L160,89L154,89L152,90L152,91L153,92L152,94L150,95L150,96L148,96L147,95L144,94L142,92L136,90L134,91L128,94L125,95L125,97L124,99L123,100L123,101L121,104L121,105L121,106L121,107L123,111L125,114L125,115L129,118L131,120L132,121L138,122L140,122L141,124L142,126L142,127L143,128L145,128L146,129L147,130L149,130L150,130L151,130Z " data-fips="RO31" data-hasc="RO.SJ" data-name="Salaj" data-postal="SJ" data-varname="Salaj"/><path d="M150,96L150,95L152,94L153,92L152,91L152,90L147,89L145,88L145,87L148,85L149,84L149,83L150,81L153,77L155,77L155,78L158,80L160,80L161,80L162,79L163,78L164,76L165,74L165,74L166,72L166,70L165,69L161,67L160,67L160,65L161,64L165,64L167,65L169,65L171,65L172,65L179,59L180,58L179,57L177,55L176,54L173,50L173,47L173,47L172,47L171,47L168,46L167,46L166,46L165,44L163,42L161,39L160,39L156,38L155,37L154,38L153,39L152,43L151,44L148,46L147,45L145,44L144,45L144,47L144,48L143,48L142,48L141,49L140,52L139,53L137,53L136,54L135,55L136,56L135,57L134,58L132,58L131,60L129,61L127,62L125,62L124,62L120,60L118,60L117,64L115,64L113,64L112,64L110,65L108,67L107,68L107,69L106,71L105,73L105,74L106,76L107,78L108,79L110,81L110,82L111,83L113,86L113,88L114,89L116,89L117,89L118,89L119,88L120,88L122,90L123,91L125,92L125,94L125,95L128,94L134,91L136,90L142,92L144,94L147,95L148,96Z " data-fips="RO32" data-hasc="RO.SM" data-name="Satu Mare" data-postal="SM" data-varname=""/><path d="M248,319L249,318L250,317L251,317L253,317L254,317L256,315L257,315L260,314L261,314L263,315L264,315L266,313L266,312L265,311L265,309L266,306L266,305L265,305L264,304L263,304L262,302L260,299L260,297L261,297L260,295L259,294L259,293L260,291L261,290L261,283L261,282L260,278L260,277L260,275L262,273L262,272L261,269L259,267L259,266L258,263L258,262L258,261L259,259L260,258L261,260L262,260L263,259L264,257L265,255L265,254L265,253L265,252L267,249L267,247L267,246L264,241L261,235L260,234L259,233L258,232L256,230L254,230L249,229L245,229L244,229L242,229L242,230L240,230L240,229L239,228L237,227L234,228L225,233L224,236L223,239L223,241L224,246L223,248L222,249L222,250L223,252L223,254L222,255L223,257L224,258L224,260L225,261L225,262L223,270L222,274L222,276L223,278L223,279L223,281L221,283L220,286L221,286L223,284L224,283L224,282L225,281L226,281L226,283L226,284L227,285L229,290L230,291L231,292L232,292L234,292L235,293L234,294L233,295L233,296L234,298L235,299L235,301L235,303L236,304L236,307L236,309L236,310L236,313L236,316L237,317L238,318L240,318L241,319L244,318L247,319Z " data-fips="RO03" data-hasc="RO.AG" data-name="Arges" data-postal="AG" data-varname="Arge?"/><path d="M178,238L179,237L182,236L183,236L184,235L185,234L194,234L196,234L199,235L200,235L206,232L213,230L234,228L234,226L234,225L234,223L233,220L233,218L231,215L231,213L232,213L234,212L235,212L236,211L237,209L236,209L235,207L235,206L234,205L235,204L237,202L238,202L239,201L240,201L241,201L241,200L241,198L244,196L247,194L246,191L245,190L243,189L241,190L240,190L239,190L238,191L236,191L235,191L233,190L233,188L232,186L232,182L232,180L232,178L233,177L231,177L229,178L228,177L226,178L226,179L224,179L220,179L219,179L217,180L213,178L211,179L207,179L207,184L207,185L205,186L205,187L203,188L199,193L198,194L198,195L198,196L197,197L195,195L194,195L190,195L189,197L189,198L190,199L190,201L189,202L187,203L186,203L185,203L184,203L183,202L182,202L181,205L182,206L183,206L184,207L182,210L182,212L181,213L180,212L178,213L178,214L176,218L176,220L176,222L177,223L177,224L177,226L177,228L176,229L176,230L176,232L178,234L178,235L176,238Z " data-fips="RO33" data-hasc="RO.SB" data-name="Sibiu" data-postal="SB" data-varname="Hermannstadt"/><path d="M202,306L204,305L205,305L206,306L207,306L209,305L210,303L211,301L211,302L211,303L212,304L213,305L214,304L213,303L213,301L212,300L212,299L212,297L211,294L211,293L212,291L213,290L213,289L214,286L214,285L215,283L216,281L217,280L218,279L219,280L221,283L223,281L223,279L223,278L222,276L222,274L223,270L225,262L225,261L224,260L224,258L223,257L222,255L223,254L223,252L222,250L222,249L223,248L224,246L223,241L223,239L224,236L225,233L213,230L206,232L200,235L199,235L196,234L194,234L185,234L184,235L183,236L182,236L179,237L178,238L176,238L174,240L175,243L174,246L176,246L178,246L180,247L182,247L185,247L187,248L187,249L187,252L187,254L187,256L188,257L188,258L187,262L187,263L187,265L187,266L185,272L184,274L184,275L184,276L185,285L184,289L184,295L184,296L186,298L188,299L189,300L190,304L191,305L192,306L193,308L195,307L197,307L198,307L199,308L199,309L201,309Z " data-fips="RO39" data-hasc="RO.VL" data-name="Vlcea" data-postal="VL" data-varname=""/><path d="M270,241L271,240L272,239L274,238L283,236L284,236L286,236L289,237L291,237L292,238L294,239L295,239L296,238L297,237L297,236L297,235L298,234L300,234L302,236L308,230L307,229L305,226L304,225L303,225L301,224L300,222L300,221L298,219L297,218L292,216L291,216L290,215L289,215L287,216L286,216L285,216L285,213L283,212L279,209L279,208L279,207L278,202L279,200L279,199L279,198L279,195L279,194L277,193L276,194L275,193L274,192L273,190L272,187L269,186L268,185L267,185L265,185L262,186L259,186L257,187L252,187L250,188L249,189L248,190L247,194L244,196L241,198L241,200L241,201L240,201L239,201L238,202L237,202L235,204L234,205L235,206L235,207L236,209L237,209L236,211L235,212L234,212L232,213L231,213L231,215L233,218L233,220L234,223L234,225L234,226L234,228L237,227L239,228L240,229L240,230L242,230L242,229L244,229L245,229L249,229L254,230L256,230L258,232L259,233L260,234L261,235L264,241L269,243Z " data-fips="RO09" data-hasc="RO.BV" data-name="Brasov" data-postal="BV" data-varname="Brasov|Kronstadt|Stalin"/><path d="M310,229L312,229L313,228L314,226L315,225L316,225L317,226L318,227L320,225L320,224L320,223L321,221L322,220L322,219L322,218L323,215L323,213L322,211L323,208L323,204L323,203L324,200L327,195L327,194L326,193L325,191L324,190L323,189L323,188L324,187L323,186L320,184L319,183L317,184L301,188L297,188L295,187L294,187L293,185L291,184L290,182L289,179L289,178L288,177L286,175L285,175L284,176L282,177L281,178L279,181L278,182L277,183L275,185L275,186L275,186L273,190L274,192L275,193L276,194L277,193L279,194L279,195L279,198L279,199L279,200L278,202L279,207L279,208L279,209L283,212L285,213L285,216L286,216L287,216L289,215L290,215L291,216L292,216L297,218L298,219L300,221L300,222L301,224L303,225L304,225L305,226L307,229L308,230Z " data-fips="RO15" data-hasc="RO.CV" data-name="Covasna" data-postal="CV" data-varname=""/><path d="M316,182L316,179L317,176L317,174L317,172L316,172L315,172L313,173L311,174L310,173L310,172L310,170L310,168L308,167L306,167L304,166L303,166L303,165L303,162L303,161L305,160L305,159L304,158L304,157L303,155L302,152L302,146L297,145L296,147L297,148L297,149L296,149L294,147L293,146L292,144L292,131L292,130L294,130L294,129L294,127L293,126L291,125L290,124L290,123L289,120L288,119L287,118L285,117L281,118L279,118L277,116L276,115L270,111L269,111L267,111L266,112L265,112L265,113L265,114L264,116L263,116L262,116L260,119L261,120L262,121L263,123L263,124L263,129L263,134L263,135L264,139L264,140L264,141L264,142L264,144L264,146L264,147L261,149L261,150L259,153L257,154L255,155L251,159L251,160L250,163L250,164L246,166L246,167L247,168L248,169L247,170L246,170L245,171L243,172L243,173L247,178L248,179L249,180L251,179L255,182L259,186L262,186L265,185L267,185L268,185L269,186L272,187L275,186L275,186L275,185L277,183L278,182L279,181L281,178L282,177L284,176L285,175L286,175L288,177L289,178L289,179L290,182L291,184L293,185L294,187L295,187L297,188L301,188Z " data-fips="RO20" data-hasc="RO.HR" data-name="Harghita" data-postal="HR" data-varname=""/><path d="M403,132L404,131L405,132L406,132L407,131L408,131L411,130L411,129L410,128L410,126L409,126L410,124L410,123L408,121L408,119L406,117L405,116L404,117L403,116L402,115L401,115L400,113L399,113L397,111L396,110L396,109L394,108L394,107L393,106L393,103L391,102L391,100L389,98L387,97L386,96L385,96L384,95L382,92L381,91L381,89L381,88L381,86L381,85L380,84L379,83L377,83L376,82L375,81L375,79L374,79L374,77L373,76L371,78L369,78L367,78L366,79L365,80L364,82L363,83L362,83L360,82L358,81L357,81L356,81L355,82L356,85L356,86L355,87L353,87L352,86L351,85L350,84L341,84L340,84L339,83L337,84L336,86L334,88L335,89L335,91L334,93L334,94L333,95L327,94L326,95L327,96L330,100L329,101L329,105L332,109L333,113L334,114L335,115L337,115L338,115L340,115L342,117L345,119L346,119L349,120L350,119L350,118L351,117L355,118L356,117L357,115L359,114L360,114L361,115L362,117L363,118L364,119L365,120L364,121L362,122L360,123L360,125L361,126L362,127L363,130L363,131L369,131L374,130L375,130L376,131L378,131L381,129L381,128L382,128L383,128L385,128L386,128L387,127L387,126L386,126L385,126L385,125L385,123L384,122L385,121L386,122L389,124L391,125L393,128L394,128L394,126L395,125L396,126L396,127L395,129L395,130L397,131L398,131L400,132L402,132Z " data-fips="RO23" data-hasc="RO.IS" data-name="Iasi" data-postal="IS" data-varname="Ia?i|Jassy"/><path d="M297,148L296,147L297,145L302,146L304,146L306,146L308,147L309,147L310,146L313,144L314,143L316,144L317,146L317,147L317,148L318,149L322,149L323,148L324,147L325,146L327,146L329,146L331,146L332,145L334,144L337,142L338,141L339,140L341,141L343,142L345,142L345,140L345,139L346,138L347,136L347,135L348,134L349,136L349,137L350,138L351,139L352,140L355,139L356,139L361,140L363,140L365,137L365,136L364,133L363,131L363,130L362,127L361,126L360,125L360,123L362,122L364,121L365,120L364,119L363,118L362,117L361,115L360,114L359,114L357,115L356,117L355,118L351,117L350,118L350,119L349,120L346,119L345,119L342,117L340,115L338,115L337,115L335,115L334,114L333,113L332,109L329,105L324,100L322,99L321,98L320,98L319,99L314,101L312,102L306,102L303,103L301,102L300,102L295,104L294,103L291,101L290,100L289,102L290,103L291,104L292,105L291,106L290,107L288,109L287,109L285,112L285,113L284,115L285,117L287,118L288,119L289,120L290,123L290,124L291,125L293,126L294,127L294,129L294,130L292,130L292,131L292,144L293,146L294,147L296,149L297,149Z " data-fips="RO28" data-hasc="RO.NT" data-name="Neamt" data-postal="NT" data-varname="Neam?"/><path d="M305,291L309,291L312,290L313,290L315,290L320,289L321,288L323,288L324,289L325,289L326,288L327,287L331,287L333,286L333,285L334,284L335,282L334,280L332,278L332,276L334,275L334,274L333,272L331,271L330,271L329,269L328,268L328,265L328,264L328,263L327,262L326,261L325,260L325,258L324,257L323,258L322,257L321,256L317,256L316,255L316,254L315,252L314,251L314,249L314,248L314,247L312,243L311,242L310,241L308,240L302,236L300,234L298,234L297,235L297,236L297,237L296,238L295,239L294,239L292,238L291,237L289,237L286,236L284,236L283,236L274,238L272,239L273,243L274,247L274,248L275,249L276,250L277,251L277,253L277,255L277,256L278,257L279,258L280,259L283,265L285,267L286,269L286,272L287,274L287,275L288,276L289,277L290,277L292,277L293,279L293,280L293,281L293,282L293,283L293,284L294,285L297,286L299,287L302,291L304,292Z " data-fips="RO30" data-hasc="RO.PH" data-name="Prahova" data-postal="PH" data-varname=""/><path d="M281,118L284,115L285,113L285,112L287,109L288,109L290,107L291,106L292,105L291,104L290,103L289,102L290,100L291,101L294,103L295,104L300,102L301,102L303,103L306,102L312,102L314,101L319,99L320,98L321,98L322,99L324,100L329,101L330,100L327,96L326,95L327,94L333,95L334,94L334,93L335,91L335,89L334,88L332,88L331,87L330,85L329,84L329,82L328,77L328,75L327,74L326,73L325,72L321,67L320,66L315,58L313,57L311,56L309,54L307,53L307,53L305,47L305,47L301,47L298,48L295,48L293,49L291,49L287,51L263,53L260,55L256,63L253,65L250,67L246,67L247,69L248,71L250,74L251,75L250,76L252,81L253,83L254,84L254,86L254,87L252,88L251,89L252,90L252,91L251,91L249,92L250,94L251,95L252,97L252,99L252,100L251,101L251,102L251,104L253,104L253,105L253,108L253,114L258,115L262,116L263,116L264,116L265,114L265,113L265,112L266,112L267,111L269,111L270,111L276,115L277,116L279,118Z " data-fips="RO34" data-hasc="RO.SV" data-name="Suceava" data-postal="SV" data-varname=""/><path d="M335,194L335,193L336,191L337,190L342,190L344,190L346,190L348,191L349,190L351,190L354,191L354,190L355,189L357,189L360,190L361,189L362,187L364,186L365,184L366,183L370,182L372,182L373,182L375,184L376,184L377,183L378,182L380,183L381,173L380,170L379,165L377,160L371,151L371,149L371,148L371,146L370,144L369,143L367,141L366,140L363,140L361,140L356,139L355,139L352,140L351,139L350,138L349,137L349,136L348,134L347,135L347,136L346,138L345,139L345,140L345,142L343,142L341,141L339,140L338,141L337,142L334,144L332,145L331,146L329,146L327,146L325,146L324,147L323,148L322,149L318,149L317,148L317,147L317,146L316,144L314,143L313,144L310,146L309,147L308,147L306,146L304,146L302,146L302,152L303,155L304,157L304,158L305,159L305,160L303,161L303,162L303,165L303,166L304,166L306,167L308,167L310,168L310,170L310,172L310,173L311,174L313,173L315,172L316,172L317,172L317,174L317,176L316,179L316,182L317,184L319,183L320,184L323,186L324,187L323,188L323,189L324,190L325,191L326,193L327,194L327,195L334,196Z " data-fips="RO04" data-hasc="RO.BC" data-name="Bacau" data-postal="BC" data-varname="Bacau"/><path d="M412,288L413,287L414,285L415,283L415,282L415,280L417,279L417,277L417,274L418,273L417,271L417,268L417,267L417,266L417,263L418,262L418,261L419,260L419,259L419,258L418,257L416,257L415,256L415,256L415,254L416,253L416,252L416,251L413,251L411,250L408,248L409,247L409,245L410,244L410,241L407,240L406,239L405,239L401,239L399,239L396,237L394,236L393,234L391,234L389,235L386,233L383,235L382,235L381,236L380,238L379,240L378,243L377,245L377,246L376,248L375,248L374,248L373,249L372,250L373,252L373,253L371,253L370,253L367,254L365,253L361,255L359,256L359,257L361,260L362,260L362,259L362,258L364,257L365,258L365,259L365,261L366,262L367,263L367,264L367,265L368,267L369,267L370,267L371,268L371,269L371,271L370,274L369,276L367,277L366,278L367,279L368,281L372,287L374,287L375,286L377,286L379,287L394,287L396,286L397,286L398,285L399,285L401,284L403,284L404,285L406,287L408,287L409,287L410,288L411,288Z " data-fips="RO08" data-hasc="RO.BR" data-name="Braila" data-postal="BR" data-varname="Braila"/><path d="M366,289L367,288L368,287L367,287L366,285L368,281L367,279L366,278L367,277L369,276L370,274L371,271L371,269L371,268L370,267L369,267L368,267L367,265L367,264L367,263L366,262L365,261L365,259L365,258L364,257L362,258L362,259L362,260L361,260L359,257L359,256L361,255L365,253L367,254L370,253L371,253L373,253L373,252L372,250L373,249L374,248L375,248L376,248L377,246L377,245L378,243L376,242L375,242L371,241L371,240L371,239L370,238L368,238L367,237L366,237L365,238L364,239L363,238L363,236L362,236L360,237L358,237L357,236L356,235L355,233L355,232L354,231L353,231L350,230L350,232L350,232L348,232L346,232L344,230L342,229L341,228L338,225L337,224L335,225L334,225L332,225L331,224L330,223L327,217L325,214L322,211L323,213L323,215L322,218L322,219L322,220L321,221L320,223L320,224L320,225L318,227L317,226L316,225L315,225L314,226L313,228L312,229L310,229L308,230L308,240L310,241L311,242L312,243L314,247L314,248L314,249L314,251L315,252L316,254L316,255L317,256L321,256L322,257L323,258L324,257L325,258L325,260L326,261L327,262L328,263L328,264L328,265L328,268L329,269L330,271L331,271L333,272L334,274L334,275L332,276L332,278L334,280L335,282L337,283L339,284L341,285L344,284L348,285L349,285L351,285L352,285L354,285L355,286L357,286L358,285L360,285L361,285L362,286L363,287L363,288L363,289Z " data-fips="RO11" data-hasc="RO.BZ" data-name="Buzau" data-postal="BZ" data-varname="Buzau"/><path d="M411,239L412,238L414,237L415,237L418,238L419,238L419,236L420,235L420,235L420,235L419,234L417,232L417,229L416,227L414,226L411,225L412,224L413,223L414,222L417,222L417,221L417,219L415,211L414,209L413,207L413,205L414,203L414,202L414,201L414,200L413,199L413,198L412,194L411,192L412,189L412,188L412,187L412,187L410,187L408,187L406,186L402,185L401,185L400,186L399,187L399,188L398,188L398,187L396,186L387,186L387,187L388,189L388,191L388,193L388,194L387,195L386,194L385,192L385,190L384,189L382,186L379,187L378,188L376,189L374,189L373,190L372,190L371,191L369,193L368,195L368,196L368,198L368,200L374,214L375,215L375,217L377,219L379,220L380,220L380,221L381,223L382,223L382,225L383,227L383,228L384,231L385,232L386,233L389,235L391,234L393,234L394,236L396,237L399,239L401,239L405,239L406,239L407,240Z " data-fips="RO18" data-hasc="RO.GL" data-name="Galati" data-postal="GL" data-varname="Gala?i|Galatz"/><path d="M388,194L388,193L388,191L388,189L387,187L387,186L396,186L398,187L398,188L399,188L399,187L400,186L401,185L402,185L406,186L408,187L410,187L412,187L412,187L413,186L413,184L414,182L414,179L413,178L412,176L413,175L413,173L414,173L415,172L416,170L416,169L416,167L417,167L417,164L418,163L418,162L419,161L419,158L418,157L417,156L417,153L418,152L417,151L417,150L418,148L418,147L418,146L417,144L414,138L414,136L412,133L411,130L408,131L407,131L406,132L405,132L404,131L403,132L402,132L400,132L398,131L397,131L395,130L395,129L396,127L396,126L395,125L394,126L394,128L393,128L391,125L389,124L386,122L385,121L384,122L385,123L385,125L385,126L386,126L387,126L387,127L386,128L385,128L383,128L382,128L381,128L381,129L378,131L376,131L375,130L374,130L369,131L363,131L364,133L365,136L365,137L366,140L367,141L369,143L370,144L371,146L371,148L371,149L371,151L377,160L379,165L380,170L381,173L382,186L384,189L385,190L385,192L386,194L387,195Z " data-fips="RO38" data-hasc="RO.VS" data-name="Vaslui" data-postal="VS" data-varname=""/><path d="M379,240L380,238L381,236L382,235L383,235L386,233L385,232L384,231L383,228L383,227L382,225L382,223L381,223L380,221L380,220L379,220L377,219L375,217L375,215L374,214L368,200L368,198L368,196L368,195L369,193L371,191L372,190L373,190L374,189L376,189L378,188L379,187L382,186L380,183L378,182L377,183L376,184L375,184L373,182L372,182L370,182L366,183L365,184L364,186L362,187L361,189L360,190L357,189L355,189L354,190L354,191L351,190L349,190L348,191L346,190L344,190L342,190L337,190L336,191L335,193L335,194L334,196L327,195L324,200L323,203L323,204L323,208L322,211L325,214L327,217L330,223L331,224L332,225L334,225L335,225L337,224L338,225L341,228L342,229L344,230L346,232L348,232L350,232L350,232L350,230L353,231L354,231L355,232L355,233L356,235L357,236L358,237L360,237L362,236L363,236L363,238L364,239L365,238L366,237L367,237L368,238L370,238L371,239L371,240L371,241L375,242L376,242Z " data-fips="RO40" data-hasc="RO.VN" data-name="Vrancea" data-postal="VN" data-varname=""/></g></svg>