<?xml version="1.0" ?><!DOCTYPE svg  PUBLIC '-//W3C//DTD SVG 1.1//EN'  'http://www.w3.org/Graphics/SVG/1.1/DTD/svg11.dtd'><svg enable_background="new 0 0 500 401" height="401px" style="stroke-linejoin: round; stroke:#000; fill:#f6f3f0;" version="1.1" viewBox="0 0 500 401" width="500px" xmlns="http://www.w3.org/2000/svg" xmlns:xlink="http://www.w3.org/1999/xlink"><defs><style type="text/css"><![CDATA[path { fill-rule: evenodd; }
#context path { fill: #eee; stroke: #bbb; } ]]></style></defs><metadata><views><view h="401" padding="0" w="500"><proj id="laea" lat0="48.707" lon0="19.491"/><bbox h="22.72" w="46.33" x="978.3" y="988.95"/><llbbox lat0="-90" lat1="90" lon0="-180" lon1="180"/></view></views></metadata><g id="admin1"><path d="M36,283L38,281L40,280L39,279L40,278L41,277L43,276L44,276L43,275L42,275L41,274L40,273L41,272L41,270L43,271L44,271L45,270L46,269L47,269L47,268L47,266L47,265L48,264L49,264L49,265L49,267L51,267L52,268L55,267L57,265L59,264L60,264L60,262L60,261L59,260L59,258L59,257L57,257L56,256L56,255L57,253L59,250L55,246L54,244L55,243L56,241L56,240L55,239L54,238L53,237L52,234L51,233L50,231L49,230L49,229L47,229L46,228L45,227L44,227L42,226L42,225L43,223L45,221L46,220L41,215L42,213L43,212L44,210L46,210L47,208L48,207L48,205L48,203L47,202L46,201L45,200L44,201L43,202L40,206L39,207L38,208L37,209L36,209L35,211L34,211L33,211L32,212L30,212L27,214L25,214L21,212L20,211L20,212L16,212L10,214L10,215L8,216L7,217L6,218L6,220L3,223L2,225L2,227L1,235L0,236L0,237L1,239L3,239L4,240L5,241L5,242L5,244L5,245L6,246L6,248L7,249L9,250L9,251L9,253L10,258L11,260L11,263L11,265L13,268L15,268L16,269L17,269L19,273L20,274L19,275L18,276L18,279L19,280L19,282L21,283L23,284L25,286L29,284L32,285L36,286Z " data-fips="LO02" data-hasc="SK.BL" data-name="Bratislavsk" data-postal="BL" data-varname="Bratislava"/><path d="M217,279L229,279L233,275L233,273L233,272L234,270L235,265L236,263L238,262L246,260L248,260L249,261L251,264L252,264L256,263L258,264L259,265L259,267L259,268L259,269L260,270L263,269L266,270L269,273L271,274L273,273L277,269L279,268L282,267L286,264L289,263L289,262L290,258L291,257L293,257L294,257L296,257L299,254L300,254L301,255L302,256L303,256L305,255L308,253L310,249L312,245L315,235L316,233L318,231L320,228L319,227L316,227L314,228L312,228L308,228L309,227L307,226L306,225L306,224L306,223L306,221L307,220L307,219L308,215L309,214L309,213L309,211L310,210L309,209L308,209L306,209L305,208L305,207L304,204L302,199L302,198L297,194L296,194L295,192L295,190L295,189L296,188L296,186L296,185L296,184L296,182L297,181L301,174L303,174L299,172L298,171L296,170L294,170L293,171L291,171L278,169L276,169L275,169L274,169L265,169L262,169L258,170L256,170L256,170L255,169L254,169L253,168L247,166L240,165L226,167L223,171L221,172L220,174L219,175L218,176L215,175L215,174L215,173L214,172L213,172L199,174L195,173L194,176L193,177L191,178L192,180L191,182L191,183L192,184L193,185L193,186L192,188L191,191L184,190L182,190L182,189L181,188L180,188L176,191L176,192L176,193L175,195L173,197L171,197L170,198L168,202L166,204L166,206L165,206L161,205L158,208L157,210L156,211L156,212L156,213L147,214L146,217L147,219L148,220L146,221L146,223L149,223L150,223L150,224L150,226L150,227L149,228L150,230L150,231L151,233L151,234L152,235L152,236L153,238L153,240L152,241L152,242L151,243L150,244L149,246L150,247L151,246L152,246L152,245L153,244L154,244L160,243L163,241L163,240L164,239L164,238L165,237L166,236L167,235L168,235L169,235L172,239L174,241L178,249L177,253L177,254L175,255L174,257L174,258L175,259L174,260L175,261L175,263L174,264L173,265L174,267L174,268L175,267L176,267L177,267L180,269L181,269L183,269L184,269L185,268L186,267L187,266L188,266L189,266L190,265L192,264L193,265L194,264L196,263L197,265L197,266L196,267L196,269L196,271L196,273L195,275L194,276L193,277L192,279L192,280L192,281L194,281L199,281L211,282Z " data-fips="LO01" data-hasc="SK.BC" data-name="Banskobystrick" data-postal="BC" data-varname="Bansk Bystrica"/><path d="M180,188L181,188L182,189L182,190L184,190L191,191L192,188L193,186L193,185L192,184L191,183L191,182L192,180L191,178L193,177L194,176L195,173L199,174L213,172L214,172L215,173L215,174L215,175L218,176L219,175L220,174L221,172L223,171L226,167L240,165L247,166L253,168L254,169L255,169L256,170L256,170L258,170L262,169L265,169L274,169L275,169L276,169L278,169L281,168L282,167L283,165L282,165L281,164L281,163L280,161L279,160L276,156L277,155L278,155L279,154L280,153L280,152L280,150L280,149L280,147L281,143L281,142L280,142L278,142L276,142L275,141L274,141L273,139L272,139L271,139L270,139L270,138L270,136L269,135L269,134L267,130L266,132L264,132L260,132L258,131L256,130L257,128L259,124L260,122L262,122L262,120L261,119L259,118L259,117L260,116L259,109L259,107L257,104L255,105L253,105L251,105L246,104L246,102L246,100L247,98L243,98L241,98L240,97L239,96L238,91L236,85L235,82L233,80L231,77L230,77L229,78L221,87L219,87L216,87L215,88L213,88L212,89L211,91L209,96L210,97L209,98L208,98L207,101L207,102L207,103L204,104L202,105L200,104L197,103L196,103L192,105L190,105L188,105L188,104L188,99L188,97L188,95L187,94L188,91L186,90L177,89L174,89L172,90L168,93L166,93L164,92L161,91L160,91L157,92L153,91L151,92L151,93L151,96L150,97L150,98L147,99L143,104L141,105L138,104L138,111L136,112L137,113L138,114L138,115L144,125L144,126L144,128L145,130L146,131L148,132L149,133L150,134L152,134L154,136L154,137L155,138L155,140L156,141L154,145L155,146L156,147L157,148L157,149L156,150L156,153L156,154L155,155L154,156L153,157L150,158L149,159L148,160L147,161L145,162L146,164L148,164L150,165L153,163L153,162L155,161L156,162L157,162L159,161L163,162L165,163L167,166L166,166L166,167L165,169L166,171L166,172L165,173L165,175L165,176L166,177L169,179L170,180L171,181L172,182L172,183L172,185L173,185L176,190L176,191Z " data-fips="LO08" data-hasc="SK.ZI" data-name="ilinsk" data-postal="ZI" data-varname="ilina"/><path d="M125,322L132,319L150,317L154,318L157,319L160,320L163,319L165,318L168,315L169,314L171,313L174,312L170,310L168,307L167,305L167,302L168,296L168,295L167,294L169,292L171,292L172,291L174,286L176,285L189,282L190,281L192,281L192,280L192,279L193,277L194,276L195,275L196,273L196,271L196,269L196,267L197,266L197,265L196,263L194,264L193,265L192,264L190,265L189,266L188,266L187,266L186,267L185,268L184,269L183,269L181,269L180,269L177,267L176,267L175,267L174,268L174,267L173,265L174,264L175,263L175,261L174,260L175,259L174,258L174,257L175,255L177,254L177,253L178,249L174,241L172,239L169,235L168,235L167,235L166,236L165,237L164,238L164,239L163,240L163,241L160,243L154,244L153,244L152,245L152,246L151,246L150,247L149,246L150,244L151,243L152,242L152,241L153,240L153,238L152,236L152,235L151,234L151,233L150,231L150,230L149,228L150,227L150,226L150,224L150,223L149,223L146,223L146,221L148,220L147,219L146,217L140,220L137,223L135,223L134,224L133,223L132,224L130,223L129,220L128,218L126,216L125,215L124,215L123,214L123,212L124,211L124,210L125,208L124,207L123,206L122,205L118,203L117,202L116,200L113,197L107,195L106,194L104,194L103,195L104,197L104,198L104,199L104,201L105,202L105,203L105,204L105,205L104,205L102,207L102,208L102,209L97,210L96,210L95,210L94,210L91,217L90,219L94,221L96,223L100,227L98,229L91,240L90,242L89,244L89,245L88,248L88,249L91,251L90,252L89,253L89,255L89,256L89,257L90,258L91,259L91,260L91,261L91,262L89,263L88,264L86,262L85,262L85,263L86,266L86,267L85,268L84,267L83,267L81,268L85,273L85,274L85,275L84,277L84,278L86,279L87,278L88,279L88,280L89,281L91,281L91,282L90,285L91,290L90,293L91,295L91,296L91,298L92,300L91,301L89,301L87,303L86,305L85,305L84,306L83,308L83,311L82,312L80,313L78,313L77,314L77,317L76,318L76,319L78,320L85,322L111,321L122,322Z " data-fips="SI04" data-hasc="SK.NI" data-name="Nitriansky" data-postal="NI" data-varname="Nitra"/><path d="M133,223L134,224L135,223L137,223L140,220L146,217L147,214L156,213L156,212L156,211L157,210L158,208L161,205L165,206L166,206L166,204L168,202L170,198L171,197L173,197L175,195L176,193L176,192L176,191L176,190L173,185L172,185L172,183L172,182L171,181L170,180L169,179L166,177L165,176L165,175L165,173L166,172L166,171L165,169L166,167L166,166L167,166L165,163L163,162L159,161L157,162L156,162L155,161L153,162L153,163L150,165L148,164L146,164L145,162L147,161L148,160L149,159L150,158L153,157L154,156L155,155L156,154L156,153L156,150L157,149L157,148L156,147L155,146L154,145L156,141L155,140L155,138L154,137L154,136L152,134L150,134L149,133L148,132L146,131L145,130L144,128L144,126L144,125L138,115L138,114L137,113L136,112L133,115L121,119L118,122L116,125L115,129L113,133L113,137L113,144L112,147L111,150L108,152L105,153L100,153L98,153L96,154L95,157L95,158L94,163L93,164L91,166L90,166L88,166L86,166L84,167L81,172L80,174L63,180L59,179L57,176L56,176L53,176L52,177L52,178L51,180L50,181L47,184L49,185L51,185L52,183L53,183L54,185L56,186L57,187L58,188L58,190L58,191L57,193L57,193L57,195L57,195L58,197L58,198L59,199L60,200L62,204L64,203L65,202L67,203L69,202L70,201L70,200L71,199L71,200L73,200L73,199L76,198L78,197L79,198L79,199L81,201L82,202L84,202L88,202L88,201L89,202L90,204L91,204L92,204L93,205L102,207L104,205L105,205L105,204L105,203L105,202L104,201L104,199L104,198L104,197L103,195L104,194L106,194L107,195L113,197L116,200L117,202L118,203L122,205L123,206L124,207L125,208L124,210L124,211L123,212L123,214L124,215L125,215L126,216L128,218L129,220L130,223L132,224Z " data-fips="SI06" data-hasc="SK.TC" data-name="Trenciansky" data-postal="TC" data-varname="Trencn"/><path d="M76,318L77,317L77,314L78,313L80,313L82,312L83,311L83,308L84,306L85,305L86,305L87,303L89,301L91,301L92,300L91,298L91,296L91,295L90,293L91,290L90,285L91,282L91,281L89,281L88,280L88,279L87,278L86,279L84,278L84,277L85,275L85,274L85,273L81,268L83,267L84,267L85,268L86,267L86,266L85,263L85,262L86,262L88,264L89,263L91,262L91,261L91,260L91,259L90,258L89,257L89,256L89,255L89,253L90,252L91,251L88,249L88,248L89,245L89,244L90,242L91,240L98,229L100,227L96,223L94,221L90,219L91,217L94,210L95,210L96,210L97,210L102,209L102,208L102,207L93,205L92,204L91,204L90,204L89,202L88,201L88,202L84,202L82,202L81,201L79,199L79,198L78,197L76,198L73,199L73,200L71,200L71,199L70,200L70,201L69,202L67,203L65,202L64,203L62,204L60,200L59,199L58,198L58,197L57,195L57,195L57,193L57,193L58,191L58,190L58,188L57,187L56,186L54,185L53,183L52,183L51,185L49,185L47,184L50,181L51,180L52,178L52,177L50,178L49,179L39,173L35,172L31,173L26,176L25,177L24,180L23,181L20,184L18,187L13,200L12,202L10,204L10,206L11,212L10,214L16,212L20,212L20,211L21,212L25,214L27,214L30,212L32,212L33,211L34,211L35,211L36,209L37,209L38,208L39,207L40,206L43,202L44,201L45,200L46,201L47,202L48,203L48,205L48,207L47,208L46,210L44,210L43,212L42,213L41,215L46,220L45,221L43,223L42,225L42,226L44,227L45,227L46,228L47,229L49,229L49,230L50,231L51,233L52,234L53,237L54,238L55,239L56,240L56,241L55,243L54,244L55,246L59,250L57,253L56,255L56,256L57,257L59,257L59,258L59,260L60,261L60,262L60,264L59,264L57,265L55,267L52,268L51,267L49,267L49,265L49,264L48,264L47,265L47,266L47,268L47,269L46,269L45,270L44,271L43,271L41,270L41,272L40,273L41,274L42,275L43,275L44,276L43,276L41,277L40,278L39,279L40,280L38,281L36,283L36,286L36,287L42,288L45,290L54,303L56,304L59,305L62,310L64,311L64,310L65,310L67,311L69,312L70,314L71,315L72,316L76,319Z " data-fips="SI07" data-hasc="SK.TA" data-name="Trnavsk" data-postal="TA" data-varname="Trnava"/><path d="M438,242L442,240L446,239L449,238L450,237L454,237L456,236L458,236L463,236L465,236L466,234L468,232L467,223L468,220L469,218L467,213L467,210L469,208L474,203L475,202L476,200L476,199L477,198L480,198L481,197L482,195L483,192L483,190L483,187L483,185L484,184L485,183L486,182L486,180L486,175L486,174L486,173L486,171L482,170L480,171L476,171L476,169L474,166L474,165L474,164L472,163L470,163L467,168L465,169L464,170L465,172L465,173L465,174L459,174L457,175L455,175L453,175L449,172L448,171L447,171L438,168L435,168L435,172L435,175L436,176L436,178L437,179L437,180L436,181L435,182L434,183L432,184L430,184L430,186L429,186L427,186L426,186L424,185L423,184L421,185L419,184L414,182L410,177L410,175L409,173L408,171L406,172L405,172L404,171L403,170L402,171L401,171L399,172L400,173L400,175L399,176L398,177L397,177L395,177L394,177L393,178L393,179L393,180L392,180L391,180L390,180L389,178L388,177L388,176L389,174L389,173L389,173L388,173L387,172L385,172L384,172L382,172L381,171L380,170L379,169L378,169L376,169L374,169L371,168L369,168L368,167L367,166L366,165L365,163L365,162L364,162L363,162L361,162L359,161L357,161L355,159L352,160L350,159L350,158L349,157L347,156L345,157L346,158L346,159L346,160L340,159L339,159L338,160L338,161L337,162L336,163L335,163L334,162L332,160L331,160L329,160L327,159L324,156L324,155L323,155L322,156L323,158L320,159L321,160L319,158L317,157L316,156L314,158L313,158L312,159L309,160L307,162L306,163L305,165L306,165L307,165L309,167L305,169L305,170L304,172L303,174L301,174L297,181L296,182L296,184L296,185L296,186L296,188L295,189L295,190L295,192L296,194L297,194L302,198L302,199L304,204L305,207L305,208L306,209L308,209L309,209L310,210L309,211L309,213L309,214L308,215L307,219L307,220L306,221L306,223L306,224L306,225L307,226L309,227L308,228L312,228L314,228L316,227L319,227L320,228L320,228L322,225L322,224L321,222L321,221L321,220L324,219L329,218L348,213L349,213L351,214L354,216L355,217L358,217L362,220L366,220L368,220L370,220L373,221L375,223L377,224L384,220L387,219L388,220L389,221L390,221L392,221L393,219L393,218L394,216L395,215L397,215L400,215L405,213L406,214L409,215L410,216L411,217L412,218L413,220L413,221L415,222L418,222L419,222L420,224L422,229L422,230L428,238L430,240L432,242L435,243Z " data-fips="LO03" data-hasc="SK.KI" data-name="Koick" data-postal="KI" data-varname="Koice"/><path d="M429,186L430,186L430,184L432,184L434,183L435,182L436,181L437,180L437,179L436,178L436,176L435,175L435,172L435,168L438,168L447,171L448,171L449,172L453,175L455,175L457,175L459,174L465,174L465,173L465,172L464,170L465,169L467,168L470,163L472,163L474,164L474,165L474,166L476,169L476,171L480,171L482,170L486,171L487,170L489,168L490,166L490,164L491,162L493,156L494,155L497,154L499,153L499,150L499,147L499,144L500,142L497,141L490,141L487,140L482,136L480,135L476,135L471,134L471,133L471,131L469,130L466,130L465,130L462,128L456,127L453,125L453,121L451,116L449,112L446,110L441,107L438,105L436,104L434,104L433,106L432,107L431,108L429,107L426,102L424,101L422,101L421,100L419,99L419,98L417,98L411,99L409,99L408,100L407,99L403,100L402,100L393,98L389,96L387,95L386,97L384,100L383,101L382,102L380,102L378,102L377,100L376,99L374,99L371,100L369,100L368,102L369,104L371,105L372,107L371,108L370,108L368,108L367,109L365,111L362,115L360,116L358,117L357,117L355,116L354,115L352,113L351,113L349,113L347,113L346,112L338,103L337,103L333,103L331,103L330,104L328,105L327,106L325,107L324,107L316,103L315,103L315,106L310,106L307,104L306,105L305,106L304,107L304,109L303,112L296,112L295,113L293,115L292,116L290,116L288,120L288,122L287,123L286,125L285,129L284,132L283,134L280,132L275,128L273,127L270,127L269,128L267,130L269,134L269,135L270,136L270,138L270,139L271,139L272,139L273,139L274,141L275,141L276,142L278,142L280,142L281,142L281,143L280,147L280,149L280,150L280,152L280,153L279,154L278,155L277,155L276,156L279,160L280,161L281,163L281,164L282,165L283,165L282,167L281,168L278,169L291,171L293,171L294,170L296,170L298,171L299,172L303,174L304,172L305,170L305,169L309,167L307,165L306,165L305,165L306,163L307,162L309,160L312,159L313,158L314,158L316,156L317,157L319,158L321,160L320,159L323,158L322,156L323,155L324,155L324,156L327,159L329,160L331,160L332,160L334,162L335,163L336,163L337,162L338,161L338,160L339,159L340,159L346,160L346,159L346,158L345,157L347,156L349,157L350,158L350,159L352,160L355,159L357,161L359,161L361,162L363,162L364,162L365,162L365,163L366,165L367,166L368,167L369,168L371,168L374,169L376,169L378,169L379,169L380,170L381,171L382,172L384,172L385,172L387,172L388,173L389,173L389,173L389,174L388,176L388,177L389,178L390,180L391,180L392,180L393,180L393,179L393,178L394,177L395,177L397,177L398,177L399,176L400,175L400,173L399,172L401,171L402,171L403,170L404,171L405,172L406,172L408,171L409,173L410,175L410,177L414,182L419,184L421,185L423,184L424,185L426,186L427,186Z " data-fips="LO05" data-hasc="SK.PV" data-name="Preov" data-postal="PV" data-varname=""/></g></svg>