<?xml version="1.0" ?><!DOCTYPE svg  PUBLIC '-//W3C//DTD SVG 1.1//EN'  'http://www.w3.org/Graphics/SVG/1.1/DTD/svg11.dtd'><svg enable_background="new 0 0 500 401" height="401px" style="stroke-linejoin: round; stroke:#000; fill:#f6f3f0;" version="1.1" viewBox="0 0 500 401" width="500px" xmlns="http://www.w3.org/2000/svg" xmlns:xlink="http://www.w3.org/1999/xlink"><defs><style type="text/css"><![CDATA[path { fill-rule: evenodd; }
#context path { fill: #eee; stroke: #bbb; } ]]></style></defs><metadata><views><view h="401" padding="0" w="500"><proj id="laea" lat0="46.124" lon0="14.827"/><bbox h="17.86" w="26.81" x="987.53" y="990.75"/><llbbox lat0="-90" lat1="90" lon0="-180" lon1="180"/></view></views></metadata><g id="admin1"><path d="M465,52L465,51L466,48L464,47L464,45L465,44L465,43L465,39L464,37L462,34L460,33L445,35L445,35L453,40L456,41L458,44L459,46L459,47L459,51L464,53Z " data-fips="SI33" data-hasc="SI.PM.SA" data-name="alovci" data-postal="SA" data-varname=""/><path d="M430,43L432,41L433,41L437,41L437,38L438,35L432,34L426,38L426,38L429,44Z " data-fips="SII2" data-hasc="SI.PM.KU" data-name="Kuzma" data-postal="KU" data-varname=""/><path d="M412,110L416,107L413,102L411,97L408,99L407,101L406,103L407,108L410,110Z " data-fips="SI00" data-hasc="SI.PD.CE" data-name="Cerkvenjak" data-postal="CE" data-varname=""/><path d="M403,98L405,98L406,97L405,92L404,90L404,89L407,87L407,86L405,85L404,86L402,85L398,86L397,89L396,92L398,93L401,97L402,98Z " data-fips="SI00" data-hasc="SI.PD.BE" data-name="Benedikt" data-postal="BE" data-varname=""/><path d="M396,92L397,89L398,86L400,80L398,79L396,78L391,75L389,73L387,72L387,76L386,77L386,79L385,80L385,81L385,82L389,84L390,87L391,89L391,91L392,91L394,93L395,93Z " data-fips="SI00" data-hasc="SI.PD.SA" data-name="Sveta Ana" data-postal="SA" data-varname=""/><path d="M467,47L468,46L468,44L468,43L469,42L469,40L468,38L466,38L464,37L465,39L465,43L465,44L464,45L464,47L466,48Z " data-fips="SI00" data-hasc="SI.PM.HO" data-name="Hodo" data-postal="HO" data-varname=""/><path d="M434,57L435,56L437,51L437,41L433,41L432,41L430,43L429,44L426,54L426,55L428,57L431,56L432,57L433,57Z " data-fips="SI00" data-hasc="SI.PM.GD" data-name="Grad" data-postal="GD" data-varname=""/><path d="M403,128L404,128L404,127L406,124L410,122L410,121L401,118L397,118L395,116L394,122L398,127L400,128L402,129Z " data-fips="SI18" data-hasc="SI.PD.DE" data-name="Destrnik" data-postal="DE" data-varname=""/><path d="M158,229L159,227L162,226L166,226L171,226L171,224L171,222L170,221L170,219L168,216L167,215L166,215L160,213L156,215L155,214L154,213L143,209L138,211L134,217L134,218L134,220L131,226L139,229L139,226L142,224L146,223L152,224L153,224L154,225L155,228L155,229Z " data-fips="SIG4" data-hasc="SI.LJ.DP" data-name="Dobrova-Polhov Gradec" data-postal="DP" data-varname="Dobrova-Horjul-Polhov Gradec"/><path d="M199,211L201,210L205,208L207,207L211,205L210,204L208,203L208,202L210,201L209,199L207,199L206,198L205,197L204,196L205,195L207,191L205,187L204,187L203,187L202,189L198,191L194,193L195,200L193,203L192,205L195,210L195,212Z " data-fips="SIG7" data-hasc="SI.LJ.DM" data-name="Domale" data-postal="DM" data-varname=""/><path d="M202,189L203,187L204,187L205,187L215,187L218,188L220,189L223,189L226,188L244,186L246,186L249,184L242,179L237,176L230,175L226,176L221,175L215,173L213,172L213,168L210,168L209,167L209,165L208,162L204,157L198,151L196,151L192,149L188,153L188,154L188,156L188,158L189,160L188,162L188,165L189,167L189,170L190,171L192,174L191,176L191,177L191,181L192,184L193,190L198,191Z " data-fips="SIH6" data-hasc="SI.LJ.KA" data-name="Kamnik" data-postal="KA" data-varname=""/><path d="M271,355L273,352L274,349L275,348L277,348L280,346L280,345L279,344L277,345L275,345L273,346L272,345L272,344L272,341L274,339L276,338L277,338L277,337L275,336L274,334L274,332L273,330L273,328L272,326L270,324L266,319L264,315L264,311L260,307L257,304L257,302L256,300L257,293L258,292L257,288L251,287L249,287L244,293L240,295L240,297L240,299L237,300L232,297L227,309L226,311L225,315L224,316L221,317L217,315L216,317L214,320L216,327L217,332L218,333L217,334L217,335L218,337L221,339L228,345L231,349L233,349L234,348L235,346L236,344L238,342L240,342L242,344L245,344L247,344L249,343L251,343L255,346L257,351L258,351L260,352L262,353L269,354L271,355Z " data-fips="SIH7" data-hasc="SI.LJ.KC" data-name="Kocevje" data-postal="KC" data-varname=""/><path d="M395,116L396,114L396,113L396,112L397,111L397,110L398,109L400,108L401,107L407,108L406,103L407,101L408,99L411,97L406,97L405,98L403,98L402,98L401,97L398,93L396,92L395,93L394,93L392,91L391,91L391,89L390,87L389,84L383,84L382,85L380,92L380,94L380,98L379,101L381,103L382,104L379,107L382,107L384,107L385,108L385,110L388,112L389,113L389,115L388,116Z " data-fips="SII3" data-hasc="SI.PD.LE" data-name="Lenart" data-postal="LE" data-varname=""/><path d="M176,330L177,331L178,331L179,330L180,327L181,325L185,320L187,318L189,313L191,311L191,311L189,307L189,305L186,295L184,296L181,296L177,292L166,301L163,305L167,310L168,312L167,320L167,322L168,324L170,326L171,327L171,329L170,330L172,331L174,331L175,331Z " data-fips="SII7" data-hasc="SI.NO.LD" data-name="Loka Dolina" data-postal="LD" data-varname=""/><path d="M213,168L217,162L225,156L229,145L230,142L229,140L224,135L221,137L219,140L219,142L219,144L218,144L217,146L208,150L204,157L208,162L209,165L209,167L210,168Z " data-fips="SII9" data-hasc="SI.SA.LU" data-name="Luce" data-postal="LU" data-varname="Savinjska"/><path d="M381,167L383,165L387,159L389,155L389,154L385,150L382,149L368,149L368,150L368,151L370,153L373,153L374,154L375,156L375,158L375,162L374,163L373,165L369,170L372,172L378,172L381,173Z " data-fips="SIJ1" data-hasc="SI.PD.MJ" data-name="Majperk" data-postal="MJ" data-varname=""/><path d="M286,307L288,307L290,307L291,307L297,302L300,300L301,297L303,296L309,292L314,291L313,290L312,284L308,278L305,275L304,273L304,270L305,268L305,267L309,265L309,263L309,261L309,260L308,259L307,257L305,256L303,255L297,256L297,257L297,258L295,262L294,263L292,264L290,264L282,269L280,270L279,270L280,272L279,273L279,274L278,276L277,276L276,278L274,279L270,287L273,290L273,292L273,293L279,299L280,300L280,301L280,302L279,303L279,304L277,305L277,307L281,307Z " data-fips="SIJ7" data-hasc="SI.DO.NM" data-name="Novo Mesto" data-postal="NM" data-varname=""/><path d="M360,216L357,212L355,209L354,207L354,201L356,195L359,189L360,188L358,186L352,192L351,196L347,198L346,203L347,205L349,205L352,208L353,208L356,214L355,215L356,217L357,218Z " data-fips="SI92" data-hasc="SI.SA.BS" data-name="Bistrica ob Sotli" data-postal="BS" data-varname=""/><path d="M314,111L315,107L318,103L318,101L318,99L319,98L321,98L325,100L327,101L329,101L330,98L329,97L329,96L329,95L329,93L330,91L329,89L326,87L321,85L313,86L313,88L312,91L311,92L308,94L307,94L305,96L306,106L308,108L311,110L310,111L310,112L312,113Z " data-fips="SI93" data-hasc="SI.KO.PO" data-name="Podvelka" data-postal="PO" data-varname=""/><path d="M163,167L175,167L178,166L181,166L183,165L188,162L189,160L188,158L188,156L188,154L188,153L176,150L173,149L171,150L171,151L170,152L169,153L164,159L163,162L163,163L161,164L159,164L160,165L160,166L161,167Z " data-fips="SIK5" data-hasc="SI.GO.PR" data-name="Preddvor" data-postal="PR" data-varname=""/><path d="M402,142L404,142L409,138L410,137L410,136L411,129L410,127L410,122L406,124L404,127L404,128L403,128L402,129L400,128L398,127L394,122L388,121L386,123L386,125L388,126L390,128L394,134L396,138L396,139L396,141L397,142L398,143Z " data-fips="SIK7" data-hasc="SI.PD.PT" data-name="Ptuj" data-postal="PT" data-varname=""/><path d="M258,120L259,119L260,118L260,116L261,112L262,104L261,103L260,102L257,100L255,98L255,97L254,96L251,96L247,92L243,95L243,95L245,97L246,98L247,99L248,100L248,101L250,103L251,104L252,106L251,109L252,111L252,112L252,114L248,118L251,121L255,121Z " data-fips="SIA4" data-hasc="SI.KO.RK" data-name="Ravne na Korokem" data-postal="RK" data-varname=""/><path d="M224,316L225,315L226,311L227,309L232,297L210,276L207,277L205,279L201,280L194,281L196,283L198,284L200,285L203,286L207,287L208,287L209,289L209,291L206,298L205,300L207,305L208,307L213,309L215,310L217,311L218,312L218,314L217,315L221,317Z " data-fips="SIL1" data-hasc="SI.LJ.RI" data-name="Ribnica" data-postal="RI" data-varname=""/><path d="M339,119L347,114L349,104L339,110L336,111L333,110L333,107L331,110L331,111L330,114L326,119L325,124Z " data-fips="SIL3" data-hasc="SI.PD.RU" data-name="Rue" data-postal="RU" data-varname=""/><path d="M339,218L338,213L336,210L337,209L337,208L339,208L340,208L341,208L343,206L346,203L347,198L344,197L343,197L341,197L338,197L337,195L336,194L336,192L333,188L332,185L331,183L332,181L333,180L336,178L338,177L340,175L342,173L344,171L342,168L340,169L323,164L320,162L320,165L321,166L320,168L319,169L318,169L317,176L316,177L315,178L318,183L319,185L318,186L318,192L320,195L320,197L319,199L319,202L325,199L326,199L328,202L330,203L330,204L330,205L330,206L328,206L328,205L327,205L326,206L325,207L324,208L322,209L321,211L321,213L320,214L327,219Z " data-fips="SIL7" data-hasc="SI.SA.SC" data-name="entjur pri Celju" data-postal="SC" data-varname=""/><path d="M369,170L373,165L374,163L375,162L375,158L375,156L374,154L373,153L370,153L368,151L368,150L368,149L368,147L368,146L369,144L369,142L368,141L369,139L366,136L364,135L362,133L348,126L347,124L347,122L339,119L325,124L321,125L320,126L317,123L314,127L315,128L316,130L318,131L321,132L323,133L327,136L330,137L332,139L332,140L333,142L334,142L336,142L338,143L339,144L339,146L339,148L343,153L345,153L346,154L347,157L348,162L349,166L348,170L351,169L352,169L354,168L357,168L364,170Z " data-fips="SIL8" data-hasc="SI.PD.SB" data-name="Slovenska Bistrica" data-postal="SB" data-varname=""/><path d="M411,167L416,166L418,166L418,166L417,165L415,157L415,155L415,154L414,152L414,149L411,149L410,148L409,145L407,144L404,142L402,142L395,145L392,142L391,147L391,149L390,150L389,154L389,155L387,159L391,162L392,158L392,156L392,155L393,154L395,153L397,152L398,152L401,153L403,154L405,155L405,156L405,157L405,159L405,160L405,162L406,164L406,165L406,166L406,168L406,170Z " data-fips="SIN2" data-hasc="SI.PD.VI" data-name="Videm" data-postal="VI" data-varname=""/><path d="M310,171L312,171L318,169L319,169L320,168L321,166L320,165L320,162L319,161L318,159L316,155L314,153L314,151L303,151L302,153L302,155L301,157L298,160L303,163L306,167L307,169L309,171Z " data-fips="SIN3" data-hasc="SI.SA.VO" data-name="Vojnik" data-postal="VO" data-varname=""/><path d="M293,191L295,188L296,179L296,178L295,175L295,173L295,171L296,169L296,168L296,161L289,159L285,157L283,157L282,157L281,158L279,166L279,168L278,170L277,171L278,173L280,178L282,180L283,181L282,182L282,183L282,186L281,189L280,190L279,191L278,191L288,191Z " data-fips="SIN5" data-hasc="SI.SA" data-name="Savinjska" data-postal="SA" data-varname=""/><path d="M192,184L191,181L184,193L186,194Z " data-fips="SI00" data-hasc="SI.LJ.KM" data-name="Komenda" data-postal="KM" data-varname=""/><path d="M339,148L339,146L339,144L338,143L336,142L334,142L333,142L332,140L332,139L330,137L327,136L326,138L326,139L326,140L325,141L326,142L327,143L326,144L325,146L328,148L332,151L333,151Z " data-fips="SI00" data-hasc="SI.PD.OP" data-name="Oplotnica" data-postal="OP" data-varname=""/><path d="M398,143L397,142L396,141L396,139L396,138L394,134L390,128L388,130L388,131L388,132L392,142L395,145Z " data-fips="SI00" data-hasc="SI.PD.HA" data-name="Hajdina" data-postal="HA" data-varname=""/><path d="M376,124L376,123L375,121L375,119L376,117L370,117L371,119L370,121L371,122L374,127Z " data-fips="SI00" data-hasc="SI.PD.MD" data-name="Miklav na Dravskem Polju" data-postal="MD" data-varname=""/><path d="M367,127L369,127L371,122L370,121L371,119L370,117L356,114L347,122L351,123L353,124L357,124L361,125L363,127L364,127Z " data-fips="SI00" data-hasc="SI.PD.HS" data-name="Hoce-Slivnica" data-postal="HS" data-varname=""/><path d="M408,112L407,111L401,107L400,108L398,109L397,110L397,111L396,112L396,113L396,114L395,116L397,118L401,118Z " data-fips="SI00" data-hasc="SI.PD.TV" data-name="Trnovska Vas" data-postal="TV" data-varname=""/><path d="M390,174L393,173L400,173L400,173L399,172L397,168L391,162L387,159L383,165L381,167L381,173L388,175Z " data-fips="SI00" data-hasc="SI.PD.ZE" data-name="etale" data-postal="ZE" data-varname=""/><path d="M401,173L401,173L402,172L406,170L406,168L406,166L406,165L406,164L405,162L405,160L405,159L405,157L405,156L405,155L403,154L401,153L398,152L397,152L395,153L393,154L392,155L392,156L392,158L391,162L397,168L399,172L400,173L400,173Z " data-fips="SI00" data-hasc="SI.PD.PO" data-name="Podlehnik" data-postal="PO" data-varname=""/><path d="M248,118L252,114L252,112L252,111L251,109L252,106L251,104L250,103L248,101L248,100L247,99L246,98L245,97L243,95L243,95L240,95L238,95L236,96L234,99L232,103L231,107L231,107L232,107L236,107L237,107L238,107L239,108L240,108L241,109L241,110L241,112L243,114L245,115L244,118Z " data-fips="SI00" data-hasc="SI.KO.PR" data-name="Prevalje" data-postal="PR" data-varname=""/><path d="M339,110L349,104L347,102L347,100L347,98L346,97L344,96L343,95L343,94L343,92L342,89L341,88L341,89L338,91L333,92L329,89L330,91L329,93L329,95L329,96L329,97L330,98L331,100L332,101L333,103L333,107L333,110L336,111Z " data-fips="SI00" data-hasc="SI.PD.SD" data-name="Selnica ob Dravi" data-postal="SD" data-varname=""/><path d="M321,125L325,124L326,119L330,114L331,111L331,110L333,107L333,103L332,101L331,100L329,101L327,101L325,100L321,98L319,98L318,99L318,101L318,103L315,107L314,111L312,113L310,123L317,123L320,126Z " data-fips="SI00" data-hasc="SI.PD.LP" data-name="Lovrenc na Pohorju" data-postal="LP" data-varname=""/><path d="M192,205L193,203L195,200L187,207Z " data-fips="SI00" data-hasc="SI.LJ.TR" data-name="Trzin" data-postal="TR" data-varname=""/><path d="M170,152L171,151L171,150L173,149L176,150L192,149L190,144L190,145L187,147L185,144L183,141L181,138L175,139L173,138L171,137L170,138L168,143L168,145L166,148L166,150L169,153Z " data-fips="SI00" data-hasc="SI.GO.JZ" data-name="Jezersko" data-postal="JZ" data-varname=""/><path d="M249,287L251,287L257,288L260,285L261,284L263,284L266,284L274,279L268,274L264,271L263,271L263,270L260,269L257,270L255,270L254,269L253,268L253,266L252,265L250,264L249,264L241,264L241,267L236,268L236,270L236,271L237,274L237,278L236,280L234,281L232,281L229,281L229,285L229,286L230,290L233,290L234,289L236,289L238,290L239,291L244,293Z " data-fips="SI00" data-hasc="SI.DO.ZU" data-name="uemberk" data-postal="ZU" data-varname=""/><path d="M298,160L301,157L302,155L302,153L303,151L297,143L290,144L292,151L293,152L293,155L296,161Z " data-fips="SI00" data-hasc="SI.SA.DR" data-name="Dobrna" data-postal="DR" data-varname=""/><path d="M269,185L267,179L267,178L265,176L256,184L256,185L260,188L263,190Z " data-fips="SI00" data-hasc="SI.SA.TA" data-name="Tabor" data-postal="TA" data-varname=""/><path d="M256,185L256,184L255,169L253,169L252,170L251,171L248,172L247,173L245,173L244,173L244,174L244,175L242,179L249,184L246,186L247,188L249,189L250,190Z " data-fips="SI00" data-hasc="SI.SA.VR" data-name="Vransko" data-postal="VR" data-varname=""/><path d="M276,278L277,276L278,276L279,274L279,273L280,272L279,270L280,270L282,269L281,262L280,261L279,261L278,260L277,258L275,259L275,260L274,261L272,262L270,262L268,263L267,265L266,266L268,274L274,279Z " data-fips="SI00" data-hasc="SI.DO.MP" data-name="Mirna Pec" data-postal="MP" data-varname=""/><path d="M278,191L279,191L280,190L281,189L282,186L282,183L282,182L283,181L282,180L280,178L275,175L271,181L269,185L273,191Z " data-fips="SI00" data-hasc="SI.SA.PR" data-name="Prebold" data-postal="PR" data-varname=""/><path d="M278,173L277,171L278,170L279,168L279,166L278,160L276,157L274,156L273,154L270,156L270,159L269,162L275,175Z " data-fips="SI00" data-hasc="SI.SA.PL" data-name="Polzela" data-postal="PL" data-varname=""/><path d="M241,356L244,351L245,346L248,346L252,348L254,351L257,351L255,346L251,343L249,343L247,344L245,344L242,344L240,342L238,342L236,344L235,346L234,348L233,349L231,349L228,345L221,339L218,337L217,335L217,334L218,333L217,332L216,327L209,332L206,333L207,334L207,336L207,340L207,341L210,344L225,351L228,357L234,358Z " data-fips="SI00" data-hasc="SI.LJ.KS" data-name="Kostel" data-postal="KS" data-varname=""/><path d="M240,299L240,297L240,295L239,291L238,290L236,289L234,289L233,290L230,290L232,297L237,300Z " data-fips="SI00" data-hasc="SI.LJ.KC" data-name="Kocevje" data-postal="KC" data-varname=""/><path d="M275,175L266,159L261,156L260,157L259,160L258,161L258,162L255,169L265,176L267,178L267,179L271,181Z " data-fips="SI00" data-hasc="SI.SA.BR" data-name="Braslovce" data-postal="BR" data-varname=""/><path d="M206,298L209,291L209,289L208,287L207,287L203,286L200,285L198,284L196,283L194,281L189,284L191,288L191,289L191,291L192,295L196,296L199,296L201,297L202,298L205,300Z " data-fips="SI00" data-hasc="SI.LJ.SO" data-name="Sodraica" data-postal="SO" data-varname=""/><path d="M267,314L268,313L271,309L272,307L274,306L277,307L277,305L279,304L279,303L280,302L280,301L280,300L279,299L273,293L273,292L273,290L270,287L266,284L263,284L261,284L260,285L257,288L258,292L257,293L256,300L257,302L257,304L260,307L264,311L264,315L266,319Z " data-fips="SI00" data-hasc="" data-name="Jugovzhodna Slovenija" data-postal="" data-varname=""/><path d="M145,234L146,233L150,232L151,232L155,229L155,228L154,225L153,224L152,224L146,223L142,224L139,226L139,229L140,231L139,232L140,233L143,235L144,235Z " data-fips="SI00" data-hasc="SI.LJ.HO" data-name="Horjul" data-postal="HO" data-varname=""/><path d="M198,151L208,150L217,146L218,144L219,144L219,142L219,140L221,137L218,132L216,131L209,129L208,128L206,128L203,131L202,132L200,133L196,133L195,134L193,137L191,142L190,144L192,149L196,151Z " data-fips="SI00" data-hasc="SI.SA.SL" data-name="Solcava" data-postal="SL" data-varname=""/><path d="M324,208L325,207L326,206L327,205L328,205L328,206L330,206L330,205L330,204L330,203L328,202L326,199L325,199L319,202L322,209Z " data-fips="SI00" data-hasc="SI.SA.DJ" data-name="Dobje" data-postal="DJ" data-varname=""/><path d="M229,286L229,285L229,281L226,278L225,277L224,275L223,273L222,271L222,268L223,265L217,262L216,262L210,260L209,260L208,259L207,260L206,261L202,266L202,268L202,269L203,269L204,269L207,271L210,276L230,290Z " data-fips="SI00" data-hasc="SI.LJ.DB" data-name="Dobrepolje" data-postal="DB" data-varname=""/><path d="M186,295L188,294L189,295L192,295L191,291L191,289L191,288L189,284L185,277L181,271L179,272L177,272L173,276L172,277L171,278L171,280L171,281L172,282L174,286L178,288L179,290L177,292L181,296L184,296Z " data-fips="SI00" data-hasc="SI.NO.BL" data-name="Bloke" data-postal="BL" data-varname=""/><path d="M370,224L371,224L369,221L367,220L363,218L361,217L360,216L357,218L359,224L360,225L361,225L362,226L366,226L367,227Z " data-fips="SI00" data-hasc="SI.SA.PD" data-name="Podcetrtek" data-postal="PD" data-varname=""/><path d="M374,113L375,112L377,111L379,107L382,104L381,103L379,101L378,102L374,102L371,100L367,97L362,97L360,95L359,93L357,91L356,90L355,89L353,88L350,88L345,87L342,84L342,87L341,88L342,89L343,92L343,94L343,95L344,96L346,97L347,98L347,100L347,102L349,104L347,114L356,114L375,115Z " data-fips="SI70" data-hasc="SI.PD.MB" data-name="Maribor" data-postal="MB" data-varname=""/><path d="M301,120L310,112L310,111L311,110L308,108L306,106L295,107L294,108L293,109L293,111L291,116L295,119L298,120Z " data-fips="SIA5" data-hasc="SI.KO.RP" data-name="Ribnica na Pohorju" data-postal="RP" data-varname=""/><path d="M122,136L124,133L125,132L123,132L114,124L112,123L109,122L107,122L104,122L104,125L103,127L101,129L100,131L113,138L114,139L117,141Z " data-fips="SIH4" data-hasc="SI.GO.JS" data-name="Jesenice" data-postal="JS" data-varname=""/><path d="M127,146L128,146L130,146L132,145L132,143L133,141L135,138L137,137L139,136L140,133L125,132L124,133L122,136L120,143L123,148Z " data-fips="SI00" data-hasc="SI.GO.ZV" data-name="irovnica" data-postal="ZV" data-varname=""/><path d="M71,268L68,266L67,264L67,263L66,262L63,259L61,258L60,256L58,255L57,254L60,253L61,253L64,249L68,242L75,237L75,235L77,233L79,231L75,229L73,227L72,225L70,221L70,219L70,216L70,214L69,209L68,208L66,208L64,209L63,214L62,215L61,218L59,219L58,219L53,218L50,217L47,218L45,220L42,225L40,227L43,230L43,232L42,232L40,231L39,230L37,230L41,233L38,235L37,236L37,236L40,240L39,245L39,245L41,246L42,246L44,247L46,249L47,249L48,250L49,250L50,251L50,253L48,253L47,253L44,256L41,257L40,258L39,259L41,260L42,262L46,263L49,263L53,264L62,269L65,270L68,270L70,269L73,271Z " data-fips="SI84" data-hasc="SI.SP" data-name="Gorika" data-postal="SP" data-varname="Severna Primors"/><path d="M47,253L48,253L50,253L50,251L49,250L48,250L47,249L46,249L44,247L42,246L41,246L39,245L39,245L37,249L36,253L36,253L38,255L44,256Z " data-fips="SI00" data-hasc="SI.SP.SV" data-name="empeter-Vrtojba" data-postal="SV" data-varname=""/><path d="M471,108L472,106L471,106L470,105L471,104L472,102L471,99L470,97L466,96L464,99L462,99L460,101L457,104L459,106L461,108L462,107L463,106L465,109L467,110Z " data-fips="SI15" data-hasc="SI.PM.CR" data-name="Crenovci" data-postal="CR" data-varname=""/><path d="M498,106L492,101L486,92L480,89L477,87L477,85L476,86L473,90L481,98L480,99L479,100L476,102L474,103L473,104L471,104L470,105L471,106L472,106L473,106L474,107L475,106L477,107L479,107L481,107L483,107L484,108L487,111L488,112L489,112L493,111L495,112L496,113L500,116Z " data-fips="SI59" data-hasc="SI.PM.LE" data-name="Lendava" data-postal="LE" data-varname="Lendva"/><path d="M452,122L454,123L454,121L456,120L456,118L460,114L460,112L462,109L466,110L467,110L465,109L463,106L462,107L461,108L459,106L457,104L450,102L448,102L446,103L446,105L447,106L446,107L446,110L445,111L443,111L441,111L438,111L434,108L431,108L425,108L424,108L423,110L423,111L423,113L427,116L429,117L436,118L440,120L442,120L443,119L446,118L448,120L449,121L451,123Z " data-fips="SII6" data-hasc="SI.PM.LJ" data-name="Ljutomer" data-postal="LJ" data-varname=""/><path d="M445,111L446,110L446,107L447,106L446,105L446,103L443,101L443,99L441,98L440,95L440,93L442,94L437,90L435,90L436,92L433,93L433,101L432,103L431,108L434,108L438,111L441,111L443,111Z " data-fips="SI00" data-hasc="SI.PM.KR" data-name="Krievci" data-postal="KR" data-varname=""/><path d="M448,102L450,102L450,96L442,94L440,93L440,95L441,98L443,99L443,101L446,103Z " data-fips="SI00" data-hasc="SI.PM.VE" data-name="Verej" data-postal="VE" data-varname=""/><path d="M410,117L411,116L412,115L414,114L416,113L416,107L412,110L410,110L407,108L407,111L408,112L410,121Z " data-fips="SI00" data-hasc="SI.PD.SS" data-name="Sveti Andra v Slovenskih Goricah" data-postal="SS" data-varname=""/><path d="M460,113L460,113L465,111L466,110L462,109L460,112L460,114Z " data-fips="SI00" data-hasc="SI.PM.RZ" data-name="Razkrije" data-postal="RZ" data-varname=""/><path d="M473,104L474,103L476,102L479,100L480,99L481,98L476,94L473,93L472,94L471,95L470,97L471,99L472,102L471,104Z " data-fips="SI00" data-hasc="SI.PM.VP" data-name="Velika Polana" data-postal="VP" data-varname=""/><path d="M476,86L477,85L476,84L478,81L480,80L481,79L480,79L477,77L475,76L474,74L472,73L471,74L470,76L468,80L473,90Z " data-fips="SI00" data-hasc="SI.PM.DO" data-name="Dobrovnik" data-postal="DO" data-varname="Dobronak"/><path d="M415,149L417,148L419,146L418,145L417,142L417,140L410,136L410,137L409,138L404,142L407,144L409,145L410,148L411,149L414,149Z " data-fips="SI00" data-hasc="SI.PD.MK" data-name="Markovci" data-postal="MK" data-varname=""/><path d="M437,84L437,83L436,81L435,80L434,78L434,77L435,73L432,72L431,71L430,71L428,70L427,69L426,67L427,65L427,63L426,58L421,58L420,57L418,54L416,54L413,54L413,58L413,62L415,67L418,69L420,73L420,78L422,79L424,80L425,80L429,84L437,86Z " data-fips="SI10" data-hasc="SI.PM.CA" data-name="Cankova" data-postal="CA" data-varname=""/><path d="M420,96L419,90L419,87L424,80L422,79L420,78L417,74L416,73L409,72L398,67L394,66L390,67L384,69L384,70L387,72L389,73L391,75L396,78L398,79L400,80L402,85L404,86L405,85L407,86L407,87L404,89L404,90L405,92L411,97Z " data-fips="SI29" data-hasc="SI.PM.GR" data-name="Gornja Radgona" data-postal="GR" data-varname=""/><path d="M453,60L454,58L455,57L459,51L459,47L459,46L458,44L456,41L453,40L445,35L445,35L438,35L437,38L437,41L441,42L442,43L443,44L443,46L446,49L448,49L449,50L450,52L448,57L449,58L452,61Z " data-fips="SI31" data-hasc="SI.PM.GP" data-name="Gornji Petrovci" data-postal="GP" data-varname=""/><path d="M441,73L442,73L446,72L446,66L448,65L449,58L448,57L450,52L449,50L448,49L446,49L443,46L443,44L442,43L441,42L437,51L435,56L434,57L433,57L432,57L431,56L428,57L426,58L427,63L427,65L426,67L427,69L428,70L430,71L431,71L432,72L435,73Z " data-fips="SI97" data-hasc="SI.PM.GP" data-name="Gornji Petrovci" data-postal="GP" data-varname=""/><path d="M433,93L436,92L435,90L429,84L425,80L424,80L419,87L419,90L420,96L423,96L424,95L426,93L427,93L428,94L429,96L430,97Z " data-fips="SIA1" data-hasc="SI.PM.RD" data-name="Radenci" data-postal="RD" data-varname=""/><path d="M428,57L426,55L426,54L426,38L426,38L422,40L415,42L414,42L413,44L414,45L414,46L413,54L416,54L418,54L420,57L421,58L426,58Z " data-fips="SIA6" data-hasc="SI.PM.RO" data-name="Rogaovci" data-postal="RO" data-varname=""/><path d="M164,266L165,264L165,259L166,257L166,255L166,251L164,250L163,249L162,248L159,245L155,243L154,244L154,247L154,249L154,251L157,259L158,261L162,265L163,266Z " data-fips="SI05" data-hasc="SI.LJ.BO" data-name="Borovnica" data-postal="BO" data-varname=""/><path d="M361,275L364,274L367,272L369,270L369,266L367,262L366,259L366,256L368,253L368,250L369,247L368,235L369,230L371,227L372,225L371,224L370,224L367,227L360,233L356,235L352,240L352,248L352,250L351,252L350,253L349,255L348,255L347,256L345,256L343,258L342,261L342,263L343,264L343,266L344,267L348,273L349,274L354,275Z " data-fips="SI08" data-hasc="SI.PS.BR" data-name="Breice" data-postal="BR" data-varname=""/><path d="M357,229L356,228L354,229L353,229L351,229L350,230L350,232L351,234Z " data-fips="" data-hasc="" data-name="Krsko" data-postal="" data-varname=""/><path d="M171,265L175,256L174,252L174,248L174,246L171,240L170,238L170,237L171,235L173,234L174,233L173,232L171,230L166,226L162,226L164,228L164,230L164,231L162,232L161,233L160,235L160,238L159,245L162,248L163,249L164,250L166,251L166,255L166,257L165,259L170,265Z " data-fips="SI09" data-hasc="SI.LJ.BR" data-name="Brezovica" data-postal="BR" data-varname=""/><path d="M300,188L301,188L302,189L310,189L309,188L309,184L310,182L311,182L313,181L315,178L316,177L317,176L312,171L310,171L309,171L307,169L306,167L303,163L298,160L296,161L296,168L296,169L295,171L295,173L295,175L296,178L296,179L295,188L295,190L297,190Z " data-fips="SI11" data-hasc="SI.SA.CE" data-name="Celje" data-postal="CE" data-varname=""/><path d="M191,177L191,176L192,174L190,171L189,170L189,167L188,165L188,162L183,165L181,166L178,166L175,167L174,168L173,170L172,171L172,172L171,175L171,180L172,182Z " data-fips="SI12" data-hasc="SI.GO.CG" data-name="Cerklje na Gorenjskem" data-postal="CG" data-varname=""/><path d="M177,292L179,290L178,288L174,286L172,282L171,281L171,280L171,278L172,277L173,276L177,272L179,272L181,271L180,268L180,266L180,264L171,265L170,265L165,264L164,266L163,266L162,265L159,264L152,260L150,259L148,260L145,271L142,279L141,282L143,285L146,288L148,290L152,290L152,294L166,301Z " data-fips="SI13" data-hasc="SI.NO.CE" data-name="Cerknica" data-postal="CE" data-varname=""/><path d="M224,135L251,133L253,131L253,128L255,121L251,121L248,118L244,118L243,119L242,120L240,120L236,118L233,116L230,115L228,114L226,117L226,118L222,120L218,120L217,119L214,121L213,122L212,123L210,125L209,128L208,128L209,129L216,131L218,132L221,137Z " data-fips="SI16" data-hasc="SI.KO.CK" data-name="Crna na Korokem" data-postal="CK" data-varname=""/><path d="M297,363L306,360L311,360L313,360L314,358L317,354L319,353L311,347L308,344L307,339L306,332L306,332L304,331L303,330L302,328L301,327L301,326L299,327L296,326L294,323L291,322L288,322L286,324L284,325L283,326L282,327L277,327L272,326L273,328L273,330L274,332L274,334L275,336L277,337L277,338L276,338L274,339L272,341L272,344L272,345L273,346L275,345L277,345L279,344L280,345L280,346L277,348L275,348L274,349L273,352L271,355L271,355L283,365L290,366Z " data-fips="SI17" data-hasc="SI.DO.CR" data-name="Crnomelj" data-postal="CR" data-varname=""/><path d="M206,216L210,215L211,216L214,216L219,213L220,213L221,211L218,211L217,211L216,210L215,209L213,208L207,207L205,208L201,210L199,211L195,212L196,214L199,216L202,216Z " data-fips="SI22" data-hasc="SI.LJ.DL" data-name="Dol pri Ljubljani" data-postal="DL" data-varname=""/><path d="M266,109L268,109L270,109L271,108L271,107L276,103L277,101L276,99L278,96L280,96L277,93L275,90L274,88L273,85L270,84L261,87L255,96L252,91L249,91L247,92L251,96L254,96L255,97L255,98L257,100L260,102L261,103L262,104L265,110Z " data-fips="SI25" data-hasc="SI.KO.DR" data-name="Dravograd" data-postal="DR" data-varname=""/><path d="M388,121L388,116L389,115L389,113L388,112L385,110L385,108L384,107L382,107L379,107L377,111L375,112L374,113L375,115L376,117L377,120L378,120L379,121L380,121L386,123Z " data-fips="SI26" data-hasc="SI.PD.DU" data-name="Duplek" data-postal="DU" data-varname=""/><path d="M237,172L238,170L240,168L241,165L236,161L230,156L228,155L225,156L217,162L213,168L213,172L215,173L221,175L226,176L230,175L237,176Z " data-fips="SI30" data-hasc="SI.SA.GG" data-name="Gornji Grad" data-postal="GG" data-varname=""/><path d="M220,259L220,258L220,256L220,255L218,251L218,249L218,247L217,246L215,245L215,242L218,238L216,233L214,231L212,231L210,233L209,234L209,235L206,236L201,236L197,236L196,236L195,237L195,239L195,241L196,243L195,250L196,255L200,258L200,260L206,261L207,260L208,259L209,260L210,260L216,262L217,262Z " data-fips="SI32" data-hasc="SI.LJ.GR" data-name="Grosuplje" data-postal="GR" data-varname=""/><path d="M284,211L283,210L283,209L285,209L286,210L288,210L290,208L290,207L289,204L288,202L286,200L282,197L281,195L276,194L274,196L271,199L271,201L271,203L272,205L273,207L274,208L276,210L277,212L281,214Z " data-fips="SI34" data-hasc="SI.ZS.HR" data-name="Hrastnik" data-postal="HR" data-varname=""/><path d="M265,221L272,219L274,218L269,212L266,211L264,210L261,211L261,212L260,214L259,215L259,217L260,218L260,220L261,221L263,222Z " data-fips="SI34" data-hasc="SI.ZS" data-name="Trbovlje" data-postal="ZS" data-varname=""/><path d="M191,264L193,263L194,261L194,258L191,256L191,255L190,253L189,252L190,247L190,244L189,240L182,234L181,234L177,236L176,238L171,240L174,246L174,248L174,252L175,256L181,260L185,262L187,263L188,264L189,264L190,264Z " data-fips="SI37" data-hasc="SI.LJ.IG" data-name="Ig" data-postal="IG" data-varname=""/><path d="M123,354L130,350L134,349L138,350L144,353L152,355L159,354L163,352L165,350L167,349L168,348L171,345L175,343L177,339L178,336L178,331L177,331L176,330L175,331L174,331L172,331L170,330L171,329L171,327L170,326L168,324L167,322L167,320L160,314L159,312L155,309L152,310L152,311L151,312L145,313L139,316L138,316L136,318L134,318L131,319L124,318L120,319L117,320L116,320L114,320L114,322L116,325L115,327L114,329L114,331L114,332L115,333L116,333L116,335L116,337L114,341L114,345L117,347L117,348L118,350L118,353L118,355L118,355Z " data-fips="SI38" data-hasc="SI.NO.IB" data-name="Ilirska Bistrica" data-postal="IB" data-varname=""/><path d="M236,280L237,278L237,274L236,271L236,270L236,268L241,267L241,264L240,262L239,260L240,257L241,251L241,250L242,248L246,246L245,240L241,234L239,233L238,234L237,234L235,234L230,232L225,232L224,233L220,233L218,238L215,242L215,245L217,246L218,247L218,249L218,251L220,255L220,256L220,258L220,259L223,265L222,268L222,271L223,273L224,275L225,277L226,278L229,281L232,281L234,281Z " data-fips="SI39" data-hasc="SI.LJ.IV" data-name="Ivancna Gorica" data-postal="IV" data-varname=""/><path d="M391,149L391,147L392,142L384,133L382,134L379,134L377,135L369,139L368,141L369,142L369,144L368,146L368,147L368,149L382,149L385,150L390,150Z " data-fips="SI45" data-hasc="SI.PD.KI" data-name="Kidricevo" data-postal="KI" data-varname=""/><path d="M360,233L367,227L366,226L362,226L361,225L360,225L359,224L357,218L356,217L355,215L356,214L353,208L352,208L349,205L347,205L346,203L343,206L341,208L340,208L339,208L337,208L337,209L336,210L338,213L339,218L343,220L344,220L346,221L348,223L350,230L351,229L353,229L354,229L356,228L357,229L356,235Z " data-fips="SI08" data-hasc="SI.SA.KO" data-name="Kozje" data-postal="KO" data-varname=""/><path d="M331,284L331,282L330,279L331,277L333,276L334,276L336,277L338,277L340,277L343,274L344,273L349,274L348,273L344,267L343,266L343,264L342,263L342,261L343,258L345,256L347,256L348,255L349,255L350,253L351,252L352,250L352,248L352,240L351,234L350,232L350,230L348,223L346,221L344,220L343,220L339,218L327,219L327,223L327,224L327,226L327,228L328,230L329,231L329,232L329,233L328,235L323,241L320,245L317,253L317,257L316,259L318,260L323,262L324,267L324,272L324,274L325,277L328,284L329,285Z " data-fips="SI54" data-hasc="SI.PS" data-name="Spodnjeposavska" data-postal="PS" data-varname="Posavska"/><path d="M365,94L362,85L358,80L358,77L357,78L355,78L353,78L349,78L346,79L344,81L342,84L345,87L350,88L353,88L355,89L356,90L357,91L359,93L360,95L362,97Z " data-fips="SI55" data-hasc="SI.PD.KU" data-name="Kungota" data-postal="KU" data-varname=""/><path d="M309,219L311,218L320,214L321,213L321,211L319,202L319,199L320,197L320,195L318,192L310,196L306,195L307,194L308,193L308,192L302,189L301,188L300,188L297,190L295,190L295,188L293,191L288,191L281,195L282,197L286,200L288,202L289,204L290,207L290,208L288,210L286,210L285,209L283,209L283,210L284,211L292,220L293,219L292,217L291,215L293,215L301,215L303,215L304,216L305,218L306,220L307,220Z " data-fips="SI57" data-hasc="SI.SA.LA" data-name="Lako" data-postal="LA" data-varname=""/><path d="M264,241L265,239L266,237L266,235L267,234L269,233L273,234L275,232L277,233L275,227L275,225L273,223L272,222L272,219L265,221L263,222L261,221L260,220L260,218L259,217L259,215L260,214L261,212L261,211L256,208L255,209L253,211L252,212L249,212L247,212L246,213L245,212L243,209L243,207L243,206L243,205L241,204L235,204L234,202L229,207L221,211L220,213L219,213L214,216L216,218L218,219L218,221L217,222L218,224L219,225L220,226L220,228L220,229L220,233L224,233L225,232L230,232L235,234L237,234L238,234L239,233L241,234L245,240L251,242L253,240L255,240L257,240L260,242Z " data-fips="SII5" data-hasc="SI.LJ.LI" data-name="Litija" data-postal="LI" data-varname=""/><path d="M176,238L177,236L181,234L182,234L186,233L186,231L187,230L190,230L194,230L201,236L206,236L209,235L209,234L210,233L212,231L214,231L216,233L220,233L220,229L220,228L220,226L219,225L218,224L217,222L218,221L218,219L216,218L214,216L211,216L210,215L206,216L202,216L199,216L196,214L195,212L195,210L187,207L183,200L178,202L177,202L174,203L172,204L170,204L169,205L168,206L168,207L169,209L169,210L170,211L169,212L166,215L167,215L168,216L170,219L170,221L171,222L171,224L171,226L171,230L173,232L174,233L173,234L171,235L170,237L170,238L171,240Z " data-fips="SI61" data-hasc="SI.LJ" data-name="Osrednjeslovenska" data-postal="LJ" data-varname="Ljubljana"/><path d="M241,156L241,153L245,143L244,138L229,140L230,142L229,145L225,156L228,155L230,156L236,161Z " data-fips="SI62" data-hasc="SI.SA.LJ" data-name="Ljubno" data-postal="LJ" data-varname=""/><path d="M148,260L146,255L142,250L138,246L137,245L136,245L135,245L134,243L134,242L135,241L135,239L135,236L137,235L133,232L132,232L131,226L128,229L123,232L122,235L121,237L120,238L118,241L119,241L119,242L119,245L118,247L116,249L116,252L116,253L117,255L118,256L120,264L129,262L132,263L136,265Z " data-fips="SI64" data-hasc="SI.LJ.LO" data-name="Logatec" data-postal="LO" data-varname=""/><path d="M209,332L216,327L214,320L216,317L217,315L218,314L218,312L217,311L215,310L213,309L208,307L207,305L202,298L201,297L199,296L196,296L192,295L189,295L188,294L186,295L189,305L189,307L191,311L191,311L193,310L195,311L195,315L195,319L195,322L196,325L199,327L204,332L205,332L206,333Z " data-fips="SI66" data-hasc="SI.LJ.LP" data-name="Loki Potok" data-postal="LP" data-varname=""/><path d="M214,199L217,197L224,195L229,196L232,196L231,194L242,193L243,193L244,190L244,186L226,188L223,189L220,189L218,188L215,187L207,191L205,195L204,196L205,197L206,198L207,199L209,199L210,201Z " data-fips="SI68" data-hasc="SI.LJ.LU" data-name="Lukovica" data-postal="LU" data-varname=""/><path d="M169,212L170,211L169,210L169,209L168,207L168,206L169,205L170,204L172,204L174,203L174,189L166,190L166,194L167,195L162,198L161,199L160,200L158,200L155,203L153,205L153,206L153,208L154,213L155,214L156,215L160,213L166,215Z " data-fips="SI71" data-hasc="SI.LJ.MD" data-name="Medvode" data-postal="MD" data-varname=""/><path d="M195,200L194,193L193,190L186,194L186,197L185,198L184,199L183,200Z " data-fips="SI72" data-hasc="SI.LJ.MN" data-name="Menge" data-postal="MN" data-varname=""/><path d="M305,330L304,327L304,325L306,324L307,323L307,322L308,320L313,318L315,317L317,316L320,316L320,314L317,310L314,307L313,307L310,308L309,309L307,308L306,307L305,306L303,303L302,302L301,301L300,300L297,302L299,303L301,307L303,309L305,311L306,314L306,316L305,317L304,317L303,318L303,320L302,321L301,322L301,322L299,323L298,324L296,326L299,327L301,326L301,327L302,328L303,330L304,331L306,332L306,332Z " data-fips="SI73" data-hasc="SI.DO.CR" data-name="Metlika" data-postal="CR" data-varname=""/><path d="M243,119L244,118L245,115L243,114L241,112L241,110L241,109L240,108L239,108L238,107L237,107L236,107L232,107L231,107L231,107L229,111L228,114L230,115L233,116L236,118L240,120L242,120Z " data-fips="SI74" data-hasc="SI.KO.ME" data-name="Meica" data-postal="ME" data-varname=""/><path d="M297,143L300,139L302,133L303,132L305,131L307,130L312,130L312,128L311,127L310,126L310,123L301,120L298,120L295,119L291,116L290,121L286,126L284,128L284,130L283,132L281,132L285,139L286,139L288,140L288,141L288,143L290,144Z " data-fips="SI76" data-hasc="SI.KO.MI" data-name="Mislinja" data-postal="MI" data-varname=""/><path d="M221,211L229,207L234,202L235,201L235,200L229,196L224,195L217,197L214,199L210,201L208,202L208,203L210,204L211,205L213,208L215,209L216,210L217,211L218,211Z " data-fips="SI77" data-hasc="SI.LJ.MO" data-name="Moravce" data-postal="MO" data-varname=""/><path d="M248,163L252,159L253,159L254,159L255,161L258,162L258,161L259,160L260,157L261,156L260,153L260,152L260,144L259,143L258,143L256,143L254,143L252,143L250,142L245,143L241,153L241,156L241,165Z " data-fips="SI79" data-hasc="SI.SA.MO" data-name="Mozirje" data-postal="MO" data-varname=""/><path d="M284,95L289,91L289,89L287,86L273,85L274,88L275,90L277,93L280,96L282,96Z " data-fips="SI81" data-hasc="SI.KO.MU" data-name="Muta" data-postal="MU" data-varname=""/><path d="M244,175L244,174L244,173L245,173L247,173L248,172L251,171L252,170L253,169L255,169L255,161L254,159L253,159L252,159L248,163L241,165L240,168L238,170L237,172L237,176L242,179Z " data-fips="SI83" data-hasc="SI.SA.NA" data-name="Nazarje" data-postal="NA" data-varname=""/><path d="M379,101L380,98L380,94L380,92L380,85L379,84L379,83L378,82L377,81L376,79L375,78L373,78L371,78L370,77L369,78L368,80L367,82L367,84L366,85L362,85L365,94L362,97L367,97L371,100L374,102L378,102Z " data-fips="SI89" data-hasc="SI.PD.PE" data-name="Pesnica" data-postal="PE" data-varname=""/><path d="M117,320L120,319L124,318L131,319L134,318L136,318L138,316L139,316L145,313L151,312L152,311L152,310L155,309L159,312L160,314L168,312L167,310L163,305L152,294L152,290L143,295L141,297L135,299L132,299L127,301L124,302L121,302L118,301L115,299L113,301L111,302L110,304L110,306L110,307L111,309L111,312L111,313L112,315L113,317L112,319L114,320L116,320Z " data-fips="SI91" data-hasc="SI.NO" data-name="Notranjsko-kraka" data-postal="NO" data-varname="Kraka, Notranj"/><path d="M127,301L132,299L135,299L141,297L143,295L152,290L148,290L146,288L143,285L141,282L142,279L145,271L136,265L132,263L129,262L120,264L115,268L109,277L108,280L108,284L107,286L111,293L113,295L115,299L118,301L121,302L124,302Z " data-fips="SI94" data-hasc="SI.SP.PO" data-name="Postojna" data-postal="PO" data-varname=""/><path d="M377,135L375,131L375,130L374,127L369,127L367,127L364,127L363,127L361,125L357,124L353,124L351,123L347,122L347,124L348,126L362,133L364,135L366,136L369,139Z " data-fips="SI98" data-hasc="SI.PD.RF" data-name="Race-Fram" data-postal="RF" data-varname=""/><path d="M298,227L298,225L297,225L296,223L295,223L294,223L293,222L292,220L281,214L277,212L276,216L274,218L272,219L272,222L273,223L275,225L283,224L296,227Z " data-fips="SI99" data-hasc="SI.SA.RA" data-name="Radece" data-postal="RA" data-varname=""/><path d="M293,111L293,109L294,108L295,107L305,96L307,94L308,94L311,92L312,91L313,88L313,86L292,87L287,86L289,89L289,91L291,93L292,94L293,95L293,96L293,98L292,100L291,100L289,101L290,103L289,105L288,106L288,108L288,109L289,111Z " data-fips="SIA2" data-hasc="SI.KO.RD" data-name="Radlje ob Dravi" data-postal="RD" data-varname=""/><path d="M362,185L365,184L368,184L368,184L368,183L370,179L372,178L373,175L374,174L375,173L378,172L372,172L369,170L364,170L357,168L354,168L352,169L351,169L353,179L355,182L357,183L358,186L360,188Z " data-fips="SIA7" data-hasc="SI.SA.RS" data-name="Rogaka Slatina" data-postal="RS" data-varname=""/><path d="M383,183L383,183L386,177L381,173L378,172L375,173L374,174L373,175L372,178L370,179L368,183L368,184L368,184L380,185Z " data-fips="SIA8" data-hasc="SI.SA.RO" data-name="Rogatec" data-postal="RO" data-varname=""/><path d="M282,327L283,326L284,325L286,324L288,322L291,322L294,323L298,324L299,323L301,322L301,322L302,321L303,320L303,318L304,317L305,317L306,316L306,314L305,311L303,309L301,307L299,303L297,302L291,307L290,307L288,307L286,307L281,307L277,307L274,306L272,307L271,309L268,313L267,314L266,319L270,324L272,326L277,327Z " data-fips="SIB1" data-hasc="SI.DO.SM" data-name="Semic" data-postal="SM" data-varname=""/><path d="M174,189L175,188L172,182L171,180L171,175L172,172L172,171L173,170L174,168L175,167L167,170L165,172L163,178L162,181L162,183L163,184L166,190Z " data-fips="SIB2" data-hasc="SI.GO.SE" data-name="encur" data-postal="SE" data-varname=""/><path d="M366,85L367,84L367,82L368,80L369,78L370,77L371,78L373,78L375,78L376,79L377,81L378,82L379,83L379,84L380,85L382,85L383,84L385,82L385,81L385,80L386,79L386,77L387,76L387,72L384,70L384,69L379,71L375,71L363,70L360,68L360,72L360,75L358,77L358,80L362,85Z " data-fips="SIB3" data-hasc="SI.PD.SE" data-name="entilj" data-postal="SE" data-varname=""/><path d="M329,285L328,284L325,277L324,274L324,272L324,267L323,262L318,260L317,263L316,264L315,263L313,263L309,265L305,267L305,268L304,270L304,273L305,275L308,278L312,284L313,290L314,291Z " data-fips="SIB4" data-hasc="SI.DO.SN" data-name="entjernej" data-postal="SN" data-varname=""/><path d="M301,248L302,246L303,247L306,249L306,248L306,246L307,244L308,244L311,244L313,244L314,244L315,245L316,247L320,245L323,241L328,235L329,233L329,232L329,231L328,230L327,228L327,226L327,224L327,223L327,219L311,218L309,219L307,220L306,220L305,218L304,216L303,215L301,215L293,215L291,215L292,217L293,219L292,220L293,222L294,223L295,223L296,223L297,225L298,225L298,227L296,227L283,224L275,225L275,227L282,235L282,236L283,236L284,236L286,235L287,235L287,237L286,237L286,238L286,240L287,242L289,245L293,248L298,249Z " data-fips="SIB6" data-hasc="SI.PS.SE" data-name="Sevnica" data-postal="SE" data-varname=""/><path d="M313,263L315,263L316,264L317,263L318,260L316,259L317,257L317,253L316,247L315,245L314,244L313,244L311,244L308,244L307,244L306,246L306,248L306,249L303,247L302,246L301,248L298,249L303,255L305,256L307,257L308,259L309,260L309,261L309,263L309,265Z " data-fips="SIB8" data-hasc="SI.DO.SK" data-name="kocjan" data-postal="SK" data-varname=""/><path d="M195,258L195,257L196,255L195,250L196,243L195,241L195,239L195,237L196,236L197,236L194,230L190,230L187,230L186,231L186,233L189,240L190,244L190,247L189,252L190,253L191,255L191,256L194,258Z " data-fips="SIC1" data-hasc="SI.LJ.SK" data-name="kofljica" data-postal="SK" data-varname=""/><path d="M281,132L283,132L284,130L284,128L286,126L290,121L291,116L283,111L282,109L280,107L278,105L276,103L271,107L271,108L270,109L268,109L266,109L265,110L261,112L260,116L260,118L259,119L258,120L255,121L253,128L260,131L275,134L276,134L278,135Z " data-fips="SIC2" data-hasc="SI.KO" data-name="Koroka" data-postal="KO" data-varname=""/><path d="M349,166L348,162L347,157L346,154L345,153L343,153L333,151L332,151L328,148L325,152L324,151L323,151L322,152L321,153L318,159L319,161L320,162L323,164L340,169L342,168L348,170Z " data-fips="SIC4" data-hasc="SI.SA.SK" data-name="Slovenske Konjice" data-postal="SK" data-varname=""/><path d="M351,196L352,192L358,186L357,183L355,182L353,179L348,170L344,171L342,173L340,175L338,177L336,178L333,180L332,181L331,183L332,185L333,188L336,192L336,194L337,195L338,197L341,197L343,197L344,197L347,198Z " data-fips="SIC5" data-hasc="SI.SA.SJ" data-name="marje pri Jelah" data-postal="SJ" data-varname=""/><path d="M270,159L270,156L266,152L262,150L260,152L260,153L261,156L266,159L269,162Z " data-fips="SIC6" data-hasc="SI.SA.SP" data-name="martno ob Paki" data-postal="SP" data-varname=""/><path d="M271,148L273,145L274,142L260,131L253,128L253,131L251,133L244,138L245,143L250,142L252,143L254,143L256,143L258,143L259,143L260,144L262,150L266,152Z " data-fips="SIC7" data-hasc="SI.SA.SS" data-name="otanj" data-postal="SS" data-varname=""/><path d="M379,134L382,134L384,133L388,132L388,131L388,130L390,128L388,126L386,125L380,121L379,121L378,120L377,120L376,117L375,119L375,121L376,123L376,124L374,127L375,130L375,131L377,135Z " data-fips="SIC8" data-hasc="SI.PD" data-name="Podravska" data-postal="PD" data-varname=""/><path d="M318,192L318,186L319,185L318,183L313,181L311,182L310,182L309,184L309,188L310,189L308,192L308,193L307,194L306,195L310,196Z " data-fips="SIC9" data-hasc="SI.SA.ST" data-name="tore" data-postal="ST" data-varname=""/><path d="M277,212L276,210L274,208L273,207L272,205L271,203L271,201L271,199L274,196L276,194L278,191L273,191L263,190L260,188L262,192L261,193L259,194L259,195L260,195L262,198L265,202L265,204L265,206L264,206L262,207L264,210L266,211L269,212L276,216Z " data-fips="SIC9" data-hasc="SI.ZS.TR" data-name="Trbovlje" data-postal="TR" data-varname=""/><path d="M266,266L267,265L268,263L270,262L272,262L274,261L275,260L275,259L277,258L278,260L279,261L280,261L281,262L290,264L292,264L294,263L295,262L297,258L297,257L297,256L293,248L289,245L287,242L286,240L286,238L286,237L287,237L287,235L286,235L284,236L283,236L282,236L282,235L277,233L275,232L273,234L269,233L267,234L266,235L266,237L265,239L264,241L260,242L257,240L255,240L253,240L251,242L246,246L242,248L241,250L241,251L240,257L239,260L240,262L241,264L249,264L250,264L252,265L253,266L253,268L254,269L255,270L257,270L260,269L263,270L263,271L264,271Z " data-fips="SID4" data-hasc="SI.DO.TR" data-name="Trebnje" data-postal="TR" data-varname=""/><path d="M201,280L205,279L207,277L210,276L207,271L204,269L203,269L202,269L202,268L202,266L200,260L200,258L196,255L195,257L195,258L194,258L194,261L193,263L191,264L190,264L189,264L188,264L187,263L185,262L181,260L180,264L180,266L180,268L181,271L185,277L194,281Z " data-fips="SID4" data-hasc="SI.LJ.VL" data-name="Velike Lace" data-postal="VL" data-varname=""/><path d="M281,158L282,157L283,157L285,157L289,159L293,155L293,152L292,151L290,144L288,143L288,141L288,140L286,139L285,139L278,135L276,134L275,134L274,142L273,145L271,148L273,154L274,156L276,157L278,160Z " data-fips="SID7" data-hasc="SI.SA.VE" data-name="Velenje" data-postal="VE" data-varname=""/><path d="M317,144L317,142L316,141L315,140L314,139L312,135L312,134L313,132L313,131L312,130L307,130L305,131L303,132L302,133L300,139L297,143L316,146Z " data-fips="SIE2" data-hasc="SI.SA.VI" data-name="Vitanje" data-postal="VI" data-varname=""/><path d="M178,202L183,200L184,199L185,198L186,197L186,194L184,193L175,188L174,189L177,202Z " data-fips="SIE3" data-hasc="SI.LJ.VO" data-name="Vodice" data-postal="VO" data-varname=""/><path d="M158,261L157,259L154,251L154,249L154,247L154,244L155,243L160,238L160,235L161,233L162,232L164,231L164,230L164,228L162,226L159,227L158,229L151,232L150,232L146,233L145,234L144,235L143,235L140,233L139,232L140,231L139,229L132,232L133,232L137,235L135,236L135,239L135,241L134,242L134,243L135,245L136,245L137,245L138,246L142,250L146,255L148,260L150,259L152,260L159,264Z " data-fips="SIE5" data-hasc="SI.LJ.VR" data-name="Vrhnika" data-postal="VR" data-varname=""/><path d="M289,111L288,109L288,108L288,106L289,105L290,103L289,101L291,100L292,100L293,98L293,96L293,95L292,94L291,93L289,91L284,95L282,96L280,96L278,96L276,99L277,101L276,103L278,105L280,107L282,109L283,111Z " data-fips="SIE6" data-hasc="SI.KO.VU" data-name="Vuzenica" data-postal="VU" data-varname=""/><path d="M247,212L249,212L252,212L253,211L255,209L256,208L262,207L264,206L265,206L265,204L265,202L262,198L260,195L259,195L259,194L261,193L262,192L260,188L250,190L249,189L247,188L246,186L244,186L244,190L243,193L242,193L231,194L232,196L235,200L235,201L234,202L235,204L241,204L243,205L243,206L243,207L243,209L245,212L246,213Z " data-fips="SIE7" data-hasc="SI.ZS" data-name="Zasavska" data-postal="ZS" data-varname=""/><path d="M321,153L322,152L323,151L324,151L325,152L328,148L325,146L326,144L327,143L326,142L325,141L326,140L326,139L326,138L327,136L323,133L321,132L318,131L316,130L315,128L314,127L310,123L310,126L311,127L312,128L312,130L313,131L313,132L312,134L312,135L314,139L315,140L316,141L317,142L317,144L316,146L314,151L314,153L316,155Z " data-fips="SIF3" data-hasc="SI.SA.ZR" data-name="Zrece" data-postal="ZR" data-varname=""/><path d="M119,163L120,160L122,158L122,158L123,156L125,154L125,153L125,151L124,149L123,148L120,143L117,141L114,139L113,138L100,131L98,131L97,133L95,134L93,135L88,139L82,149L85,149L93,150L95,152L99,153L101,156L103,156L105,157L106,158L107,159L108,161L110,162L112,161L113,161L114,161L115,161L116,162L117,165Z " data-fips="SI03" data-hasc="SI.GO.BL" data-name="Bled" data-postal="BL" data-varname=""/><path d="M100,178L102,177L106,176L115,177L116,177L116,175L117,172L117,170L119,169L120,168L122,168L130,168L130,165L128,163L126,164L119,163L117,165L116,162L115,161L114,161L113,161L112,161L110,162L108,161L107,159L106,158L105,157L103,156L101,156L99,153L95,152L93,150L85,149L82,149L76,145L74,148L64,153L61,156L60,158L58,163L59,167L64,173L72,177L80,180L82,180L84,180Z " data-fips="SI04" data-hasc="SI.GO.BO" data-name="Bohinj" data-postal="BO" data-varname=""/><path d="M88,219L89,218L89,217L90,217L92,217L92,216L94,214L95,213L98,216L100,218L102,218L104,219L105,218L104,214L104,212L105,210L112,195L107,194L101,193L100,192L99,192L99,190L99,189L94,192L89,194L86,196L84,198L83,199L83,201L83,202L83,204L85,207L85,209L85,211L85,213L86,214L86,216L84,218L87,219Z " data-fips="SI14" data-hasc="SI.SP.CE" data-name="Cerkno" data-postal="CE" data-varname=""/><path d="M134,220L134,218L134,217L134,211L133,210L133,208L133,206L133,205L134,204L133,202L133,200L133,199L134,198L135,197L136,194L136,193L135,192L133,192L130,192L128,193L127,192L116,195L105,210L104,212L104,214L107,214L109,214L121,217L123,217L124,218L126,221L127,222Z " data-fips="SI32" data-hasc="SI.GO.GV" data-name="Gorenja Vas-Poljane" data-postal="GV" data-varname=""/><path d="M118,256L117,255L116,253L116,252L116,249L118,247L119,245L119,242L119,241L118,241L120,238L121,237L122,235L123,232L118,231L117,229L117,227L116,226L115,226L113,225L109,219L105,218L104,219L102,218L100,218L98,216L95,213L94,214L92,216L92,217L90,217L89,217L89,218L88,219L87,219L84,218L82,218L81,219L79,219L78,220L79,221L80,222L80,224L79,225L79,226L79,227L79,231L77,233L79,237L80,238L82,239L84,240L88,244L92,248L94,249L96,250L99,252L101,254L107,259Z " data-fips="SI36" data-hasc="SI.SP.ID" data-name="Idrija" data-postal="ID" data-varname=""/><path d="M166,194L166,190L163,184L162,183L162,181L163,178L165,172L167,170L163,167L161,167L160,166L160,165L159,164L161,164L163,163L163,162L164,159L158,153L157,154L155,155L154,156L153,161L152,162L152,163L151,165L151,167L154,170L154,171L154,174L153,175L148,172L145,170L138,171L137,170L130,168L132,172L134,175L136,176L141,178L145,180L145,181L145,182L144,183L144,184L145,185L155,189L157,189L159,189L159,191L159,192L160,192L161,192L162,193L167,195Z " data-fips="SI52" data-hasc="SI.GO.KR" data-name="Kranj" data-postal="KR" data-varname=""/><path d="M88,139L93,135L95,134L97,133L98,131L100,131L101,129L103,127L104,125L104,122L101,123L99,122L84,115L79,114L69,116L67,116L57,113L54,113L54,115L54,116L53,118L52,119L52,126L52,126L52,128L53,134L54,134L56,133L60,131L62,132L64,133L69,136L71,138L72,139L73,141L76,145Z " data-fips="SI53" data-hasc="SI.GO.KG" data-name="Kranjska Gora" data-postal="KG" data-varname=""/><path d="M154,174L154,171L154,170L151,167L151,165L152,163L152,162L153,161L148,160L147,159L143,165L144,167L145,170L148,172L153,175Z " data-fips="SI62" data-hasc="SI.GO.NA" data-name="Naklo" data-postal="NA" data-varname=""/><path d="M145,170L144,167L143,165L142,158L142,156L142,155L141,154L141,152L142,144L141,138L139,136L137,137L135,138L133,141L132,143L132,145L130,146L128,146L127,146L123,148L124,149L125,151L125,153L125,154L123,156L122,158L122,158L120,160L119,163L126,164L128,163L130,165L130,168L137,170L138,171Z " data-fips="SIA3" data-hasc="SI.GO" data-name="Gorenjska" data-postal="GO" data-varname=""/><path d="M138,211L143,209L153,208L153,206L153,205L155,203L158,200L160,200L161,199L162,198L162,193L161,192L160,192L159,192L159,191L159,189L157,189L155,189L145,185L144,184L144,183L145,182L145,181L145,180L141,178L140,180L138,181L138,185L137,186L135,186L132,188L131,189L128,190L127,192L128,193L130,192L133,192L135,192L136,193L136,194L135,197L134,198L133,199L133,200L133,202L134,204L133,205L133,206L133,208L133,210L134,211Z " data-fips="SIB9" data-hasc="SI.GO.SL" data-name="kofja Loka" data-postal="SL" data-varname=""/><path d="M79,227L79,226L79,225L80,224L80,222L79,221L78,220L79,219L81,219L82,218L84,218L86,216L86,214L85,213L85,211L85,209L85,207L83,204L83,202L83,201L83,199L84,198L86,196L89,194L94,192L99,189L102,183L102,181L100,178L84,180L82,180L80,180L72,177L64,173L59,167L58,167L56,167L55,169L54,171L52,175L52,178L51,179L48,179L47,179L44,181L43,180L42,181L41,182L41,184L41,186L43,189L41,191L43,191L43,193L44,193L48,192L50,197L51,199L52,201L53,202L54,203L64,209L66,208L68,208L69,209L70,214L70,216L70,219L70,221L72,225L73,227L75,229L79,231Z " data-fips="SID2" data-hasc="SI.SP.TO" data-name="Tolmin" data-postal="TO" data-varname=""/><path d="M154,156L155,155L157,154L158,153L166,150L166,148L168,145L168,143L170,138L171,137L168,136L167,135L167,134L166,133L164,132L159,133L140,133L139,136L141,138L142,144L141,152L141,154L142,155L142,156L142,158L147,159L148,160Z " data-fips="SID5" data-hasc="SI.GO.TR" data-name="Tric" data-postal="TR" data-varname=""/><path d="M116,195L127,192L128,190L131,189L132,188L135,186L137,186L138,185L138,181L140,180L141,178L136,176L134,175L132,172L122,168L120,168L119,169L117,170L117,172L116,175L116,177L115,177L106,176L102,177L100,178L102,181L102,183L99,189L99,190L99,192L100,192L101,193L107,194L112,195Z " data-fips="SIF1" data-hasc="SI.GO.ZE" data-name="elezniki" data-postal="ZE" data-varname=""/><path d="M128,229L127,222L126,221L124,218L123,217L121,217L109,214L107,214L109,219L113,225L115,226L116,226L117,227L117,229L118,231L123,232Z " data-fips="SIF2" data-hasc="SI.GO.ZI" data-name="iri" data-postal="ZI" data-varname=""/><path d="M82,273L83,270L85,268L87,266L89,265L93,262L96,262L98,261L100,262L101,263L102,264L103,267L103,268L115,268L120,264L107,259L101,254L99,252L96,250L94,249L92,248L88,244L84,240L82,239L80,238L79,237L77,233L75,235L75,237L68,242L64,249L61,253L60,253L57,254L58,255L60,256L61,258L63,259L66,262L67,263L67,264L68,266L71,268L73,271L78,273Z " data-fips="SI01" data-hasc="SI.SP.AJ" data-name="Ajdovcina" data-postal="AJ" data-varname=""/><path d="M26,168L26,166L26,165L27,164L30,163L35,163L42,163L46,164L49,165L58,163L60,158L61,156L64,153L74,148L76,145L73,141L72,139L71,138L69,136L64,133L62,132L60,131L56,133L54,134L53,134L52,128L52,126L52,126L50,129L47,130L43,130L38,131L34,134L31,139L27,143L19,147L15,149L13,150L11,151L9,153L7,157L5,161L5,161L6,162L9,164L11,165L13,166L18,167L24,168Z " data-fips="SI06" data-hasc="SI.SP.BO" data-name="Bovec" data-postal="BO" data-varname=""/><path d="M27,239L32,237L37,236L38,235L41,233L37,230L34,226L32,224L31,221L30,219L28,217L26,216L24,215L21,218L18,222L19,223L19,225L19,226L18,228L17,228L14,231L16,233L17,235L22,240Z " data-fips="SI07" data-hasc="SI.SP.BR" data-name="Brda" data-postal="BR" data-varname=""/><path d="M110,325L111,325L112,323L114,322L114,320L112,319L113,317L112,315L111,313L111,312L111,309L110,307L110,306L110,304L111,302L113,301L115,299L113,295L111,293L102,286L100,286L98,287L96,291L94,292L93,293L93,295L93,297L94,299L94,301L94,303L89,309L90,311L90,315L92,317L95,318L97,319L100,321L103,323L106,325L109,326Z " data-fips="SI19" data-hasc="SI.JP.DI" data-name="Divaca" data-postal="DI" data-varname=""/><path d="M118,353L118,350L117,348L117,347L114,345L114,341L116,337L116,335L116,333L115,333L114,332L114,331L114,329L115,327L116,325L114,322L112,323L111,325L110,325L109,326L106,325L103,323L100,321L97,319L95,318L92,317L90,315L85,315L82,317L82,318L81,321L78,325L78,325L79,326L80,332L81,333L82,334L85,336L92,338L97,344L97,346L101,347L104,348L106,350L110,353L114,354L118,355Z " data-fips="SI35" data-hasc="SI.JP.HK" data-name="Hrpelje-Kozina" data-postal="HK" data-varname=""/><path d="M44,350L47,343L47,337L37,339L37,340L38,343L38,344L38,346L40,348L41,350L42,350Z " data-fips="SI40" data-hasc="SI.JP.IZ" data-name="Izola" data-postal="IZ" data-varname=""/><path d="M43,232L43,230L40,227L42,225L45,220L47,218L50,217L53,218L58,219L59,219L61,218L62,215L63,214L64,209L54,203L53,202L52,201L51,199L50,197L48,192L44,193L43,193L44,195L39,204L24,215L26,216L28,217L30,219L31,221L32,224L34,226L37,230L39,230L40,231L42,232Z " data-fips="SI44" data-hasc="SI.SP.KA" data-name="Kanal" data-postal="KA" data-varname=""/><path d="M43,189L41,186L41,184L41,182L42,181L43,180L44,181L47,179L48,179L51,179L52,178L52,175L54,171L55,169L56,167L58,167L59,167L58,163L49,165L46,164L42,163L35,163L30,163L27,164L26,165L26,166L26,168L24,168L18,167L13,166L11,165L9,164L6,162L5,161L5,161L4,162L0,165L1,167L2,170L3,176L5,179L5,182L7,184L11,183L9,179L11,180L16,181L18,182L23,183L26,185L30,190L34,191L39,190L41,191Z " data-fips="SI46" data-hasc="SI.SP.KO" data-name="Kobarid" data-postal="KO" data-varname=""/><path d="M52,285L53,283L56,281L57,281L60,281L76,279L84,277L82,273L78,273L73,271L70,269L68,270L65,270L62,269L53,264L53,268L52,269L51,270L49,271L47,273L44,274L34,274L32,274L33,276L37,279L43,280L45,280L52,286Z " data-fips="SI49" data-hasc="SI.JP.KM" data-name="Komen" data-postal="KM" data-varname=""/><path d="M83,364L84,362L87,360L94,357L96,354L93,350L93,347L93,346L95,345L97,346L97,344L92,338L85,336L82,334L81,333L80,332L79,326L78,325L78,325L76,327L75,329L67,329L61,326L53,326L55,329L58,332L59,334L59,336L47,337L47,343L49,348L50,349L49,350L47,352L46,354L45,355L44,355L44,357L60,356L68,361L70,364L72,364L82,365Z " data-fips="SI50" data-hasc="SI.JP.KP" data-name="Koper" data-postal="KP" data-varname="Capodistria"/><path d="M34,274L44,274L47,273L49,271L51,270L52,269L53,268L53,264L49,263L46,263L42,262L41,260L39,259L40,258L41,257L44,256L38,255L36,253L36,253L31,264L30,271L32,274Z " data-fips="SIJ5" data-hasc="SI.SP.MK" data-name="Miren-Kostanjevica" data-postal="MK" data-varname=""/><path d="M44,357L44,355L45,355L46,354L47,352L49,350L50,349L49,348L44,350L42,350L41,350L40,348L38,346L38,344L38,343L37,340L37,339L33,339L30,338L30,341L31,342L32,343L34,343L34,345L33,347L33,349L33,350L39,357Z " data-fips="SIJ9" data-hasc="SI.JP.PI" data-name="Piran" data-postal="PI" data-varname="Pirano"/><path d="M85,315L90,315L90,311L89,309L94,303L94,301L94,299L93,297L93,295L93,293L94,292L96,291L98,287L97,286L89,281L84,277L76,279L60,281L57,281L56,281L53,283L52,285L52,286L53,287L64,292L77,314L78,316L81,317L82,317Z " data-fips="SIB7" data-hasc="SI.JP.SE" data-name="Seana" data-postal="SE" data-varname=""/><path d="M100,286L102,286L107,286L108,284L108,280L109,277L103,268L103,267L102,264L101,263L100,262L98,261L96,262L93,262L89,265L87,266L85,268L83,270L82,273L84,277L89,281L97,286L98,287Z " data-fips="SIE1" data-hasc="SI.SP.VI" data-name="Vipava" data-postal="VI" data-varname=""/><path d="M460,101L460,99L459,98L460,96L460,95L461,94L465,90L463,87L463,85L463,84L463,81L462,81L460,82L450,87L448,88L447,91L450,96L457,104Z " data-fips="SI02" data-hasc="SI.PM.BE" data-name="Beltinci" data-postal="BE" data-varname=""/><path d="M417,135L418,134L421,132L425,129L425,125L422,120L420,124L419,125L418,127L415,130L411,129L410,136Z " data-fips="SI24" data-hasc="SI.PD.DO" data-name="Dornava" data-postal="DO" data-varname=""/><path d="M419,165L422,164L425,161L427,159L426,156L425,153L424,151L424,150L424,149L425,145L428,143L429,139L427,135L421,132L418,134L417,135L417,140L417,142L418,145L419,146L417,148L415,149L414,149L414,152L415,154L415,155L415,157L417,165L418,166L418,166Z " data-fips="SI28" data-hasc="SI.PD.GO" data-name="Gorinica" data-postal="GO" data-varname=""/><path d="M418,127L419,125L420,124L422,120L421,116L416,113L414,114L412,115L411,116L410,117L410,121L410,122L410,127L411,129L415,130Z " data-fips="SI42" data-hasc="SI.PD.DO" data-name="Dornava" data-postal="DO" data-varname=""/><path d="M483,78L483,78L482,73L479,72L475,71L475,71L474,74L475,76L477,77L480,79L481,79Z " data-fips="SI47" data-hasc="SI.PM.KO" data-name="Kobilje" data-postal="KO" data-varname=""/><path d="M462,81L463,81L468,80L470,76L471,74L472,73L474,74L475,71L475,71L474,71L474,67L472,67L470,66L469,63L467,61L465,54L465,52L464,53L455,57L454,58L453,60L452,61L448,65L446,66L446,72L448,76L448,77L449,79L450,79L454,81L460,82Z " data-fips="SI78" data-hasc="SI.PM.MT" data-name="Moravske Toplice" data-postal="MT" data-varname=""/><path d="M448,88L450,87L454,81L450,79L449,79L448,77L448,76L446,72L442,73L441,73L435,73L434,77L434,78L435,80L436,81L437,83L437,84L437,86L437,90L447,91Z " data-fips="SI80" data-hasc="SI.PM" data-name="Pomurska" data-postal="PM" data-varname=""/><path d="M462,99L464,99L466,96L461,94L460,95L460,96L459,98L460,99L460,101Z " data-fips="SI86" data-hasc="SI.PM.OD" data-name="Odranci" data-postal="OD" data-varname=""/><path d="M453,147L459,146L463,146L463,145L463,143L462,142L460,140L459,139L458,137L458,133L458,131L456,125L455,122L456,120L454,121L454,123L452,122L451,123L449,121L448,120L446,118L443,119L442,120L440,120L436,118L429,117L427,116L421,116L422,120L425,125L425,129L427,135L429,139L433,146L434,147L436,146L437,145L438,143L440,142L442,141L443,142L447,146L449,147L452,148Z " data-fips="SI87" data-hasc="SI.PD.OR" data-name="Ormo" data-postal="OR" data-varname=""/><path d="M423,111L423,110L424,108L425,108L431,108L432,103L433,101L430,97L429,96L428,94L427,93L426,93L424,95L423,96L420,96L413,102L416,107L423,113Z " data-fips="SID1" data-hasc="SI.PM.SJ" data-name="Sveti Jurij" data-postal="SJ" data-varname=""/><path d="M471,95L472,94L473,93L476,94L473,90L463,84L463,85L463,87L465,90L470,97Z " data-fips="SID6" data-hasc="SI.PM.TU" data-name="Turnice" data-postal="TU" data-varname=""/><path d="M427,159L428,156L428,153L428,150L428,146L431,146L433,146L428,143L425,145L424,149L424,150L424,151L425,153L426,156L427,159Z " data-fips="SIE9" data-hasc="SI.PD.ZA" data-name="Zavrc" data-postal="ZA" data-varname=""/></g></svg>