<?xml version="1.0" ?><!DOCTYPE svg  PUBLIC '-//W3C//DTD SVG 1.1//EN'  'http://www.w3.org/Graphics/SVG/1.1/DTD/svg11.dtd'><svg enable_background="new 0 0 500 401" height="401px" style="stroke-linejoin: round; stroke:#000; fill:#f6f3f0;" version="1.1" viewBox="0 0 500 401" width="500px" xmlns="http://www.w3.org/2000/svg" xmlns:xlink="http://www.w3.org/1999/xlink"><defs><style type="text/css"><![CDATA[path { fill-rule: evenodd; }
#context path { fill: #eee; stroke: #bbb; } ]]></style></defs><metadata><views><view h="401" padding="0" w="500"><proj id="laea" lat0="41.143" lon0="20.068"/><bbox h="37.25" w="16.38" x="992.69" y="981.33"/><llbbox lat0="-90" lat1="90" lon0="-180" lon1="180"/></view></views></metadata><g id="admin1"><path d="M195,183L197,181L198,180L198,178L198,177L198,175L199,173L198,171L197,170L196,169L196,167L196,160L199,159L201,160L202,159L203,158L204,159L204,161L205,163L206,164L207,165L209,165L210,164L213,162L217,161L217,160L218,159L219,160L221,160L222,158L223,157L225,154L225,153L225,151L221,148L214,143L213,142L212,141L211,141L211,142L210,143L209,144L206,145L204,145L203,145L202,144L200,143L198,141L196,142L194,143L193,144L190,142L187,142L179,141L180,143L181,145L183,147L184,147L185,148L186,149L186,151L185,154L183,157L181,159L178,160L179,164L177,166L175,166L174,164L174,165L175,167L176,168L176,173L176,176L177,177L179,178L181,178L183,178L184,180L186,182L186,184L188,184L191,185L193,186Z " data-fips="AL42" data-hasc="AL.DU" data-name="Durrs" data-postal="DU" data-varname="Durresi|Durrsi|Durazzo"/><path d="M213,295L216,289L217,288L220,285L221,285L221,284L222,282L223,282L224,281L223,279L222,278L221,278L219,276L218,274L216,270L215,269L216,268L217,267L217,266L217,265L214,262L213,258L211,258L210,257L209,256L209,254L210,252L209,250L208,248L207,247L207,245L207,244L210,244L210,243L211,242L211,241L211,239L212,238L214,238L216,238L216,239L217,239L221,238L221,237L221,236L216,235L215,234L214,231L214,230L214,227L214,223L215,221L215,219L213,218L212,218L211,217L210,217L206,217L204,217L202,216L202,215L201,213L201,210L200,210L198,211L197,210L196,210L194,210L193,210L192,211L190,212L188,213L186,212L185,213L184,214L183,214L182,212L181,212L181,214L180,215L179,217L179,218L181,219L182,222L181,224L180,226L179,227L179,229L182,225L183,222L184,218L184,221L185,223L186,226L186,229L185,231L179,234L178,236L178,234L177,236L177,233L177,230L177,227L178,225L176,227L174,229L173,230L172,231L173,232L174,234L175,236L174,237L174,238L173,240L174,241L174,242L173,243L172,243L171,245L170,247L170,255L170,257L169,259L168,260L166,262L165,263L164,264L167,264L168,264L170,264L171,264L173,265L175,266L176,266L179,265L179,266L180,267L181,268L181,269L182,270L183,270L184,271L186,272L187,273L188,274L189,274L190,274L191,275L192,277L194,277L195,278L197,278L200,280L202,280L203,281L204,281L205,281L206,283L206,285L206,286L207,286L208,288L207,290L208,292L207,293L208,294L209,295L210,295L211,295L213,295Z " data-fips="AL44" data-hasc="AL.FI" data-name="Fier" data-postal="FI" data-varname=""/><path d="M187,107L181,102L181,100L181,99L183,98L184,98L188,100L189,101L191,101L192,99L192,97L191,95L192,94L193,94L194,95L196,95L197,96L196,97L197,98L198,98L202,98L204,98L205,100L208,100L209,99L209,97L208,95L211,95L214,94L215,95L218,95L219,95L220,94L221,93L221,92L223,91L224,91L225,92L225,93L226,96L228,98L228,100L227,101L228,102L229,103L233,103L234,103L236,100L236,99L238,97L240,96L241,96L242,94L243,92L243,91L245,90L251,87L255,83L253,81L252,80L250,79L249,80L248,80L249,78L250,75L249,74L250,73L252,69L253,68L254,68L255,67L257,65L258,63L257,61L253,60L252,59L251,58L249,58L238,53L236,52L234,52L232,54L227,53L225,54L223,56L222,56L221,57L219,57L217,56L217,54L217,53L217,51L217,50L217,48L216,44L215,42L215,40L215,39L215,36L215,34L213,31L215,30L215,28L216,27L217,26L217,25L216,25L215,25L213,24L210,21L208,17L208,15L208,12L209,11L209,10L209,7L208,4L207,1L205,0L202,1L201,3L200,4L197,7L195,9L195,11L194,14L194,16L193,17L191,18L190,19L189,21L188,24L187,26L185,28L183,29L182,31L177,38L175,41L175,43L166,58L164,60L163,61L163,62L164,65L165,66L171,70L172,73L173,74L171,78L170,80L170,83L170,85L171,87L172,88L171,91L170,91L170,94L170,96L170,98L170,99L171,100L171,101L171,104L171,106L178,104L180,105L181,106L188,108Z " data-fips="AL49" data-hasc="AL.SD" data-name="Shkodr" data-postal="SD" data-varname="Esctari|Shkodra|Skod|Scutari"/><path d="M272,110L273,109L274,108L274,107L275,107L277,107L283,108L285,108L287,107L287,105L290,102L289,100L290,98L291,97L292,96L293,93L293,92L292,90L292,87L289,79L288,77L288,73L288,70L287,67L283,59L281,56L280,55L279,53L267,45L265,44L258,45L257,44L256,43L255,40L256,39L255,37L253,35L253,34L254,32L254,31L253,30L252,28L249,21L247,19L242,17L240,14L238,13L236,14L232,19L230,20L225,20L222,21L222,22L217,25L217,26L216,27L215,28L215,30L213,31L215,34L215,36L215,39L215,40L215,42L216,44L217,48L217,50L217,51L217,53L217,54L217,56L219,57L221,57L222,56L223,56L225,54L227,53L232,54L234,52L236,52L238,53L249,58L251,58L252,59L253,60L257,61L258,63L257,65L255,67L254,68L253,68L252,69L250,73L249,74L250,75L249,78L248,80L249,80L250,79L252,80L253,81L255,83L258,83L259,85L260,88L260,89L260,91L260,92L260,93L259,94L257,96L256,97L256,98L255,102L255,103L256,104L257,104L259,104L260,103L261,102L262,101L263,100L265,101L266,103L269,107L269,109L269,110Z " data-fips="AL47" data-hasc="AL.KK" data-name="Kuks" data-postal="KK" data-varname="Kosova|Kossovo"/><path d="M254,399L254,397L254,396L256,395L258,395L259,396L259,393L261,391L262,390L264,388L264,387L263,386L263,384L262,382L263,380L262,379L261,378L263,377L264,377L264,376L263,375L263,371L262,370L261,369L259,369L258,369L258,366L257,365L256,364L256,363L255,362L254,358L252,357L250,355L249,354L248,354L246,352L238,345L236,344L234,343L232,343L230,344L228,343L228,342L225,337L225,335L223,332L223,331L222,330L221,325L217,322L217,321L218,320L217,318L217,317L216,316L216,314L217,313L215,313L215,312L213,309L209,306L210,305L212,303L212,302L213,301L213,299L213,298L211,295L210,295L209,295L208,294L207,293L208,292L207,290L208,288L207,286L206,286L206,285L206,283L205,281L204,281L203,281L202,280L200,280L197,278L195,278L194,277L192,277L191,275L190,274L189,274L188,274L187,273L186,272L184,271L183,270L182,270L181,269L181,268L180,267L179,266L179,265L176,266L175,266L173,265L171,264L170,264L168,264L167,264L164,264L165,266L171,276L172,278L173,274L175,274L178,275L179,278L179,281L178,283L177,284L175,282L173,282L173,281L173,280L172,279L173,282L175,286L179,289L181,291L182,293L181,305L180,306L178,307L176,307L175,307L175,305L174,303L173,300L172,298L168,294L167,293L165,293L162,295L163,296L164,298L168,301L168,303L170,309L170,310L171,312L181,323L184,325L190,327L193,330L199,333L205,336L207,336L208,338L208,340L210,341L211,342L211,341L214,343L213,343L214,344L216,344L219,344L220,345L221,346L221,348L226,357L228,359L227,360L226,361L224,363L225,364L227,364L228,364L230,366L230,367L232,368L234,368L235,369L235,372L235,373L233,380L232,384L234,384L232,388L232,391L233,392L234,392L235,390L239,392L243,393L247,395L250,398L252,399Z " data-fips="AL51" data-hasc="AL.VR" data-name="Vlor" data-postal="VR" data-varname="Vlona|Vlora|Vlon|Valona"/><path d="M299,338L300,337L301,333L301,329L300,328L301,326L303,326L304,322L304,320L304,317L304,314L305,313L306,312L307,311L308,310L310,306L311,304L311,303L312,301L312,300L311,296L311,295L312,294L314,294L315,293L316,292L316,290L317,289L318,288L321,288L323,289L325,290L328,288L329,287L330,285L329,284L330,283L331,282L332,281L333,280L334,279L335,279L336,278L336,277L336,276L336,274L336,273L337,268L338,266L338,263L337,261L336,259L333,256L330,253L330,252L330,251L329,250L328,249L330,247L331,245L330,238L330,235L329,232L328,231L323,229L317,229L315,229L312,232L310,233L308,232L307,231L305,230L304,227L302,219L300,211L299,209L298,208L297,208L295,208L294,208L293,208L293,210L294,213L294,215L293,216L292,216L287,215L286,215L282,218L281,218L277,219L276,220L275,222L275,223L275,225L274,228L272,229L273,232L274,234L277,238L278,239L281,245L279,248L278,250L277,251L275,252L268,253L264,254L264,257L265,258L267,263L268,265L270,269L270,270L271,271L272,272L273,272L275,273L276,273L277,274L277,275L277,277L276,278L276,280L276,281L277,282L277,283L277,284L277,290L278,293L280,293L279,295L278,296L278,297L278,298L280,300L281,301L281,302L281,304L280,308L280,309L283,315L284,316L285,316L284,318L284,320L284,321L286,328L287,330L288,331L292,336L294,338L296,340Z " data-fips="AL46" data-hasc="AL.KE" data-name="Kor" data-postal="KE" data-varname="Coriza|Corizza|Koritsa|Koritza|Kora|Kortscha"/><path d="M264,302L265,301L266,300L269,299L270,299L271,298L271,297L271,296L271,295L272,293L274,293L278,293L277,290L277,284L277,283L277,282L276,281L276,280L276,278L277,277L277,275L277,274L276,273L275,273L273,272L272,272L271,271L270,270L270,269L268,265L267,263L265,258L264,257L259,256L256,256L255,256L255,255L253,254L251,254L248,253L249,251L247,250L245,250L244,249L243,248L241,244L240,243L239,243L237,242L236,242L235,241L235,240L235,239L235,236L235,235L233,235L231,236L223,235L221,236L221,237L221,238L217,239L216,239L216,238L214,238L212,238L211,239L211,241L211,242L210,243L210,244L207,244L207,245L207,247L208,248L209,250L210,252L209,254L209,256L210,257L211,258L213,258L214,262L217,265L217,266L217,267L216,268L215,269L216,270L218,274L219,276L221,278L222,278L223,279L224,281L227,283L230,284L232,284L236,286L239,286L240,286L241,286L241,285L243,285L244,286L245,288L246,288L248,288L249,289L252,293L259,302L260,303L261,303L264,304Z " data-fips="AL40" data-hasc="AL.BE" data-name="Berat" data-postal="BE" data-varname=""/><path d="M259,256L264,254L268,253L275,252L277,251L278,250L279,248L281,245L278,239L277,238L274,234L273,232L272,229L274,228L275,225L275,223L275,222L276,220L277,219L281,218L282,218L286,215L287,215L292,216L293,216L294,215L294,213L293,210L293,208L291,206L291,205L291,202L290,199L288,196L285,191L284,188L282,180L281,176L281,176L279,173L279,172L278,170L278,169L278,168L276,168L275,168L273,168L272,168L271,168L269,169L267,170L266,170L265,169L263,169L262,170L260,171L259,172L258,173L257,175L256,176L251,177L250,178L247,180L246,183L243,183L241,185L240,185L239,185L237,185L236,187L235,189L231,193L227,195L224,196L220,198L217,200L218,201L218,202L217,202L215,203L212,202L209,203L208,204L207,205L205,206L204,207L204,209L204,210L204,211L203,212L201,213L202,215L202,216L204,217L206,217L210,217L211,217L212,218L213,218L215,219L215,221L214,223L214,227L214,230L214,231L215,234L216,235L221,236L223,235L231,236L233,235L235,235L235,236L235,239L235,240L235,241L236,242L237,242L239,243L240,243L241,244L243,248L244,249L245,250L247,250L249,251L248,253L251,254L253,254L255,255L255,256L256,256Z " data-fips="AL43" data-hasc="AL.EB" data-name="Elbasan" data-postal="EB" data-varname=""/><path d="M273,378L274,375L274,373L269,365L266,362L264,354L264,353L265,352L270,352L272,352L272,349L273,347L274,345L276,343L277,343L281,343L282,342L284,341L290,342L292,342L296,340L294,338L292,336L288,331L287,330L286,328L284,321L284,320L284,318L285,316L284,316L283,315L280,309L280,308L281,304L281,302L281,301L280,300L278,298L278,297L278,296L279,295L280,293L278,293L274,293L272,293L271,295L271,296L271,297L271,298L270,299L269,299L266,300L265,301L264,302L264,304L261,303L260,303L259,302L252,293L249,289L248,288L246,288L245,288L244,286L243,285L241,285L241,286L240,286L239,286L236,286L232,284L230,284L227,283L224,281L223,282L222,282L221,284L221,285L220,285L217,288L216,289L213,295L213,295L211,295L213,298L213,299L213,301L212,302L212,303L210,305L209,306L213,309L215,312L215,313L217,313L216,314L216,316L217,317L217,318L218,320L217,321L217,322L221,325L222,330L223,331L223,332L225,335L225,337L228,342L228,343L230,344L232,343L234,343L236,344L238,345L246,352L248,354L249,354L250,355L252,357L254,358L255,362L256,363L256,364L257,365L258,366L258,369L259,369L261,369L262,370L263,371L263,375L264,376L264,377L268,378L270,379L271,379Z " data-fips="AL45" data-hasc="AL.GK" data-name="Gjirokastr" data-postal="GK" data-varname="Gjinokastr|Argirocastro|Argyrocastro|Argyrokastron"/><path d="M282,174L283,174L284,173L286,172L287,170L287,168L287,165L287,164L285,162L283,162L282,160L282,158L282,157L280,155L280,154L279,154L278,152L278,148L278,146L283,145L284,144L285,144L286,143L287,141L287,140L285,134L284,131L283,122L283,120L284,118L285,117L288,115L288,113L288,111L287,107L285,108L283,108L277,107L275,107L274,107L274,108L273,109L272,110L269,110L269,109L269,107L266,103L265,101L263,100L262,101L261,102L260,103L259,104L257,104L256,104L255,103L255,102L254,102L253,105L252,105L250,107L249,108L248,108L247,109L246,109L245,110L250,113L250,114L250,117L249,118L240,122L239,123L238,125L236,126L233,126L231,126L230,127L230,128L229,129L227,128L226,127L225,126L223,127L221,127L220,127L218,127L217,126L215,125L215,128L215,133L215,135L215,136L217,139L217,141L221,148L225,151L227,152L228,153L230,155L232,158L233,160L233,161L234,162L236,164L237,165L238,166L239,167L240,167L242,166L245,166L248,170L250,171L258,173L259,172L260,171L262,170L263,169L265,169L266,170L267,170L269,169L271,168L272,168L273,168L275,168L276,168L278,168L278,169L278,170L279,172L279,173L281,176L281,176Z " data-fips="AL41" data-hasc="AL.DB" data-name="Dibr" data-postal="DB" data-varname="Dibra| Dibr"/><path d="M206,145L209,144L210,143L211,142L211,141L212,141L213,142L214,143L217,141L217,139L215,136L215,135L215,133L215,128L215,125L217,126L218,127L220,127L221,127L223,127L225,126L226,127L227,128L229,129L230,128L230,127L231,126L233,126L236,126L238,125L239,123L240,122L249,118L250,117L250,114L250,113L245,110L246,109L247,109L248,108L249,108L250,107L252,105L253,105L254,102L256,98L256,97L257,96L259,94L260,93L260,92L260,91L260,89L260,88L259,85L258,83L255,83L251,87L245,90L243,91L243,92L242,94L241,96L240,96L238,97L236,99L236,100L234,103L233,103L229,103L228,102L227,101L228,100L228,98L226,96L225,93L225,92L224,91L223,91L221,92L221,93L220,94L219,95L218,95L215,95L214,94L211,95L208,95L209,97L209,99L208,100L205,100L204,98L202,98L198,98L197,98L196,97L197,96L196,95L194,95L193,94L192,94L191,95L192,97L192,99L191,101L189,101L188,100L184,98L183,98L181,99L181,100L181,102L187,107L188,108L194,110L194,113L194,116L193,118L192,117L192,119L192,124L192,128L190,131L193,134L194,135L194,134L195,135L196,139L195,139L194,138L193,137L190,142L193,144L194,143L196,142L198,141L200,143L202,144L203,145L204,145Z " data-fips="AL48" data-hasc="AL.LZ" data-name="Lezh" data-postal="LZ" data-varname="Alessio|Lezha"/><path d="M180,215L181,214L181,212L182,212L183,214L184,214L185,213L186,212L188,213L190,212L192,211L193,210L194,210L196,210L197,210L198,211L200,210L201,210L203,212L204,211L204,210L204,209L204,207L205,206L207,205L208,204L209,203L212,202L215,203L217,202L218,202L218,201L217,200L220,198L224,196L227,195L231,193L235,189L236,187L237,185L239,185L240,185L241,185L243,183L246,183L247,180L250,178L251,177L256,176L257,175L250,171L248,170L245,166L242,166L240,167L239,167L238,166L237,165L236,164L234,162L233,161L233,160L232,158L230,155L228,153L227,152L225,151L225,153L225,154L223,157L222,158L221,160L219,160L218,159L217,160L217,161L213,162L210,164L209,165L207,165L206,164L205,163L204,161L204,159L203,158L202,159L201,160L199,159L196,160L196,167L196,169L197,170L198,171L199,173L198,175L198,177L198,178L198,180L197,181L195,183L193,186L191,185L188,184L186,184L186,185L185,187L181,194L181,195L181,197L180,199L178,200L179,202L179,202L180,205L179,215L178,216L179,217Z " data-fips="AL50" data-hasc="AL.DU" data-name="Durrs" data-postal="DU" data-varname="Durresi|Durrsi|Durazzo"/></g></svg>