<?xml version="1.0" ?><!DOCTYPE svg  PUBLIC '-//W3C//DTD SVG 1.1//EN'  'http://www.w3.org/Graphics/SVG/1.1/DTD/svg11.dtd'><svg enable_background="new 0 0 500 401" height="401px" style="stroke-linejoin: round; stroke:#000; fill:#f6f3f0;" version="1.1" viewBox="0 0 500 401" width="500px" xmlns="http://www.w3.org/2000/svg" xmlns:xlink="http://www.w3.org/1999/xlink"><defs><style type="text/css"><![CDATA[path { fill-rule: evenodd; }
#context path { fill: #eee; stroke: #bbb; } ]]></style></defs><metadata><views><view h="401" padding="0" w="500"><proj id="laea" lat0="47.683" lon0="14.912"/><bbox h="32.46" w="63.57" x="954.89" y="983.62"/><llbbox lat0="-90" lat1="90" lon0="-180" lon1="180"/></view></views></metadata><g id="admin1"><path d="M37,272L36,269L35,266L35,264L36,263L37,262L38,262L38,260L38,259L38,258L38,256L38,255L38,254L39,250L40,248L43,244L44,242L44,238L44,234L43,231L42,230L43,229L44,229L44,228L44,227L46,223L46,221L45,221L42,221L41,222L40,222L38,222L37,222L37,221L37,220L36,219L36,218L37,217L38,216L37,214L34,209L33,210L32,210L32,209L31,207L30,207L30,206L30,204L29,205L28,205L26,204L24,204L22,204L21,203L21,202L21,201L21,200L20,199L18,199L17,199L16,201L15,202L14,204L12,205L8,204L4,203L4,205L6,208L8,210L10,211L9,215L9,217L6,221L5,223L2,226L0,229L1,230L2,231L1,233L2,234L2,236L1,239L3,240L5,242L5,245L5,247L3,249L4,250L7,250L8,250L21,255L20,256L21,256L21,258L21,260L20,262L21,263L23,265L30,267L32,270L33,271L37,272Z " data-fips="AU08" data-hasc="AT.VO" data-name="Vorarlberg" data-postal="VO" data-varname=""/><path d="M429,282L433,280L434,279L435,278L437,275L438,274L440,273L441,272L442,271L442,270L443,269L444,268L444,267L446,266L448,266L451,266L452,266L454,267L455,267L456,266L458,266L459,266L459,265L457,264L455,264L456,263L459,262L460,261L459,260L457,259L457,258L457,257L459,256L460,254L460,252L459,251L458,251L456,252L455,251L456,250L455,248L454,248L454,246L454,244L454,242L456,241L457,240L458,239L457,237L455,233L454,232L455,231L455,227L456,226L457,227L458,228L465,224L468,222L468,218L469,217L471,216L471,215L471,213L471,212L470,211L469,211L469,209L468,207L467,205L466,205L464,205L459,203L457,204L454,202L453,201L454,200L455,199L456,199L457,199L459,197L460,196L460,195L460,194L463,193L466,193L471,195L472,196L472,197L473,198L474,199L479,200L479,199L481,197L481,196L482,199L485,199L490,198L495,197L496,196L495,195L494,194L494,191L494,189L494,187L494,186L493,183L491,182L492,181L494,180L495,179L496,178L496,177L496,175L495,174L496,174L496,173L497,172L496,171L500,167L498,166L496,165L495,164L495,163L494,162L494,160L495,159L495,158L494,158L494,157L493,158L492,158L491,158L490,158L489,159L489,161L489,162L488,164L487,163L485,162L484,161L482,161L481,162L478,164L476,166L474,166L473,166L471,168L470,170L470,171L469,172L467,174L465,175L463,177L458,175L456,175L454,176L451,178L450,180L449,181L449,185L448,187L447,189L445,189L445,195L445,196L446,198L449,201L451,203L448,208L447,210L447,211L447,213L447,214L448,215L447,217L444,221L443,222L441,223L440,223L436,223L432,227L431,228L430,226L429,227L428,229L428,230L429,233L430,235L430,238L431,242L431,243L433,250L433,253L432,257L433,258L433,259L436,262L436,264L435,265L434,268L431,272L428,274L428,275L427,277L427,278L428,279L429,281L429,282Z " data-fips="AU01" data-hasc="AT.BU" data-name="Burgenland" data-postal="BU" data-varname="Burgenlndia"/><path d="M393,304L395,303L395,302L395,301L396,299L397,299L398,298L400,298L402,298L403,297L403,296L403,294L404,295L409,295L411,295L415,293L417,293L419,294L424,296L427,297L428,298L428,296L427,295L426,294L425,291L425,290L425,288L426,285L425,284L426,283L429,282L429,281L428,279L427,278L427,277L428,275L428,274L431,272L434,268L435,265L436,264L436,262L433,259L433,258L432,257L433,253L433,250L431,243L431,242L430,238L430,235L429,233L428,230L428,229L429,227L430,226L431,228L432,227L436,223L434,221L433,220L432,218L432,217L431,216L430,217L429,217L428,216L426,216L421,215L420,213L419,211L417,210L415,209L415,208L415,207L415,205L414,204L413,204L410,205L409,205L409,204L408,202L408,200L407,199L406,199L404,198L403,198L402,197L401,196L400,195L396,194L393,192L388,190L385,187L384,187L383,187L378,188L376,187L373,190L372,192L370,192L366,193L364,194L362,194L360,194L358,195L356,196L354,197L353,197L351,195L350,194L343,194L341,192L337,196L327,199L326,201L326,202L325,202L322,203L321,204L318,206L316,207L314,207L313,206L312,206L308,203L306,203L304,204L301,205L299,206L299,204L298,202L295,199L292,199L291,199L289,198L287,197L285,196L284,197L277,200L276,201L275,202L274,203L274,204L274,207L274,208L275,209L275,210L277,212L277,213L278,215L278,216L277,218L275,220L274,220L268,219L267,220L266,223L267,226L269,233L270,237L273,239L274,239L276,239L276,239L278,238L279,238L280,237L281,237L282,238L283,240L285,242L285,244L286,245L286,246L288,249L291,251L290,252L289,254L287,255L287,256L286,257L287,259L286,261L285,262L283,268L280,271L282,273L284,274L285,274L286,274L291,270L293,269L294,267L295,266L296,265L303,262L305,261L308,261L309,262L312,264L317,265L318,266L319,267L321,267L327,265L329,265L333,265L335,265L343,265L351,263L352,264L353,264L356,268L361,276L361,278L360,281L360,282L360,283L360,284L361,287L362,290L362,293L363,296L368,301L374,302L387,301L388,302L390,303L392,304Z " data-fips="AU06" data-hasc="AT.ST" data-name="Steiermark" data-postal="ST" data-varname="Styria|Estria|Estiria"/><path d="M331,327L332,325L332,323L334,322L335,321L337,321L338,319L339,319L340,318L341,317L341,316L343,316L345,316L347,315L347,314L348,312L348,311L349,309L350,307L351,306L352,305L354,305L357,304L358,306L361,302L365,301L368,301L363,296L362,293L362,290L361,287L360,284L360,283L360,282L360,281L361,278L361,276L356,268L353,264L352,264L351,263L343,265L335,265L333,265L329,265L327,265L321,267L319,267L318,266L317,265L312,264L309,262L308,261L305,261L303,262L296,265L295,266L294,267L293,269L291,270L286,274L285,274L284,274L282,273L280,271L278,268L272,264L270,263L268,262L266,262L259,260L257,260L251,258L249,257L248,257L247,258L245,259L243,260L240,262L237,263L232,263L230,262L229,262L228,261L223,258L220,257L217,256L213,255L210,254L207,252L206,252L205,253L204,254L205,257L206,257L212,260L212,261L211,264L211,265L211,267L212,268L213,269L214,271L215,272L216,273L216,274L216,276L217,277L217,278L220,281L224,287L224,288L223,289L221,287L219,287L217,288L211,289L209,289L209,291L209,292L208,294L206,299L206,299L207,300L208,300L210,300L211,300L212,300L216,303L232,304L237,306L241,309L243,309L245,309L252,308L255,309L260,309L261,310L264,310L272,313L273,313L274,313L275,313L280,314L285,313L287,314L293,317L294,317L296,317L297,317L298,317L299,317L304,321L318,322L320,321L321,322L322,323L324,324L325,324L327,323L328,325L329,326L330,327Z " data-fips="AU02" data-hasc="AT.KA" data-name="Krnten" data-postal="KA" data-varname="Carinthia|Carntia|Carintia"/><path d="M275,220L277,218L278,216L278,215L277,213L277,212L275,210L275,209L274,208L274,207L274,204L274,203L275,202L276,201L277,200L284,197L285,196L287,197L289,198L291,199L292,199L295,199L298,202L299,204L299,206L301,205L304,204L306,203L308,203L312,206L313,206L314,207L316,207L318,206L321,204L322,203L325,202L326,202L326,201L327,199L337,196L341,192L342,190L342,189L342,186L343,183L344,181L344,179L343,178L342,177L340,176L338,175L335,174L325,166L323,164L325,163L325,161L326,160L326,159L327,158L326,157L326,154L327,152L327,149L328,147L329,147L329,146L332,146L333,147L334,147L335,148L337,151L338,152L339,152L349,150L350,149L351,148L352,147L353,146L356,146L357,147L358,148L358,146L359,138L358,132L357,131L356,128L355,127L353,125L353,124L353,123L353,121L355,121L355,120L354,119L354,118L352,118L350,117L348,116L346,115L342,114L341,113L340,114L339,114L338,112L337,111L335,111L335,110L333,110L331,110L330,111L327,109L326,107L325,108L323,112L322,113L319,114L318,115L316,116L310,113L301,112L298,111L297,109L297,107L298,106L299,105L298,104L297,103L295,101L291,98L290,97L288,96L287,96L285,95L283,100L284,101L285,102L284,103L284,104L284,107L284,109L284,110L283,111L282,114L281,115L279,115L279,116L278,118L275,117L274,116L273,115L272,114L265,112L263,113L261,114L260,115L261,117L261,118L261,120L260,122L260,123L260,126L259,128L259,129L259,131L258,132L251,138L249,139L240,140L233,143L232,144L230,146L228,147L227,148L223,149L222,150L220,151L219,152L217,154L215,156L214,157L214,158L214,159L215,161L215,162L220,167L221,169L221,170L221,170L222,169L225,169L226,168L227,166L227,166L229,165L231,165L233,165L235,166L237,169L240,170L242,170L246,170L250,168L253,170L254,171L253,172L251,172L249,172L248,173L248,175L248,177L248,179L248,180L249,184L250,185L251,186L263,189L264,190L263,191L262,191L259,192L260,193L261,194L262,195L263,195L264,197L262,204L263,207L262,208L261,210L261,211L261,213L262,214L264,217L268,219L274,220Z " data-fips="AU04" data-hasc="AT.OO" data-name="Obersterreich" data-postal="OO" data-varname="Upper Austria|Alta-ustria|Alta Austria|sterreich ober der Enns|Obersterreich"/><path d="M283,268L285,262L286,261L287,259L286,257L287,256L287,255L289,254L290,252L291,251L288,249L286,246L286,245L285,244L285,242L283,240L282,238L281,237L280,237L279,238L278,238L276,239L276,239L274,239L273,239L270,237L269,233L267,226L266,223L267,220L268,219L264,217L262,214L261,213L261,211L261,210L262,208L263,207L262,204L264,197L263,195L262,195L261,194L260,193L259,192L262,191L263,191L264,190L263,189L251,186L250,185L249,184L248,180L248,179L248,177L248,175L248,173L249,172L251,172L253,172L254,171L253,170L250,168L246,170L242,170L240,170L237,169L235,166L233,165L231,165L229,165L227,166L227,166L226,168L225,169L222,169L221,170L221,170L221,170L222,172L223,173L225,174L226,175L228,181L230,183L225,191L225,192L224,193L223,195L224,196L229,197L230,196L231,196L232,197L233,198L234,200L234,201L235,203L235,204L234,205L233,207L232,209L232,211L231,213L231,215L232,216L232,218L229,220L228,220L227,219L226,219L225,219L222,217L219,213L218,213L217,212L215,211L215,209L216,207L217,206L216,204L215,203L214,202L214,200L213,200L209,199L207,199L205,200L204,200L201,202L203,205L204,207L206,208L207,210L207,211L207,213L208,216L208,217L207,218L206,220L205,221L203,225L202,226L201,226L197,227L196,228L196,228L195,230L194,231L193,232L191,233L189,233L187,233L186,232L184,232L182,233L174,236L171,236L169,236L169,238L168,242L168,244L168,245L168,246L169,248L170,250L171,252L171,256L174,255L176,256L176,257L178,256L184,254L188,250L189,250L190,250L192,250L194,249L196,249L198,250L199,250L201,251L202,251L204,254L205,253L206,252L207,252L210,254L213,255L217,256L220,257L223,258L228,261L229,262L230,262L232,263L237,263L240,262L243,260L245,259L247,258L248,257L249,257L251,258L257,260L259,260L266,262L268,262L270,263L272,264L278,268L280,271Z " data-fips="AU05" data-hasc="AT.SZ" data-name="Salzburg" data-postal="SZ" data-varname="Salzburgo"/><path d="M208,294L209,292L209,291L209,289L211,289L217,288L219,287L221,287L223,289L224,288L224,287L220,281L217,278L217,277L216,276L216,274L216,273L215,272L214,271L213,269L212,268L211,267L211,265L211,264L212,261L212,260L206,257L205,257L204,254L202,251L201,251L199,250L198,250L196,249L194,249L192,250L190,250L189,250L188,250L184,254L178,256L176,257L176,259L174,260L170,263L169,264L170,265L170,266L170,269L171,270L171,272L171,273L173,274L174,275L175,276L178,276L179,277L180,279L180,280L179,281L179,283L179,284L180,285L182,286L183,286L184,287L184,289L186,292L188,294L191,296L194,296L196,298L198,298L202,298L206,299Z " data-fips="AU07" data-hasc="AT.SZ" data-name="Salzburg" data-postal="SZ" data-varname="Salzburgo"/><path d="M89,282L90,282L93,282L95,283L96,282L97,279L99,278L99,277L100,274L101,270L102,269L106,265L107,264L112,263L117,263L119,263L121,264L123,265L126,262L127,261L129,262L129,263L131,263L132,263L134,262L135,262L139,263L140,263L141,263L143,265L145,265L147,264L150,264L153,262L156,260L158,259L163,259L170,256L171,256L171,252L170,250L169,248L168,246L168,245L168,244L168,242L169,238L169,236L171,236L174,236L182,233L184,232L186,232L187,233L189,233L191,233L193,232L194,231L195,230L196,228L196,228L197,227L201,226L202,226L203,225L205,221L206,220L207,218L208,217L208,216L207,213L207,211L207,210L206,208L204,207L203,205L201,202L201,203L200,203L198,203L197,203L196,203L194,201L193,200L192,197L191,197L189,198L187,198L184,197L182,197L181,198L179,197L179,196L180,194L180,193L179,194L177,195L176,196L177,197L178,199L178,201L178,203L175,205L160,204L154,205L152,207L149,206L143,206L141,205L139,205L137,207L137,208L136,211L135,212L133,213L130,213L129,213L127,212L125,213L123,216L124,218L123,218L122,219L119,219L118,219L117,220L116,221L115,222L113,223L112,223L112,220L111,219L109,220L105,223L103,223L96,222L96,222L95,221L96,219L95,218L92,215L89,212L91,210L89,208L87,209L85,210L82,210L81,208L73,205L71,204L71,205L69,207L67,207L65,207L63,206L63,205L64,203L63,202L61,202L60,204L61,205L61,207L60,211L61,211L62,213L62,214L62,216L61,218L60,220L59,222L57,222L56,223L54,226L53,227L52,229L49,230L47,231L43,231L44,234L44,238L44,242L43,244L40,248L39,250L38,254L38,255L38,256L38,258L38,259L38,260L38,262L37,262L36,263L35,264L35,266L36,269L37,272L37,272L38,272L39,272L42,270L43,269L43,268L44,267L45,265L46,265L47,265L49,265L49,264L50,261L52,260L54,259L55,259L56,260L57,262L60,265L60,266L59,270L59,272L61,273L64,274L71,272L72,272L73,273L78,276L78,278L76,279L77,280L79,280L82,281L83,281L84,281L86,283L87,283Z " data-fips="AU07" data-hasc="AT.TR" data-name="Tirol" data-postal="TR" data-varname="Tyrol"/><path d="M441,223L443,222L444,221L447,217L448,215L447,214L447,213L447,211L447,210L448,208L451,203L449,201L446,198L445,196L445,195L445,189L447,189L448,187L449,185L449,181L450,180L451,178L454,176L456,175L458,175L463,177L465,175L467,174L469,172L470,171L470,170L471,168L473,166L474,166L476,166L478,164L481,162L482,161L484,161L485,162L487,163L488,164L489,162L489,161L489,159L490,158L491,158L492,158L493,158L494,157L492,155L491,155L490,154L489,152L488,151L488,149L488,147L487,143L487,142L486,141L485,140L484,139L484,138L483,137L483,136L482,135L481,134L480,134L479,133L479,132L480,130L480,125L480,124L481,122L483,120L483,119L483,118L485,117L486,116L486,114L485,109L483,107L482,101L480,98L479,98L477,99L476,100L474,99L472,98L471,97L469,97L468,97L467,97L466,96L466,94L466,93L464,93L463,92L459,91L458,91L457,91L455,91L453,91L452,92L448,98L447,98L446,98L445,98L436,97L430,97L426,96L420,91L420,90L418,90L418,88L416,88L415,87L414,87L413,86L413,85L410,85L408,86L407,87L405,87L404,86L399,84L395,82L394,82L390,79L389,78L386,77L383,76L382,75L378,74L377,74L377,76L376,78L371,79L369,79L369,79L370,77L370,76L370,75L369,73L364,73L361,72L359,72L359,73L358,76L358,78L358,81L358,84L357,90L357,91L357,93L357,94L357,96L355,96L352,95L349,94L347,95L347,97L346,98L346,100L343,103L341,104L341,107L341,110L341,113L342,114L346,115L348,116L350,117L352,118L354,118L354,119L355,120L355,121L353,121L353,123L353,124L353,125L355,127L356,128L357,131L358,132L359,138L358,146L358,148L357,147L356,146L353,146L352,147L351,148L350,149L349,150L339,152L338,152L337,151L335,148L334,147L333,147L332,146L329,146L329,147L328,147L327,149L327,152L326,154L326,157L327,158L326,159L326,160L325,161L325,163L323,164L325,166L335,174L338,175L340,176L342,177L343,178L344,179L344,181L343,183L342,186L342,189L342,190L341,192L343,194L350,194L351,195L353,197L354,197L356,196L358,195L360,194L362,194L364,194L366,193L370,192L372,192L373,190L376,187L378,188L383,187L384,187L385,187L388,190L393,192L396,194L400,195L401,196L402,197L403,198L404,198L406,199L407,199L408,200L408,202L409,204L409,205L410,205L413,204L414,204L415,205L415,207L415,208L415,209L417,210L419,211L420,213L421,215L426,216L428,216L429,217L430,217L431,216L432,217L432,218L433,220L434,221L436,223L440,223Z M452,156L450,156L449,155L448,155L446,155L444,155L440,154L439,153L438,152L439,149L438,148L437,146L438,145L439,144L441,144L442,144L443,143L443,142L448,140L450,138L451,138L452,137L454,138L456,141L456,141L457,140L458,139L459,141L460,142L460,144L461,145L461,147L460,150L461,151L462,154L458,153L455,153L454,154L453,155Z " data-fips="AU03" data-hasc="AT.NO" data-name="Niedersterreich" data-postal="NO" data-varname="Lower Austria|Baixa-ustria|Baja Austria|Niederdonau|sterreich unter der Enns"/><path d="M453,155L454,154L455,153L458,153L462,154L461,151L460,150L461,147L461,145L460,144L460,142L459,141L458,139L457,140L456,141L456,141L454,138L452,137L451,138L450,138L448,140L443,142L443,143L442,144L441,144L439,144L438,145L437,146L438,148L439,149L438,152L439,153L440,154L444,155L446,155L448,155L449,155L450,156L452,156Z " data-fips="AU09" data-hasc="AT.WI" data-name="Wien" data-postal="WI" data-varname="Vienna|Viena"/></g></svg>