<?xml version="1.0" ?><!DOCTYPE svg  PUBLIC '-//W3C//DTD SVG 1.1//EN'  'http://www.w3.org/Graphics/SVG/1.1/DTD/svg11.dtd'><svg enable_background="new 0 0 500 401" height="401px" style="stroke-linejoin: round; stroke:#000; fill:#f6f3f0;" version="1.1" viewBox="0 0 500 401" width="500px" xmlns="http://www.w3.org/2000/svg" xmlns:xlink="http://www.w3.org/1999/xlink"><defs><style type="text/css"><![CDATA[path { fill-rule: evenodd; }
#context path { fill: #eee; stroke: #bbb; } ]]></style></defs><metadata><views><view h="401" padding="0" w="500"><proj id="laea" lat0="50.643" lon0="4.664"/><bbox h="24.66" w="30.08" x="983.39" y="989.47"/><llbbox lat0="-90" lat1="90" lon0="-180" lon1="180"/></view></views></metadata><g id="admin1"><path d="M245,311L247,307L243,299L242,289L240,288L240,285L240,277L241,274L236,265L241,261L240,258L242,252L240,251L237,250L234,253L229,250L227,247L232,243L236,243L238,240L240,240L241,237L249,238L251,233L255,233L257,236L266,234L265,227L268,222L265,219L267,218L269,214L264,211L265,209L264,208L265,208L267,203L266,201L267,199L262,200L264,190L257,194L255,193L255,191L251,193L251,188L250,187L245,187L243,186L236,186L233,190L233,185L230,185L227,180L222,179L223,175L216,173L217,169L215,166L213,167L209,172L206,173L204,172L203,168L203,161L203,158L206,157L204,157L201,156L199,160L198,158L195,160L192,159L190,161L182,161L180,160L178,157L177,155L178,152L177,148L170,150L168,148L163,149L161,142L155,145L154,142L150,144L145,154L142,151L133,151L133,145L128,146L123,144L117,148L111,154L111,156L109,155L106,153L106,150L103,146L98,147L93,144L87,147L86,147L87,150L89,154L90,155L92,156L94,157L94,158L96,163L94,166L95,172L98,183L98,190L98,192L100,195L102,196L108,199L110,200L113,199L118,197L120,196L121,195L123,194L125,194L126,194L127,195L127,197L126,199L127,200L135,201L138,201L140,202L141,203L144,205L145,207L146,209L147,217L146,226L147,234L152,238L153,237L154,236L154,235L157,231L158,230L159,229L165,229L170,229L173,231L175,232L177,233L180,233L188,230L191,230L194,231L198,236L200,237L203,240L206,247L209,248L210,247L210,246L210,245L211,244L212,244L214,246L216,247L217,248L216,250L215,252L212,254L211,256L210,258L209,261L207,269L206,273L208,274L211,273L212,273L213,273L215,282L216,284L217,285L217,287L214,288L211,290L210,292L209,292L208,294L207,295L207,298L208,301L208,304L207,304L214,307L216,308L218,308L226,307L245,312Z M52,156L56,149L59,147L61,145L68,143L67,136L65,134L58,138L60,141L55,143L55,145L51,146L49,144L45,146L48,154L48,156L49,157L51,157Z " data-fips="" data-hasc="" data-name="Hainaut" data-postal="" data-varname="Henegouwen"/><path d="M430,155L433,151L430,148L429,147L418,148L417,147L416,146L414,144L413,143L412,144L410,146L411,147L413,149L416,148L421,155L426,154L429,156Z M341,157L339,154L347,155L348,153L349,155L353,153L357,155L357,153L360,150L366,148L367,149L369,153L372,154L375,154L376,151L379,153L381,153L384,150L384,146L395,143L401,137L398,135L396,132L396,128L404,119L405,117L406,117L409,116L410,113L412,109L414,106L412,105L411,105L408,106L413,98L414,96L415,93L413,91L414,88L414,86L415,86L417,87L418,86L418,84L419,82L419,80L418,79L420,79L421,79L422,78L423,77L421,74L421,72L423,70L422,69L421,67L419,67L415,68L414,66L411,63L409,61L407,61L402,62L400,62L398,62L397,60L396,59L388,57L386,55L385,50L384,46L382,43L379,41L376,41L374,42L368,46L366,47L351,46L347,47L346,49L344,56L350,61L350,69L347,72L343,71L340,75L334,75L329,82L319,84L319,87L315,92L318,91L320,95L323,94L325,96L328,94L328,89L331,89L334,90L337,94L334,96L334,94L332,94L333,99L328,101L328,106L323,110L325,115L325,115L327,114L330,117L334,114L335,116L339,116L341,118L339,124L337,123L335,129L334,136L337,137L331,143L332,146L331,150L333,152L339,159Z " data-fips="" data-hasc="" data-name="Limburg" data-postal="" data-varname=""/><path d="M242,145L252,140L248,137L249,135L252,135L250,128L245,125L247,123L247,121L243,116L239,119L234,118L229,121L227,125L228,128L227,131L224,132L223,135L227,137L230,136L233,143L236,146L239,146Z " data-fips="BE11" data-hasc="BE.BU" data-name="Brussels" data-postal="" data-varname="Bruselas|Brussel Hoofstadt|Brusselse Hoofdstedelijke Gewest|Brssel|Bruxelas|Rgion de Bruxelles-Capitale"/><path d="M239,146L236,146L233,143L230,136L227,137L223,135L224,132L227,131L228,128L227,125L229,121L234,118L239,119L243,116L247,121L247,123L245,125L250,128L252,135L249,135L248,137L252,140L242,145Z M192,159L195,160L198,158L199,160L201,156L204,157L205,155L208,155L209,153L210,153L211,153L214,157L218,157L222,160L224,159L228,160L230,159L230,158L231,155L234,155L232,153L233,152L236,155L238,156L239,153L245,152L249,148L252,147L254,148L253,150L254,151L258,153L258,151L264,149L267,146L267,150L272,150L274,147L272,144L272,139L279,141L281,140L282,141L283,139L286,137L291,139L294,144L297,144L297,146L306,145L306,149L307,150L309,150L315,145L323,150L323,154L325,157L327,158L333,152L331,150L332,146L331,143L337,137L334,136L335,129L337,123L339,124L341,118L339,116L335,116L334,114L330,117L327,114L325,115L325,115L323,110L328,106L328,101L333,99L332,94L334,94L334,96L337,94L334,90L331,89L328,89L328,94L325,96L323,94L320,95L318,91L315,92L313,90L311,90L306,92L303,95L301,94L295,97L293,96L291,91L287,94L284,94L279,99L281,96L277,94L268,97L266,101L265,101L261,98L258,100L254,97L252,101L249,98L241,100L241,97L238,96L240,93L235,95L236,94L229,91L226,90L222,91L219,101L216,102L212,101L210,105L212,110L212,113L209,115L203,112L204,116L201,119L203,120L203,123L197,131L200,132L201,135L199,140L195,143L193,144L191,143L189,145L186,143L184,144L183,147L185,151L185,152L181,153L178,152L177,155L178,157L180,160L182,161L190,161Z " data-fips="" data-hasc="BE.VB" data-name="Flemish Brabant" data-postal="" data-varname="Vlaams Brabant|Flamish-Brabant|Brabant flamand"/><path d="M307,341L312,339L315,339L315,339L315,338L316,335L317,334L316,330L317,328L326,321L324,319L327,316L334,314L331,311L331,306L328,304L327,302L321,303L320,302L318,296L315,293L317,293L318,290L319,291L321,290L325,286L326,283L325,281L327,274L328,279L330,280L342,279L345,279L349,276L352,277L353,274L349,271L353,270L354,267L350,261L350,259L348,259L350,257L345,255L347,253L351,253L350,251L353,249L355,249L356,250L365,245L368,241L368,238L367,235L364,235L363,237L362,236L368,231L367,229L369,225L368,222L363,221L356,225L354,223L354,219L348,218L346,215L348,211L346,206L343,203L339,205L337,202L338,201L335,201L334,198L336,196L333,198L331,197L329,193L322,192L325,190L321,181L315,175L312,169L309,173L305,173L305,174L291,178L292,181L290,179L285,181L284,177L281,178L280,180L277,177L276,177L274,180L276,186L273,187L268,185L266,185L264,187L264,190L262,200L267,199L266,201L267,203L265,208L264,208L265,209L264,211L269,214L267,218L265,219L268,222L265,227L266,234L257,236L255,233L251,233L249,238L241,237L240,240L238,240L236,243L232,243L227,247L229,250L234,253L237,250L240,251L242,252L240,258L241,261L236,265L241,274L240,277L240,285L240,288L242,289L243,299L247,307L245,311L245,312L246,312L250,312L268,303L273,302L274,301L276,299L276,296L277,289L277,288L277,287L276,286L277,284L278,282L291,268L295,267L295,270L297,270L301,269L302,271L302,274L301,278L301,282L299,281L296,286L296,288L296,289L296,292L291,304L291,307L292,310L298,312L300,316L301,319L300,320L300,322L299,324L299,326L298,327L297,328L298,329L299,331L299,332L299,340L300,341L304,342Z " data-fips="" data-hasc="" data-name="Namur" data-postal="" data-varname="Namen"/><path d="M384,397L387,394L390,393L394,395L395,395L397,394L398,393L399,391L402,389L405,390L408,391L411,391L412,391L414,388L415,388L417,388L420,390L421,390L424,388L427,385L428,382L426,381L428,379L429,377L430,373L431,372L433,370L433,369L432,366L431,365L429,365L428,364L428,363L428,361L428,360L428,359L429,357L429,356L428,355L427,355L425,354L423,354L423,353L422,349L419,343L418,342L416,341L415,341L414,340L412,338L412,335L411,333L412,331L413,330L412,328L413,327L413,326L416,326L415,324L412,322L410,321L411,320L415,312L416,310L416,309L417,308L418,307L418,306L420,306L421,305L423,302L422,301L421,300L421,297L422,296L425,295L426,294L426,292L426,290L426,288L427,287L428,285L429,284L429,283L430,279L430,278L432,276L437,274L439,272L440,269L440,266L441,264L444,264L446,262L447,263L447,265L448,267L449,267L449,261L449,258L450,256L448,256L447,254L447,235L443,233L443,231L427,228L426,232L429,234L426,241L431,241L430,243L422,245L421,247L420,245L418,244L410,245L414,238L410,237L408,234L408,231L410,226L404,227L404,224L400,224L393,218L389,220L386,219L386,217L384,217L383,213L378,217L372,212L370,212L370,214L372,218L368,222L369,225L367,229L368,231L362,236L363,237L364,235L367,235L368,238L368,241L365,245L356,250L355,249L353,249L350,251L351,253L347,253L345,255L350,257L348,259L350,259L350,261L354,267L353,270L349,271L353,274L352,277L349,276L345,279L342,279L330,280L328,279L327,274L325,281L326,283L325,286L321,290L319,291L318,290L317,293L315,293L318,296L320,302L321,303L327,302L328,304L331,306L331,311L334,314L327,316L324,319L326,321L317,328L316,330L317,334L316,335L315,338L315,339L315,339L315,339L317,341L322,345L325,347L329,348L331,349L336,357L338,359L341,361L344,362L349,360L352,360L355,363L357,366L358,370L357,370L356,373L357,375L357,376L360,376L361,375L362,374L363,373L364,374L368,376L369,377L371,378L377,389L378,391L378,393L377,395L377,397L378,398L381,399Z " data-fips="" data-hasc="" data-name="Luxembourg" data-postal="" data-varname="Luxemburg"/><path d="M150,144L154,142L155,145L161,142L163,149L168,148L170,150L177,148L178,152L181,153L185,152L185,151L183,147L184,144L186,143L189,145L191,143L193,144L195,143L199,140L201,135L200,132L197,131L203,123L203,120L201,119L204,116L203,112L209,115L212,113L212,110L210,105L212,101L216,102L219,101L222,91L221,90L219,92L217,92L216,90L217,88L216,86L216,84L215,82L215,80L215,78L217,76L219,75L222,74L227,74L232,73L233,70L234,65L234,64L233,61L230,57L231,56L228,48L230,45L231,44L231,42L231,41L230,40L229,38L226,36L224,33L224,30L223,28L220,26L219,31L218,33L213,40L207,44L192,52L190,54L186,57L183,57L174,57L168,57L167,57L165,55L165,52L165,50L164,48L162,46L147,41L144,40L140,40L136,41L134,41L131,43L130,43L130,46L130,48L130,50L124,51L120,50L117,49L117,49L113,52L115,57L112,59L116,60L118,66L114,74L108,78L122,88L119,90L123,96L120,101L122,104L118,106L124,109L121,109L123,111L122,112L119,111L120,114L119,115L120,118L123,116L124,117L125,121L122,124L130,131L128,133L131,137L131,138L123,144L128,146L133,145L133,151L142,151L145,154Z " data-fips="" data-hasc="BE.OV" data-name="East Flanders" data-postal="" data-varname="Oost-Vlaanderen|Ostflandern|Falndre orientale"/><path d="M48,154L45,146L49,144L51,146L55,145L55,143L60,141L58,138L65,134L67,136L68,143L77,140L78,140L81,141L84,143L86,147L87,147L93,144L98,147L103,146L106,150L106,153L109,155L111,156L111,154L117,148L123,144L131,138L131,137L128,133L130,131L122,124L125,121L124,117L123,116L120,118L119,115L120,114L119,111L122,112L123,111L121,109L124,109L118,106L122,104L120,101L123,96L119,90L122,88L108,78L114,74L118,66L116,60L112,59L115,57L113,52L117,49L117,49L116,48L113,45L112,40L112,35L112,30L111,23L83,31L81,33L58,47L35,60L31,62L14,75L9,76L7,78L8,82L9,91L11,95L15,100L17,103L17,107L16,108L13,112L13,113L15,122L15,123L14,125L14,127L16,128L17,131L17,132L18,133L20,133L21,133L24,133L25,133L26,134L27,135L27,136L28,138L33,143L33,144L35,148L36,149L38,151L48,156Z " data-fips="" data-hasc="" data-name="West Flanders" data-postal="" data-varname="West-Vlaanderen"/><path d="M268,97L277,94L281,96L279,99L284,94L287,94L291,91L293,96L295,97L301,94L303,95L306,92L311,90L313,90L315,92L319,87L319,84L329,82L334,75L340,75L343,71L347,72L350,69L350,61L344,56L346,49L347,47L346,48L344,47L344,40L342,37L340,37L335,38L333,36L332,35L331,31L330,29L326,24L325,22L325,18L327,15L327,11L325,7L320,4L319,4L318,5L317,7L317,10L315,13L312,17L309,20L306,21L301,19L299,18L290,18L287,17L288,14L290,14L295,16L294,13L295,10L295,7L295,4L294,2L292,1L290,0L288,0L284,2L274,14L273,15L271,16L269,16L265,15L262,15L260,15L258,13L258,12L259,9L259,6L258,4L256,4L253,4L246,7L240,11L241,12L241,14L240,15L240,17L241,19L244,22L244,24L244,28L241,29L236,29L233,28L229,25L225,25L227,28L228,29L228,31L228,36L229,37L230,38L234,40L232,44L231,45L230,45L228,48L231,56L230,57L233,61L234,64L234,65L233,70L232,73L227,74L222,74L219,75L217,76L215,78L215,80L215,82L216,84L216,86L217,88L216,90L217,92L219,92L221,90L222,91L226,90L229,91L236,94L235,95L240,93L238,96L241,97L241,100L249,98L252,101L254,97L258,100L261,98L265,101L266,101Z " data-fips="" data-hasc="" data-name="Antwerp" data-postal="" data-varname="Antwerpen"/><path d="M462,272L463,270L462,269L461,268L461,267L462,264L463,263L466,263L466,262L467,261L467,258L466,256L465,254L466,252L469,250L470,248L473,247L478,245L480,243L480,241L480,239L481,237L482,236L484,235L485,235L487,235L488,236L492,235L493,233L493,230L488,223L488,221L489,218L490,213L490,210L488,209L487,207L487,205L486,203L486,202L488,200L485,200L480,199L478,198L477,198L473,200L471,200L470,199L469,197L468,196L469,194L468,194L466,192L467,191L465,188L467,185L471,181L474,179L476,177L476,175L476,174L467,174L465,173L463,170L465,169L457,157L454,155L452,154L447,156L446,156L445,154L446,152L445,150L443,149L443,148L441,148L432,148L430,148L433,151L430,155L429,156L426,154L421,155L416,148L413,149L411,147L410,146L410,147L408,148L407,147L405,146L406,141L406,139L404,138L401,137L395,143L384,146L384,150L381,153L379,153L376,151L375,154L372,154L369,153L367,149L366,148L360,150L357,153L357,155L353,153L349,155L348,153L347,155L339,154L341,157L339,159L327,158L325,157L323,154L323,150L320,152L317,154L320,158L318,160L318,166L315,175L321,181L325,190L322,192L329,193L331,197L333,198L336,196L334,198L335,201L338,201L337,202L339,205L343,203L346,206L348,211L346,215L348,218L354,219L354,223L356,225L363,221L368,222L372,218L370,214L370,212L372,212L378,217L383,213L384,217L386,217L386,219L389,220L393,218L400,224L404,224L404,227L410,226L408,231L408,234L410,237L414,238L410,245L418,244L420,245L421,247L422,245L430,243L431,241L426,241L429,234L426,232L427,228L443,231L443,233L447,235L447,254L448,256L450,256L449,258L449,261L449,267L450,267L451,268L454,267L455,266L457,265L459,267L459,269L459,271L459,272L461,273Z " data-fips="" data-hasc="" data-name="Liege" data-postal="" data-varname="Luik"/><path d="M264,190L264,187L266,185L268,185L273,187L276,186L274,180L276,177L277,177L280,180L281,178L284,177L285,181L290,179L292,181L291,178L305,174L305,173L309,173L312,169L318,166L318,160L320,158L317,154L320,152L315,145L309,150L307,150L306,149L306,145L297,146L297,144L294,144L291,139L286,137L283,139L282,141L281,140L279,141L272,139L272,144L274,147L272,150L267,150L267,146L264,149L258,151L258,153L254,151L253,150L254,148L252,147L249,148L245,152L239,153L238,156L236,155L233,152L232,153L234,155L231,155L230,158L230,159L228,160L224,159L222,160L218,157L214,157L211,153L210,153L209,153L208,155L205,155L204,157L206,157L203,158L203,161L203,168L204,172L206,173L209,172L213,167L215,166L217,169L216,173L223,175L222,179L227,180L230,185L233,185L233,190L236,186L243,186L245,187L250,187L251,188L251,193L255,191L255,193L257,194Z " data-fips="" data-hasc="" data-name="Walloon Brabant" data-postal="" data-varname="Waals-Brabant|Brabant Wallon"/></g></svg>