<?xml version="1.0" ?><!DOCTYPE svg  PUBLIC '-//W3C//DTD SVG 1.1//EN'  'http://www.w3.org/Graphics/SVG/1.1/DTD/svg11.dtd'><svg enable_background="new 0 0 500 401" height="401px" style="stroke-linejoin: round; stroke:#000; fill:#f6f3f0;" version="1.1" viewBox="0 0 500 401" width="500px" xmlns="http://www.w3.org/2000/svg" xmlns:xlink="http://www.w3.org/1999/xlink"><defs><style type="text/css"><![CDATA[path { fill-rule: evenodd; }
#context path { fill: #eee; stroke: #bbb; } ]]></style></defs><metadata><views><view h="401" padding="0" w="500"><proj id="laea" lat0="44.169" lon0="17.786"/><bbox h="33.65" w="34.38" x="981.87" y="986.19"/><llbbox lat0="-90" lat1="90" lon0="-180" lon1="180"/></view></views></metadata><g id="admin1"><path d="M184,257L189,255L190,255L196,255L200,253L202,252L205,253L205,255L207,256L209,256L213,254L216,253L219,251L222,250L225,250L228,250L231,249L232,246L234,244L234,241L234,240L234,239L233,237L231,236L230,234L227,229L225,227L222,226L221,226L219,226L219,224L219,222L218,220L218,218L218,215L218,214L219,212L220,209L222,209L224,210L227,211L227,209L227,209L226,207L223,202L220,202L218,202L216,200L214,198L213,196L212,193L211,192L210,189L210,187L209,186L207,184L205,180L205,178L205,178L195,177L192,176L191,174L190,170L190,166L187,165L185,163L183,160L180,159L175,156L170,153L166,150L163,147L161,147L158,146L156,142L155,140L153,138L152,137L149,137L146,135L140,130L136,127L133,124L129,121L129,121L126,126L125,128L119,129L116,130L112,131L110,131L106,131L104,131L102,133L101,135L100,135L98,135L96,136L96,136L95,138L95,139L94,142L94,143L94,145L95,150L96,156L98,159L102,164L104,167L106,172L108,175L110,177L111,178L112,179L113,179L116,179L117,179L118,181L119,183L119,185L124,187L126,188L127,190L129,192L131,197L136,202L140,207L144,211L145,213L145,216L146,219L148,221L159,231L176,248L181,254L184,257Z " data-fips="BK01" data-hasc="BA.BF" data-name="West Bosnia" data-postal="BF" data-varname="Hercegbosanski|Hercegovacko-bosanski"/><path d="M98,135L100,135L101,135L102,133L104,131L106,131L110,131L112,131L116,130L119,129L125,128L126,126L129,121L129,121L128,120L127,117L128,114L130,114L134,114L140,116L147,119L153,121L159,121L164,121L165,118L166,115L167,113L167,104L167,97L167,91L166,89L163,89L162,88L163,85L163,79L162,76L158,70L153,65L149,63L143,61L140,60L134,59L128,59L125,58L117,58L110,57L107,56L104,52L103,50L103,47L105,45L110,43L112,42L113,41L113,39L112,38L112,40L109,41L105,40L101,38L98,36L89,26L87,24L85,18L84,15L82,14L80,14L79,13L80,11L80,10L79,9L78,8L77,8L74,9L64,8L59,9L57,11L55,12L54,15L54,16L54,25L54,27L51,33L51,36L52,41L52,43L49,48L48,50L48,54L50,57L51,59L52,62L52,65L50,66L48,66L46,68L46,71L47,73L50,78L53,80L54,82L54,83L55,84L57,84L58,84L60,83L61,82L62,81L63,80L64,80L64,81L65,82L65,84L65,85L67,86L69,85L70,87L71,91L72,93L73,94L74,94L77,94L78,95L79,96L79,98L80,100L79,101L78,103L76,105L75,107L78,110L80,110L83,108L86,109L87,110L88,113L88,116L90,123L91,126L91,128L90,129L89,130L89,131L90,131L92,132L94,133L95,134L96,136Z " data-fips="HR19" data-hasc="BA.BF" data-name="Una-Sana" data-postal="BF" data-varname=""/><path d="M284,221L284,221L285,220L286,218L290,218L294,216L297,214L299,213L301,212L301,210L301,208L300,203L299,202L298,202L297,202L296,200L293,196L291,195L290,195L290,194L289,192L289,191L289,188L288,188L285,188L283,188L283,183L282,180L281,179L280,179L278,179L276,177L275,175L274,172L274,170L272,169L269,170L267,167L263,164L262,160L262,153L262,147L262,144L260,141L258,139L256,136L255,134L251,133L242,135L235,135L231,135L230,133L228,131L225,126L222,124L218,124L213,124L207,123L204,122L203,121L197,121L195,121L194,125L194,134L195,141L196,146L198,151L201,155L206,162L207,167L207,172L206,175L205,178L205,180L207,184L209,186L210,187L210,189L211,192L212,193L213,196L214,198L216,200L218,202L220,202L223,202L226,207L227,209L227,209L227,209L228,209L231,211L234,212L236,212L238,211L241,211L246,212L250,214L254,216L258,215L259,215L261,213L264,212L269,212L272,212L273,214L274,217L275,218L278,221L281,222Z " data-fips="BK01" data-hasc="BA.BF" data-name="Central Bosnia" data-postal="BF" data-varname="Centralnobosanski|Srednjobosanski"/><path d="M241,324L244,319L247,313L248,307L247,303L243,299L241,299L239,295L240,292L241,291L243,291L246,292L248,292L251,293L257,293L257,290L256,287L256,286L255,284L253,281L253,277L253,275L253,272L248,272L246,271L245,268L244,266L242,265L240,261L238,259L236,259L235,257L235,255L236,254L237,254L239,254L241,254L242,254L242,251L242,248L241,247L240,246L240,245L240,242L239,241L238,239L236,239L234,240L234,241L234,244L232,246L231,249L228,250L225,250L222,250L219,251L216,253L213,254L209,256L207,256L205,255L205,253L202,252L200,253L196,255L190,255L189,255L184,257L184,257L187,259L193,263L203,265L206,267L208,271L206,283L208,290L212,297L217,301L219,302L220,303L221,305L221,308L223,310L224,312L225,313L240,323L241,324Z " data-fips="HR03" data-hasc="BA.BF" data-name="West Herzegovina" data-postal="BF" data-varname="Zapadnohercegovacki"/><path d="M324,397L324,390L324,387L321,386L318,383L313,378L307,372L307,371L306,369L303,366L300,363L294,357L290,355L288,352L287,346L286,340L286,338L286,333L287,331L288,329L289,329L290,324L290,322L290,319L288,317L285,316L283,316L283,314L283,312L285,309L287,308L289,306L290,304L290,291L289,282L289,277L286,273L287,272L287,270L294,270L302,270L311,270L322,270L325,270L326,268L325,264L324,259L323,253L324,249L324,248L324,248L323,248L320,248L318,247L316,247L315,249L314,251L313,250L311,250L309,248L306,247L305,245L305,243L303,239L300,236L299,236L297,235L295,236L293,236L290,235L288,233L287,231L286,227L285,223L284,221L281,222L278,221L275,218L274,217L273,214L272,212L269,212L264,212L261,213L259,215L258,215L254,216L250,214L246,212L241,211L238,211L236,212L234,212L231,211L228,209L227,209L227,209L227,211L224,210L222,209L220,209L219,212L218,214L218,215L218,218L218,220L219,222L219,224L219,226L221,226L222,226L225,227L227,229L230,234L231,236L233,237L234,239L234,240L236,239L238,239L239,241L240,242L240,245L240,246L241,247L242,248L242,251L242,254L241,254L239,254L237,254L236,254L235,255L235,257L236,259L238,259L240,261L242,265L244,266L245,268L246,271L248,272L253,272L253,275L253,277L253,281L255,284L256,286L256,287L257,290L257,293L251,293L248,292L246,292L243,291L241,291L240,292L239,295L241,299L243,299L247,303L248,307L247,313L244,319L241,324L241,324L244,328L247,336L248,340L246,341L245,342L239,343L241,345L243,346L241,346L238,344L237,344L247,351L248,349L250,347L252,347L254,347L259,349L261,349L262,349L264,348L265,350L265,351L265,355L265,356L269,362L270,362L274,363L276,365L281,371L284,373L289,376L308,389L312,391L318,393L321,393L322,394L324,397Z " data-fips="HR03" data-hasc="BA.BF" data-name="Herzegovina-Neretva" data-postal="BF" data-varname="Hercegovackoneretvanski"/><path d="M366,161L367,156L366,152L364,148L362,144L361,138L362,136L365,135L368,133L370,130L371,127L376,126L380,125L383,124L385,121L387,120L390,118L391,116L391,106L391,97L390,95L386,94L382,95L381,97L379,102L376,107L374,108L372,108L370,107L364,100L360,96L359,94L359,90L361,89L364,87L366,85L367,81L367,79L364,79L363,76L362,70L361,64L357,61L351,60L345,59L341,61L339,62L336,62L335,60L335,58L335,55L331,54L324,54L322,55L319,57L318,61L316,67L313,71L309,72L301,72L296,73L292,73L291,76L291,80L293,82L297,84L302,86L306,88L312,90L316,91L321,93L323,96L324,100L323,103L318,104L313,106L313,109L313,111L314,113L314,117L314,120L314,123L315,126L317,127L322,127L324,128L325,131L325,134L326,137L328,140L331,140L335,142L337,144L338,149L339,154L340,159L342,159L345,159L346,162L348,163L355,163L361,163L364,166Z " data-fips="BK00" data-hasc="BA.BF" data-name="Tuzla" data-postal="BF" data-varname="Tuzlanski"/><path d="M332,398L334,397L335,398L336,398L338,397L337,396L337,394L340,393L342,390L343,387L343,383L342,379L340,377L338,374L334,368L333,365L332,361L332,359L333,357L334,356L335,355L334,352L332,347L330,344L330,341L332,335L336,332L342,331L348,331L352,331L350,320L350,316L351,312L353,308L357,301L355,300L356,298L359,295L370,288L372,286L371,284L373,283L379,282L382,283L385,285L386,286L386,287L386,288L386,289L387,291L390,295L391,294L392,292L392,291L393,290L394,289L398,289L394,282L391,274L387,268L384,268L385,266L383,263L381,263L380,262L380,261L380,260L381,259L383,258L386,255L387,254L390,254L391,255L393,257L394,259L396,260L398,259L400,259L403,255L405,255L411,256L413,255L414,253L415,250L416,247L418,247L420,247L422,247L423,246L425,244L426,244L428,245L430,247L432,250L433,253L433,254L434,253L436,249L437,249L442,250L442,249L441,248L440,247L440,245L440,243L441,241L443,238L443,234L440,226L438,221L427,210L421,201L418,197L414,194L413,193L414,192L414,191L414,189L414,188L414,187L415,186L417,185L419,185L420,186L423,187L426,190L427,191L429,191L430,190L436,190L442,190L445,190L447,189L451,186L453,184L454,181L453,178L452,177L451,178L450,179L449,178L447,176L444,174L441,170L439,169L439,168L438,165L437,164L436,166L434,165L433,164L428,161L426,159L426,157L425,154L424,151L422,148L420,147L419,147L416,148L413,147L411,146L407,145L405,144L403,142L400,137L399,134L399,131L400,128L401,126L403,124L403,120L401,114L401,111L405,110L406,109L406,108L407,107L407,106L407,104L408,102L409,101L414,93L415,88L416,87L417,86L419,84L420,82L421,80L425,61L426,61L426,59L426,58L424,56L423,56L422,56L421,55L418,53L416,54L412,53L411,53L409,54L407,54L407,52L406,51L405,52L396,59L394,59L392,60L389,61L387,61L376,62L372,61L371,60L370,60L370,62L367,65L364,65L364,63L365,60L364,58L363,57L360,57L358,57L358,54L355,51L351,48L346,48L342,47L338,44L335,40L333,38L333,34L333,32L331,31L330,29L329,31L328,35L326,36L322,37L320,39L319,41L318,42L318,44L315,44L312,44L310,43L307,39L305,36L303,35L301,35L300,33L298,28L297,28L295,27L292,26L287,21L285,20L283,20L282,21L276,29L274,30L273,31L270,31L267,33L266,33L264,32L262,30L256,23L254,20L251,18L247,18L245,19L241,23L239,24L238,25L236,24L230,25L230,24L231,22L229,23L227,23L226,22L227,21L227,20L226,19L225,19L225,20L221,21L219,22L218,21L217,20L214,18L212,17L208,14L205,19L200,20L199,20L190,16L186,12L183,9L181,10L181,9L181,7L181,6L180,8L179,7L178,6L176,5L176,6L177,7L175,7L174,6L174,5L174,4L173,1L172,0L169,3L168,4L166,6L166,8L165,8L164,9L163,10L162,12L162,13L162,14L161,15L158,15L137,9L131,9L127,12L123,19L122,22L121,22L118,23L117,24L116,25L116,27L116,29L115,30L113,34L112,38L113,39L113,41L112,42L110,43L105,45L103,47L103,50L104,52L107,56L110,57L117,58L125,58L128,59L134,59L140,60L143,61L149,63L153,65L158,70L162,76L163,79L163,85L162,88L163,89L166,89L167,91L167,97L167,104L167,113L166,115L165,118L164,121L159,121L153,121L147,119L140,116L134,114L130,114L128,114L127,117L128,120L129,121L133,124L136,127L140,130L146,135L149,137L152,137L153,138L155,140L156,142L158,146L161,147L163,147L166,150L170,153L175,156L180,159L183,160L185,163L187,165L190,166L190,170L191,174L192,176L195,177L205,178L205,178L206,175L207,172L207,167L206,162L201,155L198,151L196,146L195,141L194,134L194,125L195,121L197,121L203,121L204,122L207,123L213,124L218,124L222,124L225,126L228,131L230,133L231,135L235,135L242,135L251,133L255,134L259,131L264,128L268,126L272,123L275,120L275,116L275,113L275,109L272,106L268,103L266,98L266,95L268,91L272,83L275,82L281,82L285,83L289,86L292,92L296,100L298,104L301,104L305,104L318,104L323,103L324,100L323,96L321,93L316,91L312,90L306,88L302,86L297,84L293,82L291,80L291,76L292,73L296,73L301,72L309,72L313,71L316,67L318,61L319,57L322,55L324,54L331,54L335,55L335,58L335,60L336,62L339,62L341,61L345,59L351,60L357,61L361,64L362,70L363,76L364,79L367,79L367,81L366,85L364,87L361,89L359,90L359,94L360,96L364,100L370,107L372,108L374,108L376,107L379,102L381,97L382,95L386,94L390,95L391,97L391,106L391,116L390,118L387,120L385,121L383,124L380,125L376,126L371,127L370,130L368,133L365,135L362,136L361,138L362,144L364,148L366,152L367,156L366,161L364,166L362,168L361,170L358,173L353,178L349,181L344,181L344,184L340,187L337,189L336,191L336,195L337,200L337,205L337,209L336,211L335,213L331,213L329,212L324,212L323,213L323,216L323,219L326,224L328,227L331,227L335,227L338,229L343,230L348,234L349,235L351,235L355,235L357,233L359,230L360,225L362,222L367,221L377,221L382,222L384,225L387,228L389,228L392,229L394,231L396,235L395,237L392,238L389,241L386,244L381,246L378,247L373,248L368,249L364,250L357,249L353,247L342,240L338,238L336,236L333,233L331,234L327,234L326,237L326,243L325,248L324,248L324,249L323,253L324,259L325,264L326,268L325,270L322,270L311,270L302,270L294,270L287,270L287,272L286,273L289,277L289,282L290,291L290,304L289,306L287,308L285,309L283,312L283,314L283,316L285,316L288,317L290,319L290,322L290,324L289,329L288,329L287,331L286,333L286,338L286,340L287,346L288,352L290,355L294,357L300,363L303,366L306,369L307,371L307,372L313,378L318,383L321,386L324,387L324,390L324,397L324,397L324,397L326,398L329,398L331,399Z " data-fips="BK00" data-hasc="BA.SR" data-name="Serbian Republic" data-postal="SR" data-varname=""/><path d="M298,202L299,202L299,202L299,200L300,199L301,199L303,198L303,197L303,193L304,190L307,189L311,189L315,189L318,188L319,186L319,181L319,179L321,178L323,178L325,178L327,177L328,174L330,172L332,172L334,172L336,172L338,174L339,176L340,178L342,179L345,180L349,181L353,178L358,173L361,170L362,168L361,163L355,163L348,163L346,162L345,159L342,159L340,159L339,154L338,149L337,144L335,142L331,140L328,140L326,137L325,134L325,131L324,128L322,127L317,127L315,126L314,123L314,120L314,117L314,113L313,111L313,109L313,106L305,104L301,104L298,104L296,100L292,92L289,86L285,83L281,82L275,82L272,83L268,91L266,95L266,98L268,103L272,106L275,109L275,113L275,116L275,120L272,123L268,126L264,128L259,131L256,136L258,139L260,141L262,144L262,147L262,153L262,160L263,164L267,167L269,170L272,169L274,170L274,172L275,175L276,177L278,179L280,179L281,179L282,180L283,183L283,188L285,188L288,188L289,188L289,191L289,192L290,194L290,195L291,195L293,196L296,200L297,202Z " data-fips="BK00" data-hasc="BA.BF" data-name="Zenica-Doboj" data-postal="BF" data-varname="Federation of Bosnia and Herzegovina"/><path d="M315,249L316,247L318,247L320,248L323,248L324,248L324,248L325,248L326,243L326,237L327,234L331,234L333,233L336,236L338,238L342,240L345,240L346,238L347,236L348,234L343,230L338,229L335,227L331,227L328,227L326,224L323,219L323,216L323,213L324,212L329,212L331,213L335,213L336,211L337,209L337,205L337,200L336,195L336,191L337,189L340,187L344,184L344,181L345,180L342,179L340,178L339,176L338,174L336,172L334,172L332,172L330,172L328,174L327,177L325,178L323,178L321,178L319,179L319,181L319,186L318,188L315,189L311,189L307,189L304,190L303,193L303,197L303,198L301,199L300,199L299,200L299,202L299,202L300,203L301,208L301,210L301,212L299,213L297,214L294,216L290,218L286,218L285,220L284,221L284,221L285,223L286,227L287,231L288,233L290,235L293,236L295,236L297,235L299,236L300,236L303,239L305,243L305,245L306,247L309,248L311,250L313,250L314,251Z " data-fips="BK00" data-hasc="BA.BF" data-name="Sarajevo" data-postal="BF" data-varname="Sarajevski"/><path d="M368,249L373,248L378,247L381,246L386,244L389,241L392,238L395,237L396,235L394,231L392,229L389,228L387,228L384,225L382,222L377,221L367,221L362,222L360,225L359,230L357,233L355,235L351,235L349,235L348,234L347,236L346,238L345,240L353,247L357,249L364,250Z " data-fips="BK00" data-hasc="BA.BF" data-name="Bosnian Podrinje" data-postal="BF" data-varname="Bosansko-podrinjski|Goradansko-podrinjski"/><path d="M315,44L318,44L318,42L319,41L320,39L322,37L326,36L328,35L329,31L330,29L327,27L326,25L324,25L316,24L315,23L310,20L308,19L305,19L304,21L304,23L304,25L303,26L301,27L298,28L300,33L301,35L303,35L305,36L307,39L310,43L312,44Z " data-fips="BK00" data-hasc="BA.SR" data-name="Posavina" data-postal="SR" data-varname="Bosanskoposavski|Posavski"/><path d="M367,65L370,62L370,60L371,60L368,58L364,54L363,50L364,48L366,47L366,45L365,43L365,42L365,41L364,40L361,40L360,39L358,38L354,30L353,29L352,29L351,31L350,32L349,32L349,31L348,30L347,28L347,27L345,27L344,28L342,28L340,28L338,29L338,30L339,32L339,34L337,34L334,33L333,32L333,34L333,38L335,40L338,44L342,47L346,48L351,48L355,51L358,54L358,57L360,57L363,57L364,58L365,60L364,63L364,65Z " data-fips="BK00" data-hasc="BA.SR" data-name="Posavina" data-postal="SR" data-varname="Bosanskoposavski|Posavski"/></g></svg>