<?xml version="1.0" ?><!DOCTYPE svg  PUBLIC '-//W3C//DTD SVG 1.1//EN'  'http://www.w3.org/Graphics/SVG/1.1/DTD/svg11.dtd'><svg enable_background="new 0 0 500 401" height="401px" style="stroke-linejoin: round; stroke:#000; fill:#f6f3f0;" version="1.1" viewBox="0 0 500 401" width="500px" xmlns="http://www.w3.org/2000/svg" xmlns:xlink="http://www.w3.org/1999/xlink"><defs><style type="text/css"><![CDATA[path { fill-rule: evenodd; }
#context path { fill: #eee; stroke: #bbb; } ]]></style></defs><metadata><views><view h="401" padding="0" w="500"><proj id="laea" lat0="53.54" lon0="28.047"/><bbox h="60.4" w="71.21" x="963.18" y="967.7"/><llbbox lat0="-90" lat1="90" lon0="-180" lon1="180"/></view></views></metadata><g id="admin1"><path d="M220,372L222,372L225,372L226,372L227,371L228,370L229,369L231,369L231,369L231,363L232,361L233,360L233,358L233,356L233,355L233,354L231,352L231,351L231,350L232,348L232,346L232,345L232,343L235,339L236,338L235,337L234,336L233,335L232,334L232,333L232,329L232,328L232,325L232,323L232,322L233,321L233,320L232,319L227,316L225,315L224,313L223,312L220,312L220,310L219,309L213,305L212,304L214,302L214,301L213,300L211,298L209,296L208,295L209,294L209,293L208,291L209,289L215,289L216,288L216,286L215,285L214,284L211,284L209,283L207,280L208,279L207,278L205,277L204,278L203,278L201,277L196,275L195,273L194,271L193,270L190,271L189,270L189,268L188,267L187,266L186,266L184,266L184,267L183,269L181,269L180,270L179,270L177,268L178,267L179,266L179,264L178,263L176,259L176,258L176,257L177,256L178,255L178,253L179,253L180,252L183,252L183,251L182,249L180,247L176,247L175,246L175,244L174,243L174,242L172,242L171,242L171,241L172,239L172,238L173,237L174,236L177,236L178,235L178,233L177,232L176,230L177,227L173,228L171,228L170,227L169,227L165,226L162,226L161,226L160,226L153,225L153,224L151,224L150,224L149,224L148,223L147,224L146,223L144,224L143,225L143,226L141,228L141,230L141,232L140,233L138,233L138,234L137,236L138,237L139,238L138,239L137,239L136,240L136,241L137,242L138,243L138,244L138,245L138,246L136,249L134,253L132,255L131,256L130,257L129,258L129,259L128,260L126,260L125,260L124,260L123,261L123,262L124,264L123,264L123,266L124,266L125,267L124,268L122,268L121,267L121,266L120,266L119,266L117,267L116,267L115,267L113,267L112,268L111,267L111,266L111,264L111,261L110,262L110,263L108,263L106,262L106,261L106,260L106,259L105,258L104,257L102,257L102,258L101,259L100,259L99,259L96,258L93,257L92,257L89,258L89,259L91,260L91,261L90,262L89,262L88,263L87,265L88,266L88,267L86,268L86,269L85,270L86,271L86,272L86,273L85,274L84,274L83,274L81,274L80,273L78,271L77,271L75,272L74,271L73,270L70,271L68,271L67,270L67,269L66,269L65,269L63,270L62,271L55,270L55,272L54,276L52,278L45,282L36,284L32,286L27,290L21,298L21,299L18,301L17,302L15,307L16,309L16,310L16,311L17,312L20,313L22,313L25,315L26,315L25,316L27,317L28,317L29,317L29,318L30,317L30,319L31,322L32,322L35,322L36,323L36,324L37,325L37,327L38,328L38,331L39,333L38,333L37,334L36,336L36,338L36,340L35,342L34,345L35,346L35,348L35,349L34,350L33,351L32,352L31,353L31,356L31,357L31,358L31,359L31,359L30,360L30,362L30,364L30,365L30,366L31,368L31,369L33,370L34,371L34,369L33,365L33,364L33,363L35,362L40,361L41,361L44,363L45,363L47,364L49,366L50,367L52,367L60,360L66,357L68,355L69,350L70,348L72,345L73,344L74,344L87,344L90,344L91,345L105,343L110,341L112,340L114,340L123,343L139,344L143,343L154,345L158,345L159,346L162,349L164,349L175,350L176,351L176,353L177,354L188,354L198,359L201,359L206,358L211,358L213,358L214,359L214,360L214,362L214,364L215,366L215,367L216,367L218,367L219,367L219,369L218,370L219,372Z " data-fips="BO01" data-hasc="BY.BR" data-name="Brest" data-postal="BR" data-varname="?????|Brestskaya Voblasts'|Brst"/><path d="M386,398L386,396L387,395L387,393L389,392L390,391L390,388L390,387L389,384L388,383L387,382L387,381L388,380L387,379L387,378L387,377L386,376L386,375L386,374L384,373L384,371L384,370L383,369L385,367L385,366L386,365L385,364L386,362L386,361L388,361L388,360L389,358L389,356L388,355L389,354L390,354L390,351L390,350L392,348L392,347L393,346L394,344L395,345L396,344L397,342L397,341L398,341L399,340L400,338L400,337L401,336L402,337L403,336L404,335L403,334L402,334L402,333L402,331L403,330L404,330L411,329L413,329L414,330L416,332L418,332L419,332L419,330L420,329L421,327L425,325L430,325L438,326L444,326L444,323L444,322L443,321L440,319L440,318L439,317L439,315L440,314L439,313L437,313L436,312L435,311L434,309L435,308L435,307L435,306L435,303L434,302L434,300L434,297L434,295L433,294L432,293L433,292L433,290L435,291L435,290L435,289L433,287L432,286L431,283L428,280L428,279L431,277L432,275L432,272L431,270L430,269L429,269L429,267L428,266L427,265L426,265L424,264L422,263L421,261L420,257L419,256L415,253L416,251L419,247L420,247L420,245L420,244L420,244L417,245L415,244L414,244L413,244L413,245L412,244L411,243L410,243L407,243L407,242L408,241L407,240L407,239L407,238L406,236L405,236L404,235L403,234L403,233L402,231L401,230L397,229L396,230L396,231L395,232L391,232L390,231L389,231L388,231L387,232L386,233L384,232L383,232L382,231L376,230L375,230L373,231L372,232L371,232L372,233L371,234L368,235L366,236L365,237L363,237L362,236L360,233L359,232L357,232L357,231L356,230L354,229L353,228L352,228L351,229L350,230L349,230L348,229L347,228L346,229L346,229L345,228L344,227L343,228L342,229L341,231L341,232L341,233L342,235L342,236L343,239L342,239L341,240L342,241L341,243L341,245L342,245L341,246L337,246L337,247L336,249L337,251L337,252L337,253L336,255L338,256L339,257L341,259L340,261L339,261L338,261L337,260L332,260L330,261L329,262L327,263L325,261L324,261L324,262L324,263L322,264L322,262L317,261L314,261L313,262L312,264L311,265L310,265L310,266L309,267L304,267L303,268L304,271L303,272L303,274L296,276L295,277L295,278L297,278L297,280L296,280L294,280L294,281L293,282L290,282L288,283L286,282L286,283L284,283L282,283L279,283L279,283L278,285L278,286L277,286L276,288L276,289L276,291L276,293L276,295L276,297L273,300L262,301L261,300L260,298L259,298L254,297L253,298L254,300L254,301L253,302L252,303L247,303L245,303L240,303L238,302L236,300L236,299L236,298L236,296L235,295L234,296L234,297L233,296L232,295L228,298L228,297L226,297L225,298L224,300L223,300L223,301L223,302L223,303L223,305L219,309L220,310L220,312L223,312L224,313L225,315L227,316L232,319L233,320L233,321L232,322L232,323L232,325L232,328L232,329L232,333L232,334L233,335L234,336L235,337L236,338L235,339L232,343L232,345L232,346L232,348L231,350L231,351L231,352L233,354L233,355L233,356L233,358L233,360L232,361L231,363L231,369L231,369L236,372L240,372L241,374L240,376L239,381L240,382L241,383L242,382L245,378L245,377L245,375L245,374L245,373L246,371L247,370L248,370L249,371L252,374L254,375L259,375L260,375L261,373L263,370L264,369L265,368L266,367L267,367L268,369L268,370L269,372L271,373L272,374L273,377L274,377L275,376L278,374L279,374L280,374L285,375L286,375L287,376L287,378L288,382L289,384L290,385L291,384L292,385L293,388L294,386L294,385L294,382L294,381L295,379L296,377L298,375L299,375L301,374L304,374L305,374L306,373L307,370L308,369L309,369L310,369L313,369L314,370L314,371L316,374L317,376L318,378L318,380L318,383L319,383L320,385L321,386L321,388L322,389L323,390L324,390L326,388L327,387L329,388L330,388L331,387L332,385L333,384L334,383L335,383L336,382L337,381L338,380L339,379L340,379L341,379L342,380L343,381L343,383L344,384L349,384L350,383L351,382L352,381L353,382L356,380L358,380L365,379L366,380L368,381L370,383L370,384L373,385L374,386L374,387L374,389L374,392L376,394L377,394L379,395L380,395L381,397L383,397L384,398L385,399Z " data-fips="BO02" data-hasc="BY.HO" data-name="Homyel'" data-postal="HO" data-varname="??????|Gomel|Gomel'|Homyel'skaya Voblasts'|Homje"/><path d="M286,283L286,282L288,283L290,282L293,282L294,281L294,280L296,280L297,280L297,278L295,278L295,277L296,276L303,274L303,272L304,271L303,268L304,267L309,267L310,266L310,265L311,265L312,264L313,262L314,261L317,261L322,262L322,264L324,263L324,262L324,261L325,261L327,263L329,262L330,261L332,260L337,260L338,261L339,261L340,261L341,259L339,257L338,256L336,255L337,253L337,252L337,251L336,249L337,247L337,246L341,246L342,245L341,245L341,243L342,241L341,240L342,239L343,239L342,236L342,235L341,233L341,232L341,231L342,229L343,228L344,227L345,228L346,229L346,229L347,228L348,229L349,230L350,230L351,229L352,228L353,228L354,229L356,230L357,231L357,232L359,232L360,233L362,236L363,237L365,237L366,236L368,235L371,234L372,233L371,232L372,232L373,231L375,230L376,230L382,231L383,232L384,232L386,233L387,232L388,231L389,231L390,231L391,232L395,232L396,231L396,230L397,229L401,230L402,231L403,233L403,234L404,235L405,236L406,236L407,238L407,239L407,240L408,241L407,242L407,243L410,243L411,243L412,244L413,245L413,244L414,244L415,244L417,245L420,244L420,244L420,244L420,243L421,239L422,237L425,237L427,237L428,237L430,236L431,236L432,236L436,237L439,237L440,239L441,242L442,244L444,243L447,245L448,245L449,245L450,244L452,244L456,245L458,245L459,244L461,243L461,242L462,241L464,241L466,240L467,238L468,236L471,235L472,234L473,231L474,230L474,228L472,227L473,226L474,226L475,226L477,226L478,226L479,225L479,224L483,223L484,223L485,223L484,220L485,214L483,212L482,213L481,212L481,210L480,210L478,211L477,210L476,209L475,208L473,207L471,206L470,205L469,203L468,201L468,200L469,199L472,197L472,195L472,194L471,193L470,193L469,193L466,192L464,190L462,189L456,188L453,186L452,186L442,189L438,188L436,188L436,186L438,183L439,181L439,176L440,174L440,173L440,172L439,167L438,166L436,167L436,166L435,164L434,163L432,163L431,163L427,161L424,161L423,160L422,159L414,154L413,152L413,150L412,145L412,144L411,143L410,142L409,138L408,136L406,136L406,136L405,136L404,136L404,136L402,137L400,138L401,139L400,140L399,139L398,139L396,138L395,138L394,138L393,139L393,140L392,140L389,140L386,140L385,139L383,139L382,140L382,142L379,143L379,144L380,146L379,147L378,148L377,149L375,150L374,150L373,149L372,148L371,147L371,146L370,147L369,148L368,149L366,149L363,149L363,148L364,146L365,145L365,143L362,145L361,145L360,145L359,146L359,147L358,146L356,145L356,144L355,144L354,145L354,146L352,148L352,150L353,151L353,152L352,152L349,152L349,151L346,151L346,149L345,149L345,147L343,147L342,148L343,149L342,149L337,150L335,150L331,149L330,149L329,151L329,152L328,152L326,153L326,154L325,155L324,157L325,158L325,160L325,161L324,162L324,163L324,166L323,167L323,168L324,169L324,170L323,171L322,172L322,173L320,174L320,176L320,177L321,178L321,179L321,181L321,183L321,184L321,185L322,186L322,187L322,188L323,188L323,189L322,190L323,190L324,191L325,191L326,191L327,192L326,193L325,194L323,196L324,196L325,197L324,198L323,199L322,199L322,198L321,198L320,199L319,201L318,201L314,204L313,203L312,203L310,202L309,203L307,205L307,206L308,207L307,209L306,209L302,210L302,212L302,213L301,215L299,214L298,212L298,211L298,210L297,209L296,210L296,209L294,209L293,209L289,209L288,208L286,207L285,208L285,209L285,210L285,211L284,212L283,213L283,214L281,215L280,216L279,215L278,216L276,217L276,218L275,219L275,220L275,222L275,225L275,226L273,228L274,229L277,230L277,231L278,233L277,234L275,234L274,235L273,236L267,235L266,236L265,234L264,233L263,233L262,233L260,234L261,236L262,238L264,239L266,240L267,242L270,242L271,243L272,242L273,241L274,241L275,243L276,245L276,246L279,246L280,245L281,245L281,246L281,247L282,251L281,254L282,255L282,256L280,256L279,259L278,261L280,263L279,264L278,266L277,268L277,269L276,271L270,277L271,278L276,281L279,283L282,283L284,283Z " data-fips="BO04" data-hasc="BY.MA" data-name="Mahilyow" data-postal="MA" data-varname="???????|Mahiljow|Mogilev|Mahilyowskaya Voblasts'"/><path d="M325,155L326,154L326,153L328,152L329,152L329,151L330,149L331,149L335,150L337,150L342,149L343,149L342,148L343,147L345,147L345,149L346,149L346,151L349,151L349,152L352,152L353,152L353,151L352,150L352,148L354,146L354,145L355,144L356,144L356,145L358,146L359,147L359,146L360,145L361,145L362,145L365,143L365,145L364,146L363,148L363,149L366,149L368,149L369,148L370,147L371,146L371,147L372,148L373,149L374,150L375,150L377,149L378,148L379,147L380,146L379,144L379,143L382,142L382,140L383,139L385,139L386,140L389,140L392,140L393,140L393,139L394,138L395,138L396,138L398,139L399,139L400,140L401,139L400,138L402,137L404,136L404,136L405,136L406,136L406,136L406,136L406,134L402,134L401,133L402,129L402,128L404,125L405,122L403,120L402,118L398,118L397,118L397,117L396,115L389,110L386,109L386,108L386,106L387,104L388,103L388,102L388,100L388,98L389,97L392,96L392,95L393,93L392,92L392,91L393,89L395,90L396,90L396,88L396,86L395,84L394,83L395,82L395,81L394,80L394,79L393,78L391,76L390,75L389,72L389,71L387,70L386,70L386,69L386,67L386,65L388,63L390,61L391,60L391,58L390,57L389,56L389,55L389,54L390,53L391,51L390,51L391,48L390,45L389,43L387,42L385,43L383,44L382,43L381,41L380,40L379,39L377,39L376,39L375,38L375,36L375,35L375,34L374,33L369,30L369,29L369,28L360,25L359,24L357,23L356,23L354,25L352,26L347,24L345,24L343,24L341,26L340,27L340,28L339,30L338,31L334,30L333,31L329,33L325,38L324,38L323,38L321,34L318,32L318,31L317,30L318,28L319,25L319,22L320,21L321,20L322,20L321,18L320,17L319,16L312,14L310,13L308,11L305,11L303,10L301,11L298,13L295,14L294,16L294,18L293,18L289,17L288,16L288,14L287,12L286,10L285,7L284,6L283,5L280,5L274,6L273,6L271,9L270,9L269,9L268,8L267,6L264,3L263,1L261,0L258,1L257,2L255,3L253,4L251,5L251,6L250,8L247,10L246,11L246,13L244,16L240,19L238,23L238,26L238,28L237,29L236,30L230,29L229,29L227,28L226,26L225,27L222,30L221,29L218,27L217,26L215,26L209,27L208,27L205,30L203,35L202,36L198,38L197,38L195,37L193,37L192,38L191,39L192,41L192,43L192,46L191,47L190,49L189,50L188,51L188,53L189,56L186,59L185,62L184,64L184,66L185,67L188,68L191,68L199,69L200,70L200,72L200,73L198,74L197,74L195,75L193,76L192,78L192,80L191,83L191,84L190,84L184,82L183,83L182,83L177,82L175,82L173,85L173,87L173,89L171,92L170,94L170,94L173,95L174,96L174,98L175,99L176,99L177,98L178,98L179,97L179,96L180,95L181,95L182,96L183,96L185,97L188,97L189,97L190,97L191,97L192,96L193,96L195,97L196,97L196,98L197,98L199,97L205,96L206,97L206,98L208,98L213,98L213,97L213,95L214,94L218,95L221,94L222,95L222,97L221,99L222,100L223,102L224,103L224,104L225,105L228,105L229,105L230,106L233,110L233,111L234,113L238,113L241,115L241,116L241,118L241,119L242,121L242,122L244,123L244,124L247,125L249,124L250,123L251,123L251,124L251,125L252,126L258,124L260,125L261,124L262,124L263,123L265,123L267,123L268,125L269,126L269,127L271,128L272,129L273,130L274,131L276,131L277,126L278,125L279,123L283,122L284,124L285,124L286,122L287,124L287,126L286,127L287,128L290,129L291,129L292,128L295,129L295,130L296,130L297,130L298,128L297,127L297,126L298,125L304,126L305,126L306,125L307,123L308,123L310,123L309,124L310,124L311,124L313,123L313,124L314,125L314,127L314,128L316,128L318,128L319,127L321,127L322,127L324,127L324,126L325,125L326,126L326,128L325,130L324,131L325,132L325,133L324,134L323,136L323,142L323,144L322,145L321,146L321,147L322,148L323,150L322,151L321,153L320,154L321,156L322,157Z " data-fips="BO07" data-hasc="BY.VI" data-name="Vitsyebsk" data-postal="VI" data-varname="???????|Vicebsk|Vitebsk|Vitsyebskaya Voblasts'|Witebsk"/><path d="M84,274L85,274L86,273L86,272L86,271L85,270L86,269L86,268L88,267L88,266L87,265L88,263L89,262L90,262L91,261L91,260L89,259L89,258L92,257L93,257L96,258L99,259L100,259L101,259L102,258L102,257L104,257L105,258L106,259L106,260L106,261L106,262L108,263L110,263L110,262L111,261L111,264L111,266L111,267L112,268L113,267L115,267L116,267L117,267L119,266L120,266L121,266L121,267L122,268L124,268L125,267L124,266L123,266L123,264L124,264L123,262L123,261L124,260L125,260L126,260L128,260L129,259L129,258L130,257L131,256L132,255L134,253L136,249L138,246L138,245L138,244L138,243L137,242L136,241L136,240L137,239L138,239L139,238L138,237L137,236L138,234L138,233L140,233L141,232L141,230L141,228L143,226L143,225L144,224L146,223L147,224L148,223L149,224L150,224L151,224L153,224L153,225L160,226L161,226L162,226L165,226L169,227L170,227L171,228L173,228L177,227L186,223L185,222L185,221L185,220L185,217L185,216L184,215L183,216L183,214L184,213L184,211L183,210L182,208L182,206L181,205L179,204L176,202L176,201L176,200L175,199L173,198L172,197L172,196L172,195L172,194L172,193L173,193L174,192L174,191L171,189L170,188L170,187L170,185L171,185L175,184L176,183L177,182L177,180L178,179L180,179L180,178L181,176L180,175L178,175L177,174L176,170L173,171L173,172L169,171L168,170L168,169L168,166L169,165L168,164L167,164L166,165L164,164L164,163L164,161L166,158L168,158L171,156L172,156L175,156L180,155L181,154L183,152L184,151L184,149L188,142L188,139L190,138L190,137L190,136L190,134L189,133L189,132L189,131L191,132L192,131L192,128L193,128L193,127L193,126L193,124L192,124L190,124L189,123L189,122L188,120L188,119L187,118L187,116L187,115L187,114L185,113L183,109L181,107L180,107L179,106L178,105L178,104L178,102L178,101L177,99L178,98L177,98L176,99L175,99L174,98L174,96L173,95L170,94L170,94L169,95L169,96L167,97L160,98L158,97L156,98L155,99L155,100L154,101L153,102L152,103L151,105L152,107L151,108L150,109L149,110L149,112L149,116L148,117L148,119L148,120L148,122L149,124L149,126L149,128L148,129L147,130L144,131L144,132L143,134L143,136L143,138L143,139L142,141L139,144L138,145L138,148L139,149L140,149L142,149L145,148L146,148L147,149L147,151L149,152L149,153L150,154L150,155L150,156L149,160L149,161L147,162L145,162L144,163L143,163L138,163L137,162L136,161L136,159L138,158L138,157L137,156L138,155L139,155L136,150L135,149L134,150L132,152L131,153L127,153L123,152L122,153L121,157L120,159L118,161L116,162L114,162L110,161L108,160L105,161L104,162L104,163L103,164L102,165L102,166L103,168L103,169L104,171L103,173L102,175L98,175L97,174L96,172L95,173L92,174L89,175L84,180L82,180L80,180L79,180L77,180L76,179L75,176L74,175L72,174L71,174L67,176L66,176L62,176L61,175L59,174L55,176L54,176L53,176L52,176L49,177L47,178L45,177L41,174L39,174L39,176L40,178L40,180L40,182L41,187L41,188L42,190L42,195L43,201L46,214L48,219L49,221L50,229L51,231L52,233L52,234L53,235L53,236L54,237L55,238L55,239L55,241L54,242L54,243L53,244L53,246L53,247L55,249L55,251L55,253L55,255L55,256L54,258L55,259L55,260L55,270L62,271L63,270L65,269L66,269L67,269L67,270L68,271L70,271L73,270L74,271L75,272L77,271L78,271L80,273L81,274L83,274Z " data-fips="BO03" data-hasc="BY.HR" data-name="Hrodna" data-postal="HR" data-varname="??????|Grodno|Hrodzenskaya Voblasts'"/><path d="M223,305L223,303L223,302L223,301L223,300L224,300L225,298L226,297L228,297L228,298L232,295L233,296L234,297L234,296L235,295L236,296L236,298L236,299L236,300L238,302L240,303L245,303L247,303L252,303L253,302L254,301L254,300L253,298L254,297L259,298L260,298L261,300L262,301L273,300L276,297L276,295L276,293L276,291L276,289L276,288L277,286L278,286L278,285L279,283L279,283L276,281L271,278L270,277L276,271L277,269L277,268L278,266L279,264L280,263L278,261L279,259L280,256L282,256L282,255L281,254L282,251L281,247L281,246L281,245L280,245L279,246L276,246L276,245L275,243L274,241L273,241L272,242L271,243L270,242L267,242L266,240L264,239L262,238L261,236L260,234L262,233L263,233L264,233L265,234L266,236L267,235L273,236L274,235L275,234L277,234L278,233L277,231L277,230L274,229L273,228L275,226L275,225L275,222L275,220L275,219L276,218L276,217L278,216L279,215L280,216L281,215L283,214L283,213L284,212L285,211L285,210L285,209L285,208L286,207L288,208L289,209L293,209L294,209L296,209L296,210L297,209L298,210L298,211L298,212L299,214L301,215L302,213L302,212L302,210L306,209L307,209L308,207L307,206L307,205L309,203L310,202L312,203L313,203L314,204L318,201L319,201L320,199L321,198L322,198L322,199L323,199L324,198L325,197L324,196L323,196L325,194L326,193L327,192L326,191L325,191L324,191L323,190L322,190L323,189L323,188L322,188L322,187L322,186L321,185L321,184L321,183L321,181L321,179L321,178L320,177L320,176L320,174L322,173L322,172L323,171L324,170L324,169L323,168L323,167L324,166L324,163L324,162L325,161L325,160L325,158L324,157L322,157L321,156L320,154L321,153L322,151L323,150L322,148L321,147L321,146L322,145L323,144L323,142L323,136L324,134L325,133L325,132L324,131L325,130L326,128L326,126L325,125L324,126L324,127L322,127L321,127L319,127L318,128L316,128L314,128L314,127L314,125L313,124L313,123L311,124L310,124L309,124L310,123L308,123L307,123L306,125L305,126L304,126L298,125L297,126L297,127L298,128L297,130L296,130L295,130L295,129L292,128L291,129L290,129L287,128L286,127L287,126L287,124L286,122L285,124L284,124L283,122L279,123L278,125L277,126L276,131L274,131L273,130L272,129L271,128L269,127L269,126L268,125L267,123L265,123L263,123L262,124L261,124L260,125L258,124L252,126L251,125L251,124L251,123L250,123L249,124L247,125L244,124L244,123L242,122L242,121L241,119L241,118L241,116L241,115L238,113L234,113L233,111L233,110L230,106L229,105L228,105L225,105L224,104L224,103L223,102L222,100L221,99L222,97L222,95L221,94L218,95L214,94L213,95L213,97L213,98L208,98L206,98L206,97L205,96L199,97L197,98L196,98L196,97L195,97L193,96L192,96L191,97L190,97L189,97L188,97L185,97L183,96L182,96L181,95L180,95L179,96L179,97L178,98L177,99L178,101L178,102L178,104L178,105L179,106L180,107L181,107L183,109L185,113L187,114L187,115L187,116L187,118L188,119L188,120L189,122L189,123L190,124L192,124L193,124L193,126L193,127L193,128L192,128L192,131L191,132L189,131L189,132L189,133L190,134L190,136L190,137L190,138L188,139L188,142L184,149L184,151L183,152L181,154L180,155L175,156L172,156L171,156L168,158L166,158L164,161L164,163L164,164L166,165L167,164L168,164L169,165L168,166L168,169L168,170L169,171L173,172L173,171L176,170L177,174L178,175L180,175L181,176L180,178L180,179L178,179L177,180L177,182L176,183L175,184L171,185L170,185L170,187L170,188L171,189L174,191L174,192L173,193L172,193L172,194L172,195L172,196L172,197L173,198L175,199L176,200L176,201L176,202L179,204L181,205L182,206L182,208L183,210L184,211L184,213L183,214L183,216L184,215L185,216L185,217L185,220L185,221L185,222L186,223L177,227L176,230L177,232L178,233L178,235L177,236L174,236L173,237L172,238L172,239L171,241L171,242L172,242L174,242L174,243L175,244L175,246L176,247L180,247L182,249L183,251L183,252L180,252L179,253L178,253L178,255L177,256L176,257L176,258L176,259L178,263L179,264L179,266L178,267L177,268L179,270L180,270L181,269L183,269L184,267L184,266L186,266L187,266L188,267L189,268L189,270L190,271L193,270L194,271L195,273L196,275L201,277L203,278L204,278L205,277L207,278L208,279L207,280L209,283L211,284L214,284L215,285L216,286L216,288L215,289L209,289L208,291L209,293L209,294L208,295L209,296L211,298L213,300L214,301L214,302L212,304L213,305L219,309Z " data-fips="BO06" data-hasc="BY.MI" data-name="Minsk" data-postal="MI" data-varname="?????|??????? ???????|Minsk Oblast|Minskaya Voblasts'"/></g></svg>