<?xml version="1.0" ?><!DOCTYPE svg  PUBLIC '-//W3C//DTD SVG 1.1//EN'  'http://www.w3.org/Graphics/SVG/1.1/DTD/svg11.dtd'><svg enable_background="new 0 0 500 401" height="401px" style="stroke-linejoin: round; stroke:#000; fill:#f6f3f0;" version="1.1" viewBox="0 0 500 401" width="500px" xmlns="http://www.w3.org/2000/svg" xmlns:xlink="http://www.w3.org/1999/xlink"><defs><style type="text/css"><![CDATA[path { fill-rule: evenodd; }
#context path { fill: #eee; stroke: #bbb; } ]]></style></defs><metadata><views><view h="401" padding="0" w="500"><proj id="laea" lat0="46.861" lon0="7.908"/><bbox h="24.4" w="38.38" x="983.31" y="988.37"/><llbbox lat0="-90" lat1="90" lon0="-180" lon1="180"/></view></views></metadata><g id="admin1"><path d="M3,305L8,304L13,304L17,306L20,304L26,298L34,293L36,290L35,286L33,287L32,285L31,282L30,279L25,280L20,276L19,275L17,278L17,280L16,284L16,286L16,287L15,289L13,289L11,289L10,289L3,292L0,294L0,296L1,298L3,300L3,302L2,303L0,307Z " data-fips="SZ07" data-hasc="CH.GE" data-name="Genve" data-postal="GE" data-varname="Cenevre|Genebra|Geneve|Geneva|Genevra|Genf|Ginebra|Ginevra"/><path d="M109,143L113,140L114,140L116,140L117,140L119,138L120,138L121,137L123,136L123,134L124,133L125,132L125,131L126,130L130,131L135,130L136,128L135,127L136,126L137,125L137,123L137,122L147,124L149,123L150,123L153,122L154,121L156,120L157,119L158,118L159,117L160,119L161,119L173,120L179,118L179,118L177,117L177,116L179,114L177,113L176,111L175,110L174,110L171,110L166,109L164,108L164,107L163,106L156,101L155,100L152,100L149,100L144,102L143,101L142,100L139,99L137,98L136,95L138,91L135,91L134,91L133,90L130,89L125,90L122,90L121,89L120,89L119,89L118,90L116,90L116,92L117,94L118,96L117,98L115,99L113,100L111,101L110,104L108,105L106,107L104,110L104,112L117,111L119,110L121,111L122,113L123,114L122,116L121,117L120,117L119,118L117,120L116,120L114,122L113,126L113,130L106,135L103,138L100,142L100,142L102,142L105,143L106,144L107,144Z " data-fips="SZ26" data-hasc="CH.JU" data-name="Jura" data-postal="JU" data-varname="Giura"/><path d="M104,184L108,181L112,178L120,171L121,168L122,167L122,164L123,163L126,162L127,161L128,160L128,159L128,156L128,156L128,155L127,154L124,152L122,152L122,150L105,155L105,154L105,152L106,151L106,149L106,148L106,147L105,145L104,144L102,142L100,142L100,142L93,148L90,149L90,152L88,153L88,154L85,155L84,156L82,159L84,162L81,165L74,171L62,174L57,177L55,183L55,184L57,187L57,189L57,191L56,192L56,192L58,192L65,191L66,191L68,190L73,187L76,186L78,185L81,182L88,179L88,181L88,182L88,183L88,184L89,185L90,186L90,188L90,190L92,194Z " data-fips="SZ12" data-hasc="CH.NE" data-name="Neuchtel" data-postal="NE" data-varname="Neuenburg"/><path d="M271,141L270,134L271,133L272,130L269,125L270,123L271,123L273,122L275,119L276,118L276,116L273,117L271,115L271,114L271,112L271,111L268,109L268,108L271,105L271,103L270,101L269,99L266,93L266,91L266,90L266,86L268,84L270,81L273,77L273,76L273,76L266,76L262,75L261,74L260,73L259,71L257,70L255,70L253,70L247,71L246,72L245,73L243,73L241,74L240,75L239,76L238,78L237,78L232,80L218,79L217,77L216,75L209,75L208,74L206,77L204,79L202,80L198,81L198,81L202,83L203,84L203,86L204,87L205,87L208,85L208,84L209,82L209,82L211,82L213,84L213,85L216,90L217,91L218,92L221,92L221,94L221,95L222,96L224,96L225,98L225,99L226,101L227,104L228,105L229,105L230,106L231,109L230,111L229,112L227,116L225,117L218,116L217,115L212,120L209,125L208,126L208,130L210,132L217,131L219,131L222,130L223,129L223,127L223,126L223,125L226,125L227,126L230,131L237,128L239,129L241,130L244,130L245,131L244,132L245,133L246,133L247,134L249,132L252,128L252,127L254,124L256,124L258,126L259,127L259,128L260,129L261,131L265,143L266,144L267,146L269,147Z " data-fips="SZ01" data-hasc="CH.AG" data-name="Aargau" data-postal="AG" data-varname="Argovia|Argvia|Argovie"/><path d="M228,204L230,204L232,204L234,201L234,198L233,197L233,195L235,190L235,188L236,186L237,185L239,184L240,185L242,182L245,180L245,178L244,176L246,175L252,174L252,172L253,171L255,170L257,170L260,170L261,170L262,170L264,170L266,169L268,168L269,170L273,170L274,169L275,168L276,168L278,169L282,168L283,167L282,165L278,161L273,160L272,161L271,160L270,160L270,158L271,157L271,156L272,155L273,153L276,151L275,149L273,149L269,147L267,146L266,144L265,143L261,131L260,129L259,128L259,127L258,126L256,124L254,124L252,127L252,128L249,132L247,134L246,133L245,133L244,132L245,131L244,130L241,130L239,129L237,128L230,131L227,126L226,125L223,125L223,126L223,127L223,129L222,130L219,131L217,131L210,132L213,139L213,140L214,141L214,143L214,144L215,149L214,151L214,152L214,153L214,157L213,161L214,162L215,163L216,165L216,168L219,168L220,169L222,169L221,174L221,176L220,177L220,178L219,179L219,180L218,181L216,181L215,181L214,182L214,184L214,185L213,188L212,189L213,193L213,194L215,196L222,202L224,204L225,205L227,205Z " data-fips="SZ11" data-hasc="CH.LU" data-name="Lucerne" data-postal="LU" data-varname="Lucerna|Luzern"/><path d="M274,204L274,204L271,202L271,201L270,200L270,199L269,198L269,197L268,194L268,192L267,191L268,190L269,191L269,192L269,192L272,191L273,191L273,192L274,193L279,193L279,189L279,188L279,187L278,185L280,183L286,180L287,179L288,178L289,173L289,171L281,172L278,169L276,168L275,168L274,169L273,170L269,170L268,168L266,169L264,170L262,170L261,170L260,170L257,170L255,170L253,171L252,172L252,174L255,173L256,173L261,175L261,176L260,178L260,179L260,180L261,181L263,182L264,184L264,189L263,190L263,194L263,195L263,199L266,202L268,203L271,206Z " data-fips="SZ13" data-hasc="CH.NW" data-name="Nidwalden" data-postal="NW" data-varname="Nidvaldo|Nidwald|Unterwalden-le-Bas|Nidwaldo"/><path d="M133,350L136,349L143,347L146,345L148,344L156,345L160,344L166,339L170,338L172,337L173,336L174,334L176,333L188,336L189,337L191,338L193,342L195,342L197,342L198,342L203,344L206,344L209,344L210,343L210,342L211,340L213,335L216,333L224,332L225,331L226,331L228,328L229,326L229,321L229,319L230,317L230,316L232,315L234,315L235,314L240,310L242,305L242,299L239,293L236,290L236,288L237,287L239,285L242,283L247,282L249,281L254,273L258,272L259,271L260,270L261,268L261,266L259,265L260,263L263,261L266,259L270,258L270,257L270,256L270,255L271,254L272,252L272,251L273,251L275,250L277,249L276,242L274,240L273,237L273,236L273,234L273,232L274,230L274,228L274,226L274,225L273,225L272,225L269,228L269,229L268,230L268,233L267,236L266,238L265,239L263,240L262,241L257,244L254,245L248,247L247,246L247,245L244,244L241,243L240,243L231,241L228,241L224,243L224,244L224,245L225,246L224,248L221,250L217,252L214,253L213,254L212,254L210,253L197,263L196,263L188,260L186,259L185,260L185,261L183,262L179,264L177,265L177,266L179,267L177,268L173,270L172,270L171,270L168,269L163,269L161,270L160,271L157,273L153,274L152,273L152,272L152,271L151,271L147,272L147,273L146,275L142,277L141,278L139,281L139,283L138,284L137,287L135,289L133,291L132,291L129,295L126,297L121,299L120,298L119,296L117,293L110,280L109,279L109,276L108,275L106,275L105,274L105,273L105,271L105,270L104,268L103,266L102,265L101,266L95,265L93,265L93,266L92,269L89,272L89,274L91,278L95,282L97,286L93,294L91,300L90,305L91,308L100,310L102,312L101,313L101,314L100,316L100,317L100,319L100,321L99,322L100,322L101,323L102,322L103,321L104,321L107,322L115,331L115,333L116,336L117,339L118,341L118,342L123,348L126,349L129,350Z " data-fips="SZ22" data-hasc="CH.VS" data-name="Valais" data-postal="VS" data-varname="Vallais|Vallese|Wallis"/><path d="M373,128L372,125L372,124L371,123L370,122L370,121L369,120L370,116L370,115L372,114L373,112L373,111L374,110L374,108L374,106L386,111L390,111L389,109L389,105L390,103L391,102L392,101L392,100L392,99L394,98L395,99L395,100L395,102L395,104L400,101L399,100L396,98L396,97L398,97L399,97L398,95L396,94L395,93L393,93L392,93L390,95L384,98L382,98L382,99L382,100L381,102L379,102L377,102L373,103L368,104L366,104L362,104L360,105L360,106L359,108L358,109L357,111L358,114L359,114L360,114L359,116L358,117L358,118L359,122L358,123L359,125L360,125L366,126L369,127L371,128Z " data-fips="SZ02" data-hasc="CH.AR" data-name="Appenzell Ausserrhoden" data-postal="AR" data-varname="Appenzell Ausser-Rhoden|Appenzell Outer Rhodes|Appenzell dadens|Appenzell Rhodes Extrieures|Appenzello Esterno"/><path d="M386,187L387,186L388,185L390,182L390,180L390,178L391,177L392,175L393,173L394,171L396,171L395,169L391,164L390,161L389,158L389,156L390,154L392,153L393,151L393,147L392,145L391,142L390,140L390,134L392,129L393,126L397,120L400,115L401,114L401,111L402,110L406,104L407,102L407,95L404,92L400,90L396,85L387,88L386,88L384,87L385,86L384,85L378,89L377,91L376,90L373,86L373,84L373,84L372,82L370,82L369,83L368,83L367,84L366,85L365,86L367,86L369,85L369,88L369,89L368,90L367,91L365,91L364,92L362,91L358,91L354,89L352,87L352,89L350,90L348,90L347,90L345,90L344,90L343,89L340,89L339,89L338,90L337,90L336,91L336,93L340,95L340,97L339,98L338,99L337,99L335,99L335,100L333,103L332,104L331,107L330,108L329,108L329,109L332,113L333,117L333,119L332,119L331,121L330,122L329,123L329,125L328,126L321,129L320,129L316,128L314,130L312,134L318,135L328,134L332,135L331,136L331,138L332,139L338,141L343,146L345,147L357,149L356,157L356,159L352,162L354,164L356,163L358,163L359,162L360,163L361,164L363,167L363,169L363,170L363,175L363,176L363,177L364,180L366,183L367,183L382,185L384,186L385,187Z M377,130L375,129L374,129L373,128L371,128L369,127L366,126L360,125L359,125L358,123L359,122L358,118L358,117L359,116L360,114L359,114L358,114L357,111L358,109L359,108L360,106L360,105L362,104L366,104L368,104L373,103L377,102L379,102L381,102L382,100L382,99L382,98L384,98L390,95L392,93L393,93L395,93L396,94L398,95L400,98L399,100L400,101L395,104L394,103L392,103L389,105L389,109L390,111L388,120L386,124L384,126L383,127L381,128Z " data-fips="SZ15" data-hasc="CH.SG" data-name="Sankt Gallen" data-postal="SG" data-varname="Saint-Gall|San Gallo|Son Gagl"/><path d="M344,354L346,349L347,346L345,343L344,342L342,342L341,341L340,340L339,337L337,335L337,334L341,331L339,325L339,323L342,321L345,320L346,320L347,318L347,316L347,312L347,310L349,307L357,302L357,302L355,300L354,299L351,296L349,294L348,293L347,291L347,289L347,287L346,285L345,283L345,282L346,280L347,279L346,278L346,277L346,275L348,272L348,271L348,266L349,265L349,263L349,262L349,261L348,260L348,258L348,257L348,254L347,252L345,252L344,252L342,251L341,249L341,247L340,243L340,242L340,240L341,239L341,238L341,237L342,235L342,234L340,232L339,232L338,231L334,231L333,229L332,228L331,229L330,229L329,230L328,232L328,233L328,234L327,235L321,237L315,239L306,238L302,236L298,238L288,236L287,236L285,237L285,240L284,242L277,249L275,250L273,251L272,251L272,252L271,254L270,255L270,256L270,257L270,258L272,258L275,258L276,260L277,264L277,269L277,273L275,282L275,286L275,290L276,292L278,294L281,295L284,297L288,300L295,310L296,311L298,312L303,315L306,314L308,313L309,313L310,314L311,315L313,315L316,315L318,315L321,319L319,323L316,327L314,331L313,333L315,333L317,333L324,337L325,338L326,341L328,344L329,346L330,348L330,351L330,353L329,355L329,358L333,356L337,358L340,358Z " data-fips="SZ20" data-hasc="CH.TI" data-name="Ticino" data-postal="TI" data-varname="Tesino|Tessin"/><path d="M329,201L335,199L338,198L339,196L340,195L341,194L341,193L342,192L342,190L343,189L344,189L346,189L348,190L349,191L350,191L354,188L355,188L357,188L359,187L361,184L364,180L363,177L363,176L363,175L363,170L363,169L363,167L361,164L360,163L359,162L358,163L356,163L354,164L352,162L356,159L356,157L357,149L345,147L343,146L338,141L333,149L333,151L332,153L332,155L332,156L331,158L330,160L329,161L327,162L326,163L325,165L327,166L330,171L329,172L330,173L333,175L333,176L332,178L332,180L331,185L332,187L332,188L331,190L328,191L327,191L326,192L323,194L323,196L323,199L326,199L328,200L328,201Z " data-fips="SZ08" data-hasc="CH.GL" data-name="Glarus" data-postal="GL" data-varname="Glaris|Glarona|Glaruna"/><path d="M358,300L358,298L359,297L360,296L362,295L363,294L364,292L365,286L369,279L369,276L369,274L367,268L367,266L368,264L367,262L366,261L365,259L366,255L367,251L369,249L375,248L377,249L377,251L381,254L382,253L383,252L383,251L384,250L386,249L387,250L388,265L388,268L389,269L391,271L392,271L394,277L396,279L398,281L401,281L414,281L416,280L417,278L417,277L417,275L417,273L418,272L420,272L422,273L424,274L426,273L433,269L438,268L440,268L443,268L445,270L446,273L446,276L447,280L449,282L453,285L455,288L455,292L458,292L463,290L466,288L468,285L466,282L461,277L460,276L460,274L460,273L460,271L461,269L463,267L464,266L465,262L464,260L462,260L457,259L454,258L452,256L454,252L453,252L452,251L452,249L452,248L452,246L452,243L452,242L453,240L456,238L456,236L458,231L458,230L459,229L470,226L472,226L474,227L474,229L474,232L474,234L479,236L481,237L481,238L483,238L484,239L488,238L496,240L498,239L499,238L499,237L500,233L500,229L499,226L497,224L492,223L490,221L489,218L489,217L490,215L491,213L492,211L491,209L492,208L494,207L495,205L495,202L494,200L493,198L496,195L496,194L497,192L497,187L497,184L498,178L497,175L496,174L492,171L490,168L488,166L487,166L484,168L481,171L479,175L480,178L477,178L475,178L473,178L471,181L471,183L471,184L471,186L469,187L465,190L462,191L460,191L455,189L452,188L448,184L436,181L433,179L432,177L432,175L432,173L432,170L433,168L432,167L431,166L431,165L410,158L408,158L403,159L401,159L398,159L392,158L389,158L389,156L389,158L390,161L391,164L395,169L396,171L394,171L393,173L392,175L391,177L390,178L390,180L390,182L388,185L387,186L386,187L385,187L384,186L382,185L367,183L366,183L361,184L359,187L357,188L355,188L354,188L350,191L349,191L348,190L346,189L344,189L343,189L342,190L342,192L341,193L341,194L340,195L339,196L338,198L335,199L329,201L328,201L328,200L326,199L323,199L322,200L321,201L320,202L318,203L319,205L318,206L317,207L316,209L316,211L316,212L314,212L312,211L310,212L309,213L306,217L305,217L304,218L302,218L302,219L301,221L301,222L300,224L300,227L300,228L300,229L301,230L302,231L303,233L303,234L302,236L306,238L315,239L321,237L327,235L328,234L328,233L328,232L329,230L330,229L331,229L332,228L333,229L334,231L338,231L339,232L340,232L342,234L342,235L341,237L341,238L341,239L340,240L340,242L340,243L341,247L341,249L342,251L344,252L345,252L347,252L348,254L348,257L348,258L348,260L349,261L349,262L349,263L349,265L348,266L348,271L348,272L346,275L346,277L346,278L347,279L346,280L345,282L345,283L346,285L347,287L347,289L347,291L348,293L349,294L351,296L354,299L355,300L357,302L357,302Z " data-fips="SZ09" data-hasc="CH.GR" data-name="Graubnden" data-postal="GR" data-varname="Graubnden|Grigioni|Grischun|Grisons"/><path d="M279,66L280,66L282,65L284,64L289,63L290,63L292,64L292,64L293,62L295,60L296,58L297,57L301,57L301,60L301,63L302,63L303,65L304,65L309,65L310,64L311,64L312,63L313,63L314,60L315,60L316,59L320,61L318,60L318,58L320,58L317,55L314,53L311,53L310,56L311,57L305,58L305,57L304,55L304,54L303,53L303,52L305,49L304,47L303,47L302,48L301,47L300,46L299,44L298,43L297,42L296,43L295,47L294,48L293,47L293,45L292,43L292,42L290,41L288,41L286,42L287,44L285,45L279,46L277,47L276,49L275,50L275,53L274,54L271,56L270,57L270,58L270,59L270,61L270,63L272,63L275,65L277,67Z " data-fips="SZ16" data-hasc="CH.SH" data-name="Schaffhausen" data-postal="SH" data-varname="Schaffhouse|Schaffusa|Sciaffusa"/><path d="M289,78L290,74L290,74L288,75L287,73L285,76L285,77L286,78L287,79L288,79Z " data-fips="SZ16" data-hasc="CH.SH" data-name="Schaffhausen" data-postal="SH" data-varname="Schaffhouse|Schaffusa|Sciaffusa"/><path d="M322,186L325,184L332,180L332,178L333,176L333,175L330,173L329,172L330,171L327,166L325,165L326,163L327,162L329,161L330,160L331,158L332,156L332,155L332,153L333,151L333,149L332,139L331,138L331,136L332,135L328,134L318,135L312,134L307,135L303,138L302,139L301,140L301,141L304,144L302,146L301,149L298,152L297,153L296,154L294,154L292,155L290,155L289,155L288,154L282,155L280,150L278,150L277,150L276,151L273,153L272,155L271,156L271,157L270,158L270,160L271,160L272,161L273,160L278,161L282,165L283,167L282,168L281,172L289,171L293,171L293,172L294,174L294,176L295,177L297,177L300,178L302,178L303,179L304,180L305,181L306,181L307,180L309,180L311,179L312,180L313,180L316,180L318,181L318,182L319,183L320,184L320,186L321,187Z " data-fips="SZ17" data-hasc="CH.SZ" data-name="Schwyz" data-postal="SZ" data-varname=""/><path d="M330,108L331,107L332,104L333,103L335,100L335,99L337,99L338,99L339,98L340,97L340,95L336,93L336,91L337,90L338,90L339,89L340,89L343,89L344,90L345,90L347,90L348,90L350,90L352,89L352,87L354,89L358,91L362,91L364,92L365,91L367,91L368,90L369,89L369,88L369,85L367,86L365,86L366,85L367,84L368,83L369,83L370,82L372,82L373,84L373,84L373,86L376,90L377,91L378,89L384,85L385,86L384,87L386,88L387,88L396,85L395,82L365,64L361,63L357,63L355,61L349,61L337,60L335,61L334,62L330,64L325,64L323,64L320,61L316,59L315,60L314,60L313,63L315,62L315,64L316,66L316,68L315,69L314,70L313,71L311,70L310,70L308,70L307,71L308,72L309,73L310,73L318,77L318,78L318,79L319,82L320,82L324,84L324,85L323,89L324,90L323,91L322,92L323,93L324,94L325,97L326,98L327,99L326,100L326,101L325,102L325,103L329,108Z " data-fips="SZ19" data-hasc="CH.TG" data-name="Thurgau" data-postal="TG" data-varname="Thurgovie|Turgovia|Turgvia"/><path d="M284,242L285,240L285,237L287,236L288,236L298,238L302,236L303,234L303,233L302,231L301,230L300,229L300,228L300,227L300,224L301,222L301,221L302,219L302,218L304,218L305,217L306,217L309,213L310,212L312,211L314,212L316,212L316,211L316,209L317,207L318,206L319,205L318,203L320,202L321,201L322,200L323,199L323,196L323,194L326,192L327,191L328,191L331,190L332,188L332,187L331,185L325,184L322,186L321,187L320,186L320,184L319,183L318,182L318,181L316,180L313,180L312,180L311,179L309,180L307,180L306,181L305,181L304,180L303,179L302,178L300,178L297,177L295,177L294,176L294,174L293,172L293,171L289,171L289,173L288,178L287,179L286,180L280,183L278,185L279,187L279,188L279,189L279,193L281,193L282,194L282,195L281,196L281,197L280,199L280,200L280,202L280,203L281,204L280,206L277,207L276,210L276,211L276,212L277,213L277,215L277,216L277,218L277,219L275,219L273,219L272,220L272,222L272,223L273,225L274,225L274,226L274,228L274,230L273,232L273,234L273,236L273,237L274,240L276,242Z " data-fips="SZ21" data-hasc="CH.UR" data-name="Uri" data-postal="UR" data-varname=""/><path d="M301,141L301,140L302,139L303,138L307,135L312,134L314,130L316,128L320,129L321,129L328,126L329,125L329,123L330,122L331,121L332,119L333,119L333,117L332,113L329,109L329,108L325,103L325,102L326,101L326,100L327,99L326,98L325,97L324,94L323,93L322,92L323,91L324,90L323,89L324,85L324,84L320,82L319,82L318,79L318,78L318,77L310,73L309,73L308,72L307,71L308,70L310,70L311,70L313,71L314,70L315,69L316,68L316,66L315,64L315,62L313,63L312,63L311,64L310,64L309,65L304,65L303,65L302,63L301,63L301,60L301,57L297,57L296,58L295,60L293,62L292,64L292,64L293,64L292,67L291,66L290,67L290,68L290,69L290,71L290,72L290,74L289,78L288,79L287,79L286,78L285,77L285,76L287,73L287,73L286,71L284,69L281,70L277,72L276,76L273,76L273,77L270,81L268,84L266,86L266,90L266,91L266,93L269,99L270,101L271,103L271,105L268,108L268,109L271,111L271,112L271,114L271,115L273,117L276,116L276,118L275,119L273,122L271,123L270,123L269,125L272,130L273,132L274,134L278,135L279,135L280,135L282,134L285,134L290,134L292,137L294,138L295,140L296,141L296,142L300,143Z " data-fips="SZ25" data-hasc="CH.ZH" data-name="Zrich" data-postal="ZH" data-varname="Turitg|Zurigo|Zrih|Zurique"/><path d="M292,155L294,154L296,154L297,153L298,152L301,149L302,146L304,144L300,143L296,142L296,141L295,140L294,138L292,137L290,134L285,134L282,134L280,135L279,135L278,135L274,134L273,132L272,130L271,133L270,134L271,141L273,149L275,149L276,151L277,150L278,150L280,150L282,155L288,154L289,155L290,155Z " data-fips="SZ24" data-hasc="CH.ZG" data-name="Zug" data-postal="ZG" data-varname="Zoug|Zugo"/><path d="M119,257L120,256L120,255L122,254L123,252L125,251L128,251L129,250L130,249L132,247L133,246L134,245L140,243L144,241L148,237L150,237L151,237L152,236L153,234L153,232L152,227L154,226L156,226L158,226L159,225L159,224L159,220L159,219L158,218L158,218L156,217L156,216L154,215L152,214L152,214L151,212L151,210L151,206L151,203L153,198L153,196L152,194L152,193L154,192L154,193L156,193L157,192L157,191L157,187L148,186L142,184L140,184L140,184L141,182L141,181L141,179L141,178L141,177L140,175L142,174L144,172L143,171L143,169L142,169L139,170L133,172L125,173L125,178L126,179L129,185L129,186L128,187L127,186L126,187L126,190L125,191L124,192L122,193L122,191L120,189L119,188L119,187L112,178L108,181L111,186L112,187L114,189L115,188L116,188L116,189L116,190L116,192L117,194L118,194L117,195L115,197L115,198L114,200L114,202L111,206L110,207L109,208L110,209L111,209L111,211L107,215L104,221L103,223L102,223L100,223L99,224L97,225L96,225L96,227L96,229L96,231L96,233L96,234L96,235L96,236L97,236L98,236L99,236L100,236L102,236L103,236L104,238L105,238L106,239L106,240L103,243L102,243L101,243L100,242L98,242L97,244L98,247L99,248L100,249L102,249L104,247L105,246L106,246L108,246L114,251L115,253L115,255L115,256L116,257L117,258Z M93,213L94,213L94,212L95,211L95,209L93,209L92,210L91,211L90,211L91,213L92,214Z M97,213L99,211L101,212L103,212L104,212L105,210L105,209L105,208L103,207L102,205L101,206L100,208L99,209L98,210L97,211L95,212L95,213Z M100,204L102,203L103,203L104,204L105,204L107,204L108,203L110,201L109,200L108,200L108,196L109,195L109,194L110,193L110,192L108,191L107,190L108,189L109,189L109,189L104,184L92,194L92,198L93,199L94,201L94,201L95,201L95,203L96,203L97,204L99,204Z " data-fips="SZ06" data-hasc="CH.FR" data-name="Fribourg" data-postal="FR" data-varname="Freiburg|Friburg|Friburgo"/><path d="M126,297L129,295L132,291L133,291L135,289L137,287L138,284L139,283L139,281L141,278L142,277L142,273L143,272L142,271L140,269L139,268L140,264L140,262L140,261L140,259L141,258L142,257L143,255L143,252L144,251L145,249L145,248L145,246L145,245L145,244L145,243L144,242L144,241L140,243L134,245L133,246L132,247L130,249L129,250L128,251L125,251L123,252L122,254L120,255L120,256L119,257L117,258L116,257L115,256L115,255L115,253L114,251L108,246L106,246L105,246L104,247L102,249L100,249L99,248L98,247L97,244L98,242L100,242L101,243L102,243L103,243L106,240L106,239L105,238L104,238L103,236L102,236L100,236L99,236L98,236L97,236L96,236L96,235L96,234L96,233L96,231L96,229L96,227L96,225L97,225L99,224L100,223L102,223L103,223L104,221L107,215L111,211L111,209L110,209L109,208L110,207L111,206L114,202L114,200L115,198L115,197L117,195L118,194L117,194L116,192L116,190L116,189L116,188L115,188L114,189L112,187L111,186L108,181L104,184L109,189L109,189L108,189L107,190L108,191L110,192L110,193L109,194L109,195L108,196L108,200L109,200L110,201L108,203L107,204L105,204L104,204L103,203L102,203L100,204L99,204L97,204L96,203L95,203L95,201L94,201L94,201L93,199L92,198L92,194L90,190L90,188L90,186L89,185L88,184L88,183L88,182L88,181L88,179L81,182L78,185L76,186L73,187L68,190L66,191L65,191L58,192L56,192L56,192L56,193L55,194L53,200L54,202L55,203L55,205L54,207L53,208L52,209L48,211L45,214L44,215L36,219L21,232L20,234L20,237L23,240L18,244L14,251L13,252L13,253L13,255L13,256L13,257L13,258L13,259L12,261L18,264L19,266L21,269L21,270L19,275L20,276L25,280L30,279L29,278L30,276L32,272L36,268L39,265L43,264L46,264L50,263L59,257L67,256L74,256L90,261L92,261L93,263L93,265L95,265L101,266L102,265L103,266L104,268L105,270L105,271L105,273L105,274L106,275L108,275L109,276L109,279L110,280L117,293L119,296L120,298L121,299Z M92,214L91,213L90,211L91,211L92,210L93,209L95,209L95,211L94,212L94,213L93,213Z M95,213L95,212L97,211L98,210L99,209L100,208L101,206L102,205L103,207L105,208L105,209L105,210L104,212L103,212L101,212L99,211L97,213Z M124,192L125,191L126,190L126,187L127,186L128,187L129,186L129,185L126,179L125,178L125,173L120,171L112,178L119,187L119,188L120,189L122,191L122,193Z " data-fips="SZ06" data-hasc="CH.VD" data-name="Vaud" data-postal="VD" data-varname="Vad|Waadt|Waadtland"/><path d="M205,114L206,111L208,110L210,110L211,109L213,108L214,107L215,105L216,105L217,105L220,104L222,103L222,102L222,100L221,99L222,98L222,96L221,95L221,94L221,92L218,92L217,91L216,90L213,85L213,84L211,82L209,82L209,82L208,84L208,85L205,87L204,87L203,86L203,84L202,83L198,81L198,81L193,82L191,82L189,81L189,84L188,85L187,84L186,82L185,82L183,84L181,82L180,82L179,82L175,79L171,82L174,84L174,85L172,87L171,87L171,88L172,89L173,89L176,90L177,91L177,96L170,97L168,96L167,95L167,91L167,91L165,90L164,92L165,93L165,95L165,96L164,97L164,97L166,99L166,99L167,99L168,101L168,102L167,103L163,106L164,107L164,108L166,109L168,106L170,106L172,107L174,107L176,106L176,105L178,104L181,103L181,102L182,101L184,100L186,99L187,95L186,94L185,94L186,92L190,91L191,91L196,94L196,95L195,97L194,97L193,99L193,101L193,102L192,103L189,104L188,104L188,106L188,108L189,110L190,111L194,110L196,111L199,112L200,113L200,114L202,115L204,115Z M159,100L160,100L161,100L159,100L155,100L156,101Z " data-fips="SZ05" data-hasc="CH.BS" data-name="Basel-Landschaft" data-postal="BS" data-varname=""/><path d="M146,275L147,273L147,272L151,271L152,271L152,272L152,273L153,274L157,273L160,271L161,270L163,269L168,269L171,270L172,270L173,270L177,268L179,267L177,266L177,265L179,264L183,262L185,261L185,260L186,259L188,260L196,263L197,263L210,253L212,254L213,254L214,253L217,252L221,250L224,248L225,246L224,245L224,244L224,243L228,241L231,241L240,243L241,243L244,244L247,245L247,246L248,247L254,245L257,244L262,241L263,240L265,239L266,238L267,236L268,233L268,230L269,229L269,228L272,225L273,225L272,223L272,222L272,220L273,219L275,219L277,219L277,218L277,216L277,215L277,213L276,212L276,211L276,210L277,207L274,206L272,207L271,206L268,203L263,205L260,208L258,208L257,208L255,208L249,207L248,207L246,208L244,208L243,208L242,207L238,204L236,204L232,204L230,204L228,204L227,205L225,205L224,204L222,202L215,196L213,194L213,193L212,189L213,188L214,185L214,184L214,182L215,181L216,181L218,181L219,180L219,179L220,178L220,177L221,176L221,174L222,169L220,169L219,168L216,168L216,165L215,163L214,162L213,161L214,157L214,153L214,152L214,151L215,149L214,144L214,143L214,141L213,140L213,139L210,132L208,130L208,126L204,127L203,127L201,128L198,128L197,127L193,122L189,124L182,125L184,128L184,129L184,130L186,132L188,133L190,136L191,139L192,140L192,141L191,142L190,143L190,144L188,145L183,145L180,143L179,143L177,145L174,149L173,150L170,152L169,153L170,154L170,156L169,157L167,157L166,155L166,154L165,154L162,155L161,154L160,153L159,151L160,150L162,150L163,151L165,150L166,149L166,147L167,145L169,145L170,145L172,143L171,142L170,141L170,139L168,140L167,140L166,141L165,142L164,143L163,144L161,143L161,142L160,140L159,140L158,139L157,138L157,137L156,135L165,131L164,130L167,128L169,127L170,126L171,125L173,124L177,122L178,122L178,121L179,118L173,120L161,119L160,119L159,117L158,118L157,119L156,120L154,121L153,122L150,123L149,123L147,124L137,122L137,123L137,125L136,126L135,127L136,128L135,130L130,131L126,130L125,131L125,132L124,133L123,134L123,136L121,137L120,138L119,138L117,140L116,140L114,140L113,140L109,143L107,144L106,144L105,143L102,142L104,144L105,145L106,147L106,148L106,149L106,151L105,152L105,154L105,155L122,150L122,152L124,152L127,154L128,155L128,156L128,156L128,159L128,160L127,161L126,162L123,163L122,164L122,167L121,168L120,171L125,173L133,172L139,170L142,169L143,169L143,171L144,172L142,174L140,175L141,177L141,178L141,179L141,181L141,182L140,184L140,184L142,184L148,186L157,187L157,191L157,192L156,193L154,193L154,192L152,193L152,194L153,196L153,198L151,203L151,206L151,210L151,212L152,214L152,214L154,215L156,216L156,217L158,218L158,218L159,219L159,220L159,224L159,225L158,226L156,226L154,226L152,227L153,232L153,234L152,236L151,237L150,237L148,237L144,241L144,242L145,243L145,244L145,245L145,246L145,248L145,249L144,251L143,252L143,255L142,257L141,258L140,259L140,261L140,262L140,264L139,268L140,269L142,271L143,272L142,273L142,277Z M180,118L180,118L180,116L180,115L179,114L177,116L177,117L179,118Z " data-fips="SZ05" data-hasc="CH.BE" data-name="Bern" data-postal="BE" data-varname="Berna|Berne"/><path d="M189,84L189,81L185,79L188,79L189,78L190,74L188,74L182,76L179,77L175,79L179,82L180,82L181,82L183,84L185,82L186,82L187,84L188,85Z " data-fips="SZ03" data-hasc="CH.BS" data-name="Basel-Stadt" data-postal="BS" data-varname="Ble-Ville|Basel-City|Basel-Town|Basilea-Citad|Basilea Ciudad|Basilea citt|Basilia cidade"/><path d="M169,157L170,156L170,154L169,153L170,152L173,150L174,149L177,145L179,143L180,143L183,145L188,145L190,144L190,143L191,142L192,141L192,140L191,139L190,136L188,133L186,132L184,130L184,129L184,128L182,125L189,124L193,122L197,127L198,128L201,128L203,127L204,127L208,126L209,125L212,120L217,115L218,116L225,117L227,116L229,112L230,111L231,109L230,106L229,105L228,105L227,104L226,101L225,99L225,98L224,96L222,96L222,98L221,99L222,100L222,102L222,103L220,104L217,105L216,105L215,105L214,107L213,108L211,109L210,110L208,110L206,111L205,114L204,115L202,115L200,114L200,113L199,112L196,111L194,110L190,111L189,110L188,108L188,106L188,104L189,104L192,103L193,102L193,101L193,99L194,97L195,97L196,95L196,94L191,91L190,91L186,92L185,94L186,94L187,95L186,99L184,100L182,101L181,102L181,103L178,104L176,105L176,106L174,107L172,107L170,106L168,106L166,109L171,110L174,110L175,110L176,111L177,113L179,114L180,115L180,116L180,118L180,118L179,118L179,118L178,121L178,122L177,122L173,124L171,125L170,126L169,127L167,128L164,130L165,131L156,135L157,137L157,138L158,139L159,140L160,140L161,142L161,143L163,144L164,143L165,142L166,141L167,140L168,140L170,139L170,141L171,142L172,143L170,145L169,145L167,145L166,147L166,149L165,150L163,151L162,150L160,150L159,151L160,153L161,154L162,155L165,154L166,154L166,155L167,157Z M168,102L168,101L167,99L166,99L166,99L164,97L164,97L163,99L161,100L167,103Z M177,96L177,91L176,90L173,89L172,89L171,91L169,92L168,92L167,91L167,95L168,96L170,97Z " data-fips="SZ18" data-hasc="" data-name="Solothurn" data-postal="SO" data-varname="Solothurn"/><path d="M260,208L263,205L268,203L266,202L263,199L263,195L263,194L263,190L264,189L264,184L263,182L261,181L260,180L260,179L260,178L261,176L261,175L256,173L255,173L252,174L246,175L244,176L245,178L245,180L242,182L240,185L239,184L237,185L236,186L235,188L235,190L233,195L233,197L234,198L234,201L232,204L236,204L238,204L242,207L243,208L244,208L246,208L248,207L249,207L255,208L257,208L258,208Z M280,206L281,204L280,203L280,202L280,200L280,199L281,197L281,196L282,195L282,194L281,193L279,193L274,193L273,192L273,191L272,191L269,192L269,192L269,191L268,190L267,191L268,192L268,194L269,197L269,198L270,199L270,200L271,201L271,202L274,204L274,204L271,206L272,207L274,206L277,207Z " data-fips="SZ14" data-hasc="CH.NW" data-name="Obwalden" data-postal="NW" data-varname="Obvaldo|Obwald|Unterwalden-le-Haut|Obwaldo|Sursilvania"/><path d="M381,128L383,127L384,126L386,124L388,120L390,111L386,111L374,106L374,108L374,110L373,111L373,112L372,114L370,115L370,116L369,120L370,121L370,122L371,123L372,124L372,125L373,128L374,129L375,129L377,130Z M392,103L394,103L395,104L395,102L395,100L395,99L394,98L392,99L392,100L392,101L391,102L390,103L389,105Z M400,98L399,97L398,97L396,97L396,98L399,100Z " data-fips="SZ10" data-hasc="CH.AI" data-name="Appenzell Innerrhoden" data-postal="AI" data-varname="Appenzell Inner-Rhoden|Appenzell Inner Rhodes|Appenzell dador|Appenzell Rhodes Intrieures|Appenzello Interno"/></g></svg>