<?xml version="1.0" ?><!DOCTYPE svg  PUBLIC '-//W3C//DTD SVG 1.1//EN'  'http://www.w3.org/Graphics/SVG/1.1/DTD/svg11.dtd'><svg enable_background="new 0 0 500 401" height="401px" style="stroke-linejoin: round; stroke:#000; fill:#f6f3f0;" version="1.1" viewBox="0 0 500 401" width="500px" xmlns="http://www.w3.org/2000/svg" xmlns:xlink="http://www.w3.org/1999/xlink"><defs><style type="text/css"><![CDATA[path { fill-rule: evenodd; }
#context path { fill: #eee; stroke: #bbb; } ]]></style></defs><metadata><views><view h="401" padding="0" w="500"><proj id="laea" lat0="35.043" lon0="33.219"/><bbox h="6.95" w="18.47" x="990.43" y="998.21"/><llbbox lat0="-90" lat1="90" lon0="-180" lon1="180"/></view></views></metadata><g id="admin1"><path d="M276,264L280,263L287,261L301,258L308,253L309,244L313,249L318,248L319,248L327,244L331,243L336,241L338,240L340,240L343,236L346,233L348,230L352,229L361,229L365,228L366,226L368,220L370,219L372,217L373,215L372,208L373,202L374,196L376,191L378,187L380,185L385,179L391,177L391,172L386,169L383,168L380,168L374,165L371,164L368,162L366,164L364,164L361,162L358,161L355,163L353,168L348,170L345,168L343,164L343,156L341,153L339,156L337,158L337,160L338,163L339,164L340,165L340,166L342,168L339,169L338,170L338,171L338,173L335,180L334,181L333,181L331,181L330,180L329,180L328,180L327,180L322,183L321,183L320,183L318,182L315,180L314,180L313,180L312,181L312,182L312,184L312,186L310,190L309,192L308,192L306,192L301,191L299,192L296,193L294,193L293,193L291,192L290,191L289,191L287,191L280,196L274,202L271,204L269,205L268,205L268,203L267,202L266,201L265,201L264,200L258,202L257,202L256,202L255,202L254,201L252,199L252,199L250,198L248,198L245,199L243,200L238,203L237,204L236,206L235,215L236,217L239,218L240,218L244,218L257,223L259,224L260,225L268,235L271,239L273,243L274,244L274,245L272,256L272,258L274,266Z M415,176L416,175L416,174L414,173L413,173L412,173L411,172L409,171L407,172L408,173L410,173L410,175L411,175L413,175L413,176Z M403,167L405,166L405,163L403,163L402,163L401,165L401,167L402,168Z " data-fips="CY03" data-hasc="CY.LA" data-name="Larnaca" data-postal="LA" data-varname="Larnaka|Lrnax"/><path d="M237,204L238,203L243,200L245,199L248,198L250,198L252,199L252,199L254,201L255,202L256,202L257,202L258,202L264,200L265,201L266,201L267,202L268,203L268,205L269,205L271,204L274,202L280,196L287,191L289,191L290,191L291,192L293,193L294,193L296,193L299,192L301,191L306,192L308,192L309,192L310,190L312,186L312,184L312,182L312,181L313,180L314,180L315,180L318,182L320,183L321,183L322,183L327,180L328,180L329,180L330,180L331,181L333,181L334,181L335,180L338,173L338,171L338,170L339,169L342,168L340,166L340,165L339,164L338,163L337,160L337,158L335,159L334,169L332,174L328,176L325,176L322,172L321,168L323,162L324,154L324,148L325,142L324,137L324,134L320,130L317,127L315,125L314,120L314,116L313,115L308,115L301,116L296,116L294,117L289,123L285,125L285,128L284,130L281,130L275,129L271,126L268,123L264,118L262,117L258,117L254,115L251,114L247,114L240,119L238,121L237,123L233,125L226,125L219,123L212,122L209,123L206,126L200,129L195,132L190,137L185,142L181,144L178,144L173,141L172,139L169,138L167,139L165,142L164,144L161,146L154,148L151,148L149,147L147,144L147,141L146,136L143,134L138,131L132,128L125,126L121,123L118,120L117,115L115,108L115,107L109,106L106,105L104,110L103,114L99,116L96,117L92,116L88,114L86,110L83,111L81,110L80,111L88,120L89,121L91,122L91,124L92,126L93,128L95,129L96,130L97,131L98,133L98,143L97,144L97,145L95,145L94,145L92,146L92,147L92,149L93,151L95,155L97,157L101,159L103,161L108,171L109,173L110,174L109,177L110,178L110,181L110,182L110,183L110,185L109,186L108,189L108,191L107,192L106,192L105,193L105,194L106,197L107,198L108,199L109,201L112,204L113,204L114,205L115,203L116,202L117,203L117,204L118,205L120,204L123,202L125,201L126,200L126,199L127,198L129,198L135,201L135,196L136,195L136,193L137,191L137,190L137,189L137,187L139,187L140,186L141,186L142,185L143,183L144,183L146,183L150,186L151,187L153,187L155,187L157,187L159,187L160,188L164,190L166,191L167,191L173,191L176,190L178,189L188,183L190,182L191,181L192,182L194,183L197,186L198,188L199,190L200,192L210,199L212,201L213,203L214,204L214,205L216,205L219,205L221,204L223,204L225,204L236,206Z " data-fips="CY04" data-hasc="CY.NI" data-name="Nicosia" data-postal="NI" data-varname="Lefkosa|Levkosa|Lefkosa|Nicosie|Nikosia"/><path d="M101,274L100,273L100,272L99,271L100,269L101,268L103,267L105,264L110,261L111,260L113,258L115,256L118,254L119,253L120,251L120,247L119,245L118,244L117,242L117,241L118,239L123,232L124,231L125,230L126,230L127,229L128,228L132,219L134,217L135,215L137,215L138,214L139,212L140,211L140,209L136,205L135,201L129,198L127,198L126,199L126,200L125,201L123,202L120,204L118,205L117,204L117,203L116,202L115,203L114,205L113,204L112,204L109,201L108,199L107,198L106,197L105,194L105,193L106,192L107,192L108,191L108,189L109,186L110,185L110,183L110,182L110,181L110,178L109,177L110,174L109,173L108,171L103,161L101,159L97,157L95,155L93,151L92,149L92,147L92,146L94,145L95,145L97,145L97,144L98,143L98,133L97,131L96,130L95,129L93,128L92,126L91,124L91,122L89,121L88,120L80,111L81,110L79,109L77,108L76,109L75,111L75,112L70,115L67,121L63,131L57,140L49,148L39,153L27,154L22,151L18,148L10,139L4,135L1,137L0,143L1,151L3,156L9,167L10,173L10,180L11,184L16,193L13,197L14,201L15,205L17,209L20,211L26,215L29,218L35,235L35,239L36,240L38,250L39,252L50,261L55,263L60,265L71,267L77,268L82,270L96,279L100,281Z " data-fips="CY06" data-hasc="CY.PA" data-name="Paphos" data-postal="PA" data-varname="Baf|Pafos"/><path d="M443,182L445,179L447,179L448,178L457,175L461,174L476,172L479,173L482,177L489,179L494,179L496,179L500,179L497,177L495,174L493,171L490,166L489,163L487,156L482,152L479,148L477,150L476,151L473,152L470,150L467,148L462,148L457,150L454,151L451,150L448,148L445,147L440,143L438,145L436,147L433,150L429,151L427,149L425,147L422,149L419,151L418,155L424,158L426,160L426,167L429,170L434,170L434,176L432,177L428,180L431,181L436,180L442,183Z " data-fips="CY01" data-hasc="CY.FA" data-name="Famagusta" data-postal="FA" data-varname="Famgusta|Ammochostos|Famagosta|Famagouste|Gazimagosa|Gazimagusa|Magusa"/><path d="M190,291L196,290L203,290L206,285L219,273L223,270L227,269L247,267L266,269L270,268L274,266L272,258L272,256L274,245L274,244L273,243L271,239L268,235L260,225L259,224L257,223L244,218L240,218L239,218L236,217L235,215L225,204L223,204L221,204L219,205L216,205L214,205L214,204L213,203L212,201L210,199L200,192L199,190L198,188L197,186L194,183L192,182L191,181L190,182L188,183L178,189L176,190L173,191L167,191L166,191L164,190L160,188L159,187L157,187L155,187L153,187L151,187L150,186L146,183L144,183L143,183L142,185L141,186L140,186L139,187L137,187L137,189L137,190L137,191L136,193L136,195L135,196L135,201L136,205L140,209L140,211L139,212L138,214L137,215L135,215L134,217L132,219L128,228L127,229L126,230L125,230L124,231L123,232L118,239L117,241L117,242L118,244L119,245L120,247L120,251L119,253L118,254L115,256L113,258L111,260L110,261L105,264L103,267L101,268L100,269L99,271L100,272L100,273L101,274L100,281L107,284L118,286L130,285L133,284L133,281L133,279L135,276L138,277L144,278L145,273L149,273L150,271L153,268L155,269L160,268L161,273L162,275L169,281L175,283L176,279L180,281L181,283L183,279L186,276L195,277L196,287L191,287L189,285L186,288L187,292L188,294Z " data-fips="CY05" data-hasc="CY.LI" data-name="Limassol" data-postal="LI" data-varname="Limasol"/></g></svg>