<?xml version="1.0" ?><!DOCTYPE svg  PUBLIC '-//W3C//DTD SVG 1.1//EN'  'http://www.w3.org/Graphics/SVG/1.1/DTD/svg11.dtd'><svg enable_background="new 0 0 500 401" height="401px" style="stroke-linejoin: round; stroke:#000; fill:#f6f3f0;" version="1.1" viewBox="0 0 500 401" width="500px" xmlns="http://www.w3.org/2000/svg" xmlns:xlink="http://www.w3.org/1999/xlink"><defs><style type="text/css"><![CDATA[path { fill-rule: evenodd; }
#context path { fill: #eee; stroke: #bbb; } ]]></style></defs><metadata><views><view h="401" padding="0" w="500"><proj id="laea" lat0="49.743" lon0="15.338"/><bbox h="30.63" w="53.73" x="974.29" y="983.93"/><llbbox lat0="-90" lat1="90" lon0="-180" lon1="180"/></view></views></metadata><g id="admin1"><path d="M100,295L101,294L102,294L102,294L102,293L104,289L106,286L108,284L108,283L108,281L108,280L108,278L109,276L111,275L112,275L113,274L115,270L117,269L118,268L117,267L116,266L116,264L117,263L117,262L117,261L118,259L119,258L120,257L120,256L121,254L123,251L123,249L123,247L122,246L123,244L123,242L123,240L122,237L121,234L121,233L122,232L122,230L121,228L121,227L120,226L120,225L120,222L120,221L119,220L118,220L118,219L118,217L118,216L117,215L118,214L117,212L117,211L119,210L120,209L122,209L123,208L126,206L125,204L124,204L124,202L125,200L125,199L125,197L126,194L126,193L126,192L128,191L128,190L127,187L127,186L126,185L122,181L122,181L119,180L118,179L116,177L115,176L114,176L112,176L111,176L110,176L108,175L105,172L104,171L102,171L101,171L99,171L98,172L97,171L97,170L98,169L98,167L97,165L95,166L94,166L91,165L90,164L89,163L88,162L88,162L86,160L86,159L87,157L87,156L87,154L85,152L85,151L85,149L85,148L85,147L85,145L85,143L85,141L85,139L84,137L84,136L82,135L80,135L78,135L76,134L75,133L74,132L74,131L69,130L68,129L65,127L65,128L62,128L56,123L54,123L53,124L51,124L50,124L49,124L48,125L46,127L45,128L41,127L35,128L32,128L30,130L29,131L29,132L29,134L28,134L27,135L25,136L24,137L21,141L20,141L20,142L19,143L19,145L17,146L17,147L16,150L17,151L17,152L17,153L16,154L15,154L14,153L13,149L13,148L12,147L11,145L12,144L12,143L11,142L9,142L8,142L7,140L7,138L7,137L5,136L0,136L2,137L2,138L2,140L2,142L1,143L0,144L1,145L4,148L6,150L7,151L7,152L7,154L7,157L7,158L7,160L8,161L9,162L10,163L11,164L11,165L11,167L22,174L23,175L26,175L27,176L27,178L27,180L27,181L30,183L31,184L31,186L30,188L28,191L28,193L26,192L26,194L26,196L25,198L24,199L21,200L20,202L20,203L21,205L23,207L24,208L25,209L27,210L28,211L29,212L29,214L29,215L28,217L29,218L31,219L32,220L32,221L32,223L32,225L33,226L33,227L34,228L36,229L37,230L37,231L37,235L37,237L38,239L39,240L43,242L44,243L47,249L48,250L49,251L54,252L55,252L55,250L56,250L59,251L60,251L61,252L63,255L64,255L65,256L65,257L65,258L67,261L68,262L75,272L76,274L77,276L79,277L84,277L85,278L86,279L88,282L91,285L92,287L92,291L93,292L95,295L98,296L99,297Z " data-fips="EZ09" data-hasc="CZ.KK" data-name="Karlovarsk" data-postal="KK" data-varname="Carlsbad| Karlovy Vary"/><path d="M163,342L164,341L168,339L170,338L171,333L172,332L174,335L178,336L179,336L182,335L183,335L183,336L184,337L186,337L187,338L188,340L189,340L190,339L191,336L191,332L191,329L193,327L197,323L197,321L198,320L198,318L199,317L200,317L204,317L208,319L209,319L210,317L209,315L209,314L210,312L211,305L211,302L211,298L211,295L212,292L212,291L214,291L218,292L224,293L225,294L225,296L225,297L224,299L226,299L232,297L233,295L234,293L235,294L236,295L239,295L241,295L244,297L248,298L249,299L253,302L255,303L255,303L255,302L256,300L257,297L257,295L256,294L255,294L254,294L253,293L252,292L251,291L251,290L252,289L254,286L255,285L255,284L256,283L258,283L259,282L258,280L254,277L251,278L250,278L246,277L244,277L240,274L240,273L240,272L240,270L239,269L238,268L234,267L233,266L234,265L236,261L237,259L237,258L239,258L240,257L241,256L241,253L241,251L243,250L243,249L242,247L243,246L242,244L241,243L241,242L241,240L242,239L242,238L245,234L243,231L243,230L243,229L244,227L245,226L244,225L243,224L241,222L239,222L236,222L226,224L224,224L222,224L220,224L219,224L217,224L213,223L212,224L212,225L211,226L210,227L210,228L208,229L207,229L206,228L206,227L206,226L204,225L203,226L202,225L201,224L201,224L198,223L197,222L196,221L195,223L194,224L194,228L193,229L190,230L189,231L187,232L185,232L183,231L182,231L174,231L173,231L172,230L171,230L169,230L165,232L163,231L163,230L162,230L161,229L161,228L159,228L158,228L156,228L155,229L154,230L149,230L147,230L146,230L145,230L144,229L142,229L141,229L140,230L139,232L136,233L135,234L133,234L132,234L131,233L129,233L127,233L126,232L121,234L122,237L123,240L123,242L123,244L122,246L123,247L123,249L123,251L121,254L120,256L120,257L119,258L118,259L117,261L117,262L117,263L116,264L116,266L117,267L118,268L117,269L115,270L113,274L112,275L111,275L109,276L108,278L108,280L108,281L108,283L108,284L106,286L104,289L102,293L102,294L102,294L104,294L105,295L106,296L107,297L109,296L109,299L110,301L111,303L112,304L114,305L116,305L117,306L119,308L123,316L124,317L127,318L128,319L130,320L131,322L137,325L138,327L139,328L140,329L140,330L139,331L138,332L139,334L141,337L143,338L154,339L162,342Z " data-fips="EZ01" data-hasc="CZ.CK" data-name="Jihocesk" data-postal="CK" data-varname="Budweis|Budejovick|Ceskobudejovick|South Bohemian"/><path d="M361,334L363,332L363,331L367,319L369,316L371,314L372,313L373,310L373,309L377,306L381,305L384,306L393,310L395,310L396,309L397,308L399,308L400,308L403,310L405,311L420,305L421,304L423,299L425,298L427,297L428,298L430,298L431,296L431,295L432,291L432,289L433,287L435,286L437,286L441,286L443,285L445,283L447,280L447,277L447,272L439,268L438,267L437,266L435,263L433,261L433,260L433,259L432,257L431,256L430,255L430,254L429,253L428,252L425,250L424,249L424,247L426,244L426,243L425,242L424,241L421,239L413,238L412,238L411,238L410,239L411,240L411,242L410,243L409,243L404,243L402,244L401,245L400,247L399,248L398,248L394,246L392,245L391,244L389,243L387,243L387,245L387,247L388,249L388,250L388,251L385,255L384,256L383,255L382,253L381,251L380,250L380,248L380,247L380,245L380,244L380,243L381,242L382,241L382,240L383,238L382,237L382,236L377,228L375,228L371,228L366,226L365,224L363,221L361,219L361,218L360,217L359,217L357,216L356,215L355,215L353,214L351,213L349,216L348,218L348,220L346,221L343,219L341,219L339,219L336,219L334,218L330,218L329,219L329,221L328,222L320,223L318,223L316,222L313,220L310,219L309,217L308,216L307,216L304,214L302,213L301,212L299,212L297,212L296,212L295,211L294,210L292,209L291,209L290,208L288,208L288,208L287,210L285,210L284,212L282,212L280,212L279,212L279,213L277,216L276,217L275,218L273,220L273,221L272,222L272,226L272,227L271,228L267,229L266,230L266,231L266,232L265,233L264,232L262,232L258,234L259,235L258,236L257,237L255,236L253,236L251,236L250,234L249,234L245,234L242,238L242,239L241,240L241,242L241,243L242,244L243,246L242,247L243,249L243,250L241,251L241,253L241,256L240,257L239,258L237,258L237,259L236,261L234,265L233,266L234,267L238,268L239,269L240,270L240,272L240,273L240,274L244,277L246,277L250,278L251,278L254,277L258,280L259,282L258,283L256,283L255,284L255,285L254,286L252,289L251,290L251,291L252,292L253,293L254,294L255,294L256,294L257,295L257,297L256,300L255,302L255,303L255,303L259,305L265,308L267,308L269,308L270,308L273,306L276,307L276,308L277,309L279,309L280,310L281,311L282,311L282,312L284,312L284,314L292,319L296,321L303,321L314,322L315,322L317,323L318,322L319,321L322,315L324,314L327,314L328,314L329,314L331,314L335,316L337,316L338,316L339,318L339,319L340,321L341,321L342,322L345,321L346,322L349,324L350,324L351,324L354,323L356,323L357,325L359,333L361,336Z " data-fips="EZ02" data-hasc="CZ.JK" data-name="Kraj Vysocina" data-postal="JK" data-varname="Iglau|Jihlavsk|Vysocina|Vysocina"/><path d="M168,181L174,180L178,179L179,178L181,177L182,177L183,177L184,177L187,177L189,176L189,175L188,174L188,172L188,171L188,170L190,168L191,167L191,166L190,165L188,164L186,162L185,162L184,161L183,160L182,159L181,158L180,157L176,158L166,161L166,162L166,163L164,163L162,163L158,164L157,165L157,166L158,167L159,168L158,169L159,170L160,172L161,173L161,175L162,176L164,178L164,180L164,181L164,182L165,182Z " data-fips="EZ11" data-hasc="CZ.SK" data-name="Prague" data-postal="SK" data-varname="Prag |Hlavn mesto Praha"/><path d="M126,232L127,233L129,233L131,233L132,234L133,234L135,234L136,233L139,232L140,230L141,229L142,229L144,229L145,230L146,230L147,230L149,230L154,230L155,229L156,228L158,228L159,228L161,228L161,229L162,230L163,230L163,231L165,232L169,230L171,230L172,230L173,231L174,231L182,231L183,231L185,232L187,232L189,231L190,230L193,229L194,228L194,224L195,223L196,221L197,222L198,223L201,224L201,224L202,225L203,226L204,225L206,226L206,227L206,228L207,229L208,229L210,228L210,227L211,226L212,225L212,224L213,223L217,224L219,224L220,224L222,224L224,224L226,224L232,220L232,219L231,218L230,216L227,214L227,213L227,211L229,210L230,208L230,207L231,206L232,206L233,206L234,206L237,204L240,203L242,201L243,201L245,201L246,201L247,200L247,199L248,196L248,195L249,195L250,193L250,192L250,190L251,189L251,188L251,187L251,184L252,183L252,182L251,181L250,181L248,180L245,177L243,176L240,174L240,173L241,172L243,171L243,170L243,168L243,166L245,165L244,164L243,162L242,161L241,160L241,158L242,156L242,155L241,152L241,150L241,148L240,146L239,144L238,144L235,145L233,144L231,144L230,144L229,143L229,141L228,140L227,139L223,137L223,136L223,135L224,133L224,132L225,131L225,129L225,128L225,124L224,123L224,122L223,120L224,119L224,118L222,116L221,114L218,111L217,110L215,108L212,108L211,108L210,108L208,108L207,108L206,110L205,111L204,112L203,114L202,115L200,116L199,117L196,119L193,121L186,122L185,122L184,122L184,120L183,120L182,120L180,120L176,120L175,121L175,122L175,124L174,125L173,126L171,128L169,128L168,127L168,128L168,130L168,132L168,133L168,134L167,136L167,136L166,137L164,137L162,137L161,137L159,139L156,138L150,139L149,139L147,138L145,138L142,138L141,138L140,139L140,140L140,141L140,143L139,143L137,143L132,146L131,147L130,148L129,147L128,147L120,151L119,151L118,151L117,150L116,151L115,152L111,154L107,156L106,156L105,158L104,160L103,161L102,161L100,163L99,164L98,164L97,165L98,167L98,169L97,170L97,171L98,172L99,171L101,171L102,171L104,171L105,172L108,175L110,176L111,176L112,176L114,176L115,176L116,177L118,179L119,180L122,181L122,181L126,185L127,186L127,187L128,190L128,191L126,192L126,193L126,194L125,197L125,199L125,200L124,202L124,204L125,204L126,206L123,208L122,209L120,209L119,210L117,211L117,212L118,214L117,215L118,216L118,217L118,219L118,220L119,220L120,221L120,222L120,225L120,226L121,227L121,228L122,230L122,232L121,233L121,234Z M165,182L164,182L164,181L164,180L164,178L162,176L161,175L161,173L160,172L159,170L158,169L159,168L158,167L157,166L157,165L158,164L162,163L164,163L166,163L166,162L166,161L176,158L180,157L181,158L182,159L183,160L184,161L185,162L186,162L188,164L190,165L191,166L191,167L190,168L188,170L188,171L188,172L188,174L189,175L189,176L187,177L184,177L183,177L182,177L181,177L179,178L178,179L174,180L168,181Z " data-fips="EZ05" data-hasc="CZ.SK" data-name="Stredocesk" data-postal="SK" data-varname="Central Bohemian"/><path d="M97,165L98,164L99,164L100,163L102,161L103,161L104,160L105,158L106,156L107,156L111,154L115,152L116,151L117,150L118,151L119,151L120,151L128,147L129,147L130,148L131,147L132,146L137,143L139,143L140,143L140,141L140,140L140,139L141,138L142,138L145,138L147,138L149,139L150,139L156,138L159,139L161,137L162,137L164,137L166,137L167,136L167,136L168,134L168,133L168,132L168,130L168,128L168,127L169,128L171,128L173,126L174,125L175,124L175,122L175,121L176,120L180,120L182,120L183,120L184,120L184,122L185,122L186,122L193,121L196,119L199,117L200,116L202,115L203,114L204,112L205,111L206,110L207,108L208,108L210,108L211,108L212,108L215,108L217,110L218,111L225,107L227,106L237,103L238,102L239,101L240,99L241,99L242,98L242,97L241,91L241,90L242,88L241,88L240,87L240,86L240,85L240,84L239,81L238,80L237,80L236,79L235,78L234,76L233,74L233,72L234,70L234,69L234,68L233,66L231,65L227,65L226,63L225,61L224,61L224,63L223,64L222,64L221,63L220,62L216,61L215,60L215,61L213,62L212,63L212,64L213,65L215,67L214,71L213,72L214,73L214,77L213,78L205,78L203,78L201,78L200,81L199,83L198,83L197,84L196,84L193,83L190,81L189,80L186,79L187,77L188,74L188,72L187,71L183,73L182,72L183,70L184,69L184,67L184,66L184,65L183,64L183,63L182,62L180,61L179,61L178,60L178,58L177,57L176,59L173,59L171,60L169,59L168,58L166,57L163,57L162,59L161,62L160,64L161,64L163,64L164,66L164,67L165,69L168,70L170,71L170,74L167,75L162,75L159,75L158,76L157,78L156,79L145,84L143,84L141,84L138,84L137,86L136,87L134,86L134,87L133,89L133,91L132,91L130,93L129,93L125,93L124,93L121,94L120,94L113,94L110,94L107,96L107,98L107,99L106,101L105,101L105,103L104,104L103,105L101,107L100,107L98,105L97,103L96,103L95,104L92,106L91,109L89,110L88,109L87,108L86,108L83,114L82,116L80,118L76,117L74,118L73,118L72,118L70,117L69,118L69,122L68,124L67,126L65,127L68,129L69,130L74,131L74,132L75,133L76,134L78,135L80,135L82,135L84,136L84,137L85,139L85,141L85,143L85,145L85,147L85,148L85,149L85,151L85,152L87,154L87,156L87,157L86,159L86,160L88,162L88,162L89,163L90,164L91,165L94,166L95,166Z " data-fips="EZ03" data-hasc="CZ.LK" data-name="Libereck" data-postal="LK" data-varname="Reichenberg| Liberec"/><path d="M258,236L259,235L258,234L262,232L264,232L265,233L266,232L266,231L266,230L267,229L271,228L272,227L272,226L272,222L273,221L273,220L275,218L276,217L277,216L279,213L279,212L280,212L282,212L284,212L285,210L287,210L288,208L288,208L290,208L291,209L292,209L294,210L295,211L296,212L297,212L299,212L301,212L302,213L304,214L307,216L308,216L309,217L310,219L313,220L316,222L318,223L320,223L328,222L329,221L329,219L330,218L334,218L336,219L339,219L341,219L343,219L346,221L348,220L348,218L349,216L351,213L350,209L350,208L348,207L348,206L347,204L344,198L343,196L343,194L344,191L344,188L343,185L343,182L343,180L342,179L342,178L342,177L344,176L345,174L347,172L348,171L348,170L347,169L348,167L349,161L352,154L351,154L350,154L348,154L346,156L345,158L344,159L344,161L342,162L340,165L337,165L334,164L331,162L330,160L329,158L328,155L327,152L325,150L324,148L323,147L321,144L320,142L318,141L315,140L314,138L313,137L314,136L313,135L312,134L308,134L307,135L306,133L305,130L302,130L302,128L302,126L303,126L304,125L305,124L306,123L307,122L308,121L309,120L310,120L312,120L313,120L314,119L316,117L316,116L316,114L317,113L316,112L319,111L318,109L312,102L309,101L307,101L303,101L303,102L302,104L301,105L300,105L299,104L297,103L294,102L289,107L286,107L286,106L287,105L287,104L287,102L286,101L285,99L284,98L283,98L279,99L276,99L273,93L272,92L270,91L264,93L263,92L261,90L247,85L244,85L243,86L242,87L242,88L241,90L241,91L242,97L242,98L241,99L240,99L239,101L238,102L237,103L227,106L225,107L221,114L222,116L224,118L224,119L223,120L224,122L224,123L225,124L225,128L225,129L225,131L224,132L224,133L223,135L223,136L223,137L227,139L228,140L229,141L229,143L230,144L231,144L233,144L235,145L238,144L239,144L240,146L241,148L241,150L241,152L242,155L242,156L241,158L241,160L242,161L243,162L244,164L245,165L243,166L243,168L243,170L243,171L241,172L240,173L240,174L243,176L245,177L248,180L250,181L251,181L252,182L252,183L251,184L251,187L251,188L251,189L250,190L250,192L250,193L249,195L248,195L248,196L247,199L247,200L246,201L245,201L243,201L242,201L240,203L237,204L234,206L233,206L232,206L231,206L230,207L230,208L229,210L227,211L227,213L227,214L230,216L231,218L232,219L232,220L236,222L239,222L241,222L243,224L244,225L245,226L244,227L243,229L243,230L243,231L245,234L249,234L250,234L251,236L253,236L255,236L257,237Z " data-fips="EZ07" data-hasc="CZ.HK" data-name="Krlovhradeck" data-postal="HK" data-varname="Knigsgrtz| Hradec Krlov"/><path d="M447,272L447,268L448,265L449,261L451,258L453,256L463,252L465,249L467,248L467,242L469,243L471,242L474,238L477,236L477,234L477,232L478,231L479,230L483,231L485,229L486,229L488,231L490,231L492,231L495,228L497,227L500,227L500,225L500,223L498,218L498,217L497,215L497,214L496,209L494,208L493,209L492,209L491,209L490,209L489,207L488,206L487,206L484,206L483,204L482,201L480,198L478,194L478,191L480,189L478,188L478,186L478,185L477,182L476,182L473,184L472,184L466,181L463,180L461,181L459,183L458,183L456,181L455,179L454,178L451,178L449,176L448,175L443,174L442,173L442,171L438,169L437,168L436,168L437,171L438,171L438,173L436,174L433,174L431,174L429,176L427,177L424,177L419,172L418,171L418,170L417,168L417,167L415,166L415,164L416,163L415,163L413,162L411,162L409,163L408,162L404,157L406,155L409,155L411,154L414,152L416,151L416,149L415,147L414,146L414,145L414,144L415,142L415,141L413,138L412,138L411,139L411,140L409,143L407,144L406,145L399,144L396,144L393,147L392,147L391,145L390,144L388,144L387,146L386,145L386,144L386,143L385,141L385,140L386,139L384,138L381,139L379,138L377,137L376,136L375,135L375,133L374,132L372,132L371,132L370,132L367,130L360,128L358,128L357,127L355,126L353,126L351,127L351,129L353,132L354,134L355,137L356,139L357,140L359,141L360,143L361,145L361,148L362,149L362,150L361,151L360,150L359,149L358,149L357,151L355,151L355,151L353,153L352,154L349,161L348,167L347,169L348,170L348,171L347,172L345,174L344,176L342,177L342,178L342,179L343,180L343,182L343,185L344,188L344,191L343,194L343,196L344,198L347,204L348,206L348,207L350,208L350,209L351,213L353,214L355,215L356,215L357,216L359,217L360,217L361,218L361,219L363,221L365,224L366,226L371,228L375,228L377,228L382,236L382,237L383,238L382,240L382,241L381,242L380,243L380,244L380,245L380,247L380,248L380,250L381,251L382,253L383,255L384,256L385,255L388,251L388,250L388,249L387,247L387,245L387,243L389,243L391,244L392,245L394,246L398,248L399,248L400,247L401,245L402,244L404,243L409,243L410,243L411,242L411,240L410,239L411,238L412,238L413,238L421,239L424,241L425,242L426,243L426,244L424,247L424,249L425,250L428,252L429,253L430,254L430,255L431,256L432,257L433,259L433,260L433,261L435,263L437,266L438,267L439,268L447,272Z " data-fips="PL04" data-hasc="CZ.VK" data-name="Moravskoslezsk" data-postal="VK" data-varname="Mhrisch-Ostrau|Mhren|Morava|Moravie|Morvia|Moravskoslezsk|Ostravsk| Moravian-Silesian"/></g></svg>