<?xml version="1.0" ?><!DOCTYPE svg  PUBLIC '-//W3C//DTD SVG 1.1//EN'  'http://www.w3.org/Graphics/SVG/1.1/DTD/svg11.dtd'><svg enable_background="new 0 0 500 401" height="401px" style="stroke-linejoin: round; stroke:#000; fill:#f6f3f0;" version="1.1" viewBox="0 0 500 401" width="500px" xmlns="http://www.w3.org/2000/svg" xmlns:xlink="http://www.w3.org/1999/xlink"><defs><style type="text/css"><![CDATA[path { fill-rule: evenodd; }
#context path { fill: #eee; stroke: #bbb; } ]]></style></defs><metadata><views><view h="401" padding="0" w="500"><proj id="laea" lat0="56.058" lon0="9.264"/><bbox h="38.99" w="49.66" x="991.84" y="979.02"/><llbbox lat0="-90" lat1="90" lon0="-180" lon1="180"/></view></views></metadata><g id="admin1"><path d="M121,262L125,260L132,258L134,259L135,258L134,256L135,254L138,252L136,252L135,251L135,248L137,246L136,244L126,242L124,240L126,239L130,240L131,239L132,237L134,236L135,236L141,236L142,238L143,240L145,242L146,242L147,241L147,240L147,238L147,237L147,236L148,235L149,234L151,232L151,230L151,228L151,224L151,223L152,218L151,218L149,219L151,217L151,214L152,212L151,209L150,206L149,205L148,203L149,200L151,198L155,194L156,192L159,187L160,187L161,186L161,184L162,185L164,184L165,185L166,186L168,186L166,191L166,192L167,194L166,196L165,195L164,194L163,193L161,194L159,196L158,196L159,198L160,200L161,201L163,200L165,199L169,200L169,202L167,204L168,205L168,207L170,208L171,208L172,208L173,207L173,205L172,202L171,199L173,196L175,193L176,191L178,192L179,192L181,193L181,195L180,197L178,197L180,200L182,202L184,201L185,198L185,194L185,192L186,190L190,188L196,179L196,176L196,173L197,170L197,167L199,165L195,160L192,156L191,155L189,154L187,154L170,157L165,156L160,153L158,152L157,150L157,147L155,146L154,147L152,150L149,152L148,154L148,157L148,162L147,163L145,163L146,162L147,160L147,158L147,157L147,156L148,152L151,148L156,144L157,140L157,136L155,134L154,134L152,135L149,136L146,135L143,138L140,140L138,144L133,147L129,147L128,148L125,149L123,152L120,153L119,152L117,151L114,152L110,148L108,149L107,149L107,146L109,144L108,143L100,143L98,141L98,138L97,137L95,137L95,138L96,140L94,142L91,141L88,139L86,138L86,142L85,146L84,151L85,152L86,152L88,151L90,151L90,153L89,154L87,154L86,156L86,155L85,154L83,152L82,151L81,150L82,148L83,146L84,145L82,143L81,143L80,142L79,142L76,143L74,142L74,139L74,141L74,142L73,144L74,144L75,145L74,146L72,145L71,146L71,150L69,151L68,151L68,150L67,146L68,145L68,143L70,141L71,140L71,138L72,137L74,134L76,134L75,131L74,130L73,128L72,127L72,124L71,122L70,121L69,121L67,121L66,122L64,122L62,122L61,122L58,125L56,127L55,128L54,130L54,133L57,133L59,134L55,134L52,135L51,135L46,143L43,143L42,144L42,145L44,146L44,147L44,148L45,149L48,150L47,152L47,154L47,155L47,157L47,159L46,161L45,161L41,162L39,162L38,160L37,159L36,158L36,157L36,155L34,150L33,151L33,152L32,153L31,154L27,151L26,149L23,149L19,149L17,150L17,152L16,152L16,151L16,149L16,148L16,146L13,145L12,144L12,142L10,142L10,141L10,140L12,136L11,134L11,133L10,134L8,138L5,148L4,150L4,152L4,195L4,198L2,206L2,209L2,218L2,219L3,221L4,221L4,219L4,216L4,214L4,208L5,207L6,207L12,210L14,212L16,215L17,219L17,223L19,226L20,228L21,230L22,233L21,235L18,237L16,240L14,240L11,243L7,244L7,242L7,241L8,239L8,238L8,237L6,233L5,224L4,223L3,223L3,224L4,225L6,246L20,246L22,247L24,248L27,250L28,250L29,249L33,244L33,242L34,242L35,242L37,243L38,243L40,242L42,243L47,246L48,247L50,246L51,244L51,242L52,241L53,237L55,236L59,237L61,239L64,242L65,243L67,243L69,242L70,240L71,239L72,238L73,237L77,233L79,229L81,229L88,231L90,232L92,234L95,238L96,239L96,241L96,242L98,244L100,247L101,248L102,248L104,248L106,248L106,250L105,251L106,253L109,253L110,254L111,254L111,255L111,256L111,258L112,258L115,260L119,262Z M177,248L177,246L177,242L177,240L179,237L179,236L178,237L177,236L176,234L176,233L177,232L177,231L175,230L174,229L173,227L171,221L170,222L169,224L169,227L170,228L172,229L173,230L174,232L174,234L173,236L173,237L171,238L170,239L170,240L169,243L170,247L172,250L174,251Z M240,134L241,133L242,132L243,131L244,129L245,128L242,129L236,130L235,131L236,133L236,134L238,135L239,135Z " data-fips="" data-hasc="" data-name="Midtjylland" data-postal="" data-varname="Central"/><path d="M166,365L172,363L171,363L171,361L170,360L168,359L167,358L168,360L168,361L167,361L165,361L165,360L164,357L163,355L163,357L162,359L161,359L160,358L159,357L157,354L155,353L149,349L148,348L149,350L150,353L162,366L165,367Z M87,370L88,370L89,369L90,369L91,368L92,370L93,370L95,369L95,367L96,365L99,363L101,361L102,361L103,360L103,360L104,358L105,355L107,354L109,355L109,357L107,358L107,359L109,362L108,363L110,364L114,364L116,367L117,366L117,365L117,363L117,362L116,362L115,361L114,360L115,359L116,359L117,359L118,358L116,348L115,346L115,346L111,345L109,343L106,340L104,340L103,341L102,341L100,341L95,343L94,341L96,340L99,340L100,339L101,338L103,335L102,333L101,331L100,331L97,331L96,330L97,330L98,329L100,328L99,328L98,328L98,326L99,326L101,325L102,324L103,323L104,322L105,322L110,322L111,322L112,320L113,318L113,317L114,316L114,315L114,313L112,312L109,307L108,305L109,304L109,303L108,302L107,301L106,299L106,298L106,297L106,296L105,294L105,293L106,292L108,292L109,291L110,290L110,288L110,286L106,284L105,285L101,286L100,286L99,285L100,284L102,283L104,281L106,282L107,281L109,280L114,279L114,277L114,276L116,275L117,275L119,272L122,269L124,268L117,268L115,268L115,267L114,265L113,264L110,260L109,259L104,259L102,258L103,257L105,258L111,258L111,256L111,255L111,254L110,254L109,253L106,253L105,251L106,250L106,248L104,248L102,248L101,248L100,247L98,244L96,242L96,241L96,239L95,238L92,234L90,232L88,231L81,229L79,229L77,233L73,237L72,238L71,239L70,240L69,242L67,243L65,243L64,242L61,239L59,237L55,236L53,237L52,241L51,242L51,244L50,246L48,247L47,246L42,243L40,242L38,243L37,243L35,242L34,242L33,242L33,244L29,249L28,250L27,250L24,248L22,247L20,246L6,246L7,250L6,255L6,260L4,265L0,275L0,277L1,278L5,279L7,280L16,287L16,285L14,283L12,281L10,281L11,280L12,280L10,277L10,276L11,274L12,273L14,273L15,273L17,274L15,276L21,285L24,288L28,289L32,289L35,290L37,291L38,294L38,296L39,302L39,305L40,307L39,308L39,309L39,311L39,316L39,317L40,322L41,326L41,328L40,329L36,328L32,327L32,326L33,324L35,323L33,322L30,321L27,321L26,324L26,327L25,330L25,333L26,336L27,337L28,337L29,337L30,335L31,334L32,334L32,329L33,328L41,329L40,332L39,335L38,339L38,343L38,346L40,349L40,352L39,356L40,356L39,359L42,359L44,360L49,358L51,357L56,359L62,361L77,364L78,366L79,367L79,369L79,370L81,371L86,371Z M134,362L135,361L136,361L138,361L139,360L139,359L137,351L136,349L134,346L132,344L130,342L126,342L124,341L120,336L117,335L114,336L108,340L109,340L111,340L112,340L113,340L113,341L111,342L111,343L113,344L115,344L120,345L119,346L120,347L123,350L123,351L124,352L122,353L121,351L119,349L118,349L118,353L119,356L122,358L125,358L126,357L128,357L131,358L134,361L132,361L130,359L128,358L126,360L127,361L130,362L132,363L133,363Z M186,378L187,377L188,376L195,352L198,345L199,341L202,325L201,325L198,329L196,336L195,339L192,345L190,346L186,351L185,353L184,356L185,357L186,356L186,358L187,359L184,359L183,359L183,362L182,363L181,364L180,365L178,365L180,367L181,368L182,369L184,377L185,378Z M174,340L175,339L176,338L178,337L179,337L182,337L186,337L187,336L187,335L188,333L188,332L190,329L191,325L192,323L192,321L192,318L192,315L191,314L189,311L189,309L189,307L191,306L192,307L193,309L193,307L191,301L190,300L183,290L182,289L177,288L176,288L176,289L176,290L175,291L174,291L173,290L173,288L174,288L175,287L180,288L184,286L186,284L186,283L186,282L184,279L184,278L183,276L180,271L178,269L177,270L177,273L177,275L176,273L176,275L177,277L177,279L176,280L174,279L174,280L175,281L176,282L177,283L177,284L174,285L169,287L167,290L165,290L164,288L167,284L168,284L168,282L167,281L167,279L168,278L169,278L170,279L168,277L167,277L165,276L165,276L164,274L162,273L158,270L155,269L154,269L155,272L153,272L152,270L151,270L149,271L146,273L137,276L130,281L126,283L123,281L122,279L122,278L121,277L117,278L114,282L113,282L112,283L111,284L114,285L121,291L119,291L117,290L115,288L113,288L116,291L117,292L119,292L121,293L121,294L119,294L123,296L122,297L121,298L120,298L118,299L120,301L121,302L122,302L124,302L126,302L126,307L127,310L127,312L126,313L126,314L127,315L127,317L128,317L129,318L132,319L133,320L133,321L132,323L133,324L134,327L133,328L133,330L136,330L137,328L134,324L134,322L136,321L137,323L138,323L140,322L141,322L142,323L143,324L144,326L146,328L145,330L139,334L140,335L143,334L145,334L146,335L148,337L149,337L149,335L149,334L151,334L158,338L160,337L161,338L162,339L164,339L169,340L171,341L173,341Z M27,303L26,302L25,299L25,298L25,297L26,294L26,292L25,291L23,292L22,291L22,287L20,288L19,290L19,292L21,298L23,301L25,303Z " data-fips="" data-hasc="" data-name="Syddanmark" data-postal="" data-varname="Southern"/><path d="M123,152L125,149L128,148L129,147L133,147L138,144L140,140L143,138L146,135L144,135L145,133L143,133L142,133L141,135L139,136L138,137L137,136L136,136L136,137L135,138L133,139L124,142L122,143L119,141L129,140L132,137L134,136L136,135L137,134L139,134L141,132L142,132L144,132L145,133L146,134L148,133L149,132L153,132L155,133L156,132L155,130L154,130L152,124L152,122L152,117L151,110L150,107L151,104L151,102L151,101L153,99L152,98L147,98L145,98L142,95L140,94L133,87L132,87L131,87L130,88L128,90L127,90L128,90L130,86L132,86L133,86L135,88L138,90L143,94L148,98L149,97L150,97L154,97L155,96L155,96L156,94L158,88L159,82L160,79L162,74L163,72L167,69L168,67L166,54L166,48L168,43L165,37L162,31L160,26L162,18L167,10L170,6L174,5L172,4L171,3L169,3L167,4L162,8L154,16L150,20L144,22L138,23L132,23L129,24L127,26L127,27L124,31L120,36L117,40L103,67L98,73L92,77L86,79L80,80L67,78L63,77L62,78L59,82L56,83L50,84L47,84L41,82L39,82L36,84L31,93L27,97L15,116L13,120L12,125L12,131L13,134L14,134L14,132L14,129L13,125L14,125L16,126L17,127L18,131L19,133L20,135L21,137L23,137L24,138L26,139L28,140L28,142L29,144L31,146L33,148L34,148L33,147L35,146L36,146L36,145L37,143L37,142L36,140L36,139L36,136L35,135L29,137L28,136L27,136L25,136L24,137L25,135L26,134L28,134L29,136L31,136L32,135L32,134L31,132L29,132L30,130L30,129L29,124L30,123L31,122L32,121L33,120L35,120L37,116L38,115L38,114L39,110L39,109L41,108L41,106L42,104L43,103L44,102L46,102L48,103L52,101L54,99L53,98L54,97L56,97L57,97L58,99L59,97L61,96L62,96L63,95L64,94L65,94L66,95L68,95L70,94L71,93L72,93L73,92L72,90L80,97L81,97L82,97L98,91L104,91L106,90L109,88L110,87L111,89L112,90L114,89L115,88L118,84L119,84L120,85L122,86L126,90L119,91L116,90L114,91L111,92L110,94L109,96L106,100L105,101L104,101L103,99L104,98L96,94L94,94L84,98L83,100L82,100L81,101L79,103L78,105L77,107L75,111L77,112L78,113L79,114L79,116L78,117L76,120L76,122L76,123L77,124L78,126L79,127L81,129L80,131L80,133L76,135L76,136L76,138L78,138L79,137L80,136L83,134L84,134L85,136L86,138L88,139L91,141L94,142L96,140L95,138L95,137L97,137L98,138L98,141L100,143L108,143L109,144L107,146L107,149L108,149L110,148L114,152L117,151L119,152L120,153Z M43,136L48,135L49,133L51,130L52,129L53,127L54,125L55,123L54,122L55,122L56,122L55,121L54,120L54,115L53,114L54,112L55,110L56,111L57,112L57,114L58,113L58,111L59,107L59,106L58,104L58,103L59,101L59,100L58,102L57,103L55,102L53,107L52,108L50,108L48,109L44,110L42,110L40,111L41,114L40,115L39,117L38,118L40,119L42,119L40,121L35,122L33,124L34,125L33,127L32,127L31,128L32,130L34,129L36,130L38,132L38,133L41,137Z M200,67L202,67L203,66L204,64L205,62L204,61L203,60L209,57L210,57L212,57L211,55L210,54L208,54L200,56L199,57L198,57L195,57L193,59L191,62L189,63L190,65L191,65L194,64L195,65L197,68L198,68Z " data-fips="" data-hasc="" data-name="Nordjylland" data-postal="" data-varname="North"/><path d="M496,328L496,328L497,327L498,325L498,324L498,323L498,322L499,319L500,317L500,316L500,315L499,313L500,312L498,310L494,308L490,306L489,306L488,305L486,302L484,301L480,301L478,299L476,298L475,297L472,293L471,292L470,293L470,296L469,297L468,300L468,301L467,303L468,310L467,315L467,318L468,320L481,326L485,326L490,328L492,329Z M302,264L304,264L305,264L306,265L307,265L308,265L309,263L309,262L310,261L312,260L314,254L316,252L315,250L315,249L315,247L315,244L315,242L315,241L314,240L313,237L312,234L312,232L311,231L310,229L308,225L309,224L311,219L312,217L314,213L315,211L311,208L309,207L307,205L305,204L300,204L294,201L289,201L283,205L273,214L267,218L263,222L262,225L263,226L265,225L270,223L272,223L273,223L274,225L276,232L277,233L277,238L279,245L281,245L284,248L285,249L290,249L290,251L290,252L292,253L289,256L287,256L285,259L286,260L285,262L286,263L286,264L288,265L290,265L291,264L292,265L294,264L296,265L299,266Z M315,272L316,271L317,270L318,269L319,268L321,265L319,260L317,254L316,253L315,254L314,258L314,259L313,260L312,261L311,262L311,264L311,266L312,270L314,272Z M277,250L277,246L275,241L274,237L273,236L273,235L272,233L273,231L272,229L271,229L268,226L267,226L266,229L268,232L270,236L269,240L268,241L265,241L264,242L263,245L263,247L263,249L263,252L263,252L266,251L267,250L268,251L272,253L272,253L273,252L275,253Z " data-fips="" data-hasc="" data-name="Hovedstaden" data-postal="" data-varname="Capital Region"/><path d="M277,396L277,391L276,384L276,380L278,378L280,375L280,374L283,368L284,367L290,361L288,358L286,355L285,354L283,355L282,355L281,355L279,355L277,352L276,352L274,349L272,350L273,351L272,352L271,352L270,351L269,350L269,348L270,347L270,345L270,343L271,342L271,341L273,341L277,345L280,346L281,346L284,344L285,343L286,343L288,342L289,341L289,339L286,332L288,331L289,330L289,328L288,326L286,325L280,325L277,323L278,321L279,320L280,319L282,319L283,321L283,324L284,324L285,323L284,321L285,318L286,316L288,315L289,313L304,309L308,306L309,305L307,301L307,300L307,297L306,296L304,294L301,291L300,291L296,291L294,290L291,287L289,281L292,274L297,267L299,266L296,265L294,264L292,265L291,264L290,265L288,265L286,264L286,263L285,262L286,260L285,259L287,256L289,256L292,253L290,252L290,251L290,249L285,249L284,248L281,245L279,245L280,251L280,254L279,258L278,261L276,260L275,259L274,258L277,258L276,257L275,256L274,255L273,256L273,258L271,260L269,261L268,260L268,259L271,256L271,255L272,253L268,251L267,250L266,251L263,252L263,252L263,252L261,258L260,259L258,261L259,259L259,257L259,256L257,253L256,252L255,253L252,253L251,253L250,251L251,251L257,249L256,247L256,245L255,244L254,244L253,244L251,245L251,246L247,246L246,245L247,245L248,244L249,242L250,242L252,242L253,242L254,240L253,236L249,230L250,229L251,229L253,228L253,230L254,231L255,230L254,228L255,227L257,224L257,223L256,222L255,223L252,224L248,226L245,226L243,225L233,224L231,224L222,220L222,222L224,224L230,226L234,226L236,226L239,231L238,235L237,239L234,238L233,240L231,241L229,241L228,240L228,241L229,242L230,244L229,247L229,249L228,250L227,250L225,251L222,253L221,253L219,253L217,253L216,253L219,256L217,257L215,256L213,255L213,252L214,252L215,251L213,251L208,253L206,254L195,253L196,254L200,254L201,255L202,256L203,257L204,258L209,260L210,262L199,262L207,264L210,266L213,270L214,273L215,275L214,277L211,278L210,279L210,280L211,281L212,280L214,280L215,281L216,282L217,283L218,288L219,290L219,292L220,292L220,294L219,295L218,296L216,297L215,297L214,299L213,299L211,300L213,303L214,302L214,301L216,300L217,300L218,301L217,303L216,303L216,304L220,308L222,309L222,313L224,313L225,312L225,314L224,315L223,315L222,314L223,317L224,319L226,320L228,320L227,318L231,318L232,317L235,316L240,318L241,317L243,318L248,319L251,321L252,320L253,318L255,317L256,317L257,318L257,319L257,321L256,322L257,324L261,323L263,324L263,326L256,327L258,330L263,333L265,336L261,336L253,332L249,332L250,333L252,334L253,335L258,335L260,336L261,337L266,339L267,340L268,344L269,345L268,347L267,348L266,347L264,349L263,349L261,347L259,347L257,350L258,351L259,352L259,354L260,356L260,358L261,360L262,361L263,362L264,363L264,364L264,365L264,367L268,370L269,372L270,373L269,375L270,376L271,377L272,377L270,380L269,382L269,385L270,386L273,391L274,392L274,394L276,396Z M244,387L247,385L251,385L262,387L265,385L267,383L268,380L265,379L265,378L267,377L267,376L268,374L268,373L267,371L267,369L263,367L262,364L263,364L262,363L260,362L259,360L258,359L253,354L252,355L252,357L253,358L253,360L251,361L249,361L247,362L247,363L248,364L249,367L236,360L234,359L233,358L230,354L229,353L228,352L224,350L223,349L212,351L211,351L208,354L208,356L208,359L212,364L213,365L214,365L213,368L211,368L209,368L207,369L207,371L207,373L209,374L213,375L217,377L220,377L228,382L233,386L240,390L241,390Z M294,355L297,349L300,347L302,346L305,345L313,347L315,347L317,346L317,344L315,340L313,338L307,337L301,337L298,336L297,333L295,333L294,335L295,336L296,337L298,339L297,340L297,341L298,343L297,343L294,344L293,344L291,343L290,343L290,345L290,346L289,345L288,345L287,348L288,349L287,350L286,351L287,352L286,353L290,355L293,356Z " data-fips="" data-hasc="" data-name="Sjalland" data-postal="" data-varname="Sjaelland|Zealand"/></g></svg>