<?xml version="1.0" ?><!DOCTYPE svg  PUBLIC '-//W3C//DTD SVG 1.1//EN'  'http://www.w3.org/Graphics/SVG/1.1/DTD/svg11.dtd'><svg enable_background="new 0 0 500 401" height="401px" style="stroke-linejoin: round; stroke:#000; fill:#f6f3f0;" version="1.1" viewBox="0 0 500 401" width="500px" xmlns="http://www.w3.org/2000/svg" xmlns:xlink="http://www.w3.org/1999/xlink"><defs><style type="text/css"><![CDATA[path { fill-rule: evenodd; }
#context path { fill: #eee; stroke: #bbb; } ]]></style></defs><metadata><views><view h="401" padding="0" w="500"><proj id="laea" lat0="40.227" lon0="-3.649"/><bbox h="106.14" w="126.59" x="949.04" y="955.01"/><llbbox lat0="-90" lat1="90" lon0="-180" lon1="180"/></view></views></metadata><g id="admin1"><path d="M131,363L135,362L136,361L136,360L135,358L136,357L137,356L138,357L139,358L140,355L141,353L141,352L142,351L143,350L144,348L144,348L146,345L147,345L149,345L151,343L153,343L156,341L157,341L162,342L164,342L165,342L167,341L167,339L172,336L173,335L173,334L174,332L176,331L182,332L183,332L188,330L192,331L196,330L197,330L200,331L202,331L205,331L211,332L212,332L214,331L216,330L219,330L229,330L230,330L232,331L233,332L234,332L235,332L236,333L238,333L239,333L240,332L241,331L242,329L244,327L247,326L248,327L249,327L251,326L253,326L254,327L255,328L256,329L257,330L259,331L260,330L261,329L262,328L262,327L263,326L264,325L265,323L267,321L268,321L268,320L268,318L269,317L270,314L270,313L270,312L271,310L271,308L272,307L274,305L275,303L276,302L276,301L277,300L274,298L271,298L270,297L265,289L264,287L264,286L264,285L264,283L264,281L264,280L264,279L265,278L261,277L259,277L258,277L255,275L254,274L254,273L253,272L251,271L247,270L244,268L245,267L245,266L248,263L248,261L248,260L248,259L246,257L246,256L246,255L246,254L243,253L243,252L243,250L243,249L242,249L240,249L239,249L237,248L236,248L235,249L234,249L233,250L232,251L231,250L229,250L228,251L227,251L227,252L226,252L225,250L224,251L222,251L221,251L218,251L217,251L216,250L215,250L214,251L213,252L212,253L211,254L210,254L208,252L207,252L206,252L206,254L205,254L202,253L200,253L199,253L198,253L197,254L196,255L195,255L184,254L182,254L181,254L180,256L178,255L176,255L174,253L173,252L172,251L171,250L170,250L169,249L168,248L166,247L165,246L164,245L163,244L161,244L160,244L160,243L159,242L159,240L158,240L157,240L155,240L153,238L152,239L149,239L149,240L148,241L147,241L145,242L144,244L143,245L141,245L141,246L140,247L139,248L138,249L137,249L136,250L134,252L134,253L134,254L134,255L134,256L135,257L135,258L135,259L135,260L136,261L135,263L135,264L133,265L132,265L131,266L130,267L129,267L128,267L127,266L128,265L129,264L128,263L127,263L125,263L123,264L122,265L121,266L121,267L121,269L120,269L120,271L119,271L116,272L113,272L113,273L111,273L110,273L106,271L105,271L104,269L102,268L101,269L100,270L99,270L97,269L96,268L95,267L94,266L92,266L90,266L89,266L88,265L89,263L89,262L83,261L83,261L83,263L82,265L81,266L81,268L79,269L76,268L75,270L74,270L73,270L71,271L71,272L71,273L70,275L70,277L69,278L65,281L64,282L64,283L63,286L63,287L62,288L62,289L61,289L61,291L62,292L63,293L63,294L63,295L63,296L64,298L64,302L64,304L64,305L65,307L66,308L68,307L76,307L75,306L78,306L79,307L82,309L82,307L81,306L82,306L83,305L85,304L84,306L83,307L83,308L84,309L85,310L87,311L88,312L89,312L98,319L99,320L100,322L101,325L102,326L103,326L103,323L104,321L106,321L108,321L109,321L108,322L105,322L104,323L104,324L104,326L103,327L101,328L100,329L100,330L101,332L101,334L103,335L106,335L107,338L107,339L108,340L109,340L108,341L107,341L106,341L106,340L104,339L105,340L106,341L107,343L108,345L109,346L109,348L109,349L111,351L112,352L113,354L114,355L115,356L117,355L118,356L121,358L122,360L124,361L125,361L127,362L128,363L130,364Z " data-fips="SP80" data-hasc="ES.AN" data-name="Andaluca" data-postal="AN" data-varname="Andalousie|Andaluca|Andalusien|Andaluzia"/><path d="M252,269L254,267L255,266L256,263L258,261L259,261L261,260L262,258L263,258L264,259L265,259L267,258L268,258L269,257L271,255L272,254L274,254L275,254L275,255L275,256L276,257L277,257L279,256L282,253L283,252L282,251L282,249L282,248L282,246L282,245L283,244L283,243L283,242L284,241L285,240L286,239L287,239L289,238L291,237L293,236L295,237L296,238L297,239L299,241L299,240L300,241L302,240L303,239L303,238L302,238L301,236L301,235L302,234L302,233L302,231L302,229L300,227L299,227L298,228L297,228L295,228L294,227L290,223L290,221L290,220L290,219L291,218L292,217L292,216L292,215L292,214L292,213L292,212L292,211L288,209L286,209L285,208L284,208L283,208L282,207L281,206L280,205L280,204L280,203L280,202L280,201L280,199L281,199L282,198L283,195L284,194L286,193L287,194L288,194L289,193L289,192L289,190L290,188L290,187L291,185L291,183L291,182L291,181L293,180L292,178L291,178L290,178L289,179L288,178L285,178L284,178L283,175L283,174L282,173L282,172L282,171L282,170L280,170L279,169L278,169L274,166L273,165L272,166L272,165L272,163L270,161L269,160L270,159L271,157L272,156L272,154L273,152L275,152L276,152L277,151L277,150L278,149L278,148L278,147L277,145L277,144L278,143L278,142L277,141L276,140L275,139L275,138L275,136L275,135L273,134L273,133L271,131L270,130L269,130L268,128L266,127L264,126L263,125L262,125L259,126L259,128L259,129L258,128L257,128L256,128L255,129L254,129L253,129L252,130L250,130L249,130L248,129L247,130L245,129L245,128L244,127L243,126L242,126L241,126L241,125L240,124L241,123L240,123L239,122L237,122L236,121L235,120L234,121L233,121L231,120L231,120L230,119L229,118L228,119L227,120L225,120L223,120L219,120L218,121L216,121L214,121L213,121L212,121L212,122L212,123L211,124L207,126L207,127L209,128L210,129L211,130L211,131L212,133L212,134L211,135L211,137L211,138L211,139L210,140L209,142L209,143L211,144L211,145L211,146L211,148L212,148L213,148L214,149L215,150L215,151L215,153L216,154L217,155L218,154L219,155L219,156L220,157L220,159L221,160L222,161L222,162L221,163L221,164L220,165L220,166L220,167L221,168L221,168L223,167L223,168L224,169L224,170L224,173L224,174L224,175L224,176L223,176L221,177L220,176L219,176L216,177L215,178L213,177L212,178L208,178L208,179L206,179L205,180L204,180L204,181L202,182L201,182L200,183L199,184L199,184L197,184L196,183L196,183L199,182L200,181L201,180L203,178L204,178L205,177L205,176L204,174L202,173L201,173L199,173L198,172L197,172L196,171L195,171L194,170L192,170L191,169L190,168L189,168L188,168L186,168L185,166L184,167L182,168L182,169L180,169L179,168L179,167L179,166L178,165L177,167L176,168L175,169L173,170L172,170L170,170L168,170L167,169L167,168L166,167L165,167L163,167L162,168L162,169L161,170L160,171L159,172L158,173L157,174L155,174L155,172L153,173L153,173L151,175L150,175L149,175L148,174L144,174L143,175L143,177L142,179L142,183L142,185L143,184L144,184L145,185L145,186L144,188L144,189L144,190L147,190L147,189L148,189L149,189L150,190L150,191L150,192L150,193L150,194L150,196L149,197L148,198L149,199L150,199L151,201L152,202L152,203L154,203L154,204L155,206L156,207L157,208L159,209L161,208L162,208L163,207L164,206L166,205L167,207L166,208L165,210L164,211L164,212L165,214L165,215L166,216L167,218L165,217L164,217L163,217L162,217L161,218L160,219L160,221L160,222L161,224L160,224L159,224L157,223L157,224L157,225L157,226L158,228L159,228L161,229L161,230L160,231L158,231L157,232L157,233L155,237L154,238L153,238L155,240L157,240L158,240L159,240L159,242L160,243L160,244L161,244L163,244L164,245L165,246L166,247L168,248L169,249L170,250L171,250L172,251L173,252L174,253L176,255L178,255L180,256L181,254L182,254L184,254L195,255L196,255L197,254L198,253L199,253L200,253L202,253L205,254L206,254L206,252L207,252L208,252L210,254L211,254L212,253L213,252L214,251L215,250L216,250L217,251L218,251L221,251L222,251L224,251L225,250L226,252L227,252L227,251L228,251L229,250L231,250L232,251L233,250L234,249L235,249L236,248L237,248L239,249L240,249L242,249L243,249L243,250L243,252L243,253L246,254L246,255L246,256L246,257L248,259L248,260L248,261L248,263L245,266L245,267L244,268L247,270L251,271Z " data-fips="SP84" data-hasc="ES.CM" data-name="Castilla-La Mancha" data-postal="CM" data-varname="Castela-La Mancha|Castela-Mancha|Castella-la Manxa|Castilha-La Mancha"/><path d="M190,51L192,49L192,50L192,51L193,51L194,51L196,50L197,50L198,49L198,48L197,46L196,46L196,47L195,47L195,45L196,45L197,44L197,43L196,43L195,44L193,45L192,44L192,43L193,41L194,40L195,40L195,39L197,38L197,37L198,36L200,36L201,35L202,34L202,33L204,32L205,33L207,33L208,34L209,34L211,34L211,32L211,31L211,30L211,29L214,27L215,27L218,27L219,27L220,25L220,24L220,23L220,23L218,21L216,21L214,21L212,20L211,20L210,20L210,20L209,19L210,19L211,19L211,18L208,17L207,16L206,16L203,16L202,17L201,18L200,18L200,19L199,19L199,20L197,20L197,19L198,18L200,17L199,17L198,17L197,17L195,17L194,18L192,19L191,19L189,19L186,20L185,21L181,21L180,21L179,22L177,21L176,22L175,21L174,22L174,23L174,24L174,26L174,27L173,27L172,27L171,27L170,28L168,28L167,28L167,30L167,31L166,31L165,31L164,31L163,34L164,35L164,36L166,37L167,38L167,40L168,39L170,39L171,39L173,39L174,39L175,38L177,38L178,39L179,40L180,41L184,43L184,44L184,46L184,47L185,48L186,47L187,48L186,48L186,49L187,50L188,50L189,51Z " data-fips="SP85" data-hasc="ES.CB" data-name="Cantabria" data-postal="CB" data-varname="Cantbria|Cantbria|Cantabrie|Kantabrien"/><path d="M151,175L153,173L153,173L155,172L155,174L157,174L158,173L159,172L160,171L161,170L162,169L162,168L163,167L165,167L166,167L167,168L167,169L168,170L170,170L171,169L172,167L172,166L172,165L173,164L174,165L175,164L176,163L176,162L176,161L177,161L178,161L179,161L180,159L180,158L180,157L180,156L180,155L180,154L181,153L181,151L181,150L182,151L183,152L184,151L185,150L185,149L186,148L187,146L188,144L190,143L191,143L192,143L192,142L192,141L193,140L193,139L193,137L194,136L195,135L199,133L199,132L200,131L201,130L203,129L204,128L204,127L206,126L207,126L211,124L212,123L212,122L212,121L213,121L214,121L216,121L218,121L219,120L223,120L225,120L227,120L228,119L229,118L230,119L231,120L231,120L233,121L234,121L235,120L236,121L237,122L239,122L240,123L241,123L240,124L241,125L241,126L242,126L243,126L244,127L245,128L245,129L247,130L248,129L249,130L250,130L252,130L253,129L254,129L255,129L256,128L257,128L258,128L259,129L259,128L259,126L259,125L257,125L256,124L256,122L256,120L255,119L255,118L256,116L257,115L257,114L257,113L257,112L259,112L260,113L260,114L261,115L262,114L263,113L263,111L262,110L262,109L262,108L261,106L261,105L263,105L264,104L264,103L265,103L267,102L267,101L268,100L268,99L267,98L267,97L266,97L266,96L267,94L267,93L266,92L266,91L265,88L264,89L263,90L262,90L261,89L259,89L257,88L256,87L257,86L256,85L255,84L255,83L256,82L255,82L254,82L251,82L251,81L250,80L248,80L246,80L245,81L244,82L243,82L243,84L242,84L241,86L241,87L239,87L238,87L237,86L235,86L235,85L235,84L236,82L235,81L234,81L233,82L233,83L233,84L232,85L231,86L230,86L229,86L228,83L227,83L226,83L225,83L224,82L223,80L223,79L222,78L222,77L223,75L223,74L223,73L223,72L222,71L223,70L224,69L224,68L224,67L224,66L224,65L223,64L223,63L223,62L222,61L223,60L224,59L224,58L224,57L225,57L228,57L229,58L231,57L231,56L228,54L227,53L226,52L225,51L224,50L223,51L221,50L221,50L221,49L221,48L222,47L222,46L221,46L220,47L219,47L218,48L216,46L216,45L217,44L218,43L219,43L221,43L221,45L222,45L224,45L225,44L226,44L226,43L225,42L225,41L226,41L226,39L225,38L224,38L223,40L222,40L220,39L221,38L221,37L221,35L220,34L220,33L221,32L220,32L219,32L217,31L216,31L213,33L211,34L209,34L208,34L207,33L205,33L204,32L202,33L202,34L201,35L200,36L198,36L197,37L197,38L195,39L195,40L194,40L193,41L192,43L192,44L193,45L195,44L196,43L197,43L197,44L196,45L195,45L195,47L196,47L196,46L197,46L198,48L198,49L197,50L196,50L194,51L193,51L192,51L192,50L192,49L190,51L189,51L188,50L187,50L186,49L186,48L187,48L186,47L185,48L184,47L184,46L184,44L184,43L180,41L179,40L178,39L177,38L175,38L174,39L173,39L171,39L170,39L168,39L167,40L167,38L166,37L164,36L164,35L163,34L164,31L162,29L161,29L159,31L158,31L156,32L155,32L155,33L154,35L153,35L152,35L151,36L147,36L145,36L145,37L144,37L142,38L141,39L139,39L138,39L137,38L136,38L135,37L133,38L133,38L132,39L132,40L130,41L129,41L128,40L127,40L125,39L125,38L124,37L123,37L121,37L120,38L119,38L117,37L116,38L115,38L114,38L113,37L112,37L111,37L110,38L110,39L109,39L108,40L109,41L106,42L105,43L102,42L100,42L99,43L98,44L97,43L96,42L95,44L94,45L95,46L94,47L93,49L92,50L91,50L90,51L89,51L88,53L89,54L88,55L88,56L88,58L87,60L87,61L88,61L90,62L91,61L92,61L93,62L95,62L95,64L95,65L94,66L96,67L97,68L98,70L98,71L97,72L96,73L95,74L94,75L93,75L92,76L90,77L90,79L89,79L87,81L88,82L89,82L89,83L89,85L89,86L89,87L91,88L94,87L94,86L95,86L96,88L97,88L100,88L101,88L102,87L103,89L103,91L104,92L102,97L103,98L103,99L103,101L105,101L106,101L107,100L109,101L111,102L113,103L114,104L115,106L113,108L112,109L112,110L111,113L110,113L109,114L108,114L107,116L106,117L104,118L102,119L100,119L99,119L97,121L97,122L96,123L95,124L95,126L93,128L92,129L89,129L88,130L89,131L90,134L91,135L92,137L93,138L92,139L92,140L92,142L92,143L92,145L92,147L92,148L91,151L91,152L92,153L92,154L91,155L90,157L91,159L91,160L92,161L91,163L90,164L89,165L90,165L91,166L92,166L94,166L95,166L96,166L97,166L100,165L101,164L101,163L103,162L104,161L105,161L106,160L108,159L108,158L109,158L111,157L112,156L113,156L115,157L115,158L116,159L117,159L118,160L118,161L118,162L119,163L120,164L121,164L123,166L124,165L124,165L125,164L126,163L128,163L128,164L128,165L129,166L130,165L132,166L132,167L134,168L134,169L135,169L137,170L139,170L140,169L141,168L143,168L143,169L143,171L143,173L144,174L148,174L149,175L150,175Z M242,56L242,55L240,55L239,54L240,53L241,52L240,51L239,51L238,51L235,50L234,50L231,50L231,51L230,53L231,53L232,54L234,55L237,56L238,56L241,56L242,57Z " data-fips="SP85" data-hasc="ES.CL" data-name="Castilla y Len" data-postal="CL" data-varname="Castile and Leon|Castela e Leo|Castella i Lle|Castile-Leon|Castilha-Leo|Castilla y Len|Castille et Lon|Kastilien-Len"/><path d="M199,184L199,184L200,183L201,182L202,182L204,181L204,180L205,180L206,179L208,179L208,178L212,178L213,177L215,178L216,177L219,176L220,176L221,177L223,176L224,176L224,175L224,174L224,173L224,170L224,169L223,168L223,167L221,168L221,168L220,167L220,166L220,165L221,164L221,163L222,162L222,161L221,160L220,159L220,157L219,156L219,155L218,154L217,155L216,154L215,153L215,151L215,150L214,149L213,148L212,148L211,148L211,146L211,145L211,144L209,143L209,142L210,140L211,139L211,138L211,137L211,135L212,134L212,133L211,131L211,130L210,129L209,128L207,127L207,126L206,126L204,127L204,128L203,129L201,130L200,131L199,132L199,133L195,135L194,136L193,137L193,139L193,140L192,141L192,142L192,143L191,143L190,143L188,144L187,146L186,148L185,149L185,150L184,151L183,152L182,151L181,150L181,151L181,153L180,154L180,155L180,156L180,157L180,158L180,159L179,161L178,161L177,161L176,161L176,162L176,163L175,164L174,165L173,164L172,165L172,166L172,167L171,169L172,170L173,170L175,169L176,168L177,167L178,165L179,166L179,167L179,168L180,169L182,169L182,168L184,167L185,166L186,168L188,168L189,168L190,168L191,169L192,170L194,170L195,171L196,171L197,172L198,172L199,173L201,173L202,173L204,174L205,176L205,177L204,178L203,178L201,180L200,181L199,182L196,183L196,183L197,184Z " data-fips="SP87" data-hasc="ES.MD" data-name="Comunidad de Madrid" data-postal="MD" data-varname="Madrid|Communaut de Madrid| Community of Madrid|Comunidad de Madrid |Comunidade de Madrid|Comunitat de Madrid"/><path d="M396,59L395,58L395,60L396,60Z " data-fips="SP86" data-hasc="" data-name="Canillo" data-postal="" data-varname=""/><path d="M352,148L353,147L356,146L358,146L356,148L355,148L354,148L356,149L356,149L357,148L359,145L360,145L362,144L363,143L363,142L362,141L361,140L360,139L359,138L359,139L358,139L357,139L357,137L360,134L362,131L366,127L367,126L368,126L370,125L371,125L372,126L373,125L374,123L376,123L385,119L388,119L394,116L395,116L396,116L399,115L401,115L403,114L405,113L406,111L407,110L408,107L409,106L410,105L413,103L415,102L415,101L422,97L427,94L428,93L429,92L430,92L431,91L432,91L436,87L438,85L441,82L441,81L442,80L442,78L441,77L440,76L440,74L440,73L439,72L438,71L437,70L437,69L437,67L438,66L442,66L443,65L443,64L443,61L441,62L440,61L439,61L438,60L438,59L438,58L436,58L434,58L432,57L432,57L430,57L429,57L428,58L426,58L425,58L424,59L423,60L422,60L421,60L419,62L420,63L418,63L416,63L414,64L413,64L412,63L411,62L410,62L407,61L406,60L405,60L403,61L401,62L401,63L399,64L398,64L397,64L395,63L395,61L394,60L392,60L390,59L388,59L386,59L385,58L384,60L383,60L381,61L380,62L378,61L377,59L378,58L376,57L377,55L376,54L376,52L375,51L374,50L373,49L369,49L367,50L366,49L366,47L364,47L361,46L360,46L359,46L358,46L357,45L355,44L354,44L352,44L350,44L350,46L350,48L349,49L350,49L351,51L351,51L352,52L352,54L353,54L354,55L354,56L354,57L353,59L353,60L352,61L353,62L353,63L354,64L354,65L354,67L354,68L354,70L354,71L354,73L353,74L353,75L353,77L353,78L353,79L352,81L352,83L351,84L351,85L350,85L349,87L350,88L350,90L349,91L348,92L347,92L346,93L346,95L344,95L343,96L343,97L342,98L341,99L342,101L343,102L344,102L345,103L345,104L345,105L345,106L344,107L343,108L343,110L342,112L342,113L343,114L344,115L343,117L343,118L343,120L342,120L342,121L341,123L341,123L340,124L338,125L338,126L339,127L340,129L341,129L342,131L341,133L341,134L340,135L341,137L341,138L341,139L340,140L340,141L338,143L339,143L340,144L341,144L342,145L342,146L342,147L343,148L346,148L347,149L348,150L348,151L351,152Z " data-fips="SP86" data-hasc="ES.CT" data-name="Catalua" data-postal="CT" data-varname="Catalogna|Catalogne|Catalonia|Catalunha|Catalunya|Katalonien"/><path d="M278,299L281,298L282,298L283,297L283,295L284,295L286,294L287,292L289,292L290,291L293,291L295,292L297,292L297,292L297,291L298,290L301,290L302,291L304,292L305,291L306,291L307,290L309,290L310,289L311,289L312,288L311,287L309,287L308,286L306,284L306,282L308,281L308,279L310,280L309,278L309,278L308,278L308,277L307,277L305,275L303,274L302,272L302,271L301,270L300,268L299,267L299,266L299,264L300,263L301,262L301,260L301,258L301,257L300,255L298,255L297,255L297,254L297,252L297,250L299,249L299,248L299,246L299,245L299,244L299,241L297,239L296,238L295,237L293,236L291,237L289,238L287,239L286,239L285,240L284,241L283,242L283,243L283,244L282,245L282,246L282,248L282,249L282,251L283,252L282,253L279,256L277,257L276,257L275,256L275,255L275,254L274,254L272,254L271,255L269,257L268,258L267,258L265,259L264,259L263,258L262,258L261,260L259,261L258,261L256,263L255,266L254,267L252,269L253,272L254,273L254,274L255,275L258,277L259,277L261,277L265,278L264,279L264,280L264,281L264,283L264,285L264,286L264,287L265,289L270,297L271,298L274,298L277,300Z M310,285L310,283L310,282L310,281L310,282L310,284L310,285L311,286Z " data-fips="SP96" data-hasc="ES.MU" data-name="Regin de Murcia" data-postal="MU" data-varname="Murcia|Regio de Mrcia|Regi de Mrcia|Rgion de Murcie|Region of Murcia"/><path d="M140,371L142,370L142,369L141,369L139,368L138,368L138,369L139,370L139,371L140,372Z " data-fips="SP00" data-hasc="ES.CE" data-name="Ceuta" data-postal="CE" data-varname="Ceuta y Melilla"/><path d="M232,399L231,398L230,396L229,397L230,398L230,399Z " data-fips="SP00" data-hasc="ES.CE" data-name="Melilla" data-postal="CE" data-varname="Ceuta y Melilla"/><path d="M99,43L100,42L102,42L105,43L106,42L109,41L108,40L109,39L110,39L110,38L111,37L112,37L113,37L114,38L115,38L116,38L117,37L119,38L120,38L121,37L123,37L124,37L125,38L125,39L127,40L128,40L129,41L130,41L132,40L132,39L133,38L133,38L135,37L136,38L137,38L138,39L139,39L141,39L142,38L144,37L145,37L145,36L147,36L151,36L152,35L153,35L154,35L155,33L155,32L156,32L158,31L159,31L161,29L162,29L164,31L165,31L166,31L167,31L167,30L167,28L168,28L170,28L171,27L172,27L173,27L174,27L174,26L174,24L174,23L174,22L175,21L166,20L164,19L161,18L160,17L159,18L156,18L155,17L152,17L151,16L148,14L146,14L146,15L145,15L145,13L144,13L137,13L135,13L134,12L134,11L131,9L130,8L129,9L128,9L128,10L128,11L123,12L122,12L121,12L118,12L116,11L115,11L114,12L112,12L110,12L109,12L107,13L106,12L105,11L103,11L100,12L99,11L96,11L93,11L91,12L91,13L90,14L89,15L89,16L88,17L87,18L86,18L85,19L85,20L86,21L86,22L87,23L88,24L89,27L90,28L90,29L91,30L91,31L92,32L93,32L94,31L95,30L95,31L96,33L94,34L93,35L92,35L91,36L90,37L91,38L91,38L92,37L93,39L94,39L95,41L96,42L97,43L98,44Z " data-fips="SP95" data-hasc="ES.AS" data-name="Principado de Asturias" data-postal="AS" data-varname="Astrias|Asturie|Asturien|Asturies|Astries|Asturias"/><path d="M74,92L75,91L77,91L79,91L81,89L81,88L81,86L82,85L83,85L84,86L85,87L86,87L87,87L89,86L89,85L89,83L89,82L88,82L87,81L89,79L90,79L90,77L92,76L93,75L94,75L95,74L96,73L97,72L98,71L98,70L97,68L96,67L94,66L95,65L95,64L95,62L93,62L92,61L91,61L90,62L88,61L87,61L87,60L88,58L88,56L88,55L89,54L88,53L89,51L90,51L91,50L92,50L93,49L94,47L95,46L94,45L95,44L96,42L95,41L94,39L93,39L92,37L91,38L91,38L90,37L91,36L92,35L93,35L94,34L96,33L95,31L95,30L94,31L93,32L92,32L91,31L91,30L90,29L90,28L89,27L88,24L87,23L86,22L86,21L85,20L85,19L86,18L87,18L88,17L89,16L89,15L89,14L90,13L90,12L89,11L88,11L86,11L84,11L83,11L82,11L82,10L81,9L79,6L78,5L74,3L73,3L72,4L71,4L69,2L68,3L68,2L68,1L67,2L65,2L64,3L64,4L62,4L62,6L61,5L62,5L62,4L63,3L62,2L61,1L60,2L59,3L58,3L57,3L56,4L55,5L55,7L55,6L50,9L48,9L47,10L48,11L46,12L46,14L47,14L49,14L52,13L51,14L47,15L49,16L50,16L51,17L50,17L50,19L50,20L50,21L49,20L48,19L48,18L47,17L46,17L45,19L44,19L44,18L42,19L41,19L40,20L38,21L37,20L36,20L34,21L33,21L32,21L30,20L29,19L28,20L27,20L25,21L24,22L25,24L23,24L22,24L21,25L21,26L19,26L18,25L17,26L15,27L16,28L18,28L19,28L18,28L17,29L16,29L15,30L14,31L13,32L13,33L13,34L13,35L12,37L12,38L13,39L14,37L15,38L16,37L17,38L17,39L17,40L17,41L18,42L18,43L17,43L17,45L18,46L19,46L20,45L21,44L23,44L25,43L25,42L26,43L25,44L24,45L23,46L21,47L20,48L20,50L19,51L19,52L19,54L20,55L20,57L22,56L22,54L23,53L24,52L26,53L26,52L26,51L27,50L27,51L28,52L30,51L30,50L30,51L29,54L28,54L27,55L27,57L27,59L26,60L25,60L25,58L24,59L23,60L24,60L25,62L26,63L27,63L28,63L29,63L30,62L31,61L32,62L32,63L30,64L28,66L26,66L25,68L25,69L28,69L30,68L32,67L33,66L33,68L31,69L30,70L28,71L27,73L26,74L25,74L26,75L25,76L24,76L23,77L24,87L25,86L26,85L27,84L28,83L30,82L31,81L32,80L33,80L35,79L37,78L43,78L44,77L45,76L46,76L47,77L47,79L48,80L49,80L50,80L50,82L49,83L48,83L47,84L46,87L46,89L47,89L47,90L47,92L50,92L52,92L53,90L54,89L55,89L56,88L57,87L57,89L57,90L59,89L60,89L62,89L64,88L65,89L67,90L67,92L68,92L69,91L70,90L71,91L72,91L73,93Z " data-fips="SP91" data-hasc="ES.GA" data-name="Galicia" data-postal="GA" data-varname="Galice|Galcia|Galicien|Galiza|Galizia"/><path d="M113,273L113,272L116,272L119,271L120,271L120,269L121,269L121,267L121,266L122,265L123,264L125,263L127,263L128,263L129,264L128,265L127,266L128,267L129,267L130,267L131,266L132,265L133,265L135,264L135,263L136,261L135,260L135,259L135,258L135,257L134,256L134,255L134,254L134,253L134,252L136,250L137,249L138,249L139,248L140,247L141,246L141,245L143,245L144,244L145,242L147,241L148,241L149,240L149,239L152,239L153,238L154,238L155,237L157,233L157,232L158,231L160,231L161,230L161,229L159,228L158,228L157,226L157,225L157,224L157,223L159,224L160,224L161,224L160,222L160,221L160,219L161,218L162,217L163,217L164,217L165,217L167,218L166,216L165,215L165,214L164,212L164,211L165,210L166,208L167,207L166,205L164,206L163,207L162,208L161,208L159,209L157,208L156,207L155,206L154,204L154,203L152,203L152,202L151,201L150,199L149,199L148,198L149,197L150,196L150,194L150,193L150,192L150,191L150,190L149,189L148,189L147,189L147,190L144,190L144,189L144,188L145,186L145,185L144,184L143,184L142,185L142,183L142,179L143,177L143,175L144,174L143,173L143,171L143,169L143,168L141,168L140,169L139,170L137,170L135,169L134,169L134,168L132,167L132,166L130,165L129,166L128,165L128,164L128,163L126,163L125,164L124,165L124,165L123,166L121,164L120,164L119,163L118,162L118,161L118,160L117,159L116,159L115,158L115,157L113,156L112,156L111,157L109,158L108,158L108,159L106,160L105,161L104,161L103,162L101,163L101,164L100,165L97,166L96,166L95,166L94,166L92,166L91,166L90,165L89,165L89,165L88,166L87,166L85,167L84,167L84,168L84,170L84,171L85,172L86,172L87,173L88,174L89,177L88,178L88,180L88,181L87,182L87,183L87,184L86,185L84,186L84,187L84,188L84,189L84,191L83,192L77,192L76,192L75,192L73,192L72,192L64,192L66,196L68,198L69,199L69,200L71,201L72,202L72,203L72,204L72,205L72,206L72,207L73,209L74,211L74,213L74,214L75,215L77,216L77,217L77,219L79,219L80,218L82,219L83,220L84,222L84,223L83,224L82,226L81,227L80,228L81,230L80,231L79,232L76,233L75,234L74,234L73,236L72,237L72,238L72,240L72,241L72,242L71,244L69,247L70,248L69,249L70,250L74,255L75,257L75,257L77,261L78,262L79,262L81,261L82,261L83,261L89,262L89,263L88,265L89,266L90,266L92,266L94,266L95,267L96,268L97,269L99,270L100,270L101,269L102,268L104,269L105,271L106,271L110,273L111,273Z " data-fips="SP90" data-hasc="ES.EX" data-name="Extremadura" data-postal="EX" data-varname="Estremadura|Estrmadure"/><path d="M263,90L264,89L265,88L266,87L266,86L264,85L264,84L264,83L265,81L266,80L267,79L268,80L269,79L271,80L271,79L271,77L271,76L269,75L267,74L266,74L265,73L265,72L264,71L261,68L258,68L258,67L256,66L254,66L253,65L252,65L251,64L248,64L245,63L244,63L243,62L242,63L241,63L240,64L240,63L238,63L237,62L237,60L236,59L235,58L234,58L233,60L232,60L232,59L231,58L231,57L229,58L228,57L225,57L224,57L224,58L224,59L223,60L222,61L223,62L223,63L223,64L224,65L224,66L224,67L224,68L224,69L223,70L222,71L223,72L223,73L223,74L223,75L222,77L222,78L223,79L223,80L224,82L225,83L226,83L227,83L228,83L229,86L230,86L231,86L232,85L233,84L233,83L233,82L234,81L235,81L236,82L235,84L235,85L235,86L237,86L238,87L239,87L241,87L241,86L242,84L243,84L243,82L244,82L245,81L246,80L248,80L250,80L251,81L251,82L254,82L255,82L256,82L255,83L255,84L256,85L257,86L256,87L257,88L259,89L261,89L262,90Z " data-fips="SP85" data-hasc="ES.LO" data-name="La Rioja" data-postal="LO" data-varname="Rioja"/><path d="M241,63L242,63L243,62L244,63L245,63L246,63L246,59L246,59L244,60L243,59L244,58L245,57L246,56L247,56L247,57L249,57L250,56L249,55L249,52L250,51L250,50L251,49L252,47L251,45L252,43L252,42L254,43L255,43L256,42L257,41L258,41L258,39L258,38L259,37L261,35L262,35L262,33L262,32L262,31L262,30L263,29L265,29L265,29L266,28L267,27L268,26L268,26L267,24L266,24L266,22L266,21L264,21L263,23L262,24L261,23L259,24L257,25L256,25L254,25L253,25L252,25L251,25L250,25L248,25L247,25L244,23L242,22L241,22L239,21L238,21L236,21L236,21L235,20L234,19L233,19L232,19L230,19L228,19L227,20L226,21L225,22L225,23L225,25L224,23L222,23L220,23L220,24L220,25L219,27L218,27L215,27L214,27L211,29L211,30L211,31L211,32L211,34L213,33L216,31L217,31L219,32L220,32L221,32L220,33L220,34L221,35L221,37L221,38L220,39L222,40L223,40L224,38L225,38L226,39L226,41L225,41L225,42L226,43L226,44L225,44L224,45L222,45L221,45L221,43L219,43L218,43L217,44L216,45L216,46L218,48L219,47L220,47L221,46L222,46L222,47L221,48L221,49L221,50L221,50L223,51L224,50L225,51L226,52L227,53L228,54L231,56L231,57L231,58L232,59L232,60L233,60L234,58L235,58L236,59L237,60L237,62L238,63L240,63L240,64Z M242,57L241,56L238,56L237,56L234,55L232,54L231,53L230,53L231,51L231,50L234,50L235,50L238,51L239,51L240,51L241,52L240,53L239,54L240,55L242,55L242,56Z " data-fips="SP94" data-hasc="ES.PV" data-name="Pas Vasco" data-postal="PV" data-varname="Basque Country|Baskenland|Basque Autonomous Community|Basque Provinces|CAV|Comunidad Autonoma Vasca"/><path d="M393,236L392,235L390,234L388,232L388,232L387,233L386,233L386,234L386,235L387,236L388,236L389,235L391,236L392,237Z M386,227L387,225L389,224L390,223L391,221L392,220L393,219L394,218L393,217L393,216L392,215L391,215L390,215L389,215L388,215L387,215L386,216L385,216L384,217L383,218L382,219L382,220L381,222L380,222L379,223L380,224L379,225L380,226L381,227L383,226L384,227L385,227L386,228Z M445,203L447,202L450,200L451,198L452,197L452,194L453,192L454,190L455,188L455,187L456,186L457,185L457,183L457,182L457,181L456,181L454,180L452,180L451,181L448,182L447,181L446,181L445,180L445,179L445,178L446,177L447,176L447,175L445,176L443,176L444,174L445,173L446,173L447,172L446,171L443,173L441,174L439,174L438,175L436,176L434,177L433,178L432,178L431,179L430,180L429,181L427,182L427,183L426,184L425,185L423,186L422,188L421,188L418,190L418,192L419,193L420,194L422,193L423,195L424,196L425,195L426,193L428,192L430,192L431,192L432,193L433,194L432,195L433,196L433,199L434,200L436,200L439,200L440,200L442,201L442,202L443,203L445,204Z M487,175L488,172L486,170L486,169L485,169L485,168L484,167L483,166L483,166L482,165L481,164L480,165L479,164L478,164L477,165L476,165L471,165L469,166L468,167L469,168L470,169L470,170L470,171L471,171L474,170L475,170L476,171L482,174L485,175Z " data-fips="SP07" data-hasc="ES.PM" data-name="Islas Baleares" data-postal="PM" data-varname="Balearic Islands|Balearen|Balearene|Baleares|Islas Baleares|Baleari|les Balares|Ilhas Baleares|Illes Balears"/><path d="M303,185L305,184L304,183L304,182L304,180L304,179L306,178L306,177L306,176L308,176L309,176L311,174L311,173L312,172L313,171L313,169L313,168L314,167L315,167L316,167L317,167L319,165L319,164L320,163L321,161L322,160L322,159L321,158L320,157L321,156L323,155L322,154L322,153L322,151L322,150L322,149L320,149L319,149L319,148L319,147L320,146L321,147L322,146L324,144L324,143L324,142L325,141L327,142L328,142L329,143L330,143L333,144L334,145L334,144L336,143L337,143L338,143L340,141L340,140L341,139L341,138L341,137L340,135L341,134L341,133L342,131L341,129L340,129L339,127L338,126L338,125L340,124L341,123L341,123L342,121L342,120L343,120L343,118L343,117L344,115L343,114L342,113L342,112L343,110L343,108L344,107L345,106L345,105L345,104L345,103L344,102L343,102L342,101L341,99L342,98L343,97L343,96L344,95L346,95L346,93L347,92L348,92L349,91L350,90L350,88L349,87L350,85L351,85L351,84L352,83L352,81L353,79L353,78L353,77L353,75L353,74L354,73L354,71L354,70L354,68L354,67L354,65L354,64L353,63L353,62L352,61L353,60L353,59L354,57L354,56L354,55L353,54L352,54L352,52L351,51L351,51L350,52L349,51L344,52L342,52L341,51L340,50L339,51L338,53L337,52L336,51L334,50L333,51L330,51L328,52L327,53L325,52L324,51L324,50L323,49L322,48L321,48L319,47L317,46L316,46L313,48L312,48L310,47L310,49L308,49L308,48L307,47L305,45L304,45L303,44L302,44L302,43L301,43L300,43L300,45L299,46L299,47L298,50L297,50L296,51L296,52L295,53L293,53L293,55L292,56L291,56L289,57L289,58L288,59L287,59L286,60L285,60L285,61L285,62L285,63L284,64L283,65L282,67L283,69L283,70L282,71L281,72L281,73L281,75L280,76L281,77L281,78L281,79L281,81L282,82L283,83L284,83L284,85L283,86L283,87L282,88L281,89L281,90L279,90L278,90L277,90L276,90L274,89L274,88L272,88L271,88L269,88L268,87L267,86L266,86L266,87L265,88L266,91L266,92L267,93L267,94L266,96L266,97L267,97L267,98L268,99L268,100L267,101L267,102L265,103L264,103L264,104L263,105L261,105L261,106L262,108L262,109L262,110L263,111L263,113L262,114L261,115L260,114L260,113L259,112L257,112L257,113L257,114L257,115L256,116L255,118L255,119L256,120L256,122L256,124L257,125L259,125L262,125L263,125L264,126L266,127L268,128L269,130L270,130L271,131L273,133L273,134L275,135L275,136L275,138L275,139L276,140L277,141L278,142L278,143L277,144L277,145L278,147L278,148L278,149L277,150L277,151L276,152L275,152L273,152L272,154L272,156L271,157L270,159L269,160L270,161L272,163L272,165L272,166L273,165L274,166L278,169L279,169L280,170L282,170L282,171L282,172L284,172L285,172L286,171L286,170L287,169L287,170L288,171L289,172L289,173L290,173L292,173L293,174L294,175L295,176L294,177L292,178L293,180L293,180L294,180L296,179L298,179L299,179L301,180L301,181L301,182L301,183L301,184L302,185Z M288,67L288,66L289,65L289,66L288,67Z M291,65L290,65L290,64L291,63L291,64L292,65Z " data-fips="SP81" data-hasc="ES.AR" data-name="Aragn" data-postal="AR" data-varname="Arago|Arag|Aragn|Aragona|Aragonien"/><path d="M281,89L282,88L283,87L283,86L284,85L284,83L283,83L282,82L281,81L281,79L281,78L281,77L280,76L281,75L281,73L281,72L282,71L283,70L283,69L282,67L283,65L284,64L285,63L285,62L285,61L285,60L286,60L287,59L288,59L289,58L289,57L291,56L292,56L293,55L293,53L295,53L296,52L296,51L297,50L298,50L299,47L299,46L300,45L300,43L301,43L302,43L301,41L298,42L295,41L294,41L293,40L292,40L291,39L290,39L288,39L287,38L286,38L283,37L283,36L284,34L282,34L281,36L281,37L280,38L279,38L277,37L277,35L279,33L279,32L280,30L280,28L279,27L277,27L276,27L274,26L273,28L272,28L272,28L271,26L270,26L269,26L268,26L267,27L266,28L265,29L265,29L263,29L262,30L262,31L262,32L262,33L262,35L261,35L259,37L258,38L258,39L258,41L257,41L256,42L255,43L254,43L252,42L252,43L251,45L252,47L251,49L250,50L250,51L249,52L249,55L250,56L249,57L247,57L247,56L246,56L245,57L244,58L243,59L244,60L246,59L246,59L246,63L248,64L251,64L252,65L253,65L254,66L256,66L258,67L258,68L261,68L264,71L265,72L265,73L266,74L267,74L269,75L271,76L271,77L271,79L271,80L269,79L268,80L267,79L266,80L265,81L264,83L264,84L264,85L266,86L267,86L268,87L269,88L271,88L272,88L274,88L274,89L276,90L277,90L278,90L279,90L281,90Z M288,67L289,66L289,65L288,66L288,67Z M292,65L291,64L291,63L290,64L290,65L291,65Z " data-fips="SP88" data-hasc="ES.NA" data-name="Comunidad Foral de Navarra" data-postal="NA" data-varname="Communaut forale de Navarre|Comunidade Foral de Navarra|Comunitat Foral|Navarra"/><path d="M309,278L309,278L309,277L311,273L312,272L313,270L312,267L312,265L313,264L314,262L315,261L316,261L317,261L317,257L317,255L319,254L320,254L321,253L321,251L323,249L324,248L327,247L329,246L331,245L332,245L333,244L333,243L334,241L335,241L336,241L337,240L338,240L339,239L340,238L341,237L342,236L343,235L344,235L343,234L342,232L341,231L339,230L338,230L336,230L334,229L333,227L331,226L329,223L328,222L327,219L326,217L326,216L326,215L326,214L324,209L323,206L322,204L322,201L323,199L324,197L324,196L325,194L326,193L326,192L327,190L330,184L332,181L333,180L334,177L335,175L337,174L338,173L341,168L342,166L344,164L345,163L348,158L348,157L349,156L350,154L350,153L351,152L348,151L348,150L347,149L346,148L343,148L342,147L342,146L342,145L341,144L340,144L339,143L338,143L337,143L336,143L334,144L334,145L333,144L330,143L329,143L328,142L327,142L325,141L324,142L324,143L324,144L322,146L321,147L320,146L319,147L319,148L319,149L320,149L322,149L322,150L322,151L322,153L322,154L323,155L321,156L320,157L321,158L322,159L322,160L321,161L320,163L319,164L319,165L317,167L316,167L315,167L314,167L313,168L313,169L313,171L312,172L311,173L311,174L309,176L308,176L306,176L306,177L306,178L304,179L304,180L304,182L304,183L305,184L303,185L302,185L301,184L301,183L301,182L301,181L301,180L299,179L298,179L296,179L294,180L293,180L293,180L291,181L291,182L291,183L291,185L290,187L290,188L289,190L289,192L289,193L288,194L287,194L286,193L284,194L283,195L282,198L281,199L280,199L280,201L280,202L280,203L280,204L280,205L281,206L282,207L283,208L284,208L285,208L286,209L288,209L292,211L292,212L292,213L292,214L292,215L292,216L292,217L291,218L290,219L290,220L290,221L290,223L294,227L295,228L297,228L298,228L299,227L300,227L302,229L302,231L302,233L302,234L301,235L301,236L302,238L303,238L303,239L302,240L300,241L299,240L299,241L299,244L299,245L299,246L299,248L299,249L297,250L297,252L297,254L297,255L298,255L300,255L301,257L301,258L301,260L301,262L300,263L299,264L299,266L299,267L300,268L301,270L302,271L302,272L303,274L305,275L307,277L308,277L308,278Z M290,178L291,178L292,178L294,177L295,176L294,175L293,174L292,173L290,173L289,173L289,172L288,171L287,170L287,169L286,170L286,171L285,172L284,172L282,172L282,173L283,174L283,175L284,178L285,178L288,178L289,179Z " data-fips="SP89" data-hasc="ES.VC" data-name="Comunidad Valenciana" data-postal="VC" data-varname="Valencia|Communaut de Valence|Comunidade Valenciana|Comunidad Valenciana|Comunitat Valenciana"/></g></svg>