<?xml version="1.0" ?><!DOCTYPE svg  PUBLIC '-//W3C//DTD SVG 1.1//EN'  'http://www.w3.org/Graphics/SVG/1.1/DTD/svg11.dtd'><svg enable_background="new 0 0 500 401" height="401px" style="stroke-linejoin: round; stroke:#000; fill:#f6f3f0;" version="1.1" viewBox="0 0 500 401" width="500px" xmlns="http://www.w3.org/2000/svg" xmlns:xlink="http://www.w3.org/1999/xlink"><defs><style type="text/css"><![CDATA[path { fill-rule: evenodd; }
#context path { fill: #eee; stroke: #bbb; } ]]></style></defs><metadata><views><view h="401" padding="0" w="500"><proj id="laea" lat0="58.674" lon0="25.793"/><bbox h="26.57" w="40.64" x="974.4" y="987.7"/><llbbox lat0="-90" lat1="90" lon0="-180" lon1="180"/></view></views></metadata><g id="admin1"><path d="M185,137L186,135L187,133L188,133L190,133L192,134L197,134L199,131L204,125L204,124L209,123L213,122L219,122L220,120L219,118L219,117L220,115L220,112L221,110L222,109L223,107L225,106L227,104L237,105L238,104L243,103L246,103L245,107L245,108L246,110L247,111L249,113L250,115L252,117L257,119L258,121L262,124L264,124L265,123L266,124L267,125L268,128L268,130L268,131L269,132L270,133L272,135L275,137L284,135L284,132L284,129L284,127L285,126L287,127L288,127L289,127L290,126L291,125L291,123L290,122L289,118L291,113L292,110L293,108L293,106L293,103L292,101L291,99L291,98L294,97L299,97L302,98L304,99L305,98L305,97L315,94L319,94L327,95L327,92L325,85L325,83L324,81L323,80L323,79L323,77L323,75L323,74L322,72L320,71L319,69L319,63L317,61L317,59L317,57L318,55L318,50L318,51L316,50L315,48L314,44L313,43L314,41L310,37L307,36L306,39L307,39L307,42L307,44L309,46L309,49L308,51L306,52L304,51L302,50L300,46L298,44L297,44L295,42L293,37L291,36L291,39L291,45L292,51L295,54L296,56L295,57L288,57L286,58L285,60L285,63L269,58L265,56L263,56L262,57L263,61L261,62L260,62L257,59L255,59L249,60L247,60L242,53L239,51L236,52L237,54L237,55L237,56L237,57L237,58L238,60L239,61L239,64L237,68L236,69L234,69L233,68L232,65L231,63L230,62L228,62L228,64L227,66L225,66L225,67L226,67L227,69L228,70L226,71L225,71L220,67L219,67L218,68L216,69L215,70L213,69L211,66L209,64L208,64L202,65L202,66L201,71L200,73L197,74L191,74L189,75L191,77L193,80L193,83L191,84L189,83L185,78L183,76L181,76L180,76L179,77L178,79L178,80L178,82L183,89L184,92L182,95L179,92L175,92L171,93L167,94L164,93L157,92L155,93L154,95L155,96L156,98L156,99L154,100L154,100L155,103L157,104L158,106L160,109L160,110L163,111L165,112L166,112L168,116L171,116L173,116L177,115L181,117L184,121L184,122L184,123L185,125L185,126L187,127L186,128L183,133L183,134L182,135L182,136L182,138L183,139Z M219,54L219,52L218,48L217,46L216,46L215,49L215,52L217,54Z " data-fips="EN01" data-hasc="EE.HA" data-name="Harju" data-postal="HA" data-varname="Harjumaa|Harju maakond"/><path d="M447,155L464,139L465,137L466,134L469,127L470,124L474,111L476,99L478,96L477,94L478,93L479,91L483,89L492,89L493,86L492,86L486,84L488,83L495,82L498,79L500,81L500,78L499,77L497,75L496,74L495,73L493,68L492,66L488,65L487,62L484,67L482,70L479,72L476,74L464,71L452,71L440,68L429,69L417,70L403,69L402,68L398,66L395,65L391,61L391,61L390,63L390,65L390,66L392,69L392,71L392,72L392,76L392,77L390,75L389,76L388,77L389,80L387,81L386,83L387,84L389,84L392,85L393,86L392,88L389,94L389,98L390,99L391,100L396,99L397,103L398,104L399,105L400,106L403,106L404,108L403,112L404,113L404,114L403,116L399,116L394,120L393,123L394,131L394,133L394,135L393,136L392,138L392,139L392,140L391,141L389,142L386,144L388,146L388,147L389,149L389,152L390,155L391,155L392,155L394,155L396,154L398,154L400,154L402,155L403,157L404,157L406,158L445,164Z " data-fips="EN03" data-hasc="EE.IV" data-name="Ida-Viru" data-postal="IV" data-varname="Ida-Virumaa|Ida-Viru maakond"/><path d="M290,196L292,194L295,194L296,192L301,191L303,190L304,189L310,187L314,185L314,183L316,180L317,179L318,177L318,176L320,175L322,173L324,173L326,174L328,172L328,171L328,170L328,168L328,167L329,166L332,164L334,163L335,163L340,163L340,162L340,159L340,158L341,157L343,155L343,153L344,151L344,150L344,149L344,147L344,146L343,143L342,141L340,139L338,136L336,135L334,131L333,130L332,130L330,129L328,129L326,129L325,128L326,125L326,122L329,119L330,117L332,114L332,111L330,110L328,108L327,107L328,105L327,104L326,101L325,100L325,99L325,98L319,94L315,94L305,97L305,98L304,99L302,98L299,97L294,97L291,98L291,99L292,101L293,103L293,106L293,108L292,110L291,113L289,118L290,122L291,123L291,125L290,126L289,127L288,127L287,127L285,126L284,127L284,129L284,132L284,135L275,142L275,143L276,144L277,146L277,148L276,149L276,150L274,151L273,152L271,156L272,157L273,158L274,160L274,162L273,163L272,165L271,167L270,167L269,168L269,170L270,172L270,174L270,175L268,179L271,180L273,181L275,181L275,182L275,184L274,186L274,188L273,193L276,195L278,195L280,196L287,197Z " data-fips="EN04" data-hasc="EE.JR" data-name="Jrva" data-postal="JR" data-varname="Jaerva|Jrvamaa|Jrva maakond"/><path d="M345,215L347,215L349,215L350,214L357,209L358,208L360,209L360,209L361,210L362,210L364,208L366,208L368,209L369,209L372,207L374,209L377,210L381,210L382,208L383,205L385,204L386,205L388,206L396,204L398,199L399,193L402,193L406,196L409,197L410,197L411,197L412,196L411,192L412,190L413,190L414,189L415,188L416,187L417,186L422,185L444,180L442,174L445,164L406,158L404,157L403,157L402,155L400,154L398,154L396,154L394,155L392,155L391,155L390,155L389,152L389,149L388,147L388,146L386,144L383,144L379,146L376,148L375,148L373,148L372,147L371,147L367,150L367,152L367,154L363,155L359,154L357,151L356,150L354,151L350,153L343,155L341,157L340,158L340,159L340,162L340,163L335,163L334,163L332,164L329,166L328,167L328,168L328,170L328,171L328,172L326,174L324,173L322,173L320,175L318,176L318,177L317,179L316,180L314,183L314,185L314,186L314,190L315,192L314,194L313,195L312,195L311,197L312,198L315,198L316,198L318,198L325,199L326,200L327,201L327,202L327,203L328,204L329,205L330,205L332,205L333,206L334,207L334,209L336,212L342,216Z " data-fips="EN05" data-hasc="EE.JN" data-name="Jgeva" data-postal="JN" data-varname="Jogeva|Jgevamaa|Jgeva maakond"/><path d="M367,154L367,152L367,150L371,147L372,147L373,148L375,148L376,148L379,146L383,144L386,144L389,142L391,141L392,140L392,139L392,138L393,136L394,135L394,133L394,131L393,123L394,120L399,116L403,116L404,114L404,113L403,112L404,108L403,106L400,106L399,105L398,104L397,103L396,99L391,100L390,99L389,98L389,94L392,88L393,86L392,85L389,84L387,84L386,83L387,81L389,80L388,77L389,76L390,75L392,77L392,76L392,72L392,71L392,69L390,66L390,65L390,63L391,61L391,61L388,58L385,55L382,54L379,53L376,53L375,53L372,55L371,56L369,56L366,55L362,52L357,51L354,49L352,49L337,49L337,48L337,46L334,43L331,42L330,42L329,42L328,44L328,45L328,46L328,47L327,48L325,46L324,43L322,42L321,46L321,47L320,49L318,50L318,55L317,57L317,59L317,61L319,63L319,69L320,71L322,72L323,74L323,75L323,77L323,79L323,80L324,81L325,83L325,85L327,92L327,95L325,98L325,99L325,100L326,101L327,104L328,105L327,107L328,108L330,110L332,111L332,114L330,117L329,119L326,122L326,125L325,128L326,129L328,129L330,129L332,130L333,130L334,131L336,135L338,136L340,139L342,141L343,143L344,146L344,147L344,149L344,150L344,151L343,153L343,155L350,153L354,151L356,150L357,151L359,154L363,155Z " data-fips="EN08" data-hasc="EE.LV" data-name="Lne-Viru" data-postal="LV" data-varname="Laeaene-Viru|Lne-Virumaa|Lne-Viru maakond"/><path d="M352,271L354,269L355,269L357,268L360,264L362,263L363,264L363,265L366,267L367,266L369,266L373,264L375,265L375,266L377,267L378,268L379,271L382,269L383,268L383,266L383,265L382,264L383,263L385,263L386,262L386,261L388,260L389,262L392,262L397,261L399,258L399,256L401,253L402,252L404,252L407,252L410,254L411,254L412,252L413,250L415,249L417,251L419,251L420,250L422,249L423,250L424,251L431,250L432,252L433,255L435,256L437,256L438,255L450,259L453,258L451,254L450,247L451,239L455,228L444,180L422,185L417,186L416,187L415,188L414,189L413,190L412,190L411,192L412,196L411,197L410,197L409,197L406,196L402,193L399,193L398,199L396,204L388,206L386,205L385,204L383,205L382,208L381,210L377,210L374,209L372,207L369,209L368,209L366,208L364,208L362,210L361,210L360,209L360,209L358,208L357,209L350,214L349,215L347,215L345,215L342,216L345,226L345,227L339,235L337,240L335,244L335,256L337,270L351,271Z " data-fips="EN18" data-hasc="EE.TA" data-name="Tartu" data-postal="TA" data-varname="Tartumaa|Tartu maakond|Dorpat"/><path d="M64,179L68,177L70,174L73,165L75,162L76,161L78,159L80,158L81,159L82,160L81,161L79,163L78,164L79,166L81,167L83,167L85,166L85,165L86,165L87,163L86,161L85,160L86,158L87,158L89,158L90,157L91,158L92,156L94,157L97,159L98,159L99,158L99,154L97,154L97,153L97,151L97,150L97,149L96,148L95,147L94,146L93,144L92,143L92,142L93,139L92,138L91,136L84,132L76,132L75,131L73,129L73,126L75,122L73,120L71,119L69,119L66,118L65,119L64,120L64,121L64,123L64,124L62,126L61,127L60,128L58,128L57,129L56,134L54,133L53,134L53,135L54,136L31,138L25,137L22,137L21,139L23,141L33,147L35,148L40,147L43,147L45,147L47,149L51,154L52,155L52,158L52,161L52,164L53,167L54,170L55,171L54,173L53,174L55,178L60,179Z " data-fips="EN02" data-hasc="EE.HI" data-name="Hiiu" data-postal="HI" data-varname="Hiiumaa|Hiiu maakond|Dag"/><path d="M140,204L144,203L145,203L153,204L159,203L165,203L165,202L162,199L162,196L162,194L162,193L162,192L163,191L165,193L167,193L168,192L170,190L170,188L170,187L171,185L174,186L175,186L178,184L180,184L184,182L186,177L185,176L181,175L179,174L180,172L183,171L183,170L187,168L185,166L185,165L185,164L186,163L188,162L189,161L189,160L188,159L187,157L184,149L181,144L181,142L183,139L182,138L182,136L182,135L183,134L183,133L186,128L187,127L185,126L185,125L184,123L184,122L184,121L181,117L177,115L173,116L171,116L168,116L166,112L165,112L163,111L160,110L160,109L158,106L157,104L155,103L154,100L154,100L154,100L150,96L148,96L147,97L146,98L144,99L143,101L141,101L139,100L135,103L136,108L138,116L137,124L135,121L135,122L131,126L130,128L130,131L129,131L131,134L133,136L138,138L138,139L140,139L140,138L140,136L143,134L145,133L144,131L142,129L141,127L142,128L144,130L145,133L146,137L146,138L145,140L142,142L141,143L139,142L138,142L136,144L131,143L129,145L129,149L132,152L132,155L137,162L136,163L134,164L132,165L129,170L133,169L135,168L138,169L138,168L139,168L141,167L143,166L148,167L152,166L153,166L155,168L157,166L159,166L162,168L164,170L162,170L159,168L158,168L157,169L156,171L157,173L158,174L158,175L158,176L156,176L154,176L151,174L150,173L147,173L144,174L141,175L138,173L137,173L136,175L137,177L138,179L137,180L135,180L134,181L133,184L134,188L135,192L135,195L135,197L134,198L133,200L134,201L135,202L135,202L136,200L137,199L139,199L139,201L139,203L140,204Z M113,137L114,137L116,137L118,139L120,139L122,137L124,137L126,138L127,138L127,135L127,133L125,130L124,128L122,128L119,129L113,127L110,127L108,127L107,128L106,129L106,131L108,138L110,139Z " data-fips="EN07" data-hasc="EE.LN" data-name="Lne" data-postal="LN" data-varname="Laeaene|Lnemaa|Lne maakond"/><path d="M171,271L173,268L172,265L170,264L168,265L166,267L167,271L169,273Z M201,310L203,309L203,307L205,304L206,303L209,301L213,297L215,297L221,297L226,297L227,296L228,292L230,290L232,291L234,292L236,293L237,292L239,290L241,289L247,288L249,287L254,282L254,282L253,280L253,279L253,277L252,276L253,275L254,274L255,273L256,272L256,270L257,270L258,271L260,270L260,269L259,268L259,266L259,266L261,264L263,265L263,263L263,262L262,261L263,260L264,259L268,258L269,259L270,259L270,253L270,251L272,250L271,248L270,247L266,244L262,241L261,241L255,239L253,239L251,241L249,240L248,238L249,234L250,230L250,227L250,225L252,223L252,220L252,218L251,216L252,214L255,211L260,209L263,206L264,205L265,203L267,202L270,201L271,200L271,199L270,198L270,197L270,196L271,195L273,193L274,188L274,186L275,184L275,182L275,181L273,181L271,180L268,179L265,180L263,180L257,179L257,180L256,180L254,180L253,181L251,182L250,183L247,187L246,187L245,186L245,184L245,180L244,178L244,177L243,176L241,175L240,175L238,176L236,177L231,175L228,175L225,179L222,180L219,181L218,181L217,179L217,177L215,177L212,178L209,181L209,182L208,184L207,185L206,186L202,187L196,186L186,184L184,182L180,184L178,184L175,186L174,186L171,185L170,187L170,188L170,190L168,192L167,193L165,193L163,191L162,192L162,193L162,194L162,196L162,199L165,202L165,203L159,203L153,204L145,203L144,203L140,204L140,204L141,206L144,207L146,206L147,208L148,211L147,216L147,219L147,221L147,223L148,224L149,225L150,227L150,229L150,230L151,232L151,234L152,236L153,235L154,234L155,234L156,234L157,235L158,234L159,234L160,236L162,237L165,237L170,239L172,242L176,246L178,250L179,251L181,251L183,247L184,246L186,246L189,247L190,247L191,246L192,244L195,240L195,239L195,236L196,235L196,233L197,231L198,230L201,228L204,229L208,230L214,236L216,238L217,241L216,245L213,247L211,248L209,251L209,252L209,254L209,256L208,259L208,261L208,262L209,264L209,265L209,267L208,270L208,278L207,280L203,285L201,291L197,300L197,302L197,304L196,306L196,307L195,308L198,310Z " data-fips="EN11" data-hasc="EE.PR" data-name="Prnu" data-postal="PR" data-varname="Paernu|Prnumaa|Prnu maakond"/><path d="M469,314L474,312L476,310L477,308L476,305L475,304L467,301L466,300L465,298L466,296L466,294L466,292L466,289L464,288L463,287L463,283L463,279L462,274L458,269L455,262L453,258L450,259L438,255L437,256L435,256L433,255L432,252L431,250L424,251L423,250L422,249L420,250L419,251L417,251L415,249L413,250L412,252L411,254L410,254L407,252L404,252L402,252L401,253L399,256L399,258L397,261L392,262L389,262L388,260L386,261L386,262L385,263L383,263L382,264L383,265L383,266L383,268L382,269L379,271L377,273L377,275L376,278L376,279L376,281L376,284L376,286L375,288L375,296L378,297L379,298L380,298L383,299L385,298L387,298L391,299L393,300L401,299L402,300L404,299L406,298L416,301L416,297L417,296L418,295L420,295L421,296L426,300L431,302L433,302L434,301L435,301L436,303L436,305L434,307L433,309L433,312L434,312L435,312L437,314L438,314L442,313L444,312L449,313L457,316L457,316Z " data-fips="EN12" data-hasc="EE.PL" data-name="Plva" data-postal="PL" data-varname="Polva|Plvamaa|Plva maakond"/><path d="M247,187L250,183L251,182L253,181L254,180L256,180L257,180L257,179L263,180L265,180L268,179L270,175L270,174L270,172L269,170L269,168L270,167L271,167L272,165L273,163L274,162L274,160L273,158L272,157L271,156L273,152L274,151L276,150L276,149L277,148L277,146L276,144L275,143L275,142L275,137L272,135L270,133L269,132L268,131L268,130L268,128L267,125L266,124L265,123L264,124L262,124L258,121L257,119L252,117L250,115L249,113L247,111L246,110L245,108L245,107L246,103L243,103L238,104L237,105L227,104L225,106L223,107L222,109L221,110L220,112L220,115L219,117L219,118L220,120L219,122L213,122L209,123L204,124L204,125L199,131L197,134L192,134L190,133L188,133L187,133L186,135L185,137L183,139L181,142L181,144L184,149L187,157L188,159L189,160L189,161L188,162L186,163L185,164L185,165L185,166L187,168L183,170L183,171L180,172L179,174L181,175L185,176L186,177L184,182L186,184L196,186L202,187L206,186L207,185L208,184L209,182L209,181L212,178L215,177L217,177L217,179L218,181L219,181L222,180L225,179L228,175L231,175L236,177L238,176L240,175L241,175L243,176L244,177L244,178L245,180L245,184L245,186L246,187Z " data-fips="EN13" data-hasc="EE.RA" data-name="Rapla" data-postal="RA" data-varname="Raplamaa|Rapla maakond"/><path d="M367,356L367,354L367,350L366,349L367,348L368,346L369,346L369,344L367,342L366,340L368,338L369,336L370,335L370,334L369,333L368,332L367,331L367,330L366,328L368,326L368,325L369,323L369,322L368,321L366,320L363,319L363,313L364,310L363,309L361,308L361,307L362,306L363,304L363,302L363,301L363,299L366,298L375,296L375,288L376,286L376,284L376,281L376,279L376,278L377,275L377,273L379,271L378,268L377,267L375,266L375,265L373,264L369,266L367,266L366,267L363,265L363,264L362,263L360,264L357,268L355,269L354,269L352,271L351,271L337,270L330,272L328,273L326,273L325,272L324,270L323,268L321,267L319,267L319,269L318,270L317,271L318,273L317,275L312,277L309,279L307,282L306,283L304,283L303,283L301,283L300,284L300,285L300,287L300,288L298,292L298,293L297,294L295,297L296,297L296,298L296,300L298,302L299,303L301,303L303,303L309,301L310,301L311,304L312,307L313,310L315,312L332,313L333,314L333,317L333,318L333,319L333,322L334,324L343,331L345,335L353,347L356,350L359,353L360,353L367,356Z " data-fips="EN19" data-hasc="EE.VG" data-name="Valga" data-postal="VG" data-varname="Valgamaa|Valga maakond"/><path d="M297,294L298,293L298,292L300,288L300,287L300,285L300,284L301,283L303,283L304,283L306,283L307,282L309,279L312,277L317,275L318,273L317,271L318,270L319,269L319,267L321,267L323,268L324,270L325,272L326,273L328,273L330,272L337,270L335,256L335,244L337,240L339,235L345,227L345,226L342,216L336,212L334,209L334,207L333,206L332,205L330,205L329,205L328,204L327,203L327,202L327,201L326,200L325,199L318,198L316,198L315,198L312,198L311,197L312,195L313,195L314,194L315,192L314,190L314,186L314,185L310,187L304,189L303,190L301,191L296,192L295,194L292,194L290,196L287,197L280,196L278,195L276,195L273,193L271,195L270,196L270,197L270,198L271,199L271,200L270,201L267,202L265,203L264,205L263,206L260,209L255,211L252,214L251,216L252,218L252,220L252,223L250,225L250,227L250,230L249,234L248,238L249,240L251,241L253,239L255,239L261,241L262,241L266,244L270,247L271,248L272,250L270,251L270,253L270,259L269,259L268,258L264,259L263,260L262,261L263,262L263,263L263,265L261,264L259,266L259,266L259,268L260,269L260,270L258,271L257,270L256,270L256,272L255,273L254,274L253,275L252,276L253,277L253,279L253,280L254,282L254,282L255,281L257,280L259,279L263,279L265,281L266,284L266,287L267,291L269,292L270,292L272,290L274,288L273,286L271,282L271,279L272,278L274,278L275,280L276,281L277,283L277,284L278,285L280,284L283,286L288,292L291,294L295,295L295,297Z " data-fips="EN20" data-hasc="EE.VD" data-name="Viljandi" data-postal="VD" data-varname="Viljandimaa|Viljandi maakond|Vilyandi"/><path d="M374,363L375,362L377,361L379,363L380,361L381,360L381,359L383,357L386,355L389,354L395,355L397,354L398,353L399,351L400,348L401,346L403,346L404,346L405,347L406,348L407,347L409,347L412,348L413,350L417,354L418,356L420,357L427,357L439,362L442,360L441,358L441,356L440,353L440,352L441,350L442,350L443,350L444,349L444,348L444,345L444,344L444,342L444,340L444,339L444,338L445,337L446,335L453,333L454,331L454,329L453,325L453,322L454,321L455,320L457,319L455,317L456,317L457,316L457,316L449,313L444,312L442,313L438,314L437,314L435,312L434,312L433,312L433,309L434,307L436,305L436,303L435,301L434,301L433,302L431,302L426,300L421,296L420,295L418,295L417,296L416,297L416,301L406,298L404,299L402,300L401,299L393,300L391,299L387,298L385,298L383,299L380,298L379,298L378,297L375,296L366,298L363,299L363,301L363,302L363,304L362,306L361,307L361,308L363,309L364,310L363,313L363,319L366,320L368,321L369,322L369,323L368,325L368,326L366,328L367,330L367,331L368,332L369,333L370,334L370,335L369,336L368,338L366,340L367,342L369,344L369,346L368,346L367,348L366,349L367,350L367,354L367,356L367,356L368,357L371,361L373,363Z " data-fips="EN21" data-hasc="EE.VR" data-name="Vru" data-postal="VR" data-varname="Voru|Vrumaa|Vru maakond"/><path d="M111,318L111,317L111,315L110,314L109,313L107,313L107,315L107,316L108,317L109,319Z M123,205L124,203L125,202L125,201L124,198L124,197L122,195L122,194L121,193L122,191L122,190L121,188L120,187L117,185L110,182L108,182L107,183L105,185L105,186L104,190L103,191L100,190L99,191L99,194L101,196L105,198L112,205L115,203L116,203L119,203L120,204L121,205L122,205Z M25,284L26,283L26,280L26,278L27,277L28,276L29,274L31,268L32,265L33,262L33,256L34,255L35,253L38,251L41,250L42,249L44,248L45,249L46,249L47,248L49,247L50,246L51,247L52,249L53,248L54,246L55,245L56,246L58,247L59,246L60,245L62,245L63,246L64,247L65,250L70,250L72,247L69,245L70,243L72,243L75,243L77,243L78,242L81,239L82,238L83,238L85,237L90,230L88,228L89,227L91,227L94,230L96,229L98,227L100,225L99,224L99,222L100,220L102,220L103,219L104,217L105,214L106,213L108,214L108,215L109,216L110,218L112,219L115,220L115,218L114,217L113,217L112,217L114,215L119,219L120,217L119,214L116,212L114,210L112,209L108,208L105,206L104,205L104,204L103,201L101,199L97,197L93,194L90,192L88,191L86,191L82,192L79,190L78,191L75,194L73,195L72,194L71,193L68,193L67,195L66,194L64,193L64,192L62,188L61,187L59,188L52,193L40,194L38,196L37,199L37,203L36,206L34,206L32,204L32,202L32,200L31,199L29,200L29,201L28,203L27,204L24,205L23,206L22,208L22,209L21,213L21,216L21,217L20,217L19,216L19,214L19,212L16,206L14,203L12,203L9,202L8,203L8,205L6,205L5,205L1,203L3,206L5,208L6,210L8,213L9,215L12,222L13,226L14,228L12,227L10,227L9,229L10,231L8,233L7,231L6,229L5,228L3,229L3,231L4,233L5,235L1,234L0,235L0,236L0,238L2,240L4,243L6,244L12,244L13,246L16,253L17,255L23,256L26,258L27,260L24,264L24,266L23,269L22,270L21,270L21,270L20,269L18,268L18,269L17,270L15,273L12,278L11,279L10,283L9,284L7,284L7,286L8,286L9,287L9,289L9,291L11,294L13,294Z " data-fips="EN14" data-hasc="EE.SA" data-name="Saare" data-postal="SA" data-varname="Saaremaa|Saare maakond|sel"/></g></svg>