<?xml version="1.0" ?><!DOCTYPE svg  PUBLIC '-//W3C//DTD SVG 1.1//EN'  'http://www.w3.org/Graphics/SVG/1.1/DTD/svg11.dtd'><svg enable_background="new 0 0 500 401" height="401px" style="stroke-linejoin: round; stroke:#000; fill:#f6f3f0;" version="1.1" viewBox="0 0 500 401" width="500px" xmlns="http://www.w3.org/2000/svg" xmlns:xlink="http://www.w3.org/1999/xlink"><defs><style type="text/css"><![CDATA[path { fill-rule: evenodd; }
#context path { fill: #eee; stroke: #bbb; } ]]></style></defs><metadata><views><view h="401" padding="0" w="500"><proj id="laea" lat0="64.504" lon0="26.272"/><bbox h="126.17" w="60.41" x="969.33" y="931.18"/><llbbox lat0="-90" lat1="90" lon0="-180" lon1="180"/></view></views></metadata><g id="admin1"><path d="M233,174L234,173L237,169L239,169L243,169L245,169L250,167L250,168L250,169L250,170L261,171L265,169L266,168L270,161L272,162L273,161L274,162L275,165L275,166L283,166L284,166L287,165L287,164L287,162L286,161L285,160L285,159L286,159L288,159L290,159L291,158L291,157L290,156L289,155L289,154L290,153L290,152L291,151L290,150L291,149L290,148L289,148L288,147L287,146L287,145L287,144L288,143L289,142L289,140L290,140L297,142L297,142L299,141L303,141L302,139L300,136L300,135L299,134L299,132L295,126L294,123L295,120L299,110L300,108L300,107L306,98L306,96L306,93L307,92L302,88L301,87L298,82L298,80L297,78L296,77L287,74L286,73L283,63L283,61L283,60L286,52L286,51L287,48L286,47L285,47L282,47L282,46L286,43L287,42L289,40L287,38L287,37L287,34L287,33L292,27L294,23L291,18L290,15L281,11L280,10L280,8L277,7L274,3L273,0L273,0L272,1L269,1L269,2L267,3L266,5L265,6L262,7L261,6L259,6L257,6L255,6L254,7L254,8L253,10L252,11L251,13L250,14L248,15L247,16L248,17L248,19L247,21L246,22L246,23L246,25L246,26L246,28L245,31L244,34L244,35L244,37L244,38L244,40L244,41L245,42L244,43L244,44L243,45L243,46L242,47L240,47L239,47L236,49L236,50L236,52L235,55L235,56L234,56L233,57L232,58L231,59L231,58L230,56L229,55L226,54L224,53L222,52L221,50L218,49L217,49L216,49L216,51L216,53L214,53L212,54L207,56L206,54L205,53L203,54L199,51L197,51L196,47L195,46L194,44L194,42L192,40L187,29L183,28L180,30L179,31L179,32L180,36L178,38L174,35L173,37L173,38L175,38L176,40L177,41L176,42L176,43L178,44L179,45L180,46L181,48L181,49L182,49L183,50L183,51L184,52L185,53L187,55L187,56L189,57L190,59L191,60L191,61L195,61L196,62L197,62L198,63L199,63L200,63L201,65L202,65L203,67L205,69L206,70L206,72L206,73L206,74L207,75L208,75L209,75L209,78L211,80L212,81L213,82L213,83L212,84L211,85L210,86L210,88L210,91L210,92L211,94L211,96L211,97L210,98L209,100L209,101L210,102L211,102L212,102L214,103L214,104L214,105L214,106L213,108L212,109L211,110L211,111L211,112L211,113L211,114L212,116L212,117L213,119L213,120L214,120L215,122L216,124L216,125L216,128L215,128L215,130L215,132L215,133L215,135L215,136L214,137L213,138L212,138L212,140L211,140L210,142L211,144L211,145L211,146L211,147L211,148L211,150L212,152L214,153L215,156L216,157L216,159L216,161L217,162L217,164L218,166L218,167L219,167L219,166L220,166L221,167L222,168L223,167L224,166L225,164L225,163L227,163L226,163L225,164L224,167L224,169L225,170L226,171L226,173L227,173L228,172L229,173L230,174L232,174L232,175Z " data-fips="" data-hasc="" data-name="Lapland" data-postal="" data-varname="Lapin lni|Lappi|Laponia|Lapnia|Laponie|Lappland|Lapplands ln"/><path d="M236,335L236,334L237,332L237,328L239,328L240,327L241,327L242,327L243,326L244,324L244,325L245,324L246,325L247,326L248,327L248,328L248,329L249,330L251,329L252,329L253,330L254,329L256,329L256,328L256,326L255,325L253,322L253,321L253,320L253,319L253,317L254,316L251,311L251,310L253,308L254,307L255,307L256,306L257,306L258,306L258,305L258,304L259,303L260,302L260,301L259,299L259,298L259,297L257,297L255,295L257,292L257,291L257,290L256,288L256,287L255,285L254,285L253,286L250,282L250,281L248,280L248,279L250,278L251,278L252,278L252,277L251,276L251,275L252,275L251,274L251,273L250,271L250,270L249,268L250,267L250,266L249,264L248,263L248,262L250,260L247,259L246,260L245,259L244,258L243,257L242,256L237,255L235,253L233,253L232,254L231,255L231,257L231,258L227,260L226,261L225,262L225,264L226,265L225,266L225,268L225,269L224,271L222,270L221,270L218,271L217,273L216,273L217,275L217,277L217,278L218,279L219,280L219,281L218,282L219,284L220,287L220,288L221,289L220,291L221,292L220,293L220,294L220,295L219,296L218,296L217,295L216,296L216,297L214,296L213,298L211,299L211,303L212,304L213,304L215,305L215,307L217,308L218,309L218,308L219,307L220,308L221,309L222,311L222,312L222,313L224,314L226,313L226,314L227,317L227,318L227,320L227,322L227,323L227,324L228,325L227,325L227,326L227,327L227,329L227,329L225,329L224,329L224,331L225,332L226,331L226,333L227,334L227,335L227,336L227,337Z " data-fips="" data-hasc="" data-name="Central Finland" data-postal="" data-varname="Lnsi-Suomen lni|Vstra Finlands ln"/><path d="M281,304L282,304L284,304L284,303L287,301L288,301L289,300L288,299L287,298L288,297L288,296L290,296L289,295L290,294L290,293L292,293L291,292L294,291L294,290L294,289L294,288L295,288L294,285L296,284L296,282L297,283L298,283L299,284L302,281L301,281L300,279L299,278L300,278L300,277L301,275L298,273L295,269L294,268L293,267L293,266L294,264L295,263L295,261L295,260L294,260L293,258L293,257L292,256L292,255L293,254L292,252L292,251L292,249L291,249L289,248L287,247L287,249L286,249L285,248L284,248L283,246L281,245L277,241L275,240L272,239L271,239L271,238L262,236L259,237L252,243L251,245L251,246L252,252L252,253L251,254L250,255L250,258L250,260L248,262L248,263L249,264L250,266L250,267L249,268L250,270L250,271L251,273L251,274L252,275L251,275L251,276L252,277L252,278L251,278L250,278L248,279L248,280L250,281L250,282L253,286L254,285L255,285L256,287L256,288L257,290L257,291L257,292L255,295L257,297L259,297L259,298L261,298L262,297L262,297L264,298L264,297L266,297L267,296L268,297L270,297L271,296L272,295L273,296L273,297L274,297L277,300L278,301L279,303L280,304Z " data-fips="" data-hasc="" data-name="Eastern Finland" data-postal="" data-varname="It-Suomen lni|stra Finlands ln"/><path d="M287,249L287,247L289,243L289,242L291,241L297,243L310,241L311,246L312,247L315,245L316,245L317,245L319,243L320,242L321,239L324,235L325,234L325,233L325,231L324,229L324,228L324,226L323,225L322,225L321,223L320,223L317,222L316,221L315,220L315,219L315,218L315,216L314,215L313,214L313,213L316,211L317,210L316,209L316,208L315,207L315,205L314,205L311,205L310,205L308,203L307,200L306,197L306,195L307,194L310,192L309,191L310,190L310,189L309,188L306,188L306,188L306,186L308,184L308,182L307,179L307,177L307,177L304,178L302,178L301,177L300,177L299,179L298,179L295,180L291,182L290,183L290,184L289,185L290,186L289,186L280,189L279,190L279,191L278,193L278,194L276,194L269,195L268,196L268,198L269,198L270,200L270,201L270,203L270,204L270,205L268,205L267,205L265,205L263,206L262,208L262,209L261,210L260,212L258,212L257,213L257,214L256,215L254,216L252,218L252,219L254,220L255,223L255,224L256,225L257,225L259,225L259,227L260,228L260,233L261,235L262,236L271,238L271,239L272,239L275,240L277,241L281,245L283,246L284,248L285,248L286,249Z " data-fips="" data-hasc="" data-name="Oulu" data-postal="" data-varname="Oulun lni|Uleborgs ln"/><path d="M247,259L250,258L250,255L251,254L252,253L252,252L251,246L251,245L252,243L259,237L262,236L261,235L260,233L260,228L259,227L259,225L257,225L256,225L255,224L255,223L254,220L252,219L252,218L254,216L256,215L257,214L257,213L258,212L260,212L261,210L262,209L262,208L263,206L265,205L267,205L268,205L270,205L270,204L270,203L270,201L270,200L269,198L268,198L268,196L269,195L276,194L278,194L278,193L279,191L279,190L280,189L289,186L290,186L289,185L290,184L290,183L291,182L295,180L298,179L299,179L300,177L301,177L302,178L304,178L307,177L307,177L308,177L309,175L308,174L307,172L308,171L311,170L313,170L313,169L312,164L312,163L311,160L310,158L309,155L309,153L308,152L307,151L304,147L303,144L303,143L303,141L299,141L297,142L297,142L290,140L289,140L289,142L288,143L287,144L287,145L287,146L288,147L289,148L290,148L291,149L290,150L291,151L290,152L290,153L289,154L289,155L290,156L291,157L291,158L290,159L288,159L286,159L285,159L285,160L286,161L287,162L287,164L287,165L284,166L283,166L275,166L275,165L274,162L273,161L272,162L270,161L266,168L265,169L261,171L250,170L250,169L250,168L250,167L245,169L243,169L239,169L237,169L234,173L233,174L232,175L233,176L233,176L234,176L236,178L237,180L236,181L236,183L235,183L236,185L236,186L236,188L235,190L235,191L234,192L234,193L236,194L237,195L237,196L237,198L238,199L238,200L237,200L236,199L234,199L234,199L234,201L235,202L236,202L236,204L236,205L235,205L234,204L233,203L233,202L232,201L229,203L227,203L226,204L225,205L225,206L223,206L223,207L223,208L222,209L221,210L220,211L220,212L220,214L219,215L219,216L218,217L218,218L217,218L216,219L215,220L214,221L213,222L213,223L212,224L212,225L212,227L211,226L210,228L209,228L208,229L208,230L211,232L213,234L214,236L215,238L216,240L217,241L217,242L219,243L219,243L220,244L222,249L223,250L225,252L229,257L231,258L231,257L231,255L232,254L233,253L235,253L237,255L242,256L243,257L244,258L245,259L246,260Z M227,199L228,199L228,197L228,196L230,197L231,196L229,196L228,196L228,195L226,195L224,196L223,197L224,199L225,199L225,198L227,198L225,198L226,200Z " data-fips="" data-hasc="" data-name="Northern Ostrobothnia" data-postal="" data-varname="Oulun lni|Uleborgs ln"/><path d="M221,270L222,270L224,271L225,269L225,268L225,266L226,265L225,264L225,262L226,261L227,260L229,257L225,252L223,250L222,249L220,244L219,243L219,243L217,242L217,241L216,240L215,238L214,236L213,234L211,232L208,230L207,230L207,231L206,232L206,233L206,234L206,235L204,235L203,234L202,234L202,236L202,237L202,239L202,240L201,240L200,240L199,240L198,241L197,242L196,242L195,243L195,244L196,244L199,247L200,246L201,246L203,246L204,245L205,246L207,250L205,250L204,251L203,250L203,251L203,252L205,252L205,254L206,255L206,260L207,262L208,264L209,265L212,265L214,266L215,268L215,270L218,271Z " data-fips="" data-hasc="" data-name="Central Ostrobothnia" data-postal="" data-varname=""/><path d="M161,314L162,313L163,312L165,311L167,311L167,311L167,310L167,308L167,307L168,306L168,305L169,304L169,303L169,302L168,301L168,300L168,299L168,298L166,298L166,297L166,295L166,294L167,293L168,292L167,290L167,289L168,288L169,287L171,286L171,285L170,284L170,282L171,280L172,279L174,282L175,282L178,283L180,283L180,282L182,280L183,279L183,278L183,277L183,276L185,273L186,272L187,271L187,270L188,269L188,267L187,267L186,266L187,265L187,264L188,263L188,262L190,261L192,261L194,261L194,260L197,261L198,260L199,257L200,257L201,256L202,256L203,257L204,258L205,259L206,260L206,260L206,255L205,254L205,252L203,252L203,251L203,250L204,251L205,250L207,250L205,246L204,245L203,246L201,246L200,246L199,247L196,244L195,244L195,245L194,244L193,244L194,245L193,246L192,246L193,247L192,248L192,249L191,250L190,250L190,249L190,248L189,247L188,247L188,249L187,249L186,250L186,252L185,253L185,255L184,256L183,255L183,254L182,254L182,255L183,256L183,258L182,257L181,256L180,256L181,258L181,258L183,260L183,261L183,262L182,263L181,262L181,264L180,264L179,265L178,265L177,265L176,266L176,267L176,268L174,266L174,264L173,264L172,264L171,266L171,265L170,265L168,264L168,265L168,267L168,268L168,269L169,270L170,271L170,272L169,272L168,272L167,271L166,272L166,274L166,275L165,276L165,277L165,278L164,279L162,278L162,279L161,280L161,281L159,281L160,283L160,284L159,285L159,286L158,288L159,288L160,289L159,290L159,291L159,292L159,293L159,294L159,296L160,295L160,296L160,298L161,296L161,297L161,298L162,299L162,301L162,302L163,302L163,303L162,305L161,306L161,307L160,310L159,312L160,313L161,314Z M162,274L162,273L161,272L161,273L161,274L162,275Z M164,266L165,265L166,265L166,264L166,263L165,263L164,264L162,263L163,262L162,262L160,261L160,262L161,264L161,265L162,265L163,266L164,267Z M178,262L177,261L177,262L176,262L177,263Z M179,263L180,263L181,262L181,261L180,262L179,261L178,261L178,263L178,264L179,264Z M165,261L166,259L165,259L163,260L165,262Z M177,260L178,260L178,259L178,259L177,259L176,260L176,261Z M192,246L192,244L191,244L190,245L190,246L191,246Z " data-fips="" data-hasc="" data-name="Ostrobothnia" data-postal="" data-varname="Lnsi-Suomen lni|Vstra Finlands ln"/><path d="M174,313L174,312L177,310L178,309L180,308L181,307L183,305L184,304L184,303L185,302L187,302L189,303L191,303L193,303L195,302L197,300L198,298L199,298L200,299L202,300L202,298L205,298L207,296L208,295L208,296L209,296L209,297L209,299L211,299L213,298L214,296L216,297L216,296L217,295L218,296L219,296L220,295L220,294L220,293L221,292L220,291L221,289L220,288L220,287L219,284L218,282L219,281L219,280L218,279L217,278L217,277L217,275L216,273L217,273L218,271L215,270L215,268L214,266L212,265L209,265L208,264L207,262L206,260L205,259L204,258L203,257L202,256L201,256L200,257L199,257L198,260L197,261L194,260L194,261L192,261L190,261L188,262L188,263L187,264L187,265L186,266L187,267L188,267L188,269L187,270L187,271L186,272L185,273L183,276L183,277L183,278L183,279L182,280L180,282L180,283L178,283L175,282L174,282L172,279L171,280L170,282L170,284L171,285L171,286L169,287L168,288L167,289L167,290L168,292L167,293L166,294L166,295L166,297L166,298L168,298L168,299L168,300L168,301L169,302L169,303L169,304L168,305L168,306L167,307L167,308L167,310L167,311L167,311L172,313Z " data-fips="" data-hasc="" data-name="Southern Ostrobothnia" data-postal="" data-varname="Lnsi-Suomen lni|Vstra Finlands ln"/><path d="M245,365L246,366L247,366L250,366L250,365L250,362L249,361L248,361L249,360L249,358L249,357L247,356L247,355L249,355L249,353L248,352L247,351L247,350L249,348L250,349L252,348L254,346L255,344L256,344L255,342L253,341L252,339L252,338L251,337L252,336L251,335L252,334L252,333L252,332L252,329L251,329L249,330L248,329L248,328L248,327L247,326L246,325L245,324L244,325L244,324L243,326L242,327L241,327L240,327L239,328L237,328L237,332L236,334L236,335L227,337L227,336L225,336L225,337L226,338L226,340L226,342L226,342L227,343L228,344L229,344L231,345L232,346L232,347L232,348L232,350L233,350L233,351L232,353L232,354L232,355L231,356L230,358L229,360L231,361L232,362L233,363L234,363L236,362L237,364L237,365L237,366L239,366Z " data-fips="" data-hasc="" data-name="Pijnne Tavastia" data-postal="" data-varname="Etel-Suomen lni|Sdra Finlands ln"/><path d="M218,371L219,370L219,368L220,367L222,368L225,367L226,367L228,367L229,367L229,366L231,365L230,365L228,365L229,364L230,363L230,362L229,360L230,358L231,356L232,355L232,354L232,353L233,351L233,350L232,350L232,348L232,347L232,346L231,345L229,344L228,344L227,343L226,342L226,342L226,342L225,343L223,343L223,342L222,343L221,343L220,342L219,343L215,345L214,345L214,347L212,348L210,349L209,349L207,350L204,351L205,352L206,352L206,353L206,354L205,355L204,354L203,353L202,353L201,354L198,354L196,353L195,352L193,353L194,354L195,355L195,356L194,357L192,357L192,359L193,360L193,361L192,362L194,364L196,364L198,363L199,364L200,365L201,365L202,367L204,367L206,367L207,367L212,369L213,369L214,370L214,369L216,370L216,371L217,371Z " data-fips="" data-hasc="" data-name="Tavastia Proper" data-postal="" data-varname=""/><path d="M206,354L206,353L206,352L205,352L204,351L207,350L209,349L210,349L212,348L214,347L214,345L215,345L219,343L220,342L221,343L222,343L223,342L223,343L225,343L226,342L226,342L226,340L226,338L225,337L225,336L227,336L227,335L227,334L226,333L226,331L225,332L224,331L224,329L225,329L227,329L227,329L227,327L227,326L227,325L228,325L227,324L227,323L227,322L227,320L227,318L227,317L226,314L226,313L224,314L222,313L222,312L222,311L221,309L220,308L219,307L218,308L218,309L217,308L215,307L215,305L213,304L212,304L211,303L209,299L209,297L209,296L208,296L208,295L207,296L205,298L202,298L202,300L200,299L199,298L198,298L197,300L195,302L193,303L191,303L189,303L189,304L189,307L188,308L188,309L188,310L188,311L187,312L186,312L184,312L183,314L185,315L185,316L186,317L187,318L187,318L187,319L188,321L188,322L186,323L185,324L185,326L185,327L185,326L186,327L185,329L184,330L183,332L184,334L185,334L185,336L184,337L183,337L182,337L183,339L182,340L183,342L184,343L185,343L188,344L189,345L188,346L189,347L189,348L188,350L190,350L189,351L190,352L191,352L192,352L193,353L195,352L196,353L198,354L201,354L202,353L203,353L204,354L205,355Z " data-fips="" data-hasc="" data-name="Pirkanmaa" data-postal="" data-varname=""/><path d="M257,378L259,377L258,376L257,377L256,378L257,379Z M261,376L261,375L262,374L262,375L264,375L265,375L264,374L265,374L266,373L266,372L267,373L268,373L269,373L270,371L271,373L270,373L273,374L275,375L275,374L275,373L277,374L277,373L278,373L278,374L279,374L280,373L280,371L280,370L281,371L283,369L285,367L284,366L282,365L282,364L281,363L279,363L278,362L275,362L274,361L272,359L269,358L268,356L269,356L270,355L269,354L268,354L268,353L268,351L269,350L269,349L269,348L265,348L264,347L264,346L263,345L263,343L261,344L261,345L260,346L259,346L258,346L259,344L258,343L256,344L255,344L254,346L252,348L250,349L249,348L247,350L247,351L248,352L249,353L249,355L247,355L247,356L249,357L249,358L249,360L248,361L249,361L250,362L251,364L252,364L253,366L253,367L255,369L256,370L257,370L258,368L260,368L260,369L261,371L258,370L257,371L257,372L256,374L255,374L256,376L257,376L258,376L259,376L260,377Z " data-fips="" data-hasc="" data-name="Southern Finland" data-postal="" data-varname="Etel-Suomen lni|Sdra Finlands ln"/><path d="M297,369L297,368L296,367L295,368L295,369L296,370Z M287,363L289,362L291,359L293,356L294,356L296,355L297,354L297,352L298,351L299,350L300,349L301,348L302,347L305,345L306,344L308,342L308,341L308,340L311,336L312,335L312,334L314,333L317,329L317,329L318,327L320,324L323,319L323,319L321,319L312,326L311,327L308,329L307,331L306,332L303,332L300,333L299,333L299,334L298,335L296,335L294,335L293,334L292,334L292,335L291,336L290,337L287,339L275,340L271,339L269,339L267,340L265,340L265,341L268,341L269,342L270,343L271,344L271,346L272,347L271,348L269,348L269,349L269,350L268,351L268,353L268,354L269,354L270,355L269,356L268,356L269,358L272,359L274,361L275,362L278,362L279,363L281,363L282,364L282,365L284,366L285,367Z " data-fips="" data-hasc="" data-name="South Karelia" data-postal="" data-varname="Etel-Suomen lni|Sdra Finlands ln"/><path d="M269,348L271,348L272,347L271,346L271,344L270,343L269,342L268,341L265,341L265,340L267,340L269,339L271,339L275,340L287,339L290,337L291,336L292,335L292,334L293,334L294,335L296,335L298,335L299,334L299,333L300,333L303,332L306,332L307,331L308,329L311,327L312,326L314,322L315,320L314,320L314,319L313,317L313,316L314,315L313,314L311,313L310,311L310,310L309,309L309,308L309,305L308,304L307,302L307,301L306,299L305,298L304,298L304,299L303,299L302,297L302,296L303,295L301,294L300,293L300,292L299,292L297,290L294,289L294,290L294,291L291,292L292,293L290,293L290,294L289,295L290,296L288,296L288,297L287,298L288,299L289,300L288,301L287,301L284,303L284,304L282,304L281,304L280,304L279,303L278,301L277,300L274,297L273,297L273,296L272,295L271,296L270,297L268,297L267,296L266,297L264,297L264,298L262,297L262,297L261,298L259,298L259,299L260,301L260,302L259,303L258,304L258,305L258,306L257,306L256,306L255,307L254,307L253,308L251,310L251,311L254,316L253,317L253,319L253,320L253,321L253,322L255,325L256,326L256,328L256,329L254,329L253,330L252,332L252,333L252,334L251,335L252,336L251,337L252,338L252,339L253,341L255,342L256,344L258,343L259,344L258,346L259,346L260,346L261,345L261,344L263,343L263,345L264,346L264,347L265,348Z " data-fips="" data-hasc="" data-name="Southern Savonia" data-postal="" data-varname="It-Suomen lni|stra Finlands ln"/><path d="M321,319L323,319L323,319L326,313L328,310L330,307L331,305L332,304L334,303L336,301L336,300L337,298L339,295L340,293L341,293L341,291L342,289L343,286L343,283L344,281L344,279L346,276L345,275L344,274L343,273L341,270L340,270L339,268L339,267L339,265L338,264L334,262L331,259L325,256L324,255L323,253L320,251L316,247L316,245L315,245L312,247L311,246L310,241L297,243L291,241L289,242L289,243L289,248L291,249L292,249L292,251L292,252L293,254L292,255L292,256L293,257L293,258L294,260L295,260L295,261L295,263L294,264L293,266L293,267L294,268L295,269L298,273L301,275L300,277L300,278L299,278L300,279L301,281L302,281L299,284L298,283L297,283L296,282L296,284L294,285L295,288L294,288L294,289L297,290L299,292L300,292L300,293L301,294L303,295L302,296L302,297L303,299L304,299L304,298L305,298L306,299L307,301L307,302L308,304L309,305L309,308L309,309L310,310L310,311L311,313L313,314L314,315L313,316L313,317L314,319L314,320L315,320L314,322Z " data-fips="" data-hasc="" data-name="North Karelia" data-postal="" data-varname="It-Suomen lni|stra Finlands ln"/><path d="M182,391L182,390L184,388L185,387L185,385L185,384L185,384L186,383L186,382L187,381L187,380L186,381L184,383L181,383L180,384L177,383L178,382L177,383L177,385L180,386L178,386L177,387L178,388L177,389L177,390L177,391L178,391L179,390L180,391L181,390L181,392Z M185,391L186,390L186,389L185,390L185,391Z M177,391L177,390L177,389L176,388L176,389L175,388L175,389L175,390L176,391Z M186,388L187,388L187,388L186,387L185,387L185,388Z M192,387L194,385L195,386L196,386L197,385L199,384L200,385L201,384L200,383L200,382L201,381L202,379L203,378L204,377L204,376L203,375L202,375L203,373L205,373L205,371L206,370L206,369L206,368L206,367L204,367L202,367L201,365L200,365L199,364L198,363L196,364L194,364L192,362L193,361L193,360L192,359L192,357L194,357L195,356L195,355L194,354L193,353L192,352L191,352L190,352L189,351L188,351L187,350L186,351L186,353L184,353L181,353L181,355L175,355L173,356L171,356L170,354L170,353L169,352L168,351L167,350L166,351L165,351L164,351L163,350L163,351L160,350L160,349L159,349L158,349L158,351L159,352L159,353L160,355L159,354L159,355L160,356L159,356L157,356L157,357L158,358L159,360L159,361L160,361L159,362L159,363L158,363L158,365L159,365L160,366L158,366L159,368L160,368L161,368L160,368L161,370L161,371L162,371L163,370L163,369L163,368L164,368L165,367L166,366L167,368L166,368L166,370L166,371L167,372L166,371L167,370L168,370L168,371L169,372L170,373L170,374L171,373L171,374L173,374L174,375L175,376L178,376L178,377L180,377L181,376L181,377L179,378L179,379L178,381L177,382L179,381L180,381L181,381L180,381L180,382L179,383L181,383L183,382L186,380L187,379L188,379L190,379L189,380L188,381L187,383L186,385L186,387L187,387L188,388L188,386L188,388L188,388L190,388Z M160,386L161,386L161,385L162,384L161,384L159,384L159,385L160,385L158,385L159,386Z M175,385L176,384L176,383L174,384L175,385Z M165,385L164,384L166,384L166,383L165,383L163,383L163,384L163,385L164,386Z M169,384L169,382L169,383L167,384L168,385L169,385Z M158,382L156,382L155,381L154,382L155,383L157,383Z M174,382L173,381L173,383L174,383Z M175,381L175,380L175,379L174,379L171,378L170,379L170,380L171,381L172,380L173,381Z M168,378L167,378L167,379L168,380Z M177,379L178,379L177,378L177,377L176,377L175,378L176,379L176,380Z M173,376L173,376L172,376L171,377Z M169,377L168,376L167,375L168,375L168,374L167,373L166,372L165,373L166,374L165,375L165,376L167,377L167,377L169,378Z M164,371L165,370L164,370L164,372Z M159,370L159,369L158,368L157,368L157,369L157,370L158,371Z M156,369L156,368L155,368L155,369L155,370L156,371Z M156,367L156,366L155,365L155,366L156,367L156,368Z M158,355L158,354L159,354L158,352L157,352L157,353L157,354L157,355L155,355L156,355Z " data-fips="" data-hasc="" data-name="Finland Proper" data-postal="" data-varname="Satakunta|Satakunda"/><path d="M175,355L181,355L181,353L184,353L186,353L186,351L187,350L188,351L189,351L190,350L188,350L189,348L189,347L188,346L189,345L188,344L185,343L184,343L183,342L182,340L183,339L182,337L183,337L184,337L185,336L185,334L184,334L183,332L184,330L185,329L186,327L185,326L185,327L185,326L185,324L186,323L188,322L188,321L187,319L187,318L187,318L186,317L185,316L185,315L183,314L184,312L186,312L187,312L188,311L188,310L188,309L188,308L189,307L189,304L189,303L187,302L185,302L184,303L184,304L183,305L181,307L180,308L178,309L177,310L174,312L174,313L172,313L167,311L165,311L163,312L162,313L161,314L161,314L161,314L162,315L162,316L162,317L163,319L163,320L163,321L163,322L165,324L164,324L164,325L164,326L165,327L165,328L166,329L166,331L165,330L163,329L162,330L163,331L164,331L164,333L162,332L163,334L163,335L162,335L163,336L163,337L163,339L163,340L162,341L161,341L163,342L162,343L161,344L161,345L161,346L161,347L161,349L160,349L160,350L163,351L163,350L164,351L165,351L166,351L167,350L168,351L169,352L170,353L170,354L171,356L173,356Z M160,343L159,343L159,344L160,344Z " data-fips="" data-hasc="" data-name="Satakunta" data-postal="" data-varname="Varsinais-Suomi|Egentliga Finland"/><path d="M239,384L240,384L238,382L238,384L239,385Z M231,384L232,384L233,383L234,384L237,383L237,382L237,381L239,380L240,379L241,380L240,381L240,382L242,384L243,383L242,382L242,381L243,382L244,383L245,383L244,382L244,381L245,379L244,379L243,378L244,378L246,380L247,382L248,381L248,380L247,379L247,378L247,376L246,375L245,374L247,375L247,376L248,377L250,377L252,378L251,376L252,377L253,378L254,377L254,378L255,377L256,376L255,375L255,374L257,370L256,370L255,369L253,367L253,366L252,364L251,364L250,365L250,366L247,366L246,366L245,365L239,366L237,366L236,366L235,367L236,368L236,369L237,370L236,372L235,372L235,374L236,375L237,376L235,377L233,377L232,374L230,374L230,375L230,379L229,381L230,382L230,383L230,384Z " data-fips="" data-hasc="" data-name="Eastern Uusimaa" data-postal="" data-varname="Etel-Suomen lni|Sdra Finlands ln"/><path d="M206,394L206,394L205,394L205,395Z M187,399L189,399L192,398L192,397L192,396L194,395L195,394L196,393L196,391L197,390L198,390L198,391L197,392L196,394L197,393L199,393L199,394L203,394L205,393L206,393L207,392L208,391L207,392L208,392L209,391L210,391L211,391L212,391L213,390L214,390L214,391L214,392L213,393L214,393L216,391L215,393L217,393L217,392L219,390L218,389L219,388L218,387L220,388L220,389L220,388L221,388L223,387L223,387L223,386L224,386L224,388L226,387L227,385L227,387L228,387L228,386L229,386L231,385L230,384L230,383L230,382L229,381L230,379L230,375L230,374L232,374L233,377L235,377L237,376L236,375L235,374L235,372L236,372L237,370L236,369L236,368L235,367L236,366L237,366L237,365L237,364L236,362L234,363L233,363L232,362L231,361L230,362L230,363L229,364L228,365L230,365L231,365L229,366L229,367L228,367L226,367L225,367L222,368L220,367L219,368L219,370L218,371L217,371L216,371L216,370L214,369L214,370L213,369L212,369L207,367L206,367L206,368L206,369L206,370L205,371L205,373L203,373L202,375L203,375L204,376L204,377L203,378L202,379L201,381L200,382L200,383L201,384L200,385L199,384L197,385L196,386L195,386L194,385L192,387L190,388L188,388L188,388L188,388L188,389L188,390L190,390L192,391L192,392L190,393L190,394L191,395L192,394L194,392L193,394L193,394L192,395L191,395L190,396L187,397L186,398L185,399Z " data-fips="" data-hasc="" data-name="Southern Finland" data-postal="" data-varname="Etel-Suomen lni|Sdra Finlands ln"/></g></svg>