<?xml version="1.0" ?><!DOCTYPE svg  PUBLIC '-//W3C//DTD SVG 1.1//EN'  'http://www.w3.org/Graphics/SVG/1.1/DTD/svg11.dtd'><svg enable_background="new 0 0 500 401" height="401px" style="stroke-linejoin: round; stroke:#000; fill:#f6f3f0;" version="1.1" viewBox="0 0 500 401" width="500px" xmlns="http://www.w3.org/2000/svg" xmlns:xlink="http://www.w3.org/1999/xlink"><defs><style type="text/css"><![CDATA[path { fill-rule: evenodd; }
#context path { fill: #eee; stroke: #bbb; } ]]></style></defs><metadata><views><view h="401" padding="0" w="500"><proj id="laea" lat0="39.666" lon0="21.766"/><bbox h="86.29" w="84.55" x="979.7" y="973.25"/><llbbox lat0="-90" lat1="90" lon0="-180" lon1="180"/></view></views></metadata><g id="admin1"><path d="M107,238L107,237L107,236L108,235L109,234L110,234L112,234L114,236L113,234L110,232L109,230L109,229L107,228L105,227L104,227L103,227L102,226L102,225L101,223L100,222L99,224L97,227L97,229L98,229L99,232L100,233L102,235L104,236L105,238Z M103,215L105,215L105,213L105,211L103,209L103,207L101,205L100,203L100,202L99,203L98,204L96,202L97,201L97,200L97,198L95,191L94,192L94,193L94,195L93,196L94,197L93,198L93,199L92,200L91,201L90,200L89,199L88,198L88,199L87,198L87,199L87,201L86,203L85,204L85,205L85,206L84,207L85,208L86,209L86,210L87,209L88,208L89,207L89,206L88,203L89,203L90,203L91,207L92,208L90,208L91,210L91,211L92,212L94,213L94,213L95,212L97,212L98,212L100,213L101,214L102,215Z M102,200L104,200L103,199L103,197L102,197L101,197L100,197L101,195L101,194L101,193L100,192L99,192L100,191L99,190L98,191L97,192L98,193L98,194L98,195L99,197L100,198L100,199L101,200Z M111,184L111,186L110,186L110,187Z M109,185L110,184L112,183L112,181L110,182L109,183L108,184L109,185Z M104,183L104,182L105,181L105,180L105,180L104,181L103,181L103,183L105,184Z M95,184L97,183L98,184L99,185L99,184L100,184L101,183L101,182L102,182L102,179L101,180L101,179L102,177L102,176L102,175L102,173L102,172L101,171L100,170L99,170L98,172L97,173L97,174L96,176L96,177L95,179L94,184L94,186Z M79,150L78,149L77,148L76,148L76,149L78,151L79,151Z M75,139L75,136L74,135L73,136L72,136L70,135L69,134L68,134L67,128L66,126L67,126L68,125L67,125L64,123L64,121L64,120L67,119L68,119L69,118L68,116L67,115L66,115L66,114L65,114L63,114L62,115L61,115L56,116L55,118L56,118L56,120L57,120L57,121L57,122L59,123L60,126L61,126L62,127L63,128L64,129L64,132L64,133L65,134L66,135L67,135L67,136L68,136L69,137L70,138L71,138L73,139L74,140L76,140Z " data-fips="GR25" data-hasc="GR.II" data-name="Ionioi Nisoi" data-postal="II" data-varname="Ionian Islands"/><path d="M221,340L219,339L218,338L218,339L219,340L221,342Z M206,324L208,324L208,321L208,320L209,319L210,319L210,318L209,317L206,315L205,314L203,311L202,311L201,314L201,315L201,316L201,318L201,321L202,322L203,323L204,323L205,325Z M212,261L212,261L211,260L210,259L209,259L209,260L210,261Z M222,258L225,257L226,257L227,256L228,255L229,255L230,255L231,254L229,254L229,254L226,254L225,255L221,258Z M227,246L227,245L226,244L226,243L225,245L224,245L225,246L226,246Z M225,251L227,250L228,250L228,249L225,247L224,246L222,245L223,245L222,244L221,243L222,243L222,241L222,239L219,239L218,240L220,241L220,242L221,244L219,245L218,244L217,243L215,242L213,241L213,241L212,243L211,245L212,246L215,247L217,248L219,249L222,249L224,250L224,251Z M228,236L228,234L229,233L229,232L229,231L223,231L223,232L224,234L225,234L225,236L226,236Z M251,237L253,235L252,234L252,233L253,231L253,230L253,228L251,228L252,226L252,225L251,224L250,224L251,223L251,222L250,221L249,220L250,219L250,218L250,217L249,215L249,214L248,212L248,211L250,209L251,210L252,209L252,208L252,207L252,206L250,205L248,203L246,201L245,201L240,199L238,198L238,199L237,199L234,200L233,201L232,203L231,208L230,210L229,211L227,210L225,210L223,207L222,207L220,206L221,205L220,203L218,204L216,205L216,208L214,208L211,208L213,209L213,210L212,210L213,211L214,212L212,213L212,214L208,215L207,215L207,215L209,217L210,220L211,222L212,221L214,220L219,219L223,219L222,218L224,217L225,216L226,216L227,216L229,215L230,216L230,218L229,220L230,220L231,220L232,221L233,221L235,221L235,222L237,225L238,226L239,227L238,228L239,229L240,229L241,228L242,228L243,229L244,230L245,230L245,232L247,233L247,236L249,236L251,237Z M226,224L227,223L227,223L228,221L230,221L228,220L228,219L228,219L227,218L225,218L225,219L223,219L224,220L223,220L225,221L226,221L225,222L223,222L222,223L223,224L224,225Z " data-fips="GR35" data-hasc="GR.AT" data-name="Attiki" data-postal="AT" data-varname="Attica"/><path d="M182,310L182,309L182,307L183,306L182,304L181,303L181,301L181,298L182,297L183,298L183,297L183,295L184,294L184,296L184,294L183,294L184,292L186,290L185,288L188,287L190,286L193,286L194,287L195,287L196,288L196,290L197,292L197,295L198,293L200,295L199,297L201,298L202,299L203,302L205,303L207,303L208,304L209,306L209,307L211,308L212,307L214,308L214,306L213,305L212,305L211,303L212,303L212,302L211,301L210,300L209,299L208,298L207,297L207,295L206,294L208,293L207,292L206,291L207,290L208,291L209,290L209,289L210,288L208,287L209,286L209,285L207,284L207,282L206,280L205,278L205,277L205,276L205,275L205,274L203,272L203,270L203,269L203,268L201,269L200,268L200,266L200,265L200,264L198,261L198,260L197,258L196,257L196,256L193,253L194,252L193,250L193,249L192,248L192,247L192,246L192,245L192,243L193,242L195,242L195,243L196,244L196,245L198,246L199,245L201,245L201,246L203,246L204,247L205,249L205,248L206,248L207,249L209,249L210,250L210,251L210,252L209,252L209,253L208,253L208,255L209,255L210,256L211,257L210,256L211,257L212,257L211,258L212,258L214,258L213,256L214,256L215,256L217,255L216,254L215,253L217,252L219,252L224,251L224,250L222,249L219,249L217,248L215,247L212,246L211,245L212,243L213,241L213,241L212,240L212,239L212,237L212,236L212,234L211,234L210,233L210,232L212,231L212,230L212,229L211,228L208,227L207,227L206,227L205,227L204,226L204,225L204,224L205,223L206,223L208,223L211,222L210,220L209,217L207,215L207,215L207,215L205,215L202,214L201,214L199,215L198,216L197,216L199,217L201,218L202,219L203,220L202,221L200,221L199,222L197,221L196,220L195,220L194,218L189,215L187,214L182,211L178,210L177,211L177,210L175,209L175,210L175,212L176,214L174,217L174,219L173,219L169,221L169,222L169,224L169,226L169,228L167,229L165,231L164,230L161,230L159,231L156,230L155,229L153,228L153,227L151,227L149,231L149,234L149,236L150,243L151,243L153,243L157,246L158,248L157,249L155,249L154,250L154,252L151,255L150,254L148,254L145,254L145,255L145,258L145,260L143,261L140,263L140,265L139,267L139,269L140,271L141,273L142,275L143,276L144,278L145,278L146,279L146,281L145,282L145,283L145,284L145,285L146,286L147,287L148,288L149,287L151,287L153,290L153,291L154,291L156,289L157,288L158,287L157,287L156,286L156,285L156,284L156,282L156,277L157,276L159,275L161,274L163,274L166,275L166,277L166,278L165,280L166,281L167,282L168,281L169,282L172,286L173,287L173,289L174,290L175,291L176,293L177,292L176,294L176,296L176,298L177,298L176,300L177,301L176,302L175,303L176,304L177,305L178,305L178,306L180,306L181,308L181,310Z M149,292L149,290L148,291L148,292L149,293Z M146,289L146,287L146,287L145,289L145,290Z " data-fips="GR36" data-hasc="GR.PP" data-name="Peloponnisos" data-postal="PP" data-varname="Peloponnese"/><path d="M154,252L154,250L155,249L157,249L158,248L157,246L153,243L151,243L150,243L149,236L149,234L149,231L151,227L153,227L153,228L155,229L156,230L159,231L161,230L164,230L165,231L167,229L169,228L169,226L169,224L169,222L169,221L173,219L174,219L174,217L176,214L175,212L175,210L175,209L174,208L172,209L170,208L169,208L168,207L166,207L166,206L165,204L164,203L162,204L161,203L160,201L159,201L158,200L156,200L155,200L152,199L152,200L148,202L147,203L145,207L144,209L143,210L141,210L138,209L135,207L133,207L132,206L132,208L131,207L131,210L130,212L129,215L127,217L129,217L128,219L126,219L125,220L123,222L121,223L120,222L119,226L119,227L119,228L124,229L126,230L127,232L128,234L128,236L127,237L128,238L128,239L129,238L132,239L134,240L135,241L139,244L139,245L141,247L144,253L145,254L148,254L150,254L151,255Z M138,201L141,199L142,199L144,198L146,198L147,199L149,200L149,198L151,196L152,197L153,196L152,195L153,193L155,191L157,191L158,190L158,188L159,186L157,185L158,183L158,182L158,180L158,179L159,176L157,175L154,176L153,177L150,178L150,179L147,181L147,179L145,179L143,179L142,179L139,176L138,174L139,172L141,170L140,170L138,169L136,168L135,167L136,165L135,164L131,161L132,158L132,156L131,155L130,153L127,155L125,156L119,156L118,157L117,159L118,159L118,158L120,160L122,162L121,163L121,164L121,166L122,167L121,168L120,167L118,167L119,168L118,169L117,168L116,168L116,167L116,165L114,165L113,165L112,165L111,164L111,165L109,166L109,165L108,164L108,165L106,166L105,165L104,164L103,166L104,168L105,168L105,169L104,169L103,171L103,172L102,173L104,175L105,175L106,174L107,173L109,173L109,174L110,179L112,180L114,181L114,183L115,184L115,185L115,188L116,190L117,189L118,188L118,189L118,190L118,191L119,192L120,194L119,194L118,194L118,195L118,196L120,195L120,196L120,197L119,197L119,198L118,199L120,199L121,200L121,201L122,201L123,200L123,199L124,200L125,199L126,198L127,198L127,197L129,196L129,195L130,194L128,190L129,191L130,192L131,195L132,196L133,197L133,198L134,198L135,198L135,199L136,200L136,201L135,200L133,200L135,201L136,201L138,202Z " data-fips="GR38" data-hasc="GR.GW" data-name="Dytiki Ellada" data-postal="GW" data-varname="Greece West"/><path d="M132,115L133,114L134,113L135,112L142,113L146,114L148,115L151,114L153,114L154,113L154,111L153,110L152,109L153,108L155,106L157,105L158,104L158,102L160,100L161,98L162,96L163,95L163,93L165,92L165,90L166,89L163,87L163,85L162,83L161,81L159,81L158,80L157,79L155,78L154,76L153,75L153,73L152,72L152,70L152,67L151,67L149,66L148,66L149,63L147,62L146,59L146,57L147,58L149,57L150,56L150,55L148,54L148,52L147,52L145,52L144,52L143,54L142,54L140,55L139,55L137,53L134,53L133,53L132,53L130,55L128,55L127,55L124,55L123,55L120,56L114,56L114,59L114,60L113,61L114,62L115,64L116,66L117,67L117,68L117,69L116,71L116,72L116,73L115,74L114,75L113,76L113,77L112,77L110,78L109,77L108,78L107,78L107,79L106,80L105,81L105,83L105,84L104,85L104,87L104,87L105,87L107,86L108,86L109,87L110,89L112,92L113,94L113,97L113,100L113,103L114,104L117,104L117,106L115,108L117,109L117,112L119,114L121,114L123,113L125,113L128,116L129,116Z " data-fips="GR08" data-hasc="GR.MW" data-name="Dytiki Makedonia" data-postal="MW" data-varname="Macedonia West"/><path d="M200,164L202,163L203,163L204,162L205,160L206,159L205,159L204,159L202,161L202,159L203,159L203,157L202,157L202,156L201,155L200,154L200,155L199,154L199,153L199,152L198,151L197,152L195,148L195,146L196,145L198,145L199,144L200,144L200,143L200,142L200,141L201,141L203,141L203,142L204,143L208,144L209,144L210,145L210,146L211,147L211,148L212,150L212,152L212,153L211,152L211,154L207,155L208,152L207,153L206,154L205,156L207,156L208,156L210,155L211,155L212,155L213,154L212,154L214,153L216,152L218,151L218,150L216,146L215,143L213,141L212,140L208,135L207,133L205,131L203,130L200,128L199,127L198,124L197,120L197,118L196,117L195,116L194,113L193,113L191,112L190,110L190,108L189,108L187,109L185,108L182,109L180,108L179,107L178,105L175,103L174,102L173,100L173,97L172,96L169,97L168,99L167,100L166,98L166,97L167,95L164,95L163,95L162,96L161,98L160,100L158,102L158,104L157,105L155,106L153,108L152,109L153,110L154,111L154,113L153,114L151,114L148,115L146,114L142,113L135,112L134,113L133,114L132,115L129,116L128,116L126,116L124,117L123,119L124,122L124,123L123,123L121,123L120,124L120,126L120,127L121,128L122,129L122,131L122,132L121,134L122,135L122,137L123,138L125,139L125,141L127,143L130,143L131,144L132,146L129,151L131,153L133,151L136,150L137,151L138,149L139,149L143,148L144,149L144,152L146,153L145,155L146,156L148,156L151,154L153,155L154,156L155,157L155,159L156,160L157,160L159,159L161,157L163,156L164,156L165,152L169,148L171,149L174,150L177,152L178,155L181,155L180,156L181,159L182,160L183,160L188,160L191,162L194,162L196,163L197,164Z M236,156L237,156L238,154L237,153L236,153L235,152L234,152L232,151L231,150L230,149L229,149L230,151L231,152L233,154L233,156L234,156L235,156Z M224,152L225,152L226,151L225,150L224,149L223,149L222,150L221,151L221,153L222,153L223,153Z M243,151L244,150L245,147L246,146L246,145L244,145L242,148L242,150L240,151L240,152L241,152Z M251,143L251,141L250,140L250,140L249,141L249,142L249,143Z " data-fips="GR21" data-hasc="GR.TS" data-name="Thessalia" data-postal="TS" data-varname="Thessaly"/><path d="M104,163L106,163L107,163L106,162L103,160L104,160L105,159L105,157L105,156L106,156L107,155L107,156L107,158L108,157L108,158L108,159L109,159L109,158L110,157L111,158L112,158L112,159L112,160L114,160L115,161L117,161L116,160L117,159L118,157L119,156L125,156L127,155L130,153L129,151L132,146L131,144L130,143L127,143L125,141L125,139L123,138L122,137L122,135L121,134L122,132L122,131L122,129L121,128L120,127L120,126L120,124L121,123L123,123L124,123L124,122L123,119L124,117L126,116L128,116L125,113L123,113L121,114L119,114L117,112L117,109L115,108L117,106L117,104L114,104L113,103L113,100L113,97L113,94L112,92L110,89L109,87L108,86L107,86L105,87L104,87L104,87L103,88L102,88L102,90L102,91L102,92L101,93L100,94L100,95L100,97L99,99L96,100L95,101L93,100L92,101L90,101L89,102L88,102L88,103L87,105L84,105L85,109L86,110L88,114L88,115L88,116L87,116L86,116L84,115L83,116L83,117L83,118L83,119L84,120L83,121L82,122L81,123L80,123L80,125L78,124L77,123L75,122L73,121L71,121L72,122L73,122L75,123L76,124L77,125L79,125L78,127L78,128L77,128L77,130L77,131L78,131L79,131L80,132L81,131L82,132L81,133L80,133L82,135L82,136L80,136L81,137L81,138L82,139L83,140L83,142L85,144L87,145L88,144L89,145L90,145L92,146L91,147L92,148L92,149L93,150L97,154L98,155L99,156L101,157L101,159L101,161L102,162L102,163L103,164Z " data-fips="GR17" data-hasc="GR.EP" data-name="Ipeiros" data-postal="EP" data-varname="Epirus"/><path d="M341,242L343,242L343,241L344,240L346,239L350,238L354,234L355,233L356,231L354,232L352,232L351,234L350,234L349,235L347,235L344,235L342,235L342,236L341,237L340,239L339,241L340,242Z M379,232L380,231L381,231L385,229L386,228L387,229L387,227L386,226L386,225L387,225L385,225L384,224L382,225L382,226L381,225L379,224L377,223L375,223L374,223L369,225L368,226L366,227L366,228L366,230L367,231L368,231L369,230L370,229L371,229L372,230L374,230L375,232L376,233Z M339,205L340,203L342,202L343,201L343,199L343,198L344,197L345,197L345,194L344,190L344,189L344,187L343,186L344,186L344,185L344,184L344,182L343,182L342,183L340,181L340,181L337,180L330,182L330,184L330,185L333,188L334,188L335,189L336,190L335,191L336,192L337,193L337,195L337,196L336,197L334,198L333,198L332,199L332,201L333,201L333,202L334,202L336,203L337,205L338,205Z M320,184L320,182L319,180L318,181L317,181L316,181L317,182L318,183L318,184L319,184Z M358,158L359,157L360,157L360,156L359,155L358,153L356,151L356,150L357,150L358,151L359,152L359,153L359,154L360,155L361,155L362,155L363,154L362,153L361,152L361,150L360,149L359,148L359,147L358,146L356,143L354,142L352,140L353,138L353,137L351,136L350,135L342,135L343,137L342,138L341,139L339,139L338,140L337,140L337,141L336,141L334,141L333,142L331,141L329,143L329,144L328,145L329,146L328,147L329,148L332,150L333,150L334,151L339,152L340,151L342,148L343,146L345,145L346,145L347,145L348,146L348,147L347,148L346,149L345,149L344,150L343,151L340,152L340,153L341,153L342,155L343,156L346,156L348,156L349,157L351,158L353,158L355,158Z M292,129L293,128L291,127L291,128L290,128L290,130L290,132Z M306,113L306,111L305,110L306,109L305,108L306,107L306,106L307,106L307,105L307,103L308,103L309,101L309,100L309,99L308,100L306,101L305,102L304,103L302,104L302,103L301,102L300,101L296,102L295,101L293,102L292,103L292,104L292,106L293,106L292,108L292,109L292,110L293,111L295,110L296,111L297,111L296,112L298,113L300,113L299,112L299,111L298,111L298,109L300,108L299,108L301,106L302,107L302,108L301,110L302,111L303,111L303,113L305,113Z " data-fips="GR48" data-hasc="GR.AN" data-name="Voreio Aigaio" data-postal="AN" data-varname="Aegean North"/><path d="M272,219L273,219L274,218L275,217L275,213L275,212L275,211L275,208L271,209L269,209L268,209L266,208L264,208L263,207L262,206L260,204L260,203L260,202L260,200L259,199L258,197L258,196L257,194L257,193L256,192L257,190L257,188L258,187L258,186L254,183L253,182L254,181L254,180L250,179L249,179L248,179L247,178L246,179L244,179L242,179L240,178L238,177L236,176L236,175L235,174L233,174L232,174L231,174L230,174L230,173L229,173L227,171L225,170L224,169L223,168L223,167L222,164L221,163L220,162L220,161L219,160L217,160L216,159L215,159L212,161L209,161L208,162L207,163L207,164L205,165L205,166L204,166L202,167L201,167L199,168L198,169L197,169L196,170L196,172L197,171L202,170L203,170L202,169L202,168L203,168L205,168L206,170L207,170L208,170L210,170L211,170L212,171L217,174L218,175L219,176L220,178L221,178L223,179L224,181L225,181L226,182L226,183L227,184L228,185L229,185L231,186L232,188L232,189L231,190L230,192L231,192L232,194L233,195L235,194L239,195L240,195L242,195L244,195L247,195L250,195L251,196L251,197L251,198L250,199L251,199L252,199L253,199L254,200L254,202L253,203L254,202L255,201L255,203L254,204L254,205L256,204L257,205L257,206L258,207L258,208L257,210L258,210L258,212L259,212L261,212L262,213L263,213L263,215L264,216L264,217L266,219L267,218L266,217L267,216L268,216L269,216L270,218L270,219Z M230,210L231,208L232,203L233,201L234,200L237,199L238,199L238,198L235,199L234,198L232,194L230,194L230,192L229,191L230,191L229,189L228,189L227,190L222,189L219,190L218,189L219,188L220,187L218,187L217,186L216,186L217,185L218,184L218,183L218,181L216,181L214,180L212,179L211,180L212,180L211,181L210,181L209,182L207,181L206,177L205,176L204,175L201,175L200,174L198,174L197,175L196,174L195,174L193,174L192,173L191,172L189,170L186,171L185,170L185,171L183,170L184,169L182,170L183,168L184,168L185,167L186,166L188,168L189,168L191,168L192,169L193,168L195,168L196,167L196,166L198,166L199,166L200,164L202,164L203,163L202,163L200,164L197,164L196,163L194,162L191,162L188,160L183,160L182,160L181,159L180,156L181,155L178,155L177,152L174,150L171,149L169,148L165,152L164,156L163,156L161,157L159,159L157,160L156,160L155,159L155,157L154,156L153,155L151,154L148,156L146,156L145,155L146,153L144,152L144,149L143,148L139,149L138,149L137,151L136,150L133,151L131,153L131,155L132,156L132,158L131,161L135,164L136,165L135,167L136,168L138,169L140,170L141,170L139,172L138,174L139,176L142,179L143,179L145,179L147,179L147,181L150,179L150,178L153,177L154,176L157,175L159,176L158,179L158,180L158,182L158,183L157,185L159,186L158,188L158,190L157,191L155,191L153,193L152,195L153,196L152,197L153,197L154,197L156,196L157,195L158,195L159,196L161,196L163,197L165,197L166,199L167,199L167,200L168,199L170,198L171,198L172,199L173,199L174,199L176,199L176,198L176,197L176,196L177,194L177,193L180,194L180,195L182,198L183,200L183,201L185,202L186,201L186,200L185,199L186,198L187,198L188,198L187,197L188,196L189,197L189,198L189,199L190,200L191,201L192,202L194,202L194,203L193,204L196,205L197,205L198,206L199,205L200,207L202,207L202,206L200,207L202,206L204,206L205,206L205,208L207,208L209,206L210,208L210,209L213,209L211,208L214,208L216,208L216,205L218,204L220,203L221,205L220,206L222,207L223,207L225,210L227,210L229,211Z M274,172L275,172L276,172L277,172L278,171L278,170L277,170L276,169L274,167L273,166L273,166L273,164L272,163L269,161L268,162L268,163L268,165L267,166L267,167L268,167L269,168L271,168L272,169L273,169L273,171L271,171L273,173Z " data-fips="GR33" data-hasc="GR.GC" data-name="Stere Ellda" data-postal="GC" data-varname="Greece Central"/><path d="M259,399L259,398L259,396L257,396L256,397L255,397L257,398L258,399Z M299,391L301,391L303,390L304,390L305,391L306,390L307,389L310,389L313,388L314,388L316,387L319,387L323,387L325,386L328,385L337,385L341,384L343,384L345,383L346,384L347,384L349,384L350,384L351,385L353,385L356,383L358,383L358,381L359,380L359,379L359,378L359,376L360,375L361,373L360,374L359,373L358,370L359,369L360,368L361,367L359,367L359,368L358,369L357,369L356,371L355,372L354,373L353,374L352,374L351,373L350,372L348,372L347,372L347,373L345,374L343,375L341,375L340,377L339,377L338,379L336,379L335,378L333,378L333,377L333,376L333,375L333,373L333,372L334,371L334,370L333,370L333,369L334,368L335,367L331,367L330,366L329,366L322,369L320,370L319,369L318,369L317,368L316,367L314,367L313,367L311,368L309,367L307,367L306,367L304,368L303,367L302,367L301,365L301,364L300,364L297,363L297,364L294,363L293,364L291,364L290,364L286,363L285,363L284,364L283,364L280,366L279,366L275,367L274,367L272,367L268,368L266,368L265,367L265,365L265,364L263,362L262,362L260,362L259,361L257,361L256,360L256,359L257,359L260,359L261,359L262,357L261,355L260,354L257,354L256,355L257,357L255,357L255,358L253,359L252,359L249,359L248,359L243,358L242,356L242,354L241,352L242,351L240,350L239,351L239,353L239,354L239,355L239,356L240,357L240,359L239,360L238,360L236,360L235,359L234,359L234,358L234,355L233,356L233,358L232,360L233,361L232,361L232,363L232,364L232,365L231,366L231,368L231,369L232,371L231,371L230,372L231,373L232,374L233,374L233,375L234,376L238,376L239,375L242,375L244,375L244,374L246,375L248,376L253,376L255,378L257,377L258,377L261,377L262,377L263,377L266,378L272,378L274,379L276,379L278,380L279,381L280,382L281,382L282,382L287,383L287,383L288,385L288,386L288,388L288,391L288,392Z " data-fips="GR43" data-hasc="GR.CR" data-name="Kriti" data-postal="CR" data-varname="Crete"/><path d="M185,108L187,109L189,108L190,108L190,108L190,107L189,106L187,105L185,104L184,102L183,101L184,99L183,98L183,97L183,96L183,95L184,91L186,87L187,85L187,83L186,82L185,81L185,79L184,78L185,77L186,77L187,77L187,76L188,74L189,75L190,75L191,75L191,74L191,72L193,72L194,71L195,70L196,69L196,68L197,67L198,68L199,68L200,70L200,71L201,72L201,73L200,74L199,75L198,75L195,75L194,76L195,77L196,79L197,80L197,82L199,82L200,83L203,84L203,86L204,86L205,86L206,87L209,88L211,89L212,89L213,90L215,91L216,92L216,94L216,96L216,98L216,99L217,100L218,101L218,102L219,103L219,105L219,106L222,105L223,106L229,108L234,108L234,107L233,107L232,106L232,105L229,104L224,101L223,100L220,97L219,96L218,95L218,94L217,93L217,92L217,91L218,89L219,88L221,88L223,89L226,90L230,90L232,91L236,97L236,98L237,99L237,100L238,103L239,102L240,103L242,105L243,105L243,106L246,106L245,105L246,104L246,103L247,102L246,101L246,100L246,99L245,98L245,97L245,96L243,95L241,94L240,94L236,92L235,90L233,89L232,86L233,85L234,83L235,84L236,84L239,82L241,83L243,83L244,83L246,85L246,85L246,83L246,81L246,81L243,82L242,81L240,80L238,77L237,76L238,74L242,73L240,71L239,72L238,71L236,70L236,69L235,68L234,66L233,66L232,65L232,64L232,63L232,62L233,61L234,60L237,59L239,59L239,59L243,57L246,55L246,54L249,52L249,50L250,49L250,46L249,46L247,44L246,43L245,42L243,42L242,43L241,41L239,41L237,39L234,36L231,34L232,32L232,31L228,29L228,27L228,25L227,26L226,26L223,24L218,24L217,25L215,26L214,25L213,24L212,25L211,25L210,26L210,28L209,29L208,29L206,29L198,28L194,28L192,28L191,29L190,31L190,33L190,36L190,38L189,39L188,39L187,38L187,37L185,37L185,39L185,40L184,40L182,41L181,40L179,41L178,41L176,41L174,40L173,40L172,40L171,39L170,39L168,38L166,38L165,39L164,40L163,40L161,40L160,39L160,40L157,40L156,41L155,42L154,43L154,44L153,45L152,47L151,48L150,49L149,50L149,51L148,52L148,54L150,55L150,56L149,57L147,58L146,57L146,59L147,62L149,63L148,66L149,66L151,67L152,67L152,70L152,72L153,73L153,75L154,76L155,78L157,79L158,80L159,81L161,81L162,83L163,85L163,87L166,89L165,90L165,92L163,93L163,95L164,95L167,95L166,97L166,98L167,100L168,99L169,97L172,96L173,97L173,100L174,102L175,103L178,105L179,107L180,108L182,109Z " data-fips="GR05" data-hasc="GR.MC" data-name="Kentriki Makedonia" data-postal="MC" data-varname="Macedonia Central"/><path d="M262,95L263,94L262,93L260,90L257,87L256,85L254,85L253,83L252,83L250,83L249,82L248,81L247,79L246,78L245,79L246,80L246,81L246,83L246,85L246,85L246,86L248,86L251,87L253,88L254,89L255,91L257,93L258,94L259,95L260,96Z " data-fips="GR15" data-hasc="GR.MA" data-name="Ayion Oros" data-postal="MA" data-varname="Mount Athos|Holy Mountain"/><path d="M318,77L319,75L319,74L318,73L317,73L314,72L312,72L311,72L308,74L309,75L312,78L314,78Z M275,68L277,68L278,67L279,67L279,66L278,64L279,63L279,62L278,61L279,60L278,59L277,59L277,58L276,58L274,57L273,57L269,60L268,62L267,63L267,65L267,66L269,67L271,67L272,68L273,69L274,70Z M250,62L254,59L260,56L258,56L258,55L259,54L259,52L261,51L262,50L263,49L265,49L266,48L267,48L269,49L270,50L270,51L271,53L272,53L273,52L275,54L276,54L278,53L279,54L281,52L282,51L284,50L285,49L287,48L288,48L287,47L288,46L289,46L290,44L294,44L295,45L294,46L294,47L295,48L296,48L299,49L301,47L302,48L304,49L307,50L309,50L310,51L311,52L312,52L314,51L316,51L318,52L320,52L323,52L324,52L327,52L328,52L329,52L330,53L331,54L331,52L332,53L333,53L334,53L333,54L331,54L332,55L333,56L333,57L333,58L335,58L336,57L337,56L337,55L338,54L340,51L340,50L341,49L342,48L342,47L343,48L344,47L344,46L345,46L346,44L345,44L345,42L346,42L347,41L345,40L344,37L345,36L344,35L345,34L344,33L344,32L344,31L344,29L344,28L348,27L349,26L350,25L351,24L353,23L355,23L356,22L357,21L357,20L357,19L356,18L356,15L355,13L355,12L355,11L355,9L355,8L354,7L353,8L351,7L349,5L349,4L348,3L346,3L344,2L343,2L340,2L340,1L339,0L338,0L337,1L334,1L333,2L331,3L331,4L331,5L331,6L332,7L333,7L334,8L335,10L335,11L336,12L336,13L336,15L336,16L336,17L337,18L336,19L336,20L335,22L334,23L330,24L329,25L328,25L326,25L325,26L324,26L323,24L321,24L320,26L318,26L317,27L316,27L314,26L310,26L309,28L309,28L308,28L306,28L299,31L298,31L297,30L295,28L294,27L291,26L290,26L283,23L281,22L280,23L278,24L278,25L277,26L276,25L275,23L273,22L272,21L269,21L269,20L269,19L268,18L267,18L267,16L266,14L266,14L263,14L262,16L260,16L259,16L256,17L256,16L255,15L254,14L252,15L251,16L251,17L250,16L249,16L247,16L246,16L246,18L246,20L245,20L244,20L243,21L242,21L239,20L238,21L236,22L234,22L233,24L231,24L229,24L228,25L228,27L228,29L232,31L232,32L231,34L234,36L237,39L239,41L241,41L242,43L243,42L245,42L246,43L247,44L249,46L250,46L250,49L249,50L249,52L246,54L246,55L243,57L239,59L239,59L239,59L244,62L246,62L248,62Z " data-fips="GR01" data-hasc="GR.MT" data-name="Anatoliki Makedonia kai Thraki" data-postal="MT" data-varname="Macedonia East and Thrace"/><path d="M387,363L388,362L389,362L389,361L390,361L392,360L392,359L392,358L390,359L388,359L387,359L386,360L385,362L386,363Z M399,358L399,357L400,356L401,355L402,355L402,354L401,352L401,350L400,348L399,348L398,346L399,345L400,344L400,342L401,340L401,339L401,337L401,336L401,335L400,336L398,336L398,337L398,338L398,340L398,342L397,343L397,345L396,346L395,347L394,348L395,350L396,351L397,352L397,353L397,355L397,356L396,357L397,358L398,358L398,360Z M418,312L418,310L414,311L413,311L413,312L415,312L416,312Z M336,308L335,308L334,307L332,306L331,307L331,308L332,308L333,308L335,308L336,309Z M318,310L319,309L319,308L320,307L319,305L318,304L316,303L314,303L316,304L316,305L317,306L317,307L316,308L315,309L314,310L317,310Z M409,302L409,301L408,302L406,301L406,300L405,298L404,298L403,299L402,298L402,299L402,301L404,301L405,300L405,302L405,303L407,303L408,303Z M428,328L430,327L431,325L433,322L434,321L435,320L438,319L440,320L440,318L440,317L438,316L440,313L440,312L442,311L442,309L443,308L443,306L444,304L445,302L445,301L445,299L445,298L445,297L444,296L443,298L440,298L438,300L433,303L430,304L429,305L428,308L426,308L426,309L425,310L425,312L424,313L423,313L421,315L422,316L422,317L423,318L425,319L425,320L425,322L424,326L423,327L424,329L426,330Z M295,296L294,295L290,292L289,293L290,294L292,295L294,296Z M359,298L358,297L359,295L360,295L362,294L363,294L363,293L362,292L360,291L359,292L360,293L360,294L359,294L358,295L357,295L356,294L355,294L354,295L355,296L355,297L357,299Z M397,293L398,292L397,291L396,290L394,291L394,293L395,293L396,294Z M302,292L305,289L303,289L301,290L300,294L301,294Z M427,293L428,292L428,291L428,289L428,288L426,289L426,288L426,288L427,287L426,287L425,287L424,289L424,290L423,291L425,292L427,293L426,294Z M267,293L273,293L274,293L276,292L276,288L274,287L272,288L271,288L270,287L270,289L271,290L272,290L272,291L269,291L269,289L268,289L266,289L266,290L266,291L266,292L266,294Z M281,287L280,286L280,285L278,286L279,288L281,288Z M314,290L314,289L315,288L313,287L312,286L310,284L308,286L308,287L308,288L309,289L312,292L314,292Z M278,284L278,283L277,283L277,283L275,283L274,284L275,285L275,286L277,286Z M317,282L318,282L318,280L316,281L316,281L316,283Z M327,278L326,277L324,278L324,279L325,279L327,279Z M333,285L337,283L338,281L339,280L341,278L342,278L344,277L345,277L344,277L343,276L342,276L341,275L341,276L339,276L340,277L335,280L335,281L335,283L333,283L332,283L331,283L330,284L331,285Z M386,286L387,285L387,284L387,283L390,282L391,282L393,282L396,279L397,278L402,277L403,276L403,275L400,274L399,274L395,275L390,278L388,280L388,281L387,282L386,282L385,282L384,283L384,285L385,287L387,287Z M284,277L285,276L284,274L283,272L282,272L281,272L280,271L280,271L280,272L281,274L281,275L281,276L282,278L283,279Z M299,275L299,274L300,271L298,271L297,273L297,274L298,275L299,275Z M387,272L388,272L389,271L389,270L389,269L388,268L387,269L387,268L385,267L386,266L381,265L382,266L383,267L384,267L385,268L384,269L383,270L383,272L384,272L385,273L386,273Z M273,267L274,266L274,266L274,265L274,264L274,263L273,262L272,262L271,262L270,263L270,265L270,266L269,267L270,266L271,267L272,267L273,268Z M305,273L307,272L307,271L308,270L308,269L308,268L308,266L308,265L309,264L308,265L307,266L306,265L306,264L305,265L304,266L302,267L303,268L301,269L300,272L301,273L303,274Z M333,265L333,264L332,264L331,265L332,266L334,266Z M318,276L320,275L321,274L322,271L322,270L323,268L323,266L322,264L322,263L322,262L320,261L319,261L318,262L317,263L314,265L313,267L311,268L312,269L313,271L314,272L314,273L315,275L316,276L317,277Z M381,264L381,263L381,262L380,261L379,260L379,259L378,258L377,258L376,259L376,260L377,261L378,262L378,263L380,263L380,264Z M366,252L366,251L367,250L368,250L367,249L366,249L365,249L365,250L365,252L364,253L365,254L366,254Z M268,256L269,255L270,253L270,252L271,252L272,250L271,250L269,249L270,248L269,246L269,247L268,248L267,249L267,250L268,251L268,253L267,253L267,254L267,256Z M313,249L314,247L316,247L316,246L315,245L314,245L312,245L312,246L311,244L309,244L309,246L310,246L309,248L309,249Z M293,250L293,250L293,249L292,248L293,247L292,246L292,244L290,245L290,247L290,249L289,249L289,251L290,251L290,252Z M283,240L283,239L283,238L282,238L281,239L280,239L282,240Z M305,242L305,241L306,239L306,237L305,237L303,236L302,236L301,237L300,236L298,236L297,235L297,234L294,234L294,235L294,236L295,237L297,238L298,240L299,240L300,241L301,241L302,242Z M264,243L265,242L266,240L267,238L267,237L266,235L265,235L264,235L264,236L263,237L262,237L262,239L262,240L262,243L263,244Z M293,232L294,231L294,230L293,229L292,229L293,228L293,227L292,225L292,223L292,222L288,222L287,221L287,221L286,219L286,218L284,217L284,216L283,217L280,219L280,220L280,221L281,222L281,223L282,223L283,224L284,224L285,225L285,227L286,227L288,229L289,230L290,230L291,233L293,233Z " data-fips="GR47" data-hasc="GR.AS" data-name="Notio Aigaio" data-postal="AS" data-varname="Aegean South"/></g></svg>