<?xml version="1.0" ?><!DOCTYPE svg  PUBLIC '-//W3C//DTD SVG 1.1//EN'  'http://www.w3.org/Graphics/SVG/1.1/DTD/svg11.dtd'><svg enable_background="new 0 0 500 401" height="401px" style="stroke-linejoin: round; stroke:#000; fill:#f6f3f0;" version="1.1" viewBox="0 0 500 401" width="500px" xmlns="http://www.w3.org/2000/svg" xmlns:xlink="http://www.w3.org/1999/xlink"><defs><style type="text/css"><![CDATA[path { fill-rule: evenodd; }
#context path { fill: #eee; stroke: #bbb; } ]]></style></defs><metadata><views><view h="401" padding="0" w="500"><proj id="laea" lat0="53.177" lon0="-8.152"/><bbox h="48.51" w="33.66" x="982.39" y="972.7"/><llbbox lat0="-90" lat1="90" lon0="-180" lon1="180"/></view></views></metadata><g id="admin1"><path d="M157,285L160,284L161,284L161,283L161,281L163,281L165,280L170,277L169,276L169,275L171,276L171,278L172,278L174,279L175,280L176,281L177,281L181,281L185,280L187,279L187,280L186,281L185,282L184,283L186,284L187,283L188,281L194,281L195,280L201,273L203,269L203,268L204,266L206,265L207,266L206,268L207,268L207,269L207,270L207,272L207,273L207,274L208,274L212,273L214,274L218,275L220,275L220,276L221,275L223,276L224,278L225,278L227,277L227,275L228,275L229,276L231,275L232,274L232,273L234,273L235,272L235,271L234,269L234,268L236,267L238,266L238,263L238,261L239,259L239,258L240,256L241,255L241,253L242,252L245,251L249,247L248,246L247,244L245,245L244,245L241,245L240,245L239,245L237,245L235,244L235,242L234,242L233,241L231,239L229,239L224,239L223,240L222,240L221,241L221,242L220,243L219,244L218,245L217,245L216,245L215,244L214,245L213,245L212,245L212,244L212,242L212,240L212,240L211,238L212,237L211,236L205,232L204,231L203,230L204,229L204,228L205,227L205,227L205,227L205,227L203,227L202,226L201,225L197,227L200,228L201,228L200,230L199,229L198,230L196,230L195,231L194,230L191,227L190,227L188,227L187,229L186,231L185,233L184,234L181,241L180,242L178,245L177,246L175,248L177,248L182,248L183,249L182,251L178,254L178,256L177,257L177,259L176,260L175,261L175,262L175,264L174,265L174,267L172,267L171,268L169,268L167,268L166,269L166,271L153,282L150,283L147,285L146,286Z " data-fips="EI03" data-hasc="IE.CE" data-name="Clare" data-postal="CE" data-varname="An Clr"/><path d="M335,296L336,295L337,293L338,290L338,289L341,285L341,284L341,281L342,280L344,279L345,278L347,278L348,278L349,277L349,276L348,275L348,274L349,274L350,273L350,269L349,268L349,266L348,265L346,265L346,264L346,263L347,261L348,259L349,259L351,260L352,261L353,261L354,261L355,260L357,259L357,258L357,255L358,254L357,253L356,254L355,254L353,253L351,252L343,250L342,253L341,254L340,255L338,255L337,255L335,256L334,255L333,254L331,254L331,255L331,258L331,260L330,260L326,262L323,264L322,266L322,268L322,269L322,270L323,271L324,272L326,271L327,272L328,274L329,275L328,276L328,278L329,280L329,281L330,283L332,284L332,285L332,287L331,288L331,290L332,296Z " data-fips="EI01" data-hasc="IE.CW" data-name="Carlow" data-postal="CW" data-varname="Ceatharlach"/><path d="M154,397L154,398L158,396L157,396L161,392L162,392L163,393L163,394L165,394L167,393L168,393L168,391L173,390L175,390L175,388L176,388L178,389L177,391L177,393L177,394L179,393L180,391L182,390L183,391L182,391L180,392L180,393L180,395L181,394L180,396L179,397L182,396L182,396L183,395L184,394L186,393L186,394L187,395L188,396L189,395L190,393L191,393L191,392L194,392L195,391L196,390L196,389L196,388L198,389L202,389L203,388L204,388L206,390L207,391L208,390L210,389L211,388L211,386L212,385L214,385L215,385L218,385L219,386L220,386L222,387L222,385L223,383L222,382L223,381L220,381L219,381L218,380L226,381L229,380L230,380L231,381L232,383L233,383L232,382L232,381L232,379L234,376L235,376L234,374L233,375L232,375L231,374L234,374L235,374L236,377L236,376L237,375L236,373L237,373L238,374L239,375L240,373L243,373L244,372L245,371L247,368L247,367L247,366L248,364L246,364L247,363L247,362L247,361L244,361L245,358L244,357L241,356L239,356L240,355L242,355L244,355L245,355L247,354L248,354L248,355L251,355L252,355L253,356L254,355L255,356L254,356L254,358L255,358L254,359L253,360L252,361L251,362L250,363L251,364L252,364L254,364L258,364L260,363L265,362L266,361L265,360L265,359L269,357L271,357L273,356L273,355L271,353L272,353L273,352L274,351L275,349L275,346L274,346L272,346L271,345L270,343L268,341L267,340L266,339L265,338L265,335L264,334L263,333L262,332L262,330L260,330L257,329L257,328L257,327L258,324L260,323L260,321L258,321L257,320L256,319L256,318L255,316L253,315L249,315L248,315L248,314L247,312L246,312L245,311L244,313L243,314L242,315L239,315L236,316L235,316L234,315L233,315L231,313L229,312L229,311L228,310L227,309L226,309L226,308L225,307L224,306L223,306L221,306L217,305L216,305L213,308L212,308L211,309L211,310L210,311L206,313L205,314L204,313L202,312L199,310L196,310L195,310L192,313L190,314L190,315L188,318L187,320L187,321L188,322L189,323L189,324L190,330L191,334L192,336L192,337L191,337L191,338L190,340L191,341L192,342L193,343L195,343L196,344L196,345L195,346L194,346L189,347L188,348L186,349L185,350L184,351L185,352L186,353L186,355L186,356L185,357L184,358L183,360L182,360L181,360L179,361L177,362L177,362L176,364L174,365L173,365L172,365L171,365L169,365L165,366L162,369L161,369L159,369L158,370L154,374L153,374L152,375L151,374L151,372L151,371L151,370L150,369L149,368L149,368L147,368L147,367L146,367L143,368L141,370L140,371L143,372L140,375L139,376L136,375L135,376L135,377L136,378L136,380L135,380L131,381L130,382L130,383L130,385L131,383L133,383L136,383L138,383L140,382L144,380L144,379L145,379L148,378L156,377L158,376L162,375L164,375L165,374L167,372L168,372L169,372L168,370L168,369L168,367L169,368L170,369L171,371L172,372L173,372L174,371L175,373L174,374L174,375L172,376L170,377L168,378L166,378L165,379L157,383L154,384L154,385L153,386L152,387L149,388L153,388L166,382L169,383L167,383L165,384L164,385L161,388L160,389L158,390L156,391L155,391L153,394L152,394L150,395L151,396L151,398L152,399Z M152,380L152,379L151,379L149,379L147,379L146,379L145,381L147,382Z " data-fips="EI04" data-hasc="IE.CK" data-name="Cork" data-postal="CK" data-varname="Corcaigh"/><path d="M327,163L329,162L330,161L331,160L331,159L329,156L328,155L328,153L330,154L330,153L330,151L331,152L332,153L333,153L334,152L337,151L338,151L339,150L340,149L336,146L336,146L335,145L335,144L335,144L333,140L333,140L332,139L331,139L331,139L330,138L324,132L324,132L324,132L325,131L325,131L324,130L323,131L323,131L321,131L321,131L321,132L320,131L319,131L318,132L317,132L317,132L313,131L312,131L312,131L310,131L310,131L307,130L306,129L306,129L305,129L303,128L301,128L301,127L300,127L300,126L299,126L296,128L295,128L289,127L288,125L287,124L283,121L282,120L278,121L275,120L274,119L273,118L273,113L273,112L272,111L269,111L269,111L268,112L267,113L266,114L265,115L264,115L263,116L263,117L264,120L263,121L264,122L266,122L267,123L268,123L269,124L276,130L277,130L278,129L280,130L281,131L284,133L285,134L286,135L287,137L289,138L290,139L290,140L290,142L291,143L291,144L290,146L291,150L292,151L293,152L293,153L292,154L291,155L293,155L294,155L295,155L296,155L297,156L298,158L298,159L299,160L302,163L305,161L308,160L309,161L310,162L312,163L313,163L314,162L316,162L318,161L319,161L321,163L326,163Z " data-fips="EI02" data-hasc="IE.CN" data-name="Cavan" data-postal="CN" data-varname="An Cabhn"/><path d="M361,168L367,168L371,167L371,164L371,161L372,160L371,159L370,157L370,156L371,153L366,153L364,152L363,150L362,148L362,146L363,143L363,142L364,140L364,139L363,138L366,138L372,140L372,141L374,141L375,142L376,141L378,139L378,138L377,136L376,136L375,135L373,134L372,133L368,130L368,129L366,129L364,129L363,128L363,130L363,132L362,133L361,133L358,134L358,133L356,133L351,135L349,135L349,136L351,136L351,137L352,139L352,140L352,140L352,140L352,141L352,142L351,142L350,142L349,142L348,142L348,142L347,144L347,145L347,145L347,146L347,147L347,148L347,148L344,150L349,153L350,154L350,155L350,156L351,158L352,159L352,160L353,161L354,162L356,163L358,163L359,164L359,165L358,166L358,167L359,169Z " data-fips="EI19" data-hasc="IE.LH" data-name="Louth" data-postal="LH" data-varname="L"/><path d="M165,231L164,230L164,228L162,228L161,227L159,228L157,226L156,226L155,227L157,229L164,232Z M214,245L215,244L216,245L217,245L218,245L219,244L220,243L221,242L221,241L222,240L223,240L224,239L229,239L231,239L233,241L234,242L235,242L235,244L237,245L239,245L240,245L241,245L244,245L245,245L247,244L247,243L249,241L250,238L251,237L252,236L254,234L255,233L256,229L257,227L259,226L260,226L261,225L263,223L266,222L267,221L268,220L267,218L264,216L263,214L261,214L257,214L256,213L255,212L254,210L255,209L254,208L253,207L252,207L251,206L251,204L251,203L252,202L251,201L251,200L250,198L251,197L250,196L249,195L249,194L249,192L249,191L248,190L249,189L249,188L248,185L248,185L246,183L245,182L243,180L242,179L242,177L244,177L243,176L242,175L242,175L240,174L239,173L239,172L238,171L237,170L233,170L231,170L230,171L228,171L227,173L226,174L221,175L220,175L217,175L216,174L215,176L212,176L208,176L207,177L207,178L207,179L206,180L205,182L204,183L203,184L203,184L203,185L203,187L200,190L199,192L197,193L196,193L193,194L192,193L192,193L191,192L190,191L189,190L189,190L188,189L188,187L187,187L184,186L184,185L184,184L177,185L176,184L175,183L173,182L172,182L172,180L171,180L170,180L163,180L163,181L159,180L156,180L155,179L153,179L151,180L149,180L145,180L142,180L143,181L146,184L145,186L144,184L141,183L138,183L139,185L137,185L136,184L134,184L133,185L134,186L136,186L137,187L137,189L138,191L141,192L143,192L144,192L144,193L142,193L141,192L140,193L141,194L142,195L140,196L137,195L136,196L135,196L135,197L134,199L135,199L136,198L137,199L138,199L142,199L142,201L143,202L145,203L147,203L149,202L149,201L149,200L149,199L151,198L152,199L153,198L154,197L153,198L152,200L153,201L154,200L156,199L157,199L155,201L158,201L157,202L154,204L153,204L152,204L151,205L151,207L150,208L151,209L154,208L155,209L157,211L160,209L161,208L162,206L163,204L164,203L166,202L166,203L166,205L166,207L167,208L168,208L168,206L168,204L167,203L168,203L169,202L172,203L169,204L169,205L171,208L170,209L169,208L168,209L168,214L167,216L169,217L169,216L170,214L170,212L171,212L172,213L171,215L171,216L172,217L173,218L174,218L176,219L178,218L179,218L181,217L200,215L202,214L204,214L208,215L208,216L206,216L205,218L207,218L206,218L203,219L203,220L210,220L211,220L209,221L208,222L207,224L208,225L208,227L206,226L206,225L206,224L205,224L203,225L202,225L205,227L204,228L204,229L203,230L204,231L205,232L211,236L212,237L211,238L212,240L212,240L212,242L212,244L212,245L213,245Z M165,218L166,216L165,214L163,213L162,213L161,214L162,216L162,217L163,218Z " data-fips="EI10" data-hasc="IE.GY" data-name="Galway" data-postal="GY" data-varname="Gaillimh"/><path d="M196,193L197,193L199,192L200,190L203,187L203,185L203,184L203,184L204,183L205,182L206,180L207,179L207,178L207,177L208,176L212,176L215,176L216,174L218,172L219,172L220,172L222,170L224,168L224,167L224,164L224,162L224,161L222,160L222,159L223,158L223,156L224,155L224,154L226,154L227,154L228,154L228,153L227,151L225,149L225,148L225,146L225,146L225,144L226,144L230,146L231,145L230,144L231,140L230,139L226,137L225,138L225,139L224,140L223,141L222,141L221,142L220,143L219,144L217,144L214,143L214,142L213,141L213,139L212,139L210,139L209,139L208,138L206,138L205,138L205,136L206,135L206,135L208,133L208,132L209,131L209,130L210,130L211,129L210,127L209,126L208,126L204,125L203,126L202,126L200,126L198,124L198,124L198,126L198,124L197,122L196,121L193,117L195,116L193,115L194,114L194,113L193,112L191,112L191,110L190,110L187,108L186,108L185,110L183,110L178,109L177,108L176,108L175,109L164,108L163,107L161,106L160,106L156,107L156,109L157,110L160,110L161,111L159,111L159,112L160,112L161,114L159,114L157,112L156,112L155,112L154,114L154,115L155,117L154,117L153,118L152,119L151,118L150,118L149,118L148,117L148,115L150,116L151,117L153,116L154,112L152,113L152,112L151,112L150,112L149,111L148,110L147,109L146,109L146,110L143,112L142,113L142,115L141,116L140,115L141,117L143,117L143,118L141,120L141,121L141,123L139,125L139,127L139,129L140,130L141,130L142,129L141,127L143,127L142,124L141,123L143,123L144,123L144,121L144,120L145,121L146,120L145,118L146,117L147,118L150,121L150,122L148,121L150,124L150,125L149,124L149,125L150,126L152,128L151,128L148,129L147,129L148,132L150,133L151,133L153,130L154,130L154,128L155,128L156,128L155,130L154,132L155,132L154,133L152,134L152,136L152,137L153,139L154,140L155,140L155,141L156,143L157,144L156,143L158,144L159,145L159,146L159,148L157,148L157,146L156,145L154,144L152,145L151,146L151,148L150,148L150,151L150,149L150,147L150,146L151,144L150,144L148,143L149,142L149,141L150,141L149,138L148,137L142,137L141,138L140,139L138,139L137,138L136,138L135,138L134,140L133,141L132,141L130,142L132,142L135,143L136,143L141,142L142,143L143,145L143,146L142,147L143,148L145,148L146,150L147,151L148,152L150,151L149,152L151,154L154,153L160,150L169,150L171,151L172,150L171,152L171,153L172,154L170,155L169,156L169,158L168,159L171,160L172,161L160,162L158,161L157,162L156,162L154,163L151,164L152,166L151,167L150,169L150,171L151,176L156,179L158,180L162,180L163,180L170,180L171,180L172,180L172,182L173,182L175,183L176,184L177,185L184,184L184,185L184,186L187,187L188,187L188,189L189,190L189,190L190,191L191,192L192,193L192,193L193,194Z " data-fips="EI20" data-hasc="IE.MO" data-name="Mayo" data-postal="MO" data-varname="Maigh Eo"/><path d="M354,201L355,201L356,201L361,199L362,198L363,197L365,196L366,195L366,194L366,192L367,191L366,190L365,189L364,188L363,188L362,187L361,186L361,184L362,183L363,182L364,181L366,182L366,183L367,183L368,182L369,181L370,180L371,178L372,177L373,177L374,176L373,175L372,174L372,173L371,171L371,167L367,168L361,168L359,169L358,167L358,166L359,165L359,164L358,163L356,163L354,162L353,161L352,160L352,159L351,158L350,156L350,155L350,154L349,153L344,150L343,149L341,149L340,149L339,150L338,151L337,151L334,152L333,153L332,153L331,152L330,151L330,153L330,154L328,153L328,155L329,156L331,159L331,160L330,161L329,162L327,163L326,163L321,163L319,161L318,161L316,162L314,162L313,163L312,163L310,162L309,161L308,160L305,161L308,163L310,165L311,166L312,167L312,168L312,169L313,170L316,173L318,173L320,174L321,175L323,176L323,175L325,175L326,174L327,174L328,175L329,176L329,177L328,178L328,179L327,181L327,182L327,183L325,184L325,185L325,186L325,187L325,189L325,190L324,191L323,191L323,193L322,194L322,195L320,197L318,197L317,198L316,198L323,201L329,196L330,196L331,196L332,197L333,198L334,199L334,200L336,201L338,201L339,200L339,199L341,198L346,199L347,200L348,201L351,201L353,201Z " data-fips="EI21" data-hasc="IE.MH" data-name="Meath" data-postal="MH" data-varname="An Mh"/><path d="M269,257L269,255L269,254L271,254L272,253L272,252L275,250L275,249L275,248L276,247L277,246L277,246L278,245L284,245L284,244L284,242L285,241L285,240L287,238L287,237L288,237L290,235L290,234L291,233L290,232L288,229L288,228L288,227L288,226L297,223L298,223L300,224L301,223L301,222L302,221L304,221L305,222L306,222L307,225L308,227L308,228L309,229L311,228L312,228L314,227L315,227L318,227L320,227L320,225L318,223L319,223L324,223L325,222L326,221L325,220L324,220L323,219L325,217L325,217L325,215L326,214L326,213L327,211L327,210L326,209L322,205L314,201L313,201L310,202L304,208L299,209L298,209L297,208L296,208L295,208L295,209L294,209L293,207L292,206L292,204L292,202L291,202L289,201L288,201L286,202L285,203L284,204L283,205L280,207L278,207L275,207L274,207L273,206L272,206L269,205L268,207L265,210L264,211L263,213L263,214L264,216L267,218L268,220L267,221L266,222L263,223L261,225L265,229L270,231L270,232L271,233L271,235L270,236L270,237L270,239L268,239L268,241L268,242L269,243L268,244L267,243L266,244L266,245L267,247L268,248L267,249L266,250L265,250L263,249L263,251L264,252L264,253L265,254L266,255L267,256L268,257Z " data-fips="EI23" data-hasc="IE.OY" data-name="Offaly" data-postal="OY" data-varname="Ubh Fhail|Kings"/><path d="M304,208L310,202L313,201L314,201L316,198L317,198L318,197L320,197L322,195L322,194L323,193L323,191L324,191L325,190L325,189L325,187L325,186L325,185L325,184L327,183L327,182L327,181L328,179L328,178L329,177L329,176L328,175L327,174L326,174L325,175L323,175L323,176L321,175L320,174L318,173L316,173L313,170L312,169L312,168L312,167L311,166L310,165L308,163L305,161L302,163L303,164L303,166L303,167L302,168L301,168L300,168L299,168L298,169L297,171L295,171L294,172L294,174L292,175L291,176L290,175L290,176L292,178L292,179L291,180L290,181L289,182L288,183L288,185L287,186L286,187L285,188L283,188L280,188L277,187L276,187L271,187L270,188L268,189L268,193L268,194L268,196L270,202L270,204L269,205L272,206L273,206L274,207L275,207L278,207L280,207L283,205L284,204L285,203L286,202L288,201L289,201L291,202L292,202L292,204L292,206L293,207L294,209L295,209L295,208L296,208L297,208L298,209L299,209Z " data-fips="EI29" data-hasc="IE.WH" data-name="Westmeath" data-postal="WH" data-varname="An Iarmh"/><path d="M333,330L335,328L339,324L339,324L339,322L339,321L338,322L338,320L338,319L340,319L341,319L342,318L343,317L343,318L342,319L341,320L340,322L341,322L346,321L350,322L352,323L353,325L354,325L357,323L360,322L362,322L362,322L361,323L364,323L365,321L367,322L366,323L365,324L367,324L368,324L369,323L370,318L367,315L366,313L367,310L365,312L365,313L364,312L364,311L362,311L362,310L362,309L361,308L360,307L359,306L360,305L361,304L361,306L362,307L366,306L367,308L367,306L367,304L367,303L368,301L369,298L370,297L371,296L372,295L376,289L376,287L376,283L376,281L375,278L375,277L376,275L378,270L379,267L379,267L379,266L378,264L377,264L375,264L374,263L373,262L372,262L371,263L370,263L369,262L366,263L365,263L364,264L364,266L363,267L362,267L362,268L361,269L360,271L360,271L359,272L356,274L355,273L354,272L353,272L350,273L349,274L348,274L348,275L349,276L349,277L348,278L347,278L345,278L344,279L342,280L341,281L341,284L341,285L338,289L338,290L337,293L336,295L335,296L332,296L333,298L332,299L332,301L330,301L331,302L331,303L330,304L330,306L328,307L328,308L328,310L328,311L327,314L327,315L328,315L328,314L329,315L330,318L331,319L332,320L333,322L334,326L334,327L333,328L332,329L331,330L332,331Z " data-fips="EI30" data-hasc="IE.WX" data-name="Wexford" data-postal="WX" data-varname="Loch Garman"/><path d="M359,272L360,271L360,271L361,269L362,268L362,267L363,267L364,266L364,264L365,263L366,263L369,262L370,263L371,263L372,262L373,262L374,263L375,264L377,264L378,264L379,266L379,267L379,267L380,266L379,264L380,259L381,258L382,257L384,254L386,249L387,248L388,245L388,244L386,241L385,240L385,238L385,236L386,234L386,232L386,229L383,225L383,224L383,222L383,221L382,220L381,220L380,221L379,221L375,220L373,221L372,220L371,220L369,219L369,220L368,222L368,223L367,223L366,222L365,221L364,220L359,219L357,220L356,222L354,224L354,225L354,226L353,227L353,228L353,229L352,230L349,233L347,234L346,234L344,236L343,237L341,240L340,243L340,244L342,246L343,248L344,249L343,250L351,252L353,253L355,254L356,254L357,253L358,254L357,255L357,258L357,259L355,260L354,261L353,261L352,261L351,260L349,259L348,259L347,261L346,263L346,264L346,265L348,265L349,266L349,268L350,269L353,272L354,272L355,273L356,274Z " data-fips="EI31" data-hasc="IE.WW" data-name="Wicklow" data-postal="WW" data-varname="Cill Mhantin"/><path d="M368,223L368,222L369,220L369,219L371,220L372,220L373,221L375,220L379,221L380,221L381,220L382,220L381,219L381,217L381,216L381,214L381,212L380,211L379,211L378,210L377,210L375,208L374,206L374,205L378,202L379,201L380,202L381,203L383,203L384,201L383,201L380,201L379,200L380,199L379,198L379,197L379,196L375,194L376,193L377,193L378,193L379,193L380,190L380,189L381,187L382,186L382,184L381,183L381,182L379,181L377,180L376,179L374,176L373,177L372,177L371,178L370,180L369,181L368,182L367,183L366,183L366,182L364,181L363,182L362,183L361,184L361,186L362,187L363,188L364,188L365,189L366,190L367,191L366,192L366,194L366,195L365,196L363,197L362,198L361,199L358,205L357,208L356,209L356,210L355,211L355,213L355,214L356,215L356,216L356,217L357,217L358,217L359,219L364,220L365,221L366,222L367,223Z " data-fips="EI07" data-hasc="IE.DN" data-name="Dublin" data-postal="DN" data-varname="Baile tha Cliath"/><path d="M337,255L338,255L340,255L341,254L342,253L343,250L344,249L343,248L342,246L340,244L340,243L341,240L343,237L344,236L346,234L347,234L349,233L352,230L353,229L353,228L353,227L354,226L354,225L354,224L356,222L357,220L359,219L358,217L357,217L356,217L356,216L356,215L355,214L355,213L355,211L356,210L356,209L357,208L358,205L356,201L355,201L354,201L353,201L351,201L348,201L347,200L346,199L341,198L339,199L339,200L338,201L336,201L334,200L334,199L333,198L332,197L331,196L330,196L329,196L323,201L322,205L326,209L327,210L327,211L326,213L326,214L325,215L325,217L325,217L323,219L324,220L325,220L326,221L325,222L324,223L319,223L318,223L320,225L323,226L322,227L321,227L321,228L321,229L322,231L323,233L324,235L324,236L323,238L322,240L322,242L322,243L323,244L324,245L326,245L327,245L328,245L329,246L331,251L331,252L331,254L333,254L334,255L335,256Z " data-fips="EI12" data-hasc="IE.KE" data-name="Kildare" data-postal="KE" data-varname="Cill Dara"/><path d="M316,318L317,316L318,316L320,317L322,318L323,318L325,318L326,317L327,316L329,316L328,315L327,315L327,314L328,311L328,310L328,308L328,307L330,306L330,304L331,303L331,302L330,301L332,301L332,299L333,298L332,296L331,290L331,288L332,287L332,285L332,284L330,283L329,281L329,280L328,278L328,276L329,275L328,274L327,272L326,271L324,272L323,271L322,270L322,269L322,268L322,266L323,264L323,262L323,261L322,260L320,259L319,258L319,258L319,256L319,255L316,254L315,254L312,256L312,257L311,257L309,257L308,257L307,258L307,259L306,260L305,260L304,261L303,262L302,263L299,264L298,263L297,263L296,262L295,262L294,262L293,261L291,261L290,263L289,264L286,265L287,267L289,270L290,270L291,271L293,272L293,273L296,279L298,282L299,284L300,285L300,286L300,289L300,290L300,291L302,292L302,293L301,294L300,295L300,296L301,297L302,298L303,300L304,301L304,303L304,305L304,306L308,311L309,312L310,314L312,316L314,318L315,318Z " data-fips="EI13" data-hasc="IE.KK" data-name="Kilkenny" data-postal="KK" data-varname="Cill Chainnigh"/><path d="M289,264L290,263L291,261L293,261L294,262L295,262L296,262L297,263L298,263L299,264L302,263L303,262L304,261L305,260L306,260L307,259L307,258L308,257L309,257L311,257L312,257L312,256L315,254L316,254L319,255L319,256L319,258L319,258L320,259L322,260L323,261L323,262L326,262L330,260L331,260L331,258L331,255L331,254L331,252L331,251L329,246L328,245L327,245L326,245L324,245L323,244L322,243L322,242L322,240L323,238L324,236L324,235L323,233L322,231L321,229L321,228L321,227L322,227L323,226L320,227L318,227L315,227L314,227L312,228L311,228L309,229L308,228L308,227L307,225L306,222L305,222L304,221L302,221L301,222L301,223L300,224L298,223L297,223L288,226L288,227L288,228L288,229L290,232L291,233L290,234L290,235L288,237L287,237L287,238L285,240L285,241L284,242L284,244L284,245L284,249L284,249L287,250L286,251L285,253L284,254L284,255L284,256L283,257L284,258L284,259L285,260L286,261L286,265Z " data-fips="EI15" data-hasc="IE.LS" data-name="Laoighis" data-postal="LS" data-varname="Laois|Leix|Queens"/><path d="M266,322L266,320L267,319L270,319L271,320L272,320L280,321L281,321L281,319L281,318L280,317L279,316L279,314L279,311L279,310L280,309L282,309L291,307L295,308L298,309L304,306L304,305L304,303L304,301L303,300L302,298L301,297L300,296L300,295L301,294L302,293L302,292L300,291L300,290L300,289L300,286L300,285L299,284L298,282L296,279L293,273L293,272L291,271L290,270L289,270L287,267L286,265L286,261L285,260L284,259L284,258L283,257L284,256L284,255L284,254L285,253L286,251L287,250L284,249L284,249L278,245L277,246L277,246L276,247L275,248L275,249L275,250L272,252L272,253L271,254L269,254L269,255L269,257L268,257L267,256L266,255L265,254L264,253L264,252L263,251L263,249L265,250L266,250L267,249L268,248L267,247L266,245L266,244L267,243L268,244L269,243L268,242L268,241L268,239L270,239L270,237L270,236L271,235L271,233L270,232L270,231L265,229L261,225L260,226L259,226L257,227L256,229L255,233L254,234L252,236L251,237L250,238L249,241L247,243L247,244L248,246L249,247L245,251L242,252L241,253L241,255L240,256L239,258L239,259L238,261L238,263L238,266L236,267L237,269L238,271L238,273L239,274L240,275L245,275L247,274L248,274L249,275L250,276L251,277L254,276L254,279L253,281L253,284L252,285L252,286L252,288L252,289L252,291L252,292L251,292L250,292L248,292L248,292L246,294L246,296L245,295L245,294L245,293L244,293L243,294L242,295L242,296L242,297L242,299L243,299L245,300L246,300L247,300L250,303L251,303L252,304L252,306L253,307L255,307L255,308L255,311L256,312L256,313L255,316L256,318L256,319L257,320L258,321L260,321L260,323L265,323Z " data-fips="EI26" data-hasc="IE.TY" data-name="Tipperary" data-postal="TY" data-varname="Tiobraid rann"/><path d="M153,374L154,374L158,370L159,369L161,369L162,369L165,366L169,365L171,365L172,365L173,365L174,365L176,364L177,362L177,362L179,361L181,360L182,360L183,360L184,358L185,357L186,356L186,355L186,353L185,352L184,351L185,350L186,349L188,348L189,347L194,346L195,346L196,345L196,344L195,343L193,343L192,342L191,341L190,340L191,338L191,337L192,337L192,336L191,334L190,330L189,324L189,323L188,322L187,321L187,320L188,318L190,315L190,314L190,312L189,312L188,311L187,311L186,310L185,309L184,308L183,308L184,307L185,306L185,305L184,304L184,303L184,302L184,301L185,300L184,298L184,297L184,295L185,294L185,293L185,292L185,291L184,289L183,288L183,287L182,285L177,285L176,286L174,286L173,285L169,285L166,284L165,285L164,285L162,288L162,289L162,291L162,292L162,293L163,293L165,294L165,295L164,294L162,294L161,294L159,294L159,296L158,296L151,299L147,299L146,300L145,301L146,302L148,303L151,304L152,305L152,310L153,311L151,313L152,313L151,314L150,313L149,313L149,314L150,315L152,315L154,316L157,317L158,318L153,318L152,318L153,317L152,317L150,319L150,319L147,319L145,318L143,317L142,317L141,317L141,315L141,314L141,312L140,311L138,311L139,313L139,315L137,317L135,318L131,318L132,314L131,313L124,315L122,317L122,318L120,318L119,319L118,320L119,321L118,322L118,324L117,324L116,323L116,321L115,322L113,322L113,323L113,325L112,326L112,328L112,330L113,331L114,332L115,332L119,330L118,329L120,329L123,330L124,330L123,329L122,329L125,328L126,330L127,329L128,329L130,331L131,330L140,328L142,329L144,330L144,331L145,330L144,328L156,327L155,329L156,330L151,331L149,331L147,329L146,335L145,336L143,335L143,333L142,337L139,338L133,339L129,341L127,342L126,343L124,343L124,345L122,346L122,347L123,347L123,348L124,349L125,350L125,351L124,352L123,352L118,353L116,353L117,354L116,355L117,356L117,358L119,358L120,359L119,362L119,363L120,363L122,361L123,360L126,357L128,358L129,361L129,363L126,364L132,367L132,368L133,368L135,367L137,366L138,365L139,365L141,365L144,362L147,362L147,361L149,361L149,363L151,361L152,360L154,360L155,359L156,358L162,356L167,356L165,357L161,359L159,359L157,360L156,361L155,362L153,364L152,365L154,366L151,366L150,366L150,365L149,368L150,369L151,370L151,371L151,372L151,374L152,375Z M116,353L118,353L121,352L122,351L122,350L120,349L120,349L118,349L115,351L114,354Z " data-fips="EI11" data-hasc="IE.KY" data-name="Kerry" data-postal="KY" data-varname="Ciarra"/><path d="M239,315L242,315L243,314L244,313L245,311L246,312L247,312L248,314L248,315L249,315L253,315L256,313L256,312L255,311L255,308L255,307L253,307L252,306L252,304L251,303L250,303L247,300L246,300L245,300L243,299L242,299L242,297L242,296L242,295L243,294L244,293L245,293L245,294L245,295L246,296L246,294L248,292L248,292L250,292L251,292L252,292L252,291L252,289L252,288L252,286L252,285L253,284L253,281L254,279L254,276L251,277L250,276L249,275L248,274L247,274L245,275L240,275L239,274L238,273L238,271L237,269L236,267L234,268L234,269L235,271L235,272L234,273L232,273L232,274L231,275L229,276L228,275L227,275L227,277L225,278L224,278L223,276L221,275L220,276L220,275L217,276L206,278L206,279L205,280L204,281L203,281L201,281L201,279L200,280L192,283L191,283L191,284L190,284L187,285L183,285L182,285L183,287L183,288L184,289L185,291L185,292L185,293L185,294L184,295L184,297L184,298L185,300L184,301L184,302L184,303L184,304L185,305L185,306L184,307L183,308L184,308L185,309L186,310L187,311L188,311L189,312L190,312L190,314L192,313L195,310L196,310L199,310L202,312L204,313L205,314L206,313L210,311L211,310L211,309L212,308L213,308L216,305L217,305L221,306L223,306L224,306L225,307L226,308L226,309L227,309L228,310L229,311L229,312L231,313L233,315L234,315L235,316L236,316Z " data-fips="EI16" data-hasc="IE.LK" data-name="Limerick" data-postal="LK" data-varname="Luimneach"/><path d="M263,213L264,211L265,210L268,207L269,205L270,204L270,202L268,196L268,194L268,193L268,189L266,185L264,182L264,180L264,179L264,178L265,175L266,173L266,172L267,170L269,168L269,167L270,167L270,166L272,164L272,163L271,162L271,161L270,159L269,157L268,156L267,155L267,153L266,151L266,150L264,148L263,149L262,149L260,149L260,148L260,147L259,146L260,145L261,143L262,141L261,140L260,137L261,135L262,134L263,133L263,132L261,131L259,130L257,129L256,130L256,132L255,132L254,133L253,134L252,135L252,136L252,137L251,136L250,137L248,137L248,138L247,140L246,141L245,141L244,141L242,142L242,143L242,144L242,145L243,146L245,146L245,147L245,149L240,149L240,150L239,150L238,149L236,149L235,148L234,146L234,145L231,145L230,146L226,144L225,144L225,146L225,146L225,148L225,149L227,151L228,153L228,154L227,154L226,154L224,154L224,155L223,156L223,158L222,159L222,160L224,161L224,162L224,164L224,167L224,168L222,170L220,172L219,172L218,172L216,174L217,175L220,175L221,175L226,174L227,173L228,171L230,171L231,170L233,170L237,170L238,171L239,172L239,173L240,174L242,175L242,175L243,176L244,177L242,177L242,179L243,180L245,182L246,183L248,185L248,185L249,188L249,189L248,190L249,191L249,192L249,194L249,195L250,196L251,197L250,198L251,200L251,201L252,202L251,203L251,204L251,206L252,207L253,207L254,208L255,209L254,210L255,212L256,213L257,214L261,214L263,214Z " data-fips="EI24" data-hasc="IE.RN" data-name="Roscommon" data-postal="RN" data-varname="Ros Comin"/><path d="M240,150L240,149L245,149L245,147L245,146L243,146L242,145L242,144L242,143L242,142L244,141L245,141L246,141L247,140L248,138L248,137L250,137L251,136L252,137L252,136L252,135L253,134L254,133L255,132L256,132L256,130L255,129L253,126L252,125L251,125L249,126L247,124L247,123L246,122L245,121L246,119L246,118L246,116L245,114L245,113L245,112L245,110L244,109L243,108L243,105L243,104L244,103L244,102L245,100L244,98L242,98L241,99L241,98L242,96L243,95L243,93L243,93L241,94L239,96L239,94L238,93L238,94L238,96L237,98L236,98L229,103L227,104L226,105L226,107L232,107L233,107L235,108L235,109L234,109L232,108L232,109L232,110L233,110L234,110L236,111L237,112L238,113L233,112L232,113L230,112L229,114L230,115L231,115L232,117L232,118L233,118L234,119L235,120L232,120L231,121L230,118L228,117L228,116L227,115L227,114L225,113L222,114L220,113L219,114L218,114L214,114L212,113L212,113L210,111L209,112L205,111L203,111L202,113L202,116L201,118L199,119L198,119L198,121L198,122L198,124L200,126L202,126L203,126L204,125L208,126L209,126L210,127L211,129L210,130L209,130L209,131L208,132L208,133L206,135L206,135L205,136L205,138L206,138L208,138L209,139L210,139L212,139L213,139L213,141L214,142L214,143L217,144L219,144L220,143L221,142L222,141L223,141L224,140L225,139L225,138L226,137L230,139L231,140L230,144L231,145L234,145L234,146L235,148L236,149L238,149L239,150Z " data-fips="EI25" data-hasc="IE.SO" data-name="Sligo" data-postal="SO" data-varname="Sligeach"/><path d="M257,93L260,92L261,91L262,90L263,89L264,87L265,86L270,87L272,87L274,86L280,80L283,79L282,77L281,78L279,78L277,76L276,76L275,77L274,76L273,75L272,74L271,74L270,73L270,71L269,70L272,69L275,67L277,68L279,69L281,69L283,68L285,66L286,65L288,66L290,65L291,66L292,65L292,64L292,62L292,60L296,55L297,53L298,51L298,50L297,47L298,45L299,45L300,43L300,40L300,39L302,36L303,35L306,34L307,33L308,32L309,32L310,30L311,28L313,24L314,24L316,23L317,22L319,20L321,19L323,18L325,18L326,17L327,15L326,13L325,14L323,13L321,12L318,11L316,10L315,9L312,5L311,4L308,3L304,1L302,0L301,0L300,1L301,2L303,3L303,5L304,7L308,10L307,11L306,11L304,11L304,10L305,10L304,8L303,7L302,8L300,10L298,10L297,9L296,8L296,10L295,10L293,10L293,11L293,13L293,15L291,17L292,19L292,20L294,21L296,25L296,27L296,29L296,30L297,30L297,32L297,34L296,35L295,35L294,36L293,36L292,37L286,43L285,44L284,43L285,43L287,40L289,38L290,37L291,35L290,34L286,34L289,32L291,30L292,29L293,28L293,26L291,25L291,24L290,22L290,21L288,20L288,19L287,18L288,16L288,15L287,14L286,13L286,12L284,12L281,14L279,14L278,17L278,19L280,20L281,21L282,22L282,21L281,19L281,18L282,17L283,18L283,20L284,21L284,23L285,24L284,26L283,28L283,27L283,25L282,23L282,22L281,21L279,21L278,20L277,21L276,20L276,19L277,13L275,15L274,16L273,18L273,20L275,22L275,23L274,25L272,25L271,25L273,24L272,23L271,24L271,22L270,21L268,21L267,20L265,21L268,19L268,18L267,17L265,17L265,19L264,20L263,21L262,21L259,24L256,26L256,25L256,23L254,24L253,25L249,23L249,24L248,27L247,29L247,31L247,34L246,36L245,33L243,36L242,36L242,38L240,39L239,39L239,40L241,43L242,44L244,45L242,46L241,46L240,45L238,45L239,47L240,49L241,51L243,50L244,49L246,49L246,52L244,52L243,52L243,54L244,55L245,56L246,57L245,57L242,55L239,56L238,56L236,55L235,56L234,57L233,57L233,58L234,58L236,60L238,60L241,64L240,64L239,63L238,62L237,61L234,61L233,61L235,62L239,64L237,64L234,63L228,63L227,63L222,66L222,67L221,69L220,70L219,71L220,72L219,73L219,74L220,74L225,76L225,77L226,78L230,78L232,79L234,77L235,77L236,77L237,77L237,78L239,79L239,77L241,76L241,78L242,77L243,78L243,79L242,80L241,81L240,81L239,84L240,83L241,82L244,79L245,78L247,76L248,76L249,78L248,79L249,79L252,77L256,76L257,76L258,75L258,76L257,79L256,79L255,78L255,81L253,83L253,85L249,88L251,89L253,90L251,90L248,92L248,93L251,94L252,94L255,94Z M237,42L237,40L236,39L235,38L234,38L233,39L232,41L232,42L233,43L235,43Z " data-fips="EI06" data-hasc="IE.DL" data-name="Donegal" data-postal="DL" data-varname="Dn na nGall|Tyrconnel"/><path d="M275,159L276,160L277,160L278,159L279,158L279,157L279,156L280,155L281,154L283,151L285,149L286,148L287,147L290,146L291,144L291,143L290,142L290,140L290,139L289,138L287,137L286,135L285,134L284,133L281,131L280,130L278,129L277,130L276,130L269,124L268,123L267,123L266,122L264,122L263,121L264,120L263,117L263,116L264,115L265,115L266,114L267,113L268,112L269,111L269,111L268,110L267,109L267,108L265,105L264,105L262,104L261,102L258,99L257,97L256,96L255,94L252,94L251,94L248,93L248,92L243,93L243,95L242,96L241,98L241,99L242,98L244,98L245,100L244,102L244,103L243,104L243,105L243,108L244,109L245,110L245,112L245,113L245,114L246,116L246,118L246,119L245,121L246,122L247,123L247,124L249,126L251,125L252,125L253,126L255,129L256,130L257,129L259,130L261,131L263,132L263,133L262,134L261,135L260,137L261,140L262,141L261,143L260,145L259,146L260,147L260,148L260,149L262,149L263,149L264,148L266,150L266,151L267,153L267,155L268,156L269,157L270,159L272,159L273,159L274,160Z " data-fips="EI14" data-hasc="IE.LM" data-name="Leitrim" data-postal="LM" data-varname="Liatroim"/><path d="M270,188L271,187L276,187L277,187L280,188L283,188L285,188L286,187L287,186L288,185L288,183L289,182L290,181L291,180L292,179L292,178L290,176L290,175L291,176L292,175L294,174L294,172L295,171L297,171L298,169L299,168L300,168L301,168L302,168L303,167L303,166L303,164L302,163L299,160L298,159L298,158L297,156L296,155L295,155L294,155L293,155L291,155L292,154L293,153L293,152L292,151L291,150L287,147L286,148L285,149L283,151L281,154L280,155L279,156L279,157L279,158L278,159L277,160L276,160L275,159L274,160L273,159L272,159L271,161L271,162L272,163L272,164L270,166L270,167L269,167L269,168L267,170L266,172L266,173L265,175L264,178L264,179L264,180L264,182L266,185L268,189Z " data-fips="EI18" data-hasc="IE.LD" data-name="Longford" data-postal="LD" data-varname="An Longfort"/><path d="M284,348L284,347L285,346L289,346L290,345L291,345L292,344L292,341L294,339L294,338L292,337L291,337L289,337L289,336L290,334L291,334L292,334L293,335L294,335L295,334L297,333L301,331L313,330L315,330L317,330L318,329L319,328L320,327L321,327L321,326L322,326L324,327L322,329L322,330L323,330L326,330L327,329L328,328L330,326L331,324L329,323L330,321L330,320L329,318L329,316L327,316L326,317L325,318L323,318L322,318L320,317L318,316L317,316L316,318L315,318L314,318L312,316L310,314L309,312L308,311L298,309L295,308L291,307L282,309L280,309L279,310L279,311L279,314L279,316L280,317L281,318L281,319L281,321L280,321L272,320L271,320L270,319L267,319L266,320L266,322L265,323L260,323L258,324L257,327L257,328L257,329L260,330L262,330L262,332L263,333L264,334L265,335L265,338L266,339L267,340L268,341L270,343L271,345L272,346L274,346L275,346L275,346L276,347L277,349L284,349Z " data-fips="EI32" data-hasc="IE.WD" data-name="Waterford" data-postal="WD" data-varname="Port Lirge"/><path d="M347,148L347,148L347,147L347,146L347,145L347,145L347,144L347,143L348,142L349,142L349,142L350,142L351,142L352,142L352,142L352,140L352,140L352,140L352,139L352,138L351,136L351,136L349,136L348,136L347,136L345,134L345,133L345,131L345,130L345,128L346,127L347,125L346,122L345,121L343,120L342,120L341,121L340,121L339,121L337,120L336,118L335,117L335,116L335,115L334,113L333,113L332,112L333,112L333,111L333,109L332,107L332,106L331,105L330,105L329,103L326,100L325,99L323,98L322,99L320,100L317,105L315,107L313,107L314,108L313,109L312,110L313,111L314,112L314,113L316,115L315,116L316,118L314,119L311,120L310,121L310,123L310,124L309,124L309,125L309,127L307,128L307,127L307,126L307,124L306,125L305,126L306,129L306,129L307,130L310,131L311,131L312,131L313,131L317,132L318,132L319,131L320,131L321,131L321,131L323,131L325,131L325,131L325,131L324,132L324,132L324,132L325,133L330,138L331,139L332,139L333,140L333,140L335,144L335,145L336,146L337,147L341,149L342,149L343,149L344,150Z " data-fips="" data-hasc="" data-name="Monaghan" data-postal="MN" data-varname=""/></g></svg>