<?xml version="1.0" ?><!DOCTYPE svg  PUBLIC '-//W3C//DTD SVG 1.1//EN'  'http://www.w3.org/Graphics/SVG/1.1/DTD/svg11.dtd'><svg enable_background="new 0 0 500 401" height="401px" style="stroke-linejoin: round; stroke:#000; fill:#f6f3f0;" version="1.1" viewBox="0 0 500 401" width="500px" xmlns="http://www.w3.org/2000/svg" xmlns:xlink="http://www.w3.org/1999/xlink"><defs><style type="text/css"><![CDATA[path { fill-rule: evenodd; }
#context path { fill: #eee; stroke: #bbb; } ]]></style></defs><metadata><views><view h="401" padding="0" w="500"><proj id="laea" lat0="42.7" lon0="12.8"/><bbox h="143.06" w="107.86" x="946.07" y="945.87"/><llbbox lat0="-90" lat1="90" lon0="-180" lon1="180"/></view></views></metadata><g id="admin1"><path d="M233,113L234,112L234,110L235,109L236,109L237,108L238,108L240,108L241,107L242,107L242,109L242,109L244,110L244,111L245,110L245,111L246,112L247,111L248,110L249,109L249,108L249,107L248,107L247,106L246,105L244,103L243,102L242,101L242,100L241,99L240,99L239,98L239,96L238,94L238,93L237,89L237,88L237,85L237,84L237,83L236,82L237,80L237,78L238,77L239,78L240,79L239,78L238,77L238,76L237,75L237,74L236,74L234,74L233,73L233,73L230,72L228,72L227,72L225,73L224,73L224,74L222,75L221,75L220,74L218,74L215,73L213,73L212,73L211,74L210,73L208,73L206,74L204,74L203,74L200,73L200,72L199,71L198,72L197,73L196,74L194,74L193,74L192,73L191,71L190,71L187,70L185,69L184,69L183,68L183,67L182,66L180,67L179,66L179,67L177,68L176,67L176,68L174,68L173,67L173,66L172,66L171,66L170,67L169,67L168,67L167,69L165,72L165,73L165,74L166,75L166,77L165,79L165,80L164,81L163,81L162,81L162,83L162,83L163,84L164,84L166,84L167,84L168,85L169,85L169,86L169,87L168,88L167,90L168,90L169,90L170,90L171,90L173,92L173,92L174,92L175,91L176,90L178,88L179,88L180,89L181,90L181,91L183,93L184,93L186,94L187,96L187,96L188,96L190,96L191,97L193,98L193,99L194,100L195,101L196,101L197,100L199,100L201,102L202,102L203,103L204,103L205,102L206,101L206,102L207,103L211,102L212,102L211,100L213,100L214,99L215,99L216,98L217,99L218,100L220,100L221,101L220,102L222,102L223,102L224,102L223,104L223,105L222,106L222,107L222,108L223,109L224,111L225,111L226,112L227,112L229,113L229,114L233,114Z " data-fips="IT05" data-hasc="" data-name="Emilia-Romagna" data-postal="" data-varname="Emilia Romagna|Emilia|Emilia-Romaa|milie-Romagne"/><path d="M124,109L126,109L130,108L132,107L133,106L134,105L135,104L135,103L137,101L137,100L138,98L139,98L141,97L142,96L142,95L143,94L143,93L145,92L147,91L148,90L149,90L151,89L152,89L153,90L155,90L157,91L160,92L161,93L162,94L162,92L163,93L166,95L167,96L168,96L169,97L170,98L171,99L172,100L173,100L174,101L175,102L177,103L177,102L177,101L178,102L179,103L180,103L181,103L182,103L182,102L181,101L180,101L180,100L179,99L178,99L179,98L177,98L177,97L177,96L175,94L174,93L173,92L173,92L171,90L170,90L169,90L168,90L167,90L168,88L169,87L169,86L169,85L168,85L167,84L166,84L164,84L163,84L162,83L162,83L161,84L160,84L160,84L159,83L158,82L157,81L156,80L155,81L154,82L155,83L155,84L154,85L153,85L152,86L151,87L151,86L150,85L150,84L147,84L147,85L146,86L144,86L143,86L142,86L141,87L140,86L139,85L138,85L137,86L137,87L137,88L137,89L136,90L135,91L134,92L134,93L133,94L133,95L134,96L133,97L132,97L131,98L131,99L129,98L127,98L126,98L125,98L125,99L124,99L124,100L123,101L122,102L122,103L120,105L118,106L118,108L119,110L120,109L123,110Z " data-fips="IT12" data-hasc="" data-name="Liguria" data-postal="" data-varname="Lacio|Latium"/><path d="M134,276L134,274L134,273L133,272L131,271L131,272L131,273L131,274L132,276L133,277Z M130,271L130,270L130,269L129,269L128,270L129,271L130,272Z M139,279L141,278L142,279L143,279L144,280L145,279L149,276L149,275L149,274L149,273L149,271L150,270L151,268L150,268L150,267L151,268L152,269L153,270L154,269L155,269L157,269L158,270L159,271L159,271L161,272L162,272L162,273L163,272L164,271L164,270L164,268L164,268L166,266L165,265L165,264L165,263L166,261L166,259L167,256L166,255L167,253L167,252L167,251L167,249L168,248L168,247L168,246L169,244L168,244L168,243L169,240L169,239L168,238L167,237L167,235L167,233L167,232L168,231L169,230L170,229L171,228L172,226L172,225L172,224L171,222L170,222L170,219L170,217L169,216L168,215L169,214L169,213L168,212L167,211L168,211L167,211L165,211L165,210L166,210L166,209L167,208L169,208L167,207L166,208L165,207L166,205L166,204L165,203L164,203L163,204L163,205L163,203L162,202L162,201L161,201L160,201L159,201L158,199L158,199L157,199L156,200L156,201L155,202L154,203L152,203L151,204L150,205L149,206L148,207L147,209L145,210L144,210L142,211L141,212L139,213L137,213L136,212L132,211L131,209L131,208L130,207L130,209L131,210L131,211L129,216L130,217L129,219L128,219L128,220L129,221L129,220L130,220L130,221L132,220L133,221L133,223L134,224L134,225L135,226L134,229L136,230L137,231L136,232L136,234L136,236L137,237L136,238L135,239L133,240L134,241L134,242L134,243L134,244L135,245L136,244L137,245L138,246L138,247L137,248L137,249L138,249L137,249L136,251L137,252L136,251L135,249L135,251L135,253L135,255L135,256L134,258L133,259L133,260L133,261L132,263L133,264L134,266L132,267L132,268L133,269L134,270L134,271L134,272L135,272L136,273L137,274L137,275L138,277L138,278L138,279L139,280Z M132,206L133,204L134,204L134,203L134,202L133,203L133,204L132,205L131,205L131,206Z M164,200L164,199L163,200L164,201Z M163,200L163,200L163,199L162,199L162,200Z " data-fips="IT14" data-hasc="" data-name="Sardegna" data-postal="" data-varname="Cerdea|Sardenha"/><path d="M202,162L201,161L201,162L202,163Z M217,160L220,159L220,158L219,157L219,156L220,156L222,155L222,154L223,154L224,153L224,152L225,150L225,149L224,148L224,147L225,147L226,146L229,144L228,143L228,142L229,141L229,140L229,138L228,138L228,137L228,136L229,135L230,134L230,133L231,132L232,132L233,132L234,132L235,131L235,130L234,130L233,130L233,128L232,128L232,127L231,126L232,125L233,124L233,123L233,122L234,122L235,119L236,118L236,117L237,117L238,116L238,117L239,116L238,114L237,114L236,114L235,115L234,114L233,114L229,114L229,113L227,112L226,112L225,111L224,111L223,109L222,108L222,107L222,106L223,105L223,104L224,102L223,102L222,102L220,102L221,101L220,100L218,100L217,99L216,98L215,99L214,99L213,100L211,100L212,102L211,102L207,103L206,102L206,101L205,102L204,103L203,103L202,102L201,102L199,100L197,100L196,101L195,101L194,100L193,99L193,98L191,97L190,96L188,96L187,96L187,96L186,94L184,93L183,93L181,91L181,90L180,89L179,88L178,88L176,90L175,91L174,92L173,92L174,93L175,94L177,96L177,97L177,98L179,98L178,99L179,99L180,100L180,101L181,101L182,102L182,103L181,103L182,103L183,105L184,106L185,107L186,108L187,111L187,112L188,120L188,123L189,124L191,126L193,131L193,132L193,133L193,135L193,136L193,137L193,139L192,140L192,142L193,142L194,141L195,141L197,142L199,143L199,144L199,146L198,147L202,148L203,149L204,150L204,151L205,152L206,152L206,154L207,154L208,155L209,156L209,157L209,158L209,159L207,159L206,160L207,161L208,162L209,162L210,160L211,160L213,161L214,161L216,162Z M182,154L181,153L180,154L181,154Z M190,149L190,147L190,146L190,146L190,144L189,145L189,146L188,146L186,146L185,146L183,146L182,146L182,148L183,149L186,148L187,149L188,148L189,149L190,150Z M176,137L175,137L174,138L175,139Z " data-fips="IT16" data-hasc="" data-name="Toscana" data-postal="" data-varname="Tuscany|Toscane|Toskana"/><path d="M340,245L341,244L343,244L344,245L344,244L344,243L345,242L345,240L345,239L345,238L346,238L348,238L349,237L351,238L352,237L353,234L354,232L355,231L356,227L355,226L354,225L353,225L352,223L352,221L352,220L352,218L352,217L351,216L350,216L348,216L347,217L347,216L346,216L345,217L344,217L342,216L339,213L339,211L338,210L337,211L336,211L333,209L334,208L334,207L332,205L331,205L330,204L329,204L327,205L323,205L322,205L322,206L322,208L322,209L321,211L319,212L317,213L317,214L317,215L317,216L317,218L318,218L319,219L320,220L320,221L319,222L320,223L321,223L322,225L322,226L323,227L324,228L324,229L325,229L326,230L327,232L328,233L328,233L328,234L328,236L327,236L326,237L326,238L325,240L325,241L325,241L326,242L327,244L328,245L328,245L329,244L331,242L332,242L333,242L334,243L335,243L335,244L336,245L337,245Z " data-fips="IT02" data-hasc="" data-name="Basilicata" data-postal="" data-varname="Basilicate|Lucania"/><path d="M335,313L337,314L339,313L340,312L340,311L341,307L341,306L345,301L346,300L349,299L350,297L352,296L352,292L351,290L351,287L350,286L351,284L351,283L352,282L354,281L355,280L358,279L361,278L362,278L363,279L364,278L365,279L366,278L367,276L367,275L367,274L366,273L366,272L365,271L366,269L366,268L365,267L365,266L365,264L365,261L364,261L363,260L361,259L360,258L359,257L357,256L356,255L355,255L351,254L349,253L348,252L349,251L348,250L348,250L348,248L348,247L349,246L350,244L351,243L351,242L350,240L350,239L351,238L349,237L348,238L346,238L345,238L345,239L345,240L345,242L344,243L344,244L344,245L343,244L341,244L340,245L337,245L336,245L335,244L335,243L334,243L333,242L332,242L331,242L329,244L328,245L328,245L329,247L329,249L329,250L330,254L330,254L331,256L331,257L332,258L333,259L334,260L336,265L336,266L338,274L339,277L340,278L341,279L342,280L342,281L342,283L341,284L341,285L339,286L337,286L336,286L335,287L333,288L332,289L332,290L333,290L333,291L334,292L334,293L334,295L332,299L331,301L331,302L328,303L327,304L327,305L327,307L327,308L327,309L328,310L327,311L328,313L329,313L330,314Z " data-fips="IT03" data-hasc="" data-name="Calabria" data-postal="" data-varname="Calabre|Calabrie|Kalabrien"/><path d="M319,243L320,242L321,241L322,240L324,240L325,241L325,240L326,238L326,237L327,236L328,236L328,234L328,233L328,233L327,232L326,230L325,229L324,229L324,228L323,227L322,226L322,225L321,223L320,223L319,222L320,221L320,220L319,219L318,218L317,218L317,216L317,215L317,214L317,213L319,212L321,211L322,209L322,208L322,206L318,205L317,205L314,205L314,204L312,203L314,201L314,200L313,199L312,199L311,199L310,198L309,197L309,196L309,195L309,194L308,193L307,192L305,193L303,194L302,194L301,194L300,195L298,195L296,196L295,196L294,196L293,195L292,194L291,194L289,193L287,192L286,192L284,192L284,192L284,193L283,194L284,195L284,196L283,196L282,195L281,194L280,193L279,193L278,194L277,195L278,196L278,198L277,199L276,200L276,201L274,201L276,202L278,206L279,207L279,209L280,209L282,214L283,215L282,216L283,216L284,215L287,216L287,215L288,215L289,215L291,216L292,217L293,217L294,218L294,219L292,221L291,222L290,223L291,223L292,222L294,222L295,222L296,222L298,221L299,221L300,220L302,220L303,221L304,222L305,224L307,228L307,230L307,231L306,232L306,233L306,235L307,236L308,236L310,237L311,237L313,239L314,240L315,240L315,242L316,242L318,243Z M279,219L280,219L280,219L280,218L278,218L277,219L278,220Z " data-fips="IT04" data-hasc="" data-name="Campania" data-postal="" data-varname="Campanha|Campanie|Kampanien"/><path d="M298,195L300,195L301,194L302,194L303,194L305,193L307,192L305,190L305,189L305,188L306,187L307,187L308,187L309,186L309,185L310,184L309,184L309,183L309,182L309,181L309,179L310,178L310,177L309,176L307,175L306,174L305,174L303,173L302,173L301,172L300,172L300,173L300,174L297,176L297,177L296,178L295,180L294,182L292,182L292,181L292,180L290,179L289,179L289,178L288,178L286,180L285,180L284,181L285,182L285,183L284,184L282,184L282,185L281,186L279,186L280,186L280,187L281,188L281,190L281,191L280,192L280,193L281,194L282,195L283,196L284,196L284,195L283,194L284,193L284,192L284,192L286,192L287,192L289,193L291,194L292,194L293,195L294,196L295,196L296,196Z " data-fips="IT11" data-hasc="" data-name="Molise" data-postal="" data-varname="Molisa"/><path d="M398,245L398,243L398,242L398,241L398,240L398,238L400,237L400,236L400,235L400,234L398,230L396,227L395,227L394,225L393,225L392,223L389,222L387,221L387,219L386,217L385,218L384,216L382,216L379,214L376,213L374,213L373,212L372,212L370,210L368,209L367,208L366,207L364,206L360,204L356,203L354,202L348,200L347,200L346,199L345,198L340,196L336,194L335,194L333,193L332,192L330,191L330,190L330,188L330,187L330,186L333,185L334,184L335,183L335,182L336,181L337,181L337,179L337,178L336,177L335,176L333,175L326,176L322,176L318,177L317,177L314,177L310,177L310,178L309,179L309,181L309,182L309,183L309,184L310,184L309,185L309,186L308,187L307,187L306,187L305,188L305,189L305,190L307,192L308,193L309,194L309,195L309,196L309,197L310,198L311,199L312,199L313,199L314,200L314,201L312,203L314,204L314,205L317,205L318,205L322,206L322,205L323,205L327,205L329,204L330,204L331,205L332,205L334,207L334,208L333,209L336,211L337,211L338,210L339,211L339,213L342,216L344,217L345,217L346,216L347,216L347,217L348,216L350,216L351,216L352,217L352,218L352,220L352,221L352,223L353,225L354,225L355,226L356,227L358,226L359,224L361,223L363,223L364,224L365,224L367,224L368,224L368,225L366,225L366,226L365,226L366,227L368,228L370,229L371,229L372,229L374,230L383,230L384,232L385,233L385,234L386,235L387,236L387,237L386,238L388,239L387,240L390,243L391,244L392,245L393,245L395,245L396,246L397,246Z " data-fips="IT13" data-hasc="" data-name="Apulia" data-postal="" data-varname="Apulien|Pouilles|Pouille|Puglia|Puglie"/><path d="M314,358L315,357L314,355L313,354L314,352L315,348L316,348L317,347L318,346L320,345L319,344L319,343L318,342L317,342L317,340L316,340L315,339L316,338L317,338L317,337L316,336L315,336L313,335L313,334L313,330L313,329L313,328L315,327L315,325L315,324L316,323L316,321L316,320L316,319L318,317L318,316L320,312L323,309L324,307L325,304L325,303L327,302L326,302L325,301L323,301L322,302L321,303L320,304L318,304L317,305L316,303L315,305L314,306L313,307L312,307L311,307L310,307L309,306L308,306L306,306L304,307L302,307L301,308L301,309L300,309L296,311L294,311L293,311L292,312L290,312L287,311L285,312L284,311L283,311L281,312L280,312L279,313L277,313L274,313L272,312L271,311L270,310L269,309L266,309L266,308L265,306L264,305L263,305L262,306L261,307L260,306L258,306L258,307L257,308L257,309L257,310L256,311L254,312L253,312L252,311L251,310L250,309L249,307L248,306L248,308L247,309L246,309L246,310L245,311L243,311L243,312L242,313L242,314L241,316L241,317L241,318L241,319L240,320L241,321L241,322L242,324L242,324L244,324L244,325L246,328L247,328L249,327L252,327L255,328L255,329L256,330L257,330L260,330L261,331L262,332L264,334L265,334L266,335L267,336L268,337L269,337L270,337L272,338L274,340L275,341L276,341L277,342L278,342L280,343L281,344L282,343L285,343L286,343L289,344L291,345L293,348L294,349L297,354L300,354L301,355L302,356L304,356L305,357L308,356L309,356L310,357L311,357L312,357L313,358Z M229,355L229,354L227,353L227,352L226,353L226,354L227,355L229,356Z M238,315L237,315L237,315L236,315L237,315Z M309,298L308,298L308,299L309,299Z M309,295L308,294L307,294L307,295L307,296L308,296Z M305,292L304,292L305,293L306,293Z M315,285L315,284L314,285L315,285Z " data-fips="IT15" data-hasc="" data-name="Sicily" data-postal="" data-varname="Sicilia"/><path d="M282,185L282,184L284,184L285,183L285,182L284,181L285,180L286,180L288,178L289,178L289,179L290,179L292,180L292,181L292,182L294,182L295,180L296,178L297,177L297,176L300,174L300,173L300,172L300,172L299,170L299,169L298,168L297,168L296,167L295,167L291,164L290,162L290,161L288,160L286,159L282,153L280,151L280,150L279,147L278,144L277,144L276,144L274,145L273,145L273,146L272,147L270,147L269,147L268,148L268,149L267,150L266,150L265,151L264,151L264,152L264,153L265,153L264,155L263,155L262,155L261,155L260,155L259,156L259,157L259,158L259,159L258,160L259,161L260,162L259,163L261,164L261,166L262,166L263,167L263,168L264,169L263,170L262,170L261,171L260,170L259,170L257,170L256,171L255,172L256,173L256,174L258,174L263,177L264,178L265,179L264,179L264,181L266,181L268,182L269,183L270,183L271,182L272,182L274,183L275,184L276,183L277,184L278,184L279,186L281,186Z " data-fips="IT01" data-hasc="" data-name="Abruzzo" data-postal="" data-varname="Abruzos|Abruzzen|Abruzzes|Abruzzi"/><path d="M270,202L271,201L272,201L274,201L274,201L276,201L276,200L277,199L278,198L278,196L277,195L278,194L279,193L280,193L280,192L281,191L281,190L281,188L280,187L280,186L279,186L278,184L277,184L276,183L275,184L274,183L272,182L271,182L270,183L269,183L268,182L266,181L264,181L264,179L265,179L264,178L263,177L258,174L256,174L256,173L255,172L256,171L257,170L259,170L260,170L261,171L262,170L263,170L264,169L263,168L263,167L262,166L261,166L261,164L259,163L260,162L259,161L258,160L259,159L259,158L259,157L259,156L260,155L261,155L262,155L263,155L264,155L265,153L264,153L264,152L264,151L263,150L262,150L261,150L260,151L259,152L259,153L258,153L257,154L256,153L255,154L252,155L252,156L250,157L249,158L248,159L247,160L246,160L245,160L245,161L244,162L243,162L242,162L241,162L241,161L240,160L240,159L238,158L237,158L237,157L236,156L236,154L236,153L235,152L234,152L233,152L231,152L230,153L230,152L229,151L228,150L229,150L229,149L228,148L226,146L225,147L224,147L224,148L225,149L225,150L224,152L224,153L223,154L222,154L222,155L220,156L219,156L219,157L220,158L220,159L217,160L216,162L217,162L218,163L221,165L222,166L223,169L223,170L224,172L225,173L225,174L227,174L228,174L229,175L230,175L231,176L233,178L234,179L234,180L235,182L235,183L236,184L237,185L238,185L241,188L243,191L246,194L247,194L249,195L251,195L252,196L253,196L255,199L255,200L256,201L256,202L258,202L258,201L259,201L260,200L263,199L264,199L268,202L269,202Z " data-fips="IT07" data-hasc="" data-name="Lazio" data-postal="" data-varname="Lacio|Latium"/><path d="M265,151L266,150L267,150L268,149L268,148L269,147L270,147L272,147L273,146L273,145L274,145L276,144L277,144L278,144L277,140L276,137L276,136L275,134L275,132L274,131L270,122L270,121L269,121L269,119L267,119L266,119L264,118L261,116L253,109L252,108L250,107L249,107L249,108L249,109L248,110L247,111L246,112L245,111L245,110L244,111L244,110L242,109L242,109L242,109L241,110L240,109L240,108L238,108L237,108L236,109L235,109L234,110L234,112L233,113L233,114L234,114L235,115L236,114L237,114L238,114L239,116L238,117L238,116L237,117L236,117L236,118L235,119L235,120L237,120L238,120L239,120L239,121L238,122L240,123L241,122L243,123L246,125L247,126L248,125L249,125L249,127L249,128L250,130L250,131L251,134L251,135L251,136L252,137L252,138L252,139L252,141L253,142L253,143L254,144L254,145L255,143L256,143L257,144L258,145L259,146L259,147L261,147L262,148L261,149L261,150L262,150L263,150L264,151Z " data-fips="IT10" data-hasc="" data-name="Marche" data-postal="" data-varname="Marches|Marca"/><path d="M244,162L245,161L245,160L246,160L247,160L248,159L249,158L250,157L252,156L252,155L255,154L256,153L257,154L258,153L259,153L259,152L260,151L261,149L262,148L261,147L259,147L259,146L258,145L257,144L256,143L255,143L254,145L254,144L253,143L253,142L252,141L252,139L252,138L252,137L251,136L251,135L251,134L250,131L250,130L249,128L249,127L249,125L248,125L247,126L246,125L243,123L241,122L240,123L238,122L239,121L239,120L238,120L237,120L235,120L235,119L234,122L233,122L233,123L233,124L232,125L231,126L232,127L232,128L233,128L233,130L234,130L235,130L235,131L234,132L233,132L232,132L231,132L230,133L230,134L229,135L228,136L228,137L228,138L229,138L229,140L229,141L228,142L228,143L229,144L228,148L229,149L229,150L228,150L229,151L230,152L230,153L231,152L233,152L234,152L235,152L236,153L236,154L236,156L237,157L237,158L238,158L240,159L240,160L241,161L241,162L242,162L243,162Z " data-fips="IT18" data-hasc="" data-name="Umbria" data-postal="" data-varname="Ombrie|Umbrien"/><path d="M125,99L125,98L126,98L127,98L129,98L131,99L131,98L132,97L133,97L134,96L133,95L133,94L134,93L134,92L135,91L136,90L137,89L137,88L137,87L137,86L138,85L139,85L140,86L141,87L142,86L143,86L144,86L146,86L147,85L147,84L150,84L150,85L151,86L151,87L152,86L153,85L154,85L155,84L155,83L154,82L155,81L156,80L157,81L158,82L159,83L160,84L160,84L161,84L162,83L162,81L162,79L161,77L160,76L159,76L158,75L159,74L157,73L157,71L156,70L155,70L155,69L155,68L154,68L152,68L151,69L150,68L149,67L148,66L147,64L147,63L147,62L147,61L146,60L146,59L147,58L148,57L149,58L150,59L151,59L151,58L152,57L153,56L154,55L153,53L152,52L152,51L151,50L151,48L151,47L151,46L150,46L150,44L149,44L149,43L149,41L149,40L149,39L149,38L153,34L153,33L153,31L153,31L152,32L150,31L148,28L147,27L146,26L146,24L147,22L147,20L145,19L144,20L143,21L143,22L142,22L140,24L138,24L138,25L138,26L139,28L139,29L138,30L137,31L136,31L136,32L136,33L135,34L132,35L132,36L132,36L131,37L132,40L132,41L132,43L133,44L132,45L132,46L132,48L129,48L128,49L126,48L124,48L123,48L122,48L121,49L120,50L115,51L114,50L113,50L112,51L112,51L113,52L114,53L114,54L113,55L112,56L112,58L112,59L110,59L109,59L108,60L107,61L106,62L105,62L104,61L103,61L101,62L100,62L100,63L100,64L101,65L102,65L102,67L103,70L103,70L105,72L107,72L108,72L109,73L109,75L109,76L109,78L108,77L107,78L106,80L105,81L104,83L104,84L104,85L106,86L105,87L104,89L105,90L106,91L106,92L107,93L108,93L110,94L111,94L113,96L114,97L115,97L116,98L121,97L123,96L123,98L124,99Z " data-fips="IT12" data-hasc="" data-name="Piemonte" data-postal="" data-varname="Piemont|Pimont|Piemonte|Piedmont"/><path d="M113,50L114,50L115,51L120,50L121,49L122,48L123,48L124,48L126,48L128,49L129,48L132,48L132,46L132,45L133,44L132,43L132,41L132,40L131,37L132,36L132,36L131,37L130,37L128,36L128,36L127,35L124,34L123,35L122,35L120,36L118,36L117,36L116,37L114,37L113,36L111,35L111,36L110,37L109,38L107,38L106,38L106,39L106,40L106,43L108,43L109,44L110,45L109,46L110,47L110,49L111,50L112,51Z " data-fips="IT19" data-hasc="" data-name="Valle d'Aosta" data-postal="" data-varname="Aosta Valley|Val d'Aoste|Valle d'Aoste"/><path d="M163,81L164,81L165,80L165,79L166,77L166,75L165,74L165,73L165,72L167,69L168,67L169,67L170,67L171,66L172,66L173,66L173,67L174,68L176,68L176,67L177,68L179,67L179,66L180,67L182,66L183,67L183,68L184,69L185,69L187,70L190,71L191,71L192,73L193,74L194,74L196,74L197,73L198,72L199,71L200,72L200,73L203,74L204,74L206,74L208,73L210,73L211,74L212,73L213,73L215,73L216,72L214,71L213,69L211,69L211,68L210,68L208,68L207,67L207,66L206,66L206,65L205,64L202,62L201,61L200,60L199,60L199,58L199,57L198,56L198,55L198,54L198,52L198,50L201,46L202,45L202,44L203,43L202,42L200,42L199,42L199,43L198,43L197,44L196,43L195,42L195,41L195,40L195,39L195,38L194,37L194,36L195,35L196,34L197,33L197,31L197,30L197,28L197,27L197,26L196,25L197,24L198,24L199,23L198,21L196,20L195,20L195,19L194,18L194,18L192,18L191,18L190,17L189,16L189,15L188,15L186,16L185,17L184,18L184,20L184,21L185,22L187,23L186,23L186,25L186,26L187,27L186,28L184,29L184,27L183,26L183,25L183,24L181,23L180,24L178,24L177,24L176,25L176,26L172,26L172,25L171,23L170,22L170,19L169,20L168,18L167,19L166,20L166,21L166,23L166,24L166,25L165,26L165,28L164,28L163,30L162,31L161,32L161,33L160,34L159,34L160,36L159,37L159,38L160,38L160,39L160,41L158,41L156,41L157,40L157,39L156,38L156,37L154,35L154,34L155,33L154,32L153,31L153,33L153,34L149,38L149,39L149,40L149,41L149,43L149,44L150,44L150,46L151,46L151,47L151,48L151,50L152,51L152,52L153,53L154,55L153,56L152,57L151,58L151,59L150,59L149,58L148,57L147,58L146,59L146,60L147,61L147,62L147,63L147,64L148,66L149,67L150,68L151,69L152,68L154,68L155,68L155,69L155,70L156,70L157,71L157,73L159,74L158,75L159,76L160,76L161,77L162,79L162,81Z " data-fips="IT09" data-hasc="" data-name="Lombardia" data-postal="" data-varname="Lombardy|Lombardei|Lombardie"/><path d="M276,51L276,50L275,49L274,46L272,45L271,44L269,44L268,43L268,42L269,40L270,38L268,38L267,38L266,37L267,36L267,35L269,33L270,32L269,31L268,31L267,30L266,30L264,30L264,29L263,27L265,26L265,25L266,25L268,23L269,22L270,22L271,21L271,19L268,19L266,18L265,18L264,18L260,18L260,18L258,17L256,17L251,16L249,15L249,15L249,18L249,19L247,20L246,20L246,21L245,21L243,22L243,24L242,25L241,26L240,27L239,28L239,29L240,30L242,30L242,31L243,32L243,33L242,34L241,35L241,36L241,37L242,39L243,40L244,41L244,43L246,43L247,44L248,44L249,43L250,43L251,43L252,43L252,43L254,44L254,43L255,44L255,45L256,46L256,47L257,49L257,49L258,48L257,48L257,47L258,46L258,45L259,45L260,45L261,46L264,47L265,48L264,48L265,48L266,47L267,47L268,46L267,46L269,45L270,45L273,48L273,49L274,50L274,51L273,51L272,51L273,51L274,52Z " data-fips="IT06" data-hasc="" data-name="Friuli-Venezia Giulia" data-postal="" data-varname="Friuli Venezia Giulia|Friuli-Venecia Julia"/><path d="M206,47L207,47L208,47L210,47L211,45L212,44L213,41L214,40L215,39L215,40L216,39L216,38L217,38L219,37L221,37L221,38L222,38L223,38L223,36L224,35L224,34L225,34L226,34L227,33L229,32L229,31L230,30L229,30L229,29L228,28L227,28L227,26L226,25L227,24L228,23L228,22L228,21L227,21L228,20L232,19L232,18L233,17L233,15L233,14L235,16L236,17L237,16L238,16L239,16L240,15L241,15L242,14L242,14L241,14L240,13L239,12L238,11L237,10L238,9L237,7L236,7L235,6L234,6L234,5L234,4L234,3L236,1L235,0L235,0L234,0L232,2L230,2L229,2L228,2L227,3L226,3L225,4L223,3L222,3L220,3L219,3L218,3L217,4L215,3L213,3L211,4L210,6L209,7L209,8L208,9L208,10L207,10L206,10L204,11L203,10L202,10L201,9L201,8L199,7L196,8L195,7L195,8L194,9L194,10L193,11L193,12L193,13L193,15L195,15L195,17L194,18L195,19L195,20L196,20L198,21L199,23L198,24L197,24L196,25L197,26L197,27L197,28L197,30L197,31L197,33L196,34L195,35L194,36L194,37L195,38L195,39L195,40L195,41L195,42L196,43L197,44L198,43L199,43L199,42L200,42L202,42L203,43L204,44L204,45L204,46L204,47L205,48Z " data-fips="IT17" data-hasc="" data-name="Trentino-Alto Adige" data-postal="" data-varname="Trentino - Alto Adige|Trentino-Alto Adigio|Trentino-South Tirol|Venezia Tridentina"/><path d="M241,79L241,77L240,76L241,76L241,77L241,78L242,77L243,76L243,74L244,73L243,72L242,72L241,71L241,70L240,70L240,70L240,71L239,70L239,69L238,69L238,67L239,68L238,67L238,66L238,65L238,64L237,65L236,65L236,64L236,63L235,61L235,63L235,62L235,61L236,61L236,60L237,59L237,58L237,57L237,56L238,55L239,54L240,54L242,54L242,53L243,53L245,53L244,54L242,54L242,55L241,56L241,57L242,56L243,56L245,55L250,53L254,50L257,49L256,47L256,46L255,45L255,44L254,43L254,44L252,43L252,43L251,43L250,43L249,43L248,44L247,44L246,43L244,43L244,41L243,40L242,39L241,37L241,36L241,35L242,34L243,33L243,32L242,31L242,30L240,30L239,29L239,28L240,27L241,26L242,25L243,24L243,22L245,21L246,21L246,20L247,20L249,19L249,18L249,15L249,15L248,15L247,15L246,15L244,15L244,15L242,14L241,15L240,15L239,16L238,16L237,16L236,17L235,16L233,14L233,15L233,17L232,18L232,19L228,20L227,21L228,21L228,22L228,23L227,24L226,25L227,26L227,28L228,28L229,29L229,30L230,30L229,31L229,32L227,33L226,34L225,34L224,34L224,35L223,36L223,38L222,38L221,38L221,37L219,37L217,38L216,38L216,39L215,40L215,39L214,40L213,41L212,44L211,45L210,47L208,47L207,47L206,47L205,48L204,47L204,46L204,45L204,44L203,43L202,44L202,45L201,46L198,50L198,52L198,54L198,55L198,56L199,57L199,58L199,60L200,60L201,61L202,62L205,64L206,65L206,66L207,66L207,67L208,68L210,68L211,68L211,69L213,69L214,71L216,72L218,74L220,74L221,75L222,75L224,74L224,73L225,73L227,72L228,72L230,72L233,73L233,73L234,74L236,74L237,74L237,75L238,76L238,77L239,78L240,79Z M240,57L241,57L240,57L239,58Z " data-fips="IT20" data-hasc="" data-name="Veneto" data-postal="" data-varname="Venecia|Venetia|Venezia Euganea"/></g></svg>