<?xml version="1.0" ?><!DOCTYPE svg  PUBLIC '-//W3C//DTD SVG 1.1//EN'  'http://www.w3.org/Graphics/SVG/1.1/DTD/svg11.dtd'><svg enable_background="new 0 0 500 401" height="401px" style="stroke-linejoin: round; stroke:#000; fill:#f6f3f0;" version="1.1" viewBox="0 0 500 401" width="500px" xmlns="http://www.w3.org/2000/svg" xmlns:xlink="http://www.w3.org/1999/xlink"><defs><style type="text/css"><![CDATA[path { fill-rule: evenodd; }
#context path { fill: #eee; stroke: #bbb; } ]]></style></defs><metadata><views><view h="401" padding="0" w="500"><proj id="laea" lat0="56.858" lon0="25.641"/><bbox h="29.68" w="49.65" x="968.0" y="984.97"/><llbbox lat0="-90" lat1="90" lon0="-180" lon1="180"/></view></views></metadata><g id="admin1"><path d="M77,238L76,236L74,234L74,233L77,232L80,231L82,230L81,228L81,227L81,226L81,224L81,221L81,218L81,217L82,216L85,215L85,214L86,213L86,212L87,211L87,209L86,207L86,203L89,203L90,202L92,200L93,199L96,198L98,197L98,195L97,193L96,193L95,193L93,192L93,191L95,189L96,188L98,189L98,190L99,191L102,193L104,192L105,191L106,189L106,186L108,181L108,177L104,177L102,176L101,174L101,173L101,171L101,169L100,165L99,163L97,162L95,160L94,159L93,157L90,157L90,158L90,159L90,162L88,163L83,165L82,165L78,163L76,164L73,165L72,165L67,164L66,165L65,166L62,166L62,165L62,164L61,163L57,162L56,162L54,162L53,162L51,163L49,165L48,165L45,167L43,166L43,168L42,169L41,172L40,174L40,177L40,179L39,180L38,181L34,183L35,184L38,186L41,187L40,189L39,190L37,191L41,192L43,195L45,195L47,195L48,196L48,198L49,199L49,201L51,202L53,202L57,206L58,208L58,210L58,211L59,212L59,214L60,215L62,215L61,218L61,219L62,220L61,221L61,223L60,223L58,225L59,226L59,228L59,229L59,232L60,234L60,235L61,236L63,236L64,236L66,236L66,237L67,238L70,237L70,238L73,238L75,239Z " data-fips="LG12" data-hasc="K" data-name="Kurzeme" data-postal="K" data-varname=""/><path d="M7,288L11,288L14,288L15,285L16,282L17,278L19,275L22,273L24,271L27,270L30,270L31,270L41,263L44,262L50,262L71,253L71,253L68,249L70,248L71,248L72,246L69,243L70,242L70,240L70,238L70,237L67,238L66,237L66,236L64,236L63,236L61,236L60,235L60,234L59,232L59,229L59,228L59,226L58,225L60,223L61,223L61,221L62,220L61,219L61,218L62,215L60,215L59,214L59,212L58,211L58,210L58,208L57,206L53,202L51,202L49,201L49,199L48,198L48,196L47,195L45,195L43,195L41,192L37,191L39,190L40,189L41,187L38,186L35,184L34,183L34,180L33,179L30,178L27,180L27,181L24,184L23,186L18,188L17,189L12,192L11,195L11,197L11,199L11,201L10,212L9,216L6,223L5,228L4,229L4,230L5,232L6,232L8,233L8,235L8,236L9,239L9,241L8,243L8,245L9,248L8,249L7,249L6,247L7,244L7,243L6,242L7,240L6,239L6,235L6,234L5,233L4,234L4,236L5,238L4,239L4,242L4,243L3,244L3,245L2,247L1,249L1,251L1,254L1,259L1,260L1,261L1,262L0,266L0,268L1,271L3,279L4,283L4,288Z " data-fips="LG13" data-hasc="LV.LP" data-name="Liepaja" data-postal="LP" data-varname="Libau"/><path d="M39,180L40,179L40,177L40,174L41,172L42,169L43,168L43,166L45,167L48,165L49,165L51,163L53,162L54,162L56,162L57,162L61,163L62,164L62,165L62,166L65,166L66,165L67,164L72,165L73,165L76,164L78,163L82,165L83,165L88,163L90,162L90,159L90,158L90,157L91,154L90,153L90,152L93,148L96,145L98,144L99,142L98,138L97,137L97,135L97,130L95,128L91,128L89,128L84,125L88,123L90,122L91,121L91,119L92,119L93,118L97,115L98,114L98,109L97,108L96,107L96,105L96,104L95,101L94,100L93,96L80,103L77,103L65,104L62,105L60,107L51,121L46,127L43,134L42,135L41,135L40,137L39,139L38,141L38,144L38,152L38,153L37,155L37,156L37,159L37,161L37,166L36,170L34,174L33,176L30,178L33,179L34,180L38,181Z " data-fips="LG26" data-hasc="LV.VN" data-name="Ventspils" data-postal="VN" data-varname="Windau"/><path d="M438,207L438,205L440,204L441,204L442,203L443,201L444,201L450,200L451,199L453,198L453,199L454,200L455,200L456,201L458,201L457,201L459,197L462,189L463,187L463,185L463,183L463,182L464,180L465,178L465,176L464,173L463,172L461,171L460,169L461,167L467,164L469,162L470,159L470,155L470,148L470,145L469,143L468,142L461,138L460,137L460,137L459,141L459,142L457,143L454,145L453,147L452,148L451,150L448,150L447,149L446,148L445,148L441,150L437,147L435,148L432,152L430,152L429,152L429,153L427,153L426,154L423,158L420,162L418,163L414,170L413,171L411,175L409,177L408,178L405,181L406,183L405,185L406,186L408,186L409,187L409,188L408,189L408,191L409,191L411,193L412,194L413,196L414,198L413,200L411,203L410,204L412,207L414,207L416,207L417,208L419,207L421,206L424,207L426,206L427,208L438,209Z " data-fips="LG03" data-hasc="LV.BL" data-name="Balvi" data-postal="BL" data-varname=""/><path d="M437,333L440,329L442,328L443,330L446,331L448,331L457,332L459,332L459,330L460,327L460,321L462,316L469,311L471,307L471,304L473,301L478,298L478,296L479,294L480,293L481,291L484,291L487,289L489,288L489,288L489,286L490,282L491,281L490,280L489,279L488,278L487,279L485,280L479,283L478,282L474,283L473,283L472,281L470,281L468,281L466,280L465,279L464,278L462,276L461,275L455,276L454,276L454,275L453,274L452,275L451,276L450,277L448,277L447,279L447,280L445,281L440,280L437,281L428,281L427,281L425,283L423,284L423,285L424,287L425,289L425,290L425,292L426,295L425,295L422,296L421,296L419,297L414,300L413,302L414,304L414,306L412,307L413,312L414,313L413,314L412,316L414,316L413,318L413,319L412,321L412,323L416,324L416,325L416,327L416,329L416,329L425,327L428,328L429,328L434,332L436,333Z " data-fips="LG11" data-hasc="LV.KR" data-name="Kraslava" data-postal="KR" data-varname=""/><path d="M490,287L493,285L496,287L497,285L498,282L498,279L499,276L500,274L500,273L500,271L500,270L497,261L496,259L496,256L496,252L496,250L495,249L491,245L491,244L490,243L491,241L492,239L493,238L492,237L491,236L486,233L484,232L483,230L483,228L483,222L482,220L475,215L474,213L474,211L475,210L476,208L477,205L477,204L475,202L472,199L471,198L468,197L465,198L460,202L458,201L456,201L455,200L454,200L453,199L453,198L451,199L450,200L444,201L443,201L442,203L441,204L440,204L438,205L438,207L438,209L431,213L433,218L435,221L438,223L439,223L444,220L447,220L448,220L448,222L447,223L448,225L449,225L451,225L452,226L453,227L455,229L454,232L454,235L455,237L454,239L453,240L451,241L450,241L449,242L449,243L449,244L450,246L450,247L451,249L453,247L454,249L455,251L456,252L456,253L457,254L458,254L459,256L459,257L460,259L462,260L463,261L463,263L463,265L464,266L465,267L465,269L463,272L463,273L464,274L463,275L462,276L464,278L465,279L466,280L468,281L470,281L472,281L473,283L474,283L478,282L479,283L485,280L487,279L488,278L489,279L490,280L491,281L490,282L489,286L489,288L489,288Z " data-fips="LG15" data-hasc="LV.LU" data-name="Ludza" data-postal="LU" data-varname="Ludsen"/><path d="M423,285L423,284L425,283L427,281L428,281L437,281L440,280L445,281L447,280L447,279L448,277L450,277L451,276L452,275L453,274L454,275L454,276L455,276L461,275L462,276L463,275L464,274L463,273L463,272L465,269L465,267L464,266L463,265L463,263L463,261L462,260L460,259L459,257L459,256L458,254L457,254L456,253L456,252L455,251L454,249L453,247L451,249L450,247L450,246L449,244L449,243L449,242L450,241L451,241L453,240L454,239L455,237L454,235L454,232L455,229L453,227L452,226L451,225L449,225L448,225L447,223L448,222L448,220L447,220L444,220L439,223L438,223L435,221L433,218L431,213L427,208L426,206L424,207L421,206L419,207L417,208L416,207L414,207L412,207L410,204L408,206L400,220L399,223L400,226L400,227L400,229L401,231L401,232L398,233L397,234L397,236L398,238L400,238L403,240L404,242L400,244L402,244L402,245L404,246L406,246L406,247L409,248L412,248L412,250L411,251L410,252L410,253L409,254L409,256L412,261L414,263L415,266L414,267L412,268L412,270L413,272L415,274L415,276L416,277L416,278L417,279L418,280L419,281L419,282L419,285L420,286L422,286Z " data-fips="LG19" data-hasc="L" data-name="Latgale" data-postal="L" data-varname=""/><path d="M119,260L128,256L131,255L128,254L126,252L125,252L122,251L123,249L124,247L123,245L121,242L116,241L114,240L114,239L115,237L118,234L119,233L123,234L125,234L126,233L128,233L127,232L126,230L126,229L128,229L130,228L131,227L132,226L132,224L131,222L130,221L129,220L128,218L130,216L130,215L130,213L130,208L128,204L123,204L121,203L118,203L119,202L118,201L115,199L111,199L108,197L109,196L110,195L111,193L111,191L111,190L110,189L109,189L106,189L105,191L104,192L102,193L99,191L98,190L98,189L96,188L95,189L93,191L93,192L95,193L96,193L97,193L98,195L98,197L96,198L93,199L92,200L90,202L89,203L86,203L86,207L87,209L87,211L86,212L86,213L85,214L85,215L82,216L81,217L81,218L81,221L81,224L81,226L81,227L81,228L82,230L80,231L77,232L74,233L74,234L76,236L77,238L75,239L73,238L70,238L70,240L70,242L69,243L72,246L71,248L70,248L68,249L71,253L71,253L79,250L82,250L83,251L85,253L87,254L107,254L111,255L113,256L116,260L117,260Z " data-fips="LG21" data-hasc="LV.SA" data-name="Saldus" data-postal="SA" data-varname=""/><path d="M427,153L429,153L429,152L430,152L432,152L435,148L437,147L441,150L445,148L446,148L447,149L448,150L451,150L452,148L453,147L454,145L457,143L459,142L459,141L460,137L460,137L456,133L449,130L447,129L448,126L448,124L448,121L448,116L436,117L434,118L424,115L419,114L417,114L416,112L413,108L411,107L409,106L408,106L407,107L406,107L405,106L404,105L403,106L402,107L401,109L401,111L399,112L398,112L393,112L391,113L388,114L386,117L386,119L384,119L382,118L381,118L381,119L380,119L378,118L376,115L375,114L370,111L370,111L370,113L370,114L369,115L369,116L369,117L370,119L370,120L367,122L367,125L368,125L367,127L366,129L367,129L368,130L367,132L367,134L366,135L367,137L365,138L365,142L370,143L375,142L375,140L373,141L373,139L375,139L376,138L378,137L379,135L378,133L382,133L383,134L384,134L386,135L388,138L389,140L392,142L392,143L394,145L397,143L399,144L403,144L404,146L407,145L413,145L415,147L418,149L418,150L417,151L417,152L426,154Z " data-fips="LG02" data-hasc="LV.AL" data-name="Aluksne" data-postal="AL" data-varname=""/><path d="M351,150L353,149L355,149L364,148L364,146L365,145L365,143L365,142L365,138L367,137L366,135L367,134L367,132L368,130L367,129L366,129L367,127L368,125L367,125L367,122L370,120L370,119L369,117L369,116L369,115L370,114L370,113L370,111L370,111L369,111L366,109L364,106L357,96L355,94L348,87L347,86L347,83L347,82L348,81L347,80L346,79L332,77L331,76L330,73L329,71L328,69L326,69L326,69L325,73L325,75L325,77L319,74L318,74L317,74L315,75L314,76L313,76L313,77L314,79L315,81L316,82L317,82L317,83L316,85L317,87L316,87L315,88L315,89L316,90L316,91L317,92L317,93L316,95L314,96L313,97L313,99L314,100L315,102L314,103L315,106L319,107L319,110L320,111L322,112L323,112L324,113L323,116L323,117L322,118L321,119L321,121L322,122L325,124L325,125L324,128L327,134L327,136L328,139L330,142L329,143L329,145L328,147L329,148L330,149L339,148L340,148L346,148L347,148L348,149L349,149L350,151Z " data-fips="LG24" data-hasc="EE.VG" data-name="Valga" data-postal="VG" data-varname="Valgamaa|Valga maakond"/><path d="M303,287L304,286L306,285L305,283L306,279L304,276L303,276L301,274L299,272L300,271L300,270L302,269L304,267L303,266L299,267L299,266L299,265L299,263L299,261L298,257L299,256L301,256L305,257L310,257L311,256L313,254L314,253L316,253L317,252L318,251L319,250L318,247L317,246L317,245L318,241L319,239L320,238L319,237L318,237L317,237L318,236L320,236L323,234L326,233L327,233L329,231L330,232L332,232L335,232L339,231L342,227L341,225L342,225L342,223L340,221L335,220L335,216L335,215L336,214L337,212L336,210L335,209L334,208L333,207L332,206L331,205L329,205L330,207L329,209L328,211L326,212L324,210L322,210L320,208L317,208L308,212L304,214L303,213L303,214L301,214L299,214L297,215L296,217L299,218L299,219L298,221L293,220L292,221L289,219L285,216L281,218L281,219L282,220L282,221L281,222L280,222L280,223L280,224L279,228L280,229L280,231L280,232L282,232L282,233L281,235L276,236L260,240L253,241L254,242L254,246L254,247L255,249L259,252L259,253L258,255L256,256L257,258L259,260L265,257L268,257L268,256L268,255L268,254L269,253L271,253L272,255L274,261L275,268L276,270L277,272L279,274L280,275L281,280L283,283L285,285L302,288Z " data-fips="LG01" data-hasc="Z" data-name="Zemgale" data-postal="Z" data-varname=""/><path d="M242,274L246,272L248,270L253,263L256,261L259,260L257,258L256,256L258,255L259,253L259,252L255,249L254,247L254,246L254,242L253,241L255,238L257,237L257,235L256,235L255,234L255,233L253,233L252,232L251,230L251,228L250,225L254,223L251,220L248,220L246,219L243,220L241,222L239,224L236,224L236,225L233,225L230,223L229,222L228,221L227,220L224,221L223,221L222,223L220,224L218,223L216,222L213,221L213,225L211,225L213,228L214,229L214,230L213,231L212,232L213,233L214,234L216,235L217,235L217,237L216,238L215,240L215,241L212,244L209,244L207,245L206,246L205,247L204,248L201,249L200,251L199,252L199,253L199,254L199,255L198,257L198,258L201,259L200,261L200,264L200,265L208,268L214,273L216,274L219,275L220,275L229,270L231,270L233,271L238,274L240,275Z " data-fips="LG04" data-hasc="LV.BU" data-name="Bauska" data-postal="BU" data-varname=""/><path d="M296,192L296,191L297,190L297,189L298,188L301,187L302,187L303,188L304,190L304,191L306,192L308,190L310,188L309,186L309,185L311,185L312,184L314,184L317,186L318,186L320,186L322,185L322,186L322,187L321,188L326,186L327,185L328,184L330,185L332,186L333,186L335,186L335,186L336,187L337,188L339,188L341,186L341,184L341,183L340,182L339,180L340,179L340,178L340,176L340,175L341,172L343,171L348,174L349,174L350,174L351,173L353,173L356,172L356,170L358,167L358,166L355,162L353,159L352,158L351,157L347,156L347,153L347,153L350,152L350,151L349,149L348,149L347,148L346,148L340,148L339,148L330,149L329,148L328,147L329,145L329,143L330,142L328,139L327,136L327,134L324,128L320,126L317,128L316,129L314,129L313,128L311,129L308,128L306,130L306,131L306,133L306,134L305,136L303,135L302,134L301,133L300,134L298,133L295,132L293,132L293,131L292,130L290,128L289,126L289,125L288,122L286,123L285,121L283,122L282,124L280,124L280,125L279,126L278,127L272,131L271,132L269,132L267,131L266,132L268,134L270,137L271,140L271,142L273,143L273,144L272,145L274,148L275,149L275,150L275,151L275,153L274,154L272,156L275,158L277,161L277,162L278,164L278,166L278,168L277,172L278,174L278,176L280,177L282,179L282,180L283,181L286,182L287,183L289,185L288,186L288,190L295,192Z " data-fips="LG05" data-hasc="LV.CE" data-name="Vidzeme" data-postal="CE" data-varname="Wenden"/><path d="M391,346L392,345L394,346L398,347L399,347L405,344L406,342L410,335L414,330L416,329L416,327L416,325L416,324L412,323L412,321L413,319L413,318L414,316L412,316L413,314L414,313L413,312L412,307L414,306L414,304L413,302L414,300L412,300L409,294L409,291L408,292L406,292L404,291L403,292L401,293L399,294L397,294L396,293L395,292L392,291L390,292L389,291L387,289L386,288L385,290L385,291L382,291L381,287L379,285L376,285L373,283L370,284L368,285L370,288L370,289L371,291L371,294L371,296L369,293L369,291L369,290L368,289L367,288L365,288L364,287L362,287L361,288L357,292L358,293L358,294L356,296L355,295L354,297L353,298L351,300L350,299L349,298L348,297L346,299L343,300L342,299L341,298L335,293L336,295L337,296L337,298L337,299L336,300L336,301L334,302L333,303L338,309L348,316L353,321L360,327L362,329L363,333L367,340L371,343L381,348L385,349L389,349Z " data-fips="LG06" data-hasc="LV.DG" data-name="Daugavpils" data-postal="DG" data-varname="Dnaburg|Dvinsk"/><path d="M148,266L152,263L151,261L152,260L160,259L162,259L166,261L167,261L170,259L172,258L172,256L172,255L172,253L171,251L170,250L169,248L170,247L171,246L170,244L171,244L172,243L173,240L173,238L172,237L171,235L172,234L174,233L174,231L169,230L170,229L171,228L172,226L174,224L175,223L175,222L175,221L174,220L172,219L171,218L172,216L174,214L177,213L178,211L177,205L176,204L173,206L170,207L169,207L168,206L164,208L164,209L164,210L164,212L163,216L161,217L157,217L155,217L154,219L151,218L149,219L148,219L144,218L141,216L136,216L134,216L128,218L129,220L130,221L131,222L132,224L132,226L131,227L130,228L128,229L126,229L126,230L127,232L128,233L126,233L125,234L123,234L119,233L118,234L115,237L114,239L114,240L116,241L121,242L123,245L124,247L123,249L122,251L125,252L126,252L128,254L131,255L133,253L136,253L138,254L139,258L141,264L144,267Z " data-fips="LG07" data-hasc="LV.DO" data-name="Dobele" data-postal="DO" data-varname=""/><path d="M388,189L390,188L394,186L396,185L398,184L399,184L400,184L405,185L406,183L405,181L408,178L409,177L411,175L413,171L414,170L418,163L420,162L423,158L417,152L417,151L418,150L418,149L415,147L413,145L407,145L404,146L403,144L399,144L397,143L394,145L392,143L392,142L389,140L388,138L386,135L384,134L383,134L382,133L378,133L379,135L378,137L376,138L375,139L373,139L373,141L375,140L375,142L370,143L365,142L365,143L365,145L364,146L364,148L355,149L353,149L351,150L350,151L350,152L347,153L347,153L347,156L351,157L352,158L353,159L355,162L358,166L358,167L356,170L356,172L359,173L361,173L365,173L368,171L369,175L372,178L378,176L380,176L381,178L383,180L383,182L384,186L385,190Z " data-fips="LG08" data-hasc="LV.GU" data-name="Gulbene" data-postal="GU" data-varname=""/><path d="M197,265L200,265L200,264L200,261L201,259L198,258L198,257L199,255L199,254L199,253L199,252L200,251L201,249L204,248L205,247L206,246L207,245L209,244L212,244L215,241L215,240L216,238L217,237L217,235L216,235L214,234L213,233L212,232L213,231L214,230L214,229L213,228L211,225L213,225L213,221L210,220L211,219L210,217L210,216L206,216L205,215L205,214L204,214L198,215L197,216L196,215L195,215L194,214L194,210L195,207L193,204L192,202L191,200L188,197L186,196L183,195L177,195L174,196L176,204L177,205L178,211L177,213L174,214L172,216L171,218L172,219L174,220L175,221L175,222L175,223L174,224L172,226L171,228L170,229L169,230L174,231L174,233L172,234L171,235L172,237L173,238L173,240L172,243L171,244L170,244L171,246L170,247L169,248L170,250L171,251L172,253L172,255L172,256L172,258L170,259L167,261L166,261L173,265L176,265L180,263L182,262L187,262L190,262L190,264L190,265L192,266Z " data-fips="LG09" data-hasc="LV.JG" data-name="Jelgava" data-postal="JG" data-varname="Mitau"/><path d="M334,302L336,301L336,300L337,299L337,298L337,296L336,295L335,293L341,298L342,299L343,300L346,299L348,297L349,298L350,299L351,300L353,298L354,297L355,295L356,296L358,294L358,293L357,292L361,288L362,287L364,287L365,288L367,288L368,289L369,290L369,291L369,293L371,296L371,294L371,291L370,289L370,288L368,285L365,282L364,281L361,280L360,280L360,279L360,275L361,274L360,272L360,271L359,268L358,265L358,263L358,262L358,261L357,260L354,258L353,257L357,255L360,251L361,249L363,246L365,244L367,244L368,244L369,245L369,246L371,249L372,252L375,250L377,249L377,248L378,247L380,246L381,246L384,247L385,247L388,246L388,245L389,240L387,239L387,238L387,234L383,233L380,232L374,229L372,229L370,233L367,235L366,232L365,231L362,232L360,230L361,229L360,228L358,228L357,227L356,227L353,228L351,230L350,230L348,230L347,229L346,225L339,231L335,232L332,232L330,232L329,231L327,233L326,233L323,234L320,236L318,236L317,237L318,237L319,237L320,238L319,239L318,241L317,245L317,246L318,247L319,250L318,251L317,252L316,253L314,253L313,254L311,256L310,257L305,257L301,256L299,256L298,257L299,261L299,263L299,265L299,266L299,267L303,266L304,267L302,269L300,270L300,271L299,272L301,274L303,276L304,276L306,279L305,283L306,285L304,286L303,287L302,288L309,289L314,289L318,290L319,290L324,291L324,292L325,296L326,297L327,298L331,301L333,303Z " data-fips="LG10" data-hasc="LV.JK" data-name="Jekabpils" data-postal="JK" data-varname="Jakobstadt"/><path d="M260,155L262,153L266,151L269,149L271,147L272,145L273,144L273,143L271,142L271,140L270,137L268,134L266,132L267,131L269,132L271,132L272,131L278,127L279,126L280,125L280,124L282,124L283,122L285,121L285,121L284,120L283,120L283,118L283,117L281,115L280,114L279,114L275,114L274,114L273,113L274,108L275,107L277,105L280,105L281,105L282,106L284,106L285,105L285,104L284,102L286,102L285,100L286,98L285,97L285,96L285,95L286,93L286,92L285,90L285,88L280,84L278,83L277,84L276,82L275,82L274,82L273,80L273,79L272,77L272,75L272,74L272,73L271,72L270,72L269,61L268,62L266,62L265,61L262,60L261,61L260,65L259,66L255,66L251,65L249,66L246,69L243,70L242,71L241,74L240,75L239,76L237,76L234,75L233,76L233,78L233,79L233,82L233,88L233,90L234,93L237,98L237,99L238,107L237,111L237,115L237,116L238,117L238,120L238,125L239,140L240,140L241,142L241,143L241,145L241,147L242,146L244,147L249,144L250,145L251,147L252,148L252,149L254,150L255,154L258,156Z " data-fips="LG14" data-hasc="LV.LM" data-name="Limbai" data-postal="LM" data-varname="Limbazi"/><path d="M398,238L397,236L397,234L398,233L401,232L401,231L400,229L400,227L400,226L399,223L400,220L408,206L410,204L411,203L413,200L414,198L413,196L412,194L411,193L409,191L408,191L408,189L409,188L409,187L408,186L406,186L405,185L400,184L399,184L398,184L396,185L394,186L390,188L388,189L385,190L384,186L383,182L383,180L381,178L380,176L378,176L372,178L369,175L368,171L365,173L361,173L359,173L353,173L351,173L350,174L349,174L348,174L343,171L341,172L340,175L340,176L340,178L340,179L339,180L340,182L341,183L341,184L341,186L339,188L337,188L336,187L335,186L335,186L333,186L332,186L330,185L328,184L327,185L326,186L321,188L322,187L322,186L322,185L320,186L318,186L317,186L314,184L312,184L312,186L313,187L313,188L314,189L314,191L315,192L315,194L314,195L314,196L314,197L315,198L316,199L312,200L312,202L313,203L313,205L317,208L320,208L322,210L324,210L326,212L328,211L329,209L330,207L329,205L331,205L332,206L333,207L334,208L335,209L336,210L337,212L336,214L335,215L335,216L335,220L340,221L342,223L342,225L341,225L342,227L346,225L347,229L348,230L350,230L351,230L353,228L356,227L357,227L358,228L360,228L361,229L360,230L362,232L365,231L366,232L367,235L370,233L372,229L374,229L380,232L383,233L387,234L387,238L387,239L389,240L395,240L396,240Z " data-fips="LG16" data-hasc="LV.MA" data-name="Madona" data-postal="MA" data-varname=""/><path d="M276,236L281,235L282,233L282,232L280,232L280,231L280,229L279,228L280,224L280,223L280,222L281,222L282,221L282,220L281,219L281,218L285,216L289,219L292,221L293,220L298,221L299,219L299,218L296,217L297,215L299,214L301,214L303,214L303,213L304,214L308,212L313,205L313,203L312,202L312,200L316,199L315,198L314,197L314,196L314,195L315,194L315,192L314,191L314,189L313,188L313,187L312,186L312,184L311,185L309,185L309,186L310,188L308,190L306,192L304,191L304,190L303,188L302,187L301,187L298,188L297,189L297,190L296,191L296,192L295,192L288,190L281,192L279,191L277,192L276,191L275,191L273,192L270,193L268,193L266,192L263,194L261,195L259,196L250,197L245,196L245,199L244,199L243,198L242,197L240,197L241,199L241,201L241,202L242,203L243,204L246,206L246,209L247,212L246,214L246,219L248,220L251,220L254,223L250,225L251,228L251,230L252,232L253,233L255,233L255,234L256,235L257,235L257,237L255,238L260,240Z " data-fips="LG17" data-hasc="LV.OG" data-name="Ogre" data-postal="OG" data-varname=""/><path d="M414,300L419,297L421,296L422,296L425,295L426,295L425,292L425,290L425,289L424,287L422,286L420,286L419,285L419,282L419,281L418,280L417,279L416,278L416,277L415,276L415,274L413,272L412,270L412,268L414,267L415,266L414,263L412,261L409,256L409,254L410,253L410,252L411,251L412,250L412,248L409,248L406,247L406,246L404,246L402,245L402,244L400,244L404,242L403,240L400,238L398,238L396,240L395,240L388,245L388,246L385,247L384,247L381,246L380,246L378,247L377,248L377,249L375,250L372,252L371,249L369,246L369,245L368,244L367,244L365,244L363,246L361,249L360,251L357,255L353,257L354,258L357,260L358,261L358,262L358,263L358,265L359,268L360,271L360,272L361,274L360,275L360,279L360,280L361,280L364,281L365,282L368,285L370,284L373,283L376,285L379,285L381,287L382,291L385,291L385,290L386,288L387,289L389,291L390,292L392,291L395,292L396,293L397,294L399,294L401,293L403,292L404,291L406,292L408,292L409,291L409,294L412,300Z " data-fips="LG18" data-hasc="LV.PR" data-name="Preili" data-postal="PR" data-varname=""/><path d="M236,224L239,224L241,222L243,220L246,219L246,214L247,212L246,209L246,206L243,204L242,203L241,202L241,201L241,199L240,197L242,197L243,198L244,199L245,199L245,196L250,197L259,196L261,195L263,194L266,192L268,193L270,193L273,192L275,191L276,191L277,192L279,191L281,192L288,190L288,186L289,185L287,183L286,182L283,181L282,180L282,179L280,177L278,176L278,174L277,172L278,168L278,166L278,164L277,162L277,161L275,158L272,156L274,154L275,153L275,151L275,150L275,149L274,148L271,147L269,149L266,151L262,153L260,155L258,156L255,154L254,150L252,149L252,148L251,147L250,145L249,144L244,147L242,146L241,147L241,145L241,143L241,142L240,140L239,140L239,140L240,146L239,151L237,154L233,160L231,161L231,162L230,163L229,163L228,164L226,166L226,167L219,172L222,176L224,177L226,180L228,181L230,182L231,183L232,184L233,187L231,188L229,190L228,190L227,191L227,195L229,198L232,199L232,201L229,201L224,197L221,195L220,195L219,196L218,198L216,198L215,195L214,194L213,192L211,192L209,191L207,190L208,189L210,187L211,186L211,184L209,184L207,183L206,182L202,183L190,186L186,185L183,184L182,184L177,186L176,188L176,189L177,190L177,195L183,195L186,196L188,197L191,200L192,202L193,204L195,207L194,210L194,214L195,215L196,215L197,216L198,215L204,214L205,214L205,215L206,216L210,216L210,217L211,219L210,220L213,221L216,222L218,223L220,224L222,223L223,221L224,221L227,220L228,221L229,222L230,223L233,225L236,225Z " data-fips="LG20" data-hasc="R" data-name="Riga" data-postal="R" data-varname=""/><path d="M116,176L119,177L120,174L120,168L122,167L128,166L130,164L131,163L133,162L138,163L140,162L140,161L141,159L143,157L147,154L150,151L152,148L153,144L153,143L154,142L156,141L154,138L154,137L154,136L153,134L151,134L148,131L142,126L138,120L123,107L120,101L119,99L119,97L120,91L121,87L121,85L119,85L117,86L116,86L113,87L93,96L94,100L95,101L96,104L96,105L96,107L97,108L98,109L98,114L97,115L93,118L92,119L91,119L91,121L90,122L88,123L84,125L89,128L91,128L95,128L97,130L97,135L97,137L98,138L99,142L98,144L96,145L93,148L90,152L90,153L91,154L93,157L94,159L95,160L97,162L99,163L100,165L101,169L101,171L101,173L101,174L102,176L104,177L108,177L114,178Z " data-fips="LG22" data-hasc="LV.TA" data-name="Talsi" data-postal="TA" data-varname="Talsen"/><path d="M155,217L157,217L161,217L163,216L164,212L164,210L164,209L164,208L168,206L169,207L170,207L173,206L176,204L174,196L177,195L177,190L176,189L176,188L177,186L182,184L183,184L182,183L179,178L178,178L172,176L167,174L164,170L163,169L162,169L161,167L160,155L159,154L158,153L158,151L157,146L157,144L156,141L154,142L153,143L153,144L152,148L150,151L147,154L143,157L141,159L140,161L140,162L138,163L133,162L131,163L130,164L128,166L122,167L120,168L120,174L119,177L116,176L114,178L108,181L106,186L106,189L109,189L110,189L111,190L111,191L111,193L110,195L109,196L108,197L111,199L115,199L118,201L119,202L118,203L121,203L123,204L128,204L130,208L130,213L130,215L130,216L134,216L136,216L141,216L144,218L148,219L149,219L151,218L154,219Z " data-fips="LG23" data-hasc="LV.TU" data-name="Tukums" data-postal="TU" data-varname="Tukkum"/><path d="M306,134L306,133L306,131L306,130L308,128L311,129L313,128L314,129L316,129L317,128L320,126L325,125L325,124L322,122L321,121L321,119L322,118L323,117L323,116L324,113L323,112L322,112L320,111L319,110L319,107L315,106L314,103L315,102L314,100L313,99L313,97L314,96L316,95L317,93L317,92L316,91L316,90L315,89L315,88L316,87L317,87L316,85L317,83L317,82L316,82L315,81L314,79L313,77L313,76L314,76L315,75L317,74L318,74L319,74L325,77L325,75L325,73L326,69L326,69L323,70L321,71L320,70L318,69L317,68L316,67L316,65L315,64L313,63L310,61L306,57L304,55L302,55L301,55L301,54L300,51L299,50L297,50L297,51L297,53L298,56L299,58L297,60L295,61L294,61L293,60L293,58L292,55L291,52L289,51L286,51L285,51L283,52L282,53L278,57L277,58L272,59L270,60L269,61L270,72L271,72L272,73L272,74L272,75L272,77L273,79L273,80L274,82L275,82L276,82L277,84L278,83L280,84L285,88L285,90L286,92L286,93L285,95L285,96L285,97L286,98L285,100L286,102L284,102L285,104L285,105L284,106L282,106L281,105L280,105L277,105L275,107L274,108L273,113L274,114L275,114L279,114L280,114L281,115L283,117L283,118L283,120L284,120L285,121L285,121L286,123L288,122L289,125L289,126L290,128L292,130L293,131L293,132L295,132L298,133L300,134L301,133L302,134L303,135L305,136Z " data-fips="LG25" data-hasc="LV.VM" data-name="Valmiera" data-postal="VM" data-varname="Wolmar"/><path d="M232,201L232,199L229,198L227,195L227,191L228,190L229,190L231,188L233,187L232,184L231,183L230,182L228,181L226,180L224,177L222,176L219,172L216,173L214,174L213,175L212,177L211,179L208,181L206,182L207,183L209,184L211,184L211,186L210,187L208,189L207,190L209,191L211,192L213,192L214,194L215,195L216,198L218,198L219,196L220,195L221,195L224,197L229,201Z " data-fips="LG32" data-hasc="R" data-name="Riga" data-postal="R" data-varname=""/></g></svg>