<?xml version="1.0" ?><!DOCTYPE svg  PUBLIC '-//W3C//DTD SVG 1.1//EN'  'http://www.w3.org/Graphics/SVG/1.1/DTD/svg11.dtd'><svg enable_background="new 0 0 500 401" height="401px" style="stroke-linejoin: round; stroke:#000; fill:#f6f3f0;" version="1.1" viewBox="0 0 500 401" width="500px" xmlns="http://www.w3.org/2000/svg" xmlns:xlink="http://www.w3.org/1999/xlink"><defs><style type="text/css"><![CDATA[path { fill-rule: evenodd; }
#context path { fill: #eee; stroke: #bbb; } ]]></style></defs><metadata><views><view h="401" padding="0" w="500"><proj id="laea" lat0="47.193" lon0="28.599"/><bbox h="37.37" w="29.31" x="983.72" y="983.99"/><llbbox lat0="-90" lat1="90" lon0="-180" lon1="180"/></view></views></metadata><g id="admin1"><path d="M132,47L134,45L135,42L137,40L138,36L138,32L140,30L142,30L143,33L146,34L148,33L151,33L153,31L153,27L154,24L151,20L149,14L149,14L146,16L143,16L133,12L131,11L130,12L130,14L130,15L130,16L128,16L126,15L126,16L122,17L119,15L117,12L114,11L112,12L112,13L111,14L109,13L108,15L108,16L108,17L109,20L109,22L108,24L107,25L106,25L104,24L103,23L102,21L101,20L99,19L99,20L98,22L95,24L94,25L94,27L93,28L98,26L100,26L103,28L104,27L105,29L106,29L110,29L111,30L113,32L114,32L118,35L118,36L120,38L121,37L121,36L123,37L123,39L124,40L127,41L127,42L126,43L124,44L126,46L128,46L130,46L131,47Z " data-fips="MD63" data-hasc="MD.BR" data-name="Briceni" data-postal="BR" data-varname=""/><path d="M190,57L190,56L190,54L191,53L193,52L193,50L195,48L198,47L202,48L205,47L205,45L204,44L204,42L204,40L202,39L202,37L204,38L207,39L212,34L216,33L216,27L215,21L212,21L208,20L206,16L205,15L203,16L198,18L189,17L185,18L179,17L178,19L177,23L175,25L173,30L175,38L176,40L176,41L173,45L175,48L178,50L180,54L183,55L187,57L189,58Z " data-fips="MD70" data-hasc="MD.DO" data-name="Donduseni" data-postal="DO" data-varname=""/><path d="M143,71L145,71L148,70L149,67L151,63L153,61L156,60L157,62L160,63L161,62L163,62L165,62L168,61L176,56L176,55L175,51L175,48L173,45L176,41L176,40L175,38L162,31L154,24L153,27L153,31L151,33L148,33L146,34L143,33L142,30L140,30L138,32L138,36L137,40L135,42L134,45L132,47L131,47L131,48L130,50L130,53L132,56L134,58L136,60L134,61L135,63L137,62L138,63L139,65L140,65L141,66L141,67L141,68L140,69L142,71Z " data-fips="MD73" data-hasc="MD.ED" data-name="Edinet" data-postal="ED" data-varname=""/><path d="M173,30L175,25L177,23L178,19L179,17L185,18L189,17L198,18L203,16L205,15L203,12L202,10L196,6L193,5L182,5L181,4L180,0L179,0L179,0L176,2L175,2L172,2L170,4L164,9L163,10L162,9L159,7L157,6L154,8L149,14L151,20L154,24L162,31Z " data-fips="MD81" data-hasc="MD.OC" data-name="Ocnita" data-postal="OC" data-varname=""/><path d="M151,97L152,96L154,95L155,94L156,91L157,89L160,85L163,84L166,85L169,82L173,81L177,83L185,87L188,87L190,86L193,86L198,91L201,93L206,91L210,89L210,84L207,84L207,80L206,78L205,76L199,69L196,69L194,72L191,74L188,72L187,70L186,68L186,66L186,65L186,64L186,62L187,61L187,57L183,55L180,54L178,50L175,48L175,51L176,55L176,56L168,61L165,62L163,62L161,62L160,63L157,62L156,60L153,61L151,63L149,67L148,70L145,71L143,71L142,71L142,72L140,74L141,75L143,76L145,79L145,84L146,84L147,85L148,85L148,86L145,88L146,89L147,91L148,93L149,95L151,97Z " data-fips="MD84" data-hasc="MD.RS" data-name="Rscani" data-postal="RS" data-varname=""/><path d="M217,103L218,101L219,100L219,98L218,93L216,92L212,92L210,89L206,91L201,93L202,95L202,97L206,99L214,99L215,103Z " data-fips="MD60" data-hasc="MD.BT" data-name="Balti" data-postal="BT" data-varname=""/><path d="M212,84L215,84L220,78L221,76L222,75L222,74L221,73L220,70L221,66L217,64L218,62L220,57L223,56L224,55L223,49L220,45L207,39L204,38L202,37L202,39L204,40L204,42L204,44L205,45L205,47L202,48L198,47L195,48L193,50L193,52L191,53L190,54L190,56L190,57L189,58L187,57L187,61L186,62L186,64L186,65L186,66L186,68L187,70L188,72L191,74L194,72L196,69L199,69L205,76L206,78L207,80L207,84L210,84Z " data-fips="MD71" data-hasc="MD.DR" data-name="Drochia" data-postal="DR" data-varname=""/><path d="M178,147L180,145L186,143L187,141L193,140L199,140L205,139L206,138L206,135L207,135L210,135L212,135L214,133L215,130L213,128L211,128L208,126L208,123L211,121L212,119L213,118L215,117L216,115L214,108L209,107L209,103L206,99L202,97L200,96L198,94L196,95L195,98L193,100L191,102L189,101L188,101L186,105L184,106L183,107L182,111L179,112L175,112L169,115L163,119L164,120L164,122L164,123L165,125L166,125L167,129L167,131L168,132L169,132L170,133L172,133L174,133L175,134L176,135L176,137L176,138L175,139L175,141L176,142L176,146L177,147Z " data-fips="MD74" data-hasc="MD.FA" data-name="Falesti" data-postal="FA" data-varname=""/><path d="M169,115L175,112L179,112L182,111L183,107L184,106L186,105L188,101L189,101L191,102L193,100L195,98L196,95L198,94L200,96L202,97L202,95L201,93L198,91L193,86L190,86L188,87L185,87L177,83L173,81L169,82L166,85L163,84L160,85L157,89L156,91L155,94L154,95L152,96L151,97L151,97L151,98L151,99L152,101L150,101L150,104L152,108L158,115L160,118L163,119Z " data-fips="MD76" data-hasc="MD.GL" data-name="Glodeni" data-postal="GL" data-varname=""/><path d="M220,138L223,136L227,136L229,133L229,129L228,126L229,123L234,121L243,122L246,121L246,120L246,119L247,117L249,116L251,116L251,113L250,110L248,103L245,101L239,100L239,97L240,93L237,93L234,93L232,90L231,86L228,87L227,87L226,84L225,84L224,84L223,82L223,81L222,79L220,78L215,84L212,84L210,84L210,89L212,92L216,92L218,93L219,98L219,100L218,101L217,103L215,103L214,99L209,103L209,107L214,108L216,115L215,117L213,118L212,119L211,121L208,123L208,126L211,128L213,128L215,130L214,133L212,135L217,136L218,138Z " data-fips="MD85" data-hasc="MD.SI" data-name="Sngerei" data-postal="SI" data-varname=""/><path d="M217,194L218,193L219,191L218,190L215,189L215,187L215,185L214,183L213,182L212,181L211,178L212,171L214,165L216,164L219,164L222,163L225,159L228,158L224,157L222,153L225,151L230,147L232,146L234,145L234,141L231,139L227,136L223,136L220,138L218,138L217,136L212,135L210,135L207,135L206,135L206,138L205,139L199,140L193,140L187,141L186,143L180,145L178,147L177,147L178,148L180,153L182,156L184,156L185,157L187,158L189,159L190,160L192,163L192,165L192,166L195,169L196,173L196,174L196,175L195,175L196,177L200,180L200,181L201,182L202,182L204,185L207,187L208,188L208,190L210,190L212,192L214,193L216,192L217,194Z " data-fips="MD92" data-hasc="MD.UG" data-name="Ungheni" data-postal="UG" data-varname=""/><path d="M231,396L232,395L237,391L237,391L237,390L238,383L245,382L251,385L258,385L259,385L262,384L260,382L260,380L260,378L259,376L258,375L257,374L256,373L256,372L259,369L260,367L261,366L264,366L264,364L264,363L263,363L262,358L260,354L258,357L258,361L257,365L255,368L249,373L243,372L240,366L240,360L242,356L247,350L248,346L250,342L253,341L254,340L255,338L255,336L253,335L253,331L253,327L254,322L255,317L253,317L253,315L249,317L244,317L241,314L237,314L236,316L235,318L231,316L227,316L223,315L222,315L221,318L221,319L221,320L220,325L220,326L220,328L223,335L223,337L223,338L224,339L224,340L223,341L223,342L223,343L224,345L224,346L222,347L223,351L224,355L226,358L226,359L227,373L227,375L228,376L226,377L223,377L222,378L220,379L219,380L218,382L223,384L225,386L227,389L227,390L227,395L228,396L231,398Z " data-fips="MD51" data-hasc="MD.CH" data-name="Cahul" data-postal="CH" data-varname=""/><path d="M264,362L265,360L272,359L274,358L274,356L274,355L274,354L274,352L277,352L279,351L280,350L281,348L281,345L280,343L279,338L279,336L280,334L282,333L298,329L300,328L300,325L299,320L298,316L299,314L302,311L304,307L305,304L305,301L302,299L301,302L296,306L294,318L288,327L273,332L269,333L267,328L267,327L266,325L267,323L265,320L261,317L258,316L255,317L254,322L253,327L253,331L253,335L255,336L255,338L254,340L253,341L250,342L248,346L251,348L253,351L257,352L260,354L262,358L263,363L264,363Z " data-fips="MD51" data-hasc="MD.TA" data-name="Taraclia" data-postal="TA" data-varname=""/><path d="M258,393L258,393L259,391L258,386L258,385L251,385L245,382L238,383L237,390L237,391L237,391L244,392L250,394L256,394Z M255,368L257,365L258,361L258,357L260,354L257,352L253,351L251,348L248,346L247,350L242,356L240,360L240,366L243,372L249,373Z M273,332L288,327L294,318L296,306L296,303L296,299L293,297L290,298L288,297L286,295L287,294L287,292L286,289L283,288L282,286L280,286L279,289L277,289L278,285L281,283L282,278L282,273L278,270L270,265L266,262L265,264L264,265L263,266L262,267L256,272L256,275L255,277L255,279L259,282L260,285L258,289L258,293L258,297L258,301L256,304L253,306L252,308L253,310L253,313L253,315L253,317L255,317L258,316L261,317L265,320L267,323L266,325L267,327L267,328L269,333Z " data-fips="MD51" data-hasc="MD.GA" data-name="Gagauzia" data-postal="GA" data-varname="Unitate Teritoriala Autonoma Gagauzia|UTAG"/><path d="M297,197L301,195L302,191L300,189L300,191L299,193L295,187L291,187L285,186L281,185L277,181L273,178L273,182L280,188L284,192L284,195L284,197L283,198L285,199L286,199L295,202Z " data-fips="MD57" data-hasc="MD.CV" data-name="Chisinau" data-postal="CV" data-varname=""/><path d="M315,185L317,184L318,181L320,182L321,180L320,178L319,177L319,176L320,175L321,175L322,175L324,177L324,175L326,175L327,177L328,177L330,178L330,176L328,170L330,167L333,164L334,163L335,161L335,160L335,158L336,156L336,155L336,154L336,152L335,150L334,148L333,147L331,147L330,146L329,145L329,143L328,142L325,140L324,137L322,137L321,137L320,139L319,140L318,138L317,137L315,133L315,133L314,135L313,134L313,135L313,136L311,139L310,143L309,143L308,145L305,144L304,144L303,147L302,148L303,150L305,152L310,157L310,161L310,164L313,165L315,159L319,158L320,162L319,170L318,171L316,175L313,177L312,179L310,181L310,183L311,183L312,184L314,186Z " data-fips="MD58" data-hasc="MD.DB" data-name="Dubasari" data-postal="DB" data-varname=""/><path d="M330,224L331,223L332,224L333,224L336,220L338,220L339,220L342,220L343,215L346,212L346,211L346,209L346,206L346,204L345,202L343,202L341,202L339,204L337,205L335,204L333,203L332,202L331,199L330,197L331,198L333,198L334,197L337,196L337,194L337,194L337,192L338,192L338,191L337,187L337,186L333,182L331,181L330,180L327,179L326,182L326,188L326,193L326,197L325,199L322,198L320,196L317,197L314,198L311,191L308,191L306,192L304,195L303,195L301,195L297,197L295,202L296,206L299,207L300,205L301,204L303,205L305,205L307,206L309,208L309,210L307,212L308,215L311,216L313,217L312,219L312,220L313,221L319,223L319,226L321,227L323,225L325,227L327,227L330,227Z " data-fips="MD59" data-hasc="MD.AN" data-name="Anenii Noi" data-postal="AN" data-varname=""/><path d="M301,302L302,299L299,296L298,294L298,292L298,290L299,288L299,286L297,280L296,275L297,271L299,268L304,265L306,264L309,262L309,262L309,260L310,256L308,255L299,255L297,256L296,258L293,261L292,263L291,265L289,265L286,267L286,271L285,273L282,273L282,278L281,283L278,285L277,289L279,289L280,286L282,286L283,288L286,289L287,292L287,294L286,295L288,297L290,298L293,297L296,299L296,303L296,306Z " data-fips="MD61" data-hasc="MD.BA" data-name="Basarabeasca" data-postal="BA" data-varname=""/><path d="M236,316L237,314L241,314L244,317L249,317L253,315L253,313L253,310L252,308L253,306L256,304L258,301L258,297L258,293L258,289L260,285L259,282L255,279L255,277L256,275L256,272L254,271L252,271L251,272L250,274L247,277L244,275L244,274L244,273L242,272L240,273L238,274L237,276L236,277L233,276L232,277L231,281L230,283L230,285L230,288L229,290L227,292L226,292L225,293L225,296L224,297L223,297L223,298L225,302L226,303L226,304L225,307L224,310L223,315L227,316L231,316L235,318Z " data-fips="MD65" data-hasc="MD.CN" data-name="Cantemir" data-postal="CN" data-varname=""/><path d="M244,174L249,174L251,172L255,168L257,166L257,163L255,161L255,159L260,154L264,154L266,153L266,150L261,146L258,138L255,139L251,141L248,142L247,141L244,142L243,142L241,142L238,139L234,141L234,145L232,146L230,147L225,151L222,153L224,157L228,158L225,159L222,163L227,169L233,173L236,174L238,175L240,176L243,176Z " data-fips="MD66" data-hasc="MD.CA" data-name="Calarasi" data-postal="CA" data-varname=""/><path d="M285,273L286,271L286,267L289,265L291,265L292,263L293,261L296,258L297,256L299,255L302,246L302,244L301,245L298,247L296,248L293,248L290,246L293,245L295,244L295,242L295,240L296,239L295,237L294,234L292,234L290,234L289,233L287,230L286,229L282,228L279,225L277,225L274,227L272,229L269,230L268,236L266,240L266,243L268,245L267,246L266,248L266,250L266,252L265,253L266,255L266,258L266,262L270,265L278,270L282,273Z " data-fips="MD68" data-hasc="MD.CS" data-name="Cimislia" data-postal="CS" data-varname=""/><path d="M326,197L326,193L326,188L326,182L327,179L328,177L327,177L326,175L324,175L324,177L322,175L321,175L320,175L319,176L319,177L320,178L321,180L320,182L318,181L317,184L315,185L314,186L312,184L311,183L310,183L310,181L312,179L313,177L316,175L318,171L319,170L313,165L310,164L310,161L310,157L305,152L302,156L298,157L295,160L291,162L288,162L285,165L286,169L283,174L284,178L287,180L291,187L295,187L299,193L300,191L300,189L302,191L301,195L303,195L304,195L306,192L308,191L311,191L314,198L317,197L320,196L322,198L325,199Z " data-fips="MD69" data-hasc="MD.CR" data-name="Criuleni" data-postal="CR" data-varname=""/><path d="M259,102L262,97L260,92L257,90L256,89L255,89L253,90L252,85L257,79L258,76L259,70L258,66L253,66L251,65L249,66L247,66L243,64L241,63L240,63L239,64L239,65L236,66L233,65L227,65L221,66L220,70L221,73L222,74L222,75L221,76L220,78L222,79L223,81L223,82L224,84L225,84L226,84L227,87L228,87L231,86L232,90L234,93L237,93L240,93L239,97L239,100L245,101L248,103L252,104L253,103L255,104L256,105Z " data-fips="MD75" data-hasc="MD.FL" data-name="Floresti" data-postal="FL" data-varname=""/><path d="M310,262L317,258L318,257L320,257L320,257L320,254L319,249L321,245L324,243L324,240L324,237L325,234L325,232L325,230L325,227L323,225L321,227L319,226L319,223L313,221L312,220L312,219L313,217L311,216L309,218L306,220L303,221L301,222L299,224L298,224L295,221L294,222L292,224L290,223L288,223L284,223L280,220L279,222L279,225L282,228L286,229L287,230L289,233L290,234L292,234L294,234L295,237L296,239L295,240L295,242L295,244L293,245L290,246L293,248L296,248L298,247L301,245L302,244L302,246L308,255L310,256L309,260L309,262L309,262Z " data-fips="MD78" data-hasc="MD.CU" data-name="Cainari" data-postal="CU" data-varname=""/><path d="M339,204L341,202L343,202L345,202L346,201L354,201L354,199L355,194L356,193L357,192L357,190L357,188L357,186L356,185L354,184L353,184L352,185L351,187L350,188L349,187L346,182L346,180L349,180L351,180L352,178L353,175L352,168L352,165L354,164L355,162L355,158L354,155L353,153L351,152L350,151L348,151L346,151L345,153L345,155L344,157L343,159L341,159L340,159L338,159L337,157L336,156L335,158L335,160L335,161L334,163L333,164L330,167L328,170L330,176L330,178L330,180L331,181L333,182L337,186L337,187L338,191L338,192L337,192L337,194L337,194L337,196L334,197L333,198L331,198L330,197L331,199L332,202L333,203L335,204L337,205Z " data-fips="MD58" data-hasc="MD.DU" data-name="Grigoriopol" data-postal="DU" data-varname=""/><path d="M247,246L248,245L247,244L247,242L248,240L246,237L247,236L248,236L249,234L249,233L253,234L256,237L259,236L262,234L265,235L266,240L268,236L269,230L272,229L274,227L277,225L279,225L279,222L280,220L279,214L276,211L275,214L273,215L272,213L272,211L272,209L271,208L266,204L262,199L263,197L263,195L260,193L257,190L256,191L255,192L258,194L255,200L252,205L249,204L250,200L249,197L244,191L243,193L244,195L244,197L243,199L241,200L236,204L234,209L223,207L223,207L222,209L224,210L224,212L224,213L225,215L224,218L226,222L229,228L229,231L234,241L235,245L235,245L237,244L240,244L241,246L243,247Z " data-fips="MD77" data-hasc="MD.HI" data-name="Hncesti" data-postal="HI" data-varname=""/><path d="M301,222L303,221L306,220L309,218L311,216L308,215L307,212L309,210L309,208L307,206L305,205L303,205L301,204L300,205L299,207L296,206L295,202L286,199L285,199L283,198L284,197L284,195L284,192L281,194L277,194L275,193L273,192L271,193L270,195L267,193L264,188L262,188L259,188L258,189L257,190L260,193L263,195L263,197L262,199L266,204L271,208L272,209L272,211L272,213L273,215L275,214L276,211L279,214L280,220L284,223L288,223L290,223L292,224L294,222L295,221L298,224L299,224Z " data-fips="MD78" data-hasc="MD.IA" data-name="Ialoveni" data-postal="IA" data-varname=""/><path d="M250,274L251,272L252,271L254,271L256,272L262,267L263,266L264,265L265,264L266,262L266,258L266,255L265,253L266,252L266,250L266,248L267,246L268,245L266,243L266,240L265,235L262,234L259,236L256,237L253,234L249,233L249,234L248,236L247,236L246,237L248,240L247,242L247,244L248,245L247,246L243,247L241,246L240,244L237,244L235,245L235,245L235,246L235,248L235,250L234,251L233,253L234,255L233,256L233,257L233,262L233,263L234,265L235,265L235,267L235,271L235,272L235,273L233,273L234,275L233,276L236,277L237,276L238,274L240,273L242,272L244,273L244,274L244,275L247,277Z " data-fips="MD79" data-hasc="MD.LE" data-name="Leova" data-postal="LE" data-varname=""/><path d="M236,204L241,200L243,199L244,197L244,195L243,193L244,191L249,197L250,200L249,204L252,205L255,200L258,194L255,192L256,191L257,190L258,189L259,188L257,186L254,187L253,186L251,185L249,185L248,186L245,186L244,182L245,181L245,179L244,177L243,176L240,176L238,175L236,174L233,173L227,169L222,163L219,164L216,164L214,165L212,171L211,178L212,181L213,182L214,183L215,185L215,187L215,189L218,190L219,191L218,193L217,194L217,194L220,198L221,200L223,205L223,207L234,209Z " data-fips="MD80" data-hasc="MD.NI" data-name="Nisporeni" data-postal="NI" data-varname=""/><path d="M285,165L288,162L291,162L295,160L298,157L302,156L305,152L303,150L302,148L303,147L304,144L305,144L308,145L309,143L310,143L311,139L313,136L313,135L313,134L312,133L311,132L307,130L306,128L302,125L299,120L297,118L295,117L294,119L293,120L291,121L287,125L285,126L282,126L281,124L279,123L277,123L270,129L268,130L266,131L266,133L266,134L265,135L265,136L265,138L265,139L261,146L266,150L266,153L267,154L269,154L270,153L272,153L273,156L274,159L275,162L277,165L280,164L282,164L283,167L286,169Z " data-fips="MD82" data-hasc="MD.OH" data-name="Orhei" data-postal="OH" data-varname=""/><path d="M287,125L291,121L293,120L294,119L295,117L297,118L299,120L302,125L305,126L305,124L305,121L304,120L302,117L302,114L302,112L303,111L302,109L301,106L301,98L301,95L304,87L304,84L301,81L299,82L300,85L298,85L296,84L295,86L295,88L289,87L287,89L289,90L289,91L286,92L284,93L282,99L276,98L268,109L273,111L275,113L275,115L278,117L277,120L277,123L279,123L281,124L282,126L285,126Z " data-fips="MD83" data-hasc="MD.RZ" data-name="Rezina" data-postal="RZ" data-varname=""/><path d="M315,133L315,131L313,126L315,122L317,119L319,115L320,110L320,106L320,102L323,98L324,97L324,95L322,94L319,93L319,92L319,91L319,88L320,87L322,85L323,83L324,81L323,81L319,80L318,79L317,77L316,72L316,70L315,69L314,68L312,67L311,67L308,68L304,74L301,74L298,73L297,72L297,74L297,79L301,81L304,84L304,87L301,95L301,98L301,106L302,109L303,111L302,112L302,114L302,117L304,120L305,121L305,124L305,126L306,128L307,130L311,132L312,133L313,134L314,135Z " data-fips="MD83" data-hasc="MD.RZ" data-name="Rezina" data-postal="RZ" data-varname=""/><path d="M276,98L282,99L284,93L286,92L289,91L289,90L287,89L289,87L295,88L295,86L296,84L298,85L300,85L299,82L290,78L288,76L288,72L286,69L284,67L282,68L281,70L280,71L278,71L275,73L273,78L272,81L274,83L271,85L267,83L265,80L261,79L259,80L257,79L252,85L253,90L255,89L256,89L257,90L260,92L262,97L266,100Z " data-fips="MD86" data-hasc="MD.SD" data-name="Soldanesti" data-postal="SD" data-varname=""/><path d="M271,193L273,192L275,193L277,194L281,194L280,188L273,182L273,178L277,181L281,185L285,186L287,180L284,178L283,174L283,167L282,164L280,164L277,165L275,162L274,159L273,156L272,153L270,153L269,154L267,154L266,153L264,154L260,154L255,159L255,161L257,163L257,166L255,168L251,172L249,174L244,174L243,176L244,177L245,179L245,181L244,182L245,186L248,186L249,185L251,185L253,186L254,187L257,186L259,188L262,188L264,188L267,193L270,195Z " data-fips="MD87" data-hasc="MD.ST" data-name="Straseni" data-postal="ST" data-varname=""/><path d="M244,142L247,141L248,142L251,141L255,139L258,138L265,139L265,138L265,136L265,135L266,134L266,133L266,131L268,130L270,129L277,123L277,120L278,117L275,115L275,113L273,111L268,109L266,100L262,97L259,102L256,105L255,104L253,103L252,104L250,110L251,113L251,116L249,116L247,117L246,119L246,120L246,121L243,122L234,121L229,123L228,126L229,129L229,133L227,136L231,139L234,141L238,139L241,142L243,142Z " data-fips="MD91" data-hasc="MD.TE" data-name="Telenesti" data-postal="TE" data-varname=""/><path d="M324,280L327,276L328,276L329,276L330,274L330,273L330,270L330,268L332,266L333,266L335,271L337,273L338,273L342,267L343,265L345,264L345,262L344,259L342,257L341,254L342,252L342,250L343,248L345,246L347,244L349,244L351,245L352,243L353,240L354,240L355,240L356,236L355,232L353,227L352,225L351,225L350,224L349,223L348,224L347,223L346,221L342,220L339,220L338,220L336,220L333,224L332,224L331,223L330,224L330,227L327,227L325,227L325,230L325,232L325,234L324,237L324,240L324,243L321,245L319,249L320,254L320,257L320,257L320,257L322,259L322,262L323,273L322,274L322,276L321,277L320,278L320,280L322,281Z " data-fips="MD67" data-hasc="MD.CU" data-name="Causeni" data-postal="CU" data-varname=""/><path d="M385,254L387,254L389,254L390,251L389,250L388,247L388,246L388,244L388,243L389,241L389,240L390,232L389,229L389,228L388,226L388,225L387,224L387,220L385,220L385,221L383,220L383,218L382,217L379,215L377,214L374,215L371,214L370,213L368,210L366,208L365,208L362,208L360,207L359,206L357,204L354,204L354,203L354,201L346,201L346,204L346,206L346,209L346,211L346,212L343,215L346,221L347,223L348,224L349,223L350,224L351,225L352,225L353,227L355,232L357,234L359,236L362,236L364,238L366,238L367,239L368,240L369,239L371,240L372,241L374,245L373,245L371,246L370,247L370,249L371,249L374,251L375,251L378,248L379,250L380,251L381,251L382,251L385,254Z " data-fips="MD62" data-hasc="MD.BD" data-name="Bender" data-postal="BD" data-varname=""/><path d="M381,282L384,279L386,278L387,278L398,278L402,278L404,275L407,271L405,270L404,270L402,270L402,271L400,269L396,266L396,265L395,263L394,261L393,262L391,262L391,260L387,259L385,257L385,254L382,251L381,251L380,251L379,250L378,248L375,251L374,251L371,249L370,249L370,247L371,246L373,245L374,245L372,241L371,240L369,239L368,240L367,239L366,238L364,238L362,236L359,236L357,234L355,232L356,236L355,240L354,240L353,240L352,243L351,245L349,244L347,244L345,246L343,248L342,250L342,252L341,254L342,257L344,259L345,262L345,264L345,264L348,265L348,267L347,268L347,269L347,270L347,271L347,272L349,272L352,273L353,273L354,274L356,277L357,279L358,280L360,280L361,279L362,278L363,276L363,273L363,272L366,272L368,271L369,269L369,265L370,267L375,272L376,275L377,276L377,277L377,281L379,283Z " data-fips="MD88" data-hasc="MD.SV" data-name="Stefan Voda" data-postal="SV" data-varname=""/><path d="M274,83L272,81L273,78L275,73L278,71L280,71L281,70L282,68L284,67L286,69L288,72L288,76L290,78L297,79L297,74L297,72L295,71L292,68L290,64L288,62L288,61L287,57L286,53L286,51L285,50L282,48L279,48L273,48L265,44L262,44L260,45L259,50L259,50L262,53L260,58L257,60L258,66L259,70L258,76L257,79L259,80L261,79L265,80L267,83L271,85Z " data-fips="MD86" data-hasc="MD.SD" data-name="Camenca" data-postal="SD" data-varname=""/><path d="M227,65L233,65L236,66L239,65L239,64L240,63L241,63L243,64L247,66L249,66L251,65L253,66L257,60L260,58L262,53L259,50L259,50L258,53L258,55L257,56L255,55L254,54L251,48L253,47L253,45L252,43L251,42L249,42L248,44L247,46L245,47L244,48L243,47L242,45L243,43L244,41L246,41L247,39L247,37L247,34L246,33L245,33L240,34L239,34L238,36L236,37L234,37L232,37L231,35L231,33L230,30L229,31L226,33L225,33L223,33L222,32L223,27L223,25L221,23L220,22L215,21L216,27L216,33L212,34L220,45L223,49L224,55L223,56L220,57L218,62L217,64L221,66Z " data-fips="MD87" data-hasc="MD.SO" data-name="Soroca" data-postal="SO" data-varname=""/></g></svg>