<?xml version="1.0" ?><!DOCTYPE svg  PUBLIC '-//W3C//DTD SVG 1.1//EN'  'http://www.w3.org/Graphics/SVG/1.1/DTD/svg11.dtd'><svg enable_background="new 0 0 500 401" height="401px" style="stroke-linejoin: round; stroke:#000; fill:#f6f3f0;" version="1.1" viewBox="0 0 500 401" width="500px" xmlns="http://www.w3.org/2000/svg" xmlns:xlink="http://www.w3.org/1999/xlink"><defs><style type="text/css"><![CDATA[path { fill-rule: evenodd; }
#context path { fill: #eee; stroke: #bbb; } ]]></style></defs><metadata><views><view h="401" padding="0" w="500"><proj id="laea" lat0="61.152" lon0="8.74"/><bbox h="173.08" w="165.26" x="928.49" y="865.75"/><llbbox lat0="-90" lat1="90" lon0="-180" lon1="180"/></view></views></metadata><g id="admin1"><path d="M273,199L275,198L275,197L276,197L277,196L277,195L279,195L282,195L283,195L290,193L291,194L291,194L291,191L292,190L293,188L293,187L293,185L292,184L293,177L293,174L293,173L291,165L297,164L301,159L301,158L301,156L300,154L303,150L306,142L307,140L308,138L309,137L309,132L305,127L305,124L307,123L308,122L309,120L310,113L311,112L314,108L315,106L322,109L323,107L324,103L324,102L322,95L322,93L323,92L322,92L321,90L318,91L316,91L314,92L309,93L307,95L306,95L306,94L305,95L305,96L306,97L308,97L309,96L311,95L312,96L311,97L313,96L314,95L315,94L316,94L315,96L317,96L319,97L318,97L316,96L315,97L316,98L313,98L313,99L314,100L315,101L315,102L315,104L315,103L315,101L313,100L313,99L312,98L311,99L309,100L310,99L309,99L308,98L304,100L303,100L304,101L305,101L307,102L307,103L308,104L309,105L309,106L307,104L306,103L304,102L303,101L302,101L302,102L303,103L305,104L303,104L306,104L307,105L305,105L306,106L305,106L304,107L305,108L307,106L308,107L309,108L307,107L306,108L305,109L307,110L307,111L306,111L305,110L306,111L306,112L305,110L304,110L305,111L305,113L305,114L307,114L307,115L305,114L304,113L304,111L303,110L302,109L302,108L302,107L302,106L302,105L301,104L301,103L301,105L300,106L300,107L300,108L299,109L297,109L298,108L299,108L298,107L297,107L296,108L296,108L295,109L294,110L295,110L297,109L297,110L300,109L300,109L301,110L302,110L301,111L301,112L300,113L299,112L298,113L297,114L296,113L295,114L294,116L293,115L292,115L291,115L290,116L292,116L291,116L289,117L289,118L290,118L292,118L292,119L293,119L291,119L290,120L291,120L289,121L290,122L292,121L292,121L294,119L294,119L295,118L296,116L295,115L296,116L296,117L298,117L299,117L299,118L300,119L301,120L298,118L296,119L297,120L298,119L299,120L298,120L296,120L295,119L296,120L295,122L296,122L297,122L296,123L295,123L295,124L295,125L298,125L300,123L302,123L301,123L299,125L299,126L299,128L299,128L300,130L300,131L299,130L299,128L298,126L297,126L295,127L294,127L294,126L294,125L293,126L292,127L291,126L293,126L293,124L294,124L293,123L292,124L290,125L290,126L291,127L293,128L292,128L291,129L290,128L289,128L289,130L287,131L287,132L287,133L289,133L290,133L290,134L291,132L293,132L294,131L295,131L295,132L294,133L296,133L297,134L298,133L300,133L301,133L301,134L298,134L299,135L298,136L299,137L298,137L298,135L297,135L296,134L294,134L293,134L293,136L293,137L292,136L293,135L293,134L292,134L290,135L289,134L288,135L290,136L291,137L290,136L287,137L287,136L286,136L286,137L286,138L287,138L289,139L289,140L288,139L287,139L286,139L286,140L285,141L285,141L284,141L283,139L283,140L283,141L283,142L282,143L282,142L282,141L281,142L280,143L278,143L278,144L279,144L279,145L280,146L281,146L283,147L281,147L279,147L278,147L280,148L278,149L279,149L280,149L282,148L281,149L280,150L278,149L275,150L278,150L279,151L277,151L276,151L275,151L274,151L275,152L277,152L276,152L275,153L275,154L276,154L277,154L278,152L279,152L278,154L280,155L279,155L278,154L277,154L276,155L276,156L275,156L275,155L274,155L273,155L274,156L274,157L275,158L275,159L273,160L273,161L275,161L276,161L277,160L278,161L279,161L277,161L275,163L274,164L274,165L276,164L276,163L278,163L279,162L280,162L280,163L281,162L282,161L284,161L284,161L285,160L286,160L286,161L285,161L284,162L283,163L282,164L282,162L281,163L280,164L281,164L283,165L282,165L280,165L280,166L280,165L280,164L279,163L277,164L275,165L274,166L272,166L271,167L270,169L273,168L274,168L273,169L273,170L273,171L274,171L275,172L275,173L275,173L274,172L273,171L271,171L270,173L270,174L270,175L271,175L271,176L270,176L269,177L269,178L270,179L271,180L272,181L271,180L270,180L269,179L269,178L268,178L267,179L267,180L267,182L267,182L268,184L269,182L269,184L269,182L270,183L270,185L270,186L272,185L271,187L271,188L270,187L269,186L269,188L270,188L270,189L269,188L268,190L267,190L267,191L267,192L267,191L269,191L270,191L271,192L269,192L268,192L267,192L268,193L269,194L268,195L269,195L270,194L271,193L273,190L274,190L273,191L272,193L272,193L271,194L271,195L269,195L269,196L268,196L267,197L266,198L266,199L266,199L267,200L269,199L271,200L272,200Z M265,198L264,198L265,198L266,199Z M264,197L264,197L264,198L264,198Z M266,197L267,196L266,195L266,194L265,193L264,194L265,195L264,196L264,197L265,197Z M266,192L266,191L266,190L267,189L268,188L269,187L268,187L268,185L268,184L267,184L266,183L266,182L265,183L266,184L266,186L267,186L265,187L265,188L264,189L265,190L264,192L264,193Z M262,181L262,179L262,179L261,179L260,180L260,182L261,182L262,182Z M269,172L271,171L273,170L271,169L270,170L269,171L269,170L267,171L267,172L267,173L268,174Z M269,168L269,167L268,166L269,165L268,164L268,165L268,166L267,167L267,168L266,169L265,170Z M272,163L272,162L271,162L271,161L270,162L270,163L271,164Z M272,159L272,158L272,157L271,158L271,159L272,160Z M285,139L285,138L285,137L285,136L284,138L283,137L283,139L284,139L285,140Z M286,128L286,128L285,129L285,130Z M294,113L293,113L292,112L292,111L292,112L291,113L292,114L293,114Z M294,111L293,111L293,112L294,112Z M269,117L270,116L270,115L270,114L271,115L271,114L270,113L271,112L271,111L270,110L270,111L270,112L269,114L269,115L268,116L268,118L268,119Z M298,111L299,110L300,111L301,110L300,110L297,110L297,111Z M274,112L274,111L274,111L274,109L273,109L273,110L273,111L272,110L272,112L273,113Z M276,111L276,110L277,111L278,110L279,109L279,108L279,107L281,107L281,106L280,105L279,106L278,104L277,105L276,105L275,106L276,107L275,108L275,109L276,108L275,111L275,112Z M283,107L284,107L285,106L286,106L286,104L287,103L287,102L288,103L288,104L289,102L290,101L291,99L291,99L290,99L289,100L288,101L287,102L288,100L287,100L287,101L286,100L285,101L284,102L284,103L284,104L283,103L283,104L283,106L282,107L283,108Z M303,99L304,98L304,97L305,96L304,95L303,95L302,96L302,97L302,98L302,99Z M291,104L292,103L292,101L293,100L294,99L295,98L296,97L296,98L295,100L294,100L294,102L296,102L297,102L297,101L298,100L298,99L298,100L298,99L299,98L299,97L299,98L299,99L299,100L300,99L300,98L301,97L301,95L302,95L304,94L305,93L302,92L300,94L299,94L299,95L296,98L297,97L296,95L297,93L297,92L297,90L296,89L297,88L297,87L298,85L298,84L297,83L296,84L295,84L295,86L294,87L295,88L294,88L294,89L294,90L296,90L295,90L294,91L294,92L295,93L294,94L294,95L293,95L292,96L292,97L293,97L293,98L292,99L291,101L291,102L290,103L290,104Z M290,95L293,93L293,91L293,90L292,90L292,89L292,88L292,87L291,88L291,87L291,85L291,86L290,85L290,85L290,83L289,83L288,84L289,85L289,86L290,87L290,88L290,88L289,88L288,88L288,89L288,90L287,89L286,90L285,89L285,90L285,91L284,90L284,89L283,90L284,92L283,93L283,94L283,95L285,94L285,93L286,92L287,93L287,92L288,92L289,92L290,91L289,90L290,90L291,92L290,92L289,93L288,93L287,94L288,95Z M288,87L288,85L287,86L287,87L288,87Z M294,85L294,83L294,82L295,83L296,82L297,82L297,80L298,79L298,78L299,77L299,76L299,74L298,73L297,74L296,75L296,76L295,78L294,79L294,80L293,81L293,83L293,84L293,85L293,86Z M61,12L62,11L65,9L67,9L71,8L71,6L72,6L72,5L72,4L70,5L69,5L68,5L67,7L66,8L64,9L63,9L61,9L61,10L60,10L60,12Z " data-fips="JN00" data-hasc="NO.NO" data-name="Nordland" data-postal="NO" data-varname="Nordland fylke"/><path d="M309,93L314,92L316,91L318,91L321,90L322,92L323,92L325,91L328,93L331,92L336,93L342,94L344,90L341,89L342,87L343,85L343,82L343,81L343,78L340,76L345,74L346,72L350,73L350,72L348,69L348,68L350,66L354,66L358,71L358,71L363,69L363,68L364,67L364,66L363,65L363,64L361,62L360,61L359,60L359,58L362,57L363,56L363,55L363,54L364,53L363,52L362,52L360,51L360,50L359,49L359,47L359,46L358,46L356,45L355,43L353,41L352,41L351,41L351,42L350,41L348,40L347,40L344,40L345,41L346,41L347,41L347,42L348,43L349,43L350,44L351,42L352,42L353,41L353,42L352,43L351,44L352,44L354,44L353,45L354,46L353,45L352,45L352,46L353,47L353,48L354,49L353,49L355,50L355,52L354,51L353,50L351,48L350,48L349,47L349,46L347,45L346,45L346,47L346,48L347,49L346,49L346,50L346,51L346,50L345,50L345,51L344,52L344,51L343,50L344,49L344,48L342,50L342,51L342,53L341,54L340,54L340,56L340,57L341,58L342,59L343,60L344,61L342,61L342,60L340,60L340,61L340,63L339,65L338,68L337,68L337,67L338,65L339,64L339,63L339,62L339,61L339,60L339,59L339,58L338,57L338,55L338,54L338,53L338,52L338,51L336,49L336,50L336,51L335,50L335,52L335,53L335,55L334,53L334,55L334,56L333,57L334,58L334,59L335,59L336,60L335,60L333,60L333,62L333,63L333,64L332,65L333,64L333,63L333,62L333,60L332,58L332,57L332,56L332,54L330,55L329,56L328,56L327,57L326,57L326,58L325,61L326,63L327,62L328,62L329,63L328,62L326,64L327,65L328,66L329,67L330,67L331,68L332,69L332,70L333,71L332,71L331,71L330,70L329,70L330,70L331,69L331,68L328,68L327,67L326,66L326,65L325,64L325,63L322,64L321,65L321,66L322,66L323,67L324,68L327,69L327,70L325,69L324,70L324,71L323,70L323,69L323,71L323,72L322,71L322,69L322,68L321,68L321,67L320,66L319,66L318,67L319,68L318,69L318,70L317,72L318,73L319,73L319,74L320,75L318,75L317,76L315,77L315,78L314,79L314,81L314,82L313,83L314,83L316,82L317,84L316,83L315,84L314,85L317,86L317,87L317,86L315,86L314,86L313,87L312,88L313,88L314,88L315,89L317,90L315,90L314,89L313,89L312,89L311,90L312,91L311,91L310,90L309,90L308,90L307,91L306,92L306,93L306,95L307,95Z M299,95L299,94L300,94L302,92L305,93L305,93L305,92L305,91L305,90L305,89L304,88L305,86L304,87L303,86L301,85L302,86L301,86L300,88L301,88L301,89L300,90L300,91L300,92L299,91L298,93L298,94L298,95L297,94L297,93L298,92L299,91L299,89L298,88L297,89L298,89L298,87L298,86L298,85L298,84L298,85L297,87L297,88L296,89L297,90L297,92L297,93L296,95L297,97L296,98Z M311,88L311,87L310,86L309,85L308,87L308,88L308,89Z M312,86L313,85L313,83L312,83L311,83L311,85L311,84L310,83L310,84L311,85L311,86Z M305,85L305,83L304,83L303,82L302,82L301,83L302,84L303,85Z M310,79L310,78L312,75L313,75L313,76L314,76L315,75L316,75L317,74L316,73L317,72L317,71L317,70L318,70L318,69L317,67L316,68L317,67L317,66L316,65L315,66L315,67L315,66L315,65L314,63L314,64L313,63L313,65L313,66L311,64L311,65L312,66L313,67L312,66L311,66L310,66L310,67L309,67L308,67L310,68L311,69L310,69L311,70L310,70L308,70L307,70L306,70L306,71L308,71L309,72L306,72L307,73L309,73L309,74L307,75L308,76L309,76L308,77L307,78L306,79L307,80L309,79L309,80L310,80Z M313,80L314,79L314,78L312,79L312,80L313,81Z M321,63L322,62L324,62L324,61L323,60L324,59L325,59L326,57L326,56L325,55L324,54L323,54L323,54L321,54L322,55L323,56L323,57L323,59L322,59L322,57L321,56L320,57L319,57L319,58L319,59L322,59L320,59L319,59L317,59L319,62L319,62L318,62L317,62L316,62L316,63L318,64L319,64Z M341,53L341,52L341,51L341,50L340,51L340,52L340,53Z M331,53L332,52L332,51L332,49L331,49L331,50L330,51L329,52L329,54Z M329,54L329,53L329,52L329,50L330,50L331,49L329,48L329,48L328,48L328,50L327,48L326,48L326,47L324,48L324,49L323,49L322,50L324,51L323,52L322,52L323,53L325,55L326,56Z M322,50L323,49L323,48L322,47L322,48L322,48L321,48L321,49L321,50L321,51Z M343,48L343,47L344,46L343,46L342,46L341,46L341,47L342,48Z M340,45L341,45L340,44L340,44L340,42L340,41L339,40L338,42L337,42L337,43L337,45L337,46L338,46L339,45L339,46Z M329,46L327,45L327,46L328,46L329,46Z M342,44L341,43L341,44L342,45Z M326,46L326,45L325,44L325,43L324,43L324,44L324,45L324,46L325,47Z M333,47L333,46L334,45L332,44L331,43L331,43L330,43L330,42L329,41L328,42L329,43L330,44L331,45L331,46L332,47Z " data-fips="NO18" data-hasc="NO.TR" data-name="Troms" data-postal="TR" data-varname="Troms fylke|Troms|Troms-Fylki"/><path d="M202,285L203,284L206,284L206,283L208,282L209,282L210,281L211,280L211,279L212,280L214,280L215,279L216,278L217,275L219,275L220,275L223,274L226,274L227,275L230,273L230,272L231,270L231,269L230,269L227,264L232,262L233,262L234,260L233,259L234,258L235,256L234,256L234,255L234,254L234,252L234,252L233,251L232,251L231,251L231,252L230,253L228,253L226,253L226,252L226,251L223,252L222,253L223,254L222,253L218,253L219,253L219,255L218,254L217,254L218,255L218,256L219,256L220,257L219,257L220,258L221,257L222,256L222,257L223,258L220,258L222,260L223,260L224,262L223,261L222,260L220,260L221,261L219,260L219,259L219,258L218,257L217,256L216,255L216,254L215,254L215,255L214,256L214,257L215,257L216,258L217,259L217,260L217,261L218,262L220,263L221,264L222,265L222,267L221,265L220,265L218,263L217,262L216,261L216,259L216,258L214,258L213,258L210,259L212,258L212,257L211,257L210,258L208,259L207,258L206,257L205,256L204,257L203,257L202,258L200,259L201,260L202,261L204,261L205,262L202,262L201,263L201,264L206,264L208,263L211,263L208,263L206,264L207,266L209,266L210,265L214,264L216,263L216,264L216,266L215,265L214,265L213,264L209,266L208,267L208,269L208,268L207,267L207,268L208,269L212,269L209,270L209,271L208,270L207,270L206,268L204,267L203,268L203,269L203,268L202,267L203,267L200,267L200,268L198,266L197,267L196,268L196,267L192,268L192,269L192,270L196,270L195,270L196,270L197,271L195,271L194,271L193,271L192,272L193,272L194,273L195,273L197,271L199,272L200,272L200,273L198,272L197,273L196,274L196,275L195,274L194,274L193,274L194,276L195,278L196,281L195,282L195,280L194,278L193,277L193,276L193,275L191,274L189,275L188,277L188,278L188,279L187,279L188,279L188,281L189,282L193,283L191,282L190,282L188,282L187,281L187,282L186,283L187,281L187,279L186,279L185,279L184,280L184,281L185,282L183,281L183,280L181,279L180,280L180,281L182,282L181,284L181,284L182,285L184,285L185,285L187,285L189,285L190,285L191,285L192,285L193,285L194,284L197,283L199,286Z M202,282L202,282L201,282L200,281L201,279L201,277L200,275L200,274L200,273L200,275L201,276L202,276L203,277L205,277L206,277L207,279L206,278L205,277L204,278L203,277L202,278L202,279L202,280L201,281L202,282L203,282L204,282Z M185,279L185,278L185,276L184,276L184,276L182,276L182,277L183,278L181,278L182,279L184,279Z M185,275L185,274L184,274L184,275Z M189,275L188,274L188,273L188,272L186,273L186,274L186,275L186,276L186,277Z M192,273L191,272L191,272L189,272L190,273Z M198,266L200,264L200,264L198,264L197,265L197,266Z M201,262L200,261L199,261L199,261L199,262L200,263Z M210,257L211,256L210,255L210,254L209,255L209,256L208,255L207,255L208,256L207,257L209,258Z M213,256L214,255L213,254L211,254L211,255L212,256Z M219,252L219,252L218,251L217,251L218,252Z M217,252L217,251L217,250L215,250L214,252L215,253Z M222,252L222,251L221,250L220,249L220,250L219,249L218,249L219,251L219,252L220,252Z M226,251L226,250L226,249L227,247L226,246L225,245L225,245L224,245L223,246L224,247L225,247L224,248L222,249L222,250L223,251Z M216,247L217,247L217,246L217,245L216,243L215,244L214,245L212,245L212,246L214,247L215,248Z " data-fips="NO08" data-hasc="NO.MR" data-name="Mre og Romsdal" data-postal="MR" data-varname="Moere og Romsdal fylk|Mre|Romsdal"/><path d="M238,277L239,276L239,275L240,275L241,274L242,273L242,271L242,270L242,269L243,267L245,265L248,265L250,265L251,266L251,265L252,265L256,265L256,266L256,267L257,269L261,272L261,273L263,273L264,274L265,273L268,274L270,275L271,274L271,274L268,268L268,266L269,265L269,263L268,259L268,258L269,256L267,250L267,250L262,250L259,247L252,246L252,245L252,244L250,244L249,244L247,244L246,244L245,244L244,243L242,244L241,244L241,246L242,246L244,247L244,248L244,249L243,247L242,247L241,246L240,247L238,247L240,246L240,244L239,243L238,241L238,241L237,240L236,238L235,239L235,240L235,241L233,241L233,242L233,241L232,241L231,242L230,243L230,244L231,243L232,244L234,243L230,245L231,246L233,246L231,247L230,247L229,249L229,247L230,246L229,245L228,244L227,245L226,245L225,245L225,245L226,246L227,247L226,249L226,250L226,251L227,251L226,251L226,252L226,253L228,253L230,253L231,252L231,251L232,251L233,251L234,252L234,252L234,254L234,255L234,256L235,256L234,258L233,259L234,260L233,262L232,262L227,264L230,269L231,269L231,270L230,272L230,273L231,275L235,277L236,277Z M229,238L229,238L228,239L229,239Z M221,245L222,244L224,243L226,243L229,242L229,240L228,240L227,239L227,238L226,238L226,239L225,239L222,240L224,241L223,241L220,241L219,243L219,244L220,245Z M222,238L224,237L225,236L225,235L225,234L225,234L224,235L222,236L218,237L220,238L221,237L222,237L221,238Z M241,242L243,241L242,240L243,239L243,238L245,236L247,235L247,234L247,232L248,231L250,229L250,228L250,227L251,226L251,225L250,224L250,222L251,222L252,220L251,219L249,218L249,217L248,217L248,217L247,216L246,217L247,217L247,218L246,218L247,219L245,219L246,220L245,220L244,221L243,222L244,222L245,223L243,222L242,223L242,224L241,225L242,225L241,225L240,225L240,226L240,227L240,228L240,229L241,229L240,230L241,230L242,230L241,231L239,231L238,232L236,234L235,235L237,235L235,237L235,238L236,237L237,236L238,236L240,235L241,234L241,235L241,235L241,236L239,236L238,237L238,238L238,239L239,240L239,241L239,242L240,243Z " data-fips="NO16" data-hasc="NO.ST" data-name="Sr-Trndelag" data-postal="ST" data-varname="Soer-Troendelag fylke|Sndre Trondhjem|Suur-rndalg"/><path d="M217,394L218,393L219,392L220,392L221,391L221,390L223,389L224,388L224,387L224,386L225,386L227,383L227,382L228,382L229,382L230,380L231,380L230,380L231,379L230,378L230,379L229,378L232,378L233,378L234,377L234,377L231,376L231,374L231,373L229,371L228,370L226,371L225,372L226,373L225,374L225,375L224,374L223,373L222,372L220,373L220,372L218,372L217,372L216,371L215,371L214,371L213,371L211,367L210,366L210,365L210,363L210,362L208,360L208,359L207,358L208,358L208,356L207,355L207,354L207,353L206,352L206,351L205,352L204,351L203,351L202,351L201,351L200,352L199,353L199,354L199,355L199,357L198,357L198,358L197,359L197,360L196,361L197,363L197,365L198,364L199,365L201,365L201,366L201,368L201,369L201,370L201,371L201,372L200,374L200,375L202,375L204,374L205,374L208,374L208,375L209,377L209,378L208,379L207,380L207,381L207,383L207,383L207,385L208,386L209,385L210,386L211,387L212,387L213,388L213,389L214,389L215,389L215,390L217,392L217,393L216,394L217,395Z " data-fips="NO02" data-hasc="NO.AA" data-name="Aust-Agder" data-postal="AA" data-varname="Aust-Agder fylke|Austur-Agir|Nedenes"/><path d="M174,356L175,355L176,355L176,354L177,354L178,353L178,352L178,351L178,350L178,349L177,349L176,350L177,351L176,353L176,351L175,351L175,352L174,354L173,355L173,356Z M178,347L178,346L178,345L177,344L177,342L175,342L175,343L175,344L175,345L175,347L176,347L177,348Z M179,354L180,353L181,353L183,353L184,352L185,352L188,352L188,351L189,350L189,348L190,347L191,347L192,346L193,346L194,346L195,347L195,348L194,349L195,350L196,350L200,348L201,348L202,347L202,346L202,344L203,342L205,342L206,340L206,339L207,338L208,337L208,334L209,332L209,330L210,328L209,327L209,324L208,323L207,322L200,321L199,319L198,319L198,318L197,317L197,316L198,315L197,315L196,314L195,315L194,316L193,314L191,315L190,316L189,315L188,314L188,313L188,313L187,312L185,314L184,313L182,313L181,313L180,314L178,314L176,314L175,315L175,316L174,317L174,317L175,317L177,318L177,316L178,316L179,316L180,317L179,316L178,317L177,318L176,319L176,320L177,320L178,321L178,322L178,323L177,323L177,322L176,320L175,320L174,319L172,319L173,320L174,321L175,322L175,323L174,322L174,323L175,325L176,325L177,325L178,324L180,323L180,321L181,321L182,320L182,321L182,322L182,323L182,324L182,326L182,328L181,328L181,329L179,329L178,328L177,327L176,326L175,327L175,329L176,330L174,330L174,331L174,332L174,333L176,334L175,335L177,335L176,336L177,337L178,336L179,335L180,332L181,331L182,331L181,331L181,332L180,333L180,334L181,334L180,335L181,335L180,336L180,337L181,336L182,336L183,336L181,336L182,338L181,339L182,339L181,340L181,341L182,342L183,341L184,340L184,339L184,337L185,336L185,335L186,334L187,335L188,333L188,332L188,331L189,330L189,329L189,328L189,329L189,330L190,330L191,329L193,329L194,329L195,328L194,329L195,329L196,328L198,328L198,327L199,326L200,325L199,327L199,328L201,328L200,328L199,328L197,328L196,329L195,331L195,332L194,334L194,335L193,337L193,338L193,339L193,338L193,336L193,334L194,333L194,331L195,330L194,329L193,330L191,331L190,332L190,333L189,333L188,334L188,335L187,337L187,338L188,338L189,337L190,338L187,339L186,340L185,341L185,343L183,343L182,343L182,345L180,346L181,345L182,347L183,348L184,347L185,346L184,347L185,348L186,348L187,347L188,347L187,347L185,349L183,349L182,350L182,351L183,351L182,351L181,352L181,351L179,350L178,351L178,353L178,354Z M173,351L173,350L173,349L174,348L175,348L175,349L175,350L176,349L175,348L175,347L174,346L173,345L172,345L172,346L173,347L173,348L172,350L172,352L173,352Z M180,344L180,342L181,341L181,339L180,339L179,339L179,339L178,340L178,341L176,341L177,342L178,342L179,344Z M176,340L175,339L174,338L174,339L174,338L174,339L174,340L175,341Z M173,334L172,333L173,332L173,331L172,329L171,328L171,329L171,330L171,331L172,332L171,333L171,334L172,334L173,335Z M175,329L175,328L174,327L172,326L172,325L172,326L173,327L173,328L174,328L174,329Z M170,323L169,322L169,323L170,324Z M180,328L181,328L182,328L181,326L182,324L181,322L180,322L180,324L179,324L178,325L177,325L178,326L178,328L179,329Z " data-fips="NO07" data-hasc="NO.HO" data-name="Hordaland" data-postal="HO" data-varname="Hordaland fylke|Hraland|Sndre Bergenhus"/><path d="M190,390L192,389L193,389L193,387L192,384L193,383L192,382L192,381L191,381L191,380L193,379L192,377L192,377L192,376L193,374L193,373L193,372L196,368L196,367L197,366L197,365L198,364L197,365L197,363L196,361L197,360L197,359L198,358L198,357L199,357L199,355L199,354L199,353L200,352L201,351L202,351L203,351L201,349L201,348L200,348L196,350L195,350L194,349L195,348L195,347L194,346L193,346L192,346L191,347L190,347L189,348L189,350L188,351L188,352L185,352L184,352L183,353L181,353L180,353L179,354L178,354L178,354L176,355L175,355L174,356L173,356L173,356L174,357L175,359L175,358L175,359L176,360L176,359L177,358L176,360L176,361L177,362L178,361L178,360L179,359L179,360L179,361L180,360L181,360L182,360L183,359L182,358L180,357L181,356L182,357L182,356L182,354L183,355L183,356L186,356L187,356L183,358L183,359L184,360L185,359L184,358L185,358L186,358L187,357L188,355L188,354L189,352L189,351L189,353L189,354L189,355L190,354L193,354L191,354L188,356L188,357L187,358L186,358L185,359L185,360L186,360L186,361L188,360L188,361L186,362L187,362L190,361L191,361L189,361L188,362L187,363L186,363L185,364L185,366L186,366L185,366L183,367L182,367L183,369L184,369L184,370L184,371L185,373L187,370L189,369L193,369L187,370L186,371L185,372L185,373L186,374L187,375L185,374L184,373L183,372L182,371L181,372L180,372L180,373L180,372L180,370L178,369L178,370L178,372L177,371L178,372L178,373L177,374L177,376L176,377L177,378L177,379L177,380L178,382L178,382L180,383L180,384L183,385L183,386L184,387L185,388L186,389L187,389L188,390L188,391L189,391Z M181,366L180,366L179,366L179,366L179,367L181,367Z M177,364L177,363L175,363L176,364L176,365Z M185,363L186,362L184,362L183,363L185,363Z M174,364L174,363L174,362L174,361L174,361L174,360L174,359L173,358L173,359L173,360L173,361L172,362L172,364L172,365Z " data-fips="NO14" data-hasc="NO.RO" data-name="Rogaland" data-postal="RO" data-varname="Rogaland fylke|Stavanger"/><path d="M171,315L170,314L170,314L170,315L172,316Z M169,311L169,311L169,310L168,310L168,312L169,312Z M171,309L172,310L173,309L172,307L172,308L172,308L171,307L171,309L170,308L170,309L170,310Z M209,320L210,319L211,317L212,316L214,316L215,315L216,314L217,313L217,312L217,311L215,308L215,307L216,306L217,304L216,302L217,301L218,300L217,299L214,297L213,296L213,294L213,293L212,292L211,292L208,292L207,291L207,290L206,289L206,288L207,286L206,285L206,284L203,284L202,285L199,286L197,283L194,284L193,285L192,285L191,285L190,285L189,285L187,285L185,285L184,285L182,285L181,284L181,284L181,284L181,283L180,282L179,281L178,279L178,279L177,278L176,279L176,280L176,281L177,281L179,283L180,284L179,283L178,284L177,285L176,285L176,286L177,287L178,287L179,286L180,286L181,286L183,287L187,287L184,288L185,288L186,288L188,288L189,289L191,289L194,290L195,288L197,288L198,289L197,289L196,288L195,289L194,290L192,290L191,289L188,289L189,290L189,291L188,290L187,289L187,291L186,292L187,290L187,289L184,289L183,289L184,289L183,288L182,287L181,287L179,287L179,289L177,289L176,290L175,291L176,291L176,292L175,291L174,291L173,292L173,293L174,294L177,295L178,294L177,295L179,295L180,296L178,296L176,296L179,297L177,297L176,297L176,298L178,299L179,299L180,300L181,299L183,299L184,299L184,300L183,299L182,300L181,300L180,300L178,299L177,300L176,300L174,300L173,301L175,301L174,301L173,302L175,303L176,302L181,302L182,303L179,302L177,303L178,304L177,305L177,303L176,303L175,304L174,304L173,305L174,305L173,306L176,306L176,308L175,307L174,308L175,308L176,309L177,309L178,310L179,310L181,309L182,309L183,308L184,307L184,308L186,308L187,308L186,308L188,309L189,308L190,309L191,310L192,310L193,310L194,309L193,307L194,307L195,306L196,305L197,302L196,303L196,304L195,306L194,307L196,308L198,308L199,309L201,308L200,309L200,310L201,310L203,309L204,308L205,309L205,308L205,307L204,306L204,305L205,303L204,302L205,303L207,301L206,302L206,303L205,304L205,305L205,306L205,308L207,308L209,308L210,307L209,308L206,309L205,310L206,311L205,310L203,310L203,310L201,310L201,311L201,313L202,315L203,315L202,316L202,317L202,315L201,315L200,314L199,315L200,314L201,313L200,312L200,311L199,311L198,310L198,309L195,309L194,311L192,311L191,312L191,311L190,311L189,310L188,310L186,310L185,309L185,310L184,311L183,310L182,310L181,311L180,311L179,311L179,313L178,312L177,311L176,311L174,310L173,311L173,312L174,313L175,313L174,314L174,315L174,314L173,314L173,315L173,316L174,317L175,316L175,315L176,314L178,314L180,314L181,313L182,313L184,313L185,314L187,312L188,313L188,313L188,314L189,315L190,316L191,315L193,314L194,316L195,315L196,314L197,315L198,315L197,316L197,317L198,318L198,319L199,319L200,321L207,322Z M174,290L176,289L177,288L174,287L172,287L172,288L172,289L173,290Z M176,285L176,284L175,284L174,283L174,284L175,285L175,286L176,286Z " data-fips="NO15" data-hasc="NO.SF" data-name="Sogn og Fjordane" data-postal="SF" data-varname="Sogn og Fjordane fyl|Nordre Bergenhus|Sogn og Fira-Fylki"/><path d="M199,398L201,398L202,398L204,398L208,398L208,397L210,397L212,397L213,396L214,394L214,393L214,394L214,395L214,396L215,396L216,396L217,395L216,394L217,393L217,392L215,390L215,389L214,389L213,389L213,388L212,387L211,387L210,386L209,385L208,386L207,385L207,383L207,383L207,381L207,380L208,379L209,378L209,377L208,375L208,374L205,374L204,374L202,375L200,375L200,374L201,372L201,371L201,370L201,369L201,368L201,366L201,365L199,365L198,364L197,365L197,366L196,367L196,368L193,372L193,373L193,374L192,376L192,377L192,377L193,379L191,380L191,381L192,381L192,382L193,383L192,384L193,387L193,389L192,389L190,390L189,391L191,391L192,392L193,391L193,390L193,391L194,392L195,391L196,391L194,392L193,394L192,394L191,396L192,397L195,397L194,396L194,395L194,394L194,395L195,395L195,394L196,395L197,395L196,395L196,396L197,396L197,397L198,396L198,398L199,397L200,396L200,397L199,397L198,398L199,399Z " data-fips="NO19" data-hasc="NO.VA" data-name="Vest-Agder" data-postal="VA" data-varname="Vest-Agder fylke|Lister og Mandal|Vestur-Agir"/><path d="M253,356L254,355L254,354L255,353L255,352L256,351L257,350L258,350L261,349L261,348L262,348L263,350L264,350L264,351L264,352L266,350L267,349L267,348L268,347L269,347L269,346L269,344L269,344L269,343L268,341L268,339L267,338L265,336L264,335L264,333L263,332L262,331L262,330L261,328L260,328L260,327L259,326L259,325L258,324L258,326L257,327L254,328L253,327L252,327L252,328L252,329L254,330L255,332L253,335L253,336L253,337L252,337L253,338L253,339L254,341L256,342L256,346L255,347L253,346L253,347L253,348L253,349L252,348L252,346L251,347L251,349L251,350L251,351L252,353L252,354L252,355L253,357Z " data-fips="NO01" data-hasc="NO.AK" data-name="Akershus" data-postal="AK" data-varname="Akershus fylke"/><path d="M239,357L243,356L242,354L242,353L242,352L243,352L245,351L247,351L247,351L246,350L247,350L248,350L249,352L249,353L249,354L249,355L250,356L250,355L251,354L251,353L251,352L250,351L250,350L249,349L249,348L248,347L247,347L247,345L248,344L248,342L249,341L250,340L250,337L248,335L246,333L245,331L245,330L245,328L244,326L243,324L243,323L241,324L241,325L239,325L239,327L240,328L239,328L237,327L236,326L235,326L234,326L234,324L232,321L232,320L231,319L228,317L226,316L224,316L223,315L223,314L222,313L220,313L219,311L218,311L217,312L217,313L216,314L215,315L214,316L212,316L211,317L210,319L209,320L207,322L208,323L209,324L209,327L210,328L209,330L209,332L208,334L208,337L207,338L206,339L209,338L210,338L212,338L216,337L218,337L220,337L226,338L227,338L227,339L228,341L228,342L230,343L230,344L231,345L231,347L232,347L233,348L233,349L234,350L234,351L235,352L235,354L235,355L235,356L236,356L237,357L238,358Z " data-fips="NO04" data-hasc="NO.BU" data-name="Buskerud" data-postal="BU" data-varname="Buskerud fylke"/><path d="M270,344L273,344L275,342L277,339L277,338L278,337L278,336L278,335L277,333L277,331L278,330L279,329L279,328L278,326L277,322L275,319L274,318L274,317L273,314L273,313L273,312L277,311L279,310L279,308L280,306L281,305L281,301L277,297L276,296L274,296L272,294L270,292L272,277L272,276L271,274L270,275L268,274L265,273L264,274L263,273L261,273L261,272L257,269L256,267L256,266L256,265L252,265L251,265L251,266L250,265L248,265L245,265L243,267L242,269L242,270L242,271L242,273L241,274L240,275L239,275L239,276L238,277L237,280L237,281L239,282L240,284L239,285L239,286L239,287L239,288L241,288L242,288L243,289L242,291L242,292L246,293L247,294L248,293L249,292L250,293L251,298L251,300L253,305L252,306L252,307L250,310L249,312L248,312L249,313L250,314L252,317L252,318L252,319L253,320L257,322L258,323L259,325L259,326L260,327L260,328L261,328L262,330L262,331L263,332L264,333L264,335L265,336L267,338L268,339L268,341L269,343L269,344L269,344Z " data-fips="NO06" data-hasc="NO.HE" data-name="Hedmark" data-postal="HE" data-varname="Hedmark fylke|Hedemarken|Heimrk"/><path d="M253,337L253,336L253,335L255,332L254,330L252,329L252,328L252,327L253,327L254,328L257,327L258,326L258,324L258,323L257,322L253,320L252,319L252,318L252,317L250,314L249,313L248,312L249,312L250,310L252,307L252,306L253,305L251,300L251,298L250,293L249,292L248,293L247,294L246,293L242,292L242,291L243,289L242,288L241,288L239,288L239,287L239,286L239,285L240,284L239,282L237,281L237,280L238,277L236,277L235,277L231,275L227,275L226,274L223,274L220,275L219,275L217,275L216,278L215,279L214,280L212,280L211,279L211,280L210,281L209,282L208,282L206,283L206,284L206,285L207,286L206,288L206,289L207,290L207,291L208,292L211,292L212,292L213,293L213,294L213,296L214,297L217,299L218,300L217,301L216,302L217,304L216,306L215,307L215,308L217,311L217,312L218,311L219,311L220,313L222,313L223,314L223,315L224,316L226,316L228,317L231,319L232,320L232,321L234,324L234,326L235,326L236,326L237,327L239,328L240,328L239,327L239,325L241,325L241,324L243,323L243,324L244,326L245,328L245,330L245,331L246,333L248,335L250,337L252,337Z " data-fips="NO11" data-hasc="NO.OP" data-name="Oppland" data-postal="OP" data-varname="Oppland fylke|Kristian|Opland|Upplnd"/><path d="M249,346L250,345L251,345L252,344L253,345L253,346L255,347L256,346L256,342L254,341L253,339L253,338L252,337L250,340L249,341L248,342L248,344L247,345L247,347L248,347L249,348Z " data-fips="NO12" data-hasc="NO.OS" data-name="Oslo" data-postal="OS" data-varname="Oslo fylke|Kristiania"/><path d="M234,376L234,375L233,375L232,375L233,375L234,374L235,374L236,373L235,373L237,372L238,371L239,370L238,370L237,368L236,367L238,367L238,368L239,369L240,369L240,370L241,370L241,368L241,367L240,366L241,365L241,364L241,363L239,360L238,358L237,357L236,356L235,356L235,355L235,354L235,352L234,351L234,350L233,349L233,348L232,347L231,347L231,345L230,344L230,343L228,342L228,341L227,339L227,338L226,338L220,337L218,337L216,337L212,338L210,338L209,338L206,339L206,340L205,342L203,342L202,344L202,346L202,347L201,348L201,349L203,351L204,351L205,352L206,351L206,352L207,353L207,354L207,355L208,356L208,358L207,358L208,359L208,360L210,362L210,363L210,365L210,366L211,367L213,371L214,371L215,371L216,371L217,372L218,372L220,372L220,373L222,372L223,373L224,374L225,375L225,374L226,373L225,372L226,371L228,370L229,371L231,373L231,374L231,376L234,377L234,377Z " data-fips="NO17" data-hasc="NO.TE" data-name="Telemark" data-postal="TE" data-varname="Telemark fylke|Bratsberg|elamrk"/><path d="M243,372L243,371L244,370L245,369L245,370L246,369L246,368L246,367L247,369L247,368L247,369L247,367L247,366L248,365L248,364L248,363L250,363L250,362L250,361L249,360L249,359L249,358L248,357L247,356L246,355L248,355L248,354L248,352L248,351L247,351L245,351L243,352L242,352L242,353L242,354L243,356L239,357L239,360L241,363L241,364L241,365L240,366L241,367L241,368L241,370L240,370L240,370L241,372Z M249,353L249,352L248,350L248,351L248,352L249,354Z " data-fips="NO20" data-hasc="NO.VF" data-name="Vestfold" data-postal="VF" data-varname="Vestfold fylke|Jarlsberg og Larvik"/><path d="M267,373L267,372L268,370L268,369L268,367L268,366L269,364L269,363L269,361L268,359L267,353L267,352L269,351L269,350L270,349L270,348L269,347L268,347L267,348L267,349L266,350L264,352L264,351L264,350L263,350L262,348L261,348L261,349L258,350L257,350L256,351L255,352L255,353L254,354L254,355L253,356L253,357L253,357L252,358L252,357L251,358L252,359L252,360L253,361L254,361L253,363L253,364L254,363L254,364L255,366L256,365L256,366L257,365L258,366L259,366L259,365L259,366L260,365L260,366L261,367L262,367L263,368L263,369L264,370L264,371L265,373Z " data-fips="NO13" data-hasc="NO.OF" data-name="stfold" data-postal="OF" data-varname="Oestfold fylke"/><path d="M267,250L267,250L266,248L268,243L269,242L268,239L269,237L271,233L274,228L274,227L277,225L280,224L290,225L291,221L291,220L290,213L290,212L288,212L284,210L290,198L291,194L290,193L283,195L282,195L279,195L277,195L277,196L276,197L275,197L275,198L273,199L272,200L271,200L269,199L267,200L266,199L266,199L266,199L265,198L264,197L264,197L264,198L263,197L262,198L261,199L261,200L259,200L258,201L257,201L259,202L258,202L256,202L255,203L260,202L258,203L255,204L257,205L256,206L255,207L257,206L257,205L258,204L259,203L261,202L263,200L264,200L265,200L266,201L264,201L263,201L261,202L260,203L260,204L261,204L260,205L261,205L259,207L258,207L257,208L257,209L258,210L259,211L259,210L260,211L261,211L260,211L259,212L259,213L258,213L257,215L260,214L258,215L257,215L257,217L256,217L255,219L255,217L256,216L255,215L254,215L254,214L253,213L253,211L251,211L251,212L251,213L251,214L250,214L250,215L249,215L248,215L249,215L250,216L250,218L249,217L248,216L247,216L248,217L249,217L249,218L251,219L252,220L251,222L250,222L250,224L251,225L251,226L250,227L250,228L250,229L248,231L247,232L247,234L247,235L245,236L243,238L243,239L242,240L243,241L243,241L245,241L246,240L247,239L248,238L248,237L250,237L250,236L252,236L253,234L253,233L254,233L253,231L251,231L250,232L249,233L247,234L248,233L249,232L251,231L252,229L255,227L255,226L257,225L256,226L256,227L257,227L259,227L258,228L256,229L255,229L255,230L254,231L254,232L256,232L257,232L258,233L258,234L257,234L256,235L255,235L254,236L253,236L252,237L251,238L250,239L249,240L249,241L250,240L251,240L252,239L251,240L252,241L251,241L250,242L251,243L252,244L252,245L252,246L259,247L262,250Z M257,214L257,212L255,212L255,211L254,210L252,210L253,211L255,212L254,212L255,213L256,214Z M258,212L257,211L256,210L256,210L256,211L257,212Z M256,209L256,208L254,209L254,210L255,210L256,210Z M254,203L254,202L254,201L253,201L250,204L251,203L252,202L253,203L252,204L253,204Z M249,203L250,203L251,202L253,200L252,200L251,201L250,202L249,202L249,203L249,204Z M260,198L260,197L261,196L261,196L259,196L258,196L258,197L258,198Z " data-fips="NO10" data-hasc="NO.NT" data-name="Nord-Trndelag" data-postal="NT" data-varname="Nord-Troendelag fylke|Nordre Trondhjem|Norur-rndalg"/><path d="M376,78L377,77L378,76L378,75L378,74L379,73L382,74L382,75L384,75L386,75L388,75L389,76L390,77L391,78L391,77L392,76L393,75L392,73L392,72L392,70L393,68L394,67L396,67L396,66L396,64L396,63L396,62L395,61L395,60L395,59L394,58L394,55L394,53L394,52L394,51L394,50L393,48L394,47L394,46L393,45L393,44L395,42L395,41L395,40L396,39L396,37L396,36L398,35L400,35L401,35L402,35L403,34L404,32L404,31L405,30L406,29L407,29L408,29L409,30L412,32L414,34L416,34L423,36L424,38L427,40L426,43L424,49L425,50L425,52L427,53L428,53L429,52L429,50L429,48L429,47L428,45L429,44L431,43L432,42L433,41L434,40L434,38L434,37L434,36L434,35L434,34L433,33L434,33L437,35L439,34L440,33L440,32L439,30L439,28L438,27L437,26L437,28L436,27L434,28L434,29L435,30L434,31L434,30L433,28L433,27L432,27L431,26L431,27L431,28L432,29L431,30L432,32L431,31L430,32L430,31L430,30L429,31L427,32L426,34L427,33L427,32L427,30L427,29L427,28L426,27L425,28L424,28L423,29L424,28L424,27L425,26L422,25L420,26L419,25L417,25L415,25L416,25L415,25L414,24L415,23L414,23L419,23L428,21L430,19L429,18L430,17L430,15L434,14L435,13L434,12L434,11L432,9L432,9L431,10L430,9L428,7L426,7L424,9L423,9L424,8L425,8L425,7L424,6L422,6L423,5L421,4L421,5L420,7L419,8L419,6L418,5L417,6L416,7L415,8L415,7L415,6L414,6L415,4L413,4L413,3L411,3L408,4L408,6L408,7L408,8L408,9L409,10L408,10L408,12L408,14L409,15L410,15L410,16L409,15L408,16L408,17L408,18L408,19L408,20L409,22L409,23L409,24L410,25L410,26L409,27L410,26L409,24L409,23L408,22L408,20L407,19L407,18L408,16L408,15L407,16L406,18L406,17L407,16L405,16L404,17L404,18L404,17L405,16L405,15L406,14L406,13L406,11L405,10L405,11L402,14L401,14L402,13L403,12L404,11L404,9L403,10L402,9L401,10L401,9L402,8L404,8L405,8L404,7L405,6L405,5L406,4L406,2L405,1L403,2L403,3L402,2L402,1L401,0L400,1L400,2L399,2L397,2L396,1L396,2L396,3L397,4L396,5L396,4L393,4L394,5L395,6L393,7L394,8L396,8L396,7L396,8L397,8L397,9L399,9L396,9L396,10L396,12L395,13L396,14L396,15L397,16L396,16L395,16L395,17L395,18L396,20L395,20L394,21L394,22L393,22L393,23L393,24L392,24L392,22L392,21L392,20L392,19L391,16L390,16L389,17L391,14L391,13L391,12L391,11L390,11L390,9L390,8L389,8L387,11L387,12L387,13L386,14L386,15L386,16L386,18L386,19L385,20L384,24L383,28L384,29L384,30L383,32L383,33L383,34L382,35L381,35L382,34L380,34L381,35L381,36L380,35L380,34L379,33L379,32L380,31L380,29L379,28L380,27L381,27L380,25L380,24L378,24L380,24L380,23L378,23L379,22L380,20L380,19L381,17L382,17L381,15L382,15L382,13L383,12L382,11L381,12L380,12L380,13L379,13L379,12L379,11L377,10L378,12L378,13L377,15L377,13L375,13L375,14L374,14L375,12L374,12L374,13L373,13L372,12L371,13L371,14L371,14L372,15L371,16L372,16L372,17L371,17L370,16L369,16L368,17L369,18L370,19L371,19L372,19L373,20L374,20L374,22L373,22L371,21L370,21L370,23L370,24L369,25L371,26L371,27L370,26L367,26L367,27L366,29L366,30L365,31L365,32L366,33L364,34L363,35L365,35L364,35L364,36L365,36L364,37L365,38L364,39L363,40L365,41L367,41L366,42L366,43L365,42L364,43L363,42L363,41L362,41L362,40L361,39L360,40L358,41L356,42L355,43L356,41L357,41L359,40L360,39L361,37L357,37L356,37L355,37L355,38L355,39L357,40L356,40L355,39L354,38L354,37L353,36L352,36L352,38L352,36L351,37L351,36L350,38L350,39L350,40L350,39L349,38L347,38L346,37L347,39L347,40L346,38L345,39L344,40L347,40L348,40L350,41L351,42L351,41L352,41L353,41L355,43L356,45L358,46L359,46L359,47L359,49L360,50L360,51L362,52L363,52L364,53L363,54L363,55L363,56L362,57L359,58L359,60L360,61L361,62L363,64L363,65L364,66L364,67L363,68L363,69L358,71L358,71L359,72L361,74L361,75L362,76L364,77L365,80L367,79L369,80L372,79L373,80Z M349,37L349,35L348,34L348,35L348,37L349,38Z M361,35L360,34L358,34L357,32L357,34L357,33L357,32L356,33L355,33L356,35L355,34L354,35L355,36L358,36Z M362,34L363,33L364,32L365,29L365,28L365,27L364,26L364,25L363,24L362,25L362,25L363,26L362,27L362,28L362,29L361,28L360,27L360,28L359,29L358,30L359,31L358,32L360,33L361,32L361,31L361,32L361,33L361,35Z M352,29L353,30L354,30L354,29L355,30L355,29L356,28L357,28L358,28L357,27L358,26L359,26L359,25L360,24L359,23L361,22L360,21L361,20L361,19L360,18L359,18L360,19L360,21L359,20L358,20L358,21L358,22L358,23L358,24L357,24L356,23L356,22L355,23L356,24L356,25L356,26L355,25L354,25L355,24L353,24L353,25L352,24L352,25L353,26L351,26L351,27L349,27L350,28L352,27L351,28L351,29L351,30L352,31Z M429,30L429,29L429,28L429,27L428,27L427,27L427,28L428,29L427,30L428,31Z M367,26L368,25L369,24L368,22L367,21L366,21L365,21L365,21L365,20L364,21L364,22L364,24L365,25L365,26L366,27Z M367,14L367,13L366,13L366,12L365,12L365,12L364,12L364,13L365,13L364,14L366,15Z M380,10L381,10L383,9L384,8L384,7L384,6L383,8L382,8L382,7L382,6L382,5L381,6L380,6L380,4L379,5L378,4L378,5L380,7L378,7L377,7L376,8L376,9L377,10L378,9L379,9L378,10L379,11Z M371,10L371,8L370,8L371,9L370,9L371,10Z " data-fips="NO05" data-hasc="NO.FI" data-name="Finnmark" data-postal="FI" data-varname="Finnmark fylke|Finmarken|Finnmrkku|Finnmrk"/></g></svg>