<?xml version="1.0" ?><!DOCTYPE svg  PUBLIC '-//W3C//DTD SVG 1.1//EN'  'http://www.w3.org/Graphics/SVG/1.1/DTD/svg11.dtd'><svg enable_background="new 0 0 500 401" height="401px" style="stroke-linejoin: round; stroke:#000; fill:#f6f3f0;" version="1.1" viewBox="0 0 500 401" width="500px" xmlns="http://www.w3.org/2000/svg" xmlns:xlink="http://www.w3.org/1999/xlink"><defs><style type="text/css"><![CDATA[path { fill-rule: evenodd; }
#context path { fill: #eee; stroke: #bbb; } ]]></style></defs><metadata><views><view h="401" padding="0" w="500"><proj id="laea" lat0="52.125" lon0="19.401"/><bbox h="71.53" w="76.21" x="960.71" y="966.44"/><llbbox lat0="-90" lat1="90" lon0="-180" lon1="180"/></view></views></metadata><g id="admin1"><path d="M272,120L274,119L275,117L276,116L278,117L278,118L291,120L294,119L296,119L297,117L297,115L299,114L300,114L302,114L307,110L309,109L310,107L313,107L316,107L319,105L323,105L326,104L329,100L333,100L335,100L337,99L338,96L339,96L344,95L347,94L352,94L355,93L356,92L357,91L360,91L367,86L371,81L382,73L384,71L386,67L387,64L387,60L383,55L380,53L380,51L380,49L375,43L379,38L388,36L390,34L393,32L393,28L392,30L389,31L271,28L270,29L271,30L270,30L269,32L268,32L265,34L263,34L260,36L259,37L258,38L256,40L255,42L255,41L256,40L255,39L252,39L251,40L250,42L251,45L252,46L252,48L252,49L251,50L250,52L249,53L249,55L250,57L251,60L253,61L255,61L256,63L255,65L257,66L261,66L263,66L263,67L263,68L262,69L261,70L260,73L260,74L258,75L255,75L253,76L252,77L249,96L250,99L251,101L252,102L254,102L257,103L261,106L266,107L268,109L270,114L271,121Z " data-fips="PL61" data-hasc="PL.WN" data-name="Warmian-Masurian" data-postal="WN" data-varname="Warminsko-Mazurskie"/><path d="M176,95L177,91L178,89L179,87L181,87L186,89L189,88L189,86L189,84L191,83L194,82L195,79L196,78L202,80L209,79L210,79L211,80L212,82L220,83L223,85L225,84L227,83L231,84L232,85L235,88L236,89L239,90L243,90L252,77L253,76L255,75L258,75L260,74L260,73L261,70L262,69L263,68L263,67L263,66L261,66L257,66L255,65L256,63L255,61L253,61L251,60L250,57L249,55L249,53L250,52L251,50L252,49L252,48L252,46L251,45L250,42L251,40L252,39L255,39L256,40L255,41L255,42L256,40L258,38L259,37L260,36L263,34L265,34L268,32L269,32L270,30L271,30L270,29L271,28L268,28L266,27L264,27L262,30L261,30L259,31L256,32L241,34L240,34L239,33L237,34L236,34L232,33L229,32L228,30L227,30L226,29L224,28L224,27L223,24L223,22L223,19L222,16L221,15L222,13L221,14L220,14L220,12L220,12L220,11L219,9L219,8L217,7L217,6L218,4L219,4L221,5L223,6L225,8L227,8L227,9L229,10L231,13L232,14L233,16L233,17L234,16L233,14L231,11L217,2L216,2L214,0L207,0L197,1L190,3L175,5L162,11L159,15L157,15L155,15L152,17L152,17L155,22L158,27L159,30L159,33L159,35L158,36L157,37L158,38L159,39L159,41L158,42L152,43L155,51L155,55L155,59L156,60L157,61L159,64L160,65L161,67L161,69L159,68L157,69L158,71L159,72L159,73L158,76L156,77L158,87L160,90L162,92L171,92L173,94L174,96Z " data-fips="PL31" data-hasc="PL.PM" data-name="Pomeranian" data-postal="PM" data-varname="Pomorskie"/><path d="M137,325L139,323L140,321L141,321L142,319L144,318L145,318L146,318L148,317L149,317L149,316L150,316L152,317L151,315L151,313L150,312L150,311L149,311L148,310L147,308L147,307L147,306L145,302L147,302L148,302L149,303L149,302L153,294L155,292L158,292L159,289L160,286L164,280L167,274L169,271L171,268L173,267L173,265L174,264L174,262L177,256L178,255L179,254L181,255L182,254L184,253L183,250L183,243L184,240L183,239L181,238L179,239L176,238L175,236L175,233L176,231L177,230L177,229L178,227L173,224L169,222L164,222L162,223L160,226L151,228L146,226L144,223L140,220L138,217L138,215L138,213L133,210L131,210L128,210L125,214L123,216L119,216L117,213L117,211L116,210L109,208L109,209L108,211L107,212L105,213L104,213L99,221L94,227L91,228L85,224L82,225L81,227L78,230L77,230L75,228L74,228L66,231L66,234L66,236L67,238L67,239L68,240L68,243L67,244L66,246L66,248L66,249L65,251L65,252L64,254L62,259L60,264L58,266L57,267L58,268L60,268L65,268L65,266L65,264L66,264L66,262L65,261L64,259L65,259L66,257L67,258L69,259L70,260L71,260L72,259L73,259L73,260L73,261L76,261L77,262L78,263L77,264L77,266L77,268L78,270L79,270L80,271L81,273L80,274L81,275L82,275L83,274L84,274L93,278L95,279L98,278L100,279L102,283L103,283L106,282L107,283L108,284L108,285L108,287L107,288L109,288L112,286L114,286L116,287L117,287L117,286L118,285L120,285L121,285L123,286L126,290L127,292L125,293L125,294L125,295L124,296L122,297L121,296L120,297L118,298L117,299L116,300L116,301L116,302L118,303L118,305L119,305L120,305L122,305L123,306L123,308L123,309L125,310L126,310L127,311L128,313L129,314L129,315L130,317L131,318L132,321L132,322L134,324L136,325Z " data-fips="PL66" data-hasc="PL.DS" data-name="Lower Silesian" data-postal="DS" data-varname="Dolnoslaskie"/><path d="M56,148L58,145L59,143L62,143L64,142L68,138L71,132L75,130L82,133L84,133L87,130L89,127L87,127L87,125L89,125L96,123L105,124L107,122L111,118L113,116L115,116L117,117L118,120L120,124L122,126L125,126L127,125L131,121L135,116L141,113L144,112L145,111L146,109L148,108L148,106L146,104L145,103L142,102L139,99L139,97L139,94L140,93L147,93L149,93L150,89L151,87L152,85L153,84L155,84L156,77L158,76L159,73L159,72L158,71L157,69L159,68L161,69L161,67L160,65L159,64L157,61L156,60L155,59L155,55L155,51L152,43L158,42L159,41L159,39L158,38L157,37L158,36L159,35L159,33L159,30L158,27L155,22L152,17L152,17L152,17L144,18L141,19L139,20L138,22L140,22L139,23L138,23L138,22L133,28L132,30L133,30L133,31L131,33L130,33L131,32L131,31L129,34L127,35L126,35L129,35L129,36L127,37L124,38L123,37L125,36L121,37L114,37L106,41L98,42L91,44L79,48L70,50L59,54L56,56L54,57L53,57L49,56L48,56L46,55L45,57L46,58L46,59L47,59L49,62L50,63L51,63L52,62L54,62L55,60L54,60L52,59L53,58L55,58L56,58L55,60L60,61L61,62L61,63L61,64L62,63L63,62L63,63L62,64L62,66L62,68L60,67L59,70L59,72L60,75L62,76L61,77L61,78L60,79L59,76L57,74L55,73L53,73L52,72L51,71L50,69L49,69L49,70L49,71L47,71L47,73L47,74L48,76L48,79L48,82L48,83L48,85L49,86L49,88L50,89L50,93L51,97L51,99L51,101L52,102L53,103L52,104L51,105L50,106L50,108L50,109L50,111L48,115L48,116L46,118L44,119L41,120L39,122L39,123L39,126L39,128L37,129L38,130L39,131L41,132L42,133L43,134L48,139L49,141L51,142L52,144L54,145L56,148Z " data-fips="PL62" data-hasc="PL.ZP" data-name="West Pomeranian" data-postal="ZP" data-varname="Zachodniopomorskie"/><path d="M74,228L75,228L77,230L78,230L81,227L82,225L85,224L91,228L94,227L99,221L104,213L105,213L107,212L108,211L109,209L109,208L116,210L117,211L117,213L119,216L123,216L125,214L128,210L126,205L124,202L121,204L119,203L117,202L116,200L117,198L117,196L117,195L116,195L114,195L113,193L112,191L111,189L109,188L108,187L107,185L107,183L107,180L107,178L108,177L108,176L109,172L109,168L109,166L107,163L108,162L109,162L109,160L109,158L109,155L107,151L107,147L108,146L108,144L109,144L114,142L114,141L113,138L112,137L116,132L116,127L118,120L117,117L115,116L113,116L111,118L107,122L105,124L96,123L89,125L87,125L87,127L89,127L87,130L84,133L82,133L75,130L71,132L68,138L64,142L62,143L59,143L58,145L56,148L56,148L57,148L58,150L56,152L56,153L57,155L56,157L55,158L53,160L53,163L54,166L54,168L54,169L55,170L56,171L57,171L59,172L59,173L59,175L58,176L58,178L58,179L58,181L58,182L60,184L60,185L59,186L59,188L57,190L57,194L57,195L56,197L55,198L52,200L52,201L52,202L52,204L54,205L54,207L54,209L55,210L57,212L57,213L58,215L58,216L57,218L56,219L56,220L56,222L57,223L60,224L60,225L61,225L63,226L65,227L66,228L66,230L66,231Z " data-fips="PL71" data-hasc="PL.LB" data-name="Lubusz" data-postal="LB" data-varname="Lubuskie"/><path d="M198,258L203,255L202,252L202,250L200,247L199,246L199,243L199,242L203,241L204,239L204,237L207,237L209,238L211,236L212,233L212,229L212,226L212,221L213,217L215,212L216,211L219,210L226,210L228,206L228,204L227,202L227,199L227,197L228,195L229,195L230,195L233,194L235,192L236,188L236,186L240,184L243,181L242,181L242,179L241,177L237,173L236,174L232,176L230,176L229,173L222,167L221,166L219,165L218,165L217,167L216,166L215,165L214,164L214,163L213,162L210,165L209,165L205,164L203,163L202,161L201,161L199,161L198,160L193,156L190,154L187,154L185,153L184,152L183,150L181,150L180,150L178,150L177,148L177,147L175,145L176,143L178,143L178,142L179,137L177,133L174,130L171,129L173,124L174,120L172,118L172,115L176,112L174,107L171,104L170,102L173,98L174,96L173,94L171,92L162,92L160,90L158,87L155,84L153,84L152,85L151,87L150,89L149,93L147,93L140,93L139,94L139,97L139,99L142,102L145,103L146,104L148,106L148,108L146,109L145,111L144,112L141,113L135,116L131,121L127,125L125,126L122,126L120,124L116,127L116,132L112,137L113,138L114,141L114,142L109,144L108,144L108,146L107,147L107,151L109,155L109,158L109,160L109,162L108,162L107,163L109,166L109,168L109,172L108,176L108,177L107,178L107,180L107,183L107,185L108,187L109,188L111,189L112,191L113,193L114,195L116,195L117,195L117,196L117,198L116,200L117,202L119,203L121,204L124,202L126,205L128,210L131,210L133,210L138,213L138,215L138,217L140,220L144,223L146,226L151,228L160,226L162,223L164,222L169,222L173,224L178,227L177,229L177,230L176,231L175,233L175,236L176,238L179,239L181,238L183,239L184,240L183,243L183,250L184,253L185,253L187,254L187,256L187,257L190,259L192,259Z " data-fips="PL34" data-hasc="PL.WP" data-name="Greater Poland" data-postal="WP" data-varname="Wielkopolskie"/><path d="M242,176L243,175L248,175L250,174L251,173L252,172L253,170L256,165L256,164L255,163L255,161L256,158L259,150L261,150L261,147L259,144L259,143L258,142L259,140L259,139L260,137L259,134L261,134L263,133L264,132L265,131L267,132L267,131L267,129L268,128L267,126L267,124L267,123L269,122L271,121L270,114L268,109L266,107L261,106L257,103L254,102L252,102L251,101L250,99L249,96L243,90L239,90L236,89L235,88L232,85L231,84L227,83L225,84L223,85L220,83L212,82L211,80L210,79L209,79L202,80L196,78L195,79L194,82L191,83L189,84L189,86L189,88L186,89L181,87L179,87L178,89L177,91L176,95L174,96L173,98L170,102L171,104L174,107L176,112L172,115L172,118L174,120L173,124L171,129L174,130L177,133L179,137L178,142L178,143L176,143L175,145L177,147L177,148L178,150L180,150L181,150L183,150L184,152L185,153L187,154L190,154L193,156L198,160L199,161L201,161L202,161L203,163L205,164L209,165L210,165L213,162L214,163L214,164L215,165L216,166L217,167L218,165L219,165L221,166L222,167L229,173L230,176L232,176L236,174L237,173L241,177Z " data-fips="PL68" data-hasc="PL.KP" data-name="Kuyavian-Pomeranian" data-postal="KP" data-varname="Kujawsko-Pomorskie"/><path d="M239,376L241,375L242,374L244,375L245,375L246,375L247,373L248,372L248,371L249,368L250,367L251,366L253,366L254,366L259,361L259,360L257,359L257,358L257,357L258,355L258,353L255,353L254,352L252,351L251,349L251,347L248,346L247,344L247,341L246,340L245,340L244,339L244,337L245,335L246,333L257,321L255,319L252,316L254,315L257,316L259,313L260,310L261,309L263,310L265,310L266,310L270,307L272,306L274,306L276,306L281,303L281,302L281,300L280,300L277,299L275,298L276,296L279,294L281,294L279,291L278,288L276,287L273,286L271,285L273,282L276,281L276,280L276,279L272,278L267,276L263,276L261,275L257,269L255,267L252,266L250,267L247,267L244,267L238,264L237,262L235,262L234,263L233,264L227,264L224,265L222,271L222,272L222,273L223,275L222,277L219,279L218,282L217,286L216,289L217,291L218,293L219,294L221,296L221,298L215,298L213,298L213,300L213,301L213,302L211,303L211,304L211,313L211,317L211,319L207,321L204,323L198,324L196,329L196,330L196,330L199,332L199,334L202,335L204,336L205,336L206,337L207,339L208,339L209,338L211,338L213,338L216,340L217,340L219,340L220,341L220,343L221,343L220,345L220,347L220,349L221,351L222,353L223,354L224,354L225,355L226,356L227,356L229,356L229,357L230,360L231,362L231,364L231,366L231,367L236,367L237,368L237,369L237,371L237,372L237,375L238,376Z " data-fips="PL29" data-hasc="PL.SL" data-name="Silesian" data-postal="SL" data-varname="Slaskie"/><path d="M273,276L274,275L276,274L276,272L276,270L276,268L277,265L278,265L284,269L285,268L285,266L285,264L284,263L281,260L283,255L284,254L285,254L290,254L291,254L294,251L295,250L297,250L298,249L300,245L301,244L301,242L301,240L304,238L305,236L304,233L303,232L302,231L302,229L302,227L300,224L301,220L305,220L307,221L310,222L311,221L311,219L310,217L308,215L308,212L309,211L308,209L306,206L303,204L300,202L295,203L294,203L293,201L293,200L292,199L291,197L291,196L292,195L292,191L290,190L287,189L286,188L285,187L285,184L285,182L283,182L282,181L281,181L280,179L278,177L277,177L276,179L267,181L263,178L261,177L256,176L251,173L250,174L248,175L243,175L242,176L241,177L242,179L242,181L243,181L240,184L236,186L236,188L235,192L233,194L230,195L229,195L228,195L227,197L227,199L227,202L228,204L228,206L226,210L219,210L216,211L215,212L213,217L212,221L212,226L212,229L212,233L211,236L209,238L207,237L204,237L204,239L203,241L199,242L199,243L199,246L200,247L202,250L202,252L203,255L204,257L205,258L214,260L218,260L219,259L220,260L221,262L224,265L227,264L233,264L234,263L235,262L237,262L238,264L244,267L247,267L250,267L252,266L255,267L257,269L261,275L263,276L267,276L272,278Z " data-fips="PL51" data-hasc="PL.LD" data-name="Ldz" data-postal="LD" data-varname="Ldzkie"/><path d="M360,256L360,254L359,253L359,251L359,250L360,246L361,244L361,243L362,241L362,239L360,237L360,235L361,234L362,233L362,230L361,229L361,228L360,226L360,224L359,224L357,224L355,224L353,223L353,221L353,219L355,219L356,219L359,220L362,219L363,218L363,216L361,213L363,210L365,209L363,207L362,204L362,202L361,201L360,199L360,197L363,195L366,194L372,193L378,192L380,192L382,192L386,189L387,188L392,189L394,187L395,185L396,183L398,184L403,186L404,185L406,183L407,180L411,174L411,172L410,172L410,171L408,169L407,169L407,168L406,167L405,167L401,167L395,166L393,166L391,166L390,166L389,165L388,163L388,161L387,160L387,158L387,157L387,156L386,155L385,154L382,152L383,150L382,148L382,145L381,142L381,139L378,139L376,141L374,140L373,138L374,135L372,133L370,135L367,136L364,135L363,133L362,130L361,128L360,127L359,127L357,125L357,123L358,122L356,120L354,120L351,119L350,116L347,110L346,102L345,100L344,98L344,95L339,96L338,96L337,99L335,100L333,100L329,100L326,104L323,105L319,105L316,107L313,107L310,107L309,109L307,110L302,114L300,114L299,114L297,115L297,117L296,119L294,119L291,120L278,118L278,117L276,116L275,117L274,119L272,120L271,121L269,122L267,123L267,124L267,126L268,128L267,129L267,131L267,132L265,131L264,132L263,133L261,134L259,134L260,137L259,139L259,140L258,142L259,143L259,144L261,147L261,150L259,150L256,158L255,161L255,163L256,164L256,165L253,170L252,172L256,176L261,177L263,178L267,181L276,179L277,177L278,177L280,179L281,181L282,181L283,182L285,182L285,184L285,187L286,188L287,189L290,190L292,191L292,195L291,196L291,197L292,199L293,200L293,201L294,203L295,203L300,202L303,204L306,206L308,209L309,211L308,212L308,215L310,217L311,219L311,221L310,222L307,221L305,220L301,220L300,224L302,227L302,229L302,231L303,232L304,233L305,236L304,238L301,240L301,242L301,244L303,245L305,248L312,253L313,254L314,255L315,256L320,257L326,256L328,255L329,253L330,252L332,252L332,255L333,256L333,257L334,258L337,260L340,260L347,262Z " data-fips="PL59" data-hasc="PL.MZ" data-name="Masovian" data-postal="MZ" data-varname="Mazowieckie"/><path d="M312,319L313,318L315,317L315,316L316,315L317,314L317,312L320,314L321,313L322,313L324,312L325,311L328,311L330,310L330,309L333,308L334,309L335,309L336,308L337,307L338,305L339,305L340,304L340,304L343,302L344,302L346,301L346,300L346,299L350,297L353,296L353,295L355,294L355,292L355,291L356,290L358,288L360,285L362,284L362,283L363,282L363,281L363,278L363,275L363,273L361,268L361,267L361,266L361,263L361,262L360,261L361,260L347,262L340,260L337,260L334,258L333,257L333,256L332,255L332,252L330,252L329,253L328,255L326,256L320,257L315,256L314,255L313,254L312,253L305,248L303,245L301,244L300,245L298,249L297,250L295,250L294,251L291,254L290,254L285,254L284,254L283,255L281,260L284,263L285,264L285,266L285,268L284,269L278,265L277,265L276,268L276,270L276,272L276,274L274,275L273,276L272,278L276,279L276,280L276,281L273,282L271,285L273,286L276,287L278,288L279,291L281,294L279,294L276,296L275,298L277,299L280,300L281,300L285,300L287,301L288,302L292,304L295,306L297,310L298,313L299,314L301,317L302,319L305,321L311,321Z " data-fips="PL36" data-hasc="PL.SK" data-name="Swietokrzyskie" data-postal="SK" data-varname="Swietokrzyskie"/><path d="M416,172L415,172L417,168L417,166L419,164L420,163L424,156L427,153L431,150L438,148L443,144L445,142L445,139L444,128L443,127L443,126L444,124L443,122L443,120L443,119L441,118L441,117L441,115L442,113L442,112L442,111L441,109L440,109L439,108L439,107L439,106L438,105L437,103L435,96L434,94L432,90L428,80L426,75L426,71L425,70L424,68L424,65L423,63L423,61L422,60L422,57L422,56L421,55L421,54L422,53L422,52L422,50L421,47L421,46L420,44L420,43L419,42L418,42L417,41L416,39L414,38L411,37L409,36L407,34L405,34L403,34L402,33L403,32L402,31L401,30L400,29L399,28L398,28L394,27L393,28L393,32L390,34L388,36L379,38L375,43L380,49L380,51L380,53L383,55L387,60L387,64L386,67L384,71L382,73L371,81L367,86L360,91L357,91L356,92L355,93L352,94L347,94L344,95L344,98L345,100L346,102L347,110L350,116L351,119L354,120L356,120L358,122L357,123L357,125L359,127L360,127L361,128L362,130L363,133L364,135L367,136L370,135L372,133L374,135L373,138L374,140L376,141L378,139L381,139L381,142L382,145L382,148L383,150L382,152L385,154L386,155L387,156L387,157L387,158L387,160L388,161L388,163L389,165L390,166L391,166L393,166L395,166L401,167L405,167L406,167L407,168L407,169L408,169L410,171L410,172L411,172L413,172L414,172Z " data-fips="PL44" data-hasc="PL.PD" data-name="Podlachian" data-postal="PD" data-varname="Podlaskie"/><path d="M418,308L422,307L424,305L428,300L429,300L431,299L435,299L438,301L439,303L444,305L444,304L444,303L446,302L447,301L455,300L457,299L458,297L458,295L458,293L461,291L462,291L462,290L462,289L461,285L462,283L461,281L460,279L460,278L459,278L458,277L457,276L458,274L457,274L456,274L455,273L455,272L455,270L456,270L457,269L459,269L461,269L462,269L463,268L462,267L458,265L455,263L454,262L454,260L453,259L452,258L452,257L451,253L450,252L449,250L449,249L447,247L445,245L444,244L440,239L439,238L439,236L439,235L440,234L440,233L441,232L441,231L439,228L439,226L437,225L437,224L436,223L435,222L435,221L434,220L434,219L433,218L433,215L434,214L434,213L434,212L433,210L433,209L434,208L434,207L435,206L436,205L436,204L436,203L435,201L436,199L436,198L436,196L436,194L437,192L438,191L437,190L436,186L436,185L435,184L434,183L433,182L430,182L429,180L428,179L427,178L426,179L425,178L424,177L421,177L420,176L417,176L416,175L416,173L416,172L414,172L413,172L411,174L407,180L406,183L404,185L403,186L398,184L396,183L395,185L394,187L392,189L387,188L386,189L382,192L380,192L378,192L372,193L366,194L363,195L360,197L360,199L361,201L362,202L362,204L363,207L365,209L363,210L361,213L363,216L363,218L362,219L359,220L356,219L355,219L353,219L353,221L353,223L355,224L357,224L359,224L360,224L360,226L361,228L361,229L362,230L362,233L361,234L360,235L360,237L362,239L362,241L361,243L361,244L360,246L359,250L359,251L359,253L360,254L360,256L361,260L360,261L361,262L361,263L361,266L361,267L361,268L363,273L363,275L369,278L372,278L375,276L377,276L378,277L380,278L381,279L381,280L379,284L380,286L390,288L397,292L398,294L399,296L399,297L398,298L397,298L395,298L394,300L394,301L394,303L395,305L397,305L403,304L403,305L402,306L402,307L409,308Z " data-fips="PL23" data-hasc="PL.LU" data-name="Lublin" data-postal="LU" data-varname="Lubelskie"/><path d="M413,398L412,396L412,395L412,393L412,392L410,391L409,390L407,389L405,387L405,388L404,387L405,385L406,383L406,381L406,380L406,374L405,372L404,371L403,370L403,369L403,366L402,365L401,363L402,360L406,355L406,353L407,352L408,351L409,351L412,345L413,344L414,344L414,342L416,339L420,332L422,330L424,329L425,327L434,315L436,314L439,312L440,310L442,308L443,307L444,305L439,303L438,301L435,299L431,299L429,300L428,300L424,305L422,307L418,308L409,308L402,307L402,306L403,305L403,304L397,305L395,305L394,303L394,301L394,300L395,298L397,298L398,298L399,297L399,296L398,294L397,292L390,288L380,286L379,284L381,280L381,279L380,278L378,277L377,276L375,276L372,278L369,278L363,275L363,278L363,281L363,282L362,283L362,284L360,285L358,288L356,290L355,291L355,292L355,294L353,295L353,296L350,297L346,299L346,300L346,301L344,302L343,302L340,304L340,304L339,310L338,313L337,316L336,320L338,330L338,333L338,337L338,338L339,339L341,339L342,340L343,342L339,345L338,347L339,348L344,350L347,353L348,358L349,360L349,362L349,367L351,372L352,372L355,371L356,372L358,373L359,373L360,374L362,377L363,375L364,375L366,375L368,376L370,378L372,379L373,381L374,383L374,386L375,387L379,387L380,388L381,388L382,388L383,389L383,390L386,391L388,391L389,391L391,393L393,394L397,394L398,394L400,394L402,395L403,396L405,396L406,396L407,396L408,396L409,397L411,398L413,399Z " data-fips="PL63" data-hasc="PL.PK" data-name="Subcarpathian" data-postal="PK" data-varname="Podkarpackie"/><path d="M191,334L193,333L195,333L196,333L196,332L195,331L196,330L196,329L198,324L204,323L207,321L211,319L211,317L211,313L211,304L211,303L213,302L213,301L213,300L213,298L215,298L221,298L221,296L219,294L218,293L217,291L216,289L217,286L218,282L219,279L222,277L223,275L222,273L222,272L222,271L224,265L221,262L220,260L219,259L218,260L214,260L205,258L204,257L203,255L198,258L192,259L190,259L187,257L187,256L187,254L185,253L184,253L182,254L181,255L179,254L178,255L177,256L174,262L174,264L173,265L173,267L171,268L169,271L167,274L164,280L160,286L159,289L158,292L155,292L153,294L149,302L149,303L150,303L151,303L155,305L156,306L158,306L159,306L160,308L160,309L162,310L163,310L165,311L166,312L166,314L167,315L168,313L169,314L170,316L172,314L174,314L178,315L179,314L181,312L181,311L182,311L183,313L183,315L183,316L184,318L183,319L182,319L181,321L179,321L177,321L176,322L179,325L180,325L181,325L183,326L182,327L183,328L184,330L185,332L187,335L189,335Z " data-fips="PL48" data-hasc="PL.OP" data-name="Opole" data-postal="OP" data-varname="Opolskie"/><path d="M287,390L287,388L288,385L289,383L290,381L291,381L293,379L296,378L297,377L297,376L297,375L298,375L300,376L302,376L303,374L307,376L308,376L309,375L311,374L312,374L314,374L319,379L320,380L322,380L322,380L323,381L325,382L326,381L327,380L328,378L329,377L331,377L332,376L331,375L330,374L331,373L334,372L335,373L337,374L338,372L339,371L340,370L343,372L348,373L350,372L351,372L349,367L349,362L349,360L348,358L347,353L344,350L339,348L338,347L339,345L343,342L342,340L341,339L339,339L338,338L338,337L338,333L338,330L336,320L337,316L338,313L339,310L340,304L339,305L338,305L337,307L336,308L335,309L334,309L333,308L330,309L330,310L328,311L325,311L324,312L322,313L321,313L320,314L317,312L317,314L316,315L315,316L315,317L313,318L312,319L311,321L305,321L302,319L301,317L299,314L298,313L297,310L295,306L292,304L288,302L287,301L285,300L281,300L281,302L281,303L276,306L274,306L272,306L270,307L266,310L265,310L263,310L261,309L260,310L259,313L257,316L254,315L252,316L255,319L257,321L246,333L245,335L244,337L244,339L245,340L246,340L247,341L247,344L248,346L251,347L251,349L252,351L254,352L255,353L258,353L258,355L257,357L257,358L257,359L259,360L259,361L259,361L260,363L261,363L262,365L263,368L264,371L265,372L267,373L267,375L269,375L271,375L273,375L274,376L274,378L274,381L274,382L275,383L274,384L274,385L272,387L273,389L274,389L276,389L278,388L279,387L279,387L281,387L282,387L284,389L286,390Z " data-fips="PL39" data-hasc="PL.MA" data-name="Lesser Poland" data-postal="MA" data-varname="Malopolskie"/></g></svg>