<?xml version="1.0" ?><!DOCTYPE svg  PUBLIC '-//W3C//DTD SVG 1.1//EN'  'http://www.w3.org/Graphics/SVG/1.1/DTD/svg11.dtd'><svg enable_background="new 0 0 500 401" height="401px" style="stroke-linejoin: round; stroke:#000; fill:#f6f3f0;" version="1.1" viewBox="0 0 500 401" width="500px" xmlns="http://www.w3.org/2000/svg" xmlns:xlink="http://www.w3.org/1999/xlink"><defs><style type="text/css"><![CDATA[path { fill-rule: evenodd; }
#context path { fill: #eee; stroke: #bbb; } ]]></style></defs><metadata><views><view h="401" padding="0" w="500"><proj id="laea" lat0="78.83" lon0="18.374"/><bbox h="79.32" w="50.41" x="981.22" y="975.97"/><llbbox lat0="-90" lat1="90" lon0="-180" lon1="180"/></view></views></metadata><g id="admin1"><path d="M231,397L232,396L232,395L233,393L233,392L233,391L232,390L231,388L230,388L228,388L226,389L225,389L225,392L226,394L227,395L228,397L229,398L229,399Z M314,263L314,262L314,260L316,258L316,256L316,255L317,254L318,252L320,247L320,246L319,247L318,248L318,251L315,257L313,260L313,261L313,263L314,264Z M189,260L189,258L190,258L192,258L192,260L196,260L197,260L198,259L198,258L198,257L199,256L199,255L201,253L201,251L200,250L199,249L197,247L198,245L199,244L199,243L200,242L202,237L203,236L202,235L201,233L200,232L200,231L203,231L203,230L203,229L204,228L204,227L205,225L205,224L205,222L205,221L205,220L206,219L206,218L206,216L206,214L206,213L207,212L208,209L208,208L208,207L209,205L209,204L210,204L212,203L213,204L214,203L216,204L217,202L217,200L216,198L217,195L217,192L219,188L219,186L219,185L218,183L219,182L218,181L218,180L217,178L218,177L218,176L219,175L219,174L218,171L219,169L220,169L223,171L226,167L227,166L227,165L226,164L225,161L225,160L226,159L227,158L226,157L225,155L225,153L225,152L226,151L226,149L226,147L226,146L225,143L234,140L233,137L233,136L234,134L235,133L238,134L239,132L240,133L240,132L243,132L244,133L245,133L245,131L245,130L246,129L249,130L250,131L250,132L251,132L251,130L253,130L254,131L254,129L254,128L254,127L255,126L256,125L256,123L255,122L256,121L256,120L255,118L254,118L242,113L239,110L238,109L237,109L236,108L236,107L236,106L235,104L234,103L234,102L235,101L234,100L232,101L230,99L229,98L228,99L227,101L226,101L224,101L224,99L224,97L224,96L223,94L221,95L221,93L222,93L223,91L223,89L223,87L224,86L223,85L223,83L223,82L222,81L222,80L222,78L222,77L220,74L218,72L217,71L216,71L215,73L215,74L214,75L214,76L214,77L214,79L214,80L213,82L213,84L212,85L211,86L209,87L209,86L211,85L211,83L211,82L211,81L211,80L211,79L211,77L210,77L209,76L210,75L211,73L211,72L212,70L213,69L214,68L214,67L215,65L214,63L213,62L212,61L210,57L209,56L209,55L207,53L206,52L202,50L201,52L201,53L202,55L201,56L200,53L199,52L200,51L199,50L198,48L198,47L198,45L196,44L195,44L194,46L192,47L193,48L192,49L192,51L192,52L192,53L193,54L193,56L188,56L188,57L188,58L188,59L188,61L188,63L188,64L188,65L188,66L188,68L188,69L189,71L189,72L189,74L190,75L189,76L189,77L189,78L190,80L190,81L190,84L190,87L190,89L190,91L190,91L192,95L192,96L192,97L192,99L192,100L192,102L193,104L194,108L194,109L194,112L195,113L195,114L195,115L193,115L193,114L193,112L192,112L191,110L191,109L191,108L191,106L191,105L190,104L189,101L188,99L186,102L186,100L186,99L187,97L188,96L187,94L186,93L186,90L185,89L184,87L184,85L184,84L184,81L184,79L184,78L183,77L183,75L183,74L183,73L183,71L182,69L181,68L180,63L179,61L175,59L175,60L174,63L172,66L172,68L171,68L171,69L172,71L170,71L168,73L167,74L167,75L168,77L168,78L168,80L168,81L168,82L168,84L169,85L169,87L168,91L168,92L167,91L166,90L166,89L166,87L166,86L166,84L165,82L165,81L164,79L164,78L163,77L162,78L162,79L162,81L160,78L160,77L160,75L161,76L162,75L163,73L162,71L161,70L160,71L158,70L156,72L154,72L152,73L151,72L152,70L154,70L158,66L158,65L161,65L166,64L168,63L169,60L169,59L169,58L169,56L169,55L168,54L165,55L163,55L162,56L159,56L158,58L155,59L153,60L153,59L153,58L153,57L152,55L150,55L150,56L149,57L150,59L150,60L151,61L151,62L151,64L150,65L149,63L148,65L148,63L148,62L148,61L147,59L147,58L147,57L146,55L146,54L144,54L144,56L143,56L143,57L142,58L140,57L139,57L139,58L139,60L138,61L139,62L140,65L141,66L140,67L136,65L134,67L134,68L137,70L132,70L131,71L131,72L132,73L133,74L133,75L133,77L133,78L132,79L132,80L133,81L132,82L132,84L133,86L133,88L133,89L134,90L134,92L134,93L134,96L134,97L135,99L140,95L140,94L140,92L139,89L139,88L140,87L141,86L141,88L141,89L142,90L142,91L143,92L143,91L142,88L144,88L145,89L145,90L145,91L145,92L145,94L144,93L143,95L142,96L142,98L141,99L140,101L139,101L140,102L142,105L143,106L142,107L143,108L147,107L148,108L147,109L148,111L148,112L147,113L145,113L137,107L134,107L134,109L135,111L136,111L136,113L140,116L140,117L139,117L138,117L136,121L137,123L137,124L138,124L139,125L138,127L139,129L140,130L144,132L144,133L144,135L151,136L153,135L154,136L151,138L146,137L143,138L144,140L145,142L145,144L146,145L149,148L148,149L149,152L149,153L149,155L149,156L150,157L151,156L152,155L160,157L160,156L160,155L160,153L161,155L162,156L162,153L163,153L164,153L163,154L163,155L164,154L167,151L167,150L166,149L166,147L167,146L169,147L171,147L172,147L172,145L172,144L171,142L169,142L169,141L168,140L170,137L171,136L171,135L171,133L171,132L171,131L171,130L170,129L170,128L171,128L172,126L173,125L174,126L175,129L174,130L174,131L176,134L177,133L177,131L179,131L179,129L179,128L179,127L179,125L180,124L180,123L181,120L182,119L183,121L182,122L182,123L183,124L183,125L183,126L183,127L182,129L182,131L182,132L181,133L179,134L179,135L179,136L179,138L180,141L181,143L189,141L189,139L193,136L193,135L193,133L193,132L194,131L194,130L195,128L196,127L196,129L196,130L199,130L199,132L197,133L197,134L196,135L194,139L194,140L194,142L193,143L193,144L193,145L195,145L195,146L196,147L199,148L204,145L204,146L203,147L202,148L200,150L192,151L190,149L189,150L187,151L185,150L183,152L183,154L183,156L184,157L184,158L183,158L182,157L180,157L179,158L177,159L176,161L175,163L175,164L164,166L165,167L166,168L166,170L166,172L165,173L165,172L164,170L163,166L161,164L160,164L159,165L158,166L157,166L156,167L157,169L157,171L156,173L156,175L156,177L156,178L156,179L157,180L158,181L158,182L158,183L156,184L157,185L157,187L159,186L159,188L160,187L162,184L163,184L164,185L165,185L166,186L168,185L168,184L169,185L170,185L175,184L178,180L181,179L184,182L196,180L197,178L200,176L199,177L199,178L198,180L197,180L198,182L199,184L201,185L201,186L200,185L199,185L198,184L191,184L190,186L175,190L173,191L171,191L169,192L170,193L171,193L171,195L172,194L185,198L185,200L186,201L186,202L187,203L189,204L190,205L188,205L188,207L187,206L186,204L185,203L184,202L184,201L174,199L173,198L171,199L169,200L169,201L169,202L168,202L166,202L167,201L167,200L166,197L165,196L160,197L158,200L158,201L158,202L159,203L159,204L158,205L158,206L158,207L160,211L160,213L160,214L162,215L162,217L162,218L163,220L164,222L166,221L172,225L172,226L172,228L173,228L173,229L173,230L174,232L175,233L181,234L182,233L183,232L183,230L183,229L184,229L185,229L186,230L186,231L186,233L187,233L188,234L189,234L192,234L191,235L189,235L189,236L189,237L187,238L188,236L187,235L185,235L184,236L182,237L181,237L181,238L178,239L178,239L177,241L180,243L182,246L183,249L184,249L186,250L186,251L188,252L188,253L188,254L188,255L188,257L188,258L188,259L188,260Z M275,215L276,216L278,216L279,214L279,213L279,211L280,210L281,208L283,207L286,208L287,205L290,203L292,199L292,198L292,196L292,194L293,193L293,192L293,190L295,188L303,184L303,182L298,178L298,177L296,176L295,175L295,174L294,175L291,176L290,178L286,177L285,176L284,175L282,172L279,171L278,169L278,168L278,166L279,164L282,163L282,161L283,160L282,159L280,157L277,155L276,154L270,156L270,157L269,158L260,158L251,163L250,165L250,166L255,172L256,172L256,174L260,175L260,176L259,178L259,179L259,180L258,181L258,182L258,184L257,185L257,186L256,188L256,190L256,191L256,192L256,194L256,195L255,196L251,199L251,201L251,202L252,203L251,204L251,205L252,206L254,206L257,205L258,204L269,201L270,200L270,198L272,197L274,197L274,198L274,200L274,201L274,199L275,198L277,198L276,199L276,200L275,202L274,202L274,203L272,206L272,207L273,209L274,210L274,212L273,213L272,214L273,215L274,216Z M139,154L139,153L139,151L139,150L138,149L137,142L137,141L137,140L136,140L134,137L133,136L133,135L132,133L131,133L130,134L131,133L130,131L131,130L131,129L130,127L129,125L129,124L131,121L130,119L129,117L129,115L128,112L124,110L124,111L124,113L124,114L124,116L123,117L124,119L124,121L126,124L125,125L126,127L126,129L127,130L127,131L127,133L127,134L127,137L127,139L128,140L130,139L131,140L132,141L133,144L133,145L136,148L136,150L135,151L136,153L136,154L138,154L139,155Z M248,159L248,158L251,158L252,159L267,154L266,153L266,152L266,150L266,149L266,147L266,146L265,144L265,143L266,142L265,141L265,139L264,138L263,135L263,134L261,136L260,135L260,134L258,134L256,136L256,135L255,133L254,133L252,133L251,135L251,137L249,138L248,137L240,141L240,143L244,145L246,147L246,148L247,150L246,151L244,151L244,152L248,154L248,155L247,156L247,158L246,159L247,160Z M320,125L322,124L322,123L322,121L320,121L319,120L319,119L317,116L317,115L315,116L314,118L315,119L315,120L316,122L319,124L319,125L320,126Z M337,108L342,105L343,105L347,107L348,107L352,104L351,102L349,104L344,104L344,103L341,102L336,102L337,103L336,105L334,106L333,107L333,109L331,111L334,112Z M243,109L245,108L247,106L246,104L243,103L242,102L239,102L239,102L238,103L238,105L238,106L237,107L238,109L240,109L241,110L242,110Z M357,98L357,97L358,97L358,95L355,96L356,98Z M237,88L238,89L238,87L237,87L235,86L234,85L233,85L232,86L233,87L232,88L233,89Z M286,92L286,90L285,89L286,88L289,86L291,83L293,83L293,84L293,85L296,85L298,83L298,82L300,80L302,78L302,77L302,75L303,73L303,72L302,69L301,68L301,67L301,66L305,63L305,61L308,58L307,57L308,56L308,55L310,54L311,51L313,50L314,49L314,47L313,46L312,44L312,42L312,40L312,39L311,38L311,37L311,34L309,34L308,32L307,31L297,32L297,32L295,33L296,30L295,30L294,31L294,30L293,29L292,29L290,29L289,28L291,26L288,27L288,29L286,28L285,29L285,27L285,25L285,24L285,22L284,24L284,25L284,26L283,27L282,29L281,28L282,27L282,26L283,25L281,23L278,22L278,24L278,24L280,25L280,26L280,27L279,27L279,28L277,27L276,27L276,28L275,28L274,26L274,28L274,29L275,30L274,31L274,32L275,33L275,34L274,35L272,37L272,36L272,35L272,34L271,33L271,35L270,36L270,35L269,34L269,36L268,36L268,36L269,37L269,38L268,39L267,38L267,37L267,36L267,34L267,30L269,30L269,29L269,27L269,26L269,25L269,24L268,23L267,23L267,22L267,21L268,20L269,19L268,18L265,17L263,15L262,15L263,17L263,18L264,20L264,21L264,22L263,23L263,25L263,26L262,25L262,24L262,22L262,20L260,19L259,20L259,22L259,23L259,25L259,26L261,27L261,29L260,30L261,32L261,33L261,34L261,35L260,36L260,38L260,40L261,42L261,43L260,43L261,44L261,46L260,44L260,45L261,46L260,48L259,47L259,46L259,44L258,43L257,41L257,40L255,39L254,38L252,40L254,36L255,34L255,33L254,30L252,30L252,31L252,33L250,31L250,32L250,33L249,34L248,32L248,31L247,33L244,35L243,34L243,32L243,31L243,30L243,28L241,29L240,28L240,27L240,26L240,25L239,24L238,22L236,22L236,23L235,24L235,22L235,21L235,20L235,19L233,19L232,17L231,17L231,18L231,19L231,21L230,20L229,19L229,20L229,21L229,23L230,24L233,25L232,26L233,27L232,28L233,29L233,30L232,32L232,33L233,34L231,34L227,27L224,26L224,28L225,29L225,31L225,32L226,33L226,34L227,36L227,37L228,37L230,37L231,39L230,39L229,40L229,41L227,43L226,41L224,38L223,36L221,35L222,37L221,38L220,37L218,37L217,37L215,37L214,36L212,38L212,40L213,40L214,40L215,42L218,43L217,44L216,44L216,45L217,45L218,46L223,46L224,45L223,47L222,48L222,49L222,50L221,49L221,48L220,48L220,49L221,49L220,51L219,51L218,52L217,52L215,54L216,55L217,56L217,58L218,59L219,62L221,61L221,63L222,64L222,65L224,65L227,65L228,64L229,64L230,66L233,65L234,64L236,64L237,61L256,58L255,59L255,61L255,62L261,59L261,60L261,61L257,62L256,64L256,65L241,68L243,71L249,73L249,74L241,73L239,72L238,70L234,71L232,72L232,74L232,76L236,78L237,80L238,81L245,82L245,83L246,85L246,86L253,85L256,86L264,83L265,84L269,82L267,86L267,89L267,91L268,92L270,94L284,95Z M136,64L137,64L136,62L136,61L135,60L133,60L133,61L134,62L133,63L134,64L135,65Z M135,57L134,56L133,57L133,59L136,59Z M220,32L221,30L221,29L221,28L220,27L217,26L216,27L216,28L215,29L215,31L217,31L219,33Z M280,21L279,20L278,17L277,17L277,18L277,20L278,21Z M235,17L236,16L235,15L234,14L233,16L233,18L234,18Z M278,15L277,14L276,14L275,14L275,15L278,16Z M370,21L371,18L377,15L377,14L373,13L370,15L370,16L356,25L357,27L358,28Z M242,8L242,7L239,7L241,8L242,9Z M248,5L247,4L247,4L246,3L244,5L245,6L246,7Z M244,4L244,3L244,3L242,3L241,2L240,0L240,0L239,0L240,2L240,3L242,4L242,4L243,5Z " data-fips="SV00" data-hasc="SJ.SV" data-name="Svalbard" data-postal="SV" data-varname=""/></g></svg>