<?xml version="1.0" ?><!DOCTYPE svg  PUBLIC '-//W3C//DTD SVG 1.1//EN'  'http://www.w3.org/Graphics/SVG/1.1/DTD/svg11.dtd'><svg enable_background="new 0 0 500 401" height="401px" style="stroke-linejoin: round; stroke:#000; fill:#f6f3f0;" version="1.1" viewBox="0 0 500 401" width="500px" xmlns="http://www.w3.org/2000/svg" xmlns:xlink="http://www.w3.org/1999/xlink"><defs><style type="text/css"><![CDATA[path { fill-rule: evenodd; }
#context path { fill: #eee; stroke: #bbb; } ]]></style></defs><metadata><views><view h="401" padding="0" w="500"><proj id="laea" lat0="44.032" lon0="20.806"/><bbox h="48.64" w="36.47" x="983.13" y="973.49"/><llbbox lat0="-90" lat1="90" lon0="-180" lon1="180"/></view></views></metadata><g id="admin1"><path d="M368,333L369,332L371,332L377,333L379,333L381,332L382,330L383,329L384,324L385,322L386,322L388,321L389,321L390,319L393,315L393,314L394,312L396,312L396,311L398,309L399,306L400,302L399,301L399,300L398,299L394,298L393,298L392,297L390,294L388,292L387,291L387,288L386,287L381,282L380,281L378,280L375,280L375,281L374,282L373,283L372,283L371,284L370,285L369,286L369,288L368,287L366,287L365,287L365,286L364,285L363,284L362,284L362,285L361,286L359,286L357,284L356,284L355,284L354,283L353,283L352,283L351,285L351,286L351,287L350,288L349,288L347,289L346,289L345,288L344,288L343,287L341,287L340,286L339,286L337,287L337,288L337,289L338,291L338,292L339,292L339,293L339,294L338,295L337,296L337,297L337,298L336,299L336,300L335,301L337,301L338,302L339,303L340,303L341,304L341,304L343,305L343,305L344,306L345,306L347,306L348,307L348,308L348,310L347,311L346,312L345,312L344,314L345,314L346,315L345,316L344,317L343,318L342,319L343,320L344,320L345,321L346,322L347,322L348,322L349,322L351,323L352,324L353,324L354,324L355,325L356,325L357,326L356,327L355,328L355,328L356,329L357,330L357,331L358,332L360,332L361,333L362,333L363,333L364,333L365,333L367,333L368,334Z " data-fips="BU47" data-hasc="RS.PI" data-name="Pirotski" data-postal="PI" data-varname="Pirot"/><path d="M335,231L336,230L336,230L337,229L338,228L338,227L338,226L339,224L339,223L340,222L341,220L342,219L343,219L343,218L343,217L343,215L342,214L342,213L341,212L341,211L341,209L340,209L340,208L340,206L341,205L342,204L343,203L344,204L346,206L346,206L347,206L349,206L351,206L351,206L352,205L353,205L355,206L356,206L356,207L357,208L359,208L360,209L360,210L361,211L360,212L359,213L359,213L358,214L359,216L359,217L360,218L361,217L362,217L363,216L364,215L364,214L366,213L367,213L369,212L370,210L369,207L369,206L369,205L369,203L370,201L371,200L372,197L375,196L375,194L375,190L375,188L373,188L370,187L367,186L365,184L363,181L362,178L362,176L361,175L359,172L359,171L360,170L360,169L361,168L364,168L365,168L365,167L365,165L366,163L367,162L368,162L370,162L371,162L374,164L375,164L377,164L378,163L380,162L380,160L376,156L375,155L370,155L367,154L365,152L359,146L358,146L357,145L355,146L352,149L351,150L348,150L347,151L346,153L338,168L337,169L336,169L334,169L333,168L331,167L330,164L329,163L328,162L327,160L326,161L325,162L324,163L323,165L322,166L321,167L320,168L320,169L320,170L320,171L319,173L319,174L319,175L320,176L319,177L318,177L317,177L316,178L315,179L314,180L313,180L312,181L312,182L311,183L311,184L310,185L311,186L311,187L312,187L311,189L312,190L313,190L315,190L316,190L317,191L317,192L318,193L318,194L318,195L318,196L318,198L319,199L320,198L321,197L322,197L322,198L322,199L322,201L322,202L322,203L322,205L322,206L322,207L322,208L323,209L322,210L321,210L319,210L318,211L317,211L316,212L316,213L315,213L314,213L312,215L311,216L310,217L310,218L310,219L309,220L309,221L310,221L311,221L312,221L313,221L314,221L315,221L316,221L317,221L318,221L319,222L320,223L321,224L322,225L323,225L324,226L325,226L326,226L327,226L327,225L328,225L329,226L329,227L330,228L330,229L330,230L332,231L333,231L335,233Z " data-fips="RO26" data-hasc="RS.BO" data-name="Borski" data-postal="BO" data-varname="Bor"/><path d="M125,74L126,74L128,74L129,73L129,72L130,72L131,73L132,74L133,74L134,74L135,74L136,74L137,73L136,72L136,71L136,70L136,68L137,68L139,67L139,65L139,64L140,64L141,63L143,63L144,64L145,65L146,64L147,63L147,62L148,61L148,60L150,60L151,59L151,57L150,56L151,55L151,54L152,53L153,52L153,51L154,50L154,49L153,48L152,48L151,47L150,46L151,45L151,43L150,43L150,42L148,41L147,42L147,43L146,43L145,43L143,42L142,40L142,39L142,38L142,37L141,36L140,35L139,34L138,33L137,32L136,31L136,30L136,28L136,27L136,26L136,25L135,23L135,22L136,21L136,20L136,19L136,18L135,18L134,17L134,16L133,15L132,16L131,17L131,18L130,19L128,19L122,19L121,18L120,16L118,15L116,16L115,18L115,21L114,21L112,21L110,22L110,23L111,24L110,25L109,24L105,24L105,25L104,26L103,27L104,28L105,30L103,31L101,31L101,34L101,35L101,36L102,37L102,38L104,40L104,42L105,45L105,46L106,47L107,48L108,49L108,51L106,54L105,55L104,57L104,59L105,60L107,63L108,63L109,63L110,62L111,61L113,61L113,62L114,64L116,64L117,64L117,65L118,66L116,68L112,68L112,68L112,69L113,69L115,69L116,69L117,70L118,70L118,72L119,72L121,72L122,72L123,72L124,73L124,74Z " data-fips="HR10" data-hasc="RS.ZC" data-name="Zapadno-Backi" data-postal="ZC" data-varname="West Backa"/><path d="M161,56L162,55L163,55L163,54L163,53L163,52L164,50L164,49L164,48L165,47L165,45L164,44L165,43L166,43L168,42L169,42L170,42L171,42L172,41L172,41L172,39L172,38L171,37L170,35L169,35L168,34L168,33L168,32L167,31L167,30L166,27L167,27L168,26L168,25L168,24L168,23L168,21L168,20L168,19L168,18L169,17L169,15L170,15L170,14L171,13L172,12L172,10L172,8L172,7L172,6L172,5L173,4L174,3L173,2L168,5L166,4L162,2L161,1L159,0L158,0L153,1L152,1L151,1L149,2L147,3L146,5L147,6L145,7L144,8L144,10L142,11L140,11L140,12L139,13L138,14L137,14L135,14L133,15L134,16L134,17L135,18L136,18L136,19L136,20L136,21L135,22L135,23L136,25L136,26L136,27L136,28L136,30L136,31L137,32L138,33L139,34L140,35L141,36L142,37L142,38L142,39L142,40L143,42L145,43L146,43L147,43L147,42L148,41L150,42L150,43L151,43L151,45L150,46L151,47L152,48L153,48L154,49L154,50L153,51L153,52L153,53L154,53L156,54L157,54L158,55L159,56Z " data-fips="HU19" data-hasc="RS.SC" data-name="Severno-Backi" data-postal="SC" data-varname="North Backa"/><path d="M208,58L210,58L211,58L212,57L213,57L215,57L216,57L218,58L219,57L218,56L218,55L217,53L217,52L218,51L219,50L220,49L221,48L222,48L223,49L224,48L226,48L226,47L226,45L226,44L227,43L227,42L227,41L226,40L227,39L227,39L227,37L226,35L225,34L222,30L221,28L220,28L217,28L216,27L212,24L211,23L208,21L207,20L206,19L204,14L204,13L199,7L195,4L194,3L192,4L191,4L190,3L188,2L187,3L185,3L182,2L177,1L174,2L173,2L174,3L173,4L172,5L172,6L172,7L172,8L172,10L172,12L171,13L170,14L170,15L169,15L169,17L168,18L168,19L168,20L168,21L168,23L168,24L168,25L168,26L167,27L166,27L167,30L167,31L168,32L168,33L168,34L169,35L170,35L171,37L172,38L172,39L172,41L172,41L173,41L174,41L176,41L177,41L178,41L179,42L180,42L181,43L182,43L186,43L187,43L188,44L189,45L190,46L192,45L193,44L193,43L192,42L192,40L194,39L195,39L197,40L198,40L200,40L202,40L203,39L204,40L206,40L207,40L207,41L207,43L208,44L208,45L209,46L209,47L211,47L211,48L212,49L211,50L210,51L209,51L208,52L207,52L206,53L206,51L206,50L206,51L205,52L206,53L207,54L206,55L205,56L205,57L206,58L206,58L208,59Z " data-fips="HU19" data-hasc="RS.SN" data-name="Severno-Banatski" data-postal="SN" data-varname="North Banat"/><path d="M316,213L316,212L317,211L318,211L319,210L321,210L322,210L323,209L322,208L322,207L322,206L322,205L322,203L322,202L322,201L322,199L322,198L322,197L321,197L320,198L319,199L318,198L318,196L318,195L318,194L318,193L317,192L317,191L316,190L315,190L313,190L312,190L311,189L312,187L311,187L311,186L310,185L311,184L311,183L312,182L312,181L313,180L314,180L315,179L316,178L317,177L318,177L319,177L320,176L319,175L319,174L319,173L320,171L320,170L320,169L320,168L321,167L322,166L323,165L324,163L325,162L326,161L327,160L327,159L325,154L324,153L322,153L315,150L314,149L313,150L310,151L307,152L303,152L300,151L297,148L297,146L296,144L296,143L294,142L293,141L288,142L282,141L281,140L280,138L279,137L276,137L272,138L269,140L266,142L266,143L265,144L264,145L262,145L260,146L258,147L255,148L256,150L257,151L257,152L257,153L258,154L258,155L259,158L259,160L260,160L262,161L262,162L263,164L263,165L262,166L261,167L263,168L263,169L264,170L265,172L265,172L264,172L263,174L265,175L265,177L263,177L262,178L262,179L262,181L261,182L261,183L261,185L262,186L262,187L263,188L263,189L262,190L262,191L264,192L265,192L266,192L267,193L268,194L269,195L270,196L271,196L272,196L273,195L274,194L274,193L276,194L277,195L277,196L277,197L278,198L279,199L280,199L279,201L279,202L279,202L281,202L282,201L283,201L285,201L286,202L287,202L288,202L289,203L290,204L291,205L292,206L293,207L293,208L294,209L296,209L297,209L299,209L300,209L301,209L302,210L302,211L303,212L304,212L305,211L306,211L307,212L308,213L310,213L311,213L314,213L315,213Z " data-fips="RO12" data-hasc="RS.BR" data-name="Branicevski" data-postal="BR" data-varname="Branicevo"/><path d="M181,153L183,152L184,151L188,149L188,148L188,146L188,145L189,145L189,143L187,143L187,142L187,141L188,141L189,140L190,139L190,138L191,136L191,135L192,133L192,132L192,131L193,130L194,130L196,130L196,129L197,128L198,128L200,128L201,127L204,126L203,124L202,122L203,120L205,118L207,116L205,111L202,106L201,105L200,103L197,102L194,101L186,101L184,101L180,100L179,102L180,102L179,103L178,104L176,104L175,105L174,104L173,104L172,104L171,104L170,104L168,104L166,104L166,103L164,103L163,103L162,104L161,104L160,105L156,104L154,105L153,105L152,105L151,104L150,104L149,104L148,103L147,103L146,102L144,102L143,101L142,102L140,104L140,103L139,103L138,101L138,101L131,101L130,100L129,102L126,102L124,102L123,101L122,100L120,98L119,98L119,100L120,102L120,103L118,104L114,103L113,104L114,106L115,107L115,109L116,110L116,112L116,115L116,117L116,118L116,119L116,120L116,121L119,121L118,124L117,124L116,126L115,127L114,128L113,127L112,126L111,126L109,127L109,129L110,132L113,131L114,131L115,130L123,126L123,127L124,128L126,127L130,128L132,127L134,129L135,129L135,129L134,128L133,126L134,126L136,127L137,127L138,125L139,124L140,125L141,126L141,127L142,128L143,129L144,128L145,127L146,127L147,128L148,129L149,129L150,128L152,128L153,127L156,128L158,126L160,126L161,127L164,128L164,129L163,130L160,136L159,138L160,140L160,142L161,143L163,144L166,144L170,146L172,147L173,149L175,150L180,150L182,151L180,152L176,154L175,155L176,156Z " data-fips="HR18" data-hasc="RS.SM" data-name="Sremski" data-postal="SM" data-varname="Srem"/><path d="M204,293L205,293L206,292L207,291L207,290L208,289L209,288L210,288L210,287L210,286L210,285L210,284L209,283L209,282L209,281L209,280L209,279L209,278L209,277L209,276L208,275L208,274L207,273L206,272L205,271L204,270L204,270L203,268L202,267L204,267L205,266L206,265L207,263L207,262L207,261L207,260L206,259L206,258L207,257L208,256L210,257L211,256L211,256L212,256L213,257L214,256L214,254L213,253L214,252L213,251L212,250L212,248L213,248L215,248L216,247L217,247L218,246L219,245L218,244L219,243L220,242L221,241L221,240L221,239L222,238L223,237L224,236L225,234L224,233L223,232L223,231L222,230L221,230L220,229L220,228L219,227L218,226L220,225L220,225L221,223L222,222L222,221L223,220L224,219L225,220L226,220L226,219L225,217L224,216L223,215L222,214L221,214L220,213L219,212L219,211L219,209L218,208L217,207L216,206L216,205L214,205L214,204L214,203L213,202L212,201L212,200L212,199L212,197L211,196L211,197L210,198L210,199L209,200L208,200L208,201L208,202L207,203L206,203L205,204L205,205L204,206L203,206L202,207L201,207L201,208L199,208L198,209L197,209L196,209L195,209L193,209L192,210L191,210L190,211L189,212L189,213L188,213L187,212L186,212L185,212L185,212L185,214L184,215L185,216L184,217L185,218L186,219L185,220L184,221L184,223L185,224L185,225L186,225L187,226L187,228L187,228L187,229L187,231L188,232L189,232L190,233L189,233L188,233L187,234L187,235L186,236L187,237L188,238L188,239L188,240L189,241L189,242L189,243L189,245L189,246L189,247L190,248L191,248L192,249L192,250L192,251L191,252L191,254L192,254L193,255L192,256L192,258L190,257L189,257L187,257L186,257L186,258L186,260L185,261L184,261L183,260L182,261L181,262L179,263L178,264L177,265L176,265L175,265L174,264L173,263L173,265L173,266L172,267L172,268L173,269L174,270L175,270L176,271L177,272L179,272L180,273L180,274L181,275L180,277L181,278L182,279L182,280L183,282L184,283L184,283L185,284L185,286L186,287L187,288L186,289L187,290L187,291L189,292L190,291L192,291L193,290L195,290L196,290L197,290L199,290L199,292L200,293L201,294L202,295L202,295L204,295Z " data-fips="RB00" data-hasc="RS.MR" data-name="Moravicki" data-postal="MR" data-varname="Moravica|Morava"/><path d="M343,315L344,314L345,312L346,312L347,311L348,310L348,308L348,307L347,306L345,306L344,306L343,305L343,305L341,304L341,304L340,303L339,303L338,302L337,301L335,301L336,300L336,299L337,298L337,297L337,296L338,295L339,294L339,293L339,292L338,292L338,291L337,289L337,288L337,287L339,286L340,286L341,287L343,287L344,288L345,288L346,289L347,289L349,288L350,288L351,287L351,286L351,285L352,283L352,281L352,280L352,279L352,278L352,277L351,276L350,276L349,275L348,275L347,276L346,276L345,276L344,275L344,274L343,274L341,274L340,274L339,274L338,274L336,274L335,273L334,272L333,272L332,271L331,272L330,271L330,270L329,269L328,268L328,267L327,266L326,266L326,265L324,263L323,264L323,265L323,266L324,267L325,268L325,268L324,269L323,268L322,269L321,269L320,269L319,268L318,267L317,266L317,264L316,264L315,263L314,264L313,263L311,263L310,263L309,263L308,262L308,261L308,260L307,259L306,258L305,257L304,256L304,255L303,254L303,251L303,250L304,250L304,249L304,248L302,247L303,246L304,246L304,245L304,244L303,243L301,242L300,240L299,241L298,241L297,241L295,241L294,242L293,242L292,243L291,243L290,244L289,244L288,245L287,246L288,247L288,248L289,249L290,249L290,250L290,252L289,252L288,252L287,254L288,255L289,256L288,258L290,258L289,260L289,261L288,261L288,262L290,263L291,263L291,265L292,265L293,266L293,267L294,268L295,269L294,271L294,272L293,273L293,274L293,275L294,277L294,278L295,279L295,280L293,281L292,281L291,283L290,283L289,284L288,284L288,286L289,287L291,286L292,287L293,287L294,287L296,287L297,286L297,288L296,289L296,290L296,291L296,292L297,293L298,294L299,294L299,295L298,296L298,297L299,298L300,298L301,298L302,299L303,300L304,300L305,300L305,299L305,298L305,296L306,296L307,297L308,297L310,297L310,299L310,300L309,300L309,302L310,303L311,304L312,305L312,306L312,307L313,308L314,307L316,307L317,307L318,306L319,306L320,305L322,308L324,307L325,307L326,306L327,307L328,307L329,307L330,308L330,308L331,309L332,310L333,311L335,312L335,313L336,313L338,314L339,315L340,315L341,315L342,316Z " data-fips="RB00" data-hasc="RS.NS" data-name="Niavski" data-postal="NS" data-varname="Niava"/><path d="M263,202L264,201L263,199L264,199L264,197L264,196L265,194L264,194L262,191L262,190L263,189L263,188L262,187L262,186L261,185L261,183L261,182L262,181L262,179L262,178L263,177L265,177L265,175L263,174L264,172L265,172L265,172L264,170L263,169L263,168L261,167L262,166L263,165L263,164L262,162L262,161L260,160L259,160L259,158L258,155L258,154L257,153L257,152L257,151L256,150L255,148L252,148L244,153L240,154L238,153L236,157L237,159L237,160L237,161L238,162L238,162L239,164L238,164L237,165L236,165L235,166L234,167L235,168L235,169L235,170L236,171L237,171L239,173L240,173L240,174L241,175L241,176L241,177L239,179L237,178L236,178L235,179L235,180L234,182L234,183L234,184L236,185L237,185L237,186L237,186L236,187L236,188L236,189L238,191L239,191L240,192L239,193L240,194L240,195L241,194L243,195L244,196L245,196L246,196L247,196L248,196L250,195L251,194L251,196L251,197L252,198L253,199L254,199L257,200L258,201L259,200L260,201L261,201L262,201L263,202Z " data-fips="RB00" data-hasc="RS.PD" data-name="Podunavski" data-postal="PD" data-varname="Podunavlje|Danube"/><path d="M263,250L263,248L263,247L264,246L265,246L266,247L267,246L268,245L270,244L271,244L271,243L271,241L271,240L271,239L272,238L272,237L273,237L273,238L273,239L273,241L272,242L272,243L272,244L273,245L274,245L275,244L276,244L277,244L279,244L280,244L281,249L283,248L284,248L285,247L286,247L287,246L288,245L289,244L290,244L291,243L292,243L293,242L294,242L295,241L297,241L298,241L299,241L300,240L300,240L301,239L302,237L303,236L303,235L302,234L302,233L303,231L304,231L305,230L306,230L306,229L306,228L307,226L307,225L308,224L309,223L309,222L309,221L309,220L310,219L310,218L310,217L311,216L312,215L311,213L310,213L308,213L307,212L306,211L305,211L304,212L303,212L302,211L302,210L301,209L300,209L299,209L297,209L296,209L294,209L293,208L293,207L292,206L291,205L290,204L289,203L288,202L287,202L286,202L285,201L283,201L282,201L281,202L279,202L279,202L279,201L280,199L279,199L278,198L277,197L277,196L277,195L276,194L274,193L274,194L273,195L272,196L271,196L270,196L269,195L268,194L267,193L266,192L265,192L264,192L264,194L265,194L264,196L264,197L264,199L263,199L264,201L263,202L263,202L263,203L263,205L262,207L262,208L262,209L263,210L263,212L262,212L261,213L260,214L259,214L258,215L257,216L259,217L260,218L260,219L260,220L260,221L259,221L257,222L256,223L256,224L257,225L257,226L257,227L256,228L256,229L256,230L255,230L254,231L253,232L254,233L254,234L254,235L253,236L252,237L251,238L250,238L249,239L249,240L248,240L246,240L246,241L247,243L247,244L247,245L248,246L249,247L250,248L250,249L252,248L253,248L254,249L255,249L257,249L258,250L259,250L260,250L261,251L262,251L264,252Z " data-fips="RB00" data-hasc="RS.PM" data-name="Pomoravski" data-postal="PM" data-varname="Pomoravlje"/><path d="M247,308L247,307L248,305L249,305L250,304L250,303L249,301L249,299L250,298L251,297L251,296L252,296L254,297L255,296L256,296L257,297L258,298L258,298L260,298L261,298L262,297L263,296L264,295L264,294L264,293L265,292L266,291L267,290L268,289L268,288L268,287L268,286L269,286L270,286L271,285L273,285L274,284L275,283L277,283L278,283L279,283L281,284L281,283L282,283L283,283L284,283L285,284L286,285L288,284L289,284L290,283L291,283L292,281L293,281L295,280L295,279L294,278L294,277L293,275L293,274L293,273L294,272L294,271L295,269L294,268L293,267L293,266L292,265L291,265L291,263L290,263L288,262L288,261L289,261L289,260L290,258L288,258L289,256L288,255L287,254L288,252L289,252L290,252L290,250L290,249L289,249L288,248L288,247L287,246L286,247L285,247L284,248L283,248L281,249L280,244L279,244L277,244L276,244L275,244L274,245L273,245L272,244L272,243L272,242L273,241L273,239L273,238L273,237L272,237L272,238L271,239L271,240L271,241L271,243L271,244L270,244L268,245L267,246L266,247L265,246L264,246L263,247L263,248L263,250L264,252L262,251L261,251L260,250L259,250L258,250L257,249L255,249L254,249L253,248L252,248L250,249L250,248L249,248L248,249L247,248L247,249L247,250L247,252L247,253L247,254L246,255L245,256L244,257L246,257L247,258L248,259L249,259L249,260L248,261L247,262L246,263L246,265L247,266L247,267L247,268L248,269L249,271L248,271L246,272L245,272L244,272L243,272L242,271L241,270L240,270L239,271L237,271L236,270L236,271L236,272L237,273L237,274L237,275L237,276L236,278L236,279L236,280L236,281L236,282L237,283L238,283L239,283L241,283L241,284L240,286L241,287L241,288L241,289L240,290L239,291L239,292L239,293L239,294L239,296L240,296L241,297L242,298L243,300L242,300L241,301L241,302L241,305L247,308Z " data-fips="RB00" data-hasc="RS.RN" data-name="Pomoravski" data-postal="RN" data-varname="Rasina"/><path d="M211,338L214,336L216,334L215,332L214,331L212,330L213,327L214,325L216,325L217,325L218,324L219,323L220,322L222,321L223,321L225,320L227,317L228,313L228,310L227,310L225,309L225,308L224,306L224,304L223,303L224,301L227,301L229,301L231,299L234,296L236,295L238,295L239,296L239,294L239,293L239,292L239,291L240,290L241,289L241,288L241,287L240,286L241,284L241,283L239,283L238,283L237,283L236,282L236,281L236,280L236,279L236,278L237,276L237,275L237,274L237,273L236,272L236,271L236,270L237,271L239,271L240,270L241,270L242,271L243,272L244,272L245,272L246,272L248,271L249,271L248,269L247,268L247,267L247,266L246,265L246,263L247,262L248,261L249,260L249,259L248,259L247,258L246,257L244,257L245,256L246,255L247,254L247,253L247,252L247,250L247,249L247,248L248,249L249,248L250,248L249,247L248,246L247,245L247,244L247,243L246,241L246,240L246,239L245,238L244,238L243,237L242,237L241,238L239,238L238,238L237,238L236,239L235,240L236,240L236,242L235,242L234,243L233,243L232,243L231,242L230,242L229,240L229,240L228,238L228,237L226,236L224,236L223,237L222,238L221,239L221,240L221,241L220,242L219,243L218,244L219,245L218,246L217,247L216,247L215,248L213,248L212,248L212,250L213,251L214,252L213,253L214,254L214,256L213,257L212,256L211,256L211,256L210,257L208,256L207,257L206,258L206,259L207,260L207,261L207,262L207,263L206,265L205,266L204,267L202,267L203,268L204,270L204,270L205,271L206,272L207,273L208,274L208,275L209,276L209,277L209,278L209,279L209,280L209,281L209,282L209,283L210,284L210,285L210,286L210,287L210,288L209,288L208,289L207,290L207,291L206,292L205,293L204,293L204,295L202,295L202,295L201,294L200,293L199,292L199,292L198,294L197,295L197,296L196,298L195,299L194,300L195,301L196,302L197,303L198,303L199,304L200,305L200,306L199,306L197,306L196,307L195,308L193,308L191,308L190,309L189,310L190,311L189,312L188,312L187,313L186,314L185,315L184,316L184,318L183,319L183,320L188,324L189,325L193,325L196,326L199,329L204,331L205,333L205,335L205,339Z " data-fips="RB00" data-hasc="RS.RS" data-name="Raki" data-postal="RS" data-varname="Raka"/><path d="M284,338L285,336L286,334L286,333L286,332L286,331L287,330L288,329L288,328L288,326L287,325L287,324L288,323L290,322L291,321L292,320L293,319L294,319L298,319L298,318L299,318L300,317L301,316L302,317L303,316L304,315L305,315L306,314L307,313L308,312L309,312L310,312L312,311L313,310L313,309L313,308L312,307L312,306L312,305L311,304L310,303L309,302L309,300L310,300L310,299L310,297L308,297L307,297L306,296L305,296L305,298L305,299L305,300L304,300L303,300L302,299L301,298L300,298L299,298L298,297L298,296L299,295L299,294L298,294L297,293L296,292L296,291L296,290L296,289L297,288L297,286L296,287L294,287L293,287L292,287L291,286L289,287L288,286L288,284L286,285L285,284L284,283L283,283L282,283L281,283L281,284L279,283L278,283L277,283L275,283L274,284L273,285L271,285L270,286L269,286L268,286L268,287L268,288L268,289L267,290L266,291L265,292L264,293L264,294L264,295L263,296L262,297L261,298L260,298L258,298L258,298L257,297L256,296L255,296L254,297L252,296L251,296L251,297L250,298L249,299L249,301L250,303L250,304L249,305L248,305L247,307L247,308L247,308L253,312L255,312L260,313L261,314L262,316L263,321L264,323L265,323L266,323L267,322L269,322L270,324L270,328L270,331L273,334L275,333L277,334L279,336L281,336L283,336L283,338Z " data-fips="RB00" data-hasc="RS.TO" data-name="Toplicki" data-postal="TO" data-varname="Toplica"/><path d="M201,196L202,195L203,195L204,195L205,194L205,193L206,192L207,191L208,191L209,191L209,190L209,189L210,188L210,187L211,186L212,185L211,184L211,183L210,182L209,182L210,180L210,180L211,179L212,178L214,178L214,179L216,180L217,180L218,181L219,182L219,184L219,185L220,184L222,184L224,183L225,183L225,184L225,185L226,187L227,187L227,188L229,187L230,187L231,187L232,188L234,188L235,189L235,190L236,189L236,188L236,187L237,186L237,186L237,185L236,185L234,184L234,183L234,182L235,180L235,179L236,178L237,178L239,179L241,177L241,176L241,175L240,174L240,173L239,173L237,171L236,171L235,170L235,169L235,168L234,167L235,166L236,165L237,165L238,164L239,164L238,162L238,162L237,161L237,160L237,159L236,157L238,153L236,153L234,152L233,150L230,146L229,145L227,144L226,143L226,142L226,141L227,136L227,135L226,134L224,134L224,132L224,130L223,129L222,128L221,128L220,128L218,127L217,125L217,124L217,123L216,123L215,122L214,121L213,120L213,119L211,118L210,117L210,116L210,115L209,114L209,112L208,111L207,111L205,111L207,116L205,118L203,120L202,122L203,124L204,126L201,127L200,128L198,128L197,128L196,129L196,130L194,130L193,130L192,131L192,132L192,133L191,135L191,136L190,138L190,139L189,140L188,141L187,141L187,142L187,143L189,143L189,145L188,145L188,146L188,148L188,149L184,151L183,152L181,153L178,159L178,161L179,162L178,164L178,165L179,166L179,167L180,168L181,168L182,168L184,169L185,168L186,167L187,167L188,168L189,169L190,170L192,169L192,168L193,167L193,166L194,166L194,167L195,168L195,169L195,171L196,171L196,172L197,174L197,175L196,177L197,178L197,179L197,180L196,182L195,182L195,183L194,185L195,185L195,186L194,187L194,189L195,190L196,192L197,193L198,194L199,194L199,195L200,196Z " data-fips="RB02" data-hasc="RS.BG" data-name="Grad Beograd" data-postal="BG" data-varname="Belgrade"/><path d="M166,215L166,214L166,213L166,212L165,210L164,209L164,208L165,208L166,208L167,209L168,209L169,209L170,208L171,207L172,207L173,208L174,208L173,209L174,210L175,211L176,212L177,212L179,213L179,211L180,211L181,210L183,211L184,211L185,212L186,212L187,212L188,213L189,213L189,212L190,211L191,210L192,210L193,209L195,209L196,209L197,209L198,209L199,208L201,208L201,207L202,207L203,206L204,206L205,205L205,204L206,203L207,203L208,202L208,201L208,200L209,200L210,199L210,198L211,197L211,196L211,196L211,194L210,193L211,192L210,191L209,191L208,191L207,191L206,192L205,193L205,194L204,195L203,195L202,195L201,196L200,196L199,195L199,194L198,194L197,193L196,192L195,190L194,189L194,187L195,186L195,185L194,185L195,183L195,182L196,182L197,180L197,179L197,178L196,177L197,175L197,174L196,172L196,171L195,171L195,169L195,168L194,167L194,166L193,166L193,167L192,168L192,169L190,170L189,169L188,168L187,167L186,167L185,168L184,169L182,168L181,168L180,168L179,167L179,166L178,165L178,164L178,163L177,164L176,164L175,164L174,164L173,164L172,165L171,165L170,166L170,167L170,168L171,170L171,171L171,172L170,173L171,174L171,176L170,176L168,176L168,177L169,178L169,180L169,181L168,181L164,181L164,180L164,179L163,178L161,178L159,177L157,176L156,176L155,176L154,176L152,177L151,177L150,176L150,176L149,175L147,175L146,176L145,175L144,176L144,177L145,177L144,178L144,180L144,181L143,183L141,183L141,183L141,184L142,185L143,185L143,186L144,187L143,188L142,188L141,189L140,190L140,191L139,192L139,193L139,194L140,195L141,196L142,196L143,196L144,197L145,198L146,198L147,198L148,199L149,200L150,201L150,202L150,203L151,204L152,205L153,206L154,205L155,206L156,207L157,207L158,208L159,208L159,208L160,209L161,210L162,211L163,212L164,213L164,214L165,215Z " data-fips="BK00" data-hasc="RS.KB" data-name="Kolubarski" data-postal="KB" data-varname="Kolubara"/><path d="M146,210L147,208L148,208L149,208L150,208L152,208L152,207L153,206L152,205L151,204L150,203L150,202L150,201L149,200L148,199L147,198L146,198L145,198L144,197L143,196L142,196L141,196L140,195L139,194L139,193L139,192L140,191L140,190L141,189L142,188L143,188L144,187L143,186L143,185L142,185L141,184L141,183L141,183L143,183L144,181L144,180L144,178L145,177L144,177L144,176L145,175L146,176L147,175L149,175L150,176L150,176L151,177L152,177L154,176L155,176L156,176L157,176L159,177L161,178L163,178L164,179L164,180L164,181L168,181L169,181L169,180L169,178L168,177L168,176L170,176L171,176L171,174L170,173L171,172L171,171L171,170L170,168L170,167L170,166L171,165L172,165L173,164L174,164L175,164L176,164L177,164L178,163L179,162L178,161L178,159L176,156L175,155L176,154L180,152L182,151L180,150L175,150L173,149L172,147L170,146L166,144L163,144L161,143L160,142L160,140L159,138L160,136L163,130L164,129L164,128L161,127L160,126L158,126L156,128L153,127L152,128L150,128L149,129L148,129L147,128L146,127L145,127L144,128L143,129L142,128L141,127L141,126L140,125L139,124L138,125L137,127L136,127L134,126L133,126L134,128L135,129L135,129L136,130L136,131L136,132L135,133L133,145L132,147L131,148L130,149L129,150L128,151L127,154L124,160L122,161L122,162L122,163L121,165L120,166L118,167L118,169L119,173L118,176L118,177L117,179L116,181L116,183L116,185L118,188L119,190L121,190L124,191L126,192L127,192L130,192L131,193L133,195L133,197L134,199L134,200L135,202L138,204L140,205L141,204L142,205L143,208L144,209L145,211Z " data-fips="BK00" data-hasc="RS.MA" data-name="Macvanski" data-postal="MA" data-varname="Macva"/><path d="M234,243L235,242L236,242L236,240L235,240L236,239L237,238L238,238L239,238L241,238L242,237L243,237L244,238L245,238L246,239L246,240L248,240L249,240L249,239L250,238L251,238L252,237L253,236L254,235L254,234L254,233L253,232L254,231L255,230L256,230L256,229L256,228L257,227L257,226L257,225L256,224L256,223L257,222L259,221L260,221L260,220L260,219L260,218L259,217L257,216L258,215L259,214L260,214L261,213L262,212L263,212L263,210L262,209L262,208L262,207L263,205L263,203L263,202L262,201L261,201L260,201L259,200L258,201L257,200L254,199L253,199L252,198L251,197L251,196L251,194L250,195L248,196L247,196L246,196L245,196L244,196L243,195L241,194L240,195L240,194L239,193L240,192L239,191L238,191L235,190L235,189L234,188L232,188L231,187L230,187L229,187L227,188L227,187L226,187L225,185L225,184L225,183L224,183L222,184L220,184L219,185L219,184L219,182L218,181L217,180L216,180L214,179L214,178L212,178L211,179L210,180L210,180L209,182L210,182L211,183L211,184L212,185L211,186L210,187L210,188L209,189L209,190L209,191L210,191L211,192L210,193L211,194L211,196L211,196L212,197L212,199L212,200L212,201L213,202L214,203L214,204L214,205L216,205L216,206L217,207L218,208L219,209L219,211L219,212L220,213L221,214L222,214L223,215L224,216L225,217L226,219L226,220L225,220L224,219L223,220L222,221L222,222L221,223L220,225L220,225L218,226L219,227L220,228L220,229L221,230L222,230L223,231L223,232L224,233L225,234L226,236L228,237L228,238L229,240L229,240L230,242L231,242L232,243L233,243Z " data-fips="RB00" data-hasc="RS.SU" data-name="umadijski" data-postal="SU" data-varname="umadija"/><path d="M305,398L306,397L314,392L316,391L320,391L322,389L324,389L328,391L330,392L333,392L335,391L346,387L348,385L349,385L349,388L350,389L351,390L353,390L354,390L355,390L359,389L360,389L361,388L362,384L363,382L365,381L366,381L367,379L367,377L368,375L368,373L368,372L367,370L366,369L364,368L359,364L360,362L360,361L361,358L361,357L361,354L361,353L362,349L363,348L363,347L362,346L361,345L359,340L359,339L358,340L357,340L356,341L355,342L355,343L354,343L352,344L351,345L350,346L348,347L347,346L346,346L345,346L344,345L343,344L342,344L340,342L340,341L339,341L338,341L338,342L337,342L336,342L336,341L336,340L335,339L334,339L333,340L332,341L331,341L329,341L328,340L327,340L326,341L326,342L325,343L323,343L322,343L320,343L319,343L317,344L316,344L314,345L314,346L313,347L312,348L312,349L312,350L311,352L310,352L309,353L309,354L310,355L311,357L310,358L309,359L308,360L307,362L307,363L307,365L307,367L303,373L300,376L300,377L299,379L300,382L299,384L298,385L293,387L292,388L292,391L295,395L296,398L300,398L303,399L304,399Z " data-fips="MK59" data-hasc="RS.PC" data-name="Pcinjski" data-postal="PC" data-varname="Pcinja"/><path d="M301,355L304,353L306,353L309,354L309,353L310,352L311,352L312,350L312,349L312,348L313,347L314,346L314,345L316,344L317,344L319,343L320,343L322,343L323,343L325,343L326,342L326,341L327,340L328,340L329,341L331,341L332,341L333,340L334,339L335,339L336,340L336,341L336,342L337,342L338,342L338,341L339,341L340,341L340,342L342,344L343,344L344,345L345,346L346,346L347,346L348,347L350,346L351,345L352,344L354,343L355,343L355,342L356,341L357,340L358,340L359,339L360,338L362,337L363,336L364,335L365,334L366,334L368,334L367,333L365,333L364,333L363,333L362,333L361,333L360,332L358,332L357,331L357,330L356,329L355,328L355,328L356,327L357,326L356,325L355,325L354,324L353,324L352,324L351,323L349,322L348,322L347,322L346,322L345,321L344,320L343,320L342,319L343,318L344,317L345,316L346,315L345,314L344,314L343,315L342,316L341,315L340,315L339,315L338,314L336,313L335,313L335,312L333,311L332,310L331,309L330,308L330,308L329,307L328,307L327,307L326,306L325,307L324,307L322,308L320,305L319,306L318,306L317,307L316,307L314,307L313,308L313,309L313,310L312,311L310,312L309,312L308,312L307,313L306,314L305,315L304,315L303,316L302,317L301,316L300,317L299,318L298,318L298,319L294,319L293,319L292,320L291,321L290,322L288,323L287,324L287,325L288,326L288,328L288,329L287,330L286,331L286,332L286,333L286,334L285,336L284,338L283,338L284,340L283,342L282,345L281,347L282,348L284,348L286,348L294,349L295,350L296,351L299,354L300,355Z " data-fips="MK97" data-hasc="RS.JA" data-name="Jablanicki" data-postal="JA" data-varname="Jablanica"/><path d="M369,286L370,285L371,284L372,283L373,283L374,282L375,281L375,280L374,278L373,277L371,277L370,277L368,275L366,274L365,273L364,271L362,266L361,264L361,263L362,262L361,261L362,260L361,259L361,256L360,255L360,254L357,253L356,252L356,251L355,250L355,249L354,246L354,244L353,242L352,239L352,237L353,234L353,231L354,228L355,226L355,224L355,221L355,220L356,219L357,218L360,218L359,217L359,216L358,214L359,213L359,213L360,212L361,211L360,210L360,209L359,208L357,208L356,207L356,206L355,206L353,205L352,205L351,206L351,206L349,206L347,206L346,206L346,206L344,204L343,203L342,204L341,205L340,206L340,208L340,209L341,209L341,211L341,212L342,213L342,214L343,215L343,217L343,218L343,219L342,219L341,220L340,222L339,223L339,224L338,226L338,227L338,228L337,229L336,230L336,230L335,231L335,233L333,231L332,231L330,230L330,229L330,228L329,227L329,226L328,225L327,225L327,226L326,226L325,226L324,226L323,225L322,225L321,224L320,223L319,222L318,221L317,221L316,221L315,221L314,221L313,221L312,221L311,221L310,221L309,221L309,222L309,223L308,224L307,225L307,226L306,228L306,229L306,230L305,230L304,231L303,231L302,233L302,234L303,235L303,236L302,237L301,239L300,240L300,240L301,242L303,243L304,244L304,245L304,246L303,246L302,247L304,248L304,249L304,250L303,250L303,251L303,254L304,255L304,256L305,257L306,258L307,259L308,260L308,261L308,262L309,263L310,263L311,263L313,263L314,264L315,263L316,264L317,264L317,266L318,267L319,268L320,269L321,269L322,269L323,268L324,269L325,268L325,268L324,267L323,266L323,265L323,264L324,263L326,265L326,266L327,266L328,267L328,268L329,269L330,270L330,271L331,272L332,271L333,272L334,272L335,273L336,274L338,274L339,274L340,274L341,274L343,274L344,274L344,275L345,276L346,276L347,276L348,275L349,275L350,276L351,276L352,277L352,278L352,279L352,280L352,281L353,283L354,283L355,284L356,284L357,284L359,286L361,286L362,285L362,284L363,284L364,285L365,286L365,287L366,287L368,287L369,288Z " data-fips="RB00" data-hasc="RS.ZJ" data-name="Zajecarski" data-postal="ZJ" data-varname="Zajecar"/><path d="M201,104L202,102L202,101L204,100L204,98L204,96L203,93L199,90L199,87L199,86L200,85L199,83L197,81L196,79L198,74L196,72L190,66L189,65L189,64L189,62L190,61L191,60L190,58L188,58L186,57L188,56L189,53L189,51L189,49L188,47L190,46L189,45L188,44L187,43L186,43L182,43L181,43L180,42L179,42L178,41L177,41L176,41L174,41L173,41L172,41L171,42L170,42L169,42L168,42L166,43L165,43L164,44L165,45L165,47L164,48L164,49L164,50L163,52L163,53L163,54L163,55L162,55L161,56L159,56L158,55L157,54L156,54L154,53L153,53L153,52L152,53L151,54L151,55L150,56L151,57L151,59L150,60L148,60L148,61L147,62L147,63L146,64L145,65L144,64L143,63L141,63L140,64L139,64L139,65L139,67L137,68L136,68L136,70L136,71L136,72L137,73L136,74L135,74L134,74L133,74L132,74L131,73L130,72L129,72L129,73L128,74L126,74L125,74L124,74L124,73L123,72L122,72L121,72L119,72L118,72L118,70L117,70L116,69L115,69L113,69L112,69L112,68L112,68L111,68L110,70L111,73L113,74L113,75L112,76L109,78L110,80L111,81L112,82L113,82L116,82L117,84L117,86L119,88L122,89L136,93L137,95L138,96L139,98L139,100L138,101L139,103L140,103L140,104L142,102L143,101L144,102L146,102L147,103L148,103L149,104L150,104L151,104L152,105L153,105L154,105L156,104L160,105L161,104L162,104L163,103L164,103L166,103L166,104L168,104L170,104L171,104L172,104L173,104L174,104L175,105L176,104L178,104L179,103L180,102L179,102L180,100L184,101L186,101L194,101L197,102L200,103L201,105Z " data-fips="RB02" data-hasc="RS.JC" data-name="Juno-Backi" data-postal="JC" data-varname="South Backa"/><path d="M244,153L252,148L255,148L258,147L260,146L262,145L264,145L265,144L266,143L266,142L269,140L272,138L276,137L279,137L277,136L278,135L278,134L279,133L281,132L285,132L287,132L290,131L291,130L291,128L291,127L290,126L287,125L285,124L282,123L280,122L280,121L279,121L278,119L278,118L279,117L282,117L283,116L283,115L284,113L284,111L284,110L285,108L287,108L288,107L288,106L288,105L285,102L284,100L282,99L274,97L271,97L270,96L267,94L266,93L264,89L262,89L260,90L258,90L257,88L254,87L253,88L252,89L251,88L249,88L248,89L247,89L246,89L244,90L243,91L242,92L241,93L240,94L241,95L241,95L240,96L239,97L238,98L236,99L236,100L235,100L234,101L234,102L233,103L232,104L232,103L231,102L230,101L228,99L227,99L225,98L224,98L222,97L221,98L221,99L220,100L219,100L218,100L218,100L217,100L216,99L215,100L214,102L214,103L213,104L214,106L213,107L212,107L212,108L212,109L211,111L210,112L209,114L210,115L210,116L210,117L211,118L213,119L213,120L214,121L215,122L216,123L217,123L217,124L217,125L218,127L220,128L221,128L222,128L223,129L224,130L224,132L224,134L226,134L227,135L227,136L226,141L226,142L226,143L227,144L229,145L230,146L233,150L234,152L236,153L238,153L240,154Z " data-fips="RB02" data-hasc="RS.JN" data-name="Juno-Banatski" data-postal="JN" data-varname="South Banat"/><path d="M210,112L211,111L212,109L212,108L212,107L213,107L214,106L213,104L214,103L214,102L215,100L216,99L217,100L218,100L218,100L219,100L220,100L221,99L221,98L222,97L224,98L225,98L227,99L228,99L230,101L231,102L232,103L232,104L233,103L234,102L234,101L235,100L236,100L236,99L238,98L239,97L240,96L241,95L241,95L240,94L241,93L242,92L243,91L244,90L246,89L247,89L248,89L249,88L251,88L252,89L253,88L254,87L251,86L250,85L247,81L243,77L241,74L239,73L238,72L237,72L236,71L236,69L237,68L238,67L238,66L237,63L235,60L235,58L236,56L237,53L237,51L237,46L237,45L237,43L237,42L235,42L234,43L234,44L233,45L231,45L230,44L230,43L228,41L227,39L226,40L227,41L227,42L227,43L226,44L226,45L226,47L226,48L224,48L223,49L222,48L221,48L220,49L219,50L218,51L217,52L217,53L218,55L218,56L219,57L218,58L216,57L215,57L213,57L212,57L211,58L210,58L208,58L208,59L206,58L206,58L205,57L205,56L206,55L207,54L206,53L205,52L206,51L206,50L206,51L206,53L207,52L208,52L209,51L210,51L211,50L212,49L211,48L211,47L209,47L209,46L208,45L208,44L207,43L207,41L207,40L206,40L204,40L203,39L202,40L200,40L198,40L197,40L195,39L194,39L192,40L192,42L193,43L193,44L192,45L190,46L188,47L189,49L189,51L189,53L188,56L186,57L188,58L190,58L191,60L190,61L189,62L189,64L189,65L190,66L196,72L198,74L196,79L197,81L199,83L200,85L199,86L199,87L199,90L203,93L204,96L204,98L204,100L202,101L202,102L201,104L201,105L202,106L205,111L207,111L208,111L209,112Z " data-fips="RB02" data-hasc="RS.SD" data-name="Srednje-Banatski" data-postal="SD" data-varname="Central Banat"/><path d="M184,318L184,316L185,315L186,314L187,313L188,312L189,312L190,311L189,310L190,309L191,308L193,308L195,308L196,307L197,306L199,306L200,306L200,305L199,304L198,303L197,303L196,302L195,301L194,300L195,299L196,298L197,296L197,295L198,294L199,292L199,292L199,290L197,290L196,290L195,290L193,290L192,291L190,291L189,292L187,291L187,290L186,289L187,288L186,287L185,286L185,284L184,283L184,283L183,282L182,280L182,279L181,278L180,277L181,275L180,274L180,273L179,272L177,272L176,271L175,270L174,270L173,269L172,268L172,267L173,266L173,265L173,263L174,264L175,265L176,265L177,265L178,264L179,263L181,262L182,261L183,260L184,261L185,261L186,260L186,258L186,257L187,257L189,257L190,257L192,258L192,256L193,255L192,254L191,254L191,252L192,251L192,250L192,249L191,248L190,248L189,247L189,246L189,245L189,243L189,242L189,241L188,240L188,239L188,238L187,237L186,236L187,235L187,234L188,233L189,233L190,233L189,232L188,232L187,231L187,229L187,228L187,228L187,226L186,225L185,225L185,224L184,223L184,221L185,220L186,219L185,218L184,217L185,216L184,215L185,214L185,212L185,212L184,211L183,211L181,210L180,211L179,211L179,213L177,212L176,212L175,211L174,210L173,209L174,208L173,208L172,207L171,207L170,208L169,209L168,209L167,209L166,208L165,208L164,208L164,209L165,210L166,212L166,213L166,214L166,215L165,215L164,214L164,213L163,212L162,211L161,210L160,209L159,208L159,208L158,208L157,207L156,207L155,206L154,205L153,206L152,207L152,208L150,208L149,208L148,208L147,208L146,210L145,211L145,211L148,213L150,214L151,214L152,214L152,216L152,218L150,219L147,222L146,222L144,222L140,222L136,222L135,222L134,222L133,222L131,220L129,219L128,218L127,218L125,219L125,221L125,223L124,224L125,224L127,226L129,229L133,236L140,244L142,247L144,253L144,256L142,257L141,259L141,260L141,262L142,263L142,264L142,264L138,263L137,265L136,266L136,265L135,264L134,262L133,260L131,260L129,261L128,261L125,261L124,263L123,265L122,267L121,267L119,269L119,272L120,275L122,276L132,281L133,282L136,287L141,291L141,293L143,296L143,297L146,299L148,302L150,303L151,304L154,305L156,305L157,305L158,305L160,309L162,310L163,312L165,312L167,313L170,312L171,312L173,310L175,311L175,312L175,313L176,314L181,317L183,319Z " data-fips="BK00" data-hasc="RS.ZL" data-name="Zlatiborski" data-postal="ZL" data-varname="Zlatibor"/></g></svg>