<?xml version="1.0" ?><!DOCTYPE svg  PUBLIC '-//W3C//DTD SVG 1.1//EN'  'http://www.w3.org/Graphics/SVG/1.1/DTD/svg11.dtd'><svg enable_background="new 0 0 500 401" height="401px" style="stroke-linejoin: round; stroke:#000; fill:#f6f3f0;" version="1.1" viewBox="0 0 500 401" width="500px" xmlns="http://www.w3.org/2000/svg" xmlns:xlink="http://www.w3.org/1999/xlink"><defs><style type="text/css"><![CDATA[path { fill-rule: evenodd; }
#context path { fill: #eee; stroke: #bbb; } ]]></style></defs><metadata><views><view h="401" padding="0" w="500"><proj id="laea" lat0="62.011" lon0="15.27"/><bbox h="169.69" w="71.3" x="973.52" y="912.35"/><llbbox lat0="-90" lat1="90" lon0="-180" lon1="180"/></view></views></metadata><g id="admin1"><path d="M252,256L253,256L254,256L256,255L257,255L256,252L257,251L258,250L258,246L258,245L257,244L256,244L257,243L258,242L257,241L257,240L256,237L255,236L255,235L256,234L255,234L255,232L255,231L255,230L255,229L256,228L255,227L254,226L255,226L255,226L256,226L255,225L254,224L254,223L255,222L255,221L255,220L254,219L255,219L254,218L254,217L255,217L254,216L255,216L256,215L254,214L255,214L256,215L257,215L257,214L258,215L258,216L259,217L259,216L259,215L259,214L258,214L258,212L258,211L257,210L257,209L257,208L257,207L257,206L258,205L258,204L258,203L259,202L255,201L252,201L245,199L241,199L233,196L232,196L230,198L230,199L231,201L231,202L230,203L226,206L227,208L227,209L226,210L226,211L225,211L224,211L223,211L222,212L220,210L219,212L219,213L218,214L218,217L218,218L220,219L220,220L221,221L226,221L227,220L228,221L231,225L234,228L234,229L234,230L234,232L236,234L238,234L241,235L242,237L242,239L243,239L244,241L245,242L244,243L244,244L243,246L242,246L242,248L242,249L243,250L245,252L246,253L247,254L248,255L248,257L249,258L251,258Z " data-fips="SW03" data-hasc="SE.GV" data-name="Gvleborg" data-postal="GV" data-varname="Gvleborgs ln"/><path d="M214,353L215,352L215,351L214,350L214,349L214,348L215,347L217,346L220,345L221,345L223,346L223,347L225,347L226,346L227,346L227,344L228,345L231,345L233,344L232,343L232,342L232,341L233,340L232,339L233,338L234,338L234,337L234,336L234,335L234,333L233,332L232,332L227,330L226,329L226,328L226,327L225,326L225,325L225,324L225,323L226,322L225,321L225,319L224,318L223,318L223,319L222,320L218,319L216,318L216,316L213,322L213,323L212,324L212,325L210,326L209,326L209,327L208,326L206,327L205,326L205,329L205,330L204,331L204,332L204,333L204,335L203,336L202,337L201,339L200,340L199,341L198,342L197,343L196,344L194,347L194,348L195,349L196,349L197,348L200,348L201,348L202,349L202,350L203,352L205,350L206,351L209,350L210,350L211,351L211,352L212,354L214,354Z " data-fips="SW08" data-hasc="SE.JO" data-name="Jnkping" data-postal="JO" data-varname="Jnkpings ln"/><path d="M241,371L242,368L242,367L243,365L244,364L244,363L244,361L245,361L246,361L246,359L246,358L247,358L248,357L247,357L247,355L247,354L247,353L247,352L247,351L247,350L248,349L249,350L249,349L248,348L248,347L247,345L248,344L248,343L249,341L248,340L250,340L250,339L250,338L251,338L250,336L249,335L248,334L248,333L249,334L250,333L249,332L249,331L250,331L251,331L250,330L249,329L249,328L248,327L247,327L246,325L248,327L250,329L247,325L248,325L248,324L248,322L249,324L249,325L250,325L252,325L252,324L251,323L250,323L249,322L249,321L249,319L247,319L246,319L245,319L244,319L243,319L242,320L241,320L240,321L240,322L241,323L240,324L241,325L240,326L239,328L238,327L236,327L235,326L234,327L233,328L233,329L231,330L232,332L233,332L234,333L234,335L234,336L234,337L234,338L233,338L232,339L233,340L232,341L232,342L232,343L233,344L233,346L234,347L235,348L236,350L237,352L238,353L237,354L235,354L233,354L233,355L233,356L233,357L231,357L231,358L231,359L231,361L231,364L230,365L230,366L230,366L231,366L233,366L234,366L235,367L236,368L237,370L238,370L240,371Z M248,373L249,371L249,370L249,368L250,367L250,366L250,365L251,364L251,363L251,361L252,358L252,357L253,356L254,354L254,352L254,351L254,350L255,349L255,348L256,347L256,345L257,344L256,343L258,342L257,341L256,341L255,343L255,345L254,346L254,348L253,349L253,351L252,353L251,354L250,355L247,362L247,363L247,364L247,368L247,369L247,370L247,372L247,373L247,374Z " data-fips="SW09" data-hasc="SE.KA" data-name="Kalmar" data-postal="KA" data-varname="Kalmar ln"/><path d="M232,266L233,265L234,265L235,264L235,262L235,261L235,260L237,259L238,259L239,259L240,259L241,260L241,261L242,262L244,262L246,261L247,259L249,258L248,257L248,255L247,254L246,253L245,252L243,250L242,249L242,248L242,246L243,246L244,244L244,243L245,242L244,241L243,239L242,239L242,237L241,235L238,234L236,234L234,232L234,230L234,229L234,228L231,225L228,221L227,220L226,221L221,221L220,220L220,219L218,218L216,218L215,218L206,216L205,215L204,213L203,212L203,211L202,209L203,206L201,205L200,205L198,204L197,202L195,200L189,198L189,199L186,214L188,216L189,218L191,218L192,219L195,225L195,227L194,229L193,231L192,233L193,233L193,235L198,240L199,242L199,243L200,244L202,248L202,250L204,251L205,252L208,257L209,258L210,258L210,257L211,257L212,257L213,258L213,260L214,261L217,263L221,264L221,263L221,262L223,262L223,262L225,263L228,264L232,267Z " data-fips="SW10" data-hasc="SE.KO" data-name="Dalarna" data-postal="KO" data-varname="Dalecarlia|Kopparberg"/><path d="M223,369L224,367L226,367L227,367L228,367L229,367L230,366L230,365L231,364L231,361L231,359L231,358L231,357L233,357L233,356L233,355L233,354L235,354L237,354L238,353L237,352L236,350L235,348L234,347L233,346L231,345L228,345L227,344L227,346L226,346L225,347L223,347L223,346L221,345L220,345L217,346L215,347L214,348L214,349L214,350L215,351L215,352L214,353L214,354L212,354L211,352L211,351L210,350L209,350L206,351L205,350L203,352L203,353L202,354L200,355L199,355L198,355L197,356L197,357L197,359L197,360L198,361L199,363L199,364L199,365L199,366L200,368L201,368L208,366L209,365L210,365L211,365L213,365L214,366L218,367L219,368L220,369L222,369Z " data-fips="SW12" data-hasc="SE.KR" data-name="Kronoberg" data-postal="KR" data-varname="Kronobergs ln"/><path d="M223,303L225,302L225,301L227,299L229,298L231,298L232,297L233,296L233,295L234,294L235,294L234,293L234,292L235,291L236,290L236,289L236,287L236,287L235,286L235,286L234,285L234,283L234,282L235,281L235,280L235,279L235,278L234,277L234,275L233,275L233,274L233,273L233,271L232,270L232,269L228,264L225,263L223,262L223,262L221,262L221,263L221,264L217,263L217,264L215,266L216,267L216,270L216,272L216,274L217,275L216,277L216,278L217,279L216,280L216,281L215,282L215,283L215,285L214,287L214,289L214,291L214,292L214,293L214,294L215,295L215,297L216,298L217,300L217,301L218,302L219,301L220,302L221,303L222,304Z " data-fips="SW15" data-hasc="SE.OR" data-name="Orebro" data-postal="OR" data-varname="rebro|rebro ln"/><path d="M231,330L233,329L233,328L234,327L235,326L236,327L238,327L239,328L240,326L241,325L240,324L241,323L240,322L240,321L241,320L242,320L243,319L244,319L245,319L246,319L247,319L249,319L249,321L249,322L250,323L250,322L251,321L251,320L251,319L250,318L250,317L251,318L252,318L252,317L252,316L252,315L251,314L251,313L250,313L249,312L251,312L250,312L250,311L250,310L246,308L248,309L249,309L251,309L252,309L253,308L254,308L253,307L252,306L251,306L251,305L250,305L249,304L247,304L246,304L245,305L245,304L244,304L242,304L243,304L243,303L251,304L251,303L249,302L246,302L245,301L245,300L244,298L241,297L241,296L238,294L237,293L236,294L235,294L234,294L233,295L233,296L232,297L231,298L229,298L227,299L225,301L225,302L223,303L222,304L216,316L216,318L218,319L222,320L223,319L223,318L224,318L225,319L225,321L226,322L225,323L225,324L225,325L225,326L226,327L226,328L226,329L227,330Z M252,312L253,311L253,311L252,311L252,312L253,312Z " data-fips="SW16" data-hasc="SE.OG" data-name="stergtland" data-postal="OG" data-varname="stergtlands ln"/><path d="M255,303L255,302L256,303L257,302L256,301L255,300L256,300L257,301L259,300L260,300L260,299L262,299L261,298L262,296L263,297L263,296L263,295L263,294L263,293L261,293L260,293L260,292L259,289L258,288L258,286L259,286L257,285L258,285L258,284L259,283L257,283L256,282L255,282L253,281L253,280L251,279L250,280L252,282L251,281L249,280L248,280L247,280L246,280L243,280L243,281L244,282L243,282L241,283L240,283L239,283L238,285L238,286L237,287L236,287L236,289L236,290L235,291L234,292L234,293L235,294L236,294L237,293L238,294L241,296L241,297L244,298L245,300L245,301L246,302L249,302L251,303L251,304L253,304Z " data-fips="SW18" data-hasc="SE.SD" data-name="Sdermanland" data-postal="SD" data-varname="Sdermanlands ln|Srmland"/><path d="M237,287L238,286L238,285L239,283L240,283L241,283L243,282L244,282L243,281L243,280L242,280L240,280L240,279L241,280L243,279L244,279L245,278L246,278L247,277L247,276L247,275L248,276L249,278L250,278L251,277L251,276L253,276L253,277L253,277L252,274L251,270L252,269L252,268L254,268L255,269L256,268L257,266L256,265L256,264L257,263L258,262L259,258L259,257L257,255L256,255L254,256L253,256L252,256L251,258L249,258L247,259L246,261L244,262L242,262L241,261L241,260L240,259L239,259L238,259L237,259L235,260L235,261L235,262L235,264L234,265L233,265L232,266L232,267L232,269L232,270L233,271L233,273L233,274L233,275L234,275L234,277L235,278L235,279L235,280L235,281L234,282L234,283L234,285L235,286L235,286L236,287L236,287Z " data-fips="SW25" data-hasc="SE.VM" data-name="Vstmanland" data-postal="VM" data-varname="Vstmanlands ln"/><path d="M196,370L197,369L199,368L200,368L199,366L199,365L199,364L199,363L198,361L197,360L197,359L197,357L197,356L198,355L199,355L200,355L202,354L203,353L203,352L202,350L202,349L201,348L200,348L197,348L196,349L195,349L194,348L194,347L193,345L192,345L192,344L192,343L190,342L189,342L188,341L187,340L186,341L185,342L184,342L183,339L184,338L183,337L183,336L183,335L183,334L182,333L180,333L179,334L176,333L176,335L176,336L176,338L176,339L177,340L177,338L178,337L179,338L179,339L179,340L179,341L179,342L179,343L180,344L180,345L180,346L180,348L181,349L182,350L182,350L182,351L182,353L183,353L184,354L185,355L186,357L186,358L187,359L187,360L188,361L189,361L190,361L191,363L191,364L191,365L191,366L192,367L192,368L192,369L195,370Z " data-fips="SW06" data-hasc="SE.HA" data-name="Halland" data-postal="HA" data-varname="Hallands ln"/><path d="M201,300L200,299L200,297L201,295L201,294L202,293L204,292L213,292L214,293L214,292L214,291L214,289L214,287L215,285L215,283L215,282L216,281L216,280L217,279L216,278L216,277L217,275L216,274L216,272L216,270L216,267L215,266L217,264L217,263L214,261L213,260L213,258L212,257L211,257L210,257L210,258L209,258L208,257L205,252L204,251L202,250L202,248L200,244L199,243L199,242L198,240L193,235L193,233L192,233L192,234L190,233L186,234L186,235L187,236L187,237L187,239L187,240L187,242L189,245L190,249L190,250L190,252L190,253L189,255L189,256L189,258L189,259L189,260L188,261L188,262L185,265L182,266L179,266L178,268L179,269L179,270L179,272L178,273L176,274L176,276L177,282L177,284L177,285L177,285L179,285L180,285L181,286L182,285L183,285L184,286L185,287L187,287L186,288L187,288L188,288L189,289L190,288L191,288L191,289L191,291L192,293L193,298L199,300L200,301Z " data-fips="SW22" data-hasc="SE.VR" data-name="Vrmland" data-postal="VR" data-varname="Vrmlands ln"/><path d="M218,218L218,217L218,214L219,213L219,212L220,210L222,212L223,211L224,211L225,211L226,211L226,210L227,209L227,208L226,206L230,203L231,202L231,201L230,199L230,198L228,198L227,198L226,198L224,196L223,194L223,192L223,191L223,190L223,189L225,189L227,189L233,187L237,186L242,185L243,185L244,183L247,179L248,179L251,177L240,166L239,164L238,164L238,162L237,160L237,159L238,158L240,157L241,157L245,156L245,156L246,154L246,152L247,148L241,141L240,140L238,140L237,138L235,136L234,135L234,133L233,134L233,135L233,135L232,134L232,133L229,130L229,129L229,128L228,127L227,126L226,126L226,124L225,123L224,123L223,121L222,120L222,119L217,116L217,117L215,119L208,131L212,134L213,134L214,135L214,142L214,143L212,148L203,145L199,146L196,148L195,149L193,153L190,157L188,159L189,162L189,163L186,168L186,170L188,176L187,179L186,180L187,184L187,186L186,187L186,188L188,196L189,198L195,200L197,202L198,204L200,205L201,205L203,206L202,209L203,211L203,212L204,213L205,215L206,216L215,218L216,218Z " data-fips="SW07" data-hasc="SE.JA" data-name="Jmtland" data-postal="JA" data-varname="Jmtlands ln"/><path d="M305,113L305,112L306,111L305,109L304,108L303,106L301,106L302,106L304,107L304,107L305,109L306,108L306,107L305,106L304,106L303,105L304,104L305,103L306,103L307,104L309,103L309,102L310,102L309,101L308,101L308,100L309,100L310,99L311,99L311,98L310,98L309,97L307,96L306,95L307,96L308,96L309,97L310,97L312,98L313,98L314,99L314,98L313,97L313,96L312,96L313,97L311,97L312,96L312,96L312,94L313,95L313,94L311,93L312,93L313,92L313,91L313,90L314,90L314,91L315,92L316,91L316,92L317,91L316,90L316,89L316,88L318,90L319,91L320,91L321,92L322,93L322,92L322,91L323,90L324,90L325,89L325,90L325,89L326,90L328,90L329,89L329,90L331,89L332,89L332,89L334,88L333,87L333,86L332,85L332,84L331,82L330,81L329,79L328,79L327,78L326,76L326,74L326,73L325,72L325,71L326,70L327,69L327,68L328,66L327,65L327,64L327,63L327,61L328,60L327,58L326,57L325,55L324,55L323,53L323,52L322,51L322,50L322,49L322,47L323,47L323,45L323,44L323,43L322,43L320,42L319,42L319,41L319,39L320,38L320,37L319,36L319,34L318,32L318,31L319,30L320,29L320,28L319,27L317,26L316,25L315,23L313,23L313,22L313,20L312,20L312,19L310,17L309,16L308,16L307,15L306,15L306,15L304,15L303,14L300,14L300,13L299,12L297,12L296,11L295,10L294,9L293,7L292,7L290,5L289,4L287,4L287,2L287,1L286,1L284,0L279,1L282,4L282,7L282,8L281,11L280,13L278,15L281,16L278,20L273,19L269,17L264,17L262,15L259,17L259,20L260,26L260,27L258,31L257,33L250,29L250,31L245,35L245,36L243,43L242,45L241,46L239,47L238,49L242,56L241,60L240,61L238,63L237,65L233,73L230,77L230,78L231,80L231,80L235,82L243,88L247,90L255,97L258,100L264,102L264,103L266,104L267,104L268,105L270,106L271,107L271,107L273,108L274,109L275,109L277,110L277,112L277,112L278,112L279,113L280,113L281,112L282,110L287,108L301,111L306,114Z M312,102L311,101L311,102L312,103Z M313,100L314,100L313,100L312,99L312,100L313,101Z M317,97L316,97L315,98L316,98Z M320,94L320,93L319,93L319,94Z M318,93L317,92L317,93L318,93Z M330,91L329,91L329,92L330,92Z " data-fips="SW14" data-hasc="SE.NB" data-name="Norrbotten" data-postal="NB" data-varname="Norrbottens ln"/><path d="M259,202L259,200L260,200L260,199L259,199L258,198L258,197L257,196L257,195L256,194L257,193L256,192L257,191L257,190L258,191L259,193L260,192L261,191L262,191L263,191L263,190L264,189L264,188L265,189L265,187L263,186L265,186L265,185L264,184L264,182L263,181L263,180L262,178L261,177L262,177L263,178L263,179L264,181L264,182L266,181L267,182L266,183L267,183L268,182L268,181L267,180L268,180L269,181L270,181L271,180L270,179L271,178L270,178L270,177L271,178L272,177L271,177L268,176L269,175L270,176L270,175L271,176L271,174L272,173L273,173L273,172L272,171L274,172L274,171L274,169L275,171L276,170L274,169L275,169L276,168L277,169L277,170L278,170L279,170L278,169L279,168L279,167L280,166L280,165L280,164L281,162L281,162L279,159L277,155L276,154L275,153L274,153L273,153L272,152L271,152L270,151L269,149L269,148L268,148L260,151L249,149L247,148L246,152L246,154L245,156L245,156L241,157L240,157L238,158L237,159L237,160L238,162L238,164L239,164L240,166L251,177L248,179L247,179L244,183L243,185L242,185L237,186L233,187L227,189L225,189L223,189L223,190L223,191L223,192L223,194L224,196L226,198L227,198L228,198L230,198L232,196L233,196L241,199L245,199L252,201L255,201L259,202Z M266,186L267,184L266,184L266,184L265,185L265,186Z " data-fips="SW24" data-hasc="SE.VN" data-name="Vsternorrland" data-postal="VN" data-varname="Vsternorrlands ln"/><path d="M283,162L284,161L283,161L283,160L284,160L285,161L285,163L286,162L287,161L287,160L288,159L289,157L289,157L290,156L291,156L292,155L293,154L293,155L294,153L295,154L294,153L295,152L295,151L296,152L297,151L298,151L298,150L299,149L299,148L299,147L300,146L300,145L300,144L300,142L300,141L301,140L302,139L304,136L304,135L304,134L305,135L306,134L307,132L307,131L306,131L306,130L305,129L306,129L305,128L304,127L304,128L303,127L302,127L302,126L301,125L301,124L302,125L303,125L302,123L303,123L302,122L300,122L300,121L300,120L300,121L301,121L302,120L302,118L302,117L303,116L304,116L305,115L304,114L306,114L301,111L287,108L282,110L281,112L280,113L279,113L278,112L277,112L277,112L277,110L275,109L274,109L273,108L271,107L271,107L270,106L268,105L267,104L266,104L264,103L264,102L258,100L255,97L247,90L243,88L235,82L231,80L231,80L231,80L231,82L226,86L220,87L221,95L221,97L220,99L219,106L219,107L219,109L219,111L218,112L217,113L217,116L222,119L222,120L223,121L224,123L225,123L226,124L226,126L227,126L228,127L229,128L229,129L229,130L232,133L232,134L233,135L233,135L233,134L234,133L234,135L235,136L237,138L238,140L240,140L241,141L247,148L249,149L260,151L268,148L269,148L269,149L270,151L271,152L272,152L273,153L274,153L275,153L276,154L277,155L279,159L281,162L281,162L282,163L282,162L284,163Z M301,154L301,153L301,152L300,153L301,154Z " data-fips="SW23" data-hasc="SE.VB" data-name="Vsterbotten" data-postal="VB" data-varname="Vsterbottens ln"/><path d="M276,352L277,351L278,350L277,349L277,348L279,347L278,347L278,346L281,344L283,343L282,342L282,341L283,340L284,339L285,339L286,338L285,337L283,337L283,336L283,335L283,334L283,332L283,331L283,330L284,329L285,328L286,327L286,326L287,326L286,325L286,323L285,324L285,323L283,324L284,325L283,326L283,325L282,324L281,323L280,324L280,326L279,326L278,327L276,331L273,334L273,335L273,336L273,338L273,339L274,340L274,341L273,342L273,343L274,344L275,347L275,348L275,349L276,348L276,349L275,350L275,351L274,353L275,353Z M288,324L288,323L290,322L291,321L289,321L288,321L287,321L287,323L287,324L287,325L288,325Z M290,310L288,309L288,310L290,310Z " data-fips="SW18" data-hasc="SE.GT" data-name="Gotland" data-postal="GT" data-varname="Gotlands ln|Gothland|Gottland"/><path d="M268,295L269,295L269,294L269,292L270,291L271,291L272,290L273,289L273,290L273,289L274,288L275,287L275,286L274,286L275,286L274,285L273,285L273,284L273,283L274,283L276,283L277,283L278,283L278,282L277,282L278,281L277,281L276,280L275,280L276,281L275,282L275,282L273,281L273,282L271,283L268,283L267,284L267,285L266,285L265,286L264,285L264,284L263,285L263,286L263,285L262,285L260,284L259,283L259,286L258,286L258,288L259,289L260,292L260,293L261,293L263,293L263,294L263,294L264,293L263,291L264,290L264,289L264,288L265,289L264,290L265,291L266,290L266,291L266,293L266,294L266,295L266,296L266,295L266,294L267,295L267,296L268,297Z M274,294L275,293L275,293L273,294L273,295Z M271,294L272,293L272,292L271,292L270,293L270,294Z M265,294L265,293L265,292L264,291L264,292L264,293L264,294L265,295Z M276,292L276,291L276,290L276,289L275,290L275,291L275,292Z M277,285L278,285L277,284L276,284L274,284L275,284L276,285L277,286Z M272,282L272,282L271,282L272,283Z M280,282L279,281L278,281L279,282L279,283Z M265,279L265,277L265,277L265,276L264,275L262,274L262,274L262,275L263,277L262,278L263,278L264,279L265,280Z M278,279L278,278L279,277L279,276L278,276L277,277L276,278L276,279L277,280Z M281,274L282,273L281,274L280,275Z M269,282L271,283L270,281L270,280L271,279L272,279L271,280L272,281L274,281L273,280L273,279L274,279L275,278L275,277L277,276L277,276L278,275L278,274L279,273L279,273L280,272L281,271L282,270L283,271L284,270L283,269L280,269L281,269L282,266L281,265L282,266L284,267L283,266L282,265L281,264L281,263L280,261L279,260L279,261L279,263L279,261L279,260L278,259L277,259L276,260L276,261L276,260L275,261L275,262L275,263L274,264L274,266L273,267L271,268L271,269L270,271L268,271L266,272L265,273L264,272L263,273L263,273L263,274L264,275L264,274L264,272L265,273L265,275L266,275L266,276L266,277L266,278L265,279L265,281L266,281L267,282L268,283Z M283,268L283,268L282,267L282,269Z M279,258L279,258L278,257L278,259Z " data-fips="SW26" data-hasc="SE.ST" data-name="Stockholm" data-postal="ST" data-varname="Stockholms ln|Estocolmo|Stoccolmo"/><path d="M260,278L260,277L259,276L259,275L259,274L259,275L260,276L262,277L262,278L263,277L262,275L262,274L262,274L262,273L263,272L262,272L261,273L261,274L261,276L261,275L261,274L261,273L261,271L259,271L262,271L262,270L263,271L263,272L263,273L264,272L265,273L266,272L268,271L270,271L271,269L271,268L273,267L274,266L274,264L275,263L275,262L275,261L276,260L276,259L275,259L274,258L274,257L272,255L272,254L273,256L276,256L274,254L274,253L273,253L272,253L271,253L271,252L270,252L269,251L268,250L267,249L267,248L266,246L265,247L264,248L264,249L263,249L262,249L262,247L262,246L262,246L261,245L258,246L258,250L257,251L256,252L257,255L259,257L259,258L258,262L257,263L256,264L256,265L257,266L256,268L255,269L254,268L252,268L252,269L251,270L252,274L253,277L253,277L255,277L255,276L255,277L256,277L257,278L259,279Z M275,253L274,252L274,250L274,249L273,249L273,250L273,252L274,253L276,254Z " data-fips="SW21" data-hasc="SE.UP" data-name="Uppsala" data-postal="UP" data-varname="Uppsala ln"/><path d="M220,380L220,379L219,377L219,376L220,376L221,376L222,376L223,375L225,375L226,376L227,376L228,376L229,375L229,376L230,376L231,375L232,376L233,375L234,375L234,376L235,375L235,375L236,376L237,376L237,377L238,377L239,375L240,374L241,373L241,371L240,371L238,370L237,370L236,368L235,367L234,366L233,366L231,366L230,366L230,366L229,367L228,367L227,367L226,367L224,367L223,369L222,369L220,369L219,368L218,367L215,369L215,371L215,372L216,373L217,374L217,375L217,376L217,378L217,379L218,379L218,380L219,380Z " data-fips="SW02" data-hasc="SE.BL" data-name="Blekinge" data-postal="BL" data-varname="Blekinge ln"/><path d="M196,344L197,343L198,342L199,341L200,340L201,339L202,337L203,336L204,335L204,333L204,332L204,331L205,330L205,329L205,326L206,327L208,326L209,327L209,326L210,326L212,325L212,324L213,323L213,322L216,316L222,304L221,303L220,302L219,301L218,302L217,301L217,300L216,298L215,297L215,295L214,294L214,293L213,292L204,292L202,293L201,294L201,295L200,297L200,299L201,300L200,301L199,300L193,298L192,293L191,291L191,289L191,288L190,288L189,289L188,288L187,288L186,288L187,287L185,287L184,286L183,285L182,285L181,286L180,285L179,285L177,285L177,285L177,285L177,286L176,288L176,290L175,291L175,293L174,294L173,295L171,295L171,292L171,291L170,290L170,289L168,289L166,291L167,292L166,293L167,294L167,295L168,296L168,298L167,299L167,300L167,301L168,303L168,304L168,305L167,306L168,307L167,308L167,309L167,310L169,310L169,309L170,308L169,309L169,311L170,310L169,311L170,312L169,313L171,312L172,310L172,309L172,308L173,309L174,309L173,310L172,311L171,313L171,314L172,314L173,313L174,312L176,312L177,311L176,312L176,314L177,315L176,316L176,318L175,319L175,320L175,321L174,323L174,324L173,324L173,326L174,327L175,328L173,330L174,329L175,330L176,330L175,330L175,331L176,332L176,333L179,334L180,333L182,333L183,334L183,335L183,336L183,337L184,338L183,339L184,342L185,342L186,341L187,340L188,341L189,342L190,342L192,343L192,344L192,345L193,345Z M173,322L173,321L174,321L174,319L174,319L173,320L172,320L170,320L171,321L171,322L172,323Z M171,318L172,317L173,318L175,318L176,317L176,315L175,314L175,314L175,313L174,313L173,314L172,314L171,315L170,316L169,317L170,319Z " data-fips="&lt;Null&gt;" data-hasc="SE.VG" data-name="Vstra Gtaland" data-postal="VG" data-varname=""/><path d="M198,399L199,398L201,398L202,397L204,397L206,397L207,397L208,398L209,398L210,398L211,397L212,396L214,394L213,393L212,391L212,390L211,389L211,388L211,387L211,385L212,384L212,383L213,383L213,382L214,381L216,379L217,379L217,378L217,376L217,375L217,374L216,373L215,372L215,371L215,369L214,366L213,365L211,365L210,365L209,365L208,366L201,368L200,368L199,368L197,369L196,370L195,370L192,369L192,368L192,367L191,366L190,366L189,367L186,366L186,368L188,369L188,371L189,372L188,373L187,373L186,372L183,371L184,372L184,373L185,375L185,376L187,378L187,379L188,380L188,381L188,383L189,384L190,385L190,386L190,387L191,388L192,388L192,390L192,391L190,392L190,394L190,396L190,397L189,396L188,398L190,398L191,397L192,398L193,398L196,399Z " data-fips="SW11" data-hasc="SE.SN" data-name="Skne" data-postal="SN" data-varname=""/></g></svg>