<?xml version="1.0" ?><!DOCTYPE svg  PUBLIC '-//W3C//DTD SVG 1.1//EN'  'http://www.w3.org/Graphics/SVG/1.1/DTD/svg11.dtd'><svg enable_background="new 0 0 500 401" height="401px" style="stroke-linejoin: round; stroke:#000; fill:#f6f3f0;" version="1.1" viewBox="0 0 500 401" width="500px" xmlns="http://www.w3.org/2000/svg" xmlns:xlink="http://www.w3.org/1999/xlink"><defs><style type="text/css"><![CDATA[path { fill-rule: evenodd; }
#context path { fill: #eee; stroke: #bbb; } ]]></style></defs><metadata><views><view h="401" padding="0" w="500"><proj id="laea" lat0="49.016" lon0="31.388"/><bbox h="98.37" w="146.12" x="924.39" y="958.44"/><llbbox lat0="-90" lat1="90" lon0="-180" lon1="180"/></view></views></metadata><g id="admin1"><path d="M336,368L340,366L341,366L342,365L342,364L343,363L345,362L345,361L346,360L348,360L349,357L350,354L351,353L352,352L353,351L355,351L357,350L359,349L360,348L362,349L363,348L364,348L365,348L365,347L366,347L367,348L368,349L369,349L370,348L371,346L372,344L374,343L375,341L376,341L378,342L377,340L378,340L380,339L378,338L379,337L380,335L381,335L383,335L384,334L385,335L387,335L390,337L391,338L392,339L394,339L397,338L397,337L399,337L400,338L404,338L405,336L407,336L410,335L409,334L408,333L408,331L408,327L409,326L410,326L410,325L410,323L412,323L413,324L414,323L414,322L414,320L413,320L412,320L411,320L409,319L407,320L405,319L404,320L404,318L403,319L399,319L398,320L397,321L397,322L396,323L395,324L394,323L391,322L391,320L390,319L390,320L389,322L388,323L388,324L387,325L381,327L380,327L376,324L367,312L364,307L362,303L361,302L360,296L359,295L359,292L359,291L360,290L361,289L361,288L362,288L365,288L366,287L367,286L366,286L366,284L366,283L366,282L364,278L363,278L362,278L361,277L359,277L359,276L358,276L356,275L356,273L356,272L356,271L355,270L354,270L353,270L353,268L354,268L355,267L356,266L356,264L357,263L356,262L355,261L355,259L353,259L352,259L351,258L351,257L350,256L350,254L349,252L348,251L348,250L348,249L348,247L348,246L347,245L347,244L348,243L345,244L344,245L343,245L342,246L342,245L342,244L340,239L339,237L338,237L335,237L330,236L326,237L323,237L323,236L321,236L321,235L321,234L321,233L319,234L318,235L315,236L314,237L314,236L313,235L312,235L310,235L309,234L307,233L307,234L307,235L308,236L308,237L308,238L308,239L308,240L307,240L306,240L306,241L306,242L308,242L308,243L308,244L308,246L308,247L309,248L308,249L307,249L306,251L304,250L304,251L303,253L303,254L303,255L304,255L305,256L307,258L305,259L304,258L304,259L304,260L305,261L304,261L303,262L300,264L301,264L303,264L300,265L299,265L297,265L296,265L295,264L293,264L292,264L291,265L290,265L289,265L287,266L287,267L286,267L283,266L282,267L282,269L281,269L279,269L278,269L277,270L275,270L276,271L276,272L277,274L278,274L280,275L281,277L282,276L283,276L284,275L284,276L286,277L288,277L292,274L294,274L295,274L294,274L293,275L291,276L289,278L289,279L288,280L287,281L286,281L285,281L283,280L279,279L277,279L275,279L272,279L271,280L274,281L275,282L277,282L278,284L277,284L276,286L273,286L272,286L271,286L270,287L270,288L271,289L273,288L273,287L276,289L277,290L278,289L279,290L281,292L283,292L284,292L284,293L284,294L284,295L286,296L291,297L293,297L294,296L298,295L299,295L300,295L302,295L303,295L307,294L307,293L309,294L310,294L311,294L312,293L312,291L313,291L312,294L312,295L315,295L315,296L316,296L317,296L318,298L321,298L321,297L322,296L322,295L323,294L324,294L325,296L324,297L325,300L325,301L325,302L326,301L328,302L328,303L327,303L326,304L326,306L325,305L324,305L323,305L322,306L321,307L320,306L318,307L317,309L316,309L314,310L313,311L312,310L311,309L311,310L311,311L304,315L302,316L301,318L301,319L300,319L299,319L298,320L297,320L296,321L292,323L292,324L291,326L293,328L294,329L297,329L298,328L299,327L304,328L305,328L306,329L309,331L309,332L310,332L312,334L313,334L314,335L315,335L316,335L317,334L319,334L321,336L323,337L324,338L324,340L324,341L325,343L325,345L325,347L325,348L324,348L323,350L323,351L323,352L324,354L324,355L323,356L323,358L324,358L322,359L320,359L319,359L318,360L319,361L322,363L324,364L325,364L326,365L327,366L330,367L332,367L333,367L335,368Z M307,299L306,298L305,298L303,299L302,298L300,298L295,298L295,298L307,300Z M366,295L366,294L368,293L370,292L370,291L372,287L372,287L372,288L371,289L370,290L369,291L366,293L365,293L365,295Z M279,293L275,292L265,290L264,289L264,288L263,287L262,286L263,288L263,289L264,290L269,291L280,294L281,294Z " data-fips="UP08" data-hasc="UA.KR" data-name="Crimea" data-postal="KR" data-varname="Crime|Crimia|Krim|Krymskaya Respublika|Respublika Krym"/><path d="M267,281L268,280L269,280L270,280L271,280L272,279L272,279L270,278L269,277L264,278L263,277L262,276L263,277L267,281L267,283Z M258,275L259,274L260,274L261,272L262,270L261,269L261,268L260,267L261,268L261,269L263,269L263,268L264,267L265,266L264,269L263,270L262,273L262,274L263,274L264,275L265,274L265,273L267,273L270,274L271,274L272,274L273,274L274,272L274,271L274,269L273,268L273,267L273,265L275,264L275,263L275,261L274,262L273,261L274,259L274,258L272,258L272,256L272,255L272,254L271,253L271,250L269,250L268,249L269,248L269,249L271,250L272,251L272,253L273,253L273,255L273,256L272,257L273,258L275,258L275,259L275,261L277,261L276,263L276,264L275,266L275,267L275,269L275,270L277,270L278,269L279,269L281,269L282,269L282,267L283,266L286,267L287,267L287,266L289,265L290,265L291,265L292,264L293,264L295,264L296,265L297,265L299,265L300,265L303,264L301,264L300,264L303,262L304,261L305,261L304,260L304,259L304,258L305,259L307,258L305,256L304,255L303,255L303,254L303,253L304,251L304,250L306,251L307,249L308,249L309,248L308,247L308,246L308,244L308,243L308,242L306,242L306,241L306,240L307,240L308,240L308,239L308,238L308,237L308,236L307,235L307,234L307,233L305,233L305,232L305,231L305,230L304,229L305,228L306,227L307,226L306,225L306,223L306,222L307,220L306,219L305,219L305,217L305,217L305,216L304,215L304,214L303,214L302,214L301,215L301,216L300,217L299,217L297,217L296,217L295,218L296,219L296,220L295,220L295,221L295,223L294,223L294,224L289,225L286,225L285,224L284,224L282,224L282,225L281,227L279,227L279,226L278,225L277,224L276,224L275,225L272,225L272,224L272,222L272,222L272,221L271,220L271,219L270,219L269,218L268,216L268,215L270,214L269,213L269,212L267,212L266,212L265,211L264,212L264,213L263,213L262,214L262,213L262,211L259,212L259,211L257,212L254,211L254,210L254,210L253,209L253,207L252,207L249,207L248,208L247,209L246,209L245,210L244,209L243,209L243,210L242,209L241,209L239,209L238,209L237,210L236,210L234,209L229,209L229,210L228,210L228,211L228,212L227,213L226,213L226,214L226,215L226,216L227,217L228,218L229,223L230,224L231,225L230,226L230,227L231,228L231,229L231,230L231,231L233,232L234,232L235,232L236,232L237,232L238,232L239,233L240,232L242,232L242,234L243,234L244,235L244,236L244,237L244,238L243,239L243,241L244,245L245,247L247,247L248,247L249,248L250,248L252,247L253,248L252,249L251,250L251,251L252,251L253,252L254,252L255,253L256,254L256,255L256,256L255,257L255,259L254,260L252,260L251,260L250,260L248,261L249,263L251,264L252,265L252,266L253,271L252,272L253,274L255,275L256,275Z " data-fips="UP14" data-hasc="UA.MY" data-name="Mykolayiv" data-postal="MY" data-varname="Mykolaiv|Nikolajew|Nikolayev"/><path d="M282,117L283,115L285,114L286,115L287,114L288,115L289,116L289,116L292,116L294,116L295,116L297,115L299,114L300,113L301,113L302,111L303,111L304,109L304,106L305,105L305,104L305,103L305,102L306,101L306,100L305,99L305,98L305,97L306,94L306,93L306,92L306,90L306,89L306,88L307,87L306,87L305,88L304,88L303,87L303,86L302,86L301,85L300,85L301,84L300,82L301,81L302,80L302,79L303,78L303,77L303,76L303,75L302,74L301,73L302,73L303,74L304,73L304,72L304,71L304,70L305,69L304,68L306,68L306,67L305,66L306,65L305,64L305,62L305,61L305,60L303,58L303,57L302,56L303,55L303,53L304,53L305,52L305,51L307,51L308,50L309,50L310,48L310,47L310,46L311,44L312,45L313,44L313,43L312,43L311,42L310,41L309,40L309,37L310,36L310,35L310,34L311,32L310,32L308,32L305,31L305,32L304,32L303,33L302,34L301,34L298,37L297,36L296,36L293,36L288,34L287,34L285,33L284,34L283,36L284,37L283,38L283,39L283,41L282,43L281,44L277,46L274,45L272,46L272,45L272,44L270,43L268,43L266,43L261,42L259,42L256,44L255,45L254,46L252,44L251,44L247,44L247,46L247,46L247,48L246,48L245,49L244,50L244,50L243,52L242,52L242,53L241,54L240,54L240,55L239,57L239,58L239,59L238,60L237,61L237,62L237,63L236,64L237,65L236,66L238,67L237,67L238,69L238,70L238,70L238,71L239,72L239,74L239,75L238,76L237,77L237,78L237,79L237,80L236,80L236,82L235,85L235,88L236,89L237,89L238,90L239,90L239,91L239,92L239,93L240,94L241,95L243,96L242,98L242,99L242,100L243,100L244,101L245,100L247,100L248,100L250,100L251,99L251,100L252,101L253,102L253,103L254,104L254,106L253,106L253,107L254,108L255,109L256,110L257,110L258,110L259,110L261,111L262,110L264,110L265,110L266,109L267,108L269,108L269,107L270,106L270,106L272,106L273,107L274,108L275,109L276,109L276,110L275,111L275,112L275,113L276,114L277,114L278,115L277,116L279,117L281,117Z " data-fips="UP02" data-hasc="UA.CH" data-name="Chernihiv" data-postal="CH" data-varname="Chernigov|Tschernigow"/><path d="M96,124L97,124L97,122L98,122L98,121L98,120L99,119L100,119L102,120L103,119L104,119L105,119L109,118L111,116L113,116L114,116L116,116L118,117L120,116L119,117L119,118L119,119L121,120L122,119L123,117L124,117L125,117L126,117L127,116L129,115L130,114L131,113L131,112L133,110L134,109L134,108L135,108L136,107L138,106L139,106L140,106L141,106L142,105L143,105L144,104L145,104L145,105L147,104L146,103L147,102L147,101L148,100L149,98L149,97L148,95L148,94L148,91L148,90L148,89L148,88L148,87L148,85L149,85L150,84L151,83L152,82L152,81L153,80L153,78L155,77L155,76L154,74L156,74L156,73L156,72L156,71L157,68L158,69L159,70L158,69L159,68L159,67L161,66L161,66L162,64L162,63L161,62L160,62L157,61L156,61L155,62L154,62L152,62L150,61L151,60L150,59L149,59L149,58L149,56L148,55L147,54L145,54L142,55L140,54L135,52L129,51L129,49L122,48L120,46L118,46L112,45L110,45L107,45L107,46L109,47L109,47L109,48L109,49L108,51L107,51L105,53L105,54L105,56L105,57L105,58L106,59L107,59L107,60L106,61L105,63L106,65L105,66L105,67L105,69L106,69L107,68L108,68L109,69L110,68L111,68L112,68L112,69L112,71L113,71L113,72L114,73L115,74L116,75L118,77L118,78L117,79L115,80L115,81L116,82L117,82L117,82L118,83L118,84L118,85L117,86L115,87L116,88L116,89L115,90L114,91L115,92L113,92L112,93L111,94L111,95L111,97L111,98L110,100L109,99L108,98L107,98L106,97L106,96L104,96L103,97L101,97L100,98L98,97L98,97L98,98L97,99L98,100L95,100L96,101L96,102L95,102L93,102L91,102L91,103L92,104L91,105L90,106L91,107L92,108L92,109L91,110L90,111L88,112L88,113L90,113L91,113L92,113L92,114L92,115L91,116L91,117L91,118L91,120L91,121L94,123L96,125Z " data-fips="UP18" data-hasc="UA.RV" data-name="Rivne" data-postal="RV" data-varname="Rovno|Rivnens'ka Oblast'|Rovenskaya Oblast'"/><path d="M76,221L78,220L80,220L81,219L84,214L85,214L99,213L101,213L103,212L104,212L106,212L107,212L110,212L112,211L112,210L114,209L114,207L115,206L115,204L116,203L117,203L118,202L120,202L124,202L125,201L125,200L127,198L128,199L128,200L129,200L130,199L129,197L131,197L131,196L132,196L133,197L134,198L135,197L136,197L136,196L138,196L141,198L142,198L143,197L144,195L146,195L148,196L149,194L150,194L150,193L149,190L149,189L148,188L148,187L147,187L146,187L146,188L145,187L143,188L143,189L142,189L141,188L140,189L139,189L138,189L136,188L135,188L134,189L133,190L132,189L131,188L131,187L130,187L130,188L129,189L128,188L129,189L127,189L126,188L126,190L127,190L127,191L126,191L125,191L125,193L124,193L123,192L123,190L121,189L120,189L119,190L118,190L116,190L115,189L113,189L112,188L112,187L112,186L111,186L111,187L112,188L111,188L110,188L110,186L110,185L109,184L109,185L108,185L107,186L106,186L105,185L104,184L103,183L102,183L101,184L101,182L99,182L99,182L97,182L97,183L96,184L97,186L97,188L97,192L96,194L95,193L94,193L92,193L91,193L90,194L88,195L84,199L83,199L83,200L83,201L82,202L80,203L79,204L78,205L78,206L76,209L76,210L76,211L77,212L77,213L77,214L77,215L77,216L76,219L75,221Z " data-fips="UP03" data-hasc="UA.CV" data-name="Chernivtsi" data-postal="CV" data-varname="Chernivets'ka Oblast'|Chernovitskaya Oblast'|Chernovtsy|Czernowitz|Tschernowzy|Tchernovtsy"/><path d="M76,219L77,216L77,215L77,214L77,213L77,212L76,211L76,210L76,209L78,206L78,205L79,204L80,203L82,202L83,201L83,200L83,199L84,199L88,195L90,194L91,193L92,193L94,193L95,193L96,194L97,192L97,188L97,186L96,184L97,183L97,182L99,182L99,181L99,180L99,179L99,178L98,177L97,177L96,176L95,176L94,175L94,173L93,174L92,174L91,174L90,175L88,177L88,175L90,174L89,173L88,173L88,172L88,170L87,171L87,171L86,172L85,170L85,169L83,168L81,168L81,166L80,165L79,164L80,164L81,165L82,164L82,163L81,162L80,161L79,162L79,161L79,160L79,159L79,158L80,157L79,156L78,155L78,153L79,152L78,151L78,149L76,145L75,145L74,145L73,144L72,144L70,144L69,144L68,144L68,145L68,147L67,149L67,150L66,151L65,152L63,152L64,153L65,152L66,153L65,154L66,155L67,156L67,157L66,158L65,157L64,158L62,158L61,158L59,159L57,158L55,159L53,159L52,159L51,159L48,159L47,159L46,160L45,162L44,163L43,164L41,168L42,169L42,170L40,174L41,175L42,175L44,178L45,178L46,178L47,179L47,181L49,182L50,183L50,184L50,185L50,186L51,186L52,185L54,185L56,185L56,186L56,187L56,189L56,191L57,192L58,192L60,192L61,191L61,192L62,193L63,194L64,194L65,197L66,198L66,199L66,200L66,201L66,202L68,204L68,206L67,208L66,210L67,211L68,212L68,214L69,215L70,215L72,216L73,217L73,219L74,220L75,221Z " data-fips="UP06" data-hasc="UA.IF" data-name="Ivano-Frankivs'k" data-postal="IF" data-varname="Ivano-Frankovsk|Ivano-Frankovskaya Oblast'|Stanislav"/><path d="M125,191L126,191L127,191L127,190L126,190L126,188L127,189L129,189L128,188L129,189L130,188L130,187L131,187L131,188L132,189L133,190L134,189L135,188L136,188L138,189L139,189L140,189L141,188L142,189L143,189L143,188L145,187L146,188L146,187L147,187L147,185L148,183L148,182L148,181L148,180L148,179L148,176L147,174L148,173L148,172L148,171L149,170L149,169L150,168L151,167L151,166L152,166L154,166L155,165L156,165L157,166L158,166L159,167L160,166L161,166L162,165L162,164L162,163L161,162L162,161L162,160L161,159L161,158L161,157L160,156L160,155L161,155L161,154L159,154L159,153L159,152L158,151L158,150L160,150L160,149L160,147L161,145L160,144L159,143L161,142L162,142L162,140L163,140L157,137L156,136L156,135L155,134L154,133L155,132L155,131L155,129L156,129L157,129L158,128L158,127L157,126L157,125L157,124L158,123L157,122L157,120L156,118L156,119L155,120L153,119L153,118L152,118L151,117L151,116L150,116L149,114L148,113L147,113L147,112L148,109L149,109L148,108L147,107L145,105L145,104L144,104L143,105L142,105L141,106L140,106L139,106L138,106L136,107L135,108L134,108L134,109L133,110L131,112L131,113L130,114L129,115L127,116L126,117L125,117L124,117L123,117L122,119L121,120L119,121L120,122L120,123L118,124L119,124L119,125L118,126L119,127L117,128L117,129L117,131L117,132L117,133L117,134L117,135L118,136L118,137L118,139L117,139L118,140L118,142L118,142L117,144L117,145L116,146L115,147L115,148L116,150L116,152L117,152L117,154L117,155L117,156L118,157L117,158L117,159L116,160L116,161L116,162L116,163L116,165L116,166L116,167L115,168L116,169L115,170L115,171L115,172L115,173L115,174L115,176L116,178L115,179L116,179L116,181L115,182L115,183L116,183L116,184L117,185L117,186L118,187L118,188L118,189L119,190L120,189L121,189L123,190L123,192L124,193L125,193Z " data-fips="UP09" data-hasc="UA.KM" data-name="Khmel'nyts'kyy" data-postal="KM" data-varname="Khmelnitsky|Khmelnytskyi|Chmelnizkij|Hmelnicki|Kamenets-Podol'skaya Oblast'|Khmel'nyts'ka Oblast'"/><path d="M42,170L42,169L41,168L43,164L44,163L45,162L46,160L47,159L48,159L51,159L52,159L53,159L55,159L57,158L59,159L61,158L62,158L64,158L65,157L66,158L67,157L67,156L66,155L65,154L66,153L65,152L64,153L63,152L65,152L66,151L67,150L67,149L68,147L68,145L68,144L69,144L70,144L72,144L73,144L74,145L75,145L76,145L76,144L77,142L78,142L83,140L84,138L85,136L86,137L87,136L87,135L87,134L88,132L89,132L92,132L93,131L95,131L96,130L96,129L96,128L97,128L97,127L96,126L96,125L94,123L91,121L91,120L91,118L91,117L91,116L92,115L92,114L92,113L91,113L90,113L88,113L88,112L88,111L88,110L86,110L85,109L84,110L82,109L81,110L79,109L79,108L78,107L77,106L76,106L75,105L75,106L74,106L74,105L73,103L75,102L75,101L74,100L72,100L72,98L71,97L70,98L69,98L68,98L67,98L66,97L66,96L65,95L64,96L63,97L64,100L63,101L61,101L61,103L60,104L60,105L58,105L53,105L52,105L51,106L50,108L49,109L48,110L47,111L46,112L44,112L37,118L36,120L35,120L34,121L31,125L29,127L29,128L27,129L25,132L23,133L23,134L20,136L20,138L20,140L20,143L21,144L21,145L21,149L20,151L20,152L20,154L21,154L22,156L23,158L23,159L23,160L24,161L24,162L24,163L24,164L24,165L25,166L26,167L27,167L29,167L30,168L30,170L31,171L32,171L33,172L34,172L35,173L36,172L36,173L37,174L38,174L39,174L40,174Z " data-fips="UP13" data-hasc="UA.LV" data-name="L'viv" data-postal="LV" data-varname="Lemberg|Llvov|L'vov|Lwow|L'vivs'ka Oblast'"/><path d="M119,190L118,189L118,188L118,187L117,186L117,185L116,184L116,183L115,183L115,182L116,181L116,179L115,179L116,178L115,176L115,174L115,173L115,172L115,171L115,170L116,169L115,168L116,167L116,166L116,165L116,163L116,162L116,161L116,160L117,159L117,158L118,157L117,156L117,155L117,154L117,152L116,152L116,150L115,148L115,147L116,146L117,145L117,144L118,142L118,142L118,140L117,139L118,139L118,137L118,136L117,135L117,134L117,133L117,132L117,131L117,129L117,128L119,127L118,126L119,125L119,124L118,124L120,123L120,122L119,121L119,119L119,118L119,117L120,116L118,117L116,116L114,116L113,116L111,116L109,118L105,119L104,119L103,119L102,120L100,119L99,119L98,120L98,121L98,122L97,122L97,124L96,124L96,125L96,126L97,127L97,128L96,128L96,129L96,130L95,131L93,131L92,132L89,132L88,132L87,134L87,135L87,136L86,137L85,136L84,138L83,140L78,142L77,142L76,144L76,145L78,149L78,151L79,152L78,153L78,155L79,156L80,157L79,158L79,159L79,160L79,161L79,162L80,161L81,162L82,163L82,164L81,165L80,164L79,164L80,165L81,166L81,168L83,168L85,169L85,170L86,172L87,171L87,171L88,170L88,172L88,173L89,173L90,174L88,175L88,177L90,175L91,174L92,174L93,174L94,173L94,175L95,176L96,176L97,177L98,177L99,178L99,179L99,180L99,181L99,182L99,182L101,182L101,184L102,183L103,183L104,184L105,185L106,186L107,186L108,185L109,185L109,184L110,185L110,186L110,188L111,188L112,188L111,187L111,186L112,186L112,187L112,188L113,189L115,189L116,190L118,190Z " data-fips="UP19" data-hasc="UA.TP" data-name="Ternopil'" data-postal="TP" data-varname="Ternopol|Ternopol'"/><path d="M58,210L60,210L61,210L62,209L64,210L66,210L67,208L68,206L68,204L66,202L66,201L66,200L66,199L66,198L65,197L64,194L63,194L62,193L61,192L61,191L60,192L58,192L57,192L56,191L56,189L56,187L56,186L56,185L54,185L52,185L51,186L50,186L50,185L50,184L50,183L49,182L47,181L47,179L46,178L45,178L44,178L42,175L41,175L40,174L39,174L38,174L37,174L36,173L36,172L35,173L34,172L33,172L32,171L31,171L30,170L30,168L29,167L27,167L26,167L25,166L24,165L24,164L24,163L24,162L24,161L23,160L22,161L21,160L21,159L19,159L18,158L17,158L17,158L15,156L14,157L14,159L13,160L12,161L11,162L10,163L10,164L9,165L9,166L8,169L7,169L7,171L6,172L5,173L4,174L3,175L2,176L1,177L1,179L0,180L0,183L1,183L3,183L4,184L3,185L4,186L4,187L4,189L6,191L7,191L8,191L9,191L11,195L11,197L12,198L14,198L15,198L16,198L17,199L18,200L18,201L18,202L18,203L18,204L19,205L20,204L21,203L21,203L23,204L25,202L25,201L26,200L27,200L30,201L31,203L32,205L33,205L35,206L36,206L37,205L39,205L40,205L42,206L45,206L46,208L47,209L50,208L51,208L53,209L54,210L56,211Z " data-fips="UP22" data-hasc="UA.ZK" data-name="Transcarpathia" data-postal="ZK" data-varname="Transcarpathian|Zakarpattia|Ruthenia|Zakarpats'ka Oblast'|Zakarpatskaya Oblast'"/><path d="M90,111L91,110L92,109L92,108L91,107L90,106L91,105L92,104L91,103L91,102L93,102L95,102L96,102L96,101L95,100L98,100L97,99L98,98L98,97L98,97L100,98L101,97L103,97L104,96L106,96L106,97L107,98L108,98L109,99L110,100L111,98L111,97L111,95L111,94L112,93L113,92L115,92L114,91L115,90L116,89L116,88L115,87L117,86L118,85L118,84L118,83L117,82L117,82L116,82L115,81L115,80L117,79L118,78L118,77L116,75L115,74L114,73L113,72L113,71L112,71L112,69L112,68L111,68L110,68L109,69L108,68L107,68L106,69L105,69L105,67L105,66L106,65L105,63L106,61L107,60L107,59L106,59L105,58L105,57L105,56L105,54L105,53L107,51L108,51L109,49L109,48L109,47L109,47L107,46L107,45L102,44L97,43L96,43L95,43L93,44L85,45L83,44L77,44L75,45L74,47L73,49L72,50L69,52L65,55L64,55L63,55L62,54L61,53L58,52L55,53L55,54L55,57L55,58L56,59L55,60L56,63L56,64L55,64L54,65L55,66L56,67L57,71L59,72L60,74L60,75L60,77L60,79L61,80L61,81L62,83L64,84L66,86L65,87L63,87L62,87L61,88L61,89L62,90L62,91L64,92L64,94L64,96L65,95L66,96L66,97L67,98L68,98L69,98L70,98L71,97L72,98L72,100L74,100L75,101L75,102L73,103L74,105L74,106L75,106L75,105L76,106L77,106L78,107L79,108L79,109L81,110L82,109L84,110L85,109L86,110L88,110L88,111L88,112Z " data-fips="UP21" data-hasc="UA.VO" data-name="Volyn" data-postal="VO" data-varname="Volhynia|Volyns'ka Oblast'|Volynskaya Oblast'|Wolynien"/><path d="M223,197L224,196L225,195L226,196L227,196L231,193L232,192L233,192L233,193L236,193L236,192L236,190L235,189L237,188L237,186L238,185L239,184L240,184L241,184L242,184L243,185L245,184L247,184L248,185L249,185L250,186L252,185L253,185L254,184L255,185L257,185L257,186L258,185L259,185L261,184L261,183L262,182L263,181L263,179L263,178L263,177L264,178L266,177L267,176L268,176L270,177L272,178L272,179L273,180L274,179L274,178L276,178L277,178L278,178L279,177L279,176L280,175L281,174L282,173L282,172L283,172L284,171L285,170L285,171L286,172L287,172L288,172L288,173L290,176L291,177L291,176L292,176L293,176L294,175L295,174L297,175L298,175L299,173L298,172L298,171L298,170L298,169L297,167L296,166L297,164L297,163L297,161L297,160L296,156L295,155L294,153L295,151L296,151L296,149L296,148L295,147L294,145L291,144L291,143L291,141L289,141L288,140L287,140L287,139L286,137L286,136L286,136L286,135L287,134L286,133L285,132L283,130L282,129L282,127L283,126L282,125L281,125L280,124L279,124L279,123L278,122L277,122L276,121L275,122L275,123L275,124L275,125L274,126L273,126L272,127L271,128L271,129L272,130L271,131L270,132L270,133L270,134L269,135L269,136L268,137L267,138L265,138L264,137L263,138L262,138L262,139L261,138L260,137L260,136L259,136L257,136L255,138L254,138L253,139L254,140L253,141L254,142L253,144L253,145L253,146L252,148L252,149L252,150L252,151L251,152L250,153L249,154L248,155L247,156L247,157L246,158L245,159L244,159L243,159L242,160L241,160L240,160L240,159L239,159L237,159L237,160L235,160L234,160L233,159L232,159L232,160L232,162L231,164L230,163L225,161L225,160L224,160L223,161L223,162L221,162L220,163L219,163L218,164L217,165L217,166L216,166L214,166L213,165L213,164L212,164L212,165L212,166L212,167L212,168L211,169L211,170L210,171L209,172L210,173L211,174L211,174L210,175L211,176L212,177L212,178L212,179L212,180L213,180L214,183L215,184L216,184L217,185L216,186L216,187L217,187L219,188L219,190L219,191L220,192L220,194L220,194L219,195L219,197L221,196L222,197Z " data-fips="UP01" data-hasc="UA.CK" data-name="Cherkasy" data-postal="CK" data-varname="Cherkas'ka Oblast'|Cherkasskaya Oblast'|Cherkassy"/><path d="M281,227L282,225L282,224L284,224L285,224L286,225L289,225L294,224L294,223L295,223L295,221L295,220L296,220L296,219L295,218L296,217L297,217L299,217L300,217L301,216L301,215L302,214L303,214L304,214L304,215L305,216L305,217L305,217L306,216L306,215L307,214L307,213L308,212L310,212L311,211L311,210L311,209L311,210L312,211L312,210L314,208L315,208L316,208L317,207L318,206L319,205L319,203L318,202L318,199L317,198L317,197L317,195L316,194L316,193L317,193L320,192L321,191L324,189L326,188L326,187L325,186L323,186L322,185L320,185L319,184L319,183L320,182L321,182L323,182L324,182L325,182L326,182L327,183L327,182L328,181L328,180L328,178L327,177L326,177L325,176L324,177L323,177L322,178L321,177L320,176L319,177L318,177L316,176L315,175L314,176L313,175L312,174L312,172L313,172L312,171L309,170L308,169L307,168L304,166L297,163L297,164L296,166L297,167L298,169L298,170L298,171L298,172L299,173L298,175L297,175L295,174L294,175L293,176L292,176L291,176L291,177L290,176L288,173L288,172L287,172L286,172L285,171L285,170L284,171L283,172L282,172L282,173L281,174L280,175L279,176L279,177L278,178L277,178L276,178L274,178L274,179L273,180L272,179L272,178L270,177L268,176L267,176L266,177L264,178L263,177L263,178L263,179L263,181L262,182L261,183L261,184L259,185L258,185L257,186L257,185L255,185L254,184L253,185L252,185L250,186L249,185L248,185L247,184L245,184L243,185L242,184L241,184L240,184L239,184L238,185L237,186L237,188L235,189L236,190L236,192L236,193L233,193L233,192L232,192L231,193L227,196L226,196L225,195L224,196L223,197L222,197L221,198L220,198L219,199L218,200L218,199L218,198L217,198L216,199L215,200L214,201L213,202L213,203L213,205L214,205L214,206L213,207L215,207L216,208L217,208L218,207L219,207L220,207L220,208L220,209L221,209L222,210L228,210L229,210L229,209L234,209L236,210L237,210L238,209L239,209L241,209L242,209L243,210L243,209L244,209L245,210L246,209L247,209L248,208L249,207L252,207L253,207L253,209L254,210L254,210L254,211L257,212L259,211L259,212L262,211L262,213L262,214L263,213L264,213L264,212L265,211L266,212L267,212L269,212L269,213L270,214L268,215L268,216L269,218L270,219L271,219L271,220L272,221L272,222L272,222L272,224L272,225L275,225L276,224L277,224L278,225L279,226L279,227Z " data-fips="UP10" data-hasc="UA.KH" data-name="Kirovohrad" data-postal="KH" data-varname="Kirovograd|Kirovogradskaya Oblast'"/><path d="M217,166L217,165L218,164L219,163L220,163L221,162L223,162L223,161L224,160L225,160L225,161L230,163L231,164L232,162L232,160L232,159L233,159L234,160L235,160L237,160L237,159L239,159L240,159L240,160L241,160L242,160L243,159L244,159L245,159L246,158L247,157L247,156L248,155L249,154L250,153L251,152L252,151L252,150L252,149L252,148L253,146L253,145L253,144L254,142L253,141L254,140L253,139L254,138L255,138L257,136L259,136L260,136L260,137L261,138L262,139L262,138L263,138L264,137L265,138L267,138L268,137L269,136L269,135L270,134L270,133L270,132L271,131L272,130L271,129L271,128L272,127L273,126L274,126L275,125L275,124L275,123L275,122L276,121L277,122L278,120L278,119L279,117L277,116L278,115L277,114L276,114L275,113L275,112L275,111L276,110L276,109L275,109L274,108L273,107L272,106L270,106L270,106L269,107L269,108L267,108L266,109L265,110L264,110L262,110L261,111L259,110L258,110L257,110L256,110L255,109L254,108L253,107L253,106L254,106L254,104L253,103L253,102L252,101L251,100L251,99L250,100L248,100L247,100L245,100L244,101L243,100L242,100L242,99L242,98L243,96L241,95L240,94L239,93L239,92L239,91L239,90L238,90L237,89L236,89L235,88L235,85L236,82L236,80L237,80L237,79L236,80L235,79L234,78L233,77L231,77L231,75L231,74L231,73L230,72L229,71L228,70L226,69L222,69L220,70L219,70L218,71L215,71L215,70L214,69L213,68L212,69L211,70L210,70L209,71L208,72L208,73L206,72L205,73L205,73L206,74L206,76L206,77L205,78L204,78L203,79L203,81L203,83L204,84L205,83L206,83L207,85L208,85L208,86L208,87L208,89L207,90L206,90L206,91L208,94L209,95L208,98L209,98L210,99L210,100L211,101L210,102L209,104L208,105L208,106L208,107L208,109L207,109L208,110L207,112L206,112L207,113L207,114L208,113L209,114L210,115L210,116L211,118L212,118L212,120L213,120L213,123L213,124L214,125L214,126L213,127L212,127L212,128L212,130L212,131L214,134L213,135L212,136L211,137L210,138L209,138L207,139L206,139L206,140L206,141L206,142L206,144L207,144L206,145L206,146L207,146L207,147L207,148L207,149L208,150L209,151L209,152L208,153L209,155L209,156L207,157L207,158L207,160L208,160L209,161L210,162L211,163L212,164L213,164L213,165L214,166L216,166Z " data-fips="UP11" data-hasc="UA.KV" data-name="Kiev" data-postal="KV" data-varname="Kiev Oblast|Kiew|Kijew|Kiiv|Kijev|Kiyev|Kyiv|Kyjiv|Kyyiv|Kyyivs'ka Oblast'"/><path d="M209,333L209,332L210,330L210,329L210,326L210,325L210,324L209,323L209,324L208,323L207,322L207,324L206,323L206,322L207,321L208,320L209,318L208,319L207,319L206,319L206,317L206,315L206,313L207,312L207,311L207,310L208,309L208,308L208,309L209,310L208,311L209,313L210,314L210,315L210,317L211,316L212,315L213,315L214,314L213,313L212,313L212,311L213,311L215,311L216,312L216,311L215,309L216,308L217,309L217,307L218,307L220,308L221,307L221,306L222,305L224,307L226,305L229,301L233,297L234,295L235,294L235,293L237,290L238,288L238,287L238,286L240,286L241,284L241,282L241,281L240,279L242,277L244,277L246,276L248,275L249,275L251,275L253,274L252,272L253,271L252,266L252,265L251,264L249,263L248,261L250,260L251,260L252,260L254,260L255,259L255,257L256,256L256,255L256,254L255,253L254,252L253,252L252,251L251,251L251,250L252,249L253,248L252,247L250,248L249,248L248,247L247,247L245,247L244,245L243,241L243,239L244,238L244,237L244,236L244,235L243,234L242,234L242,232L240,232L239,233L238,232L237,232L236,232L235,232L234,232L233,232L231,231L231,230L231,229L231,228L230,227L230,226L231,225L230,224L229,223L228,218L227,217L226,216L226,215L226,214L226,213L227,213L228,212L228,211L228,210L222,210L221,209L220,209L220,208L220,207L219,207L218,207L217,208L216,208L215,207L213,207L211,208L210,209L211,210L211,212L209,212L208,212L205,212L204,211L201,212L198,212L196,210L195,210L194,209L193,210L192,212L191,213L190,214L187,215L188,216L189,217L191,218L192,218L194,216L195,217L196,218L196,219L196,220L198,221L197,222L196,223L196,225L198,225L197,226L196,227L196,229L196,230L196,232L195,233L194,234L194,235L195,237L195,239L196,239L197,239L198,240L199,240L199,241L200,242L201,243L201,244L201,245L202,246L203,245L204,244L205,243L206,244L207,245L207,246L207,248L206,249L206,251L205,253L204,253L206,255L207,254L207,255L207,257L206,257L206,260L206,261L207,261L208,262L209,262L210,262L211,264L212,264L214,264L215,265L215,266L217,266L217,268L217,269L217,270L217,273L216,274L217,276L217,277L215,277L216,278L217,280L219,280L219,281L221,282L222,283L221,284L221,285L219,285L216,285L215,285L213,286L213,285L212,283L212,282L210,280L210,281L209,282L208,283L208,284L207,285L206,284L205,283L204,282L203,281L203,280L202,280L201,280L200,282L199,282L198,280L198,281L198,283L197,283L195,285L195,283L195,282L195,279L195,277L194,277L191,279L189,279L188,280L187,281L187,282L187,284L187,287L187,288L188,289L189,292L189,293L188,294L187,296L187,297L187,299L187,300L181,301L181,303L181,305L181,306L180,307L179,307L179,308L178,309L176,309L176,311L174,311L174,312L173,314L174,315L174,316L174,317L173,318L173,319L173,320L171,320L169,319L166,319L165,321L165,322L166,322L167,324L167,326L168,328L169,328L170,329L173,330L175,331L179,332L180,332L182,331L181,330L182,329L182,328L183,328L184,329L185,330L186,329L187,328L188,328L190,327L191,326L192,326L193,325L194,324L195,324L196,324L197,324L198,324L201,324L205,326L206,327L207,328L208,329L208,331L207,332L208,333Z M212,317L215,314L220,309L215,314L214,315L213,315L212,316L211,317L210,317Z " data-fips="UP15" data-hasc="UA.MY" data-name="Odessa" data-postal="MY" data-varname="Odesa|Odes'ka Oblast'|Odesskaya Oblast'"/><path d="M190,214L191,213L192,212L193,210L194,209L195,210L196,210L198,212L201,212L204,211L205,212L208,212L209,212L211,212L211,210L210,209L211,208L213,207L214,206L214,205L213,205L213,203L213,202L214,201L215,200L216,199L217,198L218,198L218,199L218,200L219,199L220,198L221,198L222,197L221,196L219,197L219,195L220,194L220,194L220,192L219,191L219,190L219,188L217,187L216,187L216,186L217,185L216,184L215,184L214,183L213,180L212,180L212,179L212,178L212,177L211,176L210,175L211,174L211,174L210,173L209,172L210,171L211,170L211,169L212,168L212,167L212,166L212,165L212,164L211,163L210,162L209,161L208,160L207,160L207,158L207,157L209,156L209,155L208,153L209,152L209,151L208,150L207,149L207,148L207,147L207,146L206,146L205,146L204,147L203,147L201,148L200,148L197,149L195,148L194,148L193,147L193,146L193,145L192,144L194,142L192,141L192,139L192,139L192,138L191,137L191,136L189,136L188,137L187,137L187,138L186,139L184,139L183,139L181,139L181,138L178,139L177,140L175,140L174,139L173,139L170,139L167,140L165,140L163,140L162,140L162,142L161,142L159,143L160,144L161,145L160,147L160,149L160,150L158,150L158,151L159,152L159,153L159,154L161,154L161,155L160,155L160,156L161,157L161,158L161,159L162,160L162,161L161,162L162,163L162,164L162,165L161,166L160,166L159,167L158,166L157,166L156,165L155,165L154,166L152,166L151,166L151,167L150,168L149,169L149,170L148,171L148,172L148,173L147,174L148,176L148,179L148,180L148,181L148,182L148,183L147,185L147,187L148,187L148,188L149,189L149,190L150,193L150,194L152,194L153,193L153,195L157,195L158,195L160,197L161,199L162,200L163,200L166,201L166,202L166,204L167,204L169,203L169,205L169,206L171,205L172,205L174,205L174,206L173,207L172,208L173,209L174,208L175,207L176,208L175,209L176,211L177,212L177,210L178,208L179,208L182,209L184,210L186,210L186,212L186,213L187,214L187,215Z " data-fips="UP20" data-hasc="UA.VI" data-name="Vinnytsya" data-postal="VI" data-varname="Vinnytsia|Vinnitskaya Oblast'|Vinnyts'ka Oblast|Winniza"/><path d="M200,148L201,148L203,147L204,147L205,146L206,146L206,145L207,144L206,144L206,142L206,141L206,140L206,139L207,139L209,138L210,138L211,137L212,136L213,135L214,134L212,131L212,130L212,128L212,127L213,127L214,126L214,125L213,124L213,123L213,120L212,120L212,118L211,118L210,116L210,115L209,114L208,113L207,114L207,113L206,112L207,112L208,110L207,109L208,109L208,107L208,106L208,105L209,104L210,102L211,101L210,100L210,99L209,98L208,98L209,95L208,94L206,91L206,90L207,90L208,89L208,87L208,86L208,85L207,85L206,83L205,83L204,84L203,83L203,81L203,79L204,78L205,78L206,77L206,76L206,74L205,73L205,73L205,73L204,73L203,71L202,70L202,69L202,68L202,66L201,65L200,63L199,62L198,62L197,63L196,64L195,65L193,65L192,65L191,66L190,67L189,69L189,70L188,71L188,70L187,70L186,69L186,65L185,65L183,64L181,64L180,65L178,65L178,64L178,64L177,63L176,62L176,60L175,61L174,62L173,63L172,64L169,64L168,64L167,62L165,62L165,63L164,64L164,66L163,67L162,67L161,66L159,67L159,68L158,69L159,70L158,69L157,68L156,71L156,72L156,73L156,74L154,74L155,76L155,77L153,78L153,80L152,81L152,82L151,83L150,84L149,85L148,85L148,87L148,88L148,89L148,90L148,91L148,94L148,95L149,97L149,98L148,100L147,101L147,102L146,103L147,104L147,107L148,108L149,109L148,109L147,112L147,113L148,113L149,114L150,116L151,116L151,117L152,118L153,118L153,119L155,120L156,119L156,118L157,120L157,122L158,123L157,124L157,125L157,126L158,127L158,128L157,129L156,129L155,129L155,131L155,132L154,133L155,134L156,135L156,136L157,137L163,140L165,140L167,140L170,139L173,139L174,139L175,140L177,140L178,139L181,138L181,139L183,139L184,139L186,139L187,138L187,137L188,137L189,136L191,136L191,137L192,138L192,139L192,139L192,141L194,142L192,144L193,145L193,146L193,147L194,148L195,148L197,149Z " data-fips="UP24" data-hasc="UA.ZT" data-name="Zhytomyr" data-postal="ZT" data-varname="Zhitomir|Jitomir|Shitomir|Zhitomirskaya Oblast'"/><path d="M344,125L347,125L348,124L349,124L350,124L351,123L355,123L356,122L357,122L357,121L358,120L359,120L359,119L361,119L362,119L363,118L363,117L364,117L365,116L367,117L367,115L368,115L370,116L370,115L372,115L373,115L374,115L375,114L374,114L372,114L371,113L371,111L370,110L369,109L368,109L367,108L366,103L366,102L368,101L367,99L367,98L367,96L366,96L365,94L365,93L364,92L364,91L364,90L363,90L362,89L362,87L364,87L364,86L363,85L362,85L359,85L358,85L358,83L357,79L356,78L355,78L354,79L353,78L352,79L349,80L348,81L345,80L345,79L344,78L343,78L340,78L339,77L337,77L336,78L335,78L333,78L334,77L335,75L336,74L335,73L333,72L332,71L333,70L333,69L333,68L333,66L333,65L331,63L330,62L329,61L329,60L330,60L335,58L337,58L338,57L338,55L337,53L335,52L334,51L333,50L332,50L331,48L329,48L329,46L329,46L328,44L328,42L328,40L328,39L327,38L325,36L324,34L323,34L322,33L321,32L320,31L319,31L318,31L316,33L314,34L313,34L313,32L312,32L311,32L310,34L310,35L310,36L309,37L309,40L310,41L311,42L312,43L313,43L313,44L312,45L311,44L310,46L310,47L310,48L309,50L308,50L307,51L305,51L305,52L304,53L303,53L303,55L302,56L303,57L303,58L305,60L305,61L305,62L305,64L306,65L305,66L306,67L306,68L304,68L305,69L304,70L304,71L304,72L304,73L303,74L302,73L301,73L302,74L303,75L303,76L303,77L303,78L302,79L302,80L301,81L300,82L301,84L300,85L301,85L302,86L303,86L303,87L304,88L305,88L306,87L307,87L306,88L306,89L306,90L306,92L306,93L306,94L305,97L305,98L305,99L306,100L306,101L305,102L305,103L305,104L305,105L304,106L304,109L305,109L307,109L308,109L309,108L310,109L311,109L319,110L322,111L323,111L325,110L324,109L325,109L326,108L327,109L328,110L331,110L331,110L332,109L333,108L335,108L336,108L336,109L336,112L337,113L338,114L339,115L339,116L339,117L339,118L340,119L341,119L341,120L342,121L343,122L343,123L342,123L342,124L343,125Z " data-fips="UP18" data-hasc="UA.SM" data-name="Sumy" data-postal="SM" data-varname=""/><path d="M339,237L342,236L346,235L350,233L351,233L354,234L357,234L359,234L359,233L359,232L359,231L359,229L359,227L359,225L358,224L358,223L358,222L358,221L356,219L356,218L357,217L358,216L358,215L357,215L356,214L355,213L356,212L356,211L356,210L356,209L357,210L357,211L360,210L361,209L362,209L363,208L364,208L366,208L368,208L370,209L375,210L376,209L378,208L379,208L380,208L381,209L383,209L384,210L385,209L387,209L388,209L388,211L389,211L390,211L390,212L391,213L391,214L391,215L392,215L392,216L392,218L391,218L392,219L392,219L394,218L395,218L395,219L397,219L398,220L399,219L400,218L400,219L405,217L404,216L404,215L406,215L407,214L406,213L405,213L405,211L405,208L406,208L407,207L409,208L410,209L411,209L413,209L413,208L414,208L414,206L413,205L413,204L414,203L414,202L414,201L414,199L413,198L412,197L411,197L411,196L411,195L411,193L411,192L412,190L412,189L412,188L412,187L412,186L410,187L410,189L408,188L409,187L409,185L408,186L408,185L406,185L405,186L403,186L403,185L401,184L400,185L398,187L398,189L397,189L396,189L395,189L396,188L395,187L395,186L395,185L392,182L391,181L392,180L391,179L390,178L389,177L388,177L387,176L386,176L387,175L387,174L386,173L386,172L384,172L383,172L382,173L381,173L380,173L378,173L377,172L376,172L374,172L373,172L371,172L370,171L368,170L368,169L366,168L364,166L363,165L362,165L360,165L359,165L357,164L356,164L356,165L355,166L355,165L353,165L352,165L351,166L348,167L342,169L342,170L341,171L341,172L341,173L339,174L339,176L339,177L340,179L340,180L339,181L340,182L339,183L338,183L336,182L334,181L332,181L328,180L328,181L327,182L327,183L326,182L325,182L324,182L323,182L321,182L320,182L319,183L319,184L320,185L322,185L323,186L325,186L326,187L326,188L324,189L321,191L320,192L317,193L316,193L316,194L317,195L317,197L317,198L318,199L318,202L319,203L319,205L318,206L317,207L316,208L315,208L314,208L312,210L312,211L311,210L311,209L311,210L311,211L310,212L308,212L307,213L307,214L306,215L306,216L305,217L305,219L306,219L307,220L306,222L306,223L306,225L307,226L306,227L305,228L304,229L305,230L305,231L305,232L305,233L307,233L309,234L310,235L312,235L313,235L314,236L314,237L315,236L318,235L319,234L321,233L321,234L321,235L321,236L323,236L323,237L326,237L330,236L335,237L338,237Z " data-fips="UP04" data-hasc="UA.DP" data-name="Dnipropetrovs'k" data-postal="DP" data-varname="Dnipropetrovsk|Dniepropietrovsk|Dnjepropetrowsk"/><path d="M422,258L425,256L426,255L428,255L429,255L430,256L430,257L431,256L431,255L434,250L436,248L437,247L440,248L442,248L445,246L447,247L448,246L450,247L451,246L452,247L452,248L452,249L453,248L455,245L454,244L454,243L454,242L454,241L456,240L456,239L456,237L455,237L454,238L453,237L453,236L454,234L455,233L455,232L455,229L455,227L455,226L456,225L457,224L463,222L464,222L465,220L466,220L467,220L467,219L468,217L468,215L468,214L469,212L471,212L475,211L475,211L475,208L474,207L474,205L471,205L469,205L468,204L468,202L468,201L466,201L462,200L461,199L461,198L461,196L460,195L457,196L456,195L456,193L457,193L457,192L457,191L456,190L455,189L454,189L453,189L452,188L452,187L452,186L451,185L451,184L451,183L450,182L450,181L450,179L451,178L451,177L450,176L450,175L451,174L450,173L449,172L449,172L448,170L448,169L447,169L443,168L442,167L443,166L444,166L443,163L443,162L443,161L443,160L441,160L440,161L439,160L438,160L438,159L438,158L438,157L437,157L437,157L436,158L435,158L431,157L428,158L428,160L430,160L430,161L424,166L423,167L423,168L422,169L423,170L423,171L421,171L420,172L420,173L419,174L419,175L418,175L417,175L416,176L415,176L415,177L415,178L412,177L411,177L410,178L408,178L406,178L406,179L407,181L407,182L407,184L408,185L408,186L409,185L409,187L408,188L410,189L410,187L412,186L412,187L412,188L412,189L412,190L411,192L411,193L411,195L411,196L411,197L412,197L413,198L414,199L414,201L414,202L414,203L413,204L413,205L414,206L414,208L413,208L413,209L411,209L410,209L409,208L407,207L406,208L405,208L405,211L405,213L406,213L407,214L406,215L404,215L404,216L405,217L406,220L407,220L408,220L408,221L409,223L410,224L411,225L410,226L411,227L411,228L413,227L413,228L415,229L416,229L417,229L418,230L419,230L422,232L423,233L425,233L425,235L424,236L424,237L423,237L422,237L422,238L421,239L421,240L420,240L418,240L417,240L417,241L418,243L417,244L416,245L417,246L419,247L420,248L420,250L422,250L423,251L424,251L423,252L424,254L423,254L422,254L421,256L422,258Z " data-fips="UP05" data-hasc="UA.DT" data-name="Donets'k" data-postal="DT" data-varname="Donetsk|Donetskaya Oblast'|Donezk|Stalino"/><path d="M398,189L398,187L400,185L401,184L403,185L403,186L405,186L406,185L408,185L407,184L407,182L407,181L406,179L406,178L408,178L410,178L411,177L412,177L415,178L415,177L415,176L416,176L417,175L418,175L419,175L419,174L420,173L420,172L421,171L423,171L423,170L422,169L423,168L423,167L424,166L430,161L430,160L428,160L428,158L431,157L435,158L436,158L437,157L437,157L438,155L439,154L438,153L437,152L437,149L436,148L437,148L438,147L438,145L439,144L438,143L438,142L438,141L439,140L439,138L439,137L438,136L437,136L438,135L439,135L439,134L440,133L439,131L440,131L441,130L440,129L439,128L438,128L438,127L437,125L436,124L435,123L434,123L431,122L430,121L427,118L426,117L426,115L426,114L426,113L425,112L423,111L422,110L422,108L421,107L417,108L416,110L415,111L411,112L409,112L408,112L406,113L401,117L400,118L399,118L398,118L398,117L397,115L395,115L394,114L393,115L392,116L390,116L387,111L386,110L381,110L378,111L377,112L375,113L375,114L374,115L373,115L372,115L370,115L370,116L368,115L367,115L367,117L365,116L364,117L363,117L363,118L362,119L361,119L359,119L359,120L358,120L357,121L357,122L356,122L355,123L354,124L354,126L354,128L353,129L352,130L353,131L353,132L354,133L355,134L356,134L357,134L358,135L360,136L361,135L362,136L362,137L362,139L363,140L364,141L364,142L365,143L367,143L368,142L369,142L369,143L369,144L370,146L370,148L369,148L370,149L370,150L369,151L368,150L367,151L366,152L367,153L368,154L368,155L367,156L367,157L365,158L363,159L360,159L359,158L357,160L357,162L358,163L358,164L359,165L360,165L362,165L363,165L364,166L366,168L368,169L368,170L370,171L371,172L373,172L374,172L376,172L377,172L378,173L380,173L381,173L382,173L383,172L384,172L386,172L386,173L387,174L387,175L386,176L387,176L388,177L389,177L390,178L391,179L392,180L391,181L392,182L395,185L395,186L395,187L396,188L395,189L396,189L397,189Z " data-fips="UP07" data-hasc="UA.KK" data-name="Kharkiv" data-postal="KK" data-varname="Charkow|Jarkov|Karkov|Khar'kov"/><path d="M478,212L479,212L484,211L485,212L486,212L487,211L488,212L491,211L495,211L495,210L496,209L496,208L496,206L496,205L496,204L495,203L495,202L497,201L496,200L497,198L498,195L500,193L500,191L499,190L497,191L495,190L497,188L498,187L497,186L497,185L495,183L495,182L495,181L495,180L493,179L490,179L488,179L489,178L490,172L491,170L492,169L493,169L496,170L497,169L498,168L499,167L498,165L497,166L496,167L495,166L493,166L491,166L490,165L489,164L488,163L488,160L490,160L492,159L494,159L494,158L494,157L495,155L495,155L497,153L499,151L499,150L499,148L499,147L499,145L498,144L496,142L496,141L495,140L496,138L497,137L497,135L494,135L493,135L492,137L491,138L489,138L488,138L487,137L485,137L484,136L484,136L483,135L482,133L481,131L479,131L478,131L477,131L476,132L475,132L473,131L472,131L470,126L468,127L468,129L467,129L464,130L463,129L463,128L462,127L459,127L456,125L456,124L455,125L454,124L452,125L451,125L449,124L448,124L447,123L446,121L445,121L443,121L442,121L442,122L443,124L443,126L441,127L440,127L439,128L440,129L441,130L440,131L439,131L440,133L439,134L439,135L438,135L437,136L438,136L439,137L439,138L439,140L438,141L438,142L438,143L439,144L438,145L438,147L437,148L436,148L437,149L437,152L438,153L439,154L438,155L437,157L438,157L438,158L438,159L438,160L439,160L440,161L441,160L443,160L443,161L443,162L443,163L444,166L443,166L442,167L443,168L447,169L448,169L448,170L449,172L449,172L450,173L451,174L450,175L450,176L451,177L451,178L450,179L450,181L450,182L451,183L451,184L451,185L452,186L452,187L452,188L453,189L454,189L455,189L456,190L457,191L457,192L457,193L456,193L456,195L457,196L460,195L461,196L461,198L461,199L462,200L466,201L468,201L468,202L468,204L469,205L471,205L474,205L474,207L475,208L475,211L475,211L475,211L477,212Z " data-fips="UP12" data-hasc="UA.LH" data-name="Luhans'k" data-postal="LH" data-varname="Luhansk|Lugansk|Luhans'ka Oblast'|Voroshilovgrad"/><path d="M339,183L340,182L339,181L340,180L340,179L339,177L339,176L339,174L341,173L341,172L341,171L342,170L342,169L348,167L351,166L352,165L353,165L355,165L355,166L356,165L356,164L357,164L358,164L358,163L357,162L357,160L359,158L360,159L363,159L365,158L367,157L367,156L368,155L368,154L367,153L366,152L367,151L368,150L369,151L370,150L370,149L369,148L370,148L370,146L369,144L369,143L369,142L368,142L367,143L365,143L364,142L364,141L363,140L362,139L362,137L362,136L361,135L360,136L358,135L357,134L356,134L355,134L354,133L353,132L353,131L352,130L353,129L354,128L354,126L354,124L351,123L350,124L349,124L348,124L347,125L344,125L343,125L342,124L342,123L343,123L343,122L342,121L341,120L341,119L340,119L339,118L339,117L339,116L339,115L338,114L337,113L336,112L336,109L336,108L335,108L333,108L332,109L331,110L331,110L328,110L327,109L326,108L325,109L324,109L325,110L323,111L322,111L319,110L311,109L310,109L309,108L308,109L307,109L305,109L304,109L303,111L302,111L301,113L300,113L299,114L297,115L295,116L294,116L292,116L289,116L289,116L288,115L287,114L286,115L285,114L283,115L282,117L281,117L279,117L278,119L278,120L278,122L279,123L279,124L280,124L281,125L282,125L283,126L282,127L282,129L283,130L285,132L286,133L287,134L286,135L286,136L286,136L286,137L287,139L287,140L288,140L289,141L291,141L291,143L291,144L294,145L295,147L296,148L296,149L296,151L295,151L294,153L295,155L296,156L297,160L297,161L297,163L304,166L307,168L308,169L309,170L312,171L313,172L312,172L312,174L313,175L314,176L315,175L316,176L318,177L319,177L320,176L321,177L322,178L323,177L324,177L325,176L326,177L327,177L328,178L332,181L334,181L336,182L338,183Z " data-fips="UP16" data-hasc="UA.PL" data-name="Poltava" data-postal="PL" data-varname=""/><path d="M372,287L375,282L377,280L378,279L379,278L382,276L383,275L385,272L386,272L387,271L390,269L394,268L396,269L397,268L398,268L399,269L400,270L401,271L401,269L401,268L403,266L404,265L405,265L406,265L407,264L409,264L410,263L411,263L413,263L414,263L415,265L415,267L414,268L415,268L416,266L416,265L416,264L417,263L417,262L418,261L419,259L420,259L422,258L421,256L422,254L423,254L424,254L423,252L424,251L423,251L422,250L420,250L420,248L419,247L417,246L416,245L417,244L418,243L417,241L417,240L418,240L420,240L421,240L421,239L422,238L422,237L423,237L424,237L424,236L425,235L425,233L423,233L422,232L419,230L418,230L417,229L416,229L415,229L413,228L413,227L411,228L411,227L410,226L411,225L410,224L409,223L408,221L408,220L407,220L406,220L400,219L400,218L399,219L398,220L397,219L395,219L395,218L394,218L392,219L392,219L391,218L392,218L392,216L392,215L391,215L391,214L391,213L390,212L390,211L389,211L388,211L388,209L387,209L385,209L384,210L383,209L381,209L380,208L379,208L378,208L376,209L375,210L370,209L368,208L366,208L364,208L363,208L362,209L361,209L360,210L357,211L357,210L356,209L356,210L356,211L356,212L355,213L356,214L357,215L358,215L358,216L357,217L356,218L356,219L358,221L358,222L358,223L358,224L359,225L359,227L359,229L359,231L359,232L359,233L359,234L357,234L354,234L351,233L350,233L346,235L342,236L339,237L340,239L342,244L342,245L342,246L343,245L344,245L345,244L348,243L347,244L347,245L348,246L348,247L348,249L348,250L348,251L349,252L350,254L350,256L351,257L351,258L352,259L353,259L355,259L355,261L356,262L357,263L356,264L356,266L355,267L354,268L353,268L353,270L354,270L355,270L356,271L356,272L356,273L356,275L358,276L359,276L359,277L361,277L362,278L363,278L364,278L366,282L366,283L366,284L366,286L367,286L367,286L369,283L370,282L370,281L370,279L369,278L369,277L370,278L371,279L372,279L372,281L372,283L373,284L374,283L374,284L373,285L372,287L372,287Z " data-fips="UP23" data-hasc="UA.ZP" data-name="Zaporizhzhya" data-postal="ZP" data-varname="Saporoshje|Zaporizhia|Zaporiz'ka Oblast'|Zaporojie|Zaporozhskaya Oblast'|Zaporozh'ye|Zaporoje"/></g></svg>