<?xml version="1.0" ?><!DOCTYPE svg  PUBLIC '-//W3C//DTD SVG 1.1//EN'  'http://www.w3.org/Graphics/SVG/1.1/DTD/svg11.dtd'><svg enable_background="new 0 0 500 401" height="401px" style="stroke-linejoin: round; stroke:#000; fill:#f6f3f0;" version="1.1" viewBox="0 0 500 401" width="500px" xmlns="http://www.w3.org/2000/svg" xmlns:xlink="http://www.w3.org/1999/xlink"><defs><style type="text/css"><![CDATA[path { fill-rule: evenodd; }
#context path { fill: #eee; stroke: #bbb; } ]]></style></defs><metadata><views><view h="401" padding="0" w="500"><proj id="laea" lat0="-35.377" lon0="-65.167"/><bbox h="408.96" w="195.17" x="932.18" y="832.73"/><llbbox lat0="-90" lat1="90" lon0="-180" lon1="180"/></view></views></metadata><g id="admin1"><path d="M197,367L196,365L195,364L194,362L193,360L191,359L190,359L189,359L188,359L189,358L190,358L191,358L192,357L191,355L191,354L191,353L191,352L190,351L189,352L190,351L190,350L190,349L191,348L191,346L192,344L192,343L194,342L196,342L196,341L195,340L194,339L192,339L191,340L192,339L194,339L194,338L194,337L194,338L195,339L195,340L196,341L197,341L199,340L200,338L201,337L201,334L201,333L201,332L201,330L201,331L201,330L202,329L202,328L204,325L205,324L206,323L207,322L208,321L209,320L210,320L211,319L212,319L212,318L213,317L214,316L215,316L214,314L216,314L215,313L214,312L212,313L211,313L212,313L213,312L214,312L215,312L216,310L216,309L216,308L216,306L215,305L215,304L213,304L211,304L210,303L209,304L208,303L207,302L205,301L204,299L203,299L202,298L201,296L201,295L200,292L201,291L201,291L194,291L183,292L167,293L166,294L165,295L166,296L166,298L167,300L167,301L166,302L165,302L165,303L165,305L165,306L166,307L166,308L164,308L164,309L164,310L162,310L163,311L162,313L162,314L161,315L161,317L162,317L163,318L163,320L164,321L163,322L162,322L161,323L162,325L162,327L161,328L160,329L159,330L158,331L158,332L158,333L156,334L155,335L155,336L155,337L156,338L156,339L156,340L156,341L156,342L156,343L157,344L158,345L158,346L159,348L159,349L159,350L160,351L161,350L161,349L163,349L164,349L164,348L166,349L166,350L167,351L167,352L166,354L166,355L167,355L167,356L167,358L167,359L167,360L167,361L168,361L169,362L170,363L170,364L185,364L189,365L191,365L192,365L194,366L195,366L196,367L197,368Z " data-fips="AR20" data-hasc="AR.SC" data-name="Santa Cruz" data-postal="SC" data-varname=""/><path d="M213,398L215,398L215,397L217,397L218,398L219,397L220,397L220,396L221,395L221,394L220,394L219,394L217,394L215,394L213,393L212,392L211,391L210,390L208,389L206,387L204,386L203,385L202,384L201,382L200,381L200,379L199,378L198,379L197,378L196,377L197,376L198,375L199,376L198,375L198,374L197,373L196,372L195,371L197,396L197,397L199,397L200,397L202,397L204,397L206,397L208,398L209,398L211,399L212,399Z M226,396L227,396L228,396L229,396L230,395L229,395L228,395L227,395L226,395L225,395L225,396L224,396L225,397Z " data-fips="AR23" data-hasc="AR.TF" data-name="Tierra del Fuego" data-postal="TF" data-varname="Feuerland|Terra del Fuoco|Terre de Feu|Terra do Fogo|Tierra del Fuego|Antrtida e Islas del Atlntico Sur"/><path d="M169,128L171,127L172,127L174,127L176,126L176,125L177,125L178,124L179,124L180,123L181,123L181,124L182,124L183,124L183,127L186,127L188,125L190,125L190,124L192,124L193,125L194,126L195,126L196,126L197,125L198,126L198,125L198,123L198,122L199,121L200,121L201,121L202,121L205,120L204,119L204,118L203,118L202,117L202,116L201,115L201,112L201,111L201,109L201,108L200,107L199,106L198,106L197,105L197,104L196,103L195,102L194,101L193,100L192,99L191,98L190,97L189,96L188,96L187,95L186,95L185,95L183,94L182,95L181,94L181,93L181,92L181,91L181,90L181,89L181,88L181,87L181,86L180,85L179,85L179,83L178,82L177,81L176,81L175,81L174,81L173,80L173,81L173,82L173,83L172,84L173,85L172,86L172,88L172,89L171,89L170,90L170,91L170,93L170,94L171,95L171,96L171,97L171,99L171,101L172,102L172,103L171,104L170,104L169,104L169,105L169,106L168,107L168,109L168,109L168,111L168,112L167,114L166,113L166,114L165,116L165,117L165,118L165,119L166,121L167,122L167,122L168,122L169,123L169,124L168,125L168,126L168,127L169,128Z " data-fips="AR18" data-hasc="AR.SJ" data-name="San Juan" data-postal="SJ" data-varname=""/><path d="M183,292L194,291L201,291L201,291L201,291L201,290L203,288L203,287L203,286L204,285L204,284L205,284L206,282L207,282L209,281L210,280L211,280L212,279L213,278L214,279L215,279L216,279L217,279L217,278L217,277L216,276L217,275L217,274L218,274L219,273L220,273L220,272L220,271L220,270L220,269L221,267L220,266L220,265L220,264L220,263L220,262L221,261L222,260L222,259L223,258L224,257L226,256L227,256L228,255L227,254L226,254L225,253L223,253L222,252L223,251L224,250L225,249L227,249L228,249L229,250L229,251L229,252L230,253L231,254L232,253L234,253L235,251L235,250L235,248L235,247L234,245L234,244L232,244L231,245L229,246L231,246L231,247L230,248L228,248L227,248L226,247L227,246L226,246L225,246L224,245L222,244L222,243L221,243L216,243L213,243L206,243L195,243L192,243L184,244L183,244L167,245L162,245L162,245L162,247L161,247L159,247L159,248L159,249L160,250L159,252L159,253L159,254L160,256L160,258L161,259L162,259L163,260L163,261L162,261L162,262L162,263L163,263L164,264L164,265L164,266L164,267L165,268L163,270L164,272L164,273L164,274L165,274L167,274L169,274L170,275L169,276L169,277L169,278L168,278L166,278L165,278L164,278L162,279L162,280L163,280L164,280L165,281L166,281L167,282L168,283L169,284L168,285L167,286L167,287L166,287L165,288L165,289L165,290L166,291L167,292L167,293Z " data-fips="AR04" data-hasc="AR.CH" data-name="Chubut" data-postal="CH" data-varname=""/><path d="M191,181L191,175L191,172L191,171L203,171L207,171L207,170L207,169L207,167L208,165L208,163L208,161L208,160L207,159L207,158L207,157L205,154L205,153L205,152L205,151L204,150L205,149L205,147L204,146L204,145L203,144L203,143L202,142L201,140L201,139L201,138L201,137L200,135L200,134L200,133L200,132L200,131L200,129L199,128L199,128L198,126L197,125L196,126L195,126L194,126L193,125L192,124L190,124L190,125L188,125L186,127L183,127L183,124L182,124L181,124L181,123L180,123L179,124L178,124L177,125L176,125L176,126L174,127L172,127L171,127L169,128L169,128L169,128L170,129L170,130L170,131L170,133L171,134L172,134L172,135L171,136L171,138L172,138L172,139L173,139L174,139L175,140L174,141L174,143L174,144L173,145L174,146L174,147L174,148L174,150L175,151L173,151L172,152L172,153L172,154L171,155L171,156L170,158L170,160L170,162L168,163L168,164L169,165L169,166L170,167L170,168L170,169L170,170L170,172L170,173L170,174L170,174L171,174L170,175L171,176L172,177L172,178L173,179L174,180L175,180L175,181L176,182L177,183L176,184L177,185L178,186L180,186L182,185L183,186L184,186L184,188L185,188L187,188L188,189L189,189L190,190Z " data-fips="AR08" data-hasc="AR.MZ" data-name="Mendoza" data-postal="MZ" data-varname=""/><path d="M166,234L167,233L168,232L167,231L167,230L167,229L168,228L169,227L170,228L171,227L172,226L173,227L175,227L175,226L176,225L176,224L176,223L176,221L177,220L177,219L180,218L181,217L182,216L183,215L184,214L185,214L186,213L187,212L188,210L188,210L189,209L190,208L191,207L192,207L193,207L194,206L193,204L192,203L192,192L190,190L189,189L188,189L187,188L185,188L184,188L184,186L183,186L182,185L180,186L178,186L177,185L176,184L177,183L176,182L175,181L175,180L174,180L173,179L172,178L172,177L171,176L170,175L171,174L170,174L170,174L170,174L169,174L168,175L167,176L167,177L166,177L165,177L165,178L164,179L164,180L163,181L163,182L163,183L163,184L163,185L164,186L164,187L163,189L164,190L164,191L164,192L164,193L165,195L165,196L166,197L166,198L166,200L167,202L168,203L167,204L167,205L166,205L165,206L164,207L163,208L162,209L163,210L163,212L162,213L162,214L162,216L161,216L160,217L160,218L161,219L161,220L161,221L161,222L160,222L160,223L160,224L161,225L160,226L160,228L160,229L159,230L159,231L160,232L160,233L160,233L162,233L163,233L165,234Z " data-fips="AR15" data-hasc="AR.NQ" data-name="Neuqun" data-postal="NQ" data-varname="Neuqum"/><path d="M243,232L244,231L245,230L247,229L248,228L248,227L247,227L248,226L247,225L246,224L246,223L247,222L247,221L247,220L247,218L248,217L249,217L249,216L250,214L250,213L249,212L248,212L248,211L249,211L250,211L249,211L248,210L247,209L247,208L248,207L247,206L248,205L250,206L250,207L253,207L254,207L255,207L257,207L259,208L260,207L261,207L263,207L265,207L266,207L271,206L273,206L278,205L279,204L282,204L283,204L284,203L286,203L287,202L288,202L291,200L292,200L293,199L293,198L293,197L294,196L294,195L295,194L296,194L297,192L299,190L300,188L301,187L303,184L303,183L303,181L302,178L301,178L300,178L299,177L298,176L297,175L297,174L297,173L297,171L298,170L299,168L300,167L299,166L298,165L298,164L296,162L295,161L294,160L292,159L291,158L289,158L288,157L288,156L287,155L287,154L287,152L288,152L288,150L288,149L287,149L286,149L284,148L283,147L282,146L280,146L280,145L278,145L278,144L276,144L275,143L274,142L273,142L272,141L270,139L270,140L269,140L269,141L268,142L268,143L267,143L266,143L265,142L263,142L263,144L261,146L259,148L255,152L250,152L244,151L239,152L239,154L238,162L238,165L238,171L238,176L238,178L238,181L238,186L238,192L238,198L238,205L238,211L237,217L237,224L237,228L240,228L241,229L241,230L242,231L242,232Z M251,209L251,209L250,209L250,210L252,210Z " data-fips="AR01" data-hasc="AR.DF" data-name="Ciudad de Buenos Aires" data-postal="DF" data-varname="BUENOS AIRES D.F.|Capital Federal|Distretto Federale|Distrito Federal|Federal Capital"/><path d="M238,205L238,198L238,192L238,186L238,181L238,178L238,176L238,171L238,165L238,162L233,159L228,159L222,159L222,169L221,171L212,171L207,171L203,171L191,171L191,172L191,175L191,181L196,191L197,192L196,193L195,194L195,195L196,196L196,196L197,196L198,198L199,198L201,198L202,198L202,199L203,200L204,200L205,201L206,201L207,202L208,203L208,203L210,204L211,203L214,204L215,204L217,204L218,204L219,205L220,205L221,204L223,205L224,205L227,205L231,206L232,207L233,208L234,209L235,209L236,211L238,211Z " data-fips="AR11" data-hasc="AR.LP" data-name="La Pampa" data-postal="LP" data-varname="El Pampa|Eva Perln"/><path d="M167,245L183,244L184,244L192,243L195,243L206,243L213,243L216,243L221,243L222,243L222,242L222,240L222,239L222,238L222,237L222,236L222,234L221,233L221,231L221,230L221,229L222,228L223,227L224,228L225,228L224,229L225,229L227,229L228,230L230,231L231,231L232,232L234,233L235,233L236,233L238,233L240,233L241,232L242,232L242,231L241,230L241,229L240,228L237,228L237,224L237,217L238,211L236,211L235,209L234,209L233,208L232,207L231,206L227,205L224,205L223,205L221,204L220,205L219,205L218,204L217,204L215,204L214,204L211,203L210,204L208,203L208,203L207,202L206,201L205,201L204,200L203,200L202,199L202,198L201,198L199,198L198,198L197,196L196,196L196,196L195,195L195,194L196,193L197,192L196,191L192,192L192,203L193,204L194,206L193,207L192,207L191,207L190,208L189,209L188,210L188,210L187,212L186,213L185,214L184,214L183,215L182,216L181,217L180,218L177,219L177,220L176,221L176,223L176,224L176,225L175,226L175,227L173,227L172,226L171,227L170,228L169,227L168,228L167,229L167,230L167,231L168,232L167,233L166,234L165,234L163,233L162,233L160,233L160,233L160,234L160,235L160,236L160,237L160,239L161,240L160,241L161,242L162,243L162,245Z " data-fips="AR16" data-hasc="AR.RN" data-name="Ro Negro" data-postal="RN" data-varname=""/><path d="M212,171L221,171L222,169L222,159L222,159L222,146L221,137L222,136L222,135L222,134L223,133L223,132L224,131L224,130L224,128L223,127L223,126L222,126L221,126L220,125L220,124L219,123L216,121L215,121L213,121L212,121L211,122L210,122L209,122L207,122L206,122L202,121L201,121L200,121L199,121L198,122L198,123L198,125L198,126L199,128L199,128L200,129L200,131L200,132L200,133L200,134L200,135L201,137L201,138L201,139L201,140L202,142L203,143L203,144L204,145L204,146L205,147L205,149L204,150L205,151L205,152L205,153L205,154L207,157L207,158L207,159L208,160L208,161L208,163L208,165L207,167L207,169L207,170L207,171Z " data-fips="AR19" data-hasc="AR.SL" data-name="San Luis" data-postal="SL" data-varname=""/><path d="M239,154L239,152L244,151L248,145L251,140L254,136L255,136L255,135L256,133L255,132L255,131L254,130L254,129L254,128L253,127L252,126L251,125L251,123L251,122L251,121L251,120L252,119L252,118L255,109L255,107L252,104L251,96L249,96L246,96L239,95L238,95L237,94L236,94L235,94L234,94L233,92L230,92L229,92L227,92L224,93L223,94L223,97L222,98L221,100L219,100L217,103L217,104L217,105L216,108L216,109L215,112L215,114L215,118L215,121L216,121L219,123L220,124L220,125L221,126L222,126L223,126L223,127L224,128L224,130L224,131L223,132L223,133L222,134L222,135L222,136L221,137L222,146L222,159L222,159L228,159L233,159Z " data-fips="AR05" data-hasc="AR.CB" data-name="Crdoba" data-postal="CB" data-varname="Cordova"/><path d="M221,100L222,98L223,97L223,94L224,93L223,92L223,91L222,90L222,85L221,83L221,81L222,81L222,80L222,78L221,73L220,73L219,73L218,73L217,74L217,75L216,74L215,73L214,72L214,71L213,70L213,69L212,67L211,67L210,66L211,65L211,64L212,63L213,61L213,60L214,59L213,59L211,57L210,57L210,56L211,55L210,53L209,53L209,54L208,55L207,55L206,54L206,53L205,52L204,51L203,49L203,48L204,47L205,47L206,46L206,45L207,44L206,43L205,42L192,42L185,41L184,41L183,45L184,46L184,47L185,48L185,49L186,52L186,53L184,55L184,57L184,58L185,59L187,62L187,63L186,64L185,64L184,65L183,64L182,65L181,66L181,67L180,68L180,69L179,71L179,72L179,73L179,73L182,73L183,72L184,72L185,72L186,72L186,73L186,74L186,75L187,76L188,76L189,76L190,76L192,76L192,77L192,79L193,79L194,79L200,79L201,78L202,78L204,79L206,80L207,81L207,82L208,83L208,84L209,85L211,86L212,88L215,90L215,91L215,93L216,94L216,95L217,97L219,100Z " data-fips="AR02" data-hasc="AR.CT" data-name="Catamarca" data-postal="CT" data-varname=""/><path d="M228,33L229,32L230,31L231,31L231,30L232,29L231,21L230,21L229,22L228,21L227,20L226,20L225,21L224,20L223,18L222,17L223,16L223,15L222,14L220,14L220,13L220,10L219,10L219,9L219,8L220,6L220,5L221,4L217,4L216,4L214,4L212,2L212,2L211,1L210,0L209,0L208,2L208,3L207,4L206,5L204,5L203,6L203,7L203,8L201,8L200,9L200,11L199,12L198,13L200,15L198,23L198,23L199,24L200,25L201,26L201,26L202,27L204,28L204,29L206,29L207,29L207,28L208,27L208,26L208,25L208,24L208,23L207,22L207,20L208,19L209,19L210,20L211,20L212,22L212,23L212,24L211,25L212,26L213,26L214,27L214,28L215,29L217,31L218,32L219,32L220,32L221,32L222,33L224,34L225,32L227,34Z " data-fips="AR10" data-hasc="AR.JY" data-name="Jujuy" data-postal="JY" data-varname=""/><path d="M210,122L211,122L212,121L213,121L215,121L215,118L215,114L215,112L216,109L216,108L217,105L217,104L217,103L219,100L217,97L216,95L216,94L215,93L215,91L215,90L212,88L211,86L209,85L208,84L208,83L207,82L207,81L206,80L204,79L202,78L201,78L200,79L194,79L193,79L192,79L192,77L192,76L190,76L189,76L188,76L187,76L186,75L186,74L186,73L186,72L185,72L184,72L183,72L182,73L179,73L179,73L178,74L177,75L177,76L176,77L175,78L174,79L173,80L174,81L175,81L176,81L177,81L178,82L179,83L179,85L180,85L181,86L181,87L181,88L181,89L181,90L181,91L181,92L181,93L181,94L182,95L183,94L185,95L186,95L187,95L188,96L189,96L190,97L191,98L192,99L193,100L194,101L195,102L196,103L197,104L197,105L198,106L199,106L200,107L201,108L201,109L201,111L201,112L201,115L202,116L202,117L203,118L204,118L204,119L205,120L206,122L207,122L209,122Z " data-fips="AR12" data-hasc="AR.LR" data-name="La Rioja" data-postal="LR" data-varname=""/><path d="M209,54L209,53L210,53L215,54L215,52L216,51L217,52L218,52L219,51L220,52L223,53L224,54L225,53L226,53L229,52L229,51L232,45L234,46L244,42L252,32L252,28L252,22L253,9L252,8L251,7L250,7L250,6L249,5L248,5L248,3L247,3L245,3L238,3L236,3L235,3L234,3L234,4L233,6L232,8L231,9L231,11L230,12L230,11L229,10L229,9L228,8L228,7L228,6L227,5L226,5L225,4L223,4L221,4L220,5L220,6L219,8L219,9L219,10L220,10L220,13L220,14L222,14L223,15L223,16L222,17L223,18L224,20L225,21L226,20L227,20L228,21L229,22L230,21L231,21L232,29L231,30L231,31L230,31L229,32L228,33L227,34L225,32L224,34L222,33L221,32L220,32L219,32L218,32L217,31L215,29L214,28L214,27L213,26L212,26L211,25L212,24L212,23L212,22L211,20L210,20L209,19L208,19L207,20L207,22L208,23L208,24L208,25L208,26L208,27L207,28L207,29L206,29L204,29L204,28L202,27L201,26L201,26L200,25L199,24L198,23L198,23L197,27L196,27L195,28L190,30L187,32L185,33L185,34L184,35L184,37L185,38L185,39L185,40L186,41L185,41L192,42L205,42L206,43L207,44L206,45L206,46L205,47L204,47L203,48L203,49L204,51L205,52L206,53L206,54L207,55L208,55Z " data-fips="AR17" data-hasc="AR.SA" data-name="Salta" data-postal="SA" data-varname=""/><path d="M254,95L255,92L256,86L257,79L258,75L258,73L258,61L258,54L258,53L258,48L258,47L234,46L232,45L229,51L229,52L228,54L228,56L228,57L228,58L227,59L227,60L226,61L225,63L225,64L224,65L223,67L223,67L222,68L223,69L222,70L222,72L222,73L221,73L222,78L222,80L222,81L221,81L221,83L222,85L222,90L223,91L223,92L224,93L227,92L229,92L230,92L233,92L234,94L235,94L236,94L237,94L238,95L239,95L246,96L249,96L251,96Z " data-fips="AR22" data-hasc="AR.SE" data-name="Santiago del Estero" data-postal="SE" data-varname=""/><path d="M217,74L218,73L219,73L220,73L221,73L222,73L222,72L222,70L223,69L222,68L223,67L223,67L224,65L225,64L225,63L226,61L227,60L227,59L228,58L228,57L228,56L228,54L226,53L225,53L224,54L223,53L220,52L219,51L218,52L217,52L216,51L215,52L215,54L211,55L210,56L210,57L211,57L213,59L214,59L213,60L213,61L212,63L211,64L211,65L210,66L211,67L212,67L213,69L213,70L214,71L214,72L215,73L216,74L217,75Z " data-fips="AR24" data-hasc="AR.TM" data-name="Tucumn" data-postal="TM" data-varname="Tucumo"/><path d="M288,75L289,74L289,72L288,71L288,70L289,69L290,69L291,68L291,67L291,66L292,66L293,65L293,64L294,63L294,63L293,62L292,61L291,60L290,60L289,59L289,58L288,57L287,56L286,56L285,56L284,56L283,55L283,54L282,54L281,53L280,52L279,51L278,50L277,49L276,48L275,48L275,47L275,46L274,45L273,44L272,43L272,42L271,42L270,41L269,40L268,39L266,38L266,37L265,36L264,35L263,35L262,35L261,34L261,33L260,33L259,31L258,31L257,30L256,30L255,29L252,28L252,32L244,42L258,47L258,48L258,53L258,54L258,61L258,73L258,75L268,75L276,76L280,76L288,76Z " data-fips="AR03" data-hasc="AR.CC" data-name="Chaco" data-postal="CC" data-varname="El Chaco|Presidente Juan Pern"/><path d="M294,63L295,62L296,61L296,60L296,59L296,58L297,56L297,55L298,55L299,54L300,53L300,52L301,51L302,50L302,49L303,49L304,48L304,47L303,46L302,44L301,43L301,42L299,42L298,41L297,40L296,40L294,39L292,38L291,38L288,36L287,36L286,35L285,34L285,33L284,33L283,32L282,32L282,31L277,28L276,28L274,28L273,27L272,27L271,26L270,26L269,26L267,25L267,24L266,23L266,22L265,22L264,21L263,20L262,20L261,19L260,18L259,18L259,17L258,16L257,15L256,14L255,13L255,12L254,11L254,10L253,9L253,9L252,22L252,28L255,29L256,30L257,30L258,31L259,31L260,33L261,33L261,34L262,35L263,35L264,35L265,36L266,37L266,38L268,39L269,40L270,41L271,42L272,42L272,43L273,44L274,45L275,46L275,47L275,48L276,48L277,49L278,50L279,51L280,52L281,53L282,54L283,54L283,55L284,56L285,56L286,56L287,56L288,57L289,58L289,59L290,60L291,60L292,61L293,62L294,63L294,63Z " data-fips="AR09" data-hasc="AR.FM" data-name="Formosa" data-postal="FM" data-varname=""/><path d="M297,110L296,108L297,107L299,105L300,104L301,103L302,102L303,101L303,100L304,99L305,99L306,98L307,97L308,96L309,96L309,95L310,94L310,93L311,92L312,91L313,91L313,90L314,89L315,88L316,88L317,86L318,86L318,85L319,84L319,83L320,83L321,84L321,83L321,82L322,81L322,81L321,79L321,78L320,77L320,75L319,72L319,71L319,71L318,70L317,71L316,71L316,72L315,73L314,73L313,72L312,72L311,72L310,71L309,71L307,72L306,71L305,71L304,70L303,70L301,69L300,69L299,69L298,68L296,68L295,68L292,68L291,68L290,69L289,69L288,70L288,71L289,72L289,74L288,75L288,76L288,77L287,78L286,78L286,80L286,81L285,83L285,84L285,85L284,86L284,87L284,89L283,89L282,90L281,90L280,91L280,93L279,95L279,97L278,98L279,99L279,101L279,102L278,103L279,104L280,104L282,104L283,104L284,103L285,103L286,103L288,103L289,102L290,103L291,103L293,104L294,105L295,106L295,107L295,108L297,110Z " data-fips="AR06" data-hasc="AR.CN" data-name="Corrientes" data-postal="CN" data-varname=""/><path d="M287,149L288,149L288,149L288,147L287,146L287,145L287,143L288,142L288,141L289,140L289,139L289,138L291,138L292,137L292,136L292,135L291,133L291,131L292,130L293,128L292,126L293,125L292,124L293,123L294,123L294,121L294,119L294,118L295,118L295,117L296,116L296,115L296,113L296,112L297,112L297,110L295,108L295,107L295,106L294,105L293,104L291,103L290,103L289,102L288,103L286,103L285,103L284,103L283,104L282,104L280,104L279,104L278,105L278,106L278,108L278,109L277,110L276,111L275,112L275,113L273,115L273,117L272,118L271,118L270,119L269,120L267,120L267,121L267,122L267,123L267,125L266,126L266,127L266,128L266,129L266,131L266,132L266,134L267,135L267,136L268,137L269,138L270,139L272,141L273,142L274,142L275,143L276,144L278,144L278,145L280,145L280,146L282,146L283,147L284,148L286,149Z " data-fips="AR08" data-hasc="AR.ER" data-name="Entre Ros" data-postal="ER" data-varname="Entre-Rios"/><path d="M259,148L261,146L263,144L263,142L265,142L266,143L267,143L268,143L268,142L269,141L269,140L270,140L270,139L269,138L268,137L267,136L267,135L266,134L266,132L266,131L266,129L266,128L266,127L266,126L267,125L267,123L267,122L267,121L267,120L269,120L270,119L271,118L272,118L273,117L273,115L275,113L275,112L276,111L277,110L278,109L278,108L278,106L278,105L278,103L279,102L279,101L279,99L278,98L279,97L279,95L280,93L280,91L281,90L282,90L283,89L284,89L284,87L284,86L285,85L285,84L285,83L286,81L286,80L286,78L287,78L288,77L288,76L280,76L276,76L268,75L258,75L257,79L256,86L255,92L254,95L252,104L255,107L255,109L252,118L252,119L251,120L251,121L251,122L251,123L251,125L252,126L253,127L254,128L254,129L254,130L255,131L255,132L256,133L255,135L255,136L254,136L251,140L248,145L244,151L250,152L255,152Z " data-fips="AR21" data-hasc="AR.SF" data-name="Santa Fe" data-postal="SF" data-varname="Santa F"/><path d="M323,81L324,80L325,79L326,79L327,78L328,78L329,78L328,77L329,77L330,76L331,75L331,74L332,75L333,74L335,74L336,73L336,74L337,73L338,73L339,72L339,72L341,71L342,71L343,70L343,69L344,68L344,66L344,65L344,64L344,63L344,62L345,61L345,59L344,58L344,57L344,56L344,55L344,53L343,53L342,52L341,51L341,51L340,52L339,51L338,52L337,52L337,52L336,51L335,52L336,54L335,55L335,56L335,57L335,58L334,59L334,60L333,62L333,63L332,64L331,64L331,65L330,65L329,66L328,67L327,67L326,67L325,68L324,68L324,69L324,70L323,71L322,72L322,72L320,72L319,71L319,72L320,75L320,77L321,78L321,79L322,81L322,81Z " data-fips="AR14" data-hasc="AR.MN" data-name="Misiones" data-postal="MN" data-varname="Misses"/></g></svg>