<?xml version="1.0" ?><!DOCTYPE svg  PUBLIC '-//W3C//DTD SVG 1.1//EN'  'http://www.w3.org/Graphics/SVG/1.1/DTD/svg11.dtd'><svg enable_background="new 0 0 500 401" height="401px" style="stroke-linejoin: round; stroke:#000; fill:#f6f3f0;" version="1.1" viewBox="0 0 500 401" width="500px" xmlns="http://www.w3.org/2000/svg" xmlns:xlink="http://www.w3.org/1999/xlink"><defs><style type="text/css"><![CDATA[path { fill-rule: evenodd; }
#context path { fill: #eee; stroke: #bbb; } ]]></style></defs><metadata><views><view h="401" padding="0" w="500"><proj id="laea" lat0="-16.715" lon0="-64.671"/><bbox h="163.28" w="143.91" x="940.49" y="913.24"/><llbbox lat0="-90" lat1="90" lon0="-180" lon1="180"/></view></views></metadata><g id="admin1"><path d="M225,271L227,269L228,269L229,271L230,270L230,268L230,267L230,266L229,265L228,264L227,264L226,263L226,261L226,260L225,259L225,258L224,256L223,255L222,254L221,253L220,250L219,249L219,247L220,246L223,243L227,236L228,234L229,233L230,233L231,233L232,233L233,232L232,231L232,230L231,229L228,226L227,225L226,225L224,223L222,221L220,220L217,217L217,214L216,213L216,212L216,211L217,208L216,207L217,206L218,205L218,204L219,202L219,201L219,199L219,198L219,197L220,196L220,195L220,194L219,192L219,190L219,189L218,188L219,188L219,187L219,186L216,186L205,188L204,188L203,191L202,193L202,194L200,199L200,200L197,202L186,205L184,205L181,204L179,203L178,203L174,200L169,195L168,193L167,192L166,190L158,182L156,184L155,185L154,187L154,188L154,189L154,190L154,193L155,195L156,196L156,197L157,198L158,199L158,203L158,205L158,206L159,209L159,211L159,213L159,214L158,215L157,215L154,216L154,217L153,218L153,219L153,220L152,221L152,222L153,223L154,224L155,225L155,226L156,228L156,230L156,231L157,232L156,234L157,235L157,236L153,238L158,242L160,244L162,247L164,251L165,250L167,250L168,251L169,250L172,250L174,249L176,247L178,247L179,247L180,247L181,247L182,249L183,249L183,250L185,250L186,251L188,252L190,253L191,254L192,255L193,256L194,257L195,258L196,259L197,261L198,262L199,263L200,264L200,264L201,264L202,266L203,266L203,267L203,269L204,269L205,269L206,270L208,271L209,270L209,268L210,268L211,267L213,266L215,265L216,266L217,267L219,267L220,268L221,269L222,270L223,271Z " data-fips="BL02" data-hasc="BO.CB" data-name="Cochabamba" data-postal="CB" data-varname=""/><path d="M204,356L205,349L205,347L205,346L206,340L207,340L208,340L209,341L211,341L212,342L213,342L213,343L214,344L215,344L217,343L217,342L217,341L218,340L219,339L220,340L221,340L222,341L222,342L224,344L225,344L226,344L227,345L229,345L231,345L232,345L233,345L233,344L233,342L233,341L233,340L234,338L235,338L236,339L237,340L238,339L238,341L240,341L242,341L287,342L287,328L288,327L289,326L258,325L257,323L256,322L256,323L255,323L253,324L252,325L251,325L248,325L248,323L247,311L246,310L245,289L245,287L246,282L243,282L242,282L242,283L241,286L240,286L239,286L238,285L237,281L236,280L235,279L233,279L233,278L232,277L231,276L231,275L230,274L230,273L230,272L229,271L228,269L227,269L225,271L223,271L222,270L221,269L220,268L219,267L217,267L216,266L215,265L213,266L211,267L210,268L209,268L209,270L208,271L206,270L205,269L204,269L203,269L203,267L203,266L202,266L201,264L200,264L200,264L199,264L198,263L195,263L194,263L193,262L192,262L191,262L190,262L191,263L191,264L192,265L192,267L192,268L192,272L192,273L192,273L196,272L197,271L198,272L198,273L197,274L196,275L196,276L197,277L197,278L196,279L195,280L195,282L196,284L197,285L197,286L199,287L200,289L201,290L202,290L203,291L204,291L206,292L207,292L208,292L211,291L213,292L213,293L214,295L214,296L214,297L214,298L217,301L217,302L217,303L216,305L214,307L208,310L205,311L204,311L203,312L202,312L201,313L201,314L200,316L200,317L200,319L202,327L200,333L199,335L198,336L198,340L197,345L197,346L197,350L197,351L201,356L204,357Z " data-fips="BL01" data-hasc="BO.CQ" data-name="Chuquisaca" data-postal="CQ" data-varname=""/><path d="M197,202L200,200L200,199L202,194L202,193L203,191L204,188L205,188L216,186L219,186L258,188L257,187L256,186L255,185L255,183L254,182L253,181L252,180L251,180L250,179L248,177L248,176L247,175L246,174L243,169L242,166L241,164L241,163L241,162L241,160L241,159L241,155L240,152L242,152L252,149L268,140L294,125L310,116L310,116L307,116L306,117L305,117L303,117L302,117L301,114L301,114L299,112L298,111L297,110L295,108L295,107L294,105L293,105L292,104L290,105L288,105L287,104L285,104L285,103L284,102L282,102L279,101L279,100L278,99L276,100L275,101L274,100L274,99L273,98L271,96L270,96L269,95L269,94L268,93L267,92L267,91L267,90L266,89L265,89L264,90L263,90L261,91L259,91L258,90L257,90L256,88L255,88L254,87L253,87L252,86L251,85L249,84L245,84L243,84L242,86L241,86L240,86L239,86L238,85L236,85L235,85L234,84L232,84L231,85L230,84L229,84L228,84L227,83L226,81L225,81L226,79L225,77L224,77L223,76L222,76L220,76L219,75L219,74L218,73L218,74L218,73L216,72L216,71L215,70L213,70L212,70L211,70L210,69L209,68L210,67L209,67L209,66L209,64L208,63L208,62L207,62L207,61L206,61L205,63L204,63L204,62L204,61L204,60L205,58L204,57L203,57L203,55L202,55L201,55L200,54L199,51L200,50L199,49L198,48L199,47L199,46L198,45L199,44L200,42L200,41L200,40L201,39L201,38L200,35L199,34L198,34L198,32L198,31L198,30L197,29L197,28L197,27L197,26L197,25L196,24L198,23L198,21L196,22L195,23L194,24L192,26L190,27L189,27L188,26L187,27L188,28L187,30L187,31L185,31L184,31L183,30L182,31L183,32L184,33L183,34L182,34L181,34L179,34L178,36L179,36L178,37L178,38L177,39L176,40L176,41L176,42L175,43L174,44L174,45L174,46L172,48L173,49L173,50L171,51L170,52L168,52L166,53L164,53L160,54L160,55L160,56L159,58L159,60L158,61L157,61L156,61L156,62L155,62L154,63L154,64L154,65L153,66L152,66L152,68L153,68L154,69L154,71L154,72L154,73L154,75L154,77L154,78L153,79L154,80L153,82L153,83L153,86L153,87L152,88L152,89L153,90L151,97L149,101L148,102L146,104L145,104L145,105L143,108L141,110L140,112L140,113L140,114L141,117L140,118L139,120L139,121L138,122L137,123L137,124L137,126L136,127L136,131L136,133L137,135L136,137L137,138L136,139L135,141L135,142L136,143L136,144L137,146L137,147L136,148L136,149L138,152L139,153L139,154L139,155L139,156L139,158L139,159L140,160L141,161L142,161L143,161L144,162L144,163L145,164L146,165L147,166L149,170L149,172L149,173L151,174L151,175L157,180L158,182L166,190L167,192L168,193L169,195L174,200L178,203L179,203L181,204L184,205L186,205Z " data-fips="BL03" data-hasc="BO.EB" data-name="El Beni" data-postal="EB" data-varname=""/><path d="M93,253L95,252L99,251L101,250L103,248L104,247L107,244L108,242L111,241L115,241L120,241L122,242L124,243L130,247L131,247L132,246L131,245L131,244L132,243L137,239L141,237L145,234L149,233L150,234L151,235L151,236L152,237L153,238L157,236L157,235L156,234L157,232L156,231L156,230L156,228L155,226L155,225L154,224L153,223L152,222L152,221L153,220L153,219L153,218L154,217L154,216L157,215L158,215L159,214L159,213L159,211L159,209L158,206L158,205L158,203L158,199L157,198L156,197L156,196L155,195L154,193L154,190L154,189L154,188L154,187L155,185L156,184L158,182L157,180L151,175L151,174L149,173L149,172L149,170L147,166L146,165L145,164L144,163L144,162L143,161L142,161L141,161L140,160L139,159L139,158L139,156L139,155L139,154L139,153L138,152L136,149L136,148L137,147L137,146L136,144L136,143L135,142L135,141L136,139L137,138L136,137L137,135L136,133L136,131L136,127L137,126L137,124L137,123L138,122L139,121L139,120L140,118L141,117L140,114L140,113L140,112L141,110L143,108L145,105L145,104L146,104L148,102L149,101L151,97L153,90L152,89L152,88L153,87L153,86L153,83L153,82L123,68L122,69L121,70L119,70L118,71L116,71L115,72L114,74L114,75L113,76L110,78L109,79L108,83L107,84L106,84L105,83L104,84L103,85L103,86L101,86L101,87L101,88L100,88L98,89L98,90L100,91L99,93L96,93L95,94L94,95L94,97L93,98L93,99L93,103L93,106L93,107L94,110L93,116L93,117L93,118L92,120L92,121L91,121L90,121L90,122L92,124L92,126L93,128L93,129L93,130L94,131L95,132L96,133L96,134L97,136L96,138L94,138L93,139L93,140L93,141L93,142L93,143L90,145L89,146L88,147L88,149L87,149L86,150L86,153L85,155L83,155L83,156L83,159L82,160L82,161L83,162L86,165L88,167L89,169L89,170L88,170L87,171L86,172L85,173L85,174L84,175L84,176L83,177L82,180L82,182L88,197L89,198L91,199L92,199L93,198L94,198L95,198L97,200L98,200L99,202L99,203L95,204L94,205L94,205L93,207L93,208L93,210L94,211L93,212L91,213L90,214L89,214L88,217L85,220L84,222L83,223L83,224L82,225L80,226L79,226L78,228L77,229L76,231L78,231L80,233L80,234L80,235L80,238L81,240L81,241L82,242L84,244L85,245L86,246L86,248L86,250L86,251L87,251L89,252L90,252L91,253L92,253L93,253Z " data-fips="BL04" data-hasc="BO.LP" data-name="La Paz" data-postal="LP" data-varname=""/><path d="M138,305L147,301L155,297L161,295L162,294L164,292L168,289L169,288L175,288L180,287L181,286L180,285L178,283L177,281L175,279L174,274L173,274L172,273L170,273L166,272L164,270L163,269L162,267L162,265L162,263L163,261L164,261L165,260L166,258L164,258L163,258L162,258L161,258L160,257L160,256L160,253L163,252L164,251L162,247L160,244L158,242L153,238L152,237L151,236L151,235L150,234L149,233L145,234L141,237L137,239L132,243L131,244L131,245L132,246L131,247L130,247L124,243L122,242L120,241L115,241L111,241L108,242L107,244L104,247L103,248L101,250L99,251L95,252L93,253L93,253L93,253L93,255L92,256L91,256L92,258L93,259L93,261L93,262L94,264L95,266L95,267L95,269L95,270L95,272L96,273L96,275L97,278L97,279L96,281L97,281L98,282L99,285L101,285L101,286L105,289L107,291L108,291L111,294L112,295L110,296L110,297L109,299L109,299L117,302L130,306L133,306L134,306Z " data-fips="BL05" data-hasc="BO.OR" data-name="Oruro" data-postal="OR" data-varname=""/><path d="M103,85L104,84L105,83L106,84L107,84L108,83L109,79L110,78L113,76L114,75L114,74L115,72L116,71L118,71L119,70L121,70L122,69L123,68L153,82L154,80L153,79L154,78L154,77L154,75L154,73L154,72L154,71L154,69L153,68L152,68L152,66L153,66L154,65L154,64L154,63L155,62L156,62L156,61L157,61L158,61L159,60L159,58L160,56L160,55L160,54L164,53L166,53L168,52L170,52L171,51L173,50L173,49L172,48L174,46L174,45L174,44L175,43L176,42L176,41L176,40L177,39L178,38L178,37L179,36L178,36L179,34L181,34L182,34L183,34L184,33L183,32L182,31L183,30L184,31L185,31L187,31L187,30L188,28L187,27L188,26L189,27L190,27L192,26L194,24L195,23L196,22L198,21L198,21L199,20L200,18L201,17L201,16L201,15L201,13L200,11L200,10L200,9L200,7L201,6L201,4L200,3L199,2L199,1L197,0L196,1L194,2L194,3L193,4L192,5L191,4L189,3L188,3L188,2L187,3L186,2L186,3L185,2L184,3L182,3L181,3L179,4L177,3L176,4L174,4L172,5L169,5L168,6L167,6L165,6L161,7L160,8L157,10L153,13L148,18L147,19L145,19L144,20L143,19L141,20L140,21L140,21L138,22L138,22L137,23L136,24L135,25L133,25L132,26L131,27L130,28L130,30L130,31L129,31L127,32L126,31L125,30L120,30L120,30L119,31L117,32L116,34L114,36L113,39L112,40L111,41L109,41L107,42L106,42L105,43L103,44L98,45L98,43L98,41L97,41L95,41L94,41L93,41L91,41L89,40L88,40L87,40L84,40L83,40L82,40L80,39L78,40L76,40L74,40L75,41L101,86L103,86Z " data-fips="BL06" data-hasc="BO.PA" data-name="Pando" data-postal="PA" data-varname="colonial territories|madre de dios|territorio nacional de colonias"/><path d="M140,399L141,399L149,397L151,394L152,393L154,391L154,390L154,388L155,388L156,387L157,386L161,384L160,383L161,382L161,380L162,378L163,378L165,377L168,376L173,375L173,374L174,373L174,370L176,365L178,366L180,366L181,367L181,369L184,370L188,374L190,375L194,374L196,374L198,374L206,374L206,374L204,370L204,369L203,368L202,366L201,365L201,364L202,363L202,361L203,360L204,359L204,357L201,356L197,351L197,350L197,346L197,345L198,340L198,336L199,335L200,333L202,327L200,319L200,317L200,316L201,314L201,313L202,312L203,312L204,311L205,311L208,310L214,307L216,305L217,303L217,302L217,301L214,298L214,297L214,296L214,295L213,293L213,292L211,291L208,292L207,292L206,292L204,291L203,291L202,290L201,290L200,289L199,287L197,286L197,285L196,284L195,282L195,280L196,279L197,278L197,277L196,276L196,275L197,274L198,273L198,272L197,271L196,272L192,273L192,273L192,272L192,268L192,267L192,265L191,264L191,263L190,262L191,262L192,262L193,262L194,263L195,263L198,263L199,264L200,264L199,263L198,262L197,261L196,259L195,258L194,257L193,256L192,255L191,254L190,253L188,252L186,251L185,250L183,250L183,249L182,249L181,247L180,247L179,247L178,247L176,247L174,249L172,250L169,250L168,251L167,250L165,250L164,251L163,252L160,253L160,256L160,257L161,258L162,258L163,258L164,258L166,258L165,260L164,261L163,261L162,263L162,265L162,267L163,269L164,270L166,272L170,273L172,273L173,274L174,274L175,279L177,281L178,283L180,285L181,286L180,287L175,288L169,288L168,289L164,292L162,294L161,295L155,297L147,301L138,305L134,306L133,306L130,306L117,302L109,299L109,299L107,302L105,303L105,305L107,306L108,307L109,308L110,309L110,310L109,312L109,313L108,314L107,314L103,315L103,316L105,317L105,318L105,319L105,320L106,322L104,323L104,325L104,326L105,327L106,328L109,329L111,330L112,332L110,333L109,335L110,338L111,340L112,341L113,340L114,341L120,351L121,352L121,359L121,360L123,364L123,366L124,371L125,372L126,374L127,375L128,376L127,377L128,378L128,380L128,382L128,383L130,385L130,387L131,389L130,394L130,396L130,397L132,397L132,398L133,399L138,399Z " data-fips="BL07" data-hasc="BO.PO" data-name="Potos" data-postal="PO" data-varname=""/><path d="M295,318L297,315L298,312L303,301L309,300L352,291L379,292L381,293L404,310L404,312L404,313L404,315L404,317L404,319L405,319L406,318L407,318L408,316L409,316L410,315L411,315L412,315L413,314L405,306L409,299L416,286L418,286L418,285L417,282L416,282L423,262L424,262L426,261L425,261L423,260L423,258L421,254L420,250L419,248L419,247L418,246L417,245L417,244L417,242L417,241L417,240L415,239L414,240L413,240L411,239L409,238L408,237L407,236L406,235L405,233L404,233L403,232L402,232L401,232L400,231L400,229L400,226L399,225L399,222L399,221L399,220L399,219L399,217L398,215L398,214L399,213L399,212L402,209L402,208L402,206L403,205L402,202L401,202L400,203L399,203L350,200L350,199L349,192L348,177L348,175L340,166L339,164L348,164L347,150L346,149L346,148L346,146L345,144L344,142L343,140L342,139L343,137L342,136L342,135L343,134L344,133L345,132L345,131L344,130L343,129L343,127L343,126L342,125L339,124L338,123L337,123L335,121L333,119L331,118L329,117L328,117L326,116L326,115L325,115L324,115L323,117L321,116L320,117L319,116L317,116L315,117L314,117L312,117L311,117L310,116L294,125L268,140L252,149L242,152L240,152L241,155L241,159L241,160L241,162L241,163L241,164L242,166L243,169L246,174L247,175L248,176L248,177L250,179L251,180L252,180L253,181L254,182L255,183L255,185L256,186L257,187L258,188L219,187L219,188L218,188L219,189L219,190L219,192L220,194L220,195L220,196L219,197L219,198L219,199L219,201L219,202L218,204L218,205L217,206L216,207L217,208L216,211L216,212L216,213L217,214L217,217L220,220L222,221L224,223L226,225L227,225L228,226L231,229L232,230L232,231L233,232L232,233L231,233L230,233L229,233L228,234L227,236L223,243L220,246L219,247L219,249L220,250L221,253L222,254L223,255L224,256L225,258L225,259L226,260L226,261L226,263L227,264L228,264L229,265L230,266L230,267L230,268L230,270L229,271L230,272L230,273L230,274L231,275L231,276L232,277L233,278L233,279L235,279L236,280L237,281L238,285L239,286L240,286L241,286L242,283L242,282L243,282L246,282L245,287L245,289L246,310L247,311L248,323L248,325L251,325L252,325L253,324L255,323L256,323L256,322L257,323L258,325L289,326Z " data-fips="BL08" data-hasc="BO.SC" data-name="Santa Cruz" data-postal="SC" data-varname=""/><path d="M230,394L230,392L232,387L233,386L234,385L236,379L237,378L238,376L238,374L239,374L239,373L240,372L241,371L244,372L246,373L247,371L248,371L266,372L270,371L272,372L272,374L272,375L273,376L274,377L275,377L276,379L277,377L278,372L283,357L287,344L287,342L242,341L240,341L238,341L238,339L237,340L236,339L235,338L234,338L233,340L233,341L233,342L233,344L233,345L232,345L231,345L229,345L227,345L226,344L225,344L224,344L222,342L222,341L221,340L220,340L219,339L218,340L217,341L217,342L217,343L215,344L214,344L213,343L213,342L212,342L211,341L209,341L208,340L207,340L206,340L205,346L205,347L205,349L204,356L204,357L204,359L203,360L202,361L202,363L201,364L201,365L202,366L203,368L204,369L204,370L206,374L206,374L210,374L215,375L217,377L218,377L219,377L220,377L222,378L223,379L223,380L223,381L223,382L224,383L223,384L224,385L225,386L226,388L226,389L226,390L226,391L227,393L228,393L228,395L229,396L229,397Z " data-fips="BL09" data-hasc="BO.TR" data-name="Tarija" data-postal="TR" data-varname=""/></g></svg>