<?xml version="1.0" ?><!DOCTYPE svg  PUBLIC '-//W3C//DTD SVG 1.1//EN'  'http://www.w3.org/Graphics/SVG/1.1/DTD/svg11.dtd'><svg enable_background="new 0 0 500 401" height="401px" style="stroke-linejoin: round; stroke:#000; fill:#f6f3f0;" version="1.1" viewBox="0 0 500 401" width="500px" xmlns="http://www.w3.org/2000/svg" xmlns:xlink="http://www.w3.org/1999/xlink"><defs><style type="text/css"><![CDATA[path { fill-rule: evenodd; }
#context path { fill: #eee; stroke: #bbb; } ]]></style></defs><metadata><views><view h="401" padding="0" w="500"><proj id="laea" lat0="-10.772" lon0="-53.089"/><bbox h="478.25" w="547.0" x="745.36" y="803.34"/><llbbox lat0="-90" lat1="90" lon0="-180" lon1="180"/></view></views></metadata><g id="admin1"><path d="M62,172L64,170L66,170L67,171L68,170L69,170L70,170L72,170L73,170L74,171L75,171L76,171L77,172L78,171L79,171L80,170L81,170L82,169L83,167L84,167L85,167L86,167L87,166L88,165L88,164L89,164L90,163L91,163L92,162L93,162L95,160L96,159L97,158L97,158L95,158L65,145L59,142L35,137L24,133L24,133L24,133L24,134L24,135L23,136L22,136L22,137L22,138L24,140L25,140L24,141L25,142L26,143L26,144L27,145L27,146L29,147L29,148L30,149L31,149L31,150L32,151L33,152L33,154L32,155L32,156L31,157L35,156L37,157L38,157L39,157L40,157L40,158L41,159L41,160L42,161L42,162L50,161L51,161L52,160L53,159L54,158L55,157L56,157L57,156L58,156L57,157L58,158L58,159L57,160L58,172L59,171L60,172L61,172Z " data-fips="BR01" data-hasc="BR." data-name="Acre" data-postal="R." data-varname=""/><path d="M97,157L98,156L99,155L100,154L100,153L101,153L102,153L103,153L104,153L106,154L107,154L107,153L108,153L109,152L110,152L111,151L112,152L112,153L113,152L114,151L114,150L114,149L115,148L116,148L118,148L119,147L120,147L121,147L122,147L122,146L122,145L123,145L124,144L124,143L123,142L124,141L125,141L126,140L127,139L127,138L128,137L135,137L136,138L137,139L137,139L138,140L139,141L140,141L140,142L141,143L142,143L142,144L143,145L144,146L145,145L146,144L147,144L148,145L179,143L180,142L180,141L180,140L180,139L181,138L181,137L181,136L180,135L180,134L181,133L182,132L182,131L182,130L183,129L182,128L182,127L181,126L180,125L180,125L179,123L180,122L181,120L196,86L200,78L200,77L199,77L199,76L197,76L196,76L197,75L196,74L195,74L194,73L193,72L192,72L191,71L190,71L189,71L188,70L187,70L186,69L186,69L184,68L184,67L182,67L182,66L180,65L179,64L179,63L178,62L177,62L176,60L176,59L176,58L175,58L175,57L175,55L174,51L165,52L162,52L161,53L161,55L160,56L160,56L159,58L159,59L159,60L160,61L159,61L158,62L157,63L156,63L155,62L155,61L154,61L153,60L152,59L151,59L150,60L149,60L148,61L147,62L147,63L147,64L147,65L147,66L146,68L146,69L145,68L144,68L142,67L141,66L140,65L139,64L138,63L137,63L137,62L139,62L139,61L138,59L138,58L138,57L137,56L137,55L137,54L136,53L137,51L137,50L137,49L137,47L137,46L137,45L137,43L136,42L136,40L135,40L135,39L134,38L135,37L135,35L135,34L134,34L133,34L131,34L131,33L130,32L129,32L129,32L128,32L128,33L126,33L125,33L123,34L122,35L121,35L121,37L120,38L119,39L118,40L117,41L117,40L116,40L115,41L114,42L113,42L112,43L111,43L110,44L109,45L109,46L108,46L107,47L106,48L105,48L106,47L106,46L105,45L103,46L102,46L101,47L100,47L99,48L98,48L97,47L92,43L90,43L90,39L89,37L88,35L87,34L85,34L84,35L84,36L82,38L81,38L80,37L79,36L78,35L78,38L79,38L66,39L65,39L64,38L62,39L61,40L62,46L63,46L64,46L65,46L66,46L67,46L68,47L68,48L68,49L69,50L68,50L66,50L65,49L64,50L63,50L62,51L60,51L59,51L59,58L60,59L61,60L62,61L63,62L64,62L64,63L64,64L65,65L65,66L66,67L66,68L66,69L66,70L66,71L66,73L61,101L60,102L60,101L59,102L58,101L57,100L56,100L55,101L54,101L52,101L52,102L51,103L50,103L49,103L48,103L47,104L46,104L45,104L44,104L43,105L42,105L41,106L40,106L39,107L38,108L37,108L36,109L35,110L34,111L33,111L32,111L32,112L32,114L31,115L31,116L31,118L30,120L29,121L29,122L30,123L30,125L30,126L29,127L28,127L27,128L26,129L25,130L24,131L24,133L24,133L35,137L59,142L65,145L95,158Z " data-fips="BR04" data-hasc="BR.AM" data-name="Amazonas" data-postal="AM" data-varname="Amazone"/><path d="M307,160L307,159L308,157L307,156L308,155L308,154L308,152L308,151L308,150L307,150L307,148L307,147L307,146L307,144L308,144L309,143L309,142L310,140L310,139L311,138L311,136L311,135L312,134L312,133L313,132L315,132L316,131L317,131L318,130L319,130L320,130L321,129L322,128L323,128L324,127L325,126L325,125L326,125L327,124L328,124L329,124L330,123L331,124L332,125L333,125L334,125L335,124L336,124L338,124L338,123L339,122L339,121L339,120L339,119L338,119L337,118L337,117L337,116L337,115L337,114L337,113L337,112L338,111L339,110L339,109L340,108L339,107L339,106L339,105L339,104L338,103L339,102L339,101L339,100L338,99L338,98L339,97L340,96L340,95L341,94L341,93L342,92L343,91L343,90L344,90L345,90L346,90L347,88L349,88L350,87L350,86L350,85L350,83L350,83L348,83L349,84L348,84L347,84L346,83L345,83L343,83L342,82L342,81L340,81L339,80L338,80L337,79L336,79L334,79L334,80L333,81L332,81L331,81L331,80L330,81L329,82L328,81L327,82L327,83L326,83L324,83L325,82L326,82L327,81L327,80L327,79L325,80L324,81L324,82L324,83L324,84L323,85L322,86L321,87L320,87L320,88L320,87L321,86L321,85L321,84L321,83L322,82L322,81L323,80L323,79L324,79L324,78L324,77L323,76L322,77L321,78L321,79L321,78L320,77L321,77L322,76L323,75L323,74L322,73L321,73L321,72L321,73L320,73L321,72L320,71L319,70L319,71L319,70L319,69L318,70L317,71L318,69L317,69L316,70L315,71L315,72L314,71L314,70L314,69L314,68L313,69L313,70L313,69L313,68L312,68L311,67L311,68L310,67L310,66L310,67L309,68L308,67L308,66L307,66L308,65L307,66L307,66L306,67L306,68L305,69L305,71L305,72L304,72L305,73L305,74L304,76L304,77L303,78L303,79L303,80L302,81L301,81L300,82L301,83L301,84L301,85L300,86L299,87L299,88L298,88L297,89L297,90L297,91L296,92L296,94L295,95L294,96L293,97L293,98L292,99L292,100L291,100L290,101L289,101L284,105L280,108L281,108L281,107L282,107L283,107L285,108L287,107L288,108L288,109L289,109L290,110L291,110L292,111L292,113L292,114L292,115L292,117L293,118L292,119L292,120L292,121L292,122L291,124L292,125L291,126L291,126L290,127L289,128L290,129L291,128L292,129L291,130L292,131L293,132L293,133L294,134L295,135L296,136L296,137L297,136L298,136L299,135L301,135L302,136L302,137L301,138L301,139L301,140L300,140L298,141L298,142L297,143L297,144L297,145L296,146L296,147L297,147L298,148L298,150L299,151L299,151L301,152L300,153L299,154L300,155L301,156L301,157L302,158L303,159L304,159L306,160Z M323,85L323,83L322,82L322,83L322,84L322,85Z M319,67L318,67L318,68L318,68Z " data-fips="BR13" data-hasc="BR.MA" data-name="Maranho" data-postal="MA" data-varname="So Luz de Maranho"/><path d="M264,154L264,153L264,152L265,151L265,149L266,149L266,148L268,146L268,145L270,145L270,144L271,143L272,141L272,140L273,139L274,137L274,136L274,134L274,133L273,133L272,132L272,131L274,128L274,126L274,124L276,123L278,123L280,121L280,120L280,120L281,119L283,119L282,118L282,117L283,116L283,115L284,114L283,114L283,112L285,112L285,111L284,111L283,110L282,109L280,109L279,109L284,105L289,101L290,101L291,100L292,100L292,99L293,98L293,97L294,96L295,95L296,94L296,92L297,91L297,90L297,89L298,88L299,88L299,87L300,86L301,85L301,84L301,83L300,82L301,81L302,81L303,80L303,79L303,78L304,77L304,76L305,74L305,73L304,72L305,72L305,71L305,69L306,68L306,67L307,66L306,66L306,65L306,66L305,66L305,64L305,63L305,64L305,65L304,64L303,64L302,64L301,64L300,64L301,63L301,62L300,63L299,62L299,61L298,62L297,62L297,63L296,62L296,61L295,61L295,60L294,60L293,61L292,60L293,62L292,61L291,61L290,61L291,61L290,60L290,61L290,61L290,61L290,61L290,61L289,60L288,61L287,62L287,61L286,61L285,62L285,63L285,64L284,65L284,66L283,67L282,67L282,69L283,69L282,69L282,70L281,70L280,69L279,69L278,71L277,72L276,73L275,73L274,74L273,75L273,76L272,78L272,79L271,80L271,81L269,81L270,80L271,79L271,78L271,77L272,75L272,74L273,73L272,73L271,72L270,72L270,73L269,73L268,73L268,74L267,73L266,72L265,73L264,73L262,74L261,74L261,73L260,72L259,71L259,70L258,69L258,68L258,67L258,66L257,65L258,64L257,63L256,63L256,64L254,65L253,66L252,66L251,67L250,67L249,68L246,70L245,70L244,70L243,71L243,70L242,69L241,69L238,69L240,69L241,68L242,68L243,67L244,67L246,68L246,67L246,65L246,65L245,65L244,65L243,65L242,64L241,63L241,62L240,62L240,61L240,60L239,59L239,58L239,57L238,56L237,55L236,55L235,53L235,52L235,51L234,50L234,49L234,48L234,47L234,46L232,45L232,45L231,44L231,43L230,41L231,40L230,40L229,39L228,39L228,39L227,39L226,39L225,38L224,38L223,37L222,36L222,36L220,35L219,35L218,35L217,35L217,34L217,33L217,32L217,31L217,30L217,29L217,28L216,28L215,27L215,27L214,27L213,27L211,28L210,28L209,28L208,29L206,28L205,28L204,28L204,29L203,29L203,30L204,31L204,32L205,33L205,34L204,35L203,34L201,34L200,34L199,34L198,34L197,34L196,34L194,34L193,34L192,33L191,34L190,33L189,34L189,35L188,36L187,36L186,36L185,36L184,37L183,38L182,38L181,38L180,38L179,39L178,39L178,40L177,41L176,41L175,42L174,41L173,40L173,40L174,51L175,55L175,57L175,58L176,58L176,59L176,60L177,62L178,62L179,63L179,64L180,65L182,66L182,67L184,67L184,68L186,69L186,69L187,70L188,70L189,71L190,71L191,71L192,72L193,72L194,73L195,74L196,74L197,75L196,76L197,76L199,76L199,77L200,77L200,78L196,86L181,120L180,122L179,123L180,125L180,125L181,126L182,127L182,128L183,129L184,130L185,132L185,133L186,134L186,135L186,136L187,137L188,138L188,139L188,141L188,142L188,143L189,144L190,144L191,145L191,146L193,146L194,147L194,149L195,149L196,149L197,150L198,150L199,150L200,151L214,152L252,154L263,155Z M273,73L274,72L273,71L272,72L273,73Z M269,71L269,70L269,71L270,72L271,71L271,70L271,69L272,69L273,69L274,70L274,69L275,68L275,69L276,69L277,69L278,68L277,67L279,67L278,66L278,65L279,66L279,65L280,64L281,63L281,63L281,62L282,61L282,60L282,58L283,57L282,56L281,56L280,56L278,56L277,56L277,55L275,55L274,55L273,55L272,56L271,56L270,56L268,55L265,55L263,55L262,55L261,55L260,56L259,56L259,58L259,59L259,60L260,60L259,60L259,59L258,60L258,61L258,62L258,63L259,65L260,64L261,65L260,66L259,65L258,65L258,66L258,67L258,68L258,69L260,71L260,72L263,72L263,71L263,70L263,69L264,70L264,71L265,71L266,70L266,71L267,72L268,72Z M284,66L283,65L282,65L282,66L284,66Z M285,64L285,63L285,62L284,63L284,64L285,64Z M257,61L258,61L258,59L257,59L256,60L255,61L256,61Z M248,68L249,67L250,67L252,65L253,63L254,62L254,60L254,59L253,59L252,60L252,59L251,60L250,61L249,61L249,62L249,64L248,65L248,66L247,67L246,68L247,68Z M253,57L254,56L254,55L253,56L252,57L252,58Z M258,56L259,55L260,54L259,53L258,54L256,54L256,55L256,56L257,57Z M268,53L269,52L269,51L268,51L267,50L266,51L265,51L263,51L262,51L263,53L263,53L264,53L266,53L267,54Z M272,55L273,54L273,53L272,53L271,53L270,53L269,53L268,55L269,55Z M262,53L262,53L262,52L260,51L260,52L260,53L261,54Z M265,51L265,50L265,50L264,51Z M262,51L263,50L263,49L263,48L262,47L262,48L262,49L261,52Z M265,50L266,47L265,47L264,47L263,48L263,49L263,50Z " data-fips="BR16" data-hasc="BR.PA" data-name="Par" data-postal="PA" data-varname=""/><path d="M159,194L161,193L161,192L162,190L162,189L162,188L163,187L164,187L165,186L165,185L166,184L166,181L166,180L166,179L165,178L165,177L164,176L164,175L164,173L164,173L165,172L165,171L165,169L164,168L163,168L162,168L161,168L160,167L149,167L149,165L149,164L149,163L149,162L149,161L149,159L148,158L149,157L149,156L148,155L149,154L149,153L148,151L148,150L149,149L148,148L148,147L149,145L148,145L147,144L146,144L145,145L144,146L143,145L142,144L142,143L141,143L140,142L140,141L139,141L138,140L137,139L137,139L136,138L135,137L128,137L127,138L127,139L126,140L125,141L124,141L123,142L124,143L124,144L123,145L122,145L122,146L122,147L121,147L120,147L119,147L118,148L116,148L115,148L114,149L114,150L114,151L113,152L112,153L112,152L111,151L110,152L109,152L108,153L107,153L107,154L106,154L104,153L103,153L102,153L101,153L100,153L100,154L99,155L98,156L97,157L95,158L97,158L97,158L97,158L99,158L100,157L101,157L102,157L103,157L105,157L106,156L107,157L108,157L108,156L110,156L110,156L110,158L110,159L111,160L111,161L111,162L110,163L109,164L110,165L110,166L110,167L111,168L111,169L111,170L110,171L110,172L111,173L111,174L112,174L112,175L112,176L113,176L114,177L115,178L115,179L116,179L117,180L118,181L119,181L120,182L120,183L121,184L123,184L124,184L125,184L126,184L127,183L129,184L130,184L130,185L132,186L133,185L134,185L134,186L135,187L136,187L137,188L138,188L139,189L139,189L141,190L142,190L143,190L144,190L144,191L145,192L146,193L147,194L148,194L150,194L151,194L152,193L153,194L154,193L155,193L155,194L156,194L158,195Z " data-fips="BR24" data-hasc="BR." data-name="Rondnia" data-postal="R." data-varname="Guapor"/><path d="M279,190L279,189L280,189L282,189L284,188L284,189L285,189L286,190L287,191L289,191L288,189L289,189L289,190L290,190L291,190L293,190L295,188L297,188L298,188L299,187L301,186L302,186L303,185L304,184L303,182L302,182L302,181L303,178L304,177L305,177L304,176L303,176L303,175L304,174L305,173L303,173L301,172L300,171L300,170L301,169L301,168L303,167L304,166L303,165L304,164L305,163L306,163L307,162L308,161L308,160L308,160L306,160L304,159L303,159L302,158L301,157L301,156L300,155L299,154L300,153L301,152L299,151L299,151L298,150L298,148L297,147L296,147L296,146L297,145L297,144L297,143L298,142L298,141L300,140L301,140L301,139L301,138L302,137L302,136L301,135L299,135L298,136L297,136L296,137L296,136L295,135L294,134L293,133L293,132L292,131L291,130L292,129L291,128L290,129L289,128L290,127L291,126L291,126L292,125L291,124L292,122L292,121L292,120L292,119L293,118L292,117L292,115L292,114L292,113L292,111L291,110L290,110L289,109L288,109L288,108L287,107L285,108L283,107L282,107L281,107L281,108L279,108L279,109L280,109L282,109L283,110L284,111L285,111L285,112L283,112L283,114L284,114L283,115L283,116L282,117L282,118L283,119L281,119L280,120L280,120L280,121L278,123L276,123L274,124L274,126L274,128L272,131L272,132L273,133L274,133L274,134L274,136L274,137L273,139L272,140L272,141L271,143L270,144L270,145L268,145L268,146L266,148L266,149L265,149L265,151L264,152L264,153L264,154L263,155L263,155L263,156L262,157L262,158L261,160L261,161L260,162L260,163L260,164L259,165L259,166L259,167L259,168L258,170L258,171L258,172L259,173L258,174L259,175L259,176L258,177L259,179L259,180L259,181L259,182L259,183L259,184L259,185L260,186L261,185L261,184L261,183L262,182L263,182L264,182L263,183L263,184L263,185L263,186L265,187L266,188L268,189L270,189L272,190L272,189L272,187L274,185L275,185L276,185L277,186L277,187L278,188L277,190L278,191Z " data-fips="BR31" data-hasc="BR.TO" data-name="Tocantins" data-postal="TO" data-varname=""/><path d="M291,218L291,217L291,216L292,215L291,214L291,213L287,213L284,213L283,213L283,215L283,216L282,217L282,218L283,219L286,219L289,219Z " data-fips="BR07" data-hasc="BR.DF" data-name="Distrito Federal" data-postal="DF" data-varname=""/><path d="M224,300L225,299L225,298L225,296L226,294L227,294L228,292L229,291L229,290L230,289L231,288L233,287L234,286L235,285L236,284L237,283L238,283L239,282L240,282L241,281L241,280L242,279L242,278L243,277L244,277L244,276L244,275L245,274L245,273L246,272L246,271L247,270L248,269L248,268L248,266L249,265L250,264L251,263L252,262L253,262L254,261L255,260L254,259L254,258L255,256L255,255L255,254L254,253L253,252L252,252L251,251L250,250L249,250L248,250L246,249L245,248L244,248L242,247L241,247L240,246L239,246L237,246L236,245L237,244L237,242L236,242L235,242L235,241L235,239L234,239L233,239L232,238L230,239L229,238L228,238L227,238L226,237L226,236L227,235L228,235L228,234L228,233L228,231L227,232L225,233L224,234L223,235L222,235L221,235L221,234L220,233L218,234L217,234L216,235L215,235L214,235L212,234L211,234L210,233L209,232L208,232L207,232L207,231L205,230L204,230L203,231L202,231L202,232L200,232L198,232L197,232L197,233L196,234L196,235L195,237L193,237L191,238L190,237L190,236L189,236L189,236L189,237L190,239L190,240L191,241L190,241L189,249L188,250L186,254L185,257L188,259L187,260L186,261L185,261L186,262L186,263L187,264L187,265L187,266L188,267L188,268L188,269L189,270L189,271L188,272L188,273L188,274L188,275L188,277L188,278L188,279L187,280L187,281L188,281L189,281L191,281L191,282L193,282L194,282L195,282L196,282L197,282L198,282L199,282L200,282L201,282L201,281L203,281L203,282L205,283L207,283L208,283L209,284L209,285L210,286L210,287L210,288L210,289L210,290L211,291L211,293L211,294L211,295L211,296L212,297L212,300L214,300L215,300L216,300L217,300L218,299L220,298L221,299L222,300L223,301Z " data-fips="BR11" data-hasc="BR.MS" data-name="Mato Grosso do Sul" data-postal="MS" data-varname=""/><path d="M301,289L303,289L304,289L304,289L304,288L305,287L306,287L307,287L308,287L309,287L310,286L311,286L312,285L313,285L314,285L315,285L316,284L317,284L318,284L319,284L321,283L322,282L323,282L324,282L326,282L327,282L328,281L329,282L330,282L331,282L332,281L334,280L335,280L336,279L338,279L338,278L337,278L338,276L338,275L339,274L339,273L340,272L340,271L341,271L342,270L343,269L343,269L343,268L343,266L343,265L344,264L344,264L348,264L348,262L349,261L349,260L350,260L350,258L351,258L352,257L352,256L352,255L353,254L352,253L351,252L351,251L350,250L350,249L351,250L353,249L353,248L352,248L352,246L352,245L351,245L352,244L352,243L354,243L355,242L354,241L355,241L356,241L357,240L358,241L359,241L359,241L360,241L361,240L360,239L359,238L359,237L358,237L358,235L357,235L357,234L357,233L358,232L358,230L359,230L360,230L361,229L361,228L361,227L362,226L363,225L364,225L364,224L365,222L365,222L364,221L363,220L362,220L361,219L360,219L359,218L358,218L357,218L356,218L355,217L354,217L353,218L352,218L351,217L350,215L349,214L345,211L344,212L343,211L342,211L341,211L340,209L339,209L338,208L336,207L335,206L334,206L333,206L332,206L331,207L330,207L327,206L326,205L326,204L326,203L326,202L325,202L324,202L323,201L322,201L321,201L320,202L319,202L318,203L317,204L316,205L313,206L312,206L312,207L311,208L309,208L309,209L308,209L307,210L306,210L305,210L304,211L305,210L305,208L305,207L304,208L303,208L302,207L301,206L300,205L299,206L299,207L299,208L298,209L297,208L296,209L296,211L296,212L295,213L296,214L296,216L296,217L295,218L294,218L293,218L293,219L291,220L291,221L291,222L290,224L291,224L292,225L292,226L293,228L293,229L292,230L291,230L291,231L290,232L289,232L289,233L290,234L291,234L291,235L291,236L291,237L291,238L291,239L291,240L290,241L288,241L288,242L285,244L284,243L283,243L282,242L281,242L278,242L275,242L274,243L272,244L270,245L269,244L268,244L265,245L264,245L263,245L261,246L260,248L260,249L259,250L258,250L257,251L256,251L256,253L256,254L255,254L255,255L255,256L254,258L254,259L255,260L256,259L258,258L259,257L260,257L261,258L264,258L265,258L269,259L270,259L272,259L271,260L271,261L272,262L273,262L274,261L274,262L275,263L275,262L276,261L277,261L278,261L280,261L281,261L281,260L282,261L283,261L284,260L285,260L285,259L287,260L288,259L289,259L290,260L291,261L291,262L290,264L291,265L292,265L292,267L291,268L291,269L292,270L292,271L292,272L293,273L293,274L294,274L295,274L296,274L297,275L298,275L297,276L296,277L296,278L296,279L296,280L296,281L296,282L295,284L296,285L297,285L298,286L298,287L298,288L298,289L299,289L300,289Z " data-fips="BR15" data-hasc="BR.MG" data-name="Minas Gerais" data-postal="MG" data-varname="Minas|Minas Geraes"/><path d="M234,239L235,239L234,237L233,236L233,234L233,233L233,232L234,231L234,230L235,229L235,228L236,226L237,226L238,225L238,224L239,223L238,222L239,221L240,220L240,219L241,219L242,218L243,217L243,217L245,217L245,216L246,215L247,214L248,213L248,212L248,211L248,210L249,209L250,208L251,208L252,207L253,208L254,207L254,206L254,205L255,204L255,203L255,202L255,201L256,200L256,199L257,198L257,197L257,195L257,194L257,193L258,192L259,191L259,191L260,189L259,188L260,187L260,187L260,186L259,185L259,184L259,183L259,182L259,181L259,180L259,179L258,177L259,176L259,175L258,174L259,173L258,172L258,171L258,170L259,168L259,167L259,166L259,165L260,164L260,163L260,162L261,161L261,160L262,158L262,157L263,156L263,155L263,155L252,154L214,152L200,151L199,150L198,150L197,150L196,149L195,149L194,149L194,147L193,146L191,146L191,145L190,144L189,144L188,143L188,142L188,141L188,139L188,138L187,137L186,136L186,135L186,134L185,133L185,132L184,130L183,129L182,130L182,131L182,132L181,133L180,134L180,135L181,136L181,137L181,138L180,139L180,140L180,141L180,142L179,143L148,145L149,145L148,147L148,148L149,149L148,150L148,151L149,153L149,154L148,155L149,156L149,157L148,158L149,159L149,161L149,162L149,163L149,164L149,165L149,167L160,167L161,168L162,168L163,168L164,168L165,169L165,171L165,172L164,173L164,173L164,175L164,176L165,177L165,178L166,179L166,180L166,181L166,184L165,185L165,186L164,187L163,187L162,188L162,189L162,190L161,192L161,193L159,194L158,195L159,195L160,196L161,196L161,197L161,198L161,199L161,200L161,201L162,203L162,204L163,205L163,209L160,210L163,214L164,219L165,222L181,222L182,221L182,222L182,224L181,225L181,226L181,228L182,229L182,230L182,231L183,232L184,232L185,233L185,233L187,234L188,234L188,235L189,236L190,236L190,237L191,238L193,237L195,237L196,235L196,234L197,233L197,232L198,232L200,232L202,232L202,231L203,231L204,230L205,230L207,231L207,232L208,232L209,232L210,233L211,234L212,234L214,235L215,235L216,235L217,234L218,234L220,233L221,234L221,235L222,235L223,235L224,234L225,233L227,232L228,231L228,233L228,234L228,235L227,235L226,236L226,237L227,238L228,238L229,238L230,239L232,238L233,239Z " data-fips="BR14" data-hasc="BR.MT" data-name="Mato Grosso" data-postal="MT" data-varname="Matto Grosso"/><path d="M233,398L234,397L236,396L237,394L238,393L240,390L240,388L241,386L242,384L243,383L243,382L242,382L242,381L243,380L242,380L242,379L243,378L244,378L244,376L244,375L245,374L246,374L247,373L248,373L249,372L249,371L250,370L250,369L250,368L251,369L250,367L251,366L251,365L251,364L250,363L251,362L251,363L252,364L253,364L253,365L254,366L254,364L255,364L256,364L257,363L257,364L257,365L256,366L256,365L256,366L256,369L255,370L253,370L253,371L253,373L252,372L251,373L252,374L251,376L250,376L249,376L248,377L248,378L247,379L246,380L245,380L243,380L244,382L244,383L245,381L248,379L250,377L252,376L253,375L255,373L255,372L257,370L259,366L260,365L260,363L262,359L263,358L264,356L265,354L264,354L263,353L262,354L262,354L261,353L262,353L262,352L263,351L263,349L263,348L264,348L265,347L265,346L264,346L263,346L262,346L261,346L259,345L258,345L257,344L256,344L256,342L255,342L254,341L253,340L253,339L252,339L251,338L250,337L249,336L248,336L247,335L246,336L245,336L245,335L244,334L243,333L242,333L241,334L240,333L239,333L238,333L237,333L236,332L235,333L234,332L233,332L233,332L232,332L231,332L230,332L229,332L228,332L227,332L227,332L226,333L224,333L223,335L223,335L222,335L220,336L219,336L218,336L218,337L217,338L216,339L215,339L214,340L213,341L213,342L212,342L211,343L210,344L211,344L210,345L209,345L208,346L207,347L207,348L205,349L205,350L204,351L204,352L203,352L202,353L202,354L201,355L200,356L199,357L199,358L198,359L197,359L196,360L196,361L195,362L194,363L193,363L194,364L195,365L196,364L197,364L198,363L199,363L200,363L201,363L202,363L202,364L203,365L204,366L205,367L206,367L207,368L207,369L208,370L208,371L208,372L209,372L210,372L211,371L211,370L212,370L213,371L214,372L215,373L215,374L216,375L217,374L218,375L219,376L221,376L222,377L222,378L223,379L224,380L225,380L226,380L227,381L227,382L228,382L229,383L229,384L230,385L230,386L231,387L232,388L233,388L234,389L233,389L233,390L232,391L231,392L230,393L230,394L231,395L230,397L231,398L232,399Z " data-fips="BR23" data-hasc="BR.RS" data-name="Rio Grande do Sul" data-postal="RS" data-varname=""/><path d="M251,327L251,327L251,326L251,325L252,324L253,323L254,323L255,323L256,323L257,322L257,321L258,321L259,321L260,322L261,321L262,321L263,321L264,321L265,322L266,322L267,323L268,323L269,322L270,321L271,321L272,321L273,321L276,321L276,321L276,320L275,319L276,319L277,318L279,316L277,316L276,316L276,315L275,314L276,315L277,315L278,315L278,314L278,313L279,313L280,314L281,314L280,314L280,315L280,314L281,314L281,313L280,313L280,312L279,311L278,310L278,311L277,311L277,310L277,309L278,308L276,307L275,307L274,307L273,307L272,307L271,307L270,306L270,305L271,304L270,303L270,302L269,301L268,300L268,299L268,298L268,297L267,296L267,295L267,294L267,292L266,291L265,291L265,290L264,289L263,289L262,289L261,289L260,289L259,289L257,289L256,289L255,288L254,288L252,287L251,286L250,286L249,287L248,286L247,286L246,286L246,286L244,285L243,285L242,286L241,286L240,286L239,285L238,286L237,286L235,285L235,286L233,287L231,288L230,289L229,290L229,291L228,292L227,294L226,294L225,296L225,298L225,299L224,300L223,301L223,301L223,302L223,303L223,304L223,305L223,306L222,307L222,308L221,311L221,312L221,313L220,314L220,315L221,316L222,317L222,316L224,316L225,316L226,316L226,317L227,317L227,318L227,320L228,321L228,322L229,323L229,323L231,323L232,323L233,324L234,324L236,324L237,324L239,325L240,325L242,325L243,325L244,326L244,326L246,327L248,327L250,327Z " data-fips="BR18" data-hasc="BR.PR" data-name="Paran" data-postal="PR" data-varname=""/><path d="M266,353L268,350L271,348L272,348L273,347L274,346L273,346L273,345L274,345L275,344L275,343L275,342L275,341L276,340L275,339L275,338L276,337L276,335L276,334L276,333L277,333L276,332L276,331L276,330L276,329L275,328L275,326L276,325L275,324L275,323L275,322L275,323L276,322L276,321L276,321L273,321L272,321L271,321L270,321L269,322L268,323L267,323L266,322L265,322L264,321L263,321L262,321L261,321L260,322L259,321L258,321L257,321L257,322L256,323L255,323L254,323L253,323L252,324L251,325L251,326L251,327L251,327L250,327L248,327L246,327L244,326L244,326L243,325L242,325L240,325L239,325L237,324L236,324L234,324L233,324L232,323L231,323L229,323L229,323L228,324L228,326L228,327L228,328L228,329L228,330L228,331L227,332L228,332L229,332L230,332L231,332L232,332L233,332L233,332L234,332L235,333L236,332L237,333L238,333L239,333L240,333L241,334L242,333L243,333L244,334L245,335L245,336L246,336L247,335L248,336L249,336L250,337L251,338L252,339L253,339L253,340L254,341L255,342L256,342L256,344L257,344L258,345L259,345L261,346L262,346L263,346L264,346L265,346L265,347L264,348L263,348L263,349L263,351L262,352L262,353L261,353L262,354L262,354L263,353L264,354L265,354Z M276,339L277,338L277,337L278,336L277,335L276,336L276,337L276,338L276,339Z M276,325L277,324L277,323L276,323L276,324L276,325Z " data-fips="BR26" data-hasc="BR.SC" data-name="Santa Catarina" data-postal="SC" data-varname="Santa Catharina"/><path d="M378,137L379,136L380,135L381,135L381,134L382,134L382,133L383,132L382,131L381,130L381,129L381,127L381,127L382,126L382,125L382,123L383,122L382,122L383,121L383,120L384,119L385,119L386,118L387,117L387,116L388,115L389,114L389,113L391,110L392,109L393,107L397,107L396,105L394,104L393,104L392,103L390,102L390,101L389,100L388,99L387,98L386,97L385,95L384,95L383,94L382,93L381,93L380,92L379,91L378,90L377,90L376,89L375,89L374,88L373,87L372,87L371,86L370,85L368,85L367,85L366,84L364,84L363,84L360,85L359,85L357,85L356,85L356,86L356,87L354,89L354,90L354,91L355,93L355,94L356,95L356,96L356,97L357,98L358,100L357,101L356,102L356,103L356,104L356,105L356,106L357,107L357,108L358,109L357,110L358,111L359,112L359,113L359,115L359,117L359,118L360,120L360,121L360,123L361,124L362,125L363,125L364,126L363,127L363,128L362,130L362,131L362,132L365,132L366,132L367,132L368,132L369,132L371,132L372,133L373,133L374,134L375,135L376,135L377,136L377,137Z " data-fips="BR06" data-hasc="BR.CE" data-name="Cear" data-postal="CE" data-varname=""/><path d="M317,166L318,166L319,165L320,164L321,164L322,163L324,164L325,163L326,162L327,161L328,161L328,160L329,159L329,157L330,156L329,155L329,154L328,153L328,152L330,152L330,151L331,151L333,151L334,152L335,152L336,151L337,152L337,153L338,153L339,153L341,153L342,153L342,152L343,151L344,151L345,151L346,150L347,150L348,150L349,150L349,149L350,148L351,148L352,147L353,146L353,145L355,144L356,143L356,143L357,142L358,142L359,142L360,141L360,140L361,139L362,138L362,137L362,136L361,135L361,134L361,133L361,132L362,132L362,131L362,130L363,128L363,127L364,126L363,125L362,125L361,124L360,123L360,121L360,120L359,118L359,117L359,115L359,113L359,112L358,111L357,110L358,109L357,108L357,107L356,106L356,105L356,104L356,103L356,102L357,101L358,100L357,98L356,97L356,96L356,95L355,94L355,93L354,91L354,90L354,89L356,87L356,86L356,86L355,85L354,85L352,85L352,84L350,83L350,85L350,86L350,87L349,88L347,88L346,90L345,90L344,90L343,90L343,91L342,92L341,93L341,94L340,95L340,96L339,97L338,98L338,99L339,100L339,101L339,102L338,103L339,104L339,105L339,106L339,107L340,108L339,109L339,110L338,111L337,112L337,113L337,114L337,115L337,116L337,117L337,118L338,119L339,119L339,120L339,121L339,122L338,123L338,124L336,124L335,124L334,125L333,125L332,125L331,124L330,123L329,124L328,124L327,124L326,125L325,125L325,126L324,127L323,128L322,128L321,129L320,130L319,130L318,130L317,131L316,131L315,132L313,132L312,133L312,134L311,135L311,136L311,138L310,139L310,140L309,142L309,143L308,144L307,144L307,146L307,147L307,148L307,150L308,150L308,151L308,152L308,154L308,155L307,156L308,157L307,159L307,160L308,160L308,160L310,161L311,161L311,162L312,163L313,165L313,166L315,166L316,166Z " data-fips="BR20" data-hasc="BR.PI" data-name="Piau" data-postal="PI" data-varname="Piauhy"/><path d="M404,164L404,163L405,162L406,162L407,161L408,159L408,158L408,157L408,158L409,157L410,158L411,157L411,156L412,155L413,154L414,152L415,151L416,150L415,150L414,150L412,149L411,149L410,150L409,149L408,150L407,150L406,151L405,152L404,152L403,152L402,153L401,153L398,153L398,154L397,153L395,152L393,150L392,150L391,149L390,149L389,148L389,149L388,150L388,151L386,151L386,152L385,153L385,154L386,154L387,155L387,155L388,156L389,156L390,157L391,157L393,158L394,158L394,159L395,159L396,160L397,160L397,161L398,162L399,163L400,163L401,164L401,165L402,165L403,166Z " data-fips="BR02" data-hasc="BR.AL" data-name="Alagoas" data-postal="AL" data-varname=""/><path d="M366,244L367,242L368,241L370,240L371,239L371,238L371,236L370,235L371,233L372,231L372,230L372,228L373,226L373,225L373,224L374,223L374,222L375,221L375,220L374,219L374,217L374,215L374,214L374,211L374,210L374,209L374,208L374,206L374,205L375,204L375,203L375,202L375,200L375,201L374,203L374,202L375,201L374,200L374,199L374,198L375,199L375,198L375,197L374,196L374,197L374,196L374,195L375,194L376,193L377,192L377,191L378,190L377,189L377,189L377,188L378,189L378,187L379,187L380,188L380,189L380,190L381,191L382,190L382,190L383,189L384,188L385,187L385,186L386,185L387,184L388,183L388,182L389,181L390,180L391,178L392,176L392,175L391,176L390,176L389,176L388,176L387,175L386,174L386,173L386,172L385,171L385,170L384,169L384,168L385,167L386,167L387,168L388,167L389,166L388,165L388,164L389,163L389,161L389,160L388,159L387,159L387,157L387,156L387,155L386,154L385,154L385,153L385,152L384,151L384,150L384,149L383,150L382,149L382,148L381,148L381,149L380,148L379,147L378,147L377,146L376,146L375,146L375,145L374,144L373,144L370,145L370,146L369,147L368,147L368,148L368,149L367,149L365,149L364,150L364,151L363,152L362,153L361,153L360,153L360,152L360,151L359,150L358,150L358,149L358,148L358,147L357,146L356,146L355,145L354,145L353,145L353,146L352,147L351,148L350,148L349,149L349,150L348,150L347,150L346,150L345,151L344,151L343,151L342,152L342,153L341,153L339,153L338,153L337,153L337,152L336,151L335,152L334,152L333,151L331,151L330,151L330,152L328,152L328,153L329,154L329,155L330,156L329,157L329,159L328,160L328,161L327,161L326,162L325,163L324,164L322,163L321,164L320,164L319,165L318,166L317,166L316,166L315,166L313,166L313,165L312,163L311,162L311,161L310,161L308,160L308,161L307,162L306,163L305,163L304,164L303,165L304,166L303,167L301,168L301,169L300,170L300,171L301,172L303,173L305,173L304,174L303,175L303,176L304,176L305,177L304,177L303,178L302,181L302,182L303,182L304,184L303,185L303,186L305,188L304,188L304,190L304,190L304,191L303,192L303,193L302,195L302,196L303,197L303,199L304,200L305,201L306,203L305,204L306,205L305,206L305,207L305,208L305,210L304,211L305,210L306,210L307,210L308,209L309,209L309,208L311,208L312,207L312,206L313,206L316,205L317,204L318,203L319,202L320,202L321,201L322,201L323,201L324,202L325,202L326,202L326,203L326,204L326,205L327,206L330,207L331,207L332,206L333,206L334,206L335,206L336,207L338,208L339,209L340,209L341,211L342,211L343,211L344,212L345,211L349,214L350,215L351,217L352,218L353,218L354,217L355,217L356,218L357,218L358,218L359,218L360,219L361,219L362,220L363,220L364,221L365,222L365,222L364,224L364,225L363,225L362,226L361,227L361,228L361,229L360,230L359,230L358,230L358,232L357,233L357,234L357,235L358,235L358,237L359,237L359,238L360,239L361,240L360,241L361,242L365,245Z M376,195L376,195L375,195L376,196Z M378,191L379,190L378,190L378,191L378,192Z " data-fips="BR05" data-hasc="BR.BA" data-name="Bahia" data-postal="BA" data-varname="Baa"/><path d="M351,274L352,272L353,271L353,271L355,270L355,269L356,269L357,268L357,267L358,266L358,264L359,265L359,263L360,262L360,261L362,259L363,258L364,256L364,255L364,253L364,251L364,249L365,247L365,245L361,242L359,241L359,241L358,241L357,240L356,241L355,241L354,241L355,242L354,243L352,243L352,244L351,245L352,245L352,246L352,248L353,248L353,249L351,250L350,249L350,250L351,251L351,252L352,253L353,254L352,255L352,256L352,257L351,258L350,258L350,260L349,260L349,261L348,262L348,264L344,264L344,264L343,265L343,266L343,268L343,269L343,269L344,270L344,271L344,272L344,273L345,273L346,274L347,274L348,274L349,274L350,274L351,275Z " data-fips="BR08" data-hasc="BR.ES" data-name="Esprito Santo" data-postal="ES" data-varname="Espiritu Santo"/><path d="M399,142L401,141L401,141L401,140L402,139L403,139L404,138L405,138L406,138L407,138L409,138L409,137L410,138L412,137L413,137L413,135L415,134L416,134L417,134L418,135L418,135L419,136L420,135L420,134L420,132L420,131L420,130L419,131L420,130L419,129L419,127L419,126L419,125L419,125L418,125L417,125L416,125L414,125L413,124L412,124L411,124L409,124L408,124L407,124L406,123L406,122L405,122L403,123L403,124L403,125L403,126L403,127L403,128L402,129L401,128L401,127L400,127L399,127L398,127L397,127L396,127L395,126L394,126L393,125L393,124L394,123L395,122L396,121L397,120L396,119L395,119L394,119L393,120L391,120L391,121L390,122L389,122L388,123L387,124L385,123L383,122L382,123L382,125L382,126L381,127L381,127L381,129L381,130L382,131L383,132L382,133L382,134L381,134L381,135L381,135L382,136L383,136L384,136L385,136L386,137L387,137L387,136L388,136L389,136L390,135L391,135L392,134L393,133L394,133L395,132L396,132L397,133L398,134L397,135L396,135L396,136L396,137L395,138L395,139L396,139L396,140L396,141L397,142L398,142Z " data-fips="BR17" data-hasc="BR.PB" data-name="Paraba" data-postal="PB" data-varname="Parahyba"/><path d="M314,295L315,295L315,294L314,294L314,293L315,292L316,291L317,291L318,290L318,291L319,292L320,291L321,291L323,291L324,291L324,292L323,292L322,292L321,292L322,292L325,292L326,292L329,291L328,290L328,290L328,289L329,289L330,288L330,289L329,290L330,291L331,292L332,292L334,291L335,291L336,291L338,292L340,291L340,290L341,290L340,289L340,288L341,287L342,286L342,286L343,285L345,284L347,284L348,284L349,283L350,282L350,280L350,278L350,277L350,276L351,275L350,274L349,274L348,274L347,274L346,274L345,273L344,273L344,272L344,271L344,270L343,269L342,270L341,271L340,271L340,272L339,273L339,274L338,275L338,276L337,278L338,278L338,279L336,279L335,280L334,280L332,281L331,282L330,282L329,282L328,281L327,282L326,282L324,282L323,282L322,282L321,283L319,284L318,284L317,284L316,284L315,285L314,285L313,285L314,285L314,286L315,287L316,287L317,287L318,287L319,287L319,288L318,289L317,290L316,290L315,290L314,290L313,291L313,292L312,293L313,294L314,295Z M318,293L320,293L319,292L319,292L318,292L317,293Z " data-fips="BR21" data-hasc="BR.RJ" data-name="Rio de Janeiro" data-postal="RJ" data-varname=""/><path d="M403,128L403,127L403,126L403,125L403,124L403,123L405,122L406,122L406,123L407,124L408,124L409,124L411,124L412,124L413,124L414,125L416,125L417,125L418,125L419,125L419,125L419,124L418,123L418,122L418,120L417,118L417,117L417,116L417,115L416,114L416,113L415,112L415,111L414,110L413,110L411,110L410,110L409,109L408,110L406,110L405,110L403,110L402,109L401,109L400,108L399,108L398,108L397,107L397,107L393,107L392,109L391,110L389,113L389,114L388,115L387,116L387,117L386,118L385,119L384,119L383,120L383,121L382,122L383,122L385,123L387,124L388,123L389,122L390,122L391,121L391,120L393,120L394,119L395,119L396,119L397,120L396,121L395,122L394,123L393,124L393,125L394,126L395,126L396,127L397,127L398,127L399,127L400,127L401,127L401,128L402,129Z " data-fips="BR22" data-hasc="BR.RN" data-name="Rio Grande do Norte" data-postal="RN" data-varname=""/><path d="M390,176L391,176L391,176L392,175L392,174L393,173L392,174L393,175L393,174L394,173L395,172L394,171L395,172L396,170L397,169L397,168L399,167L401,166L402,166L403,166L402,165L401,165L401,164L400,163L399,163L398,162L397,161L397,160L396,160L395,159L394,159L394,158L393,158L391,157L390,157L389,156L388,156L387,155L387,155L387,156L387,157L387,159L388,159L389,160L389,161L389,163L388,164L388,165L389,166L388,167L387,168L386,167L385,167L384,168L384,169L385,170L385,171L386,172L386,173L386,174L387,175L388,176L389,176Z " data-fips="BR28" data-hasc="BR.SE" data-name="Sergipe" data-postal="SE" data-varname=""/><path d="M146,68L147,66L147,65L147,64L147,63L147,62L148,61L149,60L150,60L151,59L152,59L153,60L154,61L155,61L155,62L156,63L157,63L158,62L159,61L160,61L159,60L159,59L159,58L160,56L160,56L161,55L161,53L162,52L165,52L174,51L173,40L173,40L173,40L171,40L170,39L170,38L169,38L168,37L167,36L166,36L166,35L165,34L165,33L165,32L165,31L165,30L164,30L164,29L163,27L163,26L163,25L163,24L163,22L164,21L164,20L164,19L164,18L164,17L166,16L166,15L167,14L167,13L167,13L166,11L165,11L166,10L165,9L164,8L163,8L162,8L161,7L162,6L162,5L163,4L163,3L163,2L162,1L161,0L160,0L159,1L158,1L157,1L156,1L156,4L156,5L155,5L153,6L153,7L152,8L150,8L149,8L148,9L147,9L147,11L146,11L145,11L144,11L143,12L142,12L140,12L139,12L138,11L137,12L136,13L135,13L134,13L134,14L134,16L134,17L133,18L132,18L131,17L130,16L129,15L128,14L127,15L126,15L124,14L123,14L122,15L121,15L120,13L120,13L119,12L118,12L115,12L115,12L114,11L113,12L114,12L114,13L115,15L116,15L117,16L118,17L119,18L119,19L119,20L119,21L119,22L120,23L120,25L121,27L121,28L121,29L122,29L123,30L124,30L126,30L128,31L128,32L129,32L129,32L130,32L131,33L131,34L133,34L134,34L135,34L135,35L135,37L134,38L135,39L135,40L136,40L136,42L137,43L137,45L137,46L137,47L137,49L137,50L137,51L136,53L137,54L137,55L137,56L138,57L138,58L138,59L139,61L139,62L137,62L137,63L138,63L139,64L140,65L141,66L142,67L144,68L145,68L146,69Z " data-fips="BR25" data-hasc="BR.RR" data-name="Roraima" data-postal="RR" data-varname="Rio Branco"/><path d="M265,46L266,45L265,45L264,45L264,46Z M266,44L267,43L266,43L265,44Z M246,65L246,65L248,64L249,63L248,62L249,61L249,60L250,59L251,59L251,58L252,57L253,56L253,54L254,54L255,54L256,53L257,52L258,52L259,50L260,49L261,48L262,46L263,46L264,45L264,44L265,43L266,42L267,42L267,41L267,40L267,39L267,38L267,37L266,36L265,35L264,35L263,35L262,35L261,34L260,33L260,32L259,32L258,32L258,31L259,31L259,30L259,29L258,28L258,27L257,26L257,25L257,24L256,22L256,21L255,20L255,19L255,18L255,17L255,15L255,13L254,14L254,16L254,14L254,13L254,12L252,10L251,9L250,9L250,10L251,11L251,13L251,12L250,11L249,12L248,12L247,14L247,14L246,15L245,16L245,18L243,20L242,21L242,22L241,24L240,26L240,27L239,28L238,29L237,30L236,31L235,31L234,31L233,30L231,30L230,30L229,30L228,30L227,29L226,30L225,31L224,31L223,32L222,31L221,31L220,31L219,30L218,30L218,29L217,28L217,29L217,30L217,31L217,32L217,33L217,34L217,35L218,35L219,35L220,35L222,36L222,36L223,37L224,38L225,38L226,39L227,39L228,39L228,39L229,39L230,40L231,40L230,41L231,43L231,44L232,45L232,45L234,46L234,47L234,48L234,49L234,50L235,51L235,52L235,53L236,55L237,55L238,56L239,57L239,58L239,59L240,60L240,61L240,62L241,62L241,63L242,64L243,65L244,65L245,65Z M262,34L263,33L263,32L262,31L261,32L261,33L261,34L262,34Z M262,31L261,30L260,31L261,31Z " data-fips="BR03" data-hasc="BR.AP" data-name="Amap" data-postal="AP" data-varname=""/><path d="M256,253L256,251L257,251L258,250L259,250L260,249L260,248L261,246L263,245L264,245L265,245L268,244L269,244L270,245L272,244L274,243L275,242L278,242L281,242L282,242L283,243L284,243L285,244L288,242L288,241L290,241L291,240L291,239L291,238L291,237L291,236L291,235L291,234L290,234L289,233L289,232L290,232L291,231L291,230L292,230L293,229L293,228L292,226L292,225L291,224L290,224L291,222L291,221L291,220L289,219L286,219L283,219L282,218L282,217L283,216L283,215L283,213L284,213L287,213L291,213L291,214L292,215L291,216L291,217L291,218L293,219L293,218L294,218L295,218L296,217L296,216L296,214L295,213L296,212L296,211L296,209L297,208L298,209L299,208L299,207L299,206L300,205L301,206L302,207L303,208L304,208L305,207L305,206L306,205L305,204L306,203L305,201L304,200L303,199L303,197L302,196L302,195L303,193L303,192L304,191L304,190L304,190L304,188L305,188L303,186L302,186L301,186L299,187L298,188L297,188L295,188L293,190L291,190L290,190L289,190L289,189L288,189L289,191L287,191L286,190L285,189L284,189L284,188L282,189L280,189L279,189L279,190L278,191L277,190L278,188L277,187L277,186L276,185L275,185L274,185L272,187L272,189L272,190L270,189L268,189L266,188L265,187L263,186L263,185L263,184L263,183L264,182L263,182L262,182L261,183L261,184L261,185L260,186L260,187L260,187L259,188L260,189L259,191L259,191L258,192L257,193L257,194L257,195L257,197L257,198L256,199L256,200L255,201L255,202L255,203L255,204L254,205L254,206L254,207L253,208L252,207L251,208L250,208L249,209L248,210L248,211L248,212L248,213L247,214L246,215L245,216L245,217L243,217L243,217L242,218L241,219L240,219L240,220L239,221L238,222L239,223L238,224L238,225L237,226L236,226L235,228L235,229L234,230L234,231L233,232L233,233L233,234L233,236L234,237L235,239L235,241L235,242L236,242L237,242L237,244L236,245L237,246L239,246L240,246L241,247L242,247L244,248L245,248L246,249L248,250L249,250L250,250L251,251L252,252L253,252L254,253L255,254L256,254Z " data-fips="BR29" data-hasc="BR.GO" data-name="Gois" data-postal="GO" data-varname="Goiz|Goyz"/><path d="M281,314L282,313L283,311L282,311L283,311L284,310L286,308L287,308L290,306L291,305L292,305L292,304L293,303L294,303L296,302L298,301L297,300L298,300L298,301L299,301L298,300L298,300L298,300L298,300L298,300L299,301L300,301L300,300L301,299L302,299L303,299L305,299L306,299L307,299L307,298L307,297L308,297L309,297L310,296L311,295L312,295L313,295L314,295L313,294L312,293L313,292L313,291L314,290L315,290L316,290L317,290L318,289L319,288L319,287L318,287L317,287L316,287L315,287L314,286L314,285L313,285L312,285L311,286L310,286L309,287L308,287L307,287L306,287L305,287L304,288L304,289L304,289L303,289L301,289L300,289L299,289L298,289L298,288L298,287L298,286L297,285L296,285L295,284L296,282L296,281L296,280L296,279L296,278L296,277L297,276L298,275L297,275L296,274L295,274L294,274L293,274L293,273L292,272L292,271L292,270L291,269L291,268L292,267L292,265L291,265L290,264L291,262L291,261L290,260L289,259L288,259L287,260L285,259L285,260L284,260L283,261L282,261L281,260L281,261L280,261L278,261L277,261L276,261L275,262L275,263L274,262L274,261L273,262L272,262L271,261L271,260L272,259L270,259L269,259L265,258L264,258L261,258L260,257L259,257L258,258L256,259L255,260L254,261L253,262L252,262L251,263L250,264L249,265L248,266L248,268L248,269L247,270L246,271L246,272L245,273L245,274L244,275L244,276L244,277L243,277L242,278L242,279L241,280L241,281L240,282L239,282L238,283L237,283L236,284L235,285L234,286L233,287L235,286L235,285L237,286L238,286L239,285L240,286L241,286L242,286L243,285L244,285L246,286L246,286L247,286L248,286L249,287L250,286L251,286L252,287L254,288L255,288L256,289L257,289L259,289L260,289L261,289L262,289L263,289L264,289L265,290L265,291L266,291L267,292L267,294L267,295L267,296L268,297L268,298L268,299L268,300L269,301L270,302L270,303L271,304L270,305L270,306L271,307L272,307L273,307L274,307L275,307L276,307L278,308L277,309L277,310L277,311L278,311L278,310L279,311L280,312L280,313L281,313L281,314Z M284,310L286,308L287,308L287,308L286,308L285,309L284,310L283,311Z M308,300L309,299L309,299L308,299L307,300L308,300L309,301Z " data-fips="BR32" data-hasc="BR.SP" data-name="So Paulo" data-postal="SP" data-varname=""/><path d="M398,153L401,153L402,153L403,152L404,152L405,152L406,151L407,150L408,150L409,149L410,150L411,149L412,149L414,150L415,150L416,150L416,150L417,149L417,147L417,147L418,144L418,143L419,142L419,141L420,140L419,139L420,138L420,137L419,136L418,135L418,135L417,134L416,134L415,134L413,135L413,137L412,137L410,138L409,137L409,138L407,138L406,138L405,138L404,138L403,139L402,139L401,140L401,141L401,141L399,142L398,142L397,142L396,141L396,140L396,139L395,139L395,138L396,137L396,136L396,135L397,135L398,134L397,133L396,132L395,132L394,133L393,133L392,134L391,135L390,135L389,136L388,136L387,136L387,137L386,137L385,136L384,136L383,136L382,136L381,135L381,135L380,135L379,136L378,137L377,137L377,136L376,135L375,135L374,134L373,133L372,133L371,132L369,132L368,132L367,132L366,132L365,132L362,132L361,132L361,133L361,134L361,135L362,136L362,137L362,138L361,139L360,140L360,141L359,142L358,142L357,142L356,143L356,143L355,144L353,145L354,145L355,145L356,146L357,146L358,147L358,148L358,149L358,150L359,150L360,151L360,152L360,153L361,153L362,153L363,152L364,151L364,150L365,149L367,149L368,149L368,148L368,147L369,147L370,146L370,145L373,144L374,144L375,145L375,146L376,146L377,146L378,147L379,147L380,148L381,149L381,148L382,148L382,149L383,150L384,149L384,150L384,151L385,152L385,153L386,152L386,151L388,151L388,150L389,149L389,148L390,149L391,149L392,150L393,150L395,152L397,153L398,154Z " data-fips="BR30" data-hasc="BR.PE" data-name="Pernambuco" data-postal="PE" data-varname="Pernambouc"/></g></svg>