<?xml version="1.0" ?><!DOCTYPE svg  PUBLIC '-//W3C//DTD SVG 1.1//EN'  'http://www.w3.org/Graphics/SVG/1.1/DTD/svg11.dtd'><svg enable_background="new 0 0 500 401" height="401px" style="stroke-linejoin: round; stroke:#000; fill:#f6f3f0;" version="1.1" viewBox="0 0 500 401" width="500px" xmlns="http://www.w3.org/2000/svg" xmlns:xlink="http://www.w3.org/1999/xlink"><defs><style type="text/css"><![CDATA[path { fill-rule: evenodd; }
#context path { fill: #eee; stroke: #bbb; } ]]></style></defs><metadata><views><view h="401" padding="0" w="500"><proj id="laea" lat0="-23.389" lon0="-69.433"/><bbox h="468.79" w="453.09" x="574.38" y="927.43"/><llbbox lat0="-90" lat1="90" lon0="-180" lon1="180"/></view></views></metadata><g id="admin1"><path d="M377,327L377,326L377,326L377,327L375,327L376,328Z M377,325L377,324L377,324L376,324L375,325L375,326L376,327Z M379,326L379,325L379,324L378,323L378,322L378,321L377,320L377,320L376,320L375,321L376,322L376,323L377,323L376,324L377,323L378,324L378,325L378,326L378,327Z M393,331L394,330L395,328L396,328L397,327L397,326L397,324L397,323L398,323L399,322L399,321L398,319L397,318L397,317L398,316L398,314L398,313L400,312L400,311L400,310L402,310L401,309L401,309L401,308L401,306L402,306L403,305L403,303L402,302L402,300L401,299L402,298L403,297L402,296L402,295L402,294L403,293L404,293L404,292L405,291L405,290L405,289L404,289L403,288L402,287L401,287L400,287L399,286L400,285L402,285L403,285L404,285L405,285L406,285L406,284L406,283L406,282L405,282L404,281L402,281L401,281L401,279L401,278L402,278L401,277L400,277L399,277L398,276L397,275L396,275L395,275L394,274L393,274L393,275L392,276L392,277L391,277L391,278L391,277L391,276L390,277L391,278L391,278L391,278L391,278L390,278L390,280L391,279L391,280L392,281L393,281L394,282L395,282L395,281L395,283L395,283L394,284L394,285L392,286L392,287L391,288L389,288L390,289L390,290L389,291L390,291L391,291L393,292L394,293L393,292L392,292L391,291L390,292L389,292L389,293L388,295L388,296L389,295L390,294L391,295L390,295L389,296L388,297L388,298L388,299L388,301L388,302L389,300L390,299L389,300L389,301L388,302L387,304L387,304L386,304L387,303L387,302L387,301L386,300L385,301L386,302L385,302L385,300L384,301L383,301L384,301L385,300L386,299L385,298L385,299L385,298L385,297L384,296L383,296L382,297L382,298L382,299L382,298L381,297L380,297L380,299L379,300L380,301L379,300L379,301L377,301L377,302L376,303L375,303L375,304L374,305L373,306L373,307L374,308L375,309L376,308L376,307L375,306L374,307L374,306L376,305L377,305L378,304L379,304L378,305L378,306L379,307L380,307L381,308L382,307L381,307L382,307L382,306L383,306L384,307L384,308L386,308L386,309L386,311L385,311L385,312L385,311L384,311L383,312L383,313L384,314L385,315L386,315L385,316L385,316L384,316L383,315L382,314L382,316L382,317L383,317L384,317L385,317L386,317L387,317L388,316L388,315L389,314L389,316L389,317L389,317L390,318L391,319L390,319L389,318L390,319L391,320L392,320L391,321L390,321L389,320L388,319L387,319L386,319L384,319L385,320L385,321L385,321L384,320L384,319L382,319L382,320L383,320L384,321L384,321L385,322L386,322L385,323L387,323L388,323L387,324L386,325L385,324L385,325L385,326L386,326L387,327L387,327L393,332Z M385,323L384,322L384,323L385,324Z M384,322L383,321L383,321L383,323Z M383,325L383,325L382,323L382,322L382,321L381,320L381,322L381,323L381,324L380,324L380,325L380,326L381,326L382,326Z M381,323L381,321L380,321L379,320L378,321L378,322L379,323L380,323Z M386,318L387,318L388,317L387,318L386,317L385,318L384,317L383,318L384,319Z M379,319L380,320L381,319L381,318L381,317L381,317L380,318L380,319L378,319L378,320Z M379,317L378,316L378,317L379,318Z M386,309L385,309L385,309L385,310L386,310Z M383,301L383,301L383,301L382,300L383,301L383,301Z M388,299L387,299L386,299L387,300Z M387,298L387,297L387,297L387,297L387,297L388,297L387,296L387,298L387,297L387,298L388,298Z M379,300L380,299L380,298L380,297L379,297L378,298L377,298L378,299L378,300Z M381,295L381,294L380,295L381,296Z M386,295L386,294L385,294L385,295L386,295Z M383,296L383,295L384,294L383,293L382,293L382,294L382,295L382,296Z M388,294L388,294L388,293L387,293L387,294L387,295L388,296Z M385,293L386,294L386,293L385,293L384,293L384,294Z M383,292L382,291L381,292L383,292Z M387,291L386,291L385,291L384,291L384,292L385,292Z M387,290L387,289L386,288L386,288L384,288L383,289L383,290L384,290L385,290L386,291L387,291Z M384,288L384,288L386,288L385,287L384,287L383,287L382,288Z M386,286L385,286L385,287L387,287Z M382,286L381,286L381,286L382,287Z M388,285L388,285L387,286L387,286Z M383,286L385,285L385,284L385,284L382,284L382,285L382,286Z M388,284L387,283L386,284L386,285L387,285Z M385,283L385,282L383,282L384,283L385,283Z M382,283L383,283L383,282L382,282L381,282L381,283Z M391,287L393,286L393,284L392,284L394,284L394,283L394,282L393,282L392,281L392,282L391,282L390,282L391,283L390,284L389,284L389,285L389,286L391,286L390,287L390,287Z M385,280L384,279L384,280L384,281Z M387,278L386,277L387,278L387,279Z M385,276L386,276L385,275L385,276L383,276L384,277Z M393,274L393,274L393,274L393,274L393,274L392,275L392,275Z " data-fips="CI02" data-hasc="CL.AI" data-name="Aisn del General Carlos Ibez del Campo" data-postal="AI" data-varname="Aisn|Aysn|Aysn del General Carlos Ibez del Campo"/><path d="M431,398L431,398L430,398L431,399Z M432,397L432,396L432,396L431,397Z M428,396L428,395L427,394L427,393L426,393L425,393L424,392L425,393L426,393L427,392L426,391L425,391L423,391L422,390L423,391L424,391L425,391L426,390L426,389L425,389L424,389L423,389L422,390L421,390L420,390L419,390L419,391L418,390L417,390L416,391L417,392L418,392L419,391L419,392L417,393L418,393L419,394L420,395L420,394L420,395L421,394L420,394L420,393L419,392L420,392L420,391L421,391L421,392L422,392L423,392L423,393L423,394L423,394L424,394L425,394L426,394L427,395L427,396L428,397Z M436,393L435,392L434,393L435,393Z M434,392L434,391L434,390L433,389L432,389L430,389L429,389L427,389L426,390L427,390L427,391L428,392L429,391L430,392L431,392L432,392L432,393L433,393Z M414,391L414,390L413,390L412,390L413,389L413,389L414,389L413,389L412,389L411,389L410,389L410,390L411,390L412,391L413,391L413,392Z M419,390L420,389L421,389L420,389L419,389L419,389L418,388L417,389L417,388L416,389L417,390Z M408,388L409,389L409,388L408,388L407,388L407,389L407,389Z M413,388L412,388L411,388L412,389Z M423,388L423,387L424,388L425,388L424,387L424,365L423,365L422,366L421,366L421,366L420,365L419,364L418,365L418,366L418,367L417,367L415,367L415,366L414,367L414,368L415,368L415,369L413,369L413,370L413,371L413,373L414,373L414,374L415,374L416,373L418,373L420,373L420,374L417,376L416,376L415,377L415,378L415,379L415,380L417,381L419,382L421,383L422,384L421,384L420,385L420,386L420,385L420,384L418,384L418,383L417,383L417,384L417,385L416,383L416,382L415,383L415,384L414,383L412,382L410,381L410,382L412,382L413,383L413,384L414,385L413,384L412,384L411,385L412,386L411,385L411,384L412,383L411,383L410,383L410,384L409,384L408,384L407,384L406,384L406,385L405,384L404,384L405,384L405,385L404,385L403,384L404,385L404,386L405,386L406,386L407,386L407,385L408,385L408,386L409,387L410,386L410,387L410,386L411,387L412,386L413,386L412,387L411,388L412,387L414,388L414,387L414,388L415,388L416,388L416,387L417,388L418,387L418,386L418,388L419,388L420,389L422,389Z M409,382L409,381L409,380L408,381L407,380L406,379L405,379L406,381L405,382L406,382L407,381L407,382L408,382L408,383L409,383Z M414,382L413,381L413,381L413,382Z M401,382L401,381L401,381L400,382Z M405,382L404,381L404,380L405,381L404,380L405,379L404,379L403,379L402,379L401,379L402,380L402,381L404,382L404,383Z M399,381L400,380L401,379L400,378L401,378L401,377L400,376L400,375L398,376L398,375L397,376L397,375L396,375L395,374L396,375L395,375L394,375L395,376L396,376L397,377L395,377L394,376L393,376L393,377L393,377L394,377L395,378L395,379L395,380L396,380L396,379L397,378L398,378L399,378L398,379L398,380L397,381L398,381Z M412,381L412,380L412,379L412,380L414,379L413,378L413,377L413,376L412,375L412,376L411,377L411,378L410,378L410,380L411,381L411,381Z M393,375L394,374L393,374L392,375L391,374L392,375Z M395,373L394,372L393,371L393,372L393,371L392,371L391,370L390,370L389,370L388,370L387,369L386,368L385,367L385,368L386,369L386,370L387,371L388,371L389,371L391,371L392,371L392,372L393,373L394,373Z M392,369L393,369L392,368L392,368L391,369Z M409,377L410,376L410,375L409,374L410,372L410,371L410,370L410,369L410,368L410,367L411,366L412,366L414,366L415,365L416,365L417,364L418,365L419,364L419,363L420,362L421,361L422,361L423,362L424,362L426,362L425,362L423,362L422,361L421,361L419,361L416,359L403,359L402,358L401,357L400,356L399,355L400,354L400,353L400,352L399,351L400,350L400,349L400,348L399,347L399,346L398,345L398,346L396,345L395,346L394,347L394,346L393,345L393,344L393,342L392,341L391,340L391,339L391,338L391,337L391,335L390,335L391,333L391,332L393,332L387,327L387,327L386,327L385,326L384,327L384,328L384,329L384,330L384,331L384,332L385,333L385,334L386,334L386,333L386,332L387,331L387,329L388,330L387,330L387,331L387,332L388,333L387,332L387,333L387,334L388,335L389,336L389,337L388,336L388,335L387,335L386,335L385,336L386,337L385,337L386,338L387,339L388,339L388,340L387,340L386,339L385,340L386,340L387,341L388,341L388,342L387,342L386,341L385,340L384,341L384,342L384,343L385,343L386,343L387,344L388,343L388,344L389,345L387,344L387,345L386,345L387,346L388,347L388,348L389,348L389,347L389,346L390,345L391,344L390,345L391,346L390,346L390,347L389,348L389,349L388,348L387,349L387,350L388,350L387,350L388,352L389,351L389,352L391,351L390,352L390,353L391,354L391,355L390,354L389,354L389,355L390,356L391,356L390,357L391,357L392,356L392,358L392,359L393,360L392,359L391,358L392,359L392,360L393,361L394,361L394,360L393,358L393,357L394,358L394,359L394,360L395,359L395,358L394,358L395,358L395,357L394,356L395,356L396,357L397,358L398,358L398,357L397,356L396,355L395,355L395,356L395,355L394,354L395,354L396,355L397,355L398,356L399,357L399,358L399,359L398,359L398,360L399,362L399,363L398,364L397,364L398,363L399,362L399,361L398,360L398,359L396,359L396,360L397,361L397,360L397,361L396,362L395,361L395,360L394,361L394,362L392,361L392,361L391,360L391,361L392,362L392,363L391,364L392,364L392,365L391,366L392,367L393,366L393,366L394,366L395,366L394,365L395,364L396,365L395,365L394,366L395,368L394,368L392,368L394,368L394,369L393,370L394,371L395,371L396,370L396,369L396,368L396,368L396,369L397,370L397,371L398,371L398,372L397,372L396,371L395,372L396,373L397,373L398,374L399,374L399,375L400,375L400,373L400,372L399,372L400,371L401,372L401,371L399,370L401,370L402,371L403,370L403,369L405,369L406,368L407,367L408,368L408,369L407,370L406,371L405,371L404,372L404,374L404,375L403,375L404,374L404,373L403,372L403,373L402,374L401,374L402,373L402,372L401,372L400,373L400,374L401,375L401,376L402,376L403,377L404,377L405,378L407,378L408,378Z M398,368L399,367L398,367L397,368L397,368L398,367L398,366L397,366L396,367L397,366L397,365L398,365L399,365L400,365L400,366L401,365L402,365L403,365L406,366L405,366L403,366L402,366L401,367L400,367L399,368Z M391,366L391,365L391,364L390,364L390,365L389,366L390,366L389,366L390,366L390,367Z M385,362L384,362L383,363L384,363Z M391,363L390,362L389,361L389,361L389,362L390,363L391,364Z M389,363L388,362L387,361L387,361L388,362L388,363L389,364Z M385,360L385,359L385,360L384,361Z M390,360L389,359L388,359L389,360L390,361L391,361Z M384,360L384,359L384,359L384,361Z M388,359L387,358L386,358L385,357L386,358L386,359L387,359Z M383,360L383,359L384,358L384,357L383,356L383,356L383,357L382,358L382,359L382,360L383,361Z M389,357L389,356L388,356L387,357Z M381,355L381,354L382,353L381,354L380,353L380,354L380,355L380,356Z M383,354L384,353L385,354L385,353L384,352L384,352L383,352L383,354L382,354Z M386,351L385,350L385,350L385,351Z M384,350L385,350L386,351L386,350L386,348L385,348L384,347L384,348L384,349L384,349L382,349L383,350L383,351L384,350L384,351Z M387,352L387,351L386,350L386,351L387,352Z M383,348L383,347L382,347L382,348L383,349L384,349Z M380,348L379,346L379,346L380,345L379,345L378,345L379,346L378,347L378,348Z M387,347L386,347L385,346L386,346L386,345L385,344L384,345L385,346L385,347L385,347L386,348Z M380,344L381,343L381,342L382,341L381,341L381,341L380,340L379,340L378,341L379,341L380,342L379,342L379,341L378,342L378,343L380,343L379,344Z M384,340L383,339L384,339L385,338L385,337L384,336L383,337L384,336L384,335L384,334L384,333L384,332L384,331L384,329L383,329L383,327L383,326L383,328L382,327L382,326L381,326L380,327L380,328L381,328L380,328L380,329L381,329L380,330L381,331L381,332L381,333L380,332L379,333L378,332L378,333L379,334L378,333L377,333L377,334L378,335L379,335L379,337L379,337L380,338L381,337L380,336L380,335L382,335L382,333L383,334L382,335L381,335L383,336L381,336L381,337L382,337L382,338L382,339L383,339L382,340L383,340Z M379,337L378,336L377,336L377,337L377,338L378,337L378,338L380,339Z M385,336L385,335L384,334L384,335L385,336Z M381,330L380,330L379,330L379,331L380,332L381,332Z M377,331L378,331L378,330L378,329L377,330L376,331L376,332L377,332Z M377,329L378,329L378,328L377,328L376,328L375,329L376,330L377,330Z M379,329L379,328L378,328L378,329L379,330Z M379,327L379,326L378,327L379,328Z M381,326L380,326L380,326L380,327Z " data-fips="CI10" data-hasc="CL.MA" data-name="Magallanes y Antrtica Chilena" data-postal="MA" data-varname="Magalhes|Magellan et Antarctique Chilienne|Regin de Magallanes y de la Antrtica Chilena"/><path d="M414,41L415,41L417,41L418,41L419,41L420,41L422,40L426,39L427,38L428,37L428,36L428,35L428,34L429,33L428,32L426,31L426,30L427,30L426,28L426,27L427,27L428,26L428,25L427,24L427,24L427,23L428,22L429,21L429,20L427,19L426,18L425,17L425,16L424,15L423,16L422,17L421,17L420,16L419,16L418,16L417,16L415,16L414,16L413,16L412,17L411,17L411,18L411,19L411,20L412,21L412,22L412,23L412,24L412,25L413,26L412,27L412,29L412,30L412,31L412,32L412,34L412,35L413,36L412,37L413,38L413,39L413,40L413,41Z " data-fips="CI13" data-hasc="CL.TA" data-name="Tarapac" data-postal="TA" data-varname="Tarapaca"/><path d="M412,17L413,16L414,16L415,16L417,16L418,16L419,16L420,16L421,17L422,17L423,16L424,15L424,14L424,13L423,11L423,10L423,9L423,8L422,7L423,5L422,6L421,5L420,4L420,3L420,2L419,1L419,0L417,2L416,2L415,3L416,4L416,5L415,6L415,7L413,8L412,9L410,9L411,10L411,11L410,12L410,13L410,14L411,16L411,17Z " data-fips="" data-hasc="" data-name="Arica y Parinacota" data-postal="" data-varname=""/><path d="M408,89L409,88L410,87L412,87L413,86L414,87L415,87L417,86L418,85L419,86L423,85L424,83L424,83L426,83L427,82L428,82L428,81L429,80L429,79L429,78L428,77L428,76L428,75L429,74L430,73L431,72L433,71L438,69L440,68L440,66L443,58L441,56L438,57L437,57L435,56L434,56L434,55L435,53L434,52L434,51L434,50L434,49L433,48L432,47L432,44L431,43L431,40L428,36L428,36L428,37L427,38L426,39L422,40L420,41L419,41L418,41L417,41L415,41L414,41L413,41L413,42L413,43L412,44L412,45L412,46L412,47L412,48L412,49L412,51L412,52L411,54L411,55L411,56L411,57L411,58L410,59L408,58L409,59L408,61L408,62L408,63L409,62L410,63L410,65L409,66L409,67L409,68L409,69L409,70L409,71L409,72L409,74L409,75L409,77L409,78L409,79L410,80L410,82L410,83L409,84L408,84L408,85L407,86L407,87L408,88L408,90Z " data-fips="CI03" data-hasc="CL.AN" data-name="Antofagasta" data-postal="AN" data-varname=""/><path d="M415,128L415,128L415,127L414,125L414,124L414,123L415,122L416,121L416,120L416,119L417,118L417,117L417,116L417,114L418,114L419,112L420,112L421,110L422,109L423,107L423,106L423,105L424,104L425,102L425,101L426,101L427,101L428,101L429,100L430,100L430,98L428,96L427,95L427,93L428,92L429,90L428,87L428,86L428,85L427,83L428,82L427,82L426,83L424,83L424,83L423,85L419,86L418,85L417,86L415,87L414,87L413,86L412,87L410,87L409,88L408,89L408,90L408,90L408,91L408,92L408,93L408,94L408,95L407,97L407,98L406,99L407,100L406,101L405,101L405,102L405,103L406,104L406,105L405,107L404,108L404,109L404,110L403,111L403,113L403,114L403,115L402,115L402,117L402,118L401,119L400,120L400,121L401,122L401,123L401,123L402,123L403,123L403,124L404,125L405,124L406,123L407,122L408,122L409,122L409,123L410,126L411,127L411,128L413,128L413,129Z " data-fips="CI05" data-hasc="CL.AT" data-name="Atacama" data-postal="AT" data-varname=""/><path d="M411,154L411,154L412,153L412,152L412,151L411,151L410,150L410,149L409,147L409,146L409,145L409,143L411,143L412,142L411,141L411,140L412,138L412,137L413,136L413,135L414,135L415,135L415,133L416,132L414,132L415,131L415,128L413,129L413,128L411,128L411,127L410,126L409,123L409,122L408,122L407,122L406,123L405,124L404,125L403,124L403,123L402,123L401,123L401,123L401,123L402,124L402,125L402,126L402,127L402,128L403,130L402,131L401,131L402,132L401,133L400,134L399,134L399,135L399,136L399,138L399,139L399,140L399,141L399,143L399,144L400,146L400,148L401,151L401,152L401,153L401,154L401,154L402,153L403,153L404,152L405,153L406,152L408,152L409,153L410,154L410,154Z " data-fips="CI07" data-hasc="CL.CO" data-name="Coquimbo" data-postal="CO" data-varname=""/><path d="M416,175L416,174L416,173L415,172L416,170L415,169L416,168L416,167L416,166L415,165L414,165L413,164L413,163L413,163L411,164L410,163L408,163L407,162L406,163L405,163L402,166L402,167L402,169L402,170L402,171L401,171L400,172L399,173L400,173L401,174L402,174L403,174L405,175L406,175L407,174L407,173L408,172L409,172L411,172L411,173L412,174L413,174L413,175L414,176L414,176L415,176Z " data-fips="CI12" data-hasc="CL.RM" data-name="Regin Metropolitana de Santiago" data-postal="RM" data-varname="Regin Metropolitana|Rgion Metropolitaine de Santiago|Regin Metropolitana|RM"/><path d="M400,172L401,171L402,171L402,170L402,169L402,167L402,166L405,163L406,163L407,162L408,163L410,163L411,164L413,163L413,163L414,163L414,161L414,161L413,160L413,158L413,157L412,156L412,155L411,154L410,154L410,154L409,153L408,152L406,152L405,153L404,152L403,153L402,153L401,154L401,154L401,154L401,155L402,156L401,157L402,159L401,160L401,161L401,162L400,163L400,164L399,165L400,166L399,167L400,169L400,170L399,171L398,171L398,173L398,173L399,173Z " data-fips="CI01" data-hasc="CL.VS" data-name="Valparaso" data-postal="VS" data-varname="Aconcagua"/><path d="M398,233L399,233L400,231L400,230L401,231L401,232L402,232L402,231L403,230L403,229L403,228L403,226L403,225L403,224L404,224L405,223L406,223L407,222L408,221L407,220L407,219L406,218L406,216L406,216L405,216L404,216L403,216L402,217L401,217L400,216L400,215L399,216L398,215L397,215L396,214L395,214L394,213L394,212L393,212L392,211L390,211L389,212L389,213L389,214L389,215L388,216L389,217L388,218L387,219L387,220L387,220L386,220L386,221L386,223L387,225L388,227L388,229L388,230L388,230L390,230L391,230L391,230L390,231L392,232L393,232L394,232L395,233L396,233L397,233Z " data-fips="CI04" data-hasc="CL.AR" data-name="La Araucana" data-postal="AR" data-varname="IX"/><path d="M398,243L399,243L400,242L400,241L401,240L401,239L400,238L400,237L401,237L401,236L402,235L401,234L401,233L401,232L401,231L400,230L400,231L399,233L398,233L397,233L396,233L395,233L394,232L393,232L392,232L390,231L391,230L391,230L390,230L388,230L388,230L388,231L388,232L387,233L387,234L387,235L386,235L385,236L385,237L385,238L384,239L385,239L386,239L387,239L388,240L389,240L391,240L391,241L392,242L393,242L395,243L396,243Z " data-fips="CI09" data-hasc="CL.AR" data-name="Los Ros" data-postal="AR" data-varname="XIV"/><path d="M387,219L388,218L389,217L388,216L389,215L389,214L389,213L389,212L390,211L392,211L393,212L394,212L394,213L395,214L396,214L397,215L398,215L399,216L400,215L400,216L401,217L402,217L403,216L404,216L405,216L406,216L406,216L406,215L406,214L405,213L405,212L405,211L405,210L405,209L405,208L405,207L405,206L405,205L405,204L405,203L405,201L406,200L406,199L406,199L405,198L404,198L403,198L399,196L397,195L393,195L393,195L392,195L391,195L390,195L390,196L390,198L390,199L389,200L389,201L389,202L388,201L388,202L388,203L388,204L388,206L387,207L386,207L385,207L384,207L384,208L384,209L384,210L384,211L384,212L384,213L385,214L385,215L386,216L386,218L385,219L386,220L387,220L387,220Z " data-fips="CI06" data-hasc="CL.BI" data-name="Bo-Bo" data-postal="BI" data-varname="Bobo|VIII"/><path d="M411,183L412,181L412,180L413,178L414,177L414,176L413,175L413,174L412,174L411,173L411,172L409,172L408,172L407,173L407,174L406,175L405,175L403,174L402,174L401,174L400,173L399,173L398,173L398,173L398,173L397,174L397,175L397,176L397,178L397,179L397,180L396,181L397,181L398,182L399,182L400,183L400,183L402,183L403,182L404,182L405,182L407,183L408,183L409,184L410,184L411,184Z " data-fips="CI08" data-hasc="CL.LI" data-name="Libertador General Bernardo O'Higgins" data-postal="LI" data-varname="Libertador"/><path d="M402,276L402,275L401,275L402,274L401,273L401,272L400,271L400,270L401,270L401,269L401,268L399,268L398,267L399,266L398,263L398,262L399,261L398,260L399,259L399,258L400,258L401,257L401,256L401,255L400,254L400,253L400,252L400,251L400,250L400,249L400,248L400,246L400,245L399,244L399,243L400,242L399,243L398,243L396,243L395,243L393,242L392,242L391,241L391,240L389,240L388,240L387,239L386,239L385,239L384,239L384,240L384,241L384,242L384,243L384,244L384,246L383,246L383,248L384,249L384,250L384,252L385,253L386,253L387,252L386,253L386,253L386,253L385,254L386,254L387,255L388,255L390,254L391,254L390,253L391,252L392,252L393,252L394,253L394,254L395,253L396,252L397,250L396,252L396,253L395,254L394,254L393,254L393,255L393,256L394,257L395,257L395,257L396,258L396,259L396,260L396,261L394,259L393,260L394,261L394,262L393,262L393,263L393,264L393,265L393,266L394,267L394,268L393,267L392,268L392,270L391,270L391,271L391,272L392,274L392,275L393,274L394,274L395,275L396,275L397,275L398,276L399,277L400,277L401,277L402,278Z M388,262L386,261L387,262L388,263Z M386,271L386,270L386,269L387,269L388,268L387,267L387,266L388,265L387,265L386,264L385,263L386,263L386,262L386,261L387,260L388,260L388,259L387,258L387,257L387,256L387,255L386,255L385,255L384,256L384,255L383,256L383,257L383,258L383,259L382,260L382,261L382,262L382,263L382,265L382,266L382,267L382,268L381,269L381,270L382,271L383,271L384,271L385,271Z " data-fips="CI09" data-hasc="CL.LL" data-name="Los Lagos" data-postal="LL" data-varname="X"/><path d="M407,199L408,199L408,197L409,197L410,196L411,196L411,195L411,194L411,193L411,191L411,190L411,188L410,187L410,186L411,185L411,184L410,184L409,184L408,183L407,183L405,182L404,182L403,182L402,183L400,183L400,183L399,182L398,182L397,181L396,181L396,182L396,183L395,184L395,185L394,186L394,187L393,188L393,189L392,190L392,191L392,192L392,193L391,194L391,195L392,195L393,195L393,195L397,195L399,196L403,198L404,198L405,198L406,199L406,199Z " data-fips="CI06" data-hasc="CL.ML" data-name="Maule" data-postal="ML" data-varname="VII"/></g></svg>