<?xml version="1.0" ?><!DOCTYPE svg  PUBLIC '-//W3C//DTD SVG 1.1//EN'  'http://www.w3.org/Graphics/SVG/1.1/DTD/svg11.dtd'><svg enable_background="new 0 0 500 401" height="401px" style="stroke-linejoin: round; stroke:#000; fill:#f6f3f0;" version="1.1" viewBox="0 0 500 401" width="500px" xmlns="http://www.w3.org/2000/svg" xmlns:xlink="http://www.w3.org/1999/xlink"><defs><style type="text/css"><![CDATA[path { fill-rule: evenodd; }
#context path { fill: #eee; stroke: #bbb; } ]]></style></defs><metadata><views><view h="401" padding="0" w="500"><proj id="laea" lat0="-9.326" lon0="-75.552"/><bbox h="226.34" w="154.12" x="928.6" y="885.39"/><llbbox lat0="-90" lat1="90" lon0="-180" lon1="180"/></view></views></metadata><g id="admin1"><path d="M151,155L155,151L159,151L159,149L160,148L161,147L162,146L162,145L160,145L159,145L158,143L157,142L156,141L156,140L156,139L156,138L156,137L157,136L159,136L160,135L159,134L159,133L161,131L160,130L159,130L158,130L157,130L155,129L154,129L153,129L152,129L151,128L150,127L149,127L149,126L149,125L148,124L148,123L146,122L145,121L145,123L145,125L145,126L144,127L137,129L134,133L133,135L131,137L130,139L130,139L134,140L138,142L141,144L144,147L145,148L145,149L147,151L148,152L150,154L150,156Z " data-fips="PE14" data-hasc="PE.LB" data-name="Lambayeque" data-postal="LB" data-varname=""/><path d="M131,137L133,135L134,133L137,129L144,127L145,126L145,125L145,123L145,121L146,122L148,123L148,124L149,125L149,126L149,127L150,127L151,128L152,129L153,129L154,129L155,129L156,130L157,128L157,127L157,126L157,125L156,124L157,123L157,121L157,120L157,119L158,119L158,116L157,115L157,114L157,112L158,110L159,109L159,108L160,108L158,107L158,106L157,105L156,105L155,103L155,102L154,101L154,100L154,98L153,98L151,96L149,97L147,97L146,96L145,95L144,95L143,95L142,93L141,93L139,93L139,94L138,95L136,97L135,97L134,97L133,97L133,95L136,91L135,91L133,91L133,91L133,91L133,89L132,88L132,88L130,91L128,91L126,91L125,91L123,91L122,90L120,89L120,89L119,90L118,91L116,93L115,94L116,96L115,97L115,98L115,99L115,100L114,101L114,102L115,103L117,106L118,106L119,108L120,109L119,110L118,110L118,112L118,113L118,114L119,115L121,116L123,119L124,121L125,123L125,125L124,126L123,127L122,127L120,126L119,127L118,128L118,130L119,131L119,132L121,133L123,134L124,135L125,136L126,136L127,137L128,138L130,139Z " data-fips="PE20" data-hasc="PE.PI" data-name="Piura" data-postal="PI" data-varname=""/><path d="M130,91L132,88L132,88L132,88L133,87L134,86L135,87L136,87L137,86L138,86L140,84L139,83L139,82L138,81L138,80L139,79L138,78L138,77L138,76L137,75L137,74L136,74L135,75L134,76L133,76L132,77L130,79L127,81L125,82L125,83L124,84L123,85L122,86L120,89L122,90L123,91L125,91L126,91L128,91Z " data-fips="PE24" data-hasc="PE.TU" data-name="Tumbes" data-postal="TU" data-varname="Tumbez"/><path d="M284,321L285,321L286,320L287,319L288,319L289,319L291,319L292,318L293,318L294,318L295,318L296,319L297,320L298,319L299,318L300,319L302,319L303,319L305,317L304,316L305,315L306,315L307,314L308,313L309,313L310,312L311,311L311,310L313,309L313,307L313,303L313,302L312,300L312,299L310,298L309,297L308,297L307,296L306,295L305,295L303,295L302,294L300,293L299,292L297,292L296,291L295,291L294,291L293,291L292,292L290,292L289,292L289,293L287,292L286,292L284,291L282,290L279,288L278,287L277,287L277,288L277,289L276,290L276,292L277,293L277,295L277,296L278,296L279,297L279,299L278,299L281,304L281,305L281,307L282,308L283,309L283,310L283,312L283,313L282,315L283,316L283,317L283,319L282,319L283,322Z " data-fips="PE03" data-hasc="PE.AP" data-name="Apurmac" data-postal="AP" data-varname="Apuromac"/><path d="M326,375L326,374L327,373L328,371L328,370L326,369L326,368L326,366L326,365L328,364L329,364L329,363L329,361L330,360L331,359L333,358L334,358L335,358L336,357L336,356L336,355L338,354L338,352L339,348L339,347L339,346L338,345L337,344L337,343L338,342L337,340L336,339L335,338L335,337L335,336L335,333L335,333L334,332L333,331L332,331L332,330L332,329L331,328L330,328L329,328L327,327L326,327L325,327L325,328L324,328L322,328L321,328L318,327L318,326L318,325L318,324L318,323L317,322L316,321L315,319L314,319L314,320L314,321L314,322L313,323L312,322L311,321L310,322L309,322L308,322L306,322L305,320L303,319L302,319L300,319L299,318L298,319L297,320L297,321L296,322L295,322L294,322L293,323L293,324L294,325L293,327L293,328L293,329L291,330L290,332L289,332L288,332L288,333L287,334L285,334L284,334L282,335L280,335L278,335L274,336L274,337L273,338L271,338L271,336L270,335L269,336L267,336L266,336L265,335L265,334L264,333L263,332L263,331L263,330L262,329L260,329L258,328L257,327L252,331L252,332L251,333L250,335L251,335L252,336L256,338L257,339L258,339L262,341L263,342L263,343L265,344L267,344L268,345L269,345L272,347L272,348L274,349L276,350L278,351L279,352L280,352L281,352L283,353L285,354L287,355L287,356L288,356L289,356L290,357L292,358L296,359L299,361L302,362L303,362L305,363L306,364L307,364L308,366L309,367L310,367L310,368L311,369L312,370L314,370L316,371L317,373L318,374L322,374L322,375L324,376L325,376Z " data-fips="PE04" data-hasc="PE.AR" data-name="Arequipa" data-postal="AR" data-varname=""/><path d="M335,333L336,332L336,330L336,329L336,328L335,327L336,326L336,324L336,323L335,321L334,321L333,319L334,318L335,318L336,317L336,316L336,315L337,314L338,313L339,311L340,309L340,307L340,306L339,305L340,303L340,302L340,300L343,300L343,299L345,295L346,293L347,292L349,290L350,289L350,288L350,286L350,283L349,283L348,283L347,283L345,284L346,284L346,285L343,285L337,284L336,284L333,282L330,281L327,280L326,280L324,280L319,278L318,277L317,276L317,274L318,273L318,272L317,271L317,269L316,268L315,267L314,267L313,266L312,264L312,263L310,262L308,260L307,258L308,257L308,254L309,253L311,248L312,247L311,245L310,246L309,245L308,246L307,246L306,247L305,248L303,248L302,248L301,247L300,246L299,247L297,246L296,246L296,245L295,244L294,243L293,245L292,245L289,245L287,245L285,246L285,246L284,248L283,250L281,252L280,253L281,253L283,254L284,254L284,255L284,257L281,261L281,262L281,264L280,265L279,266L276,266L274,267L275,268L276,269L276,270L276,271L277,272L279,274L280,275L281,277L281,278L281,280L282,281L282,282L283,284L284,285L284,286L285,287L286,288L287,289L288,290L289,291L290,292L292,292L293,291L294,291L295,291L296,291L297,292L299,292L300,293L302,294L303,295L305,295L306,295L307,296L308,297L309,297L310,298L312,299L312,300L313,302L313,303L313,307L313,309L311,310L311,311L310,312L309,313L308,313L307,314L306,315L305,315L304,316L305,317L305,320L306,322L308,322L309,322L310,322L311,321L312,322L313,323L314,322L314,321L314,320L314,319L315,319L316,321L317,322L318,323L318,324L318,325L318,326L318,327L321,328L322,328L324,328L325,328L325,327L326,327L327,327L329,328L330,328L331,328L332,329L332,330L332,331L333,331L334,332L335,333L335,333Z " data-fips="PE08" data-hasc="PE.CS" data-name="Cusco" data-postal="CS" data-varname="Cuzco|Qosqo"/><path d="M379,284L379,282L379,280L380,279L381,279L382,278L384,277L385,276L383,276L384,275L385,274L386,272L368,240L367,239L364,239L362,238L361,238L360,238L353,241L352,241L351,241L350,241L349,240L348,238L347,238L345,239L345,216L342,219L341,220L341,221L341,224L340,226L340,227L337,229L337,230L335,231L334,231L333,232L332,233L330,234L320,239L316,238L315,238L313,237L313,238L314,241L312,243L312,244L312,247L311,248L309,253L308,254L308,257L307,258L308,260L310,262L312,263L312,264L313,266L314,267L315,267L316,268L317,269L317,271L318,272L318,273L317,274L317,276L318,277L319,278L324,280L326,280L327,280L330,281L333,282L336,284L337,284L343,285L346,285L346,284L345,284L347,283L348,283L349,283L350,283L351,283L366,291Z " data-fips="PE17" data-hasc="PE.MD" data-name="Madre de Dios" data-postal="MD" data-varname=""/><path d="M363,376L363,376L363,375L364,374L366,373L367,372L368,372L368,371L369,370L370,369L372,366L373,364L374,364L376,363L376,362L376,361L376,359L378,358L380,356L380,355L379,354L377,353L376,353L375,354L374,353L373,353L372,352L369,341L369,340L370,337L371,336L372,335L372,334L373,333L374,333L374,331L373,330L372,329L370,327L370,326L370,325L370,323L371,322L372,322L373,321L374,317L375,317L375,316L377,315L378,313L378,312L378,310L379,310L381,310L381,309L381,307L380,306L379,305L379,303L378,302L378,301L378,299L377,298L377,297L378,297L378,296L379,295L379,294L380,290L379,287L379,284L366,291L351,283L350,283L350,286L350,288L350,289L349,290L347,292L346,293L345,295L343,299L343,300L340,300L340,302L340,303L339,305L340,306L340,307L340,309L339,311L338,313L337,314L336,315L336,316L336,317L335,318L334,318L333,319L334,321L335,321L336,323L336,324L336,326L335,327L336,328L336,329L336,330L336,332L335,333L335,333L335,336L335,337L335,338L336,339L337,340L338,342L337,343L337,344L338,345L339,346L339,347L339,348L340,348L341,349L342,349L343,349L344,348L346,349L347,349L348,350L348,351L348,352L349,354L349,355L349,356L349,357L350,359L351,359L352,361L353,362L354,362L355,362L355,364L354,364L353,365L352,366L352,368L354,370L355,372L356,373L357,374L358,375L360,375L361,376L362,377Z " data-fips="PE21" data-hasc="PE.CL" data-name="Callao" data-postal="CL" data-varname="El Callao"/><path d="M331,386L332,385L334,384L335,383L336,383L337,381L338,380L339,379L339,378L340,376L341,375L342,375L343,374L345,372L346,371L346,370L346,369L346,368L346,367L347,366L348,366L349,367L350,368L352,368L352,366L353,365L354,364L355,364L355,362L354,362L353,362L352,361L351,359L350,359L349,357L349,356L349,355L349,354L348,352L348,351L348,350L347,349L346,349L344,348L343,349L342,349L341,349L340,348L339,348L338,352L338,354L336,355L336,356L336,357L335,358L334,358L333,358L331,359L330,360L329,361L329,363L329,364L328,364L326,365L326,366L326,368L326,369L328,370L328,371L327,373L326,374L326,375L325,376L325,377L326,378L326,379L327,380L327,383L327,385L328,385L329,385L330,386L331,387Z " data-fips="PE18" data-hasc="PE.MQ" data-name="Moquegua" data-postal="MQ" data-varname=""/><path d="M352,399L354,398L356,397L357,396L357,395L358,394L360,391L360,390L359,388L358,387L358,385L360,384L362,384L363,384L366,381L366,380L365,378L365,377L364,377L363,376L362,377L361,376L360,375L358,375L357,374L356,373L355,372L354,370L352,368L352,368L350,368L349,367L348,366L347,366L346,367L346,368L346,369L346,370L346,371L345,372L343,374L342,375L341,375L340,376L339,378L339,379L338,380L337,381L336,383L335,383L334,384L332,385L331,386L331,387L332,387L333,389L335,389L336,390L336,391L337,392L338,392L340,394L341,395L343,396L344,396L345,398L346,399L347,399L348,399L351,399Z " data-fips="PE23" data-hasc="PE.TA" data-name="Tacna" data-postal="TA" data-varname=""/><path d="M199,233L200,232L201,231L204,229L205,228L206,227L206,225L207,225L210,223L210,222L211,221L211,219L210,219L209,218L209,217L209,215L208,213L207,212L208,211L210,208L210,207L212,202L214,199L214,198L213,198L211,197L211,196L209,195L208,194L207,193L206,193L204,191L204,190L203,189L203,188L202,186L202,184L201,183L200,181L198,179L197,178L195,176L195,175L194,174L193,175L191,175L190,175L189,175L189,176L188,177L185,181L184,182L184,183L183,184L182,185L183,186L181,188L180,188L179,189L176,190L175,191L175,191L174,194L173,195L173,195L174,197L175,197L175,198L174,199L175,200L175,199L176,199L177,200L176,201L177,202L178,203L178,204L179,205L179,206L179,207L180,210L182,213L182,214L182,216L183,216L183,217L184,219L184,220L185,221L185,222L186,224L187,225L187,226L188,227L189,228L190,230L191,229L192,228L192,227L192,226L193,225L194,225L195,226L194,227L193,228L195,228L195,229L196,230L196,231L196,232L197,233Z " data-fips="PE02" data-hasc="PE.AN" data-name="Ancash" data-postal="AN" data-varname="Ancachs"/><path d="M182,168L183,167L185,166L186,167L187,166L188,166L189,165L189,164L189,163L191,162L192,161L191,160L191,159L190,158L190,156L189,156L188,155L188,153L187,152L187,151L187,150L187,149L187,148L187,146L185,144L185,142L184,141L183,140L181,139L180,138L179,136L178,134L177,133L176,132L175,132L174,131L173,130L172,129L171,127L170,126L171,125L171,124L171,123L172,122L173,120L174,119L174,118L174,116L173,113L173,112L173,110L174,108L174,108L174,107L174,105L173,104L173,102L172,99L171,99L169,100L168,101L167,102L167,103L167,104L167,105L165,106L165,107L164,109L163,108L162,108L160,108L159,108L159,109L158,110L157,112L157,114L157,115L158,116L158,119L157,119L157,120L157,121L157,123L156,124L157,125L157,126L157,127L157,128L156,130L157,130L158,130L159,130L160,130L161,131L159,133L159,134L160,135L159,136L157,136L156,137L156,138L156,139L156,140L156,141L157,142L158,143L159,145L160,145L162,145L162,146L161,147L160,148L159,149L159,151L158,156L158,157L157,158L158,159L159,160L161,160L162,161L163,162L164,163L164,165L164,166L166,167L166,166L167,165L168,165L169,165L171,164L172,164L173,164L175,164L176,165L178,166L179,166L180,167L181,167L181,168Z " data-fips="PE06" data-hasc="PE.CJ" data-name="Cajamarca" data-postal="CJ" data-varname="Caxamarca"/><path d="M235,225L235,224L235,223L234,219L234,218L234,217L235,216L236,215L237,215L239,214L241,214L243,214L245,214L250,212L252,212L257,211L262,209L259,205L258,204L258,203L258,202L259,200L259,198L259,196L259,195L260,194L261,191L262,190L262,188L262,187L261,187L259,187L258,187L256,188L254,189L252,190L251,191L250,192L248,195L248,196L247,197L247,198L246,199L245,200L244,201L243,201L240,203L239,204L237,203L236,201L235,200L235,198L235,197L234,195L233,195L232,190L231,189L231,187L230,187L229,188L228,189L227,189L227,188L226,186L226,185L225,184L224,183L224,182L223,182L223,183L223,185L222,186L221,186L217,186L215,185L214,185L212,185L211,187L210,186L209,186L209,185L207,184L206,184L205,185L203,185L202,186L203,188L203,189L204,190L204,191L206,193L207,193L208,194L209,195L211,196L211,197L213,198L214,198L214,199L212,202L210,207L210,208L208,211L207,212L208,213L209,215L209,217L209,218L210,219L211,219L211,221L210,222L210,223L211,224L212,224L213,225L213,226L216,225L218,223L219,222L222,222L224,223L225,224L226,225L230,225L231,225L232,226Z " data-fips="PE10" data-hasc="PE.HC" data-name="Hunuco" data-postal="HC" data-varname="Huknuco"/><path d="M174,194L175,191L175,191L176,190L179,189L180,188L181,188L183,186L182,185L183,184L184,183L184,182L185,181L188,177L189,176L189,175L190,175L191,175L193,175L194,174L195,175L195,176L197,178L198,179L200,181L201,183L202,184L203,185L205,185L206,184L207,184L209,185L209,186L210,186L211,187L212,185L211,184L211,179L209,177L208,176L206,175L203,175L202,175L201,174L200,174L200,172L200,171L199,170L199,169L199,167L199,166L199,164L198,163L198,162L197,161L196,160L195,159L195,158L196,156L195,155L194,154L194,153L193,151L191,152L190,151L189,152L187,152L188,153L188,155L189,156L190,156L190,158L191,159L191,160L192,161L191,162L189,163L189,164L189,165L188,166L187,166L186,167L185,166L183,167L182,168L181,168L181,167L180,167L179,166L178,166L176,165L175,164L173,164L172,164L171,164L169,165L168,165L167,165L166,166L166,167L164,166L164,165L164,163L163,162L162,161L161,160L159,160L158,159L157,158L158,157L158,156L155,151L151,155L150,156L151,156L152,158L153,159L153,160L153,161L153,162L156,165L156,167L156,168L158,171L159,172L162,174L163,176L166,178L166,179L167,182L167,183L168,184L169,184L170,185L170,186L171,187L171,189L171,190L172,192L173,193L173,195Z " data-fips="PE13" data-hasc="PE.LL" data-name="La Libertad" data-postal="LL" data-varname="Libertad"/><path d="M225,239L225,238L224,237L225,237L227,237L228,236L230,235L231,236L236,236L240,234L242,234L244,234L246,233L249,232L251,232L252,232L253,232L254,233L255,234L257,235L259,235L263,235L264,234L266,232L267,231L268,230L270,229L269,228L267,228L267,227L266,225L265,223L266,220L265,219L264,217L264,215L264,213L263,211L263,210L262,209L257,211L252,212L250,212L245,214L243,214L241,214L239,214L237,215L236,215L235,216L234,217L234,218L234,219L235,223L235,224L235,225L232,226L231,225L230,225L226,225L225,224L224,223L222,222L219,222L218,223L216,225L215,228L216,230L217,232L217,234L218,235L218,237L219,239L220,239L220,241L222,241Z " data-fips="PE19" data-hasc="PE.PA" data-name="Pasco" data-postal="PA" data-varname=""/><path d="M229,188L230,187L232,183L232,182L233,180L235,178L235,177L235,176L234,173L229,162L229,161L228,160L228,159L229,154L228,153L228,151L228,150L229,148L231,146L232,146L233,146L234,147L235,147L238,150L239,150L240,149L241,146L241,145L241,144L242,137L242,136L241,135L239,133L238,133L236,133L234,132L232,132L230,132L228,132L227,131L225,130L224,128L223,128L222,128L218,131L217,131L216,130L214,129L214,128L213,126L212,125L211,123L209,123L205,123L203,122L202,121L202,120L201,120L199,119L196,118L195,116L194,117L193,119L194,121L193,122L193,124L195,128L196,129L197,130L198,131L201,131L203,132L204,133L204,134L205,135L205,136L205,138L203,140L202,141L202,142L201,143L199,143L198,143L196,143L195,143L194,142L193,143L193,144L193,145L193,147L192,149L192,151L193,151L194,153L194,154L195,155L196,156L195,158L195,159L196,160L197,161L198,162L198,163L199,164L199,166L199,167L199,169L199,170L200,171L200,172L200,174L201,174L202,175L203,175L206,175L208,176L209,177L211,179L211,184L212,185L214,185L215,185L217,186L221,186L222,186L223,185L223,183L223,182L224,182L224,183L225,184L226,185L226,186L227,188L227,189L228,189Z " data-fips="PE22" data-hasc="PE.SM" data-name="San Martn" data-postal="SM" data-varname="San Mart"/><path d="M305,248L306,247L307,246L308,246L309,245L310,246L311,245L312,244L312,243L314,241L313,238L313,237L315,238L316,238L320,239L330,234L332,233L333,232L334,231L335,231L337,230L337,229L340,227L340,226L341,224L341,221L341,220L342,219L345,216L345,214L346,213L347,212L347,212L347,210L346,209L346,208L347,208L347,207L348,206L348,205L347,205L346,206L344,207L343,208L341,209L340,210L339,211L338,212L337,213L336,214L334,215L333,216L332,217L330,217L329,217L312,216L312,215L312,214L312,213L310,211L310,209L310,208L310,207L308,207L307,206L306,206L304,206L303,205L301,205L299,204L291,203L292,202L293,201L294,200L294,199L295,198L296,197L295,195L294,194L293,193L292,190L291,189L290,188L289,188L288,188L287,186L287,184L286,183L285,182L283,181L283,179L282,177L282,176L281,175L281,174L279,173L278,172L278,171L280,170L280,169L278,168L277,167L274,164L274,163L273,162L272,162L269,161L267,160L265,160L264,160L262,159L261,159L260,160L261,161L261,165L261,166L262,168L261,171L260,172L259,172L254,173L251,174L250,175L249,175L248,176L244,175L244,177L243,178L242,178L241,178L241,180L242,181L243,183L243,184L241,183L240,182L238,182L238,182L237,183L235,184L234,185L233,186L231,187L231,189L232,190L233,195L234,195L235,197L235,198L235,200L236,201L237,203L239,204L240,203L243,201L244,201L245,200L246,199L247,198L247,197L248,196L248,195L250,192L251,191L252,190L254,189L256,188L258,187L259,187L261,187L262,187L262,188L262,190L261,191L260,194L259,195L259,196L259,198L259,200L258,202L258,203L258,204L259,205L262,209L263,210L263,211L264,213L264,215L264,217L265,219L266,220L265,223L266,225L267,227L267,228L269,228L270,229L268,230L267,231L266,232L264,234L263,235L263,237L263,238L264,239L265,240L266,239L267,239L268,239L270,238L271,238L273,238L275,238L276,237L277,235L279,233L280,234L281,234L282,235L282,236L283,237L284,239L284,243L284,245L285,246L287,245L289,245L292,245L293,245L294,243L295,244L296,245L296,246L297,246L299,247L300,246L301,247L302,248L303,248Z " data-fips="PE25" data-hasc="PE.UC" data-name="Ucayali" data-postal="UC" data-varname=""/><path d="M189,152L190,151L191,152L193,151L192,151L192,149L193,147L193,145L193,144L193,143L194,142L195,143L196,143L198,143L199,143L201,143L202,142L202,141L203,140L205,138L205,136L205,135L204,134L204,133L203,132L201,131L198,131L197,130L196,129L195,128L193,124L193,122L194,121L193,119L194,117L195,116L193,113L193,111L192,108L192,107L192,106L192,105L192,103L193,102L193,101L194,100L195,99L195,97L196,96L196,95L196,94L196,92L196,88L197,87L197,86L196,84L196,83L195,82L195,81L195,79L195,78L194,77L194,75L194,74L193,73L192,70L192,68L191,66L191,64L190,64L188,66L186,69L184,70L184,72L183,73L183,74L183,75L182,75L181,73L180,73L179,74L179,75L179,76L178,78L178,79L178,80L178,82L177,83L176,84L175,86L175,86L174,89L173,92L172,94L172,95L173,96L172,97L172,98L172,99L173,102L173,104L174,105L174,107L174,108L174,108L173,110L173,112L173,113L174,116L174,118L174,119L173,120L172,122L171,123L171,124L171,125L170,126L171,127L172,129L173,130L174,131L175,132L176,132L177,133L178,134L179,136L180,138L181,139L183,140L184,141L185,142L185,144L187,146L187,148L187,149L187,150L187,151L187,152Z " data-fips="PE01" data-hasc="PE.AM" data-name="Amazonas" data-postal="AM" data-varname=""/><path d="M233,186L234,185L235,184L237,183L238,182L238,182L240,182L241,183L243,184L243,183L242,181L241,180L241,178L242,178L243,178L244,177L244,175L248,176L249,175L250,175L251,174L254,173L259,172L260,172L261,171L262,168L261,166L261,165L261,161L260,160L261,159L262,159L264,160L265,160L267,160L269,161L272,162L273,162L274,163L274,162L275,161L274,159L276,159L278,159L279,159L280,158L279,156L278,154L278,153L279,151L279,149L280,147L281,147L282,146L284,145L286,143L288,142L289,142L290,142L291,141L292,139L292,138L292,136L291,134L290,133L290,132L291,130L292,127L293,127L295,124L296,122L296,120L296,119L296,118L297,116L297,115L298,114L297,112L297,111L298,111L299,110L301,110L302,110L303,110L303,109L304,108L306,107L307,107L307,106L308,105L309,104L310,103L311,103L312,103L313,102L315,101L315,100L317,100L318,99L319,98L319,98L322,97L323,97L324,98L325,97L327,97L328,96L329,96L330,96L331,96L332,96L333,95L334,96L335,95L336,95L337,95L339,94L340,95L340,94L341,93L342,92L342,91L344,90L346,90L347,89L347,90L348,91L349,90L350,91L352,90L352,90L353,90L354,91L354,93L356,94L356,94L357,93L358,93L359,94L360,94L361,93L361,92L360,90L359,89L356,88L356,86L355,85L355,84L353,83L352,83L351,84L350,84L349,84L345,82L360,59L359,58L359,57L357,58L356,57L355,57L355,55L354,55L353,55L353,54L352,54L351,54L350,53L349,53L348,52L348,53L347,53L346,52L346,51L345,50L343,50L342,48L340,48L338,48L338,49L337,49L336,49L336,50L334,51L333,50L332,50L330,51L330,50L330,49L329,49L328,50L327,48L326,48L325,47L324,47L323,47L322,46L321,47L320,48L319,49L318,50L316,50L315,51L314,52L311,52L310,53L309,53L308,52L305,51L304,51L303,51L302,52L301,52L299,51L298,52L297,52L296,50L293,50L292,49L291,48L292,47L293,46L293,44L292,43L292,41L292,40L291,39L291,38L290,37L289,38L288,38L287,38L286,37L284,36L284,34L285,33L285,31L284,31L283,30L283,29L282,28L282,27L281,26L280,26L279,25L278,26L277,25L276,25L275,23L274,23L273,23L272,21L271,22L270,21L269,21L268,20L267,19L267,18L267,17L266,16L265,15L266,14L265,12L264,11L263,10L262,9L261,8L260,7L259,7L258,6L257,6L257,5L257,4L256,3L254,4L253,3L252,3L252,2L251,2L250,1L249,0L248,0L247,0L247,1L246,2L245,3L243,3L242,3L240,2L239,2L238,2L238,3L239,3L240,4L241,5L242,7L243,8L244,9L245,10L246,10L246,11L246,12L246,13L246,14L246,16L247,19L247,20L246,20L244,20L243,19L240,32L239,33L238,34L228,46L217,54L215,55L191,64L191,66L192,68L192,70L193,73L194,74L194,75L194,77L195,78L195,79L195,81L195,82L196,83L196,84L197,86L197,87L196,88L196,92L196,94L196,95L196,96L195,97L195,99L194,100L193,101L193,102L192,103L192,105L192,106L192,107L192,108L193,111L193,113L195,116L196,118L199,119L201,120L202,120L202,121L203,122L205,123L209,123L211,123L212,125L213,126L214,128L214,129L216,130L217,131L218,131L222,128L223,128L224,128L225,130L227,131L228,132L230,132L232,132L234,132L236,133L238,133L239,133L241,135L242,136L242,137L241,144L241,145L241,146L240,149L239,150L238,150L235,147L234,147L233,146L232,146L231,146L229,148L228,150L228,151L228,153L229,154L228,159L228,160L229,161L229,162L234,173L235,176L235,177L235,178L233,180L232,182L232,183L231,187Z " data-fips="PE16" data-hasc="PE.LO" data-name="Loreto" data-postal="LO" data-varname=""/><path d="M273,338L274,337L274,336L278,335L280,335L282,335L284,334L285,334L287,334L288,333L288,332L289,332L290,332L291,330L293,329L293,328L293,327L294,325L293,324L293,323L294,322L295,322L296,322L297,321L297,320L296,319L295,318L294,318L293,318L292,318L291,319L289,319L288,319L287,319L286,320L285,321L284,321L283,322L282,319L283,319L283,317L283,316L282,315L283,313L283,312L283,310L283,309L282,308L281,307L281,305L281,304L278,299L279,299L279,297L278,296L277,296L277,295L277,293L276,292L276,290L277,289L277,288L277,287L278,287L279,288L282,290L284,291L286,292L287,292L289,293L289,292L289,291L288,290L287,289L286,288L285,287L284,286L284,285L283,284L282,282L282,281L281,280L281,278L281,277L280,275L279,274L277,272L276,271L276,270L276,269L275,268L274,267L272,266L271,266L270,267L269,267L268,267L267,266L267,265L265,264L263,264L262,266L262,268L261,269L263,270L264,270L265,272L266,274L266,275L266,276L267,277L266,278L266,279L266,281L267,282L267,283L265,282L264,283L264,284L264,285L264,286L263,286L261,286L260,286L260,287L258,288L259,289L260,290L259,290L258,290L257,290L256,289L255,289L254,290L253,292L254,292L255,293L256,294L256,295L256,297L257,299L257,300L258,302L257,304L257,305L255,305L251,306L250,308L250,310L249,312L249,313L250,313L251,314L250,315L251,317L252,317L253,316L254,316L255,317L255,319L257,320L257,321L257,322L258,323L258,324L258,325L257,327L258,328L260,329L262,329L263,330L263,331L263,332L264,333L265,334L265,335L266,336L267,336L269,336L270,335L271,336L271,338Z " data-fips="PE09" data-hasc="PE.AY" data-name="Ayacucho" data-postal="AY" data-varname=""/><path d="M214,271L214,270L215,269L216,268L216,267L217,266L216,265L216,264L215,263L215,262L216,262L215,261L214,261L215,260L216,259L215,258L214,258L213,258L212,259L211,259L211,258L210,257L211,256L212,255L212,254L211,254L209,254L209,253L208,252L208,251L207,251L207,252L206,253L205,253L205,254L205,255L205,256L206,258L206,259L206,260L207,261L208,263L208,265L209,265L210,266L212,267L213,269L214,270L214,271Z " data-fips="" data-hasc="PE.LR" data-name="Lima Province" data-postal="" data-varname="Federal capital"/><path d="M255,305L257,305L257,304L258,302L257,300L257,299L256,297L256,295L256,294L255,293L254,292L253,292L254,290L255,289L256,289L257,290L258,290L259,290L260,290L259,289L258,288L260,287L260,286L261,286L263,286L264,286L264,285L264,284L264,283L265,282L267,283L267,282L266,281L266,279L266,278L267,277L266,276L266,275L266,274L265,272L264,270L263,270L261,269L262,268L262,266L263,264L264,263L261,261L259,260L258,260L257,261L256,261L255,261L254,261L252,261L251,261L250,260L250,261L249,261L250,262L250,263L250,264L249,266L249,267L249,268L247,269L246,270L245,271L244,272L243,273L242,274L242,275L242,276L241,278L240,278L239,279L238,282L238,282L238,283L237,284L237,286L236,287L236,288L235,289L235,290L236,291L237,291L239,291L240,292L241,292L241,294L240,295L241,297L240,299L240,299L240,301L241,302L242,302L243,303L244,303L245,304L246,304L247,305L248,306L249,306L251,306Z " data-fips="PE09" data-hasc="PE.HV" data-name="Huancavelica" data-postal="HV" data-varname=""/><path d="M251,333L252,332L252,331L257,327L258,325L258,324L258,323L257,322L257,321L257,320L255,319L255,317L254,316L253,316L252,317L251,317L250,315L251,314L250,313L249,313L249,312L250,310L250,308L249,306L248,306L247,305L246,304L245,304L244,303L243,303L242,302L241,302L240,301L240,299L240,299L241,297L240,295L241,294L241,292L240,292L239,291L237,291L236,291L235,290L235,289L236,288L236,287L237,286L237,284L238,283L238,282L238,282L238,282L237,282L235,283L233,283L231,282L231,284L227,286L226,288L225,289L226,290L227,292L227,294L226,296L226,297L226,298L225,299L224,300L224,299L223,300L222,301L223,302L224,302L225,304L225,305L224,306L225,307L226,307L227,308L228,309L227,311L228,312L229,312L230,313L231,314L231,315L232,316L232,318L234,319L235,320L236,320L237,322L238,322L240,323L241,324L241,325L242,326L243,327L244,329L246,329L247,330L247,331L248,332L248,334L249,334L250,335Z " data-fips="PE11" data-hasc="PE.IC" data-name="Ica" data-postal="IC" data-varname=""/><path d="M242,274L243,273L244,272L245,271L246,270L247,269L249,268L249,267L249,266L250,264L250,263L250,262L249,261L250,261L250,260L251,261L252,261L254,261L255,261L256,261L257,261L258,260L259,260L261,261L264,263L265,264L267,265L267,266L268,267L269,267L270,267L271,266L272,266L276,266L279,266L280,265L281,264L281,262L281,261L284,257L284,255L284,254L283,254L281,253L280,253L281,252L283,250L284,248L285,246L285,246L284,245L284,243L284,239L283,237L282,236L282,235L281,234L280,234L279,233L277,235L276,237L275,238L273,238L271,238L270,238L268,239L267,239L266,239L265,240L264,239L263,238L263,237L259,235L257,235L255,234L254,233L253,232L252,232L251,232L249,232L246,233L244,234L242,234L240,234L236,236L231,236L230,235L228,236L227,237L225,237L224,237L225,238L225,239L222,241L220,241L220,242L220,245L222,247L223,250L224,251L225,251L226,252L226,254L226,255L227,256L228,257L229,258L230,260L231,260L232,260L233,260L235,261L235,261L237,262L238,263L238,265L240,268L240,269L240,271L240,272L240,274L241,274L242,275Z " data-fips="PE12" data-hasc="PE.JU" data-name="Junn" data-postal="JU" data-varname="Junnn"/><path d="M226,288L227,286L231,284L231,282L233,283L235,283L237,282L238,282L238,282L239,279L240,278L241,278L242,276L242,275L241,274L240,274L240,272L240,271L240,269L240,268L238,265L238,263L237,262L235,261L235,261L233,260L232,260L231,260L230,260L229,258L228,257L227,256L226,255L226,254L226,252L225,251L224,251L223,250L222,247L220,245L220,242L220,241L220,239L219,239L218,237L218,235L217,234L217,232L216,230L215,228L213,226L213,225L212,224L211,224L210,223L207,225L206,225L206,227L205,228L204,229L201,231L200,232L199,233L197,233L196,232L196,231L196,230L195,229L195,228L193,228L194,227L195,226L194,225L193,225L192,226L192,227L192,228L191,229L190,230L191,232L192,232L192,233L193,234L194,236L194,237L195,238L195,239L195,240L196,242L196,243L195,243L195,245L196,246L200,248L201,248L202,249L203,250L203,251L204,252L205,253L206,253L207,252L207,251L208,251L208,252L209,253L209,254L211,254L212,254L212,255L211,256L210,257L211,258L211,259L212,259L213,258L214,258L215,258L216,259L215,260L214,261L215,261L216,262L215,262L215,263L216,264L216,265L217,266L216,267L216,268L215,269L214,270L214,271L214,271L215,272L216,274L216,275L218,277L219,279L219,280L220,282L220,283L223,286L224,288L225,289Z " data-fips="PE15" data-hasc="PE.LR" data-name="Lima" data-postal="LR" data-varname="Lima province"/><path d="M207,261L206,260L206,261L205,262Z " data-fips="" data-hasc="" data-name="Callao" data-postal="LR" data-varname="Region"/></g></svg>