<?xml version="1.0" ?><!DOCTYPE svg  PUBLIC '-//W3C//DTD SVG 1.1//EN'  'http://www.w3.org/Graphics/SVG/1.1/DTD/svg11.dtd'><svg enable_background="new 0 0 500 401" height="401px" style="stroke-linejoin: round; stroke:#000; fill:#f6f3f0;" version="1.1" viewBox="0 0 500 401" width="500px" xmlns="http://www.w3.org/2000/svg" xmlns:xlink="http://www.w3.org/1999/xlink"><defs><style type="text/css"><![CDATA[path { fill-rule: evenodd; }
#context path { fill: #eee; stroke: #bbb; } ]]></style></defs><metadata><views><view h="401" padding="0" w="500"><proj id="laea" lat0="-23.236" lon0="-58.391"/><bbox h="102.55" w="95.35" x="951.35" y="951.29"/><llbbox lat0="-90" lat1="90" lon0="-180" lon1="180"/></view></views></metadata><g id="admin1"><path d="M278,150L279,148L277,146L276,144L275,143L274,143L273,143L272,141L272,140L272,137L272,134L272,134L272,133L272,132L273,129L273,128L275,126L274,125L274,124L273,122L274,120L274,118L276,115L275,115L274,113L274,111L275,110L275,109L274,108L274,107L274,106L274,104L277,99L277,98L276,97L276,96L276,95L277,94L278,93L279,91L279,88L279,86L278,84L279,82L280,81L279,80L278,80L277,79L276,78L275,78L275,77L278,75L277,73L275,73L274,72L275,71L276,71L277,70L277,69L276,68L276,67L275,66L274,67L273,68L272,67L273,66L272,65L272,63L272,62L271,61L271,59L271,57L272,55L270,54L269,54L268,53L267,51L267,50L267,49L267,48L266,47L265,47L264,47L264,45L266,44L266,43L264,43L264,42L264,41L265,38L265,37L265,35L265,34L265,33L264,30L264,28L264,27L264,26L226,2L222,0L181,1L113,17L102,19L101,19L96,36L94,39L95,40L99,42L184,66L187,67L188,68L187,73L188,74L189,75L189,77L189,79L190,81L193,85L193,86L195,99L195,100L190,103L189,104L189,105L185,123L184,125L184,126L185,131L185,132L185,133L189,132L192,132L208,133L209,133L211,134L216,137L218,138L219,138L220,138L227,138L236,139L239,138L259,140L261,140L262,143L263,144L278,151Z " data-fips="PA03" data-hasc="PY.AG" data-name="Alto Paraguay" data-postal="AG" data-varname=""/><path d="M149,221L148,214L149,213L149,211L150,210L151,209L155,209L156,208L157,207L159,207L173,206L174,206L175,205L180,203L180,198L181,196L181,195L183,191L184,189L184,188L183,186L185,183L185,181L184,179L185,177L184,174L185,172L185,170L185,169L194,156L194,154L194,152L194,151L196,151L198,151L199,150L200,149L199,147L199,146L200,145L205,142L207,142L207,142L209,143L210,142L212,141L213,139L211,134L209,133L208,133L192,132L189,132L185,133L185,132L185,131L184,126L184,125L185,123L189,105L189,104L190,103L195,100L195,99L193,86L193,85L190,81L189,79L189,77L189,75L188,74L187,73L188,68L187,67L184,66L99,42L95,40L94,39L94,41L91,46L81,60L79,63L79,64L80,84L80,88L74,109L68,133L65,142L65,144L66,145L66,146L65,147L66,148L67,148L69,149L71,151L73,151L73,152L74,153L77,155L79,155L81,156L81,157L82,157L83,158L83,160L83,161L83,162L84,162L86,163L85,165L86,165L86,167L87,167L87,168L89,170L89,171L90,172L91,173L92,174L93,175L93,176L94,178L94,179L95,180L96,182L102,185L103,187L105,188L105,189L106,190L106,192L108,192L108,193L109,193L112,194L115,196L116,196L116,197L116,198L117,199L118,200L120,200L121,201L122,201L123,201L126,203L127,205L128,205L130,206L131,206L132,207L134,208L134,209L134,211L134,212L135,213L136,214L137,215L138,216L139,218L140,219L142,218L144,219L145,220L147,221Z " data-fips="PA24" data-hasc="PY.BQ" data-name="Boquern" data-postal="BQ" data-varname=""/><path d="M303,202L304,202L306,201L308,201L311,201L313,200L314,200L316,200L317,200L318,199L320,199L321,199L322,199L324,199L327,199L328,199L329,200L330,200L331,200L332,200L334,200L335,200L336,200L338,199L340,198L341,199L342,198L344,197L344,196L346,195L346,194L347,193L347,192L348,191L349,190L351,189L351,188L351,187L352,186L352,185L353,185L354,184L354,181L347,164L346,164L344,165L343,166L342,167L341,168L338,169L337,170L337,171L336,172L335,173L334,173L333,173L332,172L331,173L330,173L329,173L329,171L331,170L330,169L330,167L330,166L329,165L328,164L328,163L328,162L328,160L328,159L328,158L328,156L329,155L328,154L329,153L331,152L333,149L334,148L332,147L323,144L322,145L321,144L320,142L319,143L318,143L317,142L316,142L314,142L313,142L312,142L311,142L310,141L309,140L307,141L306,140L305,140L304,141L301,140L300,141L298,141L297,140L296,139L295,139L293,139L292,139L290,139L289,139L288,138L287,137L287,135L285,135L284,135L283,135L281,136L281,136L279,136L278,137L277,136L275,136L274,136L273,135L272,134L272,137L272,140L272,141L273,143L274,143L275,143L276,144L277,146L279,148L278,150L278,151L278,152L279,157L279,159L281,161L281,162L280,162L278,162L276,162L274,163L274,165L275,166L277,167L278,169L279,170L280,171L280,172L280,173L279,174L281,176L281,177L281,180L283,181L284,183L287,183L287,184L287,185L288,187L289,188L292,189L293,191L294,192L294,194L293,195L293,196L294,197L295,198L295,200L295,201L297,201L298,202L299,202L300,203Z " data-fips="PA07" data-hasc="PY.CN" data-name="Concepcin" data-postal="CN" data-varname=""/><path d="M321,306L322,305L323,305L325,306L322,300L322,299L333,292L334,289L334,275L332,272L327,271L324,271L322,272L315,273L314,273L313,274L313,276L312,276L310,276L309,276L305,274L304,274L303,273L302,274L301,275L299,278L298,278L297,279L296,280L294,280L296,281L298,283L299,285L300,287L301,288L302,290L303,293L304,294L305,293L306,293L307,295L309,299L310,300L312,300L313,300L314,300L318,300L319,301L319,303L319,304L319,305L318,306L319,306Z " data-fips="PA08" data-hasc="PY.CR" data-name="Cordillera" data-postal="CR" data-varname=""/><path d="M285,288L286,287L287,286L288,286L289,285L290,284L291,283L291,281L291,280L292,279L293,280L294,280L296,280L297,279L298,278L299,278L301,275L302,274L303,273L304,274L305,274L306,273L305,272L305,271L304,270L304,269L306,266L307,263L308,263L309,263L310,261L310,258L309,257L308,256L308,254L308,252L309,250L308,249L308,245L307,244L307,240L306,239L305,237L305,236L306,234L307,233L308,232L307,231L305,231L305,230L305,228L303,228L303,227L303,225L302,224L302,223L301,223L300,222L301,221L302,220L302,218L302,216L302,215L303,214L303,213L302,212L301,211L297,209L296,208L295,206L295,205L295,204L295,203L295,201L295,200L295,198L294,197L293,196L293,195L294,194L294,192L293,191L292,189L289,188L288,187L287,185L287,184L287,183L284,183L283,181L281,180L281,177L281,176L279,174L280,173L280,172L280,171L279,170L278,169L277,167L275,166L274,165L274,163L276,162L278,162L280,162L281,162L281,161L279,159L279,157L278,152L278,151L263,144L262,143L261,140L259,140L239,138L236,139L227,138L220,138L219,138L218,138L216,137L211,134L213,139L212,141L210,142L209,143L207,142L207,142L205,142L200,145L199,146L199,147L200,149L199,150L198,151L196,151L194,151L194,152L194,154L194,156L185,169L185,170L185,172L184,174L185,177L184,179L185,181L185,183L183,186L184,188L184,189L183,191L181,195L181,196L180,198L180,203L175,205L174,206L173,206L159,207L157,207L156,208L155,209L151,209L150,210L149,211L149,213L148,214L149,221L149,221L152,221L153,222L155,222L156,222L157,223L158,224L160,225L162,226L165,226L167,227L169,228L170,228L174,228L177,228L178,228L180,227L182,227L198,237L199,239L201,241L203,241L204,241L205,242L206,243L207,244L207,245L208,245L211,247L212,249L212,250L214,251L215,251L216,252L218,253L219,254L220,254L223,255L224,256L226,257L227,257L236,264L239,264L240,264L241,265L250,267L252,268L253,270L256,273L256,274L257,274L258,273L260,272L261,271L265,274L266,275L269,276L271,276L271,277L272,278L276,278L277,279L280,282L281,283L283,286L284,287L285,288Z " data-fips="PA16" data-hasc="PY.PH" data-name="Presidente Hayes" data-postal="PH" data-varname=""/><path d="M313,276L313,274L314,273L315,273L322,272L324,271L327,271L332,272L334,275L340,272L342,271L342,270L343,269L346,268L346,266L347,265L348,265L349,265L349,266L349,268L350,269L352,270L354,272L356,274L357,273L359,269L359,268L360,268L364,266L369,265L366,263L366,262L365,261L364,259L362,258L361,257L361,255L360,253L358,249L356,247L355,246L354,245L354,245L353,243L353,242L353,240L352,240L352,238L352,236L352,235L352,234L354,232L355,232L356,231L357,230L358,229L359,228L359,227L357,220L359,218L359,217L360,216L360,215L360,214L360,213L360,211L361,210L362,209L362,208L362,206L362,205L361,205L358,205L357,206L357,207L356,208L355,208L354,208L353,205L353,204L357,200L357,199L357,198L356,197L356,196L355,195L354,194L353,194L351,194L350,194L348,194L347,195L346,195L344,196L344,197L342,198L341,199L340,198L338,199L336,200L335,200L334,200L332,200L331,200L330,200L329,200L328,199L327,199L324,199L322,199L321,199L320,199L318,199L317,200L316,200L314,200L313,200L311,201L308,201L306,201L304,202L303,202L300,203L299,202L298,202L297,201L295,201L295,203L295,204L295,205L295,206L296,208L297,209L301,211L302,212L303,213L303,214L302,215L302,216L302,218L302,220L301,221L300,222L301,223L302,223L302,224L303,225L303,227L303,228L305,228L305,230L305,231L307,231L308,232L307,233L306,234L305,236L305,237L306,239L307,240L307,244L308,245L308,249L309,250L308,252L308,254L308,256L309,257L310,258L310,261L309,263L308,263L307,263L306,266L304,269L304,270L305,271L305,272L306,273L305,274L309,276L310,276L312,276Z " data-fips="PA17" data-hasc="PY.SP" data-name="San Pedro" data-postal="SP" data-varname=""/><path d="M294,321L295,320L296,317L296,316L295,312L295,311L296,310L296,308L297,306L299,305L300,303L304,297L305,296L307,295L306,293L305,293L304,294L303,293L302,290L301,288L300,287L299,285L298,283L296,281L294,280L293,280L292,279L291,280L291,281L291,283L290,284L289,285L288,286L287,286L286,287L285,288L285,288L286,292L290,295L290,296L289,301L289,302L288,302L287,304L286,304L285,304L284,306L283,306L281,307L281,309L281,310L281,310L279,311L279,313L279,314L278,315L279,315L280,315L281,313L282,313L282,313L284,314L285,315L286,316L287,317L289,318L290,319L290,320L292,322L292,323Z " data-fips="PA06" data-hasc="PY.AS" data-name="Asuncin" data-postal="AS" data-varname=""/><path d="M335,331L335,329L336,327L337,326L340,326L341,325L341,324L342,323L343,324L346,323L347,323L348,324L350,325L353,324L354,323L355,318L356,318L358,317L360,316L362,316L363,314L368,312L369,311L370,310L372,310L372,310L373,308L372,306L370,307L367,308L366,308L365,308L364,307L363,306L362,305L360,304L355,304L354,304L353,303L350,303L348,303L347,303L342,303L340,303L339,304L338,304L336,304L335,305L333,307L330,308L329,309L328,310L328,312L328,313L329,315L329,316L331,318L331,320L331,321L328,322L328,323L328,324L329,326L332,331L333,331L334,331Z " data-fips="PA10" data-hasc="PY.GU" data-name="Guair" data-postal="GU" data-varname=""/><path d="M324,395L327,393L329,392L329,392L329,388L329,387L327,385L326,384L327,383L328,380L329,379L331,378L333,377L333,375L332,357L332,357L332,355L331,355L330,355L328,354L326,352L325,350L324,349L323,349L320,346L319,346L318,345L317,344L316,343L313,342L312,342L311,342L310,343L309,344L309,345L308,346L307,347L306,348L306,349L306,350L305,351L303,352L299,352L298,352L296,351L295,351L294,350L293,349L289,348L289,347L287,346L286,345L285,344L285,343L283,342L286,361L287,362L290,367L296,373L303,374L305,375L305,377L301,388L300,391L301,392L303,392L305,394L307,394L308,394L310,394L314,391L316,391L317,391L319,391L321,394L323,395Z " data-fips="PA12" data-hasc="PY.MI" data-name="Misiones" data-postal="MI" data-varname=""/><path d="M301,388L305,377L305,375L303,374L296,373L290,367L287,362L286,361L283,342L284,341L286,340L287,336L293,330L292,323L292,322L290,320L290,319L289,318L287,317L286,316L285,315L284,314L282,313L282,313L281,313L280,315L279,315L278,315L278,316L277,316L276,317L277,318L277,319L275,321L277,321L276,323L271,327L270,327L266,329L266,330L265,332L264,331L265,332L266,333L265,334L264,335L263,336L263,338L263,339L262,342L262,343L263,344L262,345L262,346L261,348L262,349L263,350L263,351L262,352L263,353L262,354L260,353L260,355L259,359L258,360L259,361L257,361L256,361L255,362L257,363L256,365L254,365L254,366L253,366L250,367L250,369L250,370L249,371L249,372L248,373L247,372L247,373L246,375L246,376L244,376L243,377L243,378L242,379L243,380L244,381L245,382L245,384L245,385L249,384L260,383L266,383L268,383L270,383L273,383L274,384L277,385L279,385L283,386L290,390L291,390L292,390L297,390L298,390L299,390L300,391Z " data-fips="PA13" data-hasc="PY.NE" data-name="eembuc" data-postal="NE" data-varname=""/><path d="M303,352L305,351L306,350L306,349L306,348L307,347L308,346L309,345L309,344L310,343L311,342L312,342L313,342L316,343L317,344L318,345L319,346L320,346L323,349L323,348L324,347L325,346L326,345L326,344L327,343L327,341L327,340L329,339L329,337L330,335L331,333L332,331L329,326L328,324L328,323L328,322L331,321L331,320L331,318L329,316L329,315L328,313L328,312L328,310L329,309L327,308L326,307L323,305L322,305L321,306L319,306L318,306L319,305L319,304L319,303L319,301L318,300L314,300L313,300L312,300L310,300L309,299L307,295L305,296L304,297L300,303L299,305L297,306L296,308L296,310L295,311L295,312L296,316L296,317L295,320L294,321L292,323L293,330L287,336L286,340L284,341L283,342L285,343L285,344L286,345L287,346L289,347L289,348L293,349L294,350L295,351L296,351L298,352L299,352Z " data-fips="PA15" data-hasc="PY.PG" data-name="Paraguar" data-postal="PG" data-varname=""/><path d="M359,220L361,220L362,220L364,219L365,217L367,216L371,213L373,212L375,212L377,211L377,210L378,208L379,206L380,205L379,203L379,202L380,199L381,198L380,197L379,195L379,193L380,190L379,186L377,186L377,184L377,182L377,181L375,179L376,176L375,172L375,171L375,169L376,168L377,166L376,164L377,163L376,161L375,161L373,160L372,159L371,157L371,155L371,151L370,150L368,148L366,145L365,146L361,145L360,144L359,145L351,144L350,144L348,142L346,141L345,139L344,138L342,135L341,134L337,135L337,136L336,137L335,138L334,140L332,141L331,142L330,143L328,141L328,142L327,142L325,143L324,143L323,144L332,147L334,148L333,149L331,152L329,153L328,154L329,155L328,156L328,158L328,159L328,160L328,162L328,163L328,164L329,165L330,166L330,167L330,169L331,170L329,171L329,173L330,173L331,173L332,172L333,173L334,173L335,173L336,172L337,171L337,170L338,169L341,168L342,167L343,166L344,165L346,164L347,164L354,181L354,184L353,185L352,185L352,186L351,187L351,188L351,189L349,190L348,191L347,192L347,193L346,194L346,195L347,195L348,194L350,194L351,194L353,194L354,194L355,195L356,196L356,197L357,198L357,199L357,200L353,204L353,205L354,208L355,208L356,208L357,207L357,206L358,205L361,205L362,205L362,206L362,208L362,209L361,210L360,211L360,213L360,214L360,215L360,216L359,217L359,218L357,220L357,220L358,221Z " data-fips="PA02" data-hasc="PY.AM" data-name="Amambay" data-postal="AM" data-varname=""/><path d="M414,336L415,334L415,333L414,332L415,328L415,327L415,326L415,324L415,323L417,323L417,321L417,318L418,316L418,315L417,314L417,312L416,309L416,308L418,308L418,306L418,304L418,303L418,302L418,300L418,299L418,297L418,296L419,294L421,293L421,292L423,290L424,287L424,286L426,285L426,283L425,280L425,278L425,277L428,267L429,265L430,264L430,264L428,263L427,263L426,263L425,263L424,263L423,262L421,262L418,261L417,261L416,259L415,259L413,259L412,259L411,260L410,260L410,259L409,258L407,258L407,257L407,256L406,255L402,254L401,254L400,254L399,254L398,253L398,252L397,250L392,252L391,253L389,256L389,257L389,259L389,260L389,262L388,263L387,264L387,265L388,267L387,268L387,269L387,270L387,271L387,273L387,274L388,275L388,276L389,277L390,277L392,278L393,278L393,279L397,282L401,285L400,287L401,288L403,289L402,290L403,291L403,292L402,293L401,292L400,292L399,291L399,290L398,289L397,289L396,288L396,289L395,289L394,289L393,287L391,287L390,288L381,302L382,303L383,304L383,305L383,306L382,307L381,308L381,310L380,313L379,314L378,315L378,317L378,318L378,319L378,320L378,322L379,323L380,324L381,324L383,324L384,324L386,324L387,324L388,324L389,325L390,325L390,326L389,332L390,333L393,333L395,333L396,334L397,335L399,335L400,334L402,334L403,333L404,332L405,331L405,332L405,333L406,333L407,332L408,332L410,333L411,334L411,335L412,336L414,336Z " data-fips="PA01" data-hasc="PY.AA" data-name="Alto Paran" data-postal="AA" data-varname=""/><path d="M330,308L333,307L335,305L336,304L338,304L339,304L340,303L342,303L347,303L348,303L350,303L353,303L354,304L355,304L360,304L362,305L363,306L364,307L365,308L366,308L367,308L370,307L372,306L375,307L377,306L378,305L379,304L379,303L390,288L391,287L393,287L394,289L395,289L396,289L396,288L397,289L398,289L399,290L399,291L400,292L401,292L402,293L403,292L403,291L402,290L403,289L401,288L400,287L401,285L397,282L393,279L393,278L392,278L390,277L389,277L388,276L388,275L387,274L387,273L387,271L387,270L387,269L387,268L388,267L387,265L387,264L388,263L389,262L389,260L389,259L389,257L389,256L391,253L392,252L381,254L379,254L374,259L371,262L370,263L369,265L364,266L360,268L359,268L359,269L357,273L356,274L354,272L352,270L350,269L349,268L349,266L349,265L348,265L347,265L346,266L346,268L343,269L342,270L342,271L340,272L334,289L333,292L322,299L322,300L325,306L326,307L327,308L329,309Z " data-fips="PA04" data-hasc="PY.CG" data-name="Caaguaz" data-postal="CG" data-varname=""/><path d="M344,358L347,356L350,355L351,355L352,355L353,353L354,352L355,351L356,349L357,347L359,346L362,346L364,345L366,343L367,342L368,340L370,339L373,339L375,339L376,339L380,337L383,335L385,333L386,332L386,329L386,327L390,326L390,325L389,325L388,324L387,324L386,324L384,324L383,324L381,324L380,324L379,323L378,322L378,320L378,319L378,318L378,317L378,315L379,314L380,313L381,310L381,308L382,307L383,306L383,305L383,304L382,303L381,302L379,303L379,304L378,305L377,306L375,307L373,308L372,310L372,310L370,310L369,311L368,312L363,314L362,316L360,316L358,317L356,318L355,318L354,323L353,324L350,325L348,324L347,323L346,323L343,324L342,323L341,324L341,325L340,326L337,326L336,327L335,329L335,331L334,331L333,331L332,331L331,333L330,335L329,337L329,339L327,340L327,341L327,343L326,344L326,345L325,346L324,347L323,348L323,349L324,349L325,350L326,352L328,354L330,355L331,355L332,355L332,357L332,357L335,358L337,360L339,360Z " data-fips="PA05" data-hasc="PY.CZ" data-name="Caazap" data-postal="CZ" data-varname=""/><path d="M370,263L371,262L374,259L379,254L381,254L392,252L397,250L398,252L398,253L399,254L400,254L401,254L402,254L406,255L407,256L407,257L407,258L409,258L410,259L410,260L411,260L412,259L413,259L415,259L416,259L417,261L418,261L421,262L423,262L424,263L425,263L426,263L427,263L428,263L430,264L430,264L431,259L431,257L431,254L431,253L432,251L433,249L434,247L434,246L434,245L434,243L434,242L432,240L432,238L431,236L432,234L433,233L435,232L435,231L434,231L430,228L428,224L427,224L420,219L418,219L416,221L410,223L407,225L406,226L404,227L402,227L401,227L398,227L397,228L395,229L394,229L392,228L391,228L389,227L386,227L385,226L384,225L384,224L383,215L382,212L380,210L380,208L379,207L380,205L379,206L378,208L377,210L377,211L375,212L373,212L371,213L367,216L365,217L364,219L362,220L361,220L359,220L358,221L357,220L359,227L359,228L358,229L357,230L356,231L355,232L354,232L352,234L352,235L352,236L352,238L352,240L353,240L353,242L353,243L354,245L354,245L355,246L356,247L358,249L360,253L361,255L361,257L362,258L364,259L365,261L366,262L366,263L369,265Z " data-fips="PA19" data-hasc="PY.CY" data-name="Canindey" data-postal="CY" data-varname=""/><path d="M340,399L341,398L341,396L342,395L343,394L344,393L344,392L344,391L344,390L345,389L346,389L347,388L349,387L349,386L351,385L352,385L353,386L356,387L357,387L359,387L360,387L361,388L362,390L362,391L364,391L366,393L368,391L369,390L371,389L372,389L373,388L373,387L374,386L374,385L374,383L374,382L373,379L374,379L375,378L375,377L377,376L378,376L379,375L380,373L380,372L380,371L381,371L383,370L385,370L387,369L389,369L390,370L392,370L394,369L394,368L394,365L397,362L399,362L401,361L402,360L402,357L403,356L404,356L407,356L408,355L409,354L409,353L409,352L409,350L409,349L410,348L411,347L412,346L413,344L414,341L414,339L414,337L414,336L412,336L411,335L411,334L410,333L408,332L407,332L406,333L405,333L405,332L405,331L404,332L403,333L402,334L400,334L399,335L397,335L396,334L395,333L393,333L390,333L389,332L386,327L386,329L386,332L385,333L383,335L380,337L376,339L375,339L373,339L370,339L368,340L367,342L366,343L364,345L362,346L359,346L357,347L356,349L355,351L354,352L353,353L352,355L351,355L350,355L347,356L344,358L339,360L337,360L335,358L332,357L333,375L333,377L331,378L329,379L328,380L327,383L326,384L327,385L329,387L329,388L329,392L329,392L330,392L332,393L334,395L335,396L336,397L337,398L339,399Z " data-fips="PA11" data-hasc="PY.IT" data-name="Itapa" data-postal="IT" data-varname=""/></g></svg>