<?xml version="1.0" ?><!DOCTYPE svg  PUBLIC '-//W3C//DTD SVG 1.1//EN'  'http://www.w3.org/Graphics/SVG/1.1/DTD/svg11.dtd'><svg enable_background="new 0 0 500 401" height="401px" style="stroke-linejoin: round; stroke:#000; fill:#f6f3f0;" version="1.1" viewBox="0 0 500 401" width="500px" xmlns="http://www.w3.org/2000/svg" xmlns:xlink="http://www.w3.org/1999/xlink"><defs><style type="text/css"><![CDATA[path { fill-rule: evenodd; }
#context path { fill: #eee; stroke: #bbb; } ]]></style></defs><metadata><views><view h="401" padding="0" w="500"><proj id="laea" lat0="-12.296" lon0="17.544"/><bbox h="168.05" w="148.37" x="930.43" y="902.96"/><llbbox lat0="-90" lat1="90" lon0="-180" lon1="180"/></view></views></metadata><g id="admin1"><path d="M266,175L265,175L270,175L273,175L276,173L277,171L278,171L280,170L282,170L284,169L286,168L287,167L289,166L291,166L292,165L294,164L295,163L297,163L299,162L300,161L304,160L306,159L307,157L308,156L309,154L310,149L310,148L311,147L316,143L317,142L318,142L320,141L321,140L322,138L322,137L327,135L329,135L330,134L331,132L332,130L333,129L334,127L337,125L337,124L339,124L340,123L342,123L344,122L345,122L347,122L348,122L350,122L351,122L355,121L356,120L357,119L358,119L360,118L363,117L364,116L366,115L366,115L365,113L364,112L364,110L363,109L363,108L363,107L361,105L361,103L362,102L362,101L362,100L364,94L364,93L364,92L364,91L364,90L364,89L364,88L364,87L363,85L362,84L326,84L326,81L326,80L328,73L320,73L319,74L319,76L309,76L297,76L297,77L296,78L296,80L295,86L296,87L296,89L295,91L295,92L294,92L292,92L292,94L292,95L292,97L291,101L291,102L292,105L275,105L274,104L274,103L267,103L266,105L264,105L263,105L261,105L257,105L256,105L255,106L255,108L252,108L249,106L248,106L246,107L244,107L241,107L239,107L239,107L238,108L239,109L239,114L240,115L239,116L239,117L239,118L239,120L240,122L241,124L240,129L240,132L240,133L240,137L240,139L239,140L238,141L234,142L233,143L233,145L235,148L235,149L236,151L237,152L237,153L239,154L240,154L241,156L242,157L244,157L247,158L260,164L259,165L259,166L258,167L257,169L258,170L259,172L260,173L263,175L264,175Z " data-fips="AO17" data-hasc="AO.LN" data-name="Lunda Norte" data-postal="LN" data-varname=""/><path d="M339,206L339,205L341,205L342,204L343,204L343,203L344,202L345,201L347,201L348,200L350,199L352,198L353,198L354,199L355,199L357,198L358,197L358,196L358,195L358,194L357,193L358,192L358,191L358,190L359,189L360,188L360,186L361,184L361,183L362,182L364,183L369,182L370,182L371,182L373,182L374,183L375,183L376,182L376,182L376,180L375,179L375,178L376,176L376,175L376,173L375,172L375,171L374,169L373,168L373,167L373,166L373,164L372,163L372,162L370,161L369,161L367,158L366,157L366,156L364,154L364,153L363,152L363,149L362,148L362,147L362,146L362,145L363,143L364,142L364,140L363,137L364,134L364,133L364,130L365,128L366,124L366,122L366,120L367,119L366,118L366,116L366,115L364,116L363,117L360,118L358,119L357,119L356,120L355,121L351,122L350,122L348,122L347,122L345,122L344,122L342,123L340,123L339,124L337,124L337,125L334,127L333,129L332,130L331,132L330,134L329,135L327,135L322,137L322,138L321,140L320,141L318,142L317,142L316,143L311,147L310,148L310,149L309,154L308,156L307,157L306,159L304,160L300,161L299,162L297,163L295,163L294,164L292,165L291,166L289,166L287,167L286,168L284,169L282,170L280,170L278,171L277,171L276,173L273,175L270,175L265,175L266,175L266,176L267,176L268,177L269,179L270,179L271,180L271,181L271,182L271,183L270,184L270,185L271,187L271,188L273,189L273,190L280,195L282,196L283,198L284,199L286,199L287,200L288,201L287,203L287,204L286,206L288,205L289,204L291,205L292,205L294,203L295,203L297,201L297,200L299,200L300,201L302,202L304,201L305,200L306,201L307,201L308,201L309,200L310,200L311,201L312,201L313,201L313,200L314,199L315,199L317,200L318,200L319,201L320,201L321,201L322,201L323,202L324,203L326,203L326,204L328,204L329,205L330,205L331,206L332,206L333,206L335,207L336,207L338,207Z " data-fips="AO18" data-hasc="AO.LS" data-name="Lunda Sul" data-postal="LS" data-varname=""/><path d="M242,213L244,212L247,209L248,207L248,205L247,203L248,204L249,205L249,206L250,208L251,208L252,208L253,208L254,209L255,208L256,208L257,209L260,208L262,208L264,208L265,208L268,205L269,205L272,203L274,203L276,203L276,202L276,201L275,200L274,199L275,198L275,197L274,195L274,194L273,190L273,189L271,188L271,187L270,185L270,184L271,183L271,182L271,181L271,180L270,179L269,179L268,177L267,176L266,176L266,175L264,175L263,175L260,173L259,172L258,170L257,169L258,167L259,166L259,165L260,164L247,158L244,157L242,157L241,156L240,154L239,154L237,153L237,152L236,151L235,149L235,148L233,145L233,143L234,142L238,141L239,140L240,139L240,137L240,133L240,132L240,129L241,124L240,122L239,120L239,118L239,117L239,116L240,115L239,114L239,109L238,108L239,107L239,107L239,106L239,105L237,104L237,103L236,102L236,101L236,100L235,100L234,99L233,98L232,97L233,96L232,95L231,94L231,93L229,92L228,90L227,89L228,88L227,88L226,87L226,86L226,86L224,87L223,88L223,89L222,90L222,92L221,93L219,93L218,92L217,91L214,88L213,86L212,85L211,85L206,87L204,88L202,91L200,92L197,93L196,94L196,95L198,101L198,103L198,104L197,105L197,108L195,110L193,110L192,111L190,111L188,112L189,114L189,116L188,117L185,119L185,120L184,121L183,123L184,124L186,125L186,126L185,128L185,131L184,133L184,135L184,137L184,138L183,139L182,139L180,139L179,139L178,140L177,140L176,141L174,141L173,142L173,143L172,144L171,144L170,144L169,145L170,146L171,148L170,148L169,150L170,152L170,153L169,155L169,156L170,156L171,157L172,157L173,158L175,158L176,158L177,158L180,158L181,157L182,157L184,157L185,157L188,157L189,156L189,155L191,155L192,155L193,155L194,155L195,155L197,155L198,156L200,156L201,157L201,158L201,159L202,160L203,160L204,162L204,163L205,168L204,169L204,171L205,171L206,172L207,174L208,175L209,176L211,178L211,179L212,180L213,180L212,181L213,182L214,183L215,184L217,185L218,186L219,186L220,185L221,186L224,186L225,187L227,187L228,187L229,188L230,188L232,189L234,190L234,191L234,192L235,193L235,193L236,194L236,196L236,197L235,198L235,199L236,199L237,201L237,202L238,204L238,205L237,206L237,207L238,207L237,208L237,209L238,211L238,213L240,213L241,214Z " data-fips="AO12" data-hasc="AO.ML" data-name="Malanje" data-postal="ML" data-varname="Malange"/><path d="M154,176L154,174L155,173L155,172L153,171L153,169L153,168L153,167L152,165L153,164L153,162L153,161L153,159L153,157L152,157L151,156L150,156L150,155L149,154L147,154L146,155L145,154L144,153L143,153L142,153L141,152L140,151L139,150L140,147L141,144L142,142L141,141L142,140L141,139L139,138L139,137L140,137L141,135L140,134L139,133L139,132L140,131L143,130L144,130L145,129L147,128L147,127L147,125L146,123L145,122L145,121L144,120L144,119L145,118L146,117L147,116L148,116L150,117L151,116L152,117L154,117L155,114L155,113L155,112L155,110L157,108L157,103L156,102L155,101L150,102L148,102L146,101L144,100L143,98L140,95L139,94L133,94L131,94L130,94L129,95L128,96L127,96L126,96L125,97L122,98L121,98L119,97L118,96L117,97L116,97L115,98L114,98L113,99L111,99L110,99L111,101L113,105L113,106L114,108L114,109L115,111L118,115L118,116L118,119L118,120L118,122L120,123L121,123L123,124L124,124L125,126L126,127L126,129L125,130L124,131L123,132L122,134L121,140L119,139L118,140L117,139L116,140L115,141L114,142L114,143L113,144L112,144L112,145L113,147L113,148L114,151L114,152L114,153L113,155L114,156L116,158L117,159L117,161L118,162L117,163L119,166L120,168L121,170L122,171L123,170L124,171L125,171L126,172L127,173L128,174L129,174L130,174L131,174L132,175L135,175L136,175L137,176L138,175L139,174L142,172L143,172L144,172L146,172L148,173L150,174L151,176L153,176Z " data-fips="AO19" data-hasc="AO.BO" data-name="Bengo" data-postal="BO" data-varname=""/><path d="M153,157L155,157L158,156L159,156L160,155L161,155L164,155L164,154L165,154L169,155L170,153L170,152L169,150L170,148L171,148L170,146L169,145L170,144L171,144L172,144L173,143L173,142L174,141L176,141L177,140L178,140L179,139L180,139L182,139L183,139L184,138L184,137L184,135L184,133L185,131L185,128L186,126L186,125L184,124L183,123L184,121L185,120L185,119L188,117L189,116L189,114L188,112L188,110L188,108L187,107L187,106L186,105L185,105L183,105L182,106L180,106L179,106L178,106L177,105L178,104L176,103L173,103L171,104L171,105L170,107L171,107L171,108L171,109L171,111L170,112L170,112L169,113L168,113L167,114L166,114L165,113L164,113L162,113L162,114L161,116L160,117L158,117L157,117L154,117L152,117L151,116L150,117L148,116L147,116L146,117L145,118L144,119L144,120L145,121L145,122L146,123L147,125L147,127L147,128L145,129L144,130L143,130L140,131L139,132L139,133L140,134L141,135L140,137L139,137L139,138L141,139L142,140L141,141L142,142L141,144L140,147L139,150L140,151L141,152L142,153L143,153L144,153L145,154L146,155L147,154L149,154L150,155L150,156L151,156L152,157Z " data-fips="AO05" data-hasc="AO.CN" data-name="Cuanza Norte" data-postal="CN" data-varname="Cuanza-Nord|Kwanza Norte"/><path d="M169,224L169,223L174,222L175,221L176,221L177,221L177,219L177,218L177,217L177,216L178,215L177,214L177,213L176,212L177,210L178,209L180,208L182,207L184,207L187,206L187,206L188,204L189,203L189,201L189,200L191,197L192,196L192,195L193,191L195,192L196,192L198,192L199,192L200,193L201,192L203,189L204,188L205,187L207,186L208,185L210,183L211,183L211,182L211,181L212,180L211,179L211,178L209,176L208,175L207,174L206,172L205,171L204,171L204,169L205,168L204,163L204,162L203,160L202,160L201,159L201,158L201,157L200,156L198,156L197,155L195,155L194,155L193,155L192,155L191,155L189,155L189,156L188,157L185,157L184,157L182,157L181,157L180,158L177,158L176,158L175,158L173,158L172,157L171,157L170,156L169,156L165,154L164,154L164,155L161,155L160,155L159,156L158,156L155,157L153,157L153,159L153,161L153,162L153,164L152,165L153,167L153,168L153,169L153,171L155,172L155,173L154,174L154,176L153,176L151,176L150,174L148,173L146,172L144,172L143,172L142,172L139,174L138,175L137,176L136,175L135,175L132,175L131,174L130,174L129,174L128,174L127,173L126,172L125,171L124,171L123,170L122,171L123,172L123,173L123,175L124,176L126,178L129,182L130,183L130,184L129,186L130,187L132,191L133,192L133,193L133,195L133,196L132,201L132,202L131,203L131,205L131,206L131,207L131,210L131,215L131,215L133,216L134,216L137,216L139,216L140,217L140,218L141,219L143,221L144,222L146,221L148,219L150,217L151,217L152,218L155,222L156,223L157,225L159,225L161,225L162,225L165,227L166,228Z " data-fips="AO06" data-hasc="AO.CS" data-name="Cuanza Sul" data-postal="CS" data-varname="Cuanza-Sud|Kwanza Sul"/><path d="M113,144L114,143L114,142L115,141L116,140L117,139L118,140L119,139L121,140L122,134L123,132L124,131L125,130L126,129L126,127L125,126L124,124L123,124L121,123L120,123L118,122L118,123L119,125L119,126L118,128L115,128L115,129L114,129L115,128L114,128L113,129L113,131L112,132L111,134L110,134L108,137L108,136L109,134L111,132L111,131L110,132L108,134L107,136L107,138L108,138L109,140L112,144Z " data-fips="AO10" data-hasc="AO.LU" data-name="Luanda" data-postal="LU" data-varname="Loanda"/><path d="M160,117L161,116L162,114L162,113L164,113L165,113L166,114L167,114L168,113L169,113L170,112L170,112L171,111L171,109L171,108L171,107L170,107L171,105L171,104L173,103L176,103L178,104L177,105L178,106L179,106L180,106L182,106L183,105L185,105L186,105L187,106L187,107L188,108L188,110L190,111L192,111L193,110L195,110L197,108L197,105L198,104L198,103L198,101L196,95L196,94L197,93L200,92L202,91L204,88L206,87L211,85L212,85L213,86L214,88L217,91L218,92L219,93L221,93L222,92L222,90L223,89L223,88L224,87L226,86L226,86L226,86L225,85L224,84L223,83L222,82L222,81L222,80L221,77L222,77L222,76L222,75L221,74L221,71L220,71L218,70L218,69L216,67L216,66L216,64L215,63L216,62L215,61L215,60L215,59L214,58L215,56L215,55L215,53L215,52L214,51L214,50L213,49L212,48L212,48L211,46L211,45L211,44L210,43L208,43L207,43L206,43L204,42L203,42L197,42L162,43L158,43L158,44L160,47L161,48L162,51L162,52L163,54L164,55L163,57L162,57L160,59L159,62L158,62L157,63L155,64L154,64L151,65L150,66L148,66L147,66L145,67L144,67L144,68L143,69L143,70L140,72L138,72L137,72L136,73L135,74L134,74L134,75L131,75L130,75L131,77L132,80L133,81L134,82L132,85L132,86L133,89L135,90L134,91L133,92L132,92L131,93L131,94L133,94L139,94L140,95L143,98L144,100L146,101L148,102L150,102L155,101L156,102L157,103L157,108L155,110L155,112L155,113L155,114L157,117L158,117Z " data-fips="AO15" data-hasc="AO.UI" data-name="Uge" data-postal="UI" data-varname=""/><path d="M111,99L113,99L114,98L115,98L116,97L117,97L118,96L119,97L121,98L122,98L125,97L126,96L127,96L128,96L129,95L130,94L131,94L131,93L132,92L133,92L134,91L135,90L133,89L132,86L132,85L134,82L133,81L132,80L131,77L130,75L131,75L134,75L134,74L135,74L136,73L137,72L138,72L140,72L143,70L143,69L144,68L144,67L145,67L147,66L148,66L150,66L151,65L154,64L155,64L157,63L158,62L159,62L160,59L162,57L163,57L164,55L163,54L162,52L162,51L161,48L160,47L158,44L158,43L156,43L152,44L150,43L148,43L142,43L140,43L136,43L135,42L134,42L125,43L122,43L121,43L118,43L117,43L116,44L115,43L114,43L111,43L109,44L108,43L106,44L105,44L104,45L104,46L101,47L98,47L97,47L96,48L94,48L93,49L90,49L88,50L87,50L85,51L86,49L86,49L85,49L85,50L85,51L88,54L88,56L89,57L89,58L91,61L93,66L96,68L98,71L100,74L102,74L102,75L102,77L103,83L103,84L104,86L107,92L110,99Z " data-fips="AO16" data-hasc="AO.ZA" data-name="Zaire" data-postal="ZA" data-varname=""/><path d="M85,40L87,39L92,39L92,23L92,21L90,20L91,20L93,19L94,18L95,16L96,16L97,15L98,14L99,13L100,11L100,10L101,10L107,8L108,7L107,6L105,4L103,3L103,1L101,0L100,1L99,0L98,0L98,2L97,3L96,3L95,5L91,6L89,7L88,7L88,9L86,12L84,12L83,12L82,11L81,14L81,16L78,19L79,19L80,18L80,19L79,19L78,20L79,22L80,24L82,27L83,29L83,31L84,32L84,33L83,34L82,34L81,36L82,38L83,40Z " data-fips="AO03" data-hasc="AO.CB" data-name="Cabinda" data-postal="CB" data-varname=""/><path d="M232,289L233,287L233,286L234,285L235,284L236,283L237,281L238,281L239,281L241,280L242,280L244,279L245,278L246,277L247,276L246,273L247,271L249,271L250,270L250,269L251,268L251,266L251,264L251,263L251,261L252,261L254,260L254,259L254,258L253,255L254,254L255,253L256,251L257,249L256,247L257,246L260,244L261,242L261,241L263,239L264,238L264,236L264,235L268,232L270,231L271,230L272,229L273,228L273,227L273,226L274,226L275,225L277,223L277,222L276,220L277,219L277,218L278,216L280,215L280,214L281,213L282,212L283,211L283,210L284,208L285,206L286,206L287,204L287,203L288,201L287,200L286,199L284,199L283,198L282,196L280,195L274,194L274,195L275,197L275,198L274,199L275,200L276,201L276,202L276,203L274,203L272,203L269,205L268,205L265,208L264,208L262,208L260,208L257,209L256,208L255,208L254,209L253,208L252,208L251,208L250,208L249,206L249,205L248,204L247,203L248,205L248,207L247,209L244,212L242,213L241,214L240,213L238,213L238,211L237,209L237,208L238,207L237,207L237,206L238,205L238,204L237,202L237,201L236,199L235,199L235,198L236,197L236,196L236,194L235,193L235,193L234,192L234,191L234,190L232,189L230,188L229,188L228,187L227,187L225,187L224,186L221,186L220,185L219,186L218,186L217,185L215,184L214,183L213,182L212,181L213,180L212,180L211,181L211,182L211,183L210,183L208,185L207,186L205,187L204,188L203,189L201,192L200,193L199,192L198,192L196,192L195,192L193,191L192,195L192,196L191,197L189,200L189,201L189,203L188,204L187,206L190,207L192,207L193,207L195,206L196,206L200,206L201,207L203,207L204,209L204,211L205,212L206,212L206,213L208,215L209,217L210,218L211,219L211,220L211,222L210,223L209,225L208,227L206,228L205,229L205,231L205,232L206,234L206,235L205,237L204,237L204,238L204,239L205,241L205,242L207,243L208,243L209,244L209,246L209,248L210,249L210,253L210,256L210,257L210,259L210,263L210,264L210,267L210,271L209,272L209,274L209,275L209,276L209,281L209,280L212,280L213,280L215,280L217,280L218,281L219,281L220,281L221,280L222,280L223,281L224,283L225,285L226,286L228,287L228,288L230,289L232,289Z " data-fips="AO02" data-hasc="AO.BI" data-name="Bi" data-postal="BI" data-varname=""/><path d="M148,277L149,275L152,271L152,270L153,269L154,270L156,271L157,271L160,270L162,269L163,268L164,267L166,267L169,265L170,263L169,262L168,261L165,260L164,258L164,256L164,255L164,254L164,251L163,250L162,249L162,247L161,245L161,244L161,242L162,241L163,240L164,239L166,238L167,238L168,237L168,235L167,232L166,228L165,227L162,225L161,225L159,225L157,225L156,223L155,222L152,218L151,217L150,217L148,219L146,221L144,222L143,221L141,219L140,218L140,217L139,216L137,216L134,216L133,216L131,215L131,215L132,216L131,217L131,221L130,222L129,223L129,225L129,226L128,227L127,230L126,231L125,233L125,232L123,233L123,234L123,235L123,237L122,238L120,239L120,240L118,240L117,240L116,241L115,240L114,241L113,242L112,243L111,243L109,245L108,247L107,248L108,250L108,252L106,254L105,255L104,255L103,258L102,258L101,259L100,260L99,261L99,262L98,263L97,264L96,264L96,266L96,267L96,269L97,268L99,268L101,268L103,269L105,269L106,270L107,270L110,269L111,268L113,267L118,268L118,269L118,271L118,273L119,274L120,276L121,276L123,276L125,277L126,277L130,276L131,276L133,277L134,277L136,276L137,276L139,276L141,277L147,277Z " data-fips="AO01" data-hasc="AO.BG" data-name="Benguela" data-postal="BG" data-varname="Benguella"/><path d="M332,399L333,398L339,396L340,396L342,396L343,397L346,398L347,399L377,393L402,389L402,388L401,387L400,386L399,386L397,386L397,385L396,384L394,383L394,382L393,381L393,380L391,378L390,378L388,377L386,376L385,374L385,373L384,371L382,370L380,369L380,368L379,367L378,366L377,365L375,362L374,361L374,360L372,360L371,360L368,358L368,356L367,356L367,355L367,353L367,352L367,351L366,351L366,349L365,349L366,347L365,346L364,344L363,344L362,343L360,342L359,340L358,338L358,337L357,336L356,335L354,335L353,334L353,333L352,331L351,330L351,329L350,328L349,327L348,325L347,323L346,322L345,322L344,320L343,318L341,318L341,317L340,316L339,315L338,314L336,312L335,310L334,311L332,310L331,310L330,310L329,310L328,309L327,309L326,309L325,309L324,310L322,310L320,310L319,310L318,310L317,309L316,309L315,309L313,308L311,307L310,306L309,305L308,304L307,303L306,303L305,302L304,300L303,299L302,298L301,297L300,296L299,294L298,293L298,292L297,291L296,290L294,289L292,289L290,289L288,288L287,288L286,289L285,290L286,291L285,292L283,291L281,291L279,292L277,292L277,291L276,290L276,289L275,287L275,286L275,285L275,284L274,283L274,282L274,281L273,280L273,279L272,278L271,277L270,276L268,275L266,274L265,274L262,272L260,272L259,272L258,272L251,268L250,269L250,270L249,271L247,271L246,273L247,276L246,277L245,278L244,279L242,280L241,280L239,281L238,281L237,281L236,283L235,284L234,285L233,286L233,287L232,289L232,289L230,289L228,288L228,287L226,286L225,285L224,283L223,281L222,280L221,280L220,281L219,281L218,281L217,280L215,280L213,280L212,280L209,280L209,281L209,282L209,283L209,285L209,286L209,287L208,288L209,291L210,293L209,294L210,295L210,296L210,299L210,300L211,301L213,302L212,303L214,305L214,306L214,308L214,309L215,310L215,311L215,312L215,313L217,314L217,315L217,316L218,317L219,317L219,319L220,319L221,320L222,321L223,322L224,322L225,323L226,325L228,326L228,327L232,333L234,335L235,337L235,340L235,346L235,350L235,351L234,353L232,355L232,358L231,360L230,361L230,363L230,365L230,368L232,375L232,380L264,380L265,380L266,382L268,384L269,386L269,387L271,387L272,389L273,390L274,390L277,392L280,392L283,392L284,392L285,392L287,392L291,394L296,394L298,393L299,393L300,394L301,395L302,394L306,394L307,394L309,395L311,395L312,395L313,394L315,394L316,394L317,394L319,395L320,395L321,396L322,397L323,397L324,397L325,397L326,397L327,398L329,398L330,399Z " data-fips="AO04" data-hasc="AO.CC" data-name="Cuando Cubango" data-postal="CC" data-varname=""/><path d="M144,381L145,381L146,380L232,380L232,375L230,368L230,365L230,363L230,361L231,360L232,358L232,355L234,353L235,351L235,350L235,346L235,340L235,337L234,335L232,333L228,327L228,326L226,325L225,323L224,322L223,322L222,321L221,320L220,319L219,319L219,317L218,317L217,316L217,315L217,314L213,314L211,314L210,314L207,315L206,316L205,317L201,321L198,321L197,322L192,321L190,321L187,322L184,323L182,324L180,327L178,331L177,332L174,337L173,339L172,340L171,341L168,341L168,339L167,338L166,337L163,336L159,335L157,335L155,335L154,335L153,336L149,340L146,342L144,343L143,343L142,344L140,345L139,345L138,344L136,344L136,345L133,348L132,349L131,350L129,351L127,349L125,347L122,350L120,351L119,351L119,352L118,353L117,354L118,355L118,356L118,357L116,358L116,359L116,361L117,362L120,365L121,367L121,368L122,368L123,369L125,369L126,370L126,371L126,373L129,374L131,376L137,379L139,381L140,381L141,381L143,381Z " data-fips="AO07" data-hasc="AO.CU" data-name="Cunene" data-postal="CU" data-varname=""/><path d="M185,272L186,271L188,269L193,264L194,263L195,263L196,264L198,264L199,264L201,262L202,261L204,261L206,261L208,262L210,259L210,257L210,256L210,253L210,249L209,248L209,246L209,244L208,243L207,243L205,242L205,241L204,239L204,238L204,237L205,237L206,235L206,234L205,232L205,231L205,229L206,228L208,227L209,225L210,223L211,222L211,220L211,219L210,218L209,217L208,215L206,213L206,212L205,212L204,211L204,209L203,207L201,207L200,206L196,206L195,206L193,207L192,207L190,207L187,206L187,206L184,207L182,207L180,208L178,209L177,210L176,212L177,213L177,214L178,215L177,216L177,217L177,218L177,219L177,221L176,221L175,221L174,222L169,223L169,224L167,232L168,235L168,237L167,238L166,238L164,239L163,240L162,241L161,242L161,244L161,245L162,247L162,249L163,250L164,251L164,254L164,255L164,256L164,258L165,260L168,261L169,262L170,263L171,263L175,263L176,264L177,265L177,269L178,270L180,270L181,270L181,271L181,273L182,274Z " data-fips="AO08" data-hasc="AO.HM" data-name="Huambo" data-postal="HM" data-varname=""/><path d="M131,350L132,349L133,348L136,345L136,344L138,344L139,345L140,345L142,344L143,343L144,343L146,342L149,340L153,336L154,335L155,335L157,335L159,335L163,336L166,337L167,338L168,339L168,341L171,341L172,340L173,339L174,337L177,332L178,331L180,327L182,324L184,323L187,322L190,321L192,321L197,322L198,321L201,321L205,317L206,316L207,315L210,314L211,314L213,314L217,314L215,313L215,312L215,311L215,310L214,309L214,308L214,306L214,305L212,303L213,302L211,301L210,300L210,299L210,296L210,295L209,294L210,293L209,291L208,288L209,287L209,286L209,285L209,283L209,282L209,281L209,276L209,275L209,274L209,272L210,271L210,267L210,264L210,263L208,262L206,261L204,261L202,261L201,262L199,264L198,264L196,264L195,263L194,263L193,264L188,269L186,271L185,272L182,274L181,273L181,271L181,270L180,270L178,270L177,269L177,265L176,264L175,263L171,263L170,263L169,265L166,267L164,267L163,268L162,269L160,270L157,271L156,271L154,270L153,269L152,270L152,271L149,275L148,277L147,277L141,277L139,276L137,276L136,276L134,277L133,277L131,276L130,276L126,277L127,278L127,279L127,281L127,282L127,284L127,286L127,287L128,288L129,289L129,294L128,297L128,298L128,300L126,302L126,303L120,307L119,307L118,309L118,311L117,312L117,313L118,316L117,317L117,318L119,319L120,320L121,320L122,320L123,321L123,323L124,324L125,325L126,326L126,332L128,335L127,336L125,340L125,341L125,343L126,345L126,346L125,347L127,349L129,351Z " data-fips="AO09" data-hasc="AO.HL" data-name="Hula" data-postal="HL" data-varname=""/><path d="M364,344L364,340L364,325L364,324L365,272L366,252L423,253L423,252L423,251L422,250L420,248L420,247L420,246L420,245L422,240L424,236L425,235L424,234L424,231L423,231L423,230L423,228L423,220L424,219L424,218L423,215L423,214L423,213L424,212L425,210L425,209L425,208L426,206L425,203L424,198L424,197L424,195L425,194L424,192L424,191L423,192L422,193L421,194L421,195L420,195L419,195L418,195L416,195L414,194L410,193L409,193L408,193L407,193L402,196L396,197L395,197L393,197L392,195L390,196L389,196L388,197L387,197L386,196L383,195L382,195L381,197L380,198L376,199L375,201L374,201L374,200L374,198L374,196L374,194L373,193L373,192L372,190L373,189L374,188L376,187L377,186L377,185L376,184L376,182L375,183L374,183L373,182L371,182L370,182L369,182L364,183L362,182L361,183L361,184L360,186L360,188L359,189L358,190L358,191L358,192L357,193L358,194L358,195L358,196L358,197L357,198L355,199L354,199L353,198L352,198L350,199L348,200L347,201L345,201L344,202L343,203L343,204L342,204L341,205L339,205L339,206L338,207L336,207L335,207L333,206L332,206L331,206L330,205L329,205L328,204L326,204L326,203L324,203L323,202L322,201L321,201L320,201L319,201L318,200L317,200L315,199L314,199L313,200L313,201L312,201L311,201L310,200L309,200L308,201L307,201L306,201L305,200L304,201L302,202L300,201L299,200L297,200L297,201L295,203L294,203L292,205L291,205L289,204L288,205L286,206L285,206L284,208L283,210L283,211L282,212L281,213L280,214L280,215L278,216L277,218L277,219L276,220L277,222L277,223L275,225L274,226L273,226L273,227L273,228L272,229L271,230L270,231L268,232L264,235L264,236L264,238L263,239L261,241L261,242L260,244L257,246L256,247L257,249L256,251L255,253L254,254L253,255L254,258L254,259L254,260L252,261L251,261L251,263L251,264L251,266L251,268L258,272L259,272L260,272L262,272L265,274L266,274L268,275L270,276L271,277L272,278L273,279L273,280L274,281L274,282L274,283L275,284L275,285L275,286L275,287L276,289L276,290L277,291L277,292L279,292L281,291L283,291L285,292L286,291L285,290L286,289L287,288L288,288L290,289L292,289L294,289L296,290L297,291L298,292L298,293L299,294L300,296L301,297L302,298L303,299L304,300L305,302L306,303L307,303L308,304L309,305L310,306L311,307L313,308L315,309L316,309L317,309L318,310L319,310L320,310L322,310L324,310L325,309L326,309L327,309L328,309L329,310L330,310L331,310L332,310L334,311L335,310L336,312L338,314L339,315L340,316L341,317L341,318L343,318L344,320L345,322L346,322L347,323L348,325L349,327L350,328L351,329L351,330L352,331L353,333L353,334L354,335L356,335L357,336L358,337L358,338L359,340L360,342L362,343L363,344L364,344L365,346Z " data-fips="AO14" data-hasc="AO.MX" data-name="Moxico" data-postal="MX" data-varname=""/><path d="M76,362L76,361L76,359L76,358L75,357L74,357L74,358L76,363L77,364Z M80,377L81,376L82,375L83,375L85,374L87,374L88,374L89,375L90,376L91,376L93,376L94,376L95,376L97,376L98,376L99,377L100,376L102,375L103,374L104,373L106,373L107,372L107,372L108,371L109,370L111,370L112,369L116,368L117,368L118,369L119,369L120,368L121,368L121,367L120,365L117,362L116,361L116,359L116,358L118,357L118,356L118,355L117,354L118,353L119,352L119,351L120,351L122,350L125,347L126,346L126,345L125,343L125,341L125,340L127,336L128,335L126,332L126,326L125,325L124,324L123,323L123,321L122,320L121,320L120,320L119,319L117,318L117,317L118,316L117,313L117,312L118,311L118,309L119,307L120,307L126,303L126,302L128,300L128,298L128,297L129,294L129,289L128,288L127,287L127,286L127,284L127,282L127,281L127,279L127,278L126,277L125,277L123,276L121,276L120,276L119,274L118,273L118,271L118,269L118,268L113,267L111,268L110,269L107,270L106,270L105,269L103,269L101,268L99,268L97,268L96,269L96,269L96,270L96,273L96,276L95,278L94,278L93,279L93,280L92,282L91,283L91,285L92,286L91,287L91,288L91,289L91,291L91,293L91,295L91,296L90,297L90,299L90,301L90,303L90,304L89,305L89,306L88,307L87,309L87,310L86,311L86,313L86,315L86,315L86,316L85,316L84,318L84,322L83,324L83,326L83,328L82,329L81,330L80,332L80,333L78,335L77,334L76,335L75,337L76,338L77,340L77,341L77,343L77,344L78,355L78,358L78,361L78,364L77,365L77,368L77,371L77,375L77,377L78,378L79,378Z " data-fips="AO13" data-hasc="AO.NA" data-name="Namibe" data-postal="NA" data-varname="Momedes|Mossamedes"/></g></svg>