<?xml version="1.0" ?><!DOCTYPE svg  PUBLIC '-//W3C//DTD SVG 1.1//EN'  'http://www.w3.org/Graphics/SVG/1.1/DTD/svg11.dtd'><svg enable_background="new 0 0 500 401" height="401px" style="stroke-linejoin: round; stroke:#000; fill:#f6f3f0;" version="1.1" viewBox="0 0 500 401" width="500px" xmlns="http://www.w3.org/2000/svg" xmlns:xlink="http://www.w3.org/1999/xlink"><defs><style type="text/css"><![CDATA[path { fill-rule: evenodd; }
#context path { fill: #eee; stroke: #bbb; } ]]></style></defs><metadata><views><view h="401" padding="0" w="500"><proj id="laea" lat0="-3.356" lon0="29.887"/><bbox h="26.66" w="22.76" x="988.9" y="987.01"/><llbbox lat0="-90" lat1="90" lon0="-180" lon1="180"/></view></views></metadata><g id="admin1"><path d="M379,198L378,198L381,193L385,190L389,188L394,186L396,186L398,185L399,183L400,181L404,183L410,183L414,179L417,175L417,173L416,170L416,169L418,165L420,161L420,158L420,156L419,155L417,153L416,152L416,151L417,147L416,145L411,140L410,138L411,135L417,128L419,125L414,125L406,127L402,128L399,127L395,124L393,123L390,123L389,124L387,125L384,124L384,123L383,120L382,119L379,118L367,110L366,110L363,111L361,113L357,118L355,120L352,124L351,125L349,125L348,126L347,127L346,129L345,130L343,131L343,133L343,137L342,138L337,139L336,142L335,149L333,154L331,155L328,156L320,163L327,165L329,166L330,167L334,166L337,167L339,169L342,170L345,170L348,171L349,173L351,176L350,178L351,181L355,184L360,185L362,184L364,183L366,184L367,185L369,186L371,187L373,189L374,191L376,195L376,200Z " data-fips="BY11" data-hasc="BI.CA" data-name="Cankuzo" data-postal="CA" data-varname=""/><path d="M272,196L272,194L274,193L275,192L280,191L281,191L281,190L283,189L292,188L295,187L299,185L317,167L320,163L328,156L328,155L326,154L323,153L321,154L319,155L317,154L313,151L312,149L312,146L313,144L317,136L320,129L320,121L317,115L309,111L301,110L296,117L284,125L277,125L269,128L265,135L262,138L258,140L257,143L248,152L247,156L247,158L248,160L250,161L251,160L252,159L254,158L258,158L259,158L262,164L264,166L267,169L269,172L271,176L270,178L270,180L269,182L267,184L263,191L264,194L267,197L270,198Z " data-fips="BY14" data-hasc="BI.KR" data-name="Karuzi" data-postal="KR" data-varname="Karusi"/><path d="M261,336L266,330L274,326L290,325L295,322L297,320L299,321L302,314L305,301L307,297L317,287L324,275L329,272L337,274L337,271L337,268L336,265L335,262L335,259L333,259L329,255L324,253L320,251L309,247L299,252L296,250L294,247L290,246L286,246L285,251L282,256L276,259L269,261L267,264L267,269L258,277L258,280L258,282L255,282L253,280L250,283L250,287L252,290L253,294L247,302L248,306L247,310L246,319L245,324L247,328L250,330L253,332L258,338Z " data-fips="BY20" data-hasc="BI.RT" data-name="Rutana" data-postal="RT" data-varname=""/><path d="M335,259L337,255L344,243L346,240L346,237L345,233L346,231L352,226L353,223L356,223L360,223L361,221L366,220L367,219L368,218L371,215L380,211L384,206L385,201L379,198L376,200L376,195L374,191L373,189L371,187L369,186L367,185L366,184L364,183L362,184L360,185L355,184L351,181L350,178L351,176L349,173L348,171L345,170L342,170L339,169L337,167L334,166L330,167L329,166L327,165L320,163L317,167L299,185L295,187L292,188L283,189L281,190L281,191L280,191L275,192L274,193L278,200L279,203L280,205L282,207L280,218L280,222L282,225L284,232L286,236L286,241L286,246L290,246L294,247L296,250L299,252L309,247L320,251L324,253L329,255L333,259L335,259Z " data-fips="BY21" data-hasc="BI.RY" data-name="Ruyigi" data-postal="RY" data-varname=""/><path d="M143,180L147,178L152,177L156,176L159,177L162,178L166,177L173,177L179,180L181,178L182,176L182,174L181,173L182,168L185,163L185,158L183,154L183,149L185,145L185,139L183,133L181,130L178,119L173,112L169,117L163,118L159,121L157,120L151,120L148,126L136,131L136,133L137,135L139,138L141,142L135,148L127,148L127,149L126,151L124,153L122,156L122,159L122,172L123,175L127,178L126,179L130,184L136,186Z " data-fips="BY09" data-hasc="BI.BB" data-name="Bubanza" data-postal="BB" data-varname=""/><path d="M150,348L152,348L180,346L187,341L191,340L200,336L207,329L213,325L219,323L226,317L230,308L230,304L233,303L233,305L233,309L235,315L235,322L236,326L239,328L242,326L245,324L246,319L247,310L248,306L247,302L253,294L252,290L250,287L250,283L253,280L251,277L246,277L240,274L242,270L237,263L236,266L233,272L230,277L225,280L222,277L223,275L224,273L224,271L226,257L227,253L226,249L221,248L216,247L214,250L212,252L212,255L207,261L207,253L206,248L201,245L193,235L190,230L186,231L183,233L180,238L176,250L175,252L174,255L174,257L174,259L172,261L169,261L165,262L161,263L139,263L127,261L122,260L120,273L122,295L124,300L126,304L133,311L145,331L150,348Z " data-fips="BY10" data-hasc="BI.BR" data-name="Bururi" data-postal="BR" data-varname=""/><path d="M135,148L141,142L139,138L137,135L136,133L136,131L148,126L151,120L157,120L159,121L163,118L169,117L173,112L170,107L168,101L167,96L164,93L161,92L157,93L149,96L145,97L143,93L143,91L141,87L141,85L141,83L144,80L144,78L143,75L139,72L139,69L139,66L136,64L133,62L131,62L129,61L121,60L117,59L106,54L103,54L92,55L88,59L85,77L87,82L84,82L81,84L80,87L80,91L81,94L85,95L88,96L91,97L92,98L94,103L96,107L97,109L97,112L99,115L101,117L105,118L108,120L109,123L109,126L111,130L115,131L118,131L121,133L124,135L125,137L127,148Z " data-fips="BY12" data-hasc="BI.CI" data-name="Cibitoke" data-postal="CI" data-varname=""/><path d="M258,280L258,277L267,269L267,264L269,261L276,259L282,256L285,251L286,246L286,241L286,236L284,232L282,225L280,222L280,218L282,207L280,205L279,203L278,200L274,193L272,194L272,196L270,198L267,197L264,194L263,191L267,184L269,182L270,180L270,178L271,176L269,172L267,169L264,166L262,164L259,158L258,158L254,158L252,159L251,160L250,161L248,160L247,158L247,156L248,152L249,141L246,140L244,140L236,149L237,159L235,161L235,165L236,168L239,170L242,172L234,176L229,182L237,187L238,195L243,198L246,203L244,206L243,209L243,213L242,217L234,223L224,229L227,232L229,236L231,239L231,243L223,242L216,247L221,248L226,249L227,253L226,257L224,271L224,273L223,275L222,277L225,280L230,277L233,272L236,266L237,263L242,270L240,274L246,277L251,277L253,280L255,282L258,282Z " data-fips="BY13" data-hasc="BI.GI" data-name="Gitega" data-postal="GI" data-varname="Kitega"/><path d="M221,165L224,164L228,163L235,161L237,159L236,149L244,140L243,136L243,133L244,131L242,129L239,128L237,127L230,126L228,117L226,111L223,110L219,110L215,111L208,110L206,108L204,108L202,109L198,105L196,106L194,105L201,100L200,91L200,90L198,90L196,89L191,91L189,92L188,93L186,93L182,93L179,96L175,97L171,94L164,93L167,96L168,101L170,107L173,112L178,119L181,130L183,133L185,139L185,145L190,147L195,147L196,149L198,150L201,149L203,151L204,158L208,158L213,156L214,158L213,161L215,164L219,166Z " data-fips="BY15" data-hasc="BI.KY" data-name="Kayanza" data-postal="KY" data-varname=""/><path d="M219,397L220,395L220,393L221,390L222,389L225,388L226,386L227,382L230,381L232,381L234,382L237,382L238,382L248,377L255,371L261,367L263,366L267,364L269,361L274,349L276,347L289,336L294,329L298,322L299,321L297,320L295,322L290,325L274,326L266,330L261,336L258,338L253,332L250,330L247,328L245,324L242,326L239,328L236,326L235,322L235,315L233,309L233,305L233,303L230,304L230,308L226,317L219,323L213,325L207,329L200,336L191,340L187,341L180,346L152,348L150,348L150,348L151,352L157,397L200,396L209,398L217,399Z " data-fips="BY17" data-hasc="BI.MA" data-name="Makamba" data-postal="MA" data-varname=""/><path d="M258,140L262,138L265,135L269,128L277,125L284,125L296,117L301,110L301,107L301,105L298,105L296,103L293,103L290,106L286,109L282,107L286,101L289,96L286,91L281,88L275,80L271,76L268,72L263,65L254,63L249,62L249,64L248,68L246,72L244,76L241,79L237,83L234,85L230,86L226,86L222,84L219,84L218,86L217,90L217,92L215,93L211,93L207,93L206,92L200,90L200,91L201,100L194,105L196,106L198,105L202,109L204,108L206,108L208,110L215,111L219,110L223,110L226,111L228,117L230,126L237,127L239,128L242,129L244,131L243,133L243,136L244,140L246,140L249,141L257,143Z " data-fips="BY19" data-hasc="BI.NG" data-name="Ngozi" data-postal="NG" data-varname=""/><path d="M288,87L293,84L294,80L297,77L301,75L306,74L310,72L314,69L316,69L317,69L318,70L332,58L334,56L336,53L340,53L343,51L345,47L345,43L344,39L343,36L345,28L343,25L341,22L340,20L339,17L338,15L337,14L335,7L331,4L330,5L328,7L325,8L322,9L318,10L315,10L313,10L307,7L305,7L304,8L304,10L304,11L295,21L292,24L288,24L284,22L280,20L277,17L271,10L269,8L267,8L265,8L264,8L262,7L262,7L257,3L256,2L254,3L253,4L253,5L252,15L254,29L250,43L249,62L254,63L263,65L268,72L271,76L275,80L281,88Z " data-fips="BY16" data-hasc="BI.KI" data-name="Kirundo" data-postal="KI" data-varname=""/><path d="M331,155L333,154L335,149L336,142L337,139L342,138L343,137L343,133L343,131L345,130L346,129L347,127L348,126L349,125L351,125L352,124L355,120L357,118L356,116L354,114L353,113L354,111L351,110L348,107L343,101L343,98L345,94L349,89L349,84L350,81L351,79L362,67L363,64L359,66L352,69L348,70L345,70L343,68L343,63L345,61L349,57L351,54L352,53L353,47L360,30L363,26L369,18L363,18L357,15L347,7L346,5L345,3L343,2L338,1L337,0L336,0L333,1L332,3L331,4L335,7L337,14L338,15L339,17L340,20L341,22L343,25L345,28L343,36L344,39L345,43L345,47L343,51L340,53L336,53L334,56L332,58L318,70L317,69L316,69L314,69L310,72L306,74L301,75L297,77L294,80L293,84L288,87L281,88L286,91L289,96L286,101L282,107L286,109L290,106L293,103L296,103L298,105L301,105L301,107L301,110L309,111L317,115L320,121L320,129L317,136L313,144L312,146L312,149L313,151L317,154L319,155L321,154L323,153L326,154L328,155Z " data-fips="BY18" data-hasc="BI.MY" data-name="Muyinga" data-postal="MY" data-varname="Muhinga"/><path d="M161,263L165,262L169,261L172,261L174,259L174,257L174,255L175,252L176,250L180,238L183,233L186,231L190,230L192,226L191,221L194,214L191,206L191,202L190,200L188,202L186,203L185,200L183,196L181,192L181,189L179,180L173,177L166,177L162,178L159,177L156,176L152,177L147,178L143,180L136,186L130,184L126,179L121,183L121,185L120,191L124,237L123,252L122,260L127,261L139,263Z " data-fips="BY24" data-hasc="BI.BM" data-name="Bujumbura Mairie" data-postal="BM" data-varname=""/><path d="M212,255L212,252L214,250L216,247L223,242L231,243L231,239L229,236L227,232L224,229L234,223L242,217L243,213L243,209L244,206L246,203L243,198L238,195L237,187L229,182L234,176L242,172L239,170L236,168L235,165L228,163L224,164L221,165L219,166L215,164L213,161L214,158L213,156L208,158L204,158L203,151L201,149L198,150L196,149L195,147L190,147L185,145L183,149L183,154L185,158L185,163L182,168L181,173L182,174L182,176L181,178L179,180L181,189L181,192L183,196L185,200L186,203L188,202L190,200L191,202L191,206L194,214L191,221L192,226L190,230L193,235L201,245L206,248L207,253L207,261Z " data-fips="BY22" data-hasc="BI.MV" data-name="Muramvya" data-postal="MV" data-varname="Muramviya"/></g></svg>