<?xml version="1.0" ?><!DOCTYPE svg  PUBLIC '-//W3C//DTD SVG 1.1//EN'  'http://www.w3.org/Graphics/SVG/1.1/DTD/svg11.dtd'><svg enable_background="new 0 0 500 401" height="401px" style="stroke-linejoin: round; stroke:#000; fill:#f6f3f0;" version="1.1" viewBox="0 0 500 401" width="500px" xmlns="http://www.w3.org/2000/svg" xmlns:xlink="http://www.w3.org/1999/xlink"><defs><style type="text/css"><![CDATA[path { fill-rule: evenodd; }
#context path { fill: #eee; stroke: #bbb; } ]]></style></defs><metadata><views><view h="401" padding="0" w="500"><proj id="laea" lat0="10.541" lon0="2.469"/><bbox h="76.32" w="37.34" x="979.25" y="977.06"/><llbbox lat0="-90" lat1="90" lon0="-180" lon1="180"/></view></views></metadata><g id="admin1"><path d="M277,234L277,233L278,232L279,231L278,230L279,229L280,227L279,226L279,225L280,223L280,221L280,217L280,216L286,216L287,215L288,214L291,214L292,215L294,215L298,214L300,213L300,211L303,205L304,202L304,201L304,196L304,195L303,193L303,192L303,190L305,187L306,187L310,181L310,180L310,178L311,178L313,178L314,178L316,177L316,176L316,174L315,172L315,170L315,169L315,168L316,167L321,165L323,164L327,165L328,164L330,160L332,158L333,157L333,151L333,150L334,149L336,148L337,146L337,145L336,143L332,139L331,137L331,136L332,133L334,130L334,129L335,128L336,127L337,126L338,126L343,129L344,128L345,127L345,126L345,123L346,121L347,118L348,116L348,114L348,114L324,117L308,120L293,121L284,119L280,119L270,121L260,120L257,120L254,121L250,121L247,121L246,123L244,125L243,126L243,128L243,129L243,130L245,132L246,133L247,135L247,136L248,139L248,144L248,146L247,147L246,148L244,149L243,149L239,149L238,150L237,150L237,152L237,153L237,155L237,156L237,159L237,160L237,162L236,165L236,167L238,171L238,173L240,174L241,175L241,177L239,194L238,195L237,196L234,196L233,196L231,196L230,197L229,199L229,202L229,205L229,207L230,209L230,210L232,211L233,212L234,213L234,214L234,216L233,217L233,220L233,223L233,224L233,226L233,227L234,228L235,228L237,229L243,231L244,231L243,234L277,234Z " data-fips="BN10" data-hasc="BJ.BO" data-name="Borgou" data-postal="BO" data-varname=""/><path d="M250,121L254,121L257,120L260,120L270,121L280,119L284,119L293,121L308,120L324,117L348,114L348,114L348,112L347,111L347,109L345,109L344,108L343,105L342,104L341,103L341,101L342,98L342,96L341,90L340,89L340,88L340,87L340,85L340,83L339,82L338,82L336,81L325,65L324,63L324,62L325,58L326,57L326,54L331,47L332,45L331,44L330,43L330,42L329,41L328,40L326,37L325,36L323,35L319,33L318,32L317,33L315,33L314,32L313,31L311,29L311,27L311,26L310,24L309,23L298,13L296,9L294,8L292,7L290,6L290,5L289,3L288,3L284,0L284,0L284,1L282,1L280,1L279,2L277,3L276,3L275,4L275,5L273,7L270,6L269,7L268,7L266,7L265,8L264,8L263,8L262,8L261,9L260,9L258,10L256,10L255,11L254,12L254,13L255,17L257,23L258,24L260,25L260,26L260,27L259,27L258,28L257,28L256,29L255,29L255,31L256,32L255,33L254,39L252,41L250,43L250,45L250,46L249,47L248,48L245,50L244,51L240,54L232,62L232,63L245,85L248,90L249,90L251,90L252,91L254,93L250,96L249,97L248,99L248,100L247,121Z " data-fips="BN07" data-hasc="BJ.AL" data-name="Alibori" data-postal="AL" data-varname=""/><path d="M258,318L258,316L261,313L262,312L262,310L262,309L264,306L277,306L277,296L277,295L275,294L274,291L274,290L275,288L275,284L276,280L276,276L276,275L277,274L277,273L278,272L278,270L277,269L276,266L276,265L275,263L275,262L276,259L276,257L276,256L277,255L278,254L278,252L278,250L277,234L243,234L243,236L244,237L245,243L244,249L245,250L244,251L244,252L242,253L241,253L239,253L236,252L234,252L233,251L231,250L230,250L228,248L227,248L225,248L224,247L222,245L220,244L219,244L218,244L213,246L212,246L210,246L207,246L206,246L206,248L206,249L208,252L208,253L206,257L206,258L206,260L206,261L207,266L207,284L207,308L208,308L221,308L224,308L227,310L230,312L232,313L235,314L238,314L242,314L247,316L258,319Z " data-fips="BN11" data-hasc="BJ.CL" data-name="Collines" data-postal="CL" data-varname=""/><path d="M245,393L250,391L254,391L254,390L255,389L256,388L258,388L262,385L262,383L261,380L260,379L259,378L259,372L259,370L259,363L258,360L258,357L255,353L236,354L237,355L236,357L235,359L234,361L233,363L233,364L233,366L232,369L232,371L231,372L230,373L230,374L230,376L230,380L230,381L230,383L228,386L228,388L228,390L229,391L230,393L230,394Z " data-fips="BN09" data-hasc="BJ.AQ" data-name="Atlantique" data-postal="AQ" data-varname=""/><path d="M262,390L262,389L261,389L258,388L256,388L255,389L254,390L254,391Z " data-fips="BN14" data-hasc="BJ.LI" data-name="Littoral" data-postal="LI" data-varname=""/><path d="M217,367L221,365L224,365L226,365L228,365L233,366L233,364L233,363L234,361L235,359L236,357L237,355L236,354L236,353L234,354L233,354L230,352L230,350L229,349L228,349L227,347L226,345L224,344L223,342L223,340L222,337L220,334L219,333L217,330L216,329L215,328L215,326L214,325L214,324L210,316L209,314L207,314L207,349L206,349L201,349L202,353L203,354L204,355L205,357L204,360L204,361L204,362L205,363L205,365L204,366L205,366L208,368L209,368L211,368Z " data-fips="BN12" data-hasc="BJ.CF" data-name="Kouffo" data-postal="CF" data-varname=""/><path d="M276,389L276,389L276,385L276,382L277,380L277,380L274,376L273,375L270,372L269,370L268,363L265,355L264,352L264,349L260,349L258,349L257,350L256,351L256,352L255,353L258,357L258,360L259,363L259,370L259,372L259,378L260,379L261,380L262,383L262,385L261,389L262,389L262,390Z " data-fips="BN16" data-hasc="BJ.OU" data-name="Oum" data-postal="OU" data-varname=""/><path d="M236,353L236,354L255,353L256,352L256,351L257,350L258,349L260,349L264,349L266,349L267,348L266,345L265,338L265,336L262,334L261,332L259,328L259,326L259,325L259,322L247,316L242,314L238,314L235,314L232,313L230,312L227,310L224,308L221,308L208,308L207,308L207,314L209,314L210,316L214,324L214,325L215,326L215,328L216,329L217,330L219,333L220,334L222,337L223,340L223,342L224,344L226,345L227,347L228,349L229,349L230,350L230,352L233,354L234,354Z " data-fips="BN18" data-hasc="BJ.ZO" data-name="Zou" data-postal="ZO" data-varname=""/><path d="M278,377L278,375L278,373L278,371L278,370L280,369L281,368L280,365L280,364L279,364L277,363L277,361L277,360L278,357L278,354L277,352L277,350L279,347L280,346L280,345L278,343L278,341L279,339L280,338L278,321L280,321L281,321L281,320L282,318L280,315L278,313L277,311L277,308L277,306L264,306L262,309L262,310L262,312L261,313L258,316L258,318L258,319L259,322L259,325L259,326L259,328L261,332L262,334L265,336L265,338L266,345L267,348L266,349L264,349L264,352L265,355L268,363L269,370L270,372L273,375L274,376L277,380L277,380Z " data-fips="BN17" data-hasc="BJ.PL" data-name="Plateau" data-postal="PL" data-varname=""/><path d="M223,395L230,394L230,393L229,391L228,390L228,388L228,386L230,383L230,381L230,380L230,376L230,374L230,373L231,372L232,371L232,369L228,365L226,365L224,365L221,365L217,367L211,368L209,368L208,368L205,366L204,366L204,367L203,368L203,370L204,370L205,372L205,373L205,375L206,376L207,376L209,376L209,377L210,378L210,379L210,381L211,382L213,383L214,385L217,395L215,395L207,397L206,398L206,399Z " data-fips="BN15" data-hasc="BJ.CF" data-name="Mono" data-postal="CF" data-varname=""/><path d="M209,157L212,156L214,154L216,153L219,152L237,153L237,152L237,150L238,150L239,149L243,149L244,149L246,148L247,147L248,146L248,144L248,139L247,136L247,135L246,133L245,132L243,130L243,129L243,128L243,126L244,125L246,123L247,121L248,100L248,99L249,97L250,96L254,93L252,91L251,90L249,90L248,90L245,85L232,63L232,62L232,63L230,64L228,63L225,62L224,62L222,62L221,62L220,62L217,63L216,63L213,63L212,63L211,64L208,64L207,65L206,65L205,63L204,62L204,61L198,60L197,60L196,60L195,61L194,61L193,62L192,63L193,64L192,65L191,66L189,67L189,68L189,69L190,71L189,72L188,71L187,71L186,70L185,70L186,72L186,73L185,74L183,73L182,73L180,73L179,73L178,72L177,73L176,74L177,76L177,79L176,79L175,79L174,80L172,81L172,82L173,82L173,83L174,83L174,85L175,86L175,87L175,88L173,87L171,87L170,87L169,86L168,85L166,85L166,86L165,87L165,89L165,90L166,91L165,92L163,92L162,91L160,94L160,96L160,98L159,101L159,103L158,104L155,108L154,110L154,116L154,118L153,122L152,128L152,130L153,131L189,155L189,158L190,157L194,157L196,157L200,157L202,158L206,158Z " data-fips="BN08" data-hasc="BJ.AK" data-name="Atakora" data-postal="AK" data-varname=""/><path d="M242,253L244,252L244,251L245,250L244,249L245,243L244,237L243,236L243,234L244,231L243,231L237,229L235,228L234,228L233,227L233,226L233,224L233,223L233,220L233,217L234,216L234,214L234,213L233,212L232,211L230,210L230,209L229,207L229,205L229,202L229,199L230,197L231,196L233,196L234,196L237,196L238,195L239,194L241,177L241,175L240,174L238,173L238,171L236,167L236,165L237,162L237,160L237,159L237,156L237,155L237,153L219,152L216,153L214,154L212,156L209,157L206,158L202,158L200,157L196,157L194,157L190,157L189,158L190,174L190,177L190,179L190,180L189,182L188,184L188,186L189,187L190,188L191,188L192,189L192,196L193,198L194,201L203,210L205,213L205,214L206,217L206,246L207,246L210,246L212,246L213,246L218,244L219,244L220,244L222,245L224,247L225,248L227,248L228,248L230,250L231,250L233,251L234,252L236,252L239,253L241,253Z " data-fips="BN13" data-hasc="BJ.DO" data-name="Donga" data-postal="DO" data-varname=""/></g></svg>