<?xml version="1.0" ?><!DOCTYPE svg  PUBLIC '-//W3C//DTD SVG 1.1//EN'  'http://www.w3.org/Graphics/SVG/1.1/DTD/svg11.dtd'><svg enable_background="new 0 0 500 401" height="401px" style="stroke-linejoin: round; stroke:#000; fill:#f6f3f0;" version="1.1" viewBox="0 0 500 401" width="500px" xmlns="http://www.w3.org/2000/svg" xmlns:xlink="http://www.w3.org/1999/xlink"><defs><style type="text/css"><![CDATA[path { fill-rule: evenodd; }
#context path { fill: #eee; stroke: #bbb; } ]]></style></defs><metadata><views><view h="401" padding="0" w="500"><proj id="laea" lat0="12.278" lon0="-1.74"/><bbox h="70.21" w="95.77" x="954.08" y="965.39"/><llbbox lat0="-90" lat1="90" lon0="-180" lon1="180"/></view></views></metadata><g id="admin1"><path d="M388,280L392,279L407,279L410,280L411,280L411,279L411,278L410,277L410,276L411,274L412,273L414,274L415,274L416,275L416,275L419,276L420,276L420,275L420,275L419,273L419,272L418,271L418,270L417,270L417,269L420,268L420,267L421,267L423,268L423,267L422,264L421,262L422,261L423,260L424,261L425,261L427,261L428,261L430,262L431,261L430,260L430,259L431,258L432,260L433,259L434,260L435,258L434,257L434,256L434,255L435,254L437,253L438,252L437,251L438,250L439,249L439,249L439,248L434,244L429,241L427,239L428,233L426,231L425,231L424,230L423,230L423,229L421,228L420,227L420,226L419,225L418,225L416,225L415,224L414,223L413,222L412,222L411,220L409,220L407,220L405,219L404,219L400,222L397,224L397,225L395,226L395,228L395,230L393,231L388,233L385,234L384,235L383,236L383,241L383,242L383,247L384,248L385,251L386,253L386,254L385,256L384,257L383,258L384,261L385,262L385,263L385,264L385,265L382,268L382,269L381,271L381,273L381,274L379,273L378,272L377,271L376,271L373,277L381,279L380,280L381,280L381,283Z " data-fips="UV22" data-hasc="BF.KP" data-name="Kompienga" data-postal="KP" data-varname=""/><path d="M384,235L385,234L388,233L393,231L395,230L395,228L395,226L397,225L397,224L400,222L404,219L405,219L407,220L409,220L411,220L412,222L413,222L414,223L415,224L416,225L418,225L419,225L420,226L420,227L421,228L423,229L423,230L424,230L425,231L426,231L428,231L429,229L430,226L431,224L432,221L432,217L433,207L433,205L431,204L429,204L426,202L425,199L426,196L426,193L425,187L425,183L426,181L427,178L429,172L429,171L430,169L429,167L428,165L429,164L428,164L427,164L424,165L422,166L421,167L420,169L420,170L419,171L418,172L417,171L416,171L415,171L414,171L412,171L411,172L410,174L409,175L408,175L407,175L405,176L404,177L403,179L403,180L402,182L401,182L401,184L400,186L398,187L397,188L397,190L396,191L395,192L394,192L393,193L392,194L390,193L387,187L387,186L379,181L378,182L373,185L371,186L368,189L365,190L358,191L354,193L352,193L350,193L348,196L345,201L347,202L348,204L351,206L351,208L350,209L348,209L346,210L344,211L343,214L342,216L343,218L342,220L343,220L345,220L345,223L347,224L350,225L352,227L353,231L353,231L355,230L355,229L356,228L359,229L360,229L362,230L364,231L367,231L369,231L376,236L378,236L383,236Z " data-fips="UV22" data-hasc="BF.GM" data-name="Gourma" data-postal="GM" data-varname=""/><path d="M102,299L103,298L105,298L106,297L106,296L107,295L109,293L110,291L110,290L111,290L114,290L115,288L116,288L117,287L119,287L119,285L120,283L121,283L123,281L122,281L120,281L119,280L116,277L114,276L113,274L112,273L109,269L108,270L106,270L105,268L104,266L106,257L106,256L105,255L104,254L104,252L102,248L101,247L100,246L99,244L98,242L98,240L98,238L100,231L100,227L100,225L100,224L100,223L100,221L99,219L98,219L98,219L96,219L95,218L93,218L92,218L91,218L90,219L88,219L87,219L85,219L84,219L82,221L80,225L80,226L79,228L79,229L78,231L76,231L75,232L73,231L71,232L70,232L69,232L68,232L66,231L66,229L67,228L68,224L69,222L69,220L69,219L69,218L70,216L70,214L68,214L68,213L68,211L68,210L67,209L66,209L64,210L63,210L61,210L60,210L58,211L57,210L56,209L56,209L54,210L52,210L51,211L52,212L53,212L56,214L57,215L58,219L58,221L57,224L57,227L58,229L57,230L56,230L55,232L56,233L57,233L60,234L59,236L59,237L60,239L60,241L62,242L62,244L63,245L62,247L62,248L61,249L60,250L59,251L58,252L57,251L55,249L51,253L50,253L49,255L49,256L49,258L47,261L47,262L47,263L47,264L49,265L53,267L53,268L54,270L55,271L56,272L56,275L55,276L54,276L53,277L52,278L50,278L49,279L48,280L49,281L49,283L48,284L48,285L46,287L47,287L49,290L49,291L50,291L52,292L54,293L55,293L59,290L60,288L62,287L63,287L65,287L66,287L68,288L69,289L70,293L71,294L72,295L74,295L78,297L79,298L80,298L84,296L86,295L88,294L90,293L92,293L93,295L94,296L95,296L96,297L100,298L101,299Z " data-fips="UV51" data-hasc="BF.HO" data-name="Houet" data-postal="HO" data-varname=""/><path d="M23,290L25,290L28,289L30,289L33,288L36,285L37,285L40,286L45,286L46,287L48,285L48,284L49,283L49,281L48,280L49,279L50,278L52,278L53,277L54,276L55,276L56,275L56,272L55,271L54,270L53,268L53,267L49,265L47,264L47,263L47,262L47,261L49,258L49,256L49,255L50,253L51,253L55,249L57,251L58,252L59,251L60,250L61,249L62,248L62,247L63,245L62,244L62,242L60,241L60,239L59,237L59,236L60,234L57,233L56,233L55,232L56,230L57,230L58,229L57,227L57,224L58,221L58,219L57,215L56,214L53,212L52,212L51,211L50,213L49,213L48,214L46,214L45,213L44,213L41,214L40,214L39,213L37,213L36,214L35,215L33,215L32,215L29,215L28,215L26,217L24,217L23,218L21,220L19,222L16,224L15,223L14,224L12,224L10,225L9,224L8,225L9,226L11,227L12,227L13,227L14,227L15,228L16,229L16,230L16,231L16,233L16,235L15,237L15,238L16,239L17,239L19,241L20,243L20,248L20,250L20,251L18,252L17,253L17,254L17,261L17,262L16,263L14,265L14,266L13,269L13,270L11,271L10,271L9,272L3,272L2,273L2,275L2,275L8,275L10,276L16,282L17,283L17,285L18,286L21,289L22,290Z " data-fips="UV54" data-hasc="BF.KN" data-name="Kndougou" data-postal="KN" data-varname=""/><path d="M70,232L71,232L73,231L75,232L76,231L78,231L79,229L79,228L80,226L80,225L82,221L84,219L85,219L87,219L88,219L90,219L91,218L92,218L93,218L95,218L96,219L98,219L98,219L99,218L101,218L100,217L100,216L101,215L102,215L101,213L103,211L103,210L104,209L105,209L106,207L107,206L108,206L109,204L109,199L109,198L111,197L112,196L113,195L114,193L117,189L119,187L120,187L121,188L122,188L123,189L124,188L124,186L125,183L123,183L119,181L117,180L112,180L109,180L107,180L105,180L103,179L101,180L100,181L100,182L98,185L98,186L98,188L97,188L95,189L93,190L92,190L89,188L88,186L88,183L87,181L86,179L86,178L87,177L87,174L86,173L87,172L88,172L88,170L87,170L86,169L85,168L84,168L82,167L81,168L80,168L78,168L76,167L74,166L72,167L70,167L68,168L67,168L67,171L67,172L70,174L71,176L72,179L73,180L73,181L72,182L71,183L70,184L69,186L71,191L72,194L70,195L69,193L67,193L67,194L66,195L66,197L60,201L61,205L60,205L57,206L57,208L56,209L57,210L58,211L60,210L61,210L63,210L64,210L66,209L67,209L68,210L68,211L68,213L68,214L70,214L70,216L69,218L69,219L69,220L69,222L68,224L67,228L66,229L66,231L68,232L69,232Z " data-fips="UV58" data-hasc="BF.BW" data-name="Banwa" data-postal="BW" data-varname=""/><path d="M95,189L97,188L98,188L98,186L98,185L100,182L100,181L101,180L103,179L105,180L107,180L109,180L112,180L117,180L119,181L123,183L125,183L125,182L126,181L126,179L127,178L127,176L127,175L128,174L128,173L128,171L127,170L127,169L128,169L128,168L130,168L131,168L132,167L134,166L134,164L133,163L132,162L132,160L131,153L132,150L131,145L131,141L131,139L128,139L127,139L126,138L124,137L123,137L118,133L115,131L111,128L109,127L107,126L105,125L104,125L102,125L101,125L100,125L99,124L100,123L102,122L103,122L103,121L101,120L100,118L99,118L99,119L100,120L99,121L98,121L96,122L95,123L93,124L91,125L91,126L90,129L89,130L88,132L86,132L85,132L84,133L83,134L82,135L82,136L84,138L82,139L78,138L77,139L77,141L76,142L76,143L78,145L80,149L80,150L82,151L83,153L84,155L84,158L84,162L83,166L82,167L84,168L85,168L86,169L87,170L88,170L88,172L87,172L86,173L87,174L87,177L86,178L86,179L87,181L88,183L88,186L89,188L92,190L93,190Z " data-fips="UV58" data-hasc="BF.KS" data-name="Kossi" data-postal="KS" data-varname=""/><path d="M173,264L174,261L175,260L176,258L178,258L180,258L182,258L184,258L185,257L187,256L188,256L189,255L190,254L190,253L189,252L184,248L182,247L181,246L181,242L180,240L180,240L179,238L175,232L175,231L173,230L169,230L167,230L166,229L165,228L166,227L167,227L168,226L171,223L170,222L169,221L168,219L169,217L169,216L169,214L168,214L167,213L166,213L165,212L163,213L161,213L159,212L158,211L157,210L156,209L154,210L152,210L149,208L147,209L146,209L146,213L147,214L148,215L149,217L150,217L153,218L154,219L154,221L154,222L153,222L152,223L148,221L146,221L145,222L143,222L142,221L142,219L141,217L138,215L136,215L135,215L129,217L130,218L129,219L128,220L127,221L125,221L124,222L123,222L123,224L123,225L122,227L123,228L126,232L128,233L132,234L134,235L135,235L135,237L134,241L136,242L137,243L138,243L139,243L141,244L141,247L141,248L143,249L144,249L146,248L147,248L148,248L149,247L150,246L152,245L153,244L155,243L157,242L159,242L160,243L161,244L163,245L164,244L165,244L167,245L168,245L169,244L170,245L171,247L171,248L170,249L171,250L171,251L171,254L170,256L170,259L169,261L168,262L168,264L171,264L172,264Z " data-fips="UV63" data-hasc="BF.BA" data-name="Bal" data-postal="BA" data-varname=""/><path d="M115,232L116,231L117,231L119,230L123,228L122,227L123,225L123,224L123,222L124,222L125,221L127,221L128,220L129,219L130,218L129,217L135,215L136,215L138,215L141,217L142,219L142,221L143,222L145,222L146,221L148,221L152,223L153,222L154,222L154,221L154,219L153,218L150,217L149,217L148,215L147,214L146,213L146,209L147,209L149,208L152,210L154,210L156,209L157,210L158,211L159,212L161,213L163,213L165,212L166,211L166,209L167,208L168,208L172,211L173,209L173,207L173,206L172,205L171,203L171,201L170,200L168,198L167,197L168,195L169,194L171,193L170,190L169,189L168,189L167,190L165,191L163,192L161,191L160,190L156,188L155,188L154,187L153,186L150,182L149,181L148,180L146,181L145,180L144,177L144,170L142,171L140,172L140,174L139,174L137,173L138,172L136,169L135,167L134,166L132,167L131,168L130,168L128,168L128,169L127,169L127,170L128,171L128,173L128,174L127,175L127,176L127,178L126,179L126,181L125,182L125,183L124,186L124,188L123,189L122,188L121,188L120,187L119,187L117,189L114,193L113,195L112,196L111,197L109,198L109,199L109,204L108,206L107,206L106,207L105,209L104,209L103,210L103,211L101,213L102,215L101,215L100,216L100,217L101,218L99,218L98,219L99,219L100,221L100,223L100,224L101,224L102,224L103,225L104,226L105,227L105,228L106,229L107,230L108,230L110,231L111,232L111,232L113,232Z " data-fips="UV63" data-hasc="BF.MO" data-name="Mou Houn" data-postal="MO" data-varname=""/><path d="M317,77L329,75L333,73L335,74L338,74L341,74L344,74L347,74L348,74L353,69L354,67L355,65L357,60L358,60L360,59L361,58L360,57L358,54L358,50L362,38L361,36L360,33L360,31L360,30L361,29L362,28L362,27L346,21L338,18L333,17L329,18L325,20L323,21L321,21L321,20L319,16L303,16L301,17L299,18L296,22L283,33L283,33L284,35L288,37L291,41L293,43L297,48L299,51L299,53L299,54L304,59L305,62L307,63L308,64L309,65L309,72L310,75L312,76L313,77Z " data-fips="UV33" data-hasc="BF.OD" data-name="Oudalan" data-postal="OD" data-varname=""/><path d="M242,97L245,95L247,95L253,92L253,94L254,97L256,99L260,101L263,102L268,103L270,102L273,101L277,101L281,99L283,100L287,97L295,95L304,91L307,88L308,88L309,88L311,87L313,85L314,83L314,80L314,78L313,77L312,76L310,75L309,72L309,65L308,64L307,63L305,62L304,59L299,54L299,53L299,51L297,48L293,43L291,41L288,37L284,35L283,33L283,33L283,33L281,35L279,36L267,39L264,40L242,54L238,55L234,55L228,55L226,55L224,56L223,57L222,73L221,74L218,76L218,76L221,79L223,80L228,84L232,86L232,87L231,90L232,93L235,99L237,101L239,103Z " data-fips="UV40" data-hasc="BF.SM" data-name="Soum" data-postal="SM" data-varname=""/><path d="M165,191L167,190L168,189L169,189L170,190L175,187L178,182L178,180L177,179L176,177L176,175L177,173L178,172L180,171L182,170L183,167L181,165L179,163L179,161L180,156L177,154L175,155L173,157L172,157L169,157L168,156L166,156L164,155L162,153L160,153L159,155L158,155L157,154L155,153L154,154L153,154L151,154L150,152L150,151L149,150L143,151L142,153L142,154L141,155L138,157L136,158L136,159L135,162L134,164L134,166L135,167L136,169L138,172L137,173L139,174L140,174L140,172L142,171L144,170L144,177L145,180L146,181L148,180L149,181L150,182L153,186L154,187L155,188L156,188L160,190L161,191L163,192Z " data-fips="UV73" data-hasc="BF.NY" data-name="Nayala" data-postal="NY" data-varname=""/><path d="M135,162L136,159L136,158L138,157L141,155L142,154L142,153L143,151L149,150L150,151L150,152L151,154L153,154L154,154L155,153L157,154L158,155L159,155L160,153L162,153L164,155L166,156L168,156L169,157L172,157L173,157L175,155L177,154L180,155L180,152L180,149L180,147L181,145L182,145L185,145L187,145L189,145L190,143L192,140L195,136L196,134L194,133L193,133L191,133L189,133L188,132L186,131L186,130L184,127L184,124L184,123L183,121L182,120L181,120L180,119L179,118L178,117L172,115L170,114L167,112L165,109L162,110L161,109L160,109L158,110L157,111L156,110L156,109L155,108L153,107L152,107L150,107L149,107L146,105L144,104L143,105L144,106L145,108L144,111L144,113L143,115L145,131L144,132L134,132L133,133L132,135L133,137L133,138L132,139L131,139L131,141L131,145L132,150L131,153L132,160L132,162L133,163L134,164Z " data-fips="UV73" data-hasc="BF.SR" data-name="Sourou" data-postal="SR" data-varname=""/><path d="M255,150L253,147L253,145L256,143L259,142L263,141L265,141L267,142L268,140L267,137L267,136L268,134L269,132L267,128L265,126L264,123L265,121L266,119L265,116L265,114L266,113L267,111L268,109L267,106L263,102L260,101L256,99L254,97L253,94L253,92L247,95L245,95L242,97L239,103L240,104L240,105L240,107L239,108L236,108L234,110L232,111L231,114L231,116L233,121L233,127L233,128L234,130L236,131L236,133L238,133L239,134L240,136L241,137L241,139L241,141L240,143L243,145L244,147L246,149L247,148L248,149L249,149L250,150L251,151L255,151Z " data-fips="UV15" data-hasc="BF.BM" data-name="Bam" data-postal="BM" data-varname=""/><path d="M208,221L209,221L212,220L217,218L219,217L221,216L222,215L223,214L225,212L226,210L226,208L227,208L228,207L230,206L232,206L232,204L234,203L235,201L236,201L236,199L236,198L236,197L235,196L235,195L235,193L233,193L231,193L229,193L226,195L224,197L222,198L220,197L218,196L219,194L221,192L221,190L222,188L223,186L224,185L227,185L228,185L230,186L231,187L233,186L236,185L237,184L236,181L236,179L234,177L232,176L230,175L228,175L228,174L228,172L226,172L225,172L224,170L223,169L219,170L218,170L214,170L212,170L208,171L206,172L205,172L204,174L205,175L206,176L207,175L209,174L209,175L209,178L207,180L203,183L201,185L199,186L197,186L197,187L198,189L198,196L198,200L197,202L194,204L193,205L195,206L196,208L195,210L193,211L193,212L194,215L195,215L197,215L200,218L202,219L204,218L206,217L208,217L208,219L207,221Z " data-fips="UV19" data-hasc="BF.BK" data-name="Boulkiemd" data-postal="BK" data-varname=""/><path d="M224,197L226,195L229,193L231,193L233,193L235,193L235,192L238,191L242,190L243,189L243,188L241,180L242,178L243,178L246,177L247,177L248,175L248,174L249,170L248,168L245,167L245,166L245,163L245,161L244,159L243,159L242,158L240,157L232,159L227,164L226,166L226,168L227,170L228,172L228,174L228,175L230,175L232,176L234,177L236,179L236,181L237,184L236,185L233,186L231,187L230,186L228,185L227,185L224,185L223,186L222,188L221,190L221,192L219,194L218,196L220,197L222,198Z " data-fips="UV53" data-hasc="BF.KW" data-name="Kourwogo" data-postal="KW" data-varname=""/><path d="M266,236L271,227L272,226L274,223L279,221L282,220L284,220L286,221L290,223L293,222L293,220L293,218L291,216L290,215L289,214L287,212L287,211L285,209L285,208L284,205L283,204L282,204L280,204L278,205L277,205L274,205L271,206L270,207L269,207L267,206L266,206L264,206L263,207L262,208L260,208L260,207L258,203L257,202L255,202L254,202L252,203L251,204L250,206L249,206L248,207L246,208L245,209L244,209L240,211L239,210L238,210L236,210L235,209L232,206L230,206L228,207L227,208L226,208L226,210L225,212L223,214L222,215L221,216L223,218L226,221L227,220L229,220L232,220L233,219L235,219L237,220L242,226L243,227L245,228L246,230L248,230L249,231L251,232L252,233L256,235L257,236L258,237L259,239Z " data-fips="UV47" data-hasc="BF.BZ" data-name="Bazga" data-postal="BZ" data-varname=""/><path d="M244,209L245,209L246,208L248,207L249,206L250,206L251,204L252,203L254,202L255,202L257,202L258,203L260,207L260,208L262,208L263,207L264,206L266,206L267,206L269,207L270,207L271,206L274,205L277,205L278,205L280,204L282,204L282,201L281,200L280,199L279,198L273,196L272,194L269,193L269,192L269,191L271,188L271,187L270,185L269,183L266,183L265,183L264,183L263,184L261,185L256,184L258,183L258,182L258,181L257,180L256,178L255,179L253,180L252,180L251,180L250,179L251,177L251,176L251,175L250,173L248,174L248,175L247,177L246,177L243,178L242,178L241,180L243,188L243,189L242,190L238,191L235,192L235,193L235,195L235,196L236,197L236,198L236,199L236,201L235,201L234,203L232,204L232,206L235,209L236,210L238,210L239,210L240,211Z " data-fips="UV53" data-hasc="BF.KA" data-name="Kadiogo" data-postal="KA" data-varname=""/><path d="M280,198L280,196L280,194L279,194L279,192L280,191L281,190L282,188L282,186L281,184L283,183L284,183L285,181L288,181L290,183L292,185L294,184L296,184L296,182L296,181L294,181L291,179L287,173L284,172L282,172L280,171L278,172L278,174L277,174L277,173L278,171L277,170L277,169L275,167L273,165L269,163L266,162L264,162L264,161L263,160L262,160L260,159L257,159L256,159L254,158L253,157L251,157L249,157L247,155L244,155L240,157L242,158L243,159L244,159L245,161L245,163L245,166L245,167L248,168L249,170L250,173L251,175L251,176L251,177L250,179L251,180L252,180L253,180L255,179L256,178L257,180L258,181L258,182L258,183L256,184L261,185L263,184L264,183L265,183L266,183L269,183L270,185L271,187L271,188L269,191L269,192L269,193L272,194L273,196L279,198Z " data-fips="UV68" data-hasc="BF.OB" data-name="Oubritenga" data-postal="OB" data-varname=""/><path d="M198,175L199,174L201,174L205,172L206,172L208,171L212,170L214,170L218,170L219,170L223,169L224,170L225,172L226,172L227,170L226,168L226,166L227,164L232,159L240,157L244,155L247,155L249,157L251,157L252,156L253,154L255,151L251,151L250,150L249,149L248,149L247,148L246,149L244,147L243,145L240,143L237,144L234,144L233,142L232,141L230,142L229,143L228,146L227,146L226,146L225,146L224,147L223,148L222,149L218,149L217,147L213,146L211,145L209,145L203,147L200,149L197,152L195,152L192,153L190,153L188,153L185,153L182,153L180,152L180,155L180,156L179,161L179,163L181,165L183,167L186,166L188,164L188,163L190,162L191,162L193,163L193,165L192,166L191,168L192,169L193,170L196,169L198,170L197,171L195,172L195,174L196,175Z " data-fips="UV34" data-hasc="BF.PA" data-name="Passor" data-postal="PA" data-varname=""/><path d="M192,153L195,152L197,152L200,149L203,147L209,145L211,145L213,146L214,145L215,143L216,142L216,141L217,140L217,139L217,138L218,136L219,133L219,132L218,131L218,129L216,128L213,130L212,129L210,129L209,129L203,127L200,127L198,125L196,126L195,127L194,128L192,129L191,130L189,131L186,131L188,132L189,133L191,133L193,133L194,133L196,134L195,136L192,140L190,143L189,145L187,145L185,145L182,145L181,145L180,147L180,149L180,152L182,153L185,153L188,153L190,153Z " data-fips="UV34" data-hasc="BF.ZM" data-name="Zondoma" data-postal="ZM" data-varname=""/><path d="M182,240L186,240L187,238L187,235L187,232L188,230L189,228L191,227L197,224L199,223L201,223L206,221L207,221L208,219L208,217L206,217L204,218L202,219L200,218L197,215L195,215L194,215L193,212L193,211L195,210L196,208L195,206L193,205L194,204L197,202L198,200L198,196L198,189L197,187L197,186L199,186L201,185L203,183L207,180L209,178L209,175L209,174L207,175L206,176L205,175L204,174L201,174L199,174L198,175L196,175L195,174L195,172L197,171L198,170L196,169L193,170L192,169L191,168L192,166L193,165L193,163L191,162L190,162L188,163L188,164L186,166L183,167L182,170L180,171L178,172L177,173L176,175L176,177L177,179L178,180L178,182L175,187L171,193L169,194L168,195L167,197L168,198L170,200L171,201L171,203L172,205L173,206L173,207L173,209L172,211L168,208L167,208L166,209L166,211L166,213L167,213L168,214L169,214L169,216L169,217L168,219L169,221L170,222L171,223L168,226L167,227L166,227L165,228L166,229L167,230L169,230L173,230L175,231L175,232L179,238L180,240L180,240Z " data-fips="UV36" data-hasc="BF.SG" data-name="Sangui" data-postal="SG" data-varname=""/><path d="M249,279L250,278L251,278L259,278L260,278L260,278L260,276L258,276L257,276L257,274L254,274L252,273L250,273L249,272L248,271L246,270L246,269L247,267L248,266L248,265L249,263L249,262L249,259L247,257L246,256L244,256L242,256L241,257L240,258L238,260L237,260L236,261L234,261L233,259L232,259L231,257L228,256L227,258L226,259L224,261L223,261L222,260L221,260L221,259L220,257L218,257L217,256L216,255L215,253L214,252L213,250L213,249L212,248L211,247L210,246L208,246L205,246L204,245L202,244L201,242L201,240L202,233L203,233L205,233L208,233L209,232L209,231L209,230L209,228L209,226L209,223L208,221L207,221L206,221L201,223L199,223L197,224L191,227L189,228L188,230L187,232L187,235L187,238L186,240L182,240L180,240L181,242L181,246L182,247L184,248L189,252L190,253L190,254L189,255L188,256L187,256L185,257L184,258L182,258L180,258L178,258L176,258L175,260L174,261L173,264L172,264L173,265L173,269L174,270L176,270L177,267L178,267L181,270L182,271L183,272L183,273L182,275L181,276L179,276L178,277L178,278L177,279L177,280Z " data-fips="UV72" data-hasc="BF.SS" data-name="Sissili" data-postal="SS" data-varname=""/><path d="M226,259L227,258L228,256L231,257L232,259L233,259L234,261L236,261L237,260L238,260L240,258L241,257L242,256L244,256L246,256L247,257L249,259L251,257L252,256L253,256L254,256L257,253L258,251L260,251L261,250L262,250L263,249L264,247L267,245L259,239L258,237L257,236L256,235L252,233L251,232L249,231L248,230L246,230L245,228L243,227L242,226L237,220L235,219L233,219L232,220L229,220L227,220L226,221L223,218L221,216L219,217L217,218L212,220L209,221L208,221L209,223L209,226L209,228L209,230L209,231L209,232L208,233L205,233L203,233L202,233L201,240L201,242L202,244L204,245L205,246L208,246L210,246L211,247L212,248L213,249L213,250L214,252L215,253L216,255L217,256L218,257L220,257L221,259L221,260L222,260L223,261L224,261Z " data-fips="UV72" data-hasc="BF.ZR" data-name="Ziro" data-postal="ZR" data-varname=""/><path d="M226,116L228,116L231,116L231,114L232,111L234,110L236,108L239,108L240,107L240,105L240,104L239,103L237,101L235,99L232,93L231,90L232,87L232,86L228,84L223,80L221,79L218,76L218,76L216,76L214,76L199,69L195,68L191,69L186,72L185,73L181,77L181,77L185,80L187,83L187,85L188,87L190,87L191,86L192,86L194,86L195,85L196,84L197,83L199,83L201,84L204,87L206,87L207,88L207,91L208,93L210,94L211,95L211,97L210,99L212,102L214,108L216,116L218,117L220,117L222,117L223,117Z " data-fips="UV15" data-hasc="BF.LO" data-name="Loroum" data-postal="LO" data-varname=""/><path d="M223,148L224,147L225,146L226,146L227,146L228,146L229,143L230,142L232,141L233,142L234,144L237,144L241,141L241,139L241,137L240,136L239,134L238,133L236,133L236,131L234,130L233,128L233,127L233,121L231,116L228,116L226,116L223,117L222,117L220,117L218,117L216,116L214,108L212,102L210,99L211,97L211,95L210,94L208,93L207,91L207,88L206,87L204,87L201,84L199,83L197,83L196,84L195,85L194,86L192,86L191,86L190,87L188,87L187,85L187,83L185,80L181,77L181,77L180,78L171,83L170,86L167,94L166,96L165,99L166,102L167,108L165,109L167,112L170,114L172,115L178,117L179,118L180,119L181,120L182,120L183,121L184,123L184,124L184,127L186,130L186,131L189,131L191,130L192,129L194,128L195,127L196,126L198,125L200,127L203,127L209,129L210,129L212,129L213,130L216,128L218,129L218,131L219,132L219,133L218,136L217,138L217,139L217,140L216,141L216,142L215,143L214,145L217,147L218,149L222,149Z " data-fips="UV76" data-hasc="BF.YT" data-name="Yatenga" data-postal="YT" data-varname=""/><path d="M325,184L336,178L337,176L337,173L336,171L335,169L337,164L334,162L331,161L330,160L329,158L328,156L328,155L326,152L326,151L326,145L328,142L329,140L330,138L329,135L330,133L331,130L331,127L331,126L330,123L332,121L334,120L333,116L334,114L335,112L335,110L332,110L328,110L326,108L324,106L322,105L321,103L320,100L319,98L316,94L314,92L312,91L307,93L307,95L307,99L307,103L305,105L304,106L302,107L302,109L302,113L303,120L304,122L306,123L306,127L307,130L308,134L308,137L306,141L306,145L307,149L306,151L305,152L304,153L299,150L298,152L298,153L300,157L302,161L305,164L307,167L308,171L309,173L310,176L310,181L311,182L311,182L322,185Z " data-fips="UV64" data-hasc="BF.NM" data-name="Namentenga" data-postal="NM" data-varname=""/><path d="M298,180L300,178L302,177L302,175L302,173L303,171L305,171L307,167L305,164L302,161L300,157L298,153L298,152L299,150L304,153L305,152L306,151L307,149L306,145L306,141L308,137L308,134L307,130L306,127L306,123L304,122L303,120L302,113L302,109L302,107L304,106L305,105L307,103L307,99L307,95L307,93L310,90L309,89L308,88L307,88L304,91L295,95L287,97L283,100L281,99L277,101L273,101L270,102L268,103L267,106L268,109L267,111L266,113L265,114L265,116L266,119L265,121L264,123L265,126L267,128L269,132L268,134L267,136L267,137L268,140L267,142L265,141L263,141L259,142L256,143L253,145L253,147L255,150L255,151L253,154L252,156L253,157L254,158L256,159L257,159L260,159L262,160L263,160L264,161L264,162L266,162L269,163L273,165L275,167L277,169L277,170L278,171L277,173L277,174L278,174L278,172L280,171L282,172L284,172L287,173L291,179L294,181L296,181Z " data-fips="UV70" data-hasc="BF.ST" data-name="Sanmatenga" data-postal="ST" data-varname=""/><path d="M311,284L311,283L312,281L313,280L315,280L318,280L318,279L320,278L321,277L322,274L323,273L324,273L325,274L326,275L330,273L330,272L331,271L330,270L331,269L339,270L342,271L343,270L343,269L344,267L345,265L346,265L346,264L347,262L348,261L349,260L350,258L349,257L347,257L346,257L344,257L343,257L342,258L341,257L340,257L339,257L339,255L340,254L340,253L340,252L340,251L341,250L341,248L342,246L342,245L341,244L340,243L342,239L343,238L344,237L345,235L347,233L348,232L351,233L353,232L353,231L352,227L350,225L347,224L345,223L345,220L343,220L342,220L341,220L336,224L334,228L332,228L325,226L322,224L320,221L320,219L320,218L320,215L320,216L317,215L314,216L312,216L310,218L309,220L308,221L306,224L302,225L299,225L295,230L294,231L292,234L291,236L295,241L297,243L300,244L302,246L304,245L305,244L310,246L312,247L315,248L316,250L315,253L315,254L315,255L313,255L311,256L310,257L307,259L305,261L303,262L302,263L302,265L301,267L301,268L303,270L303,272L304,273L306,274L306,275L306,276L305,277L305,280L306,280L307,280L307,281L307,282L310,285Z " data-fips="UV49" data-hasc="BF.BL" data-name="Boulgou" data-postal="BL" data-varname=""/><path d="M376,271L377,271L378,272L379,273L381,274L381,273L381,271L382,269L382,268L385,265L385,264L385,263L385,262L384,261L383,258L384,257L385,256L386,254L386,253L385,251L384,248L383,247L383,242L383,241L383,236L378,236L376,236L369,231L367,231L364,231L362,230L360,229L359,229L356,228L355,229L355,230L353,231L353,231L353,232L351,233L348,232L347,233L345,235L344,237L343,238L342,239L340,243L341,244L342,245L342,246L341,248L341,250L340,251L340,252L340,253L340,254L339,255L339,257L340,257L341,257L342,258L343,257L344,257L346,257L347,257L349,257L350,258L349,260L348,261L347,262L346,264L346,265L345,265L344,267L343,269L343,270L342,271L373,277Z " data-fips="UV49" data-hasc="BF.KL" data-name="Koulplogo" data-postal="KL" data-varname=""/><path d="M302,225L306,224L308,221L309,220L310,218L312,216L314,216L317,215L320,216L320,215L321,215L322,214L323,212L323,205L319,201L319,200L318,198L317,194L317,191L317,190L316,188L314,186L311,184L311,182L310,181L310,176L309,173L308,171L305,171L303,171L302,173L302,175L302,177L300,178L298,180L296,181L296,182L296,184L294,184L292,185L290,183L288,181L285,181L284,183L283,183L281,184L282,186L282,188L281,190L280,191L279,192L279,194L280,194L280,196L280,198L280,199L281,200L282,201L283,204L284,205L285,208L285,209L287,211L287,212L289,214L290,215L291,216L293,218L293,220L293,222L295,223L297,222L298,225L299,225Z " data-fips="UV50" data-hasc="BF.GZ" data-name="Ganzourgou" data-postal="GZ" data-varname=""/><path d="M336,224L341,220L342,220L343,218L342,216L343,214L344,211L346,210L348,209L350,209L351,208L351,206L348,204L347,202L345,201L340,198L338,197L338,194L340,192L340,190L338,188L335,186L334,184L336,178L325,184L322,185L311,182L311,182L311,184L314,186L316,188L317,190L317,191L317,194L318,198L319,200L319,201L323,205L323,212L322,214L321,215L320,215L320,218L320,219L320,221L322,224L325,226L332,228L334,228Z " data-fips="UV28" data-hasc="BF.KR" data-name="Kouritenga" data-postal="KR" data-varname=""/><path d="M294,281L295,280L297,279L298,279L305,280L305,277L306,276L306,275L306,274L304,273L303,272L303,270L301,268L301,267L300,268L298,268L294,267L293,265L292,264L290,262L289,261L288,261L288,259L287,258L286,258L284,258L282,257L280,255L279,254L277,253L275,252L274,251L273,249L271,249L269,249L268,247L267,245L264,247L263,249L262,250L261,250L260,251L258,251L257,253L254,256L253,256L252,256L251,257L249,259L249,262L249,263L248,265L248,266L247,267L246,269L246,270L248,271L249,272L250,273L252,273L254,274L257,274L257,276L258,276L260,276L260,278L260,278L262,279L264,279L280,280L280,279L282,278L291,279L292,280L293,281Z " data-fips="UV65" data-hasc="BF.NR" data-name="Nahouri" data-postal="NR" data-varname=""/><path d="M300,268L301,267L302,265L302,263L303,262L305,261L307,259L310,257L311,256L313,255L315,255L315,254L315,253L316,250L315,248L312,247L310,246L305,244L304,245L302,246L300,244L297,243L295,241L291,236L292,234L294,231L295,230L299,225L298,225L297,222L295,223L290,223L286,221L284,220L282,220L279,221L274,223L272,226L271,227L266,236L267,245L268,247L269,249L271,249L273,249L274,251L275,252L277,253L279,254L280,255L282,257L284,258L286,258L287,258L288,259L288,261L289,261L290,262L292,264L293,265L294,267L298,268Z " data-fips="UV44" data-hasc="BF.ZW" data-name="Zoundwogo" data-postal="ZW" data-varname=""/><path d="M141,305L143,304L144,303L145,303L147,302L152,299L154,297L156,297L156,295L155,293L154,293L151,292L149,293L148,293L148,292L148,290L147,289L148,288L150,287L149,284L151,281L151,280L151,278L152,277L152,275L152,274L152,273L152,271L153,269L153,268L150,267L148,266L144,267L142,267L141,268L140,269L138,268L137,268L136,269L134,270L132,268L131,270L130,270L128,271L127,273L126,274L125,275L124,276L123,277L123,278L123,279L123,281L121,283L120,283L119,285L119,287L117,287L116,288L115,288L114,290L114,291L115,291L116,292L116,294L116,295L115,296L112,296L111,296L110,297L110,298L111,299L112,300L115,300L116,302L119,301L122,301L125,301L127,302L129,303L130,303L133,302L135,302L136,302L137,303L140,305Z " data-fips="UV48" data-hasc="BF.BB" data-name="Bougouriba" data-postal="BB" data-varname=""/><path d="M164,298L165,298L165,297L166,295L166,294L167,292L168,289L169,288L169,287L170,286L171,285L172,284L171,282L171,281L170,279L176,280L177,280L177,279L178,278L178,277L179,276L181,276L182,275L183,273L183,272L182,271L181,270L178,267L177,267L176,270L174,270L173,269L173,265L172,264L171,264L168,264L168,262L169,261L168,260L166,259L164,259L161,258L160,257L157,257L155,258L153,258L152,257L150,257L148,257L146,259L143,262L142,263L142,264L141,268L142,267L144,267L148,266L150,267L153,268L153,269L152,271L152,273L152,274L152,275L152,277L151,278L151,280L151,281L149,284L150,287L148,288L147,289L148,290L148,292L148,293L149,293L151,292L154,293L155,293L156,295L158,296L160,296L161,297L161,298L162,299Z " data-fips="UV48" data-hasc="BF.IO" data-name="Ioba" data-postal="IO" data-varname=""/><path d="M122,281L123,281L123,279L123,278L123,277L124,276L125,275L126,274L127,273L128,271L130,270L131,270L132,268L134,270L136,269L137,268L138,268L140,269L141,268L142,264L142,263L143,262L146,259L148,257L150,257L152,257L153,258L155,258L157,257L160,257L161,258L164,259L166,259L168,260L169,261L170,259L170,256L171,254L171,251L171,250L170,249L171,248L171,247L170,245L169,244L168,245L167,245L165,244L164,244L163,245L161,244L160,243L159,242L157,242L155,243L153,244L152,245L150,246L149,247L148,248L147,248L146,248L144,249L143,249L141,248L141,247L141,244L139,243L138,243L137,243L136,242L134,241L135,237L135,235L134,235L132,234L128,233L126,232L119,230L117,231L116,231L115,232L113,232L111,232L111,232L110,231L108,230L107,230L106,229L105,228L105,227L104,226L103,225L102,224L101,224L100,224L100,225L100,227L100,231L98,238L98,240L98,242L99,244L100,246L101,247L102,248L104,252L104,254L105,255L106,256L106,257L104,266L105,268L106,270L108,270L109,269L112,273L113,274L114,276L116,277L119,280L120,281Z " data-fips="UV51" data-hasc="BF.TU" data-name="Tuy" data-postal="TU" data-varname=""/><path d="M23,323L24,323L25,323L25,323L27,322L27,321L27,320L28,318L28,316L28,315L27,313L26,312L26,310L25,309L24,308L25,306L26,305L27,306L29,305L31,305L32,304L34,305L35,304L36,302L36,301L37,299L37,297L36,295L36,294L37,292L36,291L35,291L34,291L32,291L30,290L30,289L28,289L25,290L23,290L22,290L21,289L18,286L17,285L17,283L16,282L10,276L8,275L2,275L2,275L2,278L2,280L3,279L4,281L5,286L6,288L5,292L5,293L4,294L3,295L3,299L3,300L3,301L3,303L4,304L3,308L1,310L0,315L1,315L2,317L3,318L3,320L4,320L6,321L6,322L8,323L9,323L10,323L11,323L12,323L13,322L14,321L15,322L18,322L19,322L22,324Z " data-fips="UV54" data-hasc="BF.LE" data-name="Lraba" data-postal="LE" data-varname=""/><path d="M73,369L73,368L73,367L74,367L76,368L77,365L77,364L77,363L79,361L78,360L79,359L80,359L82,359L84,358L85,356L87,355L88,355L91,356L92,356L93,355L94,355L97,354L97,353L98,352L100,352L102,350L103,350L103,350L103,349L103,347L101,345L97,342L97,340L98,338L98,337L100,337L102,337L103,337L106,336L108,335L109,334L110,332L112,329L112,328L112,327L112,326L111,323L111,322L111,321L111,320L113,317L114,316L115,314L116,313L116,312L115,310L116,305L116,303L116,302L115,300L112,300L111,299L110,298L110,297L111,296L112,296L115,296L116,295L116,294L116,292L115,291L114,291L114,290L111,290L110,290L110,291L109,293L107,295L106,296L106,297L105,298L103,298L102,299L101,299L100,298L96,297L95,296L94,296L93,295L92,293L90,293L88,294L86,295L84,296L80,298L79,298L78,297L74,295L72,295L71,294L70,293L69,289L68,288L66,287L65,287L63,287L62,287L60,288L59,290L55,293L54,293L52,292L50,291L49,291L49,290L47,287L46,287L45,286L40,286L37,285L36,285L33,288L30,289L30,290L32,291L34,291L35,291L36,291L37,292L36,294L36,295L37,297L37,299L36,301L36,302L35,304L34,305L32,304L31,305L29,305L27,306L26,305L25,306L24,308L25,309L26,310L26,312L27,313L28,315L28,316L28,318L27,320L27,321L27,322L25,323L25,323L25,324L26,324L26,328L26,329L27,329L28,328L28,329L27,331L29,331L29,333L31,334L28,335L29,336L31,337L32,336L33,338L34,339L35,340L35,342L34,343L35,344L36,346L35,349L37,351L38,350L39,350L40,350L42,351L43,351L44,352L44,353L45,353L46,354L46,355L47,356L46,357L45,357L45,358L46,358L47,360L48,359L49,359L50,360L51,361L52,362L53,363L54,362L55,362L57,361L58,361L59,362L61,362L61,361L62,359L63,359L64,360L64,361L63,363L63,364L64,365L66,365L69,365L70,366L71,367L72,369Z " data-fips="UV55" data-hasc="BF.KM" data-name="Komo" data-postal="KM" data-varname=""/><path d="M176,382L177,378L179,377L177,374L174,371L174,370L174,369L175,368L175,367L175,366L175,364L174,364L173,363L173,362L173,360L174,358L176,356L176,354L175,352L175,350L175,347L175,346L175,345L173,342L173,341L173,336L173,333L173,331L173,330L175,329L175,328L175,326L174,326L172,325L172,324L170,324L170,323L170,321L170,320L171,319L172,318L174,318L174,316L173,316L171,316L168,313L168,311L167,310L167,309L166,307L164,304L164,302L165,301L166,299L165,298L164,298L162,299L161,298L161,297L160,296L158,296L156,297L154,297L152,299L147,302L145,303L144,303L143,304L141,305L140,305L137,303L136,302L135,302L133,302L130,303L129,303L127,302L125,301L122,301L119,301L116,302L116,303L116,305L115,310L116,312L116,313L115,314L114,316L113,317L111,320L111,321L111,322L111,323L112,326L112,327L112,328L112,329L110,332L109,334L108,335L106,336L103,337L102,337L100,337L98,337L98,338L97,340L97,342L101,345L103,347L103,349L103,350L103,350L103,350L107,350L109,349L111,348L112,347L115,347L117,347L118,347L119,347L120,348L121,349L125,348L136,349L137,350L138,350L140,350L140,352L140,353L141,354L142,354L143,353L145,350L146,349L147,349L147,351L147,352L147,353L148,354L149,354L151,354L152,356L153,359L154,361L155,362L156,362L158,361L159,361L160,362L161,364L162,367L165,373L172,382L173,383L175,383Z " data-fips="UV69" data-hasc="BF.PO" data-name="Poni" data-postal="PO" data-varname=""/><path d="M348,196L350,193L352,193L354,193L358,191L365,190L368,189L371,186L371,184L369,178L368,167L366,164L365,162L365,161L366,160L367,158L367,156L369,156L370,157L372,157L374,158L376,158L377,158L379,159L380,158L381,157L382,157L383,156L384,155L384,154L386,153L386,152L386,150L383,147L381,144L379,143L377,141L376,139L368,137L365,134L364,132L360,128L358,125L356,121L354,119L353,118L353,116L353,114L353,113L350,114L348,115L345,115L343,114L340,113L338,113L337,115L336,117L334,120L332,121L330,123L331,126L331,127L331,130L330,133L329,135L330,138L329,140L328,142L326,145L326,151L326,152L328,155L328,156L329,158L330,160L331,161L334,162L337,164L335,169L336,171L337,173L337,176L336,178L334,184L335,186L338,188L340,190L340,192L338,194L338,197L340,198Z " data-fips="UV21" data-hasc="BF.GG" data-name="Gnagna" data-postal="GG" data-varname=""/><path d="M393,193L394,192L395,192L396,191L397,190L397,188L398,187L400,186L401,184L401,182L402,182L403,180L403,179L404,177L405,176L407,175L408,175L409,175L410,174L411,172L412,171L414,171L415,171L416,171L417,171L418,172L419,171L420,170L420,169L421,167L422,166L424,165L427,164L428,164L429,164L431,160L419,150L417,149L412,148L411,147L410,146L410,145L410,144L409,145L403,148L402,149L401,150L399,150L398,151L396,152L394,152L393,151L391,152L389,152L388,153L386,153L384,154L384,155L383,156L382,157L381,157L380,158L379,159L377,158L376,158L374,158L372,157L370,157L369,156L367,156L367,158L366,160L365,161L365,162L366,164L368,167L369,178L371,184L371,186L373,185L378,182L379,181L387,186L387,187L390,193L392,194Z " data-fips="UV21" data-hasc="BF.KJ" data-name="Komondjari" data-postal="KJ" data-varname=""/><path d="M337,115L338,113L340,113L343,114L345,115L348,115L350,114L353,113L354,111L355,111L357,110L358,109L359,109L360,108L361,107L363,107L364,105L365,104L365,103L368,102L371,102L372,101L373,99L374,98L376,98L378,97L379,96L380,95L379,94L378,93L377,92L377,91L377,89L376,88L375,88L374,87L374,86L374,85L372,84L372,82L372,81L371,80L371,79L370,78L370,77L372,74L372,71L373,69L370,66L361,58L360,59L358,60L357,60L355,65L354,67L353,69L348,74L347,74L344,74L341,74L338,74L335,74L333,73L329,75L317,77L313,77L314,78L314,80L314,83L313,85L311,87L309,88L308,88L309,89L310,90L312,91L314,92L316,94L319,98L320,100L321,103L322,105L324,106L326,108L328,110L332,110L335,110L335,112L334,114L333,116L336,117Z " data-fips="UV71" data-hasc="BF.SE" data-name="Sno" data-postal="SE" data-varname=""/><path d="M388,153L389,152L391,152L393,151L394,152L396,152L398,151L399,150L401,150L402,149L403,148L409,145L410,144L410,128L410,126L412,126L417,128L420,129L422,129L423,127L423,126L424,126L425,127L427,128L428,127L427,126L426,125L425,125L422,124L421,124L414,121L412,120L411,118L411,115L408,112L405,110L402,109L400,109L398,109L397,109L397,107L397,106L396,106L387,106L386,105L385,104L385,103L386,101L386,100L384,99L384,98L383,98L381,96L380,95L379,96L378,97L376,98L374,98L373,99L372,101L371,102L368,102L365,103L365,104L364,105L363,107L361,107L360,108L359,109L358,109L357,110L355,111L354,111L353,113L353,114L353,116L353,118L354,119L356,121L358,125L360,128L364,132L365,134L368,137L376,139L377,141L379,143L381,144L383,147L386,150L386,152L386,153L386,153Z " data-fips="UV71" data-hasc="BF.YG" data-name="Yagha" data-postal="YG" data-varname=""/><path d="M452,253L453,252L456,251L457,251L458,250L461,251L462,250L465,249L466,249L467,249L468,249L470,250L473,251L475,251L477,250L485,241L488,238L490,237L493,235L494,235L494,233L494,232L495,230L497,227L498,226L500,220L497,217L480,193L478,191L478,189L479,188L483,187L484,187L485,187L489,187L490,186L490,184L490,182L489,181L488,179L487,175L486,173L485,172L484,171L483,170L482,168L479,167L472,167L471,169L469,168L468,170L467,171L467,172L466,174L465,174L464,174L449,173L447,173L446,172L431,160L429,164L428,165L429,167L430,169L429,171L429,172L427,178L426,181L425,183L425,187L426,193L426,196L425,199L426,202L429,204L431,204L433,205L433,207L432,217L432,221L431,224L430,226L429,229L428,231L428,233L427,239L429,241L434,244L439,248L439,249L439,249L439,249L440,248L441,248L443,248L448,249L448,251L449,250L451,253Z " data-fips="UV42" data-hasc="BF.TA" data-name="Tapoa" data-postal="TA" data-varname=""/></g></svg>