<?xml version="1.0" ?><!DOCTYPE svg  PUBLIC '-//W3C//DTD SVG 1.1//EN'  'http://www.w3.org/Graphics/SVG/1.1/DTD/svg11.dtd'><svg enable_background="new 0 0 500 401" height="401px" style="stroke-linejoin: round; stroke:#000; fill:#f6f3f0;" version="1.1" viewBox="0 0 500 401" width="500px" xmlns="http://www.w3.org/2000/svg" xmlns:xlink="http://www.w3.org/1999/xlink"><defs><style type="text/css"><![CDATA[path { fill-rule: evenodd; }
#context path { fill: #eee; stroke: #bbb; } ]]></style></defs><metadata><views><view h="401" padding="0" w="500"><proj id="laea" lat0="7.632" lon0="-5.556"/><bbox h="78.72" w="74.8" x="962.44" y="961.8"/><llbbox lat0="-90" lat1="90" lon0="-180" lon1="180"/></view></views></metadata><g id="admin1"><path d="M247,136L246,135L246,134L246,132L245,132L244,132L243,132L242,131L242,129L242,128L242,126L243,125L244,124L243,123L242,123L241,123L241,121L242,118L243,118L244,118L246,118L247,118L248,118L250,117L251,116L252,116L253,117L255,117L256,116L257,116L256,115L255,114L255,113L257,113L256,110L258,109L257,108L258,108L259,108L258,106L254,104L255,102L256,103L257,102L257,100L258,98L258,97L258,96L257,95L259,95L260,94L261,92L261,90L261,88L262,86L264,84L266,84L268,84L270,84L270,85L272,89L273,89L274,90L275,89L276,88L283,89L284,90L284,92L285,94L285,95L286,96L287,98L288,99L289,100L291,100L292,101L292,102L292,108L291,109L290,111L289,111L289,114L312,114L314,114L316,115L317,116L318,116L321,117L322,118L323,119L325,120L325,121L326,126L327,126L328,126L330,126L330,126L331,128L333,129L333,130L334,130L335,130L337,130L338,131L338,131L340,131L341,131L342,131L343,131L345,131L346,131L347,132L348,132L349,133L350,132L350,131L351,128L352,127L353,127L354,127L356,126L355,125L356,124L358,122L359,122L360,122L360,120L359,119L357,118L358,117L358,117L357,116L355,114L354,113L353,111L354,110L355,109L357,108L359,108L359,107L358,106L357,106L354,105L354,104L354,103L355,101L355,102L357,103L357,101L355,100L354,101L353,100L353,97L352,97L350,97L350,95L348,95L347,94L345,94L343,93L341,91L340,92L339,92L337,92L337,94L336,93L335,92L335,91L336,89L335,87L335,86L335,85L336,83L335,82L334,79L333,78L332,77L332,76L331,74L330,74L327,70L327,70L324,69L324,70L324,71L323,70L322,68L322,67L320,67L318,67L316,67L315,66L315,65L316,63L316,62L315,61L313,62L313,63L313,64L311,64L309,62L308,64L306,64L306,65L304,65L303,64L303,63L302,62L301,61L300,61L299,62L298,61L297,60L297,59L298,59L299,59L298,58L298,56L297,55L296,56L296,54L295,54L294,53L292,53L291,52L290,53L289,53L287,51L288,48L287,46L286,45L288,44L287,43L286,41L284,41L283,40L282,40L282,39L281,38L283,37L281,35L281,34L279,34L280,33L280,31L279,32L278,32L278,31L278,28L278,27L277,26L276,26L275,27L272,25L271,26L268,25L267,25L266,26L265,27L263,26L262,27L261,27L260,27L259,26L258,25L257,24L256,24L256,22L255,21L254,19L253,19L251,18L250,17L248,17L247,18L243,18L237,19L235,20L231,22L230,23L229,24L229,25L229,29L225,28L225,30L224,31L224,32L222,34L217,34L212,32L211,31L210,30L209,30L209,27L210,26L211,26L211,25L212,23L211,22L211,21L212,19L211,18L211,17L212,15L211,15L210,15L209,13L207,13L208,12L209,10L209,9L209,7L211,7L211,6L209,5L208,4L208,1L208,0L206,0L205,1L204,2L202,2L201,2L200,2L198,2L197,3L197,4L197,6L198,7L199,8L199,10L198,11L196,11L195,11L191,10L190,10L188,8L187,8L186,7L184,4L182,5L181,6L181,7L181,9L181,10L181,13L181,15L181,16L181,17L183,18L184,18L183,20L183,20L182,22L183,23L185,26L185,27L185,28L185,30L186,30L188,31L187,34L187,35L182,38L179,39L178,39L176,38L176,37L172,37L171,37L170,38L169,39L169,40L169,41L168,43L168,44L166,46L165,48L166,49L175,48L175,49L176,50L177,51L177,52L178,54L178,55L178,56L177,57L177,58L177,60L178,61L177,62L177,63L178,65L177,66L176,67L175,68L175,70L174,73L175,73L176,74L177,75L178,76L177,78L176,79L176,80L175,81L176,83L175,84L175,86L176,88L177,90L178,92L178,93L177,97L178,99L177,101L179,101L179,102L180,103L181,103L186,104L187,103L188,102L189,101L188,100L188,99L190,98L191,98L192,99L192,100L193,101L194,102L195,103L196,102L197,101L199,99L200,99L201,98L202,96L203,95L204,95L206,95L207,95L208,96L210,98L210,99L210,100L209,101L208,103L208,104L208,105L209,107L209,108L214,111L215,111L215,112L216,113L217,116L227,131L239,135L248,136Z " data-fips="" data-hasc="" data-name="Savanes" data-postal="" data-varname=""/><path d="M150,135L149,134L148,132L149,132L147,131L148,130L148,129L148,127L149,124L149,122L150,121L149,119L149,118L149,117L147,116L148,115L148,113L149,112L147,112L148,111L150,111L151,110L152,109L153,108L154,107L155,108L156,108L158,109L159,110L160,110L161,110L164,110L165,111L166,111L167,111L167,108L167,106L168,105L169,104L172,103L173,102L175,102L177,101L178,99L177,97L178,93L178,92L177,90L176,88L175,86L175,84L176,83L175,81L176,80L176,79L177,78L178,76L177,75L176,74L175,73L174,73L175,70L175,68L176,67L177,66L178,65L177,63L177,62L178,61L177,60L177,58L177,57L178,56L178,55L178,54L177,52L177,51L176,50L175,49L175,48L166,49L165,48L166,46L168,44L168,43L169,41L169,40L169,39L170,38L171,37L172,37L176,37L176,38L178,39L179,39L182,38L187,35L187,34L188,31L186,30L185,30L185,28L185,27L185,26L183,23L182,22L182,24L180,24L179,24L177,22L175,22L174,22L170,24L169,24L166,24L164,24L164,25L162,30L163,31L164,32L164,34L164,35L162,36L161,36L159,37L158,36L157,34L156,33L155,32L149,31L144,30L141,30L139,29L139,27L139,25L139,24L138,24L136,24L134,24L135,23L133,20L133,19L133,18L132,17L130,17L129,18L128,19L126,19L125,19L122,18L121,18L120,19L120,20L118,20L117,21L117,21L117,22L116,24L115,24L114,24L115,26L114,27L114,28L113,29L112,30L110,32L109,33L107,33L106,34L105,35L103,35L102,35L101,35L100,36L99,38L98,40L97,40L94,42L92,43L92,43L91,44L90,46L92,47L91,48L89,49L90,50L91,51L91,52L91,53L92,53L93,55L90,71L90,73L90,74L91,75L91,76L95,82L96,83L97,83L98,83L99,84L100,83L102,83L104,82L105,81L108,82L107,87L106,88L105,91L104,94L104,96L108,97L109,97L111,99L112,100L113,101L115,102L115,103L116,103L118,105L121,111L122,112L123,112L125,113L129,117L131,120L133,121L136,124L137,125L139,126L139,127L140,128L141,130L142,131L143,132L145,132L146,133L147,134L147,135L148,136L150,138Z " data-fips="IV23" data-hasc="CI.DE" data-name="Dengul" data-postal="DE" data-varname=""/><path d="M122,179L123,178L124,179L125,179L126,179L128,178L129,177L129,177L130,176L130,175L131,173L130,171L130,170L130,169L130,168L130,167L130,165L130,163L131,162L132,161L133,160L135,160L135,161L136,162L137,162L138,163L140,164L141,164L144,166L146,170L147,171L148,171L156,171L155,168L155,167L155,164L156,163L155,162L154,160L155,159L154,158L153,157L153,155L154,154L154,151L154,150L153,149L152,148L152,147L151,143L151,141L151,139L150,138L148,136L147,135L147,134L146,133L145,132L143,132L142,131L141,130L140,128L139,127L139,126L137,125L136,124L133,121L131,120L129,117L125,113L123,112L122,112L121,111L118,105L116,103L115,103L114,104L113,104L112,104L110,104L105,107L104,108L103,109L103,111L103,114L102,119L102,121L105,122L106,122L110,123L112,123L113,124L114,126L116,129L118,131L119,132L119,135L119,136L119,139L119,140L119,141L119,143L119,144L120,147L117,147L115,147L114,146L112,142L110,140L109,141L109,143L108,144L107,144L106,143L104,142L103,141L102,139L100,139L98,140L96,139L95,139L94,139L92,140L90,140L87,139L84,142L84,144L85,145L85,146L84,149L84,150L84,151L84,153L83,155L86,156L88,158L95,160L98,159L99,159L98,161L98,163L98,165L100,165L101,166L102,168L103,169L104,169L105,170L106,169L107,169L108,170L109,172L109,173L110,173L111,174L112,175L113,176L113,177L114,177L115,177L117,178L118,179L118,180L120,180L121,180Z " data-fips="IV26" data-hasc="CI.BF" data-name="Bafing" data-postal="BF" data-varname=""/><path d="M80,258L81,257L83,256L83,255L84,253L85,253L86,253L85,251L87,251L88,251L89,250L89,248L91,246L92,245L93,245L92,243L92,242L93,241L93,239L94,239L95,238L96,238L98,235L100,235L102,236L104,238L105,238L107,239L108,239L109,242L110,243L111,243L122,242L123,239L124,237L128,237L135,237L137,236L142,235L144,235L146,236L151,235L154,237L157,237L157,235L157,233L159,230L159,228L156,222L157,219L156,218L157,217L157,216L157,214L156,210L157,209L157,208L158,207L159,206L160,206L161,205L161,203L160,202L160,201L160,199L161,198L162,197L162,196L160,196L159,194L157,194L157,192L156,191L157,189L157,188L156,186L156,184L155,180L155,178L155,176L156,176L157,174L157,173L156,171L148,171L147,171L146,170L144,166L141,164L140,164L138,163L137,162L136,162L135,161L135,160L133,160L132,161L131,162L130,163L130,165L130,167L130,168L130,169L130,170L130,171L131,173L130,175L130,176L129,177L129,177L128,178L126,179L125,179L124,179L123,178L122,179L121,180L120,180L118,180L118,179L117,178L115,177L114,177L113,177L113,176L112,175L111,174L110,173L109,173L109,172L108,170L107,169L106,169L105,170L104,169L103,169L102,168L102,169L100,169L99,168L95,169L95,170L94,173L91,177L92,181L93,182L93,183L92,184L92,185L91,188L89,191L89,192L88,192L87,194L87,195L87,197L85,199L83,198L80,196L78,195L77,195L76,196L75,196L74,194L72,195L69,198L72,199L73,201L74,206L75,212L76,214L77,216L78,218L79,220L79,222L80,223L80,224L80,225L81,231L81,234L79,235L79,236L79,238L79,240L79,241L79,243L79,245L78,247L77,248L71,254L72,254L78,258L79,258Z " data-fips="IV36" data-hasc="CI.DH.BA" data-name="Dix-Huit Montagnes" data-postal="BA" data-varname=""/><path d="M219,192L219,191L219,190L221,188L223,187L224,187L229,189L230,189L231,188L233,187L234,187L236,187L237,186L238,185L238,184L238,182L238,181L238,179L239,178L239,176L239,175L239,174L240,170L241,170L244,170L246,170L248,169L252,166L252,165L253,164L255,164L256,165L257,163L259,164L260,164L261,162L261,160L263,160L264,159L264,157L263,154L264,154L263,153L262,152L261,152L260,150L259,150L257,149L254,148L253,147L251,147L250,146L249,145L247,143L248,142L249,142L250,142L252,142L253,141L248,139L239,135L227,131L217,116L216,113L215,112L215,111L214,111L209,108L209,107L208,105L208,104L208,103L209,101L210,100L210,99L210,98L208,96L207,95L206,95L204,95L203,95L202,96L201,98L200,99L199,99L197,101L196,102L195,103L194,102L193,101L192,100L192,99L191,98L190,98L188,99L188,100L189,101L188,102L187,103L186,104L181,103L180,103L179,102L179,101L177,101L175,102L173,102L172,103L169,104L168,105L167,106L167,108L167,111L166,111L165,111L164,110L161,110L160,110L159,110L158,109L156,108L155,108L154,107L153,108L152,109L151,110L150,111L148,111L147,112L149,112L148,113L148,115L147,116L149,117L149,118L149,119L150,121L149,122L149,124L148,127L148,129L148,130L147,131L149,132L148,132L149,134L150,135L150,138L151,139L151,141L151,143L152,147L152,148L153,149L154,150L154,151L154,154L153,155L153,157L154,158L155,159L154,160L155,162L156,163L155,164L155,167L155,168L156,171L157,173L157,174L156,176L155,176L155,178L155,180L156,184L156,186L157,188L158,186L160,186L161,185L184,184L193,187L195,187L197,187L206,184L208,185L209,186L210,188L210,190L211,191L213,192L215,192L216,193L219,193Z " data-fips="IV25" data-hasc="CI.WR" data-name="Worodougou" data-postal="WR" data-varname=""/><path d="M241,265L254,256L255,256L260,256L260,252L260,251L259,250L258,248L255,244L254,243L252,241L252,240L252,238L253,237L254,236L254,235L254,234L255,232L256,232L257,231L255,230L254,229L254,228L254,227L254,224L252,224L251,224L250,224L249,224L248,223L248,222L247,221L245,220L244,220L243,219L244,218L244,216L243,215L242,214L241,213L242,212L241,211L240,210L240,209L240,205L240,203L240,202L241,202L241,201L240,200L239,197L238,196L237,195L237,194L237,190L237,189L236,187L234,187L233,187L231,188L230,189L229,189L224,187L223,187L221,188L219,190L219,191L219,192L219,193L205,201L204,202L203,203L203,205L202,206L199,211L196,217L196,218L198,218L199,217L200,218L201,219L202,219L205,220L206,220L208,220L209,219L209,218L209,216L210,215L211,215L213,215L215,216L216,217L217,218L219,219L222,220L223,221L225,222L227,223L227,224L225,225L223,225L222,225L211,232L210,233L210,234L210,235L210,237L210,239L210,240L212,245L212,246L212,248L213,250L215,253L218,256L217,258L218,260L221,263L239,265Z " data-fips="IV34" data-hasc="CI.MR.ZU" data-name="Marahou" data-postal="ZU" data-varname=""/><path d="M231,302L234,300L235,299L236,299L237,298L237,297L237,296L238,292L238,291L238,288L238,287L240,283L254,285L266,281L267,281L272,277L272,275L271,272L269,273L268,273L266,272L266,271L266,270L266,268L265,267L266,266L266,264L265,264L264,263L265,262L266,261L266,260L266,259L265,258L264,258L260,257L260,256L255,256L254,256L241,265L239,265L221,263L220,267L219,268L218,271L217,272L215,271L214,271L211,274L209,275L205,275L204,275L202,276L200,276L198,277L199,286L200,289L201,293L202,295L203,296L204,296L205,297L205,298L206,299L206,303L207,304L208,305L210,310L213,309L215,309L217,310L217,311L219,313L219,314L219,315L220,316Z " data-fips="IV18" data-hasc="CI.FR" data-name="Fromager" data-postal="FR" data-varname=""/><path d="M181,280L182,280L187,276L188,276L191,278L192,278L193,278L197,277L198,277L200,276L202,276L204,275L205,275L209,275L211,274L214,271L215,271L217,272L218,271L219,268L220,267L221,263L218,260L217,258L218,256L215,253L213,250L212,248L212,246L212,245L210,240L210,239L210,237L210,235L210,234L210,233L211,232L222,225L223,225L225,225L227,224L227,223L225,222L223,221L222,220L219,219L217,218L216,217L215,216L213,215L211,215L210,215L209,216L209,218L209,219L208,220L206,220L205,220L202,219L201,219L200,218L199,217L198,218L196,218L196,217L199,211L202,206L203,205L203,203L204,202L205,201L216,193L215,192L213,192L211,191L210,190L210,188L209,186L208,185L206,184L197,187L195,187L193,187L184,184L161,185L160,186L158,186L157,188L157,189L156,191L157,192L157,194L159,194L160,196L162,196L162,197L161,198L160,199L160,201L160,202L161,203L161,205L160,206L159,206L158,207L157,208L157,209L156,210L157,214L157,216L157,217L156,218L157,219L156,222L159,228L159,230L157,233L157,235L157,237L158,239L158,240L157,241L158,242L158,243L160,244L161,244L161,245L162,247L163,252L163,253L162,254L163,256L161,259L160,260L161,261L163,262L164,264L164,265L163,266L162,266L162,267L163,271L170,279L171,280L172,280Z " data-fips="" data-hasc="" data-name="Haut-Sassandra" data-postal="" data-varname=""/><path d="M232,356L246,354L251,353L249,352L251,351L253,352L255,352L259,352L258,344L259,342L260,343L264,346L265,346L265,345L265,344L266,344L267,344L269,344L270,345L271,344L271,344L275,344L277,344L278,344L279,345L280,344L282,338L282,336L282,335L286,326L287,323L287,322L287,320L286,318L286,317L289,308L286,303L285,298L285,290L285,289L283,288L277,287L274,286L267,281L266,281L254,285L240,283L238,287L238,288L238,291L238,292L237,296L237,297L237,298L236,299L235,299L234,300L231,302L220,316L220,316L221,317L222,319L221,320L222,322L222,323L223,324L224,325L225,326L226,326L234,323L239,341L239,345L234,346L232,347L231,348L231,350L232,356Z " data-fips="IV29" data-hasc="CI.SB.LA" data-name="Sud-Bandama" data-postal="LA" data-varname=""/><path d="M133,399L138,395L142,393L143,392L145,391L146,390L149,389L150,388L155,388L157,387L161,385L164,382L167,379L168,379L170,378L176,378L184,375L185,375L187,373L188,373L189,373L196,371L197,371L197,369L207,366L214,363L219,361L223,360L224,359L225,359L232,356L231,350L231,348L232,347L234,346L239,345L239,341L234,323L226,326L225,326L224,325L223,324L222,323L222,322L221,320L222,319L221,317L220,316L220,316L219,315L219,314L219,313L217,311L217,310L215,309L213,309L210,310L208,305L207,304L206,303L206,299L205,298L205,297L204,296L203,296L202,295L201,293L200,289L199,286L198,277L197,277L193,278L192,278L191,278L188,276L187,276L182,280L181,280L172,280L171,280L170,279L163,271L162,267L162,266L163,266L164,265L164,264L163,262L161,261L161,261L159,261L158,262L156,264L155,264L154,265L154,267L154,275L155,287L156,290L156,296L155,315L136,318L135,319L135,319L136,321L137,322L135,323L136,324L136,325L135,325L135,326L134,327L134,328L134,331L133,332L133,333L133,334L134,335L135,335L136,335L136,336L137,337L136,339L135,340L135,341L134,341L133,340L132,341L131,342L130,344L131,347L131,348L130,349L128,352L127,352L126,352L125,353L125,355L125,358L126,360L126,361L126,363L125,363L123,365L123,368L123,369L123,370L124,371L125,372L125,375L125,389L125,390L125,392L125,393L125,394L125,396L125,397L127,398L128,398L131,399L132,399Z " data-fips="IV32" data-hasc="CI.BS.SO" data-name="Bas-Sassandra" data-postal="SO" data-varname=""/><path d="M404,229L407,228L408,224L411,220L411,218L410,217L410,216L413,197L414,194L418,185L418,184L419,183L419,182L420,181L421,180L422,179L422,174L423,174L424,173L427,170L428,169L432,168L433,167L434,167L434,166L433,164L432,161L433,160L434,159L435,160L436,159L439,158L440,157L434,122L432,121L433,119L434,118L432,113L432,112L431,112L430,109L430,107L430,106L428,106L427,105L424,105L424,105L423,104L423,103L423,102L423,101L424,98L425,97L426,95L427,94L429,93L429,92L430,90L429,90L428,90L427,89L426,88L426,87L427,86L428,85L429,84L429,82L428,81L428,78L428,77L426,79L424,82L423,83L422,83L420,82L414,74L411,68L410,65L409,63L408,62L407,62L405,63L404,63L403,62L402,60L401,57L400,56L398,55L397,55L396,55L396,53L396,52L395,50L394,51L392,54L391,55L390,55L389,54L389,53L389,51L387,52L386,52L384,51L375,50L371,50L370,50L369,49L368,49L367,49L366,49L365,49L361,50L360,50L359,51L358,52L353,52L352,52L350,54L349,54L348,55L347,56L345,57L344,57L343,58L342,58L338,57L337,57L336,58L335,60L333,61L331,61L330,61L329,62L330,62L328,64L328,65L328,68L327,70L330,74L331,74L332,76L332,77L333,78L334,79L335,82L336,83L335,85L335,86L335,87L336,89L335,91L335,92L336,93L337,94L337,92L339,92L340,92L341,91L343,93L345,94L347,94L348,95L350,95L350,97L352,97L353,97L353,100L354,101L355,100L357,101L357,103L355,102L355,101L354,103L354,104L354,105L357,106L358,106L359,107L359,108L357,108L355,109L354,110L353,111L354,113L355,114L357,116L358,117L358,117L357,118L359,119L360,120L360,122L359,122L358,122L356,124L355,125L356,126L354,127L353,127L352,127L351,128L350,131L352,132L352,135L350,137L348,137L348,139L351,140L351,142L351,143L349,143L348,144L348,145L350,146L349,147L349,148L350,149L350,150L348,151L344,151L345,153L345,154L347,155L347,156L346,158L346,159L348,159L350,162L351,163L350,164L349,164L348,165L347,166L347,169L346,171L347,172L349,172L350,172L351,172L352,173L351,174L350,175L349,176L351,177L353,178L355,178L355,179L356,180L355,181L356,182L356,183L355,185L357,185L358,185L359,187L360,186L361,187L362,187L363,187L364,188L364,189L365,192L366,192L367,193L368,195L369,196L370,196L372,196L373,196L374,199L372,201L374,201L375,202L376,203L378,205L378,207L378,208L377,209L377,210L379,211L380,211L381,212L382,212L383,213L385,217L385,217L387,219L388,218L389,217L390,217L396,219L397,220L399,221L400,222L401,223L403,228L403,229Z " data-fips="IV11" data-hasc="CI.ZA" data-name="Zanzan" data-postal="ZA" data-varname=""/><path d="M263,219L266,218L267,218L268,218L269,216L271,216L272,215L273,214L274,212L281,209L282,208L283,206L283,205L284,205L288,204L289,203L290,201L291,200L293,199L297,199L298,199L300,201L301,201L308,199L309,198L310,197L311,196L313,195L315,196L315,195L314,188L314,186L314,185L315,183L317,182L318,183L319,183L321,183L322,183L323,182L324,181L329,178L330,178L334,174L335,172L336,171L337,170L347,169L347,166L348,165L349,164L350,164L351,163L350,162L348,159L346,159L346,158L347,156L347,155L345,154L345,153L344,151L348,151L350,150L350,149L349,148L349,147L350,146L348,145L348,144L349,143L351,143L351,142L351,140L348,139L348,137L350,137L352,135L352,132L350,132L349,133L348,132L347,132L346,131L345,131L343,131L342,131L341,131L340,131L338,131L338,131L337,130L335,130L334,130L333,130L333,129L331,128L330,126L330,126L328,126L327,126L326,126L325,121L325,120L323,119L322,118L321,117L318,116L317,116L316,115L314,114L312,114L289,114L289,111L290,111L291,109L292,108L292,102L292,101L291,100L289,100L288,99L287,98L286,96L285,95L285,94L284,92L284,90L283,89L276,88L275,89L274,90L273,89L272,89L270,85L270,84L268,84L266,84L264,84L262,86L261,88L261,90L261,92L260,94L259,95L257,95L258,96L258,97L258,98L257,100L257,102L256,103L255,102L254,104L258,106L259,108L258,108L257,108L258,109L256,110L257,113L255,113L255,114L256,115L257,116L256,116L255,117L253,117L252,116L251,116L250,117L248,118L247,118L246,118L244,118L243,118L242,118L241,121L241,123L242,123L243,123L244,124L243,125L242,126L242,128L242,129L242,131L243,132L244,132L245,132L246,132L246,134L246,135L247,136L248,136L248,139L253,141L252,142L250,142L249,142L248,142L247,143L249,145L250,146L251,147L253,147L254,148L257,149L259,150L260,150L261,152L262,152L263,153L264,154L263,154L264,157L264,159L263,160L261,160L261,162L260,164L259,164L257,163L256,165L255,164L253,164L252,165L252,166L248,169L246,170L244,170L241,170L240,170L239,174L239,175L239,176L239,178L238,179L238,181L238,182L238,184L238,185L237,186L236,187L237,189L237,190L237,194L237,195L238,196L239,197L240,200L241,201L241,202L240,202L240,203L240,205L240,209L240,210L241,211L242,212L241,213L242,214L243,215L244,216L246,217L247,217L254,215L258,214L259,215L260,217L261,218L262,219Z " data-fips="IV20" data-hasc="CI.VB" data-name="Valle du Bandama" data-postal="VB" data-varname=""/><path d="M352,319L353,318L352,311L354,309L355,308L356,308L357,307L359,305L364,302L365,301L381,304L381,303L383,299L383,298L384,297L385,296L386,295L386,294L385,293L384,292L385,291L383,292L383,290L384,290L385,288L385,285L384,283L382,282L382,284L381,283L380,282L380,280L381,279L380,277L379,275L376,272L374,273L373,273L372,273L371,270L369,268L369,267L370,266L369,263L369,262L368,260L367,259L367,258L367,256L366,255L365,257L363,257L361,256L345,264L342,265L341,266L341,267L339,270L338,271L338,272L338,273L338,274L338,276L338,277L338,278L339,279L338,281L333,284L332,284L330,284L328,283L326,282L325,282L324,281L322,280L322,278L321,278L319,282L307,304L319,312L320,316L321,317L322,318L325,320L327,320L329,321Z " data-fips="IV06" data-hasc="CI.AG.AV" data-name="Agnby" data-postal="AV" data-varname=""/><path d="M333,284L338,281L339,279L338,278L338,277L338,276L338,274L338,273L338,272L338,271L339,270L341,267L341,266L342,265L345,264L361,256L361,256L361,254L360,253L362,253L362,251L360,248L363,245L364,244L363,244L361,242L362,241L362,240L363,239L364,238L364,237L363,236L363,235L362,237L361,236L361,234L363,233L366,232L367,230L368,230L371,229L371,228L374,228L374,227L374,226L373,226L371,226L370,225L369,223L370,221L371,221L371,222L373,221L373,219L373,218L373,216L375,215L376,215L377,214L376,214L376,213L377,210L377,209L378,208L378,207L378,205L376,203L375,202L374,201L372,201L374,199L373,196L372,196L370,196L369,196L368,195L367,193L366,192L365,192L364,189L364,188L363,187L362,187L361,187L360,186L359,187L358,185L357,185L355,185L356,183L356,182L355,181L356,180L355,179L355,178L353,178L351,177L349,176L350,175L351,174L352,173L351,172L350,172L349,172L347,172L346,171L347,169L337,170L336,171L335,172L334,174L330,178L329,178L324,181L323,182L322,183L321,183L319,183L318,183L317,182L315,183L314,185L314,186L314,188L315,195L315,196L313,195L311,196L310,197L309,198L308,199L308,204L308,205L306,205L303,206L302,206L302,208L303,216L300,227L300,228L298,231L297,232L297,233L297,235L298,237L297,239L298,240L297,241L291,244L290,244L288,245L288,246L287,250L288,250L289,252L288,253L288,254L290,256L290,256L290,258L291,258L292,258L292,257L293,257L294,257L295,256L297,256L301,258L300,259L300,260L300,261L299,261L299,263L298,264L299,266L300,265L301,265L302,266L302,268L302,269L303,269L303,270L303,271L304,273L304,274L303,275L303,277L304,277L304,278L319,282L321,278L322,278L322,280L324,281L325,282L326,282L328,283L330,284L332,284Z " data-fips="IV27" data-hasc="CI.NC.BG" data-name="N'zi-Como" data-postal="BG" data-varname=""/><path d="M267,352L270,351L285,350L285,349L284,348L283,347L280,347L280,347L278,348L274,346L271,345L272,346L273,347L274,347L273,348L272,348L271,348L270,348L269,347L268,347L266,348L266,349L264,349L266,350L267,349L268,349L269,350L266,351L263,350L261,349L260,348L261,347L263,349L264,347L265,348L267,346L265,346L264,346L260,343L259,342L258,344L259,352Z M293,350L299,349L309,347L332,345L348,344L343,341L345,341L346,341L344,340L336,341L335,341L334,342L331,342L330,343L329,343L328,342L326,343L325,342L323,343L322,343L320,344L317,344L315,344L312,345L313,345L314,345L312,346L311,345L310,345L307,345L306,346L304,345L303,345L302,346L301,347L300,348L299,348L298,347L297,346L298,345L299,344L302,344L303,342L301,341L303,341L304,341L305,340L306,339L306,340L305,341L306,341L306,342L305,342L303,342L304,343L305,344L306,343L307,343L308,342L310,343L312,342L313,341L312,340L313,339L313,340L314,341L318,342L319,342L319,341L318,341L319,339L321,340L322,340L323,339L325,340L326,340L327,340L328,339L329,339L331,339L332,339L332,340L334,340L336,339L337,339L338,340L340,339L342,340L343,340L344,339L345,340L347,341L348,341L350,341L351,340L351,340L350,339L349,339L348,338L350,338L351,338L353,338L353,337L354,336L354,337L354,338L355,338L357,339L358,340L360,340L360,341L362,341L363,341L364,340L363,340L362,339L361,336L359,335L360,335L362,335L363,335L363,336L364,339L365,340L364,342L361,341L362,343L359,341L358,341L357,341L354,341L354,342L353,341L352,340L351,341L350,342L349,342L348,341L349,343L351,343L355,344L359,346L361,346L363,346L364,345L365,344L365,345L366,346L368,347L371,347L377,348L383,344L385,343L384,342L383,340L383,339L383,336L383,332L383,329L384,327L385,325L385,324L384,323L384,320L383,319L383,318L383,312L384,312L384,310L383,309L382,309L381,307L365,301L364,302L359,305L357,307L356,308L355,308L354,309L352,311L353,318L352,319L329,321L327,320L325,320L322,318L321,317L320,316L319,312L307,304L319,282L304,278L302,280L301,280L299,281L297,280L296,280L295,280L293,280L289,281L287,281L285,281L284,280L274,272L273,272L272,275L272,277L274,286L277,287L283,288L285,289L285,290L285,298L286,303L289,308L286,317L286,318L287,320L287,322L287,323L286,326L282,335L282,336L282,338L280,344L279,345L278,344L277,344L275,344L271,344L271,344L272,345L274,344L276,345L277,346L278,347L279,346L280,345L281,345L286,345L285,346L285,347L286,349L287,350L291,350L292,350Z " data-fips="IV61" data-hasc="CI.LG.AB" data-name="Lagunes" data-postal="AB" data-varname=""/><path d="M136,318L155,315L156,296L156,290L155,287L154,275L154,267L154,265L155,264L156,264L158,262L159,261L161,261L161,261L160,260L161,259L163,256L162,254L163,253L163,252L162,247L161,245L161,244L160,244L158,243L158,242L157,241L158,240L158,239L157,237L154,237L151,235L146,236L144,235L142,235L137,236L135,237L128,237L124,237L123,239L122,242L111,243L110,243L109,242L108,239L107,239L105,238L104,238L102,236L100,235L98,235L96,238L95,238L94,239L93,239L93,241L92,242L92,243L93,245L92,245L91,246L89,248L89,250L88,251L87,251L85,251L86,253L85,253L84,253L83,255L83,256L81,257L80,258L79,258L78,258L72,254L71,254L70,255L66,259L65,260L64,261L63,262L62,262L60,264L62,264L64,264L65,265L67,268L68,268L69,267L69,266L70,265L71,266L73,267L73,269L73,270L73,271L73,272L73,273L73,274L75,273L76,273L77,273L78,273L80,274L80,274L80,276L81,276L83,276L86,277L87,278L88,278L90,278L92,277L95,276L97,276L98,277L99,277L103,278L104,278L105,280L107,282L108,284L108,286L107,288L107,289L107,290L109,290L110,290L111,291L111,293L112,294L111,295L111,297L112,298L114,299L115,300L117,301L118,300L119,299L120,300L121,301L122,301L123,302L125,303L125,304L126,305L127,305L128,304L129,305L130,307L131,307L131,306L131,304L133,305L133,307L133,310L133,312L134,317L135,319Z " data-fips="" data-hasc="" data-name="Moyen-Cavally" data-postal="" data-varname=""/><path d="M386,308L391,300L394,291L395,290L396,289L396,287L396,286L397,284L399,280L398,279L393,257L393,256L394,255L395,254L396,250L395,248L395,247L394,246L395,245L396,242L403,229L403,228L401,223L400,222L399,221L397,220L396,219L390,217L389,217L388,218L387,219L385,217L385,217L383,213L382,212L381,212L380,211L379,211L376,213L376,214L377,214L376,215L375,215L373,216L373,218L373,219L373,221L371,222L371,221L370,221L369,223L370,225L371,226L373,226L374,226L374,227L374,228L371,228L371,229L368,230L367,230L366,232L363,233L361,234L361,236L362,237L363,235L363,236L364,237L364,238L363,239L362,240L362,241L361,242L363,244L364,244L363,245L360,248L362,251L362,253L360,253L361,254L361,256L361,256L363,257L365,257L366,255L367,256L367,258L367,259L368,260L369,262L369,263L370,266L369,267L369,268L371,270L372,273L373,273L374,273L376,272L379,275L380,277L381,279L380,280L380,282L381,283L382,284L382,282L384,283L385,285L385,288L384,290L383,290L383,292L385,291L384,292L385,293L386,294L386,295L385,296L384,297L383,298L383,299L381,303L381,304L381,307L382,309L383,309Z " data-fips="" data-hasc="" data-name="Moyen-Comoe" data-postal="" data-varname=""/><path d="M293,280L295,280L296,280L297,280L299,281L301,280L302,280L304,278L304,277L303,277L303,275L304,274L304,273L303,271L303,270L303,269L302,269L302,268L302,266L301,265L300,265L299,266L298,264L299,263L299,261L300,261L300,260L300,259L301,258L297,256L295,256L294,257L293,257L292,257L292,258L291,258L290,258L290,256L290,256L288,254L288,253L289,252L288,250L287,250L288,246L288,245L290,244L291,244L297,241L298,240L297,239L298,237L297,235L297,233L297,232L298,231L300,228L300,227L303,216L302,208L302,206L303,206L306,205L308,205L308,204L301,201L300,201L298,199L297,199L293,199L291,200L290,201L289,203L288,204L284,205L283,205L283,206L282,208L281,209L274,212L273,214L272,215L271,216L269,216L268,218L267,218L266,218L263,219L262,219L261,218L260,217L259,215L258,214L254,215L247,217L246,217L244,218L243,219L244,220L245,220L247,221L248,222L248,223L249,224L250,224L251,224L252,224L254,224L254,227L254,228L254,229L255,230L257,231L256,232L255,232L254,234L254,235L254,236L253,237L252,238L252,240L252,241L254,243L255,244L258,248L259,250L260,251L260,252L260,256L260,257L264,258L265,258L266,259L266,260L266,261L265,262L264,263L265,264L266,264L266,266L265,267L266,268L266,270L266,271L266,272L268,273L269,273L271,272L273,272L274,272L284,280L285,281L287,281L289,281Z " data-fips="IV56" data-hasc="CI.LC.TM" data-name="Lacs" data-postal="TM" data-varname=""/><path d="M413,350L414,349L414,348L413,347L415,347L418,346L420,347L420,348L422,348L424,348L425,348L425,346L424,345L424,343L424,342L423,340L423,336L426,336L427,335L427,334L427,333L425,329L424,328L424,325L423,321L423,320L422,319L418,318L417,318L414,320L413,320L412,319L411,317L412,313L408,314L409,307L408,304L408,302L405,298L404,295L402,285L401,282L399,280L397,284L396,286L396,287L396,289L395,290L394,291L391,300L386,308L383,309L384,310L384,312L383,312L383,318L383,319L384,320L384,323L385,324L385,325L384,327L383,329L383,332L383,336L383,339L383,340L384,342L385,343L383,344L377,348L387,350L391,350L393,349L391,348L391,347L390,346L391,345L392,344L394,344L394,343L393,343L392,342L392,340L395,339L394,338L394,336L396,335L398,336L399,336L400,335L402,335L402,336L402,338L401,338L400,339L400,341L399,342L398,343L398,345L399,345L400,346L401,348L401,349L402,348L405,348L406,348L407,349L410,350L411,351Z M402,351L401,350L400,350L399,350L398,349L397,348L395,348L394,349L393,350L394,351L400,351L403,352Z " data-fips="IV63" data-hasc="CI.SC" data-name="Sud-Como" data-postal="SC" data-varname=""/></g></svg>