<?xml version="1.0" ?><!DOCTYPE svg  PUBLIC '-//W3C//DTD SVG 1.1//EN'  'http://www.w3.org/Graphics/SVG/1.1/DTD/svg11.dtd'><svg enable_background="new 0 0 500 401" height="401px" style="stroke-linejoin: round; stroke:#000; fill:#f6f3f0;" version="1.1" viewBox="0 0 500 401" width="500px" xmlns="http://www.w3.org/2000/svg" xmlns:xlink="http://www.w3.org/1999/xlink"><defs><style type="text/css"><![CDATA[path { fill-rule: evenodd; }
#context path { fill: #eee; stroke: #bbb; } ]]></style></defs><metadata><views><view h="401" padding="0" w="500"><proj id="laea" lat0="-2.876" lon0="23.654"/><bbox h="232.53" w="234.39" x="859.68" y="898.26"/><llbbox lat0="-90" lat1="90" lon0="-180" lon1="180"/></view></views></metadata><g id="admin1"><path d="M253,166L253,166L254,165L256,164L256,163L257,162L258,162L259,163L259,165L259,166L261,166L261,165L260,160L259,157L259,154L262,155L265,155L266,154L268,152L269,152L270,152L271,153L272,153L273,154L274,154L275,155L276,155L277,155L278,155L279,156L280,158L281,157L287,156L288,156L291,156L291,155L292,154L293,151L294,151L295,151L297,151L299,151L305,147L305,146L304,145L303,143L299,143L298,143L297,142L293,139L292,138L292,137L291,136L290,136L288,135L284,131L284,130L287,128L288,128L289,127L288,126L286,123L285,123L282,124L281,124L280,123L275,122L278,120L279,120L280,120L281,120L282,120L283,119L284,119L284,118L281,113L278,110L277,108L275,105L275,103L274,101L273,100L273,99L273,97L272,96L272,95L272,94L272,92L271,91L271,90L270,89L269,88L269,86L268,85L267,84L266,83L265,83L264,82L263,82L262,82L261,81L262,80L264,79L264,78L265,77L266,73L267,70L268,69L269,70L270,71L271,71L272,71L273,70L273,70L274,69L275,68L276,68L277,69L279,69L281,68L283,66L287,67L289,67L290,67L289,65L289,64L287,63L285,62L284,61L283,60L282,60L279,61L277,60L277,60L275,58L275,57L276,56L276,53L276,52L277,50L277,49L278,48L277,47L276,47L275,48L273,50L272,50L271,50L271,48L272,45L271,44L270,44L269,43L268,42L268,41L269,41L271,40L273,39L274,39L276,39L277,38L279,36L280,36L281,37L282,37L283,37L284,37L285,36L286,35L287,34L286,33L284,33L283,33L282,33L281,32L280,31L279,31L278,31L277,32L275,32L273,32L272,31L271,31L270,29L269,29L266,27L265,26L264,26L264,26L261,26L259,26L258,25L257,25L256,24L255,24L254,24L252,24L251,23L250,23L249,23L248,23L247,23L245,24L244,23L242,23L241,23L240,22L239,22L238,23L237,22L236,22L235,21L233,20L231,19L230,20L229,20L227,20L224,20L222,17L222,16L222,15L221,15L220,13L219,13L217,12L216,10L214,9L213,8L210,8L209,7L209,6L208,5L207,5L207,5L204,5L203,5L202,5L200,5L199,6L197,7L196,8L195,9L194,9L193,10L192,11L192,12L192,13L190,14L190,15L189,16L188,17L187,20L185,21L184,21L183,22L182,22L182,23L182,24L183,26L184,28L184,30L183,31L183,33L183,35L183,41L184,43L183,47L183,48L181,49L180,52L179,53L179,55L178,56L176,59L175,61L175,62L174,64L173,65L172,66L171,68L172,70L172,72L172,73L171,75L171,81L170,84L170,85L169,87L169,89L168,91L167,92L167,94L167,96L168,99L168,100L168,102L169,103L169,104L169,106L167,109L165,114L164,118L164,119L164,121L164,126L163,128L162,129L157,134L156,135L155,136L154,136L153,136L151,137L150,137L149,137L148,138L148,139L147,140L146,140L145,142L145,143L144,144L143,145L142,146L142,147L141,149L141,150L141,151L139,153L140,154L140,155L141,156L147,156L147,154L146,153L145,153L146,152L149,152L151,152L153,151L160,146L162,146L164,145L165,144L166,144L169,143L170,142L172,141L172,140L173,138L174,138L178,139L179,140L181,141L182,141L183,140L185,140L187,140L188,139L188,138L188,137L187,136L187,135L187,134L188,133L190,132L190,131L191,130L192,131L192,132L193,133L193,135L194,137L195,138L196,139L197,141L198,142L199,145L200,146L201,148L202,151L203,152L204,151L206,149L207,149L208,150L209,152L210,154L211,155L213,155L214,155L217,155L218,156L218,157L220,157L221,158L223,158L223,157L224,157L226,157L227,157L234,165L234,166L237,167L239,167L240,167L243,166L244,164L245,164L246,165L248,165L249,166L250,167L251,167Z " data-fips="CG02" data-hasc="CD.EQ" data-name="quateur" data-postal="EQ" data-varname="Equator|Equatorial"/><path d="M324,158L325,158L329,154L330,153L331,153L333,153L334,153L335,153L336,151L336,150L336,148L336,147L337,143L338,145L338,145L340,145L340,144L340,143L341,142L341,141L342,140L342,140L342,138L343,138L342,137L342,135L343,134L345,133L346,131L345,127L346,126L347,124L348,123L347,122L345,120L344,119L343,118L342,117L342,116L343,116L344,117L345,117L346,118L347,119L348,120L349,121L350,121L351,121L352,121L353,120L354,120L356,119L357,119L358,118L359,119L360,119L361,120L362,120L362,121L363,122L364,123L365,123L367,123L368,124L369,124L371,124L372,125L373,125L375,125L378,125L379,123L380,122L381,120L382,120L384,119L384,118L384,116L384,115L384,113L384,112L385,111L384,110L384,109L383,108L383,107L383,106L382,104L382,104L380,104L379,104L378,103L377,103L377,102L378,101L379,101L380,101L381,100L382,99L383,99L389,98L390,99L392,101L393,101L394,101L397,101L399,100L402,101L404,101L406,99L407,100L408,100L410,100L411,101L412,100L413,99L412,99L411,98L411,97L411,96L412,96L414,97L415,96L415,95L416,95L418,95L419,95L420,94L421,94L422,95L424,96L425,95L428,94L428,93L429,92L429,91L429,90L430,89L431,89L432,88L433,88L434,88L436,86L438,82L443,78L446,76L447,74L450,71L451,69L451,68L449,67L449,65L447,66L446,65L444,63L443,64L442,64L441,63L441,62L439,61L440,60L440,59L440,58L441,56L442,55L442,54L442,52L441,51L440,50L440,49L440,48L441,45L442,44L442,43L443,42L443,41L443,40L442,39L441,38L440,37L439,36L439,37L437,37L436,38L436,37L436,36L435,32L434,32L433,32L431,31L430,30L428,30L428,29L427,28L426,27L424,26L424,25L422,24L423,23L422,22L421,22L419,21L419,20L419,19L420,17L419,17L418,17L417,16L416,16L414,15L413,15L412,15L412,17L412,17L411,19L410,20L409,21L408,21L407,22L406,22L405,20L404,20L402,19L401,19L399,19L398,18L397,18L396,18L395,20L394,21L393,21L392,22L391,23L389,23L389,22L387,22L385,22L385,21L384,20L383,20L382,19L382,17L380,17L379,17L378,17L377,17L377,16L377,14L377,13L376,12L375,12L374,10L371,10L371,9L370,8L370,6L369,6L368,6L367,5L365,5L364,4L362,4L360,4L359,5L358,6L357,7L356,7L355,6L353,6L352,6L351,7L350,7L349,7L348,6L348,5L346,5L345,5L344,4L343,3L342,3L341,3L341,4L340,4L338,4L337,4L337,3L335,3L335,2L334,2L333,2L331,1L331,1L330,0L329,0L328,0L327,1L326,1L325,2L325,3L325,4L325,5L325,6L324,7L323,8L321,8L320,8L320,9L318,8L317,9L315,9L314,9L313,10L312,10L311,9L310,8L310,7L309,7L308,6L307,6L306,6L305,6L305,7L305,8L303,8L302,9L301,9L300,10L299,10L298,10L297,11L296,11L295,12L294,12L293,12L292,12L290,13L289,13L288,14L286,15L285,15L285,17L283,16L282,16L281,15L280,14L279,13L278,14L277,14L276,13L276,12L275,12L273,12L273,13L272,14L271,14L271,15L270,16L270,17L269,18L269,19L267,19L267,20L268,21L267,22L266,23L266,25L265,25L264,26L265,26L266,27L269,29L270,29L271,31L272,31L273,32L275,32L277,32L278,31L279,31L280,31L281,32L282,33L283,33L284,33L286,33L287,34L286,35L285,36L284,37L283,37L282,37L281,37L280,36L279,36L277,38L276,39L274,39L273,39L271,40L269,41L268,41L268,42L269,43L270,44L271,44L272,45L271,48L271,50L272,50L273,50L275,48L276,47L277,47L278,48L277,49L277,50L276,52L276,53L276,56L275,57L275,58L277,60L277,60L279,61L282,60L283,60L284,61L285,62L287,63L289,64L289,65L290,67L289,67L287,67L283,66L281,68L279,69L277,69L276,68L275,68L274,69L273,70L273,70L272,71L271,71L270,71L269,70L268,69L267,70L266,73L265,77L264,78L264,79L262,80L261,81L262,82L263,82L264,82L265,83L266,83L267,84L268,85L269,86L269,88L270,89L271,90L271,91L272,92L272,94L272,95L272,96L273,97L273,99L273,100L274,101L275,103L275,105L277,108L278,110L281,113L284,118L284,119L283,119L282,120L281,120L280,120L279,120L278,120L275,122L280,123L281,124L282,124L285,123L286,123L288,126L289,127L288,128L287,128L284,130L284,131L288,135L290,136L291,136L292,137L292,138L293,139L297,142L298,143L299,143L303,143L304,145L305,146L305,147L306,152L307,155L315,155L316,155L319,155L320,156L319,157L320,158L321,158L323,158Z " data-fips="CG09" data-hasc="CD.HC" data-name="Orientale" data-postal="HC" data-varname="Haut-Zaire|Haut-ZareUpper Zaire"/><path d="M173,286L173,285L174,284L175,283L178,283L179,284L180,283L182,283L182,282L187,282L187,283L199,283L199,282L199,280L200,278L200,277L200,275L199,274L202,274L202,273L203,272L202,270L202,269L202,265L203,264L203,263L203,262L212,262L212,262L212,259L211,258L209,255L207,253L206,245L206,244L207,243L208,243L209,242L210,241L211,241L212,241L213,240L213,239L214,238L215,237L215,236L216,236L216,234L216,233L216,232L216,231L216,227L216,226L217,225L217,223L216,221L216,220L216,219L215,218L214,216L214,215L214,214L214,213L214,211L214,210L215,209L214,208L214,207L213,206L214,204L215,204L216,205L217,206L219,207L220,206L220,205L222,204L223,204L224,203L226,202L226,202L227,200L227,197L226,196L227,193L226,188L226,184L226,183L230,174L231,173L232,172L233,170L233,169L233,168L234,166L234,165L227,157L226,157L224,157L223,157L223,158L221,158L220,157L218,157L218,156L217,155L214,155L213,155L211,155L210,154L209,152L208,150L207,149L206,149L204,151L203,152L202,151L201,148L200,146L199,145L198,142L197,141L196,139L195,138L194,137L193,135L193,133L192,132L192,131L191,130L190,131L190,132L188,133L187,134L187,135L187,136L188,137L188,138L188,139L187,140L185,140L183,140L182,141L181,141L179,140L178,139L174,138L173,138L172,140L172,141L170,142L169,143L166,144L165,144L164,145L162,146L160,146L153,151L151,152L149,152L146,152L145,153L146,153L147,154L147,156L141,156L140,155L140,154L139,153L139,154L138,154L137,155L136,157L135,157L134,159L133,159L132,160L132,161L132,163L132,164L132,165L133,170L132,173L132,175L132,177L132,178L132,179L132,181L132,182L132,183L133,184L132,185L131,187L131,188L130,189L129,191L128,193L128,194L127,196L126,198L126,198L127,199L128,199L130,198L131,199L133,199L134,200L137,201L138,203L139,204L140,205L140,206L140,207L139,208L138,210L137,210L135,214L134,216L134,217L134,218L134,220L134,222L134,226L133,228L133,229L133,231L133,234L133,235L132,237L131,238L135,238L136,239L138,239L139,239L140,239L141,240L141,241L142,242L142,243L143,244L144,245L144,246L144,248L143,249L144,250L144,251L144,253L144,254L145,255L145,256L146,259L147,259L148,260L148,262L149,262L149,263L148,264L149,266L149,267L150,269L151,269L152,270L153,271L154,272L153,273L154,273L155,275L156,275L156,276L156,277L157,278L158,279L158,280L159,281L159,282L160,282L161,283L161,284L162,285L163,286L165,285L167,285L168,284L170,285L171,286Z " data-fips="CG01" data-hasc="CD.BN" data-name="Bandundu" data-postal="BN" data-varname=""/><path d="M275,281L278,280L279,279L280,273L280,270L280,269L280,267L280,266L280,265L280,264L281,261L281,260L280,259L279,259L277,258L277,257L276,256L275,255L274,254L274,253L276,250L276,249L277,247L278,245L277,244L276,243L276,243L275,241L275,240L275,237L276,236L277,236L279,236L282,235L284,235L285,236L286,235L287,234L289,233L290,233L291,232L291,229L291,228L290,227L288,226L285,225L284,224L282,225L281,224L279,223L277,221L275,219L275,218L275,216L276,216L279,215L280,214L280,213L279,210L278,209L276,209L274,209L272,208L271,207L269,205L268,204L267,203L265,202L263,201L263,200L261,198L258,199L257,199L257,198L255,197L256,197L257,196L258,196L259,195L258,193L257,192L255,191L254,191L254,190L254,187L255,186L256,185L256,184L257,182L259,177L259,176L258,175L255,171L255,170L254,169L254,167L253,166L251,167L250,167L249,166L248,165L246,165L245,164L244,164L243,166L240,167L239,167L237,167L234,166L233,168L233,169L233,170L232,172L231,173L230,174L226,183L226,184L226,188L227,193L226,196L227,197L227,200L226,202L226,202L224,203L223,204L222,204L220,205L220,206L219,207L217,206L216,205L215,204L214,204L213,206L214,207L214,208L215,209L214,210L214,211L214,213L214,214L214,215L214,216L215,218L216,219L216,220L216,221L217,223L217,225L216,226L216,227L216,231L216,232L216,233L216,234L216,236L215,236L215,237L214,238L213,239L213,240L212,241L211,241L210,241L209,242L208,243L207,243L206,244L206,245L207,253L209,255L211,258L212,259L212,262L212,262L219,262L219,261L220,260L226,260L224,266L224,268L250,268L251,268L251,270L252,271L252,272L252,273L252,274L251,276L251,276L255,277L255,278L257,278L259,279L260,279L265,279L266,278L268,277L269,278L270,280L271,281L272,281L273,281Z " data-fips="CG03" data-hasc="CD.KC" data-name="Kasa-Occidental" data-postal="KC" data-varname="Kasai West|West Kasai|West Kassai"/><path d="M62,240L63,240L65,239L64,239L62,239L61,239L60,241L61,241Z M57,242L59,242L60,241L60,239L61,239L63,238L64,238L65,239L67,239L68,239L69,239L71,239L73,239L74,239L76,239L77,239L79,239L85,238L87,239L90,239L92,239L97,239L99,240L101,239L106,239L131,238L132,237L133,235L133,234L133,231L133,229L133,228L134,226L134,222L134,220L129,220L127,219L126,218L126,220L125,221L124,221L123,220L121,220L121,219L121,218L122,218L122,217L123,215L123,214L122,213L121,212L121,211L120,211L118,210L117,210L116,211L116,212L115,213L114,213L113,212L110,208L109,210L107,211L106,213L104,216L103,217L102,217L100,218L99,218L98,218L97,217L96,217L95,218L95,217L95,215L95,214L94,213L94,212L94,211L95,210L96,208L95,207L94,206L94,205L93,206L92,206L91,207L89,208L87,208L86,209L85,210L83,210L83,209L82,208L80,209L80,212L80,213L80,214L79,215L78,215L77,216L76,215L75,217L74,217L73,218L73,217L72,216L71,215L69,214L68,213L68,212L67,212L67,213L66,214L61,215L60,216L60,217L59,219L58,219L57,220L56,221L54,222L54,223L55,224L55,236L52,236L50,237L49,237L50,239L52,241L53,241L54,242L54,243Z " data-fips="CG08" data-hasc="CD.BC" data-name="Bas-Congo" data-postal="BC" data-varname="Bas-Zaire|Bas-Zare|Kongo-Central|Lower Zaire"/><path d="M125,221L126,220L126,218L127,219L129,220L134,220L134,218L134,217L134,216L135,214L137,210L138,210L139,208L140,207L140,206L140,205L139,204L138,203L137,201L134,200L133,199L131,199L130,198L128,199L127,199L126,198L126,198L126,198L124,199L122,199L119,200L118,201L117,203L117,204L115,204L113,205L112,206L111,207L110,208L113,212L114,213L115,213L116,212L116,211L117,210L118,210L120,211L121,211L121,212L122,213L123,214L123,215L122,217L122,218L121,218L121,219L121,220L123,220L124,221Z " data-fips="CG06" data-hasc="CD.KN" data-name="Kinshasa City" data-postal="KN" data-varname="Kinshasa|Lopoldville"/><path d="M409,218L409,216L410,215L411,211L411,209L411,208L410,203L410,201L408,198L408,198L407,197L407,194L407,192L407,190L407,184L407,182L407,181L408,180L408,178L407,178L406,177L405,176L404,176L404,175L403,174L402,173L403,172L403,171L401,171L400,170L401,168L400,168L400,167L400,166L400,164L401,164L402,163L403,162L404,162L406,160L406,159L406,158L405,154L406,153L406,152L407,151L403,150L401,151L401,150L400,149L399,150L397,152L396,152L395,152L395,154L393,155L392,155L391,154L390,152L389,152L389,153L389,155L388,156L384,157L383,158L381,157L380,157L379,156L378,156L377,156L369,157L369,158L368,159L367,160L366,160L365,161L364,161L363,161L362,160L361,160L360,159L359,159L358,159L357,160L357,162L357,166L357,167L358,171L359,173L359,174L360,175L361,176L362,177L362,178L362,179L362,180L363,181L363,182L363,184L362,185L363,186L363,187L363,188L362,192L362,193L363,194L364,195L365,196L367,197L369,198L371,198L375,198L377,199L378,200L379,201L382,201L383,202L384,202L384,202L386,202L386,202L388,203L389,204L391,206L392,207L394,212L395,213L397,218L398,219L399,220L405,220L410,220Z " data-fips="CG12" data-hasc="CD.KV" data-name="Sud-Kivu" data-postal="KV" data-varname="Sud-Kivou|Sud Kivou|Sud Kivu"/><path d="M398,219L397,218L395,213L394,212L392,207L391,206L389,204L388,203L386,202L386,202L384,202L384,202L383,202L382,201L379,201L378,200L377,199L375,198L371,198L369,198L367,197L365,196L364,195L363,194L362,193L362,192L363,188L363,187L363,186L362,185L363,184L363,182L363,181L362,180L362,179L362,178L362,177L361,176L360,175L359,174L359,173L358,171L357,167L357,166L357,162L357,160L358,159L359,159L360,159L361,160L362,160L363,161L364,161L365,161L366,160L367,160L368,159L369,158L369,157L377,156L376,154L376,153L375,152L374,151L373,150L372,149L371,148L370,146L366,141L365,140L365,139L367,139L368,138L367,138L366,137L366,136L367,134L368,134L369,134L370,133L371,133L372,134L373,133L375,133L377,132L377,131L378,130L378,129L378,127L375,125L373,125L372,125L371,124L369,124L368,124L367,123L365,123L364,123L363,122L362,121L362,120L361,120L360,119L359,119L358,118L357,119L356,119L354,120L353,120L352,121L351,121L350,121L349,121L348,120L347,119L346,118L345,117L344,117L343,116L342,116L342,117L343,118L344,119L345,120L347,122L348,123L347,124L346,126L345,127L346,131L345,133L343,134L342,135L342,137L343,138L342,138L342,140L342,140L341,141L341,142L340,143L340,144L340,145L338,145L338,145L337,143L336,147L336,148L336,150L336,151L335,153L334,153L333,153L331,153L330,153L329,154L325,158L324,158L323,158L321,158L320,158L319,157L320,156L319,155L316,155L315,155L307,155L307,156L307,158L309,161L311,165L313,166L320,166L320,168L320,169L320,171L320,173L319,175L319,177L319,178L319,179L318,180L317,182L317,183L316,183L316,185L315,185L314,187L314,187L314,189L313,190L314,191L313,192L312,193L313,195L314,195L314,196L315,197L316,198L316,199L318,200L318,201L318,202L318,203L318,204L318,205L318,207L318,208L317,209L316,210L315,211L315,212L316,213L316,215L317,215L318,216L318,217L320,220L345,220L399,220Z " data-fips="" data-hasc="" data-name="Maniema" data-postal="" data-varname=""/><path d="M282,281L283,281L284,281L285,281L287,281L288,281L290,281L292,281L293,281L294,280L295,279L296,279L295,277L295,274L296,273L296,272L297,269L296,269L296,268L296,266L297,265L298,264L299,263L300,263L300,261L300,260L300,259L301,260L302,261L302,262L305,263L306,263L307,263L308,262L310,262L311,260L313,260L316,257L316,255L317,255L318,255L319,255L321,255L323,256L325,257L327,255L328,254L328,253L329,252L328,252L326,252L326,252L324,250L323,249L324,248L325,248L326,248L329,248L330,247L332,247L335,245L336,245L337,246L338,247L339,247L340,246L341,246L342,246L343,246L343,245L342,243L343,242L343,241L343,239L343,236L342,235L341,234L341,232L341,231L342,230L341,228L341,227L342,226L344,223L344,221L345,220L320,220L318,217L318,216L317,215L316,215L316,213L315,212L315,211L316,210L317,209L318,208L318,207L318,205L318,204L318,203L318,202L318,201L318,200L316,199L316,198L315,197L314,196L314,195L313,195L312,193L313,192L314,191L313,190L314,189L314,187L314,187L315,185L316,185L316,183L317,183L317,182L318,180L319,179L319,178L319,177L319,175L320,173L320,171L320,169L320,168L320,166L313,166L311,165L309,161L307,158L307,156L307,155L306,152L299,151L297,151L295,151L294,151L293,151L292,154L291,155L291,156L288,156L287,156L281,157L280,158L279,156L278,155L277,155L276,155L275,155L274,154L273,154L272,153L271,153L270,152L269,152L268,152L266,154L265,155L262,155L259,154L259,157L260,160L261,165L261,166L259,166L259,165L259,163L258,162L257,162L256,163L256,164L254,165L253,166L253,166L254,167L254,169L255,170L255,171L258,175L259,176L259,177L257,182L256,184L256,185L255,186L254,187L254,190L254,191L255,191L257,192L258,193L259,195L258,196L257,196L256,197L255,197L257,198L257,199L258,199L261,198L263,200L263,201L265,202L267,203L268,204L269,205L271,207L272,208L274,209L276,209L278,209L279,210L280,213L280,214L279,215L276,216L275,216L275,218L275,219L277,221L279,223L281,224L282,225L284,224L285,225L288,226L290,227L291,228L291,229L291,232L290,233L289,233L287,234L286,235L285,236L284,235L282,235L279,236L277,236L276,236L275,237L275,240L275,241L276,243L276,243L277,244L278,245L277,247L276,249L276,250L274,253L274,254L275,255L276,256L277,257L277,258L279,259L280,259L281,260L281,261L280,264L280,265L280,266L280,267L280,269L280,270L280,273L279,279L280,280L280,281L281,282Z " data-fips="CG04" data-hasc="CD.KR" data-name="Kasa-Oriental" data-postal="KR" data-varname="East Kasai|Kasai East"/><path d="M417,398L416,372L415,372L414,373L413,372L412,373L410,373L410,374L410,375L411,376L411,378L410,377L409,377L408,377L407,377L406,376L403,376L402,376L401,376L399,372L397,370L397,369L396,369L395,368L394,368L393,367L393,366L391,365L390,365L389,363L389,362L389,361L388,359L387,358L388,356L389,355L389,353L390,352L390,351L390,350L390,348L391,347L391,346L392,345L392,343L392,342L393,341L394,341L395,340L394,339L394,338L394,337L394,335L394,334L393,333L394,332L393,331L392,330L393,329L394,328L394,326L394,324L394,323L395,321L395,320L394,320L394,318L393,317L393,316L392,316L392,315L391,314L391,313L390,312L388,311L388,309L389,309L391,308L393,307L397,303L399,300L400,298L400,296L400,293L439,288L438,286L437,282L432,275L432,273L431,272L431,269L429,266L428,264L425,260L423,259L422,258L420,257L418,255L417,253L416,251L414,249L413,247L413,244L412,241L413,240L414,238L415,237L415,235L415,233L413,228L412,225L410,222L410,220L405,220L399,220L345,220L344,221L344,223L342,226L341,227L341,228L342,230L341,231L341,232L341,234L342,235L343,236L343,239L343,241L343,242L342,243L343,245L343,246L342,246L341,246L340,246L339,247L338,247L337,246L336,245L335,245L332,247L330,247L329,248L326,248L325,248L324,248L323,249L324,250L326,252L326,252L328,252L329,252L328,253L328,254L327,255L325,257L323,256L321,255L319,255L318,255L317,255L316,255L316,257L313,260L311,260L310,262L308,262L307,263L306,263L305,263L302,262L302,261L301,260L300,259L300,260L300,261L300,263L299,263L298,264L297,265L296,266L296,268L296,269L297,269L296,272L296,273L295,274L295,277L296,279L295,279L294,280L293,281L292,281L290,281L288,281L287,281L285,281L284,281L283,281L282,281L281,282L280,281L280,280L279,279L278,280L275,281L273,281L272,281L271,281L270,280L269,278L268,277L266,278L265,279L260,279L259,279L257,278L255,278L255,277L251,276L251,276L250,279L250,280L250,282L250,284L251,284L251,286L252,286L252,288L252,289L253,290L254,292L254,294L254,295L253,297L252,300L252,301L252,303L252,304L252,306L252,308L252,310L251,311L251,313L251,313L252,315L252,316L253,318L254,320L255,320L255,321L256,323L257,323L258,324L259,325L259,326L259,328L260,329L260,330L261,332L262,333L261,334L261,336L262,337L262,339L262,340L261,342L260,342L259,343L259,344L259,346L260,347L260,348L261,350L261,351L262,350L265,349L266,347L270,348L271,348L272,348L273,348L275,349L276,349L280,348L285,346L286,346L289,347L291,347L293,347L294,347L295,346L296,345L296,344L298,344L299,345L299,346L299,347L301,347L302,347L303,348L304,348L305,349L305,351L305,352L305,353L304,354L303,355L305,355L307,356L308,356L309,355L310,355L311,354L312,353L314,353L316,352L317,352L320,352L322,352L324,351L324,352L324,353L324,354L324,355L324,357L324,358L325,360L326,361L328,362L328,363L329,363L329,362L331,362L332,363L333,364L334,364L336,363L337,365L338,366L342,366L343,366L344,366L345,366L347,366L348,367L349,367L351,367L352,368L353,368L354,367L356,367L357,367L359,365L359,362L360,361L359,360L360,359L361,359L363,359L364,360L364,362L364,364L368,366L369,369L370,372L371,373L373,374L375,374L376,374L377,374L379,375L379,376L380,376L382,377L383,377L384,377L386,377L387,377L389,379L389,381L390,383L390,384L390,385L391,386L391,387L392,386L394,386L394,387L396,389L396,390L397,391L397,392L398,393L399,397L400,398L402,397L403,398L404,398L405,397L407,397L410,395L412,394L413,395L414,395L414,396L413,397L413,398L413,399L415,399Z " data-fips="CG05" data-hasc="CD.KT" data-name="Katanga" data-postal="KT" data-varname="Shaba"/><path d="M384,157L388,156L389,155L389,153L389,152L390,152L391,154L392,155L393,155L395,154L395,152L396,152L397,152L399,150L400,149L401,150L401,151L403,150L407,151L407,150L408,149L409,148L410,146L412,146L413,145L413,144L415,143L415,142L415,141L415,140L415,138L415,137L414,136L415,134L415,133L416,132L416,131L416,129L416,127L417,126L417,124L416,123L417,121L417,118L418,115L418,114L418,112L420,110L421,106L422,104L423,103L422,100L423,99L423,97L424,96L422,95L421,94L420,94L419,95L418,95L416,95L415,95L415,96L414,97L412,96L411,96L411,97L411,98L412,99L413,99L412,100L411,101L410,100L408,100L407,100L406,99L404,101L402,101L399,100L397,101L394,101L393,101L392,101L390,99L389,98L383,99L382,99L381,100L380,101L379,101L378,101L377,102L377,103L378,103L379,104L380,104L382,104L382,104L383,106L383,107L383,108L384,109L384,110L385,111L384,112L384,113L384,115L384,116L384,118L384,119L382,120L381,120L380,122L379,123L378,125L378,127L378,129L378,130L377,131L377,132L375,133L373,133L372,134L371,133L370,133L369,134L368,134L367,134L366,136L366,137L367,138L368,138L367,139L365,139L365,140L366,141L370,146L371,148L372,149L373,150L374,151L375,152L376,153L376,154L377,156L378,156L379,156L380,157L381,157L383,158Z " data-fips="CG11" data-hasc="" data-name="Nord-Kivu" data-postal="" data-varname=""/></g></svg>