<?xml version="1.0" ?><!DOCTYPE svg  PUBLIC '-//W3C//DTD SVG 1.1//EN'  'http://www.w3.org/Graphics/SVG/1.1/DTD/svg11.dtd'><svg enable_background="new 0 0 500 401" height="401px" style="stroke-linejoin: round; stroke:#000; fill:#f6f3f0;" version="1.1" viewBox="0 0 500 401" width="500px" xmlns="http://www.w3.org/2000/svg" xmlns:xlink="http://www.w3.org/1999/xlink"><defs><style type="text/css"><![CDATA[path { fill-rule: evenodd; }
#context path { fill: #eee; stroke: #bbb; } ]]></style></defs><metadata><views><view h="401" padding="0" w="500"><proj id="laea" lat0="11.9" lon0="42.516"/><bbox h="21.94" w="20.17" x="990.72" y="990.02"/><llbbox lat0="-90" lat1="90" lon0="-180" lon1="180"/></view></views></metadata><g id="admin1"><path d="M317,387L319,384L322,382L325,384L383,292L362,279L355,276L322,282L312,302L305,307L277,324L259,334L257,340L256,363L257,363L273,367L278,367L282,369L288,381L292,384L296,385L306,386L311,388L314,388Z " data-fips="DJ01" data-hasc="DJ.AS" data-name="Ali Sabieh" data-postal="AS" data-varname="`Ali Sabh"/><path d="M353,267L380,262L380,261L376,248L375,246L373,247L371,250L369,253L364,254L360,251L355,251L351,252L320,252L320,253L332,266L345,267Z " data-fips="DJ07" data-hasc="DJ.DB" data-name="Djibouti" data-postal="DB" data-varname=""/><path d="M305,307L312,302L322,282L355,276L362,279L383,292L395,274L392,271L385,267L382,265L380,262L353,267L345,267L332,266L320,253L320,252L314,252L312,252L310,250L308,250L306,252L304,254L299,255L285,257L274,261L270,264L268,268L269,269L272,270L273,272L272,275L270,276L268,275L266,274L264,274L261,275L258,278L255,278L252,277L248,273L240,271L239,266L239,261L213,249L210,246L202,237L203,246L208,271L214,289L232,316L277,324Z " data-fips="" data-hasc="" data-name="Arta" data-postal="" data-varname=""/><path d="M109,398L110,397L111,396L124,396L130,394L137,387L143,385L155,384L166,387L170,387L173,386L175,385L181,383L183,382L187,383L189,382L196,380L201,381L205,382L208,382L213,380L213,380L227,370L247,364L256,363L257,340L259,334L277,324L232,316L214,289L208,271L203,246L202,237L165,199L156,195L120,186L116,186L108,198L105,200L102,202L99,204L97,205L95,206L94,209L92,212L90,213L83,216L80,218L76,225L73,242L67,262L67,275L72,300L75,325L74,368L73,378L69,384L72,388L77,390L103,395L104,396L105,398L106,399L108,399Z " data-fips="DJ06" data-hasc="DJ.DK" data-name="Dikhil" data-postal="DK" data-varname="Dikkil"/><path d="M362,194L363,194L380,173L387,168L391,167L401,167L405,166L411,163L417,162L419,161L424,158L429,152L432,145L433,138L432,121L432,108L432,104L423,93L422,90L421,85L421,77L420,73L419,70L417,68L415,65L414,61L414,57L414,49L410,52L407,51L403,47L398,39L377,15L374,11L373,6L371,2L367,0L319,21L317,21L314,19L312,18L309,22L304,34L294,43L295,50L297,57L296,63L293,64L286,65L285,67L282,72L275,74L275,74L275,77L275,82L272,84L271,85L270,87L270,88L270,90L270,92L276,102L277,104L278,106L289,115L291,117L294,118L299,119L345,170L347,174L353,187L355,190L360,195Z " data-fips="DJ04" data-hasc="DJ.OB" data-name="Obock" data-postal="OB" data-varname=""/><path d="M239,260L238,255L235,256L235,255L238,253L242,252L244,253L246,256L247,257L249,257L255,257L260,258L262,258L269,256L271,255L272,253L288,225L293,219L298,216L319,208L323,208L329,210L332,208L336,206L339,205L351,204L354,203L355,202L356,199L357,197L358,196L360,195L355,190L353,187L347,174L345,170L299,119L294,118L291,117L289,115L278,106L277,104L276,102L270,92L270,90L270,88L270,87L271,85L272,84L275,82L275,77L275,74L275,74L274,74L271,78L236,48L226,43L220,42L217,42L205,54L192,72L185,87L156,127L153,135L150,138L146,140L143,143L135,160L116,186L120,186L156,195L165,199L202,237L210,246L213,249L239,261Z " data-fips="DJ05" data-hasc="DJ.TA" data-name="Tadjourah" data-postal="TA" data-varname="Tadjoura"/></g></svg>