<?xml version="1.0" ?><!DOCTYPE svg  PUBLIC '-//W3C//DTD SVG 1.1//EN'  'http://www.w3.org/Graphics/SVG/1.1/DTD/svg11.dtd'><svg enable_background="new 0 0 500 401" height="401px" style="stroke-linejoin: round; stroke:#000; fill:#f6f3f0;" version="1.1" viewBox="0 0 500 401" width="500px" xmlns="http://www.w3.org/2000/svg" xmlns:xlink="http://www.w3.org/1999/xlink"><defs><style type="text/css"><![CDATA[path { fill-rule: evenodd; }
#context path { fill: #eee; stroke: #bbb; } ]]></style></defs><metadata><views><view h="401" padding="0" w="500"><proj id="laea" lat0="28.163" lon0="2.632"/><bbox h="224.22" w="229.33" x="876.23" y="889.02"/><llbbox lat0="-90" lat1="90" lon0="-180" lon1="180"/></view></views></metadata><g id="admin1"><path d="M283,399L290,397L290,397L290,364L289,359L288,357L286,355L240,329L239,327L240,254L236,252L236,250L236,248L236,247L236,245L233,241L231,239L231,238L232,237L234,237L235,236L237,236L238,236L239,235L242,235L244,235L245,234L247,232L249,232L251,230L252,228L253,227L255,199L256,195L257,190L256,178L253,155L256,138L256,121L236,131L233,133L231,134L224,141L212,162L200,178L197,180L179,182L177,183L175,184L169,189L166,191L161,192L157,191L152,189L150,187L147,185L143,185L157,216L102,250L105,252L118,263L124,267L236,353L236,355L236,357L236,360L237,360L238,360L239,361L240,362L241,362L243,363L244,363L245,364L246,366L246,368L249,370L250,370L251,371L252,371L253,371L255,372L256,371L258,371L259,372L260,373L260,374L261,375L263,376L264,376L266,377L267,377L273,378L275,379L277,380L278,380L278,381L278,386L278,387L279,388L279,389L279,391L278,392L277,393L276,394L276,396L277,396L278,397L279,397L280,399L281,399Z " data-fips="AG34" data-hasc="DZ.AR" data-name="Adrar" data-postal="AR" data-varname="Duperr"/><path d="M202,43L203,43L203,42L203,41L205,41L205,40L207,38L208,37L207,36L206,36L202,37L201,36L200,37L200,36L201,35L200,34L199,33L199,33L198,34L197,36L196,38L195,38L195,39L195,39L195,40L195,41L195,42L196,42L201,44Z " data-fips="AG36" data-hasc="DZ.AT" data-name="An Tmouchent" data-postal="AT" data-varname="Ain Tamouchent"/><path d="M208,39L209,38L210,37L210,36L211,35L212,34L213,33L214,32L215,32L216,32L216,30L217,30L217,30L217,30L216,29L214,29L214,27L213,27L212,27L211,28L210,30L209,30L208,31L207,30L206,30L204,30L203,31L202,31L201,31L200,32L199,33L200,34L201,35L200,36L200,37L201,36L202,37L206,36L207,36L208,37L207,38L208,40Z " data-fips="AG09" data-hasc="DZ.OR" data-name="Oran" data-postal="OR" data-varname="Orn|Orano|Oro|Ouahran|Ouahrane|Wahran"/><path d="M205,63L206,62L207,62L208,62L209,63L218,56L217,55L216,53L215,52L214,52L213,51L213,50L212,49L213,49L213,48L213,47L214,46L214,45L215,44L216,43L215,42L215,41L215,40L212,39L211,39L210,38L210,37L209,38L208,39L208,40L205,40L205,41L203,41L203,42L203,43L202,43L201,44L201,45L202,45L202,46L201,48L202,49L202,50L203,50L202,52L203,52L205,52L205,54L204,55L203,56L202,57L203,58L202,58L199,61L198,62L199,63L201,63L202,64L203,64Z " data-fips="AG30" data-hasc="DZ.SB" data-name="Sidi Bel Abbs" data-postal="SB" data-varname="Sidi-Bel-Abbes"/><path d="M188,66L191,64L193,64L194,64L195,64L196,63L198,62L199,61L202,58L203,58L202,57L203,56L204,55L205,54L205,52L203,52L202,52L203,50L202,50L202,49L201,48L202,46L202,45L201,45L201,44L196,42L195,42L195,41L195,40L195,39L195,39L194,39L192,40L189,42L188,42L187,43L186,43L184,44L183,44L182,44L181,44L179,43L179,44L179,46L180,46L182,47L183,48L183,49L185,50L186,52L186,53L185,55L188,57L186,60L186,60L187,61L188,66Z " data-fips="AG15" data-hasc="DZ.TL" data-name="Tlemcen" data-postal="TL" data-varname="Tilimsene|Tlemsane|Tilimsen|Tremecm"/><path d="M166,191L169,189L175,184L177,183L179,182L197,180L200,178L212,162L224,141L214,132L210,127L209,125L202,110L200,110L200,108L199,107L198,107L197,107L194,107L194,108L193,109L194,108L195,109L194,110L170,108L167,109L164,109L163,110L162,111L162,113L161,114L158,115L153,117L151,117L150,117L148,116L146,116L145,118L145,120L145,122L145,122L147,123L145,125L145,127L145,128L146,129L147,128L148,130L149,131L149,132L148,133L147,133L146,133L144,133L140,134L137,137L135,138L133,139L131,139L130,139L123,141L122,142L121,144L120,146L120,147L119,148L115,151L114,152L111,154L110,154L106,154L101,155L101,155L114,192L143,185L147,185L150,187L152,189L157,191L161,192Z " data-fips="AG38" data-hasc="DZ.BC" data-name="Bchar" data-postal="BC" data-varname="Colomb-Bchar|Bechar"/><path d="M202,110L217,104L217,103L217,102L216,101L216,100L218,95L217,91L217,89L218,88L219,84L219,83L219,77L219,73L220,68L219,68L218,69L217,68L217,67L215,67L214,67L213,68L212,70L212,70L211,69L211,68L209,65L209,63L208,62L207,62L206,62L205,63L203,64L202,64L201,63L199,63L198,62L196,63L195,64L194,64L193,64L191,64L188,66L188,66L188,67L187,70L187,71L187,73L186,74L187,75L188,76L188,78L188,79L187,81L187,82L187,85L188,86L189,87L190,88L190,90L190,91L189,91L192,96L193,97L198,101L197,102L196,103L194,104L194,105L194,107L197,107L198,107L199,107L200,108L200,110Z " data-fips="AG49" data-hasc="DZ.NA" data-name="Nama" data-postal="NA" data-varname="Naama"/><path d="M157,216L143,185L114,192L101,155L101,155L101,155L99,154L98,155L97,155L95,155L94,155L92,155L92,156L92,157L92,158L91,159L90,160L88,160L85,159L83,158L80,158L77,160L75,161L73,163L71,162L70,162L68,164L67,164L66,165L64,166L61,168L59,169L58,170L56,171L55,171L54,173L53,173L52,174L49,175L49,176L47,198L46,207L102,250Z " data-fips="AG54" data-hasc="DZ.TN" data-name="Tindouf" data-postal="TN" data-varname="Tiaret"/><path d="M354,10L355,9L356,7L357,6L357,4L357,3L357,2L356,2L354,2L353,2L352,1L351,1L350,0L349,0L348,0L348,0L348,3L350,4L349,5L350,6L350,8L352,9L352,10L353,10Z " data-fips="AG37" data-hasc="DZ.AN" data-name="Annaba" data-postal="AN" data-varname="Anaba|Bona|Bne"/><path d="M363,14L364,12L364,12L365,11L366,10L369,8L369,7L368,6L369,5L371,5L372,4L371,3L371,2L369,3L368,3L367,3L365,3L365,2L362,4L358,5L357,4L357,6L356,7L355,9L356,9L357,10L357,11L361,13L361,13L362,14Z " data-fips="AG44" data-hasc="DZ.ET" data-name="El Tarf" data-postal="ET" data-varname="Et Tarf|El Taref"/><path d="M319,13L320,13L322,12L323,13L324,13L325,12L326,11L328,12L330,12L330,11L332,11L334,11L334,10L333,9L332,8L332,7L331,6L330,5L330,4L329,5L326,6L323,7L320,7L320,7L318,8L318,9L317,10L316,10L316,11L316,12L317,12L317,13L318,13Z " data-fips="AG24" data-hasc="DZ.JJ" data-name="Jijel" data-postal="JJ" data-varname="Djidjel| Djidjelli"/><path d="M343,14L345,13L345,12L346,11L348,10L349,10L349,9L350,8L350,6L349,5L350,4L348,3L348,0L348,0L347,1L348,2L347,3L345,4L344,4L342,5L341,4L340,3L337,3L336,3L335,1L333,0L332,1L331,1L330,3L330,4L330,5L331,6L332,7L332,8L333,9L334,10L334,11L335,12L335,12L336,12L338,11L340,12L342,12L341,12L341,13L341,14Z " data-fips="AG31" data-hasc="DZ.SK" data-name="Skikda" data-postal="SK" data-varname="Philippeville|Skidda"/><path d="M448,282L444,276L443,275L427,272L422,274L421,274L418,272L418,270L417,268L414,266L413,263L413,257L412,255L412,254L400,239L399,238L400,236L401,235L401,233L408,229L409,226L408,225L408,222L407,221L406,218L404,212L405,211L405,209L406,207L406,206L407,205L408,201L408,200L405,192L404,191L405,183L405,180L405,175L404,172L400,162L398,158L395,154L394,153L394,153L353,181L349,181L346,181L339,184L330,189L340,197L341,198L342,200L343,202L342,203L337,205L332,210L331,211L329,212L329,213L328,215L329,218L332,226L332,227L336,229L337,230L338,231L338,233L336,237L336,238L336,239L339,240L344,246L346,247L347,248L352,249L352,250L353,254L356,258L356,259L356,260L355,262L355,263L355,265L355,267L356,268L358,269L359,270L360,272L361,272L362,273L363,273L364,273L366,274L367,274L368,275L369,276L371,277L372,278L373,279L374,279L376,279L378,280L379,280L380,281L382,281L383,281L384,281L385,282L386,284L387,285L388,286Z " data-fips="AG46" data-hasc="DZ.IL" data-name="Illizi" data-postal="IL" data-varname="Polignac|Fort Polignac|Ilizi"/><path d="M299,395L315,392L332,388L333,387L356,365L357,364L366,356L454,293L448,282L388,286L387,285L386,284L385,282L384,281L383,281L382,281L380,281L379,280L378,280L376,279L374,279L373,279L372,278L371,277L369,276L368,275L367,274L366,274L364,273L363,273L362,273L361,272L360,272L359,270L358,269L356,268L355,267L355,265L355,263L355,262L356,260L356,259L356,258L353,254L352,250L352,249L347,248L346,247L344,246L339,240L336,239L336,238L336,237L338,233L338,231L337,230L336,229L332,227L332,226L329,218L328,215L329,213L329,212L331,211L332,210L337,205L342,203L343,202L342,200L341,198L340,197L330,189L307,191L289,189L273,176L256,178L257,190L256,195L255,199L253,227L252,228L251,230L249,232L247,232L245,234L244,235L242,235L239,235L238,236L237,236L235,236L234,237L232,237L231,238L231,239L233,241L236,245L236,247L236,248L236,250L236,252L240,254L239,327L240,329L286,355L288,357L289,359L290,364L290,397L290,397Z " data-fips="AG53" data-hasc="DZ.TM" data-name="Tamanghasset" data-postal="TM" data-varname="Tamanrasset|Tamenghasset|Tamenghest|Fort Laperrine"/><path d="M231,134L233,133L236,131L256,121L257,120L259,119L259,117L258,116L259,114L261,111L261,109L261,108L260,105L260,100L260,98L259,97L258,93L258,92L256,89L255,88L255,86L254,85L254,84L255,83L255,82L255,80L252,77L251,74L250,73L249,72L245,71L244,70L242,66L241,65L240,65L237,64L237,62L236,61L232,59L231,60L230,61L226,63L225,64L223,64L222,64L222,65L221,66L220,67L220,68L219,73L219,77L219,83L219,84L218,88L217,89L217,91L218,95L216,100L216,101L217,102L217,103L217,104L209,125L210,127L214,132L224,141Z " data-fips="AG42" data-hasc="DZ.EB" data-name="El Bayadh" data-postal="EB" data-varname="El Bayad|El Beyyadh|Gryville"/><path d="M386,110L385,108L375,101L372,100L371,98L370,92L366,87L365,86L363,85L361,85L360,84L359,83L359,79L356,74L356,73L355,72L355,70L355,68L355,66L355,65L355,65L352,65L351,65L349,65L348,64L346,64L345,64L340,61L340,60L339,60L338,61L337,61L336,61L335,60L334,60L331,59L327,60L318,59L316,58L315,58L314,59L313,60L313,61L314,62L315,63L315,64L316,65L316,66L316,67L316,72L315,73L314,74L314,75L312,78L310,81L332,82L335,83L337,87L341,101L342,103L345,107L346,109L348,111L351,111L353,111Z " data-fips="" data-hasc="" data-name="El Oued" data-postal="" data-varname=""/><path d="M273,176L280,172L281,171L282,165L283,164L285,162L287,160L288,157L293,123L294,118L295,114L297,111L298,109L298,107L299,106L302,105L305,101L289,92L288,91L287,91L280,94L280,95L279,96L278,96L276,95L275,95L271,95L269,96L267,97L260,98L260,100L260,105L261,108L261,109L261,111L259,114L258,116L259,117L259,119L257,120L256,121L256,138L253,155L256,178Z " data-fips="AG45" data-hasc="DZ.GR" data-name="Ghardaa" data-postal="GR" data-varname="GhardaSa|Gharday"/><path d="M267,97L269,96L271,95L275,95L276,95L278,96L279,96L280,95L280,94L287,91L288,91L289,92L294,90L294,87L293,86L292,85L285,79L277,70L276,68L275,67L275,66L274,64L273,64L272,64L270,65L270,66L268,67L266,68L266,71L266,71L264,71L263,71L263,69L264,67L263,66L262,64L261,61L260,60L260,59L260,58L261,57L261,55L261,54L260,54L259,55L258,56L256,57L254,58L252,59L251,60L249,62L249,63L248,64L244,70L245,71L249,72L250,73L251,74L252,77L255,80L255,82L255,83L254,84L254,85L255,86L255,88L256,89L258,92L258,93L259,97L260,98Z " data-fips="AG25" data-hasc="DZ.LG" data-name="Laghouat" data-postal="LG" data-varname=""/><path d="M330,189L339,184L346,181L349,181L353,181L394,153L394,153L393,151L397,148L386,110L353,111L351,111L348,111L346,109L345,107L342,103L341,101L337,87L335,83L332,82L310,81L309,83L309,86L305,101L302,105L299,106L298,107L298,109L297,111L295,114L294,118L293,123L288,157L287,160L285,162L283,164L282,165L281,171L280,172L273,176L289,189L307,191Z " data-fips="AG50" data-hasc="DZ.OG" data-name="Ouargla" data-postal="OG" data-varname="Wargla"/><path d="M277,10L276,9L275,9L274,8L272,8L272,8L272,9L273,10L274,11L275,11Z " data-fips="AG01" data-hasc="DZ.AL" data-name="Alger" data-postal="AL" data-varname="Algeri|Algiers|Algier|al-Jazair|al-Djazair|El Djazar|Argel|Dzayer|Djezar"/><path d="M286,11L287,11L288,11L289,10L290,10L289,8L290,8L291,7L291,6L291,6L290,6L289,5L287,5L285,6L284,7L283,8L282,8L281,8L278,8L277,9L276,9L277,10L278,10L280,10L283,11L284,10L285,11L284,12Z " data-fips="AG40" data-hasc="DZ.BM" data-name="Boumerds" data-postal="BM" data-varname="Boumerdas"/><path d="M295,15L296,15L297,15L298,14L300,12L301,10L300,10L301,9L302,8L302,7L301,6L301,6L299,6L298,5L295,5L294,6L293,6L292,6L291,6L291,7L290,8L289,8L290,10L289,10L288,11L287,11L286,11L287,13L288,14L289,15L294,15Z " data-fips="AG14" data-hasc="DZ.TO" data-name="Tizi Ouzou" data-postal="TO" data-varname="Tizi-ouzou|Tizi Wezzu"/><path d="M251,17L252,16L255,16L256,16L258,16L260,16L264,15L265,15L266,15L267,14L267,13L268,13L270,11L272,11L273,11L273,10L272,9L272,8L272,8L272,8L270,9L269,10L268,11L266,12L262,12L262,12L261,12L256,13L254,13L253,13L251,13L250,13L249,15L249,16L249,16L250,17Z " data-fips="AG55" data-hasc="DZ.TP" data-name="Tipaza" data-postal="TP" data-varname="Tibaza| Tefessedt"/><path d="M253,28L254,28L255,27L257,27L258,27L259,28L260,28L261,27L263,26L263,25L265,23L266,22L266,21L265,21L264,21L264,20L264,19L266,19L267,18L266,17L265,17L264,17L260,16L258,16L256,16L255,16L252,16L251,17L250,17L249,16L249,16L248,16L247,17L247,18L248,19L248,20L248,21L248,22L249,23L249,24L250,26L251,28L252,29Z " data-fips="AG35" data-hasc="DZ.AD" data-name="An Defla" data-postal="AD" data-varname="Ain Dafla"/><path d="M245,28L245,27L246,26L247,25L248,26L249,27L250,26L249,24L249,23L248,22L248,21L248,20L248,19L247,18L247,17L248,16L249,16L249,15L250,13L246,14L245,14L243,13L242,14L240,14L239,15L237,15L236,15L236,16L235,17L234,17L233,18L233,18L233,19L233,21L234,21L235,21L236,22L236,24L237,25L238,25L239,26L240,27L242,26L243,27L243,28Z " data-fips="AG41" data-hasc="DZ.CH" data-name="Chlef" data-postal="CH" data-varname="El Asnam|Orlansville|Ech Cheliff"/><path d="M224,46L225,46L227,46L228,44L229,43L230,42L230,41L232,41L233,41L234,40L235,39L234,37L233,37L232,37L231,36L230,36L229,36L228,35L226,35L225,35L224,34L224,33L222,32L221,30L220,31L218,31L218,31L217,30L216,30L216,32L215,32L214,32L213,33L212,34L211,35L210,36L210,37L209,38L210,37L210,38L211,39L212,39L215,40L215,41L215,42L216,43L217,44L218,45L219,45L220,45L221,45L222,46L223,46Z " data-fips="AG26" data-hasc="DZ.MC" data-name="Mascara" data-postal="MC" data-varname="Mouaskar"/><path d="M224,31L225,30L226,30L227,29L227,27L228,26L229,26L229,25L229,24L230,23L231,22L233,19L233,18L233,18L231,18L230,18L229,19L228,20L227,20L226,20L225,21L224,22L223,23L222,24L221,25L221,27L220,28L219,29L217,30L217,30L218,31L218,31L220,31L221,30L222,32Z " data-fips="AG07" data-hasc="DZ.MG" data-name="Mostaganem" data-postal="MG" data-varname="Mostaghanem|Mestghanem"/><path d="M235,37L237,35L238,35L239,34L240,33L241,33L242,32L243,30L244,30L243,28L243,27L242,26L240,27L239,26L238,25L237,25L236,24L236,22L235,21L234,21L233,21L231,22L230,23L229,24L229,25L229,26L228,26L227,27L227,29L226,30L225,30L224,31L224,33L224,34L225,35L226,35L228,35L229,36L230,36L231,36L232,37L233,37L234,37L235,38Z " data-fips="AG51" data-hasc="DZ.RE" data-name="Relizane" data-postal="RE" data-varname="Ghelizane|Ghilizane"/><path d="M212,70L213,68L214,67L215,67L217,67L217,68L218,69L219,68L220,68L220,67L221,66L222,65L222,64L223,64L225,64L226,63L230,61L231,60L232,59L233,59L234,58L231,53L231,51L231,50L233,49L233,47L232,46L231,46L230,45L227,46L225,46L224,46L223,46L222,46L221,45L220,45L219,45L218,45L217,44L215,44L214,45L214,46L213,47L213,48L213,49L212,49L213,50L213,51L214,52L215,52L216,53L217,55L218,56L209,65L211,68L211,69L212,70Z " data-fips="AG10" data-hasc="DZ.SD" data-name="Sada" data-postal="SD" data-varname=""/><path d="M248,64L249,63L249,62L251,60L252,59L254,58L256,57L258,56L259,55L260,54L261,54L261,52L263,50L264,47L266,46L262,43L262,42L261,41L260,40L260,38L257,35L256,35L254,35L252,35L250,35L249,35L248,35L247,34L246,34L245,33L244,32L243,33L242,34L241,33L240,33L239,34L238,35L237,35L235,37L235,38L234,37L235,39L234,40L233,41L232,41L230,41L230,42L229,43L228,44L230,45L231,46L232,46L233,47L233,49L231,50L231,51L231,53L234,58L233,59L232,59L236,61L237,62L237,64L240,65L241,65L242,66Z " data-fips="AG13" data-hasc="DZ.TR" data-name="Tiaret" data-postal="TR" data-varname="Tendouf|Tihert"/><path d="M260,34L259,33L258,32L258,32L259,31L260,28L259,28L258,27L257,27L255,27L254,28L253,28L252,29L251,28L249,27L248,26L247,25L246,26L245,27L245,28L244,30L243,30L242,32L241,33L242,34L243,33L244,32L245,33L246,34L247,34L248,35L249,35L250,35L252,35L254,35L256,35L257,35Z " data-fips="AG56" data-hasc="DZ.TS" data-name="Tissemsilt" data-postal="TS" data-varname="Vialar"/><path d="M310,28L311,28L311,27L311,26L311,25L312,23L312,22L313,22L312,21L311,20L310,20L309,18L308,18L306,19L305,18L304,18L305,17L303,16L303,17L302,18L302,19L302,20L300,20L298,20L297,19L297,18L296,19L295,21L293,22L293,24L292,25L292,25L293,25L294,25L297,25L298,25L299,25L300,25L300,27L299,28L299,29L300,29L302,29L303,28L305,28L306,28L307,29L308,30Z " data-fips="AG39" data-hasc="DZ.BB" data-name="Bordj Bou Arrridj" data-postal="BB" data-varname="Borjbouarirej|Bordi Bou Arreridj"/><path d="M300,20L302,20L302,19L302,18L303,17L303,16L305,17L307,17L307,16L308,15L307,14L309,13L309,12L311,13L311,13L311,14L312,15L312,17L314,16L314,15L315,15L316,14L316,13L316,12L316,11L316,10L315,11L313,11L312,11L309,9L310,8L309,8L308,7L307,7L304,5L303,6L301,6L302,7L302,8L301,9L300,10L301,10L300,12L298,14L297,15L298,16L298,17L297,18L297,19L298,20Z " data-fips="AG18" data-hasc="DZ.BJ" data-name="Bjaa" data-postal="BJ" data-varname="Bougie|Bedjaya|Bidjaia|Bugia|Bujia"/><path d="M274,17L275,17L276,16L277,15L278,15L278,14L279,13L281,12L282,11L280,10L278,10L277,10L275,11L274,11L273,10L273,11L272,11L270,11L268,13L267,13L267,14L266,15L265,15L264,15L264,17L265,17L266,17L267,18L267,18L270,18L271,17L272,17L273,18Z " data-fips="AG20" data-hasc="DZ.BL" data-name="Blida" data-postal="BL" data-varname="El Boulada|Al-Boulaida"/><path d="M290,28L291,28L291,27L292,25L293,24L293,22L295,21L296,19L297,18L298,17L298,16L297,15L296,15L295,15L294,15L289,15L288,14L287,13L284,12L285,11L284,10L283,11L282,11L281,12L279,13L278,14L278,15L279,16L281,16L282,16L283,17L283,18L283,19L283,20L283,21L283,23L283,24L283,25L286,27L287,28L288,28L289,28Z " data-fips="AG21" data-hasc="DZ.BU" data-name="Bouira" data-postal="BU" data-varname=""/><path d="M314,75L314,74L315,73L316,72L316,67L316,66L316,65L315,64L315,63L314,62L313,61L313,60L314,59L315,58L316,58L318,59L327,60L331,59L334,60L335,60L336,61L337,61L338,61L339,60L340,60L340,59L340,57L340,56L340,55L341,53L341,52L340,51L339,51L337,51L336,51L335,50L335,49L335,47L335,46L335,45L334,45L332,45L331,46L330,46L329,47L329,46L328,46L327,47L326,46L326,45L326,44L326,43L326,41L325,41L323,40L322,41L320,42L319,43L320,44L319,45L318,45L315,46L314,46L313,46L311,46L310,45L310,49L309,50L308,51L306,51L305,51L304,51L301,52L300,52L299,52L298,53L297,54L296,56L295,57L294,58L295,59L295,61L296,62L296,63L296,64L295,64L295,65L296,66L297,67L297,69L298,70L299,71L312,78Z " data-fips="AG19" data-hasc="DZ.BS" data-name="Biskra" data-postal="BS" data-varname="Beskra"/><path d="M309,86L309,83L310,81L312,78L299,71L298,70L297,69L297,67L296,66L295,65L295,64L295,64L294,63L292,61L292,60L292,59L290,57L289,54L289,53L286,52L285,52L285,51L284,50L284,49L283,48L283,47L283,46L282,46L281,44L285,40L285,39L285,38L285,36L282,34L281,33L279,31L278,30L277,31L276,32L274,33L274,32L273,31L273,30L272,30L271,31L271,32L271,33L271,34L268,36L268,37L267,38L266,38L263,37L260,38L260,40L261,41L262,42L262,43L266,46L264,47L263,50L261,52L261,54L261,55L261,57L260,58L260,59L260,60L261,61L262,64L263,66L264,67L263,69L263,71L264,71L266,71L266,71L266,68L268,67L270,66L270,65L272,64L273,64L274,64L275,66L275,67L276,68L277,70L285,79L292,85L293,86L294,87L294,90Z " data-fips="AG22" data-hasc="DZ.DJ" data-name="Djelfa" data-postal="DJ" data-varname="El Djelfa"/><path d="M263,37L266,38L267,38L268,37L268,36L271,34L271,33L271,32L271,31L272,30L273,30L273,31L274,32L274,33L276,32L277,31L278,30L279,31L280,30L282,32L283,32L283,31L282,30L283,29L284,28L283,25L283,24L283,23L283,21L283,20L283,19L283,18L283,17L282,16L281,16L279,16L278,15L277,15L276,16L275,17L274,17L273,18L272,17L271,17L270,18L267,18L267,18L266,19L264,19L264,20L264,21L265,21L266,21L266,22L265,23L263,25L263,26L261,27L260,28L259,31L258,32L258,32L259,33L260,34L260,38Z " data-fips="AG06" data-hasc="DZ.MD" data-name="Mda" data-postal="MD" data-varname="El Mediyya|Lemdiyya"/><path d="M296,64L296,63L296,62L295,61L295,59L294,58L295,57L296,56L297,54L298,53L299,52L300,52L301,52L304,51L305,51L306,51L308,51L309,50L310,49L310,45L309,45L308,44L307,44L305,43L306,42L307,40L307,39L307,37L307,35L307,36L308,36L309,36L311,36L312,35L313,35L315,33L312,32L312,31L310,31L308,30L307,29L306,28L305,28L303,28L302,29L300,29L299,29L299,28L300,27L300,25L299,25L298,25L297,25L294,25L293,25L292,25L292,25L291,27L291,28L290,28L289,28L288,28L287,28L286,27L284,28L283,29L282,30L283,31L283,32L282,32L280,30L281,33L282,34L285,36L285,38L285,39L285,40L281,44L282,46L283,46L283,47L283,48L284,49L284,50L285,51L285,52L286,52L289,53L289,54L290,57L292,59L292,60L292,61L294,63L295,64L295,64Z " data-fips="AG32" data-hasc="DZ.MS" data-name="M'Sila" data-postal="MS" data-varname="Msila"/><path d="M316,33L317,32L317,30L318,30L319,29L320,29L321,30L322,29L321,28L322,27L323,27L324,27L325,28L326,26L326,25L325,23L325,22L324,21L325,20L324,19L324,18L324,16L322,15L322,14L322,13L320,13L319,13L318,13L317,13L317,12L316,12L316,13L316,14L315,15L314,15L314,16L312,17L312,15L311,14L311,13L311,13L309,12L309,13L307,14L308,15L307,16L307,17L304,18L305,18L306,19L308,18L309,18L310,20L311,20L312,21L313,22L312,22L312,23L311,25L311,26L311,27L311,28L310,28L310,31L312,31L312,32L315,33Z " data-fips="AG12" data-hasc="DZ.SF" data-name="Stif" data-postal="SF" data-varname="Stif"/><path d="M338,51L337,49L337,48L337,46L336,45L336,43L337,42L337,41L338,40L337,39L337,38L338,36L338,35L340,35L341,33L340,32L340,31L339,29L338,29L337,29L335,29L334,28L333,28L332,27L331,27L327,27L326,26L325,28L324,27L323,27L322,27L321,28L322,29L321,30L320,29L319,29L318,30L317,30L317,32L316,33L315,33L313,35L312,35L311,36L309,36L308,36L307,36L307,35L307,37L307,39L307,40L306,42L305,43L307,44L308,44L309,45L310,45L311,46L313,46L314,46L315,46L318,45L319,45L320,44L319,43L320,42L322,41L323,40L325,41L326,41L326,43L326,44L326,45L326,46L327,47L328,46L329,46L329,47L330,46L331,46L332,45L334,45L335,45L335,46L335,47L335,49L335,50L336,51L337,51Z " data-fips="AG03" data-hasc="DZ.BT" data-name="Batna" data-postal="BT" data-varname=""/><path d="M343,21L345,19L344,18L344,17L343,16L341,14L341,13L341,12L342,12L340,12L338,11L336,12L335,12L335,12L335,13L334,14L334,15L332,16L332,17L333,17L334,18L335,20L335,21L337,22L338,21L339,20L340,20L342,22Z " data-fips="AG48" data-hasc="DZ.CO" data-name="Constantine" data-postal="CO" data-varname="Constantina|Costatina|Qoussantina|Qacentina"/><path d="M346,23L348,22L348,21L350,21L350,21L351,20L353,19L353,19L355,18L357,17L358,17L358,16L358,15L358,14L359,14L361,13L357,11L357,10L356,9L354,10L353,10L352,10L352,9L350,8L349,9L349,10L348,10L346,11L345,12L345,13L343,14L343,16L344,17L344,18L345,19L344,21L344,22L345,23Z " data-fips="AG23" data-hasc="DZ.GL" data-name="Guelma" data-postal="GL" data-varname=""/><path d="M349,61L350,60L350,57L351,55L351,54L352,53L352,52L352,51L352,50L352,48L352,47L351,46L350,47L350,48L349,49L349,48L349,47L350,45L351,44L352,43L352,41L352,40L352,39L352,38L352,37L354,35L353,35L352,34L351,33L350,34L350,33L349,32L348,32L347,32L346,33L345,33L344,32L342,32L341,32L340,31L340,32L341,33L340,35L338,35L338,36L337,38L337,39L338,40L337,41L337,42L336,43L336,45L337,46L337,48L337,49L338,51L339,51L340,51L341,52L341,53L340,55L340,56L340,57L340,59L340,60L340,61L345,64L346,64L348,64Z " data-fips="AG47" data-hasc="DZ.KH" data-name="Khenchela" data-postal="KH" data-varname="Khenchela"/><path d="M329,26L330,25L332,25L333,24L333,23L333,22L334,21L335,21L335,20L334,18L333,17L332,17L332,16L334,15L334,14L335,13L335,12L332,11L330,11L330,12L328,12L326,11L325,12L324,13L323,13L322,12L322,13L322,14L322,15L324,16L324,18L324,19L325,20L324,21L325,22L325,23L326,25L326,26L327,27Z " data-fips="AG48" data-hasc="DZ.ML" data-name="Mila" data-postal="ML" data-varname=""/><path d="M358,32L359,32L359,30L359,29L360,27L360,26L358,25L357,25L356,26L356,27L354,27L353,26L352,26L351,25L351,24L350,22L350,21L348,21L348,22L346,23L345,23L344,22L344,21L343,21L342,22L340,20L339,20L338,21L337,22L335,21L334,21L333,22L333,23L333,24L332,25L330,25L329,26L331,27L332,27L333,28L334,28L335,29L337,29L338,29L339,29L340,31L341,32L342,32L344,32L345,33L346,33L347,32L348,32L349,32L350,33L350,34L351,33L352,34L353,35L354,35Z " data-fips="AG29" data-hasc="DZ.OB" data-name="Oum el Bouaghi" data-postal="OB" data-varname="Oum el Bouagui|Canrobert"/><path d="M356,26L357,25L358,25L360,26L360,25L361,24L362,24L364,23L366,23L367,24L367,23L367,22L367,20L367,19L367,18L368,15L368,14L367,13L366,13L364,12L363,14L362,14L361,13L361,13L359,14L358,14L358,15L358,16L358,17L357,17L355,18L353,19L353,19L351,20L350,21L350,21L350,22L351,24L351,25L352,26L353,26L354,27L356,27Z " data-fips="AG52" data-hasc="DZ.SA" data-name="Souk Ahras" data-postal="SA" data-varname="Souk-Ahras|Souq Ahras"/><path d="M355,65L355,65L357,64L358,63L359,62L360,62L360,59L361,58L363,56L365,55L366,55L367,53L368,53L367,51L368,50L368,48L368,46L368,45L368,43L369,42L370,40L370,39L368,39L368,37L368,35L368,33L368,31L368,30L367,28L366,27L366,25L367,24L366,23L364,23L362,24L361,24L360,25L360,26L360,27L359,29L359,30L359,32L358,32L352,37L352,38L352,39L352,40L352,41L352,43L351,44L350,45L349,47L349,48L349,49L350,48L350,47L351,46L352,47L352,48L352,50L352,51L352,52L352,53L351,54L351,55L350,57L350,60L349,61L348,64L349,65L351,65L352,65Z " data-fips="AG33" data-hasc="DZ.TB" data-name="Tbessa" data-postal="TB" data-varname="Tbessa"/></g></svg>