<?xml version="1.0" ?><!DOCTYPE svg  PUBLIC '-//W3C//DTD SVG 1.1//EN'  'http://www.w3.org/Graphics/SVG/1.1/DTD/svg11.dtd'><svg enable_background="new 0 0 500 401" height="401px" style="stroke-linejoin: round; stroke:#000; fill:#f6f3f0;" version="1.1" viewBox="0 0 500 401" width="500px" xmlns="http://www.w3.org/2000/svg" xmlns:xlink="http://www.w3.org/1999/xlink"><defs><style type="text/css"><![CDATA[path { fill-rule: evenodd; }
#context path { fill: #eee; stroke: #bbb; } ]]></style></defs><metadata><views><view h="401" padding="0" w="500"><proj id="laea" lat0="26.494" lon0="29.872"/><bbox h="120.08" w="136.37" x="944.01" y="935.35"/><llbbox lat0="-90" lat1="90" lon0="-180" lon1="180"/></view></views></metadata><g id="admin1"><path d="M259,45L259,44L258,42L258,40L258,39L257,37L257,36L258,36L258,35L258,34L258,33L258,32L259,31L260,30L260,29L259,29L258,29L257,28L257,27L257,24L255,25L255,25L253,25L252,25L251,26L251,27L251,28L250,29L247,30L246,30L245,30L244,31L241,30L241,31L240,31L241,32L241,34L241,35L242,35L242,36L241,37L242,38L241,39L241,40L242,40L242,41L242,42L242,43L243,42L246,42L247,42L248,42L249,43L251,43L252,43L253,44L254,44L256,45L256,46L257,47L258,47Z " data-fips="EG05" data-hasc="EG.GH" data-name="Al Gharbiyah" data-postal="GH" data-varname="al-Garbiyah|El Gharbiya|Garbia|Gharbieh|Gharbiya|Gharbia"/><path d="M303,61L304,60L305,59L306,59L311,55L308,49L307,48L307,44L294,25L293,25L292,25L289,26L289,26L290,27L291,28L291,30L291,31L290,32L290,34L289,35L289,36L289,38L289,40L289,41L288,43L286,46L285,47L284,47L282,48L280,48L279,48L276,48L277,49L278,50L278,51L278,52L279,57L294,60L297,60L298,61L299,62L301,62Z " data-fips="EG07" data-hasc="EG.IS" data-name="Al Isma`iliyah" data-postal="IS" data-varname="As Ismailiyah|Ismailia|Ismalia|Isma'iliya"/><path d="M254,63L253,62L253,60L253,59L253,57L251,55L252,56L253,55L253,54L254,54L254,53L255,52L256,51L256,50L257,49L257,48L257,47L256,46L256,45L254,44L253,44L252,43L251,43L249,43L248,42L247,42L246,42L243,42L242,43L242,45L242,46L244,47L243,48L244,49L243,51L244,52L244,53L244,54L245,56L244,56L244,57L244,58L245,57L246,57L247,58L248,59L248,60L249,62L250,62L251,62L252,62L253,62L254,63Z " data-fips="EG09" data-hasc="EG.MF" data-name="Al Minufiyah" data-postal="MF" data-varname="Menoufieh|Menufia|Menufiya|Minufiya|Munufia|Menoufia|Minufia"/><path d="M283,79L283,76L282,67L281,63L279,57L271,63L265,63L263,63L262,64L261,64L260,65L258,66L257,70L258,72L259,73L259,74L260,75L260,77L260,80L260,81Z " data-fips="EG11" data-hasc="EG.QH" data-name="Al Qahirah" data-postal="QH" data-varname="Cairo|El Cairo|El Qahira|Le Caire"/><path d="M260,65L261,64L262,64L263,63L265,63L271,63L262,59L262,57L261,55L260,55L260,54L259,53L259,52L260,50L260,49L261,48L261,47L259,47L258,47L257,48L257,49L256,50L256,51L255,52L254,53L254,54L253,54L253,55L252,56L251,55L253,57L253,59L253,60L253,62L254,63L256,65L258,65L258,66Z " data-fips="EG12" data-hasc="EG.QL" data-name="Al Qalyubiyah" data-postal="QL" data-varname="Caliubia|Kalioubieh|Kalioubiya|Qaliyubia|Qalyubiya|Kalyoubia|Kalyubia"/><path d="M279,57L278,52L278,51L278,50L277,49L276,48L279,48L280,48L282,48L284,47L285,47L286,46L288,43L289,41L289,40L289,38L289,36L289,35L290,34L290,32L291,31L291,30L291,28L290,27L289,26L288,26L289,27L288,27L287,26L286,26L287,25L286,24L285,25L284,25L282,26L280,27L279,27L277,27L276,27L275,30L273,32L273,33L272,34L271,35L271,36L270,38L269,38L267,38L266,38L264,38L263,38L262,40L262,41L262,42L262,44L263,45L263,46L261,48L260,49L260,50L259,52L259,53L260,54L260,55L261,55L262,57L262,59L271,63Z M292,25L293,25L294,25L294,22L293,22L294,24L293,25L292,25L291,24L290,25L289,26Z " data-fips="EG14" data-hasc="EG.SQ" data-name="Ash Sharqiyah" data-postal="SQ" data-varname="Charkieh|Sharqia|Sharqiya|Sharquia|Sharkia"/><path d="M288,113L290,113L292,112L303,107L304,107L306,106L309,106L308,101L308,100L307,99L307,98L306,96L305,95L304,94L303,93L301,91L299,89L298,88L297,87L298,85L298,83L300,80L302,75L302,74L302,73L303,72L305,72L305,72L305,71L306,72L305,73L307,75L307,76L307,78L308,79L316,73L315,73L315,72L314,63L306,59L305,59L304,60L303,61L301,62L299,62L298,61L297,60L294,60L281,63L282,67L283,76L283,79L283,81L283,113Z " data-fips="EG15" data-hasc="EG.SW" data-name="As Suways" data-postal="SW" data-varname="El Suweiz|Es Suweis|Suez"/><path d="M263,46L263,45L262,44L262,42L262,41L262,40L263,38L264,38L266,38L267,38L269,38L270,38L271,36L271,35L272,34L273,33L273,32L275,30L276,27L277,27L279,27L280,27L282,26L284,25L285,25L286,24L286,24L285,24L285,23L285,22L285,21L284,21L284,20L282,21L281,21L281,20L281,19L280,20L279,19L278,18L277,18L276,19L275,20L274,21L273,21L270,23L271,22L271,21L272,20L273,19L273,18L273,17L273,16L272,17L271,18L270,17L269,16L268,15L266,15L267,14L269,12L269,11L268,11L267,11L264,10L262,9L261,8L261,8L259,9L258,10L258,12L259,13L259,15L259,17L259,19L259,20L259,22L259,23L259,24L259,25L257,27L257,28L258,29L259,29L260,29L260,30L259,31L258,32L258,33L258,34L258,35L258,36L257,36L257,37L258,39L258,40L258,42L259,44L259,45L258,47L259,47L261,47Z M289,16L288,15L287,14L287,15L287,15L291,17Z " data-fips="EG01" data-hasc="EG.DQ" data-name="Ad Daqahliyah" data-postal="DQ" data-varname="Al Daqahliyah|Dacahlia|Dagahlia|Dakahlieh|Dakahliya|Dakalieh|Daqaliya|Dakahlia|Dekahlia"/><path d="M304,26L303,26L302,25L300,23L299,21L298,20L296,19L296,18L295,18L293,17L293,18L294,19L294,20L295,21L294,22L294,25L305,26Z " data-fips="EG19" data-hasc="EG.BS" data-name="Bur Sa`id" data-postal="BS" data-varname="Bur Said|Canal|Port Said|Port-Sad"/><path d="M273,21L274,21L275,20L276,19L277,18L277,18L276,17L277,16L277,15L278,15L279,15L278,14L278,13L279,12L279,11L278,11L279,11L280,12L280,11L279,9L279,8L280,8L281,8L282,9L283,12L284,13L285,14L286,14L287,15L287,14L287,14L286,14L284,12L284,11L283,9L282,8L281,8L280,8L278,8L275,10L269,11L269,12L267,14L266,15L268,15L269,16L270,17L271,18L272,17L273,16L273,17L273,18L273,19L272,20L271,21L271,22L270,23Z " data-fips="EG20" data-hasc="EG.DT" data-name="Dumyat" data-postal="DT" data-varname="Damietta|Damiette|Dumiat"/><path d="M133,133L134,131L136,129L139,128L167,121L175,116L198,92L226,75L202,61L201,57L200,30L198,30L197,32L191,34L186,37L185,37L180,37L174,34L173,33L172,32L171,31L169,31L163,28L162,28L160,27L159,26L157,26L156,27L154,27L152,27L150,26L149,26L143,26L141,25L140,24L140,23L139,22L139,21L138,20L134,22L132,22L129,21L128,21L125,20L124,20L123,19L122,18L122,16L121,15L121,14L120,14L118,14L117,14L115,13L113,13L111,12L109,11L108,11L107,10L106,11L104,11L103,10L100,9L98,9L97,9L87,7L73,3L70,2L68,3L61,5L56,6L55,6L53,7L52,6L50,6L48,6L46,5L45,4L45,3L45,0L42,2L41,3L40,6L34,11L33,12L33,14L34,17L33,21L34,26L35,28L36,30L37,34L38,35L37,37L37,38L36,40L36,42L34,46L34,47L33,48L31,52L30,53L29,54L28,56L26,58L26,60L26,62L27,64L30,72L30,74L29,76L29,77L31,81L31,83L31,86L31,88L31,89L34,97L34,99L34,101L32,163L33,163L117,166Z " data-fips="EG22" data-hasc="EG.MT" data-name="Matruh" data-postal="MT" data-varname="Marsa Matruh|Mersa Matruh|Western Desert|Matrouh"/><path d="M227,72L244,57L244,56L245,56L244,54L244,53L244,52L243,51L244,49L243,48L244,47L242,46L242,45L242,43L242,42L242,41L242,40L241,40L241,39L242,38L241,37L242,36L242,35L241,35L241,34L241,32L240,31L241,31L240,30L239,29L239,27L239,26L237,25L235,23L234,22L233,22L232,22L232,21L232,20L232,18L232,17L232,16L231,16L230,15L229,14L229,12L228,12L227,11L226,10L226,11L226,13L226,14L225,16L223,18L222,18L220,19L222,19L224,19L225,19L224,20L223,20L221,20L219,21L219,20L220,19L219,19L217,18L217,19L215,23L214,24L212,26L209,27L210,28L210,29L211,30L210,32L209,33L210,34L212,38L213,40L214,41L214,42L213,44L213,46L211,47L210,48L204,50L203,52L201,57L202,61L226,75Z " data-fips="EG03" data-hasc="EG.BH" data-name="Al Buhayrah" data-postal="BH" data-varname="Beheira|Behera|El Buhayra|Bhra"/><path d="M227,113L242,109L245,107L247,104L249,103L249,101L251,100L252,97L251,84L250,83L248,82L241,83L233,86L227,90L224,92L207,108L223,111L225,113Z " data-fips="EG04" data-hasc="EG.FY" data-name="Al Fayyum" data-postal="FY" data-varname="El Faiyum|el Fayoum|Faium|Faiyum|Fayum|Fayoum|Fayyum"/><path d="M203,52L204,50L210,48L211,47L213,46L213,44L214,42L214,41L213,40L212,38L210,34L209,33L210,32L211,30L210,29L210,28L209,27L212,26L214,24L215,23L217,19L217,18L217,18L216,18L216,16L215,18L214,18L213,19L212,20L211,21L210,21L210,22L208,24L206,24L206,25L201,29L200,30L201,57Z " data-fips="EG06" data-hasc="EG.IK" data-name="Al Iskandariyah" data-postal="IK" data-varname="Alejandra|Alexandria|Alexandrie|El Iskandariya"/><path d="M168,161L170,158L172,156L189,147L195,143L199,137L205,122L206,119L207,108L224,92L227,90L233,86L241,83L248,82L250,83L251,84L256,95L258,96L258,97L259,98L262,103L263,104L263,105L264,106L266,108L268,109L283,81L283,79L260,81L260,80L260,77L260,75L259,74L259,73L258,72L257,70L258,66L258,65L256,65L254,63L253,62L252,62L251,62L250,62L249,62L248,60L248,59L247,58L246,57L245,57L244,58L244,57L227,72L226,75L198,92L175,116L167,121L139,128L136,129L134,131L133,133L117,166L165,166Z " data-fips="EG08" data-hasc="EG.JZ" data-name="Al Jizah" data-postal="JZ" data-varname="El Giza|El Gizah|Gizeh|Giza|Guizh"/><path d="M249,165L249,163L249,161L247,158L247,154L247,153L246,151L244,146L244,145L244,142L244,141L245,138L247,135L247,134L242,121L205,122L199,137L195,143L189,147L172,156L170,158L168,161L165,166L239,167L239,168L240,168L242,168L244,169Z " data-fips="EG10" data-hasc="EG.MN" data-name="Al Minya" data-postal="MN" data-varname="Minia|Minieh|Menia|Minya"/><path d="M248,122L249,120L250,118L252,115L254,112L255,110L257,108L258,107L259,104L259,103L259,101L259,98L258,97L258,96L256,95L252,97L251,100L249,101L249,103L247,104L245,107L242,109L227,113L225,113L223,111L207,108L206,119L205,122L242,121L248,123Z " data-fips="EG18" data-hasc="EG.BN" data-name="Bani Suwayf" data-postal="BN" data-varname="Beni Suwayf|Beni Souef|Beni Suef"/><path d="M245,30L246,30L247,30L250,29L251,28L251,27L251,26L252,25L253,25L255,25L255,25L257,24L259,25L259,24L259,23L259,22L259,20L259,19L259,17L259,15L259,13L258,12L258,10L259,9L261,8L261,8L257,6L253,5L252,5L249,5L248,6L250,6L251,7L253,8L253,9L252,9L251,9L250,9L250,9L249,11L248,12L247,11L246,12L245,13L244,12L243,12L242,12L240,13L239,14L238,13L237,13L236,14L234,14L233,14L234,13L236,12L238,11L240,10L242,9L244,7L248,6L238,10L233,11L231,11L230,11L229,11L228,10L226,10L227,11L228,12L229,12L229,14L230,15L231,16L232,16L232,17L232,18L232,20L232,21L232,22L233,22L234,22L235,23L237,25L239,26L239,27L239,29L240,30L241,31L241,30L244,31Z " data-fips="EG21" data-hasc="EG.KS" data-name="Kafr ash Shaykh" data-postal="KS" data-varname="Kafr-El-Sheikh|Kafr ash Shaikh|Kafr ash-Shayk|Kafr el Sheik|Kafr el Sheikh"/><path d="M271,399L271,399L272,397L273,396L275,394L283,390L284,389L284,388L285,388L286,387L287,387L289,387L291,385L291,384L292,383L295,375L296,374L297,375L299,376L301,379L302,379L303,379L306,379L307,379L309,378L310,378L312,376L313,375L318,370L319,368L320,367L320,366L319,364L320,363L321,362L321,360L322,360L323,360L325,362L326,363L327,363L330,363L332,363L333,363L336,367L340,369L340,368L340,367L339,362L338,361L337,360L336,359L335,358L333,357L330,356L330,355L330,354L331,352L332,351L332,350L334,348L335,344L335,343L335,342L335,341L333,339L332,335L332,333L333,332L333,331L333,328L333,327L332,325L332,324L330,323L329,322L328,319L327,317L327,316L325,309L326,307L327,303L330,298L330,297L331,296L331,295L331,294L327,285L326,284L326,278L326,276L325,275L325,273L324,271L322,269L314,265L314,267L314,268L313,269L316,271L317,272L318,273L319,274L320,276L320,280L321,281L322,285L323,287L323,289L323,291L322,294L322,296L322,297L322,299L322,303L322,305L322,306L322,308L322,311L322,312L321,313L321,314L320,315L318,315L315,315L314,316L314,317L313,318L313,319L313,320L314,321L317,322L318,323L318,324L317,325L312,326L311,326L310,327L309,328L309,329L307,330L307,332L307,335L306,336L306,338L306,339L307,340L308,340L312,341L318,340L318,341L318,342L318,343L315,347L314,348L312,352L311,356L310,357L310,358L309,359L309,362L308,364L308,364L306,366L305,366L305,365L303,365L302,365L301,365L298,363L297,363L296,363L283,369L280,368L278,368L277,369L276,370L275,371L275,372L275,373L275,376L276,378L275,380L275,381L272,384L270,386L269,386L268,387L266,387L264,387L263,388L262,389L261,390L261,392L262,392L264,394L264,395L266,391L267,390L268,389L270,390L271,392L271,393L269,399Z " data-fips="EG16" data-hasc="EG.AN" data-name="Aswan" data-postal="AN" data-varname="Assouan|Assu|Assun|Syene"/><path d="M269,192L268,190L266,188L264,187L263,186L262,185L262,183L261,182L260,181L259,181L257,180L253,179L250,177L249,176L249,175L248,173L248,172L244,169L242,168L240,168L239,168L238,170L238,171L239,172L242,179L244,181L248,185L250,186L254,188L255,189L257,191L262,200L266,198L266,197L267,196L268,196L269,198L270,200L271,200L272,201Z " data-fips="EG17" data-hasc="EG.AT" data-name="Asyut" data-postal="AT" data-varname="Asyiut|Assiout|Assiut|Assyut|Asyout"/><path d="M264,395L264,394L262,392L261,392L261,390L262,389L263,388L264,387L266,387L268,387L269,386L270,386L272,384L275,381L275,380L276,378L275,376L275,373L275,372L275,371L276,370L277,369L278,368L280,368L283,369L296,363L297,363L298,363L301,365L302,365L303,365L305,365L305,366L306,366L308,364L308,364L309,362L309,359L310,358L310,357L311,356L312,352L314,348L315,347L318,343L318,342L318,341L318,340L312,341L308,340L307,340L306,339L306,338L306,336L307,335L307,332L307,330L309,329L309,328L310,327L311,326L312,326L317,325L318,324L318,323L317,322L314,321L313,320L313,319L313,318L314,317L314,316L315,315L318,315L320,315L321,314L321,313L322,312L322,311L322,308L322,306L322,305L322,303L322,299L322,297L322,296L322,294L323,291L323,289L323,287L322,285L321,281L320,280L320,276L319,274L318,273L317,272L316,271L313,269L309,266L308,266L308,264L307,263L306,257L305,251L305,250L305,249L306,248L311,244L313,242L313,241L313,239L313,238L315,235L315,234L316,232L315,231L315,230L313,230L312,229L311,230L310,230L301,234L298,235L296,236L295,235L294,235L293,235L292,234L286,229L270,210L267,207L262,200L257,191L255,189L254,188L250,186L248,185L244,181L242,179L239,172L238,171L238,170L239,168L239,167L165,166L117,166L33,163L32,163L32,171L31,185L31,196L23,396L262,399Z " data-fips="EG13" data-hasc="" data-name="Al Wadi at Jadid" data-postal="WJ" data-varname=""/><path d="M314,268L314,267L314,265L313,263L312,261L312,260L311,257L311,255L312,253L313,252L315,249L318,245L319,244L320,244L322,240L322,238L322,236L322,235L322,232L321,230L321,229L320,228L319,226L317,225L316,224L313,223L311,223L309,223L308,224L300,227L299,228L298,229L296,228L296,228L295,227L293,225L292,225L291,226L290,227L287,227L286,229L292,234L293,235L294,235L295,235L296,236L298,235L301,234L310,230L311,230L312,229L313,230L315,230L315,231L316,232L315,234L315,235L313,238L313,239L313,241L313,242L311,244L306,248L305,249L305,250L305,251L306,257L307,263L308,264L308,266L309,266L313,269Z " data-fips="EG02" data-hasc="EG.QN" data-name="Qina" data-postal="QN" data-varname="Kena|Qena|Quena"/><path d="M299,228L295,223L294,221L293,220L292,220L290,219L289,219L287,218L286,216L285,215L285,214L284,212L284,210L283,209L282,208L281,206L280,205L272,201L271,200L270,200L269,198L268,196L267,196L266,197L266,198L262,200L267,207L270,210L286,229L287,227L290,227L291,226L292,225L293,225L295,227L296,228L296,228L298,229Z " data-fips="EG24" data-hasc="EG.SJ" data-name="Suhaj" data-postal="SJ" data-varname="Girga|Girgeh|Sawhaj|Sohag|Suhag"/><path d="M310,398L334,398L476,392L477,391L476,389L474,388L473,387L472,386L471,386L469,385L463,381L462,380L461,380L460,380L456,375L455,374L454,373L453,372L452,370L452,369L450,367L449,367L446,366L443,365L440,365L439,364L438,364L436,363L434,361L434,360L433,360L432,358L432,356L430,356L432,358L431,358L429,355L428,354L428,350L427,349L426,348L424,343L423,340L423,338L423,337L422,336L421,334L421,333L421,331L421,327L421,324L421,323L421,322L420,321L420,319L420,314L421,313L422,313L423,314L424,314L425,315L427,315L428,315L430,314L431,316L432,316L431,313L430,313L429,312L427,311L426,312L424,310L424,309L423,308L422,307L421,307L420,308L419,306L418,305L416,301L415,300L411,297L408,293L406,291L407,290L407,289L405,288L404,286L403,283L403,282L401,281L400,280L400,278L400,276L399,275L398,274L398,272L394,267L392,264L392,262L391,260L390,258L388,256L388,255L387,253L386,251L386,249L382,243L380,241L378,238L377,236L374,232L373,229L371,227L368,220L367,218L366,217L365,216L365,215L363,211L363,210L362,209L361,208L360,207L359,206L358,205L359,202L359,201L359,199L359,198L360,198L361,197L360,195L359,195L358,194L357,192L356,191L357,189L356,188L355,187L354,186L354,185L354,184L354,182L353,181L351,180L350,179L348,177L348,176L347,174L347,173L346,172L346,171L344,171L343,170L344,169L343,167L341,166L342,164L343,164L344,165L344,164L343,163L343,162L343,161L342,161L341,160L340,159L340,158L341,158L342,158L343,159L344,159L344,158L344,157L343,155L342,155L341,153L339,151L336,150L335,149L335,148L334,147L332,146L331,145L331,144L330,143L328,141L327,139L326,138L326,137L325,136L324,135L323,133L322,132L321,131L320,130L320,129L318,128L317,127L315,121L315,120L314,119L313,119L311,117L310,116L310,115L310,114L308,112L308,111L308,109L309,108L309,107L309,106L306,106L304,107L303,107L292,112L290,113L288,113L283,113L268,109L266,108L264,106L263,105L263,104L262,103L259,101L259,103L259,104L258,107L257,108L255,110L254,112L252,115L250,118L249,120L248,122L248,123L247,134L247,135L245,138L244,141L244,142L244,145L244,146L246,151L247,153L247,154L247,158L249,161L249,163L249,165L248,172L248,173L249,175L249,176L250,177L253,179L257,180L259,181L260,181L261,182L262,183L262,185L263,186L264,187L266,188L268,190L269,192L280,205L281,206L282,208L283,209L284,210L284,212L285,214L285,215L286,216L287,218L289,219L290,219L292,220L293,220L294,221L295,223L299,228L300,227L308,224L309,223L311,223L313,223L316,224L317,225L319,226L320,228L321,229L321,230L322,232L322,235L322,236L322,238L322,240L320,244L319,244L318,245L315,249L313,252L312,253L311,255L311,257L312,260L312,261L313,263L322,269L324,271L325,273L325,275L326,276L326,278L326,284L327,285L331,294L331,295L331,296L330,297L330,298L327,303L326,307L325,309L327,316L327,317L328,319L329,322L330,323L332,324L332,325L333,327L333,328L333,331L333,332L332,333L332,335L333,339L335,341L335,342L335,343L335,344L334,348L332,350L332,351L331,352L330,354L330,355L330,356L333,357L335,358L336,359L337,360L338,361L339,362L340,367L340,368L340,369L336,367L333,363L332,363L330,363L327,363L326,363L325,362L323,360L322,360L321,360L321,362L320,363L319,364L320,366L320,367L319,368L318,370L313,375L312,376L310,378L309,378L307,379L306,379L303,379L302,379L301,379L299,376L297,375L296,374L295,375L292,383L291,384L291,385L289,387L287,387L286,387L285,388L284,388L284,389L283,390L275,394L273,396L272,397L271,399L271,399Z M361,172L360,171L359,171L358,170L357,170L357,171L358,171L359,172L360,172L362,173Z " data-fips="EG02" data-hasc="EG.BA" data-name="Al Bahr al Ahmar" data-postal="BA" data-varname="Mar Rojo|Mar Vermelho|Mer Rouge|Red Sea"/><path d="M369,160L367,159L369,158L369,157L370,156L371,156L371,155L371,154L372,153L373,152L373,151L375,151L375,150L375,145L375,144L375,143L374,142L373,141L374,139L373,138L373,137L374,135L374,134L375,132L375,131L376,131L377,129L377,128L377,126L379,124L379,122L380,121L380,120L380,118L380,117L380,116L380,115L381,114L381,111L381,110L382,109L382,108L382,107L382,105L382,104L382,103L383,101L383,101L383,98L384,97L383,96L384,95L385,94L386,92L386,91L387,90L388,89L388,88L373,87L369,85L365,83L357,81L348,76L325,73L316,73L308,79L309,79L310,80L310,81L310,82L310,84L310,85L310,86L311,87L311,89L311,91L311,92L312,91L312,92L314,93L315,95L315,96L316,98L317,99L317,101L319,102L320,102L322,104L322,105L323,106L324,107L325,108L326,109L327,110L328,110L328,111L328,113L328,114L328,115L328,117L329,118L329,119L330,120L330,121L329,124L330,126L330,127L331,128L332,128L332,129L333,130L333,131L336,133L337,134L338,136L343,140L345,141L346,144L347,144L347,146L348,147L349,148L350,149L350,150L351,150L352,151L354,152L355,153L356,153L359,155L361,158L362,159L366,159L367,160L367,160L369,161Z " data-fips="EG26" data-hasc="EG.JS" data-name="Janub Sina'" data-postal="JS" data-varname="Janub Sina|Sina al-Janubiyah|Sina' al-Janubiyah|Sinai al Janubia|South Sinai|Sud Sinai"/><path d="M388,88L387,86L387,85L387,82L386,78L382,70L382,67L376,53L374,51L374,50L374,49L374,48L373,46L373,45L372,41L366,27L363,19L363,19L362,16L361,15L356,18L349,21L342,23L341,23L339,23L336,23L335,22L334,23L333,24L329,24L330,24L330,25L329,25L328,25L326,26L325,26L324,27L324,25L324,24L325,23L323,21L322,21L321,22L320,23L319,24L318,24L319,25L320,24L321,24L321,25L320,26L319,26L318,25L317,24L316,25L315,25L313,26L310,27L309,27L308,27L311,26L313,25L314,25L316,23L314,24L311,26L308,26L307,27L305,26L307,44L307,48L308,49L311,55L314,63L315,72L315,73L316,73L325,73L348,76L357,81L365,83L369,85L373,87L388,88Z " data-fips="EG32" data-hasc="EG.SS" data-name="Shamal Sina'" data-postal="SS" data-varname="Shamal Sina|Nord Sina|North Sinai|Sina ash-Shamaliyah|Sinai ash Shamaliya"/></g></svg>