<?xml version="1.0" ?><!DOCTYPE svg  PUBLIC '-//W3C//DTD SVG 1.1//EN'  'http://www.w3.org/Graphics/SVG/1.1/DTD/svg11.dtd'><svg enable_background="new 0 0 500 401" height="401px" style="stroke-linejoin: round; stroke:#000; fill:#f6f3f0;" version="1.1" viewBox="0 0 500 401" width="500px" xmlns="http://www.w3.org/2000/svg" xmlns:xlink="http://www.w3.org/1999/xlink"><defs><style type="text/css"><![CDATA[path { fill-rule: evenodd; }
#context path { fill: #eee; stroke: #bbb; } ]]></style></defs><metadata><views><view h="401" padding="0" w="500"><proj id="laea" lat0="16.045" lon0="38.219"/><bbox h="69.11" w="80.45" x="978.61" y="975.81"/><llbbox lat0="-90" lat1="90" lon0="-180" lon1="180"/></view></views></metadata><g id="admin1"><path d="M96,277L119,223L120,224L121,225L122,228L123,228L123,229L124,231L125,231L126,233L127,234L134,237L135,237L139,236L141,236L142,237L143,238L143,239L144,237L144,234L141,230L141,227L141,226L141,225L142,222L143,219L144,218L145,217L147,216L149,215L150,214L151,213L153,210L155,207L157,207L158,206L159,206L165,205L171,204L174,203L176,202L180,203L180,174L173,175L161,175L158,174L157,173L155,170L153,167L151,165L148,163L145,162L144,162L142,163L138,164L137,165L135,165L134,165L127,160L123,158L121,158L119,157L117,157L115,157L114,156L112,155L109,154L107,153L105,153L100,154L96,154L94,153L94,152L93,151L92,150L90,149L88,148L86,147L85,146L84,143L82,139L79,137L75,134L72,133L65,131L64,131L62,129L61,126L60,125L59,124L58,123L58,121L57,117L57,115L56,114L55,112L53,112L53,113L53,114L53,115L53,117L53,118L55,121L55,123L54,125L51,128L50,129L41,154L39,157L36,161L35,162L31,176L31,179L32,182L30,183L28,186L25,196L24,198L18,203L18,204L18,206L20,228L24,266L26,266L26,265L27,264L28,264L30,264L31,263L33,263L34,262L38,262L40,261L44,261L47,262L51,263L54,264L56,266L57,266L58,266L59,265L61,265L62,265L63,264L63,263L64,261L64,260L64,258L64,257L66,255L67,254L70,253L75,253L77,253L79,254L80,255L83,259L84,260L84,261L85,264L86,264L89,267L89,268L89,270L91,271L92,272L93,273L93,275L93,276L94,277L95,278Z " data-fips="ER04" data-hasc="ER.GB" data-name="Gash Barka" data-postal="GB" data-varname="Gash-Barka|al-Qash wa-Barka|Debubawi Gash Barka"/><path d="M215,203L217,202L215,200L209,196L205,193L201,189L195,179L193,176L192,173L188,174L185,175L184,175L183,174L181,174L180,174L180,203Z " data-fips="ER05" data-hasc="ER.AN" data-name="Anseba" data-postal="AN" data-varname="Ansaba|A'Nseba"/><path d="M289,259L294,251L298,243L304,234L305,232L305,229L305,226L303,219L303,217L303,216L302,215L302,214L300,213L299,212L299,213L300,214L299,215L298,216L297,215L296,215L296,214L294,213L293,214L293,216L291,215L291,214L291,213L290,214L289,216L288,217L286,218L285,219L284,220L283,218L282,217L276,216L275,215L274,213L275,211L274,211L273,209L272,209L271,208L271,206L270,205L270,203L269,201L267,200L266,199L267,198L267,197L266,197L267,194L268,193L269,192L269,190L269,189L268,188L267,187L265,187L264,186L257,181L256,180L255,178L254,179L253,181L252,180L251,182L250,182L249,184L248,185L248,187L249,189L248,193L249,194L250,195L251,194L252,195L253,198L254,200L254,201L252,204L252,204L252,205L252,207L251,208L249,208L247,208L247,207L246,208L244,207L244,206L243,205L243,199L244,195L244,194L243,193L243,192L242,191L241,190L237,178L235,176L234,175L233,175L232,175L230,177L229,177L227,177L226,176L226,174L225,171L227,171L228,170L228,169L227,168L226,170L225,169L226,168L226,167L228,167L226,165L225,164L225,161L224,160L224,158L225,157L224,155L221,154L220,153L216,150L215,148L212,138L211,135L211,134L210,131L208,121L208,120L209,119L209,117L208,116L208,114L208,111L207,109L207,108L206,105L205,104L206,103L205,99L206,98L206,96L205,94L204,91L205,92L203,86L201,81L201,80L200,77L199,75L199,73L199,70L198,69L196,65L196,62L195,60L194,58L192,56L191,53L192,51L191,49L190,43L185,35L180,24L174,14L173,12L172,10L171,8L169,4L168,2L167,0L158,8L156,11L152,22L150,25L148,26L145,28L144,29L143,30L144,32L143,33L142,34L141,34L139,34L138,33L137,32L135,33L134,34L134,35L134,36L133,37L132,37L131,36L131,34L131,33L129,33L127,33L127,34L128,42L127,71L126,75L126,76L125,78L126,79L127,81L128,82L129,84L130,85L130,87L129,92L129,94L129,96L131,97L132,98L148,102L149,103L149,104L150,106L151,108L152,109L153,113L154,115L155,117L157,118L159,120L161,124L162,126L162,128L162,130L162,131L162,132L161,133L160,135L160,136L160,142L161,144L163,146L166,149L169,150L172,151L182,152L183,153L184,154L190,164L192,173L193,176L195,179L201,189L205,193L209,196L215,200L220,205L221,208L241,243L245,249L246,249L248,249L250,250L252,251L256,254L257,254L258,255L259,254L261,252L263,252L267,253L270,252L271,252L278,253L281,254L283,256L289,261Z M285,172L288,172L289,172L291,173L292,172L292,171L291,168L289,167L287,166L286,166L286,164L285,164L283,163L282,163L280,163L278,165L279,165L281,166L280,167L279,169L275,168L274,167L273,165L273,164L273,163L273,157L273,156L271,156L271,157L270,158L270,156L270,156L271,154L270,153L268,152L265,151L262,150L260,150L262,151L265,152L265,153L266,154L265,155L263,155L262,156L262,157L263,158L262,159L260,157L258,158L258,160L259,161L262,161L264,161L266,162L268,164L269,166L266,167L265,167L263,166L261,166L261,165L260,164L259,164L261,169L262,170L264,170L265,170L268,171L269,172L271,171L272,170L273,171L274,171L278,171L279,171L282,172L283,173Z M271,143L271,143L270,142L269,141L269,140L270,139L271,138L271,137L270,136L268,136L267,135L266,136L266,137L266,138L264,138L263,139L263,140L263,142L266,142L268,143L270,144Z " data-fips="ER06" data-hasc="ER.DU" data-name="Debub" data-postal="DU" data-varname="Southern|al-Janubiyah"/><path d="M180,174L181,174L183,174L184,175L185,175L188,174L192,173L190,164L184,154L183,153L182,152L172,151L169,150L166,149L163,146L161,144L160,142L160,136L160,135L161,133L162,132L162,131L162,130L162,128L162,126L161,124L159,120L157,118L155,117L154,115L153,113L152,109L151,108L150,106L149,104L149,103L148,102L132,98L131,97L129,96L129,94L129,92L130,87L130,85L129,84L128,82L127,81L126,79L125,78L126,76L126,75L127,71L128,42L127,34L127,33L123,36L121,39L119,40L118,40L116,40L114,38L113,38L110,39L107,44L105,46L102,46L93,49L92,50L93,53L93,55L92,58L92,59L90,62L90,63L90,65L86,69L79,68L77,68L74,70L72,70L71,70L67,70L63,68L62,68L60,67L59,67L58,66L56,67L56,68L58,70L58,71L58,73L56,75L57,77L58,78L58,82L58,83L57,84L57,88L55,92L55,93L52,95L51,96L51,97L51,98L51,101L50,102L50,106L50,108L51,109L52,110L53,112L55,112L56,114L57,115L57,117L58,121L58,123L59,124L60,125L61,126L62,129L64,131L65,131L72,133L75,134L79,137L82,139L84,143L85,146L86,147L88,148L90,149L92,150L93,151L94,152L94,153L96,154L100,154L105,153L107,153L109,154L112,155L114,156L115,157L117,157L119,157L121,158L123,158L127,160L134,165L135,165L137,165L138,164L142,163L144,162L145,162L148,163L151,165L153,167L155,170L157,173L158,174L161,175L173,175Z " data-fips="ER01" data-hasc="ER.SK" data-name="Semenawi Keyih Bahri" data-postal="SK" data-varname="Northern Red Sea|al-Bahru al-Ahmaru ash-Shimali|Semenawi Keyh Bahri|Semien-Keih-Bahri"/><path d="M157,256L160,256L165,255L168,254L170,253L172,252L174,252L175,252L176,253L177,252L179,252L183,250L186,250L187,249L189,247L192,246L194,245L195,244L195,242L195,241L195,240L196,239L198,239L201,240L203,241L204,242L205,244L206,245L208,251L210,254L211,254L213,251L214,251L215,250L219,251L220,251L226,249L229,248L230,246L231,245L232,245L233,245L234,246L236,248L236,249L240,250L242,250L245,249L241,243L221,208L220,205L217,202L215,203L180,203L176,202L174,203L171,204L165,205L159,206L158,206L157,207L155,207L153,210L151,213L150,214L149,215L147,216L145,217L144,218L143,219L142,222L141,225L141,226L141,227L141,230L144,234L144,237L143,239L143,239L144,241L145,242L146,243L147,244L147,247L148,248L149,249L150,250L154,253L155,255L156,256Z " data-fips="ER02" data-hasc="ER.MA" data-name="Maekel" data-postal="MA" data-varname="Central|al-Markaziyah|Maakel|Maekelay|Ma'kil|Makelay"/><path d="M453,398L455,397L457,395L460,394L460,392L459,390L459,388L462,385L463,381L465,380L467,380L482,373L480,370L480,369L480,366L479,365L477,364L476,362L475,362L473,360L473,361L473,363L473,363L473,364L472,366L471,366L469,368L468,368L469,367L466,366L464,366L463,365L462,363L461,363L459,364L458,363L457,362L457,360L457,359L456,356L455,352L454,351L454,350L453,350L452,349L450,349L449,348L447,344L443,341L443,340L442,339L441,339L441,337L440,337L439,338L439,339L438,340L437,340L434,340L432,339L430,337L429,334L428,332L427,324L427,322L425,321L424,320L424,318L424,315L423,313L422,312L421,312L418,308L416,307L415,308L416,308L417,308L418,309L418,311L417,311L418,312L419,314L418,315L418,314L416,312L415,310L414,309L413,308L411,308L410,308L409,305L408,305L408,304L406,302L405,301L402,298L402,297L402,296L402,295L400,294L397,292L396,292L393,292L392,292L391,291L389,288L388,288L385,289L380,288L380,287L379,284L376,279L375,278L374,277L372,275L371,275L370,273L369,271L369,269L368,268L366,266L363,264L362,262L361,259L360,257L359,256L358,256L356,255L356,254L355,251L354,249L353,247L351,246L347,243L347,242L345,240L344,238L336,237L331,236L329,236L327,234L325,233L321,234L320,233L320,234L318,234L317,235L317,233L316,233L314,231L314,230L314,228L314,225L313,225L311,221L312,221L311,220L309,220L309,222L307,221L307,220L307,217L306,217L304,216L303,217L303,219L305,226L305,229L305,232L304,234L298,243L294,251L289,259L289,261L293,265L297,267L305,271L307,271L313,272L318,274L322,277L337,293L347,311L349,313L371,327L384,337L386,340L389,343L391,346L397,358L400,363L406,367L410,368L414,370L417,373L422,381L427,388L431,392L434,388L436,388L437,388L441,390L452,399Z " data-fips="DJ04" data-hasc="ER.DK" data-name="Debubawi Keyih Bahri" data-postal="DK" data-varname="Southern Red Sea|Debubawi Keyh Bahri|Debub-Keih-Bahri|al-Bahru al-Ahmaru al-Janubi"/></g></svg>