<?xml version="1.0" ?><!DOCTYPE svg  PUBLIC '-//W3C//DTD SVG 1.1//EN'  'http://www.w3.org/Graphics/SVG/1.1/DTD/svg11.dtd'><svg enable_background="new 0 0 500 401" height="401px" style="stroke-linejoin: round; stroke:#000; fill:#f6f3f0;" version="1.1" viewBox="0 0 500 401" width="500px" xmlns="http://www.w3.org/2000/svg" xmlns:xlink="http://www.w3.org/1999/xlink"><defs><style type="text/css"><![CDATA[path { fill-rule: evenodd; }
#context path { fill: #eee; stroke: #bbb; } ]]></style></defs><metadata><views><view h="401" padding="0" w="500"><proj id="laea" lat0="8.626" lon0="39.616"/><bbox h="141.63" w="183.06" x="919.04" y="922.8"/><llbbox lat0="-90" lat1="90" lon0="-180" lon1="180"/></view></views></metadata><g id="admin1"><path d="M220,211L221,211L225,209L226,209L226,208L226,201L228,200L228,198L229,197L230,195L230,194L229,193L228,192L227,191L228,190L230,189L230,187L230,186L230,184L229,181L229,179L230,179L233,180L234,180L235,178L234,177L236,175L237,173L237,172L236,171L234,170L234,168L234,167L236,167L237,167L238,166L238,165L238,163L239,161L239,156L240,155L240,154L239,151L239,149L239,148L238,146L238,144L239,142L239,140L238,139L240,136L240,134L240,133L240,132L240,130L238,127L237,126L236,125L236,123L236,120L234,117L233,115L232,114L231,113L230,111L230,109L230,106L229,105L228,103L228,102L228,101L227,99L227,98L226,96L226,95L226,94L227,92L225,93L224,93L222,93L219,95L219,93L218,92L214,92L213,93L210,93L209,92L209,90L209,86L207,83L207,82L207,81L210,76L210,74L209,73L209,72L209,71L209,70L208,69L204,69L202,69L201,69L201,68L201,66L201,65L200,64L192,56L191,56L191,54L190,53L187,53L186,53L183,54L184,51L184,50L182,50L182,51L181,52L177,52L175,52L174,52L172,52L171,53L170,54L169,53L165,51L161,50L159,51L158,54L157,55L151,57L145,57L144,56L143,55L142,55L140,55L137,56L136,57L132,56L131,55L129,54L125,50L121,49L120,48L117,43L116,47L115,49L115,50L110,57L107,68L107,70L106,71L106,72L107,73L107,75L106,78L105,79L104,79L103,78L93,80L92,81L91,82L91,83L89,83L83,93L83,95L82,96L81,97L80,99L80,101L79,102L77,104L77,104L78,104L79,108L80,109L81,109L82,110L84,109L86,109L87,108L88,108L93,104L94,101L96,101L97,102L98,102L100,103L101,103L102,105L103,106L104,108L105,110L106,112L107,113L108,113L109,111L111,110L112,109L113,110L113,112L113,115L114,117L116,120L115,122L116,123L118,125L118,126L118,127L117,128L117,129L117,131L117,132L118,134L117,135L116,136L114,138L113,139L113,141L112,142L112,144L113,144L114,144L112,149L112,151L113,152L114,153L114,154L116,155L118,154L119,155L119,157L120,157L121,157L125,158L127,158L128,158L130,159L131,159L136,160L137,161L138,162L140,162L141,163L140,164L140,165L140,166L142,167L143,167L144,168L144,169L145,170L146,169L146,168L148,168L149,169L152,171L153,171L154,172L154,173L158,176L160,175L161,175L163,174L164,173L165,173L167,172L172,169L174,168L175,167L177,166L178,166L180,166L181,166L182,164L182,163L183,162L184,158L192,158L196,159L196,160L194,167L192,169L191,169L189,169L190,170L192,171L193,172L194,173L194,175L194,176L195,178L196,179L198,180L204,181L208,183L210,185L211,188L212,189L214,189L215,190L216,191L217,193L215,193L213,194L211,194L209,194L209,195L209,197L211,198L213,199L213,200L213,201L210,206L210,208L210,209L211,212L213,212L215,210L216,210L217,212L219,212Z " data-fips="ET46" data-hasc="ET.AM" data-name="Amhara" data-postal="AM" data-varname="Amara"/><path d="M222,93L224,93L225,93L227,92L227,92L227,90L227,89L227,87L227,86L227,84L228,83L229,82L230,81L230,79L230,78L230,76L229,75L228,74L227,74L226,73L226,71L226,70L227,68L227,67L227,66L226,62L225,62L225,61L225,57L225,56L225,53L226,50L227,51L228,50L228,49L228,47L227,46L227,45L227,43L228,40L228,38L227,36L227,34L227,33L225,33L225,32L226,31L225,31L224,30L225,28L226,25L224,26L223,25L224,24L225,23L228,23L229,23L232,24L233,23L233,22L234,21L232,21L231,22L230,21L228,20L227,19L226,19L225,19L222,19L220,18L219,17L218,17L217,18L216,19L212,20L211,19L209,20L208,21L207,20L206,17L205,16L204,15L203,14L201,14L201,15L201,16L200,17L198,18L197,19L195,19L193,20L191,20L190,20L189,21L188,21L187,21L184,22L183,22L182,21L181,20L179,19L178,18L178,16L177,15L176,14L176,13L175,13L172,13L169,11L168,10L167,9L166,8L166,7L165,6L154,32L153,31L153,30L152,29L151,29L150,27L149,25L148,24L148,23L146,21L145,20L144,20L142,20L140,21L139,22L139,23L139,25L138,26L137,26L136,27L135,26L134,25L133,25L131,24L130,24L127,24L126,25L124,25L123,25L122,25L121,26L120,27L117,36L117,38L118,40L118,41L117,43L120,48L121,49L125,50L129,54L131,55L132,56L136,57L137,56L140,55L142,55L143,55L144,56L145,57L151,57L157,55L158,54L159,51L161,50L165,51L169,53L170,54L171,53L172,52L174,52L175,52L177,52L181,52L182,51L182,50L184,50L184,51L183,54L186,53L187,53L190,53L191,54L191,56L192,56L200,64L201,65L201,66L201,68L201,69L202,69L204,69L208,69L209,70L209,71L209,72L209,73L210,74L210,76L207,81L207,82L207,83L209,86L209,90L209,92L210,93L213,93L214,92L218,92L219,93L219,95Z " data-fips="ET06" data-hasc="ET.TI" data-name="Tigray" data-postal="TI" data-varname="Tegr?|Tigrai|Tigre|Tigr?|Tigr"/><path d="M238,208L239,205L240,205L242,204L242,202L243,201L245,199L247,195L248,194L249,193L250,192L251,191L254,191L255,191L256,190L257,189L257,187L258,185L258,183L261,179L263,177L267,173L267,172L265,171L265,169L270,150L270,148L270,147L271,146L274,143L275,141L275,139L277,138L290,138L291,138L292,137L292,137L293,136L293,134L293,128L292,124L292,120L292,119L293,116L293,113L294,112L295,111L296,110L297,110L298,109L302,103L303,100L304,99L305,98L309,92L310,90L312,87L311,85L308,82L306,78L304,77L302,76L300,75L298,73L296,71L293,65L292,64L291,62L290,61L284,56L274,50L273,49L268,40L261,32L259,31L257,30L253,29L249,28L247,27L243,22L241,21L240,21L237,20L236,20L235,21L234,21L233,22L233,23L232,24L229,23L228,23L225,23L224,24L223,25L224,26L226,25L225,28L224,30L225,31L226,31L225,32L225,33L227,33L227,34L227,36L228,38L228,40L227,43L227,45L227,46L228,47L228,49L228,50L227,51L226,50L225,53L225,56L225,57L225,61L225,62L226,62L227,66L227,67L227,68L226,70L226,71L226,73L227,74L228,74L229,75L230,76L230,78L230,79L230,81L229,82L228,83L227,84L227,86L227,87L227,89L227,90L227,92L227,92L226,94L226,95L226,96L227,98L227,99L228,101L228,102L228,103L229,105L230,106L230,109L230,111L231,113L232,114L233,115L234,117L236,120L236,123L236,125L237,126L238,127L240,130L240,132L240,133L240,134L240,136L238,139L239,140L239,142L238,144L238,146L239,148L239,149L239,151L240,154L240,155L239,156L239,161L238,163L238,165L238,166L237,167L236,167L234,167L234,168L234,170L236,171L237,172L237,173L236,175L234,177L235,178L234,180L233,180L230,179L229,179L229,181L230,184L230,186L230,187L230,189L228,190L227,191L228,192L229,193L230,194L230,195L229,197L228,198L228,200L230,199L231,200L231,202L232,203L232,204L234,204L235,205L235,207L235,209L235,210Z " data-fips="ET26" data-hasc="ET.AF" data-name="Afar" data-postal="AF" data-varname=""/><path d="M122,358L123,357L124,356L124,355L125,354L127,351L129,348L130,346L130,343L129,342L129,340L131,335L131,334L132,333L134,332L137,332L141,332L143,332L145,333L147,333L149,333L152,331L153,330L155,330L156,329L157,329L159,329L161,330L162,331L164,331L164,329L164,327L164,325L165,324L165,322L165,321L165,318L166,317L167,317L170,315L170,314L168,313L167,312L167,310L166,308L165,307L162,305L160,305L160,304L160,301L160,300L161,298L161,297L162,295L162,294L162,292L160,291L160,290L161,288L163,286L164,285L165,286L166,286L168,286L169,287L170,288L172,289L173,290L174,290L176,290L177,291L177,292L176,294L173,295L173,297L173,299L172,300L171,299L170,300L170,302L174,309L175,310L176,310L178,310L180,307L178,306L177,305L178,304L179,302L180,300L181,299L182,297L181,294L181,293L182,291L183,291L185,291L186,291L188,291L190,292L191,292L193,292L193,293L196,294L197,295L198,297L198,298L199,299L200,300L202,300L205,300L204,299L204,297L204,296L205,294L205,293L204,290L204,288L203,287L201,285L199,284L198,283L195,283L191,280L189,280L188,279L188,278L189,273L189,271L188,269L186,268L185,269L183,268L181,267L180,267L178,266L177,268L175,270L172,270L171,270L170,270L169,268L170,267L170,266L170,265L171,264L176,261L177,259L178,257L179,256L180,255L181,254L181,253L181,251L181,248L182,247L182,246L184,245L184,243L186,241L187,240L187,238L188,237L187,235L187,234L187,232L185,230L188,230L188,233L189,234L190,235L190,233L190,232L190,229L189,228L189,226L189,224L187,223L185,223L184,223L183,224L182,225L182,228L181,229L179,229L178,229L178,228L177,225L176,225L175,224L173,224L169,225L162,227L159,226L158,226L157,226L155,226L154,225L153,223L151,224L150,225L150,226L150,228L150,229L151,229L154,231L154,233L154,237L154,238L154,239L153,239L152,239L150,237L149,237L147,239L148,240L148,242L148,243L147,244L147,248L148,249L148,252L147,256L147,258L146,259L145,260L141,261L139,263L138,263L137,264L135,263L132,264L131,264L129,264L128,263L126,263L120,259L117,258L116,257L114,257L113,257L112,256L111,256L109,255L108,255L106,254L105,253L102,252L102,250L102,249L101,248L100,246L99,245L98,245L96,243L96,242L97,240L97,239L96,235L95,235L93,235L92,235L91,236L92,238L93,239L94,240L93,241L92,242L90,242L89,243L88,243L87,244L85,243L85,241L83,241L82,241L81,242L80,243L79,243L78,245L77,246L76,247L75,248L75,250L76,253L76,253L76,255L79,257L79,258L78,260L78,262L78,263L78,265L78,266L77,267L74,266L72,267L70,266L69,265L68,266L66,266L65,267L63,267L62,267L61,267L60,268L59,269L58,269L56,270L55,270L54,270L53,270L52,270L51,269L50,268L49,268L48,268L47,268L44,269L43,268L42,267L40,267L40,268L40,269L41,269L42,271L43,272L48,273L50,274L51,275L51,277L50,278L51,279L52,279L53,279L54,280L57,282L58,283L58,284L58,286L59,288L60,290L61,293L61,296L62,298L63,300L64,301L65,302L65,304L65,305L65,307L66,308L65,309L66,310L68,314L69,315L70,317L71,318L74,320L75,322L75,323L75,324L76,326L77,327L78,326L80,325L81,324L83,324L84,325L85,326L87,326L88,326L89,326L91,327L93,328L92,329L92,331L93,333L93,334L91,336L91,343L92,345L92,347L97,352L97,353L97,355L98,356L99,357L101,357L106,357L108,357L109,358L120,358L121,358Z " data-fips="ET54" data-hasc="ET.SN" data-name="Southern Nations, Nationalities and Peoples" data-postal="SN" data-varname="Southern Nations, Nationalities, and People's Region"/><path d="M55,270L56,270L58,269L59,269L60,268L61,267L62,267L63,267L65,267L66,266L68,266L69,265L70,266L72,267L74,266L77,267L78,266L78,265L78,263L78,262L78,260L79,258L79,257L76,255L76,253L76,253L76,253L75,255L73,255L72,255L70,255L71,253L71,252L68,251L67,250L67,247L66,246L64,245L63,244L63,243L63,241L63,240L65,236L64,235L65,234L67,233L69,232L70,232L69,231L67,231L65,231L63,231L61,231L60,230L59,228L57,228L56,227L55,225L54,224L50,222L49,221L46,218L44,217L43,216L41,217L39,217L38,216L37,218L36,219L33,222L32,222L30,222L28,222L27,223L25,224L24,224L23,223L22,222L21,221L20,221L19,221L17,220L17,221L14,221L13,222L8,221L7,222L6,223L6,224L6,225L6,226L6,227L7,228L7,229L6,230L7,231L6,232L5,233L4,233L4,234L2,236L1,237L1,238L0,239L0,239L1,242L2,243L3,243L5,243L6,243L7,243L9,244L10,245L12,246L13,245L15,245L17,245L17,246L18,247L19,247L22,247L23,248L24,248L25,249L26,250L28,251L29,252L30,252L34,257L34,258L34,259L35,262L36,263L37,264L38,265L39,265L40,266L40,267L42,267L43,268L44,269L47,268L48,268L49,268L50,268L51,269L52,270L53,270L54,270Z " data-fips="ET49" data-hasc="ET.GA" data-name="Gambela Peoples" data-postal="GA" data-varname="Gambella|Gambela Hizboch"/><path d="M198,389L200,389L201,389L203,389L204,388L206,387L209,386L210,385L212,383L216,376L217,374L217,372L217,371L218,368L219,364L220,363L226,350L226,348L226,344L227,341L228,339L229,336L231,331L234,326L236,326L237,326L238,327L241,327L243,326L244,326L245,326L246,326L249,326L251,325L252,325L258,320L263,317L265,316L264,313L263,311L263,308L263,302L263,299L264,297L263,296L263,294L263,293L263,290L265,287L267,285L268,283L270,282L272,282L273,283L275,284L279,286L281,287L283,287L288,293L289,292L291,290L292,288L293,287L294,286L296,286L297,287L299,287L300,286L300,285L301,284L302,283L302,281L304,278L304,277L303,276L304,275L304,274L305,273L306,272L306,271L307,270L307,268L308,267L308,266L308,264L308,262L297,257L297,256L297,254L297,253L297,252L299,248L299,246L299,245L298,244L298,242L298,234L299,232L299,230L301,228L302,226L302,223L303,221L304,220L307,217L310,217L311,220L315,220L317,221L318,222L319,228L320,230L321,231L322,233L323,233L324,231L325,227L327,225L331,224L331,222L331,220L331,219L330,217L329,215L328,214L329,211L328,209L326,207L324,204L322,201L321,199L321,198L320,197L319,193L319,192L317,188L315,186L314,185L313,185L313,182L313,180L311,180L310,181L309,182L306,182L305,183L305,184L305,186L304,187L303,188L300,187L298,188L297,188L296,188L295,188L293,188L292,188L291,188L289,188L288,187L287,187L285,187L284,188L283,189L280,188L278,187L276,187L274,188L273,189L271,190L270,191L268,191L267,192L266,192L265,193L264,194L262,194L261,193L260,192L261,191L263,191L264,191L264,190L263,189L261,189L260,189L257,189L256,190L255,191L254,191L251,191L250,192L249,193L248,194L247,195L245,199L243,201L242,202L242,204L240,205L239,205L238,208L235,210L235,209L235,207L235,205L234,204L232,204L232,203L231,202L231,200L230,199L228,200L226,201L226,208L226,209L225,209L221,211L220,211L219,212L217,212L216,210L215,210L213,212L211,212L210,209L210,208L210,206L213,201L213,200L213,199L211,198L209,197L209,195L209,194L211,194L213,194L215,193L217,193L216,191L215,190L214,189L212,189L211,188L210,185L208,183L204,181L198,180L196,179L195,178L194,176L194,175L194,173L193,172L192,171L190,170L189,169L191,169L192,169L194,167L196,160L196,159L192,158L184,158L183,162L182,163L182,164L181,166L180,166L178,166L177,166L175,167L174,168L172,169L167,172L165,173L164,173L163,174L161,175L160,175L158,176L154,173L154,172L153,171L152,171L149,169L148,168L146,168L146,169L145,170L144,169L144,168L143,167L142,167L140,166L140,165L140,164L141,163L140,162L138,162L137,161L136,160L135,162L135,163L134,163L129,162L128,161L126,160L122,162L121,163L120,163L119,162L120,159L118,159L117,160L115,162L113,164L112,166L109,168L108,168L106,169L105,168L106,174L106,178L106,180L105,181L106,182L109,185L110,186L110,188L109,190L108,193L103,199L102,196L100,196L99,193L97,192L95,192L94,192L94,189L93,188L92,187L91,187L89,186L85,180L78,173L76,172L75,172L74,172L73,172L69,172L69,170L68,169L64,169L64,170L65,171L63,177L61,179L58,183L56,183L54,182L53,181L52,181L50,182L49,188L48,194L47,195L46,196L45,197L39,196L37,196L38,216L39,217L41,217L43,216L44,217L46,218L49,221L50,222L54,224L55,225L56,227L57,228L59,228L60,230L61,231L63,231L65,231L67,231L69,231L70,232L69,232L67,233L65,234L64,235L65,236L63,240L63,241L63,243L63,244L64,245L66,246L67,247L67,250L68,251L71,252L71,253L70,255L72,255L73,255L75,255L76,253L76,253L75,250L75,248L76,247L77,246L78,245L79,243L80,243L81,242L82,241L83,241L85,241L85,243L87,244L88,243L89,243L90,242L92,242L93,241L94,240L93,239L92,238L91,236L92,235L93,235L95,235L96,235L97,239L97,240L96,242L96,243L98,245L99,245L100,246L101,248L102,249L102,250L102,252L105,253L106,254L108,255L109,255L111,256L112,256L113,257L114,257L116,257L117,258L120,259L126,263L128,263L129,264L131,264L132,264L135,263L137,264L138,263L139,263L141,261L145,260L146,259L147,258L147,256L148,252L148,249L147,248L147,244L148,243L148,242L148,240L147,239L149,237L150,237L152,239L153,239L154,239L154,238L154,237L154,233L154,231L151,229L150,229L150,228L150,226L150,225L151,224L153,223L154,225L155,226L157,226L158,226L159,226L162,227L169,225L173,224L175,224L176,225L177,225L178,228L178,229L179,229L181,229L182,228L182,225L183,224L184,223L185,223L187,223L189,224L189,226L189,228L190,229L190,232L190,233L190,235L189,234L188,233L188,230L185,230L187,232L187,234L187,235L188,237L187,238L187,240L186,241L184,243L184,245L182,246L182,247L181,248L181,251L181,253L181,254L180,255L179,256L178,257L177,259L176,261L171,264L170,265L170,266L170,267L169,268L170,270L171,270L172,270L175,270L177,268L178,266L180,267L181,267L183,268L185,269L186,268L188,269L189,271L189,273L188,278L188,279L189,280L191,280L195,283L198,283L199,284L201,285L203,287L204,288L204,290L205,293L205,294L204,296L204,297L204,299L205,300L202,300L200,300L199,299L198,298L198,297L197,295L196,294L193,293L193,292L191,292L190,292L188,291L186,291L185,291L183,291L182,291L181,293L181,294L182,297L181,299L180,300L179,302L178,304L177,305L178,306L180,307L178,310L176,310L175,310L174,309L170,302L170,300L171,299L172,300L173,299L173,297L173,295L176,294L177,292L177,291L176,290L174,290L173,290L172,289L170,288L169,287L168,286L166,286L165,286L164,285L163,286L161,288L160,290L160,291L162,292L162,294L162,295L161,297L161,298L160,300L160,301L160,304L160,305L162,305L165,307L166,308L167,310L167,312L168,313L170,314L170,315L167,317L166,317L165,318L165,321L165,322L165,324L164,325L164,327L164,329L164,331L162,331L161,330L159,329L157,329L156,329L155,330L153,330L152,331L149,333L147,333L145,333L143,332L141,332L137,332L134,332L132,333L131,334L131,335L129,340L129,342L130,343L130,346L129,348L127,351L125,354L124,355L124,356L123,357L122,358L121,358L121,358L128,358L130,359L132,360L134,360L135,361L136,362L137,363L167,383L167,384L168,385L169,385L171,386L172,386L173,386L180,386L182,386L183,386L184,385L185,385L186,386L187,386L189,386L190,387L191,388L197,389Z M109,211L108,211L108,210L108,209L107,209L106,208L105,209L105,209L103,209L102,209L102,209L101,208L101,207L101,206L102,205L102,205L102,204L103,203L104,203L105,203L106,203L106,204L106,204L107,205L108,205L108,206L108,207L108,208L109,209L109,210Z M110,206L109,206L109,205L109,205L109,205L110,204L111,204L112,205L112,206L111,206L111,206Z M194,210L194,210L193,209L191,208L191,208L190,207L190,206L190,206L189,205L189,204L190,203L190,202L191,201L193,201L193,201L194,202L195,201L195,202L196,202L197,202L197,204L198,205L197,205L197,206L197,206L196,206L196,207L196,209L195,209Z M308,198L307,197L306,197L305,197L305,197L304,196L304,196L303,196L302,196L303,194L304,192L305,191L307,192L308,191L309,191L309,192L309,193L309,194L309,195L309,196L309,197Z M115,192L114,192L113,189L114,188L114,187L116,186L116,186L117,188L116,189L116,190L116,192L115,192Z " data-fips="ET44" data-hasc="ET.AA" data-name="Addis Ababa" data-postal="AA" data-varname="Addis Ababa|Addis Abeba|Adis-Abeba|Adis Abeba"/><path d="M109,210L109,209L109,209L108,208L108,207L108,206L108,205L107,205L106,204L106,203L105,203L104,203L103,203L102,204L102,205L102,205L101,206L101,207L101,208L102,209L102,209L103,209L104,209L105,209L106,208L107,209L108,209L108,210L108,211L109,211Z M111,206L112,206L112,205L111,204L110,204L109,205L109,205L109,206L109,206L111,206Z M108,193L109,190L110,188L110,186L109,185L106,182L105,181L106,180L106,178L106,174L105,168L106,169L108,168L109,168L112,166L113,164L115,162L117,160L118,159L120,159L119,162L120,163L121,163L122,162L126,160L128,161L129,162L134,163L135,163L135,162L136,160L131,159L130,159L128,158L127,158L125,158L121,157L120,157L119,157L119,155L118,154L116,155L114,154L114,153L113,152L112,151L112,149L114,144L113,144L112,144L112,142L113,141L113,139L114,138L116,136L117,135L118,134L117,132L117,131L117,129L117,128L118,127L118,126L118,125L116,123L115,122L116,120L114,117L113,115L113,112L113,110L112,109L111,110L109,111L108,113L107,113L106,112L105,110L104,108L103,106L102,105L101,103L100,103L98,102L97,102L96,101L94,101L93,104L88,108L87,108L86,109L84,109L82,110L81,109L80,109L79,108L78,104L77,104L77,104L77,105L76,106L73,107L71,108L70,110L70,111L70,113L70,115L71,116L71,117L67,127L67,128L68,130L68,131L66,138L67,139L67,140L66,141L64,142L64,143L63,144L62,145L61,145L60,146L60,145L60,144L59,143L54,140L51,142L50,143L49,144L47,146L44,150L44,151L44,153L46,160L46,162L45,163L45,164L45,166L44,167L42,168L38,180L37,185L37,188L37,196L39,196L45,197L46,196L47,195L48,194L49,188L50,182L52,181L53,181L54,182L56,183L58,183L61,179L63,177L65,171L64,170L64,169L68,169L69,170L69,172L73,172L74,172L75,172L76,172L78,173L85,180L89,186L91,187L92,187L93,188L94,189L94,192L95,192L97,192L99,193L100,196L102,196L103,199Z M115,192L115,192L116,192L116,190L116,189L117,188L117,187L116,186L116,186L114,187L114,188L113,189L114,192L115,192Z " data-fips="ET47" data-hasc="ET.BE" data-name="Benshangul-Gumaz" data-postal="BE" data-varname="Benishangul|Beni Shangul|Bnishangul|Benishangul-Gumuz|Binshangul Gumuz"/><path d="M195,209L196,209L196,208L196,206L197,206L197,206L197,205L198,205L197,204L196,202L195,202L195,201L193,201L193,201L191,201L190,202L190,203L189,205L189,205L190,206L190,207L191,208L191,208L192,208L193,209L194,210L194,210Z " data-fips="ET44" data-hasc="ET.AA" data-name="Addis Ababa" data-postal="AA" data-varname="Addis Ababa|Addis Abeba|Adis-Abeba|Adis Abeba"/><path d="M218,393L219,392L220,390L221,389L225,384L226,383L227,382L228,378L229,377L238,373L239,372L240,372L245,370L246,370L247,369L258,365L260,363L260,364L262,366L263,366L264,368L265,368L267,369L268,370L270,373L272,374L273,375L275,375L283,374L285,374L288,373L290,374L291,373L293,373L294,374L296,374L297,374L298,373L299,372L299,371L299,370L302,368L304,367L305,366L306,366L311,366L328,363L329,362L331,361L332,360L332,359L333,357L334,355L339,351L353,344L363,341L366,340L367,340L388,341L399,341L400,341L403,338L433,304L449,287L500,235L467,236L465,235L418,220L368,204L367,203L354,192L353,192L352,192L348,190L347,189L347,187L346,185L344,184L344,183L343,183L342,182L341,180L340,175L340,174L338,173L337,173L336,173L335,172L334,170L334,169L333,168L333,167L332,166L329,164L328,163L327,161L326,159L326,156L325,154L323,152L322,151L322,150L322,149L323,148L324,147L324,145L325,144L327,142L327,141L328,140L329,140L330,139L330,137L329,137L328,137L326,137L325,136L324,134L323,134L320,133L319,134L316,135L314,136L312,136L311,136L310,136L309,136L308,137L307,137L305,137L302,137L300,139L298,139L297,138L293,138L292,137L291,138L290,138L277,138L275,139L275,141L274,143L271,146L270,147L270,148L270,150L265,169L265,171L267,172L267,173L263,177L261,179L258,183L258,185L257,187L257,189L260,189L261,189L263,189L264,190L264,191L263,191L261,191L260,192L261,193L262,194L264,194L265,193L266,192L267,192L268,191L270,191L271,190L273,189L274,188L276,187L278,187L280,188L283,189L284,188L285,187L287,187L288,187L289,188L291,188L292,188L291,187L292,184L292,183L294,182L296,181L298,181L300,183L302,183L306,179L307,178L309,178L310,178L313,180L313,182L313,185L314,185L315,186L317,188L319,192L319,193L320,197L321,198L321,199L322,201L324,204L326,207L328,209L329,211L328,214L329,215L330,217L331,219L331,220L331,222L331,224L327,225L325,227L324,231L323,233L322,233L321,231L320,230L319,228L318,222L317,221L315,220L311,220L310,217L307,217L304,220L303,221L302,223L302,226L301,228L299,230L299,232L298,234L298,242L298,244L299,245L299,246L299,248L297,252L297,253L297,254L297,256L297,257L308,262L308,264L308,266L308,267L307,268L307,270L306,271L306,272L305,273L304,274L304,275L303,276L304,277L304,278L302,281L302,283L301,284L300,285L300,286L299,287L297,287L296,286L294,286L293,287L292,288L291,290L289,292L288,293L283,287L281,287L279,286L275,284L273,283L272,282L270,282L268,283L267,285L265,287L263,290L263,293L263,294L263,296L264,297L263,299L263,302L263,308L263,311L264,313L265,316L263,317L258,320L252,325L251,325L249,326L246,326L245,326L244,326L243,326L241,327L238,327L237,326L236,326L234,326L231,331L229,336L228,339L227,341L226,344L226,348L226,350L220,363L219,364L218,368L217,371L217,372L217,374L216,376L212,383L210,385L209,386L206,387L204,388L203,389L206,390L208,391L209,391L211,390L211,391L215,391L217,392L217,393Z " data-fips="ET48" data-hasc="ET.SO" data-name="Somali" data-postal="SO" data-varname="Sumale"/><path d="M293,188L295,188L296,188L297,188L298,188L300,187L303,188L304,187L305,186L305,184L305,183L306,182L309,182L310,181L311,180L310,178L309,178L307,178L306,179L302,183L300,183L298,181L296,181L294,182L292,183L292,184L291,187L292,188Z " data-fips="ET48" data-hasc="ET.DD" data-name="Dire Dawa" data-postal="DD" data-varname=""/><path d="M309,197L309,196L309,195L309,194L309,193L309,192L309,191L308,191L307,192L305,191L304,192L303,195L303,196L303,196L304,196L305,197L306,197L307,197L308,198Z " data-fips="ET50" data-hasc="ET.HA" data-name="Harari People" data-postal="HA" data-varname="Harari|Harer|Hareri Hizb"/></g></svg>