<?xml version="1.0" ?><!DOCTYPE svg  PUBLIC '-//W3C//DTD SVG 1.1//EN'  'http://www.w3.org/Graphics/SVG/1.1/DTD/svg11.dtd'><svg enable_background="new 0 0 500 401" height="401px" style="stroke-linejoin: round; stroke:#000; fill:#f6f3f0;" version="1.1" viewBox="0 0 500 401" width="500px" xmlns="http://www.w3.org/2000/svg" xmlns:xlink="http://www.w3.org/1999/xlink"><defs><style type="text/css"><![CDATA[path { fill-rule: evenodd; }
#context path { fill: #eee; stroke: #bbb; } ]]></style></defs><metadata><views><view h="401" padding="0" w="500"><proj id="laea" lat0="-0.591" lon0="11.797"/><bbox h="76.95" w="71.6" x="961.73" y="964.04"/><llbbox lat0="-90" lat1="90" lon0="-180" lon1="180"/></view></views></metadata><g id="admin1"><path d="M120,175L121,175L124,174L127,172L130,172L131,171L133,171L135,172L136,172L138,171L139,170L140,169L141,168L142,168L143,169L145,169L146,169L147,170L147,173L147,174L148,175L149,175L155,173L163,168L164,167L167,163L171,161L173,160L181,153L182,152L183,152L183,151L183,148L183,148L184,147L186,146L187,144L189,144L189,142L188,141L188,140L189,139L190,138L190,137L191,135L192,135L194,135L196,135L198,134L200,133L201,132L201,131L201,130L201,127L202,126L202,125L202,123L204,118L205,117L205,116L206,115L206,113L208,110L209,109L209,107L210,105L210,100L210,99L208,96L174,108L173,107L173,105L172,104L171,102L171,101L172,98L173,97L174,94L174,84L150,84L148,85L146,86L146,88L145,89L144,89L143,89L142,89L140,87L139,86L138,85L137,85L135,86L135,87L134,85L133,83L133,81L132,81L128,81L126,82L125,83L124,84L122,84L121,84L120,86L120,87L121,88L121,89L121,91L123,97L124,105L124,108L124,109L125,110L124,111L124,114L123,115L122,116L122,118L123,119L121,118L120,116L121,115L121,113L121,111L120,110L120,112L119,112L118,111L117,110L115,110L114,110L114,109L116,109L119,109L120,109L120,108L119,106L118,105L117,105L116,105L115,106L114,106L113,107L112,107L110,107L109,107L107,108L105,108L104,109L103,114L104,115L105,115L106,115L108,115L109,117L110,119L113,126L115,127L115,129L116,130L118,129L119,129L120,128L120,130L121,130L124,132L127,134L130,135L132,136L135,137L140,136L142,136L143,135L144,135L145,136L146,136L149,137L146,138L145,137L143,137L141,137L138,139L136,141L135,140L134,140L132,141L133,142L133,143L136,147L134,145L132,142L129,140L126,141L125,139L123,139L121,141L120,139L119,137L116,137L115,138L115,139L115,142L114,142L114,139L113,138L112,136L111,135L109,135L108,136L107,136L107,135L108,134L107,133L108,130L108,129L108,127L107,126L106,126L103,128L103,130L104,133L106,145L106,146L106,147L106,148L105,149L105,151L106,153L106,154L106,156L105,157L104,160L103,162L103,166L104,167L106,172L106,173L110,178L111,179L113,180L115,181L117,182L121,184Z " data-fips="GB01" data-hasc="GA.ES" data-name="Estuaire" data-postal="ES" data-varname=""/><path d="M295,179L305,174L315,131L316,132L317,133L318,133L323,131L325,132L326,133L326,133L327,134L328,134L330,134L333,135L334,134L337,133L338,133L340,135L341,135L343,135L344,136L346,137L346,138L347,142L348,143L351,145L352,145L354,145L355,146L356,146L370,147L373,146L386,149L387,150L389,151L392,153L397,155L398,153L399,152L398,151L398,149L399,147L398,146L397,146L397,141L396,140L396,138L395,136L396,135L398,131L400,126L402,125L406,122L408,121L408,119L407,118L407,117L409,114L412,114L415,114L419,114L420,113L425,109L425,107L425,104L427,102L430,99L432,96L432,93L432,92L434,91L433,90L432,89L430,88L429,87L428,85L428,84L427,80L426,79L423,78L422,76L421,75L421,70L421,68L420,63L418,63L418,62L416,61L415,60L413,60L412,59L411,60L408,61L407,61L406,60L405,59L404,58L403,58L391,57L390,57L389,59L388,61L387,61L386,61L384,61L383,62L382,62L381,62L380,62L379,63L377,64L375,66L374,66L372,67L370,67L368,66L365,66L364,66L362,67L362,68L361,68L359,68L358,70L357,70L356,70L354,70L352,70L352,70L298,70L298,71L297,73L297,74L296,75L295,78L294,79L293,80L292,82L290,85L290,86L290,87L290,89L290,90L290,91L290,93L289,94L243,126L243,127L249,134L249,137L248,138L246,140L245,141L244,141L235,146L234,147L231,149L231,151L230,153L230,155L231,155L232,155L233,156L233,158L234,161L233,163L234,165L234,167L237,171L238,173L238,174L238,176L238,177L239,180L240,181L243,184L244,185L245,187L246,193Z " data-fips="GB06" data-hasc="GA.OI" data-name="Ogoou-Ivindo" data-postal="OI" data-varname=""/><path d="M243,127L243,126L289,94L290,93L290,91L290,90L290,89L290,87L290,86L290,85L292,82L293,80L294,79L295,78L296,75L297,74L297,73L298,71L298,70L352,70L352,70L352,70L351,69L349,68L351,67L352,66L353,66L354,65L355,65L356,63L355,62L355,61L355,57L354,57L353,53L352,52L351,50L350,50L349,49L348,47L349,45L349,44L349,41L349,40L350,38L350,37L350,36L351,35L351,34L352,32L352,31L351,29L351,28L350,27L351,27L352,25L353,24L353,23L353,21L354,21L355,19L358,18L358,16L359,14L359,10L359,9L359,7L358,5L357,4L356,4L355,3L354,4L353,4L352,3L350,3L348,2L347,3L345,5L342,5L341,4L340,4L338,5L337,4L334,4L333,5L331,5L330,5L329,4L327,4L326,5L325,5L324,5L315,4L314,4L313,3L311,3L310,3L306,2L304,2L300,2L299,2L297,1L296,1L294,2L292,2L290,2L289,3L286,3L283,2L282,2L278,2L274,2L269,3L263,2L260,3L257,2L255,0L253,0L251,1L234,1L234,3L234,5L233,6L233,7L233,9L232,10L233,12L233,85L209,85L174,84L174,94L173,97L172,98L171,101L171,102L172,104L173,105L173,107L174,108L208,96L210,99L210,100L210,105L209,107L209,109L208,110L206,113L206,115L205,116L205,117L204,118L202,123L202,125L202,126L201,127L201,130L201,131L201,132L200,133L249,134Z " data-fips="GB09" data-hasc="GA.WN" data-name="Wouleu-Ntem" data-postal="WN" data-varname="Woleu-Ntem"/><path d="M158,223L160,222L161,221L163,221L164,221L165,222L170,222L171,222L172,221L172,220L173,219L173,218L174,217L175,216L175,215L175,214L175,212L177,211L178,211L181,205L181,204L181,202L182,200L183,199L186,197L187,196L190,193L191,192L191,191L190,189L192,189L193,188L194,188L196,188L197,190L198,190L199,189L200,188L201,188L203,189L204,189L205,188L206,187L207,187L219,186L221,185L223,186L233,193L236,195L240,196L242,197L246,193L245,187L244,185L243,184L240,181L239,180L238,177L238,176L238,174L238,173L237,171L234,167L234,165L233,163L234,161L233,158L233,156L232,155L231,155L230,155L230,153L231,151L231,149L234,147L235,146L244,141L245,141L246,140L248,138L249,137L249,134L198,134L196,135L194,135L192,135L191,135L190,137L190,138L189,139L188,140L188,141L189,142L189,144L187,144L186,146L184,147L183,148L183,148L183,151L183,152L182,152L181,153L173,160L171,161L167,163L164,167L163,168L155,173L149,175L148,175L147,174L147,173L147,170L146,169L145,169L143,169L142,168L141,168L140,169L139,170L138,171L136,172L135,172L133,171L131,171L130,172L127,172L124,174L121,175L120,175L121,184L124,199L127,203L128,203L130,204L131,205L132,206L133,206L136,206L138,206L139,206L141,207L143,210L144,211L143,213L144,216L144,217L144,219L142,222L143,224L147,227L148,228L151,228L152,229Z " data-fips="GB03" data-hasc="GA.MO" data-name="Moyen-Ogoou" data-postal="MO" data-varname=""/><path d="M246,328L251,320L251,318L252,317L252,316L251,314L251,313L249,310L249,309L249,308L249,304L249,303L247,299L248,298L251,298L254,299L255,300L256,301L258,302L259,303L260,303L261,303L263,301L265,300L267,299L270,299L272,298L274,299L276,302L278,303L280,303L305,298L304,296L305,294L306,292L306,290L306,287L306,286L307,284L308,283L305,282L304,280L303,277L303,270L304,269L305,270L305,269L304,268L303,267L298,268L289,265L285,261L284,261L280,255L279,254L278,253L277,251L277,249L278,249L279,247L279,246L279,243L277,240L277,238L277,237L275,235L273,233L270,231L268,229L265,227L263,226L261,222L260,220L260,219L260,217L259,217L258,217L254,220L252,220L251,221L249,221L248,221L247,220L247,219L247,217L247,216L247,214L246,212L244,211L244,209L244,208L244,206L244,202L245,201L247,199L242,197L240,196L236,195L233,193L223,186L221,185L219,186L207,187L206,187L205,188L204,189L203,189L201,188L200,188L199,189L198,190L197,190L196,188L194,188L193,188L192,189L190,189L191,191L191,192L190,193L187,196L186,197L183,199L182,200L181,202L181,204L181,205L178,211L177,211L175,212L175,214L175,215L175,216L174,217L173,218L173,219L172,220L172,221L171,222L170,222L165,222L164,221L163,221L161,221L160,222L158,223L152,229L152,232L151,233L146,238L146,239L146,240L146,242L147,246L147,247L146,249L146,250L144,251L143,252L142,252L141,253L141,254L140,255L140,256L141,257L142,259L143,262L145,264L146,265L148,266L150,266L151,266L154,267L156,268L158,269L160,270L162,271L163,271L167,272L169,272L170,271L171,271L174,272L175,273L177,274L177,276L176,278L177,280L178,281L179,283L180,287L181,288L182,291L183,291L184,292L187,296L214,293L216,293L217,295L218,296L218,297L219,298L224,301L225,303L226,308L228,309L231,313L236,317L242,322L246,328Z " data-fips="GB04" data-hasc="GA.NG" data-name="Ngouni" data-postal="NG" data-varname="N'Gouni"/><path d="M224,387L225,385L227,384L230,382L231,381L233,380L236,379L238,378L240,376L241,374L243,373L246,374L248,375L253,384L254,385L256,385L259,385L261,385L264,386L265,386L267,386L268,385L269,383L270,382L269,380L268,380L266,379L265,378L265,377L265,376L268,367L269,365L272,363L273,362L272,360L270,359L267,358L264,357L262,355L260,354L256,352L256,351L256,346L256,345L257,344L259,343L260,343L262,342L262,341L261,339L256,334L254,331L253,330L251,329L249,330L247,332L246,332L245,331L246,328L242,322L236,317L231,313L228,309L226,308L225,303L224,301L219,298L218,297L218,296L217,295L216,293L214,293L187,296L178,301L175,303L175,304L173,306L174,308L174,309L174,310L173,311L171,312L170,313L169,317L168,318L167,318L148,324L148,324L149,325L159,333L162,335L170,342L178,349L179,350L180,351L181,353L183,356L184,357L186,358L187,359L189,361L189,362L189,363L189,365L189,367L189,368L200,375L208,382L210,384L211,385L211,386L211,388L211,389L212,390L212,391L214,394L220,399Z " data-fips="GB05" data-hasc="GA.NY" data-name="Nyanga" data-postal="NY" data-varname=""/><path d="M167,318L168,318L169,317L170,313L171,312L173,311L174,310L174,309L174,308L173,306L175,304L175,303L178,301L187,296L184,292L183,291L182,291L181,288L180,287L179,283L178,281L177,280L176,278L177,276L177,274L175,273L174,272L171,271L170,271L169,272L167,272L163,271L162,271L160,270L158,269L156,268L154,267L151,266L150,266L148,266L146,265L145,264L143,262L142,259L141,257L140,256L140,255L141,254L141,253L142,252L143,252L144,251L146,250L146,249L147,247L147,246L146,242L146,240L146,239L146,238L151,233L152,232L152,229L151,228L148,228L147,227L143,224L142,222L144,219L144,217L144,216L143,213L144,211L143,210L141,207L139,206L138,206L136,206L133,206L132,206L131,205L130,204L128,203L127,203L124,199L117,182L115,181L113,180L111,179L110,178L106,173L106,172L104,167L103,166L103,170L103,173L101,175L95,181L94,184L90,187L90,189L90,190L91,191L91,192L90,191L90,192L89,193L88,193L87,194L87,196L87,197L85,198L85,200L85,203L84,205L84,204L84,201L84,200L83,199L81,197L80,195L80,194L79,193L78,192L77,192L77,194L78,195L77,195L76,195L75,196L75,197L74,198L74,199L75,200L74,199L73,198L71,197L71,196L71,193L70,191L69,189L68,188L68,188L65,187L65,185L64,186L66,191L68,193L69,197L70,199L72,203L73,205L74,208L75,207L75,208L76,210L76,211L77,211L79,210L78,212L79,213L78,213L77,213L75,211L82,219L83,222L84,226L84,225L84,223L85,224L86,225L86,227L86,228L85,229L85,231L87,232L88,233L90,234L91,235L92,235L93,234L94,235L94,237L94,238L95,239L96,239L99,238L100,237L101,236L102,236L103,237L105,236L105,235L105,232L105,230L105,232L106,234L107,235L106,237L105,238L104,239L102,240L103,241L102,242L101,242L100,243L100,245L102,245L102,247L102,248L102,249L103,250L104,249L106,249L108,249L110,248L111,245L112,244L112,243L113,243L115,244L115,245L115,246L115,248L116,250L117,251L120,252L118,252L112,251L111,252L111,253L110,256L109,254L109,253L110,252L108,252L106,253L105,253L104,254L103,253L102,254L103,255L102,256L101,255L101,247L98,246L95,243L94,243L92,239L91,238L90,237L89,235L88,234L86,234L85,232L84,231L84,229L83,227L83,229L84,230L84,232L85,233L93,244L96,248L98,250L99,253L99,256L100,258L100,261L100,263L100,265L101,266L103,266L104,267L103,269L105,269L106,269L106,268L107,267L107,266L108,265L109,266L111,269L112,269L112,268L112,267L114,267L115,268L117,273L116,275L118,276L119,276L120,277L120,279L120,280L118,281L118,280L117,278L116,277L114,276L113,275L115,274L115,273L114,272L112,271L108,271L109,271L108,269L107,270L105,271L104,270L103,269L101,268L102,269L103,271L104,271L107,274L107,276L108,277L109,279L110,279L112,282L114,283L120,289L121,290L121,296L121,298L122,299L124,301L125,303L127,304L126,303L125,301L124,300L125,301L128,304L129,305L129,303L128,301L129,301L130,301L131,302L131,303L130,304L131,306L132,307L134,306L135,305L137,304L138,304L140,303L141,304L142,307L143,307L145,307L147,307L147,309L146,309L145,310L145,312L147,312L147,311L148,310L148,309L150,309L151,310L151,311L153,312L154,312L153,309L153,308L154,309L155,310L157,310L157,312L158,312L157,314L155,314L154,314L152,314L151,315L150,316L149,317L149,316L147,316L146,316L146,314L145,314L144,315L144,313L142,311L140,311L138,310L138,309L138,308L137,309L137,307L138,306L136,307L136,308L135,309L133,309L132,308L130,306L129,305L130,307L145,322L148,324Z M85,197L86,196L86,194L86,192L86,189L84,188L84,188L84,187L81,189L81,190L81,192L82,193L82,194L82,196L82,197L84,197Z " data-fips="GB08" data-hasc="GA.OM" data-name="Ogoou-Maritime" data-postal="OM" data-varname=""/><path d="M406,308L407,308L408,308L409,309L410,307L411,306L412,304L412,303L413,302L414,301L415,300L419,299L418,297L413,293L413,291L414,290L416,290L417,288L417,287L417,286L418,286L419,284L419,281L420,280L419,279L419,278L419,277L419,276L420,275L427,272L430,270L429,266L429,265L430,260L430,258L431,257L432,256L431,256L429,256L429,253L428,251L430,251L431,249L431,248L433,247L433,246L432,245L433,243L433,241L434,240L435,239L435,238L432,236L431,235L431,234L432,232L433,232L433,230L433,229L433,227L433,226L432,224L431,223L431,222L431,221L431,219L429,213L429,212L430,209L430,208L431,206L432,205L433,203L433,201L432,200L432,198L433,197L435,191L436,189L435,187L434,184L433,183L430,181L429,180L427,178L424,177L422,177L421,177L420,177L419,178L418,177L417,177L416,177L415,177L414,178L414,175L413,173L413,170L411,168L410,166L407,165L405,165L402,165L401,164L398,164L398,165L396,165L393,162L393,160L394,158L397,155L392,153L389,151L387,150L386,149L373,146L370,147L358,149L356,152L354,155L354,156L355,157L356,159L356,162L357,163L358,163L359,164L375,195L376,197L375,198L367,210L357,222L356,223L355,222L350,220L350,220L351,223L351,225L351,228L350,229L349,230L348,231L347,234L345,234L344,235L343,237L342,238L340,238L339,238L336,239L336,240L335,242L334,243L333,244L333,247L332,248L331,249L330,251L325,261L326,263L325,265L324,267L323,270L323,270L326,271L327,271L328,273L329,278L330,279L332,281L332,282L332,283L333,284L333,285L332,286L333,287L333,288L335,289L337,289L339,292L339,294L340,294L340,296L339,297L339,298L338,299L338,300L339,300L339,300L341,298L343,299L347,300L349,300L350,300L352,300L363,304L364,304L365,304L367,304L368,304L369,305L370,304L371,303L372,302L374,300L375,299L376,298L378,298L379,297L379,295L384,290L385,288L385,286L386,285L387,283L388,283L389,284L390,285L390,287L391,289L392,292L393,294L395,295L395,298L397,298L398,300L397,301L395,303L394,304L394,306L395,307L396,308L398,308L400,307L401,307L402,307L403,309Z " data-fips="GB02" data-hasc="GA.HO" data-name="Haut-Ogoou" data-postal="HO" data-varname=""/><path d="M308,271L308,270L309,269L309,268L313,265L316,265L319,267L323,270L324,267L325,265L326,263L325,261L330,251L331,249L332,248L333,247L333,244L334,243L335,242L336,240L336,239L339,238L340,238L342,238L343,237L344,235L345,234L347,234L348,231L349,230L350,229L351,228L351,225L351,223L350,220L350,220L355,222L356,223L357,222L367,210L375,198L376,197L375,195L359,164L358,163L357,163L356,162L356,159L355,157L354,156L354,155L356,152L358,149L356,146L355,146L354,145L352,145L351,145L348,143L347,142L346,138L346,137L344,136L343,135L341,135L340,135L338,133L337,133L334,134L333,135L330,134L328,134L327,134L326,133L326,133L325,132L323,131L318,133L317,133L316,132L315,131L305,174L295,179L247,199L245,201L244,202L244,206L244,208L244,209L244,211L246,212L247,214L247,216L247,217L247,219L247,220L248,221L249,221L251,221L252,220L254,220L258,217L259,217L260,217L260,219L260,220L261,222L263,226L265,227L268,229L270,231L273,233L275,235L277,237L277,238L277,240L279,243L279,246L279,247L278,249L277,249L277,251L278,253L279,254L280,255L284,261L285,261L289,265L298,268L303,267L304,268L305,269L305,270L306,271Z " data-fips="GB07" data-hasc="GA.OL" data-name="Ogoou-Lolo" data-postal="OL" data-varname=""/></g></svg>