<?xml version="1.0" ?><!DOCTYPE svg  PUBLIC '-//W3C//DTD SVG 1.1//EN'  'http://www.w3.org/Graphics/SVG/1.1/DTD/svg11.dtd'><svg enable_background="new 0 0 500 401" height="401px" style="stroke-linejoin: round; stroke:#000; fill:#f6f3f0;" version="1.1" viewBox="0 0 500 401" width="500px" xmlns="http://www.w3.org/2000/svg" xmlns:xlink="http://www.w3.org/1999/xlink"><defs><style type="text/css"><![CDATA[path { fill-rule: evenodd; }
#context path { fill: #eee; stroke: #bbb; } ]]></style></defs><metadata><views><view h="401" padding="0" w="500"><proj id="laea" lat0="13.453" lon0="-15.386"/><bbox h="9.28" w="36.14" x="982.67" y="995.47"/><llbbox lat0="-90" lat1="90" lon0="-180" lon1="180"/></view></views></metadata><g id="admin1"><path d="M378,220L379,218L383,210L384,209L385,208L386,208L389,207L388,206L384,198L387,196L387,195L388,194L389,192L389,190L391,189L393,187L392,186L390,184L389,182L387,174L385,171L383,168L380,166L373,162L366,162L359,164L349,169L348,170L347,170L344,169L338,165L336,164L333,153L332,150L330,147L329,146L327,145L324,142L317,140L301,139L291,136L288,135L275,140L263,148L259,149L258,148L255,143L253,142L246,141L244,142L238,144L231,149L226,154L224,157L223,161L221,165L221,166L224,166L231,167L234,167L235,167L241,167L243,168L242,171L242,179L244,184L254,191L254,189L265,183L269,181L271,180L272,179L274,180L276,178L277,176L278,176L281,175L286,178L293,185L297,188L301,191L312,196L318,198L324,198L327,199L332,202L335,203L339,204L340,205L344,210L348,214L354,216L360,217L366,216L372,215L373,216L378,220Z " data-fips="GA03" data-hasc="GM.MC" data-name="Maccarthy Island" data-postal="MC" data-varname="Central River|Jangjangbureh|Janjanbureh|Janjangburreh"/><path d="M434,236L437,236L438,235L440,234L448,228L451,227L454,227L461,224L467,224L474,222L480,221L487,221L495,217L499,210L500,201L498,197L496,193L494,192L490,189L489,188L488,187L487,184L486,182L483,180L481,179L479,178L475,176L472,176L469,176L468,177L466,178L464,179L462,179L460,179L458,179L454,180L451,182L447,184L442,185L437,186L434,188L425,194L417,196L415,197L414,197L412,198L409,197L405,195L393,187L391,189L389,190L389,192L388,194L387,195L387,196L384,198L388,206L389,207L386,208L385,208L384,209L383,210L379,218L378,220L378,220L380,221L382,223L384,223L390,224L392,224L394,226L395,228L396,229L397,230L398,230L402,232L404,234L409,235L413,235L423,234L426,235L432,236Z " data-fips="GA04" data-hasc="GM.UR" data-name="Upper River" data-postal="UR" data-varname=""/><path d="M13,260L13,258L14,256L16,255L17,254L17,252L20,248L25,247L26,247L39,247L155,248L165,249L166,248L167,237L167,233L167,233L143,228L141,228L137,229L133,229L132,229L131,229L130,229L128,229L127,229L126,229L124,232L123,232L122,231L120,230L119,229L119,227L118,226L115,226L113,227L113,227L113,228L107,231L103,232L100,231L100,228L100,225L100,221L95,220L92,221L85,225L82,226L80,227L77,229L76,230L74,227L72,228L70,228L65,228L65,229L67,229L69,229L70,231L71,233L74,237L75,238L73,237L71,237L68,239L69,237L69,234L68,231L66,230L63,230L61,229L60,228L58,227L56,226L47,225L46,224L40,217L40,214L39,209L37,204L34,202L36,200L39,200L41,199L40,196L38,194L35,193L33,193L30,195L28,194L26,193L26,192L25,190L21,194L11,206L9,207L7,208L5,209L3,210L1,215L0,217L2,221L2,222L1,224L2,227L4,230L5,232L6,234L5,242L5,244L8,253L9,255L8,258L7,259L7,261L10,261L12,264Z " data-fips="GA05" data-hasc="GM.BJ" data-name="Banjul" data-postal="BJ" data-varname=""/><path d="M167,221L168,218L170,217L181,216L189,214L192,214L202,215L205,215L210,213L214,211L216,210L218,209L223,210L241,213L247,213L252,212L255,211L258,210L260,209L263,207L266,203L267,198L267,193L268,187L269,185L270,184L274,180L272,179L271,180L269,181L265,183L254,189L254,191L255,191L253,198L247,200L240,200L234,198L233,196L231,194L229,192L226,191L224,191L223,192L221,192L219,191L218,190L216,189L214,188L212,188L210,190L207,194L206,195L204,197L203,197L201,198L199,198L197,197L195,195L193,194L191,195L188,197L187,198L177,201L174,201L163,200L159,200L158,201L157,202L156,202L154,203L153,202L151,202L148,203L139,205L115,203L113,202L111,202L110,203L110,205L109,206L102,212L101,214L100,217L100,218L100,220L102,221L103,222L103,223L103,225L104,230L105,231L106,230L108,228L109,227L111,227L113,227L115,226L118,226L119,227L119,229L120,230L122,231L123,232L124,232L126,229L127,229L128,229L130,229L131,229L132,229L133,229L137,229L141,228L143,228L167,233L167,233Z M79,217L84,217L87,215L85,214L86,212L88,212L87,210L87,208L90,206L91,208L90,210L90,211L90,213L91,214L92,213L94,212L95,212L97,210L104,203L108,200L111,198L114,198L118,198L123,200L176,196L182,194L189,190L192,189L195,190L200,192L203,192L204,191L207,187L208,186L212,185L214,186L216,187L219,188L220,188L221,189L222,190L224,189L225,189L227,188L228,189L232,193L235,195L237,195L240,196L246,197L249,198L250,197L252,196L253,193L244,184L242,179L242,171L243,168L241,167L235,167L234,167L231,167L224,166L221,166L221,168L220,175L218,176L124,175L45,175L46,176L47,179L47,181L46,189L46,193L47,194L49,196L52,198L52,199L53,200L54,204L55,206L54,208L52,212L51,214L57,214L69,217L73,218Z " data-fips="GA02" data-hasc="GM.LR" data-name="Lower River" data-postal="LR" data-varname="Central|South Bank"/></g></svg>