<?xml version="1.0" ?><!DOCTYPE svg  PUBLIC '-//W3C//DTD SVG 1.1//EN'  'http://www.w3.org/Graphics/SVG/1.1/DTD/svg11.dtd'><svg enable_background="new 0 0 500 401" height="401px" style="stroke-linejoin: round; stroke:#000; fill:#f6f3f0;" version="1.1" viewBox="0 0 500 401" width="500px" xmlns="http://www.w3.org/2000/svg" xmlns:xlink="http://www.w3.org/1999/xlink"><defs><style type="text/css"><![CDATA[path { fill-rule: evenodd; }
#context path { fill: #eee; stroke: #bbb; } ]]></style></defs><metadata><views><view h="401" padding="0" w="500"><proj id="laea" lat0="0.53" lon0="37.858"/><bbox h="125.49" w="98.55" x="951.04" y="938.76"/><llbbox lat0="-90" lat1="90" lon0="-180" lon1="180"/></view></views></metadata><g id="admin1"><path d="M287,335L288,335L290,334L291,334L292,334L293,334L294,334L295,334L279,310L281,310L282,310L283,309L284,308L285,308L286,307L293,292L293,291L292,284L293,283L294,282L293,260L289,249L272,218L273,218L274,218L276,216L277,216L279,217L281,217L282,217L283,218L284,218L284,210L284,209L284,207L282,198L281,197L281,196L282,196L285,195L286,194L287,193L300,187L301,186L303,183L303,183L304,182L306,179L311,177L311,176L305,159L305,158L311,155L310,154L309,154L308,152L307,151L304,150L303,149L302,148L301,147L300,145L300,144L299,143L298,142L296,141L295,138L294,136L293,134L292,133L292,132L291,131L292,130L292,128L291,126L291,124L290,122L290,119L289,118L289,117L290,116L292,116L293,115L298,103L298,102L298,101L299,100L301,100L302,99L305,98L305,97L306,96L307,95L307,90L306,88L306,86L305,78L304,79L302,79L301,79L296,77L294,78L292,77L291,78L290,78L283,76L282,75L280,73L280,74L278,74L277,74L276,74L275,73L274,73L273,74L272,74L270,74L261,73L260,74L259,74L258,73L256,73L255,72L254,70L254,69L219,47L219,46L218,45L217,45L216,44L214,44L212,42L209,42L201,42L201,41L187,41L185,41L184,41L178,41L178,41L178,87L179,89L180,89L182,90L182,91L182,93L181,97L182,98L184,99L185,99L186,99L186,100L188,102L190,103L191,104L192,106L193,107L193,109L194,112L195,113L196,114L196,115L197,117L197,119L197,120L198,121L200,121L201,121L203,119L204,117L204,116L205,117L209,126L211,128L212,129L213,134L214,135L214,136L215,136L217,136L221,137L222,137L223,138L224,139L225,140L226,141L227,142L227,144L228,145L230,146L231,150L232,151L233,152L234,153L237,160L238,160L239,159L241,159L242,159L243,159L244,158L246,158L247,157L248,157L249,157L251,159L252,160L252,166L253,167L255,170L256,171L256,184L255,184L254,185L253,186L251,187L250,186L249,187L247,188L246,189L245,189L244,189L242,189L242,190L241,191L239,192L238,192L237,192L236,193L235,192L234,192L233,192L231,193L230,192L229,191L229,190L228,189L227,187L226,186L225,185L224,186L222,186L222,185L220,185L219,184L218,185L217,185L213,186L212,186L212,187L212,188L212,189L211,191L210,192L211,193L229,195L229,196L229,199L230,200L230,201L231,202L231,204L230,205L229,207L225,212L224,213L220,214L220,216L228,222L232,233L232,237L234,239L234,240L234,243L234,245L228,247L227,246L226,245L225,246L225,250L227,251L227,253L228,254L229,254L230,253L230,255L230,256L228,258L227,257L226,257L225,258L223,258L222,259L222,261L222,262L219,266L217,267L215,266L214,266L214,268L212,269L212,270L211,271L210,271L210,272L211,273L213,272L214,273L214,274L214,275L214,276L215,278L221,285L222,285L221,288L222,289L223,291L224,291L225,292L227,294L229,294L230,295L232,296L234,297L235,298L236,298L239,300L240,301L241,300L242,301L243,302L242,302L242,303L241,305L241,306L240,306L239,307L239,308L251,322L251,323L251,325L253,325L258,322L259,321L261,321L261,323L263,323L265,324L265,325L267,328L268,329L269,331L271,332L272,333L273,332L274,332L275,332L276,332L278,333L278,333L280,334L281,334L283,334L284,335L286,335L286,336Z " data-fips="KE03" data-hasc="KE.NA" data-name="Eastern" data-postal="NA" data-varname="Federal Area|Nairobi District|Masai District"/><path d="M243,341L247,340L248,339L249,334L251,325L251,323L251,322L239,308L239,307L240,306L241,306L241,305L242,303L242,302L243,302L242,301L241,300L240,301L239,300L236,298L235,298L234,297L232,296L230,295L229,294L227,294L225,292L224,291L223,291L222,289L221,288L222,285L221,285L215,278L214,276L214,275L214,274L214,273L213,272L211,273L210,272L210,271L210,270L208,270L207,270L205,269L205,268L204,267L203,266L202,266L201,265L196,264L198,259L199,259L199,258L199,256L199,255L198,254L198,252L198,251L197,248L196,246L197,244L196,241L196,240L195,239L194,238L193,238L192,238L191,237L191,236L191,233L191,232L191,231L189,231L188,231L187,231L186,231L184,226L184,225L185,223L184,221L185,220L185,219L186,217L186,215L187,215L189,214L190,213L191,213L192,213L194,212L195,211L196,212L197,214L198,214L199,215L200,215L201,215L198,217L197,218L197,220L199,221L200,221L202,221L204,221L208,220L210,221L210,223L209,224L209,225L211,227L212,227L213,227L214,227L215,225L216,225L216,224L217,222L216,220L216,219L217,217L220,214L224,213L225,212L229,207L230,205L231,204L231,202L230,201L230,200L229,199L229,196L229,195L211,193L210,192L211,191L212,189L212,188L212,187L212,186L213,186L217,185L218,185L219,184L220,185L222,185L222,186L224,186L225,185L226,186L227,187L228,189L229,190L229,191L230,192L231,193L233,192L234,192L235,192L236,193L237,192L238,192L239,192L241,191L242,190L242,189L244,189L245,189L246,189L247,188L249,187L250,186L251,187L253,186L254,185L255,184L256,184L256,171L255,170L253,167L252,166L252,160L251,159L249,157L248,157L247,157L246,158L244,158L243,159L242,159L241,159L239,159L238,160L237,160L234,153L233,152L232,151L231,150L230,146L228,145L227,144L227,142L226,141L225,140L224,139L223,138L222,137L221,137L217,136L215,136L214,136L214,135L213,134L212,129L211,128L209,126L205,117L204,116L204,117L203,119L201,121L200,121L198,121L197,120L197,119L197,117L196,115L196,114L195,113L194,112L193,109L193,107L192,106L191,104L190,103L188,102L186,100L186,99L185,99L184,99L182,98L181,97L182,93L182,91L182,90L180,89L179,89L178,87L178,41L178,41L178,41L176,40L174,39L174,37L174,36L173,34L168,29L167,27L167,25L167,16L168,14L169,13L168,12L168,10L168,9L169,7L167,6L164,4L163,4L162,5L160,5L158,3L157,3L156,2L154,3L153,3L152,5L151,5L149,5L148,5L147,3L147,1L148,0L113,34L97,50L98,50L99,51L100,52L100,54L100,55L101,56L100,58L101,59L102,60L102,61L102,62L101,63L103,63L104,63L106,63L106,64L104,66L105,67L106,67L107,67L108,68L109,70L110,69L112,69L113,71L115,71L115,72L115,75L115,77L113,78L113,79L113,81L113,82L113,83L114,84L114,86L115,91L116,92L118,93L119,94L121,101L122,102L123,103L124,103L125,103L127,104L128,107L128,110L130,114L131,114L132,114L133,116L134,118L134,119L133,120L132,121L131,122L132,123L136,134L135,136L135,138L136,139L137,141L136,142L136,151L135,153L134,154L132,155L131,156L131,159L128,161L128,162L129,164L129,166L129,167L128,168L124,169L122,170L120,171L120,172L120,173L121,174L122,175L127,180L128,181L127,182L128,183L129,183L131,183L133,182L134,182L135,181L137,181L140,181L141,181L142,182L142,183L143,185L143,186L144,187L143,188L142,189L141,190L140,191L139,190L138,191L136,191L135,191L133,193L132,193L131,193L131,194L131,196L133,197L134,199L134,201L134,203L134,205L134,206L134,207L133,208L133,209L132,210L131,211L130,212L130,213L128,215L128,216L129,217L130,217L131,217L132,217L134,217L136,217L137,217L138,217L139,218L140,218L140,217L141,216L142,217L144,217L145,217L146,218L146,219L147,220L148,221L149,222L150,223L149,225L148,225L147,225L147,224L145,223L144,222L143,222L142,221L141,221L140,223L139,223L139,224L139,226L138,227L138,228L137,229L137,230L137,232L138,233L138,235L139,236L139,240L139,241L139,243L140,245L139,247L138,247L137,248L137,250L136,251L125,254L123,253L122,254L120,255L120,256L121,257L121,258L122,259L123,261L123,262L124,264L126,271L241,335L241,336L242,341Z " data-fips="KE08" data-hasc="" data-name="Rift Valley" data-postal="RV" data-varname=""/><path d="M98,215L98,214L99,212L100,211L101,210L101,209L101,207L102,206L104,206L105,206L106,205L107,204L108,204L110,204L111,204L112,204L113,205L113,206L113,207L116,209L116,210L117,211L118,212L118,213L118,214L117,215L118,216L119,216L121,216L122,216L124,216L125,216L126,216L128,215L130,213L130,212L131,211L132,210L133,209L133,208L134,207L134,206L134,205L134,203L134,201L134,199L133,197L131,196L131,194L131,193L132,193L133,193L135,191L136,191L138,191L139,190L140,191L141,190L142,189L143,188L144,187L143,186L143,185L142,183L142,182L141,181L140,181L137,181L135,181L134,182L133,182L131,183L129,183L128,183L127,182L128,181L127,180L122,175L121,174L120,173L120,172L119,173L118,172L116,174L116,175L116,178L115,180L113,182L112,184L109,186L109,187L108,189L108,190L106,190L105,191L104,192L103,193L101,198L101,199L101,200L101,201L101,202L99,203L93,212L95,218Z " data-fips="KE09" data-hasc="KE.WE" data-name="Western" data-postal="WE" data-varname=""/><path d="M342,296L372,283L393,281L393,279L393,277L375,255L371,250L371,216L371,196L371,176L371,167L371,157L371,137L371,117L371,105L371,104L386,90L394,78L406,60L405,60L403,60L401,59L399,59L398,60L397,60L395,59L392,60L391,60L389,60L380,61L378,61L377,60L375,59L372,55L371,54L369,53L368,52L367,51L366,50L364,48L363,47L360,49L348,54L347,55L346,55L339,57L339,58L337,59L327,64L326,65L324,70L324,71L322,72L317,77L316,78L315,81L315,82L313,82L313,81L312,80L311,80L306,79L305,78L306,86L306,88L307,90L307,95L306,96L305,97L305,98L302,99L301,100L299,100L298,101L298,102L298,103L293,115L292,116L290,116L289,117L289,118L290,119L290,122L291,124L291,126L292,128L292,130L291,131L292,132L292,133L293,134L294,136L295,138L296,141L298,142L299,143L300,144L300,145L301,147L302,148L303,149L304,150L307,151L308,152L309,154L310,154L311,155L305,158L305,159L311,176L311,177L306,179L304,182L303,183L303,183L301,186L300,187L287,193L286,194L285,195L282,196L281,196L281,197L282,198L284,207L284,209L284,210L284,218L292,219L293,218L294,217L295,217L297,217L297,218L299,221L304,221L305,221L306,221L307,222L308,222L309,223L311,223L312,224L313,225L313,225L314,227L315,227L317,228L317,229L319,235L320,236L320,237L322,238L323,239L324,240L324,241L326,243L326,244L326,246L326,247L327,248L327,250L328,252L328,253L328,254L329,255L330,259L330,260L331,261L332,262L333,263L333,265L333,268L334,270L334,271L335,274L337,278L337,279L338,282L338,283L337,284L338,286L337,287L338,288L339,291L338,292L339,294L340,296L340,297Z " data-fips="KE06" data-hasc="KE.NE" data-name="North-Eastern" data-postal="NE" data-varname=""/><path d="M303,398L303,397L304,396L305,396L306,397L308,397L310,397L309,396L310,395L310,394L311,393L311,395L313,391L314,390L314,389L315,389L315,388L317,383L318,380L320,376L319,375L318,375L316,375L316,374L317,374L318,373L319,372L318,371L320,372L320,373L320,374L321,374L322,373L323,371L321,370L321,369L322,368L322,370L324,370L325,369L328,360L328,359L327,358L325,358L325,357L325,356L326,356L326,357L328,357L329,356L329,354L330,352L331,350L331,348L332,346L333,346L332,348L333,347L335,346L337,345L338,344L338,342L338,340L339,338L340,335L340,334L342,332L341,333L340,332L340,331L339,331L339,329L340,327L340,326L340,324L341,322L342,321L343,320L345,318L346,317L347,317L348,316L352,315L354,315L355,315L356,315L357,316L359,315L361,312L363,312L364,311L365,310L365,308L364,307L364,306L364,305L365,305L366,304L367,303L368,304L369,305L370,305L369,306L370,306L371,305L371,303L371,303L369,303L369,302L369,300L368,297L368,296L368,295L367,294L366,293L368,293L369,294L370,297L371,296L371,291L372,290L372,291L372,293L371,294L372,295L373,296L374,295L375,294L377,293L378,294L380,294L380,292L381,291L381,292L383,292L384,292L386,291L388,289L389,287L390,285L393,281L372,283L342,296L340,297L340,296L339,294L338,292L339,291L338,288L337,287L338,286L337,284L338,283L338,282L337,279L337,278L335,274L334,271L334,270L333,268L333,265L333,263L332,262L331,261L330,260L330,259L329,255L328,254L328,253L328,252L327,250L327,248L326,247L326,246L326,244L326,243L324,241L324,240L323,239L322,238L320,237L320,236L319,235L317,229L317,228L315,227L314,227L313,225L313,225L312,224L311,223L309,223L308,222L307,222L306,221L305,221L304,221L299,221L297,218L297,217L295,217L294,217L293,218L292,219L284,218L283,218L282,217L281,217L279,217L277,216L276,216L274,218L273,218L272,218L289,249L293,260L294,282L293,283L292,284L293,291L293,292L286,307L285,308L284,308L283,309L282,310L281,310L279,310L295,334L294,334L293,334L292,334L291,334L290,334L288,335L287,335L286,336L286,335L284,335L283,334L281,334L280,334L278,333L278,333L276,332L275,332L274,332L273,332L272,333L271,332L269,331L268,329L267,328L265,325L265,324L263,323L261,323L261,321L259,321L258,322L253,325L251,325L249,334L248,339L247,340L243,341L242,341L242,346L242,346L241,347L240,348L239,348L238,350L238,351L239,352L239,353L242,353L243,354L244,355L245,357L246,359L302,399Z M372,301L373,300L374,299L376,299L377,299L377,298L378,299L379,298L377,296L376,295L374,296L373,297L372,298L371,299L371,300L372,301L373,301Z " data-fips="KE02" data-hasc="KE.CO" data-name="Coast" data-postal="CO" data-varname=""/><path d="M204,265L205,264L206,263L207,262L208,261L210,262L211,262L212,261L213,260L214,261L214,262L215,263L216,263L217,263L218,263L220,263L222,262L222,261L222,259L223,258L225,258L226,257L227,257L228,258L230,256L230,255L230,253L229,254L228,254L227,253L227,251L225,250L225,246L226,245L227,246L228,247L234,245L234,243L234,240L234,239L232,237L232,233L228,222L220,216L217,217L216,219L216,220L217,222L216,224L216,225L215,225L214,227L213,227L212,227L211,227L209,225L209,224L210,223L210,221L208,220L204,221L202,221L200,221L199,221L197,220L197,218L198,217L201,215L200,215L199,215L198,214L197,214L196,212L195,211L194,212L192,213L191,213L190,213L189,214L187,215L186,215L186,217L185,219L185,220L184,221L185,223L184,225L184,226L186,231L187,231L188,231L189,231L191,231L191,232L191,233L191,236L191,237L192,238L193,238L194,238L195,239L196,240L196,241L197,244L196,246L197,248L198,251L198,252L198,254L199,255L199,256L199,258L199,259L198,259L196,264L201,265L202,266L203,266Z " data-fips="KE01" data-hasc="KE.CE" data-name="Central" data-postal="CE" data-varname=""/><path d="M212,270L212,269L214,268L214,266L215,266L217,267L219,266L220,263L218,263L217,263L216,263L215,263L214,262L214,261L213,260L212,261L211,262L210,262L208,261L207,262L206,263L205,264L204,265L203,266L204,267L205,268L205,269L207,270L208,270L210,270L210,271L211,271Z " data-fips="KE05" data-hasc="KE.NA" data-name="Nairobi" data-postal="NA" data-varname="Federal Area|Nairobi District|Masai District"/><path d="M124,264L123,262L123,261L122,259L121,258L121,257L120,256L120,255L122,254L123,253L125,254L136,251L137,250L137,248L138,247L139,247L140,245L139,243L139,241L139,240L139,236L138,235L138,233L137,232L137,230L137,229L138,228L138,227L139,226L139,224L139,223L140,223L141,221L142,221L143,222L144,222L145,223L147,224L147,225L148,225L149,225L150,223L149,222L148,221L147,220L146,219L146,218L145,217L144,217L142,217L141,216L140,217L140,218L139,218L138,217L137,217L136,217L134,217L132,217L131,217L130,217L129,217L128,216L126,216L125,216L124,216L122,216L121,216L119,216L118,216L117,215L118,214L118,213L118,212L117,211L116,210L116,209L113,207L113,206L113,205L112,204L111,204L110,204L108,204L107,204L106,205L105,206L104,206L102,206L101,207L101,209L101,210L100,211L99,212L98,214L98,215L95,218L96,220L96,222L94,241L94,255L98,255L98,256L100,256L126,271Z " data-fips="KE07" data-hasc="KE.NY" data-name="Nyanza" data-postal="NY" data-varname=""/></g></svg>