<?xml version="1.0" ?><!DOCTYPE svg  PUBLIC '-//W3C//DTD SVG 1.1//EN'  'http://www.w3.org/Graphics/SVG/1.1/DTD/svg11.dtd'><svg enable_background="new 0 0 500 401" height="401px" style="stroke-linejoin: round; stroke:#000; fill:#f6f3f0;" version="1.1" viewBox="0 0 500 401" width="500px" xmlns="http://www.w3.org/2000/svg" xmlns:xlink="http://www.w3.org/1999/xlink"><defs><style type="text/css"><![CDATA[path { fill-rule: evenodd; }
#context path { fill: #eee; stroke: #bbb; } ]]></style></defs><metadata><views><view h="401" padding="0" w="500"><proj id="laea" lat0="6.682" lon0="-9.657"/><bbox h="52.01" w="50.2" x="977.72" y="976.75"/><llbbox lat0="-90" lat1="90" lon0="-180" lon1="180"/></view></views></metadata><g id="admin1"><path d="M400,388L402,385L402,384L402,380L402,379L403,376L403,375L402,374L400,370L399,368L395,361L394,360L393,359L392,358L390,357L384,355L377,353L376,352L376,351L375,350L375,348L379,340L380,337L382,334L383,332L383,331L383,329L369,325L365,325L364,324L361,322L360,322L356,321L354,322L353,323L350,326L349,328L348,328L347,329L343,329L342,329L335,334L332,336L332,337L329,341L327,344L326,345L324,345L323,346L322,348L322,350L322,351L321,352L318,354L327,358L333,361L343,368L353,372L355,372L356,373L361,377L364,378L375,380L381,382L385,382L389,384L390,384L392,385L393,386L394,386L396,387L398,388L400,389Z " data-fips="LI16" data-hasc="LR.GK" data-name="GrandKru" data-postal="GK" data-varname="Grand Kru"/><path d="M428,398L425,396L425,394L426,392L426,391L425,389L425,386L425,385L425,384L425,363L425,358L424,357L422,356L422,354L422,354L421,354L419,353L418,353L417,351L416,350L414,350L411,348L410,349L409,349L408,349L406,350L405,351L403,350L402,350L400,350L400,349L400,348L400,347L400,346L399,345L399,331L399,330L398,329L383,329L383,331L383,332L382,334L380,337L379,340L375,348L375,350L376,351L376,352L377,353L384,355L390,357L392,358L393,359L394,360L395,361L399,368L400,370L402,374L403,375L403,376L402,379L402,380L402,384L402,385L400,388L400,389L401,389L402,390L402,392L403,393L404,393L405,394L409,396L410,396L411,397L412,398L418,398L420,398L422,399L423,399Z " data-fips="LI13" data-hasc="LR.MY" data-name="Maryland" data-postal="MY" data-varname=""/><path d="M321,352L322,351L322,350L322,348L323,346L324,345L326,345L327,344L329,341L332,337L332,336L335,334L342,329L343,329L347,329L348,328L349,328L350,326L353,323L354,322L356,321L356,318L356,317L355,315L352,310L345,303L344,302L343,299L343,298L343,296L344,293L344,292L344,291L343,290L342,290L340,289L339,288L339,287L340,286L342,282L342,281L343,280L344,280L345,279L349,279L350,279L351,278L351,277L351,275L351,274L350,273L349,270L347,267L346,266L345,265L342,263L340,263L336,263L335,263L329,271L324,268L299,255L298,257L297,258L296,258L285,258L280,260L279,262L277,264L277,266L277,268L277,269L275,270L273,271L272,271L268,274L265,275L264,276L261,279L259,280L257,282L257,284L258,285L258,286L259,288L261,296L261,298L260,300L257,304L255,304L254,305L254,306L253,307L252,308L250,309L250,311L251,312L257,318L259,319L261,319L263,320L264,322L263,322L264,324L266,325L267,325L270,327L274,329L275,330L281,335L284,337L287,338L289,340L291,341L294,341L296,342L298,343L299,343L302,344L305,346L311,351L314,353L318,354Z " data-fips="LI10" data-hasc="LR.SI" data-name="Sinoe" data-postal="SI" data-varname=""/><path d="M120,205L121,202L121,200L120,197L120,196L120,194L121,193L122,193L123,192L126,192L127,191L129,189L130,189L130,188L132,188L133,188L137,192L139,192L140,192L142,190L143,189L142,187L140,184L140,181L140,179L140,178L140,176L141,175L143,173L142,171L142,169L143,168L143,167L143,166L144,165L147,164L149,164L149,164L151,162L149,160L139,160L133,163L132,164L131,165L128,166L127,165L126,164L125,163L125,161L125,160L125,159L125,158L125,157L125,156L125,154L125,153L127,153L127,152L126,151L119,150L118,150L116,150L114,150L109,148L108,149L108,150L108,152L108,154L105,161L104,164L104,165L105,166L106,167L105,169L105,171L105,174L104,175L102,175L101,175L100,176L100,178L99,179L99,180L98,180L97,181L96,182L95,183L94,184L95,185L95,187L97,187L112,196L116,198L119,201L120,205Z " data-fips="LI15" data-hasc="LR.BM" data-name="Bomi" data-postal="BM" data-varname=""/><path d="M232,201L234,200L236,198L237,198L239,198L240,198L241,198L242,197L243,196L243,195L245,195L245,195L246,195L248,195L249,193L251,192L253,190L254,190L255,189L256,188L256,187L258,186L259,185L260,185L260,186L261,186L270,184L272,184L274,184L275,183L275,181L274,179L275,178L276,177L276,176L276,175L277,174L277,173L278,171L278,170L278,169L278,168L279,167L280,166L279,163L279,162L280,159L279,158L278,157L277,157L276,155L276,154L275,153L274,152L273,151L272,150L274,148L274,146L275,144L275,142L277,140L279,129L278,130L279,127L279,126L276,124L276,122L273,122L271,120L269,114L268,112L267,112L263,113L261,112L261,110L260,109L259,108L257,108L256,108L254,109L254,110L253,110L252,112L251,111L249,108L248,110L244,113L245,114L242,116L239,119L237,119L235,120L233,121L231,121L230,122L229,123L229,124L229,125L228,127L227,128L225,129L223,130L221,130L218,130L217,129L214,128L212,129L209,131L207,133L206,135L205,136L203,136L202,136L201,136L199,137L197,137L193,140L190,143L189,144L187,144L186,143L186,142L186,141L185,140L185,139L186,138L186,137L184,136L179,135L177,136L177,137L170,142L169,144L168,146L165,149L163,150L162,150L159,150L158,150L155,151L154,152L153,153L153,155L153,157L151,162L149,164L149,164L152,168L153,169L154,169L159,169L160,169L161,169L166,171L168,170L169,170L171,171L172,171L173,172L175,174L175,175L177,176L189,179L190,179L191,179L193,178L195,177L196,177L200,178L202,179L203,180L205,182L206,184L207,183L208,183L209,182L210,181L210,179L210,178L211,177L212,175L213,174L212,172L212,171L213,170L214,168L215,168L216,168L218,169L219,170L221,171L222,172L222,173L222,174L222,176L222,177L221,182L222,182L227,182L228,182L229,182L230,183L232,186L234,188L235,189L235,190L235,191L234,193L233,194L230,197L229,199L229,200L230,201L231,201Z " data-fips="LI01" data-hasc="LR.BG" data-name="Bong" data-postal="BG" data-varname=""/><path d="M221,282L222,281L223,281L223,280L224,278L226,276L227,275L227,274L226,270L225,269L225,268L225,267L226,266L226,265L226,264L225,262L225,261L225,259L228,254L228,253L228,251L227,250L228,248L228,247L229,243L229,241L229,240L230,239L233,238L233,237L233,235L233,234L234,234L235,233L236,233L238,234L239,234L240,235L240,235L241,234L244,231L247,228L247,227L247,222L247,220L247,217L247,215L247,214L247,213L249,212L252,211L253,211L256,210L257,209L277,209L277,206L277,205L277,203L277,202L278,200L278,197L277,196L276,196L277,194L277,191L278,190L279,189L281,188L281,187L282,186L281,185L280,184L278,185L277,185L272,184L270,184L261,186L260,186L260,185L259,185L258,186L256,187L256,188L255,189L254,190L253,190L251,192L249,193L248,195L246,195L245,195L245,195L243,195L243,196L242,197L241,198L240,198L239,198L237,198L236,198L234,200L232,201L231,201L230,201L229,200L229,199L230,197L233,194L234,193L235,191L235,190L235,189L234,188L232,186L230,183L229,182L228,182L227,182L222,182L221,182L213,190L210,192L209,191L207,190L206,190L205,191L204,192L201,194L200,195L198,195L196,194L194,194L193,194L191,194L191,195L190,196L188,197L187,197L185,196L184,195L183,195L182,194L181,193L181,192L180,191L179,191L178,191L174,192L173,193L174,194L175,195L176,196L175,197L175,199L174,200L171,204L171,205L172,206L171,207L171,208L169,210L168,210L167,211L167,212L167,213L168,214L167,215L166,216L165,217L164,219L163,223L164,224L163,225L163,227L162,229L163,230L164,231L163,231L162,231L162,232L163,233L165,234L168,235L170,236L175,239L179,243L185,248L186,249L188,249L189,250L191,251L192,253L192,254L192,255L192,257L195,258L198,262L211,273L221,283Z " data-fips="LI11" data-hasc="LR.MG" data-name="Grand Bassa" data-postal="MG" data-varname=""/><path d="M95,185L94,184L95,183L96,182L97,181L98,180L99,180L99,179L100,178L100,176L101,175L102,175L104,175L105,174L105,171L105,169L106,167L105,166L104,165L104,164L105,161L108,154L108,152L108,150L108,149L108,148L109,147L110,147L111,145L112,144L114,142L115,141L118,140L119,139L121,138L123,137L124,136L125,135L127,133L127,132L129,131L130,130L131,129L133,129L140,125L142,123L145,122L146,121L147,120L148,119L148,116L147,114L147,112L147,111L141,103L140,102L139,102L137,102L136,102L134,102L133,100L131,101L124,99L123,99L121,99L121,99L120,98L116,97L115,97L114,98L113,99L112,99L110,100L108,100L107,101L104,102L90,113L83,123L82,124L74,127L72,128L69,133L67,135L67,136L68,137L69,138L69,140L68,141L65,142L66,143L65,145L65,147L64,148L63,149L61,150L61,151L60,154L59,155L57,156L60,159L61,160L62,161L64,162L66,163L68,166L67,168L67,170L67,174L69,176L80,181L95,187Z " data-fips="LI12" data-hasc="LR.CM" data-name="Grand Cape Mount" data-postal="CM" data-varname=""/><path d="M189,144L190,143L193,140L197,137L199,137L201,136L202,136L203,136L205,136L206,135L207,133L209,131L212,129L214,128L217,129L218,130L221,130L223,130L225,129L227,128L228,127L229,125L229,124L229,123L230,122L231,121L233,121L235,120L237,119L239,119L242,116L245,114L244,113L244,113L245,112L246,111L246,110L246,108L246,107L247,106L249,105L251,102L252,100L252,98L253,96L254,95L254,93L255,91L256,90L257,89L255,87L255,84L256,80L257,78L254,75L253,73L251,70L249,66L248,62L248,58L249,54L249,54L250,52L250,51L250,50L249,49L248,49L247,49L246,51L246,50L247,47L245,40L245,39L245,38L244,37L242,37L240,36L240,33L241,31L242,29L242,28L242,28L241,27L241,26L240,25L239,24L241,22L242,22L243,21L242,20L240,19L236,17L234,15L233,15L232,16L230,16L229,16L226,16L227,15L227,14L229,13L229,12L229,10L228,8L226,7L224,7L223,9L223,11L222,12L221,11L220,9L220,8L219,3L218,1L217,0L216,0L216,1L215,3L214,4L214,6L212,6L210,7L209,7L208,6L206,7L205,7L203,7L201,7L200,8L196,11L192,13L190,14L189,13L189,12L190,7L189,6L188,5L182,4L181,4L179,4L176,7L174,8L174,7L171,8L170,8L170,13L167,24L165,28L165,29L165,30L166,33L166,34L166,36L164,38L162,39L160,40L158,40L151,40L149,41L147,42L145,43L143,47L142,48L140,49L140,50L138,51L138,52L138,75L136,76L135,76L131,78L128,81L115,97L116,97L120,98L121,99L121,99L123,99L124,99L131,101L133,100L140,99L144,99L149,100L157,102L160,103L163,102L167,99L169,98L175,97L178,99L179,101L179,106L179,107L181,108L188,112L190,113L191,115L191,117L190,121L189,124L183,132L184,136L186,137L186,138L185,139L185,140L186,141L186,142L186,143L187,144Z " data-fips="LI20" data-hasc="LR.LF" data-name="Lofa" data-postal="LF" data-varname=""/><path d="M138,215L139,214L140,213L142,213L146,210L151,208L152,207L154,203L155,203L159,201L160,200L160,199L160,198L160,192L160,189L159,188L158,186L157,185L158,183L163,173L161,169L160,169L159,169L154,169L153,169L152,168L149,164L147,164L144,165L143,166L143,167L143,168L142,169L142,171L143,173L141,175L140,176L140,178L140,179L140,181L140,184L142,187L143,189L142,190L140,192L139,192L137,192L133,188L132,188L130,188L130,189L129,189L127,191L126,192L123,192L122,193L121,193L120,194L120,196L120,197L121,200L121,202L120,205L120,205L121,206L122,205L123,205L125,205L123,207L122,209L122,211L123,214L122,213L121,212L120,213L122,215L134,221L136,222Z " data-fips="LI14" data-hasc="LR.MO" data-name="Montserrado" data-postal="MO" data-varname=""/><path d="M159,228L157,227L152,223L154,224L156,224L159,226L160,227L162,229L163,227L163,225L164,224L163,223L164,219L165,217L166,216L167,215L168,214L167,213L167,212L167,211L168,210L169,210L171,208L171,207L172,206L171,205L171,204L174,200L175,199L175,197L176,196L175,195L174,194L173,193L174,192L178,191L179,191L180,191L181,192L181,193L182,194L183,195L184,195L185,196L187,197L188,197L190,196L191,195L191,194L193,194L194,194L196,194L198,195L200,195L201,194L204,192L205,191L206,190L207,190L209,191L210,192L213,190L222,177L222,176L222,174L222,173L222,172L221,171L219,170L218,169L216,168L215,168L214,168L213,170L212,171L212,172L213,174L212,175L211,177L210,178L210,179L210,181L209,182L208,183L207,183L206,184L205,182L203,180L202,179L200,178L196,177L195,177L193,178L191,179L190,179L189,179L177,176L175,175L175,174L173,172L172,171L171,171L169,170L168,170L166,171L163,173L158,183L157,185L158,186L159,188L160,189L160,192L160,198L160,199L160,200L159,201L155,203L154,203L152,207L151,208L146,210L142,213L140,213L139,214L138,215L136,222L153,226L156,227L159,229L160,231Z " data-fips="LI17" data-hasc="LR.MG" data-name="Margibi" data-postal="MG" data-varname=""/><path d="M297,258L298,257L299,255L300,253L299,251L297,250L296,251L296,250L296,248L298,245L297,244L296,243L297,241L299,241L303,241L304,240L305,238L305,235L305,233L304,231L305,230L307,227L308,226L311,225L313,223L315,221L317,219L322,207L324,200L326,196L329,193L331,192L331,191L333,190L334,188L341,183L343,181L351,171L352,169L354,166L354,164L355,162L354,160L353,159L354,157L354,155L354,153L355,151L356,150L357,149L357,146L356,137L355,134L355,133L353,132L353,131L353,129L353,128L351,126L350,123L350,122L348,119L347,118L347,116L346,107L344,101L342,97L338,95L335,93L332,91L331,89L330,86L331,83L319,82L319,84L316,87L316,89L315,93L315,94L315,95L316,96L316,98L315,100L314,102L313,103L310,105L309,106L309,109L308,110L307,110L306,111L304,113L303,114L303,115L303,117L304,119L304,120L303,122L302,123L298,124L297,125L295,122L294,121L294,123L292,123L291,124L289,126L287,125L286,126L285,127L283,128L282,129L277,140L275,142L275,144L274,146L274,148L272,150L273,151L274,152L275,153L276,154L276,155L277,157L278,157L279,158L280,159L279,162L279,163L280,166L279,167L278,168L278,169L278,170L278,171L277,173L277,174L276,175L276,176L276,177L275,178L274,179L275,181L275,183L274,184L277,185L278,185L280,184L281,185L282,186L281,187L281,188L279,189L278,190L277,191L277,194L276,196L277,196L278,197L278,200L277,202L277,203L277,205L277,206L277,209L278,213L280,215L282,215L284,216L284,217L284,218L284,220L284,222L284,223L283,224L282,226L282,227L281,226L280,228L280,229L279,230L281,231L282,232L282,234L282,235L283,236L283,237L283,238L282,241L282,242L283,244L282,244L281,244L281,246L282,247L282,248L283,249L282,249L282,250L282,252L283,253L284,254L283,257L285,258L296,258Z " data-fips="LI09" data-hasc="LR.NI" data-name="Nimba" data-postal="NI" data-varname=""/><path d="M250,311L250,309L252,308L253,307L254,306L254,305L255,304L257,304L260,300L261,298L261,296L259,288L258,286L258,285L257,284L257,282L259,280L261,279L264,276L265,275L268,274L272,271L273,271L275,270L277,269L277,268L277,266L277,264L279,262L280,260L283,257L284,254L283,253L282,252L282,250L282,249L283,249L282,248L282,247L281,246L281,244L282,244L283,244L282,242L282,241L283,238L283,237L283,236L282,235L282,234L282,232L281,231L279,230L280,229L280,228L281,226L282,227L282,226L283,224L284,223L284,222L284,220L284,218L284,217L284,216L282,215L280,215L278,213L277,209L257,209L256,210L253,211L252,211L249,212L247,213L247,214L247,215L247,217L247,220L247,222L247,227L247,228L244,231L241,234L240,235L240,235L239,234L238,234L236,233L235,233L234,234L233,234L233,235L233,237L233,238L230,239L229,240L229,241L229,243L228,247L228,248L227,250L228,251L228,253L228,254L225,259L225,261L225,262L226,264L226,265L226,266L225,267L225,268L225,269L226,270L227,274L227,275L226,276L224,278L223,280L223,281L222,281L221,282L221,283L225,286L234,291L235,295L234,296L235,297L238,297L239,298L241,299L242,300L243,301L244,302L245,306L246,307L251,312Z " data-fips="LI18" data-hasc="LR.RI" data-name="River Cess" data-postal="RI" data-varname="Rivercess"/><path d="M358,294L370,293L376,291L440,289L440,288L442,287L440,286L440,284L441,283L443,283L441,282L440,279L439,278L438,275L436,268L436,264L437,260L437,257L434,256L433,259L433,260L432,261L431,260L431,259L430,258L429,257L428,256L427,257L425,257L423,255L424,254L421,253L419,251L418,251L416,250L414,248L413,249L412,251L411,252L409,250L408,248L405,247L403,244L403,242L404,241L404,240L403,239L403,238L402,236L401,235L399,235L398,236L397,235L397,233L397,231L398,229L399,225L399,224L397,222L393,218L392,217L390,217L384,215L383,214L381,214L379,214L374,215L373,215L371,216L370,217L368,217L367,216L366,215L365,215L360,214L357,213L356,213L356,211L355,210L354,211L353,210L352,209L351,209L350,210L349,209L348,209L347,210L346,211L344,209L346,208L346,207L345,204L345,203L346,201L345,200L342,198L341,197L340,197L339,199L339,201L337,202L336,201L333,198L332,197L331,196L329,196L328,196L326,196L324,200L322,207L317,219L315,221L313,223L311,225L308,226L307,227L305,230L304,231L305,233L305,235L305,238L304,240L303,241L299,241L297,241L296,243L297,244L298,245L296,248L296,250L296,251L297,250L299,251L300,253L299,255L324,268L329,271L335,263L336,263L340,263L342,263L345,265L346,266L347,267L349,270L350,273L351,274L351,275L351,277L351,278L350,279L349,279L345,279L344,280L343,280L342,281L342,282L340,286L339,287L339,288L340,289L342,290L343,290L344,291L344,292L344,293L347,294Z " data-fips="LI19" data-hasc="LR.GD" data-name="GrandGedeh" data-postal="GD" data-varname="Grand Gedeh"/><path d="M422,354L422,352L423,351L422,347L425,345L426,345L427,345L427,344L427,342L426,341L425,339L425,337L424,332L425,330L426,329L427,328L429,328L430,328L433,324L433,322L433,321L433,316L434,312L435,311L437,310L438,310L438,311L438,312L438,313L440,312L440,310L442,308L442,307L442,306L442,304L441,302L440,302L438,302L437,300L437,299L436,297L436,296L438,296L438,295L438,292L439,290L440,289L376,291L370,293L358,294L347,294L343,296L343,298L343,299L344,302L345,303L352,310L355,315L356,317L356,318L356,321L360,322L361,322L364,324L365,325L369,325L398,329L399,330L399,331L399,345L400,346L400,347L400,348L400,349L400,350L402,350L403,350L405,351L406,350L408,349L409,349L410,349L411,348L414,350L416,350L417,351L418,353L419,353L421,354L422,354L422,354Z " data-fips="LI22" data-hasc="LR.RG" data-name="River Gee" data-postal="RG" data-varname=""/><path d="M131,165L132,164L133,163L139,160L149,160L153,157L153,155L153,153L154,152L155,151L158,150L159,150L162,150L163,150L165,149L168,146L169,144L170,142L177,137L177,136L179,135L183,132L189,124L190,121L191,117L191,115L190,113L188,112L181,108L179,107L179,106L179,101L178,99L175,97L169,98L167,99L163,102L160,103L157,102L149,100L144,99L140,99L133,100L134,102L136,102L137,102L139,102L140,102L141,103L147,111L147,112L147,114L148,116L148,119L147,120L146,121L145,122L142,123L140,125L133,129L131,129L130,130L129,131L127,132L127,133L125,135L124,136L123,137L121,138L119,139L118,140L115,141L114,142L112,144L111,145L110,147L109,147L108,148L108,149L109,148L114,150L116,150L118,150L119,150L126,151L127,152L127,153L125,153L125,154L125,156L125,157L125,158L125,159L125,160L125,161L125,163L126,164L127,165L128,166Z " data-fips="LI21" data-hasc="LR.GP" data-name="Gbapolu" data-postal="GP" data-varname="Gbarpolu"/></g></svg>