<?xml version="1.0" ?><!DOCTYPE svg  PUBLIC '-//W3C//DTD SVG 1.1//EN'  'http://www.w3.org/Graphics/SVG/1.1/DTD/svg11.dtd'><svg enable_background="new 0 0 500 401" height="401px" style="stroke-linejoin: round; stroke:#000; fill:#f6f3f0;" version="1.1" viewBox="0 0 500 401" width="500px" xmlns="http://www.w3.org/2000/svg" xmlns:xlink="http://www.w3.org/1999/xlink"><defs><style type="text/css"><![CDATA[path { fill-rule: evenodd; }
#context path { fill: #eee; stroke: #bbb; } ]]></style></defs><metadata><views><view h="401" padding="0" w="500"><proj id="laea" lat0="17.35" lon0="-3.524"/><bbox h="183.14" w="195.7" x="895.79" y="905.43"/><llbbox lat0="-90" lat1="90" lon0="-180" lon1="180"/></view></views></metadata><g id="admin1"><path d="M337,267L342,266L342,266L341,257L340,254L339,249L338,247L338,246L337,241L337,236L337,233L336,225L337,222L337,220L337,217L335,216L333,216L326,215L315,214L313,214L313,213L313,212L312,208L310,201L312,200L325,194L330,191L331,162L329,160L317,150L301,137L319,127L331,117L347,103L352,84L240,6L232,1L189,0L190,17L191,19L191,29L200,121L202,148L210,229L217,234L212,255L212,255L216,254L218,253L220,251L222,253L223,253L226,253L230,253L234,254L240,252L242,250L245,250L248,247L250,247L252,247L253,249L255,251L255,253L256,256L259,256L261,256L262,255L264,254L265,253L265,251L265,250L267,248L269,248L271,246L272,245L273,246L273,247L276,247L279,246L281,248L283,250L284,252L287,257L288,259L290,261L292,261L295,260L300,258L304,258L306,257L308,258L311,257L316,259L319,260L321,262L324,264L335,267Z " data-fips="ML08" data-hasc="ML.TB" data-name="Timbuktu" data-postal="TB" data-varname="Timbouctou|Tombouctou|Timbuct|Timbuctu|Tombuktu|Tombuct|Tomboucto"/><path d="M400,193L404,187L429,186L448,186L462,185L461,154L441,159L438,159L437,159L435,157L434,156L433,156L432,155L433,153L433,152L434,151L434,150L435,149L436,148L435,147L435,146L434,145L434,144L434,143L434,137L433,136L432,136L431,135L427,134L420,132L419,132L416,132L414,131L413,131L412,129L411,128L410,127L408,125L407,126L406,127L405,127L402,126L401,126L400,126L400,125L399,125L398,125L394,122L394,120L393,118L392,117L390,116L389,116L388,116L387,115L386,115L385,113L384,113L383,114L382,114L381,113L381,112L382,109L382,106L381,104L352,84L347,103L331,117L319,127L301,137L317,150L329,160L331,162L355,169L363,178L368,184L385,197Z " data-fips="ML10" data-hasc="ML.KD" data-name="Kidal" data-postal="KD" data-varname=""/><path d="M361,268L365,269L366,269L369,268L373,270L374,269L375,269L379,269L381,268L388,261L390,260L433,257L433,256L434,255L435,255L446,256L446,253L449,251L451,249L451,248L454,248L454,247L455,246L455,245L456,244L456,242L456,241L458,239L457,238L457,236L460,230L461,229L462,228L462,227L462,217L462,216L462,212L463,212L462,185L448,186L429,186L404,187L400,193L385,197L368,184L363,178L355,169L331,162L330,191L325,194L312,200L310,201L312,208L313,212L313,213L313,214L315,214L326,215L333,216L335,216L337,217L337,220L337,222L336,225L337,233L337,236L337,241L338,246L338,247L339,249L340,254L341,257L342,266L342,266L343,267L344,268L345,269L346,268L348,267L349,267L351,267L355,269L361,271Z " data-fips="ML09" data-hasc="ML.GA" data-name="Gao" data-postal="GA" data-varname=""/><path d="M132,363L133,361L135,358L135,357L137,358L140,356L142,356L144,357L145,356L148,354L150,353L153,351L155,350L157,349L158,349L159,346L160,344L163,343L164,342L166,340L167,340L168,338L170,338L170,341L171,345L170,347L170,349L172,350L174,350L174,353L176,353L176,354L178,354L182,356L184,357L184,358L186,359L187,357L187,356L188,355L188,353L190,352L190,350L190,349L191,347L192,347L193,348L195,348L195,347L196,347L199,346L200,344L199,341L196,341L196,340L194,338L193,338L193,337L193,336L192,334L191,334L190,333L189,332L188,331L186,331L185,329L184,328L183,327L181,328L178,328L177,329L175,328L176,326L175,324L174,324L172,324L171,322L171,321L172,320L172,317L173,316L174,314L175,313L176,313L180,312L180,310L179,308L179,306L177,304L176,302L175,300L176,295L180,288L181,287L183,284L184,283L188,283L189,282L189,281L190,279L189,278L188,275L187,273L185,270L186,269L188,266L189,264L191,259L191,255L119,254L120,256L121,257L122,257L126,259L127,261L127,264L128,267L130,268L133,268L135,269L135,271L135,273L135,275L135,276L138,278L140,279L141,281L143,282L143,283L144,285L143,286L141,286L140,286L139,286L137,286L136,287L134,286L133,284L132,283L131,285L130,286L128,287L126,287L127,290L127,291L126,291L126,293L125,294L125,295L126,296L127,297L129,298L131,299L132,298L132,297L133,296L134,296L135,297L135,299L134,300L134,301L133,302L132,303L133,306L133,307L134,308L135,309L135,310L134,311L134,312L133,314L133,315L132,316L132,318L131,319L132,320L131,322L130,324L130,325L131,327L128,328L127,329L126,330L125,330L124,330L123,331L122,332L121,333L120,334L119,336L119,337L121,338L121,339L120,340L120,342L120,343L121,343L122,343L122,345L122,346L122,347L123,347L124,347L125,348L125,349L125,350L124,357L125,358L126,358L127,358L128,360L128,361L128,362L131,362L132,363Z " data-fips="ML07" data-hasc="ML.KK" data-name="Bamako" data-postal="KK" data-varname=""/><path d="M76,349L77,349L77,348L78,347L79,346L80,345L80,344L81,343L82,343L84,342L85,342L86,341L87,341L88,342L89,342L90,342L91,343L92,343L94,344L95,345L96,345L97,346L98,346L99,347L101,347L102,345L102,344L103,343L106,342L107,341L109,341L111,340L111,339L112,338L111,337L110,336L110,335L111,335L112,335L113,334L115,335L116,335L119,337L119,336L120,334L121,333L122,332L123,331L124,330L125,330L126,330L127,329L128,328L131,327L130,325L130,324L131,322L132,320L131,319L132,318L132,316L133,315L133,314L134,312L134,311L135,310L135,309L134,308L133,307L133,306L132,303L133,302L134,301L134,300L135,299L135,297L134,296L133,296L132,297L132,298L131,299L129,298L127,297L126,296L125,295L125,294L126,293L126,291L127,291L127,290L126,287L128,287L130,286L131,285L132,283L133,284L134,286L136,287L137,286L139,286L140,286L141,286L143,286L144,285L143,283L143,282L141,281L140,279L138,278L135,276L135,275L135,273L135,271L135,269L133,268L130,268L128,267L127,264L127,261L126,259L122,257L121,257L120,256L119,254L113,254L113,251L114,249L112,249L111,250L110,252L111,254L111,255L105,255L103,256L101,256L100,257L97,256L94,257L93,256L92,256L90,255L88,254L86,254L83,254L82,254L80,255L79,254L78,254L77,255L77,256L76,257L75,258L74,258L74,260L73,261L72,263L71,262L70,261L70,259L69,258L62,253L60,249L59,248L57,248L57,249L55,249L54,250L53,251L52,250L51,251L50,253L50,255L49,257L49,258L48,260L48,261L48,262L48,264L49,264L49,265L48,267L48,268L47,269L46,269L45,270L44,270L43,271L42,271L42,271L40,270L38,271L37,271L38,272L39,273L39,274L39,275L38,276L37,277L37,278L38,279L38,281L40,283L41,284L42,285L43,288L43,289L42,291L42,292L43,293L44,294L44,295L44,296L43,297L42,298L40,299L41,300L41,301L41,302L42,304L44,305L45,306L45,307L45,309L46,309L47,310L48,309L48,308L49,308L50,308L51,308L52,309L52,310L53,311L54,312L53,313L54,314L54,316L55,316L56,317L56,318L57,319L57,320L58,320L58,321L57,322L57,323L57,324L57,325L57,326L56,327L56,328L56,329L56,331L56,331L57,332L58,333L57,334L57,336L56,336L56,338L55,339L54,341L55,342L57,343L58,345L59,346L60,346L62,346L63,345L63,344L64,343L65,342L66,341L67,341L69,340L70,341L71,343L72,343L73,345L72,346L73,347L74,349L75,350Z " data-fips="ML03" data-hasc="ML.KY" data-name="Kayes" data-postal="KY" data-varname=""/><path d="M172,399L173,398L172,397L172,396L172,394L173,393L175,394L177,393L178,393L179,394L181,393L181,392L181,391L180,390L180,389L180,387L180,386L182,385L182,386L183,387L184,388L186,388L187,388L188,387L187,386L187,384L189,384L190,384L191,384L192,384L192,386L192,387L192,388L192,389L192,389L193,390L193,391L193,392L193,393L193,395L192,395L193,396L193,397L195,398L198,398L199,397L199,396L201,396L201,394L201,393L203,392L207,391L208,391L210,391L211,391L211,390L212,389L212,387L213,386L212,385L212,383L213,382L213,380L213,378L212,377L212,374L215,374L216,373L217,371L218,370L218,369L218,366L219,365L219,364L219,361L218,360L217,360L217,359L218,358L218,357L217,356L216,355L215,355L215,354L216,354L217,354L218,354L218,353L219,352L220,352L221,351L223,350L225,350L226,350L227,350L228,350L230,349L231,350L232,349L232,348L233,348L234,348L235,347L236,346L237,346L236,344L238,342L238,341L240,341L241,342L240,340L240,337L241,336L241,335L240,333L238,332L239,331L239,330L236,330L235,331L235,329L233,330L232,332L231,333L230,333L227,334L223,334L223,334L223,332L222,331L221,330L219,328L217,329L215,331L214,333L212,332L211,330L210,328L206,330L202,332L200,332L199,331L199,332L193,333L192,334L193,336L193,337L193,338L194,338L196,340L196,341L199,341L200,344L199,346L196,347L195,347L195,348L193,348L192,347L191,347L190,349L190,350L190,352L188,353L188,355L187,356L187,357L186,359L184,358L184,357L182,356L178,354L176,354L176,353L174,353L174,350L172,350L170,349L170,347L171,345L170,341L170,338L168,338L167,340L166,340L164,342L163,343L160,344L159,346L158,349L157,349L155,350L153,351L150,353L148,354L145,356L144,357L142,356L140,356L137,358L135,357L135,358L133,361L132,363L132,363L132,364L133,364L134,364L135,365L135,366L136,367L135,368L134,368L132,368L132,369L131,370L130,371L129,372L129,373L128,374L127,376L128,376L129,376L131,376L132,375L133,374L134,374L135,374L136,374L137,375L137,376L137,379L137,380L136,382L137,382L138,388L139,390L139,391L140,391L141,391L142,391L142,393L143,393L145,393L146,394L146,395L146,397L146,398L147,398L148,397L150,397L151,395L151,395L151,394L152,393L153,392L154,391L155,391L156,391L157,391L159,390L159,391L160,392L161,394L162,394L162,395L163,396L164,396L166,396L169,397L170,398L171,399Z " data-fips="ML06" data-hasc="ML.SK" data-name="Sikasso" data-postal="SK" data-varname=""/><path d="M266,318L266,317L266,316L271,315L270,308L271,307L271,305L270,304L271,304L273,305L274,305L275,306L276,307L277,306L278,306L280,305L280,303L279,301L280,300L281,296L282,295L286,292L288,290L290,289L292,288L294,289L300,292L301,292L303,291L303,284L304,283L306,283L308,283L310,283L311,283L320,277L321,276L326,275L327,274L328,274L334,269L335,267L324,264L321,262L319,260L316,259L311,257L308,258L306,257L304,258L300,258L295,260L292,261L290,261L288,259L287,257L284,252L283,250L281,248L279,246L276,247L273,247L273,246L272,245L271,246L269,248L267,248L265,250L265,251L265,253L264,254L262,255L261,256L259,256L256,256L255,253L255,251L253,249L252,247L250,247L248,247L245,250L242,250L240,252L234,254L230,253L226,253L223,253L222,253L220,251L218,253L216,254L217,256L220,256L221,256L222,259L223,264L222,265L220,268L218,270L216,270L212,271L211,271L211,273L210,275L210,276L210,278L209,280L208,282L212,284L217,287L218,288L220,291L220,295L220,296L222,297L224,297L228,297L229,297L229,298L229,299L228,301L229,302L228,304L228,306L229,307L231,306L232,306L234,306L235,307L236,307L238,306L240,306L241,306L242,304L244,300L247,298L249,298L250,300L251,304L253,307L252,310L252,310L253,311L252,312L253,313L254,313L255,313L257,314L259,315L260,316L262,318L263,318L264,318Z " data-fips="ML22" data-hasc="ML.MO" data-name="Mopti" data-postal="MO" data-varname=""/><path d="M193,333L199,332L199,331L200,332L202,332L206,330L210,328L211,330L212,332L214,333L215,331L217,329L219,328L221,330L222,331L223,332L223,334L223,334L227,334L230,333L231,333L232,332L233,330L235,329L235,331L236,330L239,330L239,331L239,331L241,330L242,330L244,331L245,330L246,328L245,327L246,325L245,324L244,323L243,321L242,320L242,319L243,318L245,318L245,317L245,316L246,316L247,315L248,314L248,313L249,312L251,311L252,311L252,310L253,307L251,304L250,300L249,298L247,298L244,300L242,304L241,306L240,306L238,306L236,307L235,307L234,306L232,306L231,306L229,307L228,306L228,304L229,302L228,301L229,299L229,298L229,297L228,297L224,297L222,297L220,296L220,295L220,291L218,288L217,287L212,284L208,282L209,280L210,278L210,276L210,275L211,273L211,271L212,271L216,270L218,270L220,268L222,265L223,264L222,259L221,256L220,256L217,256L216,254L212,255L212,255L212,256L191,255L191,259L189,264L188,266L186,269L185,270L187,273L188,275L189,278L190,279L189,281L189,282L188,283L184,283L183,284L181,287L180,288L176,295L175,300L176,302L177,304L179,306L179,308L180,310L180,312L176,313L175,313L174,314L173,316L172,317L172,320L171,321L171,322L172,324L174,324L175,324L176,326L175,328L177,329L178,328L181,328L183,327L184,328L185,329L186,331L188,331L189,332L190,333L191,334L192,334Z " data-fips="ML05" data-hasc="ML.SG" data-name="Sgou" data-postal="SG" data-varname=""/></g></svg>