<?xml version="1.0" ?><!DOCTYPE svg  PUBLIC '-//W3C//DTD SVG 1.1//EN'  'http://www.w3.org/Graphics/SVG/1.1/DTD/svg11.dtd'><svg enable_background="new 0 0 500 401" height="401px" style="stroke-linejoin: round; stroke:#000; fill:#f6f3f0;" version="1.1" viewBox="0 0 500 401" width="500px" xmlns="http://www.w3.org/2000/svg" xmlns:xlink="http://www.w3.org/1999/xlink"><defs><style type="text/css"><![CDATA[path { fill-rule: evenodd; }
#context path { fill: #eee; stroke: #bbb; } ]]></style></defs><metadata><views><view h="401" padding="0" w="500"><proj id="laea" lat0="20.26" lon0="-10.332"/><bbox h="154.81" w="139.42" x="922.23" y="913.25"/><llbbox lat0="-90" lat1="90" lon0="-180" lon1="180"/></view></views></metadata><g id="admin1"><path d="M257,183L382,95L381,92L379,72L430,70L409,57L317,0L317,41L223,41L222,120L221,122L218,123L212,126L211,126L206,127L204,127L192,136L189,139L188,141L188,144L188,146L189,150L190,152L190,168L191,181L192,181L210,188Z " data-fips="MR11" data-hasc="MR.TZ" data-name="Tiris Zemmour" data-postal="TZ" data-varname=""/><path d="M166,353L167,352L167,353L168,353L169,352L170,350L170,349L171,348L184,345L184,344L185,342L186,340L189,340L192,339L192,337L193,336L193,334L195,332L195,331L195,330L195,329L196,328L198,325L199,324L201,324L202,324L203,323L204,323L206,321L207,320L208,320L210,319L211,318L208,316L204,311L205,300L205,295L206,286L176,295L168,301L161,307L150,323L142,329L141,329L140,330L138,331L134,333L130,336L131,337L132,337L138,337L139,337L141,337L142,337L144,337L145,337L147,337L149,338L149,339L151,339L151,340L152,341L153,341L154,342L155,343L157,345L158,346L159,347L160,348L160,349L160,350L160,351L161,351L162,352L163,353L163,354L165,354Z " data-fips="MR05" data-hasc="MR.BR" data-name="Brakna" data-postal="BR" data-varname=""/><path d="M89,239L90,237L91,233L91,233L89,234L88,236L88,237L87,238L87,239L88,240L88,241Z M88,246L88,245L89,244L90,243L89,246L90,245L92,244L92,245L91,246L91,246L92,245L94,242L115,206L107,192L153,188L74,186L73,191L72,195L71,196L70,200L71,203L72,202L72,201L72,200L72,199L73,198L73,197L73,196L73,194L74,193L76,191L76,193L77,194L77,195L78,196L78,197L79,198L80,199L80,201L81,203L81,204L82,205L83,206L82,207L84,208L84,209L85,210L86,211L86,209L86,206L87,205L88,206L88,207L90,207L88,208L89,208L90,209L90,210L91,213L91,215L92,216L93,218L94,219L95,219L96,221L96,222L95,223L95,224L94,225L95,228L94,229L92,231L93,232L93,231L94,232L94,233L94,234L94,235L93,236L93,238L89,242L88,243L88,244L87,246L87,247L88,247Z " data-fips="MR08" data-hasc="MR.DN" data-name="Dakhlet Nouadhibou" data-postal="DN" data-varname="Dakhlet Noudhibou|Baie du Lvrier|Lvrier Bay"/><path d="M154,254L154,249L157,195L107,192L115,206L94,242L92,245L91,246L91,246L90,247L89,248L87,248L85,248L86,249L86,250L87,252L88,253L90,253L90,254L92,256L93,259L94,261L153,262L154,262Z " data-fips="MR12" data-hasc="MR.IN" data-name="Inchiri" data-postal="IN" data-varname=""/><path d="M106,288L106,280L98,280L98,288L99,294L98,296L106,296Z " data-fips="MR06" data-hasc="MR.NO" data-name="Nouakchott" data-postal="NO" data-varname=""/><path d="M81,361L82,359L82,355L83,354L83,352L83,350L84,349L85,349L86,348L87,343L88,341L89,340L90,339L92,339L93,339L94,338L95,339L96,340L97,341L98,340L99,340L101,340L102,340L104,340L105,341L106,341L107,341L109,341L110,340L112,340L113,340L113,339L115,338L115,339L117,339L118,339L119,339L121,339L125,338L126,338L125,336L126,336L127,337L128,337L128,336L129,335L130,336L134,333L138,331L140,330L141,329L142,329L150,323L161,307L168,301L176,295L183,263L154,262L153,262L94,261L94,261L95,266L95,267L95,268L96,272L97,276L98,277L98,280L106,280L106,288L106,296L98,296L98,299L98,303L97,307L93,316L93,317L90,323L88,325L88,326L87,328L87,329L84,335L84,337L84,340L83,341L83,343L82,345L81,347L81,354L81,356L81,362Z " data-fips="MR06" data-hasc="MR.TR" data-name="Trarza" data-postal="TR" data-varname=""/><path d="M254,385L255,383L256,382L257,381L258,380L258,379L258,378L259,377L261,377L263,377L261,361L260,360L257,357L258,356L258,354L258,353L257,352L256,352L256,350L255,348L256,347L256,346L256,345L255,345L255,344L256,344L257,343L258,342L259,341L259,340L258,340L257,340L256,340L255,340L255,339L254,338L254,336L253,335L252,334L251,333L251,332L251,331L251,330L251,328L251,323L250,322L251,319L251,318L251,317L251,316L251,315L249,311L248,307L248,306L248,305L248,304L251,286L250,286L247,287L246,288L246,289L245,290L245,290L244,292L243,292L241,293L240,293L239,293L236,293L236,294L234,294L234,295L233,296L233,297L233,298L234,299L235,301L236,303L237,304L238,306L238,307L237,308L236,309L235,309L236,310L236,311L235,311L236,313L235,315L234,319L234,321L233,323L228,323L223,324L218,323L214,321L211,318L210,319L208,320L207,320L206,321L204,323L203,323L202,324L201,324L199,324L198,325L196,328L195,329L195,330L195,331L196,332L195,334L195,335L194,336L195,338L196,338L197,340L197,341L197,342L196,343L197,344L198,344L200,343L206,344L207,345L207,346L207,348L207,349L207,352L208,352L209,351L210,351L211,351L212,352L213,355L214,355L215,355L217,355L218,357L219,357L219,359L220,361L221,361L222,362L223,362L225,362L225,361L226,360L225,358L226,357L226,358L228,358L230,358L232,359L235,360L234,361L233,362L233,363L232,365L232,366L230,368L230,369L230,371L229,372L229,374L229,374L231,374L231,373L233,372L234,371L234,370L237,371L238,372L241,376L249,382L250,383L251,385L252,386L253,387Z " data-fips="MR03" data-hasc="MR.AS" data-name="Assaba" data-postal="AS" data-varname="Aaba|el-`Aba"/><path d="M218,398L219,398L220,398L221,396L223,396L224,395L225,394L225,393L225,392L225,391L225,389L224,389L224,388L224,386L224,385L225,383L225,381L226,379L227,377L227,376L228,375L229,374L229,372L230,371L230,369L230,368L232,366L232,365L233,363L233,362L234,361L235,360L232,359L230,358L228,358L226,358L226,357L225,358L226,360L225,361L225,362L223,362L222,362L221,361L220,361L217,361L215,362L214,362L212,363L211,364L211,365L205,370L205,371L204,372L203,373L202,375L199,380L198,382L197,386L197,387L199,387L200,387L201,388L203,389L204,390L205,390L206,394L208,395L210,396L212,398L213,398L214,397L216,398L217,399Z " data-fips="MR10" data-hasc="MR.GD" data-name="Guidimaka" data-postal="GD" data-varname="Guidimagha|Guidimakha"/><path d="M198,382L199,380L202,375L203,373L204,372L205,371L205,370L211,365L211,364L212,363L214,362L215,362L217,361L220,361L219,359L219,357L218,357L217,355L215,355L214,355L213,355L212,352L211,351L210,351L209,351L208,352L207,352L207,349L207,348L207,346L207,345L206,344L200,343L198,344L197,344L196,343L197,342L197,341L197,340L196,338L195,338L194,336L195,335L195,334L196,332L195,331L195,332L193,334L193,336L192,337L192,339L189,340L186,340L185,342L184,344L184,345L171,348L170,349L170,350L169,352L168,353L167,353L167,353L168,354L169,355L170,354L171,354L172,354L173,353L174,354L174,355L175,355L176,356L177,357L177,358L178,359L179,360L179,361L180,362L180,363L180,365L181,366L182,367L182,368L181,369L182,370L184,370L185,371L186,371L186,372L186,374L186,375L188,374L190,374L190,375L191,376L191,377L191,378L192,379L194,381L193,382L192,382L194,383L195,383L196,384L196,386L197,386Z " data-fips="MR04" data-hasc="MR.GO" data-name="Gorgol" data-postal="GO" data-varname=""/><path d="M210,266L224,258L230,253L237,257L237,256L239,250L250,241L341,240L341,239L386,132L387,131L383,106L382,95L257,183L210,188L192,181L191,181L191,184L191,189L153,188L157,195L154,249L154,254L154,262L183,263L207,270Z " data-fips="MR07" data-hasc="MR.AD" data-name="Adrar" data-postal="AD" data-varname=""/><path d="M419,373L422,346L415,341L414,340L402,246L398,214L387,131L386,132L341,239L341,240L323,316L328,320L333,326L326,334L321,340L319,342L315,346L315,349L309,357L311,360L312,363L313,374L312,375Z " data-fips="MR01" data-hasc="MR.HC" data-name="Hodh ech Chargui" data-postal="HC" data-varname="Eastern Hodh|Hodh Charghi|Hodh Oriental"/><path d="M282,379L286,379L287,379L290,377L291,377L299,377L298,375L298,373L298,371L300,369L301,369L301,370L301,372L301,375L312,375L313,374L312,363L311,360L309,357L315,349L315,346L319,342L321,340L326,334L333,326L328,320L323,316L289,310L271,311L258,307L248,304L248,305L248,306L248,307L249,311L251,315L251,316L251,317L251,318L251,319L250,322L251,323L251,328L251,330L251,331L251,332L251,333L252,334L253,335L254,336L254,338L255,339L255,340L256,340L257,340L258,340L259,340L259,341L258,342L257,343L256,344L255,344L255,345L256,345L256,346L256,347L255,348L256,350L256,352L257,352L258,353L258,354L258,356L257,357L260,360L261,361L263,377L265,377L266,377L270,377L271,377L274,378L276,378L278,379L279,379Z " data-fips="MR02" data-hasc="MR.HG" data-name="Hodh el Gharbi" data-postal="HG" data-varname="Hodh Occidental|Western Hodh"/><path d="M228,323L233,323L234,321L234,319L235,315L236,313L235,311L236,311L236,310L235,309L236,309L237,308L238,307L238,306L237,304L236,303L235,301L234,299L233,298L233,297L233,296L234,295L234,294L236,294L236,293L239,293L240,293L241,293L243,292L244,292L245,290L245,290L246,289L246,288L247,287L250,286L251,286L248,304L258,307L271,311L289,310L341,240L250,241L239,250L237,256L237,257L230,253L224,258L210,266L207,270L206,286L205,295L205,300L204,311L208,316L211,318L214,321L218,323L223,324Z " data-fips="MR09" data-hasc="MR.TG" data-name="Tagant" data-postal="TG" data-varname=""/></g></svg>