<?xml version="1.0" ?><!DOCTYPE svg  PUBLIC '-//W3C//DTD SVG 1.1//EN'  'http://www.w3.org/Graphics/SVG/1.1/DTD/svg11.dtd'><svg enable_background="new 0 0 500 401" height="401px" style="stroke-linejoin: round; stroke:#000; fill:#f6f3f0;" version="1.1" viewBox="0 0 500 401" width="500px" xmlns="http://www.w3.org/2000/svg" xmlns:xlink="http://www.w3.org/1999/xlink"><defs><style type="text/css"><![CDATA[path { fill-rule: evenodd; }
#context path { fill: #eee; stroke: #bbb; } ]]></style></defs><metadata><views><view h="401" padding="0" w="500"><proj id="laea" lat0="17.426" lon0="9.398"/><bbox h="145.06" w="186.35" x="889.67" y="924.64"/><llbbox lat0="-90" lat1="90" lon0="-180" lon1="180"/></view></views></metadata><g id="admin1"><path d="M222,353L223,352L226,349L229,350L230,350L231,350L236,347L243,343L244,342L245,342L253,343L255,344L255,345L256,345L258,346L259,347L259,346L261,343L261,342L260,336L261,333L260,333L259,332L258,331L258,330L259,329L268,324L268,323L268,322L268,320L268,319L268,317L267,316L263,313L263,311L262,310L260,310L258,308L257,307L256,307L255,306L254,306L253,305L251,303L250,303L248,303L246,306L244,306L242,305L242,304L242,300L241,299L238,297L237,296L236,294L235,292L234,287L234,286L232,283L232,278L232,277L230,276L223,272L222,272L209,273L204,289L204,291L202,306L202,308L203,310L204,312L204,313L204,314L204,318L203,319L201,319L200,320L198,322L197,323L198,325L197,326L196,327L196,328L196,331L196,331L198,332L203,337L208,342L211,349L213,351L215,352L216,353L217,353L218,353L220,353Z " data-fips="NG04" data-hasc="NE.MA" data-name="Maradi" data-postal="MA" data-varname=""/><path d="M304,359L310,353L311,351L312,350L313,349L314,348L319,345L321,345L336,341L336,341L335,337L335,336L341,329L342,328L342,327L355,315L356,314L357,315L358,315L364,313L373,307L377,307L379,305L377,305L376,303L376,302L377,301L378,300L379,300L367,208L355,217L345,220L294,254L282,259L269,266L263,268L262,268L256,268L254,268L252,269L247,269L234,267L232,269L230,276L232,277L232,278L232,283L234,286L234,287L235,292L236,294L237,296L238,297L241,299L242,300L242,304L242,305L244,306L246,306L248,303L250,303L251,303L253,305L254,306L255,306L256,307L257,307L258,308L260,310L262,310L263,311L263,313L267,316L268,317L268,319L268,320L268,322L268,323L268,324L259,329L258,330L258,331L259,332L260,333L261,333L260,336L261,342L261,343L259,346L259,347L260,347L261,348L264,351L265,351L266,351L268,351L270,353L272,355L273,356L281,359L292,360L293,360L295,359L303,360Z " data-fips="NG07" data-hasc="NE.ZI" data-name="Zinder" data-postal="ZI" data-varname=""/><path d="M109,393L110,392L110,391L109,390L108,389L108,387L109,386L110,385L110,383L109,381L109,380L110,375L110,367L117,361L119,359L125,351L126,344L126,336L129,336L130,335L135,330L137,329L139,329L142,328L141,322L138,317L137,305L136,304L134,299L133,298L131,297L131,301L130,302L128,302L128,303L127,304L124,305L122,305L121,306L117,309L116,311L114,316L114,318L107,323L106,324L100,326L97,324L96,324L95,326L94,329L93,330L93,330L90,331L88,333L87,333L86,333L86,335L86,336L86,337L86,339L85,340L84,341L83,341L82,341L80,341L77,343L76,343L75,343L74,343L73,344L73,345L75,350L80,351L81,352L80,352L79,353L78,354L77,355L77,356L77,359L77,360L77,361L77,364L77,365L77,366L79,366L80,366L80,367L81,369L82,369L84,370L86,372L86,372L87,373L88,374L89,374L90,375L91,377L96,383L97,384L97,385L99,387L100,388L101,387L102,388L103,389L105,390L107,392L107,393L108,394Z " data-fips="NG03" data-hasc="NE.DS" data-name="Dosso" data-postal="DS" data-varname=""/><path d="M68,385L69,384L70,384L71,383L70,382L69,381L68,378L68,376L69,375L70,375L71,375L72,374L73,374L74,374L74,374L76,374L77,373L78,373L79,373L79,372L81,371L82,371L83,371L84,370L82,369L81,369L80,367L80,366L79,366L77,366L77,365L77,364L77,361L77,360L77,359L77,356L77,355L78,354L79,353L80,352L81,352L80,351L75,350L73,345L73,344L74,343L75,343L76,343L77,343L80,341L82,341L83,341L84,341L85,340L86,339L86,337L86,336L86,335L86,333L87,333L88,333L90,331L93,330L93,330L94,329L95,326L96,324L97,324L100,326L106,324L107,323L114,318L114,316L116,311L117,309L121,306L122,305L124,305L127,304L128,303L128,302L130,302L131,301L131,297L127,288L127,287L127,282L120,262L120,261L120,261L119,262L118,263L115,263L114,264L112,267L108,269L107,273L94,270L92,270L92,271L92,273L39,273L37,273L37,273L27,282L25,282L20,282L18,283L17,283L12,281L11,281L9,282L8,282L7,282L3,281L2,282L3,284L2,285L1,287L2,288L2,290L0,296L0,297L1,299L6,304L7,306L7,307L6,308L5,310L6,311L7,312L6,313L7,314L8,315L9,316L9,317L9,318L10,319L11,320L12,321L12,321L13,323L13,324L14,325L18,326L19,327L20,327L21,327L23,327L24,329L26,330L26,332L26,333L27,333L31,335L33,336L34,337L33,337L31,337L30,338L28,337L25,336L25,337L24,346L25,347L26,347L28,348L29,348L42,360L43,361L44,361L51,362L52,362L53,361L54,359L55,359L56,358L59,359L61,359L61,360L62,361L63,362L63,363L64,365L64,367L65,368L64,369L62,369L61,369L59,370L58,371L59,372L67,385L69,386Z " data-fips="NG09" data-hasc="NE.NI" data-name="Niamey" data-postal="I" data-varname=""/><path d="M193,331L194,330L196,331L196,328L196,327L197,326L198,325L197,323L198,322L200,320L201,319L203,319L204,318L204,314L204,313L204,312L203,310L202,308L202,306L204,291L204,289L209,273L207,254L208,248L208,247L202,245L199,243L199,242L192,225L189,221L182,216L166,205L164,204L160,198L155,193L154,192L153,188L150,188L149,187L148,186L148,185L149,183L149,179L149,178L149,177L149,176L149,175L154,166L151,165L134,164L133,219L132,220L131,221L131,224L131,225L130,238L130,239L128,241L126,242L123,249L123,251L124,252L122,254L121,256L121,259L120,260L120,261L120,262L127,282L127,287L127,288L131,297L133,298L134,299L136,304L137,305L138,317L141,322L142,328L149,326L151,327L152,328L154,328L157,327L162,328L164,327L165,326L166,324L167,324L171,323L172,324L191,331L192,331Z " data-fips="NG06" data-hasc="NE.TH" data-name="Tahoua" data-postal="TH" data-varname=""/><path d="M396,350L396,348L398,347L398,346L398,345L399,344L400,343L401,343L402,343L403,342L404,342L405,341L406,339L407,339L408,337L407,336L408,336L410,336L413,335L415,334L415,335L417,335L419,335L419,333L420,332L421,331L422,330L422,329L424,329L431,329L427,311L426,307L426,305L428,303L429,302L430,302L431,302L433,301L433,300L432,298L433,297L434,296L435,295L436,295L436,294L435,292L436,290L438,285L454,261L458,257L488,222L488,221L490,185L490,185L409,187L386,199L379,203L379,300L378,300L377,301L376,302L376,303L377,305L379,305L377,307L373,307L364,313L358,315L357,315L356,314L355,315L342,327L342,328L341,329L335,336L335,337L336,341L336,341L337,341L340,341L346,341L362,341L372,344L375,345L380,348L382,349L384,350L385,349L386,349L388,349L389,350L390,350L391,350L393,350L395,351Z " data-fips="NG02" data-hasc="NE.DF" data-name="Diffa" data-postal="DF" data-varname=""/><path d="M232,269L234,267L247,269L252,269L254,268L256,268L262,268L263,268L269,266L282,259L294,254L345,220L355,217L367,208L379,203L386,199L409,187L490,185L490,185L493,122L494,119L500,107L499,106L490,96L487,94L486,92L486,91L486,89L487,88L488,87L478,72L476,71L475,70L474,69L473,53L466,20L443,33L424,17L420,15L374,5L237,93L222,105L221,106L185,138L184,139L182,139L158,144L134,148L134,164L151,165L154,166L149,175L149,176L149,177L149,178L149,179L149,183L148,185L148,186L149,187L150,188L153,188L154,192L155,193L160,198L164,204L166,205L182,216L189,221L192,225L199,242L199,243L202,245L208,247L208,248L207,254L209,273L222,272L223,272L230,276Z " data-fips="NG01" data-hasc="NE.AG" data-name="Agadez" data-postal="AG" data-varname="Agads"/></g></svg>