<?xml version="1.0" ?><!DOCTYPE svg  PUBLIC '-//W3C//DTD SVG 1.1//EN'  'http://www.w3.org/Graphics/SVG/1.1/DTD/svg11.dtd'><svg enable_background="new 0 0 500 401" height="401px" style="stroke-linejoin: round; stroke:#000; fill:#f6f3f0;" version="1.1" viewBox="0 0 500 401" width="500px" xmlns="http://www.w3.org/2000/svg" xmlns:xlink="http://www.w3.org/1999/xlink"><defs><style type="text/css"><![CDATA[path { fill-rule: evenodd; }
#context path { fill: #eee; stroke: #bbb; } ]]></style></defs><metadata><views><view h="401" padding="0" w="500"><proj id="laea" lat0="9.594" lon0="8.105"/><bbox h="118.61" w="145.58" x="933.59" y="946.98"/><llbbox lat0="-90" lat1="90" lon0="-180" lon1="180"/></view></views></metadata><g id="admin1"><path d="M397,155L401,150L404,148L407,147L410,147L413,145L414,144L415,142L416,142L417,142L420,139L422,137L425,136L429,136L431,138L434,140L436,141L439,142L441,140L442,135L444,129L445,126L445,124L445,121L447,121L448,121L449,122L450,122L456,121L459,120L459,120L459,117L460,116L461,115L462,114L462,113L463,111L465,109L466,108L468,106L469,106L471,107L473,108L475,108L477,107L478,105L480,105L483,102L484,101L487,100L489,98L490,98L492,97L493,96L493,95L494,93L494,92L493,90L492,89L491,89L490,88L492,85L493,81L493,79L493,77L492,75L493,74L494,71L494,70L495,68L494,68L493,68L492,67L491,66L490,65L488,63L488,62L487,62L485,61L476,61L475,61L475,60L475,58L475,57L475,57L473,57L470,58L469,57L468,58L467,56L467,55L466,54L465,53L464,52L462,52L462,51L461,51L461,50L459,49L459,48L459,47L459,46L459,44L460,44L459,43L458,42L460,42L458,41L459,39L459,38L458,36L460,33L460,32L461,32L462,31L461,30L462,29L461,29L457,32L455,33L455,31L455,30L454,30L453,29L450,28L449,26L446,23L445,20L442,19L443,17L443,16L441,11L441,10L441,8L441,7L441,6L439,6L438,7L436,10L436,11L436,12L435,13L434,13L433,13L432,14L432,13L430,13L429,13L428,13L427,13L424,15L423,15L421,15L420,16L420,17L419,19L418,19L418,20L417,20L415,22L414,23L413,24L412,23L411,23L411,24L410,24L409,26L408,28L408,29L407,30L406,30L406,33L405,33L403,33L402,33L402,33L401,41L402,43L403,45L406,47L406,49L405,52L403,54L399,59L400,65L398,79L399,83L399,85L397,90L396,91L398,92L399,91L401,92L402,93L403,95L403,96L399,102L397,105L396,106L395,107L395,111L395,114L394,117L392,119L382,122L380,125L379,128L379,132L379,133L378,135L377,136L376,140L373,145L373,146L374,148L375,150L377,151L378,152L380,153L383,157L386,159L392,159Z " data-fips="NI27" data-hasc="NG.BO" data-name="Borno" data-postal="BO" data-varname=""/><path d="M473,57L475,57L475,57L475,57L475,53L470,31L451,6L441,6L441,7L441,8L441,10L441,11L443,16L443,17L442,19L445,20L446,23L449,26L450,28L453,29L454,30L455,30L455,31L455,33L457,32L461,29L462,29L461,30L462,31L461,32L460,32L460,33L458,36L459,38L459,39L458,41L460,42L458,42L459,43L460,44L459,44L459,46L459,47L459,48L459,49L461,50L461,51L462,51L462,52L464,52L465,53L466,54L467,55L467,56L468,58L469,57L470,58Z " data-fips="CD07" data-hasc="" data-name="Water body" data-postal="" data-varname=""/><path d="M203,375L202,373L203,372L202,370L203,368L204,367L204,365L204,363L204,361L205,358L205,356L206,356L209,356L210,355L210,354L209,353L210,351L209,348L210,347L212,347L214,349L215,351L218,352L222,354L222,353L220,349L219,345L220,342L219,340L218,340L216,339L216,338L215,336L213,335L207,335L205,334L205,331L202,327L200,327L195,328L193,331L194,331L196,332L197,333L199,334L199,339L199,341L199,342L199,343L199,344L200,345L200,346L199,347L199,348L198,349L198,350L196,352L194,362L194,364L190,371L190,374L192,375L195,374L197,374L198,375L201,375L203,377Z " data-fips="NI45" data-hasc="NG.AB" data-name="Abia" data-postal="AB" data-varname=""/><path d="M214,389L213,389L214,389L222,388L224,388L226,387L228,388L232,388L234,388L237,388L238,386L239,385L238,383L237,382L238,381L237,380L237,378L236,378L235,377L230,372L228,370L227,368L226,365L227,360L226,359L224,358L223,358L221,358L219,357L219,355L218,352L215,351L214,349L212,347L210,347L209,348L210,351L209,353L210,354L210,355L209,356L206,356L205,356L205,358L204,361L204,363L204,365L204,367L203,368L202,370L203,372L202,373L203,375L203,377L204,378L205,379L205,381L206,381L205,383L205,384L205,385L206,387L205,388L206,389L210,389L211,390L212,390Z " data-fips="NI21" data-hasc="NG.AK" data-name="Akwa Ibom" data-postal="AK" data-varname=""/><path d="M192,361L196,352L198,350L198,349L199,348L199,347L200,346L200,345L199,344L199,343L199,342L199,341L199,339L199,334L197,333L196,332L194,331L193,331L192,331L190,331L186,331L184,331L182,331L181,332L180,334L179,337L177,338L175,337L172,338L169,340L169,342L168,349L169,349L171,349L172,351L172,353L171,355L172,357L173,358L177,361L183,361L189,361L191,361Z " data-fips="NI28" data-hasc="NG.IM" data-name="Imo" data-postal="IM" data-varname=""/><path d="M204,392L206,391L207,390L204,390L203,391L201,391L200,390L198,390L197,391L198,392L201,392Z M194,394L195,393L196,392L196,391L196,390L193,390L192,388L192,389L191,390L190,392L189,393L189,394L190,395Z M175,396L176,396L177,395L176,394L176,392L175,391L175,386L176,385L175,384L174,383L173,382L173,381L173,379L172,378L171,377L171,376L173,376L174,377L173,378L173,379L174,382L175,383L176,384L176,386L176,387L175,388L175,389L176,390L177,392L177,393L178,394L180,394L181,394L182,395L184,394L183,393L182,389L182,387L181,386L180,387L180,385L180,384L179,383L179,382L180,384L181,385L182,385L181,383L181,382L181,380L182,382L183,381L183,382L184,384L184,385L183,386L183,387L184,388L184,390L184,391L185,392L186,392L185,391L186,389L186,391L187,391L189,391L190,390L190,388L189,387L190,387L190,385L189,384L188,383L186,382L186,381L185,380L186,380L187,382L188,383L190,383L191,385L193,388L194,390L196,389L196,388L195,388L194,387L194,386L195,385L196,386L197,386L198,387L199,387L201,387L202,387L203,387L204,386L205,386L204,385L204,383L204,382L205,381L205,379L204,378L203,377L201,375L198,375L197,374L195,374L192,375L190,374L190,371L194,364L194,362L192,361L191,361L189,361L183,361L177,361L173,358L172,357L171,355L172,353L172,351L171,349L169,349L168,349L169,342L169,340L168,340L166,344L165,346L164,348L164,349L163,349L162,350L161,351L162,353L166,353L167,355L167,356L166,356L165,357L164,359L163,360L162,360L161,362L161,364L160,365L159,366L159,367L159,369L160,370L159,371L159,372L158,373L157,375L157,376L158,378L160,378L160,379L160,381L161,380L165,379L167,381L168,382L168,384L169,385L171,386L172,385L172,387L171,390L171,392L171,393L171,396L172,396L173,396Z " data-fips="NI50" data-hasc="NG.RI" data-name="Rivers" data-postal="RI" data-varname=""/><path d="M147,398L148,399L149,399L151,398L149,397L150,397L151,395L151,394L150,392L151,393L151,392L151,390L152,392L152,394L154,392L155,392L152,395L152,397L153,398L155,398L157,397L158,397L158,396L159,396L160,397L163,397L165,396L165,395L166,393L166,392L165,390L164,389L165,389L166,390L166,392L166,394L166,395L167,397L168,397L169,397L170,395L169,393L169,392L168,389L170,389L170,391L170,392L170,391L170,390L170,388L171,386L169,385L168,384L168,382L167,381L165,379L161,380L160,381L160,379L160,378L158,378L157,376L157,375L158,373L159,372L159,371L160,370L159,369L159,367L159,366L160,365L161,364L161,362L162,360L163,360L164,359L165,357L166,356L167,356L167,355L166,353L162,353L161,354L155,355L154,356L154,357L153,358L150,358L150,359L150,360L150,361L149,362L148,363L147,363L145,362L144,364L142,364L141,363L139,362L137,364L136,365L135,365L133,365L132,366L130,367L129,368L128,368L126,367L124,366L122,365L120,364L119,363L119,364L118,363L117,363L116,363L116,364L117,365L117,366L118,368L118,370L119,373L121,375L121,376L120,375L121,377L122,379L123,380L123,382L125,384L129,388L130,389L132,390L132,391L134,392L135,393L136,392L135,393L136,394L138,395L138,396L140,396L140,395L139,394L140,394L141,393L141,395L141,396L142,397L143,398L144,397L143,396L143,395L143,394L144,393L145,393L145,394L146,395L145,396L145,398L145,399Z " data-fips="NI52" data-hasc="NG.BY" data-name="Bayelsa" data-postal="BY" data-varname=""/><path d="M287,309L289,308L290,306L292,306L292,306L293,302L294,295L293,292L295,285L296,282L298,280L300,279L301,277L302,272L303,267L301,263L297,259L294,254L289,251L283,250L276,250L275,251L272,252L271,252L270,251L272,248L264,242L263,243L258,242L255,242L247,239L242,240L239,242L239,244L240,247L242,252L242,253L241,254L240,253L239,253L237,252L236,251L235,250L234,250L232,250L230,248L229,248L225,247L223,246L222,246L219,245L217,245L215,244L213,244L211,243L210,246L210,248L211,250L212,252L213,253L214,255L214,256L214,261L215,266L215,268L217,268L218,268L219,269L218,270L218,271L218,273L217,276L215,279L210,282L209,284L209,285L208,286L207,285L205,284L204,285L205,288L206,289L208,291L209,292L211,292L213,292L214,291L215,291L217,292L218,293L219,295L219,297L217,301L218,304L221,306L223,304L224,300L224,299L226,298L228,298L229,298L231,296L233,296L233,295L234,295L235,297L235,298L238,299L239,299L240,297L241,297L243,297L244,297L246,297L248,296L249,296L250,294L250,293L250,292L253,291L256,291L259,292L264,295L265,297L264,299L265,300L266,300L269,300L275,299L279,301L284,307L285,309L286,310Z " data-fips="NI26" data-hasc="NG.BE" data-name="Benue" data-postal="BE" data-varname=""/><path d="M246,381L247,380L246,379L247,378L247,377L248,376L250,376L249,375L249,373L250,373L251,372L252,369L253,367L254,365L255,364L257,363L257,362L258,356L258,355L258,354L259,351L259,349L259,348L260,347L261,346L261,345L262,344L261,343L260,342L259,342L259,341L258,340L259,339L260,338L260,337L259,335L260,334L261,333L262,331L264,332L265,331L265,330L266,329L267,328L271,324L277,319L278,318L280,314L281,314L282,314L283,313L284,311L286,310L285,309L284,307L279,301L275,299L269,300L266,300L265,300L264,299L265,297L264,295L259,292L256,291L253,291L250,292L250,293L250,294L249,296L248,296L246,297L244,297L243,297L241,297L240,297L239,299L238,299L237,302L239,304L240,305L241,306L241,307L241,308L242,310L242,311L240,312L239,314L240,315L240,318L238,320L237,321L236,323L235,326L234,327L233,326L232,326L232,327L231,328L229,329L228,330L227,330L226,328L225,327L223,328L223,329L223,330L223,332L221,334L221,336L220,338L220,338L219,339L219,340L220,342L219,345L220,349L222,353L222,354L219,355L219,357L221,358L223,358L224,358L226,359L227,360L226,365L227,368L228,370L230,372L235,377L236,378L237,378L236,378L236,377L235,376L235,374L234,372L232,370L233,371L234,371L235,373L236,373L237,374L237,375L238,376L239,377L240,377L241,377L242,375L241,377L241,378L241,379L243,380L244,380L244,381L245,381Z " data-fips="NI22" data-hasc="NG.CR" data-name="Cross River" data-postal="CR" data-varname=""/><path d="M356,309L358,309L359,309L360,309L361,309L362,309L363,308L364,306L365,305L365,303L366,302L368,302L369,301L370,300L371,297L371,296L371,294L370,293L370,292L371,290L374,288L376,286L377,286L378,285L379,285L379,284L382,282L383,282L384,282L384,281L384,280L382,278L379,275L378,274L379,273L380,273L382,269L385,266L385,266L384,264L383,262L383,259L383,257L381,252L377,248L376,247L374,246L373,247L372,248L371,249L370,250L369,250L368,249L366,246L364,241L365,240L367,237L369,235L380,222L383,220L383,218L383,217L383,214L387,205L387,203L385,201L382,199L381,197L381,195L381,194L381,193L380,191L379,189L376,186L375,186L373,186L372,185L369,178L354,178L350,178L347,178L344,178L341,178L336,180L331,181L330,184L330,186L330,189L330,192L331,193L331,194L333,198L333,199L332,201L333,203L333,205L332,208L325,211L316,213L314,216L313,217L311,220L310,221L307,222L304,224L302,227L299,229L296,230L293,230L291,230L289,232L288,233L287,233L285,233L284,232L283,232L282,232L280,231L279,231L278,232L278,233L278,235L280,237L280,239L280,241L281,242L280,243L274,247L272,248L270,251L271,252L272,252L275,251L276,250L283,250L289,251L294,254L297,259L301,263L303,267L302,272L301,277L300,279L298,280L296,282L295,285L293,292L294,295L293,302L292,306L292,306L294,305L297,295L299,294L301,295L301,295L312,286L313,285L313,286L314,290L315,291L316,291L327,290L328,289L329,288L329,284L329,283L330,281L330,280L331,281L332,284L333,284L336,286L340,287L341,288L342,290L342,291L343,293L344,295L348,295L349,296L350,298L350,300L350,302L350,303L351,306L353,309L354,309Z " data-fips="NI43" data-hasc="NG.TA" data-name="Taraba" data-postal="TA" data-varname=""/><path d="M115,245L116,244L116,243L117,242L119,241L123,241L123,239L120,237L118,235L117,233L115,231L116,230L120,224L122,222L124,223L126,225L130,226L134,227L140,228L144,229L146,228L146,227L147,226L148,222L149,216L151,214L148,214L147,213L146,213L141,213L140,213L139,214L138,214L136,213L134,213L133,212L132,211L131,210L130,210L128,210L127,209L126,208L125,208L125,207L123,206L122,205L120,205L119,204L118,203L117,203L114,203L110,202L109,202L109,201L109,199L108,199L107,197L105,196L103,195L102,194L100,194L98,195L96,196L94,196L93,197L92,196L91,195L91,194L91,193L91,191L90,190L88,190L86,189L86,188L86,187L86,185L82,184L79,185L78,182L78,179L78,176L78,173L76,173L75,172L61,156L60,155L57,154L51,154L47,155L47,156L46,157L45,158L44,162L43,164L41,167L38,166L37,167L34,168L33,169L33,171L33,172L34,173L33,175L31,175L30,175L29,176L30,177L27,181L26,181L25,183L25,184L25,185L26,187L25,190L25,192L23,196L22,198L21,198L18,199L16,198L15,198L14,199L13,199L10,199L10,200L10,203L9,204L9,205L9,206L9,207L9,208L9,210L8,211L8,221L9,221L11,219L12,219L16,218L17,218L18,217L20,215L21,214L23,213L24,212L26,211L27,211L28,212L29,212L34,210L36,209L38,208L39,206L48,202L49,202L50,201L50,198L51,196L53,195L55,195L57,195L58,197L59,199L60,200L62,201L67,203L70,204L71,204L73,202L74,204L72,206L71,207L70,208L69,209L68,210L68,212L68,215L72,223L73,225L75,231L76,233L77,234L78,235L80,237L81,242L83,242L85,242L88,243L90,242L91,242L93,241L95,241L97,241L99,241L99,242L101,243L104,243L105,244L108,243L110,245L112,245L113,245Z " data-fips="NI30" data-hasc="NG.KW" data-name="Kwara" data-postal="KW" data-varname=""/><path d="M73,311L73,310L73,309L72,309L69,309L68,308L67,307L66,307L66,306L68,304L68,303L67,302L65,303L64,303L63,304L62,303L61,302L62,301L63,300L63,299L61,298L37,298L36,299L35,300L33,300L32,298L30,297L29,297L28,298L27,301L26,302L25,304L23,305L13,305L12,306L11,307L10,307L9,306L8,306L6,306L6,308L6,311L15,310L21,310L27,310L31,310L34,310L34,308L33,307L34,306L35,305L35,303L36,303L37,302L38,302L38,303L38,304L39,304L41,304L42,303L43,303L45,303L48,302L50,301L52,301L53,302L50,302L49,303L48,304L46,304L44,305L42,305L41,307L40,308L39,308L38,307L36,308L35,308L34,308L35,309L36,309L54,309L64,310L73,311Z " data-fips="NI05" data-hasc="NG.LA" data-name="Lagos" data-postal="LA" data-varname=""/><path d="M171,235L171,234L172,233L173,233L173,231L175,230L176,229L175,227L173,225L173,195L173,194L174,194L182,193L184,194L188,198L190,199L196,191L195,190L194,190L194,188L193,187L192,186L193,184L195,183L195,181L196,180L197,179L197,177L196,177L195,176L195,174L195,174L193,173L192,172L193,171L194,171L195,171L196,169L195,162L193,161L187,161L184,161L181,159L179,157L180,156L181,155L182,154L184,153L185,152L186,150L186,149L185,148L182,147L181,146L182,145L182,141L179,139L177,140L177,136L175,135L174,135L173,135L173,137L172,138L170,137L169,138L166,139L165,139L164,138L163,137L160,138L155,141L153,144L152,145L151,146L150,146L149,145L148,144L147,143L147,140L147,139L147,138L148,136L148,134L147,132L147,131L147,128L148,127L149,125L149,123L146,117L144,115L143,114L141,115L139,117L138,117L137,118L135,118L128,121L125,121L121,121L120,121L120,119L120,118L120,115L119,113L118,112L117,110L116,107L114,105L111,105L99,107L93,110L92,112L95,114L98,116L101,116L102,117L103,118L104,118L105,119L105,121L105,123L103,125L105,127L106,130L105,131L102,132L99,133L96,132L95,133L94,136L94,139L94,140L94,142L96,144L97,147L96,150L95,151L94,151L89,152L88,152L87,154L87,156L87,157L84,156L83,156L84,152L84,149L83,149L82,148L81,146L81,145L81,142L83,139L88,136L89,135L89,133L89,132L91,124L91,123L88,122L83,119L79,118L75,119L64,119L62,118L57,116L53,114L49,114L50,114L50,116L50,117L50,119L51,123L51,124L50,126L51,128L52,129L52,131L53,131L54,132L54,133L54,134L54,135L54,137L53,139L53,140L52,143L51,144L48,142L47,142L46,144L45,145L44,147L43,149L44,150L47,154L47,155L51,154L57,154L60,155L61,156L75,172L76,173L78,173L78,176L78,179L78,182L79,185L82,184L86,185L86,187L86,188L86,189L88,190L90,190L91,191L91,193L91,194L91,195L92,196L93,197L94,196L96,196L98,195L100,194L102,194L103,195L105,196L107,197L108,199L109,199L109,201L109,202L110,202L114,203L117,203L118,203L119,204L120,205L122,205L123,206L125,207L125,208L126,208L127,209L128,210L130,210L131,210L132,211L133,212L134,213L136,213L138,214L139,214L140,213L141,213L146,213L147,213L148,214L151,214L153,214L154,214L156,215L157,216L158,218L158,219L159,220L160,221L160,223L160,225L162,227L166,230L168,233L170,235L170,236Z " data-fips="NI31" data-hasc="NG.NI" data-name="Niger" data-postal="NI" data-varname=""/><path d="M83,313L83,312L80,311L79,311L79,310L80,310L83,308L84,307L83,305L83,302L83,301L82,301L81,302L79,303L76,303L74,302L74,301L74,300L75,297L77,295L81,292L82,291L83,286L82,285L80,285L79,286L77,285L76,286L74,286L74,285L74,284L73,283L72,281L70,282L68,283L67,283L66,281L66,279L63,280L61,281L60,281L59,281L58,282L55,283L50,283L48,283L49,281L50,279L50,277L49,275L49,274L48,273L47,271L47,269L45,267L41,267L40,267L39,268L38,267L37,265L35,264L34,265L32,269L30,271L28,271L26,270L23,267L21,264L20,262L18,261L17,258L19,254L19,250L17,250L16,252L16,254L15,254L14,251L14,247L13,245L9,245L5,247L6,248L6,249L7,250L7,251L7,257L7,258L7,260L8,262L9,263L10,265L10,267L9,267L8,267L8,278L8,279L7,280L8,281L9,282L9,283L8,284L6,285L7,287L7,288L7,290L7,292L7,294L8,294L9,295L9,297L7,298L7,300L7,303L6,305L6,306L8,306L9,306L10,307L11,307L12,306L13,305L23,305L25,304L26,302L27,301L28,298L29,297L30,297L32,298L33,300L35,300L36,299L37,298L61,298L63,299L63,300L62,301L61,302L62,303L63,304L64,303L65,303L67,302L68,303L68,304L66,306L66,307L67,307L68,308L69,309L72,309L73,309L73,310L73,311L73,311L76,312L79,314L80,313L82,314Z " data-fips="NI16" data-hasc="NG.OG" data-name="Ogun" data-postal="OG" data-varname=""/><path d="M100,333L105,322L105,320L104,319L103,319L102,318L102,317L101,316L100,315L100,314L100,313L102,312L103,311L103,310L104,309L104,308L105,306L105,304L103,302L104,300L104,298L106,296L107,295L108,294L108,293L108,292L109,291L121,291L123,292L122,293L122,295L124,297L126,296L127,296L129,297L130,296L131,294L131,292L132,291L133,290L133,289L132,287L132,286L133,284L135,283L135,282L137,276L138,275L139,274L140,273L140,272L140,271L140,269L140,268L139,267L140,265L141,264L142,263L143,262L141,259L138,256L139,254L138,254L133,256L132,256L131,255L130,256L129,257L128,258L126,260L126,261L125,265L123,270L118,274L116,273L115,270L114,268L112,268L109,268L105,267L103,267L100,268L100,270L98,270L97,271L96,273L95,275L95,278L95,280L95,282L93,281L91,280L90,279L88,280L86,281L85,283L85,284L84,285L83,286L82,291L81,292L77,295L75,297L74,300L74,301L74,302L76,303L79,303L81,302L82,301L83,301L83,302L83,305L84,307L83,308L80,310L79,310L79,311L80,311L83,312L83,313L82,314L80,313L79,314L80,314L82,315L84,317L86,318L89,320L90,321L91,323L92,324L93,325L95,326L96,327L100,333Z " data-fips="NI48" data-hasc="NG.ON" data-name="Ondo" data-postal="ON" data-varname=""/><path d="M123,270L125,265L126,261L126,260L128,258L129,257L130,256L131,255L132,256L133,256L132,254L129,252L128,252L127,250L126,249L126,247L127,245L128,244L127,243L126,243L124,244L122,244L122,242L123,241L119,241L117,242L116,243L116,244L115,245L113,245L112,245L110,245L108,243L105,244L104,243L103,246L101,247L100,248L98,250L97,255L97,257L97,259L100,268L103,267L105,267L109,268L112,268L114,268L115,270L116,273L118,274Z " data-fips="NI51" data-hasc="NG.EK" data-name="Ekiti" data-postal="EK" data-varname=""/><path d="M77,285L79,286L80,285L82,285L83,286L84,285L85,284L85,283L86,281L88,280L90,279L91,280L93,281L95,282L95,280L95,278L95,275L96,273L97,271L98,270L100,270L100,268L97,259L97,257L97,255L98,250L100,248L101,247L103,246L101,243L99,242L99,241L97,241L95,241L93,241L91,242L90,242L88,243L85,242L83,242L83,244L82,246L81,246L79,247L78,248L77,249L76,250L75,250L73,247L72,246L71,246L70,246L69,248L68,249L66,251L63,250L63,252L62,255L62,256L62,257L61,258L61,259L62,260L63,261L64,262L65,263L65,264L66,265L63,280L66,279L66,281L67,283L68,283L70,282L72,281L73,283L74,284L74,285L74,286L76,286Z " data-fips="NI42" data-hasc="NG.OS" data-name="Osun" data-postal="OS" data-varname=""/><path d="M55,283L58,282L59,281L60,281L61,281L63,280L66,265L65,264L65,263L64,262L63,261L62,260L61,259L61,258L62,257L62,256L62,255L63,252L63,250L66,251L68,249L69,248L70,246L71,246L72,246L73,247L75,250L76,250L77,249L78,248L79,247L81,246L82,246L83,244L83,242L81,242L80,237L78,235L77,234L76,233L75,231L73,225L72,223L68,215L68,212L68,210L69,209L70,208L71,207L72,206L74,204L73,202L71,204L70,204L67,203L62,201L60,200L59,199L58,197L57,195L55,195L53,195L51,196L50,198L50,201L49,202L48,202L39,206L38,208L36,209L34,210L29,212L28,212L27,211L26,211L24,212L23,213L21,214L20,215L18,217L17,218L16,218L12,219L11,219L9,221L8,221L9,222L8,224L8,224L7,226L7,227L6,230L7,231L8,233L8,235L7,236L7,238L7,240L6,243L6,246L5,247L9,245L13,245L14,247L14,251L15,254L16,254L16,252L17,250L19,250L19,254L17,258L18,261L20,262L21,264L23,267L26,270L28,271L30,271L32,269L34,265L35,264L37,265L38,267L39,268L40,267L41,267L45,267L47,269L47,271L48,273L49,274L49,275L50,277L50,279L49,281L48,283L50,283Z " data-fips="NI32" data-hasc="NG.OY" data-name="Oyo" data-postal="OY" data-varname=""/><path d="M172,338L175,337L177,338L179,337L180,334L181,332L182,331L184,331L186,331L190,331L192,331L193,331L195,328L197,326L196,326L195,326L194,326L193,325L193,323L192,322L191,321L192,320L191,319L190,317L189,318L188,317L189,315L189,314L187,311L186,310L184,309L183,308L185,305L187,303L187,300L186,299L185,299L182,298L179,298L179,296L179,295L176,298L175,300L174,304L173,305L172,305L171,305L170,307L170,308L171,312L171,314L172,316L172,318L173,319L173,320L172,323L171,324L170,325L171,327L170,330L170,331L168,334L167,335L167,336L167,337L168,340L169,340Z " data-fips="NI25" data-hasc="NG.AN" data-name="Anambra" data-postal="AN" data-varname=""/><path d="M331,181L336,180L341,178L344,178L347,178L350,178L350,177L349,176L348,174L347,171L347,168L346,166L337,159L336,157L336,156L340,153L341,152L340,151L340,145L340,143L337,141L334,140L334,136L332,133L328,132L328,130L330,127L331,126L332,121L333,118L334,117L337,116L339,115L341,112L345,110L346,109L346,108L345,107L344,106L345,99L345,96L340,84L339,77L339,74L338,72L338,71L337,69L336,68L336,66L336,63L335,61L333,59L330,57L325,61L323,60L321,60L318,60L317,61L316,61L316,63L315,65L312,73L312,75L312,76L312,78L299,83L298,84L297,84L293,84L291,86L290,90L292,91L295,90L296,90L297,90L298,92L299,94L299,96L297,98L297,100L298,101L300,101L302,104L306,109L309,110L315,111L319,111L322,112L321,114L320,115L319,116L315,117L314,120L314,122L313,122L312,122L310,121L304,122L301,121L300,118L301,116L301,113L300,111L298,109L296,110L290,110L288,109L287,107L284,108L282,107L279,106L277,106L270,107L269,106L266,108L262,112L261,114L259,116L258,116L256,116L254,119L254,122L254,126L255,129L257,131L258,134L256,137L254,141L253,144L253,145L254,146L255,147L256,148L259,147L261,148L263,150L263,152L264,154L264,160L265,161L270,161L272,162L273,164L273,168L273,169L272,170L272,171L272,173L273,174L274,174L276,176L277,179L280,180L286,181L292,180L294,180L295,179L297,177L298,176L300,175L301,173L300,172L298,170L300,168L301,168L321,177L328,182Z " data-fips="NI46" data-hasc="NG.BA" data-name="Bauchi" data-postal="BA" data-varname=""/><path d="M369,178L372,177L376,175L383,171L385,170L385,168L385,162L386,159L383,157L380,153L378,152L377,151L375,150L374,148L373,146L373,145L376,140L374,136L371,136L370,135L370,132L371,122L370,121L369,120L365,115L363,113L361,110L358,108L353,106L346,108L346,109L345,110L341,112L339,115L337,116L334,117L333,118L332,121L331,126L330,127L328,130L328,132L332,133L334,136L334,140L337,141L340,143L340,145L340,151L341,152L340,153L336,156L336,157L337,159L346,166L347,168L347,171L348,174L349,176L350,177L350,178L354,178Z " data-fips="NI55" data-hasc="NG.GO" data-name="Gombe" data-postal="GO" data-varname=""/><path d="M129,368L130,367L132,366L133,365L135,365L136,365L137,364L139,362L141,363L142,364L144,364L145,362L147,363L148,363L149,362L150,361L150,360L150,359L150,358L153,358L154,357L154,356L155,355L161,354L162,353L161,351L162,350L163,349L164,349L164,348L165,346L166,344L167,337L167,336L167,335L168,334L170,331L170,330L171,327L170,325L171,324L172,323L173,320L173,319L172,318L172,316L171,314L171,312L170,308L170,307L168,307L167,307L166,307L164,307L162,308L157,311L153,313L152,313L150,315L149,315L148,314L147,313L146,313L145,314L144,315L144,316L145,319L145,320L146,322L147,324L149,326L151,327L151,328L150,330L149,332L146,334L145,336L142,337L138,338L137,338L137,336L136,335L137,334L137,332L136,331L135,331L133,328L128,326L125,326L123,327L122,328L121,328L119,326L118,326L117,326L114,326L114,327L114,329L111,331L110,330L110,328L110,325L108,323L105,322L100,333L100,333L101,333L103,337L105,334L108,333L110,332L112,331L111,332L108,334L107,335L106,336L104,336L104,337L104,339L105,340L105,342L106,342L106,343L108,344L109,344L110,343L112,343L113,342L114,339L114,340L113,343L114,344L116,344L117,343L118,341L119,342L120,342L121,344L120,344L120,343L118,343L118,343L116,345L115,345L114,345L109,345L108,346L108,348L109,348L111,350L111,350L116,352L118,352L117,351L118,351L120,352L121,351L121,350L121,349L122,348L123,347L124,347L125,347L127,346L126,347L125,348L123,348L122,349L122,350L123,351L123,353L122,353L120,354L119,354L118,354L115,354L114,354L115,358L115,360L116,362L117,362L118,362L119,361L121,363L119,363L120,364L122,365L124,366L126,367L128,368Z " data-fips="NI36" data-hasc="NG.DE" data-name="Delta" data-postal="DE" data-varname=""/><path d="M142,337L145,336L146,334L149,332L150,330L151,328L151,327L149,326L147,324L146,322L145,320L145,319L144,316L144,315L145,314L146,313L147,313L148,314L149,315L150,315L152,313L153,313L157,311L162,308L164,307L166,307L167,307L168,307L170,304L169,302L169,300L169,295L169,292L169,290L170,287L170,285L171,284L171,282L171,280L171,279L171,277L169,276L169,275L168,274L167,274L165,275L162,275L162,273L161,271L159,270L156,270L155,269L154,268L153,267L151,267L149,268L147,268L146,267L146,264L145,263L145,262L143,262L142,263L141,264L140,265L139,267L140,268L140,269L140,271L140,272L140,273L139,274L138,275L137,276L135,282L135,283L133,284L132,286L132,287L133,289L133,290L132,291L131,292L131,294L130,296L129,297L127,296L126,296L124,297L122,295L122,293L123,292L121,291L109,291L108,292L108,293L108,294L107,295L106,296L104,298L104,300L103,302L105,304L105,306L104,308L104,309L103,310L103,311L102,312L100,313L100,314L100,315L101,316L102,317L102,318L103,319L104,319L105,320L105,322L108,323L110,325L110,328L110,330L111,331L114,329L114,327L114,326L117,326L118,326L119,326L121,328L122,328L123,327L125,326L128,326L133,328L135,331L136,331L137,332L137,334L136,335L137,336L137,338L138,338Z " data-fips="NI37" data-hasc="NG.ED" data-name="Edo" data-postal="ED" data-varname=""/><path d="M212,330L211,328L211,326L212,325L213,323L213,322L213,321L213,320L212,317L211,316L213,311L213,308L212,302L213,302L214,302L217,301L219,297L219,295L218,293L217,292L215,291L214,291L213,292L211,292L209,292L208,291L206,289L205,288L204,285L202,282L200,282L198,282L197,283L196,284L195,284L193,288L191,289L187,292L186,294L184,295L183,295L182,293L182,292L180,293L179,295L179,296L179,298L182,298L185,299L186,299L187,300L187,303L185,305L183,308L184,309L186,310L187,311L189,314L189,315L188,317L189,318L190,317L191,319L192,320L191,321L192,322L193,323L193,325L194,326L195,326L196,326L197,326L200,327L202,327L207,328L208,329L209,329L210,330Z " data-fips="NI47" data-hasc="NG.EN" data-name="Enugu" data-postal="EN" data-varname=""/><path d="M219,339L220,338L220,338L221,336L221,334L223,332L223,330L223,329L223,328L225,327L226,328L227,330L228,330L229,329L231,328L232,327L232,326L233,326L234,327L235,326L236,323L237,321L238,320L240,318L240,315L239,314L240,312L242,311L242,310L241,308L241,307L241,306L240,305L239,304L237,302L235,298L235,297L234,295L233,295L233,296L231,296L229,298L228,298L226,298L224,299L224,300L223,304L221,306L218,304L217,301L214,302L213,302L212,302L213,308L213,311L211,316L212,317L213,320L213,321L213,322L213,323L212,325L211,326L211,328L212,330L210,330L209,329L208,329L207,328L205,331L205,334L207,335L213,335L215,336L216,338L216,339L218,340L219,340Z " data-fips="NI53" data-hasc="NG.EB" data-name="Ebonyi" data-postal="EB" data-varname=""/><path d="M246,203L247,201L249,199L250,196L252,192L252,190L251,187L249,185L247,183L247,177L248,176L248,175L250,172L250,171L250,169L250,166L252,161L250,158L251,154L253,152L255,151L256,150L256,149L256,148L255,147L254,146L253,145L253,144L254,141L254,139L251,138L249,136L246,135L244,134L245,132L246,132L247,130L246,126L247,122L246,117L242,112L239,111L236,110L235,109L234,108L231,107L230,106L229,105L229,103L230,102L230,100L228,99L223,101L218,105L215,105L214,107L210,109L209,108L208,107L207,106L206,105L203,105L200,106L199,107L199,109L198,110L197,109L193,109L193,111L193,112L193,113L192,115L191,115L190,115L188,113L186,112L183,111L183,110L184,109L185,108L185,107L184,106L182,106L181,106L179,105L178,106L177,107L174,109L174,110L173,111L172,115L171,116L170,117L166,119L165,119L162,119L160,119L157,118L155,119L155,121L154,121L153,122L152,123L152,124L151,125L149,125L148,127L147,128L147,131L147,132L148,134L148,136L147,138L147,139L147,140L147,143L148,144L149,145L150,146L151,146L152,145L153,144L155,141L160,138L163,137L164,138L165,139L166,139L169,138L170,137L172,138L173,137L173,135L174,135L175,135L177,136L177,140L179,139L182,141L182,145L181,146L182,147L185,148L186,149L186,150L185,152L184,153L182,154L181,155L180,156L179,157L181,159L184,161L187,161L193,161L195,162L196,169L195,171L194,171L193,171L192,172L193,173L195,174L195,174L195,176L196,177L197,177L197,179L196,180L195,181L195,183L193,184L192,186L193,187L194,188L194,190L195,190L196,191L200,190L201,190L202,190L203,191L204,190L205,188L207,189L208,190L210,190L211,191L212,191L213,191L214,192L215,192L217,193L218,192L220,189L222,189L224,190L224,191L224,192L225,193L227,194L227,199L228,203L232,201L234,198L235,197L236,197L240,198L242,200L243,201L243,202L244,203Z " data-fips="NI23" data-hasc="NG.KD" data-name="Kaduna" data-postal="KD" data-varname=""/><path d="M173,305L174,304L175,300L176,298L179,295L180,293L182,292L182,293L183,295L184,295L186,294L187,292L191,289L193,288L195,284L196,284L197,283L198,282L200,282L202,282L205,284L207,285L208,286L209,285L209,284L210,282L215,279L217,276L218,273L218,271L218,270L219,269L218,268L217,268L215,268L215,266L214,261L214,256L214,255L213,253L212,252L211,250L210,248L210,246L211,243L209,243L203,244L196,243L195,243L187,246L184,248L183,248L182,249L181,250L181,248L181,246L182,245L182,244L183,238L183,235L181,231L182,229L182,227L182,227L180,228L179,227L176,229L175,230L173,231L173,233L172,233L171,234L171,235L170,236L170,235L168,233L166,230L162,227L160,225L160,223L160,221L159,220L158,219L158,218L157,216L156,215L154,214L153,214L151,214L149,216L148,222L147,226L146,227L146,228L144,229L140,228L134,227L130,226L126,225L124,223L122,222L120,224L116,230L115,231L117,233L118,235L120,237L123,239L123,241L122,242L122,244L124,244L126,243L127,243L128,244L127,245L126,247L126,249L127,250L128,252L129,252L132,254L138,254L139,254L138,256L141,259L143,262L145,262L145,263L146,264L146,267L147,268L149,268L151,267L153,267L154,268L155,269L156,270L159,270L161,271L162,273L162,275L165,275L167,274L168,274L169,275L169,276L171,277L171,279L171,280L171,282L171,284L170,285L170,287L169,290L169,292L169,295L169,300L169,302L170,304L171,305L172,305Z " data-fips="NI41" data-hasc="NG.KO" data-name="Kogi" data-postal="KO" data-varname=""/><path d="M296,230L299,229L302,227L304,224L307,222L310,221L311,220L313,217L314,216L316,213L325,211L332,208L333,205L333,203L332,201L333,199L333,198L331,194L331,193L330,192L330,189L330,186L330,184L328,182L321,177L301,168L300,168L298,170L300,172L301,173L300,175L298,176L297,177L295,179L294,180L292,180L286,181L280,180L277,179L276,176L274,174L273,174L272,173L272,171L272,170L273,169L273,168L273,164L272,162L270,161L265,161L264,160L264,154L263,152L263,150L261,148L259,147L256,148L256,149L256,150L255,151L253,152L251,154L250,158L252,161L250,166L250,169L250,171L250,172L248,175L248,176L247,177L247,183L249,185L251,187L252,190L252,192L254,196L256,197L256,200L258,202L261,203L264,202L265,202L266,202L268,202L268,203L268,205L267,206L266,208L265,209L263,210L262,211L261,213L261,214L261,216L262,218L263,219L262,221L263,223L267,225L269,226L273,226L277,225L279,224L282,224L287,226L289,228L291,230L293,230Z " data-fips="NI49" data-hasc="NG.PL" data-name="Plateau" data-postal="PL" data-varname=""/><path d="M242,253L242,252L240,247L239,244L239,242L242,240L247,239L255,242L258,242L263,243L264,242L272,248L274,247L280,243L281,242L280,241L280,239L280,237L278,235L278,233L278,232L279,231L280,231L282,232L283,232L284,232L285,233L287,233L288,233L289,232L291,230L289,228L287,226L282,224L279,224L277,225L273,226L269,226L267,225L263,223L262,221L263,219L262,218L261,216L261,214L261,213L262,211L263,210L265,209L266,208L267,206L268,205L268,203L268,202L266,202L265,202L264,202L261,203L258,202L256,200L256,197L254,196L250,196L249,199L247,201L246,203L244,203L243,202L243,201L242,200L240,198L236,197L235,197L234,198L232,201L228,203L227,199L227,194L225,193L224,192L224,191L224,190L222,189L220,189L218,192L217,193L215,192L214,192L213,191L212,191L211,191L210,190L209,192L208,192L207,194L206,198L206,201L206,205L204,213L203,218L201,220L199,222L194,225L188,226L182,227L182,229L181,231L183,235L183,238L182,244L182,245L181,246L181,248L181,250L182,249L183,248L184,248L187,246L195,243L196,243L203,244L209,243L211,243L213,244L215,244L217,245L219,245L222,246L223,246L225,247L229,248L230,248L232,250L234,250L235,250L236,251L237,252L239,253L240,253L241,254Z " data-fips="NI56" data-hasc="NG.NA" data-name="Nassarawa" data-postal="NA" data-varname=""/><path d="M314,122L314,120L315,117L319,116L320,115L321,114L322,112L319,111L315,111L309,110L306,109L302,104L300,101L298,101L297,100L297,98L299,96L299,94L298,92L297,90L296,90L295,90L292,91L290,90L291,86L293,84L297,84L298,84L299,83L312,78L312,76L312,75L312,73L315,65L316,63L316,61L317,61L318,60L321,60L323,60L325,61L330,57L329,55L328,49L327,46L326,45L325,45L323,45L322,44L320,44L318,45L316,45L316,44L314,39L313,38L312,37L310,38L306,39L304,40L301,42L300,43L300,44L296,45L292,44L291,44L291,44L290,45L289,45L279,44L277,45L276,45L264,43L264,44L263,45L262,46L261,47L260,49L258,50L255,50L254,50L253,49L251,50L250,49L249,49L247,47L247,45L246,44L240,44L237,44L234,44L230,45L229,46L229,49L229,51L231,53L234,53L235,54L236,55L238,59L238,60L239,60L240,58L241,56L243,55L246,55L248,55L251,56L252,56L252,57L252,59L252,60L253,61L254,62L255,62L256,63L256,65L256,66L258,67L261,67L263,69L263,74L262,75L263,76L264,76L266,76L266,77L266,78L269,78L270,77L272,77L273,78L273,81L273,82L273,84L273,85L272,85L271,88L271,91L273,91L274,91L275,93L276,94L277,96L278,96L279,98L275,101L275,102L274,104L277,106L279,106L282,107L284,108L287,107L288,109L290,110L296,110L298,109L300,111L301,113L301,116L300,118L301,121L304,122L310,121L312,122L313,122Z " data-fips="NI39" data-hasc="NG.JI" data-name="Jigawa" data-postal="JI" data-varname=""/><path d="M256,137L258,134L257,131L255,129L254,126L254,122L254,119L256,116L258,116L259,116L261,114L262,112L266,108L269,106L270,107L274,104L275,102L275,101L279,98L278,96L277,96L276,94L275,93L274,91L273,91L271,91L271,88L272,85L273,85L273,84L273,82L273,81L273,78L272,77L270,77L269,78L266,78L266,77L266,76L264,76L263,76L262,75L263,74L263,69L261,67L258,67L256,66L256,65L256,63L255,62L254,62L253,61L252,60L252,59L252,57L252,56L251,56L248,55L246,55L243,55L241,56L240,58L239,60L238,60L238,59L236,55L234,55L232,55L231,57L230,61L228,63L221,65L218,67L217,69L218,73L218,82L218,85L219,86L218,88L219,89L220,91L220,93L218,93L216,95L214,95L213,97L212,99L212,101L212,103L215,105L218,105L223,101L228,99L230,100L230,102L229,103L229,105L230,106L231,107L234,108L235,109L236,110L239,111L242,112L246,117L247,122L246,126L247,130L246,132L245,132L244,134L246,135L249,136L251,138L254,139Z " data-fips="NI29" data-hasc="NG.KN" data-name="Kano" data-postal="KN" data-varname=""/><path d="M192,115L193,113L193,112L193,111L193,109L197,109L198,110L199,109L199,107L200,106L203,105L206,105L207,106L208,107L209,108L210,109L214,107L215,105L212,103L212,101L212,99L213,97L214,95L216,95L218,93L220,93L220,91L219,89L218,88L219,86L218,85L218,82L218,73L217,69L218,67L221,65L228,63L230,61L231,57L232,55L234,55L236,55L235,54L234,53L231,53L229,51L229,49L229,46L230,45L234,44L237,44L240,44L246,44L247,45L247,47L249,49L250,49L251,50L253,49L254,50L255,50L258,50L260,49L261,47L262,46L263,45L264,44L264,43L262,43L252,40L250,39L250,38L248,36L248,36L246,34L245,34L243,34L241,34L240,34L236,30L235,29L234,28L232,28L231,26L230,26L229,25L227,24L217,23L216,23L214,23L205,29L200,32L198,33L197,33L192,32L189,35L187,37L186,37L186,41L187,59L188,61L188,63L189,65L189,67L189,70L190,71L190,72L190,73L189,76L188,77L189,78L190,78L193,80L193,83L192,83L191,83L190,84L190,85L189,86L186,88L185,87L182,87L180,88L179,96L180,98L180,99L180,101L179,103L179,105L181,106L182,106L184,106L185,107L185,108L184,109L183,110L183,111L186,112L188,113L190,115L191,115Z " data-fips="NI24" data-hasc="NG.KT" data-name="Katsina" data-postal="KT" data-varname=""/><path d="M88,96L89,94L97,91L99,91L101,91L102,92L103,91L104,72L105,67L111,68L124,67L126,65L126,62L125,59L125,56L127,55L129,52L131,50L133,48L142,47L143,47L145,46L146,44L145,37L146,36L148,34L151,34L153,35L154,34L154,33L155,32L155,30L158,30L160,31L161,32L165,33L169,33L172,31L174,30L171,23L164,16L158,11L156,9L153,9L151,9L149,10L148,10L126,0L124,0L118,1L117,2L116,4L115,5L114,5L112,6L107,5L103,6L100,6L99,5L98,5L97,4L96,4L83,7L81,8L80,9L79,10L73,15L72,16L70,16L68,16L67,27L68,27L71,27L74,28L75,27L76,27L78,28L79,29L81,30L84,31L85,32L87,32L88,33L90,34L91,34L92,33L93,32L94,31L95,31L96,32L95,33L95,34L95,36L94,37L94,39L94,40L95,43L96,45L95,48L95,50L95,51L96,58L96,61L94,62L91,61L88,62L87,64L87,80L85,87L84,91L83,95L84,96L86,97Z " data-fips="NI51" data-hasc="NG.SO" data-name="Sokoto" data-postal="SO" data-varname=""/><path d="M151,125L152,124L152,123L153,122L154,121L155,121L155,119L157,118L160,119L162,119L165,119L166,119L170,117L171,116L172,115L173,111L174,110L174,109L177,107L178,106L179,105L179,103L180,101L180,99L180,98L179,96L180,88L182,87L185,87L186,88L189,86L190,85L190,84L191,83L192,83L193,83L193,80L190,78L189,78L188,77L189,76L190,73L190,72L190,71L189,70L189,67L189,65L188,63L188,61L187,59L186,41L186,37L186,37L183,37L181,37L180,37L179,36L177,34L175,31L174,30L172,31L169,33L165,33L161,32L160,31L158,30L155,30L155,32L154,33L154,34L153,35L151,34L148,34L146,36L145,37L146,44L145,46L143,47L142,47L133,48L131,50L129,52L127,55L125,56L125,59L126,62L126,65L124,67L111,68L105,67L104,72L103,91L105,91L107,92L108,92L110,92L112,91L112,90L114,90L116,90L118,90L119,91L120,92L123,93L125,94L132,93L133,93L136,93L138,94L139,96L139,99L138,102L139,103L140,104L144,109L144,115L146,117L149,123L149,125Z " data-fips="NI57" data-hasc="NG.ZA" data-name="Zamfara" data-postal="ZA" data-varname=""/><path d="M377,136L378,135L379,133L379,132L379,128L380,125L382,122L392,119L394,117L395,114L395,111L395,107L396,106L397,105L399,102L403,96L403,95L402,93L401,92L399,91L398,92L396,91L397,90L399,85L399,83L398,79L400,65L399,59L403,54L405,52L406,49L406,47L403,45L402,43L401,41L402,33L402,33L400,32L399,32L398,32L397,32L396,31L394,31L392,32L391,32L388,31L386,29L380,26L376,24L363,21L344,21L336,21L332,21L312,26L310,26L303,30L302,31L301,32L301,33L300,34L299,34L298,36L291,44L292,44L296,45L300,44L300,43L301,42L304,40L306,39L310,38L312,37L313,38L314,39L316,44L316,45L318,45L320,44L322,44L323,45L325,45L326,45L327,46L328,49L329,55L330,57L333,59L335,61L336,63L336,66L336,68L337,69L338,71L338,72L339,74L339,77L340,84L345,96L345,99L344,106L345,107L353,106L358,108L361,110L363,113L365,115L369,120L370,121L371,122L370,132L370,135L371,136L374,136Z " data-fips="NI44" data-hasc="NG.YO" data-name="Yobe" data-postal="YO" data-varname=""/><path d="M87,156L87,154L88,152L89,152L94,151L95,151L96,150L97,147L96,144L94,142L94,140L94,139L94,136L95,133L96,132L99,133L102,132L105,131L106,130L105,127L103,125L105,123L105,121L105,119L104,118L103,118L102,117L101,116L98,116L95,114L92,112L93,110L99,107L111,105L114,105L116,107L117,110L118,112L119,113L120,115L120,118L120,119L120,121L121,121L125,121L128,121L135,118L137,118L138,117L139,117L141,115L143,114L144,115L144,109L140,104L139,103L138,102L139,99L139,96L138,94L136,93L133,93L132,93L125,94L123,93L120,92L119,91L118,90L116,90L114,90L112,90L112,91L110,92L108,92L107,92L105,91L103,91L102,92L101,91L99,91L97,91L89,94L88,96L86,97L84,96L83,95L84,91L85,87L87,80L87,64L88,62L91,61L94,62L96,61L96,58L95,51L95,50L95,48L96,45L95,43L94,40L94,39L94,37L95,36L95,34L95,33L96,32L95,31L94,31L93,32L92,33L91,34L90,34L88,33L87,32L85,32L84,31L81,30L79,29L78,28L76,27L75,27L74,28L71,27L68,27L67,27L66,36L59,46L57,49L48,56L48,66L47,71L47,73L48,76L48,78L46,80L46,81L46,83L47,85L47,86L48,87L47,89L45,90L44,91L41,96L41,98L40,101L40,102L48,113L49,114L53,114L57,116L62,118L64,119L75,119L79,118L83,119L88,122L91,123L91,124L89,132L89,133L89,135L88,136L83,139L81,142L81,145L81,146L82,148L83,149L84,149L84,152L83,156L84,156L87,157Z " data-fips="NI40" data-hasc="NG.KE" data-name="Kebbi" data-postal="KE" data-varname=""/><path d="M387,264L389,262L390,260L389,257L390,255L391,253L395,247L397,245L397,244L396,243L396,241L396,240L396,239L398,236L398,235L398,231L397,229L398,227L400,226L402,226L403,225L403,224L405,223L405,221L404,218L405,219L406,218L407,218L409,218L410,218L411,218L415,216L416,215L417,214L417,213L418,212L419,212L420,212L421,210L421,209L422,201L422,199L422,198L423,196L424,192L425,191L425,189L424,187L423,187L423,186L426,185L426,184L428,182L431,181L434,180L437,179L438,176L438,173L439,170L439,169L439,168L439,167L437,165L438,164L439,162L438,160L438,158L439,157L440,156L444,155L445,155L446,153L447,152L447,151L447,150L447,147L449,139L450,134L451,131L458,121L459,120L456,121L450,122L449,122L448,121L447,121L445,121L445,124L445,126L444,129L442,135L441,140L439,142L436,141L434,140L431,138L429,136L425,136L422,137L420,139L417,142L416,142L415,142L414,144L413,145L410,147L407,147L404,148L401,150L397,155L392,159L386,159L385,162L385,168L385,170L383,171L376,175L372,177L369,178L372,185L373,186L375,186L376,186L379,189L380,191L381,193L381,194L381,195L381,197L382,199L385,201L387,203L387,205L383,214L383,217L383,218L383,220L380,222L369,235L367,237L365,240L364,241L366,246L368,249L369,250L370,250L371,249L372,248L373,247L374,246L376,247L377,248L381,252L383,257L383,259L383,262L384,264L385,266L385,266Z " data-fips="NI35" data-hasc="NG.AD" data-name="Adamawa" data-postal="AD" data-varname=""/><path d="M182,227L182,227L188,226L194,225L199,222L201,220L203,218L204,213L206,205L206,201L206,198L207,194L208,192L209,192L208,190L207,189L205,188L204,190L203,191L202,190L201,190L200,190L196,191L190,199L188,198L184,194L182,193L174,194L173,194L173,195L173,225L175,227L179,227L180,228Z " data-fips="NI11" data-hasc="NG.FC" data-name="Federal Capital Territory" data-postal="FC" data-varname="Abuja"/></g></svg>