<?xml version="1.0" ?><!DOCTYPE svg  PUBLIC '-//W3C//DTD SVG 1.1//EN'  'http://www.w3.org/Graphics/SVG/1.1/DTD/svg11.dtd'><svg enable_background="new 0 0 500 401" height="401px" style="stroke-linejoin: round; stroke:#000; fill:#f6f3f0;" version="1.1" viewBox="0 0 500 401" width="500px" xmlns="http://www.w3.org/2000/svg" xmlns:xlink="http://www.w3.org/1999/xlink"><defs><style type="text/css"><![CDATA[path { fill-rule: evenodd; }
#context path { fill: #eee; stroke: #bbb; } ]]></style></defs><metadata><views><view h="401" padding="0" w="500"><proj id="laea" lat0="-1.998" lon0="29.917"/><bbox h="21.82" w="25.04" x="986.93" y="988.41"/><llbbox lat0="-90" lat1="90" lon0="-180" lon1="180"/></view></views></metadata><g id="admin1"><path d="M171,398L175,395L180,394L183,394L184,394L186,393L193,390L194,390L205,394L206,394L211,395L216,394L218,393L219,391L219,386L221,384L224,384L229,385L234,386L239,385L243,382L248,378L251,373L254,369L256,364L257,359L257,356L258,333L263,316L261,299L263,287L263,285L263,284L266,284L267,285L269,286L269,286L270,284L271,280L271,275L274,267L276,256L275,249L278,244L281,240L282,238L282,235L282,231L283,229L282,228L281,228L279,227L277,226L275,223L276,221L277,219L279,219L280,218L281,216L279,213L277,209L278,208L279,207L279,205L279,204L279,203L279,201L278,200L277,198L276,197L275,195L275,193L274,192L274,192L272,191L270,190L268,187L266,186L264,184L263,183L261,182L259,181L257,180L253,180L248,181L244,181L238,179L233,176L232,173L229,170L227,166L224,161L221,158L220,156L219,155L216,156L212,154L208,152L205,151L203,152L201,152L202,153L203,155L204,159L204,167L204,173L203,176L203,179L204,184L205,190L203,193L203,195L203,197L204,200L205,202L204,204L202,206L199,207L196,207L194,207L195,209L195,214L195,219L196,221L197,223L196,224L196,226L196,229L194,231L193,233L193,234L192,235L192,237L191,240L188,244L188,246L189,247L190,250L190,254L188,255L186,256L184,257L182,257L181,258L179,257L178,257L177,258L176,260L173,262L170,264L167,265L162,270L158,273L157,273L154,273L150,273L146,274L142,277L139,278L136,278L133,278L130,280L127,283L127,286L128,289L130,293L130,295L127,298L125,301L126,303L127,306L126,308L121,311L116,313L114,316L113,319L114,320L116,322L121,323L124,325L125,327L126,331L127,333L129,336L130,338L131,339L131,341L130,344L131,345L132,347L134,351L134,359L130,364L128,366L127,366L123,368L123,368L128,373L129,376L129,378L126,382L125,385L126,387L128,392L128,395L130,399L135,398L145,394L149,394L154,395L162,396L167,399Z " data-fips="" data-hasc="" data-name="Southern" data-postal="S" data-varname="Province du Sud"/><path d="M61,353L66,347L79,347L83,347L96,353L97,353L101,355L111,356L113,356L116,357L120,359L122,361L123,362L122,365L123,368L127,366L128,366L130,364L134,359L134,351L132,347L131,345L130,344L131,341L131,339L130,338L129,336L127,333L126,331L125,327L124,325L121,323L116,322L114,320L113,319L114,316L116,313L121,311L126,308L127,306L126,303L125,301L127,298L130,295L130,293L128,289L127,286L127,283L130,280L133,278L136,278L139,278L142,277L146,274L150,273L154,273L157,273L158,273L162,270L167,265L170,264L173,262L176,260L177,258L178,257L179,257L181,258L182,257L184,257L186,256L188,255L190,254L190,250L189,247L188,246L188,244L191,240L192,237L192,235L193,234L193,233L194,231L196,229L196,226L196,224L197,223L196,221L195,219L195,214L195,209L194,207L196,207L199,207L202,206L204,204L205,202L204,200L203,197L203,195L203,193L205,190L204,184L203,179L203,176L204,173L204,167L204,159L203,155L202,153L201,152L199,150L196,147L197,142L197,135L196,126L195,119L191,119L186,119L182,117L179,116L177,115L176,115L175,115L173,115L169,114L164,112L159,106L155,100L154,99L152,101L151,101L134,102L130,103L128,107L122,119L119,122L109,131L106,135L101,144L87,167L83,177L81,185L82,193L88,229L88,237L87,246L84,257L78,266L70,272L60,275L54,274L52,275L49,277L49,279L48,282L47,285L44,289L41,292L37,295L32,296L26,298L23,301L21,307L22,312L23,316L25,320L26,323L22,326L21,329L22,332L24,334L26,335L29,337L30,343L29,360L31,362L39,367L42,368L49,369L53,371L57,375Z " data-fips="" data-hasc="" data-name="Western" data-postal="W" data-varname="Province de l'Ouest"/><path d="M310,310L314,307L324,294L325,293L325,290L325,289L328,289L335,293L336,293L338,293L342,293L346,292L350,291L353,289L356,287L357,285L358,284L360,282L364,281L365,281L373,283L374,284L375,287L377,289L389,299L396,303L404,303L408,300L413,301L416,302L418,302L423,302L425,300L428,294L431,292L434,291L436,292L448,298L450,298L452,298L453,297L457,296L460,294L464,293L467,290L469,286L470,282L469,266L471,256L479,231L477,225L475,221L471,218L467,216L463,217L466,204L465,198L458,196L460,195L461,193L465,190L463,186L464,183L466,179L468,176L466,167L465,164L468,158L467,156L465,153L465,152L465,149L468,131L468,126L466,121L461,123L457,120L455,115L453,107L452,105L449,102L445,97L444,94L445,93L446,90L446,84L445,79L441,76L436,75L421,70L419,68L416,65L414,64L407,61L404,59L403,55L403,53L404,52L404,50L404,48L402,46L400,41L396,34L395,31L394,25L393,24L389,22L388,23L386,23L384,22L384,20L384,19L385,18L386,16L385,13L382,11L381,9L382,6L383,4L385,2L385,2L383,1L379,0L376,0L373,2L370,3L366,2L362,1L358,0L355,2L353,5L352,14L350,18L349,19L345,21L344,22L343,23L342,26L342,28L340,32L337,36L327,45L323,47L321,48L320,48L318,48L316,49L314,52L313,61L312,65L309,67L300,70L294,74L295,75L296,76L297,78L298,80L300,81L303,86L305,89L307,93L309,97L310,100L311,103L311,105L313,104L316,103L318,103L319,104L319,105L317,107L316,111L317,116L319,120L321,124L324,127L328,133L332,138L335,142L337,145L336,147L335,150L336,154L338,162L340,169L340,173L339,173L337,175L335,176L335,178L336,180L337,184L337,187L338,188L340,190L340,194L340,198L339,200L336,201L333,203L331,204L331,207L331,215L329,223L327,227L326,229L324,227L323,225L321,223L319,220L316,219L313,220L311,221L310,222L308,223L307,224L306,225L305,225L303,225L301,225L300,226L298,226L297,226L295,227L294,227L292,227L291,225L290,224L289,225L287,226L286,227L284,228L283,229L282,231L282,235L282,238L281,240L278,244L275,249L276,256L274,267L271,275L271,280L270,284L269,286L269,286L273,290L275,290L277,290L279,290L282,291L284,293L291,301L295,305L300,308L305,310Z " data-fips="" data-hasc="" data-name="Eastern" data-postal="E" data-varname="Province de l'Est"/><path d="M275,192L276,191L275,188L274,185L275,183L277,180L278,177L281,176L284,178L286,180L289,178L292,175L293,174L298,172L303,171L305,171L306,169L308,166L309,163L311,163L315,166L322,171L329,176L333,177L335,176L337,175L339,173L340,173L340,169L338,162L336,154L335,150L336,147L337,145L335,142L332,138L328,133L324,127L321,124L319,120L317,116L316,111L317,107L319,105L319,104L318,103L316,103L313,104L311,105L311,103L310,100L309,97L307,93L305,89L303,86L300,81L298,80L297,78L296,76L295,75L294,74L292,75L289,78L287,83L285,83L270,92L265,93L260,94L256,93L252,89L250,84L249,75L248,70L242,61L239,60L237,60L235,60L233,61L231,64L230,68L228,69L226,69L222,66L219,65L213,66L210,68L206,71L201,73L197,75L193,75L183,74L175,78L166,84L158,92L154,99L155,100L159,106L164,112L169,114L173,115L175,115L176,115L177,115L179,116L182,117L186,119L191,119L195,119L196,126L197,135L197,142L196,147L199,150L201,152L203,152L205,151L208,152L212,154L216,156L219,155L220,156L221,158L224,161L227,166L229,170L232,173L233,176L238,179L244,181L248,181L253,180L257,180L259,181L261,182L263,183L264,184L266,186L268,187L270,190L272,191L274,192L274,192Z " data-fips="" data-hasc="" data-name="Northern" data-postal="N" data-varname="Province du Nord"/><path d="M327,227L329,223L331,215L331,207L331,204L333,203L336,201L339,200L340,198L340,194L340,190L338,188L337,187L337,184L336,180L335,178L333,177L329,176L322,171L315,166L311,163L309,163L308,166L306,169L305,171L303,171L298,172L293,174L292,175L289,178L286,180L284,178L281,176L278,177L277,180L275,183L274,185L275,188L276,191L275,192L274,192L275,193L275,195L276,197L277,198L278,200L279,201L279,203L279,204L279,205L279,207L278,208L277,209L279,213L281,216L280,218L279,219L277,219L276,221L275,223L277,226L279,227L281,228L282,228L283,229L284,228L286,227L287,226L289,225L290,224L291,225L292,227L294,227L295,227L297,226L298,226L300,226L301,225L303,225L305,225L306,225L307,224L308,223L310,222L311,221L313,220L316,219L319,220L321,223L323,225L324,227L326,229Z " data-fips="" data-hasc="" data-name="Kigali City" data-postal="K" data-varname="Ville de Kigali"/></g></svg>