<?xml version="1.0" ?><!DOCTYPE svg  PUBLIC '-//W3C//DTD SVG 1.1//EN'  'http://www.w3.org/Graphics/SVG/1.1/DTD/svg11.dtd'><svg enable_background="new 0 0 500 401" height="401px" style="stroke-linejoin: round; stroke:#000; fill:#f6f3f0;" version="1.1" viewBox="0 0 500 401" width="500px" xmlns="http://www.w3.org/2000/svg" xmlns:xlink="http://www.w3.org/1999/xlink"><defs><style type="text/css"><![CDATA[path { fill-rule: evenodd; }
#context path { fill: #eee; stroke: #bbb; } ]]></style></defs><metadata><views><view h="401" padding="0" w="500"><proj id="laea" lat0="15.013" lon0="-14.881"/><bbox h="53.96" w="73.89" x="968.32" y="979.28"/><llbbox lat0="-90" lat1="90" lon0="-180" lon1="180"/></view></views></metadata><g id="admin1"><path d="M31,190L33,178L32,177L31,174L31,171L30,170L29,166L17,171L13,174L0,177L1,178L7,185L8,185L8,184L8,183L9,183L9,181L8,181L8,180L10,179L12,179L14,179L17,180L20,182L22,182L24,182L25,183L26,184L29,186L31,190Z " data-fips="SG01" data-hasc="SN.DK" data-name="Dakar" data-postal="DK" data-varname="Cap Vert|Dacar"/><path d="M123,198L129,197L132,196L134,195L139,190L139,189L140,181L141,180L142,180L142,178L143,177L144,176L147,174L147,172L148,171L147,170L146,169L146,167L146,166L144,165L142,164L142,164L141,162L139,161L139,160L139,158L138,158L118,158L116,158L112,162L108,164L106,164L105,164L104,163L104,162L103,161L101,160L99,158L98,158L97,158L95,158L94,158L92,157L72,162L71,163L70,164L70,166L69,168L70,169L72,169L72,171L72,174L72,175L73,176L74,177L75,178L74,179L74,181L75,182L76,183L77,184L76,185L74,187L74,189L74,190L75,190L79,192L81,193L82,191L83,191L87,191L94,191L95,192L96,193L98,193L103,192L105,192L109,194L110,194L111,196L113,196L121,198Z " data-fips="SG03" data-hasc="SN.DB" data-name="Diourbel" data-postal="DB" data-varname=""/><path d="M116,276L116,274L115,272L112,270L111,268L111,267L110,264L110,263L109,262L108,261L105,259L104,258L104,257L104,255L105,254L106,253L107,252L108,251L108,249L106,243L105,242L104,240L104,238L105,237L105,236L105,234L105,233L104,231L102,230L100,229L99,228L94,228L94,228L92,229L90,229L89,228L88,228L87,230L84,231L83,232L81,234L80,235L76,238L77,238L78,239L79,238L80,238L79,239L78,239L77,240L77,242L75,241L74,242L73,243L72,244L72,243L71,243L70,242L68,242L67,242L66,242L64,244L63,245L63,247L63,249L64,251L64,252L64,253L63,255L64,256L65,257L66,258L66,260L67,260L69,258L70,257L71,256L71,255L72,254L73,254L75,253L77,253L78,252L79,252L80,251L81,249L82,245L82,244L84,241L84,242L82,250L82,251L83,252L83,254L84,256L84,258L83,258L82,257L81,255L81,254L79,254L79,256L77,255L76,256L74,259L73,261L72,263L72,267L72,268L73,270L75,270L77,270L78,268L78,267L80,267L80,266L81,264L81,263L82,263L82,264L82,265L81,266L82,267L80,269L78,270L77,271L77,274L78,276L117,276Z M61,247L62,244L64,241L64,239L66,237L65,236L66,235L69,235L70,233L71,233L69,235L67,236L65,240L67,240L69,241L71,241L73,240L73,239L74,238L75,237L76,236L79,235L79,234L82,230L82,229L84,229L85,229L86,228L86,228L85,226L86,225L87,224L87,226L89,227L93,227L94,226L95,223L99,217L101,214L103,213L106,213L111,212L115,211L115,212L113,215L113,217L113,219L113,220L113,223L114,224L115,225L116,226L118,226L119,227L120,229L121,230L121,231L122,232L126,233L128,233L129,234L131,232L132,232L134,232L135,231L136,230L136,228L136,227L138,223L140,218L140,217L140,209L142,205L148,199L155,193L157,193L159,193L162,193L167,191L168,190L171,182L169,179L169,177L168,172L167,172L166,171L160,172L158,171L157,170L155,170L150,170L148,171L147,172L147,174L144,176L143,177L142,178L142,180L141,180L140,181L139,189L139,190L134,195L132,196L129,197L123,198L121,198L113,196L111,196L110,194L109,194L105,192L103,192L98,193L96,193L95,192L94,191L87,191L83,191L82,191L81,193L80,195L79,198L77,200L76,202L74,203L73,203L72,205L71,205L68,205L64,217L63,222L63,223L63,224L61,227L61,228L61,229L58,231L59,232L60,236L60,238L61,255Z " data-fips="SG09" data-hasc="SN.FK" data-name="Fatick" data-postal="FK" data-varname=""/><path d="M164,276L164,273L164,271L165,269L166,267L167,266L169,263L173,261L175,260L176,259L180,260L181,261L183,263L185,263L191,259L197,257L198,257L203,259L212,259L214,260L216,261L216,261L216,260L218,258L219,256L220,255L222,255L223,255L224,254L228,253L230,251L235,247L235,246L235,245L235,243L236,242L238,241L238,240L239,236L239,235L239,233L238,230L238,223L237,222L236,220L234,215L234,199L235,197L234,195L233,195L219,191L217,190L216,188L214,186L213,185L212,185L210,186L203,191L202,191L200,192L197,191L185,189L181,187L171,182L168,190L167,191L162,193L159,193L157,193L155,193L148,199L142,205L140,209L140,217L140,218L138,223L136,227L136,228L136,230L135,231L134,232L132,232L131,232L129,234L128,233L126,233L122,232L121,231L121,230L120,229L119,227L118,226L116,226L115,225L114,224L113,223L113,220L113,219L113,217L113,215L115,212L115,211L111,212L106,213L103,213L101,214L99,217L95,223L94,226L93,227L94,228L99,228L100,229L102,230L104,231L105,233L105,234L105,236L105,237L104,238L104,240L105,242L106,243L108,249L108,251L107,252L106,253L105,254L104,255L104,257L104,258L105,259L108,261L109,262L110,263L110,264L111,267L111,268L112,270L115,272L116,274L116,276L117,276L163,276Z " data-fips="" data-hasc="" data-name="Kaolack" data-postal="" data-varname=""/><path d="M244,197L248,194L251,191L252,190L253,189L261,180L261,179L262,177L257,171L255,166L253,159L252,158L250,156L248,156L247,155L246,155L245,154L243,151L242,150L242,148L242,147L245,130L246,129L247,128L252,128L252,127L253,124L253,123L252,122L251,120L251,119L252,115L251,114L252,112L253,109L253,108L253,107L240,83L238,81L237,81L236,81L228,81L218,75L217,75L160,75L158,75L158,76L158,79L157,81L156,81L140,62L138,60L137,59L137,60L135,61L133,62L133,63L132,65L131,66L115,75L112,77L111,78L111,80L107,82L106,82L106,83L105,86L104,87L103,88L101,88L100,88L99,88L97,89L96,90L94,90L81,90L81,91L81,93L70,111L65,118L66,118L68,121L69,122L69,123L68,124L67,127L66,129L66,132L66,134L67,135L68,136L69,137L70,138L71,139L72,140L74,141L74,142L74,143L74,144L74,146L75,147L77,147L78,145L82,140L83,138L83,137L85,135L86,134L87,133L87,132L88,131L89,131L94,132L96,131L97,132L98,133L98,137L98,138L99,138L100,138L101,138L102,140L103,141L103,142L103,145L103,146L103,147L104,150L107,153L107,154L108,156L108,157L109,158L110,159L112,160L116,158L118,158L138,158L139,158L139,160L139,161L141,162L142,164L142,164L144,165L146,166L146,167L146,169L147,170L148,171L150,170L155,170L157,170L158,171L160,172L166,171L167,172L168,172L169,177L169,179L171,182L181,187L185,189L197,191L200,192L202,191L203,191L210,186L212,185L213,185L214,186L216,188L217,190L219,191L233,195L234,195L235,197L234,199Z " data-fips="SG13" data-hasc="SN.LG" data-name="Louga" data-postal="LG" data-varname=""/><path d="M326,208L347,192L349,192L371,195L374,195L386,194L387,193L388,192L395,182L401,166L401,165L400,163L400,161L391,150L391,150L389,149L386,146L384,145L383,144L384,141L383,140L382,139L381,139L378,139L377,138L375,137L374,135L375,135L378,135L379,135L380,134L379,132L378,131L373,128L372,127L372,126L371,124L371,122L371,120L370,119L369,116L369,115L367,114L366,115L365,115L364,116L363,117L361,117L359,116L358,115L358,114L358,111L358,110L358,109L357,108L356,107L353,106L351,105L350,105L348,106L346,106L346,103L346,101L347,99L347,98L346,96L345,95L343,94L343,93L343,92L343,91L343,89L343,88L342,86L340,84L340,83L340,81L340,79L338,78L337,77L336,76L336,75L334,72L334,71L334,69L331,67L330,66L329,66L325,66L325,65L326,63L326,61L325,61L324,62L320,63L316,64L314,64L312,65L311,65L310,65L309,64L308,63L307,62L308,61L308,60L307,59L306,59L305,60L303,63L301,64L300,65L298,64L297,63L296,62L295,60L294,58L292,57L289,56L288,55L288,54L288,52L288,51L287,50L287,49L287,47L286,46L284,45L282,43L279,41L274,37L272,34L269,32L268,30L266,29L264,29L263,28L263,27L262,26L259,26L258,25L258,23L257,21L252,19L250,20L248,21L246,22L245,22L240,21L237,22L235,22L233,21L232,21L228,22L214,21L212,21L210,21L210,20L209,19L208,17L207,17L205,18L204,19L203,20L203,21L202,22L201,22L200,21L199,20L199,19L197,19L196,19L196,20L195,21L196,22L197,23L197,25L196,25L195,26L186,27L185,27L181,27L179,27L177,27L174,29L173,29L172,29L170,28L169,26L168,26L167,27L166,27L164,30L163,31L162,31L161,32L157,31L156,31L155,32L153,33L152,34L151,34L150,34L148,34L146,33L143,33L140,32L138,32L136,32L133,31L132,31L129,33L128,33L127,32L125,32L124,33L122,33L120,33L119,32L117,31L116,29L115,28L113,28L112,29L111,29L109,31L107,31L105,30L103,31L101,32L100,33L98,35L98,36L97,40L94,54L93,55L92,56L89,57L88,58L87,60L87,65L85,69L84,72L84,73L84,82L83,87L81,90L94,90L96,90L97,89L99,88L100,88L101,88L103,88L104,87L105,86L106,83L106,82L107,82L111,80L111,78L112,77L115,75L131,66L132,65L133,63L133,62L135,61L137,60L137,59L138,60L140,62L156,81L157,81L158,79L158,76L158,75L160,75L217,75L218,75L228,81L236,81L237,81L238,81L240,83L253,107L253,108L253,109L252,112L251,114L252,115L251,119L251,120L252,122L253,123L253,124L252,127L252,128L247,128L246,129L245,130L242,147L242,148L242,150L243,151L245,154L246,155L247,155L248,156L250,156L252,158L253,159L255,166L257,171L262,177L261,179L261,180L260,191L261,193L262,194L264,195L299,208L303,209Z " data-fips="SG14" data-hasc="SN.SL" data-name="Matam" data-postal="SL" data-varname=""/><path d="M61,229L61,228L61,227L63,224L63,223L63,222L64,217L68,205L71,205L72,205L73,203L74,203L76,202L77,200L79,198L80,195L81,193L79,192L75,190L74,190L74,189L74,187L76,185L77,184L76,183L75,182L74,181L74,179L75,178L74,177L73,176L72,175L72,174L72,171L72,169L70,169L69,168L70,166L70,164L71,163L72,162L92,157L94,158L95,158L97,158L98,158L99,158L101,160L103,161L104,162L104,163L105,164L106,164L108,164L112,162L112,160L110,159L109,158L108,157L108,156L107,154L107,153L104,150L103,147L103,146L103,145L103,142L103,141L102,140L101,138L100,138L99,138L98,138L98,137L98,133L97,132L96,131L94,132L89,131L88,131L87,132L87,133L86,134L85,135L83,137L83,138L82,140L78,145L77,147L75,147L74,146L74,144L74,143L74,142L74,141L72,140L71,139L70,138L69,137L68,136L67,135L66,134L66,132L66,129L67,127L68,124L69,123L69,122L68,121L66,118L65,118L65,118L53,138L48,144L45,148L32,163L29,166L30,170L31,171L31,174L32,177L33,178L31,190L31,190L32,191L34,197L37,201L37,202L38,203L44,206L47,208L47,210L48,212L47,215L48,216L49,217L50,218L51,219L52,221L52,225L53,226L53,227L56,228L57,228L57,229L58,231Z " data-fips="SG07" data-hasc="SN.TH" data-name="This" data-postal="TH" data-varname=""/><path d="M149,372L170,362L175,359L180,357L184,353L186,352L189,352L308,352L335,353L338,354L339,353L338,351L336,351L334,351L333,351L331,351L329,350L328,348L329,347L329,344L329,342L328,341L328,340L329,338L328,337L330,337L329,336L329,334L328,333L326,331L326,330L326,329L326,328L326,325L325,325L324,324L324,322L323,321L322,320L321,318L321,317L320,317L319,315L318,313L317,311L318,310L318,308L317,306L317,305L316,305L315,304L314,303L313,302L311,301L311,300L311,298L311,297L310,296L311,295L310,294L309,294L307,294L306,294L304,293L305,292L306,291L306,290L306,289L308,287L308,286L307,286L305,285L304,285L303,286L302,285L301,284L302,283L302,282L302,280L301,280L300,280L299,281L298,282L297,282L295,283L296,283L298,285L299,285L300,287L301,289L300,293L298,297L294,299L291,299L288,299L285,300L281,300L278,302L276,302L275,302L271,305L270,306L268,306L267,306L265,306L263,305L258,306L256,305L254,305L253,304L251,303L250,303L249,302L249,301L248,300L247,300L244,300L243,300L241,298L238,296L235,296L232,297L229,296L226,295L224,293L223,291L222,290L220,290L219,290L216,288L215,288L211,287L209,287L203,284L201,282L199,281L196,277L194,276L192,277L191,277L188,281L187,282L187,285L187,287L186,290L184,292L183,293L182,293L181,294L179,294L177,295L174,295L165,293L162,293L161,294L159,295L156,295L155,296L149,295L148,295L145,296L139,297L138,297L138,298L138,304L138,306L137,312L132,312L132,312L131,313L130,315L129,316L130,317L131,317L131,318L128,325L124,331L124,333L124,335L124,337L124,338L123,339L122,340L121,346L121,348L121,348L122,349L122,350L123,351L125,354L126,354L127,355L127,356L129,358L131,359L132,358L134,358L135,357L136,358L137,359L138,359L142,356L148,357L150,358L151,362L152,362L154,361L158,357L158,357L160,355L161,354L160,352L159,348L159,344L160,342L161,342L163,342L165,341L167,340L168,339L169,339L170,340L172,340L173,339L173,341L172,342L170,341L168,340L168,341L167,342L166,343L164,343L163,343L162,343L161,343L160,345L161,348L161,350L162,352L162,354L163,354L163,356L162,357L161,357L158,361L157,362L153,364L151,364L150,363L149,362L148,360L146,360L145,359L144,360L142,359L141,360L140,361L139,361L137,362L136,362L134,360L128,360L127,359L126,358L126,359L126,361L127,363L129,366L130,367L133,372L147,372Z " data-fips="SG11" data-hasc="SN.KD" data-name="Kolda" data-postal="KD" data-varname=""/><path d="M65,379L68,378L80,379L81,379L85,378L89,378L92,377L104,371L106,371L108,371L109,371L110,371L117,370L119,370L124,372L125,372L133,372L130,367L129,366L127,363L126,361L126,359L126,358L124,356L123,356L121,356L120,356L118,357L117,357L115,358L114,358L107,360L106,358L105,358L103,359L101,359L100,359L98,358L96,359L95,362L93,362L91,362L89,361L86,360L84,359L82,358L81,359L80,360L80,361L79,360L77,357L76,355L72,358L71,360L71,361L68,362L65,362L64,362L59,364L59,366L58,368L58,371L58,372L59,373L61,375L62,376L63,378L63,379L64,380Z M95,359L96,358L98,357L100,358L102,358L105,357L108,357L110,357L111,357L114,356L117,355L119,354L120,350L121,349L121,348L121,346L122,340L123,339L124,338L124,337L124,335L124,333L124,331L128,325L131,318L131,317L130,317L129,316L130,315L131,313L132,312L132,312L75,311L68,311L66,312L64,314L63,316L62,317L62,320L62,321L62,323L61,327L61,330L62,332L62,333L62,334L59,338L58,339L58,340L58,341L59,341L60,340L61,342L60,343L58,346L59,347L58,348L59,349L60,348L62,346L63,345L65,346L66,347L66,348L63,347L61,349L60,351L59,354L60,357L60,359L62,360L64,359L68,356L70,355L71,354L70,351L70,349L71,348L71,347L74,345L74,344L75,342L75,345L74,346L72,348L71,350L71,352L73,353L74,353L75,352L76,351L77,350L77,352L80,355L82,356L82,349L83,350L83,351L84,352L85,353L84,353L83,355L84,356L85,356L86,357L87,359L90,360L94,361Z " data-fips="SG12" data-hasc="SN.ZG" data-name="Ziguinchor" data-postal="ZG" data-varname=""/><path d="M434,378L437,377L439,374L442,373L443,373L448,375L450,375L451,375L454,373L455,372L456,372L461,374L462,375L469,375L472,374L476,373L478,372L480,372L482,371L489,371L492,371L496,372L497,373L498,373L499,373L499,371L500,368L500,366L499,365L498,366L497,364L496,363L495,364L494,362L493,361L495,360L495,358L495,357L495,353L494,352L493,352L493,350L494,349L495,347L496,347L497,347L498,345L497,343L497,342L497,340L497,339L496,338L495,337L496,336L496,333L496,332L496,331L496,330L497,330L498,329L499,329L499,325L497,324L497,325L497,326L496,327L495,326L495,324L495,323L495,322L494,321L494,320L493,319L493,317L493,317L491,316L490,316L489,315L488,314L487,314L486,313L486,310L485,309L484,308L484,307L484,304L485,303L484,301L483,299L480,297L480,295L479,293L478,294L477,293L477,291L475,291L472,292L472,291L471,290L469,289L468,290L467,291L467,293L467,295L462,298L461,297L461,295L460,294L457,293L457,292L458,287L458,286L457,285L456,284L454,283L453,282L448,278L447,277L445,274L444,271L442,268L441,266L440,265L442,264L447,261L450,258L451,254L451,251L451,249L451,248L449,246L448,245L447,244L446,241L446,238L447,232L448,228L448,226L445,219L444,218L443,217L440,216L439,215L438,214L437,213L438,213L439,212L438,211L430,208L429,208L430,204L429,202L428,199L428,197L429,196L430,195L431,193L431,191L432,190L434,188L434,187L432,186L432,185L432,184L432,182L430,182L429,182L428,181L428,180L426,178L426,176L421,172L416,170L415,169L412,166L411,164L408,156L407,155L404,154L403,153L398,151L397,149L396,148L394,149L391,150L400,161L400,163L401,165L401,166L395,182L388,192L387,193L386,194L374,195L371,195L349,192L347,192L326,208L303,209L299,208L264,195L262,194L261,193L260,191L253,189L252,190L251,191L248,194L244,197L234,199L234,215L236,220L237,222L238,223L238,230L239,233L239,235L239,236L238,240L238,241L236,242L235,243L235,245L235,246L235,247L230,251L228,253L224,254L223,255L222,255L220,255L219,256L218,258L216,260L216,261L216,261L217,262L218,264L219,265L221,271L225,273L226,274L227,273L232,271L235,270L238,270L242,272L243,273L244,274L245,276L246,280L247,281L248,282L254,286L256,287L258,287L259,287L260,287L264,285L268,282L270,282L272,281L275,281L276,280L278,279L281,278L283,278L284,278L286,277L287,277L288,277L291,278L292,278L293,279L294,281L295,282L295,283L297,282L298,282L299,281L300,280L301,280L302,280L302,282L302,283L301,284L302,285L303,286L304,285L305,285L307,286L308,286L308,287L306,289L306,290L306,291L305,292L304,293L306,294L307,294L309,294L310,294L311,295L310,296L311,297L311,298L311,300L311,301L313,302L314,303L315,304L316,305L317,305L317,306L318,308L318,310L317,311L318,313L319,315L320,317L321,317L321,318L322,320L323,321L324,322L324,324L325,325L326,325L326,328L326,329L326,330L326,331L328,333L329,334L329,336L330,337L328,337L329,338L328,340L328,341L329,342L329,344L329,347L328,348L329,350L331,351L333,351L334,351L336,351L338,351L339,353L338,354L339,354L340,355L341,354L344,354L345,354L347,355L348,355L350,354L350,355L352,355L353,355L354,355L355,355L356,354L357,355L359,355L360,355L361,355L362,356L363,358L363,359L362,361L361,364L361,365L361,367L362,368L364,369L365,369L366,369L368,369L369,369L370,368L370,367L371,366L372,363L375,363L376,364L378,365L380,367L380,368L382,369L384,369L386,371L387,372L388,372L393,371L395,372L396,372L398,373L400,376L401,378L403,377L405,376L407,375L408,375L410,375L411,376L415,377L416,378L418,380L419,381L420,382Z " data-fips="SG05" data-hasc="SN.TC" data-name="Tambacounda" data-postal="TC" data-varname="Sngal Oriental"/></g></svg>