<?xml version="1.0" ?><!DOCTYPE svg  PUBLIC '-//W3C//DTD SVG 1.1//EN'  'http://www.w3.org/Graphics/SVG/1.1/DTD/svg11.dtd'><svg enable_background="new 0 0 500 401" height="401px" style="stroke-linejoin: round; stroke:#000; fill:#f6f3f0;" version="1.1" viewBox="0 0 500 401" width="500px" xmlns="http://www.w3.org/2000/svg" xmlns:xlink="http://www.w3.org/1999/xlink"><defs><style type="text/css"><![CDATA[path { fill-rule: evenodd; }
#context path { fill: #eee; stroke: #bbb; } ]]></style></defs><metadata><views><view h="401" padding="0" w="500"><proj id="laea" lat0="-26.562" lon0="31.497"/><bbox h="19.51" w="14.73" x="992.11" y="989.81"/><llbbox lat0="-90" lat1="90" lon0="-180" lon1="180"/></view></views></metadata><g id="admin1"><path d="M207,181L209,180L209,179L209,177L209,173L209,171L209,169L210,166L209,164L209,163L209,161L210,160L212,157L213,156L213,155L213,153L213,149L213,148L213,147L214,146L216,145L218,144L225,142L227,141L228,140L229,138L230,137L231,137L239,138L241,138L242,137L244,136L246,135L259,130L261,129L262,128L262,127L263,122L263,121L264,121L268,119L270,117L271,116L271,116L273,113L274,111L275,110L277,109L279,109L288,109L292,108L300,105L301,103L302,96L300,55L300,52L304,54L305,54L307,54L308,54L311,53L312,52L313,52L315,52L316,52L317,49L291,32L245,2L239,0L232,0L224,2L218,5L175,44L172,49L169,63L157,92L141,120L125,141L128,142L162,164L163,165L164,168L166,171L167,172L169,173L170,173L180,175L182,175L184,174L186,174L188,174L191,174L193,174L194,176L196,178L200,181L203,182L206,182Z " data-fips="WZ01" data-hasc="SZ.HH" data-name="Hhohho" data-postal="HH" data-varname=""/><path d="M361,345L372,278L372,271L387,271L390,272L396,277L400,279L401,214L398,193L388,172L386,164L383,138L385,131L392,111L393,104L392,96L389,86L388,77L391,69L376,65L369,62L363,56L350,63L344,64L337,62L325,54L317,49L316,52L315,52L313,52L312,52L311,53L308,54L307,54L305,54L304,54L300,52L300,55L302,96L301,103L300,105L304,120L305,125L305,126L305,127L306,130L304,136L304,142L303,146L301,150L299,153L297,156L293,159L291,161L291,163L291,165L290,166L289,167L285,170L285,171L286,174L287,176L286,182L285,184L285,186L285,188L286,191L286,192L286,194L284,195L282,196L280,197L279,198L279,199L281,203L282,205L283,213L284,222L283,224L281,226L268,232L267,233L266,234L266,235L260,248L259,254L259,259L272,258L273,259L275,260L274,262L272,266L272,267L272,269L272,272L272,274L271,276L266,281L265,285L262,289L261,291L261,293L261,295L266,303L267,305L270,308L272,310L273,310L274,310L276,309L277,309L278,309L280,310L281,311L284,313L288,317L293,321L303,327L305,328L307,329L310,329L312,329L318,327L320,327L322,328L324,330L328,340L329,341L331,341L333,341L335,342L342,345L343,346L343,351L343,352L344,353L345,354L347,354L351,354L353,355L353,356L353,358L353,359L355,360L361,360Z " data-fips="WZ02" data-hasc="SZ.LU" data-name="Lubombo" data-postal="LU" data-varname=""/><path d="M175,280L187,274L190,273L193,273L195,272L197,271L199,271L201,271L204,272L214,280L216,280L217,277L217,276L217,275L218,273L220,272L221,271L222,270L222,269L222,268L224,267L235,266L237,265L239,264L240,262L241,261L245,258L250,257L259,259L259,254L260,248L266,235L266,234L267,233L268,232L281,226L283,224L284,222L283,213L282,205L281,203L279,199L279,198L280,197L282,196L284,195L286,194L286,192L286,191L285,188L285,186L285,184L286,182L287,176L286,174L285,171L285,170L289,167L290,166L291,165L291,163L291,161L293,159L297,156L299,153L301,150L303,146L304,142L304,136L306,130L305,127L305,126L305,125L304,120L300,105L292,108L288,109L279,109L277,109L275,110L274,111L273,113L271,116L271,116L270,117L268,119L264,121L263,121L263,122L262,127L262,128L261,129L259,130L246,135L244,136L242,137L241,138L239,138L231,137L230,137L229,138L228,140L227,141L225,142L218,144L216,145L214,146L213,147L213,148L213,149L213,153L213,155L213,156L212,157L210,160L209,161L209,163L209,164L210,166L209,169L209,171L209,173L209,177L209,179L209,180L207,181L206,182L203,182L200,181L196,178L194,176L193,174L191,174L188,174L186,174L184,174L182,175L180,175L170,173L169,173L167,172L166,171L164,168L163,165L162,164L128,142L125,141L104,167L99,186L100,248L103,265L104,271L108,271L112,270L116,268L119,265L122,262L123,265L123,265L126,262L134,260L135,259L136,259L139,262L141,263L147,262L154,261L157,261L159,261L161,263L161,264L162,266L162,269L162,272L162,273L161,275L162,277L165,281L165,283L164,285L164,286L164,288L165,288Z " data-fips="WZ03" data-hasc="SZ.MA" data-name="Manzini" data-postal="MA" data-varname=""/><path d="M366,396L366,393L364,390L363,387L362,384L361,360L355,360L353,359L353,358L353,356L353,355L351,354L347,354L345,354L344,353L343,352L343,351L343,346L342,345L335,342L333,341L331,341L329,341L328,340L324,330L322,328L320,327L318,327L312,329L310,329L307,329L305,328L303,327L293,321L288,317L284,313L281,311L280,310L278,309L277,309L276,309L274,310L273,310L272,310L270,308L267,305L266,303L261,295L261,293L261,291L262,289L265,285L266,281L271,276L272,274L272,272L272,269L272,267L272,266L274,262L275,260L273,259L272,258L259,259L250,257L245,258L241,261L240,262L239,264L237,265L235,266L224,267L222,268L222,269L222,270L221,271L220,272L218,273L217,275L217,276L217,277L216,280L214,280L204,272L201,271L199,271L197,271L195,272L193,273L190,273L187,274L175,280L165,288L164,288L164,286L164,285L165,283L165,281L162,277L161,275L162,273L162,272L162,269L162,266L161,264L161,263L159,261L157,261L154,261L147,262L141,263L139,262L136,259L135,259L134,260L126,262L123,265L123,265L127,277L130,281L136,288L139,292L140,297L140,303L137,313L138,319L144,328L167,349L177,365L181,369L184,371L204,378L252,394L267,397L366,399Z " data-fips="WZ04" data-hasc="SZ.SH" data-name="Shiselweni" data-postal="SH" data-varname="Shiselwini"/></g></svg>