<?xml version="1.0" ?><!DOCTYPE svg  PUBLIC '-//W3C//DTD SVG 1.1//EN'  'http://www.w3.org/Graphics/SVG/1.1/DTD/svg11.dtd'><svg enable_background="new 0 0 500 401" height="401px" style="stroke-linejoin: round; stroke:#000; fill:#f6f3f0;" version="1.1" viewBox="0 0 500 401" width="500px" xmlns="http://www.w3.org/2000/svg" xmlns:xlink="http://www.w3.org/1999/xlink"><defs><style type="text/css"><![CDATA[path { fill-rule: evenodd; }
#context path { fill: #eee; stroke: #bbb; } ]]></style></defs><metadata><views><view h="401" padding="0" w="500"><proj id="laea" lat0="1.28" lon0="32.386"/><bbox h="70.28" w="67.34" x="964.98" y="963.71"/><llbbox lat0="-90" lat1="90" lon0="-180" lon1="180"/></view></views></metadata><g id="admin1"><path d="M290,366L290,307L265,307L258,307L230,307L228,306L226,306L226,307L226,309L228,309L229,309L229,310L229,312L230,313L231,313L231,314L232,315L233,316L233,318L235,318L235,320L234,322L233,323L231,324L230,325L230,350L230,366L281,366Z " data-fips="UG36" data-hasc="UG.KN" data-name="Kalangala" data-postal="KN" data-varname=""/><path d="M330,274L334,269L335,267L336,266L337,265L338,265L339,266L340,264L340,263L339,262L339,260L339,259L337,257L336,259L334,257L331,257L329,257L329,255L329,254L327,253L326,252L324,251L322,250L321,251L315,248L313,248L312,248L310,248L310,249L308,249L306,250L304,251L307,256L312,261L313,263L314,266L315,267L318,267L321,267L321,269L321,272L328,274Z " data-fips="UG33" data-hasc="UG.JI" data-name="Jinja" data-postal="JI" data-varname=""/><path d="M384,212L386,209L387,207L388,205L388,203L389,201L390,198L388,194L387,193L387,191L387,187L387,182L374,181L370,181L367,182L363,181L361,179L357,179L356,180L354,179L352,180L351,182L347,197L344,199L342,199L341,201L340,202L341,202L341,204L343,204L347,204L349,202L350,202L352,202L353,203L354,204L356,204L358,204L359,205L360,206L362,207L364,207L366,208L373,211L374,212L376,212L380,214Z " data-fips="UG46" data-hasc="UG.KU" data-name="Kumi" data-postal="KU" data-varname=""/><path d="M315,193L320,192L321,189L320,188L318,188L316,187L316,184L318,182L321,181L323,180L326,179L328,178L330,177L331,173L331,171L331,170L331,169L333,166L332,165L332,163L330,161L330,159L329,158L328,157L327,156L324,153L320,158L319,160L319,161L318,162L311,166L310,167L309,170L308,174L307,175L306,176L305,176L303,177L300,175L299,179L297,180L298,186L299,193L301,193L302,193L306,195L308,197Z " data-fips="UG80" data-hasc="UG.KD" data-name="Kaberamaido" data-postal="KD" data-varname=""/><path d="M306,260L307,256L304,251L304,246L304,243L303,240L302,237L298,232L298,229L296,220L296,218L298,217L298,216L298,214L298,213L296,209L295,207L294,205L292,203L291,203L292,204L292,205L291,204L290,202L289,198L287,192L279,193L279,198L281,199L283,200L284,201L285,202L285,204L285,206L286,213L285,228L286,236L288,241L291,245L292,249L294,250L295,250L295,251L300,258L302,259L304,260Z " data-fips="UG83" data-hasc="UG.KY" data-name="Kayunga" data-postal="KY" data-varname=""/><path d="M343,263L343,260L344,258L346,256L347,254L348,251L347,248L345,246L345,244L344,242L341,240L340,240L339,239L335,235L334,235L333,235L331,235L329,234L328,231L329,227L328,224L328,223L327,222L326,221L324,220L323,223L324,224L323,225L322,227L322,230L322,232L321,233L321,234L321,236L321,237L320,238L320,240L319,241L318,242L317,242L317,243L316,247L321,251L322,250L324,251L326,252L327,253L329,254L329,255L329,257L331,257L334,257L336,259L337,257L339,259L339,260L339,262L340,263L340,264L343,265Z " data-fips="UGA2" data-hasc="UG.IN" data-name="Iganga" data-postal="IN" data-varname=""/><path d="M308,249L310,249L310,248L312,248L313,248L315,248L316,247L317,243L317,242L318,242L319,241L320,240L320,238L321,237L321,236L321,234L321,233L322,232L322,230L322,227L323,225L324,224L323,223L324,220L326,218L326,217L327,215L329,213L330,211L331,209L332,207L332,205L330,205L329,202L328,201L327,200L324,200L321,201L318,203L315,202L312,201L310,199L308,197L306,195L302,193L301,193L299,193L287,192L289,198L290,202L291,204L292,205L292,204L291,203L292,203L294,205L295,207L296,209L298,213L298,214L298,216L298,217L296,218L296,220L298,229L298,232L302,237L303,240L304,243L304,246L306,250Z " data-fips="UGA3" data-hasc="UG.KX" data-name="Kamuli" data-postal="KX" data-varname=""/><path d="M279,193L287,192L298,186L297,180L299,179L300,175L299,170L293,169L288,166L285,169L279,174L275,179L272,180L267,180L261,177L258,178L255,180L253,182L258,183L261,185L264,187L269,189L273,193Z " data-fips="UGB4" data-hasc="UG.LI.KO" data-name="Kyoga" data-postal="KO" data-varname=""/><path d="M341,226L342,225L343,223L344,221L344,217L342,215L341,213L339,212L337,211L336,209L334,207L332,205L332,207L331,209L330,211L329,213L327,215L326,217L326,218L324,220L326,221L327,222L328,223L328,224L329,227L328,231L329,234L331,235L333,235L334,235L335,235Z " data-fips="UGC2" data-hasc="UG.RO.BL" data-name="Bulamogi" data-postal="BL" data-varname=""/><path d="M368,229L371,226L376,223L376,222L378,222L379,221L380,218L380,216L379,215L376,212L374,212L373,211L368,212L367,214L368,217L369,220L368,221L368,222L366,222L362,226L360,228L360,230L364,231Z " data-fips="UGC9" data-hasc="UG.BD.BD" data-name="Budaka" data-postal="BD" data-varname=""/><path d="M357,248L358,245L357,244L356,241L355,239L355,237L355,234L354,232L350,228L349,226L349,223L348,222L344,221L343,223L342,225L341,226L339,239L340,240L341,240L344,242L345,244L347,246L349,246L352,247L353,245L355,248Z " data-fips="UGD2" data-hasc="UG.BK.BS" data-name="Busiki" data-postal="BS" data-varname=""/><path d="M339,204L340,202L341,201L342,199L344,199L347,197L351,182L352,180L354,179L356,180L357,179L357,178L357,175L356,174L356,173L355,171L353,169L351,167L350,166L348,165L347,164L347,162L346,161L345,161L343,160L341,159L339,157L338,155L335,154L333,155L333,158L332,160L332,163L332,165L333,166L331,169L331,170L331,171L331,173L330,177L328,178L326,179L323,180L321,181L318,182L316,184L316,187L318,188L320,188L321,189L320,192L315,193L308,197L310,199L312,201L315,202L318,203L321,201L324,200L327,200L328,201L329,202L331,202L331,203L333,204L334,203L336,203L337,204Z " data-fips="UG95" data-hasc="UG.SR" data-name="Soroti" data-postal="SR" data-varname=""/><path d="M331,366L331,281L328,274L321,272L321,269L321,267L318,267L315,267L314,266L313,263L312,261L306,260L304,260L302,259L300,258L295,251L295,250L294,250L292,249L291,245L288,241L286,236L283,240L283,247L283,249L281,252L278,257L278,259L277,260L278,262L277,263L277,266L277,268L279,272L277,276L276,278L274,286L274,296L270,300L267,304L265,307L290,307L290,366Z " data-fips="UG90" data-hasc="UG.MN" data-name="Mukono" data-postal="MN" data-varname=""/><path d="M360,228L362,226L366,222L368,222L368,221L369,220L368,217L367,214L368,212L366,208L364,207L362,207L360,206L359,205L358,204L356,204L354,204L353,203L352,202L350,202L349,202L347,204L343,204L341,204L341,202L340,202L339,204L337,204L336,203L334,203L333,204L331,203L331,202L329,202L330,205L332,205L334,207L336,209L337,211L339,212L341,213L342,215L344,217L348,222L349,223L349,226L350,228L356,229L360,230Z " data-fips="UGB3" data-hasc="UG.PL" data-name="Pallisa" data-postal="PL" data-varname=""/><path d="M187,319L190,317L191,317L193,318L197,318L198,319L200,319L201,319L202,317L201,315L200,314L198,308L197,297L199,294L202,292L197,289L191,286L190,285L188,283L187,282L184,282L179,284L176,284L174,282L172,280L169,279L166,281L164,281L161,281L161,282L162,284L163,287L164,290L164,294L163,296L162,297L162,298L164,298L166,299L168,298L169,298L170,298L174,299L174,300L178,302L179,300L181,301L182,303L182,305L182,306L182,307L182,309L181,310L181,312L181,318L184,320Z " data-fips="UG74" data-hasc="UG.SE" data-name="Sembabule" data-postal="SE" data-varname="Ssembabule"/><path d="M248,303L248,300L246,297L246,294L247,292L248,291L249,290L250,288L251,287L253,287L254,286L255,284L256,283L257,282L258,281L259,280L260,277L260,274L256,270L249,268L249,269L249,270L249,273L248,274L246,275L245,274L244,277L242,278L240,275L236,275L235,277L232,278L230,279L230,279L228,280L227,279L226,280L224,280L223,280L222,279L220,276L218,276L213,279L210,279L208,278L206,277L205,276L204,275L203,274L202,273L201,272L200,270L194,273L188,275L186,275L183,276L182,279L184,282L187,282L188,283L190,285L191,286L197,289L202,292L204,293L206,292L208,291L209,290L214,291L218,293L222,298L228,306L230,307Z " data-fips="UG89" data-hasc="UG.MI" data-name="Mpigi" data-postal="MI" data-varname=""/><path d="M200,95L201,94L202,92L205,90L207,91L209,90L218,88L221,88L222,88L224,88L225,87L224,85L226,83L226,82L226,80L229,76L229,74L229,73L230,72L231,71L232,70L232,68L232,67L232,66L234,63L233,62L233,61L233,59L233,58L234,56L234,46L234,45L232,44L231,45L228,46L227,47L227,49L226,50L224,51L223,51L221,50L220,49L218,49L217,48L215,49L213,51L212,51L209,51L208,53L207,54L207,55L206,57L206,58L204,61L202,62L202,64L201,65L200,66L200,68L199,71L197,75L197,77L194,81L191,84L190,86L189,89L190,90L192,92L193,92L195,93L197,93L197,94L198,95Z " data-fips="UG65" data-hasc="UG.AD" data-name="Adjumani" data-postal="AD" data-varname=""/><path d="M172,117L175,116L177,114L178,111L181,109L182,108L181,107L182,106L183,105L183,104L184,103L185,102L188,101L187,98L186,95L187,92L189,89L190,86L191,84L194,81L197,77L197,75L190,68L189,70L190,73L190,76L189,77L188,77L186,78L185,79L182,80L176,80L175,80L172,84L171,84L168,82L166,82L165,82L163,82L162,81L161,80L158,78L155,77L147,77L144,77L143,80L143,82L143,83L144,84L147,86L148,87L150,90L150,93L150,96L149,100L148,101L147,102L146,103L144,110L144,110L147,110L150,109L153,109L155,109L155,108L156,107L157,107L159,107L160,109L160,112L162,115L167,117Z " data-fips="UG99" data-hasc="UG.AW.AU" data-name="Arua Municipality" data-postal="AU" data-varname="Arua"/><path d="M167,58L168,51L168,35L168,32L166,34L164,35L161,36L160,37L158,37L156,39L156,40L151,47L150,50L149,51L151,51L152,49L153,49L154,51L154,54L155,56L154,58L154,58L156,60L158,62L160,63L161,62L162,62L164,64Z " data-fips="UGC4" data-hasc="UG.OK.KB" data-name="Koboko" data-postal="KB" data-varname=""/><path d="M209,176L210,175L210,173L209,173L208,173L207,172L208,171L208,170L207,168L207,167L207,163L208,161L209,159L209,156L209,154L211,153L213,152L214,151L214,135L207,137L205,137L204,136L199,136L198,136L195,138L192,139L189,141L186,142L182,145L180,145L180,148L178,152L167,165L167,165L185,171L186,175L186,176L187,177L188,177L189,178L190,178L192,177L194,177L195,177L197,177L198,175L199,175L200,174L201,173L202,173L203,174L203,175L203,178L205,179Z " data-fips="UGD1" data-hasc="UG.BL" data-name="Bujenje" data-postal="BL" data-varname=""/><path d="M186,142L189,141L192,139L195,138L198,136L199,136L204,136L205,137L207,137L214,135L216,132L217,131L218,131L221,130L223,130L224,130L226,131L228,132L229,133L233,135L235,136L237,137L239,138L242,139L244,139L245,138L246,137L248,132L247,126L248,123L250,123L253,123L256,123L255,121L252,121L251,120L250,118L249,116L249,114L252,112L251,111L250,110L250,109L250,107L250,104L250,103L249,102L248,102L244,88L246,86L247,85L248,77L248,74L250,74L251,74L253,70L258,67L253,64L249,59L249,57L246,54L245,53L245,52L244,50L243,49L243,49L242,50L237,49L236,48L234,46L234,56L233,58L233,59L233,61L233,62L234,63L232,66L232,67L232,68L232,70L231,71L230,72L229,73L229,74L229,76L226,80L226,82L226,83L224,85L225,87L224,88L222,88L221,88L218,88L209,90L207,91L205,90L202,92L201,94L200,95L198,95L197,94L197,93L195,93L193,92L192,92L190,90L189,89L187,92L186,95L187,98L188,101L190,101L191,102L191,103L192,105L192,107L192,108L190,109L190,111L190,112L191,114L192,115L193,116L194,119L195,120L197,120L198,120L197,122L196,123L195,123L194,124L194,126L194,127L194,129L193,131L192,132L191,133L187,134L184,137L182,145Z " data-fips="UGD4" data-hasc="UG.GL" data-name="Gulu" data-postal="GL" data-varname=""/><path d="M182,145L184,137L187,134L191,133L192,132L193,131L194,129L194,127L194,126L194,124L195,123L196,123L197,122L198,120L197,120L195,120L194,119L193,116L192,115L191,114L190,112L190,111L190,109L192,108L192,107L192,105L191,103L191,102L190,101L188,101L185,102L184,103L183,104L183,105L182,106L181,107L182,108L181,109L178,111L177,114L175,116L172,117L167,117L162,115L160,112L160,109L159,107L157,107L156,107L155,108L155,109L153,109L150,109L147,110L144,110L144,110L144,111L142,114L142,115L142,118L142,119L142,120L141,122L140,123L140,124L141,125L146,125L147,126L147,127L147,128L148,129L149,131L150,132L152,132L154,131L155,129L156,127L158,127L160,128L164,132L164,134L163,135L164,135L168,136L170,136L173,134L173,137L173,139L174,140L175,141L179,143L180,145Z " data-fips="UG58" data-hasc="UG.NE" data-name="Nebbi" data-postal="NE" data-varname=""/><path d="M199,71L200,68L200,66L201,65L202,64L202,62L204,61L206,58L206,57L207,55L207,54L208,53L209,51L212,51L213,51L215,49L217,48L218,49L220,49L221,50L223,51L224,51L226,50L227,49L227,47L228,46L231,45L232,44L227,44L226,44L225,42L225,39L225,38L224,36L219,31L217,29L215,29L209,36L207,36L200,37L199,38L198,39L198,39L198,40L197,41L198,43L199,45L198,46L193,53L191,60L190,68L197,75Z " data-fips="UG72" data-hasc="UG.MY" data-name="Moyo" data-postal="MY" data-varname=""/><path d="M190,68L191,60L193,53L198,46L199,45L198,43L197,41L198,40L198,39L198,39L197,40L196,39L181,31L179,30L176,30L172,30L171,30L168,32L168,35L168,51L167,58L164,64L166,65L168,65L169,64L170,62L171,61L173,61L175,62L176,63L179,66L183,67L184,68L185,69L187,70L189,70Z " data-fips="UG97" data-hasc="UG.YU" data-name="Yumbe" data-postal="YU" data-varname=""/><path d="M172,84L175,80L176,80L182,80L185,79L186,78L188,77L189,77L190,76L190,73L189,70L187,70L185,69L184,68L183,67L179,66L176,63L175,62L173,61L171,61L170,62L169,64L168,65L166,65L164,64L162,62L161,62L160,63L158,62L156,60L154,58L154,58L154,59L151,61L150,64L149,65L148,66L147,68L144,77L147,77L155,77L158,78L161,80L162,81L163,82L165,82L166,82L168,82L171,84Z " data-fips="UGD5" data-hasc="UG.MH" data-name="Maracha" data-postal="MH" data-varname=""/><path d="M277,276L279,272L277,268L277,266L277,263L278,262L277,260L275,261L274,261L274,262L272,263L271,263L270,262L269,262L268,263L269,264L268,265L269,266L270,266L270,268L270,268L270,270L269,272L267,274L269,277L272,277L276,278Z " data-fips="UG37" data-hasc="UG.KM" data-name="Kampala" data-postal="KM" data-varname=""/><path d="M234,254L235,253L235,252L236,251L237,250L239,250L240,250L243,248L244,246L244,245L244,243L244,239L242,236L239,233L236,232L234,232L232,231L231,227L231,225L231,224L225,220L225,219L224,211L223,209L221,208L220,204L217,201L215,201L214,203L211,203L208,202L197,200L191,206L189,206L185,208L183,209L183,212L185,213L187,214L189,215L192,219L196,222L197,224L197,226L196,227L195,227L194,227L193,228L192,229L191,231L191,233L191,235L201,236L204,238L206,239L208,239L210,240L214,240L216,241L218,240L219,238L220,238L221,239L223,239L224,239L225,239L226,240L225,242L226,243L225,245L224,247L227,247L229,249L229,251L230,252L233,254Z " data-fips="UG42" data-hasc="UG.KG" data-name="Kiboga" data-postal="KG" data-varname=""/><path d="M270,227L270,223L271,221L271,219L273,217L274,215L275,216L276,218L277,219L278,220L282,220L286,213L285,206L285,204L285,202L284,201L283,200L281,199L279,198L279,193L273,193L269,189L264,187L261,185L258,183L253,182L247,179L246,178L243,178L241,179L238,180L237,182L236,184L233,187L232,188L230,189L228,192L236,197L248,206L252,208L255,212L259,219L263,224L264,226L266,228L268,229Z " data-fips="UG73" data-hasc="UG.NA" data-name="Nakasongola" data-postal="NA" data-varname=""/><path d="M267,304L270,300L274,296L274,286L272,277L269,277L267,274L269,272L270,270L270,268L270,268L270,266L269,266L268,265L269,264L268,263L269,262L270,262L271,263L272,263L274,262L274,261L275,261L277,260L278,259L278,257L274,257L271,256L269,258L266,257L263,257L256,256L255,257L252,258L250,257L248,256L246,255L244,259L243,264L245,264L246,265L246,266L248,267L249,268L256,270L260,274L260,277L259,280L258,281L257,282L256,283L255,284L254,286L253,287L251,287L250,288L249,290L248,291L247,292L246,294L246,297L248,300L248,303L258,307L265,307Z " data-fips="UG37" data-hasc="UG.WA" data-name="Wakiso" data-postal="WA" data-varname=""/><path d="M271,256L274,257L278,257L281,252L283,249L283,247L283,240L286,236L285,228L282,220L278,220L277,219L276,218L275,216L274,215L273,217L271,219L271,221L270,223L270,227L268,229L266,228L264,226L263,224L259,219L255,223L256,230L263,242L263,244L264,245L265,246L265,247L264,248L263,249L263,250L261,250L259,250L258,250L257,251L255,252L254,255L255,257L256,256L263,257L266,257L269,258Z " data-fips="UGA8" data-hasc="UG.LW.BM" data-name="Bamunanika" data-postal="BM" data-varname=""/><path d="M182,279L183,276L186,275L188,275L194,273L200,270L201,272L202,273L203,274L204,275L205,276L206,277L208,278L210,279L213,279L218,276L220,274L222,273L228,272L228,269L228,267L228,266L228,264L227,262L226,260L225,259L226,258L226,256L224,256L224,254L225,252L227,251L227,250L226,249L224,247L225,245L226,243L225,242L226,240L225,239L224,239L223,239L221,239L220,238L219,238L218,240L216,241L214,240L210,240L208,239L206,239L204,238L201,236L191,235L190,237L190,238L189,239L189,240L188,244L186,247L183,245L180,246L177,254L178,256L178,257L178,259L177,260L172,260L170,262L170,264L168,266L168,269L169,270L169,272L169,272L168,273L166,275L164,277L162,279L161,281L164,281L166,281L169,279L172,280L174,282L176,284L179,284Z " data-fips="UGB2" data-hasc="UG.MD" data-name="Mubende" data-postal="MD" data-varname=""/><path d="M226,280L227,279L228,280L230,279L230,279L232,278L235,277L236,275L240,275L242,278L244,277L245,274L246,275L248,274L249,273L249,270L249,269L249,268L248,267L246,266L246,265L245,264L243,264L244,259L246,255L246,254L243,251L240,250L239,250L237,250L236,251L235,252L235,253L234,254L233,254L230,252L229,251L229,249L227,247L226,249L227,250L227,251L225,252L224,254L224,256L226,256L226,258L225,259L226,260L227,262L228,264L228,266L228,267L228,269L228,272L222,273L220,274L218,276L220,276L222,279L223,280L224,280Z " data-fips="UGC6" data-hasc="UG.TY.BS" data-name="Busujju" data-postal="BS" data-varname=""/><path d="M254,255L255,252L257,251L258,250L259,250L261,250L263,250L263,249L264,248L265,247L265,246L264,245L263,244L263,242L256,230L255,223L255,212L252,208L248,206L236,197L228,192L225,194L223,196L220,204L221,208L223,209L224,211L225,219L225,220L231,224L231,225L231,227L232,231L234,232L236,232L239,233L242,236L244,239L244,243L244,245L244,246L243,248L243,251L246,254L246,255L248,256L250,257L252,258Z " data-fips="UGC7" data-hasc="UG.NK" data-name="Nakaseke" data-postal="NK" data-varname=""/><path d="M310,77L311,73L313,73L315,73L320,73L323,72L321,69L325,67L330,67L328,65L334,65L335,66L336,67L338,67L342,67L344,67L346,68L348,68L350,66L352,64L352,63L352,62L353,61L351,57L348,53L346,50L345,46L340,40L338,31L335,33L332,33L314,32L312,32L311,31L302,24L300,23L299,24L295,27L289,30L284,32L260,34L256,35L244,42L243,44L243,46L243,49L244,50L245,52L245,53L246,54L249,57L249,59L253,64L258,67L281,73L283,71L285,71L285,73L287,74L289,74L292,73L292,72L294,71L294,70L294,68L298,71L302,76L303,78L304,80L307,80L310,81Z " data-fips="UG84" data-hasc="UG.TG" data-name="Kitgum" data-postal="TG" data-varname=""/><path d="M241,179L243,178L246,178L247,179L255,180L258,178L261,177L267,180L272,180L275,179L279,174L285,169L288,166L293,169L296,168L297,165L297,161L295,160L291,159L291,157L292,154L291,150L290,150L289,149L288,148L286,146L285,144L286,143L288,141L289,140L287,138L288,135L289,134L290,135L291,135L291,133L292,132L293,131L294,130L293,125L292,125L292,123L291,121L288,119L287,122L285,124L282,123L279,123L279,126L277,128L274,129L271,130L273,132L274,133L276,134L276,135L276,136L275,138L273,138L271,140L270,141L268,145L264,148L260,150L255,150L255,152L255,154L254,157L255,158L256,159L255,160L255,161L255,162L254,163L255,165L253,166L251,166L250,167L250,168L249,169L248,170L246,170L245,170L242,171L241,173L239,175L238,176L238,177L238,179L238,180Z " data-fips="UG98" data-hasc="UG.AC" data-name="Apac" data-postal="AC" data-varname=""/><path d="M265,113L271,112L277,112L278,111L279,110L279,108L278,107L279,106L281,106L282,104L281,103L280,103L279,101L278,99L276,98L275,97L268,83L265,77L266,77L267,76L258,67L253,70L251,74L250,74L248,74L248,77L247,85L246,86L244,88L248,102L249,102L250,103L250,104L250,107L250,109L250,110L251,111L252,112L249,114L249,116L250,118L251,120L252,121L255,121L256,123L259,123L261,125Z " data-fips="UGA1" data-hasc="UG.GL.AW" data-name="Aswa" data-postal="AW" data-varname=""/><path d="M305,153L307,151L309,150L310,148L312,148L313,148L316,149L319,150L320,151L324,153L326,152L327,149L329,147L330,147L331,148L333,148L334,147L333,145L334,144L334,142L334,141L333,140L332,139L335,139L337,137L339,135L339,132L339,131L341,132L343,132L345,130L347,127L346,124L345,122L343,120L334,114L331,111L330,113L329,113L327,113L325,112L324,114L323,114L320,113L317,114L316,113L315,113L313,114L312,113L311,112L310,113L307,114L304,116L302,118L299,119L298,118L297,118L296,114L294,114L293,113L291,113L290,112L288,111L287,113L285,115L288,119L291,121L292,123L292,125L293,125L294,130L293,131L292,132L291,133L291,135L290,135L289,134L288,135L287,138L289,140L288,141L286,143L285,144L286,146L288,148L289,149L290,150L291,150L296,151L298,151L301,153L303,154Z " data-fips="UGA7" data-hasc="UG.LA" data-name="Lira" data-postal="LA" data-varname=""/><path d="M305,176L306,176L307,175L308,174L309,170L310,167L311,166L318,162L319,161L319,160L320,158L320,151L319,150L316,149L313,148L312,148L310,148L309,150L307,151L305,153L303,154L301,153L298,151L296,151L292,154L291,157L291,159L295,160L297,161L297,165L296,168L299,170L300,175L303,177Z " data-fips="UGD3" data-hasc="UG.DO.DK" data-name="Dokolo" data-postal="DK" data-varname=""/><path d="M302,118L304,116L307,114L310,113L311,112L312,113L313,114L315,113L316,113L317,114L320,113L323,114L324,114L325,112L327,113L329,113L330,113L331,111L334,114L337,109L339,104L343,101L343,98L342,96L341,94L341,92L341,90L341,88L340,76L338,67L336,67L335,66L334,65L328,65L330,67L325,67L321,69L323,72L320,73L315,73L313,73L311,73L310,77L310,81L307,80L304,80L303,78L302,76L298,71L294,68L294,70L294,71L292,72L292,73L289,74L287,74L285,73L285,71L283,71L281,73L267,76L266,77L265,77L268,83L275,97L276,98L278,99L279,101L280,103L281,103L282,104L281,106L279,106L278,107L279,108L279,110L278,111L277,112L285,115L287,113L288,111L290,112L291,113L293,113L294,114L296,114L297,118L298,118L299,119Z " data-fips="UG92" data-hasc="UG.PD" data-name="Pader" data-postal="PD" data-varname=""/><path d="M215,201L217,201L223,196L225,194L228,192L230,189L232,188L233,187L236,184L237,182L238,180L238,179L238,177L238,176L239,175L241,173L242,171L245,170L246,170L248,170L249,169L250,168L250,167L251,166L253,166L255,165L254,163L255,162L255,161L255,160L256,159L255,158L254,157L255,154L255,152L255,150L254,149L254,148L253,147L252,142L251,139L250,138L246,137L245,138L244,139L242,139L239,138L237,137L235,136L233,135L229,133L228,132L226,131L224,130L223,130L221,130L218,131L217,131L216,132L214,151L213,152L211,153L209,154L209,156L209,159L208,161L207,163L207,167L207,168L208,170L208,171L207,172L208,173L209,173L210,173L210,175L209,176L205,179L203,178L203,175L203,174L202,173L201,173L200,174L199,175L198,175L197,177L195,177L194,177L192,177L190,178L189,178L188,177L187,177L186,180L187,183L189,183L190,182L191,184L190,186L188,188L187,192L188,193L189,193L190,195L190,197L192,197L193,198L195,200L197,200L208,202L211,203L214,203Z " data-fips="UG50" data-hasc="UG.MC" data-name="Masindi" data-postal="MC" data-varname=""/><path d="M260,150L264,148L268,145L270,141L271,140L273,138L275,138L276,136L276,135L276,134L274,133L273,132L271,130L274,129L277,128L279,126L279,123L282,123L285,124L287,122L288,119L285,115L271,112L265,113L261,125L259,123L256,123L253,123L250,123L248,123L247,126L248,132L250,138L251,139L252,142L253,147L254,148L254,149L255,150Z " data-fips="UGD6" data-hasc="UG.OY.OA" data-name="Oyam" data-postal="OA" data-varname=""/><path d="M90,265L91,264L92,262L94,261L95,260L95,259L97,256L98,253L100,251L101,249L101,247L102,246L103,243L105,242L105,238L106,237L108,236L110,236L112,235L114,231L116,230L118,229L121,228L122,226L123,224L126,224L129,220L129,214L129,202L129,202L124,209L123,210L122,211L121,211L118,212L116,211L115,212L114,214L113,215L112,214L111,213L109,214L107,216L107,218L106,219L106,220L106,222L106,224L106,226L104,227L103,229L102,231L101,232L93,234L90,235L88,237L87,238L85,241L86,245L85,251L85,252L86,258L86,261L85,263L86,263L88,267Z " data-fips="UG28" data-hasc="UG.BN" data-name="Bundibugyo" data-postal="BN" data-varname=""/><path d="M144,218L147,217L149,216L152,215L153,216L155,217L158,216L162,215L164,214L166,214L167,214L169,212L171,212L173,212L174,212L175,210L178,210L183,209L185,208L189,206L191,206L197,200L195,200L193,198L192,197L190,197L190,195L189,193L188,193L187,192L188,188L190,186L191,184L190,182L189,183L187,183L186,180L187,177L186,176L186,175L185,171L167,165L167,165L162,171L154,178L138,191L129,202L129,202L129,214L140,218L141,219L143,220Z " data-fips="UG31" data-hasc="UG.HO" data-name="Hoima" data-postal="HO" data-varname=""/><path d="M115,282L116,281L116,280L116,279L117,278L118,275L117,274L118,270L118,268L116,266L117,264L117,263L117,262L118,260L120,259L121,258L122,256L122,256L120,254L118,253L118,251L119,249L121,248L121,246L121,242L123,241L124,239L125,237L125,236L126,234L127,232L127,227L129,222L129,220L126,224L123,224L122,226L121,228L118,229L116,230L114,231L112,235L110,236L108,236L106,237L105,238L105,242L103,243L102,246L101,247L101,249L100,251L98,253L97,256L95,259L95,260L94,261L92,262L91,264L90,265L94,267L98,268L102,268L106,270L107,271L111,272L111,274L111,278L110,282L113,282Z " data-fips="UG79" data-hasc="UG.BR" data-name="Kabarole" data-postal="BR" data-varname=""/><path d="M161,281L162,279L164,277L166,275L168,273L169,272L169,272L169,270L168,269L168,266L170,264L170,262L172,260L177,260L178,259L178,257L178,256L177,254L174,251L173,251L172,251L170,250L167,251L164,250L162,250L160,249L159,249L158,248L156,247L155,246L154,244L151,239L148,237L145,236L141,235L135,233L127,232L126,234L125,236L125,237L124,239L123,241L121,242L121,246L121,248L119,249L118,251L118,253L120,254L122,256L125,257L125,261L126,262L128,263L127,265L127,268L128,270L128,273L133,269L134,269L135,268L136,267L137,265L138,265L139,263L140,262L142,262L143,263L145,264L146,263L147,263L149,262L151,263L151,264L151,265L150,267L150,269L150,270L150,271L149,272L148,273L148,275L147,276L146,278L145,279L149,281L153,281L157,281L161,282Z " data-fips="UG85" data-hasc="UG.KJ" data-name="Kyenjojo" data-postal="KJ" data-varname=""/><path d="M174,251L180,246L183,245L186,247L188,244L189,240L189,239L190,238L190,237L191,235L191,233L191,231L192,229L193,228L194,227L195,227L196,227L197,226L197,224L196,222L192,219L189,215L187,214L185,213L183,212L178,210L175,210L174,212L173,212L171,212L169,212L167,214L166,214L164,214L162,215L158,216L155,217L153,216L152,215L149,216L147,217L144,218L143,220L141,219L140,218L129,214L129,220L129,222L127,227L135,233L141,235L145,236L148,237L151,239L154,244L155,246L156,247L158,248L159,249L160,249L162,250L164,250L167,251L170,250L172,251L173,251Z " data-fips="UG41" data-hasc="UG.KI" data-name="Kibale" data-postal="KI" data-varname="Kibaale"/><path d="M410,219L410,219L409,215L409,212L411,208L413,205L415,204L417,203L418,203L419,203L422,200L423,196L418,190L412,186L411,186L410,186L409,185L408,185L406,184L401,187L400,189L402,191L401,194L398,196L396,197L394,199L393,201L392,203L394,205L401,207L406,210L407,212L407,214L406,218L407,219L409,219Z " data-fips="UGA4" data-hasc="UG.KP" data-name="Kapchorwa" data-postal="KP" data-varname=""/><path d="M410,219L410,219L411,218L411,216L411,215L415,214L417,212L419,211L424,210L427,209L427,206L427,204L426,201L425,199L423,196L422,200L419,203L418,203L417,203L415,204L413,205L411,208L409,212L409,215L410,219L410,219Z " data-fips="UGB6" data-hasc="UG.BW.KO" data-name="Kongasis" data-postal="KO" data-varname=""/><path d="M398,218L404,219L407,214L407,212L406,210L401,207L394,205L392,203L393,201L394,199L396,197L398,196L401,194L402,191L400,189L391,187L390,187L389,186L388,186L387,187L387,191L387,193L388,194L390,198L389,201L388,203L388,205L387,207L386,209L384,212L383,215L385,214L386,216L387,217L388,218L390,218L391,218L394,219L396,220Z " data-fips="UG94" data-hasc="UG.SI.BD" data-name="Budadiri" data-postal="BD" data-varname=""/><path d="M384,236L385,233L386,231L387,230L389,228L389,227L389,226L390,224L391,223L393,220L396,220L394,219L391,218L390,218L388,218L387,217L386,216L385,214L383,215L380,214L379,215L380,216L380,218L379,221L378,222L376,222L376,223L377,223L379,224L379,225L378,227L378,230L379,233L380,234L381,236L382,238Z " data-fips="UGA9" data-hasc="UG.ME.BN" data-name="Bungokho" data-postal="BN" data-varname=""/><path d="M392,242L397,240L398,238L399,236L401,233L403,229L403,227L403,224L404,222L404,221L405,220L404,219L398,218L396,220L393,220L391,223L390,224L389,226L389,227L389,228L387,230L386,231L385,233L384,236L382,238L387,241L391,243Z " data-fips="UGC5" data-hasc="UG.MF" data-name="Manafwa" data-postal="MF" data-varname="Bubuulo|Manafa"/><path d="M364,366L363,342L367,306L367,304L363,289L363,288L368,282L367,281L366,280L364,277L362,274L362,272L363,270L364,269L365,267L365,266L363,262L363,261L366,258L367,257L368,256L363,253L363,250L361,248L357,248L355,248L353,245L352,247L349,246L347,246L345,244L345,246L347,248L348,251L347,254L346,256L344,258L343,260L343,263L345,264L346,266L350,267L349,270L349,273L349,275L349,276L345,281L345,366Z " data-fips="UG66" data-hasc="UG.BG" data-name="Bugiri" data-postal="BG" data-varname=""/><path d="M374,274L376,272L377,271L377,270L376,267L376,265L378,264L378,263L380,256L380,256L373,255L372,256L370,256L369,256L368,256L367,257L366,258L363,261L363,262L365,266L365,267L364,269L363,270L362,272L362,274L364,277L366,280L367,281L368,282Z " data-fips="UG67" data-hasc="UG.BU" data-name="Busia" data-postal="BU" data-varname=""/><path d="M362,246L365,238L367,236L369,235L371,235L372,235L373,234L374,233L375,233L378,230L378,227L379,225L379,224L377,223L376,223L371,226L368,229L364,231L360,230L356,229L354,232L355,234L355,237L355,239L356,241L357,244L358,245L361,248Z " data-fips="UGB7" data-hasc="UG.BJ.BN" data-name="Bunyole" data-postal="BN" data-varname=""/><path d="M345,366L345,281L349,276L349,275L349,273L349,270L350,267L346,266L345,264L343,263L343,265L340,264L339,266L338,265L337,265L336,266L335,267L334,269L330,274L328,274L331,281L331,366Z " data-fips="UG86" data-hasc="UG.MG" data-name="Mayuge" data-postal="MG" data-varname=""/><path d="M372,256L373,255L380,256L380,256L380,256L381,253L383,252L386,251L388,250L390,248L391,245L391,243L387,241L382,238L381,236L380,234L379,233L375,233L374,233L373,234L372,235L371,235L369,235L367,236L365,238L362,246L361,248L363,250L363,253L368,256L369,256L370,256Z " data-fips="UG76" data-hasc="UG.TR" data-name="Tororo" data-postal="TR" data-varname=""/><path d="M370,181L374,181L386,151L385,148L382,146L363,137L362,141L363,142L363,143L364,146L364,148L363,149L363,150L363,152L364,153L363,155L363,156L363,157L363,160L364,161L364,163L361,165L360,166L362,169L362,172L360,174L357,178L357,179L361,179L363,181L367,182Z " data-fips="UGA5" data-hasc="UG.KK.UU" data-name="Usuk" data-postal="UU" data-varname=""/><path d="M370,108L375,104L378,103L381,103L386,105L388,97L389,94L390,91L394,86L394,80L390,78L382,72L373,69L364,68L365,66L364,65L362,64L360,65L356,63L353,61L352,62L352,63L352,64L350,66L348,68L346,68L344,67L342,67L340,76L342,77L348,76L350,77L348,79L348,82L350,83L351,86L358,96L360,97L361,99L363,100L362,101L360,101L359,100L358,101L357,103L357,108L358,108L360,109L362,109Z " data-fips="UGA6" data-hasc="UG.KF.JE" data-name="Jie" data-postal="JE" data-varname=""/><path d="M360,174L362,172L362,169L360,166L361,165L364,163L364,161L363,160L363,157L363,156L363,155L364,153L363,152L363,150L363,149L364,148L364,146L363,143L363,142L362,141L363,137L353,127L351,127L348,130L345,130L343,132L341,132L339,131L339,132L339,135L337,137L335,139L332,139L333,140L334,141L334,142L334,144L333,145L334,147L333,148L331,148L330,147L329,147L327,149L326,152L327,156L328,157L329,158L330,159L330,161L332,163L332,160L333,158L333,155L335,154L338,155L339,157L341,159L343,160L345,161L346,161L347,162L347,164L348,165L350,166L351,167L353,169L355,171L356,173L356,174L357,175Z " data-fips="UGB5" data-hasc="UG.AM" data-name="Amuria" data-postal="AM" data-varname=""/><path d="M403,79L405,79L406,80L407,79L409,79L409,79L408,77L406,76L403,75L402,74L401,73L400,64L399,61L398,59L398,57L398,56L398,54L397,52L398,51L400,51L401,49L402,46L402,40L401,39L400,38L399,38L398,37L395,34L394,34L392,35L391,36L390,36L389,33L387,31L385,31L384,31L383,31L382,31L383,30L382,29L382,27L384,26L385,24L383,23L382,23L379,24L378,25L376,24L377,23L377,21L378,19L378,18L377,17L376,17L375,16L375,15L375,13L375,12L376,10L375,8L374,8L373,6L373,4L372,2L371,1L369,0L353,16L338,31L340,40L345,46L346,50L348,53L351,57L353,61L356,63L360,65L362,64L364,65L365,66L364,68L373,69L382,72L390,78L394,80L400,80Z " data-fips="UGC1" data-hasc="UG.AB" data-name="Kaabong" data-postal="AB" data-varname=""/><path d="M348,123L350,123L355,120L359,120L364,121L369,120L371,120L372,119L370,118L369,116L368,114L362,109L360,109L358,108L357,108L357,103L358,101L359,100L360,101L362,101L363,100L361,99L360,97L358,96L351,86L350,83L348,82L348,79L350,77L348,76L342,77L340,76L341,88L341,90L341,92L341,94L342,96L343,98L343,101L339,104L337,109L343,120L345,122L346,124Z " data-fips="UGC8" data-hasc="UG.AI.LB" data-name="Labwor" data-postal="LB" data-varname=""/><path d="M389,181L392,179L393,177L396,172L399,171L401,170L404,168L406,166L410,163L408,161L409,159L411,159L412,158L414,157L416,157L417,156L418,154L424,151L427,149L426,148L426,147L427,146L429,141L432,138L434,138L431,131L431,128L431,127L433,126L434,125L435,124L435,122L435,121L433,119L432,118L432,114L431,113L430,114L428,114L425,107L424,101L422,96L421,96L419,94L418,94L418,95L416,95L415,95L414,93L412,90L411,89L409,79L407,79L406,80L405,79L403,79L400,80L394,86L390,91L389,94L388,97L386,105L381,103L378,103L375,104L370,108L368,114L369,116L370,118L372,119L371,120L369,120L364,121L359,120L355,120L350,123L348,123L346,124L347,127L345,130L348,130L351,127L353,127L382,146L385,148L386,151L387,182Z " data-fips="UG88" data-hasc="UG.MT" data-name="Moroto" data-postal="MT" data-varname=""/><path d="M425,198L429,195L431,189L433,186L435,186L437,184L439,180L439,178L440,164L441,162L441,160L439,159L439,158L438,157L438,156L438,154L438,153L438,150L438,148L434,138L432,138L429,141L427,146L426,147L426,148L427,149L424,151L418,154L417,156L416,157L414,157L412,158L411,159L409,159L408,161L410,163L406,166L404,168L401,170L399,171L396,172L393,177L392,179L389,181L387,182L387,187L388,186L389,186L390,187L391,187L401,187L406,184L408,185L409,185L410,186L411,186L412,186L418,190L423,196L425,199Z " data-fips="UG91" data-hasc="UG.NP" data-name="Nakapiripirit" data-postal="NP" data-varname=""/><path d="M230,350L223,350L221,350L219,349L217,349L215,348L213,347L212,345L210,342L209,340L208,339L208,337L209,336L208,334L209,332L207,329L207,327L205,326L203,326L202,327L201,329L199,330L190,334L189,335L189,337L186,333L182,330L177,328L174,325L171,324L172,323L173,321L174,320L177,317L178,316L179,315L181,312L181,310L182,309L182,307L182,306L182,305L182,303L181,301L179,300L178,302L174,300L174,299L170,298L169,298L168,298L166,299L166,305L165,310L165,315L166,317L167,320L169,325L170,328L171,330L169,336L166,341L169,343L172,346L173,348L174,350L174,351L175,355L173,356L174,358L176,359L177,360L178,362L178,364L179,365L180,366L230,366Z " data-fips="UG61" data-hasc="UG.RA" data-name="Rakai" data-postal="RA" data-varname=""/><path d="M230,325L231,324L233,323L234,322L235,320L235,318L233,318L233,316L232,315L231,314L231,313L230,313L229,312L229,310L229,309L228,309L226,309L226,307L226,306L225,305L222,298L218,293L214,291L209,290L208,291L206,292L204,293L202,292L199,294L197,297L198,308L200,314L201,315L202,317L201,319L200,319L198,319L197,318L193,318L191,317L190,317L187,319L184,320L181,318L179,315L178,316L177,317L174,320L173,321L172,323L171,324L174,325L177,328L182,330L186,333L189,337L189,335L190,334L199,330L201,329L202,327L203,326L205,326L207,327L207,329L209,332L208,334L209,336L208,337L208,339L209,340L210,342L212,345L213,347L215,348L217,349L219,349L221,350L223,350L230,350Z " data-fips="UG71" data-hasc="UG.MA" data-name="Masaka" data-postal="MA" data-varname=""/><path d="M96,349L98,349L100,347L102,346L104,346L105,348L107,349L110,349L114,346L120,340L121,337L122,335L123,330L123,327L123,325L125,323L125,318L126,314L124,313L123,313L122,315L121,316L120,315L119,314L117,312L116,311L115,309L114,309L112,309L111,309L110,309L110,306L108,304L104,302L105,301L103,301L100,301L94,304L87,308L83,308L82,309L79,310L70,310L67,310L66,318L68,318L80,322L82,324L82,325L83,326L87,327L87,328L87,330L86,331L86,333L86,335L85,336L84,336L83,337L84,339L87,341L89,343L90,346L95,349Z " data-fips="UG29" data-hasc="UG.BS" data-name="Bushenyi" data-postal="BS" data-varname=""/><path d="M79,310L82,309L83,308L87,308L94,304L100,301L103,301L105,301L109,292L110,282L111,278L111,274L111,272L107,271L106,270L102,268L98,268L94,267L90,265L88,267L86,263L85,263L85,263L80,269L79,271L79,272L77,284L76,285L75,284L73,284L70,289L70,291L70,292L70,295L70,296L70,297L69,300L67,310L70,310Z " data-fips="UG40" data-hasc="UG.KS" data-name="Kasese" data-postal="KS" data-varname=""/><path d="M121,307L123,307L122,305L120,304L120,300L118,297L117,295L118,294L121,292L122,290L122,288L124,289L126,288L128,286L130,285L132,284L133,283L134,282L136,281L137,281L141,281L145,279L146,278L147,276L148,275L148,273L149,272L150,271L150,270L150,269L150,267L151,265L151,264L151,263L149,262L147,263L146,263L145,264L143,263L142,262L140,262L139,263L138,265L137,265L136,267L135,268L134,269L133,269L128,273L128,270L127,268L127,265L128,263L126,262L125,261L125,257L122,256L122,256L121,258L120,259L118,260L117,262L117,263L117,264L116,266L118,268L118,270L117,274L118,275L117,278L116,279L116,280L116,281L115,282L113,282L110,282L109,292L105,301L104,302L108,304L110,304L112,305L118,307L120,308Z " data-fips="UG81" data-hasc="UG.KE" data-name="Kamwenge" data-postal="KE" data-varname=""/><path d="M122,315L123,313L124,313L126,314L130,312L134,310L136,308L137,307L138,306L138,297L139,295L139,293L137,292L135,290L134,289L135,288L134,287L133,285L132,284L130,285L128,286L126,288L124,289L122,288L122,290L121,292L118,294L117,295L118,297L120,300L120,304L122,305L123,307L121,307L120,308L118,307L112,305L110,304L108,304L110,306L110,309L111,309L112,309L114,309L115,309L116,311L117,312L119,314L120,315L121,316Z " data-fips="UGB8" data-hasc="UG.IB.IA" data-name="Ibanda" data-postal="IA" data-varname=""/><path d="M136,370L139,367L140,367L142,366L145,365L147,365L149,366L180,366L179,365L178,364L178,362L177,360L176,359L174,358L173,356L175,355L174,351L174,350L173,348L172,346L169,343L166,341L163,343L160,344L157,344L154,344L153,344L151,344L150,343L150,342L147,340L142,338L140,339L139,339L136,339L135,341L135,342L135,344L135,347L134,350L132,352L130,354L132,356L131,358L130,359L128,360L127,362L126,363L126,364L125,365L124,367L123,370L124,370L125,370L126,371L127,371L128,370L132,370L134,370L135,371Z " data-fips="UGB9" data-hasc="UG.NG.BK" data-name="Bukanga" data-postal="BK" data-varname=""/><path d="M153,344L154,344L157,344L160,344L163,343L166,341L169,336L171,330L170,328L169,325L167,320L166,317L165,315L165,310L166,305L166,299L164,298L162,298L162,297L163,296L164,294L164,290L163,287L162,284L161,282L157,281L153,281L149,281L141,281L137,281L136,281L134,282L133,283L132,284L133,285L134,287L135,288L134,289L135,290L137,292L139,293L139,295L138,297L138,306L137,307L136,308L134,310L133,316L135,318L137,319L138,320L138,323L140,325L147,331L145,334L145,336L147,340L150,342L150,343L151,344Z " data-fips="UGC3" data-hasc="UG.RR" data-name="Mbarara" data-postal="RR" data-varname=""/><path d="M105,379L107,377L109,376L111,376L111,376L113,375L113,374L114,371L114,370L115,370L116,370L118,371L119,371L121,370L122,370L123,370L124,367L125,365L126,364L126,363L127,362L128,360L130,359L131,358L132,356L130,354L132,352L130,352L129,353L128,354L127,353L125,353L124,354L122,353L121,352L119,352L118,352L116,353L111,353L109,352L109,350L110,349L107,349L105,348L104,346L102,346L100,347L98,349L96,349L95,349L95,352L95,354L93,357L93,359L95,360L96,361L96,362L96,364L95,365L94,366L94,367L94,369L94,370L95,372L96,374L97,376L99,376L102,376L103,377L103,379Z " data-fips="UG59" data-hasc="UG.NT" data-name="Ntungamo" data-postal="NT" data-varname=""/><path d="M86,367L88,367L91,367L92,368L94,369L94,367L94,366L95,365L96,364L96,362L96,361L95,360L93,359L93,357L95,354L95,352L95,349L90,346L89,343L87,341L84,339L83,337L84,336L85,336L86,335L86,333L86,331L87,330L87,328L87,327L83,326L82,325L82,324L80,322L68,318L66,318L65,327L65,328L65,328L66,327L68,326L70,326L70,330L70,334L70,336L71,338L73,339L75,339L75,341L75,343L75,346L78,355L79,356L80,358L79,359L79,360L84,369L86,369Z " data-fips="UG93" data-hasc="UG.RK" data-name="Rukungiri" data-postal="RK" data-varname=""/><path d="M125,353L127,353L128,354L129,353L130,352L132,352L134,350L135,347L135,344L135,342L135,341L136,339L139,339L140,339L142,338L145,336L145,334L147,331L140,325L138,323L138,320L137,319L135,318L133,316L130,312L126,314L125,318L125,323L123,325L123,327L123,330L122,335L121,337L120,340L114,346L110,349L109,350L109,352L111,353L116,353L118,352L119,352L121,352L122,353L124,354Z " data-fips="UGB1" data-hasc="UG.RR.KS" data-name="Kashari" data-postal="KS" data-varname=""/><path d="M86,399L88,398L93,395L94,394L95,393L97,392L100,391L101,390L101,389L102,386L102,385L103,385L104,385L105,384L108,381L109,380L110,378L111,376L109,376L107,377L105,379L103,379L103,377L102,376L99,376L97,376L96,374L95,372L94,370L94,369L92,368L91,367L88,367L86,367L86,369L84,369L82,369L81,370L80,369L78,368L75,367L74,370L73,371L73,372L72,374L74,377L76,379L74,380L78,388L79,389L81,392L81,393L81,396L82,397L83,399L85,399Z " data-fips="UG34" data-hasc="UG.KA" data-name="Kabale" data-postal="KA" data-varname=""/><path d="M65,393L67,393L68,392L69,391L70,390L73,390L74,391L75,391L76,390L77,388L78,388L74,380L76,379L74,377L72,374L73,372L73,371L70,370L68,370L67,369L67,369L64,368L62,367L61,366L59,365L59,366L59,367L60,370L60,371L60,372L59,377L59,378L60,380L61,381L61,383L60,385L62,387L62,389L61,393L64,393Z " data-fips="UG43" data-hasc="UG.KR" data-name="Kisoro" data-postal="KR" data-varname=""/><path d="M74,370L75,367L78,368L80,369L81,370L82,369L84,369L79,360L79,359L80,358L79,356L78,355L75,346L75,343L75,341L75,339L73,339L71,338L70,336L70,334L70,330L70,326L68,326L66,327L65,328L65,328L66,330L66,331L66,335L65,337L64,337L64,338L65,340L64,341L63,346L63,348L63,350L63,352L63,356L63,357L62,358L60,359L59,360L59,361L60,363L60,364L59,365L61,366L62,367L64,368L67,369L67,369L68,370L70,370L73,371Z " data-fips="UG82" data-hasc="UG.UU" data-name="Kanungu" data-postal="UU" data-varname=""/></g></svg>