<?xml version="1.0" ?><!DOCTYPE svg  PUBLIC '-//W3C//DTD SVG 1.1//EN'  'http://www.w3.org/Graphics/SVG/1.1/DTD/svg11.dtd'><svg enable_background="new 0 0 500 401" height="401px" style="stroke-linejoin: round; stroke:#000; fill:#f6f3f0;" version="1.1" viewBox="0 0 500 401" width="500px" xmlns="http://www.w3.org/2000/svg" xmlns:xlink="http://www.w3.org/1999/xlink"><defs><style type="text/css"><![CDATA[path { fill-rule: evenodd; }
#context path { fill: #eee; stroke: #bbb; } ]]></style></defs><metadata><views><view h="401" padding="0" w="500"><proj id="laea" lat0="-14.614" lon0="26.32"/><bbox h="121.36" w="141.38" x="947.82" y="921.28"/><llbbox lat0="-90" lat1="90" lon0="-180" lon1="180"/></view></views></metadata><g id="admin1"><path d="M316,172L316,170L316,169L314,169L313,167L313,166L314,164L315,163L317,162L318,161L319,161L320,162L321,162L323,161L325,160L327,160L327,160L328,159L328,158L328,157L327,156L326,155L327,153L326,151L327,150L328,149L345,147L346,146L353,137L353,136L353,135L354,134L353,133L341,124L340,123L335,123L334,124L333,125L331,127L331,128L330,128L329,129L331,114L331,111L330,109L328,108L327,105L326,104L324,104L323,103L322,103L310,109L310,110L310,111L310,112L311,113L311,114L312,115L312,116L311,118L309,117L308,117L307,116L303,113L300,111L300,110L301,109L303,107L303,102L308,99L309,98L310,98L311,96L313,94L312,93L312,92L313,90L313,90L314,88L315,87L316,86L317,86L318,85L320,85L321,84L323,82L324,82L325,81L327,82L328,82L329,82L330,82L331,81L332,77L333,76L334,76L333,75L333,73L333,72L334,69L334,68L333,66L332,66L331,65L331,64L330,63L329,62L328,61L327,61L325,60L324,60L322,59L321,59L320,59L319,58L318,58L317,57L316,57L315,56L314,54L313,54L312,54L311,53L310,50L310,49L310,48L311,47L311,46L310,43L310,42L310,40L309,40L308,40L307,39L306,38L305,38L304,38L303,37L302,36L301,35L301,34L302,33L303,33L304,29L306,29L307,28L308,24L309,21L311,17L311,16L313,13L314,12L316,12L317,11L318,11L318,10L320,7L293,10L293,11L294,15L294,19L292,22L287,29L281,35L277,38L273,40L271,41L271,42L271,44L273,45L275,45L276,46L277,48L277,49L278,50L279,52L279,53L280,54L281,54L280,55L281,57L281,58L282,61L283,62L283,63L284,64L283,65L283,67L281,70L282,73L281,76L281,78L280,79L279,81L280,82L281,83L281,85L281,86L281,87L282,89L282,90L281,92L282,93L282,94L283,95L283,97L284,98L283,100L282,101L281,101L280,103L279,104L279,105L278,107L278,109L277,111L276,112L276,114L276,115L275,116L275,119L275,120L275,122L274,124L273,125L273,127L272,128L270,131L270,134L270,135L271,136L272,137L273,140L273,141L274,145L275,145L276,147L277,148L278,148L278,150L280,150L281,151L284,153L286,153L286,154L287,155L288,156L289,158L290,159L292,160L293,162L296,168L297,169L298,169L299,169L300,169L302,168L306,169L307,169L308,170L310,170L311,171L313,171L314,172Z " data-fips="ZA04" data-hasc="ZM.LP" data-name="Luapula" data-postal="LP" data-varname="Fort Rosebery"/><path d="M392,213L393,213L395,213L398,211L399,209L400,208L400,206L401,204L402,203L402,202L403,201L404,200L405,200L406,199L407,198L408,198L409,198L410,197L410,196L410,194L411,193L412,192L414,191L415,190L415,189L416,188L417,187L417,185L418,183L418,182L418,181L419,180L420,176L420,174L420,173L421,172L421,171L422,169L425,167L426,166L426,164L426,161L427,160L428,159L429,158L429,157L429,156L432,151L433,151L435,149L436,147L436,146L437,145L438,144L438,143L437,142L436,141L435,140L434,138L434,137L432,136L431,136L430,135L428,134L427,134L425,134L424,134L424,133L424,131L424,129L425,125L426,124L426,123L426,121L426,120L430,116L429,114L429,112L430,111L431,110L431,109L431,108L430,107L430,106L429,105L428,105L427,103L428,102L429,99L429,98L430,98L436,95L447,89L449,88L451,88L452,89L453,90L454,89L455,88L456,88L458,89L458,91L459,93L463,93L464,93L466,93L464,96L465,97L465,99L465,101L464,105L465,106L467,106L468,106L469,107L470,107L472,106L473,106L474,106L476,104L479,101L480,100L482,99L482,98L482,97L480,96L479,94L478,92L477,89L477,87L477,85L476,84L475,83L474,83L473,81L472,80L468,78L468,77L468,76L469,74L471,72L471,70L470,68L468,68L467,67L466,65L465,64L465,63L465,62L465,61L463,59L461,59L460,59L460,60L460,62L458,60L457,60L456,60L455,59L456,56L456,55L455,54L454,54L454,54L453,51L450,50L448,48L447,48L446,47L445,46L442,46L439,45L437,44L436,43L435,41L434,40L432,39L426,39L425,38L423,37L422,36L420,36L419,36L418,36L416,37L414,36L414,35L414,33L414,31L408,29L405,30L404,30L400,27L399,26L399,24L399,22L399,21L398,21L396,20L394,18L393,18L392,18L391,16L390,17L388,18L387,17L385,16L384,16L382,17L380,17L378,17L377,16L376,15L373,12L370,8L368,4L367,0L320,7L318,10L318,11L317,11L316,12L314,12L313,13L311,16L311,17L309,21L308,24L307,28L306,29L304,29L303,33L302,33L301,34L301,35L302,36L303,37L304,38L305,38L306,38L307,39L308,40L309,40L310,40L310,42L310,43L311,46L311,47L310,48L310,49L310,50L311,53L312,54L313,54L314,54L315,56L316,57L317,57L318,58L319,58L320,59L321,59L322,59L324,60L325,60L327,61L328,61L329,62L330,63L331,64L331,65L332,66L333,66L334,68L334,69L333,72L333,73L333,75L334,76L333,76L332,77L331,81L330,82L329,82L328,82L327,82L325,81L324,82L323,82L321,84L320,85L318,85L317,86L316,86L315,87L314,88L313,90L313,90L312,92L312,93L313,94L311,96L310,98L309,98L308,99L303,102L303,107L301,109L300,110L300,111L303,113L307,116L308,117L309,117L311,118L312,116L312,115L311,114L311,113L310,112L310,111L310,110L310,109L322,103L323,103L324,104L326,104L327,105L328,108L330,109L331,111L331,114L329,129L330,128L331,128L331,127L333,125L334,124L335,123L340,123L341,124L353,133L354,134L353,135L353,136L353,137L346,146L345,147L328,149L327,150L326,151L327,153L326,155L327,156L328,157L328,158L328,159L327,160L327,160L327,160L328,160L329,158L329,156L330,155L334,154L336,154L336,155L337,157L337,158L338,159L339,160L340,161L341,161L341,162L342,163L344,163L345,164L346,164L347,164L347,165L348,165L349,165L351,165L352,166L352,167L354,167L355,167L355,168L355,170L355,172L355,173L356,174L357,174L357,175L358,176L357,178L358,178L359,179L360,180L361,179L362,179L363,180L365,181L365,182L365,183L364,184L364,185L364,188L364,190L367,192L368,192L369,192L371,192L373,193L375,193L375,194L378,197L380,197L381,196L381,195L382,194L383,193L386,193L388,195L388,196L389,206L389,207L391,209L391,210L391,211L391,213Z " data-fips="ZA05" data-hasc="ZM.NO" data-name="Northern" data-postal="NO" data-varname=""/><path d="M228,304L232,298L233,298L234,298L235,297L236,296L236,295L237,294L238,294L238,295L240,296L241,297L242,297L242,299L241,300L242,301L243,302L244,301L245,301L247,297L252,296L252,295L252,294L252,292L251,290L250,289L247,289L246,288L246,287L248,285L250,285L256,286L263,289L265,289L266,289L267,287L268,284L270,281L271,281L277,283L281,282L284,282L287,281L292,277L294,276L296,275L303,273L306,274L310,274L312,274L313,272L314,270L314,269L316,268L317,267L320,266L321,265L324,264L325,264L326,263L327,263L328,263L329,263L331,262L332,262L333,262L334,262L336,262L335,262L334,261L333,260L334,258L334,255L335,254L336,253L336,252L337,251L338,250L339,250L340,248L342,246L343,245L344,245L345,244L346,243L346,242L347,241L346,240L345,239L344,238L342,238L341,237L339,233L338,232L368,233L369,232L370,231L371,230L372,229L373,228L374,227L376,226L378,224L379,220L380,220L381,219L382,219L383,218L384,217L384,216L385,216L387,215L388,214L390,214L391,213L391,211L391,210L391,209L389,207L389,206L388,196L388,195L386,193L383,193L382,194L381,195L381,196L380,197L378,197L375,194L375,193L373,193L371,192L369,192L368,192L367,192L364,190L364,188L364,185L364,184L365,183L365,182L365,181L363,180L362,179L361,179L360,180L359,179L358,178L357,178L358,176L357,175L357,174L356,174L355,173L355,172L355,170L355,168L355,167L354,167L352,167L352,166L351,165L349,165L348,165L347,165L347,164L346,164L345,164L344,163L342,163L341,162L341,161L340,161L339,160L338,159L337,158L337,157L336,155L336,154L334,154L330,155L329,156L329,158L328,160L327,160L327,160L326,212L325,213L323,213L321,212L320,212L319,210L319,209L320,209L320,207L321,207L321,205L320,205L319,204L318,203L316,204L313,206L307,208L305,210L303,211L302,212L301,211L301,210L299,210L298,210L297,210L296,212L293,215L291,216L289,217L289,218L288,219L282,224L281,229L278,229L276,229L275,230L272,230L270,229L268,229L266,229L263,229L262,229L261,230L259,230L257,230L256,230L255,230L254,231L253,231L252,230L251,228L248,222L247,221L243,221L242,220L241,220L240,221L240,222L239,223L239,224L238,226L237,226L236,225L235,226L235,228L235,229L234,230L232,231L232,230L231,229L231,228L231,226L230,226L230,225L230,223L226,223L210,222L211,223L212,224L212,225L213,226L214,227L214,228L212,230L212,231L212,232L212,234L212,235L211,236L213,237L215,240L215,241L215,243L214,245L214,250L213,251L208,251L205,252L202,252L201,252L200,252L198,252L198,253L196,255L193,257L191,260L191,262L189,263L188,262L186,261L185,261L184,260L183,259L161,257L160,257L159,258L158,258L157,260L156,261L156,262L156,264L156,266L155,266L155,267L154,268L154,270L154,271L155,274L155,276L154,277L154,278L154,280L152,280L151,281L150,282L150,284L150,287L206,288L208,288L210,289L215,292L214,294L224,294L225,295L227,304L227,305Z " data-fips="ZA02" data-hasc="ZM.CE" data-name="Central" data-postal="CE" data-varname="Broken Hill"/><path d="M255,230L256,230L257,230L259,230L261,230L262,229L263,229L266,229L268,229L270,229L272,230L275,230L276,229L278,229L281,229L282,224L288,219L289,218L289,217L291,216L293,215L296,212L297,210L298,210L297,210L295,210L294,209L293,208L292,206L291,200L290,200L289,199L289,198L288,197L288,196L288,195L287,194L286,193L284,189L282,188L280,188L279,189L278,190L277,189L277,187L276,186L275,185L275,184L275,182L276,181L276,180L274,178L274,177L273,175L272,174L269,171L268,171L266,171L264,170L263,169L262,170L261,170L260,169L259,168L256,168L255,168L254,167L253,165L250,164L249,164L247,165L246,165L244,165L243,165L241,165L240,163L239,163L237,164L236,165L235,164L234,163L233,163L232,163L231,164L230,164L229,165L228,166L227,167L222,166L220,167L219,167L218,167L219,169L219,170L218,171L218,172L219,174L216,175L215,177L214,178L212,178L211,179L211,180L210,182L210,183L211,184L211,185L212,186L212,187L212,188L211,189L212,189L213,190L214,191L215,191L217,192L217,193L218,193L220,193L218,199L217,200L215,202L214,203L215,204L215,205L215,206L215,207L214,208L213,209L212,210L211,211L210,212L209,214L208,215L208,217L208,219L208,221L209,222L210,222L226,223L230,223L230,225L230,226L231,226L231,228L231,229L232,230L232,231L234,230L235,229L235,228L235,226L236,225L237,226L238,226L239,224L239,223L240,222L240,221L241,220L242,220L243,221L247,221L248,222L251,228L252,230L253,231L254,231Z " data-fips="ZA08" data-hasc="ZM.CO" data-name="Copperbelt" data-postal="CO" data-varname="Western"/><path d="M342,275L346,275L352,271L365,267L376,265L389,262L392,261L399,257L414,253L417,252L418,251L421,251L460,239L459,238L457,235L456,236L455,237L454,238L452,240L451,238L451,235L450,235L449,234L449,233L447,230L445,229L444,229L443,228L443,227L445,225L443,223L442,223L441,223L440,222L439,221L440,220L442,220L443,219L445,219L445,217L445,216L447,216L448,215L448,213L449,211L450,209L450,207L451,206L453,206L453,205L452,203L452,202L452,197L454,195L454,194L453,193L452,192L451,191L451,187L452,186L453,184L454,181L455,180L456,181L457,181L458,180L459,181L461,181L462,181L463,180L463,179L464,178L465,178L466,179L467,179L468,178L469,177L470,176L472,175L472,174L473,173L474,172L475,171L473,171L472,170L469,171L468,170L467,169L466,166L465,164L464,162L464,161L464,160L466,156L467,153L467,152L466,151L467,149L467,148L467,141L466,140L464,140L463,139L464,138L464,137L464,132L466,133L466,132L466,131L467,130L470,125L470,124L471,123L469,121L468,120L468,119L467,118L467,116L467,114L466,113L465,112L465,111L466,111L467,110L468,109L469,109L470,109L471,108L472,109L473,108L474,108L476,106L476,105L478,103L480,102L482,100L482,99L480,100L479,101L476,104L474,106L473,106L472,106L470,107L469,107L468,106L467,106L465,106L464,105L465,101L465,99L465,97L464,96L466,93L464,93L463,93L459,93L458,91L458,89L456,88L455,88L454,89L453,90L452,89L451,88L449,88L447,89L436,95L430,98L429,98L429,99L428,102L427,103L428,105L429,105L430,106L430,107L431,108L431,109L431,110L430,111L429,112L429,114L430,116L426,120L426,121L426,123L426,124L425,125L424,129L424,131L424,133L424,134L425,134L427,134L428,134L430,135L431,136L432,136L434,137L434,138L435,140L436,141L437,142L438,143L438,144L437,145L436,146L436,147L435,149L433,151L432,151L429,156L429,157L429,158L428,159L427,160L426,161L426,164L426,166L425,167L422,169L421,171L421,172L420,173L420,174L420,176L419,180L418,181L418,182L418,183L417,185L417,187L416,188L415,189L415,190L414,191L412,192L411,193L410,194L410,196L410,197L409,198L408,198L407,198L406,199L405,200L404,200L403,201L402,202L402,203L401,204L400,206L400,208L399,209L398,211L395,213L393,213L392,213L391,213L390,214L388,214L387,215L385,216L384,216L384,217L383,218L382,219L381,219L380,220L379,220L378,224L376,226L374,227L373,228L372,229L371,230L370,231L369,232L368,233L338,232L339,233L341,237L342,238L344,238L345,239L346,240L347,241L346,242L346,243L345,244L344,245L343,245L342,246L340,248L339,250L338,250L337,251L336,252L336,253L335,254L334,255L334,258L333,260L334,261L335,262L336,262L336,263L336,264L337,264L339,266L340,267L341,268L342,269L342,270L342,275Z " data-fips="ZA03" data-hasc="ZM.EA" data-name="Eastern" data-postal="EA" data-varname="Fort Jameson"/><path d="M293,314L294,314L296,313L297,311L298,310L300,310L301,308L310,304L314,303L317,302L318,302L320,302L322,302L324,301L327,300L328,301L332,302L333,302L335,302L336,301L338,301L340,301L341,302L342,302L343,301L344,302L346,302L347,302L349,301L348,300L347,299L348,297L348,295L348,294L347,290L347,289L346,288L344,287L343,285L342,280L342,278L342,277L342,275L342,270L342,269L341,268L340,267L339,266L337,264L336,264L336,263L336,262L334,262L333,262L332,262L331,262L329,263L328,263L327,263L326,263L325,264L324,264L321,265L320,266L317,267L316,268L314,269L314,270L313,272L312,274L310,274L306,274L303,273L296,275L294,276L292,277L287,281L284,282L281,282L277,283L271,281L270,281L268,284L267,287L266,289L265,289L263,289L256,286L250,285L248,285L246,287L246,288L247,289L250,289L251,290L252,292L252,294L252,295L252,296L247,297L245,301L247,301L249,302L249,303L250,302L252,302L254,302L256,303L256,304L258,305L262,307L264,308L266,307L270,307L271,307L272,308L274,308L275,309L277,311L278,311L280,311L281,311L284,314L285,314L286,314L287,313L289,313L290,313L292,314Z " data-fips="ZA02" data-hasc="ZM.LS" data-name="Lusaka" data-postal="LS" data-varname=""/><path d="M191,262L191,260L193,257L196,255L198,253L198,252L200,252L201,252L202,252L205,252L208,251L213,251L214,250L214,245L215,243L215,241L215,240L213,237L211,236L212,235L212,234L212,232L212,231L212,230L214,228L214,227L213,226L212,225L212,224L211,223L210,222L209,222L208,221L208,219L208,217L208,215L209,214L210,212L211,211L212,210L213,209L214,208L215,207L215,206L215,205L215,204L214,203L215,202L217,200L218,199L220,193L218,193L217,193L217,192L215,191L214,191L213,190L212,189L211,189L212,188L212,187L212,186L211,185L211,184L210,183L210,182L211,180L211,179L212,178L214,178L215,177L216,175L219,174L218,172L218,171L219,170L219,169L218,167L219,167L220,167L222,166L227,167L228,166L229,165L230,164L231,164L232,163L233,163L234,163L235,164L236,165L237,164L239,163L240,163L237,161L237,160L235,155L235,153L233,150L225,145L225,142L225,140L224,138L224,136L223,135L222,136L220,136L218,136L217,136L217,138L217,139L217,141L216,142L215,143L215,144L215,148L214,149L213,150L211,151L209,152L208,151L206,152L205,153L203,153L202,152L200,152L197,152L196,151L195,150L193,149L191,149L189,150L188,150L187,150L185,150L183,149L176,149L175,149L174,147L173,146L171,145L170,144L169,145L166,145L164,144L163,143L161,142L159,142L159,143L158,144L156,144L156,143L156,141L155,141L152,139L151,139L150,138L150,137L149,134L148,133L149,132L149,131L148,129L148,127L148,127L149,125L148,124L150,124L149,123L150,122L149,120L148,120L144,122L142,123L136,123L134,123L133,124L130,125L128,126L125,126L123,127L122,128L121,128L120,129L119,130L118,131L116,131L114,131L112,130L111,129L109,129L109,128L111,127L112,124L113,123L113,121L112,120L111,119L112,118L111,117L110,116L109,115L108,114L105,114L104,114L102,114L101,114L101,114L101,112L101,110L101,109L100,108L99,108L97,107L95,108L96,110L97,112L96,113L96,116L96,117L97,118L97,124L97,125L99,129L99,130L98,131L97,132L97,133L97,134L96,136L95,138L95,140L96,141L96,142L96,145L97,146L96,148L95,159L96,161L96,162L97,163L98,165L98,167L98,169L98,170L95,175L94,176L93,182L92,184L92,185L92,187L93,188L95,190L96,191L97,192L97,194L18,195L18,223L19,223L21,224L21,225L23,226L24,226L26,225L26,224L27,223L28,222L29,223L30,223L36,228L39,230L39,231L41,232L42,232L44,233L44,234L46,234L47,235L48,234L49,231L51,231L53,230L54,230L57,232L58,233L58,235L60,234L61,234L62,234L62,235L63,236L63,237L64,237L67,238L67,239L66,241L67,240L67,242L70,241L71,240L72,240L73,240L75,239L76,238L80,237L82,235L83,235L85,234L86,234L87,235L89,234L90,234L91,233L92,234L93,234L94,234L96,234L97,234L98,234L99,234L100,233L101,233L101,232L103,233L104,232L105,231L106,231L107,230L108,231L109,232L110,232L109,231L110,230L111,231L111,232L114,232L114,233L115,232L116,231L117,231L119,232L120,233L121,234L121,233L122,233L123,234L123,233L124,233L126,234L126,235L126,236L126,237L127,238L128,239L130,240L131,240L132,240L137,243L138,243L140,243L141,244L141,246L140,247L140,248L139,249L139,251L138,252L137,253L136,253L136,254L136,255L136,257L137,258L137,259L138,260L140,260L141,259L143,260L145,259L146,259L147,258L149,258L150,257L153,258L154,258L155,258L156,258L158,258L159,258L160,257L161,257L183,259L184,260L185,261L186,261L188,262L189,263Z " data-fips="ZA06" data-hasc="ZM.NW" data-name="North-Western" data-postal="NW" data-varname=""/><path d="M204,399L206,398L207,397L212,396L214,395L216,395L217,394L218,393L220,391L221,389L221,388L221,387L232,376L236,373L238,370L239,368L239,367L240,365L240,364L244,358L246,356L247,354L249,353L255,350L259,349L263,346L265,344L279,339L281,338L283,338L284,336L287,335L287,333L288,330L287,328L288,327L288,325L288,324L288,322L288,321L288,319L288,318L289,317L290,315L292,314L290,313L289,313L287,313L286,314L285,314L284,314L281,311L280,311L278,311L277,311L275,309L274,308L272,308L271,307L270,307L266,307L264,308L262,307L258,305L256,304L256,303L254,302L252,302L250,302L249,303L249,302L247,301L245,301L244,301L243,302L242,301L241,300L242,299L242,297L241,297L240,296L238,295L238,294L237,294L236,295L236,296L235,297L234,298L233,298L232,298L228,304L227,305L227,304L225,295L224,294L214,294L215,292L210,289L208,288L206,288L150,287L150,287L151,288L151,289L150,290L150,291L150,292L149,294L148,294L147,295L148,296L148,297L146,298L147,299L148,300L148,301L148,302L147,303L148,304L148,305L149,305L150,305L151,304L152,304L153,305L153,306L153,310L152,311L151,312L151,313L151,314L151,315L151,317L152,318L153,318L154,319L154,320L153,320L152,321L151,322L150,324L150,326L148,327L147,328L147,329L145,329L144,330L143,331L139,336L138,337L138,338L139,339L141,340L141,341L142,342L146,343L147,343L148,345L147,347L148,348L149,352L148,353L147,355L145,356L144,356L144,358L144,359L143,360L142,361L141,362L142,364L142,365L141,367L139,368L139,369L139,372L139,373L138,374L138,375L137,376L137,379L137,379L138,380L140,379L140,381L141,381L141,382L142,383L143,384L144,385L145,386L146,387L147,387L148,388L149,389L150,389L151,390L153,390L154,390L158,391L159,390L161,390L164,389L165,389L167,390L169,391L169,392L172,393L171,394L172,395L174,396L176,396L179,395L180,395L181,394L182,393L183,393L185,392L186,392L186,393L188,393L189,394L191,393L193,394L196,395L197,396L199,396L200,397L201,398L203,399Z " data-fips="ZA07" data-hasc="ZM.SO" data-name="Southern" data-postal="SO" data-varname=""/><path d="M79,382L108,375L109,376L112,376L114,375L115,375L117,376L119,376L120,377L121,377L122,377L123,377L124,376L126,376L129,376L130,377L131,377L134,377L136,379L137,379L137,376L138,375L138,374L139,373L139,372L139,369L139,368L141,367L142,365L142,364L141,362L142,361L143,360L144,359L144,358L144,356L145,356L147,355L148,353L149,352L148,348L147,347L148,345L147,343L146,343L142,342L141,341L141,340L139,339L138,338L138,337L139,336L143,331L144,330L145,329L147,329L147,328L148,327L150,326L150,324L151,322L152,321L153,320L154,320L154,319L153,318L152,318L151,317L151,315L151,314L151,313L151,312L152,311L153,310L153,306L153,305L152,304L151,304L150,305L149,305L148,305L148,304L147,303L148,302L148,301L148,300L147,299L146,298L148,297L148,296L147,295L148,294L149,294L150,292L150,291L150,290L151,289L151,288L150,287L150,287L150,284L150,282L151,281L152,280L154,280L154,278L154,277L155,276L155,274L154,271L154,270L154,268L155,267L155,266L156,266L156,264L156,262L156,261L157,260L158,258L159,258L158,258L156,258L155,258L154,258L153,258L150,257L149,258L147,258L146,259L145,259L143,260L141,259L140,260L138,260L137,259L137,258L136,257L136,255L136,254L136,253L137,253L138,252L139,251L139,249L140,248L140,247L141,246L141,244L140,243L138,243L137,243L132,240L131,240L130,240L128,239L127,238L126,237L126,236L126,235L126,234L124,233L123,233L123,234L122,233L121,233L121,234L120,233L119,232L117,231L116,231L115,232L114,233L114,232L111,232L111,231L110,230L109,231L110,232L109,232L108,231L107,230L106,231L105,231L104,232L103,233L101,232L101,233L100,233L99,234L98,234L97,234L96,234L94,234L93,234L92,234L91,233L90,234L89,234L87,235L86,234L85,234L83,235L82,235L80,237L76,238L75,239L73,240L72,240L71,240L70,241L67,242L67,240L66,241L67,239L67,238L64,237L63,237L63,236L62,235L62,234L61,234L60,234L58,235L58,233L57,232L54,230L53,230L51,231L49,231L48,234L47,235L46,234L44,234L44,233L42,232L41,232L39,231L39,230L36,228L30,223L29,223L28,222L27,223L26,224L26,225L24,226L23,226L21,225L21,224L19,223L18,223L20,294L20,297L20,317L20,323L22,325L23,327L21,327L22,328L22,329L23,330L23,331L25,332L25,333L24,335L24,336L25,337L25,338L26,339L27,340L27,341L30,344L32,343L33,344L34,344L35,345L35,346L36,346L37,347L40,351L40,351L41,353L42,353L43,354L44,355L44,356L47,357L49,359L50,360L50,361L51,363L52,364L53,365L55,366L56,367L58,368L60,369L62,371L63,372L63,373L64,374L65,375L67,376L67,377L68,378L69,378L71,378L72,378L74,379L75,380L75,381L75,382Z " data-fips="ZA01" data-hasc="ZM.WE" data-name="Western" data-postal="WE" data-varname="Barotseland"/></g></svg>