<?xml version="1.0" ?><!DOCTYPE svg  PUBLIC '-//W3C//DTD SVG 1.1//EN'  'http://www.w3.org/Graphics/SVG/1.1/DTD/svg11.dtd'><svg enable_background="new 0 0 500 401" height="401px" style="stroke-linejoin: round; stroke:#000; fill:#f6f3f0;" version="1.1" viewBox="0 0 500 401" width="500px" xmlns="http://www.w3.org/2000/svg" xmlns:xlink="http://www.w3.org/1999/xlink"><defs><style type="text/css"><![CDATA[path { fill-rule: evenodd; }
#context path { fill: #eee; stroke: #bbb; } ]]></style></defs><metadata><views><view h="401" padding="0" w="500"><proj id="laea" lat0="13.153" lon0="-59.559"/><bbox h="3.62" w="2.73" x="998.86" y="997.64"/><llbbox lat0="-90" lat1="90" lon0="-180" lon1="180"/></view></views></metadata><g id="admin1"><path d="M265,393L273,392L282,392L292,391L320,362L329,342L326,340L318,337L316,337L315,335L313,331L305,318L305,317L303,302L301,298L299,296L286,293L212,330L212,332L171,354L189,355L218,362L243,377L256,399Z " data-fips="BB01" data-hasc="BB.CC" data-name="Christ Church" data-postal="CC" data-varname=""/><path d="M210,151L214,145L215,144L217,145L217,146L219,147L223,146L240,138L243,137L238,130L212,75L210,75L202,76L200,75L198,77L197,77L196,77L194,76L192,77L189,78L184,84L181,85L179,85L177,85L176,85L175,85L174,85L173,85L171,84L169,84L168,83L167,84L166,90L164,93L170,174L186,173L190,175Z " data-fips="BB02" data-hasc="BB.AN" data-name="Saint Andrew" data-postal="AN" data-varname=""/><path d="M281,249L278,246L250,220L250,220L232,224L222,235L220,237L188,249L286,293Z " data-fips="BB03" data-hasc="BB.GE" data-name="Saint George" data-postal="GE" data-varname=""/><path d="M132,281L139,278L141,276L142,275L157,264L149,231L140,221L138,219L138,218L139,217L140,216L141,216L142,213L144,208L148,193L149,191L152,189L153,189L154,189L155,187L156,187L157,186L158,186L160,186L161,186L163,184L170,174L135,135L112,146L104,144L110,250L118,276L121,276L128,282L130,283Z " data-fips="BB04" data-hasc="BB.JM" data-name="Saint James" data-postal="JM" data-varname=""/><path d="M310,247L319,243L328,238L330,236L344,218L346,215L335,211L315,199L280,173L277,174L255,194L254,195L253,195L252,197L252,199L250,220L278,246L281,249Z " data-fips="BB05" data-hasc="BB.JN" data-name="Saint John" data-postal="JN" data-varname=""/><path d="M250,220L250,220L252,199L252,197L253,195L254,195L255,194L277,174L280,173L255,154L243,137L240,138L223,146L219,147L217,146L217,145L215,144L214,145L210,151L215,195L217,197L220,201L232,224Z " data-fips="BB06" data-hasc="BB.JS" data-name="Saint Joseph" data-postal="JS" data-varname=""/><path d="M106,95L131,79L202,55L203,55L197,41L179,13L154,0L130,9L112,28L102,46L100,67L101,96Z " data-fips="BB07" data-hasc="BB.LU" data-name="Saint Lucy" data-postal="LU" data-varname=""/><path d="M212,332L212,330L188,249L180,259L178,260L157,264L142,275L141,276L139,278L132,281L130,283L128,282L121,276L118,276L127,311L143,341L160,353L171,354Z " data-fips="BB08" data-hasc="BB.MI" data-name="Saint Michael" data-postal="MI" data-varname=""/><path d="M135,135L164,93L166,90L167,84L168,83L169,84L171,84L173,85L174,85L175,85L176,85L177,85L179,85L181,85L184,84L189,78L192,77L194,76L196,77L197,77L198,77L200,75L202,76L210,75L212,75L203,55L202,55L131,79L106,95L101,96L104,144L112,146Z " data-fips="BB09" data-hasc="BB.PE" data-name="Saint Peter" data-postal="PE" data-varname=""/><path d="M362,332L396,297L400,250L385,231L361,220L346,215L344,218L330,236L328,238L319,243L310,247L286,293L299,296L301,298L303,302L305,317L305,318L313,331L315,335L316,337L318,337L326,340L329,342Z " data-fips="BB10" data-hasc="BB.PH" data-name="Saint Philip" data-postal="PH" data-varname=""/><path d="M178,260L180,259L188,249L220,237L222,235L232,224L220,201L217,197L215,195L190,175L186,173L170,174L163,184L161,186L160,186L158,186L157,186L156,187L155,187L154,189L153,189L152,189L149,191L148,193L144,208L142,213L141,216L140,216L139,217L138,218L138,219L140,221L149,231L157,264Z " data-fips="BB11" data-hasc="BB.TH" data-name="Saint Thomas" data-postal="TH" data-varname=""/></g></svg>