<?xml version="1.0" ?><!DOCTYPE svg  PUBLIC '-//W3C//DTD SVG 1.1//EN'  'http://www.w3.org/Graphics/SVG/1.1/DTD/svg11.dtd'><svg enable_background="new 0 0 500 401" height="401px" style="stroke-linejoin: round; stroke:#000; fill:#f6f3f0;" version="1.1" viewBox="0 0 500 401" width="500px" xmlns="http://www.w3.org/2000/svg" xmlns:xlink="http://www.w3.org/1999/xlink"><defs><style type="text/css"><![CDATA[path { fill-rule: evenodd; }
#context path { fill: #eee; stroke: #bbb; } ]]></style></defs><metadata><views><view h="401" padding="0" w="500"><proj id="laea" lat0="59.081" lon0="-109.433"/><bbox h="482.93" w="608.61" x="815.01" y="683.8"/><llbbox lat0="-90" lat1="90" lon0="-180" lon1="180"/></view></views></metadata><g id="admin1"><path d="M206,360L207,360L209,360L210,359L212,359L213,359L215,359L216,359L218,358L219,358L220,358L222,358L223,357L225,357L226,357L228,357L229,356L231,356L232,356L234,356L235,355L236,355L238,355L239,355L241,354L242,354L244,354L245,353L247,353L246,352L246,351L246,349L246,349L245,347L245,345L245,344L245,343L244,340L243,337L243,334L242,331L241,327L241,324L240,320L239,315L240,314L240,313L241,312L242,310L243,308L244,307L245,305L246,304L246,303L247,302L247,301L248,300L249,298L249,297L250,295L251,293L253,290L254,288L255,285L256,282L257,280L259,277L260,274L261,272L262,270L263,268L264,266L263,266L262,266L261,266L260,266L258,266L257,266L256,266L255,265L253,265L252,266L251,266L249,267L248,268L246,269L245,270L245,269L244,270L243,272L244,270L244,269L244,268L244,266L243,265L243,265L242,264L241,263L241,262L240,260L240,259L239,258L238,257L238,257L237,256L237,255L236,254L235,254L234,254L233,255L231,255L232,256L232,257L232,258L232,259L232,260L232,259L232,258L231,257L231,256L231,255L230,256L230,255L228,254L228,253L227,253L227,252L227,251L227,250L227,249L227,248L226,247L226,246L226,245L226,243L223,244L221,244L219,245L217,245L214,246L212,246L210,247L208,247L205,247L203,248L201,248L199,248L196,249L194,249L192,249L190,251L190,252L190,253L190,254L191,260L191,266L192,271L193,277L193,281L193,284L194,288L194,292L195,294L195,296L195,298L196,300L196,302L196,305L197,307L197,309L197,311L198,313L198,315L198,317L199,320L199,322L200,324L200,326L200,328L201,330L201,332L201,335L202,337L202,339L202,341L203,343L203,345L204,347L204,350L204,352L205,354L205,356L205,358L206,360Z " data-fips="CA03" data-hasc="CA.MB" data-name="Manitoba" data-postal="MB" data-varname=""/><path d="M153,363L155,363L156,363L158,363L159,363L161,363L162,363L164,363L165,363L166,363L168,363L169,363L171,363L172,363L174,363L175,362L177,362L178,362L180,362L181,362L183,362L184,362L185,362L187,362L188,362L190,361L191,361L193,361L194,361L196,361L197,361L199,361L200,361L202,360L203,360L204,360L206,360L205,358L205,356L205,354L204,352L204,350L204,347L203,345L203,343L202,341L202,339L202,337L201,335L201,332L201,330L200,328L200,326L200,324L199,322L199,320L198,317L198,315L198,313L197,311L197,309L197,307L196,305L196,302L196,300L195,298L195,296L195,294L194,292L194,288L193,284L193,281L193,277L192,271L191,266L191,260L190,254L190,253L190,252L190,251L187,250L185,250L182,250L179,250L177,251L174,251L172,251L169,251L167,251L164,251L162,251L159,252L157,252L154,252L152,252L149,252L149,255L149,259L149,262L149,266L149,269L149,272L149,276L149,279L149,283L149,286L149,290L149,293L149,297L149,300L149,304L149,307L149,311L149,314L149,318L149,321L148,325L148,328L148,332L148,335L148,339L148,342L148,346L148,349L148,353L148,356L148,359L148,363L149,363L150,363L152,363Z " data-fips="CA11" data-hasc="CA.SK" data-name="Saskatchewan" data-postal="SK" data-varname=""/><path d="M148,359L148,356L148,353L148,349L148,346L148,342L148,339L148,335L148,332L148,328L148,325L149,321L149,318L149,314L149,311L149,307L149,304L149,300L149,297L149,293L149,290L149,286L149,283L149,279L149,276L149,272L149,269L149,266L149,262L149,259L149,255L149,252L146,252L143,251L140,251L136,251L133,251L130,251L127,251L124,250L121,250L117,250L114,249L111,249L108,249L105,248L102,248L99,247L98,249L98,251L98,252L98,254L97,257L97,259L96,262L96,265L95,268L95,270L95,273L94,276L94,279L93,282L93,285L92,287L92,290L91,293L91,296L91,298L91,299L90,301L90,303L90,305L89,307L89,308L89,310L90,311L90,312L89,312L90,313L90,314L91,314L92,315L92,316L93,316L94,317L94,316L95,317L95,318L96,319L96,320L97,321L97,322L97,323L97,324L97,325L98,325L99,324L100,325L101,326L100,327L101,328L102,328L103,329L103,330L104,330L104,331L105,332L106,333L106,332L107,333L107,334L108,335L108,336L109,337L109,338L110,338L110,339L111,340L112,341L112,342L113,343L113,343L114,344L114,345L115,345L116,346L117,347L117,348L117,349L117,350L118,351L118,352L118,353L118,354L117,355L117,356L118,357L118,358L119,359L119,360L120,360L121,361L121,362L122,362L124,362L125,362L127,362L128,362L130,363L131,363L133,363L134,363L136,363L137,363L139,363L140,363L141,363L143,363L144,363L146,363L148,363Z " data-fips="CA01" data-hasc="CA.AB" data-name="Alberta" data-postal="AB" data-varname=""/><path d="M57,360L58,359L59,359L59,358L59,357L58,357L58,356L58,355L57,354L57,353L57,352L56,351L55,350L55,349L54,349L53,348L52,347L51,346L51,345L51,344L50,341L49,340L49,339L49,338L48,337L47,336L46,336L45,335L44,335L43,334L42,334L41,333L40,333L39,332L38,331L37,330L37,329L35,328L34,328L33,328L32,328L32,329L32,330L33,331L34,332L36,331L35,331L36,331L37,332L36,332L36,333L36,332L35,332L34,332L34,333L34,335L34,336L35,336L36,337L37,337L37,336L38,337L37,337L37,338L38,339L39,339L39,339L40,340L40,341L41,342L42,341L41,342L43,343L41,343L40,343L40,344L40,345L41,344L41,345L42,345L43,345L44,346L43,347L44,347L45,347L45,348L44,349L46,348L45,349L44,349L44,350L45,351L46,351L47,351L48,351L49,351L50,351L51,350L50,351L49,352L48,352L47,353L48,354L50,355L50,356L52,357L53,358L55,359L56,360Z M59,356L59,354L58,354L58,355L58,356Z M121,361L120,360L119,360L119,359L118,358L118,357L117,356L117,355L118,354L118,353L118,352L118,351L117,350L117,349L117,348L117,347L116,346L115,345L114,345L114,344L113,343L113,343L112,342L112,341L111,340L110,339L110,338L109,338L109,337L108,336L108,335L107,334L107,333L106,332L106,333L105,332L104,331L104,330L103,330L103,329L102,328L101,328L100,327L101,326L100,325L99,324L98,325L97,325L97,324L97,323L97,322L97,321L96,320L96,319L95,318L95,317L94,316L94,317L93,316L92,316L92,315L91,314L90,314L90,313L89,312L90,312L90,311L89,310L89,308L89,307L90,305L90,303L90,301L91,299L91,298L91,296L91,293L92,290L92,287L93,285L93,282L94,279L94,276L95,273L95,270L95,268L96,265L96,262L97,259L97,257L98,254L98,252L98,251L98,249L99,247L96,247L94,247L92,246L89,246L87,245L84,245L82,244L80,244L77,243L75,243L73,242L70,242L68,241L66,240L63,240L61,239L59,238L56,238L54,237L52,236L49,236L47,235L45,234L43,233L40,233L38,232L36,231L34,230L31,229L29,228L27,227L25,227L22,226L20,225L18,224L16,223L14,222L12,221L9,220L7,219L7,219L8,220L8,222L10,226L11,229L10,232L11,232L14,231L15,232L16,231L17,229L18,229L19,228L20,228L23,229L23,230L24,231L23,233L23,234L24,235L25,236L25,238L25,239L27,241L27,243L28,245L27,246L28,248L28,250L28,251L28,252L28,254L29,255L29,257L29,259L28,260L30,261L29,262L30,264L30,265L30,266L31,266L32,268L33,269L34,270L35,271L35,272L36,273L37,273L37,275L37,276L36,277L36,278L35,279L35,280L35,282L34,282L34,283L34,284L35,283L35,282L36,282L36,281L37,280L37,279L37,281L38,281L37,281L37,282L36,282L35,283L35,284L36,285L35,285L34,284L33,286L33,287L33,288L32,287L31,287L31,288L32,289L32,290L31,288L30,288L30,289L30,290L31,290L31,290L31,290L31,290L30,290L31,291L31,290L31,290L30,291L31,292L32,292L33,292L34,293L33,292L32,292L32,293L33,294L32,293L31,292L31,294L31,295L31,296L32,297L32,298L32,299L34,301L34,300L35,299L36,298L37,298L37,297L37,298L38,297L39,296L38,297L39,298L38,298L37,299L37,300L38,301L38,302L40,302L41,303L41,304L41,305L40,304L40,302L39,302L38,302L37,301L37,300L36,300L36,300L36,300L36,300L37,300L37,299L35,299L35,300L34,301L35,300L36,300L36,301L36,302L36,303L37,304L37,306L37,307L37,308L38,309L39,308L40,308L39,308L39,309L38,310L37,312L37,312L36,313L37,313L38,312L39,312L40,311L39,312L38,313L39,313L40,312L39,313L39,314L39,315L40,315L41,314L42,314L43,313L44,312L45,311L46,310L46,312L45,312L44,313L43,314L43,315L44,315L45,315L45,316L45,317L45,318L45,319L45,318L44,317L44,316L43,315L42,316L41,316L41,317L40,317L40,316L40,317L39,318L38,318L38,319L37,320L37,321L37,322L38,323L39,322L39,320L40,320L41,319L41,320L40,321L41,321L42,321L44,322L45,321L44,322L42,322L40,321L39,322L38,323L38,324L39,324L40,325L41,324L40,325L39,325L38,325L37,325L37,326L38,326L38,327L38,328L39,329L41,329L42,329L43,330L44,330L44,329L44,330L46,331L45,330L43,331L45,331L46,331L46,332L45,333L47,333L48,333L49,333L48,333L47,333L46,333L45,334L46,334L45,334L44,334L45,335L46,335L47,335L48,336L49,335L49,334L49,335L49,336L51,336L52,336L53,335L53,334L53,333L54,333L53,334L54,335L53,336L52,336L52,337L52,338L53,338L54,338L55,338L56,337L55,338L54,338L54,339L54,340L53,341L53,342L52,341L53,343L54,344L54,345L55,345L57,344L57,344L57,345L57,344L58,343L59,342L58,341L59,342L58,343L58,343L58,344L58,346L58,347L60,347L59,347L58,347L58,346L57,345L57,347L57,348L58,348L60,349L60,348L61,348L62,347L62,348L61,349L61,350L62,351L64,350L63,351L62,351L61,351L61,352L62,352L62,354L63,353L63,354L64,355L66,355L67,355L69,355L70,356L71,356L73,356L74,356L76,357L77,357L79,357L80,357L82,358L83,358L85,358L86,358L87,358L89,359L90,359L92,359L93,359L95,359L96,360L98,360L99,360L101,360L102,360L103,360L105,361L106,361L108,361L109,361L111,361L112,361L114,361L115,362L117,362L118,362L119,362L121,362Z M60,355L59,354L58,353L58,354L60,355Z M43,346L42,346L42,347L43,347Z M55,345L54,345L53,345L54,345L54,346L55,347Z M40,341L40,340L39,340L38,340L38,341L39,342L40,342Z M52,340L52,339L51,340L51,341Z M50,340L51,339L49,339L50,340L50,341Z M51,339L51,338L51,337L50,337L49,338L51,338L51,339L51,340Z M45,334L44,333L42,334L43,334Z M45,332L45,332L45,331L44,332L43,332L43,333L45,333Z M43,331L43,331L41,330L42,331Z M49,332L49,332L50,331L50,330L50,332L49,332Z M37,322L37,321L37,320L35,321L36,322L37,322Z M37,318L37,318L38,316L37,316L36,317L36,318L36,319Z M39,315L38,315L37,315L38,316Z M37,316L37,315L36,315L36,316Z M38,314L38,314L37,315L38,315Z M39,317L41,316L42,315L43,315L43,314L42,314L41,315L40,315L39,315L38,316L39,318Z M35,312L35,311L34,311L34,312L34,313Z M36,310L36,310L34,310L35,311L36,311Z M37,312L37,311L37,309L36,310L36,311L36,313Z M38,310L38,309L37,309L38,310Z M20,309L19,308L19,307L19,307L18,307L18,306L18,305L17,304L17,303L18,302L17,302L17,300L18,301L19,301L19,300L18,300L17,299L18,299L19,300L19,299L19,298L18,298L17,298L15,298L14,297L14,298L15,299L15,299L15,299L15,300L15,299L16,300L16,300L15,300L16,300L15,300L15,302L16,302L16,303L16,304L17,306L17,307L18,308L18,309L19,310L19,309L19,310Z M33,309L33,308L33,308L32,307L32,308L32,310L33,310Z M36,309L37,307L37,306L37,305L37,304L36,304L36,303L35,303L34,304L33,305L33,306L34,306L35,306L34,306L33,307L33,308L34,309L35,308L35,307L36,307L35,307L35,308L35,310L36,310Z M35,306L35,305L35,304L35,305Z M19,303L18,303L18,304L19,304Z M34,303L33,302L33,304L34,304Z M36,302L36,300L35,301L34,302L36,302Z M31,301L30,300L29,299L29,298L29,297L28,297L27,297L27,298L28,299L28,300L29,301L29,302L30,302Z M30,297L29,296L29,295L28,296L29,297L30,298Z M33,302L33,301L33,299L32,298L32,297L31,296L31,295L29,295L30,296L30,297L31,298L30,298L31,298L31,299L31,300L31,301L32,302Z M29,294L30,293L30,293L29,292L28,293L27,293L27,294L28,293L29,294L29,295Z M17,297L18,297L19,296L19,295L19,294L20,293L21,292L22,291L22,290L21,290L19,290L19,291L18,292L18,293L17,293L16,293L17,293L16,292L17,292L18,292L19,291L19,290L19,289L18,288L17,289L16,289L17,289L17,287L16,287L15,287L15,286L14,287L14,288L13,289L14,290L13,291L14,292L14,294L14,294L15,295L14,295L15,296L14,296L14,297L15,297L16,298Z M28,287L29,286L29,286L28,287L27,288Z " data-fips="CA02" data-hasc="CA.BC" data-name="British Columbia" data-postal="BC" data-varname="Colombie britannique|New Caledonia"/><path d="M334,292L334,291L333,291L332,291L332,292L333,293Z M317,289L318,289L319,289L321,289L323,288L322,287L322,286L321,286L320,285L318,285L317,285L317,286L316,286L315,287L314,288L315,289Z M320,266L322,265L322,264L323,263L322,264L321,265L320,267Z M315,256L316,256L317,255L317,252L317,255L317,253L317,252L317,250L317,251L317,254L318,255L317,253L317,251L317,250L316,250L315,249L314,249L315,250L315,251L315,253L315,254L315,253L314,252L314,251L314,250L314,251L314,253L314,254L313,257L314,257L315,256L315,255L315,256L315,257Z M328,255L328,253L328,254L328,255Z M313,252L313,251L313,252L312,253L312,253L312,254Z M319,251L319,250L318,250L318,249L318,250L318,251L318,252Z M194,249L196,249L199,248L201,248L203,248L205,247L208,247L210,247L212,246L214,246L217,245L219,245L221,244L223,244L226,243L225,243L226,242L226,241L225,240L225,239L225,238L226,238L226,237L226,236L226,235L226,234L226,233L226,231L227,230L226,230L227,229L226,228L226,227L227,226L228,225L229,224L228,224L227,223L228,222L227,222L229,222L229,221L229,220L230,220L230,219L229,219L228,218L230,218L231,219L230,218L230,217L230,216L230,215L231,216L232,215L233,215L232,214L230,214L230,213L231,213L232,212L233,212L234,212L235,211L236,210L237,210L237,209L237,207L236,206L236,205L235,205L234,205L233,205L231,204L231,204L230,204L229,205L228,205L227,206L228,205L229,204L228,204L227,203L226,203L225,203L224,203L222,203L223,204L222,204L221,203L222,202L221,202L221,201L221,202L222,202L224,202L225,203L226,203L227,203L228,203L229,203L230,203L231,203L232,203L233,203L234,204L236,203L235,202L237,203L238,202L238,201L238,200L237,199L236,199L237,199L238,199L237,198L237,197L238,196L238,197L239,197L240,197L241,198L240,197L240,196L240,197L242,197L243,197L243,196L244,195L245,194L244,193L245,192L245,190L245,190L245,189L246,188L246,186L246,185L246,184L246,183L245,182L243,183L242,183L241,184L239,184L237,184L236,183L235,183L234,182L233,181L232,181L230,181L229,181L227,181L227,182L226,181L227,181L230,181L231,180L232,180L231,179L233,179L234,180L235,180L236,181L237,181L238,181L237,181L238,181L239,182L240,182L241,183L244,182L244,181L244,180L245,179L245,178L246,177L245,176L246,175L246,174L246,173L246,172L244,171L243,171L243,170L242,169L243,169L244,169L245,168L246,167L247,168L248,169L248,170L249,170L250,170L252,169L251,169L251,168L251,168L252,168L253,169L254,168L254,167L253,167L252,166L251,165L251,164L250,165L249,164L248,163L247,164L246,164L247,162L248,162L249,163L249,164L251,164L251,163L251,164L252,165L253,165L254,166L255,166L255,166L256,164L256,163L257,163L257,162L258,161L258,160L258,159L258,158L259,157L259,156L258,154L258,153L257,152L257,151L255,151L254,150L253,150L252,149L252,148L252,147L251,148L251,147L250,146L250,145L250,144L251,145L252,144L253,142L252,141L252,140L251,140L249,140L250,139L251,138L250,137L248,137L247,137L246,136L242,136L245,136L244,135L245,134L244,134L243,135L241,135L240,136L239,135L238,135L236,136L235,137L234,137L234,137L234,138L235,140L236,141L236,142L237,142L238,143L239,143L240,143L239,144L240,144L239,144L239,145L240,145L240,146L239,146L238,147L238,147L238,149L238,150L239,151L239,152L239,153L239,154L239,155L239,156L238,157L239,159L239,159L239,160L239,161L238,162L238,162L238,163L238,164L238,165L237,165L237,164L236,163L235,162L234,161L233,161L232,160L231,159L231,158L231,157L230,156L230,155L230,154L231,155L232,155L231,154L231,152L230,152L230,151L229,150L228,149L227,148L226,148L225,147L224,146L223,147L223,148L223,149L223,150L223,151L224,152L223,153L224,154L223,155L223,156L223,157L222,156L221,156L221,155L221,154L221,153L220,152L220,151L219,150L218,149L217,149L216,149L216,148L217,148L217,147L217,148L218,148L218,147L219,146L218,146L216,146L215,146L216,145L215,145L214,146L214,147L213,147L212,146L211,146L210,146L210,145L211,144L211,143L212,142L211,141L210,142L210,141L210,140L211,141L212,141L213,140L212,139L212,139L211,139L211,138L210,138L210,137L209,136L208,136L207,135L206,135L206,134L206,132L206,131L205,130L204,130L204,129L203,128L202,128L202,126L200,127L200,127L199,127L199,126L198,125L196,126L197,127L198,127L197,127L197,128L196,129L195,130L196,130L197,131L197,132L197,133L195,132L195,132L195,133L194,134L194,135L195,136L195,137L195,138L195,139L197,139L197,138L197,139L198,140L196,140L196,141L196,142L196,143L196,144L197,145L198,146L198,147L199,148L200,147L201,148L202,149L204,149L204,148L204,149L205,150L207,149L207,148L208,149L209,150L208,151L207,151L208,150L208,149L207,150L206,151L206,152L206,153L207,153L206,154L206,155L206,156L207,157L207,156L208,156L208,155L209,154L209,155L209,156L210,157L210,157L210,158L209,159L208,160L209,161L208,162L207,163L207,164L206,164L205,165L205,166L205,167L205,168L206,168L206,169L206,170L207,171L207,173L207,174L208,175L208,176L207,176L206,176L205,176L206,177L207,178L206,177L205,177L204,176L204,175L205,176L205,175L205,176L207,175L207,175L207,174L206,173L205,173L206,172L205,171L204,172L203,173L204,172L203,171L202,171L202,170L203,169L203,168L202,167L202,166L202,165L202,163L202,162L202,163L201,164L201,165L200,165L200,164L200,163L200,164L200,163L198,163L198,162L197,162L196,162L195,161L194,161L195,162L195,163L193,163L192,164L193,164L194,165L193,166L194,167L195,168L195,168L196,167L197,166L198,167L198,167L199,168L199,169L198,170L198,170L198,169L198,169L198,170L198,170L198,170L198,170L197,170L196,170L195,169L195,168L194,167L192,167L193,168L194,169L193,170L192,170L191,170L190,170L189,170L187,170L186,170L185,170L185,171L183,171L183,172L182,172L181,171L180,172L179,171L178,171L177,170L176,170L175,169L175,168L174,169L173,169L172,169L171,169L170,168L170,167L169,167L169,166L168,167L167,166L166,166L167,165L166,164L166,163L166,162L165,161L163,161L163,162L161,162L160,163L159,164L158,164L156,165L155,167L155,168L156,167L156,168L156,169L157,169L158,169L159,169L158,168L159,167L160,167L161,168L161,167L162,166L163,167L163,166L163,165L165,164L166,164L166,165L165,166L164,167L163,167L163,168L163,169L163,168L162,169L161,169L160,170L159,170L158,171L158,170L158,171L159,171L158,172L157,173L158,174L159,175L159,176L159,176L159,177L159,178L161,180L161,181L161,182L160,181L160,182L160,181L159,180L159,181L159,182L159,184L160,185L160,186L161,187L160,186L160,185L159,184L158,184L158,183L157,182L157,181L156,181L156,180L155,179L156,180L157,180L158,180L158,179L158,178L156,177L156,176L155,175L154,177L154,176L154,175L153,173L152,173L151,173L151,172L150,172L150,170L149,171L148,172L147,172L146,173L145,173L144,173L142,173L141,173L140,174L139,174L138,173L137,173L136,173L134,173L133,172L132,172L131,172L130,171L129,170L130,170L130,169L130,168L132,168L131,167L132,167L134,167L135,167L135,165L134,164L134,164L133,163L132,162L131,161L130,160L128,160L127,160L127,161L126,160L125,160L124,160L123,159L121,159L120,158L119,156L118,155L116,155L114,154L113,153L112,151L112,151L112,154L111,156L111,158L111,160L110,161L110,163L110,164L110,166L110,167L110,168L111,169L112,169L112,170L114,172L116,174L117,176L119,177L121,180L123,182L125,184L128,186L130,187L131,189L133,191L135,193L136,193L137,194L138,195L140,196L141,196L142,196L143,196L144,196L145,196L147,196L147,197L148,198L149,199L150,200L151,201L152,202L153,203L154,203L155,203L156,203L158,204L161,204L163,205L165,205L168,205L171,206L173,206L176,206L178,206L180,206L182,207L184,207L185,207L185,208L185,210L185,211L185,212L186,217L187,223L187,228L188,233L188,237L189,241L189,245L192,249Z M290,203L290,202L290,201L290,200L290,199L289,198L289,197L288,196L287,196L286,197L285,198L285,199L286,201L286,202L287,203L288,203L289,203L290,204Z M272,205L273,205L274,203L274,202L275,201L275,200L276,198L276,198L275,197L275,196L274,196L273,196L273,197L272,197L271,199L270,198L269,199L269,200L269,201L269,202L269,204L270,205L271,206Z M260,200L261,199L262,197L262,196L262,195L262,194L263,193L264,192L264,191L264,190L264,189L263,188L264,187L265,187L266,186L266,187L266,188L267,188L268,187L269,188L269,189L270,190L270,189L272,189L273,189L274,189L275,189L277,189L277,188L277,187L278,186L278,184L277,184L276,185L276,184L275,183L274,183L274,184L272,184L271,185L270,186L270,185L271,184L271,183L270,183L269,182L269,181L267,180L266,180L265,180L264,180L262,179L261,179L261,179L260,178L259,178L257,178L256,178L256,177L255,177L254,177L254,178L253,179L253,178L252,177L251,177L252,176L251,175L250,174L249,175L249,175L249,174L248,175L248,176L248,177L248,178L248,180L249,181L249,182L249,183L250,184L250,185L250,187L250,188L251,189L251,190L252,191L253,192L252,193L251,194L250,195L250,198L251,199L252,198L253,197L254,196L255,195L256,194L257,195L257,196L257,197L258,198L258,199L259,200Z M345,186L346,185L346,184L345,183L344,183L343,184L344,186L344,187Z M291,186L292,185L291,183L290,183L289,183L288,183L287,184L287,185L288,185L289,186L290,186Z M309,182L308,181L306,182L306,182L307,182Z M294,181L294,180L293,179L291,179L290,180L290,181L291,181L292,181L293,181Z M287,178L288,177L287,178L286,179Z M288,174L289,174L290,173L291,173L291,172L292,171L292,170L292,169L291,168L292,168L293,168L295,168L296,168L297,168L297,167L296,166L296,165L294,165L293,165L294,164L295,163L295,165L296,165L297,165L297,164L297,163L298,164L298,165L299,166L299,167L299,166L299,165L298,164L300,164L299,163L300,163L301,163L301,162L301,163L302,165L303,165L304,165L305,166L305,167L306,166L307,167L307,168L309,168L309,167L309,168L310,168L311,167L310,166L311,167L312,167L313,167L314,167L314,168L313,169L312,170L313,170L314,171L315,171L316,171L317,171L318,170L318,169L318,170L318,171L318,171L319,171L320,171L321,171L322,171L323,170L324,170L325,170L326,170L327,170L328,171L330,171L331,171L332,171L334,170L335,169L336,169L338,168L339,168L340,168L341,168L342,168L343,167L343,166L342,166L342,165L342,164L341,164L340,163L339,164L338,164L338,163L337,162L336,162L334,163L333,162L332,162L331,162L331,163L330,162L330,163L329,162L328,162L327,162L326,161L325,161L324,161L323,160L322,160L321,159L322,159L323,158L324,158L325,159L326,159L327,159L328,159L327,158L326,158L325,157L326,157L327,157L328,158L329,158L331,158L331,157L331,158L332,158L333,159L334,158L333,158L332,157L332,156L332,157L333,158L334,158L335,159L336,158L335,157L336,158L337,157L337,158L337,157L338,157L339,158L340,157L340,157L341,158L342,158L342,157L341,157L340,156L340,155L341,155L341,154L340,154L340,153L339,153L338,153L338,152L338,152L337,151L336,150L335,150L334,149L335,149L336,150L337,150L338,151L339,152L340,151L339,150L338,149L338,149L337,148L336,148L335,148L335,148L335,148L335,148L336,148L337,147L336,147L335,146L335,147L335,148L335,148L334,147L334,146L334,146L333,147L332,146L331,146L331,146L329,145L330,144L330,143L329,143L329,144L328,145L327,144L327,143L326,143L325,142L326,143L326,144L325,144L324,143L325,144L324,143L323,143L322,143L321,143L322,144L322,145L322,144L321,143L320,143L320,142L320,143L319,142L318,142L317,142L318,141L317,140L316,140L315,139L314,140L314,142L314,143L313,142L313,141L312,140L311,140L310,140L310,139L311,139L310,138L309,138L308,138L307,139L308,137L309,137L310,138L311,138L311,139L312,138L313,138L314,137L313,137L312,136L311,136L310,136L309,135L309,135L308,134L309,134L310,134L311,134L310,133L309,132L308,133L308,132L309,132L310,132L310,131L311,131L312,131L313,132L314,132L315,131L315,132L316,132L317,131L317,130L316,129L317,130L317,131L317,133L318,133L319,131L320,130L319,129L319,127L320,126L320,127L320,129L320,129L320,131L320,131L320,133L321,134L321,134L322,134L322,133L322,134L322,135L323,134L323,133L324,134L323,135L324,135L325,134L326,134L325,135L325,136L326,136L327,137L328,137L327,136L326,135L327,134L327,135L328,136L328,135L329,136L329,135L330,134L330,135L331,135L332,135L332,135L331,134L331,133L330,132L329,131L328,131L329,131L328,130L328,129L327,130L327,128L325,127L326,128L327,128L328,129L329,129L329,127L330,128L330,127L329,126L328,126L329,126L330,125L329,125L328,124L327,125L326,124L327,125L328,124L329,124L329,123L328,122L327,122L326,123L325,123L326,122L326,121L325,121L326,121L327,120L328,119L328,118L327,119L327,118L325,117L324,118L324,117L326,117L327,117L327,116L326,116L325,115L324,115L323,116L323,115L323,116L322,115L322,116L322,117L323,118L322,117L321,117L321,118L322,119L322,120L322,119L321,118L320,118L319,119L320,120L320,121L319,121L319,120L319,118L318,117L318,116L317,115L317,116L317,117L317,118L317,119L318,120L317,119L317,118L316,118L315,119L315,120L314,121L314,122L314,121L315,119L315,118L314,119L313,121L313,119L312,119L315,118L314,117L313,117L313,116L312,116L311,116L310,117L310,116L309,115L309,116L309,117L309,118L308,117L308,116L307,115L308,114L307,115L307,116L306,117L307,118L308,119L307,118L306,117L306,116L305,117L306,118L306,119L306,120L306,119L305,118L304,118L304,117L304,118L304,119L304,120L303,120L303,119L303,118L302,117L301,118L302,119L301,118L301,119L301,118L300,117L299,118L299,119L299,118L299,117L298,118L298,119L297,119L298,117L299,117L299,116L298,117L297,116L297,117L296,117L295,118L296,119L295,118L294,118L293,118L292,119L293,118L292,119L292,118L293,118L293,117L292,117L290,118L289,118L290,117L291,117L291,116L292,116L293,115L292,116L291,116L293,115L292,115L290,115L291,114L292,114L292,113L291,113L289,113L289,115L289,116L289,115L289,114L288,114L289,113L290,112L289,113L288,113L287,113L287,114L287,113L289,112L289,112L289,112L291,112L292,111L293,111L295,110L294,109L293,108L291,108L290,109L289,110L287,110L286,111L286,112L285,112L284,113L283,114L283,114L283,113L285,112L285,111L286,110L287,109L287,108L288,107L289,106L289,105L288,104L287,104L286,104L284,103L283,104L283,105L284,105L284,107L284,108L283,108L283,109L283,110L283,109L283,108L283,106L282,106L281,107L280,109L281,110L280,110L280,111L280,110L280,109L279,110L280,109L280,108L280,107L280,106L281,105L282,104L281,103L282,104L282,103L281,102L277,102L276,103L276,104L276,105L275,106L276,106L275,106L275,105L276,103L275,102L274,104L274,105L274,107L274,108L274,108L275,109L275,110L276,111L276,113L275,112L275,111L274,110L274,109L273,108L273,108L273,109L273,110L272,110L272,109L272,108L273,106L273,105L273,104L273,103L272,102L271,103L271,104L271,105L270,106L269,108L269,109L269,108L268,107L268,108L268,106L268,105L268,104L270,103L269,102L269,101L268,101L267,100L265,100L264,102L264,103L264,104L264,105L264,106L265,107L265,108L264,107L264,106L263,105L263,106L263,107L263,108L263,107L263,106L263,104L262,104L261,103L261,104L261,105L261,106L261,107L261,106L260,106L260,105L260,104L260,103L260,102L259,102L259,104L258,103L258,104L258,105L259,106L259,107L259,108L259,107L258,106L257,106L258,105L257,104L257,105L256,107L257,106L256,105L256,105L256,104L257,104L257,103L258,101L257,101L256,100L254,101L254,102L254,103L254,104L254,105L254,106L254,105L254,104L253,103L254,102L252,102L252,104L252,105L252,104L252,103L252,102L254,101L254,100L253,99L252,98L250,98L249,98L249,99L248,99L247,99L246,98L244,100L243,101L243,102L243,104L245,104L247,104L248,104L249,104L248,104L247,105L247,104L245,104L244,105L245,106L244,105L243,105L243,106L245,106L246,107L247,107L248,108L249,108L247,108L246,107L247,108L248,108L247,108L246,107L245,106L244,107L244,108L245,108L244,108L243,107L243,106L242,105L241,105L241,106L241,107L241,106L240,105L239,105L239,106L239,107L240,108L242,108L240,108L239,107L239,108L240,109L239,110L239,112L239,110L238,110L239,109L238,109L238,108L238,106L237,105L237,107L236,108L236,107L237,106L237,105L237,104L237,103L236,102L235,101L235,101L234,100L232,99L231,98L231,97L230,97L229,96L228,96L227,97L226,97L225,98L224,99L224,101L225,101L225,102L225,101L223,101L223,103L224,104L223,103L222,103L221,104L222,105L224,105L226,105L227,105L226,105L224,105L223,105L222,106L221,106L221,107L222,106L223,107L224,107L226,108L225,107L224,107L222,107L222,108L222,109L222,110L223,111L223,112L224,112L226,112L227,112L226,112L227,113L228,114L229,114L229,115L228,114L227,114L226,114L225,114L224,114L225,115L225,116L224,117L226,117L227,119L228,119L230,119L230,120L230,121L230,122L231,123L231,124L231,125L231,124L231,123L230,124L229,124L228,125L227,127L225,127L226,126L227,126L228,124L229,123L229,123L230,122L229,121L228,121L227,121L226,120L225,120L224,119L224,118L223,117L222,116L222,116L222,114L222,113L221,113L220,111L219,110L219,109L219,107L219,106L219,105L219,103L220,102L220,99L219,99L217,100L215,100L214,101L213,102L212,103L212,106L211,107L212,107L211,108L211,109L211,110L211,111L211,112L212,113L211,114L211,115L211,116L211,117L211,117L211,118L212,119L213,120L212,121L212,122L213,123L214,124L213,125L214,126L214,127L215,127L219,127L220,127L221,127L222,127L224,127L225,128L224,128L223,129L222,129L220,129L219,129L218,129L217,130L217,131L218,132L219,132L220,133L220,134L221,134L223,134L224,135L225,135L226,134L227,134L226,134L227,133L228,134L228,133L229,132L229,133L229,134L230,135L233,135L234,135L233,135L232,135L233,134L234,134L235,133L236,134L237,134L238,133L240,133L241,132L242,132L243,132L244,133L245,132L245,131L244,130L243,130L241,129L242,129L244,130L245,130L246,130L247,131L248,131L249,131L248,130L247,129L246,130L245,129L246,128L248,128L249,128L250,128L251,128L252,128L253,128L255,127L255,126L254,125L253,124L252,123L251,123L250,123L250,122L250,121L251,122L251,121L251,120L251,121L251,122L252,122L254,122L255,122L256,122L257,122L257,123L258,124L259,125L259,124L260,124L261,124L262,125L261,126L262,126L263,126L263,125L264,124L263,125L263,126L265,127L266,126L267,127L268,127L269,128L268,129L267,130L266,131L266,132L267,132L268,134L269,133L269,131L270,130L270,129L271,129L271,128L271,127L272,127L271,128L271,129L273,129L273,130L273,129L273,130L274,130L275,130L276,131L277,130L276,129L277,129L278,130L278,131L278,131L280,131L280,130L280,131L281,131L282,131L283,132L284,133L285,133L286,134L286,135L287,135L288,136L288,137L289,138L290,138L290,139L289,141L289,142L289,143L290,144L289,145L289,146L289,148L289,149L289,150L288,151L289,152L290,153L291,153L292,153L293,154L294,155L295,156L294,156L293,156L292,157L292,158L292,159L291,159L290,160L290,161L288,162L288,163L289,163L290,163L291,164L291,163L291,163L292,164L291,164L292,165L292,166L291,166L290,165L291,164L290,163L289,163L288,163L287,163L283,163L282,164L281,164L281,165L282,166L283,166L282,167L281,168L281,169L281,170L282,171L282,172L282,173L283,174L284,174L285,175L286,174L287,175Z M359,175L359,174L358,174L357,174L357,174L357,175L358,175Z M158,175L158,175L157,174L157,175L157,176Z M322,174L323,173L323,172L322,172L321,172L320,172L319,173L319,173L320,173L321,174Z M257,173L258,173L258,172L256,172L256,171L255,171L253,170L252,170L252,170L253,171L254,172L254,172L255,173L256,173L256,174Z M253,175L253,174L252,173L251,173L250,172L250,173L250,174L251,175L252,175L253,176Z M351,167L351,166L351,165L350,165L350,165L348,165L348,167L349,167L350,168Z M257,166L256,166L256,167L257,167Z M170,165L170,164L168,165L169,166L170,166Z M349,164L348,164L347,163L346,164L347,165Z M181,162L180,161L179,161L178,162L179,163L180,163Z M201,161L201,160L202,159L202,158L203,158L204,157L203,156L202,157L201,157L201,155L201,155L200,154L200,155L199,154L199,153L198,152L197,151L196,151L195,150L195,149L194,150L194,150L194,149L193,148L192,148L191,149L191,150L192,151L192,153L191,152L190,152L191,153L191,154L191,155L190,156L189,156L188,156L188,158L189,159L190,158L191,159L191,159L192,160L192,158L193,160L194,160L195,160L197,161L198,160L198,161L200,161Z M186,160L186,159L186,159L185,158L184,158L184,160L184,161L185,161Z M186,158L185,157L185,158L186,158Z M345,158L346,157L345,157L344,157L344,158L344,159Z M139,165L140,165L142,165L145,165L146,165L148,164L149,164L150,164L151,164L152,164L154,163L155,162L155,161L156,161L158,161L160,160L161,159L161,158L161,157L162,156L162,155L163,156L163,157L163,158L164,159L165,158L166,159L167,159L168,159L168,160L168,161L170,160L171,161L172,161L173,161L174,161L176,161L177,161L178,160L179,159L180,159L180,158L179,157L178,156L178,155L178,154L177,154L176,155L175,156L175,157L174,158L175,157L175,156L174,155L174,154L173,152L174,153L175,153L176,154L176,153L176,152L177,151L177,150L178,150L179,151L179,152L180,151L180,150L180,151L181,152L182,152L182,151L182,150L182,149L181,148L181,147L180,147L179,147L179,146L178,146L177,146L176,145L175,144L174,143L173,143L173,144L173,143L172,143L171,142L170,142L170,141L169,140L168,139L168,138L168,137L169,136L168,135L168,134L167,132L167,131L166,130L166,129L166,128L166,127L165,126L165,125L165,124L164,123L164,122L164,121L163,120L162,119L161,119L161,118L160,117L159,117L159,118L158,118L157,117L156,117L156,117L157,118L155,118L156,120L156,121L156,122L156,123L157,124L157,125L157,126L157,127L157,128L158,129L158,130L158,131L159,132L158,132L157,133L157,134L156,133L156,132L156,131L155,130L155,129L155,128L154,126L155,125L154,124L153,124L153,123L152,122L151,121L150,120L150,121L150,123L150,123L150,124L150,125L150,125L150,126L150,127L150,129L150,130L150,132L150,134L150,135L150,136L150,139L150,141L150,143L150,146L150,147L150,148L150,150L149,150L148,150L146,150L145,150L143,150L141,150L142,151L141,152L140,151L140,150L139,150L137,150L135,150L133,150L131,149L129,149L126,149L125,149L125,150L126,151L126,152L126,153L126,154L127,155L128,156L131,157L132,157L135,157L136,158L137,159L137,160L136,161L136,162L137,163L137,164L138,165L138,166Z M182,154L181,153L181,154L182,155Z M238,157L238,156L238,156L237,154L237,153L236,153L235,154L235,155L236,156L236,157L237,158L238,158Z M199,151L198,150L197,150L197,151L198,151L199,152Z M202,151L202,150L200,149L200,150L199,151L200,151L200,150L201,151L201,152Z M341,150L340,149L339,149L339,148L338,148L338,149L339,149L340,150Z M220,146L219,146L219,147L220,147Z M328,143L328,142L328,142L327,143L328,144Z M183,142L182,142L181,141L181,142L182,143L183,143Z M263,141L262,141L261,142L262,142Z M262,139L262,138L260,138L261,139L262,140Z M229,137L230,136L229,135L228,136L227,136L227,137L228,137Z M275,146L276,146L277,145L278,144L279,143L279,142L279,141L278,140L278,139L277,138L276,138L276,137L276,135L275,135L273,135L272,136L271,136L270,138L270,139L270,140L270,142L270,144L272,145L272,146L274,147Z M282,135L282,134L281,134L280,134L278,135L278,134L278,135L277,136L278,137L278,137L280,137Z M188,134L188,132L188,131L187,131L187,130L187,128L187,130L188,131L189,130L190,130L191,129L192,128L193,128L192,127L192,126L191,126L192,124L192,123L191,123L192,123L192,122L191,121L191,120L190,119L189,120L189,119L188,118L188,117L187,117L186,117L185,118L185,117L185,116L186,115L186,114L188,113L187,112L186,112L187,111L188,110L187,109L186,108L184,108L184,109L182,110L181,110L180,110L179,109L178,109L178,110L179,110L179,111L178,110L177,110L176,110L176,112L177,112L178,113L178,114L177,113L176,113L175,113L175,114L176,115L177,115L178,116L178,114L179,115L180,116L178,116L178,117L179,117L180,118L179,119L179,118L179,119L179,120L179,121L177,121L176,121L176,120L175,120L175,119L174,118L173,118L172,119L172,120L172,122L173,122L174,123L175,124L175,125L176,126L177,126L178,126L179,126L180,127L180,128L181,128L182,129L183,130L183,131L184,132L184,133L185,134L186,134L187,134Z M278,133L277,132L276,132L277,132L278,133Z M253,132L253,131L254,130L254,129L252,129L252,129L252,130L251,130L250,131L250,132L251,132L252,132Z M275,132L274,132L274,132L273,131L272,132L272,133L273,133L275,133Z M259,136L259,135L259,134L259,133L260,132L259,131L258,131L258,131L258,132L258,133L258,134L257,135L258,136Z M275,131L275,131L274,130L274,131Z M265,130L264,129L264,128L264,127L263,128L262,128L262,129L262,130L263,131Z M258,129L259,128L258,127L257,127L257,128L257,129L257,130Z M230,130L230,130L231,129L232,127L231,128L231,129Z M331,126L331,125L330,126L330,126Z M198,125L199,124L200,123L200,122L200,121L200,120L200,119L200,118L199,117L198,117L200,116L201,116L203,116L204,115L204,114L204,113L204,111L204,110L205,109L205,108L205,107L205,105L205,104L205,103L204,103L203,103L201,103L200,103L200,104L199,103L198,103L197,103L196,103L195,103L194,104L193,104L192,105L192,107L192,107L193,108L194,109L193,109L191,108L191,109L192,110L192,111L192,112L192,113L193,114L193,115L193,116L193,117L194,118L194,119L195,120L195,121L196,122L196,123L196,124L197,123L196,124L197,126Z M245,123L244,122L245,122L246,121L246,121L247,122L248,122L249,122L250,122L249,122L248,122L247,123L246,123Z M293,116L295,115L293,116L292,116L292,117Z M314,116L313,115L312,115L313,116Z M320,116L320,115L320,115L320,116L320,117Z M190,116L189,115L189,115L188,116L189,117L190,117Z M165,120L165,119L166,117L166,116L166,116L166,115L166,114L166,113L165,113L164,112L163,112L160,113L159,114L159,115L160,116L161,116L162,117L162,118L163,119L164,121Z M282,113L282,112L282,111L282,110L282,111L282,112Z M289,110L289,108L288,108L287,109L287,110Z M183,109L184,108L185,107L185,106L185,106L183,106L182,107L181,108L180,109L181,110Z M270,106L271,105L270,104L269,104L269,105L269,107Z M264,104L263,104L263,103L263,104L263,103L262,103L262,104L263,104Z M185,102L185,101L184,101L184,102Z M240,101L241,100L242,99L244,98L246,97L247,96L246,96L246,95L245,94L244,94L243,93L242,93L241,92L240,92L238,92L236,93L234,94L233,94L232,94L231,94L231,95L232,97L232,98L233,99L234,99L235,98L236,99L236,100L237,101L238,102L239,102Z M193,99L194,98L194,97L194,96L194,95L193,94L193,93L193,92L192,91L191,91L190,89L188,90L187,90L187,91L187,92L187,94L186,94L186,95L186,97L187,97L188,98L189,98L190,98L190,99L191,99Z M167,98L167,98L167,96L166,95L165,95L164,96L164,97L164,98L165,99L166,99Z M178,98L179,97L179,98L180,98L182,97L182,96L182,95L183,95L182,95L182,94L182,93L182,92L183,92L182,91L182,90L181,89L181,88L181,87L181,86L181,85L180,84L180,83L180,82L179,82L178,81L178,82L177,82L177,83L177,84L176,83L175,82L173,82L173,83L172,84L173,85L174,85L175,86L174,86L175,86L176,87L175,87L175,88L176,89L175,89L175,88L174,87L173,87L172,86L172,85L171,84L170,85L170,86L170,87L171,87L171,88L171,89L172,89L172,90L172,91L173,90L173,91L172,90L171,90L170,91L170,92L169,92L169,93L169,94L171,93L173,92L175,92L177,91L178,91L176,92L176,93L176,94L174,95L175,96L176,96L175,96L176,97L176,98Z M185,92L185,91L186,92L186,91L185,90L185,90L184,91L184,92L184,93Z M169,91L170,90L170,89L169,89L168,91L167,92Z M150,101L152,101L152,101L154,100L155,101L156,100L157,100L157,101L158,101L159,100L161,99L161,98L161,97L162,96L162,95L162,94L162,93L162,92L162,91L161,90L160,89L159,90L158,91L159,92L158,93L158,91L157,91L156,91L155,92L156,91L156,90L156,89L155,89L155,88L155,87L155,86L154,85L154,84L154,83L154,82L153,82L152,82L152,83L151,84L151,85L151,85L151,88L151,88L152,88L152,89L152,90L151,91L151,91L151,92L152,92L153,94L153,95L151,95L151,96L150,99L150,101Z M169,88L169,88L168,89L167,89L166,90Z M167,89L168,88L169,87L168,86L168,86L166,87L165,87L164,88L164,89L166,89Z M190,88L190,88L189,87L189,86L188,87L189,88Z M165,86L167,86L167,85L167,84L166,84L165,83L165,83L164,83L164,84L164,85L164,86Z M201,97L201,96L201,95L201,96L202,96L203,96L205,97L206,96L206,95L206,94L206,93L207,94L207,93L208,94L208,95L208,96L209,96L210,95L211,95L212,95L213,94L214,94L214,93L214,94L216,92L215,91L216,92L217,92L217,91L217,92L218,92L219,91L220,90L220,88L220,87L221,88L221,89L222,90L223,89L224,89L225,89L226,88L226,88L228,87L228,86L227,85L227,84L228,84L228,82L227,82L226,83L226,82L226,81L227,80L227,79L226,79L225,78L224,78L224,77L223,77L221,78L221,77L217,78L216,79L215,79L214,79L214,81L213,82L212,82L212,83L211,83L211,84L212,85L211,85L210,85L209,85L207,84L207,86L205,86L203,85L204,86L204,87L203,87L202,86L202,85L202,84L200,84L200,83L199,83L198,83L197,84L197,85L197,84L197,83L199,82L197,82L196,82L195,81L196,82L199,81L198,81L200,80L200,79L197,79L196,79L194,79L195,78L196,79L196,78L195,77L194,77L193,78L192,78L190,79L190,80L190,81L190,80L190,79L190,78L189,77L188,76L187,77L186,76L185,76L184,76L183,76L182,77L181,77L181,78L182,79L181,79L182,80L183,80L184,81L185,80L184,82L185,82L186,82L187,83L186,83L187,84L188,83L189,83L190,82L191,81L191,82L192,83L193,84L194,85L195,86L195,87L196,87L195,89L195,90L196,91L196,92L197,93L197,94L198,95L198,96L199,96L200,97Z M172,83L173,81L174,81L172,81L171,82L170,83Z M201,77L200,76L200,75L200,74L200,75L201,76L201,77L202,78L203,77L204,77L203,76L203,75L204,76L205,77L206,77L205,76L206,75L205,74L206,75L206,76L207,76L208,76L209,76L211,75L209,75L209,73L210,74L210,73L210,72L211,73L212,73L213,73L212,72L212,71L213,71L213,72L214,73L215,72L215,71L214,70L213,70L213,69L214,70L215,70L215,71L217,71L217,70L218,70L219,71L219,72L219,73L220,72L221,72L222,70L222,69L222,68L222,67L223,68L223,67L223,66L223,65L223,64L222,63L221,62L220,64L221,65L220,64L219,64L219,62L218,62L217,62L216,64L215,63L214,63L213,64L213,65L212,64L213,62L212,62L211,61L211,61L211,61L212,62L213,62L214,62L215,62L216,61L218,61L218,60L219,59L218,58L218,57L217,56L217,55L216,55L217,54L219,53L219,52L220,51L220,50L218,51L217,50L218,50L219,49L219,47L217,48L216,47L218,46L219,45L218,45L217,44L217,43L215,44L214,44L215,43L213,43L211,45L211,47L211,45L211,44L209,45L210,44L212,44L213,43L213,42L212,43L210,43L212,42L213,41L214,42L216,42L217,41L216,40L215,40L214,40L212,41L211,41L210,42L209,42L210,41L210,40L211,41L212,40L211,40L210,40L212,39L213,39L214,38L215,37L214,36L215,36L215,35L215,35L214,34L211,35L212,34L214,33L215,34L216,34L217,33L217,32L217,31L216,31L216,29L215,29L215,30L214,30L213,29L214,30L215,28L216,27L216,26L214,26L214,25L213,25L214,25L215,26L216,26L215,24L215,23L215,22L215,21L215,20L214,19L215,18L215,17L214,16L215,14L215,13L214,11L213,12L213,14L212,15L212,16L210,19L210,18L211,17L211,16L211,15L212,14L211,14L209,15L207,14L210,14L211,13L212,12L212,11L211,12L212,10L213,9L213,7L213,6L212,5L212,3L211,2L210,2L208,3L208,4L208,3L207,2L206,2L206,1L205,2L204,2L204,3L203,3L203,5L203,6L202,6L202,5L202,4L202,3L201,3L200,4L198,5L198,4L196,5L197,6L198,7L196,6L196,5L195,6L195,7L195,8L196,9L197,9L195,9L194,8L192,9L192,9L191,10L192,11L193,11L194,12L195,12L195,14L194,13L193,12L192,12L191,11L190,12L189,12L188,11L188,13L189,14L190,14L189,14L188,14L187,14L188,15L189,16L188,16L187,17L188,17L187,17L187,19L191,20L193,21L194,21L192,21L190,20L189,20L187,20L188,20L190,21L188,21L187,20L186,19L185,20L184,19L183,20L184,20L184,21L183,22L183,23L186,24L185,24L186,25L185,24L184,24L183,25L184,25L183,25L183,24L182,24L181,25L181,26L181,27L180,27L179,27L179,28L178,29L178,30L179,31L180,30L180,29L181,30L180,31L181,32L182,31L182,30L184,29L185,29L183,29L183,30L182,31L182,32L184,32L182,33L182,34L183,35L186,33L187,33L188,32L188,31L189,30L189,31L188,32L188,33L187,34L185,34L184,35L185,36L186,37L187,37L188,37L188,36L189,34L189,33L190,32L191,31L193,30L191,31L190,33L189,33L189,36L189,37L191,37L191,36L191,37L193,37L194,36L194,35L193,34L194,33L195,34L195,33L196,32L196,33L195,34L195,35L196,35L197,34L198,33L198,32L199,31L199,30L199,29L198,28L197,27L199,27L199,26L199,24L200,24L199,25L199,26L199,27L199,29L200,30L201,29L202,28L203,28L202,29L201,30L200,31L200,33L201,32L203,32L202,32L201,33L200,34L198,36L197,37L196,37L197,38L198,39L199,40L200,40L201,41L202,41L203,42L204,41L204,42L201,42L201,42L200,41L198,40L197,39L195,39L194,39L193,39L192,39L191,40L191,41L191,42L192,43L194,43L192,43L193,44L193,45L194,45L195,45L196,45L197,46L198,47L199,48L200,48L200,49L201,49L200,49L199,49L199,50L200,51L201,50L203,50L204,49L205,48L205,50L204,50L203,51L204,52L205,53L204,52L203,52L202,51L199,52L198,52L197,53L196,54L196,56L196,57L196,58L197,59L198,60L197,61L199,60L199,59L200,58L200,57L200,58L200,59L200,60L201,59L201,58L201,57L201,56L201,55L201,56L202,57L202,58L204,58L203,58L202,59L203,59L202,60L202,61L203,61L204,61L204,61L203,61L203,62L204,63L205,63L205,62L205,63L205,64L206,64L207,63L208,62L208,61L207,60L207,59L207,58L208,57L208,58L208,59L208,60L208,61L208,63L208,64L209,65L207,65L206,65L207,66L205,66L204,66L203,65L203,64L202,64L201,63L200,63L199,63L197,64L197,65L198,66L199,66L199,67L200,68L201,68L201,69L202,70L201,70L200,70L199,71L199,72L198,73L198,74L198,75L198,76L198,77L199,78L200,78L201,77L201,78Z M198,78L198,77L198,76L197,75L196,75L196,76L197,78Z M163,77L163,76L162,75L162,75L162,74L161,72L160,72L160,73L160,74L160,75L161,76L161,77L162,78L163,78Z M225,73L224,73L224,71L224,72L223,73L223,74L224,74Z M169,72L170,71L170,70L168,70L167,70L167,71L168,72Z M186,71L187,71L187,70L187,69L186,68L185,68L184,68L182,69L182,69L181,70L181,71L182,72Z M196,70L195,69L195,68L193,67L192,68L192,69L192,70L193,71L195,71Z M152,66L152,65L151,64L152,64L151,63L151,63L151,65L151,67L151,67L152,67Z M173,70L174,69L174,68L174,67L173,66L173,65L172,65L172,64L172,63L171,62L171,61L170,61L168,61L169,60L168,59L167,58L166,59L166,60L165,59L165,58L165,58L164,56L163,56L163,56L160,56L159,57L159,59L160,60L161,59L161,61L161,62L162,61L162,60L163,60L163,61L164,62L164,63L163,63L164,63L164,64L163,64L161,64L161,65L162,66L162,67L164,67L165,66L166,65L166,66L167,66L169,67L170,68L170,69L171,70L172,70Z M205,65L204,64L204,65L205,65Z M180,68L182,67L182,67L183,66L182,65L181,64L182,63L181,62L180,62L178,61L177,60L177,60L176,60L174,61L175,62L175,63L175,63L176,65L176,65L178,66L178,67L177,67L177,68L179,68L179,69Z M189,63L191,63L192,62L191,61L190,61L191,61L192,61L193,62L193,61L192,60L191,59L191,58L192,59L193,60L193,61L195,61L194,60L194,58L194,57L195,58L195,56L194,56L193,55L193,54L194,53L194,54L194,55L195,55L195,54L195,53L195,52L196,52L196,51L197,50L197,49L197,48L197,47L196,46L195,46L195,48L195,46L194,46L193,47L192,47L192,46L192,45L191,44L191,43L191,42L189,42L190,42L189,41L188,40L187,40L187,41L188,42L188,43L187,42L186,41L186,40L185,39L184,40L183,39L183,38L181,37L181,37L180,36L180,35L179,34L178,33L176,34L175,34L175,35L177,35L178,35L177,36L176,36L177,37L176,37L175,37L175,38L175,39L176,40L177,40L177,41L178,41L177,41L176,41L174,42L175,43L176,44L175,44L174,45L176,45L177,45L177,46L178,45L179,45L178,46L179,47L178,47L177,47L176,47L174,47L175,48L176,48L175,49L176,50L177,51L178,51L179,50L179,49L180,50L179,51L177,52L178,53L179,53L179,54L180,52L181,53L181,54L182,53L183,52L182,51L184,52L185,52L186,52L185,52L184,53L185,53L186,53L187,52L186,53L185,54L184,54L183,55L182,56L181,57L182,57L183,58L184,58L183,59L184,59L185,60L186,59L187,60L186,60L185,61L186,62L187,62L188,63Z M195,59L195,58L195,58L195,59L195,60Z M172,51L171,50L171,49L171,48L170,47L169,47L168,49L169,50L170,50L170,51Z " data-fips="CA10" data-hasc="CA.NU" data-name="Nunavut" data-postal="NU" data-varname=""/><path d="M154,252L157,252L159,252L162,251L164,251L167,251L169,251L172,251L174,251L177,251L179,250L182,250L185,250L187,250L189,245L189,241L188,237L188,233L187,228L187,223L186,217L185,212L185,211L185,210L185,208L185,207L184,207L182,207L180,206L178,206L176,206L173,206L171,206L168,205L165,205L163,205L161,204L158,204L156,203L155,203L154,203L153,203L152,202L151,201L150,200L149,199L148,198L147,197L147,196L145,196L144,196L143,196L142,196L141,196L140,196L138,195L137,194L136,193L135,193L133,191L131,189L130,187L128,186L125,184L123,182L121,180L119,177L117,176L116,174L114,172L112,170L112,169L111,169L110,168L110,167L110,166L110,164L110,163L110,161L111,160L111,158L111,156L112,154L112,151L112,151L112,151L109,148L108,148L107,148L106,147L105,147L104,148L104,149L103,150L102,151L101,151L100,151L99,151L99,150L100,149L100,148L100,147L100,147L100,146L100,145L101,144L101,143L100,143L98,143L98,144L99,144L100,144L99,145L98,145L97,146L98,146L98,147L97,146L96,147L96,147L96,148L95,149L96,149L96,150L95,150L94,149L94,149L93,147L92,145L92,144L92,143L92,142L92,140L92,139L91,138L91,137L90,136L89,137L89,138L90,139L90,139L89,139L88,140L87,141L87,141L86,142L85,143L84,143L84,142L85,142L85,141L84,141L82,141L81,142L80,142L79,142L78,143L78,144L77,145L76,145L75,146L76,145L76,144L77,143L76,144L76,143L76,142L76,143L76,142L76,143L75,144L75,144L76,144L75,143L75,143L74,142L74,143L72,144L71,144L70,145L69,145L69,146L68,147L69,147L69,148L68,147L66,147L67,148L66,147L66,146L67,146L68,144L69,145L69,144L70,143L71,144L72,143L73,142L74,141L75,142L76,142L77,141L77,142L78,142L79,141L80,141L81,140L82,140L83,139L84,138L83,138L82,138L81,138L81,137L80,137L79,138L78,139L77,139L77,138L75,139L74,139L73,139L72,139L73,140L72,139L71,139L70,140L69,141L68,141L67,141L66,141L65,141L65,141L66,140L67,139L66,138L66,137L65,138L65,139L64,138L63,138L62,138L62,139L61,138L61,138L62,139L62,139L62,139L62,139L61,139L61,138L60,139L60,139L60,140L59,139L59,140L59,141L58,141L58,142L59,143L59,144L59,145L59,144L58,143L57,142L56,141L56,142L55,143L55,144L55,145L54,146L54,146L53,147L53,149L52,151L51,152L51,153L51,154L51,155L51,156L50,157L50,158L49,159L50,159L51,160L52,160L53,161L54,161L55,162L57,162L58,163L56,163L57,164L57,165L57,166L57,167L56,168L56,169L55,169L56,170L55,171L55,172L55,173L56,173L57,173L58,174L59,174L59,175L58,176L59,177L59,178L58,179L57,180L56,180L56,181L55,182L55,183L56,184L55,185L55,186L55,187L56,188L56,189L57,190L56,191L57,191L58,190L59,191L59,192L59,193L59,194L59,195L59,196L60,197L60,198L61,199L60,200L61,200L61,201L61,202L60,203L60,204L60,205L60,206L61,207L60,208L60,209L60,210L60,211L60,212L61,212L60,213L60,214L60,215L60,216L61,217L62,217L63,218L63,219L63,220L64,221L64,222L64,223L65,224L66,224L67,225L67,226L67,227L67,228L67,229L67,230L67,231L67,232L67,233L68,233L69,233L70,232L71,233L72,232L72,233L73,234L74,234L76,234L77,234L77,233L78,234L78,235L77,236L78,237L78,238L79,239L79,240L79,241L79,242L79,243L80,244L82,244L84,245L87,245L89,246L92,246L94,247L96,247L99,247L102,248L105,248L108,249L111,249L114,249L117,250L121,250L124,250L127,251L130,251L133,251L136,251L140,251L143,251L146,252L149,252L152,252Z M126,151L125,150L125,149L126,149L129,149L131,149L133,150L135,150L137,150L139,150L140,150L140,151L141,152L142,151L141,150L143,150L145,150L146,150L148,150L149,150L150,150L150,148L150,147L150,146L150,143L150,141L150,139L150,136L150,135L150,134L150,132L150,130L150,129L150,127L150,126L150,126L149,125L148,125L148,124L147,125L147,126L147,127L146,127L146,126L146,127L145,127L145,126L146,125L146,124L147,123L146,122L145,122L144,121L143,120L142,120L141,120L140,121L139,122L140,123L139,124L139,123L138,123L137,124L136,123L137,123L137,122L138,121L138,120L138,119L138,118L138,117L138,116L137,116L136,116L135,117L134,117L133,118L132,118L131,119L130,119L128,120L127,121L126,122L125,122L124,123L124,125L125,125L125,126L124,126L123,127L122,128L121,130L121,131L122,131L123,132L124,132L124,132L126,132L125,133L123,134L124,135L125,135L126,134L127,135L128,135L129,134L130,134L131,134L132,134L134,134L133,135L132,134L130,135L131,136L130,136L128,136L127,136L126,137L125,137L122,138L123,140L124,141L124,142L125,143L126,143L128,143L130,143L131,144L132,143L134,143L135,143L137,143L138,143L139,143L140,144L141,145L142,145L143,146L144,146L144,147L143,148L142,147L141,148L140,148L139,147L138,147L136,147L134,147L132,147L131,147L129,147L127,147L125,148L124,148L124,150L124,151L125,152L126,152Z M150,121L150,120L150,120L148,121L149,122L150,123Z M109,134L110,134L111,133L112,133L113,133L114,133L115,132L116,132L117,130L117,129L117,128L118,127L119,126L119,125L120,125L121,124L122,123L122,123L123,122L124,121L125,120L126,119L127,119L129,118L130,117L131,116L133,116L134,115L135,114L135,113L134,112L133,111L132,110L131,108L130,106L128,106L127,106L126,106L126,107L125,108L125,107L125,106L124,106L123,107L124,105L122,105L120,103L120,102L119,101L119,101L118,102L116,102L114,101L113,102L111,102L110,102L110,103L110,104L110,105L110,106L111,107L111,108L110,109L110,110L109,111L108,111L108,112L107,113L107,114L107,115L107,116L105,116L105,117L105,118L105,119L104,119L103,120L103,121L102,122L101,123L102,124L103,125L103,125L104,126L106,128L106,130L106,131L107,134L107,135Z M143,106L144,105L146,105L147,104L148,103L149,102L149,102L150,101L150,99L151,96L151,95L149,94L148,94L147,95L147,94L147,93L147,91L145,91L146,90L145,90L144,89L144,88L143,87L142,87L141,87L141,86L141,85L140,84L139,85L137,85L136,86L137,87L138,87L139,88L138,88L137,87L136,87L134,88L135,89L134,90L135,90L136,90L138,91L136,91L133,91L132,93L135,93L136,93L137,93L136,93L135,94L134,94L132,94L131,96L131,97L133,98L134,97L134,98L135,99L136,99L136,98L137,98L137,99L137,100L139,99L139,97L139,96L140,97L140,96L141,96L141,97L141,98L140,99L141,99L143,99L143,98L144,97L144,98L144,99L146,98L147,98L148,98L147,99L147,99L146,100L144,100L143,100L142,100L141,101L140,101L139,102L138,103L139,104L140,105L141,106L142,106Z M123,90L123,89L123,88L123,89L123,90Z M130,92L131,91L131,90L132,89L132,88L132,87L131,88L130,89L129,90L128,91L127,92L128,93L129,93Z M126,89L127,88L127,87L127,86L127,85L128,85L128,86L128,87L129,86L130,85L130,85L130,83L131,83L131,82L131,81L132,81L132,82L132,84L131,85L132,85L133,86L134,86L134,85L134,84L135,83L136,83L137,82L136,81L136,80L137,79L136,78L137,77L138,77L139,76L138,75L137,74L137,74L136,74L135,75L135,76L134,76L133,75L132,75L131,75L130,75L129,76L129,77L128,78L127,79L127,80L125,80L124,81L124,82L123,83L122,83L121,83L120,83L120,84L120,85L120,86L120,87L121,86L122,87L123,88L124,87L124,86L124,86L124,86L125,87L125,88L124,90Z M151,85L151,85L151,85L150,86L150,87L151,88Z M143,82L142,81L141,81L140,81L139,82L140,82L142,83Z M148,76L149,75L151,74L151,73L150,72L149,72L149,71L151,69L149,69L148,69L147,69L146,70L144,71L144,71L144,72L144,73L144,75L145,75L145,76L146,76Z M143,71L142,70L142,69L141,69L140,70L140,71L141,72L142,72Z M148,66L149,67L151,67L151,65L151,63L151,63L150,62L150,62L149,63L148,64L147,64L146,64L145,65L144,66L144,67L145,67L147,67L148,67Z " data-fips="CA13" data-hasc="CA.NT" data-name="Northwest Territories" data-postal="NT" data-varname="Territoires du Nord-Ouest"/><path d="M79,243L79,242L79,241L79,240L79,239L78,238L78,237L77,236L78,235L78,234L77,233L77,234L76,234L74,234L73,234L72,233L72,232L71,233L70,232L69,233L68,233L67,233L67,232L67,231L67,230L67,229L67,228L67,227L67,226L67,225L66,224L65,224L64,223L64,222L64,221L63,220L63,219L63,218L62,217L61,217L60,216L60,215L60,214L60,213L61,212L60,212L60,211L60,210L60,209L60,208L61,207L60,206L60,205L60,204L60,203L61,202L61,201L61,200L60,200L61,199L60,198L60,197L59,196L59,195L59,194L59,193L59,192L59,191L58,190L57,191L56,191L57,190L56,189L56,188L55,187L55,186L55,185L56,184L55,183L55,182L56,181L56,180L57,180L58,179L59,178L59,177L58,176L59,175L59,174L58,174L57,173L56,173L55,173L55,172L55,171L56,170L55,169L56,169L56,168L57,167L57,166L57,165L57,164L56,163L58,163L57,162L55,162L54,161L53,161L52,160L51,160L50,159L49,159L50,158L50,157L51,156L51,155L51,154L51,153L51,152L52,151L53,149L53,147L54,146L54,146L55,145L55,144L55,143L56,142L56,141L55,141L55,140L54,140L53,139L52,137L52,136L52,135L51,135L51,133L50,132L50,131L49,130L48,129L47,129L45,128L45,127L44,129L44,130L43,131L42,132L41,134L41,135L40,136L39,138L39,139L38,140L37,142L36,143L36,144L35,145L34,147L34,148L33,149L32,151L31,152L31,153L30,155L29,156L29,157L28,159L27,160L26,161L26,163L25,164L24,165L24,166L23,168L22,169L21,170L21,172L20,173L19,174L19,176L18,177L17,178L17,180L16,181L15,182L14,184L14,185L13,186L12,188L12,189L11,190L10,191L10,193L9,194L8,195L8,197L7,198L6,199L5,201L5,202L4,203L3,205L3,206L2,207L1,209L1,210L0,211L2,213L4,215L6,214L9,216L7,218L7,219L9,220L12,221L14,222L16,223L18,224L20,225L22,226L25,227L27,227L29,228L31,229L34,230L36,231L38,232L40,233L43,233L45,234L47,235L49,236L52,236L54,237L56,238L59,238L61,239L63,240L66,240L68,241L70,242L73,242L75,243L77,243L80,244Z M51,131L51,131L51,130L50,131Z " data-fips="CA12" data-hasc="CA.YT" data-name="Yukon" data-postal="YT" data-varname="Yukon Territory|Territoire du Yukon|Yukon|Yukn"/><path d="M353,397L354,396L355,395L356,394L357,393L357,392L358,391L359,390L360,389L360,388L361,388L362,387L363,386L364,386L365,385L366,384L367,383L368,382L369,381L370,380L370,379L371,378L372,377L373,376L373,374L372,374L371,373L370,371L370,370L370,369L372,367L373,367L375,366L376,365L378,364L379,364L381,363L383,362L384,361L384,360L384,358L385,357L385,356L385,354L386,353L386,352L387,351L387,350L387,349L388,348L388,346L389,345L389,344L390,343L391,342L392,341L392,340L392,339L393,338L392,338L392,337L391,336L391,335L389,335L388,336L387,337L385,339L384,340L383,341L383,342L381,341L380,342L380,343L379,343L377,343L376,342L376,342L375,341L374,341L374,342L372,342L371,341L371,341L370,340L368,341L365,341L364,341L363,342L360,342L359,341L358,341L357,340L355,339L354,338L353,337L353,337L352,335L351,335L351,334L350,332L350,331L350,330L349,329L349,328L348,327L348,326L347,325L347,324L346,323L346,322L345,321L345,320L345,319L344,318L344,317L343,316L343,315L342,314L342,313L341,312L341,311L340,309L340,308L339,307L339,306L339,305L338,304L338,303L337,302L337,302L336,301L335,301L334,300L332,300L331,300L330,301L330,302L329,303L329,304L328,304L329,303L329,302L329,301L330,300L329,299L328,298L328,297L327,297L326,297L325,296L324,296L323,296L322,296L320,295L318,296L319,295L320,294L319,293L318,293L317,292L316,291L315,291L314,290L313,290L313,289L313,287L313,286L312,285L311,284L311,283L311,282L310,281L309,280L308,279L308,278L307,277L307,276L307,275L307,273L306,272L306,271L305,270L304,270L303,270L301,271L300,270L300,271L299,271L298,272L298,272L297,272L296,271L295,271L294,272L293,273L292,274L290,274L289,275L288,277L289,276L289,275L289,274L288,274L286,273L285,272L284,272L283,272L281,272L279,272L278,272L277,272L275,272L274,272L273,271L272,271L270,269L269,268L267,268L266,267L265,267L264,266L264,266L263,268L262,270L261,272L260,274L259,277L257,280L256,282L255,285L254,288L253,290L251,293L250,295L249,297L249,298L248,300L247,301L247,302L246,303L246,304L245,305L244,307L243,308L242,310L241,312L240,313L240,314L239,315L240,320L241,324L241,327L242,331L243,334L243,337L244,340L245,343L245,344L245,345L245,347L246,349L246,349L246,349L247,349L248,350L249,351L249,352L250,353L250,355L252,355L253,355L255,355L256,355L257,356L258,355L259,354L261,354L262,354L263,354L264,355L265,355L266,356L267,356L267,355L268,355L269,356L270,356L271,356L272,357L273,356L274,356L275,354L277,354L278,355L279,354L282,354L283,354L284,354L285,354L287,353L287,353L288,352L290,350L291,349L292,348L294,349L295,349L297,349L298,350L300,350L301,350L302,350L304,351L305,351L307,351L309,352L310,352L312,353L314,353L316,353L317,354L319,354L320,355L321,356L322,357L323,357L323,357L324,356L325,356L326,357L327,358L327,359L328,360L329,359L330,358L331,359L331,360L331,361L333,361L334,362L336,362L338,362L340,363L341,365L342,367L343,369L344,371L345,372L347,374L348,376L349,379L349,380L349,381L349,383L349,384L349,385L349,386L349,387L349,389L349,390L348,391L347,393L347,394L347,395L347,396L348,397L349,397L350,398L352,398Z M337,301L336,300L336,299L335,298L335,297L335,297L334,298L335,299L335,300L336,301L337,302Z " data-fips="CA08" data-hasc="CA.ON" data-name="Ontario" data-postal="ON" data-varname="Upper Canada"/><path d="M379,343L380,343L380,342L381,341L383,342L383,341L384,340L385,339L387,337L388,336L389,335L391,335L391,336L392,337L392,338L393,338L393,337L394,336L394,335L393,335L392,335L393,335L394,334L394,333L395,331L396,331L396,329L396,328L396,326L397,325L397,324L398,323L399,322L399,320L400,319L400,318L401,317L401,316L402,315L403,314L404,313L404,312L405,310L405,309L406,308L406,306L405,305L406,304L406,303L406,302L406,301L407,300L406,298L406,297L406,296L405,296L404,295L403,296L402,296L401,296L400,297L398,297L397,297L398,297L399,296L401,296L402,296L403,296L404,295L405,295L406,295L406,294L407,293L407,291L406,290L407,289L406,287L407,286L407,285L408,284L407,284L408,282L408,281L408,282L409,281L409,280L409,279L410,278L410,278L411,277L412,276L412,274L412,273L411,272L411,271L411,270L411,269L411,268L411,267L412,266L412,265L413,264L414,264L414,263L415,262L416,261L417,260L418,259L419,259L420,258L421,257L422,256L423,255L424,254L425,253L426,253L427,253L428,252L428,251L429,250L430,249L431,249L432,248L433,248L434,247L435,246L436,247L436,246L436,247L437,246L437,245L438,243L439,243L440,242L441,241L441,240L442,239L442,239L443,238L444,237L443,236L443,235L444,234L444,233L444,232L444,231L444,230L444,229L445,229L444,228L444,227L444,226L444,225L443,224L444,223L445,222L445,221L446,220L446,219L447,218L447,217L448,216L449,216L448,215L447,214L446,213L446,212L445,212L444,213L443,214L442,215L441,216L440,217L439,218L437,219L436,220L435,221L434,222L433,223L431,225L430,226L429,227L427,229L426,230L424,231L423,232L422,233L421,234L420,235L419,236L418,236L417,237L416,238L415,239L414,239L414,238L413,237L412,237L411,237L410,237L410,236L411,234L412,233L412,233L411,233L410,232L409,231L409,230L408,231L408,232L408,233L408,234L408,235L408,236L409,237L410,237L411,238L411,239L412,240L412,241L412,242L413,243L413,243L414,244L414,245L413,246L413,246L412,245L411,244L410,244L409,244L408,243L407,244L406,244L405,245L405,246L404,246L404,247L403,247L402,247L401,247L401,248L400,248L400,247L399,246L399,245L398,244L398,243L397,243L397,242L396,241L396,242L395,243L396,244L396,245L395,246L394,246L394,245L393,244L393,243L392,242L392,241L391,240L390,240L389,239L388,240L387,239L386,238L385,238L384,238L383,237L383,236L384,235L383,234L382,234L381,233L382,232L383,232L383,231L383,230L382,230L381,229L380,229L380,228L381,228L382,228L383,228L384,228L384,227L383,226L383,225L382,225L382,224L381,223L382,223L383,224L384,224L385,224L386,224L387,223L388,224L389,224L390,224L391,223L392,223L392,222L393,221L394,220L395,219L396,219L397,219L398,219L399,217L398,216L398,215L398,214L397,214L396,213L396,212L396,211L397,210L396,209L395,209L394,209L393,209L392,208L391,208L390,207L391,206L390,206L389,206L388,207L387,206L386,206L385,205L386,204L386,203L384,203L384,202L383,201L383,200L383,199L382,198L382,198L381,197L381,196L380,195L380,194L379,193L378,193L377,194L376,193L375,192L374,193L373,191L374,190L373,189L373,188L374,187L373,187L372,187L371,186L372,185L373,185L373,184L372,184L371,185L371,186L370,186L369,186L368,186L367,186L366,186L367,186L368,185L368,184L367,184L366,184L365,183L365,182L365,181L364,181L364,182L363,182L362,181L362,180L361,179L361,178L360,178L360,177L359,177L358,176L359,175L358,175L358,176L358,177L358,178L358,179L359,180L359,181L361,181L359,181L359,182L359,183L360,183L361,184L362,184L363,184L362,184L360,185L361,185L362,186L361,186L361,187L362,188L363,188L364,188L364,189L362,189L363,190L362,190L362,191L363,191L362,191L363,192L364,193L365,193L365,194L365,195L364,194L364,193L363,193L362,193L361,193L361,194L361,195L362,196L361,197L361,198L361,199L360,200L360,201L360,202L360,203L361,204L360,203L360,202L359,201L358,201L358,202L358,203L358,204L358,203L358,202L357,201L357,200L356,201L356,202L356,203L357,204L357,205L357,206L356,207L356,208L355,209L355,211L355,209L355,208L356,207L357,206L357,205L356,204L356,203L355,201L355,201L354,200L353,199L352,199L351,199L350,200L349,201L348,202L348,203L348,204L348,205L347,204L346,205L345,205L346,204L347,203L346,202L345,202L347,202L348,202L348,201L347,200L346,200L346,199L347,198L346,197L345,198L344,199L344,198L343,197L343,196L343,195L342,195L342,194L340,193L340,194L339,195L338,195L337,196L336,196L335,196L337,196L338,194L340,193L340,192L339,191L338,190L338,190L337,189L337,188L336,187L337,186L337,185L337,184L336,184L335,184L335,185L335,186L335,187L334,187L333,186L332,185L331,186L331,187L330,187L329,187L328,188L327,188L326,188L325,188L324,187L325,186L323,187L323,186L324,184L323,184L322,185L322,186L321,186L322,186L321,185L320,184L319,184L318,184L318,186L318,184L317,183L316,183L315,183L314,183L313,182L312,183L311,182L310,183L310,184L309,185L309,186L308,187L309,188L308,188L307,187L306,187L304,188L304,190L304,189L303,189L302,189L301,189L299,189L298,189L297,189L296,190L295,190L295,191L294,192L294,193L294,194L294,195L294,196L295,197L296,198L296,198L297,199L299,199L300,199L300,200L299,201L300,202L300,203L300,204L301,205L300,206L301,207L302,207L303,206L303,208L303,209L304,209L304,210L305,211L306,211L307,212L306,213L307,213L308,212L308,213L308,214L308,215L308,216L309,217L308,216L308,217L308,218L309,219L309,220L309,221L308,222L308,223L308,224L308,225L307,226L308,227L309,227L309,229L310,228L311,229L312,229L313,229L314,229L315,229L316,230L317,230L318,231L319,231L320,232L321,233L322,233L322,234L323,235L324,236L325,237L325,238L326,239L327,240L327,241L328,242L329,243L329,245L329,246L330,247L329,248L329,249L329,251L329,252L329,253L328,256L327,258L327,259L326,260L325,261L325,262L324,263L323,264L321,266L320,267L320,268L321,268L322,269L322,269L323,270L324,271L325,271L326,271L326,272L327,272L327,273L328,274L328,275L329,276L329,276L329,277L330,278L331,279L331,280L331,281L333,281L333,282L334,282L333,284L334,284L335,285L336,285L337,286L337,287L337,288L337,289L337,290L336,291L337,292L336,293L337,293L338,294L339,295L339,296L339,297L339,298L339,297L338,296L337,295L336,296L335,295L335,296L335,297L335,298L336,299L336,300L337,301L337,302L338,302L339,303L338,302L337,302L338,303L338,304L339,305L339,306L339,307L340,308L340,309L341,311L341,312L342,313L342,314L343,315L343,316L344,317L344,318L345,319L345,320L345,321L346,322L346,323L347,324L347,325L348,326L348,327L349,328L349,329L350,330L350,331L350,332L351,334L351,335L352,335L353,337L353,337L354,338L355,339L357,340L358,341L359,341L360,342L363,342L364,341L365,341L368,341L370,340L371,341L371,341L372,342L374,342L374,341L375,341L376,342L376,342L377,343Z M395,332L396,331L395,331L395,332L395,333Z M395,334L396,334L397,333L396,332L396,331L396,332L395,333L395,334L395,335Z M392,341L393,341L394,340L396,339L397,339L398,338L399,337L400,336L402,336L403,335L404,334L405,333L407,333L408,332L409,331L410,330L411,330L411,328L411,327L411,326L412,326L413,325L414,325L414,324L414,322L414,321L414,320L414,319L414,318L414,317L414,316L413,315L413,314L413,313L413,312L413,311L412,310L412,309L412,308L412,306L412,305L412,304L412,303L412,302L412,301L412,299L414,299L414,300L414,300L415,299L416,298L416,297L416,296L416,295L416,294L415,293L415,292L416,291L416,290L417,289L418,288L419,289L420,289L421,288L422,287L422,286L423,285L423,285L424,284L424,283L425,282L426,281L427,280L428,280L429,279L430,279L431,278L432,277L432,276L432,275L432,273L433,272L433,271L433,270L433,269L432,269L431,268L430,268L432,268L431,267L430,267L429,267L428,267L427,267L425,267L424,268L423,269L422,270L421,271L420,272L419,273L417,275L416,277L416,278L415,280L414,281L413,282L412,284L412,285L411,287L411,288L410,289L410,290L409,292L409,294L408,296L408,298L408,299L408,300L408,301L408,302L408,303L408,304L408,306L407,307L407,309L406,310L406,311L405,311L404,312L404,313L401,316L401,317L400,318L400,320L399,321L399,322L398,323L398,324L397,325L397,326L396,326L397,327L397,329L396,331L397,332L397,333L397,334L396,335L395,335L395,337L394,338L393,339L393,340L392,341Z M453,270L453,270L453,269L453,267L452,269L452,269L452,270L453,271Z M453,267L453,266L453,265L453,266L452,267Z M425,260L426,260L428,259L430,259L431,260L432,260L434,260L435,259L436,259L438,258L439,258L440,257L441,256L442,255L442,254L441,254L440,253L439,254L438,254L437,254L436,254L435,254L434,255L433,255L432,255L431,255L429,256L428,257L427,258L425,258L424,259L424,260Z M348,199L347,199L347,199L348,200L348,200Z " data-fips="CA10" data-hasc="CA.QC" data-name="Qubec" data-postal="QC" data-varname="Lower Canada"/><path d="M441,314L441,313L440,312L441,313L441,314Z M436,311L436,310L437,310L438,310L439,310L440,309L441,309L441,308L442,307L442,305L441,305L442,304L442,305L443,305L444,304L444,303L445,302L445,300L446,299L447,298L447,297L447,296L447,295L447,294L446,293L445,293L446,293L448,294L448,295L448,294L449,293L449,292L449,291L449,290L449,290L450,289L450,288L449,288L448,289L447,289L446,290L445,291L444,290L443,289L442,289L442,288L441,288L440,287L439,287L439,285L439,285L438,285L437,286L436,287L436,284L437,283L436,282L436,281L436,280L435,279L434,279L433,279L432,280L432,281L432,282L431,284L430,283L429,282L428,282L426,283L426,283L425,283L423,285L423,285L422,286L422,287L421,288L420,289L419,289L418,288L417,289L416,290L416,291L415,292L415,293L416,294L416,295L416,296L416,297L416,298L415,299L414,300L414,300L414,300L416,300L417,299L417,298L418,297L418,296L419,296L420,297L421,297L423,297L423,299L424,300L425,301L426,302L426,303L427,304L428,305L429,307L429,308L430,309L431,309L433,308L433,310L434,310L434,311Z M436,277L436,277L435,278L436,278Z " data-fips="CA04" data-hasc="CA.NB" data-name="New Brunswick" data-postal="NB" data-varname="Nouveau-Brunswick|Acadia"/><path d="M455,318L456,317L456,316L455,315L456,314L457,314L457,313L456,312L457,312L457,311L457,310L457,309L457,308L457,307L457,306L458,306L458,305L457,304L456,303L457,303L458,303L458,301L459,302L460,302L461,301L460,300L460,299L460,298L461,298L462,297L462,296L462,297L463,296L463,295L464,293L465,293L465,292L465,291L466,290L466,289L467,288L468,287L468,286L469,284L469,284L470,283L470,282L469,282L467,284L467,283L467,282L467,282L467,282L467,282L467,282L467,281L468,280L469,279L470,278L471,276L471,276L471,274L471,273L472,272L472,271L471,271L471,269L470,270L468,271L468,272L468,271L467,271L467,273L467,274L467,272L468,272L468,273L467,274L467,275L467,276L468,275L469,275L468,276L468,277L468,278L467,278L466,279L467,277L466,278L467,277L467,276L466,275L466,276L466,277L466,276L466,275L467,274L466,271L466,273L466,272L466,271L465,270L465,268L464,267L464,266L463,267L462,266L462,266L461,267L461,269L461,270L462,271L462,272L462,273L462,274L463,276L462,277L463,278L463,279L464,280L464,280L465,281L467,282L466,281L465,281L464,282L463,283L462,283L461,282L461,283L461,285L460,286L459,287L458,287L459,286L458,287L456,287L455,288L454,289L453,289L452,289L451,290L450,290L449,290L449,290L449,291L449,292L449,293L449,293L449,294L449,295L449,296L448,297L448,298L448,299L449,299L450,298L451,297L452,296L453,295L454,294L456,293L457,293L456,294L455,294L455,295L454,296L453,297L454,298L455,299L453,299L452,299L451,298L451,299L450,300L450,301L449,302L449,304L448,306L448,308L448,307L448,308L448,309L447,310L446,311L446,313L447,311L447,310L447,311L447,312L447,313L448,315L448,316L449,317L449,318L450,318L451,318L451,317L452,317L453,318L454,319Z M484,288L485,287L485,287L484,288L483,289Z M469,281L469,280L468,280L468,281Z " data-fips="CA07" data-hasc="CA.NS" data-name="Nova Scotia" data-postal="NS" data-varname="Acadia|Nouvelle-cosse"/><path d="M465,255L466,254L467,253L467,252L468,251L468,250L469,250L470,249L470,248L471,248L472,248L473,247L474,246L475,246L476,245L477,244L477,243L478,242L478,241L478,240L479,241L478,240L478,239L479,240L479,238L479,237L479,236L479,237L480,238L481,239L481,237L481,239L481,240L480,241L481,240L481,239L481,240L482,240L482,238L483,239L483,238L483,237L482,237L482,236L483,236L484,235L484,233L484,235L485,234L485,233L486,234L485,236L485,237L485,238L485,239L485,240L485,241L485,242L484,243L484,244L485,245L486,244L487,243L488,243L488,242L488,241L488,239L487,239L487,238L487,237L487,236L488,235L488,234L488,232L488,234L488,233L488,232L487,231L487,230L486,229L487,229L488,229L490,229L490,230L491,230L491,231L492,232L492,233L493,235L493,236L494,237L495,236L495,235L494,234L494,233L494,232L495,231L495,232L496,232L496,234L496,233L497,234L497,235L498,235L498,233L499,233L500,232L500,231L500,230L499,229L498,228L498,227L497,226L497,225L496,224L495,223L495,223L493,223L494,224L494,225L494,226L493,226L492,225L492,224L492,223L491,222L491,221L490,220L490,221L490,222L490,223L490,224L490,225L490,226L491,227L491,228L490,228L489,228L488,227L489,227L488,226L488,225L487,225L486,225L487,225L488,224L487,223L487,224L487,223L487,221L487,221L487,220L487,218L487,217L485,217L486,218L485,219L485,220L485,221L485,222L484,221L485,222L484,221L484,222L484,223L484,223L484,224L483,225L483,223L484,222L484,221L483,223L483,222L483,220L482,220L482,222L482,221L481,220L481,221L480,222L480,221L480,220L481,219L480,218L481,217L480,216L480,215L479,215L477,215L476,216L476,216L475,217L475,218L475,219L474,218L473,218L473,219L474,220L474,221L473,221L473,222L473,222L472,224L473,224L473,226L472,225L472,224L471,223L471,222L470,221L470,222L471,223L470,224L470,222L469,223L470,224L469,223L469,225L468,224L467,225L467,226L467,225L466,224L466,223L466,224L466,226L465,225L465,223L466,222L466,221L465,220L465,221L463,221L463,222L462,221L462,222L462,223L462,225L462,226L462,227L463,229L462,228L461,228L461,226L460,226L460,225L460,223L460,222L459,221L459,220L458,219L458,218L458,217L457,217L457,216L458,216L458,215L458,214L457,213L457,212L456,212L456,213L455,212L454,211L455,211L456,210L456,209L455,208L455,207L454,208L454,209L453,210L453,209L452,210L452,211L452,212L452,213L451,215L451,216L452,217L452,218L452,219L453,219L453,221L453,222L453,223L454,222L453,223L454,224L454,225L454,226L455,228L455,228L456,230L456,231L457,232L457,233L458,233L459,234L459,235L457,234L457,236L458,237L459,238L460,237L460,238L461,237L460,238L461,239L462,239L461,239L460,239L458,240L459,241L459,242L460,243L460,244L461,245L460,246L459,245L459,244L459,246L458,247L459,249L459,247L460,246L461,245L462,245L463,244L463,245L462,246L462,247L462,248L462,249L462,250L462,252L462,254L463,254L463,255L464,255Z M401,247L402,247L403,247L404,247L404,246L405,246L405,245L406,244L407,244L408,243L409,244L410,244L411,244L412,245L413,246L413,246L414,245L414,244L413,243L413,243L412,242L412,241L412,240L411,239L411,238L410,237L409,237L408,236L408,235L408,234L408,233L408,232L408,231L409,230L409,231L410,232L411,233L412,233L412,233L411,234L410,236L410,237L411,237L412,237L413,237L414,238L414,239L415,239L416,238L417,237L418,236L419,236L420,235L421,234L422,233L423,232L424,231L426,230L427,229L429,227L430,226L431,225L433,223L434,222L435,221L436,220L437,219L439,218L440,217L441,216L442,215L443,214L444,213L445,212L446,212L446,213L447,214L448,215L449,216L449,215L450,214L449,213L449,212L450,211L450,210L450,208L450,207L450,206L450,205L450,204L449,203L448,203L447,204L446,204L447,204L448,203L448,202L447,202L446,202L445,203L445,204L444,204L445,204L445,202L444,202L445,202L445,201L444,201L443,201L444,200L444,199L443,199L441,200L442,199L442,198L442,197L441,196L440,196L440,197L439,196L437,196L438,195L437,196L436,196L435,197L435,196L435,197L434,197L433,198L433,199L434,200L434,201L433,201L432,201L432,200L432,199L432,198L431,197L430,197L429,196L428,197L427,197L426,198L425,199L425,200L425,201L425,200L426,199L427,199L426,200L425,201L425,202L424,204L424,205L424,206L425,207L424,208L424,209L424,210L423,211L423,212L423,214L423,215L422,216L422,214L422,215L422,214L422,213L421,213L419,213L418,214L417,214L416,213L418,213L419,213L420,213L421,212L420,211L420,210L421,209L422,208L422,206L423,205L423,204L424,203L424,202L424,201L423,202L423,203L422,204L422,205L420,206L421,206L422,204L423,203L423,202L424,200L424,199L424,198L425,196L426,196L426,195L425,195L426,194L426,193L425,193L424,194L423,194L422,195L421,195L420,196L418,197L418,197L417,197L416,197L415,196L415,197L415,198L414,197L414,196L414,197L414,198L414,200L414,201L414,202L414,201L414,200L414,199L414,198L413,197L412,198L412,199L412,198L411,198L410,199L411,200L411,202L411,201L410,200L410,199L409,200L409,201L409,202L409,203L409,202L409,201L409,200L408,201L408,200L408,199L408,198L407,198L408,199L407,198L407,198L406,198L406,197L405,196L405,197L405,198L405,199L405,198L404,197L403,198L404,197L402,198L401,198L400,198L399,198L399,198L400,197L399,197L398,197L397,197L396,198L395,198L396,197L397,197L396,197L394,197L393,197L394,196L394,195L393,196L392,196L393,196L392,196L390,196L389,196L390,195L391,194L391,196L392,195L393,195L394,194L393,194L393,194L393,193L393,192L393,191L393,190L393,190L392,189L390,189L390,191L389,191L389,190L388,189L387,190L386,191L385,190L386,190L386,189L386,188L387,187L386,187L385,187L384,186L383,186L383,187L382,187L382,187L382,186L382,185L381,186L381,185L380,186L380,187L379,188L379,189L379,190L379,188L379,187L379,186L379,185L379,186L379,185L379,184L378,183L377,184L377,185L377,186L376,185L376,187L375,186L375,185L376,184L376,183L376,182L375,183L375,181L374,181L373,182L373,181L372,181L372,180L371,181L371,182L370,183L370,184L369,183L370,182L371,181L371,180L369,180L368,180L369,181L368,180L367,180L367,179L367,178L366,179L366,178L365,179L365,178L364,179L364,178L363,177L362,176L361,176L362,177L361,177L360,177L360,176L360,175L359,175L359,176L359,175L358,176L359,177L360,177L360,178L361,178L361,179L362,180L362,181L363,182L364,182L364,181L365,181L365,182L365,183L366,184L367,184L368,184L368,185L367,186L366,186L367,186L368,186L369,186L370,186L371,186L371,185L372,184L373,184L373,185L372,185L371,186L372,187L373,187L374,187L373,188L373,189L374,190L373,191L374,193L375,192L376,193L377,194L378,193L379,193L380,194L380,195L381,196L381,197L382,198L382,198L383,199L383,200L383,201L384,202L384,203L386,203L386,204L385,205L386,206L387,206L388,207L389,206L390,206L391,206L390,207L391,208L392,208L393,209L394,209L395,209L396,209L397,210L396,211L396,212L396,213L397,214L398,214L398,215L398,216L399,217L398,219L397,219L396,219L395,219L394,220L393,221L392,222L392,223L391,223L390,224L389,224L388,224L387,223L386,224L385,224L384,224L383,224L382,223L381,223L382,224L382,225L383,225L383,226L384,227L384,228L383,228L382,228L381,228L380,228L380,229L381,229L382,230L383,230L383,231L383,232L382,232L381,233L382,234L383,234L384,235L383,236L383,237L384,238L385,238L386,238L387,239L388,240L389,239L390,240L391,240L392,241L392,242L393,243L393,244L394,245L394,246L395,246L396,245L396,244L395,243L396,242L396,241L397,242L397,243L398,243L398,244L399,245L399,246L400,247L400,248L401,248Z M489,231L488,230L488,230L489,231L489,232Z M486,225L486,225L486,225L486,225L486,225L486,225Z M486,225L485,225L486,225L486,225Z M486,225L486,224L487,224L487,224Z M472,219L473,217L472,218L472,219L471,219L472,220Z M474,215L474,214L473,215L473,216L474,216Z M401,196L400,196L400,196L400,197Z M397,196L396,196L395,196L396,197Z M397,195L397,194L396,194L396,194L396,195Z M422,195L422,194L421,193L421,194L421,195Z M395,193L395,192L394,193L394,192L393,191L393,192L393,193L394,193Z M389,188L388,189L389,188L388,188L388,189Z M388,188L387,188L387,188L387,189Z M386,186L385,185L385,185L385,186Z " data-fips="CA05" data-hasc="CA.NF" data-name="Newfoundland and Labrador" data-postal="NL" data-varname="Newfoundland|Terre-Neuve|Terre-Neuve-et-Labrador"/><path d="M447,287L448,286L449,286L450,287L451,286L452,286L453,285L452,284L453,283L454,284L455,284L455,285L456,285L457,284L457,283L457,282L456,282L457,281L457,280L457,279L457,277L456,278L455,279L455,280L453,281L452,283L451,283L450,283L449,284L448,284L448,285L447,285L446,284L445,284L444,283L444,282L443,282L443,283L443,284L443,285L444,287L445,286L445,285L446,286L446,287Z " data-fips="CA09" data-hasc="CA.PE" data-name="Prince Edward Island" data-postal="PE" data-varname="le de Saint-Jean|le du Prince-douard"/></g></svg>