<?xml version="1.0" ?><!DOCTYPE svg  PUBLIC '-//W3C//DTD SVG 1.1//EN'  'http://www.w3.org/Graphics/SVG/1.1/DTD/svg11.dtd'><svg enable_background="new 0 0 500 401" height="401px" style="stroke-linejoin: round; stroke:#000; fill:#f6f3f0;" version="1.1" viewBox="0 0 500 401" width="500px" xmlns="http://www.w3.org/2000/svg" xmlns:xlink="http://www.w3.org/1999/xlink"><defs><style type="text/css"><![CDATA[path { fill-rule: evenodd; }
#context path { fill: #eee; stroke: #bbb; } ]]></style></defs><metadata><views><view h="401" padding="0" w="500"><proj id="laea" lat0="15.475" lon0="-61.356"/><bbox h="5.33" w="2.85" x="998.42" y="998.04"/><llbbox lat0="-90" lat1="90" lon0="-180" lon1="180"/></view></views></metadata><g id="admin1"><path d="M313,158L317,156L318,156L319,156L321,156L321,155L323,153L326,151L328,151L329,151L330,150L333,147L334,146L334,144L333,125L333,124L334,121L339,114L326,95L321,86L312,71L306,57L305,50L260,33L249,35L236,42L225,34L210,13L199,5L189,1L179,1L187,36L189,40L195,46L198,48L200,49L202,50L203,50L204,50L205,51L206,61L206,88L206,93L212,98L213,103L217,129L229,140L232,142L236,144L242,144L245,142L250,140L251,141L260,145L263,146L266,146L269,147L272,148L278,151L291,162Z " data-fips="DO02" data-hasc="DM.AN" data-name="Saint Andrew" data-postal="AN" data-varname=""/><path d="M311,287L315,285L352,278L351,249L357,215L352,213L349,210L344,209L351,183L349,149L341,116L339,114L334,121L333,124L333,125L334,144L334,146L333,147L330,150L329,151L328,151L326,151L323,153L321,155L321,156L319,156L318,156L317,156L313,158L281,211L287,227L301,276L304,279L304,280L304,281L305,283L305,285L306,287L306,288Z " data-fips="DO03" data-hasc="DM.DA" data-name="Saint David" data-postal="DA" data-varname=""/><path d="M273,332L282,325L291,321L294,318L297,316L308,297L307,295L306,288L306,287L305,285L305,283L304,281L304,280L304,279L301,276L250,285L250,287L248,293L247,295L246,296L244,296L243,296L240,296L238,296L228,296L228,301L231,312L242,325L247,335L246,339L246,345Z " data-fips="DO04" data-hasc="DM.GO" data-name="Saint George" data-postal="GO" data-varname=""/><path d="M212,98L206,93L206,88L206,61L205,51L204,50L203,50L202,50L200,49L198,48L195,46L189,40L187,36L179,1L161,0L161,0L151,40L143,50L150,51L161,55L167,56L163,65L148,76L143,82L143,91L148,96L151,93L152,92L154,93L156,92L161,94L165,94L166,94L213,103Z " data-fips="DO05" data-hasc="DM.JN" data-name="Saint John" data-postal="JN" data-varname=""/><path d="M251,225L281,211L291,162L278,151L272,148L269,147L266,146L263,146L260,145L251,141L250,140L245,142L242,144L236,144L232,142L229,140L217,129L201,131L195,134L194,135L193,137L188,143L173,155L174,156L178,165L180,174L183,182L204,202L206,210L208,225L218,222L229,222L244,225L248,226Z " data-fips="DO06" data-hasc="DM.JH" data-name="Saint Joseph" data-postal="JH" data-varname=""/><path d="M247,368L262,360L246,345L247,366L247,368Z " data-fips="DO07" data-hasc="DM.LU" data-name="Saint Luke" data-postal="LU" data-varname=""/><path d="M266,396L262,360L247,368L247,368L244,389L246,396L256,399Z " data-fips="DO08" data-hasc="DM.MA" data-name="Saint Mark" data-postal="MA" data-varname=""/><path d="M273,383L286,377L291,365L295,361L301,360L309,361L318,360L321,360L325,359L332,354L350,322L353,285L352,278L315,285L311,287L307,295L308,297L297,316L294,318L291,321L282,325L273,332L262,360L271,389Z " data-fips="DO09" data-hasc="DM.PK" data-name="Saint Patrick" data-postal="PK" data-varname=""/><path d="M243,296L244,296L246,296L247,295L248,293L250,287L250,285L287,227L281,211L251,225L248,226L244,225L229,222L218,222L208,225L208,227L210,234L223,261L227,278L228,296L238,296L240,296Z " data-fips="DO10" data-hasc="DM.PL" data-name="Saint Paul" data-postal="PL" data-varname=""/><path d="M188,143L193,137L194,135L195,134L201,131L217,129L166,94L165,94L161,94L156,92L154,93L152,92L151,93L148,96L152,100L156,107L156,130L158,141L164,146L169,149L173,155Z " data-fips="DO11" data-hasc="DM.PR" data-name="Saint Peter" data-postal="PR" data-varname=""/></g></svg>