<?xml version="1.0" ?><!DOCTYPE svg  PUBLIC '-//W3C//DTD SVG 1.1//EN'  'http://www.w3.org/Graphics/SVG/1.1/DTD/svg11.dtd'><svg enable_background="new 0 0 500 401" height="401px" style="stroke-linejoin: round; stroke:#000; fill:#f6f3f0;" version="1.1" viewBox="0 0 500 401" width="500px" xmlns="http://www.w3.org/2000/svg" xmlns:xlink="http://www.w3.org/1999/xlink"><defs><style type="text/css"><![CDATA[path { fill-rule: evenodd; }
#context path { fill: #eee; stroke: #bbb; } ]]></style></defs><metadata><views><view h="401" padding="0" w="500"><proj id="laea" lat0="19.015" lon0="-70.729"/><bbox h="29.5" w="43.06" x="985.01" y="988.61"/><llbbox lat0="-90" lat1="90" lon0="-180" lon1="180"/></view></views></metadata><g id="admin1"><path d="M138,157L142,157L145,158L149,159L149,156L148,153L152,151L157,149L165,145L172,139L174,135L177,135L180,136L180,132L181,127L179,123L175,122L171,120L172,117L176,116L182,112L190,110L192,108L194,107L194,103L193,100L194,97L196,94L198,91L190,86L186,79L184,73L176,69L176,78L170,78L167,75L164,73L160,72L155,75L153,80L150,80L146,78L146,81L147,83L149,84L151,86L151,89L150,94L153,96L153,98L147,98L141,96L140,98L139,99L137,100L135,99L131,98L127,95L125,98L125,101L127,102L128,103L123,105L118,108L116,108L113,107L111,109L109,111L107,113L105,115L104,120L104,124L104,127L107,129L107,134L111,141L117,144L119,145L120,147L121,151L123,153L129,157L135,159Z " data-fips="DR25" data-hasc="DO.ST" data-name="Santiago" data-postal="ST" data-varname=""/><path d="M107,134L107,129L104,127L104,124L104,120L105,115L107,113L109,111L111,109L113,107L116,108L118,108L123,105L128,103L127,102L125,101L125,98L127,95L117,94L110,85L108,86L104,86L100,83L97,84L94,85L90,85L86,84L83,82L82,84L79,90L77,96L77,99L76,102L74,111L68,114L69,117L71,120L77,123L81,129L87,132L93,135L99,138Z " data-fips="DR26" data-hasc="DO.SR" data-name="Santiago Rodrguez" data-postal="SR" data-varname="Santiago Rodrigu"/><path d="M139,99L140,98L141,96L147,98L153,98L153,96L150,94L151,89L151,86L149,84L147,83L146,81L146,78L150,80L153,80L155,75L150,70L145,67L141,64L135,62L131,61L128,59L124,56L119,55L118,59L117,63L117,68L117,73L114,72L113,76L114,81L117,94L127,95L131,98L135,99L137,100Z " data-fips="DR27" data-hasc="DO.VA" data-name="Valverde" data-postal="VA" data-varname=""/><path d="M93,218L96,217L100,217L104,217L110,215L121,216L125,211L127,210L130,209L129,207L128,205L130,203L130,201L129,196L134,195L135,197L137,198L139,196L140,194L140,186L141,179L142,176L146,173L148,172L148,169L151,167L152,164L151,161L149,159L145,158L142,157L138,157L135,159L129,157L123,153L121,151L120,147L119,145L117,144L111,141L99,138L93,135L92,139L92,144L88,147L82,147L78,145L74,144L71,149L69,155L67,160L63,161L59,161L56,164L53,171L51,179L54,182L52,189L55,191L58,193L59,197L59,200L61,203L65,204L67,208L71,215L78,216L84,219L90,220Z " data-fips="DR23" data-hasc="DO.JU" data-name="San Juan" data-postal="JU" data-varname="Benefactor|San Juan de la Maguana"/><path d="M338,243L339,238L331,237L325,231L327,227L330,224L330,220L330,216L328,217L329,214L326,211L321,212L319,213L316,214L308,217L302,224L300,220L298,217L297,214L295,212L292,208L288,205L285,205L282,205L280,205L279,206L278,207L278,208L272,211L265,210L261,208L257,207L254,202L250,207L254,213L253,216L252,220L254,225L256,230L260,232L262,235L263,238L264,239L267,239L270,239L272,242L272,245L273,246L274,245L276,245L277,239L273,235L274,231L277,229L279,231L281,234L283,234L286,233L290,234L290,238L293,238L314,240L315,240L316,241L319,246L321,246L323,246L324,246L325,244L324,243L324,241L325,240L327,240L330,242L337,247Z " data-fips="DR00" data-hasc="DO.SD" data-name="Santo Domingo" data-postal="SD" data-varname=""/><path d="M250,182L255,180L258,178L261,177L264,178L267,178L268,176L271,176L276,178L279,175L282,166L285,153L285,149L282,147L279,146L275,146L270,146L267,145L264,143L261,142L257,141L251,141L245,141L242,141L239,141L237,140L235,142L235,142L232,143L229,145L223,148L221,156L222,159L223,163L227,164L228,166L228,168L230,171L233,173L239,177L243,183Z " data-fips="DR21" data-hasc="DO.SZ" data-name="Snchez Ramrez" data-postal="SZ" data-varname=""/><path d="M397,244L395,240L393,239L392,237L394,233L396,229L397,226L398,222L394,222L390,223L386,220L383,216L380,216L378,216L376,215L370,217L368,222L365,226L361,230L359,226L357,221L354,216L351,212L350,206L349,200L346,195L346,190L338,199L329,214L328,217L330,216L330,220L330,224L327,227L325,231L331,237L339,238L338,243L337,247L338,247L341,247L346,245L363,243L366,241L369,242L372,242L374,241L377,240L380,241L384,245L386,245L389,246L395,248L398,248Z " data-fips="DR24" data-hasc="DO.PM" data-name="San Pedro de Macors" data-postal="PM" data-varname=""/><path d="M110,85L114,81L113,76L114,72L117,73L117,68L117,63L118,59L119,55L115,53L111,52L109,48L108,43L107,43L101,43L99,42L97,40L93,41L89,40L77,34L73,32L70,32L55,33L54,35L53,35L51,34L50,34L48,34L48,35L48,37L49,39L47,40L46,41L45,41L43,42L42,42L40,45L38,45L37,45L35,47L34,50L34,51L38,51L38,52L37,54L40,59L40,62L38,61L35,60L33,60L34,62L36,64L37,67L37,69L38,70L51,75L66,74L69,75L71,78L76,82L82,84L83,82L86,84L90,85L94,85L97,84L100,83L104,86L108,86Z " data-fips="DR15" data-hasc="DO.MC" data-name="Monte Cristi" data-postal="MC" data-varname=""/><path d="M202,82L203,74L204,71L206,69L208,69L209,70L212,69L214,69L216,69L219,68L221,64L222,60L214,51L209,50L207,50L205,51L204,52L202,54L194,54L188,53L183,51L178,48L173,44L171,43L166,43L167,42L166,40L160,33L159,32L157,32L153,33L151,33L145,33L146,35L145,35L142,34L143,32L142,30L140,29L137,28L135,29L131,31L129,31L127,32L124,37L123,38L121,38L119,39L117,39L115,38L116,40L117,40L116,42L115,42L114,43L113,39L112,38L110,39L109,40L109,41L109,43L108,43L109,48L111,52L115,53L119,55L124,56L128,59L131,61L135,62L141,64L145,67L150,70L160,72L164,73L167,75L170,78L176,78L176,69L184,73L186,79L190,86Z " data-fips="DR18" data-hasc="DO.PP" data-name="Puerto Plata" data-postal="PP" data-varname=""/><path d="M49,131L51,129L54,127L57,126L58,124L60,122L63,123L66,124L69,122L71,120L69,117L68,114L74,111L76,102L77,99L77,96L79,90L82,84L76,82L71,78L69,75L66,74L51,75L38,70L37,69L36,73L37,76L41,85L42,96L42,103L41,106L40,107L38,111L37,112L35,113L33,114L32,115L33,118L36,122L40,127L49,131Z " data-fips="DR04" data-hasc="DO.DA" data-name="Dajabn" data-postal="DA" data-varname="Libertador"/><path d="M212,109L213,100L213,91L217,85L220,86L222,87L224,91L227,89L230,85L234,82L237,86L242,91L244,87L245,83L248,83L251,83L257,80L260,71L259,72L258,73L257,73L255,73L246,72L241,70L235,69L232,68L229,67L227,65L222,60L221,64L219,68L216,69L214,69L212,69L209,70L208,69L206,69L204,71L203,74L202,82L198,91L196,94L194,97L193,100L194,103L194,107L192,108L190,110L193,112L197,113L200,111L203,111L206,118Z " data-fips="DR08" data-hasc="DO.ES" data-name="Espaillat" data-postal="ES" data-varname=""/><path d="M224,124L225,118L227,111L229,105L235,103L239,99L240,95L237,86L234,82L230,85L227,89L224,91L222,87L220,86L217,85L213,91L213,100L212,109L211,122L214,126L218,130L223,130Z " data-fips="" data-hasc="" data-name="Hermanas" data-postal="" data-varname=""/><path d="M110,257L110,253L113,249L115,247L117,246L119,244L121,242L125,240L129,238L131,234L133,231L138,233L138,230L135,228L130,227L122,224L110,215L104,217L100,217L96,217L93,218L90,220L84,219L78,216L71,215L60,214L56,215L55,217L55,218L54,222L53,225L57,237L71,243L76,245L81,248L86,249L91,247L98,248L101,255L105,258Z " data-fips="DR02" data-hasc="DO.BR" data-name="Bahoruco" data-postal="BR" data-varname="Baoruco"/><path d="M101,325L102,324L104,322L105,321L108,319L109,319L110,317L111,314L124,295L126,290L129,286L129,284L128,282L126,275L125,273L124,272L123,271L123,269L123,268L125,266L125,264L126,262L128,261L131,261L137,263L138,263L139,264L140,266L141,267L142,268L144,265L143,260L142,257L143,255L139,254L134,253L133,252L131,251L131,250L130,248L134,244L137,241L137,236L133,231L131,234L129,238L125,240L121,242L119,244L117,246L115,247L113,249L110,253L110,257L105,263L98,265L91,263L85,264L87,272L89,280L86,281L83,280L80,282L80,286L84,289L84,295L84,297L84,300L83,301L82,302L80,302L79,304L82,311L89,316L92,316L97,316L99,321L99,327L100,327L101,328Z " data-fips="DR03" data-hasc="DO.BH" data-name="Barahona" data-postal="BH" data-varname=""/><path d="M80,282L83,280L86,281L89,280L87,272L85,264L91,263L98,265L105,263L110,257L105,258L101,255L98,248L91,247L86,249L81,248L76,245L71,243L57,237L53,225L54,222L55,218L55,217L56,215L60,214L56,211L47,210L38,208L31,207L29,208L27,210L25,215L23,217L18,219L13,218L7,217L2,218L0,219L1,222L13,235L14,236L15,238L14,239L13,239L12,241L13,244L15,245L18,245L20,246L22,247L24,250L25,252L30,255L37,258L39,259L41,261L39,264L39,264L51,270L62,276L67,277L72,279L76,283L80,286Z " data-fips="DR" data-hasc="DO.IN" data-name="Independencia" data-postal="IN" data-varname=""/><path d="M67,208L65,204L61,203L59,200L59,197L58,193L55,191L52,189L54,182L51,179L53,171L56,164L59,161L63,161L67,160L69,155L71,149L74,144L78,145L82,147L88,147L92,144L92,139L93,135L87,132L81,129L77,123L71,120L69,122L66,124L63,123L60,122L58,124L57,126L54,127L51,129L49,131L49,131L51,132L50,140L49,143L48,145L43,149L41,151L37,156L31,163L29,164L22,166L20,167L20,170L23,169L26,168L28,168L29,168L31,169L32,173L34,175L37,178L38,179L39,182L39,187L40,193L39,196L39,198L38,200L38,201L36,204L34,205L31,207L38,208L47,210L56,211Z " data-fips="DR11" data-hasc="DO.EP" data-name="La Estrelleta" data-postal="EP" data-varname="Elas Pia|San Rafael"/><path d="M68,370L71,366L73,366L70,362L68,361L66,360L64,363L63,366L63,369L65,371Z M86,354L87,352L92,338L93,336L94,335L95,331L96,331L97,331L98,330L98,328L99,327L99,321L97,316L92,316L89,316L82,311L79,304L80,302L82,302L83,301L84,300L84,297L84,295L84,289L80,286L76,283L72,279L67,277L62,276L51,270L39,264L39,264L33,274L32,277L31,279L31,281L33,285L33,286L33,289L33,293L33,296L31,300L39,303L44,307L46,310L47,312L46,318L47,320L48,322L50,327L51,329L51,332L50,334L46,338L44,339L49,340L60,339L65,341L67,343L76,359L78,361L79,362L80,362Z " data-fips="DR16" data-hasc="DO.PN" data-name="Pedernales" data-postal="PN" data-varname=""/><path d="M146,268L148,267L153,263L154,262L155,261L156,259L158,257L160,257L161,257L163,255L164,255L165,255L168,256L170,256L171,256L172,255L176,251L177,250L176,247L177,244L180,243L184,244L186,244L190,246L191,247L194,251L195,252L196,255L195,258L195,261L194,262L193,262L192,263L192,264L193,266L194,267L202,265L207,260L207,256L208,252L209,249L208,247L205,241L202,236L198,234L193,231L190,230L188,227L187,225L185,224L182,217L180,201L175,194L166,190L161,182L159,169L152,164L151,167L148,169L148,172L146,173L142,176L141,179L140,186L140,194L139,196L137,198L135,197L134,195L129,196L130,201L130,203L128,205L129,207L130,209L127,210L125,211L121,216L122,224L130,227L135,228L138,230L138,233L137,236L137,241L134,244L130,248L131,250L131,251L133,252L134,253L139,254L143,255L142,257L143,260L144,265L142,268L143,269Z " data-fips="DR01" data-hasc="DO.AZ" data-name="Azua" data-postal="AZ" data-varname=""/><path d="M192,207L195,204L199,199L201,193L193,184L194,174L202,167L202,157L205,152L211,150L213,148L215,147L219,148L223,148L229,145L232,143L235,142L235,142L228,137L223,130L218,130L214,126L211,122L206,118L203,111L200,111L197,113L193,112L190,110L182,112L176,116L172,117L171,120L175,122L179,123L181,127L180,132L180,136L177,135L174,135L172,139L165,145L157,149L152,151L148,153L149,156L149,159L151,161L152,164L159,169L161,182L166,190L175,194L180,201L184,209L190,209Z " data-fips="DR30" data-hasc="DO.VE" data-name="La Vega" data-postal="VE" data-varname=""/><path d="M232,197L234,193L239,191L240,186L243,183L239,177L233,173L230,171L228,168L228,166L227,164L223,163L222,159L221,156L219,148L215,147L213,148L211,150L205,152L202,157L202,167L194,174L193,184L201,193L206,196L212,200L215,200L218,199L222,200L231,203Z " data-fips="DR31" data-hasc="DO.MN" data-name="Monseor Nouel" data-postal="MN" data-varname="Monsenor Novel"/><path d="M211,276L216,273L219,272L237,272L239,272L242,274L243,273L246,272L249,272L248,269L247,266L246,265L244,263L243,261L242,259L239,256L237,253L237,249L241,247L241,244L237,242L231,237L225,234L222,237L218,239L212,241L208,247L209,249L208,252L207,256L207,260L202,265L194,267L195,267L196,269L197,269L198,270L199,272L198,273L197,274L196,275L196,276L198,277L207,277Z " data-fips="DR35" data-hasc="DO.PV" data-name="Peravia" data-postal="PV" data-varname="Jos Trujillo Valdez"/><path d="M212,241L218,239L222,237L225,234L223,229L222,225L223,220L223,215L223,208L222,200L218,199L215,200L212,200L206,196L201,193L199,199L195,204L192,207L190,209L184,209L182,217L185,224L187,225L188,227L190,230L193,231L198,234L202,236L205,241L208,247Z " data-fips="DR00" data-hasc="DO.JO" data-name="San Jos de Ocoa" data-postal="JO" data-varname="Jos Trujillo Valdez"/><path d="M289,154L289,152L290,150L297,149L308,147L309,143L311,140L313,139L316,136L316,133L308,131L302,134L292,132L283,128L274,126L267,120L265,117L261,116L257,113L255,107L254,102L253,97L248,94L242,91L240,95L239,99L235,103L229,105L227,111L225,118L224,124L223,130L228,137L235,142L237,140L239,141L242,141L245,141L251,141L257,141L261,142L264,143L267,145L270,146L275,146L279,146L282,147L285,149L285,153L287,157Z " data-fips="DR06" data-hasc="DO.DU" data-name="Duarte" data-postal="DU" data-varname=""/><path d="M365,226L368,222L370,217L376,208L378,203L379,196L377,191L369,183L364,173L372,171L383,174L379,167L380,159L367,155L362,155L360,154L358,153L356,148L353,146L351,146L344,147L346,148L347,148L348,149L349,149L345,150L339,147L336,148L333,148L326,149L324,148L324,149L324,152L324,157L322,161L328,166L336,170L343,174L349,177L354,178L357,180L354,182L352,184L349,187L346,190L346,195L349,200L350,206L351,212L354,216L357,221L359,226L361,230Z " data-fips="DR29" data-hasc="DO.HM" data-name="Hato Mayor" data-postal="HM" data-varname="Hato Major"/><path d="M308,217L316,214L319,213L321,212L326,211L338,199L346,190L349,187L352,184L354,182L357,180L354,178L349,177L343,174L336,170L328,166L322,161L318,158L314,156L310,153L297,149L290,150L289,152L289,154L287,157L282,166L279,175L276,178L271,176L268,176L267,178L264,178L261,177L258,178L255,180L250,182L243,183L240,186L239,191L241,194L243,197L247,199L254,202L257,207L261,208L265,210L272,211L278,208L278,207L279,206L280,205L282,205L285,205L288,205L292,208L295,212L297,214L298,217L300,220L302,224Z " data-fips="DR32" data-hasc="DO.MP" data-name="Monte Plata" data-postal="MP" data-varname=""/><path d="M301,131L302,127L303,123L304,119L299,115L290,101L290,99L289,96L289,90L288,87L285,86L288,78L288,75L286,71L282,66L280,65L278,65L274,65L267,65L264,66L260,71L257,80L251,83L248,83L245,83L244,87L248,94L253,97L254,102L255,107L257,113L261,116L265,117L267,120L274,126L283,128L292,132L302,134Z " data-fips="DR14" data-hasc="DO.MT" data-name="Mara Trinidad Snchez" data-postal="MT" data-varname="Maria Trinidad S|Trinidad Snchez Nagua"/><path d="M324,157L324,152L324,149L324,148L323,147L322,144L323,139L324,132L324,130L326,129L344,131L349,134L351,135L363,134L374,135L377,135L379,133L381,131L381,128L382,126L385,123L386,121L386,118L383,119L380,120L377,120L375,119L376,115L377,111L377,110L373,111L366,114L364,117L363,120L360,118L352,115L351,116L349,116L349,114L347,114L346,114L342,115L341,115L338,113L336,113L335,113L331,116L328,117L325,118L319,118L317,119L311,121L309,121L304,119L303,123L302,127L301,131L302,134L308,131L316,133L316,136L313,139L311,140L309,143L308,147L310,153L314,156L318,158L322,161Z " data-fips="DR20" data-hasc="DO.SM" data-name="Saman" data-postal="SM" data-varname=""/><path d="M252,271L255,267L260,263L260,261L261,260L264,259L265,257L266,253L268,249L271,247L273,246L272,245L272,242L270,239L267,239L264,239L263,238L262,235L260,232L256,230L254,225L252,220L253,216L254,213L250,207L247,199L243,197L241,194L239,191L234,193L232,197L231,203L223,208L223,215L223,220L222,225L223,229L225,234L231,237L237,242L241,244L241,247L237,249L237,253L239,256L242,259L243,261L244,263L246,265L247,266L248,269L249,272L250,273Z " data-fips="DR33" data-hasc="DO.CR" data-name="San Cristbal" data-postal="CR" data-varname="Trujillo"/><path d="M278,244L279,243L283,241L287,239L290,238L290,234L286,233L283,234L281,234L279,231L277,229L274,231L273,235L277,239L276,245Z " data-fips="DR34" data-hasc="DO.NC" data-name="Distrito Nacional" data-postal="NC" data-varname=""/><path d="M403,225L408,218L412,212L418,209L416,206L417,203L420,201L424,201L431,195L433,187L429,180L430,174L431,172L431,170L435,167L437,164L437,164L436,163L433,163L428,162L425,161L424,160L422,158L419,157L416,157L412,157L411,157L409,159L408,159L406,160L407,161L406,162L403,163L401,165L400,163L398,162L396,162L394,161L391,156L389,154L387,155L387,156L389,157L389,158L387,160L385,160L380,159L379,167L383,174L372,171L364,173L369,183L377,191L379,196L378,203L376,208L376,215L378,216L380,216L383,216L386,220L390,223L394,222L398,222L397,226L396,229Z " data-fips="DR28" data-hasc="DO.SE" data-name="El Seybo" data-postal="SE" data-varname="El Seibo"/><path d="M468,288L467,285L465,282L464,280L462,280L455,280L449,279L447,279L445,277L443,276L440,276L438,276L440,280L442,284L445,287L450,288L452,288L457,286L459,286L461,286L466,288L468,289Z M456,274L457,273L458,272L460,264L461,261L463,259L464,256L463,253L463,251L465,249L467,250L472,253L475,254L478,254L481,254L483,253L485,250L485,249L485,244L485,242L486,241L487,241L499,221L500,215L496,210L488,205L482,199L481,199L480,198L474,194L465,188L460,181L444,166L442,166L440,166L439,165L437,164L435,167L431,170L431,172L430,174L429,180L433,187L431,195L424,201L420,201L417,203L416,206L418,209L420,214L423,219L426,222L429,226L429,230L427,234L425,241L423,247L425,248L430,251L434,255L438,262L442,269L442,274L444,275Z " data-fips="DR10" data-hasc="DO.AL" data-name="La Altagracia" data-postal="AL" data-varname=""/><path d="M407,248L414,245L420,246L423,247L425,241L427,234L429,230L429,226L426,222L423,219L420,214L418,209L412,212L408,218L403,225L396,229L394,233L392,237L393,239L395,240L397,244L398,248Z " data-fips="DR12" data-hasc="DO.RO" data-name="La Romana" data-postal="RO" data-varname=""/></g></svg>