<?xml version="1.0" ?><!DOCTYPE svg  PUBLIC '-//W3C//DTD SVG 1.1//EN'  'http://www.w3.org/Graphics/SVG/1.1/DTD/svg11.dtd'><svg enable_background="new 0 0 500 401" height="401px" style="stroke-linejoin: round; stroke:#000; fill:#f6f3f0;" version="1.1" viewBox="0 0 500 401" width="500px" xmlns="http://www.w3.org/2000/svg" xmlns:xlink="http://www.w3.org/1999/xlink"><defs><style type="text/css"><![CDATA[path { fill-rule: evenodd; }
#context path { fill: #eee; stroke: #bbb; } ]]></style></defs><metadata><views><view h="401" padding="0" w="500"><proj id="laea" lat0="15.256" lon0="-90.398"/><bbox h="50.21" w="47.93" x="977.92" y="968.38"/><llbbox lat0="-90" lat1="90" lon0="-180" lon1="180"/></view></views></metadata><g id="admin1"><path d="M244,287L244,286L246,281L261,270L269,265L273,262L279,255L280,252L280,251L280,250L279,249L277,248L272,249L269,250L265,250L255,249L250,247L248,248L248,249L247,252L246,254L245,255L243,256L242,255L237,251L235,251L233,251L229,251L227,251L225,251L221,256L218,256L207,255L191,251L190,262L197,271L206,277L205,279L208,281L209,282L209,283L214,287L215,287L217,288L218,287L219,288L222,287L224,286L226,285L227,286L228,287L229,287L231,286L232,285L234,285L236,287L239,288Z " data-fips="GT02" data-hasc="GT.BV" data-name="Baja Verapaz" data-postal="BV" data-varname=""/><path d="M133,260L133,257L134,256L135,254L137,253L141,253L142,251L145,250L146,250L149,249L153,248L156,248L160,248L161,248L161,246L160,244L161,240L161,238L158,237L157,237L153,237L151,235L150,234L150,232L150,231L147,228L147,227L147,225L147,224L148,224L148,221L148,220L149,218L150,216L151,216L152,215L154,215L157,212L158,212L158,211L160,209L166,196L167,194L179,171L110,171L108,172L107,174L80,220L74,231L74,233L76,235L77,236L77,237L78,247L79,248L84,248L88,245L89,244L92,244L95,242L97,241L99,241L102,243L104,243L109,242L110,242L111,243L112,246L114,248L115,250L117,251L118,252L119,253L120,254L127,257L127,259L132,261Z " data-fips="GT08" data-hasc="GT.HU" data-name="Huehuetenango" data-postal="HU" data-varname=""/><path d="M321,192L323,192L326,193L327,192L329,192L331,190L331,189L332,188L333,187L342,186L345,187L346,141L349,52L350,6L350,0L182,0L180,1L180,1L179,55L137,55L137,57L139,58L142,58L144,59L144,61L146,62L149,61L151,61L152,62L153,64L154,66L154,68L156,68L157,70L158,71L158,72L159,74L162,77L163,78L166,77L167,78L168,81L171,85L172,86L172,88L173,89L177,91L179,92L180,91L180,90L181,90L183,91L181,92L183,93L186,96L188,97L194,99L195,99L196,98L197,100L197,101L199,102L202,104L203,105L210,114L211,118L210,121L211,120L211,119L213,120L212,122L212,123L212,125L212,127L214,127L215,127L214,129L213,130L213,131L214,131L215,131L217,131L218,131L221,130L222,132L222,133L224,132L226,132L227,134L227,135L228,136L231,136L232,137L233,138L234,137L235,137L235,139L236,140L237,142L235,142L234,142L233,142L233,144L234,143L235,144L234,146L233,147L231,148L231,149L233,149L233,150L231,150L231,151L232,152L230,152L229,154L230,155L231,155L230,156L229,157L229,158L229,160L232,161L232,162L230,164L231,165L229,167L230,168L231,169L230,170L230,170L233,170L252,173L269,178L270,177L271,177L272,178L273,178L274,179L275,178L275,177L276,178L277,179L277,180L278,181L280,181L282,182L283,182L284,183L285,185L285,186L286,187L287,187L289,187L292,187L293,186L294,185L295,185L297,185L299,186L301,187L303,189L304,189L305,189L306,189L308,188L314,189L315,188L316,188L317,188L318,188L319,194Z " data-fips="GT12" data-hasc="GT.PE" data-name="Petn" data-postal="PE" data-varname=""/><path d="M93,324L97,323L100,318L101,317L101,316L101,315L102,313L104,310L104,309L105,307L106,306L109,304L110,303L111,302L112,302L113,302L113,303L112,307L112,309L113,309L115,309L116,308L117,308L118,308L119,307L119,306L120,305L121,305L122,305L123,305L124,305L127,304L128,304L133,302L136,298L137,294L135,291L134,290L134,287L133,285L131,285L129,285L129,285L127,282L127,281L127,280L126,278L125,277L125,276L122,267L122,264L122,263L127,261L127,259L127,257L120,254L119,257L115,260L114,261L112,264L111,267L112,270L114,271L114,273L114,277L113,278L112,279L109,282L108,283L108,285L107,286L106,290L105,291L103,297L102,298L101,299L100,299L99,302L98,302L96,303L94,302L88,302L79,304L77,304L76,305L74,307L70,311L70,312L72,312L77,313L78,313L79,315L81,322L82,321L83,321L89,324L90,324Z " data-fips="GT13" data-hasc="GT.QZ" data-name="Quezaltenango" data-postal="QZ" data-varname=""/><path d="M114,358L117,353L118,350L118,347L119,343L120,342L121,341L120,339L121,332L120,330L119,328L120,323L120,321L124,313L124,312L124,310L124,309L127,307L128,304L127,304L124,305L123,305L122,305L121,305L120,305L119,306L119,307L118,308L117,308L116,308L115,309L113,309L112,309L112,307L113,303L113,302L112,302L111,302L110,303L109,304L106,306L105,307L104,309L104,310L102,313L101,315L101,316L101,317L100,318L97,323L93,324L90,324L89,324L83,321L82,321L81,322L78,323L76,324L75,324L74,324L72,324L71,325L69,326L67,326L78,334L91,346L114,360L115,362Z " data-fips="GT15" data-hasc="GT.RE" data-name="Retalhuleu" data-postal="RE" data-varname=""/><path d="M69,326L71,325L72,324L74,324L75,324L76,324L78,323L81,322L79,315L78,313L77,313L72,312L70,312L70,311L74,307L76,305L77,304L79,304L88,302L94,302L96,303L98,302L99,302L100,299L101,299L102,298L103,297L105,291L106,290L107,286L108,285L108,283L109,282L112,279L113,278L114,277L114,273L114,271L112,270L111,267L112,264L114,261L115,260L119,257L120,254L119,253L118,252L117,251L115,250L114,248L112,246L111,243L110,242L109,242L104,243L102,243L99,241L97,241L95,242L92,244L89,244L88,245L84,248L79,248L78,247L77,237L77,236L76,235L74,233L74,231L64,247L63,249L63,251L64,252L76,269L74,273L73,274L72,274L71,275L70,275L69,276L68,279L68,285L67,288L65,291L65,292L65,295L66,298L66,300L68,305L68,307L67,308L67,309L65,312L63,318L61,320L60,320L67,326Z " data-fips="GT17" data-hasc="GT.SM" data-name="San Marcos" data-postal="SM" data-varname=""/><path d="M281,261L284,261L288,259L290,259L293,261L294,261L300,260L303,260L310,259L308,256L308,255L308,254L308,251L307,250L307,249L306,248L306,246L308,234L310,233L310,232L311,230L312,229L311,228L310,227L309,226L308,225L306,222L305,221L305,220L311,212L316,204L317,203L319,202L320,201L321,201L322,200L323,197L324,196L326,196L327,195L329,192L327,192L326,193L323,192L321,192L319,194L318,188L317,188L316,188L315,188L314,189L308,188L306,189L305,189L304,189L303,189L301,187L299,186L297,185L295,185L294,185L293,186L292,187L289,187L287,187L286,187L285,186L285,185L284,183L283,182L282,182L280,181L278,181L277,180L277,179L276,178L275,177L275,178L274,179L273,178L272,178L271,177L270,177L269,178L252,173L233,170L230,170L230,170L230,170L231,171L232,173L231,174L231,176L230,176L229,176L228,177L227,177L225,178L224,177L223,178L222,177L221,178L220,179L219,178L218,177L217,176L215,176L217,175L216,174L215,174L214,175L213,174L210,174L206,177L207,178L206,179L206,180L205,180L204,179L203,180L202,181L201,181L201,182L203,183L203,184L202,185L201,186L201,189L203,190L203,191L202,193L200,195L199,198L196,201L195,203L197,203L198,203L199,203L199,204L198,205L200,207L198,208L198,209L199,210L202,210L206,212L208,212L210,212L210,213L212,214L213,215L213,217L212,218L213,219L214,221L215,223L216,225L216,226L214,227L211,230L212,231L211,232L207,232L206,233L206,235L206,236L206,238L208,240L211,241L226,243L227,244L227,246L226,248L226,250L225,251L227,251L229,251L233,251L235,251L237,251L242,255L243,256L245,255L246,254L247,252L248,249L248,248L250,247L255,249L265,250L269,250L272,249L277,248L279,249L280,250L280,251L280,252L279,255L280,262Z " data-fips="GT01" data-hasc="GT.AV" data-name="Alta Verapaz" data-postal="AV" data-varname=""/><path d="M182,333L183,331L184,330L186,328L188,326L188,326L189,323L191,319L195,314L197,313L199,310L200,309L200,308L199,305L198,302L199,301L200,298L202,295L203,293L204,291L205,291L206,291L208,289L210,288L210,287L209,285L206,285L203,284L201,283L196,283L192,282L190,282L189,282L188,283L182,283L180,282L179,283L177,284L176,284L175,285L172,292L170,294L171,301L171,304L171,306L169,310L168,312L168,315L168,324L169,325L169,327L169,328L167,332L169,333L170,334L171,333L173,332L174,333L175,334L176,334L177,334L178,333L179,334L179,335L179,336L181,336Z " data-fips="GT03" data-hasc="GT.CM" data-name="Chimaltenango" data-postal="CM" data-varname=""/><path d="M194,381L212,381L213,381L213,369L214,368L215,368L216,367L217,366L218,365L220,363L220,362L218,360L218,358L221,358L223,356L224,354L222,354L220,354L219,354L218,354L217,353L217,352L218,351L219,349L219,347L217,344L217,343L217,340L217,335L216,334L214,333L212,332L205,331L204,328L203,328L202,329L200,329L199,330L198,332L197,333L195,335L194,334L193,332L192,330L191,329L188,326L186,328L184,330L183,331L182,333L181,336L179,336L179,335L179,334L178,333L177,334L176,334L175,334L174,333L173,332L171,333L170,334L169,333L167,332L165,338L164,339L164,345L163,346L162,348L150,347L150,344L149,343L148,345L146,346L145,345L144,345L144,344L144,342L143,341L143,340L144,338L142,337L141,337L138,339L138,340L138,342L138,343L138,345L138,346L137,346L136,345L135,344L134,345L134,346L134,348L134,350L134,354L134,356L133,358L132,359L127,366L127,367L127,369L147,378L162,381L169,382Z " data-fips="GT06" data-hasc="GT.ES" data-name="Escuintla" data-postal="ES" data-varname=""/><path d="M223,348L224,346L227,345L228,345L229,344L230,343L231,342L231,341L230,336L232,332L236,326L238,325L239,326L240,328L241,327L243,325L245,325L246,324L246,320L246,320L247,318L247,317L248,314L251,311L252,311L253,308L252,308L250,306L249,306L243,304L243,303L240,300L240,299L241,298L241,297L241,294L240,292L239,290L237,291L235,291L234,291L233,289L234,288L234,285L232,285L231,286L229,287L228,287L227,286L226,285L224,286L222,287L219,288L218,287L217,288L215,287L214,287L210,287L210,288L208,289L206,291L205,291L204,291L203,293L202,295L200,298L202,300L204,301L205,301L207,301L208,302L211,306L212,308L213,310L214,312L214,314L214,315L213,316L213,317L212,325L212,332L214,333L216,334L217,335L217,340L217,343L217,344L219,347L219,349Z " data-fips="GT07" data-hasc="GT.GU" data-name="Guatemala" data-postal="GU" data-varname=""/><path d="M127,367L127,366L132,359L133,358L134,356L134,354L134,350L134,348L134,346L134,345L135,344L136,345L137,346L138,346L138,345L138,343L138,342L138,340L138,339L141,337L142,337L144,338L143,340L143,341L144,342L144,344L144,345L145,345L146,346L148,345L149,343L150,344L150,347L162,348L163,346L164,345L164,339L165,338L167,332L169,328L169,327L169,325L168,324L163,319L162,319L161,318L159,318L156,320L154,320L153,319L154,318L153,316L153,315L150,313L149,311L147,312L145,312L144,310L142,310L141,310L140,311L140,313L140,315L138,314L134,314L133,312L135,308L135,306L134,303L133,302L127,307L124,309L124,310L124,312L124,313L120,321L120,323L119,328L120,330L121,332L120,339L121,341L120,342L119,343L118,347L118,350L117,353L114,358L115,362L117,364L120,365L125,369L127,369Z " data-fips="GT20" data-hasc="GT.SU" data-name="Suchitepquez" data-postal="SU" data-varname=""/><path d="M197,333L198,332L199,330L200,329L202,329L203,328L204,328L205,331L212,325L213,317L213,316L214,315L214,314L214,312L213,310L212,308L211,306L208,302L207,301L205,301L204,301L202,300L200,298L199,301L198,302L199,305L200,308L200,309L199,310L197,313L195,314L191,319L189,323L188,326L188,326L191,329L192,330L193,332L194,334L195,335Z " data-fips="GT16" data-hasc="GT.SA" data-name="Sacatepquez" data-postal="SA" data-varname=""/><path d="M156,320L159,318L161,318L162,319L163,319L168,315L168,312L169,310L171,306L171,304L171,301L170,294L168,293L167,295L166,295L165,294L165,293L165,292L166,291L167,290L166,290L164,289L163,288L162,287L162,286L161,285L159,287L157,289L156,290L155,290L154,290L152,290L150,290L148,290L146,290L144,290L142,290L137,294L136,298L133,302L134,303L135,306L135,308L133,312L134,314L138,314L140,315L140,313L140,311L141,310L142,310L144,310L145,312L147,312L149,311L150,313L153,315L153,316L154,318L153,319L154,320Z " data-fips="GT19" data-hasc="GT.SO" data-name="Solol" data-postal="SO" data-varname=""/><path d="M142,290L144,290L146,290L148,290L150,290L152,290L154,290L155,290L156,290L157,289L159,287L161,285L158,282L158,280L158,279L156,278L156,277L155,275L153,273L152,272L152,271L153,270L154,269L156,268L156,267L155,265L154,264L153,263L152,260L149,257L148,256L148,255L148,253L146,250L145,250L142,251L141,253L137,253L135,254L134,256L133,257L133,260L132,261L127,261L122,263L122,264L122,267L125,276L125,277L126,278L127,280L127,281L127,282L129,285L129,285L131,285L133,285L134,287L134,290L135,291L137,294Z " data-fips="GT21" data-hasc="GT.TO" data-name="Totonicapn" data-postal="TO" data-varname=""/><path d="M254,308L255,307L256,306L256,305L259,304L262,303L263,303L265,304L266,303L269,298L271,297L274,297L277,296L280,294L283,290L285,289L286,288L287,288L291,286L292,285L294,285L295,285L294,282L293,282L292,281L291,280L287,275L287,273L292,273L292,272L288,266L284,261L281,261L280,262L273,262L269,265L261,270L246,281L244,286L244,287L239,288L236,287L234,288L233,289L234,291L235,291L237,291L239,290L240,292L241,294L241,297L241,298L240,299L240,300L243,303L243,304L249,306L250,306L252,308L253,308Z " data-fips="GT05" data-hasc="GT.PR" data-name="El Progreso" data-postal="PR" data-varname="Guastatoya"/><path d="M251,391L251,389L250,386L249,383L248,382L247,381L246,377L245,376L245,375L245,373L246,373L248,372L250,374L253,376L256,376L258,377L259,376L261,373L262,372L262,371L263,371L265,371L266,370L267,368L268,367L268,365L268,361L268,359L267,358L265,356L261,352L260,352L256,351L255,350L258,341L260,340L263,339L264,339L265,339L265,337L266,337L265,330L262,327L261,326L261,324L250,326L249,326L248,326L247,325L246,324L245,325L243,325L241,327L240,328L239,326L238,325L236,326L232,332L230,336L231,341L231,342L230,343L229,344L228,345L227,345L224,346L223,348L219,349L218,351L217,352L217,353L218,354L219,354L220,354L222,354L224,354L223,356L221,358L218,358L218,360L220,362L220,363L218,365L217,366L216,367L215,368L214,368L213,369L213,381L217,382L220,382L225,383L235,387L250,394Z " data-fips="GT18" data-hasc="GT.SR" data-name="Santa Rosa" data-postal="SR" data-varname=""/><path d="M354,269L357,267L366,264L370,262L414,227L424,219L428,215L431,209L433,209L435,209L436,208L439,208L439,207L439,205L440,204L437,203L433,199L432,199L429,196L419,191L414,187L412,186L409,183L408,183L405,181L404,181L403,182L404,184L408,186L409,187L409,188L410,189L412,190L413,190L415,193L414,193L411,193L409,193L409,192L409,193L409,196L409,197L409,198L408,199L407,200L407,202L406,203L404,203L405,204L405,205L405,206L404,207L401,206L402,202L393,196L391,195L390,193L387,192L383,191L380,191L376,189L375,188L371,190L363,188L360,188L357,188L350,188L347,189L346,189L345,190L344,188L345,187L342,186L333,187L332,188L331,189L331,190L329,192L327,195L326,196L324,196L323,197L322,200L321,201L320,201L319,202L317,203L316,204L311,212L305,220L305,221L306,222L308,225L309,226L310,227L311,228L312,229L311,230L310,232L310,233L308,234L306,246L306,248L307,249L307,250L308,251L308,254L308,255L308,256L310,259L314,258L315,258L326,254L338,249L340,248L341,247L344,246L347,247L350,249L351,249L351,251L351,254L350,255L349,255L349,256L349,260L349,261L349,263L350,266L352,269L353,269Z " data-fips="GT09" data-hasc="GT.IZ" data-name="Izabal" data-postal="IZ" data-varname=""/><path d="M327,333L329,331L330,331L330,332L331,331L333,333L333,330L333,329L334,328L335,327L337,326L338,326L339,324L340,322L343,320L344,319L345,317L347,317L348,317L350,318L351,318L352,317L353,315L353,314L353,308L354,306L354,305L353,304L352,303L351,302L350,297L349,296L347,294L346,292L345,291L346,289L346,288L349,286L350,285L349,283L348,282L347,281L346,281L343,283L343,284L341,285L340,285L339,284L337,284L333,286L331,286L330,285L327,284L325,285L319,289L318,290L313,290L311,289L308,288L305,286L304,286L302,287L300,290L300,292L300,294L298,298L302,298L304,299L304,300L305,301L304,302L304,304L305,305L305,306L302,316L302,318L303,318L306,318L308,319L309,320L310,321L311,323L311,323L319,323L320,324L320,326L320,327L319,329L319,330L319,331L321,333L322,332L323,333L324,333L325,333Z " data-fips="GT04" data-hasc="GT.CQ" data-name="Chiquimula" data-postal="CQ" data-varname=""/><path d="M276,329L277,328L278,328L279,328L284,332L284,328L285,327L287,326L289,324L290,323L292,323L293,323L294,324L295,325L301,322L303,321L303,320L303,318L302,318L302,316L305,306L305,305L304,304L304,302L305,301L304,300L304,299L302,298L298,298L297,298L295,297L293,297L292,297L291,296L289,293L289,291L288,290L287,288L286,288L285,289L283,290L280,294L277,296L274,297L271,297L269,298L266,303L265,304L263,303L262,303L259,304L256,305L256,306L255,307L254,308L253,308L252,311L251,311L248,314L247,317L247,318L246,320L246,320L246,324L247,325L248,326L249,326L250,326L261,324L261,326L262,327L265,330L274,332Z " data-fips="GT10" data-hasc="GT.JA" data-name="Jalapa" data-postal="JA" data-varname=""/><path d="M262,394L262,393L262,391L263,390L263,388L265,387L267,386L268,385L269,383L270,382L271,381L272,379L281,373L283,371L284,370L288,369L290,368L292,369L294,371L295,371L297,370L296,369L296,367L300,360L302,358L305,356L307,355L318,352L318,350L316,349L316,348L316,346L315,345L313,344L312,344L311,342L311,341L312,341L313,340L313,339L312,338L312,336L312,335L314,334L315,334L316,335L316,337L318,336L321,333L319,331L319,330L319,329L320,327L320,326L320,324L319,323L311,323L311,323L310,321L309,320L308,319L306,318L303,318L303,320L303,321L301,322L295,325L294,324L293,323L292,323L290,323L289,324L287,326L285,327L284,328L284,332L279,328L278,328L277,328L276,329L274,332L266,337L265,337L265,339L264,339L263,339L260,340L258,341L255,350L256,351L260,352L261,352L265,356L267,358L268,359L268,361L268,365L268,367L267,368L266,370L265,371L263,371L262,371L262,372L261,373L259,376L258,377L256,376L253,376L250,374L248,372L246,373L245,373L245,375L245,376L246,377L247,381L248,382L249,383L250,386L251,389L251,391L250,394L260,398L263,399Z " data-fips="GT11" data-hasc="GT.JU" data-name="Jutiapa" data-postal="JU" data-varname=""/><path d="M300,294L300,292L300,290L302,287L304,286L305,286L308,288L311,289L313,290L318,290L319,289L325,285L327,284L330,285L331,286L333,286L337,284L339,284L340,285L341,285L343,284L343,283L346,281L347,281L348,282L349,283L350,285L350,284L351,281L351,278L349,276L351,272L352,270L353,269L352,269L350,266L349,263L349,261L349,260L349,256L349,255L350,255L351,254L351,251L351,249L350,249L347,247L344,246L341,247L340,248L338,249L326,254L315,258L314,258L310,259L303,260L300,260L294,261L293,261L290,259L288,259L284,261L288,266L292,272L292,273L287,273L287,275L291,280L292,281L293,282L294,282L295,285L294,285L292,285L291,286L288,290L289,291L289,293L291,296L292,297L293,297L295,297L297,298L298,298Z " data-fips="GT22" data-hasc="GT.ZA" data-name="Zacapa" data-postal="ZA" data-varname=""/><path d="M167,295L168,293L172,292L175,285L176,284L177,284L179,283L180,282L182,283L188,283L189,282L190,282L192,282L196,283L201,283L203,284L206,285L209,285L209,283L209,282L208,281L205,279L206,277L197,271L190,262L190,256L191,251L207,255L218,256L221,256L225,251L226,250L226,248L227,246L227,244L226,243L211,241L208,240L206,238L206,236L206,235L206,233L207,232L211,232L212,231L211,230L214,227L216,226L216,225L215,223L214,221L213,219L212,218L213,217L213,215L212,214L210,213L210,212L208,212L206,212L202,210L199,210L198,209L198,208L200,207L198,205L199,204L199,203L198,203L197,203L195,203L196,201L199,198L200,195L202,193L203,191L203,190L201,189L201,186L202,185L203,184L203,183L201,182L201,181L202,181L203,180L204,179L205,180L206,180L206,179L207,178L206,177L210,174L213,174L214,175L215,174L216,174L217,175L215,176L217,176L218,177L219,178L220,179L221,178L222,177L223,178L224,177L225,178L227,177L228,177L229,176L230,176L231,176L231,174L232,173L231,171L230,170L230,170L229,171L227,171L179,171L167,194L166,196L160,209L158,211L158,212L157,212L154,215L152,215L151,216L150,216L149,218L148,220L148,221L148,224L147,224L147,225L147,227L147,228L150,231L150,232L150,234L151,235L153,237L157,237L158,237L161,238L161,240L160,244L161,246L161,248L160,248L156,248L153,248L149,249L148,253L148,255L148,256L149,257L152,260L153,263L154,264L155,265L156,267L156,268L154,269L153,270L152,271L152,272L153,273L155,275L156,277L156,278L158,279L158,280L158,282L161,285L162,286L162,287L163,288L164,289L166,290L167,290L166,291L165,292L165,293L165,294L166,295Z " data-fips="GT14" data-hasc="GT.QC" data-name="Quich" data-postal="QC" data-varname=""/></g></svg>