<?xml version="1.0" ?><!DOCTYPE svg  PUBLIC '-//W3C//DTD SVG 1.1//EN'  'http://www.w3.org/Graphics/SVG/1.1/DTD/svg11.dtd'><svg enable_background="new 0 0 500 401" height="401px" style="stroke-linejoin: round; stroke:#000; fill:#f6f3f0;" version="1.1" viewBox="0 0 500 401" width="500px" xmlns="http://www.w3.org/2000/svg" xmlns:xlink="http://www.w3.org/1999/xlink"><defs><style type="text/css"><![CDATA[path { fill-rule: evenodd; }
#context path { fill: #eee; stroke: #bbb; } ]]></style></defs><metadata><views><view h="401" padding="0" w="500"><proj id="laea" lat0="14.819" lon0="-86.863"/><bbox h="43.52" w="74.38" x="970.11" y="979.18"/><llbbox lat0="-90" lat1="90" lon0="-180" lon1="180"/></view></views></metadata><g id="admin1"><path d="M176,143L177,142L179,140L184,138L186,137L188,135L191,133L192,132L196,133L202,131L202,132L204,133L205,133L208,133L209,132L211,131L215,130L216,129L219,128L220,128L223,129L226,129L228,129L229,129L230,129L232,129L235,129L238,129L240,128L241,127L241,126L241,124L240,122L239,122L238,121L237,119L237,118L235,117L235,116L234,115L234,113L235,113L235,112L232,111L230,111L214,113L210,112L209,112L208,112L206,113L205,113L200,115L197,115L194,115L185,113L178,112L171,110L162,108L161,108L160,109L159,110L157,110L156,111L154,112L152,113L149,112L142,105L141,104L141,103L143,100L140,102L139,103L140,104L139,104L135,102L134,102L132,102L132,104L131,105L130,106L129,108L128,109L127,111L127,112L128,114L128,115L129,115L129,117L128,118L127,118L133,122L134,123L135,125L136,127L136,129L136,131L137,132L140,136L141,136L145,136L148,135L149,135L152,133L154,133L155,135L155,136L156,138L157,140L158,141L159,141L161,141L162,140L163,140L165,141L166,141L172,143Z " data-fips="HO01" data-hasc="HN.AT" data-name="Atlntida" data-postal="AT" data-varname=""/><path d="M350,96L347,96L340,100L338,101L335,102L323,103L313,104L309,103L306,103L301,101L300,100L299,100L298,99L296,98L296,99L295,100L295,99L295,98L293,97L292,97L290,95L289,95L285,95L282,94L280,93L278,94L271,92L269,93L269,93L271,94L276,95L278,96L277,98L275,100L271,103L270,103L259,104L256,104L253,106L252,106L250,109L243,113L242,114L240,114L238,114L237,114L235,113L234,113L234,115L235,116L235,117L237,118L237,119L238,121L239,122L240,122L241,124L241,126L241,127L240,128L238,129L239,132L240,133L241,133L245,133L247,134L248,134L249,135L250,135L251,136L251,137L251,141L251,142L251,144L256,147L258,147L260,147L261,146L263,145L266,145L267,146L268,145L272,143L277,138L279,135L280,134L281,134L283,135L285,134L287,132L287,130L289,130L290,130L292,130L293,130L295,130L301,134L310,141L318,144L321,146L325,152L330,158L331,159L343,164L345,166L350,172Z " data-fips="HO03" data-hasc="HN.CL" data-name="Coln" data-postal="CL" data-varname=""/><path d="M180,288L180,286L181,285L181,284L180,282L179,281L179,280L179,278L180,277L181,277L184,279L186,280L187,279L189,278L190,274L191,270L191,268L191,267L191,265L191,264L194,265L195,264L196,263L197,261L197,257L196,256L194,255L192,252L191,250L193,249L194,249L195,250L197,249L198,248L197,247L196,246L197,245L198,242L202,239L204,236L204,233L207,231L213,226L213,225L212,222L212,221L211,219L210,218L210,216L210,215L211,213L209,211L206,209L205,208L203,207L202,206L201,204L199,198L198,195L197,193L197,190L196,188L195,187L196,186L197,184L197,183L196,182L195,181L193,180L192,179L191,178L188,176L184,176L182,176L180,176L177,176L175,178L175,180L175,181L173,182L172,183L172,184L172,188L172,189L173,190L172,191L170,191L169,193L169,194L170,195L170,198L169,200L169,203L168,203L167,204L165,205L165,206L164,206L164,207L164,209L162,211L161,210L160,210L159,209L158,210L158,211L157,212L157,214L153,218L153,220L154,221L155,222L157,224L157,225L157,226L159,228L158,230L156,233L155,233L154,233L153,233L153,234L153,238L153,239L154,240L155,241L156,242L155,243L153,243L151,244L150,246L150,247L149,248L146,249L143,249L142,250L140,252L140,254L142,265L142,266L141,270L140,272L138,275L138,277L138,281L138,282L141,284L144,285L145,284L146,285L149,287L151,289L153,288L152,287L152,286L153,284L153,282L154,281L157,281L158,281L159,282L158,283L158,284L160,286L161,287L164,286L166,287L169,287L173,288L175,288L179,289Z " data-fips="HO08" data-hasc="HN.FM" data-name="Francisco Morazn" data-postal="FM" data-varname="Tegucigalpa"/><path d="M395,207L398,206L399,204L400,203L400,202L401,201L402,201L403,204L405,204L408,205L409,204L410,202L409,198L410,197L411,197L412,197L413,198L415,200L416,201L417,201L419,200L420,199L421,199L422,199L423,198L422,197L421,195L422,194L424,195L425,196L427,196L427,197L429,197L437,196L436,195L437,193L438,193L439,195L440,194L441,195L442,194L443,193L445,193L446,193L445,192L445,191L449,191L451,190L451,189L452,189L453,189L454,190L454,186L455,186L457,186L458,186L460,186L461,187L462,186L462,184L464,183L466,181L467,181L467,180L468,180L468,179L469,178L469,179L469,177L469,176L470,175L472,176L474,178L475,177L477,176L478,175L479,173L481,174L482,175L482,176L484,175L485,175L489,176L488,176L488,177L489,177L491,177L493,177L494,177L495,176L496,176L499,176L500,176L490,172L488,170L485,167L484,164L483,158L482,157L477,154L467,150L457,145L456,145L455,144L454,143L452,144L452,145L453,146L455,146L456,148L460,149L461,149L461,151L463,150L464,151L466,152L468,151L469,152L469,154L470,155L470,156L471,157L472,158L468,160L467,161L466,162L464,163L463,162L463,161L462,159L461,160L462,161L460,162L460,160L461,159L462,158L463,157L464,157L465,157L467,159L467,159L468,157L468,155L467,154L468,153L466,153L461,152L460,152L460,153L459,155L457,155L455,156L454,157L452,160L450,158L450,159L449,160L449,158L449,155L447,153L446,154L445,153L446,152L446,151L445,150L444,149L442,149L440,148L439,146L438,145L430,142L429,142L427,143L428,144L430,147L431,147L438,150L439,150L440,151L443,153L444,154L443,155L441,156L439,156L438,156L436,156L435,155L434,154L433,152L434,151L435,151L432,151L430,151L429,150L430,148L429,147L428,146L427,145L428,148L427,148L425,148L423,147L422,145L421,143L420,141L421,140L422,139L422,138L421,135L420,133L418,132L417,135L416,136L415,137L415,136L415,134L413,133L414,131L416,132L417,131L419,131L420,132L423,137L424,136L423,135L422,133L421,131L423,131L424,131L424,132L423,133L425,134L426,134L428,132L429,132L430,133L432,134L433,134L434,134L437,137L437,138L436,138L437,139L438,139L442,140L443,141L445,141L448,144L450,144L451,144L452,143L450,142L447,142L446,141L444,140L439,135L434,132L426,124L417,117L412,111L410,110L408,108L407,108L397,107L384,105L382,105L383,106L396,108L397,109L393,109L391,110L392,111L388,112L386,111L385,109L384,110L383,112L381,112L380,111L380,110L379,108L379,107L380,105L379,104L376,104L362,98L353,95L350,96L350,172L350,179L350,199L352,198L353,197L357,193L358,193L360,192L363,192L365,192L366,192L367,192L369,194L370,196L369,197L371,197L371,198L371,199L372,200L373,202L375,204L376,203L378,204L381,205L382,205L388,206L388,208L390,208L391,208L393,208Z " data-fips="HO09" data-hasc="HN.GD" data-name="Gracias a Dios" data-postal="GD" data-varname=""/><path d="M195,89L197,88L198,87L200,87L200,85L199,85L198,85L197,85L195,85L191,87L191,88L192,89L194,89Z M221,72L223,70L224,70L225,69L228,68L230,68L233,65L239,63L241,62L242,62L243,62L245,61L246,61L249,61L251,60L248,60L244,59L243,59L236,61L234,61L229,64L225,66L222,68L219,70L220,73Z M276,59L277,58L280,57L280,55L283,54L282,53L279,53L278,54L277,55L276,56L274,59L273,60L273,61Z " data-fips="HO01" data-hasc="HN.IB" data-name="Islas de la Baha" data-postal="IB" data-varname="Islas de Bahia"/><path d="M307,257L308,257L309,255L309,254L310,253L313,252L314,251L315,251L316,250L317,249L318,247L318,245L319,243L320,242L321,241L322,240L323,240L324,239L324,238L326,237L328,236L331,236L333,236L335,235L337,234L338,233L338,231L337,229L335,228L334,227L336,225L336,223L338,220L338,216L339,214L339,213L341,213L342,214L344,215L345,215L348,212L349,210L347,210L349,208L346,206L348,204L348,201L349,200L350,199L350,179L350,172L345,166L343,164L331,159L330,158L325,152L321,146L318,144L310,141L301,134L295,130L293,130L292,130L290,130L289,130L287,130L287,132L285,134L283,135L281,134L280,134L279,135L277,138L272,143L268,145L267,146L266,145L263,145L261,146L260,147L258,147L256,147L251,144L248,147L247,147L242,150L240,151L239,151L237,151L236,150L235,149L234,148L233,147L232,146L229,146L228,146L220,150L219,150L219,151L218,153L217,154L216,155L215,156L214,156L212,156L211,156L208,154L205,155L204,156L202,156L201,157L201,159L202,164L201,166L201,167L200,168L200,169L200,170L199,171L198,172L196,174L193,174L192,175L191,178L192,179L193,180L195,181L196,182L197,183L197,184L196,186L195,187L196,188L197,190L197,193L198,195L199,198L201,204L202,206L203,207L205,208L206,209L209,211L211,213L210,215L210,216L210,218L211,219L212,221L212,222L213,225L213,226L216,227L217,228L218,227L220,227L221,229L222,229L224,230L228,231L230,233L232,233L234,234L234,235L235,236L236,237L242,237L243,237L245,236L246,235L247,234L248,234L249,233L252,233L254,233L255,233L256,234L259,239L261,240L263,240L264,240L265,239L266,238L268,239L269,240L270,242L270,243L271,245L272,246L275,247L276,249L278,250L280,250L280,249L281,247L282,247L283,246L284,246L286,247L288,247L290,244L294,245L297,246L298,246L299,246L300,247L301,248L301,249L302,251L302,253L304,254L305,255L306,257Z " data-fips="HO15" data-hasc="HN.OL" data-name="Olancho" data-postal="OL" data-varname=""/><path d="M158,185L160,183L162,183L165,184L166,185L167,184L168,185L172,184L172,183L173,182L175,181L175,180L175,178L177,176L180,176L182,176L184,176L188,176L192,175L193,174L196,174L198,172L199,171L200,170L200,169L200,168L201,167L201,166L202,164L201,159L201,157L202,156L204,156L205,155L208,154L211,156L212,156L214,156L215,156L216,155L217,154L218,153L219,151L219,150L220,150L228,146L229,146L232,146L233,147L234,148L235,149L236,150L237,151L239,151L240,151L242,150L247,147L248,147L251,144L251,142L251,141L251,137L251,136L250,135L249,135L248,134L247,134L245,133L241,133L240,133L239,132L235,129L232,129L230,129L229,129L228,129L226,129L223,129L220,128L219,128L216,129L215,130L211,131L209,132L208,133L205,133L204,133L202,132L202,131L196,133L192,132L191,133L188,135L186,137L184,138L179,140L177,142L176,143L172,143L166,141L165,141L163,140L162,140L161,141L159,141L158,141L157,140L156,138L155,136L155,135L154,133L152,133L149,135L148,135L145,136L141,136L140,136L137,132L136,131L136,129L136,127L135,125L134,123L133,122L127,118L124,121L126,121L125,122L126,124L128,126L129,128L128,130L127,130L126,131L126,133L124,134L124,136L124,137L125,138L125,139L124,140L122,140L122,141L123,142L124,142L124,144L123,145L121,148L120,150L118,150L117,151L117,152L116,154L116,155L116,157L115,158L116,158L117,159L116,161L116,162L118,162L120,162L122,164L123,165L124,165L125,165L126,166L127,167L128,166L131,169L131,171L131,172L131,173L131,177L139,177L143,175L146,173L147,174L149,175L150,177L150,179L151,179L152,180L153,181L153,183L154,184L154,185L155,186L156,186Z " data-fips="HO18" data-hasc="HN.YO" data-name="Yoro" data-postal="YO" data-varname=""/><path d="M139,323L140,322L140,320L138,320L137,320L136,321L136,322L136,323L138,323Z M143,318L142,314L144,313L143,313L140,313L138,313L137,315L137,316L138,318L142,319Z M148,314L151,314L152,314L151,313L152,311L152,310L154,309L155,310L157,310L158,310L159,311L161,310L162,308L162,306L161,305L160,303L160,301L158,299L156,296L156,294L156,291L154,290L153,288L151,289L149,287L146,285L145,284L144,285L141,284L138,282L138,281L138,277L138,275L136,275L134,273L131,274L130,274L132,276L133,276L132,278L131,281L130,283L131,285L130,286L129,287L129,288L129,291L129,293L127,297L126,300L127,301L128,302L129,301L131,303L132,304L132,305L132,306L130,307L124,310L126,311L127,311L127,312L128,313L130,314L132,314L134,314L136,312L137,310L137,307L137,306L139,306L140,305L140,307L140,310L141,310L141,313L142,312L143,312L145,313L146,314L145,314L146,315Z " data-fips="HO17" data-hasc="HN.VA" data-name="Valle" data-postal="VA" data-varname=""/><path d="M137,255L138,254L140,254L140,252L142,250L143,249L146,249L149,248L150,247L150,246L151,244L153,243L155,243L156,242L155,241L154,240L153,239L153,238L153,234L153,233L154,233L155,233L156,233L158,230L159,228L157,226L157,225L157,224L155,222L154,221L153,220L153,218L157,214L157,212L158,211L158,210L159,209L160,210L161,210L162,211L164,209L164,207L164,206L165,206L165,205L167,204L168,203L169,203L169,200L170,198L170,195L169,194L169,193L170,191L172,191L173,190L172,189L172,188L168,185L167,184L166,185L165,184L162,183L160,183L158,185L156,186L155,186L154,185L154,184L153,183L153,181L152,180L151,179L150,179L150,177L149,175L147,174L146,173L143,175L139,177L131,177L131,179L131,181L129,182L126,185L124,186L122,186L120,188L119,190L113,194L111,193L111,195L108,196L105,198L104,199L104,200L103,201L104,202L105,204L105,207L107,208L109,209L111,210L112,210L113,211L114,213L114,214L115,216L117,217L118,217L118,219L119,220L121,223L122,224L121,225L122,227L123,228L127,229L128,230L131,231L132,231L134,232L138,230L139,233L139,235L140,236L139,237L139,238L137,239L136,239L135,239L133,240L131,241L130,241L129,241L128,241L124,242L123,242L124,244L126,245L127,246L127,248L127,249L128,250L130,250L131,251L133,252L134,254L134,257Z " data-fips="HO04" data-hasc="HN.CM" data-name="Comayagua" data-postal="CM" data-varname=""/><path d="M119,190L120,188L122,186L124,186L126,185L129,182L131,181L131,179L131,177L131,173L131,172L131,171L131,169L128,166L127,167L126,166L125,165L124,165L123,165L122,164L120,162L118,162L116,162L116,161L117,159L116,158L115,158L116,157L116,155L116,154L117,152L117,151L118,150L120,150L121,148L123,145L124,144L124,142L123,142L122,141L122,140L124,140L125,139L125,138L124,137L124,136L124,134L126,133L126,131L127,130L128,130L129,128L128,126L126,124L125,122L126,121L124,121L127,118L128,118L129,117L129,115L128,115L128,114L127,112L127,111L128,109L129,108L130,106L131,105L132,104L132,102L131,102L131,103L129,103L123,104L120,105L119,106L118,106L114,107L116,108L116,109L115,110L111,113L107,113L107,114L105,115L101,120L99,121L97,120L92,118L92,118L91,120L90,120L89,121L88,121L86,122L84,122L82,127L78,130L73,135L73,135L77,133L82,134L89,136L91,137L91,138L91,139L91,140L91,142L92,143L94,144L95,145L97,147L100,147L100,155L102,160L103,160L105,161L105,162L101,165L101,167L101,168L102,170L105,171L106,172L108,173L108,173L107,174L106,179L105,182L106,184L108,184L110,186L111,188L111,193L113,194Z " data-fips="HO06" data-hasc="HN.CR" data-name="Corts" data-postal="CR" data-varname="Cortez"/><path d="M71,273L73,272L74,271L78,271L80,271L81,270L82,270L83,270L84,269L85,269L86,269L87,267L88,266L89,266L90,266L91,265L90,264L90,262L90,261L92,262L92,261L93,257L91,255L91,254L92,253L96,248L97,248L100,246L100,245L101,244L102,242L105,240L108,240L109,238L110,237L111,236L112,235L113,233L113,230L113,229L114,229L116,229L117,229L118,228L121,225L122,224L121,223L119,220L118,219L118,217L117,217L115,216L114,214L114,213L113,211L112,210L111,210L109,209L107,208L105,207L102,207L99,207L97,206L93,207L88,207L82,206L83,208L84,213L82,216L82,219L81,220L78,221L77,221L73,221L71,222L69,223L70,227L71,229L73,231L75,231L76,232L76,236L76,237L75,240L76,241L77,241L79,242L80,242L82,242L83,243L83,244L83,245L83,247L84,251L83,252L83,253L82,255L81,255L79,257L75,259L72,260L70,262L69,263L69,265L69,266L69,268L70,271L70,272L69,273Z " data-fips="HO10" data-hasc="HN.IN" data-name="Intibuc" data-postal="IN" data-varname=""/><path d="M140,272L141,270L142,266L142,265L140,254L138,254L137,255L134,257L134,254L133,252L131,251L130,250L128,250L127,249L127,248L127,246L126,245L124,244L123,242L124,242L128,241L129,241L130,241L131,241L133,240L135,239L136,239L137,239L139,238L139,237L140,236L139,235L139,233L138,230L134,232L132,231L131,231L128,230L127,229L123,228L122,227L121,225L118,228L117,229L116,229L114,229L113,229L113,230L113,233L112,235L111,236L110,237L109,238L108,240L105,240L102,242L101,244L100,245L100,246L97,248L96,248L92,253L91,254L91,255L93,257L92,261L92,262L94,262L95,262L99,262L101,262L102,262L103,266L105,267L105,268L106,268L107,269L107,270L108,272L112,270L114,270L116,271L117,270L118,270L120,270L121,270L122,269L123,268L125,269L126,271L127,272L128,273L130,274L131,274L134,273L136,275L138,275Z " data-fips="HO12" data-hasc="HN.LP" data-name="La Paz" data-postal="LP" data-varname=""/><path d="M105,204L104,202L103,201L104,200L104,199L105,198L108,196L111,195L111,188L110,186L108,184L106,184L105,182L106,179L107,174L108,173L108,173L106,172L105,171L102,170L101,168L101,167L101,165L105,162L105,161L103,160L102,160L100,155L100,147L97,147L95,145L94,144L92,143L91,142L91,140L91,139L91,138L91,137L89,136L82,134L77,133L73,135L73,135L70,137L49,153L49,153L53,157L53,158L52,160L54,161L56,163L57,164L58,165L57,166L58,169L58,170L58,171L56,173L56,175L55,176L55,179L54,182L54,183L55,184L55,184L58,184L62,182L65,183L67,188L69,191L71,193L73,192L73,191L75,190L76,190L77,192L79,192L81,193L79,197L80,199L81,200L83,200L84,200L84,201L84,204L82,206L88,207L93,207L97,206L99,207L102,207Z " data-fips="HO16" data-hasc="HN.SB" data-name="Santa Brbara" data-postal="SB" data-varname=""/><path d="M43,218L43,217L44,216L46,215L48,215L49,215L51,215L51,210L50,208L49,207L47,205L46,203L46,201L47,201L51,201L54,201L56,201L57,200L57,198L56,196L55,195L55,194L56,193L56,192L57,191L57,189L58,188L59,186L58,184L55,184L55,184L54,183L54,182L55,179L55,176L56,175L56,173L58,171L58,170L58,169L57,166L58,165L57,164L56,163L54,161L52,160L53,158L53,157L49,153L49,153L32,166L29,167L21,170L18,171L18,172L17,172L16,174L15,178L16,179L16,181L15,184L14,186L12,187L11,188L11,190L11,191L12,192L14,194L14,195L16,199L17,200L18,201L18,201L19,201L22,200L23,200L27,201L29,202L29,205L30,206L35,210L35,211L36,214L37,216L38,217L39,218L40,218L41,219L42,219Z " data-fips="HO05" data-hasc="HN.CP" data-name="Copn" data-postal="CP" data-varname=""/><path d="M70,262L72,260L75,259L79,257L81,255L82,255L83,253L83,252L84,251L83,247L83,245L83,244L83,243L82,242L80,242L79,242L77,241L76,241L75,240L76,237L76,236L76,232L75,231L73,231L71,229L70,227L69,223L71,222L73,221L77,221L78,221L81,220L82,219L82,216L84,213L83,208L82,206L84,204L84,201L84,200L83,200L81,200L80,199L79,197L81,193L79,192L77,192L76,190L75,190L73,191L73,192L71,193L69,191L67,188L65,183L62,182L58,184L59,186L58,188L57,189L57,191L56,192L56,193L55,194L55,195L56,196L57,198L57,200L56,201L54,201L51,201L47,201L46,201L46,203L47,205L49,207L50,208L51,210L51,215L52,215L52,217L50,223L50,224L48,225L46,226L44,225L43,227L44,228L42,228L41,228L40,227L39,228L39,229L38,230L35,232L34,232L33,233L32,234L31,235L31,236L31,238L32,241L31,243L32,244L33,245L34,244L35,244L37,244L39,245L40,247L41,250L42,252L43,252L47,252L48,252L49,251L50,252L50,254L49,255L49,256L51,257L53,258L54,258L54,260L56,259L58,259L64,261L66,262L69,262L69,263Z " data-fips="HO13" data-hasc="HN.LE" data-name="Lempira" data-postal="LE" data-varname="Gracias"/><path d="M32,241L31,238L31,236L31,235L32,234L33,233L34,232L35,232L38,230L39,229L39,228L40,227L41,228L42,228L44,228L43,227L44,225L46,226L48,225L50,224L50,223L52,217L52,215L51,215L49,215L48,215L46,215L44,216L43,217L43,218L42,219L41,219L40,218L39,218L38,217L37,216L36,214L35,211L35,210L30,206L29,205L29,202L27,201L23,200L22,200L19,201L18,201L18,201L18,201L18,204L17,205L17,209L17,211L16,212L15,213L12,212L10,212L9,213L8,214L6,216L5,217L3,220L1,221L0,222L0,223L0,226L4,226L7,228L11,228L13,230L17,231L18,230L19,227L21,227L21,228L22,230L22,232L22,232L25,233L26,233L27,234L28,238L30,239L30,240L31,242L31,243Z " data-fips="HO14" data-hasc="HN.OC" data-name="Ocotepeque" data-postal="OC" data-varname=""/><path d="M187,344L189,344L191,342L192,341L194,338L196,337L196,336L195,335L196,331L195,328L196,326L196,325L197,324L201,321L202,320L203,320L205,320L209,322L211,322L212,321L213,320L214,319L214,318L213,315L213,314L212,313L211,312L211,311L212,309L212,308L209,298L209,296L210,295L210,294L210,292L209,291L208,290L208,285L207,286L206,287L205,288L204,288L202,288L199,289L196,290L195,290L195,292L194,293L193,294L191,295L190,296L189,297L189,298L187,301L184,302L183,302L181,301L181,299L180,298L176,298L175,297L175,296L174,294L172,293L172,292L173,288L169,287L166,287L164,286L161,287L160,286L158,284L158,283L159,282L158,281L157,281L154,281L153,282L153,284L152,286L152,287L153,288L154,290L156,291L156,294L156,296L158,299L160,301L160,303L161,305L162,306L162,308L161,310L159,311L159,312L159,313L157,314L155,315L154,315L151,318L149,319L149,320L149,321L150,322L151,322L152,323L153,325L155,328L156,332L156,335L158,334L161,335L164,336L162,337L161,338L162,339L163,341L164,341L166,342L168,342L167,343L166,344L165,346L183,344L184,345L187,346Z " data-fips="HO02" data-hasc="HN.CH" data-name="Choluteca" data-postal="CH" data-varname=""/><path d="M187,301L189,298L189,297L190,296L191,295L193,294L194,293L195,292L195,290L196,290L199,289L202,288L204,288L205,288L206,287L207,286L208,285L208,284L209,282L210,281L212,280L214,280L217,281L224,279L227,279L229,281L231,281L232,281L233,280L234,280L236,282L237,282L242,282L243,281L244,281L245,280L246,278L246,276L248,274L250,271L253,268L256,264L256,263L257,263L258,262L259,261L260,260L261,259L261,258L263,257L269,257L268,259L268,261L274,265L276,268L277,269L279,268L280,268L282,269L282,270L283,272L285,274L286,274L288,274L290,274L291,275L292,275L293,274L293,272L292,271L291,270L291,269L292,266L292,264L293,264L295,264L296,264L297,262L298,262L299,261L300,260L302,260L302,259L303,258L306,257L305,255L304,254L302,253L302,251L301,249L301,248L300,247L299,246L298,246L297,246L294,245L290,244L288,247L286,247L284,246L283,246L282,247L281,247L280,249L280,250L278,250L276,249L275,247L272,246L271,245L270,243L270,242L269,240L268,239L266,238L265,239L264,240L263,240L261,240L259,239L256,234L255,233L254,233L252,233L249,233L248,234L247,234L246,235L245,236L243,237L242,237L236,237L235,236L234,235L234,234L232,233L230,233L228,231L224,230L222,229L221,229L220,227L218,227L217,228L216,227L213,226L207,231L204,233L204,236L202,239L198,242L197,245L196,246L197,247L198,248L197,249L195,250L194,249L193,249L191,250L192,252L194,255L196,256L197,257L197,261L196,263L195,264L194,265L191,264L191,265L191,267L191,268L191,270L190,274L189,278L187,279L186,280L184,279L181,277L180,277L179,278L179,280L179,281L180,282L181,284L181,285L180,286L180,288L179,289L175,288L173,288L172,292L172,293L174,294L175,296L175,297L176,298L180,298L181,299L181,301L183,302L184,302Z " data-fips="HO07" data-hasc="HN.EP" data-name="El Paraso" data-postal="EP" data-varname="Paraiso"/></g></svg>