<?xml version="1.0" ?><!DOCTYPE svg  PUBLIC '-//W3C//DTD SVG 1.1//EN'  'http://www.w3.org/Graphics/SVG/1.1/DTD/svg11.dtd'><svg enable_background="new 0 0 500 401" height="401px" style="stroke-linejoin: round; stroke:#000; fill:#f6f3f0;" version="1.1" viewBox="0 0 500 401" width="500px" xmlns="http://www.w3.org/2000/svg" xmlns:xlink="http://www.w3.org/1999/xlink"><defs><style type="text/css"><![CDATA[path { fill-rule: evenodd; }
#context path { fill: #eee; stroke: #bbb; } ]]></style></defs><metadata><views><view h="401" padding="0" w="500"><proj id="laea" lat0="18.151" lon0="-77.32"/><bbox h="10.15" w="25.65" x="987.64" y="995.37"/><llbbox lat0="-90" lat1="90" lon0="-180" lon1="180"/></view></views></metadata><g id="admin1"><path d="M284,297L284,293L282,284L277,285L273,285L269,284L265,282L267,280L269,279L272,279L274,280L274,279L273,276L273,275L274,274L277,273L279,272L277,265L281,259L284,257L283,255L282,242L282,241L282,240L277,234L277,233L276,232L276,230L276,222L276,220L275,219L274,216L272,214L271,212L271,210L272,207L272,205L273,203L272,199L245,182L234,180L230,178L227,178L219,180L217,182L215,182L213,183L207,182L202,183L227,235L227,236L226,238L226,239L226,241L227,244L227,245L228,246L229,248L232,251L232,252L231,257L230,261L229,261L228,261L225,261L224,262L241,272L245,277L265,295L269,297L273,298L278,298Z " data-fips="JM01" data-hasc="JM.CL" data-name="Clarendon" data-postal="CL" data-varname=""/><path d="M23,157L25,156L33,146L34,145L63,145L65,146L67,146L79,153L84,154L100,149L99,148L96,146L95,145L93,142L91,138L90,136L90,134L89,133L85,130L84,128L86,122L86,119L83,118L78,118L64,120L58,119L54,117L51,118L47,122L41,117L33,120L26,126L24,133L20,132L18,134L16,136L13,138L10,138L9,139L9,141L7,144L7,146L7,153L7,155L9,155L21,157L22,157Z " data-fips="JM02" data-hasc="JM.HA" data-name="Hanover" data-postal="HA" data-varname=""/><path d="M204,265L209,261L213,260L219,260L224,262L225,261L228,261L229,261L230,261L231,257L232,252L232,251L229,248L228,246L227,245L227,244L226,241L226,239L226,238L227,236L227,235L202,183L192,173L188,171L179,170L178,170L176,170L175,171L172,173L171,173L169,195L184,260L185,261L189,262L199,265Z " data-fips="JM04" data-hasc="JM.MA" data-name="Manchester" data-postal="MA" data-varname=""/><path d="M179,260L185,261L184,260L169,195L135,171L109,180L106,182L105,182L104,183L102,187L100,190L100,192L100,193L100,195L100,199L95,212L93,215L95,219L99,220L115,221L121,223L122,228L122,234L122,239L123,240L127,242L128,243L129,245L131,251L132,253L134,255L142,259L147,262L148,262Z " data-fips="JM11" data-hasc="JM.SE" data-name="Saint Elizabeth" data-postal="SE" data-varname=""/><path d="M135,171L146,105L128,101L117,101L108,102L104,104L102,106L97,113L95,115L95,117L95,119L93,120L90,121L87,120L86,119L86,122L84,128L85,130L89,133L90,134L90,136L91,138L93,142L95,145L96,146L99,148L100,149L106,161L107,163L108,163L109,164L110,165L112,171L112,173L109,180Z " data-fips="JM12" data-hasc="JM.SJ" data-name="Saint James" data-postal="SJ" data-varname=""/><path d="M172,173L175,171L176,170L178,170L179,170L188,171L192,173L211,137L211,135L211,134L210,133L209,131L210,130L210,128L210,127L207,120L207,118L208,113L194,112L185,109L162,109L146,105L135,171L171,173Z " data-fips="JM15" data-hasc="JM.TR" data-name="Trelawny" data-postal="TR" data-varname=""/><path d="M95,212L100,199L100,195L100,193L100,192L100,190L102,187L104,183L105,182L106,182L109,180L112,173L112,171L110,165L109,164L108,163L107,163L106,161L84,154L79,153L67,146L65,146L63,145L34,145L33,146L25,156L23,157L22,157L21,157L9,155L7,155L6,156L5,158L1,161L0,162L1,167L4,170L8,173L12,174L16,175L23,177L26,178L32,180L34,180L35,179L37,177L41,178L52,179L68,179L74,182L78,191L80,197L81,200L82,201L84,201L86,202L88,204L90,206L93,215Z " data-fips="JM16" data-hasc="JM.WE" data-name="Westmoreland" data-postal="WE" data-varname=""/><path d="M378,237L378,234L376,230L373,228L370,228L364,228L362,229L360,229L358,232L362,234L365,236L372,236L375,236L376,237Z " data-fips="JM17" data-hasc="JM.KI" data-name="Kingston" data-postal="KI" data-varname="Kingston and Port Royal"/><path d="M478,229L483,223L475,207L470,200L464,194L462,189L454,186L437,183L436,182L434,178L433,178L416,178L414,177L412,176L411,175L410,174L398,172L395,171L391,169L387,165L384,163L382,163L382,163L372,199L375,206L376,207L378,207L381,208L383,208L385,206L385,205L386,204L389,205L399,209L403,212L405,214L406,215L408,216L409,217L420,220L423,221L424,221L426,221L427,220L428,219L429,218L433,218L435,218L436,217L438,217L439,217L444,220L452,221L459,223L460,223L461,224L463,227L464,228L467,229L475,230Z " data-fips="JM07" data-hasc="JM.PO" data-name="Portland" data-postal="PO" data-varname=""/><path d="M215,182L217,182L219,180L227,178L230,178L234,180L245,182L296,178L301,177L315,169L310,164L309,162L308,160L308,158L307,156L306,155L303,151L303,150L303,143L302,142L301,140L300,139L300,137L298,129L298,128L290,129L283,129L281,128L278,125L276,124L266,122L266,123L264,124L263,124L262,123L261,120L260,119L252,117L240,115L228,115L221,117L216,114L210,113L208,113L207,118L207,120L210,127L210,128L210,130L209,131L210,133L211,134L211,135L211,137L207,182L213,183Z " data-fips="JM09" data-hasc="JM.SN" data-name="Saint Ann" data-postal="SN" data-varname=""/><path d="M327,267L331,265L334,260L344,237L347,231L349,230L348,226L346,224L344,225L343,224L342,224L341,222L339,220L339,219L340,217L341,212L342,210L342,209L343,208L344,207L345,204L345,203L343,200L343,198L338,189L335,187L333,183L332,182L332,180L331,178L330,176L329,175L328,174L327,173L326,169L324,168L320,168L318,168L315,169L301,177L296,178L272,199L273,203L272,205L272,207L271,210L271,212L272,214L274,216L275,219L276,220L276,222L276,230L276,232L277,233L277,234L282,240L282,241L282,242L283,255L284,257L293,250L299,251L302,252L305,254L308,258L310,260L305,262L305,264L318,264L321,265L322,266L324,267Z " data-fips="JM10" data-hasc="JM.SC" data-name="Saint Catherine" data-postal="SC" data-varname=""/><path d="M348,188L349,187L350,187L353,187L354,187L358,187L382,163L382,163L380,162L368,161L364,160L361,159L360,157L358,153L356,150L350,146L339,135L334,132L330,130L326,130L312,130L310,130L305,128L302,127L298,128L298,129L300,137L300,139L301,140L302,142L303,143L303,150L303,151L306,155L307,156L308,158L308,160L309,162L310,164L315,169L318,168L320,168L324,168L326,169L327,173L328,174L329,175L330,176L331,178L332,180L332,182L333,183L335,187L338,189L347,190Z " data-fips="JM13" data-hasc="JM.SM" data-name="Saint Mary" data-postal="SM" data-varname=""/><path d="M394,242L396,239L396,238L396,236L396,234L397,233L399,232L402,232L402,231L401,230L399,227L398,222L397,221L397,220L396,218L396,214L397,213L397,211L399,209L389,205L386,204L385,205L385,206L383,208L381,208L378,207L376,207L375,206L372,199L358,187L354,187L353,187L350,187L349,187L348,188L347,190L343,198L343,200L345,203L345,204L344,207L343,208L342,209L342,210L341,212L340,217L339,219L339,220L341,222L342,224L343,224L344,225L346,224L348,226L349,230L353,229L356,230L358,232L360,229L362,229L364,228L370,228L373,228L376,230L378,234L378,237L376,237L378,239L353,241L353,242L364,243L368,242L376,240L381,240L385,241L386,242L393,244Z " data-fips="JM08" data-hasc="JM.SD" data-name="Saint Andrew" data-postal="SD" data-varname=""/><path d="M441,259L448,256L452,257L456,259L460,260L464,259L468,253L472,252L471,255L470,255L469,257L473,258L478,256L486,252L498,249L500,247L494,242L489,237L486,232L478,229L475,230L467,229L464,228L463,227L461,224L460,223L459,223L452,221L444,220L439,217L438,217L436,217L435,218L433,218L429,218L428,219L427,220L426,221L424,221L423,221L420,220L409,217L408,216L406,215L405,214L403,212L399,209L397,211L397,213L396,214L396,218L397,220L397,221L398,222L399,227L401,230L402,231L402,232L399,232L397,233L396,234L396,236L396,238L396,239L394,242L393,244L393,244L395,245L396,247L397,248L399,249L401,250L401,252L402,255L403,257L405,259L407,259L409,258L411,258L423,260Z " data-fips="JM14" data-hasc="JM.ST" data-name="Saint Thomas" data-postal="ST" data-varname=""/></g></svg>