<?xml version="1.0" ?><!DOCTYPE svg  PUBLIC '-//W3C//DTD SVG 1.1//EN'  'http://www.w3.org/Graphics/SVG/1.1/DTD/svg11.dtd'><svg enable_background="new 0 0 500 401" height="401px" style="stroke-linejoin: round; stroke:#000; fill:#f6f3f0;" version="1.1" viewBox="0 0 500 401" width="500px" xmlns="http://www.w3.org/2000/svg" xmlns:xlink="http://www.w3.org/1999/xlink"><defs><style type="text/css"><![CDATA[path { fill-rule: evenodd; }
#context path { fill: #eee; stroke: #bbb; } ]]></style></defs><metadata><views><view h="401" padding="0" w="500"><proj id="laea" lat0="23.951" lon0="-102.535"/><bbox h="226.19" w="352.19" x="829.6" y="885.66"/><llbbox lat0="-90" lat1="90" lon0="-180" lon1="180"/></view></views></metadata><g id="admin1"><path d="M47,119L48,118L47,117L47,116L47,115L46,115L46,117L46,118L45,119L46,120L47,121Z M84,113L83,112L84,113L85,114Z M84,124L83,123L83,122L84,121L83,120L83,118L83,117L82,116L81,116L79,115L79,113L79,112L79,110L78,109L76,110L76,108L76,107L75,107L74,108L74,106L73,105L74,104L73,103L72,102L72,101L71,99L69,96L67,95L66,94L65,92L64,91L63,91L62,90L62,89L61,88L60,87L60,86L59,84L59,83L59,82L59,80L60,78L59,77L59,76L59,75L59,73L59,71L59,70L57,69L58,68L57,67L57,66L58,60L59,59L59,58L59,57L59,55L58,54L57,53L57,53L58,53L58,52L58,51L57,50L58,49L57,48L57,47L57,46L58,45L58,44L59,43L60,43L60,43L61,43L61,41L62,40L62,39L61,39L59,39L58,39L57,39L56,39L55,39L54,39L53,39L52,39L51,39L50,39L49,39L48,39L46,39L45,39L44,39L43,39L42,39L41,39L40,39L39,39L38,39L37,39L36,39L34,39L33,39L32,39L31,39L30,39L29,39L28,39L27,39L27,41L27,42L28,44L29,45L29,46L29,47L30,49L31,49L31,50L32,51L33,52L32,53L31,54L32,55L31,56L32,57L32,58L33,59L34,60L34,61L35,63L36,64L36,66L35,67L36,68L37,69L39,71L39,72L39,74L38,77L39,78L40,77L39,76L40,77L39,78L40,78L41,79L42,80L42,82L41,83L41,85L41,86L42,86L42,87L42,88L42,90L44,91L45,92L46,93L47,94L48,94L49,95L49,96L50,96L53,98L54,100L56,101L56,102L57,103L57,105L58,106L59,106L60,107L60,108L61,109L62,110L62,111L63,111L64,113L64,113L65,114L65,116L64,117L64,118L64,119L64,120L63,121L63,122L62,123L62,123L65,123L67,123L70,123L73,123L76,124L79,124L81,124L84,124Z M80,106L79,105L79,104L79,101L77,101L76,100L77,99L76,98L75,96L74,96L74,96L74,97L73,98L74,99L74,101L75,101L76,102L77,103L79,106Z M2,100L2,97L1,96L2,95L1,95L0,96L0,97L1,98L1,100L2,101Z " data-fips="MX02" data-hasc="MX.BN" data-name="Baja California" data-postal="BC" data-varname=""/><path d="M123,217L125,216L125,216L126,215L127,214L130,213L130,212L131,211L131,210L132,208L131,207L131,206L130,205L129,204L127,203L127,202L127,201L126,200L125,199L125,198L125,196L123,197L123,195L123,194L121,194L120,192L119,191L118,191L118,192L118,193L117,195L116,195L116,194L117,194L116,194L115,193L114,193L113,191L112,190L112,189L112,188L111,186L112,184L113,183L113,182L113,181L112,180L112,179L111,178L110,177L109,175L109,174L109,173L108,172L108,171L107,169L106,169L105,168L105,167L105,166L104,165L103,163L103,162L104,161L104,160L103,158L103,156L103,155L102,154L102,153L102,152L101,151L101,150L101,148L100,147L99,146L98,146L97,146L97,147L97,148L98,149L99,150L97,151L97,150L96,149L96,148L96,147L96,146L95,145L95,144L94,143L94,142L95,141L93,140L92,140L91,139L91,137L90,137L90,135L90,134L89,133L88,132L87,131L86,131L86,130L85,129L85,128L84,127L84,125L84,124L81,124L79,124L76,124L73,123L70,123L67,123L65,123L62,123L62,123L61,123L61,124L62,124L62,125L62,126L62,127L63,128L64,127L65,127L66,128L65,129L64,129L63,129L62,128L61,128L60,127L60,126L60,125L59,125L58,126L57,126L54,125L53,125L51,124L50,124L48,124L49,125L49,126L50,127L51,127L51,128L52,129L53,130L54,130L55,131L55,132L56,133L56,134L56,136L57,137L58,137L59,138L60,137L61,138L62,139L63,140L64,141L66,141L67,142L67,143L67,144L68,145L69,146L70,145L71,145L72,144L73,145L74,145L75,144L76,143L77,143L77,144L76,144L76,146L77,145L76,146L77,147L77,148L78,149L79,150L80,151L81,152L82,153L83,154L84,154L85,155L87,155L87,156L88,158L89,159L90,160L90,161L91,165L91,168L91,167L92,166L91,168L91,169L91,170L91,174L90,175L90,177L89,178L89,179L90,178L90,177L90,179L90,180L90,181L91,182L91,181L91,182L92,181L92,180L92,181L93,183L93,183L94,184L95,186L96,186L96,185L97,186L97,187L98,188L99,189L100,190L101,191L99,190L103,192L104,193L106,194L107,195L108,196L109,197L109,198L110,199L112,201L113,202L116,204L117,205L118,207L119,208L119,209L120,211L120,213L120,215L121,216L122,217Z M126,194L125,193L125,192L124,191L124,192L125,194L126,194Z M98,189L97,189L98,189L99,189Z M118,189L118,188L117,188L117,189L118,190Z M96,189L95,187L94,186L93,186L91,186L92,187L93,187L94,188L95,189L96,190Z M114,179L113,178L113,177L112,177L112,177L112,178L113,179L114,180L115,181Z M90,184L89,184L89,182L89,181L88,180L89,178L89,177L90,174L90,173L90,174L90,175L89,177L88,180L87,181L88,181L89,182L89,184L90,185L90,185Z M106,163L107,161L108,160L107,160L106,161L106,162L105,163L105,165Z " data-fips="MX03" data-hasc="MX.BS" data-name="Baja California Sur" data-postal="BS" data-varname=""/><path d="M269,190L270,188L270,187L270,185L270,184L270,183L270,182L269,181L270,180L271,180L272,179L273,179L274,179L275,179L276,179L277,179L278,178L278,177L277,177L276,176L275,177L274,176L273,175L272,174L271,173L273,173L272,173L271,172L270,172L270,171L269,170L268,168L269,167L268,166L267,165L267,163L266,163L265,162L265,161L264,160L263,159L264,158L265,157L266,156L267,155L268,154L270,152L270,153L270,154L271,154L272,153L273,151L273,149L273,148L273,147L272,146L271,146L270,147L269,146L269,145L269,144L270,143L271,143L272,142L273,141L274,141L275,140L275,138L275,137L276,136L277,135L278,134L279,134L280,135L281,136L282,136L283,135L283,135L284,134L284,134L283,133L283,132L282,131L282,130L281,129L280,128L280,127L278,126L277,125L277,124L276,123L276,122L275,121L275,120L274,119L273,118L273,116L272,115L271,114L271,113L271,112L270,110L269,109L269,108L267,108L267,107L266,106L265,105L264,104L263,104L262,103L262,102L261,102L260,101L259,100L259,99L258,99L257,99L256,99L252,99L251,99L250,99L248,99L247,98L246,97L245,97L244,98L244,99L241,99L240,100L239,100L239,101L238,102L238,103L237,105L237,106L237,107L236,109L235,110L234,111L233,112L232,113L231,113L230,112L230,112L229,115L227,117L226,120L225,122L224,123L224,124L223,125L223,126L222,127L222,128L221,130L220,131L220,132L220,133L220,135L221,137L222,140L222,143L223,147L224,150L224,151L224,152L225,153L225,155L226,155L227,156L229,157L230,158L230,160L230,162L229,163L229,165L229,167L229,168L229,169L230,170L229,171L228,172L227,173L227,174L227,175L228,176L227,176L226,178L227,178L228,179L228,180L230,181L230,182L230,184L231,185L232,186L234,186L235,186L236,187L237,187L237,185L238,184L238,183L239,182L240,181L240,181L241,181L242,181L244,180L245,180L246,180L248,180L249,180L250,181L251,181L253,182L253,182L254,183L255,184L256,184L257,185L257,186L256,186L257,187L258,187L259,187L260,187L261,186L262,186L263,187L264,187L264,189L265,189L267,190L268,190Z " data-fips="MX07" data-hasc="MX.CA" data-name="Coahuila" data-postal="CO" data-varname=""/><path d="M176,171L177,170L178,169L179,168L179,167L179,166L179,165L180,164L181,164L181,163L182,162L181,160L181,159L181,158L182,158L183,157L184,157L184,156L184,155L185,154L185,153L185,151L187,151L187,150L188,151L189,152L191,153L192,153L193,153L194,154L195,155L195,155L196,156L197,156L198,157L200,156L201,156L202,156L203,157L204,156L205,156L207,157L208,158L210,159L211,159L211,158L212,157L213,156L214,154L215,153L217,152L218,152L219,152L220,152L221,152L222,153L224,153L225,153L224,152L224,151L224,150L223,147L222,143L222,140L221,137L220,135L220,133L220,132L220,131L221,130L222,128L222,127L223,126L223,125L224,124L224,123L225,122L226,120L227,117L229,115L230,112L230,112L230,112L228,112L227,111L226,110L224,109L223,109L223,108L221,108L219,107L218,106L217,105L216,104L215,103L214,103L213,102L212,101L211,100L211,99L210,98L210,96L209,95L209,94L209,93L209,91L208,90L208,89L207,88L207,87L206,86L206,85L205,84L205,83L203,83L202,82L202,81L201,81L199,80L199,79L197,78L196,77L195,76L194,75L193,74L191,72L191,71L190,70L189,70L187,69L187,68L186,67L185,66L185,64L184,64L182,63L181,63L180,63L179,63L178,63L177,63L176,63L175,63L173,63L172,63L171,63L170,63L169,63L168,63L166,63L165,63L164,63L163,63L162,63L161,63L159,62L158,62L157,63L157,64L157,65L157,66L157,67L157,68L157,69L157,70L155,70L154,70L153,70L152,70L150,70L149,70L148,70L147,70L146,70L145,71L145,73L145,74L144,76L144,77L144,78L144,79L145,80L146,80L147,81L147,82L148,82L150,83L150,84L151,85L151,86L151,88L151,89L151,90L151,91L151,93L150,94L150,95L150,96L150,97L150,99L150,100L149,101L149,103L148,104L148,105L148,106L148,108L148,110L148,112L148,113L148,114L149,115L148,117L148,118L148,119L149,120L149,121L149,122L149,123L147,124L146,124L145,123L144,123L143,123L141,123L140,124L140,125L140,126L141,127L141,128L142,130L142,130L143,131L144,132L145,133L145,134L145,135L146,136L147,137L147,138L147,139L147,141L146,142L146,143L147,144L148,145L149,145L149,146L150,145L151,145L152,145L153,146L154,147L155,147L156,148L156,149L157,150L157,151L158,152L159,153L159,154L159,156L159,158L159,160L160,160L161,161L162,161L163,161L164,161L165,162L166,163L166,164L167,165L167,165L168,167L169,167L170,168L171,169L172,170L172,171L173,171L174,171Z " data-fips="MX06" data-hasc="MX.CH" data-name="Chihuahua" data-postal="CH" data-varname=""/><path d="M214,228L214,226L215,225L215,223L215,221L215,220L215,218L215,216L216,215L216,214L216,213L216,211L217,210L218,209L219,209L219,207L220,206L221,207L222,206L221,205L221,204L221,203L220,202L221,201L221,199L222,198L223,198L224,197L224,197L225,195L226,195L227,194L228,194L228,193L229,192L231,192L232,192L233,192L235,193L236,193L238,193L239,193L241,193L242,192L243,192L243,190L243,189L243,188L243,187L243,186L242,185L241,184L240,183L240,181L239,182L238,183L238,184L237,185L237,187L236,187L235,186L234,186L232,186L231,185L230,184L230,182L230,181L228,180L228,179L227,178L226,178L227,176L228,176L227,175L227,174L227,173L228,172L229,171L230,170L229,169L229,168L229,167L229,165L229,163L230,162L230,160L230,158L229,157L227,156L226,155L225,155L224,153L222,153L221,152L220,152L219,152L218,152L217,152L215,153L214,154L213,156L212,157L211,158L211,159L210,159L208,158L207,157L205,156L204,156L203,157L202,156L201,156L200,156L198,157L197,156L196,156L195,155L195,155L194,154L193,153L192,153L191,153L189,152L188,151L187,150L187,151L185,151L185,153L185,154L184,155L184,156L184,157L183,157L182,158L181,158L181,159L181,160L182,162L181,163L181,164L180,164L179,165L179,166L179,167L179,168L178,169L177,170L176,171L174,171L173,171L172,171L172,171L171,172L171,173L170,174L170,175L169,177L169,178L170,180L170,181L170,182L171,184L172,184L172,185L173,186L174,187L175,188L176,189L176,190L177,191L177,192L177,193L178,194L179,194L180,194L181,193L182,193L184,193L185,194L185,194L186,195L186,196L187,198L188,199L189,199L188,200L188,201L188,203L188,204L188,205L189,206L189,207L190,208L191,209L191,210L191,211L191,212L192,213L193,214L193,215L195,215L196,215L196,216L196,217L197,217L198,217L200,217L202,218L203,219L204,220L204,221L203,222L202,223L202,225L202,226L203,225L204,224L205,224L207,224L208,225L208,226L208,227L209,227L210,228L212,227L213,227L213,228L213,230Z " data-fips="MX10" data-hasc="MX.DU" data-name="Durango" data-postal="DG" data-varname=""/><path d="M192,225L193,226L194,226L195,226L195,224L194,223L194,223L193,222L193,221L194,220L195,219L195,218L195,217L196,217L196,216L196,215L195,215L193,215L193,214L192,213L191,212L191,211L191,210L191,209L190,208L189,207L189,206L188,205L188,204L188,203L188,201L188,200L189,199L188,199L187,198L186,196L186,195L185,194L185,194L184,193L182,193L181,193L180,194L179,194L178,194L177,193L177,192L177,191L176,190L176,189L175,188L174,187L173,186L172,185L172,184L171,184L170,182L170,181L170,180L169,178L169,177L170,175L170,174L171,173L171,172L172,171L172,171L172,170L171,169L170,168L169,167L168,167L167,165L167,165L166,164L166,163L165,162L164,161L163,161L162,161L161,161L160,160L159,160L159,158L159,156L159,154L159,153L158,152L157,151L157,150L156,149L156,148L155,147L154,147L153,146L152,145L151,145L150,145L149,146L149,147L149,148L149,149L148,150L147,151L146,151L145,152L144,153L142,154L140,155L138,157L139,158L139,159L138,157L138,158L137,158L137,158L137,158L136,160L136,159L136,159L136,159L135,160L134,161L133,163L133,164L133,165L133,166L134,167L134,168L135,167L135,168L135,169L134,169L136,169L137,170L136,169L137,169L138,170L139,170L140,169L141,169L142,168L143,167L142,168L141,169L140,170L139,170L138,171L139,172L141,172L142,172L141,171L143,171L143,171L144,173L144,174L145,174L146,175L144,174L146,175L147,175L149,177L149,178L150,177L150,178L151,178L152,178L153,179L154,179L155,181L154,181L153,180L153,182L152,181L151,180L151,181L153,184L154,184L155,182L155,181L155,182L155,183L155,184L155,185L154,185L155,186L155,187L156,189L158,190L157,189L157,188L158,188L159,190L160,190L161,191L161,190L162,190L163,192L162,193L160,191L158,190L162,193L164,194L165,195L166,196L168,198L169,199L170,200L172,203L173,204L173,205L174,206L175,207L176,208L176,209L178,210L179,212L179,213L180,214L182,216L183,216L186,221L187,221L188,222L190,225L190,226L191,226Z M142,173L141,173L140,173L141,173L143,173Z " data-fips="MX25" data-hasc="MX.SI" data-name="Sinaloa" data-postal="SI" data-varname=""/><path d="M136,159L136,159L136,158L136,159Z M137,158L138,158L138,157L138,157L137,157L137,158Z M140,155L142,154L144,153L145,152L146,151L147,151L148,150L149,149L149,148L149,147L149,146L149,145L148,145L147,144L146,143L146,142L147,141L147,139L147,138L147,137L146,136L145,135L145,134L145,133L144,132L143,131L142,130L142,130L141,128L141,127L140,126L140,125L140,124L141,123L143,123L144,123L145,123L146,124L147,124L149,123L149,122L149,121L149,120L148,119L148,118L148,117L149,115L148,114L148,113L148,112L148,110L148,108L148,106L148,105L148,104L149,103L149,101L150,100L150,99L150,97L150,96L150,95L150,94L151,93L151,91L151,90L151,89L151,88L151,86L151,85L150,84L150,83L148,82L147,82L147,81L146,80L145,80L144,79L144,78L144,77L144,76L145,74L145,73L145,71L146,70L145,70L143,70L142,70L141,70L140,69L138,69L137,69L136,69L134,69L133,69L132,69L131,69L129,69L128,69L127,69L125,69L124,69L123,69L122,68L120,68L119,68L118,68L117,68L115,68L114,68L112,67L111,66L109,66L108,65L102,62L96,60L90,57L84,54L78,52L73,49L67,46L60,43L60,43L60,43L59,43L58,44L58,45L57,46L57,47L57,48L58,49L57,50L58,51L58,52L58,53L58,54L59,55L60,55L61,56L63,56L65,59L66,60L67,60L68,61L69,62L70,62L71,61L72,60L73,60L74,61L76,63L76,65L79,66L82,66L82,67L84,67L84,68L84,70L84,71L83,70L83,72L83,73L83,75L84,78L85,81L86,82L86,83L86,84L87,85L87,86L87,88L87,90L88,91L88,92L89,93L89,95L90,95L91,97L91,98L92,99L91,100L91,101L92,102L94,102L94,103L94,105L95,106L94,107L95,108L95,108L96,109L97,110L98,111L99,112L98,112L98,113L100,116L101,117L102,118L104,119L105,119L105,120L105,121L106,122L107,124L107,124L108,126L109,127L110,127L111,127L112,128L113,129L113,128L114,127L114,128L115,128L116,128L117,129L118,129L117,130L117,131L117,132L116,133L117,135L117,137L118,138L119,138L119,139L120,140L120,141L122,142L123,142L124,142L125,143L126,143L127,144L127,146L126,145L127,146L127,148L128,149L129,150L130,151L131,150L133,150L132,150L133,150L133,151L135,151L136,153L137,154L137,155L137,157L138,156L138,157Z M93,111L93,110L94,108L94,106L93,105L93,104L93,103L91,104L90,104L90,105L89,107L90,108L89,108L89,110L90,110L91,111L92,112Z M61,56L60,55L60,57L61,57Z " data-fips="MX26" data-hasc="MX.SO" data-name="Sonora" data-postal="SO" data-varname=""/><path d="M234,252L233,250L233,249L234,248L235,248L236,248L237,247L238,248L239,246L240,246L240,244L240,243L239,243L238,242L238,241L237,239L237,238L237,237L237,236L238,235L239,234L240,233L240,231L240,230L241,230L243,230L243,229L244,229L245,228L246,228L247,229L248,229L249,230L250,230L251,231L251,232L251,234L252,234L253,235L254,236L256,236L257,237L257,237L259,237L260,236L260,235L261,235L262,234L261,232L261,231L261,230L261,229L261,228L262,228L262,226L261,225L260,225L259,225L258,225L257,226L257,227L255,227L254,227L253,227L252,226L251,224L250,224L249,223L248,221L247,220L247,219L246,218L247,217L247,215L246,214L246,213L247,213L247,211L248,211L249,212L250,212L251,211L252,210L252,209L253,208L255,207L255,206L256,205L257,205L259,204L260,203L261,201L262,201L263,200L264,198L265,197L265,196L266,194L267,193L268,192L269,192L268,190L267,190L265,189L264,189L264,187L263,187L262,186L261,186L260,187L259,187L258,187L257,187L256,186L257,186L257,185L256,184L255,184L254,183L253,182L253,182L251,181L250,181L249,180L248,180L246,180L245,180L244,180L242,181L241,181L240,181L240,181L240,183L241,184L242,185L243,186L243,187L243,188L243,189L243,190L243,192L242,192L241,193L239,193L238,193L236,193L235,193L233,192L232,192L231,192L229,192L228,193L228,194L227,194L226,195L225,195L224,197L224,197L223,198L222,198L221,199L221,201L220,202L221,203L221,204L221,205L222,206L221,207L220,206L219,207L219,209L218,209L217,210L216,211L216,213L216,214L216,215L215,216L215,218L215,220L215,221L215,223L215,225L214,226L214,228L213,230L213,231L213,230L215,230L216,229L218,229L219,229L219,228L219,226L218,226L218,224L218,223L219,222L221,222L222,223L222,224L221,225L221,226L220,227L220,228L220,230L220,231L221,232L221,230L222,228L222,226L223,225L224,225L224,226L224,227L224,229L223,230L224,231L223,232L224,233L225,233L226,233L227,232L227,231L228,230L228,229L227,228L228,227L229,227L230,228L231,229L232,230L233,230L234,231L233,232L232,232L233,233L232,234L232,235L231,236L230,236L228,236L228,237L227,238L226,239L226,240L226,241L226,243L225,243L224,244L223,244L223,246L223,247L222,248L223,249L224,249L225,250L226,249L227,250L228,250L229,251L230,251L231,252L233,252Z " data-fips="MX32" data-hasc="MX.ZA" data-name="Zacatecas" data-postal="ZA" data-varname=""/><path d="M277,213L279,213L280,213L281,213L282,213L282,212L281,211L282,211L283,211L284,210L284,209L284,208L284,206L285,205L286,204L287,204L288,204L289,204L290,203L290,202L291,201L291,200L290,199L289,199L289,198L289,196L289,195L289,193L289,192L288,191L287,191L286,190L287,189L288,189L289,189L290,188L290,187L291,186L292,186L293,185L294,186L296,186L295,185L295,184L296,183L295,182L296,181L297,181L297,180L298,181L299,181L300,180L301,179L302,179L303,178L304,177L305,176L307,174L306,174L305,174L305,172L305,171L305,169L305,167L305,166L304,165L303,164L302,164L301,164L300,164L299,165L298,164L297,163L296,163L295,163L295,162L295,161L295,160L293,160L293,159L292,158L291,158L291,157L291,156L291,155L291,154L290,153L289,153L288,152L288,151L288,150L287,150L286,149L286,149L286,148L286,146L286,144L286,143L286,142L285,141L285,140L284,139L283,139L283,137L284,136L286,136L285,135L284,134L283,135L283,135L282,136L281,136L280,135L279,134L278,134L277,135L276,136L275,137L275,138L275,140L274,141L273,141L272,142L271,143L270,143L269,144L269,145L269,146L270,147L271,146L272,146L273,147L273,148L273,149L273,151L272,153L271,154L270,154L270,153L270,152L268,154L267,155L266,156L265,157L264,158L263,159L264,160L265,161L265,162L266,163L267,163L267,165L268,166L269,167L268,168L269,170L270,171L270,172L271,172L272,173L273,173L271,173L272,174L273,175L274,176L275,177L276,176L277,177L278,177L278,178L277,179L276,179L275,179L274,179L273,179L272,179L271,180L270,180L269,181L270,182L270,183L270,184L270,185L270,187L270,188L269,190L270,191L271,193L272,194L273,195L273,196L273,198L273,200L273,201L274,203L275,204L275,205L275,206L275,207L275,209L275,210L275,211L275,212L275,213L276,214L277,214Z " data-fips="MX19" data-hasc="MX.NL" data-name="Nuevo Len" data-postal="NL" data-varname=""/><path d="M304,248L306,249L306,248L306,247L307,245L307,245L307,244L307,243L306,242L306,241L306,240L307,239L308,239L308,238L307,237L306,236L307,235L306,235L307,235L308,235L309,234L309,232L310,231L309,230L309,229L308,229L306,228L305,227L305,227L304,227L303,228L302,228L301,228L300,228L298,228L297,227L296,227L295,226L294,225L294,224L293,223L292,223L290,223L290,224L289,224L288,223L286,223L284,222L283,221L283,221L282,219L284,219L284,218L284,217L283,216L282,215L281,215L282,214L281,213L280,213L279,213L277,213L277,214L276,214L275,213L275,212L275,211L275,210L275,209L275,207L275,206L275,205L275,204L274,203L273,201L273,200L273,198L273,196L273,195L272,194L271,193L270,191L269,192L268,192L267,193L266,194L265,196L265,197L264,198L263,200L262,201L261,201L260,203L259,204L257,205L256,205L255,206L255,207L253,208L252,209L252,210L251,211L250,212L249,212L248,211L247,211L247,213L246,213L246,214L247,215L247,217L246,218L247,219L247,220L248,221L249,223L250,224L251,224L252,226L253,227L254,227L255,227L257,227L257,226L258,225L259,225L260,225L261,225L262,226L262,228L261,228L261,229L261,230L261,231L261,232L262,234L261,235L260,235L260,236L259,237L260,238L261,238L262,238L262,239L263,240L264,240L265,239L266,239L268,240L268,240L269,241L271,242L272,243L273,244L274,244L275,244L275,243L276,242L276,241L277,241L279,242L280,242L281,242L282,243L283,244L285,245L286,245L287,245L288,243L289,244L289,245L290,246L291,245L292,245L293,245L294,244L295,243L295,242L296,241L297,243L297,244L298,245L298,246L298,247L300,247L301,247L301,248L302,249L303,249Z " data-fips="MX24" data-hasc="MX.SL" data-name="San Luis Potos" data-postal="SL" data-varname=""/><path d="M319,229L318,228L318,227L318,225L318,222L317,223L318,222L318,221L318,220L319,218L319,219L319,217L319,212L319,209L319,207L319,204L319,205L318,203L317,203L319,202L319,199L319,198L320,190L322,178L324,175L325,173L326,171L326,170L327,169L327,168L327,167L327,164L326,164L325,165L324,166L323,166L322,166L321,165L320,165L319,164L318,163L316,163L315,163L314,163L313,163L312,163L311,163L310,163L309,162L308,162L307,161L306,161L305,160L304,160L303,160L302,159L301,159L301,158L299,158L298,158L297,158L296,158L296,156L296,155L295,155L294,154L294,152L293,150L293,149L292,149L291,148L291,147L290,146L290,145L290,143L289,142L289,141L290,140L289,138L289,137L288,136L287,136L286,136L286,136L284,136L283,137L283,139L284,139L285,140L285,141L286,142L286,143L286,144L286,146L286,148L286,149L286,149L287,150L288,150L288,151L288,152L289,153L290,153L291,154L291,155L291,156L291,157L291,158L292,158L293,159L293,160L295,160L295,161L295,162L295,163L296,163L297,163L298,164L299,165L300,164L301,164L302,164L303,164L304,165L305,166L305,167L305,169L305,171L305,172L305,174L306,174L307,174L305,176L304,177L303,178L302,179L301,179L300,180L299,181L298,181L297,180L297,181L296,181L295,182L296,183L295,184L295,185L296,186L294,186L293,185L292,186L291,186L290,187L290,188L289,189L288,189L287,189L286,190L287,191L288,191L289,192L289,193L289,195L289,196L289,198L289,199L290,199L291,200L291,201L290,202L290,203L289,204L288,204L287,204L286,204L285,205L284,206L284,208L284,209L284,210L283,211L282,211L281,211L282,212L282,213L282,214L281,215L282,215L283,216L284,217L284,218L284,219L282,219L283,221L283,221L284,222L286,223L288,223L289,224L290,224L290,223L292,223L293,223L294,224L294,225L295,226L296,227L297,227L298,228L300,228L301,228L302,228L303,228L304,227L305,227L305,227L306,227L307,227L308,227L309,227L311,227L311,226L312,226L313,227L314,228L315,228L316,228L317,229L317,230L318,230Z " data-fips="MX28" data-hasc="MX.TM" data-name="Tamaulipas" data-postal="TM" data-varname=""/><path d="M247,241L248,240L249,240L250,239L250,238L251,237L252,236L252,234L251,234L251,232L251,231L250,230L249,230L248,229L247,229L246,228L245,228L244,229L243,229L243,230L241,230L240,230L240,231L240,233L239,234L238,235L237,236L237,237L237,238L237,239L239,239L240,239L242,240L243,241L244,241L246,241Z " data-fips="MX01" data-hasc="MX.AG" data-name="Aguascalientes" data-postal="AG" data-varname=""/><path d="M103,289L102,288L102,286L101,287L100,288L102,289L103,289Z M222,293L223,292L223,292L224,291L225,290L225,289L226,289L226,288L226,287L226,286L226,284L226,283L225,282L225,281L224,280L223,279L222,280L221,280L220,281L219,281L219,280L217,279L216,279L216,280L215,281L215,281L214,282L213,283L212,283L210,283L209,283L209,284L208,285L210,286L211,286L212,286L213,288L214,288L214,289L216,289L218,290L222,293Z " data-fips="MX08" data-hasc="MX.CL" data-name="Colima" data-postal="CL" data-varname=""/><path d="M227,288L228,288L229,288L230,287L231,288L232,288L233,287L234,287L235,286L236,285L237,284L238,284L239,284L240,284L241,283L241,282L241,281L241,280L240,280L238,280L238,279L239,278L238,276L237,276L237,274L238,273L239,273L238,272L238,271L237,271L236,271L235,271L234,271L233,270L233,269L234,268L235,268L237,268L238,267L239,267L240,267L241,266L243,265L244,264L246,264L247,265L248,264L249,264L249,263L250,262L251,261L251,259L250,258L249,258L249,257L250,255L250,254L251,253L252,252L253,250L254,250L255,249L256,249L257,248L257,247L258,246L257,245L257,244L257,243L258,242L258,240L257,239L257,237L257,237L256,236L254,236L253,235L252,236L251,237L250,238L250,239L249,240L248,240L247,241L246,241L244,241L243,241L242,240L240,239L239,239L238,241L238,242L239,243L240,243L240,244L240,246L239,246L238,248L237,247L236,248L235,248L234,248L233,249L233,250L234,252L233,252L231,252L230,251L229,251L228,250L227,250L226,249L225,250L224,249L223,249L222,248L223,247L223,246L223,244L224,244L225,243L226,243L226,241L226,240L226,239L227,238L228,237L228,236L230,236L231,236L232,235L232,234L233,233L232,232L233,232L234,231L233,230L232,230L231,229L230,228L229,227L228,227L227,228L228,229L228,230L227,231L227,232L226,233L225,233L224,233L223,232L224,231L223,230L224,229L224,227L224,226L224,225L223,225L222,226L222,228L221,230L221,232L220,231L220,230L220,228L220,227L221,226L221,225L222,224L222,223L221,222L219,222L218,223L218,224L218,226L219,226L219,228L219,229L218,229L216,229L215,230L213,230L213,231L213,231L212,232L212,233L212,234L213,236L215,237L216,238L216,239L216,241L216,242L215,243L215,244L216,244L217,245L218,246L219,247L218,248L217,249L215,249L214,250L215,251L215,253L214,254L214,255L213,256L213,257L212,257L212,257L211,256L210,255L209,254L208,254L207,253L206,253L205,252L204,253L203,254L202,254L201,254L199,254L199,256L198,257L197,258L198,259L197,260L196,260L196,261L194,261L192,261L190,262L190,264L191,265L192,266L192,266L192,268L193,269L194,272L195,273L195,273L196,275L197,276L198,277L199,277L200,279L201,280L201,281L202,282L203,283L204,283L204,284L206,284L207,285L208,285L209,284L209,283L210,283L212,283L213,283L214,282L215,281L215,281L216,280L216,279L217,279L219,280L219,281L220,281L221,280L222,280L223,279L224,280L225,281L225,282L226,283L226,284L226,286L226,287L226,288L226,289Z " data-fips="MX14" data-hasc="MX.JA" data-name="Jalisco" data-postal="JA" data-varname=""/><path d="M248,306L248,305L248,304L248,303L249,302L250,302L251,302L252,302L252,301L253,300L253,299L253,297L253,296L253,295L255,295L256,295L257,296L258,297L259,297L260,297L262,296L263,296L267,296L268,297L269,297L271,297L272,298L273,298L272,299L273,300L274,299L274,298L273,297L272,297L272,296L272,295L271,293L271,292L271,291L272,290L273,291L274,290L274,289L275,289L276,287L276,287L277,286L278,285L278,284L279,283L278,282L279,282L281,281L281,280L281,279L280,278L280,277L281,276L281,275L281,274L281,272L282,271L281,271L281,270L281,269L280,268L278,267L277,268L277,269L277,270L277,271L276,271L275,272L274,271L273,271L272,271L271,272L270,271L269,272L267,271L267,270L267,269L266,269L265,269L264,269L263,270L262,270L261,269L260,269L260,268L260,267L261,266L260,265L259,265L258,265L257,265L257,266L256,267L255,267L254,267L252,267L252,266L251,264L250,264L251,263L249,264L248,264L247,265L246,264L244,264L243,265L241,266L240,267L239,267L238,267L237,268L235,268L234,268L233,269L233,270L234,271L235,271L236,271L237,271L238,271L238,272L239,273L238,273L237,274L237,276L238,276L239,278L238,279L238,280L240,280L241,280L241,281L241,282L241,283L240,284L239,284L238,284L237,284L236,285L235,286L234,287L233,287L232,288L231,288L230,287L229,288L228,288L227,288L226,289L225,289L225,290L224,291L223,292L223,292L222,293L222,293L222,294L223,295L224,296L225,297L226,299L227,300L228,301L229,301L230,301L232,302L233,302L235,302L236,303L239,304L242,305L244,306L247,306L248,307Z " data-fips="MX16" data-hasc="MX.MC" data-name="Michoacn" data-postal="MI" data-varname=""/><path d="M198,257L199,256L199,254L201,254L202,254L203,254L204,253L205,252L206,253L207,253L208,254L209,254L210,255L211,256L212,257L212,257L213,257L213,256L214,255L214,254L215,253L215,251L214,250L215,249L217,249L218,248L219,247L218,246L217,245L216,244L215,244L215,243L216,242L216,241L216,239L216,238L215,237L213,236L212,234L212,233L212,232L213,231L213,231L213,230L213,228L213,227L212,227L210,228L209,227L208,227L208,226L208,225L207,224L205,224L204,224L203,225L202,226L202,225L202,223L203,222L204,221L204,220L203,219L202,218L200,217L198,217L197,217L196,217L195,217L195,218L195,219L194,220L193,221L193,222L194,223L194,223L195,224L195,226L194,226L193,226L192,225L191,226L190,226L190,227L191,228L192,230L191,236L193,237L194,241L195,242L197,243L197,243L198,244L198,245L198,246L198,248L198,250L198,251L197,252L196,253L195,253L194,254L194,255L193,256L195,257L196,257L197,258Z M182,247L181,246L181,246L182,248Z M179,244L180,243L179,243L179,243L177,243L178,245Z M177,242L177,241L176,240L175,240L175,241L176,242L177,243Z " data-fips="MX18" data-hasc="MX.NA" data-name="Nayarit" data-postal="NA" data-varname=""/><path d="M434,301L435,301L439,301L443,301L446,300L450,300L454,300L457,299L461,299L465,299L465,296L465,295L466,293L466,292L466,291L466,289L466,287L465,286L464,284L464,283L465,280L464,279L465,278L465,276L465,275L465,274L465,273L463,271L461,269L460,269L459,268L458,267L457,266L457,265L456,264L455,263L454,261L453,260L452,260L451,259L450,258L450,257L448,256L448,254L446,254L446,255L444,254L444,253L443,253L441,253L441,253L440,248L440,248L439,250L439,251L439,254L440,256L439,257L439,259L440,261L440,262L440,263L440,264L438,265L437,266L437,268L437,269L437,270L437,274L436,275L435,276L434,278L432,279L431,279L430,280L426,283L425,285L426,284L426,283L427,283L429,282L428,282L427,283L426,284L427,285L428,285L429,286L428,287L430,287L429,287L428,288L427,289L426,289L425,289L425,291L426,291L424,291L423,291L422,291L420,291L420,292L419,292L420,291L419,290L418,289L417,289L418,290L417,290L416,289L417,289L418,289L419,288L418,288L416,287L414,287L412,288L410,288L409,288L409,289L410,290L410,291L411,292L412,292L414,291L414,292L415,294L415,295L415,297L416,297L417,298L418,299L419,299L420,300L421,300L423,300L424,299L424,298L424,297L426,297L427,297L428,297L429,298L430,298L432,298L433,299L434,299L434,300L434,302Z M421,287L422,287L423,286L424,285L424,285L423,285L422,286L421,287L420,288Z " data-fips="MX04" data-hasc="MX.CM" data-name="Campeche" data-postal="CM" data-varname=""/><path d="M345,344L346,344L348,344L349,344L351,343L352,342L353,341L355,340L356,340L357,339L358,339L362,338L363,337L364,336L365,335L366,335L367,334L368,334L370,334L371,333L372,333L371,333L368,333L368,332L369,331L370,330L371,330L372,331L372,332L372,333L373,332L374,331L375,331L376,331L375,333L374,334L375,334L377,334L378,334L380,334L385,336L384,335L384,335L382,334L381,334L380,334L381,334L380,334L379,333L379,332L380,333L382,333L384,333L384,334L384,334L385,333L385,332L385,331L384,330L384,329L383,328L384,326L385,325L385,324L384,322L385,322L386,321L387,320L387,319L387,318L384,316L382,316L379,316L376,316L375,316L374,316L373,316L371,316L370,316L369,316L368,315L368,314L367,313L366,312L365,312L364,310L364,309L364,308L364,307L363,308L362,308L361,309L360,309L359,310L359,311L358,311L357,311L356,312L355,311L354,310L353,308L353,307L353,306L353,305L354,304L354,302L354,301L353,301L352,300L351,300L350,300L349,301L348,300L347,300L347,299L346,298L345,297L344,296L344,294L343,294L342,293L341,293L339,292L340,293L340,294L340,295L338,297L338,298L337,299L336,299L335,300L335,301L334,302L333,302L332,301L331,301L330,301L329,301L328,303L327,304L326,304L325,303L325,302L324,302L323,301L324,299L323,298L322,299L321,300L321,301L321,302L321,303L322,304L321,305L321,305L320,306L319,305L319,304L318,304L317,304L316,304L315,304L314,306L313,306L312,306L312,307L312,308L312,309L311,310L312,312L311,313L312,313L312,314L312,315L313,317L314,317L314,318L316,318L316,319L317,320L318,321L318,323L317,323L317,324L317,326L316,327L315,327L314,327L314,328L314,329L313,329L312,330L313,331L313,332L311,333L310,333L309,334L310,334L311,335L313,335L315,336L316,336L317,336L316,336L317,336L319,338L321,338L321,339L322,340L323,340L325,340L332,340L333,341L339,343L341,344L343,344Z " data-fips="MX20" data-hasc="MX.OA" data-name="Oaxaca" data-postal="OA" data-varname=""/><path d="M313,306L314,306L315,304L316,304L317,304L318,304L319,304L319,305L320,306L321,305L321,305L322,304L321,303L321,302L321,301L321,300L322,299L323,298L324,299L323,301L324,302L325,302L325,303L326,304L327,304L328,303L329,301L330,301L331,301L332,301L333,302L334,302L335,301L335,300L336,299L337,299L338,298L338,297L338,296L337,295L337,294L335,294L334,295L333,295L332,295L332,294L332,293L331,292L330,292L329,292L328,291L329,290L329,289L330,288L330,287L329,286L329,285L329,284L330,283L331,283L333,283L333,282L333,281L332,281L331,281L330,280L329,279L328,279L327,279L328,278L327,277L327,276L327,275L328,273L328,272L328,270L329,270L330,269L330,268L331,267L330,266L328,265L327,265L326,264L325,265L325,266L324,267L323,266L322,266L321,265L320,265L320,264L320,263L321,262L322,261L323,262L324,260L323,259L322,259L321,259L321,258L320,257L320,256L320,255L318,255L318,256L317,257L317,258L317,259L317,260L316,261L315,262L314,263L313,264L312,264L312,265L313,266L314,266L315,267L315,268L314,269L314,270L313,271L313,272L314,274L314,275L315,275L316,274L316,276L317,276L318,277L319,277L319,278L319,279L321,279L321,279L322,280L323,281L322,282L321,282L320,282L319,282L319,284L318,284L317,284L316,283L316,284L314,285L313,285L313,284L312,283L311,283L311,282L310,281L309,280L309,279L307,279L306,279L306,280L306,281L306,282L306,284L306,285L306,286L306,287L306,288L306,289L306,290L305,291L306,292L306,293L305,293L305,294L305,295L306,296L305,297L305,296L303,296L303,297L302,297L301,298L300,299L300,299L300,300L301,301L302,301L302,302L304,303L304,304L306,305L307,305L308,305L309,305L310,305L311,306L312,306Z " data-fips="MX21" data-hasc="MX.PU" data-name="Puebla" data-postal="PU" data-varname=""/><path d="M392,311L392,310L393,309L393,308L394,307L394,306L395,305L395,304L395,303L396,301L397,301L398,301L398,301L399,302L400,302L401,302L401,304L401,305L401,306L401,308L402,309L403,309L404,310L404,311L405,311L407,311L407,310L408,309L409,308L410,307L411,306L412,305L413,304L414,304L415,303L416,303L417,302L418,301L419,301L420,301L421,301L421,302L422,304L423,304L423,305L424,306L424,307L425,308L426,308L427,309L428,310L428,311L428,312L428,312L435,311L434,302L434,300L434,299L433,299L432,298L430,298L429,298L428,297L427,297L426,297L424,297L424,298L424,299L423,300L421,300L420,300L419,299L418,299L417,298L416,297L415,297L415,295L415,294L414,292L414,291L412,292L411,292L410,291L410,290L409,289L409,288L408,288L407,289L405,290L406,291L406,292L405,290L404,291L403,292L401,292L398,293L399,294L398,295L397,294L398,293L395,293L393,293L390,294L387,295L387,296L388,295L389,295L390,294L391,294L391,295L389,295L388,296L387,297L386,296L384,297L382,298L382,298L382,299L383,300L383,301L383,302L383,303L384,304L385,304L385,306L386,306L387,306L388,307L389,308L390,308L391,309L391,310L391,311L392,312Z " data-fips="MX32" data-hasc="MX.TB" data-name="Tabasco" data-postal="TB" data-varname=""/><path d="M314,285L316,284L316,283L317,284L318,284L319,284L319,282L320,282L321,282L322,282L323,281L322,280L321,279L321,279L319,279L319,278L319,277L318,277L317,276L316,276L316,274L315,275L314,275L314,275L312,274L312,275L311,276L310,276L309,276L308,276L307,276L305,277L306,278L307,279L309,279L309,280L310,281L311,282L311,283L312,283L313,284L313,285Z " data-fips="MX29" data-hasc="MX.TL" data-name="Tlaxcala" data-postal="TL" data-varname=""/><path d="M301,285L301,284L301,283L301,282L300,281L299,280L299,279L299,278L298,278L298,279L297,280L296,281L295,281L295,283L295,284L296,285L297,285L298,286L299,286L300,286Z " data-fips="MX09" data-hasc="MX.DF" data-name="Distrito Federal" data-postal="DF" data-varname=""/><path d="M276,271L277,271L277,270L277,269L277,268L278,267L278,266L277,265L277,264L276,263L276,262L275,261L275,260L274,259L274,257L275,256L275,255L275,254L276,253L277,254L278,254L279,254L280,254L281,255L282,254L282,253L282,252L282,250L283,249L284,249L285,250L287,250L287,249L288,248L287,247L287,246L286,245L285,245L283,244L282,243L281,242L280,242L279,242L277,241L276,241L276,242L275,243L275,244L274,244L273,244L272,243L271,242L269,241L268,240L268,240L266,239L265,239L264,240L263,240L262,239L262,238L261,238L260,238L257,239L258,240L258,242L257,243L257,244L257,245L258,246L257,247L257,248L256,249L255,249L254,250L253,250L252,252L251,253L250,254L250,255L249,257L249,258L250,258L251,259L251,261L250,262L249,263L249,264L251,263L250,264L251,264L252,266L252,267L254,267L255,267L256,267L257,266L257,265L258,265L259,265L260,265L261,266L260,267L260,268L260,269L261,269L262,270L263,270L264,269L265,269L266,269L267,269L267,270L267,271L269,272L270,271L271,272L272,271L273,271L274,271L275,272Z " data-fips="MX11" data-hasc="MX.GJ" data-name="Guanajuato" data-postal="GJ" data-varname=""/><path d="M310,333L311,333L313,332L313,331L312,330L313,329L314,329L314,328L314,327L315,327L316,327L317,326L317,324L317,323L318,323L318,321L317,320L316,319L316,318L314,318L314,317L313,317L312,315L312,314L312,313L311,313L312,312L311,310L312,309L312,308L312,307L312,306L311,306L310,305L309,305L308,305L307,305L306,305L304,304L304,303L302,302L302,301L301,301L300,300L300,299L300,299L299,298L299,297L298,296L297,295L297,296L296,297L295,297L294,296L294,295L293,294L291,293L291,292L290,292L289,292L288,293L287,294L286,294L285,294L284,294L283,294L282,295L282,296L281,297L280,298L279,298L278,298L278,297L278,296L277,295L277,293L277,292L277,291L276,290L275,290L274,290L273,291L272,290L271,291L271,292L271,293L272,295L272,296L272,297L273,297L274,298L274,299L273,300L272,299L273,298L272,298L271,297L269,297L268,297L267,296L263,296L262,296L260,297L259,297L258,297L257,296L256,295L255,295L253,295L253,296L253,297L253,299L253,300L252,301L252,302L251,302L250,302L249,302L248,303L248,304L248,305L248,306L248,307L249,306L250,306L252,306L253,307L254,308L255,309L256,310L257,311L258,312L259,312L260,314L261,314L263,315L265,316L266,317L267,318L268,318L270,319L272,320L273,320L275,321L279,322L282,324L283,324L284,324L286,325L287,325L287,326L288,327L289,327L291,328L292,328L296,328L297,329L299,329L302,330L304,330L304,330L306,330L307,332L309,334Z " data-fips="MX12" data-hasc="MX.GR" data-name="Guerrero" data-postal="GR" data-varname=""/><path d="M312,275L312,274L314,275L314,275L314,274L313,272L313,271L314,270L314,269L315,268L315,267L314,266L313,266L312,265L312,264L313,264L314,263L315,262L316,261L316,260L316,259L316,258L315,257L314,258L313,259L312,260L312,261L311,262L310,262L309,263L308,263L307,262L307,261L308,260L308,259L309,258L309,256L308,256L309,256L309,255L310,254L311,255L312,254L312,253L313,252L314,251L313,250L313,249L311,249L311,248L310,249L309,249L308,248L308,247L308,246L307,245L307,245L306,247L306,248L306,249L304,248L303,249L302,249L301,248L301,247L300,247L299,248L298,249L297,249L296,250L294,250L294,251L294,252L293,253L293,254L292,255L292,256L291,257L291,259L291,259L290,260L289,260L288,261L286,261L286,262L286,263L286,265L286,265L287,265L288,266L289,267L290,267L291,268L292,269L292,270L292,271L292,271L293,272L294,273L294,274L295,273L296,273L297,272L297,271L298,270L299,270L300,269L301,270L301,271L301,272L301,273L302,273L303,272L304,272L305,272L306,273L307,274L307,275L306,276L307,276L308,276L309,276L310,276L311,276Z " data-fips="MX13" data-hasc="MX.HI" data-name="Hidalgo" data-postal="HG" data-varname=""/><path d="M280,298L281,297L282,296L282,295L283,294L284,294L285,294L286,294L287,294L288,293L289,292L290,292L291,292L291,293L292,293L293,292L293,291L294,290L294,289L295,289L295,288L295,287L295,286L296,285L295,284L295,283L295,281L296,281L297,280L298,279L298,278L299,278L299,279L299,280L300,281L301,282L301,283L301,284L301,285L301,286L302,286L303,287L304,288L305,288L306,287L306,287L306,286L306,285L306,284L306,282L306,281L306,280L306,279L306,278L305,277L306,276L307,275L307,274L306,273L305,272L304,272L303,272L302,273L301,273L301,272L301,271L301,270L300,269L299,270L298,270L297,271L297,272L296,273L295,273L294,274L294,273L293,272L292,271L292,271L292,270L292,269L291,268L290,267L289,267L288,266L287,265L286,265L286,265L286,265L285,266L285,267L284,267L284,268L283,269L282,270L282,271L281,272L281,274L281,275L281,276L280,277L280,278L281,279L281,280L281,281L279,282L278,282L279,283L278,284L278,285L277,286L276,287L276,287L275,289L274,289L274,290L275,290L276,290L277,291L277,292L277,293L277,295L278,296L278,297L278,298L279,298Z " data-fips="MX15" data-hasc="MX.MX" data-name="Mxico" data-postal="MX" data-varname=""/><path d="M301,298L302,297L303,297L303,296L305,296L305,297L306,296L305,295L305,294L305,293L306,293L306,292L305,291L306,290L306,289L306,288L306,287L306,287L305,288L304,288L303,287L302,286L301,286L300,286L299,286L298,286L297,285L296,285L295,286L295,287L295,288L295,289L294,289L294,290L293,291L293,292L292,293L293,294L294,295L294,296L295,297L296,297L297,296L297,295L298,296L299,297L299,298L300,299Z " data-fips="MX17" data-hasc="MX.MR" data-name="Morelos" data-postal="MO" data-varname=""/><path d="M282,270L283,269L284,268L284,267L285,267L285,266L286,265L286,265L286,263L286,262L286,261L288,261L289,260L290,260L291,259L291,259L291,257L292,256L292,255L293,254L293,253L294,252L294,251L294,250L296,250L297,249L298,249L299,248L298,247L298,246L298,245L297,244L297,243L296,241L295,242L295,243L294,244L293,245L292,245L291,245L290,246L289,245L289,244L288,243L287,245L287,246L287,247L288,248L287,249L287,250L285,250L284,249L283,249L282,250L282,252L282,253L282,254L281,255L280,254L279,254L278,254L277,254L276,253L275,254L275,255L275,256L274,257L274,259L275,260L275,261L276,262L276,263L277,264L277,265L278,266L280,268L281,269L281,270L281,271L282,271Z " data-fips="MX22" data-hasc="MX.QE" data-name="Quertaro" data-postal="QT" data-varname=""/><path d="M388,316L389,315L390,314L391,313L392,312L391,311L391,310L391,309L390,308L389,308L388,307L387,306L386,306L385,306L385,304L384,304L383,303L383,302L383,301L383,300L382,299L382,298L382,298L381,298L378,299L377,299L376,299L374,299L373,297L372,295L370,293L369,293L367,293L366,292L365,291L364,290L362,290L361,290L359,290L357,290L356,290L355,290L356,290L357,291L356,290L353,290L352,290L354,290L352,289L352,288L353,289L354,289L353,289L352,288L352,287L351,286L351,285L349,284L349,284L348,282L347,282L346,280L345,280L345,278L345,277L344,276L343,274L343,273L342,271L341,270L340,268L339,267L338,265L337,264L336,264L335,262L334,262L333,261L332,260L330,258L330,256L329,255L328,253L327,250L326,248L325,247L324,244L324,243L323,243L321,240L321,238L320,237L320,235L320,234L319,233L321,236L322,238L323,239L324,240L325,241L326,242L326,243L325,244L325,245L326,246L326,245L327,244L327,242L326,241L325,240L324,239L322,237L319,232L319,229L318,230L317,230L317,229L316,228L315,228L314,228L313,227L312,226L311,226L311,227L309,227L308,227L307,227L306,227L305,227L306,228L308,229L309,229L309,230L310,231L309,232L309,234L308,235L307,235L306,235L307,235L306,236L307,237L308,238L308,239L307,239L306,240L306,241L306,242L307,243L307,244L307,245L308,246L308,247L308,248L309,249L310,249L311,248L311,249L313,249L313,250L314,251L313,252L312,253L312,254L311,255L310,254L309,255L309,256L308,256L309,256L309,258L308,259L308,260L307,261L307,262L308,263L309,263L310,262L311,262L312,261L312,260L313,259L314,258L315,257L316,258L316,259L316,260L317,260L317,259L317,258L317,257L318,256L318,255L320,255L320,256L320,257L321,258L321,259L322,259L323,259L324,260L323,262L322,261L321,262L320,263L320,264L320,265L321,265L322,266L323,266L324,267L325,266L325,265L326,264L327,265L328,265L330,266L331,267L330,268L330,269L329,270L328,270L328,272L328,273L327,275L327,276L327,277L328,278L327,279L328,279L329,279L330,280L331,281L332,281L333,281L333,282L333,283L331,283L330,283L329,284L329,285L329,286L330,287L330,288L329,289L329,290L328,291L329,292L330,292L331,292L332,293L332,294L332,295L333,295L334,295L335,294L337,294L337,295L338,296L340,295L340,294L340,293L339,292L341,293L342,293L343,294L344,294L344,296L345,297L346,298L347,299L347,300L348,300L349,301L350,300L351,300L352,300L353,301L354,301L354,302L354,304L353,305L353,306L353,307L353,308L354,310L355,311L356,312L357,311L358,311L359,311L359,310L360,309L361,309L362,308L363,308L364,307L364,308L364,309L364,310L365,312L366,312L367,313L368,314L368,315L369,316L370,316L371,316L373,316L374,316L375,316L376,316L379,316L382,316L384,316Z M322,238L321,237L321,237L321,238L322,238Z " data-fips="MX30" data-hasc="MX.VE" data-name="Veracruz" data-postal="VE" data-varname=""/><path d="M385,336L384,335L385,336L386,336Z M418,359L418,357L418,356L417,355L418,354L418,353L419,352L419,351L417,348L417,346L418,345L419,343L419,342L420,340L421,338L422,336L423,334L424,333L425,333L427,333L429,332L432,332L434,332L436,332L439,332L441,332L443,331L445,331L446,330L445,329L445,328L446,327L446,326L445,325L444,324L443,324L442,324L441,323L441,322L441,321L440,320L438,319L437,318L436,317L435,317L434,317L433,316L432,315L431,314L431,313L430,313L429,312L428,312L428,311L428,310L427,309L426,308L425,308L424,307L424,306L423,305L423,304L422,304L421,302L421,301L420,301L419,301L418,301L417,302L416,303L415,303L414,304L413,304L412,305L411,306L410,307L409,308L408,309L407,310L407,311L405,311L404,311L404,310L403,309L402,309L401,308L401,306L401,305L401,304L401,302L400,302L399,302L398,301L398,301L397,301L396,301L395,303L395,304L395,305L394,306L394,307L393,308L393,309L392,310L392,311L392,312L391,313L390,314L389,315L388,316L387,318L387,319L387,320L386,321L385,322L384,322L385,324L385,325L384,326L383,328L384,329L384,330L385,331L385,332L385,333L384,334L384,334L385,334L388,335L388,336L387,336L390,338L392,339L395,341L399,344L400,345L402,347L404,348L405,349L406,349L407,350L407,351L406,350L409,353L412,356L414,358L416,359L417,360Z " data-fips="MX05" data-hasc="MX.CP" data-name="Chiapas" data-postal="CS" data-varname=""/><path d="M469,296L471,295L471,294L472,293L472,292L473,291L473,290L474,289L474,288L474,286L475,286L477,286L478,286L479,285L479,283L479,282L479,281L479,282L479,281L480,281L481,280L482,279L482,280L482,282L482,283L482,284L482,285L483,286L484,286L485,287L485,288L485,289L486,290L486,289L486,287L487,286L487,285L487,284L487,282L487,281L488,280L488,277L488,275L489,274L489,272L489,271L490,270L489,270L488,271L488,272L487,271L487,270L488,268L489,268L490,268L491,267L490,265L489,265L490,265L489,266L487,266L487,267L486,266L485,265L485,264L487,264L487,263L487,262L488,261L489,261L489,259L489,258L490,259L490,260L489,261L490,260L490,259L489,258L489,256L489,254L490,253L490,252L492,249L493,248L494,247L495,245L496,243L497,242L498,241L498,239L498,238L498,237L499,236L498,235L497,233L497,232L497,231L496,231L495,231L494,229L493,229L492,229L490,230L489,230L488,231L489,231L490,230L491,230L492,230L491,231L490,232L488,232L486,232L485,232L485,232L486,236L485,237L485,238L486,240L486,241L486,243L486,244L485,246L485,247L484,247L482,249L481,250L480,251L478,251L477,251L476,252L475,253L475,254L475,254L474,254L474,255L472,256L471,257L470,258L469,258L468,259L467,260L465,261L463,262L462,262L461,263L459,264L458,264L458,266L458,267L459,268L460,269L461,269L463,271L465,273L465,274L465,275L465,276L465,278L464,279L465,280L464,283L464,284L465,286L466,287L466,289L466,291L466,292L466,293L465,295L465,296L465,296L467,295L468,296L468,297Z M498,251L498,250L499,249L499,248L500,247L499,247L498,247L497,247L496,248L496,250L496,251L497,252Z " data-fips="MX23" data-hasc="MX.QR" data-name="Quintana Roo" data-postal="QR" data-varname=""/><path d="M458,266L458,264L459,264L461,263L462,262L463,262L465,261L467,260L468,259L469,258L470,258L471,257L472,256L474,255L474,254L475,254L475,254L475,253L476,252L477,251L478,251L480,251L481,250L482,249L484,247L485,247L485,246L486,244L486,243L486,241L486,240L485,238L485,237L486,236L485,232L485,232L485,232L484,232L483,232L482,232L480,231L482,231L483,231L482,231L479,231L478,230L477,231L475,231L474,231L475,231L476,231L475,231L473,232L472,232L471,232L469,232L468,233L467,234L464,235L463,235L462,236L460,236L459,237L458,237L455,238L453,238L451,238L449,239L447,240L446,241L445,241L444,242L443,243L441,245L440,248L440,247L441,246L441,247L440,248L441,253L441,253L443,253L444,253L444,254L446,255L446,254L448,254L448,256L450,257L450,258L451,259L452,260L453,260L454,261L455,263L456,264L457,265L457,266L458,267Z " data-fips="MX31" data-hasc="MX.YU" data-name="Yucatn" data-postal="YU" data-varname=""/></g></svg>