<?xml version="1.0" ?><!DOCTYPE svg  PUBLIC '-//W3C//DTD SVG 1.1//EN'  'http://www.w3.org/Graphics/SVG/1.1/DTD/svg11.dtd'><svg enable_background="new 0 0 500 401" height="401px" style="stroke-linejoin: round; stroke:#000; fill:#f6f3f0;" version="1.1" viewBox="0 0 500 401" width="500px" xmlns="http://www.w3.org/2000/svg" xmlns:xlink="http://www.w3.org/1999/xlink"><defs><style type="text/css"><![CDATA[path { fill-rule: evenodd; }
#context path { fill: #eee; stroke: #bbb; } ]]></style></defs><metadata><views><view h="401" padding="0" w="500"><proj id="laea" lat0="8.384" lon0="-80.92"/><bbox h="29.88" w="71.96" x="973.94" y="984.66"/><llbbox lat0="-90" lat1="90" lon0="-180" lon1="180"/></view></views></metadata><g id="admin1"><path d="M118,235L120,234L120,233L121,232L123,224L124,222L126,220L130,215L131,214L131,211L131,209L130,206L130,203L128,202L124,203L123,205L121,208L121,210L119,211L117,211L116,210L114,210L114,211L112,213L108,212L105,210L104,208L102,207L94,207L90,206L88,203L88,201L86,199L85,197L84,195L82,195L81,196L78,197L76,197L74,196L75,194L77,187L77,186L76,184L77,182L78,175L76,170L72,169L71,169L68,169L66,168L64,168L63,167L59,166L52,162L48,161L45,161L44,159L43,158L41,158L37,157L31,158L29,156L27,158L25,159L16,163L15,164L14,165L15,166L15,167L14,168L12,169L11,170L11,171L12,172L12,174L15,177L16,179L17,181L18,183L19,189L18,192L17,195L16,197L13,198L11,199L8,200L6,202L5,204L0,207L0,208L1,209L4,210L4,212L5,212L7,212L9,213L9,213L10,216L14,226L14,230L13,232L15,233L16,232L16,231L17,229L15,223L15,220L15,216L16,213L18,211L21,209L27,208L30,207L34,207L37,208L43,210L46,211L48,211L49,211L51,210L50,209L50,208L52,207L52,206L53,205L53,206L54,207L52,208L53,209L54,210L55,210L57,210L59,209L60,208L60,206L61,207L63,207L64,206L66,206L65,207L66,208L67,209L69,209L71,206L72,206L74,206L72,207L71,208L71,209L71,210L71,211L71,212L72,215L71,216L72,217L73,218L75,218L76,217L77,217L76,218L77,220L76,222L79,217L80,215L81,216L84,217L87,217L88,216L90,218L92,218L92,217L93,216L94,215L95,215L94,217L93,219L94,219L96,219L100,221L107,223L108,225L109,224L111,222L110,221L110,220L111,219L111,220L112,222L114,224L116,229L115,229L114,229L113,229L114,230L114,231L114,232L115,233L115,232L116,230L116,231L117,235L118,235Z M60,227L61,227L62,226L62,224L61,224L60,224L59,225L59,226L59,228Z M68,218L68,217L70,217L71,218L71,217L69,216L67,216L66,215L63,216L63,217L64,218L66,219L69,220Z M58,216L61,215L63,214L60,212L63,212L63,211L62,210L60,210L55,213L53,213L53,214L54,215L56,216L57,217Z " data-fips="PM02" data-hasc="PA.CH" data-name="Chiriqu" data-postal="CH" data-varname=""/><path d="M219,226L219,218L219,216L225,211L226,210L226,209L227,208L227,209L228,210L231,210L233,210L234,209L236,210L240,209L243,208L248,205L252,203L256,201L252,196L251,195L251,190L250,188L250,184L250,181L250,180L247,170L245,164L245,162L245,160L246,159L248,156L246,153L245,152L245,151L244,148L243,145L242,147L241,150L240,151L239,152L238,153L231,159L230,160L228,160L226,160L224,159L223,159L215,156L214,157L213,160L213,161L214,162L214,165L214,166L213,167L212,168L211,169L209,169L207,169L205,169L204,169L203,171L202,172L201,174L200,176L200,177L200,178L200,180L199,181L198,183L196,182L195,185L193,188L190,188L189,189L191,191L193,193L195,197L198,205L200,209L200,211L199,216L197,220L197,221L201,224L203,225L204,224L207,223L209,223L210,224L212,225L213,226L214,225L215,226L217,227L219,227Z " data-fips="PM03" data-hasc="PA.CC" data-name="Cocl" data-postal="CC" data-varname=""/><path d="M199,181L200,180L200,178L200,177L200,176L201,174L202,172L203,171L204,169L205,169L207,169L209,169L211,169L212,168L213,167L214,166L214,165L214,162L213,161L213,160L214,157L215,156L223,159L224,159L226,160L228,160L230,160L231,159L238,153L239,152L240,151L241,150L242,147L243,145L244,148L245,151L245,152L246,153L251,151L255,152L257,152L260,151L263,150L263,149L264,147L264,146L263,145L263,144L262,142L266,134L267,133L268,133L271,134L273,134L274,135L275,136L277,138L278,139L280,140L284,140L285,139L287,138L289,135L290,133L291,132L292,131L294,131L295,131L296,129L295,128L295,127L296,125L297,122L297,121L297,119L297,118L299,110L302,109L306,108L308,109L310,110L311,111L312,113L311,113L310,114L310,115L311,115L313,115L316,115L317,114L319,114L321,114L322,116L321,117L323,117L323,119L323,120L323,121L323,122L325,120L327,119L329,118L330,118L331,117L332,116L332,113L334,111L335,111L336,111L337,110L337,103L336,102L335,103L333,103L331,102L330,103L326,104L323,103L320,102L317,101L309,100L307,99L306,99L305,98L304,100L303,100L301,99L300,100L299,100L298,99L299,98L299,97L298,96L295,98L293,98L292,98L291,98L290,99L288,100L287,101L286,102L287,102L289,102L288,103L285,107L283,109L282,109L282,110L280,111L278,112L276,113L276,115L276,116L276,117L276,119L275,118L274,117L272,117L271,116L270,117L269,118L269,120L267,120L267,121L266,123L264,123L263,121L264,118L261,119L259,122L257,124L255,126L250,130L248,132L245,133L242,134L238,134L235,136L234,136L227,138L216,141L213,142L205,146L204,146L202,147L199,150L196,151L195,152L194,153L194,153L193,155L191,157L190,158L189,159L188,160L186,160L186,160L186,163L187,164L188,165L188,165L190,166L191,167L193,168L194,168L196,170L197,171L197,173L197,174L196,175L196,176L196,178L197,179L198,180L196,182L198,183Z " data-fips="PM04" data-hasc="PA.CL" data-name="Coln" data-postal="CL" data-varname=""/><path d="M203,271L208,264L209,264L210,263L211,262L212,260L212,258L212,257L211,255L210,253L210,251L210,250L212,250L213,249L214,248L216,243L217,242L220,241L223,241L224,241L225,240L226,239L227,237L227,235L227,235L226,235L222,233L221,233L220,232L220,230L219,229L219,227L217,227L215,226L214,225L213,226L212,225L210,224L209,223L207,223L204,224L203,225L201,224L198,224L196,224L194,226L193,228L190,229L187,230L188,234L188,235L187,237L186,238L184,240L182,242L180,242L179,244L179,253L179,255L181,255L182,255L183,256L183,258L184,260L185,261L191,271L194,273L196,273L198,276Z " data-fips="PM06" data-hasc="PA.HE" data-name="Herrera" data-postal="HE" data-varname=""/><path d="M209,301L220,299L222,300L223,299L223,297L225,297L226,295L226,295L228,294L230,293L229,290L229,288L231,287L237,284L236,284L234,285L233,284L236,284L237,283L238,284L240,285L241,285L242,284L248,284L254,282L257,282L258,281L260,278L260,276L259,274L255,266L247,256L242,252L234,245L233,243L231,239L230,236L227,235L227,237L226,239L225,240L224,241L223,241L220,241L217,242L216,243L214,248L213,249L212,250L210,250L210,251L210,253L211,255L212,257L212,258L212,260L211,262L210,263L209,264L208,264L203,271L198,276L198,278L198,282L200,286L202,289L203,291L203,292L202,293L205,294L206,295L207,296L208,298L208,301Z " data-fips="PM07" data-hasc="PA.LS" data-name="Los Santos" data-postal="LS" data-varname=""/><path d="M336,216L336,215L337,213L339,213L338,212L335,208L334,209L334,210L334,212L334,213L333,213L333,214L334,216L334,217Z M338,202L337,200L336,200L335,199L334,200L335,201L336,202L337,203Z M394,200L392,195L392,194L391,191L391,189L391,188L390,187L390,186L390,183L391,180L391,178L391,177L392,176L392,174L392,173L392,170L390,165L390,164L391,163L395,162L396,162L398,162L400,164L401,165L403,165L404,164L405,162L405,161L408,160L410,160L411,160L413,160L414,159L415,157L417,156L418,155L420,155L422,153L421,152L421,151L422,148L422,147L423,146L424,143L425,142L422,139L421,138L415,137L415,136L416,135L416,134L415,132L414,131L413,132L412,132L411,132L408,132L406,132L405,131L404,129L404,127L403,127L400,128L399,128L397,128L395,128L393,127L393,126L393,125L392,124L391,123L390,122L389,121L388,122L387,122L386,120L385,119L383,119L382,120L378,121L377,122L375,121L374,121L371,118L369,117L368,117L367,119L367,119L365,119L363,117L362,117L361,118L360,118L357,118L356,118L354,118L352,120L350,119L349,120L349,121L347,121L346,121L343,122L343,123L344,125L343,125L339,125L337,125L336,124L334,123L333,123L331,122L330,123L329,123L323,125L320,125L320,123L321,122L323,121L323,120L323,119L323,117L321,117L322,116L321,114L319,114L317,114L316,115L313,115L311,115L310,115L310,114L311,113L312,113L311,111L310,110L308,109L306,108L302,109L299,110L297,118L297,119L297,121L297,122L296,125L295,127L295,128L296,129L295,131L294,131L292,131L291,132L290,133L289,135L287,138L285,139L284,140L280,140L278,139L277,138L275,136L274,135L273,134L271,134L268,133L267,133L266,134L262,142L263,144L263,145L264,146L264,147L263,149L263,150L260,151L257,152L255,152L251,151L248,156L246,159L245,160L245,162L245,164L247,170L250,180L250,181L250,184L250,188L251,190L251,195L252,196L256,201L262,197L264,195L265,193L267,192L268,191L270,190L270,189L275,187L277,186L278,186L280,184L281,183L278,183L273,180L277,179L277,178L278,178L279,177L280,177L281,175L281,174L281,173L280,172L280,167L280,165L281,164L282,163L283,162L285,162L284,160L285,161L287,161L288,161L288,160L289,159L293,159L295,159L296,158L296,157L296,154L296,153L297,154L298,156L299,157L300,158L300,157L299,154L300,154L300,152L302,150L303,149L304,149L305,149L307,148L309,149L311,148L316,148L318,148L321,147L327,149L329,148L329,147L330,148L333,149L334,150L335,149L336,147L336,146L336,144L335,144L333,143L334,142L335,141L337,141L338,140L339,138L340,138L340,139L342,139L343,138L344,137L346,137L344,138L343,138L340,140L339,138L339,140L338,141L336,142L335,143L336,143L337,144L337,145L337,148L336,149L337,150L339,152L343,153L354,158L355,160L355,161L356,163L358,165L360,165L361,164L362,163L361,162L361,161L362,161L362,162L363,163L364,164L364,165L365,166L367,170L368,171L371,171L373,174L375,172L376,173L376,171L376,170L376,168L377,170L377,172L377,173L375,174L376,176L377,178L379,177L380,178L381,177L381,179L386,180L386,183L386,184L388,185L387,186L385,185L384,185L385,186L387,190L388,191L387,194L387,195L387,196L389,198L389,197L390,196L391,197L391,198L391,200L391,201L392,202L394,204Z M354,215L353,215L352,213L351,210L352,210L353,208L353,209L355,209L356,209L357,208L358,206L358,205L358,202L358,201L357,200L356,198L356,197L355,195L354,195L353,196L352,195L348,196L347,197L347,199L348,202L348,203L347,204L348,205L349,206L349,208L347,207L347,209L348,210L350,211L351,212L351,214L352,215Z " data-fips="PM08" data-hasc="PA.SB" data-name="Panama" data-postal="SB" data-varname=""/><path d="M107,299L108,297L109,296L107,296L106,296L106,296L105,296L105,298L106,300Z M121,293L123,293L124,292L121,287L119,287L118,287L117,287L116,286L115,285L114,283L113,282L114,279L117,277L117,275L116,275L114,275L114,273L113,272L113,271L111,266L111,266L110,266L110,268L109,268L106,270L105,270L104,271L104,273L103,274L101,276L99,277L100,279L101,280L103,284L106,287L108,288L110,290L111,291L112,291L116,292L119,293Z M156,278L157,279L159,278L160,277L162,276L163,275L164,274L165,274L166,275L168,275L169,275L170,274L170,273L171,272L169,272L168,271L167,271L164,272L163,272L162,273L161,274L160,275L159,275L156,276L155,276L154,277L154,278L153,279Z M188,302L189,303L190,302L192,303L199,302L208,301L208,298L207,296L206,295L205,294L202,293L203,292L203,291L202,289L200,286L198,282L198,278L198,276L196,273L194,273L191,271L185,261L184,260L183,258L183,256L182,255L181,255L179,255L179,253L179,244L180,242L182,242L184,240L186,238L187,237L188,235L188,234L187,230L190,229L193,228L194,226L196,224L198,224L201,224L197,221L197,220L199,216L200,211L200,209L198,205L195,197L193,193L191,191L189,189L190,188L193,188L195,185L196,182L198,180L197,179L196,178L196,176L196,175L197,174L197,173L197,171L196,170L194,168L193,168L191,167L190,166L188,165L188,165L187,164L186,163L186,160L186,160L184,160L172,165L170,165L168,166L167,166L164,167L161,168L156,168L156,168L155,170L156,177L156,182L156,185L157,187L158,189L159,190L160,191L161,193L159,193L157,193L155,192L152,191L150,190L146,187L143,188L139,187L139,186L138,186L135,185L133,184L133,187L132,191L130,196L130,197L130,198L130,203L130,206L131,209L131,211L131,214L130,215L126,220L124,222L123,224L121,232L120,233L120,234L118,235L118,235L119,237L120,239L120,240L121,239L121,238L122,237L123,236L122,237L122,239L123,240L124,242L122,242L122,243L121,245L123,245L123,246L123,246L123,247L124,247L125,247L126,248L124,251L124,252L125,253L126,254L125,256L126,256L128,257L129,256L133,257L132,258L129,259L130,260L131,261L134,261L136,260L137,262L138,262L138,263L141,263L148,265L150,265L151,266L152,267L155,269L156,268L157,267L158,266L157,265L158,261L157,260L156,260L155,261L154,260L153,259L155,260L156,259L154,257L153,256L155,256L156,256L155,258L156,259L158,257L159,256L160,253L159,250L159,248L157,248L156,246L157,245L156,244L157,244L158,246L158,247L160,248L161,248L163,249L167,248L166,247L166,246L167,247L168,246L170,243L170,248L170,250L173,249L172,250L171,251L169,251L168,252L167,253L167,254L168,255L169,256L170,257L172,257L170,259L171,260L172,261L174,262L172,262L171,263L171,264L173,265L177,269L176,270L177,271L178,272L179,273L178,275L178,277L177,278L178,279L181,282L182,283L181,286L181,287L183,289L183,290L183,292L183,293L182,294L181,295L181,297L180,298L181,299L183,300L184,300L185,303L186,303Z " data-fips="PM10" data-hasc="PA.VR" data-name="Veraguas" data-postal="VR" data-varname=""/><path d="M445,279L447,279L448,279L450,278L451,277L452,274L452,273L450,269L449,266L449,263L449,259L452,259L456,262L457,263L457,265L458,265L460,268L461,269L462,274L463,275L465,274L467,273L471,269L483,261L485,259L485,257L483,256L482,253L482,252L484,249L487,244L488,242L491,241L494,240L496,239L500,239L499,238L498,237L498,236L497,235L496,234L496,232L494,225L492,221L491,219L481,222L479,222L478,223L476,224L474,226L473,226L471,226L470,226L468,227L467,227L465,225L464,224L463,223L462,222L462,221L461,217L457,214L455,213L453,213L452,212L451,211L451,209L449,209L449,207L448,206L446,204L446,203L446,202L444,200L444,198L445,197L444,195L442,193L442,191L440,191L439,189L440,188L439,187L438,185L437,184L437,183L436,181L437,179L439,178L441,175L442,173L444,171L445,171L446,171L447,170L448,169L450,168L452,167L455,168L455,168L454,167L454,165L453,164L449,161L448,160L447,160L445,158L443,158L443,157L442,156L441,155L441,153L436,149L433,147L427,142L425,142L424,143L423,146L422,147L422,148L421,151L421,152L422,153L420,155L418,155L417,156L415,157L414,159L413,160L411,160L410,160L408,160L405,161L405,162L404,164L403,165L401,165L400,164L398,162L396,162L395,162L391,163L390,164L390,165L392,170L392,173L392,174L392,176L391,177L391,178L391,180L390,183L390,186L390,187L391,188L391,189L391,191L392,194L392,195L394,200L394,204L395,205L396,206L398,201L398,199L396,198L395,194L394,190L395,188L395,189L396,189L395,190L396,192L397,197L398,198L399,198L400,196L401,194L402,193L403,195L404,196L405,196L407,193L407,193L407,192L408,193L407,195L407,196L408,197L409,197L410,196L409,195L410,194L410,193L410,192L410,191L409,189L410,188L411,193L412,195L412,198L410,197L407,199L407,201L408,202L410,201L411,201L413,200L413,198L414,196L414,195L415,194L417,194L418,195L419,196L421,199L421,197L420,194L419,191L418,189L417,186L418,187L419,188L419,189L420,190L421,190L421,192L420,194L421,195L421,196L422,197L423,198L424,198L423,200L424,202L425,206L426,208L427,209L428,211L430,211L438,213L439,213L440,214L444,219L446,219L449,223L451,223L450,224L449,225L448,224L447,223L447,222L446,221L445,220L443,220L443,219L442,217L440,216L439,214L436,213L432,212L433,214L434,214L435,215L436,216L434,216L433,215L431,214L430,214L429,214L428,213L427,212L425,208L424,207L423,206L422,206L421,205L419,205L418,203L418,200L417,200L416,201L416,202L415,204L414,205L413,206L413,209L412,211L410,211L409,211L407,209L406,210L407,211L407,212L405,213L403,213L404,214L406,217L407,218L408,218L409,219L409,221L408,224L405,228L401,229L399,228L398,229L397,229L395,229L394,226L393,226L392,228L392,230L392,231L394,234L394,235L394,236L394,239L396,242L397,244L399,246L401,248L402,251L402,252L405,256L406,257L406,258L405,259L404,261L406,262L406,263L408,264L409,264L411,267L412,268L413,270L412,272L413,273L413,271L414,271L415,272L415,276L416,275L417,277L418,278L419,279L419,280L420,281L422,282L424,284L426,284L426,286L427,287L428,286L428,288L428,290L429,292L430,293L434,297L436,299L438,300Z M425,269L423,269L422,264L420,264L419,263L417,262L414,263L412,262L408,258L406,254L405,250L403,246L402,246L401,245L401,244L401,242L401,239L401,238L402,238L404,237L405,236L407,235L410,236L412,234L412,233L411,232L411,231L410,230L410,228L412,227L413,226L415,227L417,231L418,232L419,233L420,235L421,237L422,241L424,240L426,239L428,240L430,248L431,251L432,252L433,253L434,255L433,257L434,264L434,267L432,268L430,269L429,268L428,267L426,268Z " data-fips="PM05" data-hasc="PA.DR" data-name="Darin" data-postal="DR" data-varname=""/><path d="M476,185L477,183L477,182L477,180L478,179L479,179L481,179L481,178L482,177L481,176L480,176L478,177L476,177L473,176L471,175L469,174L468,173L468,172L468,171L468,169L467,168L467,169L466,168L464,165L462,163L461,162L459,162L460,163L461,165L460,164L457,162L455,160L455,158L454,159L451,155L450,153L451,151L450,151L449,150L448,149L448,148L446,146L445,145L441,141L439,139L439,140L440,142L441,144L436,139L435,138L434,137L431,133L429,133L428,132L426,130L426,129L425,129L423,128L421,128L419,127L416,126L415,126L413,125L410,125L409,125L407,123L406,123L404,123L401,121L399,120L397,120L395,118L392,117L390,116L389,115L389,114L388,114L385,113L384,113L382,112L380,112L378,113L377,114L376,113L373,112L369,112L367,111L366,111L364,112L362,111L359,113L359,112L357,112L355,114L354,114L353,113L352,113L351,112L350,111L349,111L347,111L345,111L344,112L343,113L341,112L340,112L339,112L338,111L338,106L339,105L340,104L344,104L345,103L347,103L345,102L342,102L339,102L337,103L337,110L336,111L335,111L334,111L332,113L332,116L331,117L330,118L329,118L327,119L325,120L323,122L323,121L321,122L320,123L320,125L323,125L329,123L330,123L331,122L333,123L334,123L336,124L337,125L339,125L343,125L344,125L343,123L343,122L346,121L347,121L349,121L349,120L350,119L352,120L354,118L356,118L357,118L360,118L361,118L362,117L363,117L365,119L367,119L367,119L368,117L369,117L371,118L374,121L375,121L377,122L378,121L382,120L383,119L385,119L386,120L387,122L388,122L389,121L390,122L391,123L392,124L393,125L393,126L393,127L395,128L397,128L399,128L400,128L403,127L404,127L404,129L405,131L406,132L408,132L411,132L412,132L413,132L414,131L415,132L416,134L416,135L415,136L415,137L421,138L422,139L425,142L427,142L433,147L436,149L441,153L441,155L442,156L443,157L443,158L445,158L447,160L448,160L449,161L453,164L454,165L454,167L455,168L455,169L456,170L458,171L460,173L462,175L464,178L465,179L466,182L467,183L470,185L471,185L474,188Z " data-fips="PM09" data-hasc="PA.SB" data-name="Kuna Yala" data-postal="SB" data-varname=""/><path d="M59,164L60,161L61,159L62,157L61,156L60,154L58,152L55,151L53,150L52,149L53,148L56,147L57,146L60,144L60,142L61,140L63,138L63,139L64,141L66,142L65,143L64,145L63,146L62,147L62,148L64,149L66,149L66,150L67,151L70,152L73,153L73,154L73,156L72,156L72,158L73,159L74,162L75,162L76,160L77,159L78,158L81,158L84,158L87,157L88,156L89,154L88,154L84,155L82,155L81,155L80,154L79,151L78,150L75,149L73,150L71,150L69,149L68,147L69,148L69,142L69,142L67,140L66,139L68,139L68,138L67,137L68,135L69,135L71,135L72,135L75,137L75,136L75,133L75,132L74,133L73,132L73,130L72,130L71,131L71,133L69,132L69,131L69,132L68,134L67,133L66,131L65,130L65,132L64,132L63,133L60,131L59,130L59,128L58,127L57,127L56,126L57,125L59,125L60,124L60,122L59,122L58,121L58,119L60,115L61,114L61,112L58,114L55,112L50,107L42,100L41,100L41,103L40,102L39,102L38,103L38,106L37,107L36,108L35,107L32,106L31,105L30,103L29,102L28,102L24,99L20,97L18,98L16,99L15,101L16,103L17,106L18,107L17,108L12,108L11,109L10,110L10,111L10,143L11,144L13,143L14,143L14,145L15,145L17,146L21,149L25,151L26,151L29,156L31,158L37,157L41,158L43,158L44,159L45,161L48,161L52,162L59,166Z M79,126L80,125L82,124L83,125L82,123L81,123L79,122L77,120L76,120L74,120L73,119L72,119L72,120L73,121L75,121L76,122L77,123L76,123L77,125L77,127L78,128Z M69,120L69,119L70,117L69,115L67,112L66,112L64,112L62,114L66,117L68,119L69,120Z " data-fips="PM01" data-hasc="PA.BC" data-name="Bocas del Toro" data-postal="BC" data-varname=""/><path d="M114,211L114,210L116,210L117,211L119,211L121,210L121,208L123,205L124,203L128,202L130,203L130,198L130,197L130,196L132,191L133,187L133,184L135,185L138,186L139,186L139,187L143,188L146,187L150,190L152,191L155,192L157,193L159,193L161,193L160,191L159,190L158,189L157,187L156,185L156,182L156,177L155,170L156,168L156,168L155,168L146,169L145,168L144,168L142,167L140,167L139,168L134,166L132,167L131,167L130,166L129,165L128,165L126,163L125,162L121,158L116,151L114,149L113,147L112,146L108,145L105,144L104,143L104,141L104,140L105,140L105,139L103,137L101,135L100,134L98,134L97,135L99,136L101,137L100,138L98,138L96,137L95,138L97,139L98,141L99,141L100,142L103,146L109,150L109,153L109,154L107,155L101,153L100,153L99,152L97,152L96,153L96,154L94,155L93,155L92,155L91,154L89,154L88,156L87,157L84,158L81,158L78,158L77,159L76,160L75,162L74,162L73,159L72,158L72,156L73,156L73,154L73,153L70,152L67,151L66,150L66,149L64,149L62,148L62,147L63,146L64,145L65,143L66,142L64,141L63,139L63,138L61,140L60,142L60,144L57,146L56,147L53,148L52,149L53,150L55,151L58,152L60,154L61,156L62,157L61,159L60,161L59,164L59,166L59,166L63,167L64,168L66,168L68,169L71,169L72,169L76,170L77,170L78,175L77,182L76,184L77,186L77,187L75,194L74,196L76,197L78,197L81,196L82,195L84,195L85,197L86,199L88,201L88,203L90,206L94,207L102,207L104,208L105,210L108,212L112,213Z " data-fips="PM01" data-hasc="PA.NB" data-name="Ngbe Bugl" data-postal="NB" data-varname=""/><path d="M426,268L428,267L429,268L430,269L432,268L434,267L434,264L433,257L434,255L433,253L432,252L431,251L430,248L428,240L426,239L424,240L422,241L421,237L420,235L419,233L418,232L417,231L415,227L413,226L412,227L410,228L410,230L411,231L411,232L412,233L412,234L410,236L407,235L405,236L404,237L402,238L401,238L401,239L401,242L401,244L401,245L402,246L403,246L405,250L406,254L408,258L412,262L414,263L417,262L419,263L420,264L422,264L423,269L425,269Z M470,226L471,226L473,226L474,226L476,224L478,223L479,222L481,222L491,219L489,216L487,212L486,211L485,211L484,211L483,210L482,209L481,206L480,200L479,197L478,195L477,194L475,194L472,193L472,191L473,189L474,188L471,185L470,185L467,183L466,182L465,179L464,178L462,175L460,173L458,171L456,170L455,169L455,168L455,168L452,167L450,168L448,169L447,170L446,171L445,171L444,171L442,173L441,175L439,178L437,179L436,181L437,183L437,184L438,185L439,187L440,188L439,189L440,191L442,191L442,193L444,195L445,197L444,198L444,200L446,202L446,203L446,204L448,206L449,207L449,209L451,209L451,211L452,212L453,213L455,213L457,214L461,217L462,221L462,222L463,223L464,224L465,225L467,227L468,227Z " data-fips="PM05" data-hasc="PA.EM" data-name="Ember" data-postal="EM" data-varname="Ember-Wounaan"/></g></svg>