<?xml version="1.0" ?><!DOCTYPE svg  PUBLIC '-//W3C//DTD SVG 1.1//EN'  'http://www.w3.org/Graphics/SVG/1.1/DTD/svg11.dtd'><svg enable_background="new 0 0 500 401" height="401px" style="stroke-linejoin: round; stroke:#000; fill:#f6f3f0;" version="1.1" viewBox="0 0 500 401" width="500px" xmlns="http://www.w3.org/2000/svg" xmlns:xlink="http://www.w3.org/1999/xlink"><defs><style type="text/css"><![CDATA[path { fill-rule: evenodd; }
#context path { fill: #eee; stroke: #bbb; } ]]></style></defs><metadata><views><view h="401" padding="0" w="500"><proj id="laea" lat0="13.736" lon0="-88.866"/><bbox h="15.87" w="28.9" x="985.03" y="991.24"/><llbbox lat0="-90" lat1="90" lon0="-180" lon1="180"/></view></views></metadata><g id="admin1"><path d="M37,223L39,221L40,220L41,219L42,219L44,219L45,220L46,221L49,224L51,225L52,226L58,226L60,226L61,226L62,221L63,220L66,214L66,212L67,210L68,209L69,207L69,205L67,199L68,198L72,191L72,190L71,189L71,188L71,187L70,182L71,181L72,180L74,179L79,178L82,177L87,162L87,159L86,157L86,156L85,156L84,155L84,154L83,152L82,151L78,148L76,148L76,148L76,149L73,151L70,149L65,145L61,144L58,144L49,148L47,149L42,154L22,168L19,170L17,173L16,176L14,179L12,181L6,184L3,187L2,190L1,193L0,197L0,200L3,210L22,220L34,228Z " data-fips="ES01" data-hasc="SV.AH" data-name="Ahuachapn" data-postal="AH" data-varname=""/><path d="M328,209L330,205L332,202L332,199L334,198L335,196L336,193L334,190L336,189L336,189L337,186L337,183L335,177L334,175L335,172L335,169L336,167L334,164L336,164L336,163L334,161L332,160L327,160L323,159L307,154L302,154L298,155L296,155L295,155L286,156L282,159L280,161L279,162L276,163L263,167L260,168L257,169L252,168L243,174L242,175L241,176L240,176L238,178L237,179L236,180L236,181L237,182L238,184L242,190L243,191L245,192L246,193L246,195L247,197L248,200L248,201L249,202L250,203L252,205L253,208L255,209L262,211L263,205L264,203L265,203L266,204L268,204L270,204L272,203L278,200L280,200L281,201L282,201L284,199L285,198L286,198L289,200L290,200L292,200L298,200L300,200L302,200L305,201L309,204L312,205L314,206L315,206L316,207L316,208L317,209L318,210L323,211L325,211Z " data-fips="ES02" data-hasc="SV.CA" data-name="Cabaas" data-postal="CA" data-varname=""/><path d="M245,234L246,233L247,232L248,231L250,231L251,230L257,225L258,224L259,221L262,211L255,209L253,208L252,205L250,203L249,202L248,201L248,200L247,197L246,195L246,193L245,192L243,191L242,190L238,184L237,182L236,181L236,180L237,179L238,178L240,176L241,176L242,175L243,174L242,168L239,167L236,167L230,165L229,164L228,162L228,161L227,160L227,159L227,157L227,157L222,151L221,149L218,147L216,145L215,145L210,143L207,141L206,141L202,145L201,148L200,150L200,151L201,155L201,157L201,158L200,160L200,161L200,162L199,163L198,164L198,166L199,168L201,172L205,179L206,180L206,182L205,182L203,184L204,185L209,194L211,196L213,197L215,197L215,198L218,202L219,203L220,203L221,205L220,210L221,211L224,217L225,219L226,220L226,221L226,227L236,231L239,233L243,234Z " data-fips="ES04" data-hasc="SV.CU" data-name="Cuscatln" data-postal="CU" data-varname=""/><path d="M204,281L204,279L206,276L207,276L208,274L208,273L207,272L205,271L204,271L203,271L202,270L201,267L200,266L198,266L197,266L195,266L194,267L193,267L192,266L191,263L187,257L187,256L188,254L189,250L189,242L189,240L190,238L190,237L188,236L188,235L188,234L189,232L189,231L187,229L186,228L183,226L182,224L182,223L181,222L180,221L179,220L179,217L179,215L178,214L177,214L177,213L178,210L179,207L179,206L180,202L180,200L181,199L181,197L182,193L182,192L182,191L183,191L184,190L185,190L186,189L186,188L187,175L188,174L190,174L190,173L190,171L189,170L188,169L187,169L185,169L183,169L181,168L180,168L179,166L178,165L177,163L176,161L175,159L175,158L176,153L173,145L170,145L166,143L164,142L162,144L160,145L158,145L156,146L155,147L154,149L152,161L152,164L151,168L151,170L150,170L148,170L147,170L145,174L144,173L143,174L142,174L142,175L141,181L142,185L141,190L138,199L139,206L140,207L141,208L141,209L140,210L138,212L137,212L134,214L133,215L131,218L129,219L127,219L126,220L125,221L125,222L124,225L124,227L124,233L123,234L122,235L117,240L117,241L116,242L116,244L115,247L115,247L114,248L109,253L108,255L105,260L118,263L151,265L157,266L164,266L179,270L193,276L203,282Z " data-fips="ES05" data-hasc="SV.LI" data-name="La Libertad" data-postal="LI" data-varname=""/><path d="M267,307L267,306L268,305L269,305L270,304L271,303L273,303L274,302L275,301L275,300L274,290L274,289L275,288L276,287L276,286L277,285L276,284L276,282L275,281L273,279L271,278L270,277L268,275L268,274L268,269L269,264L269,263L269,262L271,258L271,257L271,255L271,254L265,242L264,242L262,242L257,243L256,243L254,242L254,241L254,237L254,234L251,230L250,231L248,231L247,232L246,233L245,234L243,234L239,233L236,231L226,227L219,234L213,242L212,243L210,243L207,242L206,242L205,242L204,244L205,246L205,247L207,250L207,251L207,253L207,255L205,260L204,263L202,265L201,267L202,270L203,271L204,271L205,271L207,272L208,273L208,274L207,276L206,276L204,279L204,281L203,282L218,292L266,314Z " data-fips="ES06" data-hasc="SV.PA" data-name="La Paz" data-postal="PA" data-varname=""/><path d="M108,255L109,253L114,248L115,247L115,247L116,244L116,242L117,241L117,240L122,235L123,234L124,233L124,227L124,225L125,222L125,221L126,220L127,219L129,219L131,218L133,215L134,214L137,212L138,212L140,210L141,209L141,208L140,207L139,206L127,203L124,203L123,202L122,199L119,196L115,193L113,191L111,191L110,192L110,193L109,194L109,195L109,198L108,199L106,199L105,199L104,198L103,197L103,196L102,195L100,194L100,193L100,192L101,192L101,191L102,190L101,189L101,187L99,186L98,184L98,183L97,182L94,179L92,178L91,177L90,178L89,178L87,178L82,177L79,178L74,179L72,180L71,181L70,182L71,187L71,188L71,189L72,190L72,191L68,198L67,199L69,205L69,207L68,209L67,210L66,212L66,214L63,220L62,221L61,226L60,226L58,226L52,226L51,225L49,224L46,221L45,220L44,219L42,219L41,219L40,220L39,221L37,223L34,228L47,234L53,238L55,240L58,243L59,247L61,256L63,257L70,256L103,259L105,260Z " data-fips="ES13" data-hasc="SV.SO" data-name="Sonsonate" data-postal="SO" data-varname=""/><path d="M195,266L197,266L198,266L200,266L201,267L202,265L204,263L205,260L207,255L207,253L207,251L207,250L205,247L205,246L204,244L205,242L206,242L207,242L210,243L212,243L213,242L219,234L226,227L226,221L226,220L225,219L224,217L221,211L220,210L221,205L220,203L219,203L218,202L215,198L215,197L213,197L211,196L209,194L204,185L203,184L205,182L206,182L206,180L205,179L201,172L199,168L198,166L198,164L199,163L200,162L200,161L200,160L201,158L201,157L201,155L200,151L200,150L201,148L202,145L196,146L194,145L191,143L190,146L187,145L183,144L181,144L177,147L176,153L175,158L175,159L176,161L177,163L178,165L179,166L180,168L181,168L183,169L185,169L187,169L188,169L189,170L190,171L190,173L190,174L188,174L187,175L186,188L186,189L185,190L184,190L183,191L182,191L182,192L182,193L181,197L181,199L180,200L180,202L179,206L179,207L178,210L177,213L177,214L178,214L179,215L179,217L179,220L180,221L181,222L182,223L182,224L183,226L186,228L187,229L189,231L189,232L188,234L188,235L188,236L190,237L190,238L189,240L189,242L189,250L188,254L187,256L187,257L191,263L192,266L193,267L194,267Z " data-fips="ES10" data-hasc="SV.SS" data-name="San Salvador" data-postal="SS" data-varname=""/><path d="M461,335L457,332L457,328L462,325L477,317L481,314L483,309L483,307L482,305L478,303L472,296L469,295L465,293L467,287L473,276L474,281L475,283L477,284L493,276L497,272L497,269L497,266L496,264L494,262L491,261L489,262L487,262L485,262L483,259L482,257L484,251L488,239L489,235L489,227L489,223L491,221L493,219L494,216L493,213L494,209L498,199L500,196L496,195L491,190L487,187L486,186L483,185L482,185L480,182L478,176L476,175L473,175L471,177L469,179L467,180L465,181L461,180L459,180L458,180L455,182L454,183L453,182L449,180L448,180L449,184L450,188L450,194L450,208L450,209L451,210L452,211L452,213L452,217L451,222L450,227L445,240L445,244L444,246L437,253L436,255L435,258L435,264L436,267L436,268L435,269L434,270L433,271L433,272L432,273L433,279L433,283L434,284L436,287L436,288L434,305L434,306L434,307L431,317L430,317L428,317L426,316L424,315L422,313L422,316L421,317L420,334L425,335L454,337Z " data-fips="ES07" data-hasc="SV.UN" data-name="La Unin" data-postal="UN" data-varname=""/><path d="M422,255L430,252L433,252L437,253L444,246L445,244L445,240L450,227L451,222L452,217L452,213L452,211L451,210L450,209L450,208L450,194L450,188L449,184L448,180L448,180L445,181L435,186L434,180L432,178L430,176L428,175L426,173L425,171L423,169L420,161L418,159L412,159L402,160L398,160L393,159L390,159L388,160L388,165L390,168L389,170L388,171L386,171L384,172L382,173L382,174L382,174L383,176L385,182L386,184L386,185L387,187L388,189L388,191L387,192L386,192L386,193L385,194L385,195L384,196L384,198L385,199L385,200L387,201L395,207L396,208L396,210L395,211L395,212L393,212L392,213L385,218L385,219L385,224L386,225L387,227L389,229L390,230L390,231L391,232L393,234L394,235L394,236L395,237L396,238L397,239L398,240L398,241L396,243L397,244L398,243L399,242L400,242L402,242L410,241L411,242L412,243L413,244L413,245L414,250L415,251L418,253L419,254L420,255L421,255Z " data-fips="ES08" data-hasc="SV.MO" data-name="Morazn" data-postal="MO" data-varname=""/><path d="M417,334L419,334L420,334L421,317L422,316L422,313L424,315L426,316L428,317L430,317L431,317L434,307L434,306L434,305L436,288L436,287L434,284L433,283L433,279L432,273L433,272L433,271L434,270L435,269L436,268L436,267L435,264L435,258L436,255L437,253L433,252L430,252L422,255L421,255L420,255L419,254L418,253L415,251L414,250L413,245L413,244L412,243L411,242L410,241L402,242L400,242L399,242L398,243L397,244L396,243L398,241L398,240L397,239L396,238L395,237L394,236L394,235L393,234L391,232L390,231L390,230L389,229L387,227L386,225L385,224L385,219L385,218L392,213L393,212L395,212L395,211L396,210L396,208L395,207L387,201L385,200L385,199L384,198L384,196L385,195L385,194L386,193L386,192L387,192L388,191L388,189L387,187L386,185L386,184L385,182L383,176L382,174L382,174L381,176L379,177L377,178L376,178L375,178L372,179L371,182L370,181L368,181L366,181L365,181L364,181L364,183L364,185L362,184L359,183L357,183L349,185L345,187L341,189L336,189L334,190L336,193L335,196L334,198L332,199L332,202L330,205L328,209L329,214L335,220L338,224L346,223L349,223L350,225L352,228L353,229L355,230L356,231L362,231L363,232L363,233L363,236L362,237L363,239L364,241L364,242L363,243L362,244L361,245L360,246L360,247L360,248L360,249L363,254L363,256L363,258L363,259L364,263L363,264L362,265L362,266L361,267L361,269L361,270L360,270L359,270L358,271L358,272L359,275L359,276L359,280L360,281L362,281L363,282L363,284L363,285L363,287L364,290L365,293L367,296L369,298L370,299L371,299L372,300L376,300L377,301L378,301L380,304L382,305L383,305L384,305L385,306L386,307L387,306L388,306L390,305L392,305L393,306L393,308L394,312L395,312L396,313L396,314L395,317L395,318L395,319L396,320L402,319L403,319L416,334Z " data-fips="ES09" data-hasc="SV.SM" data-name="San Miguel" data-postal="SM" data-varname=""/><path d="M270,312L272,310L274,309L278,308L280,307L281,305L283,302L287,298L287,297L288,290L288,287L289,285L299,267L300,261L301,254L302,253L305,252L306,251L312,243L316,244L320,242L323,237L325,234L338,224L335,220L329,214L325,211L323,211L318,210L317,209L316,208L316,207L315,206L314,206L312,205L309,204L305,201L302,200L300,200L298,200L292,200L290,200L289,200L286,198L285,198L284,199L282,201L281,201L280,200L278,200L272,203L270,204L268,204L266,204L265,203L264,203L263,205L262,211L259,221L258,224L257,225L254,234L254,237L254,241L254,242L256,243L257,243L262,242L264,242L265,242L271,254L271,255L271,257L271,258L269,262L269,263L269,264L268,269L268,274L268,275L270,277L271,278L273,279L275,281L276,282L276,284L277,285L276,286L276,287L275,288L274,289L274,290L275,300L275,301L274,302L273,303L271,303L270,304L269,305L268,305L267,306L267,307L266,314L269,315Z " data-fips="ES12" data-hasc="SV.SV" data-name="San Vicente" data-postal="SV" data-varname=""/><path d="M414,335L416,334L403,319L402,319L396,320L395,319L395,318L395,317L396,314L396,313L395,312L394,312L393,308L393,306L392,305L390,305L388,306L387,306L386,307L385,306L384,305L383,305L382,305L380,304L378,301L377,301L376,300L372,300L371,299L370,299L369,298L367,296L365,293L364,290L363,287L363,285L363,284L363,282L362,281L360,281L359,280L359,276L359,275L358,272L358,271L359,270L360,270L361,270L361,269L361,267L362,266L362,265L363,264L364,263L363,259L363,258L363,256L363,254L360,249L360,248L360,247L360,246L361,245L362,244L363,243L364,242L364,241L363,239L362,237L363,236L363,233L363,232L362,231L356,231L355,230L353,229L352,228L350,225L349,223L346,223L338,224L325,234L323,237L320,242L316,244L312,243L306,251L305,252L302,253L301,254L300,261L299,267L289,285L288,287L288,290L287,297L287,298L283,302L281,305L280,307L278,308L274,309L272,310L270,312L269,315L269,316L276,319L330,329L333,330L335,332L339,334L343,335L345,332L341,329L332,326L315,322L315,321L321,323L324,323L328,324L328,322L326,321L323,318L322,316L319,315L317,315L301,316L295,315L293,316L292,315L290,315L289,313L291,312L303,312L312,310L315,310L322,312L324,312L326,313L329,319L333,321L342,323L345,325L346,323L345,321L344,318L343,315L346,317L350,322L353,324L353,325L350,327L347,327L349,332L353,334L358,334L363,332L363,331L360,331L358,331L357,332L355,331L358,330L361,329L369,329L368,327L365,324L365,322L368,325L371,329L371,332L366,332L366,334L369,334L372,335L377,334L396,337Z " data-fips="ES14" data-hasc="SV.US" data-name="Usulutn" data-postal="US" data-varname=""/><path d="M260,168L263,167L276,163L279,162L280,161L282,159L286,156L295,155L295,154L295,152L294,151L292,149L291,149L287,148L284,146L284,143L285,140L285,136L284,134L282,134L280,135L277,136L268,135L265,136L263,130L260,124L256,118L251,115L247,115L245,116L242,117L240,118L238,117L238,114L237,112L237,110L236,109L235,106L233,103L227,99L227,98L226,91L224,88L221,87L214,86L212,84L212,82L213,80L212,77L211,75L210,74L209,73L208,73L206,73L204,75L201,81L200,81L199,82L190,80L185,76L174,73L168,70L160,69L168,77L169,79L170,80L171,82L172,83L176,85L177,86L180,88L178,96L177,101L175,103L167,106L167,110L167,113L167,114L163,120L162,121L161,121L160,121L157,122L156,122L155,123L153,127L152,128L151,129L147,128L143,142L143,147L146,149L149,149L152,149L154,149L155,147L156,146L158,145L160,145L162,144L164,142L166,143L170,145L173,145L177,147L181,144L183,144L187,145L190,146L191,143L194,145L196,146L206,141L207,141L210,143L215,145L216,145L218,147L221,149L222,151L227,157L227,157L227,159L227,160L228,161L228,162L229,164L230,165L236,167L239,167L242,168L252,168L257,169Z " data-fips="ES03" data-hasc="SV.CH" data-name="Chalatenango" data-postal="CH" data-varname=""/><path d="M138,199L141,190L142,185L141,181L142,175L142,174L143,174L144,173L145,174L147,170L148,170L150,170L151,170L151,168L152,164L152,161L154,149L152,149L149,149L146,149L143,147L143,142L147,128L151,129L152,128L153,127L155,123L156,122L157,122L160,121L161,121L162,121L163,120L167,114L167,113L167,110L167,106L175,103L177,101L178,96L180,88L177,86L176,85L172,83L171,82L170,80L169,79L168,77L160,69L156,69L150,65L149,66L149,62L147,63L142,68L139,69L136,68L134,66L131,66L127,68L122,74L119,76L119,72L116,70L113,69L110,71L109,75L110,77L111,79L112,82L111,84L109,85L107,87L109,90L113,91L114,91L116,93L116,93L117,96L118,97L118,100L118,101L119,102L122,104L123,104L123,108L121,109L99,114L94,117L88,121L84,125L75,141L75,143L75,144L76,148L78,148L82,151L83,152L84,154L84,155L85,156L86,156L86,157L87,159L87,162L82,177L87,178L89,178L90,178L91,177L92,178L94,179L97,182L98,183L98,184L99,186L101,187L101,189L102,190L101,191L101,192L100,192L100,193L100,194L102,195L103,196L103,197L104,198L105,199L106,199L108,199L109,198L109,195L109,194L110,193L110,192L111,191L113,191L115,193L119,196L122,199L123,202L124,203L127,203Z " data-fips="ES11" data-hasc="SV.SA" data-name="Santa Ana" data-postal="SA" data-varname=""/></g></svg>