<?xml version="1.0" ?><!DOCTYPE svg  PUBLIC '-//W3C//DTD SVG 1.1//EN'  'http://www.w3.org/Graphics/SVG/1.1/DTD/svg11.dtd'><svg enable_background="new 0 0 500 401" height="401px" style="stroke-linejoin: round; stroke:#000; fill:#f6f3f0;" version="1.1" viewBox="0 0 500 401" width="500px" xmlns="http://www.w3.org/2000/svg" xmlns:xlink="http://www.w3.org/1999/xlink"><defs><style type="text/css"><![CDATA[path { fill-rule: evenodd; }
#context path { fill: #eee; stroke: #bbb; } ]]></style></defs><metadata><views><view h="401" padding="0" w="500"><proj id="laea" lat0="17.219" lon0="-88.602"/><bbox h="32.22" w="17.18" x="992.46" y="984.3"/><llbbox lat0="-90" lat1="90" lon0="-180" lon1="180"/></view></views></metadata><g id="admin1"><path d="M351,182L353,181L354,183L353,179L354,178L354,177L352,169L350,167L348,168L350,170L351,174L350,183Z M276,211L278,210L281,209L283,207L283,207L282,204L281,201L282,195L282,191L283,176L289,156L289,153L291,152L295,152L299,153L300,150L299,148L293,147L292,146L290,144L285,141L283,139L283,135L283,132L285,129L289,125L290,122L293,110L295,97L294,93L300,81L283,79L251,88L243,92L242,95L242,96L242,98L242,99L243,102L243,104L242,108L242,109L242,113L242,117L242,118L243,121L242,123L241,123L239,124L235,126L233,128L231,134L231,136L233,158L237,157L237,156L238,154L239,153L240,154L240,156L242,186L242,193L243,195L245,198L245,200L245,201L244,203L244,204L243,207L242,208L242,209L241,210L240,211L237,212Z M314,156L315,154L315,153L314,151L311,149L309,148L308,149L309,151L309,152L311,152L312,153L312,156L313,157L314,157Z M336,183L336,181L337,179L337,178L338,172L339,168L341,166L343,165L344,162L347,164L349,163L351,160L353,158L356,152L356,149L355,146L354,145L352,144L350,144L348,149L349,150L351,149L352,147L354,149L353,152L352,155L351,157L349,157L347,156L345,156L342,159L340,161L338,163L337,165L336,172L335,178L334,181L334,182L334,183L336,185Z M317,135L315,131L313,130L315,138L317,142L318,143Z M305,125L310,124L313,121L314,116L313,116L304,122L301,123L301,124L300,126Z M330,88L334,84L337,77L337,71L337,73L335,75L334,73L334,72L335,71L336,71L337,69L337,68L338,68L339,69L340,66L343,58L344,56L346,54L347,51L345,49L342,51L340,50L338,51L336,59L336,61L335,63L334,64L331,74L331,78L333,78L332,82L331,85L325,89L323,89L323,90Z M329,64L330,63L330,61L329,61L328,62L327,63L327,64Z M333,61L334,59L333,57L332,58L331,59L331,61L332,62Z M342,46L342,45L340,47L341,48Z " data-fips="BH01" data-hasc="BZ.BZ" data-name="Belize" data-postal="BZ" data-varname=""/><path d="M150,321L152,318L153,317L154,316L155,314L155,313L156,312L157,311L162,309L165,308L166,308L168,308L169,307L170,306L173,304L174,302L175,302L176,303L178,305L179,304L186,302L185,300L187,298L188,298L190,297L192,297L193,296L197,293L198,292L200,292L202,290L205,287L205,285L205,282L205,281L207,279L208,277L209,277L212,277L211,274L212,271L214,268L215,266L219,260L220,258L223,257L226,257L227,256L226,255L224,254L224,253L225,252L227,251L227,250L228,249L228,246L228,244L228,243L228,241L232,236L234,234L236,233L237,232L238,230L239,227L241,224L242,222L242,221L241,220L239,218L237,215L236,213L237,212L240,211L241,210L242,209L242,208L243,207L244,204L244,203L245,201L245,200L245,198L243,195L242,193L242,186L240,156L240,154L239,153L238,154L237,156L237,157L233,158L231,158L230,158L227,160L225,160L223,161L218,164L216,165L213,165L209,165L207,165L205,165L202,165L199,165L197,165L196,165L195,166L194,167L192,168L190,169L173,171L172,171L171,170L169,170L167,171L161,175L157,180L152,184L147,323Z " data-fips="BH02" data-hasc="BZ.CY" data-name="Cayo" data-postal="CY" data-varname=""/><path d="M300,81L303,79L308,65L309,63L311,59L311,57L312,43L311,24L309,24L308,25L307,26L305,28L304,28L303,28L304,25L307,24L310,22L311,20L310,18L309,18L304,19L299,22L296,23L294,22L290,20L287,20L284,20L282,21L277,25L275,28L274,29L272,28L273,27L276,22L277,20L278,18L271,21L269,21L268,18L269,16L280,8L283,4L280,2L279,1L270,1L269,2L268,2L266,2L264,0L263,0L262,1L259,2L258,2L256,2L255,1L253,1L252,2L249,4L248,6L247,7L246,12L245,16L244,19L244,21L242,24L237,29L236,32L236,34L235,37L237,38L246,42L253,47L263,61L283,79L300,81Z " data-fips="BH03" data-hasc="BZ.CZ" data-name="Corozal" data-postal="CZ" data-varname=""/><path d="M157,180L161,175L167,171L169,170L171,170L172,171L173,171L190,169L192,168L194,167L195,166L196,165L197,165L199,165L202,165L205,165L207,165L209,165L213,165L216,165L218,164L223,161L225,160L227,160L230,158L231,158L233,158L231,136L231,134L233,128L235,126L239,124L241,123L242,123L243,121L242,118L242,117L242,113L242,109L242,108L243,104L243,102L242,99L242,98L242,96L242,95L243,92L251,88L283,79L263,61L253,47L246,42L237,38L235,37L235,39L233,41L232,43L227,45L226,45L224,48L224,50L224,52L220,58L220,60L219,63L219,65L217,67L216,68L214,70L211,71L211,73L209,79L207,80L200,86L199,87L199,90L198,92L196,92L191,89L189,87L187,83L185,83L184,83L182,83L180,81L177,78L175,76L172,75L160,79L157,84L156,90L156,103L155,112L152,184Z " data-fips="BH04" data-hasc="BZ.OW" data-name="Orange Walk" data-postal="OW" data-varname=""/><path d="M268,304L268,302L269,300L271,298L269,298L268,298L268,296L269,297L271,297L272,296L269,295L272,291L276,281L280,279L279,281L276,284L272,301L273,303L274,302L275,301L274,297L274,294L275,292L277,286L278,284L279,283L280,281L282,270L281,269L281,266L281,264L281,263L282,262L283,260L283,259L284,258L286,256L288,257L289,255L288,254L287,252L284,247L284,244L284,242L286,239L288,237L290,235L291,235L293,235L294,233L293,229L292,224L292,221L290,218L289,216L286,215L284,214L284,212L283,208L283,207L281,209L278,210L276,211L237,212L236,213L237,215L239,218L241,220L242,221L242,222L241,224L239,227L238,230L237,232L236,233L234,234L232,236L228,241L228,243L228,244L228,246L228,249L227,250L227,251L225,252L224,253L224,254L226,255L227,256L226,257L223,257L220,258L219,260L215,266L214,268L212,271L211,274L212,277L216,275L227,275L230,275L232,276L238,279L239,280L240,282L240,283L239,285L240,286L241,288L242,290L243,291L244,292L244,293L245,295L244,296L244,299L244,300L244,301L244,302L250,303L251,302L258,303L259,303L261,303L264,303L266,303L266,304L268,305Z " data-fips="BH05" data-hasc="BZ.SC" data-name="Stann Creek" data-postal="SC" data-varname=""/><path d="M191,397L192,393L189,387L189,383L191,381L193,379L196,377L200,376L200,375L200,373L200,372L201,371L202,370L203,369L205,368L206,367L207,366L208,364L208,363L210,361L212,361L215,359L216,357L216,354L216,348L217,346L219,345L221,344L223,343L223,342L228,342L229,341L230,340L230,337L232,337L233,337L234,338L234,340L236,341L238,340L240,337L241,337L241,343L241,341L242,340L244,340L245,339L247,339L247,337L247,336L248,333L252,328L254,327L256,322L256,321L258,321L259,321L260,320L260,315L263,314L266,308L269,306L268,305L266,304L266,303L264,303L261,303L259,303L258,303L251,302L250,303L244,302L244,301L244,300L244,299L244,296L245,295L244,293L244,292L243,291L242,290L241,288L240,286L239,285L240,283L240,282L239,280L238,279L232,276L230,275L227,275L216,275L212,277L209,277L208,277L207,279L205,281L205,282L205,285L205,287L202,290L200,292L198,292L197,293L193,296L192,297L190,297L188,298L187,298L185,300L186,302L179,304L178,305L176,303L175,302L174,302L173,304L170,306L169,307L168,308L166,308L165,308L162,309L157,311L156,312L155,313L155,314L154,316L153,317L152,318L150,321L147,323L144,395L144,397L145,398L147,398L148,397L150,397L152,396L164,396L168,396L172,396L185,399Z " data-fips="BH06" data-hasc="BZ.TO" data-name="Toledo" data-postal="TO" data-varname=""/></g></svg>