<?xml version="1.0" ?><!DOCTYPE svg  PUBLIC '-//W3C//DTD SVG 1.1//EN'  'http://www.w3.org/Graphics/SVG/1.1/DTD/svg11.dtd'><svg enable_background="new 0 0 500 401" height="401px" style="stroke-linejoin: round; stroke:#000; fill:#f6f3f0;" version="1.1" viewBox="0 0 500 401" width="500px" xmlns="http://www.w3.org/2000/svg" xmlns:xlink="http://www.w3.org/1999/xlink"><defs><style type="text/css"><![CDATA[path { fill-rule: evenodd; }
#context path { fill: #eee; stroke: #bbb; } ]]></style></defs><metadata><views><view h="401" padding="0" w="500"><proj id="laea" lat0="9.971" lon0="-83.946"/><bbox h="39.22" w="41.07" x="975.76" y="984.66"/><llbbox lat0="-90" lat1="90" lon0="-180" lon1="180"/></view></views></metadata><g id="admin1"><path d="M343,216L342,215L342,213L341,212L341,211L342,207L343,203L350,195L353,188L354,186L358,181L363,175L364,173L364,170L362,166L362,163L362,161L363,159L365,156L363,156L350,155L332,155L329,154L317,148L309,145L304,142L290,141L291,142L292,143L294,145L296,148L297,149L297,152L298,155L297,157L296,157L294,158L292,159L291,159L290,159L287,159L281,161L278,167L278,168L281,169L277,175L276,176L275,177L273,179L272,180L271,182L271,183L273,183L274,183L275,182L277,183L281,181L283,182L283,183L283,184L284,186L286,186L287,188L288,189L291,193L292,194L294,194L297,196L298,195L299,195L300,196L301,197L302,200L303,201L304,202L305,203L308,203L310,203L312,205L313,206L315,206L316,207L316,209L317,211L318,210L319,209L321,210L322,209L323,209L324,207L326,206L329,210L330,211L332,211L344,218Z " data-fips="CS02" data-hasc="CR.CA" data-name="Cartago" data-postal="CA" data-varname=""/><path d="M267,157L271,157L272,157L275,156L278,155L279,151L280,147L279,146L278,145L278,142L277,141L276,139L273,135L272,134L273,133L278,133L281,132L284,132L285,131L287,128L292,127L298,121L300,116L300,115L300,114L300,111L300,110L299,109L299,107L297,104L297,102L297,101L298,99L299,97L300,97L301,96L302,94L303,91L302,89L302,88L302,87L301,86L301,84L302,79L302,78L302,74L302,73L303,72L304,71L306,70L307,69L309,67L311,67L315,66L316,66L317,65L317,65L315,64L314,63L314,62L314,59L314,58L313,57L312,56L310,55L309,55L301,59L298,62L294,61L292,63L291,63L289,62L282,56L281,54L280,53L278,54L277,54L277,55L275,55L272,57L269,55L268,56L266,56L264,53L263,54L262,53L262,54L261,81L261,101L261,115L261,133L259,152L257,154L256,156L256,157L256,158L258,157L261,159L262,159Z " data-fips="CS04" data-hasc="CR.HE" data-name="Heredia" data-postal="HE" data-varname=""/><path d="M412,223L412,221L413,219L415,218L422,217L424,216L423,215L422,214L421,210L420,207L420,206L421,204L424,202L426,202L433,205L438,209L439,210L440,209L442,211L443,214L445,215L446,216L448,216L450,217L452,217L453,215L453,210L454,209L456,209L459,210L458,205L455,204L452,199L450,198L447,198L444,198L441,198L433,195L431,193L430,191L429,186L429,184L425,185L420,180L413,170L411,169L405,160L404,159L403,157L402,155L402,153L401,152L398,151L397,150L394,152L389,147L381,138L379,136L356,105L347,90L339,73L333,56L333,58L332,60L332,62L331,60L332,59L330,60L329,61L328,62L326,62L329,59L330,55L327,45L331,53L333,55L333,51L331,45L327,39L325,36L324,36L322,36L322,37L322,38L322,43L323,48L323,51L318,53L310,55L312,56L313,57L314,58L314,59L314,62L314,63L315,64L317,65L317,65L316,66L315,66L311,67L309,67L307,69L306,70L304,71L303,72L302,73L302,74L302,78L302,79L301,84L301,86L302,87L302,88L302,89L303,91L302,94L301,96L300,97L299,97L298,99L297,101L297,102L297,104L299,107L299,109L300,110L300,111L300,114L300,115L300,116L298,121L292,127L291,129L290,130L304,142L309,145L317,148L329,154L332,155L350,155L363,156L365,156L363,159L362,161L362,163L362,166L364,170L364,173L363,175L358,181L354,186L353,188L350,195L343,203L342,207L341,211L341,212L342,213L342,215L343,216L344,218L349,231L350,232L352,234L355,235L356,236L357,237L358,236L359,236L362,235L364,232L366,232L367,233L370,235L371,235L374,236L375,237L378,238L379,238L380,238L383,238L384,238L389,244L391,246L395,248L396,249L396,251L398,258L399,259L403,260L405,261L405,262L406,264L407,265L409,267L411,268L412,269Z " data-fips="CS06" data-hasc="CR.LI" data-name="Limn" data-postal="LI" data-varname="Puerto Limn"/><path d="M419,396L419,391L413,376L412,372L411,371L409,370L408,370L407,370L405,370L403,367L400,365L399,364L399,362L400,361L405,358L407,356L411,353L414,351L418,350L421,348L424,345L425,341L425,337L425,328L424,324L422,321L420,318L416,314L415,312L414,310L415,308L416,307L419,305L420,304L420,302L419,301L420,299L422,298L434,293L438,291L440,288L439,286L436,281L434,280L429,278L423,274L420,273L419,271L419,270L418,269L417,269L416,269L414,270L412,270L412,269L411,268L409,267L407,265L406,264L405,262L405,261L403,260L399,259L398,258L396,251L396,249L395,248L391,246L389,244L384,238L383,238L380,238L379,238L378,238L375,237L374,236L371,235L370,235L367,233L366,232L364,232L362,235L359,236L358,236L357,237L356,236L355,235L352,234L349,236L348,238L348,241L347,242L344,246L343,247L342,254L343,254L344,255L346,255L346,256L346,257L346,259L345,261L345,262L345,266L344,267L344,267L342,269L341,270L340,269L339,268L338,268L337,268L335,268L324,261L322,259L321,255L321,254L318,251L316,249L315,248L314,248L312,249L311,251L309,251L303,248L302,247L302,246L301,245L300,242L300,240L300,238L299,237L295,233L294,230L293,228L292,227L291,228L290,229L288,228L280,223L277,220L275,216L272,214L272,213L272,211L272,210L272,209L271,208L270,208L268,208L266,208L265,208L264,207L264,206L264,205L264,204L264,203L264,202L263,201L262,201L256,201L254,201L253,200L248,200L247,200L246,199L245,198L243,198L238,198L234,199L233,199L232,199L232,202L232,203L231,204L230,205L229,207L228,207L227,207L226,206L225,206L222,206L221,206L217,207L216,206L215,205L214,204L213,202L212,198L209,193L209,192L209,189L209,188L208,184L209,183L210,183L212,183L213,183L214,182L214,181L214,180L213,178L212,177L211,176L210,176L209,175L210,174L208,171L207,170L205,170L204,170L201,169L199,168L198,167L198,166L198,165L199,164L201,161L202,160L204,159L210,155L212,155L213,154L213,153L211,150L210,150L209,151L208,151L207,150L207,149L205,146L204,145L202,142L201,141L199,138L199,136L199,133L199,132L198,130L199,126L201,123L201,122L199,121L199,119L197,117L195,117L194,118L193,118L190,119L188,119L187,118L187,117L184,113L181,111L180,111L179,111L177,111L176,113L175,114L174,115L173,116L173,117L174,118L174,119L174,121L173,124L173,126L173,127L174,128L173,130L170,131L167,134L167,135L167,136L168,138L166,138L165,138L164,136L162,134L161,133L160,133L159,132L157,133L156,132L155,132L154,132L153,132L151,132L149,133L149,134L148,135L149,136L150,135L152,135L153,136L156,138L161,142L162,144L163,145L165,146L166,147L170,150L173,152L176,153L180,154L184,155L179,155L177,155L176,156L187,155L190,156L190,158L190,160L193,162L192,165L191,167L193,168L195,169L200,176L202,178L203,180L203,181L203,183L202,184L201,185L200,187L198,190L197,191L197,192L197,193L198,195L197,196L199,197L199,198L200,200L201,200L202,201L203,202L204,203L205,205L209,208L211,209L211,208L212,209L213,210L213,211L215,213L216,213L218,212L220,212L221,212L224,212L241,217L244,217L247,218L252,221L256,221L253,220L252,219L255,220L258,222L260,226L259,228L261,228L262,230L263,230L265,230L265,231L267,231L268,231L280,235L282,237L291,241L301,250L304,251L307,253L310,256L310,259L315,260L318,263L321,267L323,271L324,270L326,272L327,274L330,282L329,283L328,284L327,285L327,287L328,288L327,289L329,290L330,291L332,292L333,292L334,293L332,293L331,293L329,292L329,294L330,295L332,296L333,297L332,299L331,300L328,301L326,303L325,305L326,307L327,306L329,304L330,304L331,303L334,305L331,305L327,307L325,309L327,311L326,312L323,317L322,318L321,317L320,317L318,318L317,319L313,325L314,330L318,331L318,332L329,342L332,346L334,348L336,349L338,349L345,348L348,348L355,351L355,349L356,350L357,351L359,352L357,352L356,351L358,353L362,355L367,356L370,356L371,353L371,348L370,344L369,341L369,340L370,339L370,335L368,336L366,335L365,333L363,332L361,332L357,330L355,330L354,328L351,324L351,322L346,316L345,317L345,314L347,313L351,314L353,313L354,311L355,311L357,312L358,311L360,311L362,312L364,313L363,315L365,315L364,318L366,319L369,322L371,321L373,322L374,323L375,325L377,325L380,325L382,325L384,323L385,325L386,327L388,328L390,329L386,331L385,329L385,328L384,326L383,327L382,328L385,333L386,334L387,334L391,334L392,335L391,336L389,336L388,337L388,339L389,340L393,345L394,347L393,349L392,351L390,353L387,357L391,361L406,372L409,376L418,390L418,392L418,394L417,396L416,398L418,399Z M145,206L146,204L149,195L150,194L152,193L154,192L158,190L156,187L155,186L156,184L158,185L162,186L163,186L163,183L164,182L167,180L168,178L170,177L172,176L174,174L170,174L167,174L166,173L167,171L168,171L169,170L167,169L166,167L166,165L168,163L167,162L164,160L162,159L160,160L158,160L156,159L151,156L148,156L147,155L140,152L137,150L135,154L135,155L131,156L128,158L127,157L126,157L125,157L122,159L120,160L120,162L121,163L122,163L124,163L125,163L127,164L128,164L129,164L131,165L132,166L133,168L133,169L134,170L136,171L136,172L135,173L134,179L134,180L133,181L133,182L132,183L131,184L130,186L129,187L129,187L139,201L144,208Z M142,143L144,142L145,141L144,141L142,140L141,140L140,139L144,138L140,137L136,137L135,137L133,137L135,141L136,142L138,143L140,143Z " data-fips="CS07" data-hasc="CR.PU" data-name="Puntarenas" data-postal="PU" data-varname=""/><path d="M342,269L344,267L344,267L345,266L345,262L345,261L346,259L346,257L346,256L346,255L344,255L343,254L342,254L343,247L344,246L347,242L348,241L348,238L349,236L352,234L350,232L349,231L332,211L330,211L329,210L326,206L324,207L323,209L322,209L321,210L319,209L318,210L317,211L316,209L316,207L315,206L313,206L312,205L310,203L308,203L305,203L304,202L303,201L302,200L301,197L300,196L299,195L298,195L297,196L294,194L292,194L291,193L288,189L287,188L286,186L284,186L283,184L283,183L283,182L281,181L277,183L275,182L274,183L273,183L271,183L271,182L272,180L273,179L275,177L276,176L277,175L281,169L278,168L278,167L281,161L287,159L290,159L291,159L292,159L294,158L296,157L297,157L298,155L297,152L297,149L296,148L294,145L292,143L291,142L290,141L290,130L291,129L292,127L287,128L285,131L284,132L281,132L278,133L273,133L272,134L273,135L276,139L277,141L278,142L278,145L279,146L280,147L279,151L278,155L275,156L272,157L271,157L267,157L262,159L261,159L258,157L256,158L254,160L251,161L243,163L240,163L238,163L237,163L235,162L233,162L230,162L224,163L220,164L219,166L217,167L215,168L215,169L214,170L212,173L211,174L210,174L209,175L210,176L211,176L212,177L213,178L214,180L214,181L214,182L213,183L212,183L210,183L209,183L208,184L209,188L209,189L209,192L209,193L212,198L213,202L214,204L215,205L216,206L217,207L221,206L222,206L225,206L226,206L227,207L228,207L229,207L230,205L231,204L232,203L232,202L232,199L233,199L234,199L238,198L243,198L245,198L246,199L247,200L248,200L253,200L254,201L256,201L262,201L263,201L264,202L264,203L264,204L264,205L264,206L264,207L265,208L266,208L268,208L270,208L271,208L272,209L272,210L272,211L272,213L272,214L275,216L277,220L280,223L288,228L290,229L291,228L292,227L293,228L294,230L295,233L299,237L300,238L300,240L300,242L301,245L302,246L302,247L303,248L309,251L311,251L312,249L314,248L315,248L316,249L318,251L321,254L321,255L322,259L324,261L335,268L337,268L338,268L339,268L340,269L341,270Z " data-fips="CS08" data-hasc="CR.SJ" data-name="San Jos" data-postal="SJ" data-varname=""/><path d="M211,174L212,173L214,170L215,169L215,168L217,167L219,166L220,164L224,163L230,162L233,162L235,162L237,163L238,163L240,163L243,163L251,161L254,160L256,158L256,157L256,156L257,154L259,152L261,133L261,115L261,101L261,81L262,54L262,53L261,53L259,53L257,54L257,53L254,51L253,50L254,48L256,47L255,44L254,43L253,43L251,41L250,40L248,39L243,37L241,35L239,33L239,32L239,30L238,28L237,28L236,28L229,32L228,33L227,33L226,32L225,32L223,31L221,27L220,27L218,26L212,23L209,22L207,23L204,22L200,19L198,18L194,19L172,33L169,34L166,34L144,26L129,20L128,20L127,21L125,21L120,28L110,34L109,35L108,36L103,37L104,38L109,45L111,46L115,48L118,48L119,49L120,51L123,57L127,57L130,57L132,56L135,56L136,56L137,57L141,59L143,61L144,61L151,63L152,63L155,64L156,65L157,68L159,71L160,75L161,76L164,79L165,81L167,82L174,83L176,85L183,90L184,91L187,97L185,104L185,106L186,108L186,109L184,113L187,117L187,118L188,119L190,119L193,118L194,118L195,117L197,117L199,119L199,121L201,122L201,123L199,126L198,130L199,132L199,133L199,136L199,138L201,141L202,142L204,145L205,146L207,149L207,150L208,151L209,151L210,150L211,150L213,153L213,154L212,155L210,155L204,159L202,160L201,161L199,164L198,165L198,166L198,167L199,168L201,169L204,170L205,170L207,170L208,171L210,174Z " data-fips="CS01" data-hasc="CR.AL" data-name="Alajuela" data-postal="AL" data-varname=""/><path d="M130,186L131,184L132,183L133,182L133,181L134,180L134,179L135,173L136,172L136,171L134,170L133,169L133,168L132,166L131,165L129,164L128,164L127,164L125,163L124,163L122,163L121,163L120,162L120,160L122,159L125,157L126,157L127,157L128,158L131,156L135,155L135,154L137,150L135,147L136,148L137,148L139,148L138,146L136,147L135,144L133,142L129,141L128,139L128,138L129,137L128,134L127,131L127,125L126,122L123,119L122,117L127,120L129,123L129,126L132,129L134,131L136,131L144,131L146,131L148,132L149,133L151,132L153,132L154,132L155,132L156,132L157,133L159,132L160,133L161,133L162,134L164,136L165,138L166,138L168,138L167,136L167,135L167,134L170,131L173,130L174,128L173,127L173,126L173,124L174,121L174,119L174,118L173,117L173,116L174,115L175,114L176,113L177,111L179,111L180,111L181,111L184,113L186,109L186,108L185,106L185,104L187,97L184,91L183,90L176,85L174,83L167,82L165,81L164,79L161,76L160,75L159,71L157,68L156,65L155,64L152,63L151,63L144,61L143,61L141,59L137,57L136,56L135,56L132,56L130,57L127,57L123,57L120,51L119,49L118,48L115,48L111,46L109,45L104,38L103,37L108,36L109,35L110,34L120,28L125,21L127,21L128,20L129,20L115,15L95,7L93,6L91,5L89,3L88,2L84,0L80,2L77,6L74,11L71,16L72,17L74,18L75,19L76,21L74,23L72,23L70,22L69,21L67,23L66,24L67,25L68,25L70,26L71,27L72,28L72,30L72,31L70,33L71,35L69,36L68,35L66,34L64,34L61,34L60,35L61,37L60,38L58,36L58,35L58,34L57,33L56,33L50,34L51,34L52,36L49,36L44,38L41,40L46,40L49,42L52,44L56,45L60,45L60,47L59,47L60,48L64,51L66,49L70,50L74,52L76,54L76,62L76,67L74,69L75,70L73,71L73,72L74,71L75,72L74,72L73,73L72,75L72,76L77,71L79,72L79,73L80,74L76,78L74,78L72,80L71,81L70,83L69,83L66,84L64,85L61,84L60,86L59,87L58,88L59,88L59,89L58,90L59,91L61,93L62,96L59,98L58,100L57,101L55,100L54,102L53,104L50,106L49,107L51,108L54,112L54,113L53,114L52,115L52,117L53,119L53,123L58,135L59,137L60,140L61,142L74,157L75,161L74,163L76,164L77,164L78,164L79,164L81,165L84,166L92,168L93,168L94,169L95,169L96,169L98,171L100,171L102,169L103,169L116,174L120,176L123,180L123,182L124,183L127,184L128,185L129,187Z " data-fips="CS03" data-hasc="CR.GU" data-name="Guanacaste" data-postal="GU" data-varname=""/></g></svg>