<?xml version="1.0" ?><!DOCTYPE svg  PUBLIC '-//W3C//DTD SVG 1.1//EN'  'http://www.w3.org/Graphics/SVG/1.1/DTD/svg11.dtd'><svg enable_background="new 0 0 500 401" height="401px" style="stroke-linejoin: round; stroke:#000; fill:#f6f3f0;" version="1.1" viewBox="0 0 500 401" width="500px" xmlns="http://www.w3.org/2000/svg" xmlns:xlink="http://www.w3.org/1999/xlink"><defs><style type="text/css"><![CDATA[path { fill-rule: evenodd; }
#context path { fill: #eee; stroke: #bbb; } ]]></style></defs><metadata><views><view h="401" padding="0" w="500"><proj id="laea" lat0="21.297" lon0="-77.781"/><bbox h="42.78" w="124.27" x="917.98" y="975.35"/><llbbox lat0="-90" lat1="90" lon0="-180" lon1="180"/></view></views></metadata><g id="admin1"><path d="M224,183L225,182L227,179L226,178L226,177L225,175L224,174L224,173L223,171L223,169L223,167L224,166L224,165L223,164L222,163L222,162L221,160L220,160L219,160L217,158L217,157L218,155L217,154L217,153L216,152L216,150L217,149L216,148L215,149L214,149L214,150L213,150L212,151L211,151L211,149L210,148L209,149L208,148L207,148L206,149L204,150L203,151L202,153L201,153L199,154L194,153L193,153L190,152L189,153L188,154L187,154L186,155L186,156L186,157L185,159L186,159L186,160L186,161L185,163L186,164L187,164L187,166L189,167L190,169L191,169L193,170L194,170L196,170L197,171L198,170L199,170L200,171L200,172L201,174L204,174L206,175L207,173L206,172L206,171L205,170L203,168L204,167L205,168L206,167L207,168L207,170L208,171L209,171L210,172L209,173L210,173L209,173L207,174L209,175L209,176L214,181L215,182L218,183L219,184L221,185L223,186Z " data-fips="CU08" data-hasc="CU.CF" data-name="Cienfuegos" data-postal="CF" data-varname=""/><path d="M131,196L133,196L134,195L136,195L137,194L136,193L135,194L134,194L132,195L131,195L130,196Z M141,193L142,192L141,193L140,194L138,194L140,194Z M157,195L159,195L162,192L164,190L162,191L161,192L161,193L159,193L158,193L157,194L156,194L156,195Z M97,202L100,200L106,198L108,197L109,196L110,195L110,194L109,193L109,192L108,192L107,191L107,189L108,188L108,187L107,186L106,185L104,184L104,183L104,182L104,180L103,179L100,178L96,177L90,177L91,178L90,178L89,179L88,180L86,181L86,183L86,185L90,193L92,194L91,195L91,194L89,195L88,196L86,196L84,195L83,194L80,192L81,194L81,195L82,196L84,198L86,200L88,200L89,201L92,201L93,202Z M108,178L108,177L106,176L105,178L107,178Z " data-fips="CU04" data-hasc="CU.IJ" data-name="Isla de la Juventud" data-postal="IJ" data-varname=""/><path d="M65,175L64,174L63,175L64,175Z M22,183L24,182L30,177L31,177L33,176L34,176L35,176L37,175L38,175L39,175L41,176L42,176L43,175L44,174L43,174L44,173L46,171L46,170L45,171L44,170L44,169L45,168L45,167L46,165L48,164L49,163L53,164L54,163L55,164L59,164L61,164L62,163L63,162L64,161L64,163L66,164L69,164L71,163L72,162L73,162L74,162L75,160L75,159L77,158L77,157L78,157L79,156L80,156L81,157L83,157L84,156L87,151L88,149L90,148L93,147L95,146L98,144L99,144L98,143L97,140L96,138L95,137L94,136L93,135L93,133L94,133L95,132L95,130L94,128L94,127L94,125L93,125L92,124L91,124L92,124L91,123L90,123L89,123L88,124L86,124L85,124L84,125L85,126L84,127L83,127L83,126L83,125L83,124L81,124L80,124L78,125L76,126L76,127L75,129L73,130L72,129L71,128L70,129L69,130L69,129L67,129L66,131L64,131L62,132L62,133L61,133L60,133L59,133L57,133L53,135L51,135L49,136L47,138L45,138L45,137L44,136L43,137L44,138L44,139L43,139L41,139L41,141L39,142L38,143L38,143L36,143L35,143L36,144L36,145L35,146L33,147L32,148L31,149L30,150L29,151L29,152L28,152L27,154L26,156L26,157L26,158L25,160L24,161L25,162L26,163L27,164L29,165L28,166L29,167L29,169L30,169L31,168L30,170L28,171L28,170L26,169L25,169L24,170L23,170L21,169L20,169L17,171L13,172L10,173L6,175L6,173L5,174L4,175L3,176L2,175L1,174L0,175L0,177L1,178L3,179L5,179L7,179L12,176L13,175L17,174L19,174L21,174L22,176L22,178L19,182L20,183Z " data-fips="CU01" data-hasc="CU.PR" data-name="Pinar del Ro" data-postal="PR" data-varname=""/><path d="M266,200L268,199L271,198L274,198L275,197L275,197L275,196L275,195L275,193L274,192L273,192L272,193L272,194L271,194L270,194L269,194L269,191L268,190L270,187L270,184L272,181L272,180L273,180L274,180L276,176L275,175L274,174L272,173L272,172L272,170L273,168L274,166L274,165L275,164L276,161L277,159L277,158L275,157L273,158L270,158L269,158L268,158L266,159L263,158L262,158L261,157L260,157L258,157L255,154L255,155L254,157L255,158L256,161L258,163L258,164L257,166L256,166L255,165L254,165L253,166L252,167L251,169L250,169L249,170L248,169L246,169L244,169L243,169L242,169L241,168L240,168L238,168L238,170L239,171L240,172L241,173L240,174L240,176L239,177L237,178L236,178L235,177L232,177L231,177L230,178L229,179L228,179L225,182L224,183L223,186L225,186L225,188L226,190L227,190L228,190L228,189L229,190L231,190L233,189L233,190L233,191L232,192L234,192L235,193L236,191L237,191L240,192L244,193L245,194L246,195L248,195L249,196L250,195L251,196L252,197L254,197L257,197L259,199L262,200L264,200Z M276,145L275,144L270,144L271,145L274,145L275,146Z " data-fips="CU14" data-hasc="CU.SS" data-name="Sancti Spritus" data-postal="SS" data-varname=""/><path d="M285,241L283,240L282,239L282,240L283,241L284,242Z M279,237L277,236L277,236L276,236L275,236L276,237L279,238L281,238Z M275,234L274,233L272,233L271,232L270,233L273,234L274,235Z M270,231L269,230L267,228L265,227L263,227L264,228L265,228L264,227L265,227L267,228L268,230L268,231L267,229L266,229L267,231L268,232L269,232Z M260,223L258,221L257,221L256,221L258,222L258,223L257,223L259,224Z M292,200L295,198L296,197L297,197L298,197L299,197L300,195L301,194L302,194L304,194L303,193L304,192L305,191L305,190L305,189L305,188L306,187L307,187L308,188L308,189L309,189L311,189L311,187L313,187L312,185L311,184L309,182L308,181L310,180L311,179L312,179L313,179L314,177L315,176L316,176L317,175L316,174L315,173L314,172L313,172L312,171L309,170L307,170L306,169L305,169L304,168L303,167L302,166L302,166L299,165L297,164L296,164L295,163L294,162L289,160L287,158L286,158L287,159L287,160L286,162L285,162L284,158L282,158L277,158L277,159L276,161L275,164L274,165L274,166L273,168L272,170L272,172L272,173L274,174L275,175L276,176L274,180L273,180L272,180L272,181L270,184L270,187L268,190L269,191L269,194L270,194L271,194L272,194L272,193L273,192L274,192L275,193L275,195L275,196L275,197L275,197L276,197L277,198L279,197L279,197L282,196L285,195L286,196L287,196L287,197L288,198L287,198L286,198L286,199L289,200L290,201Z M306,156L307,155L304,152L304,151L303,150L302,150L300,150L299,151L297,151L296,151L295,151L294,151L293,151L291,150L289,150L288,151L289,152L290,151L291,152L291,153L292,154L294,154L295,155L296,155L298,155L300,155L302,155L301,156L300,157Z M287,151L286,151L285,151L285,152Z " data-fips="CU05" data-hasc="CU.CA" data-name="Ciego de vila" data-postal="CA" data-varname=""/><path d="M305,250L304,249L303,249L302,249L302,249L301,248L300,247L298,247L300,248L301,248L302,250L303,251L304,251Z M293,244L293,244L293,244L293,244L291,244L292,245Z M297,242L299,242L299,241L298,241L298,241L297,241L295,242Z M323,242L325,241L326,241L328,241L328,237L331,234L332,234L335,233L336,232L336,231L336,230L337,229L338,230L339,230L339,230L340,229L342,228L343,227L344,227L344,226L345,225L345,224L346,224L347,226L348,226L349,226L349,227L350,228L351,227L352,228L353,228L354,224L355,223L356,223L358,222L358,222L360,219L360,215L362,212L360,211L360,210L361,209L362,207L364,207L366,206L367,205L369,205L368,204L362,197L361,198L360,200L359,203L358,204L356,205L356,204L354,204L354,202L353,201L355,200L353,199L352,199L350,198L349,198L350,196L351,197L352,197L353,197L355,197L358,199L359,199L360,198L360,196L360,195L360,194L358,195L357,194L354,192L352,190L351,189L348,189L348,188L342,184L342,183L340,181L339,182L338,183L339,184L341,185L343,187L344,188L345,188L346,189L347,190L348,191L349,193L350,194L350,195L349,196L348,195L346,195L346,193L345,192L345,190L347,190L345,189L344,189L343,189L342,189L342,190L340,189L338,188L335,188L333,188L331,187L331,186L331,185L330,184L328,184L327,183L327,181L327,180L328,179L327,179L326,180L326,184L325,184L324,182L321,179L320,179L319,177L319,176L318,175L317,173L316,174L317,175L316,176L315,176L314,177L313,179L312,179L311,179L310,180L308,181L309,182L311,184L312,185L313,187L311,187L311,189L309,189L308,189L308,188L307,187L306,187L305,188L305,189L305,190L305,191L304,192L303,193L304,194L302,194L301,194L300,195L299,197L298,197L297,197L296,197L295,198L292,200L290,201L291,201L292,203L293,204L293,207L294,208L294,210L295,212L295,213L297,214L296,215L295,214L295,216L295,217L296,219L297,220L297,223L298,225L300,227L301,229L302,230L304,230L307,232L308,233L309,235L309,236L310,235L311,236L312,237L314,239L315,240L317,241L318,242L320,242Z M334,181L334,180L335,181L336,181L337,180L336,179L337,176L337,175L335,175L334,175L332,174L330,174L330,173L329,173L327,173L326,174L325,174L324,173L323,173L322,174L323,175L324,176L325,177L326,176L327,177L328,176L328,177L328,178L329,179L330,179L331,180L332,180L332,181L334,182Z M327,172L327,170L326,169L325,168L326,167L325,167L324,167L323,167L323,167L322,166L321,166L321,165L321,164L321,162L319,162L320,163L320,166L319,168L318,169L320,170L320,171L323,172L323,170L324,171L324,172L325,173L326,173Z M331,169L330,168L330,167L329,166L328,164L328,163L326,163L327,163L327,165L329,168L330,169Z M319,164L318,163L317,162L316,159L315,158L315,157L313,156L312,156L311,156L310,156L309,157L306,157L306,158L307,158L308,157L309,158L309,159L309,160L309,161L310,160L311,159L312,161L311,161L312,162L313,163L314,163L315,163L318,164Z " data-fips="CU05" data-hasc="CU.CM" data-name="Camagey" data-postal="CM" data-varname="Puerto Principe"/><path d="M447,282L449,281L449,279L451,278L452,278L453,277L453,276L452,276L452,275L453,275L454,276L454,274L455,273L456,274L456,276L455,277L454,277L454,278L455,278L455,281L457,281L457,280L458,281L459,280L461,279L462,277L464,277L465,277L466,276L467,275L467,274L468,274L470,274L475,273L480,273L483,272L485,272L488,271L490,271L492,272L494,272L495,270L496,268L498,267L499,267L500,266L500,265L500,263L499,262L497,261L496,259L494,259L492,260L491,261L489,260L488,261L487,260L486,259L485,258L484,258L483,258L480,255L479,253L478,251L476,250L475,249L473,248L472,248L471,249L470,250L469,251L469,252L469,254L467,255L467,255L466,255L465,255L463,254L461,252L459,253L460,254L460,255L459,255L457,254L456,254L454,252L453,252L452,253L451,253L450,253L449,254L448,256L447,256L445,256L445,255L443,254L441,256L440,256L440,257L439,258L438,259L437,260L438,262L438,264L437,265L438,267L439,268L439,270L440,270L440,272L438,273L437,273L437,276L438,277L439,278L442,282Z " data-fips="CU10" data-hasc="CU.GU" data-name="Guantnamo" data-postal="GU" data-varname=""/><path d="M338,285L340,285L342,285L345,284L350,284L352,283L351,283L351,282L353,282L354,282L355,282L357,282L358,281L359,282L361,282L362,283L365,283L365,281L365,280L368,279L370,277L372,277L373,277L374,276L376,275L377,276L378,276L378,276L380,276L381,277L382,277L383,277L385,277L386,276L387,276L387,275L388,275L390,275L391,275L392,274L394,272L394,272L394,267L393,266L394,265L395,263L396,259L396,258L398,258L399,258L400,257L400,256L400,255L401,254L402,255L402,256L402,257L403,257L405,255L403,253L402,252L401,251L400,251L398,250L397,250L396,250L396,249L395,248L394,248L392,247L389,246L387,245L387,243L386,242L385,243L383,243L382,242L381,241L380,242L377,242L376,242L375,241L374,240L373,240L371,240L370,240L368,240L367,240L365,240L364,240L363,240L361,239L357,239L355,238L354,239L353,239L352,240L352,241L351,241L352,242L353,243L353,244L354,245L356,244L357,246L356,247L355,248L355,249L356,250L358,250L359,250L361,252L363,254L361,256L361,259L359,260L359,261L358,262L357,263L356,262L355,263L354,264L352,265L348,267L347,268L346,269L343,271L342,272L341,273L339,273L340,274L337,277L336,278L335,279L335,280L334,281L333,282L332,283L332,285L334,285L335,286Z " data-fips="CU09" data-hasc="CU.GR" data-name="Granma" data-postal="GR" data-varname=""/><path d="M409,256L409,255L409,254L408,252L409,251L410,251L411,250L411,248L414,250L414,251L415,252L416,252L416,253L418,254L419,256L420,256L421,256L425,254L427,255L429,254L431,252L431,251L432,251L434,251L435,249L436,249L438,250L440,249L441,249L441,251L440,252L440,253L441,254L443,254L445,255L445,256L447,256L448,256L449,254L450,253L451,253L452,253L453,252L454,252L456,254L457,254L459,255L460,255L460,254L459,253L461,252L463,254L465,255L466,255L467,255L467,255L469,254L469,252L469,251L470,250L471,249L472,248L473,248L472,248L472,247L471,245L470,245L466,244L465,244L464,243L463,243L462,242L461,242L459,241L455,243L455,242L454,243L453,242L451,242L450,242L450,241L448,240L447,240L446,240L445,241L447,243L445,243L444,243L443,243L442,241L443,240L442,240L440,239L439,239L438,241L439,241L438,242L437,241L436,242L433,241L434,242L432,242L432,240L431,241L431,239L430,238L429,239L427,240L427,242L426,242L424,241L423,239L423,237L424,236L423,235L427,235L430,235L431,236L432,236L433,237L434,236L432,235L432,234L430,233L429,233L428,233L426,234L425,233L425,232L426,231L427,231L427,232L429,232L430,230L430,229L431,228L432,226L430,224L429,223L428,223L427,222L426,221L425,221L423,221L422,220L421,220L418,222L417,221L416,221L414,222L412,222L412,223L411,223L410,222L409,221L408,222L407,222L406,221L406,220L406,219L405,218L399,215L398,215L398,215L397,218L397,219L397,221L395,222L394,222L392,223L391,224L390,225L389,226L389,227L388,228L387,228L383,230L382,229L381,229L381,230L381,234L381,235L380,236L379,237L379,239L380,239L380,241L380,242L381,241L382,242L383,243L385,243L386,242L387,243L387,245L389,246L392,247L394,248L395,248L396,249L396,250L397,250L398,250L400,251L401,251L402,252L403,253L405,255L406,255L407,255L408,256L408,257Z M437,239L436,238L436,237L435,237L432,237L433,239L434,239Z " data-fips="CU12" data-hasc="CU.HO" data-name="Holgun" data-postal="HO" data-varname=""/><path d="M344,243L345,243L346,242L348,242L349,241L351,241L352,241L352,240L353,239L354,239L355,238L357,239L361,239L363,240L364,240L365,240L367,240L368,240L370,240L371,240L373,240L374,240L375,241L376,242L377,242L380,241L380,239L379,239L379,237L380,236L381,235L381,234L381,230L381,229L382,229L383,230L387,228L388,228L389,227L389,226L390,225L391,224L392,223L394,222L395,222L397,221L397,219L397,218L398,215L398,215L398,214L396,213L395,213L388,213L388,215L389,215L391,216L389,217L388,217L387,218L386,217L385,217L385,216L384,216L387,215L387,213L387,214L386,213L385,213L383,212L382,213L383,214L384,215L383,215L381,214L380,213L378,213L379,212L379,213L382,212L383,211L382,210L381,209L380,209L378,209L375,208L375,209L375,210L374,211L374,212L374,211L371,212L371,210L372,209L374,209L375,209L374,207L374,206L371,206L369,205L367,205L366,206L364,207L362,207L361,209L360,210L360,211L362,212L360,215L360,219L358,222L358,222L356,223L355,223L354,224L353,228L352,228L351,227L350,228L349,227L349,226L348,226L347,226L346,224L345,224L345,225L344,226L344,227L343,227L342,228L340,229L339,230L339,230L338,230L337,229L336,230L336,231L336,232L335,233L332,234L331,234L328,237L328,241L328,241L330,242L332,242L334,242L335,243L337,243L338,243L340,242L343,243Z " data-fips="CU13" data-hasc="CU.LT" data-name="Las Tunas" data-postal="LT" data-varname=""/><path d="M368,282L370,282L371,282L372,280L374,280L375,280L376,280L377,280L383,279L389,280L390,279L392,279L393,278L396,278L398,278L402,277L404,277L408,277L415,279L416,278L419,278L422,279L425,278L426,279L428,279L430,281L432,282L433,281L434,282L436,282L437,282L439,282L440,282L442,282L439,278L438,277L437,276L437,273L438,273L440,272L440,270L439,270L439,268L438,267L437,265L438,264L438,262L437,260L438,259L439,258L440,257L440,256L441,256L441,254L440,253L440,252L441,251L441,249L440,249L438,250L436,249L435,249L434,251L432,251L431,251L431,252L429,254L427,255L425,254L421,256L420,256L419,256L418,254L416,253L416,252L415,252L414,251L414,250L411,248L411,250L410,251L409,251L408,252L409,254L409,255L409,256L408,257L408,256L407,255L406,255L405,255L403,257L402,257L402,256L402,255L401,254L400,255L400,256L400,257L399,258L398,258L396,258L396,259L395,263L394,265L393,266L394,267L394,272L394,272L392,274L391,275L390,275L388,275L387,275L387,276L386,276L385,277L383,277L382,277L381,277L380,276L378,276L378,276L377,276L376,275L374,276L373,277L372,277L370,277L368,279L365,280L365,281L365,283Z " data-fips="CU15" data-hasc="CU.SC" data-name="Santiago de Cuba" data-postal="SC" data-varname=""/><path d="M121,126L123,126L124,127L126,126L126,125L128,123L128,122L128,121L129,121L130,120L131,120L133,121L133,120L133,119L134,118L133,117L133,116L132,116L131,116L127,116L126,116L123,117L121,117L118,118L116,119L115,120L114,121L113,121L114,122L115,121L116,122L115,123L115,124L117,125L117,127L119,127L120,127Z " data-fips="CU02" data-hasc="CU.CH" data-name="Ciudad de la Habana" data-postal="CH" data-varname=""/><path d="M153,146L154,145L155,144L155,141L154,140L153,139L153,138L153,136L152,135L151,133L152,131L152,129L151,128L150,127L149,126L149,125L150,125L151,124L150,123L151,122L152,122L151,119L152,118L145,118L144,118L142,118L139,117L138,117L136,116L135,116L133,116L133,117L134,118L133,119L133,120L133,121L131,120L130,120L129,121L128,121L128,122L128,123L126,125L126,126L124,127L123,126L121,126L120,127L119,127L117,127L117,125L115,124L115,123L116,122L115,121L114,122L113,121L110,122L109,122L105,123L101,122L100,123L98,123L97,123L95,123L95,124L94,125L94,127L94,128L95,130L95,132L94,133L93,133L93,135L94,136L95,137L96,138L97,140L98,143L99,144L100,143L100,141L101,139L103,139L105,140L112,141L113,140L118,140L121,141L122,141L124,140L125,140L131,142L133,142L137,142L141,142L145,142L147,143L148,143L150,146L153,147Z " data-fips="CU11" data-hasc="CU.LH" data-name="La Habana" data-postal="LH" data-varname=""/><path d="M157,173L156,172L155,172L155,173Z M193,173L199,174L201,174L200,172L200,171L199,170L198,170L197,171L196,170L194,170L193,170L191,169L190,169L189,167L187,166L187,164L186,164L185,163L186,161L186,160L186,159L185,159L186,157L186,156L186,155L187,154L188,154L189,153L190,152L193,153L194,153L199,154L201,153L202,153L203,151L204,150L203,148L203,146L203,145L203,143L203,142L202,140L203,139L202,138L202,137L201,136L200,136L199,137L198,137L197,136L196,135L196,135L195,134L194,133L195,132L195,131L195,129L196,128L197,128L198,128L199,128L200,128L200,126L201,125L202,124L202,123L200,122L202,119L201,119L200,119L200,121L199,122L198,122L197,122L195,122L194,122L186,123L184,123L184,122L183,121L181,121L179,122L178,123L177,124L176,125L175,124L172,121L170,120L171,119L173,118L175,117L177,116L176,116L174,117L172,118L170,119L168,119L167,120L166,120L161,121L161,122L160,123L159,124L158,123L159,122L159,121L159,120L158,119L157,118L155,118L154,118L153,118L152,118L151,119L152,122L151,122L150,123L151,124L150,125L149,125L149,126L150,127L151,128L152,129L152,131L151,133L152,135L153,136L153,138L153,139L154,140L155,141L155,144L154,145L153,146L153,147L153,147L153,149L153,150L152,151L151,151L150,153L149,153L148,153L143,154L142,153L141,154L132,154L131,153L130,154L129,155L130,156L132,157L133,158L134,159L135,160L142,162L143,163L143,165L145,166L147,166L148,166L149,166L150,166L151,166L152,165L153,165L156,167L157,166L159,166L160,166L162,167L164,167L165,171L166,171L167,171L168,171L169,170L170,169L171,169L172,170L172,172L172,173L173,171L173,165L172,163L173,162L174,163L176,165L175,167L176,168L177,171L178,172L180,172L182,174L186,174Z M187,120L188,120L190,120L191,120L192,119L191,118L190,118L190,117L189,119L188,119L184,121Z M207,118L206,117L205,117L204,117L203,117L202,117L203,118L205,118L206,119Z M198,118L198,117L198,116L197,117L197,118Z M196,117L193,116L192,116L191,116L189,116L190,116L192,117L194,117L195,117Z M188,114L187,113L186,114L187,115Z " data-fips="CU03" data-hasc="CU.MA" data-name="Matanzas" data-postal="MA" data-varname=""/><path d="M229,179L230,178L231,177L232,177L235,177L236,178L237,178L239,177L240,176L240,174L241,173L240,172L239,171L238,170L238,168L240,168L241,168L242,169L243,169L244,169L246,169L248,169L249,170L250,169L251,169L252,167L253,166L254,165L255,165L256,166L257,166L258,164L258,163L256,161L255,158L254,157L255,155L255,154L254,153L253,151L251,151L250,150L249,148L248,146L247,145L245,145L244,139L243,140L242,140L238,137L236,137L235,137L235,136L236,133L237,134L238,132L235,133L233,135L232,134L231,134L229,133L228,131L227,130L226,129L225,131L224,130L221,129L221,130L219,131L217,132L215,131L213,131L212,130L209,130L208,128L207,128L204,127L203,127L202,124L201,125L200,126L200,128L199,128L198,128L197,128L196,128L195,129L195,131L195,132L194,133L195,134L196,135L196,135L197,136L198,137L199,137L200,136L201,136L202,137L202,138L203,139L202,140L203,142L203,143L203,145L203,146L203,148L204,150L206,149L207,148L208,148L209,149L210,148L211,149L211,151L212,151L213,150L214,150L214,149L215,149L216,148L217,149L216,150L216,152L217,153L217,154L218,155L217,157L217,158L219,160L220,160L221,160L222,162L222,163L223,164L224,165L224,166L223,167L223,169L223,171L224,173L224,174L225,175L226,177L226,178L227,179L228,179Z M258,145L257,144L255,143L254,142L251,141L250,140L248,137L246,137L245,137L246,138L247,138L248,139L249,140L250,141L251,142L252,143L254,143L256,145L258,146L259,146Z M244,135L243,135L243,134L241,133L241,132L240,133L241,134L242,135L243,136Z M232,130L233,131L234,129L233,129L232,129L231,130L231,131Z M236,131L236,130L237,130L236,129L235,129L235,130L235,132L236,132Z M217,128L217,128L217,127L216,127L213,128L218,129Z M226,124L225,124L224,125L225,125L226,126Z M222,123L222,123L220,122L219,122L218,123L221,124Z M218,122L217,121L216,120L215,120L216,121L217,122L217,123Z M210,120L211,120L212,120L210,119L208,120L208,121Z " data-fips="CU16" data-hasc="CU.VC" data-name="Villa Clara" data-postal="VC" data-varname=""/></g></svg>