<?xml version="1.0" ?><!DOCTYPE svg  PUBLIC '-//W3C//DTD SVG 1.1//EN'  'http://www.w3.org/Graphics/SVG/1.1/DTD/svg11.dtd'><svg enable_background="new 0 0 500 401" height="401px" style="stroke-linejoin: round; stroke:#000; fill:#f6f3f0;" version="1.1" viewBox="0 0 500 401" width="500px" xmlns="http://www.w3.org/2000/svg" xmlns:xlink="http://www.w3.org/1999/xlink"><defs><style type="text/css"><![CDATA[path { fill-rule: evenodd; }
#context path { fill: #eee; stroke: #bbb; } ]]></style></defs><metadata><views><view h="401" padding="0" w="500"><proj id="laea" lat0="74.719" lon0="-41.391"/><bbox h="294.23" w="160.39" x="919.99" y="889.13"/><llbbox lat0="-90" lat1="90" lon0="-180" lon1="180"/></view></views></metadata><g id="admin1"><path d="M148,99L149,97L150,97L151,98L151,97L150,96L149,96L147,95L146,96L146,98L146,100L147,100Z " data-fips="" data-hasc="GL.VG" data-name="Pituffik" data-postal="VG" data-varname="Thule Air Base"/><path d="M196,377L197,376L197,376L198,376L199,376L203,373L207,370L209,367L210,367L212,365L215,363L219,360L222,357L224,355L227,352L230,350L232,350L233,350L235,350L236,350L236,350L237,351L238,351L240,351L240,350L241,351L240,350L241,351L241,349L241,350L241,348L242,347L243,347L243,348L243,349L244,349L245,349L246,349L247,348L247,347L248,347L248,346L247,346L245,345L244,344L244,343L245,344L245,344L246,345L247,345L249,345L248,345L247,344L246,343L245,342L247,343L248,344L249,345L249,343L249,342L248,341L247,341L248,340L246,339L246,338L248,338L249,339L250,340L252,341L251,340L250,339L249,338L249,337L250,338L251,339L250,338L250,337L250,338L251,339L251,340L252,339L251,338L251,337L253,338L252,337L253,337L254,337L255,337L254,336L253,335L251,335L250,334L249,333L248,333L250,332L250,333L252,334L253,334L255,334L256,335L256,334L255,333L256,332L255,331L255,330L255,329L256,328L256,327L254,327L253,327L253,328L252,327L249,326L248,325L249,324L250,324L252,324L253,324L254,323L255,323L256,324L257,323L257,322L255,322L256,321L255,319L255,318L254,317L253,316L253,315L252,315L252,313L253,313L252,312L252,311L254,311L255,312L256,311L257,311L257,313L258,312L259,311L260,311L259,310L259,309L260,309L261,308L260,308L260,307L261,306L260,305L258,304L259,304L259,303L261,304L261,304L261,303L261,302L262,302L263,302L264,303L264,302L264,303L265,302L264,301L264,300L265,301L266,302L266,303L267,303L268,303L269,303L269,302L268,301L269,301L270,301L270,302L271,301L272,302L272,301L272,300L272,299L271,298L270,297L270,296L271,297L272,297L272,296L273,296L273,295L273,294L272,294L273,293L274,292L273,291L274,292L274,290L272,290L273,289L274,289L274,289L275,290L276,290L277,290L278,290L277,290L276,291L276,292L276,293L275,294L274,295L275,296L274,297L275,296L276,297L277,298L279,299L278,298L279,298L279,297L279,296L279,295L279,296L280,297L280,298L281,297L280,296L282,296L283,295L283,293L284,293L284,294L284,296L285,295L285,296L286,295L287,294L287,293L288,293L287,292L288,292L288,291L289,291L288,291L289,290L288,290L288,289L288,288L288,289L289,289L290,289L290,289L292,289L291,288L292,287L292,288L293,288L294,288L295,287L296,286L296,285L296,284L295,283L296,282L296,281L296,282L296,283L297,282L297,284L298,282L298,281L299,280L298,279L298,278L299,277L298,277L300,276L299,276L300,275L301,274L301,273L300,272L302,272L301,270L300,270L302,270L302,269L301,268L301,267L302,267L303,265L302,265L303,264L304,264L304,263L305,262L306,261L307,260L308,261L308,260L308,259L308,258L308,257L308,256L307,256L305,255L307,255L308,255L307,253L306,252L305,252L304,251L304,250L304,249L304,248L305,249L305,250L306,251L306,251L307,252L307,253L308,254L311,254L310,255L310,256L311,256L312,256L314,256L315,256L316,255L317,256L318,255L317,253L316,252L318,254L318,255L320,254L320,254L320,253L319,252L320,252L319,251L320,250L321,249L321,250L322,251L323,251L324,252L324,251L324,250L325,250L325,249L326,249L327,248L328,248L328,247L330,247L330,246L331,246L331,245L331,244L332,245L333,245L334,245L333,244L334,243L334,244L336,243L335,242L337,242L338,241L338,240L339,241L340,240L341,239L341,238L342,238L343,237L343,236L344,235L343,234L344,234L344,233L343,232L344,232L345,232L345,231L346,231L346,230L345,229L344,229L345,228L346,228L347,228L348,227L347,226L349,226L349,224L350,224L350,223L349,222L348,222L350,222L351,222L351,221L352,220L351,219L350,219L351,219L353,217L353,216L354,217L355,217L354,216L353,216L354,215L354,214L355,215L355,214L356,213L356,212L357,212L358,210L357,209L356,210L349,212L348,212L347,212L346,212L344,212L343,211L342,211L341,211L340,212L339,212L339,211L339,210L338,211L336,213L334,215L333,215L332,215L331,215L330,216L330,217L330,218L330,220L328,220L328,219L327,220L326,220L324,220L323,220L324,219L325,219L326,219L327,218L328,217L330,215L330,214L332,214L333,213L334,212L332,211L331,211L330,212L329,212L324,215L323,215L322,214L322,213L321,214L320,214L319,215L318,216L317,215L318,214L320,213L321,213L322,212L322,211L323,210L323,209L323,207L323,206L322,206L321,205L322,204L323,205L324,204L323,204L322,202L322,203L320,204L317,206L314,206L312,207L309,207L306,208L303,208L301,209L298,209L295,209L293,210L290,210L287,210L285,211L282,211L279,211L276,211L274,212L271,212L268,212L266,212L263,212L260,212L257,212L255,213L252,213L249,213L246,213L244,213L241,212L238,212L236,212L235,219L235,226L235,236L234,246L234,247L234,249L234,251L234,253L233,262L233,270L233,274L233,277L233,280L232,292L231,306L228,306L225,306L221,306L218,305L214,305L211,305L207,305L204,304L200,304L197,303L195,303L194,303L192,303L189,302L188,303L187,303L186,303L185,304L184,305L184,305L183,306L183,307L184,308L184,309L184,310L185,312L187,312L187,311L189,311L187,312L187,313L187,314L187,315L187,316L188,317L189,318L190,318L189,319L188,318L187,317L186,316L186,315L186,313L185,313L184,313L185,314L184,314L182,314L183,315L183,316L184,316L183,317L185,317L186,317L186,318L185,318L184,318L183,317L183,318L182,317L181,317L180,319L180,320L181,320L180,320L179,320L178,321L177,320L175,320L175,321L176,320L177,321L176,320L175,321L176,322L182,321L183,320L184,320L184,319L184,320L184,321L185,321L185,321L186,321L185,321L184,322L183,322L182,321L181,322L180,322L179,322L177,323L176,323L175,323L175,324L176,324L176,325L175,326L177,326L178,325L179,325L178,326L177,327L175,328L176,328L174,328L176,330L175,331L176,331L177,331L177,330L178,329L179,330L181,330L179,330L178,330L177,331L178,332L180,332L178,332L177,333L177,334L178,333L177,334L178,334L180,334L182,334L183,334L181,335L179,335L177,335L177,336L177,337L177,338L178,337L179,336L178,338L179,337L181,337L181,338L183,337L184,338L182,338L181,339L180,339L180,340L180,341L181,342L182,341L182,342L181,343L181,345L182,344L182,343L183,342L184,342L185,341L187,341L186,341L183,343L182,344L182,345L182,346L183,345L184,344L185,344L184,344L183,345L182,346L182,347L181,348L181,349L181,350L182,351L182,352L183,353L184,354L186,354L187,354L188,355L187,354L186,355L185,356L187,356L187,355L188,356L187,357L186,357L186,358L184,358L186,358L187,358L187,359L188,358L189,358L189,356L190,356L189,357L190,358L191,358L190,358L188,359L187,359L187,360L186,361L187,362L188,361L186,362L187,363L188,362L188,361L190,359L192,360L191,360L190,361L189,362L188,362L188,363L190,363L190,363L190,363L189,364L189,365L191,366L189,366L186,366L188,367L189,368L190,368L191,367L193,367L194,367L193,367L195,367L193,368L191,368L190,368L189,368L189,370L189,369L190,369L191,368L192,369L193,370L193,371L192,371L191,372L192,372L193,373L194,373L193,374L194,373L195,372L195,371L197,371L196,371L195,372L195,374L196,374L195,375L196,375L197,374L197,375L197,376L195,376L194,376L193,376L194,376L195,377Z M195,375L195,375L194,375L193,375L194,375Z M190,371L191,371L190,371L189,371Z M192,370L192,370L190,370L191,371Z M244,351L245,351L244,350L245,350L246,350L245,350L242,349L242,349L242,350L243,351Z M249,347L249,347L248,346L248,347L248,348Z M251,343L250,343L249,343L250,344Z M252,341L251,340L250,340L249,339L248,339L247,338L246,339L247,339L248,340L249,341L250,342L250,341L251,342L251,341L252,342Z M179,339L179,338L179,338L178,338L178,339Z M255,326L255,326L255,325L254,324L253,325L252,326L253,326Z M179,319L180,318L180,317L181,317L182,316L182,315L180,315L180,316L179,317L179,318L178,319L178,320Z M179,316L179,315L180,314L179,315L178,316L177,317L178,317Z M259,321L258,320L257,319L257,318L256,317L257,317L256,316L255,315L255,314L253,314L254,316L255,317L255,317L256,318L256,319L256,320L257,321L258,322Z M174,319L175,318L175,317L176,317L177,315L178,314L178,313L179,312L179,311L181,311L180,312L179,313L181,313L182,313L184,312L184,311L184,309L184,309L183,308L182,308L181,309L180,309L179,309L178,310L178,310L177,311L176,312L176,313L175,313L174,313L173,313L173,315L173,316L173,317L173,318L173,319Z M263,307L261,307L261,306L261,307L263,308Z M280,301L281,300L279,300L279,301L280,301L280,302Z M281,299L281,297L280,299L281,299Z M275,301L277,302L278,301L278,300L277,300L277,299L278,299L277,298L276,298L275,297L274,298L274,299L273,300L274,301L274,302L275,302Z M285,297L285,296L284,297L284,298Z M283,297L283,296L283,295L282,296L282,297L283,298Z M322,253L321,252L320,252L320,253L321,253Z M354,219L353,218L352,218L352,219L352,220Z M334,210L333,210L333,211L334,211Z M326,206L327,205L325,206L325,206L324,206L324,208L325,208Z M330,211L332,210L333,209L334,209L335,209L336,208L337,207L338,206L337,205L336,205L336,204L336,203L336,202L335,202L334,201L334,200L332,202L331,203L330,204L327,205L327,207L326,208L325,209L325,210L324,210L323,211L324,212L324,214Z M336,200L334,199L334,200L335,200L336,201Z M351,206L353,205L353,204L352,203L352,202L352,201L352,200L352,199L352,200L353,201L353,202L354,203L354,204L355,205L356,204L357,204L357,205L358,204L359,203L359,202L358,201L357,201L358,200L356,200L357,199L356,199L356,198L355,198L356,198L356,197L356,195L355,196L354,195L355,194L354,194L353,194L352,195L353,195L354,193L353,192L354,192L353,191L352,191L354,190L352,189L353,188L352,188L352,187L351,188L350,188L350,189L350,190L350,192L349,191L349,190L348,189L348,188L349,187L350,186L349,186L350,185L350,184L348,184L348,185L348,186L347,187L347,186L347,185L347,184L345,186L344,186L345,185L345,184L346,183L346,182L346,182L345,182L344,182L343,183L342,183L341,184L340,185L338,186L337,186L337,187L337,188L337,189L337,190L338,191L338,192L338,193L337,193L337,194L336,194L335,194L334,194L335,194L336,195L336,195L337,195L338,194L338,196L339,196L340,197L342,198L342,199L342,200L343,201L344,203L344,204L345,205L347,206L349,207Z M327,204L329,204L331,203L331,202L332,201L333,200L334,199L334,198L333,197L334,198L335,197L334,196L333,195L333,194L332,194L330,194L330,194L330,196L330,197L328,198L327,199L325,200L324,201L323,202L324,204L325,205Z " data-fips="" data-hasc="GL.VG" data-name="Kommuneqarfik Sermersooq" data-postal="VG" data-varname="Sermersooq"/><path d="M230,398L230,397L229,397L228,396L227,397L227,398L228,399L228,398L229,399Z M232,396L232,394L233,395L234,395L235,396L235,395L227,393L227,393L228,394L229,395L230,395L229,396L230,396L231,396L231,396Z M233,396L233,396L232,396L232,397Z M226,397L227,396L228,396L228,395L226,395L225,396L224,397L225,397Z M225,396L226,395L226,394L226,394L225,393L224,393L225,393L225,393L225,393L226,392L226,391L226,390L227,391L227,390L227,389L228,390L227,392L228,393L230,393L231,393L232,393L233,394L234,394L235,394L235,393L235,392L234,392L235,392L236,392L235,391L234,389L235,389L234,389L233,390L232,390L232,389L234,388L233,388L230,387L229,387L228,386L227,386L227,385L227,386L231,386L231,384L231,385L232,387L235,388L234,386L235,387L236,387L235,387L237,387L238,386L237,386L235,386L238,386L238,385L237,386L234,385L237,385L238,385L238,383L237,383L236,383L234,383L234,382L232,382L236,382L237,382L235,381L233,380L235,381L237,381L238,380L238,379L239,379L239,378L238,378L237,378L235,377L233,377L232,377L234,377L235,377L237,377L238,377L240,377L239,377L238,376L235,376L238,376L239,376L240,375L239,375L237,375L239,375L238,374L235,373L238,374L239,374L240,374L241,373L241,372L241,371L241,370L239,370L237,370L237,369L238,370L240,370L241,370L241,369L242,369L242,368L243,367L242,368L240,367L238,366L239,366L239,366L240,367L242,367L243,366L243,365L242,364L244,363L244,362L242,363L241,363L241,362L242,361L243,361L243,360L243,359L243,357L242,357L240,357L240,356L239,355L238,354L239,354L240,355L241,356L242,356L244,356L243,355L242,356L241,355L241,354L241,355L242,354L242,353L240,353L239,352L238,351L237,351L236,350L236,350L235,350L233,350L232,350L230,350L226,354L222,357L218,360L215,363L212,365L210,367L210,367L207,370L206,370L203,373L199,376L198,376L197,376L197,376L197,376L198,377L196,378L195,378L194,379L195,379L196,379L197,379L199,380L200,380L201,379L199,379L198,379L197,378L198,378L199,379L200,378L201,378L202,379L203,378L204,379L204,380L205,379L204,380L205,381L206,380L206,379L205,378L206,378L207,379L207,377L208,377L209,376L210,377L210,378L211,377L210,376L211,377L212,377L213,376L213,375L213,374L212,374L213,374L214,373L213,374L214,375L215,376L214,377L213,377L211,379L212,379L214,379L215,378L216,376L217,375L217,376L218,377L218,376L219,375L218,376L218,377L217,378L216,379L213,379L212,380L212,380L211,381L212,380L213,380L211,381L210,382L211,382L212,382L213,381L214,381L213,382L214,382L216,380L218,379L218,380L217,380L216,381L215,382L214,383L213,383L214,383L215,383L214,384L213,384L212,385L213,386L213,385L214,384L215,384L214,385L215,385L214,386L215,386L216,385L216,384L217,384L219,384L217,385L216,386L216,387L217,386L218,385L218,384L219,384L219,385L218,386L217,387L219,387L220,387L221,386L221,385L222,384L223,383L222,384L222,385L221,386L221,388L220,389L220,390L219,391L218,391L218,393L219,392L220,392L221,391L222,390L222,389L223,388L224,387L224,386L224,387L223,388L223,389L222,390L222,391L222,392L220,392L219,393L218,394L219,393L220,394L221,394L220,393L221,394L222,395L222,393L222,395L223,395L224,394L224,393L224,393L224,394L224,395L225,394L224,395L224,396Z M228,395L228,395L226,394L226,393L226,394L227,395Z M218,391L218,390L218,389L217,389L217,389L216,390L217,392Z M219,389L220,388L219,388L219,389Z M220,389L220,388L220,389L219,390Z M213,384L213,384L212,383L212,384Z M209,382L210,382L209,382L208,383L209,383Z M239,381L240,381L238,381L237,381L238,382Z M197,381L198,381L197,381L197,380L196,379L195,379L194,380L195,380L195,381L196,382Z M207,381L208,381L209,380L211,379L210,379L207,380L206,380L205,381L206,381Z M244,366L244,366L244,365L243,366L243,367Z M244,353L243,353L243,353L243,354L244,354Z " data-fips="" data-hasc="GL.VG" data-name="Kommune Kujalleq" data-postal="VG" data-varname="Kujalleq"/><path d="M175,313L176,313L176,312L177,311L178,310L178,310L179,309L180,309L181,309L182,308L183,308L183,307L182,306L183,305L183,304L183,305L184,305L185,304L186,303L187,303L188,303L189,302L192,303L194,303L195,303L197,303L200,304L204,304L207,305L211,305L214,305L218,305L221,306L225,306L228,306L231,306L232,292L233,280L233,277L233,274L233,270L230,270L227,270L223,269L220,269L217,269L214,269L211,268L208,268L204,268L201,267L200,267L198,267L196,267L195,267L194,267L193,267L191,267L190,266L189,265L188,264L187,263L185,263L184,263L183,262L182,262L181,261L180,260L179,260L178,260L179,261L178,260L177,260L176,261L177,261L176,261L175,262L174,263L173,263L172,263L171,264L170,265L170,266L169,267L171,267L172,267L173,267L174,266L174,267L178,267L179,267L181,267L182,267L187,267L186,268L185,268L185,269L186,270L187,272L189,271L191,271L191,272L190,272L189,272L187,272L186,272L186,271L185,270L185,269L184,268L181,268L180,267L179,267L178,267L176,268L174,268L172,268L171,268L172,268L170,268L169,269L168,270L172,270L170,270L169,271L171,271L172,272L171,272L169,272L170,273L172,273L173,273L175,274L177,274L178,273L177,274L178,274L178,275L178,276L177,275L174,275L173,275L173,276L175,275L176,276L175,276L173,276L172,276L173,277L175,277L175,278L174,277L173,277L171,277L170,278L170,279L171,279L173,279L174,280L175,280L176,281L174,280L173,280L171,280L170,279L169,279L169,280L168,281L168,282L168,284L169,284L170,283L171,284L170,284L169,284L168,285L167,286L169,286L172,285L173,285L174,283L176,282L177,281L179,281L180,279L182,278L184,277L185,276L186,275L188,275L189,275L190,274L192,274L190,274L189,274L190,275L189,275L188,275L187,276L188,277L189,277L191,278L189,278L188,277L187,277L186,277L185,277L183,278L183,279L182,279L181,279L180,280L179,281L179,282L177,282L176,283L174,284L174,285L171,286L168,287L169,288L170,288L168,288L168,289L169,289L171,288L172,288L170,289L169,290L170,291L171,290L172,290L173,289L174,290L174,291L176,291L176,290L177,290L180,289L179,290L179,291L179,290L178,290L176,291L175,292L175,291L174,291L173,290L171,290L170,291L169,292L169,292L170,292L171,292L170,293L169,294L171,294L172,294L173,292L172,293L172,295L171,295L172,295L171,296L171,297L172,296L173,295L174,295L173,296L172,297L173,298L173,299L174,298L175,298L176,298L177,297L177,295L181,294L182,294L184,295L185,295L186,296L187,296L185,296L184,295L183,295L180,295L179,295L178,296L178,297L177,298L176,298L174,299L173,299L172,300L172,301L173,302L173,301L174,301L174,302L175,302L174,303L174,304L173,305L174,306L174,307L173,307L173,308L173,309L174,308L174,309L174,309L175,309L176,309L176,308L177,307L177,306L177,307L178,308L179,307L180,307L179,308L177,308L176,309L175,310L174,311L173,311L173,312L174,313Z M171,295L170,294L168,294L168,295L170,296Z M193,276L192,275L190,275L190,275L192,275Z " data-fips="" data-hasc="GL.VG" data-name="Qeqqata Kommunia" data-postal="VG" data-varname="Qeqqata"/><path d="M252,213L255,213L257,212L260,212L263,212L266,212L268,212L271,212L274,212L276,211L279,211L282,211L285,211L287,210L290,210L293,210L295,209L298,209L301,209L303,208L306,208L309,207L312,207L314,206L317,206L320,204L322,203L322,202L323,202L324,201L325,200L327,199L328,198L330,197L330,196L330,194L330,194L329,194L328,195L326,195L325,195L324,195L325,194L321,194L320,195L318,196L320,194L321,194L322,193L323,193L323,192L319,190L319,189L316,189L317,188L316,188L315,187L317,188L318,188L319,188L321,190L323,191L323,192L324,192L326,194L328,193L328,192L329,193L330,192L331,193L332,193L333,193L334,194L335,194L336,194L337,194L337,193L338,193L338,192L338,191L337,190L337,189L337,188L337,187L337,186L338,186L340,185L341,184L342,183L343,183L344,182L345,182L346,182L346,182L346,182L345,181L344,181L343,181L342,180L340,180L339,180L339,179L338,179L337,178L336,178L334,178L333,177L332,177L332,178L331,179L331,181L331,182L330,183L330,182L330,180L330,178L328,179L327,179L331,177L332,177L333,176L332,175L332,174L331,173L330,172L329,172L328,172L327,171L326,172L326,173L324,175L324,177L324,176L324,174L322,174L323,173L322,173L320,173L320,174L319,173L320,174L322,172L325,173L326,172L326,171L328,170L329,169L329,168L328,167L325,167L323,166L321,167L320,169L318,168L318,170L318,171L318,172L318,171L317,170L317,169L316,169L317,168L318,168L319,168L320,168L321,167L321,165L319,165L317,165L316,164L316,163L317,164L319,165L320,165L321,165L322,166L323,165L324,165L325,164L325,162L325,161L328,159L327,159L326,158L325,157L324,157L323,156L322,155L322,154L323,154L324,155L325,156L326,157L326,158L329,158L328,157L328,156L329,155L330,154L331,155L332,154L334,155L336,156L337,156L338,155L337,156L336,156L335,155L333,155L332,155L331,155L330,156L331,157L332,158L333,158L334,159L335,159L337,160L340,160L341,160L341,158L342,157L343,156L342,155L344,155L347,154L347,153L347,152L346,151L346,150L346,149L346,148L345,147L344,148L339,146L338,148L338,149L339,149L340,150L340,151L340,153L340,151L339,150L339,149L338,149L337,148L336,148L335,147L336,146L336,145L336,144L335,143L334,143L335,143L336,143L336,142L336,141L335,139L334,138L335,139L336,140L337,140L338,139L340,139L342,138L343,139L343,140L344,141L346,140L347,139L348,138L348,136L347,135L346,135L346,134L345,133L344,134L343,135L342,135L341,134L340,135L340,136L338,136L339,135L339,134L338,133L338,132L338,131L338,130L337,129L335,129L334,132L333,132L332,131L331,131L330,130L332,131L333,132L334,131L336,128L337,128L337,127L335,126L335,126L333,125L332,124L328,124L332,124L331,123L328,122L330,122L333,123L333,124L335,125L336,126L337,125L338,124L339,125L339,126L340,127L341,126L341,125L341,124L341,123L341,122L340,121L339,119L339,119L338,118L338,117L337,116L336,115L335,114L334,115L332,115L330,116L327,116L329,116L333,114L334,112L335,112L335,111L334,110L333,109L332,110L330,110L329,110L330,111L331,112L332,112L331,112L330,111L329,111L328,112L327,112L326,111L326,110L326,109L323,110L323,109L324,109L325,108L324,109L325,107L324,107L324,106L323,106L322,107L323,108L322,108L322,106L321,106L320,105L322,104L321,104L322,103L323,104L324,105L325,106L325,105L325,103L326,102L327,101L325,101L324,102L323,102L324,101L325,101L327,101L327,99L328,99L329,99L331,99L332,100L333,99L334,100L335,101L335,99L335,98L335,97L335,96L334,95L334,94L333,93L332,92L331,91L330,92L330,94L329,94L329,93L327,92L325,92L325,91L323,91L324,91L324,90L322,89L323,88L324,87L328,88L328,87L327,86L326,85L324,85L320,84L319,88L320,89L320,91L319,89L318,89L318,88L318,87L318,85L317,84L318,82L318,81L317,80L317,79L317,78L317,77L316,75L316,74L316,73L315,73L316,72L315,71L316,71L316,70L317,69L318,68L318,67L317,66L317,65L317,64L318,64L318,63L318,62L317,61L317,60L317,61L317,63L317,62L316,61L316,60L315,59L315,58L315,57L315,55L314,54L313,54L312,55L312,54L311,54L310,53L310,50L310,49L310,48L310,47L311,46L312,46L313,46L315,46L317,45L318,44L319,44L319,42L319,39L317,40L316,39L315,38L314,40L312,41L311,41L310,41L308,40L307,44L306,43L305,43L307,42L308,40L309,40L311,40L312,40L312,39L313,38L313,37L314,37L316,37L318,36L318,35L319,33L320,32L320,31L319,30L318,30L319,29L320,29L320,28L320,27L321,23L321,22L321,20L321,19L320,18L318,17L317,17L316,17L313,17L310,18L309,18L308,19L308,20L308,21L308,22L308,23L309,24L308,25L309,26L308,27L307,27L306,26L305,26L303,28L303,27L303,26L303,25L302,25L301,25L301,26L302,27L301,30L301,31L301,32L300,34L299,36L299,37L299,38L298,39L298,40L298,41L298,43L297,45L297,43L297,42L297,41L297,40L297,39L298,37L298,35L298,34L298,33L298,32L298,27L298,26L298,25L298,24L297,23L297,22L296,21L295,19L292,21L291,22L292,23L292,25L292,26L292,27L290,29L288,31L287,33L286,32L286,31L286,30L289,27L289,26L289,24L288,23L281,25L279,25L278,26L277,27L276,27L275,29L272,30L272,32L271,32L270,31L270,30L271,29L272,27L274,26L276,24L275,23L272,23L275,23L276,24L289,18L291,16L291,15L292,13L292,12L292,11L291,10L290,10L288,10L287,9L286,9L286,10L286,9L285,8L284,9L283,11L283,9L283,8L283,6L283,5L282,5L279,7L278,7L276,8L272,8L270,10L270,11L269,11L267,11L266,12L266,14L265,12L263,13L262,14L262,15L262,14L262,13L267,10L268,9L266,8L268,9L271,8L280,4L280,3L275,2L273,2L274,1L273,1L270,0L268,0L267,1L266,0L264,2L264,3L263,2L263,1L263,2L262,1L261,2L258,3L259,4L259,5L259,4L256,3L256,4L257,6L255,5L255,6L255,7L255,8L257,8L257,9L259,9L255,11L258,11L254,12L255,13L256,15L256,16L255,15L255,13L254,12L251,12L250,11L250,10L249,10L249,9L248,8L247,7L246,8L247,8L245,8L247,10L245,10L243,9L243,10L242,9L242,10L242,11L245,13L242,12L241,10L240,10L239,11L240,12L240,13L239,12L239,13L240,14L241,14L242,14L242,13L243,14L249,15L251,16L251,17L253,17L253,18L253,19L253,20L253,21L253,22L253,21L253,20L252,19L251,18L250,17L249,17L249,18L249,19L249,21L249,20L249,18L249,17L248,16L242,15L241,16L242,17L243,19L243,20L244,21L245,22L244,23L246,24L248,25L247,24L245,24L243,23L242,24L242,25L243,27L242,28L242,29L242,30L243,31L243,32L242,32L241,32L240,30L239,29L239,28L236,25L236,24L233,21L233,20L229,18L229,20L229,21L229,22L229,23L229,24L231,28L230,29L227,28L228,29L228,30L229,32L229,34L228,33L228,32L227,30L226,28L225,27L224,26L223,26L223,27L223,28L222,29L221,30L220,31L220,33L220,34L219,33L220,31L220,30L220,29L221,28L221,27L222,26L222,25L222,24L222,23L222,22L222,20L221,19L219,20L219,21L219,22L219,21L217,20L216,22L216,20L215,21L213,21L211,21L208,23L209,24L210,25L210,26L210,27L210,28L211,30L211,32L211,33L211,34L211,33L211,32L211,30L210,30L208,27L209,26L209,25L207,24L207,23L205,23L203,24L202,25L202,26L202,28L203,29L202,30L201,31L201,32L200,33L200,34L199,35L198,35L198,34L198,35L198,37L198,38L199,39L199,40L199,41L199,42L199,43L199,45L200,46L200,47L201,48L202,49L202,51L203,52L204,53L204,54L205,55L206,58L208,61L210,63L212,66L214,68L216,71L218,74L221,76L223,79L225,81L228,84L230,86L233,88L235,91L238,93L241,95L240,101L240,107L240,113L240,119L239,124L239,130L239,136L239,142L238,148L238,153L238,159L238,165L237,171L237,177L237,183L237,188L237,190L236,191L236,193L236,194L236,196L236,197L236,199L236,200L236,202L236,203L236,205L236,206L236,208L236,209L236,211L236,212L238,212L241,212L244,213L246,213L249,213Z M347,177L346,177L346,175L345,175L343,174L343,173L344,173L345,173L346,173L346,172L345,172L344,171L342,171L341,170L340,170L339,169L338,168L336,169L335,169L332,170L333,171L333,172L333,173L334,174L336,174L337,175L338,176L341,176L342,177L344,178L345,177L345,178Z M330,171L330,169L330,169L329,170L328,171L330,172Z M344,169L345,168L344,167L343,167L344,166L344,165L343,165L342,165L338,165L337,164L336,166L335,166L331,168L332,169L335,168L337,168L338,168L340,168L341,169L341,170Z M331,167L338,163L337,163L334,163L330,163L328,163L336,162L330,161L329,161L326,162L326,163L326,164L325,165L325,166L326,167L328,166L329,167L330,167Z M341,145L342,144L345,142L344,142L343,141L342,140L342,139L340,140L339,139L338,140L336,142L336,144L337,145L339,145L340,145Z M348,134L347,133L347,132L346,133L347,135Z M349,132L349,131L348,131L348,132Z M342,134L342,133L342,131L340,130L340,129L339,129L338,129L338,130L339,131L339,132L339,133L341,134Z M347,127L348,126L349,125L351,126L351,125L350,124L350,122L349,123L349,124L348,124L347,123L346,123L347,122L347,121L347,120L346,120L346,121L345,121L343,122L343,122L343,123L344,125L344,126L345,127Z M340,112L340,110L339,110L338,109L338,108L337,106L337,105L336,104L336,103L336,102L335,101L333,100L334,101L334,102L335,103L334,104L335,105L336,107L337,108L338,109L340,112L340,113Z M319,85L319,84L319,85L319,86Z M325,83L324,83L323,82L322,83L321,84L326,84Z M332,85L332,84L332,83L331,82L330,82L330,83L330,84L331,85Z M320,80L319,79L319,80L321,80Z M326,80L325,79L325,79L324,79L325,80L325,81L326,82Z M323,77L322,77L322,78L323,78Z M325,77L324,76L324,75L324,74L323,73L323,76L323,76L324,78L324,78Z M321,69L320,69L320,68L320,67L320,70L321,70Z M323,64L324,63L323,61L322,61L322,62L323,64L323,65Z M318,54L318,52L318,48L318,48L316,47L314,49L314,50L314,51L314,53L314,53L316,54Z M313,48L313,47L311,47L311,48L311,49L312,50Z M307,23L307,23L306,22L305,22L304,23L306,24Z M227,26L225,23L225,22L224,20L223,22L223,23L223,24L224,25L225,26L227,27Z M302,21L301,19L300,18L299,18L299,19L300,20L303,21Z M242,26L241,25L243,23L243,21L242,20L241,19L239,17L238,17L236,18L237,19L237,21L238,22L241,26L242,27Z M237,14L235,13L235,14L237,15Z M254,10L253,9L251,9L252,10L253,11L254,12Z M252,11L251,10L251,9L250,9L250,11L251,11L253,12Z M255,9L253,8L252,7L252,6L251,6L251,7L252,7L253,9L255,10Z " data-fips="" data-hasc="GL.NG" data-name="Nationalparken" data-postal="NG" data-varname="National Park"/><path d="M233,262L234,253L234,251L234,249L234,247L234,246L235,236L235,226L235,219L236,212L236,211L236,209L236,208L236,206L236,205L236,203L236,202L236,200L236,199L236,197L236,196L236,194L236,193L236,191L237,190L237,188L237,183L237,177L237,171L238,165L238,159L238,153L238,148L239,142L239,136L239,130L239,124L240,119L240,113L240,107L240,101L241,95L238,93L235,91L233,88L230,86L228,84L225,81L223,79L221,76L218,74L216,71L214,68L212,66L210,63L208,61L206,58L205,55L204,54L204,53L203,52L202,51L202,49L201,48L200,47L200,46L199,45L199,43L199,42L199,41L199,40L199,39L198,38L198,37L198,35L198,34L198,34L198,33L196,32L195,32L194,33L194,34L194,36L194,37L193,38L193,37L193,35L194,34L194,33L193,32L192,33L191,33L190,34L189,35L188,36L188,36L186,37L186,38L184,38L182,39L181,39L180,40L180,40L179,41L178,42L178,43L178,44L178,45L180,45L180,46L181,47L183,47L184,47L186,47L187,46L186,47L187,47L186,47L185,48L183,48L183,49L182,50L182,51L181,52L181,53L181,54L181,55L180,56L179,57L178,58L177,58L177,59L176,60L175,61L174,61L173,60L172,59L171,59L170,59L169,60L168,59L164,59L164,60L164,61L163,60L162,61L160,61L158,60L157,61L156,61L156,60L155,60L153,60L151,60L150,61L149,62L148,62L149,63L148,64L147,64L146,64L147,66L147,67L147,68L147,69L148,70L149,70L148,71L149,72L148,73L150,74L151,73L152,74L151,75L149,75L152,76L153,77L152,77L151,77L150,78L152,81L155,81L156,79L156,81L155,82L158,83L160,82L161,81L162,82L163,83L163,84L163,85L163,86L162,86L161,86L160,87L160,88L161,89L160,88L160,87L158,85L155,84L151,84L154,87L155,87L159,90L160,90L159,90L157,89L155,87L152,86L149,84L145,82L145,83L144,83L143,83L142,83L142,84L142,85L143,86L142,86L142,88L143,89L146,88L147,88L145,89L144,89L145,90L146,93L147,94L150,95L150,96L151,97L151,98L150,97L149,97L148,99L147,100L146,100L146,98L143,96L143,97L143,98L144,99L144,100L144,101L145,102L145,103L146,104L149,107L150,108L151,109L151,108L150,107L150,106L150,104L150,103L151,103L152,103L152,104L152,105L152,107L153,106L153,105L155,104L156,105L156,106L155,107L154,107L155,108L156,108L157,108L158,108L158,108L159,109L159,108L160,106L160,107L161,107L161,106L161,107L161,108L161,110L163,109L163,109L164,108L165,107L166,108L167,109L167,110L167,110L169,110L169,111L170,111L170,112L172,113L173,113L173,114L173,115L173,116L174,116L175,117L175,118L176,119L177,118L176,120L176,121L177,120L178,120L178,121L178,122L178,123L179,123L180,124L180,124L181,125L180,126L180,127L180,128L179,128L178,129L179,129L178,130L179,131L179,132L180,133L178,135L179,135L180,136L181,137L181,138L182,138L182,139L182,140L182,141L182,142L183,143L184,143L183,144L183,145L184,145L184,146L182,146L183,147L184,148L182,148L181,148L182,149L183,149L181,150L180,150L179,151L178,151L181,151L183,150L183,151L183,152L182,153L183,154L183,155L184,156L184,157L183,157L183,159L182,158L182,159L181,160L183,161L183,162L183,163L184,165L183,166L183,167L184,168L183,168L182,169L181,169L181,170L181,170L181,170L181,170L181,170L181,170L181,171L182,172L183,172L183,171L181,170L182,170L183,171L184,170L184,172L185,172L184,173L185,174L184,175L184,176L185,176L184,177L183,178L184,178L182,178L182,179L183,179L183,180L185,180L184,180L182,180L181,179L179,179L178,180L179,181L180,180L181,181L182,182L183,182L182,183L181,184L180,185L179,185L178,186L177,187L178,189L181,189L182,187L182,186L183,185L184,185L183,186L183,187L182,188L180,189L178,189L177,190L178,191L177,190L176,191L175,191L175,192L175,194L175,197L176,198L177,197L177,196L177,197L178,198L179,199L180,199L181,199L183,198L184,198L184,197L184,196L183,195L184,194L184,194L185,195L185,194L185,193L186,193L187,193L188,192L187,191L187,190L187,188L186,187L187,186L187,185L187,183L188,184L187,184L187,185L187,186L187,187L188,188L188,190L188,191L188,192L188,193L190,192L190,191L191,191L190,192L190,193L189,193L188,195L190,196L189,196L188,195L187,195L186,196L187,197L188,197L189,197L190,196L191,196L193,197L195,196L196,196L196,197L195,198L193,198L190,198L189,199L188,200L191,201L192,201L193,200L195,199L197,201L196,200L194,200L193,201L192,201L192,202L191,203L190,204L190,205L192,204L193,203L195,202L196,203L195,204L194,203L193,204L192,205L192,206L193,206L194,206L195,206L197,206L196,206L195,207L197,208L198,208L198,209L196,209L193,207L194,208L195,209L196,210L197,211L198,211L198,211L198,212L199,213L198,213L197,212L196,211L195,212L195,213L196,213L196,214L197,214L198,215L197,214L197,215L198,216L197,216L196,216L195,215L195,215L195,216L196,217L196,218L198,218L199,217L198,218L198,219L198,220L197,219L195,218L193,217L192,216L192,216L190,214L190,213L189,212L187,211L185,210L183,210L182,209L181,208L180,208L178,209L177,209L177,210L178,211L178,212L179,214L179,215L180,216L184,217L187,220L187,221L188,223L189,223L190,224L192,225L193,225L194,223L195,224L196,225L194,225L193,225L195,226L197,225L198,225L199,225L199,226L197,227L198,227L198,229L199,230L198,229L197,229L196,230L196,231L197,231L197,232L195,231L195,232L195,233L196,233L197,233L198,233L197,234L196,234L195,234L194,234L194,235L193,236L193,237L192,237L193,238L194,238L195,238L195,237L197,236L196,237L196,238L197,239L198,239L198,240L197,240L196,240L195,240L196,241L197,242L197,243L196,241L195,242L196,243L195,242L195,241L194,240L193,240L194,239L192,240L192,241L192,242L191,243L192,243L191,243L191,244L190,245L191,246L192,245L193,244L194,245L193,245L192,246L192,247L191,246L191,248L190,248L189,248L188,248L187,249L186,248L185,247L184,247L181,248L182,248L181,249L180,249L179,250L178,250L177,250L176,250L177,251L178,251L180,250L181,250L180,251L179,251L179,252L180,252L180,251L181,252L181,253L183,253L184,253L185,253L186,253L189,252L189,252L188,251L187,250L188,251L189,251L192,250L191,251L190,251L190,252L189,253L188,253L189,254L190,255L188,255L189,255L189,256L190,256L190,257L191,258L192,258L193,259L194,260L192,260L191,259L190,258L189,257L189,257L184,256L183,255L182,255L181,254L180,253L179,253L180,254L180,255L179,254L178,253L177,252L176,252L175,253L176,253L177,253L177,254L178,254L179,256L183,258L182,258L180,257L179,257L176,255L176,256L178,256L176,256L175,257L176,257L175,258L174,257L174,258L175,258L174,258L173,258L173,259L173,260L173,261L171,261L171,262L172,263L174,262L177,260L178,259L179,260L180,259L181,259L182,258L184,258L186,258L185,258L184,259L182,259L181,259L181,260L184,261L185,261L184,261L185,262L186,262L187,261L187,260L186,260L186,258L187,259L188,258L189,258L189,259L187,260L188,261L188,262L189,262L190,261L191,260L190,260L191,260L192,260L193,261L194,261L193,261L191,261L190,262L189,262L187,262L189,264L190,264L191,264L192,263L193,263L195,263L195,264L195,263L193,263L192,263L191,264L189,265L190,266L191,266L193,267L194,267L195,267L196,267L198,267L200,267L201,267L204,268L208,268L211,268L214,269L217,269L220,269L223,269L227,270L230,270L233,270Z M179,249L179,248L179,248L178,248L178,249L179,250Z M186,247L185,246L183,246L183,247L184,247L185,247Z M180,246L181,246L182,246L184,246L185,245L184,245L182,245L180,245L179,245L178,246Z M180,234L183,234L186,233L188,232L189,230L188,229L189,228L189,227L187,226L186,225L185,224L185,224L184,222L184,221L183,220L182,219L182,218L180,217L177,216L175,217L174,218L174,220L175,222L176,223L174,221L173,222L172,223L173,224L174,225L174,226L173,225L172,225L171,225L172,226L172,227L175,228L176,229L177,229L177,230L178,230L177,231L179,230L179,229L180,229L179,230L179,231L180,232L178,231L177,231L176,231L175,230L174,231L175,232L176,233L177,234L178,235Z M194,232L194,230L195,229L196,229L196,227L196,227L195,226L195,226L194,226L193,227L194,227L193,228L193,229L192,230L192,231L192,232L193,233Z M176,214L175,213L174,213L174,214L175,215L176,215Z M194,210L194,210L193,209L192,208L191,208L191,210L193,210Z M185,205L185,203L185,202L184,201L183,202L182,203L182,204L184,205Z M190,203L190,203L191,202L191,201L188,200L187,201L187,203L188,204L189,204Z M177,190L177,189L176,188L176,189L176,190Z M179,184L180,183L181,183L181,182L180,182L179,183L178,182L179,183L177,184L178,185Z M178,175L179,176L180,174L179,174L178,175L177,175L177,176Z M181,177L181,176L182,176L183,175L183,174L182,174L181,175L180,175L179,176L178,177L179,177L180,178Z M183,163L182,162L182,161L181,161L182,163L182,163L182,164Z M183,156L180,155L180,155L180,156L181,157Z M183,144L182,144L178,145L180,145L182,145L183,145Z M148,80L147,78L147,78L146,78L146,79L149,81Z M145,78L144,77L143,76L142,76L141,76L142,78L144,79Z " data-fips="" data-hasc="GL.NG" data-name="Qaasuitsup Kommunia" data-postal="NG" data-varname="Qaasuitsup"/></g></svg>