<?xml version="1.0" ?><!DOCTYPE svg  PUBLIC '-//W3C//DTD SVG 1.1//EN'  'http://www.w3.org/Graphics/SVG/1.1/DTD/svg11.dtd'><svg enable_background="new 0 0 500 401" height="401px" style="stroke-linejoin: round; stroke:#000; fill:#f6f3f0;" version="1.1" viewBox="0 0 500 401" width="500px" xmlns="http://www.w3.org/2000/svg" xmlns:xlink="http://www.w3.org/1999/xlink"><defs><style type="text/css"><![CDATA[path { fill-rule: evenodd; }
#context path { fill: #eee; stroke: #bbb; } ]]></style></defs><metadata><views><view h="401" padding="0" w="500"><proj id="laea" lat0="19.142" lon0="-72.278"/><bbox h="25.4" w="33.32" x="974.11" y="988.29"/><llbbox lat0="-90" lat1="90" lon0="-180" lon1="180"/></view></views></metadata><g id="admin1"><path d="M102,323L104,319L109,319L113,319L118,318L124,316L127,309L131,305L128,303L127,301L130,297L132,294L131,295L130,295L129,295L127,294L125,294L123,295L122,295L121,295L120,294L116,291L114,290L112,290L104,289L102,289L97,286L96,286L93,287L93,285L91,283L81,283L58,272L51,271L41,270L39,270L37,271L37,272L36,273L34,273L30,272L27,273L19,276L13,279L11,281L12,283L13,285L13,287L13,289L13,290L10,292L8,300L5,303L6,305L0,314L4,320L6,323L6,327L7,327L11,326L16,327L26,326L35,324L53,321L71,320L78,322L86,324L94,327L102,327Z M136,284L136,280L132,277L126,277L122,278L122,283L127,286L132,286Z " data-fips="HA00" data-hasc="HT.GR" data-name="Grand'Anse" data-postal="GR" data-varname="Grande-Asne|Grande Anse"/><path d="M259,351L259,347L261,342L262,336L259,333L258,328L255,325L250,325L250,320L253,315L253,313L252,311L247,312L244,311L242,310L238,308L232,306L225,305L211,306L207,305L200,301L197,301L169,298L162,299L155,303L153,302L147,302L144,301L143,299L143,298L143,297L140,296L137,295L136,294L140,292L143,292L147,293L151,294L151,293L155,294L159,291L159,288L153,286L150,287L142,289L141,289L139,289L138,289L137,289L135,292L134,293L132,294L130,297L127,301L128,303L131,305L127,309L124,316L130,317L135,317L139,319L142,320L146,316L151,316L156,316L159,319L162,322L166,324L164,327L162,331L171,333L182,332L188,331L194,331L200,330L205,328L215,329L224,329L228,329L233,330L237,329L241,330L248,335L253,341L255,349L259,355Z " data-fips="HA15" data-hasc="HT.NI" data-name="Nippes" data-postal="NI" data-varname=""/><path d="M238,96L239,95L240,94L241,94L241,94L243,83L251,75L258,74L265,76L272,77L279,78L292,76L303,66L307,65L310,64L314,61L319,60L320,58L322,57L325,58L327,59L328,59L331,57L333,56L334,55L335,52L337,50L338,49L338,48L327,45L324,43L319,40L302,36L296,36L291,36L285,38L280,40L277,38L273,39L270,41L268,43L267,42L264,41L261,41L259,41L255,42L254,42L252,42L250,42L245,40L243,40L238,40L236,39L234,37L230,42L224,46L203,56L199,56L196,56L192,56L189,58L199,58L199,60L190,64L188,64L187,66L181,76L181,78L182,82L183,86L185,87L187,88L190,92L191,92L193,93L196,94L213,94L220,94L224,90L226,92L230,94L234,96L236,97Z M328,24L321,20L304,13L300,11L297,9L294,9L289,9L280,10L272,13L271,14L270,14L272,16L276,18L280,20L284,21L286,20L288,20L290,19L293,20L301,22L308,25L323,27L326,28Z " data-fips="HA03" data-hasc="HT.NO" data-name="Nord-Ouest" data-postal="NO" data-varname=""/><path d="M157,384L160,383L160,380L157,379L154,378L151,378L145,378L144,377L143,376L142,375L140,376L139,375L138,375L137,376L137,378L141,382L144,383L147,384L154,384Z M122,390L122,388L121,384L120,382L113,374L116,369L119,365L132,360L139,354L139,352L140,351L142,351L143,352L144,351L146,348L148,347L146,351L145,354L145,356L148,354L150,349L153,349L152,352L152,354L154,355L156,354L157,354L160,355L161,352L162,349L165,347L166,348L167,352L169,353L171,352L177,349L181,348L195,348L207,349L207,350L200,350L198,351L197,353L199,354L209,353L233,357L234,357L239,361L241,361L245,361L260,362L260,361L260,358L259,355L255,349L253,341L248,335L241,330L237,329L233,330L228,329L224,329L215,329L205,328L200,330L194,331L188,331L182,332L171,333L162,331L164,327L166,324L162,322L159,319L156,316L151,316L146,316L142,320L139,319L135,317L130,317L124,316L118,318L113,319L109,319L104,319L102,323L102,327L94,327L86,324L78,322L71,320L53,321L35,324L26,326L16,327L11,326L7,327L6,327L7,330L14,333L15,335L17,337L20,339L24,340L27,341L31,340L35,338L39,336L42,337L43,336L45,337L49,339L51,339L52,339L53,340L54,342L55,344L56,345L59,346L64,347L67,349L84,361L88,365L88,366L89,367L91,368L102,385L103,387L104,389L106,390L108,390L119,390Z " data-fips="HA12" data-hasc="HT.SD" data-name="Sud" data-postal="SD" data-varname=""/><path d="M394,234L394,228L397,222L396,217L395,208L398,198L396,193L396,188L398,184L393,180L394,166L402,155L400,150L397,145L396,139L397,134L394,128L387,124L381,118L380,106L376,104L374,103L371,103L368,107L364,106L364,111L359,113L353,110L347,106L343,101L340,94L337,86L333,84L331,81L333,75L329,72L325,73L325,69L321,66L314,61L310,64L307,65L303,66L292,76L279,78L272,77L265,76L258,74L251,75L243,83L241,94L241,94L243,94L247,95L248,95L259,99L261,99L262,99L268,104L271,106L274,106L284,112L295,117L298,120L300,122L302,125L304,127L313,127L315,128L318,135L316,135L314,134L313,133L312,132L310,133L310,137L311,138L311,140L309,141L307,141L305,141L304,140L303,139L302,141L302,145L302,148L304,150L308,150L310,151L312,156L310,156L307,156L305,157L303,158L302,159L300,164L298,165L298,167L297,168L298,171L302,178L304,181L307,182L310,184L312,185L313,189L312,192L308,193L301,193L294,196L295,201L313,221L316,218L319,216L330,216L343,218L347,219L352,218L354,221L355,224L360,226L364,228L369,231L373,235L381,235L390,236Z " data-fips="HA06" data-hasc="HT.AR" data-name="L'Artibonite" data-postal="AR" data-varname="Artibonite"/><path d="M479,266L482,264L484,261L485,259L485,258L486,254L486,251L485,243L485,236L484,232L482,231L478,227L477,225L474,220L473,219L471,219L469,219L464,220L461,221L461,217L464,215L473,213L475,211L482,203L488,196L490,193L496,189L498,186L499,182L500,171L498,170L486,165L481,159L481,159L475,160L469,159L465,159L461,159L457,158L453,155L447,152L441,149L428,155L416,163L413,163L411,161L407,157L402,155L394,166L393,180L398,184L396,188L396,193L398,198L395,208L396,217L397,222L394,228L394,234L390,236L381,235L373,235L378,242L383,245L389,247L395,250L405,261L419,265L432,261L447,258L453,260L458,263L466,264L472,268L474,270Z " data-fips="HA07" data-hasc="HT.CE" data-name="Centre" data-postal="CE" data-varname="Plateau Central"/><path d="M481,159L481,159L480,158L477,154L476,150L477,149L479,148L482,146L483,145L486,139L487,138L489,134L489,126L487,111L482,100L481,95L481,88L481,84L478,81L477,79L472,79L467,78L465,78L464,79L464,81L464,83L466,84L469,85L470,86L469,89L468,89L466,88L463,85L460,86L457,87L454,86L452,83L457,83L459,83L461,82L462,79L460,78L456,78L447,75L442,75L439,78L437,78L436,80L435,81L434,82L432,81L430,80L429,79L428,81L427,82L426,89L423,95L420,95L418,97L418,99L417,102L418,106L420,110L422,116L425,121L424,126L422,128L426,129L429,130L438,139L441,149L447,152L453,155L457,158L461,159L465,159L469,159L475,160Z " data-fips="HA10" data-hasc="HT.NE" data-name="Nord-Est" data-postal="NE" data-varname=""/><path d="M416,163L428,155L441,149L438,139L429,130L426,129L422,128L424,126L425,121L422,116L420,110L418,106L417,102L418,99L418,97L420,95L423,95L426,89L427,82L428,81L429,79L428,79L428,78L427,77L425,77L419,77L418,76L415,74L414,73L412,72L405,74L403,73L400,72L401,67L399,65L395,65L394,67L392,70L389,71L385,70L383,69L382,69L383,72L382,73L382,74L384,74L382,77L382,79L379,78L378,77L376,72L379,73L379,72L371,64L370,61L368,61L363,60L357,58L354,56L352,58L347,56L342,53L338,49L337,50L335,52L334,55L333,56L331,57L328,59L327,59L325,58L322,57L320,58L319,60L321,66L325,69L325,73L329,72L333,75L331,81L333,84L337,86L340,94L343,101L347,106L353,110L359,113L364,111L364,106L368,107L371,103L374,103L376,104L380,106L381,118L387,124L394,128L397,134L396,139L397,145L400,150L402,155L407,157L411,161L413,163Z " data-fips="HA09" data-hasc="HT.ND" data-name="Nord" data-postal="ND" data-varname=""/><path d="M288,345L291,343L297,345L303,347L304,344L306,343L307,340L308,338L311,339L314,340L315,338L318,336L321,336L324,335L326,334L329,333L333,333L337,331L339,331L341,330L345,324L351,322L357,322L362,324L365,326L370,326L373,329L375,331L390,332L405,331L420,334L435,338L450,338L462,339L471,344L486,341L488,337L486,336L484,334L474,331L468,326L466,325L464,321L462,319L459,318L455,318L453,316L451,313L452,311L453,310L454,309L454,306L453,304L437,288L435,285L438,283L445,281L451,283L458,284L465,281L467,279L471,273L474,270L472,268L466,264L458,263L453,260L447,258L432,261L419,265L405,261L395,250L389,247L383,245L378,242L373,235L369,231L364,228L360,226L355,224L354,221L352,218L347,219L343,218L330,216L319,216L316,218L313,221L316,223L319,224L323,226L326,229L329,231L338,245L339,249L341,251L347,254L351,254L354,256L358,260L361,263L363,264L367,264L370,264L378,268L379,270L380,272L380,273L378,275L377,277L377,279L377,290L377,295L375,298L372,299L370,298L366,293L365,292L364,293L363,294L362,295L332,292L327,293L323,299L320,305L316,311L311,315L305,316L292,314L290,313L286,313L282,315L278,315L279,312L264,309L252,311L253,313L253,315L250,320L250,325L255,325L258,328L259,333L262,336L264,339L267,343L270,343L275,342L278,342L280,342L282,345L286,347Z M293,266L295,263L296,258L295,253L294,249L289,243L276,237L263,231L251,227L227,216L223,216L219,216L215,218L212,220L210,222L209,224L210,226L211,228L212,230L213,231L217,233L220,238L224,241L240,245L255,255L261,256L266,257L282,260L286,261L287,261L289,262L290,266L291,267Z " data-fips="HA11" data-hasc="HT.OU" data-name="Ouest" data-postal="OU" data-varname=""/><path d="M479,383L479,380L479,374L479,371L479,369L477,364L476,362L477,359L478,355L486,341L471,344L462,339L450,338L435,338L420,334L405,331L390,332L375,331L373,329L370,326L365,326L362,324L357,322L351,322L345,324L341,330L339,331L337,331L333,333L329,333L326,334L324,335L321,336L318,336L315,338L314,340L311,339L308,338L307,340L306,343L304,344L303,347L297,345L291,343L288,345L286,347L282,345L280,342L278,342L275,342L270,343L267,343L264,339L262,336L261,342L259,347L259,351L259,355L260,358L260,361L260,362L264,363L271,365L277,367L281,370L286,368L296,369L301,366L302,367L303,367L305,366L304,363L309,364L329,362L332,362L337,364L339,364L341,362L339,355L340,354L343,355L346,357L360,355L386,354L404,354L418,352L425,352L430,354L436,357L450,362L456,366L462,371L474,387L477,389Z " data-fips="HA13" data-hasc="HT.SE" data-name="Sud-Est" data-postal="SE" data-varname=""/></g></svg>