<?xml version="1.0" ?><!DOCTYPE svg  PUBLIC '-//W3C//DTD SVG 1.1//EN'  'http://www.w3.org/Graphics/SVG/1.1/DTD/svg11.dtd'><svg enable_background="new 0 0 500 401" height="401px" style="stroke-linejoin: round; stroke:#000; fill:#f6f3f0;" version="1.1" viewBox="0 0 500 401" width="500px" xmlns="http://www.w3.org/2000/svg" xmlns:xlink="http://www.w3.org/1999/xlink"><defs><style type="text/css"><![CDATA[path { fill-rule: evenodd; }
#context path { fill: #eee; stroke: #bbb; } ]]></style></defs><metadata><views><view h="401" padding="0" w="500"><proj id="laea" lat0="12.84" lon0="-85.034"/><bbox h="53.32" w="59.49" x="968.11" y="972.89"/><llbbox lat0="-90" lat1="90" lon0="-180" lon1="180"/></view></views></metadata><g id="admin1"><path d="M368,399L370,398L373,398L375,396L381,393L387,392L390,390L391,388L390,384L390,380L391,379L392,379L391,379L389,378L387,378L388,379L386,380L385,378L384,376L381,374L380,372L378,370L377,369L374,368L372,368L371,368L370,367L370,366L369,365L369,364L369,362L367,363L365,363L364,363L363,363L362,363L361,364L360,364L358,364L357,363L356,362L355,361L352,361L351,361L350,360L348,360L347,360L345,360L344,359L343,359L341,355L340,354L338,352L334,349L330,347L329,347L328,346L328,344L328,343L327,342L327,341L326,339L318,335L316,333L310,331L309,327L309,324L309,323L309,321L310,316L311,314L311,313L310,310L309,307L309,305L309,303L308,302L306,299L301,293L300,293L299,292L297,293L296,292L294,293L288,293L286,293L281,299L278,300L274,301L273,303L273,305L272,305L271,306L270,307L270,308L268,309L267,308L265,309L264,310L262,312L260,314L222,310L188,310L185,311L181,311L179,310L178,310L176,313L175,315L173,316L172,317L169,316L166,319L165,320L163,325L164,328L165,329L169,331L172,335L175,336L178,340L179,341L183,342L184,343L185,344L195,355L196,357L197,361L198,362L199,363L201,363L205,365L208,362L209,358L212,355L215,353L218,355L219,356L220,357L222,358L223,359L237,364L248,368L259,372L275,378L277,378L280,378L296,367L298,366L300,367L303,369L305,370L307,370L309,370L314,372L315,373L317,376L319,377L320,377L322,377L327,373L328,374L329,375L329,377L331,379L332,380L336,382L337,382L338,383L339,384L340,385L341,385L341,388L340,388L339,389L340,391L342,393L343,392L345,392L346,392L347,392L349,394L350,394L352,393L353,394L355,393L357,393L358,392L359,392L360,393L360,394L367,399Z " data-fips="NU00" data-hasc="lake" data-name="Nicaragua" data-postal="KE" data-varname=""/><path d="M385,376L383,375L382,374L380,371L379,368L377,364L375,359L372,347L372,338L372,336L373,335L376,331L378,332L380,328L380,324L382,320L384,320L386,320L387,318L389,317L391,317L391,315L391,314L391,311L387,294L386,293L383,294L383,295L383,297L383,298L381,298L379,297L378,296L377,294L376,293L375,291L375,290L376,290L378,289L380,287L381,286L381,285L381,284L381,283L382,280L382,279L381,278L381,276L378,275L378,274L381,275L383,275L384,274L384,272L385,270L385,269L385,267L384,266L382,265L381,266L380,265L379,264L382,263L384,264L386,266L387,268L387,269L387,271L385,272L384,273L385,276L388,278L388,280L388,282L389,281L389,279L388,267L390,256L394,247L391,247L390,249L388,254L389,253L389,250L389,248L386,249L384,248L383,247L384,245L384,243L385,241L384,237L383,236L382,236L381,236L380,236L380,231L380,230L382,229L386,229L389,227L393,223L396,222L395,220L396,218L396,217L395,215L394,214L394,212L392,211L391,209L391,207L392,206L394,205L396,204L398,205L400,206L400,210L399,211L399,216L399,217L398,219L399,221L399,225L396,228L393,227L392,228L392,230L392,236L394,238L395,239L395,241L395,242L392,244L394,245L396,245L398,244L400,244L403,244L405,243L406,242L406,239L406,236L403,233L402,230L401,226L401,221L403,197L401,185L401,185L400,185L395,185L392,185L390,184L381,179L374,174L374,173L374,172L374,171L376,169L376,168L375,167L374,166L373,166L371,165L370,165L362,165L361,165L360,164L360,166L359,166L358,167L357,166L356,168L355,168L353,168L352,168L353,169L351,169L349,170L348,169L347,168L345,162L344,162L343,162L337,164L336,163L335,163L333,162L332,163L331,163L330,165L329,165L327,165L315,165L288,173L287,175L289,175L290,176L290,177L291,179L292,182L293,183L294,183L296,182L295,183L293,186L293,189L292,190L292,191L292,193L291,193L290,194L289,193L288,193L286,193L285,193L284,193L282,194L280,196L278,198L276,197L276,199L274,201L273,202L272,201L265,201L263,201L262,202L260,202L257,201L256,201L256,204L254,205L253,205L252,205L250,205L249,207L249,209L250,210L250,211L251,214L253,219L255,220L255,219L255,218L254,216L256,215L256,214L257,214L258,212L258,210L259,209L260,207L262,207L264,208L267,210L268,212L269,213L270,214L270,216L271,217L270,219L274,224L277,226L277,227L279,231L281,234L282,235L283,236L283,237L282,239L282,240L282,241L282,244L283,246L284,248L285,249L289,255L289,256L288,258L288,261L290,267L295,281L296,282L308,288L304,289L304,290L304,292L306,299L308,302L309,303L309,305L309,307L310,310L311,313L311,314L310,316L309,321L309,323L309,324L309,327L310,331L316,333L318,335L326,339L327,341L327,342L328,343L328,344L328,346L329,347L330,347L334,349L338,352L340,354L341,355L343,359L344,359L345,360L347,360L348,360L350,360L351,361L352,361L355,361L356,362L357,363L358,364L360,364L361,364L362,363L363,363L364,363L365,363L367,363L369,362L369,364L369,365L370,366L370,367L371,368L372,368L374,368L377,369L378,370L380,372L381,374L384,376L385,378Z M447,264L448,263L447,262L446,263L445,264L445,266Z " data-fips="NU18" data-hasc="NI.AS" data-name="Atlntico Sur" data-postal="AS" data-varname="Regin Autnoma del Atlntico Norte"/><path d="M165,320L166,319L169,316L168,313L168,312L168,309L169,307L170,305L170,304L170,302L169,300L170,298L172,295L171,293L166,292L165,290L163,289L154,285L153,284L152,286L147,290L144,294L142,296L141,297L139,298L138,299L137,299L136,299L133,302L134,302L145,311L146,314L147,315L148,316L157,320L160,323L163,325Z " data-fips="NU02" data-hasc="NI.CA" data-name="Carazo" data-postal="CA" data-varname=""/><path d="M173,316L175,315L176,313L178,310L179,310L181,311L185,311L188,310L222,310L210,276L203,277L198,270L196,268L194,266L193,265L193,264L191,261L189,262L186,264L182,270L182,272L178,280L175,288L174,290L172,295L170,298L169,300L170,302L170,304L170,305L169,307L168,309L168,312L168,313L169,316L172,317Z " data-fips="NU06" data-hasc="NI.GR" data-name="Granada" data-postal="GR" data-varname=""/><path d="M180,187L181,187L184,187L187,186L188,185L194,180L198,177L199,176L202,173L209,165L210,163L212,160L213,159L215,158L217,158L219,157L224,154L224,151L224,149L227,147L232,144L233,142L233,141L233,139L234,135L234,134L233,133L232,132L232,130L234,129L235,128L235,125L236,124L244,123L255,116L264,120L264,119L276,101L281,92L282,90L282,89L281,86L282,81L284,71L284,69L284,67L276,67L275,66L273,65L272,63L270,61L270,59L271,58L271,55L272,53L272,52L271,51L270,50L268,49L268,47L269,45L269,45L269,44L269,42L269,41L268,40L267,40L266,41L263,45L261,45L260,44L258,43L257,42L256,44L256,46L255,51L253,54L253,56L251,58L252,59L254,61L255,62L255,64L254,66L252,67L250,68L248,68L243,68L241,69L240,70L239,72L238,73L237,73L236,73L235,75L234,76L233,79L232,80L231,82L230,83L229,84L228,85L227,86L223,87L223,88L223,90L222,91L220,91L218,92L216,93L215,94L214,95L213,95L211,96L211,97L209,97L208,99L206,99L205,99L203,99L203,101L202,104L202,107L204,107L204,108L204,110L203,111L202,112L200,113L199,114L199,116L199,120L198,121L198,122L195,127L195,129L194,131L194,137L194,138L192,139L190,140L188,143L186,143L185,142L184,141L182,141L177,142L176,141L175,141L174,142L173,143L170,146L169,147L168,147L166,147L165,147L163,148L159,153L159,155L159,156L159,158L159,162L158,166L158,167L158,169L157,170L158,172L158,173L165,179L169,182L170,184L171,184L173,184L174,185L175,186L178,188Z " data-fips="NU07" data-hasc="NI.JI" data-name="Jinotega" data-postal="JI" data-varname=""/><path d="M401,185L401,185L398,166L398,165L398,163L398,161L399,149L400,143L402,139L402,137L402,135L402,130L404,120L408,108L410,99L411,96L413,94L417,91L418,90L418,88L421,84L429,72L431,66L431,63L431,59L426,47L426,42L425,40L421,24L420,24L420,26L419,25L418,24L417,24L419,26L418,28L416,27L415,26L414,25L413,24L412,21L411,20L410,21L411,19L415,14L416,12L417,11L419,11L420,11L421,13L421,15L422,17L422,19L420,18L419,18L418,18L419,19L420,19L420,20L419,21L418,22L421,21L423,20L423,18L424,16L424,14L426,13L426,12L427,10L428,9L429,8L430,7L430,5L432,4L433,6L434,5L435,4L436,3L435,3L432,3L430,3L429,4L428,4L426,4L424,4L423,4L422,3L423,3L419,2L418,2L416,3L416,2L415,1L414,1L413,0L412,2L410,3L409,4L406,4L404,2L403,2L402,2L402,3L402,4L402,6L400,5L400,6L400,7L399,7L399,8L398,9L396,11L394,11L393,12L393,14L392,15L391,14L390,13L388,13L386,13L384,14L384,15L385,18L384,17L382,17L381,17L381,18L379,19L374,19L375,20L376,21L374,21L373,22L371,23L370,24L369,23L368,22L369,24L368,23L367,23L366,22L365,21L365,22L365,23L365,25L356,25L355,25L354,24L353,24L351,24L348,22L347,23L348,25L349,26L350,28L349,28L348,28L346,28L346,29L343,30L342,30L341,29L339,27L337,26L336,25L335,26L335,27L335,31L335,33L332,34L330,33L327,33L327,30L326,30L325,31L324,32L324,34L322,36L319,37L316,38L315,38L314,38L313,37L312,37L311,36L311,35L305,34L303,34L299,33L298,32L296,33L295,30L294,29L292,27L292,26L292,25L290,25L291,24L290,21L288,20L286,20L285,19L283,19L280,20L278,20L276,21L272,25L270,26L269,27L268,28L267,30L266,33L266,34L264,34L265,35L267,37L265,40L267,40L268,40L269,41L269,42L269,44L269,45L269,45L268,47L268,49L270,50L271,51L272,52L272,53L271,55L271,58L270,59L270,61L272,63L273,65L275,66L276,67L284,67L284,69L284,71L282,81L281,86L282,89L282,90L281,92L276,101L264,119L264,120L255,116L244,123L236,124L235,125L235,128L234,129L232,130L232,132L233,133L234,134L234,135L233,139L233,141L233,142L232,144L227,147L224,149L224,151L224,154L226,158L230,164L232,166L233,166L234,167L237,169L238,170L239,170L240,170L242,171L242,172L243,172L244,173L247,175L250,174L252,173L253,172L254,171L255,169L256,166L257,164L258,162L260,161L263,161L269,161L271,160L280,153L281,154L290,166L315,165L327,165L329,165L330,165L331,163L332,163L333,162L335,163L336,163L337,164L343,162L344,162L345,162L347,168L348,169L349,170L351,169L353,169L352,168L353,168L355,168L356,168L357,166L358,167L359,166L360,166L360,164L361,165L362,165L370,165L371,165L373,166L374,166L375,167L376,168L376,169L374,171L374,172L374,173L374,174L381,179L390,184L392,185L395,185L400,185Z M472,61L473,58L472,57L471,56L470,56L469,57L468,57L468,58L467,60L470,61Z " data-fips="NU17" data-hasc="NI.AN" data-name="Atlntico Norte" data-postal="AN" data-varname="Regin Autnoma del Atlntico Norte"/><path d="M121,278L121,277L121,276L120,274L120,273L121,273L124,272L125,273L127,273L130,270L132,268L133,265L133,263L132,262L131,261L131,255L132,253L133,252L139,245L148,236L148,235L147,234L146,232L146,231L147,229L147,228L147,227L147,226L148,225L149,224L153,221L154,213L155,204L144,199L141,197L140,195L141,194L143,190L143,187L142,184L141,183L138,179L136,177L135,176L130,178L124,179L122,180L121,180L119,179L118,179L116,179L114,179L115,182L117,187L118,189L119,191L120,203L120,205L119,208L116,209L115,210L109,210L107,212L106,214L104,216L102,217L100,219L98,222L96,224L95,226L93,229L88,234L87,234L86,235L84,236L80,236L78,237L80,240L78,239L76,238L74,237L73,236L73,238L80,241L82,244L87,247L89,248L107,260L109,262L110,263L113,272L117,278L118,280Z " data-fips="NU08" data-hasc="NI.LE" data-name="Len" data-postal="LE" data-varname=""/><path d="M136,299L137,299L138,299L139,298L141,297L142,296L144,294L147,290L152,286L153,284L156,282L159,284L160,284L162,283L163,282L164,281L164,279L163,277L162,276L162,275L167,269L169,268L172,268L175,266L176,266L177,267L186,264L189,262L191,261L193,259L194,256L186,249L186,248L186,246L186,244L186,243L183,241L182,239L182,238L181,237L181,234L180,232L174,230L174,229L173,228L171,227L170,225L168,225L153,221L149,224L148,225L147,226L147,227L147,228L147,229L146,231L146,232L147,234L148,235L148,236L139,245L133,252L132,253L131,255L131,261L132,262L133,263L133,265L132,268L130,270L127,273L125,273L124,272L121,273L120,273L120,274L121,276L121,277L121,278L118,280L119,280L121,282L122,283L122,285L123,286L124,289L125,291L128,293L129,294L130,295L132,300L133,302Z " data-fips="NU10" data-hasc="NI.MN" data-name="Managua" data-postal="MN" data-varname=""/><path d="M174,290L175,288L178,280L182,272L182,270L177,267L176,266L175,266L172,268L169,268L167,269L162,275L162,276L163,277L164,279L164,281L163,282L162,283L160,284L159,284L156,282L153,284L154,285L163,289L165,290L166,292L171,293Z " data-fips="NU11" data-hasc="NI.MS" data-name="Masaya" data-postal="MS" data-varname=""/><path d="M80,236L84,236L86,235L87,234L88,234L93,229L95,226L96,224L98,222L100,219L102,217L104,216L106,214L107,212L109,210L115,210L116,209L119,208L120,205L120,203L119,191L118,189L117,187L115,182L114,179L113,174L114,171L114,170L115,169L116,166L116,164L115,163L113,163L113,163L111,163L106,161L104,160L103,161L102,162L97,165L97,166L96,167L95,171L96,173L95,178L96,179L96,180L95,180L94,181L92,184L91,185L88,187L86,188L86,189L85,189L83,188L81,188L60,189L56,191L55,193L56,194L58,194L63,195L54,195L50,194L47,191L47,188L45,187L43,185L41,183L40,182L39,182L37,181L37,179L36,183L34,185L32,186L29,188L27,192L27,194L29,197L31,199L41,205L43,207L46,208L46,207L44,206L42,204L44,204L46,205L47,207L48,208L49,210L48,209L47,208L48,211L58,222L59,220L60,222L60,223L61,224L66,228L67,229L69,230L71,233L73,235L73,231L75,236L77,236L78,237Z " data-fips="NU03" data-hasc="NI.CI" data-name="Chinandega" data-postal="CI" data-varname=""/><path d="M156,198L157,195L158,194L160,193L161,193L164,192L166,192L166,191L167,188L170,184L169,182L165,179L158,173L158,172L157,170L158,169L158,167L158,166L159,162L159,158L159,156L159,155L159,153L159,151L158,148L157,147L152,148L145,150L141,150L137,149L135,148L132,148L129,151L125,157L124,159L123,161L115,169L114,170L114,171L113,174L114,179L116,179L118,179L119,179L121,180L122,180L124,179L130,178L135,176L136,177L138,179L141,183L142,184L143,187L143,190L141,194L140,195L141,197L144,199Z " data-fips="NU05" data-hasc="NI.ES" data-name="Estel" data-postal="ES" data-varname="Estel"/><path d="M123,161L124,159L125,157L129,151L132,148L135,148L137,149L141,150L145,150L152,148L157,147L158,148L159,151L163,148L165,147L166,147L168,147L169,147L170,146L173,143L174,142L171,139L169,135L168,134L168,134L165,131L163,132L161,132L160,133L160,136L159,137L156,136L155,135L153,134L152,134L148,135L145,135L140,133L133,133L131,134L130,134L129,135L128,134L127,133L125,133L124,132L123,130L121,128L115,127L112,127L111,129L111,129L112,130L112,131L112,133L111,134L111,136L114,147L114,148L113,151L113,153L114,154L115,155L116,156L116,159L116,160L115,161L113,163L115,163L116,164L116,166L115,169Z " data-fips="NU09" data-hasc="NI.MD" data-name="Madriz" data-postal="MD" data-varname=""/><path d="M185,229L189,227L191,224L192,223L208,220L209,220L210,220L211,220L213,219L214,219L215,219L217,218L218,218L220,218L222,215L227,215L229,215L230,214L231,214L232,212L232,212L234,212L235,213L235,214L236,215L239,216L241,217L243,218L243,220L245,219L246,219L248,222L249,222L250,222L251,222L252,223L253,221L253,219L251,214L250,211L250,210L249,209L249,207L250,205L252,205L253,205L254,205L256,204L256,201L257,201L260,202L262,202L263,201L265,201L272,201L273,202L274,201L276,199L276,197L278,198L280,196L282,194L284,193L285,193L286,193L288,193L289,193L290,194L291,193L292,193L292,191L292,190L293,189L293,186L295,183L296,182L294,183L293,183L292,182L291,179L290,177L290,176L289,175L287,175L288,173L290,166L281,154L280,153L271,160L269,161L263,161L260,161L258,162L257,164L256,166L255,169L254,171L253,172L252,173L250,174L247,175L244,173L243,172L242,172L242,171L240,170L239,170L238,170L237,169L234,167L233,166L232,166L230,164L226,158L224,154L219,157L217,158L215,158L213,159L212,160L210,163L209,165L202,173L199,176L198,177L194,180L188,185L187,186L184,187L181,187L180,187L178,188L175,186L174,185L173,184L171,184L170,184L167,188L166,191L166,192L164,192L161,193L160,193L158,194L157,195L156,198L155,204L154,213L153,221L168,225L170,225L171,227L173,228L174,229L174,230L180,232Z " data-fips="NU12" data-hasc="NI.MT" data-name="Matagalpa" data-postal="MT" data-varname=""/><path d="M190,140L192,139L194,138L194,137L194,131L195,129L195,127L198,122L198,121L199,120L199,116L199,114L200,113L202,112L202,112L201,110L199,110L197,110L195,110L194,108L193,106L192,104L190,104L189,104L187,104L186,104L185,103L183,101L177,96L177,93L178,91L178,90L171,91L170,92L169,93L168,95L167,96L166,97L165,97L164,98L163,99L160,103L157,107L154,110L152,112L152,115L151,116L150,117L149,118L147,118L142,118L141,118L139,116L138,116L137,117L135,118L134,117L131,115L127,116L120,117L116,116L114,117L112,118L111,118L110,119L110,121L110,128L111,129L112,127L115,127L121,128L123,130L124,132L125,133L127,133L128,134L129,135L130,134L131,134L133,133L140,133L145,135L148,135L152,134L153,134L155,135L156,136L159,137L160,136L160,133L161,132L163,132L165,131L168,134L168,134L169,135L171,139L174,142L175,141L176,141L177,142L182,141L184,141L185,142L186,143L188,143Z " data-fips="NU13" data-hasc="NI.NS" data-name="Nueva Segovia" data-postal="NS" data-varname=""/><path d="M210,276L212,266L213,264L215,260L215,259L215,257L215,255L215,254L216,252L219,251L222,249L224,249L226,249L229,249L233,249L239,248L244,247L248,246L249,246L254,242L257,241L258,241L259,241L262,240L263,239L264,238L266,236L266,235L267,234L267,230L267,229L267,228L271,223L270,219L271,217L270,216L270,214L269,213L268,212L267,210L264,208L262,207L260,207L259,209L258,210L258,212L257,214L256,214L256,215L254,216L255,218L255,219L255,220L253,219L253,221L252,223L251,222L250,222L249,222L248,222L246,219L245,219L243,220L243,218L241,217L239,216L236,215L235,214L235,213L234,212L232,212L232,212L231,214L230,214L229,215L227,215L222,215L220,218L218,218L217,218L215,219L214,219L213,219L211,220L210,220L209,220L208,220L192,223L191,224L189,227L185,229L181,234L181,237L182,238L182,239L183,241L186,243L186,244L186,246L186,248L186,249L194,256L193,259L193,264L193,265L194,266L196,268L198,270L203,277Z " data-fips="NU01" data-hasc="NI.BO" data-name="Boaco" data-postal="BO" data-varname=""/><path d="M262,312L264,310L265,309L267,308L268,309L270,308L270,307L271,306L272,305L273,305L273,303L274,301L278,300L281,299L286,293L288,293L294,293L296,292L297,293L299,292L300,293L301,293L304,292L304,290L304,289L308,288L296,282L295,281L290,267L288,261L288,258L289,256L289,255L285,249L284,248L283,246L282,244L282,241L282,240L282,239L283,237L283,236L282,235L281,234L279,231L277,227L277,226L274,224L271,223L267,228L267,229L267,230L267,234L266,235L266,236L264,238L263,239L262,240L259,241L258,241L257,241L254,242L249,246L248,246L244,247L239,248L233,249L229,249L226,249L224,249L222,249L219,251L216,252L215,254L215,255L215,257L215,259L215,260L213,264L212,266L210,276L222,310L260,314Z " data-fips="NU04" data-hasc="NI.CO" data-name="Chontales" data-postal="CO" data-varname=""/></g></svg>