<?xml version="1.0" ?><!DOCTYPE svg  PUBLIC '-//W3C//DTD SVG 1.1//EN'  'http://www.w3.org/Graphics/SVG/1.1/DTD/svg11.dtd'><svg enable_background="new 0 0 500 401" height="401px" style="stroke-linejoin: round; stroke:#000; fill:#f6f3f0;" version="1.1" viewBox="0 0 500 401" width="500px" xmlns="http://www.w3.org/2000/svg" xmlns:xlink="http://www.w3.org/1999/xlink"><defs><style type="text/css"><![CDATA[path { fill-rule: evenodd; }
#context path { fill: #eee; stroke: #bbb; } ]]></style></defs><metadata><views><view h="401" padding="0" w="500"><proj id="laea" lat0="10.468" lon0="-61.253"/><bbox h="16.16" w="17.06" x="991.79" y="989.09"/><llbbox lat0="-90" lat1="90" lon0="-180" lon1="180"/></view></views></metadata><g id="admin1"><path d="M382,61L390,54L395,53L413,44L416,44L420,45L423,45L427,43L429,41L436,37L437,37L441,31L442,29L445,29L448,30L450,30L452,25L454,25L457,26L460,19L461,10L460,2L458,0L455,2L449,9L447,9L442,7L439,7L435,9L427,11L417,15L413,17L410,19L405,24L379,41L376,45L375,49L371,51L367,51L364,53L363,57L366,60L370,61L374,59L377,63Z " data-fips="TD11" data-hasc="" data-name="Tobago" data-postal="" data-varname="Tabago"/><path d="M155,208L158,206L160,205L170,197L172,190L171,183L171,182L164,182L150,185L138,184L134,186L118,197L120,200L121,202L123,202L139,203L145,205L153,209Z " data-fips="TD00" data-hasc="TT.DM" data-name="Diego Martin" data-postal="DM" data-varname="Petit Valley"/><path d="M51,399L57,397L63,393L67,390L73,387L80,386L106,386L112,387L118,389L121,391L124,393L127,394L131,395L134,395L140,393L143,393L152,389L155,389L167,391L168,379L169,376L171,374L175,369L176,366L177,361L177,355L177,353L175,350L171,348L163,341L162,339L150,339L135,337L130,337L126,339L126,348L127,349L128,350L129,352L129,353L126,357L125,359L123,362L117,367L113,368L110,369L107,363L106,361L104,362L81,369L76,371L72,375L68,379L66,381L57,383L53,384L52,385L42,390L39,395L46,399Z " data-fips="TD00" data-hasc="TT.SI" data-name="Siparia" data-postal="SI" data-varname=""/><path d="M238,226L239,225L238,223L237,219L237,217L232,213L232,215L233,217L232,218L232,219L232,220L231,223L230,224L229,225L230,226L233,227L236,227Z " data-fips="TD00" data-hasc="TT.TP" data-name="Arima" data-postal="" data-varname=""/><path d="M289,269L305,265L305,257L314,249L313,240L307,222L307,213L308,204L312,198L317,199L333,179L346,157L333,154L294,159L289,161L272,163L267,167L268,168L271,172L271,175L271,178L269,179L267,181L265,182L260,187L258,189L255,190L247,190L246,192L247,192L249,193L251,193L252,193L254,195L254,197L254,203L253,207L254,212L255,215L257,218L258,219L258,222L257,224L255,226L254,228L246,232L250,235L251,238L252,251L253,253L255,256L255,260L252,267L253,270L253,271Z " data-fips="TD00" data-hasc="TT.SN" data-name="Sangre Grande" data-postal="SN" data-varname=""/><path d="M268,389L281,386L288,383L293,379L299,375L306,371L313,368L319,370L317,354L317,337L321,321L330,311L318,303L313,296L311,292L310,287L289,269L255,280L254,286L252,304L249,312L247,325L249,327L250,329L253,330L256,333L260,342L265,389Z " data-fips="TD00" data-hasc="TT.MR" data-name="Mayaro/Rio Claro" data-postal="MR" data-varname="Mayaro|Rio Claro"/><path d="M186,240L192,216L192,209L190,195L190,190L192,187L194,186L202,187L204,187L207,186L209,187L214,188L216,187L218,185L218,182L216,177L213,169L212,167L208,167L206,169L201,176L198,178L192,178L191,179L190,180L188,181L186,182L188,180L187,179L186,177L186,176L184,176L184,179L184,180L182,180L180,176L179,177L176,180L172,182L171,182L171,183L172,190L170,197L169,208L170,211L171,212L169,218L172,220L169,222L176,231L180,242L179,248L180,248Z " data-fips="TD00" data-hasc="TT.SL" data-name="San Juan/Laventille" data-postal="SL" data-varname="Laventille"/><path d="M236,387L242,387L261,390L265,389L260,342L256,333L253,330L250,329L249,327L247,325L242,316L239,314L236,314L234,312L230,311L225,311L216,311L206,313L196,317L190,318L201,340L204,343L206,346L204,390L216,391Z " data-fips="TD00" data-hasc="TT.PT" data-name="Princes Town" data-postal="PT" data-varname=""/><path d="M190,318L196,317L206,313L216,311L225,311L230,311L234,312L236,314L239,314L242,316L249,312L252,304L254,286L255,280L253,271L253,270L252,267L255,260L255,256L253,253L252,251L251,238L250,235L246,232L238,234L225,235L221,236L217,238L213,238L210,237L209,237L209,246L207,253L206,256L204,258L197,259L193,258L191,256L188,255L186,254L184,253L179,253L179,254L177,265L173,275L172,281L172,285L174,287L175,293L176,296L175,297L173,297L173,299L174,300L177,302L177,304L178,310L180,315L180,318L182,318Z " data-fips="TD00" data-hasc="TT.CT" data-name="Couva/Tabaquite/Talparo" data-postal="CT" data-varname="Couva"/><path d="M193,389L204,390L206,346L204,343L201,340L171,336L170,337L166,339L162,339L163,341L171,348L175,350L177,353L177,355L177,361L176,366L175,369L171,374L169,376L168,379L167,391L167,391Z " data-fips="TD00" data-hasc="TT.PD" data-name="Penal/Debe" data-postal="PD" data-varname="Penal"/><path d="M113,368L117,367L123,362L125,359L126,357L129,353L129,352L128,350L127,349L126,348L117,356L106,361L107,363L110,369Z " data-fips="TD00" data-hasc="TT.PF" data-name="Point Fortin" data-postal="PF" data-varname=""/><path d="M236,227L233,227L230,226L229,225L230,224L231,223L232,220L232,219L232,218L233,217L232,215L232,213L237,217L237,219L238,223L239,225L238,226Z M217,238L221,236L225,235L238,234L246,232L254,228L255,226L257,224L258,222L258,219L257,218L255,215L254,212L253,207L254,203L254,197L254,195L252,193L251,193L249,193L247,192L246,192L247,190L255,190L258,189L260,187L265,182L267,181L269,179L271,178L271,175L271,172L268,168L267,167L264,169L229,169L213,167L212,167L213,169L216,177L218,182L218,185L216,187L214,188L209,187L207,186L204,187L202,187L194,186L192,187L190,190L190,195L192,209L192,216L209,237L210,237L213,238Z " data-fips="TD00" data-hasc="TT.TP" data-name="Tunapuna/Piarco" data-postal="TP" data-varname="Tunapuna"/><path d="M190,318L182,318L180,318L181,320L179,326L177,330L176,331Z " data-fips="TD00" data-hasc="TT.SF" data-name="San Fernando" data-postal="SF" data-varname=""/><path d="M204,258L206,256L207,253L209,246L186,240L180,248L179,248L179,253L184,253L186,254L188,255L191,256L193,258L197,259Z " data-fips="TD00" data-hasc="TT.CH" data-name="Chaguanas" data-postal="CH" data-varname=""/><path d="M171,212L170,211L169,208L160,205L158,206L155,208L153,209L160,211L169,218Z " data-fips="TD00" data-hasc="TT.PS" data-name="Port of Spain" data-postal="PS" data-varname="Port-of-Spain|Puer"/></g></svg>