<?xml version="1.0" ?><!DOCTYPE svg  PUBLIC '-//W3C//DTD SVG 1.1//EN'  'http://www.w3.org/Graphics/SVG/1.1/DTD/svg11.dtd'><svg enable_background="new 0 0 500 401" height="401px" style="stroke-linejoin: round; stroke:#000; fill:#f6f3f0;" version="1.1" viewBox="0 0 500 401" width="500px" xmlns="http://www.w3.org/2000/svg" xmlns:xlink="http://www.w3.org/1999/xlink"><defs><style type="text/css"><![CDATA[path { fill-rule: evenodd; }
#context path { fill: #eee; stroke: #bbb; } ]]></style></defs><metadata><views><view h="401" padding="0" w="500"><proj id="laea" lat0="39.622" lon0="-98.606"/><bbox h="662.7" w="989.37" x="279.44" y="507.02"/><llbbox lat0="-90" lat1="90" lon0="-180" lon1="180"/></view></views></metadata><g id="admin1"><path d="M479,249L481,249L481,249L481,249L482,249L482,249L482,248L483,248L485,248L486,248L486,247L487,247L487,247L488,247L488,247L488,248L488,248L488,248L488,248L488,248L488,248L488,248L488,248L488,248L488,248L489,248L489,249L489,249L489,249L489,249L489,249L490,249L490,249L490,250L490,249L491,249L491,248L492,249L493,248L494,247L495,247L494,246L493,245L494,246L493,247L492,247L492,246L491,246L490,245L489,245L489,244L489,243L489,242L488,241L488,241L488,241L488,241L487,241L487,242L487,242L487,242L487,242L487,242L487,242L487,242L487,242L487,242L487,243L487,243L486,243L485,243L484,243L483,244L483,244L482,244L481,244L481,244L480,244L480,245L479,245L479,245L479,245L478,245L478,245L478,246L478,247L478,248L478,249L478,249L478,250Z " data-fips="US25" data-hasc="US.MA" data-name="Massachusetts" data-postal="MA" data-varname="Commonwealth of Massachusetts|MA|Mass."/><path d="M375,257L377,257L378,257L380,257L381,257L383,257L384,256L386,256L387,256L389,256L390,256L392,256L393,256L394,256L396,256L397,256L397,255L397,254L397,253L396,252L395,252L394,252L394,251L392,250L392,249L390,249L390,247L390,246L390,245L390,244L390,243L389,242L390,241L391,241L391,240L391,239L391,238L391,236L392,236L393,235L394,235L395,234L396,233L397,233L397,232L399,232L400,232L401,230L401,229L402,228L402,227L401,227L400,227L399,227L397,227L396,226L396,227L395,227L393,227L393,227L392,226L391,226L390,226L389,225L388,225L387,224L386,224L385,225L384,225L383,224L382,224L381,224L380,223L380,222L379,220L378,220L378,221L378,223L376,223L375,223L373,223L371,223L370,223L370,223L370,224L370,225L370,226L370,227L370,228L371,230L371,231L372,232L372,233L372,234L372,235L372,236L372,237L372,239L373,239L373,241L373,242L372,243L372,244L373,245L374,246L374,247L374,249L374,250L374,251L374,253L374,254L374,256L374,257Z " data-fips="US32" data-hasc="US.MN" data-name="Minnesota" data-postal="MN" data-varname="MN|Minn."/><path d="M340,246L340,245L340,244L340,242L341,240L341,239L341,238L341,237L341,236L341,235L341,234L341,233L341,232L341,231L341,229L341,228L341,227L342,226L342,225L342,224L342,223L342,222L340,222L339,222L337,222L335,222L333,221L331,221L330,221L328,221L326,221L324,221L322,220L321,220L319,220L318,220L316,220L314,219L313,219L311,219L309,218L307,218L306,218L304,218L302,217L300,217L298,217L297,216L295,216L293,216L293,217L293,218L292,220L292,221L292,222L293,223L293,224L293,225L293,226L294,227L295,228L295,229L296,230L296,231L297,231L297,232L297,233L296,234L296,235L296,236L295,237L295,238L296,238L297,238L298,238L298,239L298,240L299,241L299,242L299,243L300,244L300,245L300,246L301,246L302,246L303,246L304,246L305,246L306,246L307,246L308,245L308,246L309,246L309,245L310,244L312,244L313,244L314,244L316,245L317,245L319,245L320,245L322,245L323,245L324,246L326,246L327,246L329,246L330,246L332,246L333,246L334,247L336,247L337,247L339,247L340,247Z " data-fips="US30" data-hasc="US.MT" data-name="Montana" data-postal="MT" data-varname="MT|Mont."/><path d="M365,242L366,242L367,242L368,242L369,242L370,242L371,242L372,242L373,241L373,239L372,239L372,237L372,236L372,235L372,234L372,233L372,232L371,231L371,230L370,228L370,227L370,226L370,225L370,224L370,223L370,223L368,223L366,223L365,223L363,223L361,223L359,223L357,223L356,223L354,223L352,223L350,223L348,222L347,222L345,222L343,222L342,222L342,223L342,224L342,225L342,226L341,227L341,228L341,229L341,231L341,232L341,233L341,234L341,235L341,236L341,237L341,238L341,239L341,240L342,241L343,241L344,241L345,241L346,241L347,241L348,241L349,241L350,242L351,242L352,242L353,242L354,242L355,242L356,242L357,242L358,242L359,242L360,242L361,242L362,242L363,242L364,242Z " data-fips="US38" data-hasc="US.ND" data-name="North Dakota" data-postal="ND" data-varname="ND|N.D."/><path d="M49,312L50,312L51,312L52,312L53,311L53,310L52,309L52,308L52,307L51,305L51,305L50,304L49,306L48,306L48,307L48,308L47,309L47,310L47,311L48,312Z M51,300L51,299L50,298L49,298L49,297L48,297L48,298L49,299L49,300L50,301Z M47,294L47,293L46,294L47,295L48,295Z M45,290L45,289L44,288L43,288L43,289L43,290L44,290L45,291Z M40,281L40,280L40,280L39,279L38,280L38,281L39,282Z " data-fips="US15" data-hasc="US.HI" data-name="Hawaii" data-postal="HI" data-varname="HI|Hawaii"/><path d="M307,260L307,258L308,257L308,255L308,253L308,251L309,249L308,246L308,245L307,246L306,246L305,246L304,246L303,246L302,246L301,246L300,246L300,245L300,244L299,243L299,242L299,241L298,240L298,239L298,238L297,238L296,238L295,238L295,237L296,236L296,235L296,234L297,233L297,232L297,231L296,231L296,230L295,229L295,228L294,227L293,226L293,225L293,224L293,223L292,222L292,221L292,220L293,218L293,217L293,216L292,215L291,215L289,215L289,216L289,218L288,220L288,221L287,223L287,225L286,227L286,229L286,231L286,232L286,233L286,233L286,234L287,235L286,236L286,237L285,238L285,239L284,240L283,241L283,242L282,242L282,244L283,244L283,245L282,246L282,247L282,249L281,250L281,251L281,252L280,254L280,255L280,256L280,258L281,258L283,258L285,259L286,259L288,259L290,260L291,260L293,260L295,260L296,261L298,261L300,261L302,262L303,262L305,262Z " data-fips="US16" data-hasc="US.ID" data-name="Idaho" data-postal="ID" data-varname="ID|Idaho"/><path d="M286,232L286,231L286,229L286,227L287,225L287,223L288,221L288,220L289,218L289,216L289,215L288,214L286,214L284,214L283,213L281,213L279,212L278,212L276,211L274,211L272,210L271,210L269,209L267,209L267,210L267,211L267,212L266,213L267,214L267,215L267,216L266,216L266,217L266,218L265,219L264,219L264,220L263,220L263,219L264,219L263,220L264,219L265,218L265,217L265,216L264,217L263,217L263,218L262,218L263,218L264,217L265,216L265,215L265,214L264,214L264,213L263,213L262,213L261,212L260,212L259,211L258,210L258,211L257,212L258,214L258,215L258,216L258,218L258,219L258,220L257,220L257,221L258,221L258,222L257,223L257,222L257,223L257,224L258,224L259,225L260,225L261,226L261,227L261,228L261,229L262,230L263,230L265,230L266,230L267,231L268,231L269,231L270,231L271,231L273,231L274,231L275,231L277,231L278,231L279,232L280,232L281,232L282,232L283,233L285,233L286,233Z M266,215L266,214L266,214L266,215L266,216Z " data-fips="US53" data-hasc="US.WA" data-name="Washington" data-postal="WA" data-varname="WA|Wash."/><path d="M309,330L309,329L309,328L309,326L309,325L309,324L309,323L309,322L309,321L310,320L310,319L310,318L310,317L310,315L310,314L310,313L310,312L310,311L311,310L311,309L311,308L311,307L311,306L311,304L311,303L311,302L312,301L312,300L312,299L312,298L312,297L312,296L311,294L309,294L308,294L306,294L305,294L303,293L302,293L300,293L298,293L297,292L295,292L294,292L292,292L291,292L289,291L288,291L288,291L288,292L287,294L287,295L287,296L287,296L286,297L285,296L284,296L283,296L284,297L283,298L283,300L283,301L283,302L283,303L283,304L283,305L283,306L284,307L285,307L284,308L283,309L282,310L282,311L282,312L281,313L281,314L281,315L282,316L281,317L280,317L280,317L279,318L281,319L283,321L285,322L287,323L290,324L292,325L294,326L296,328L297,328L298,329L300,329L301,329L302,329L303,329L304,329L305,329L306,330L308,330L309,330Z " data-fips="US04" data-hasc="US.AZ" data-name="Arizona" data-postal="AZ" data-varname="AZ|Ariz."/><path d="M281,317L282,316L281,315L281,314L281,313L282,312L282,311L282,310L283,309L284,308L285,307L284,307L283,306L283,305L283,304L283,303L282,302L281,301L280,300L280,299L279,298L278,297L278,296L277,295L276,294L276,293L275,292L275,291L274,290L273,289L272,288L272,287L271,286L270,285L270,284L269,283L268,282L267,280L266,279L265,278L264,277L264,275L263,274L262,272L262,271L262,270L263,269L263,268L263,267L264,266L264,265L264,263L264,262L265,261L265,260L265,259L265,258L266,257L266,256L266,254L265,254L264,254L263,254L262,253L260,253L259,253L258,252L257,252L256,252L255,251L254,251L252,251L251,250L250,250L249,250L248,249L247,250L247,251L247,252L247,253L247,254L246,255L246,256L245,257L245,258L244,259L244,260L245,261L245,262L245,264L245,265L245,266L245,267L245,268L245,269L245,270L246,272L246,273L247,274L247,275L247,274L247,275L248,276L248,277L249,276L249,275L250,276L250,276L249,276L249,277L250,278L250,280L249,279L249,278L248,277L248,279L248,280L248,281L248,282L249,283L250,283L250,285L249,285L249,286L249,287L250,288L250,289L250,290L251,291L251,292L252,293L252,294L253,295L253,296L253,297L253,298L253,299L253,300L254,300L255,301L257,301L258,302L258,303L259,303L260,304L261,305L262,305L263,306L263,307L264,307L265,309L266,310L266,310L267,312L267,313L267,314L267,315L268,316L269,316L271,316L272,316L273,316L274,316L275,316L276,317L277,317L279,317L280,317Z M253,277L252,277L251,276L250,276L251,276L252,277Z " data-fips="US06" data-hasc="US.CA" data-name="California" data-postal="CA" data-varname="CA|Calif."/><path d="M347,296L347,295L347,294L347,293L347,291L347,290L347,289L347,288L347,287L347,286L347,284L348,283L348,282L348,281L348,280L348,278L348,277L348,276L348,275L348,273L348,272L347,272L345,272L344,272L343,272L342,272L341,272L340,272L339,272L337,272L336,272L334,272L333,271L331,271L330,271L328,271L327,271L325,271L324,271L322,271L321,270L320,270L318,270L317,270L315,270L315,271L315,273L315,274L314,276L314,277L314,279L314,281L314,282L314,284L313,285L313,287L313,288L313,290L313,291L312,293L314,295L316,295L318,295L320,295L322,296L324,296L325,296L327,296L329,296L331,296L333,296L335,297L337,297L339,297L340,297L342,297L343,297L345,297L346,297L347,297Z " data-fips="US08" data-hasc="US.CO" data-name="Colorado" data-postal="CO" data-varname="CO|Colo."/><path d="M283,302L283,301L283,300L283,298L284,297L283,296L284,296L285,296L286,297L287,296L287,296L287,295L287,294L288,292L288,291L288,291L288,289L288,287L289,285L289,283L289,281L290,279L290,277L290,276L291,274L291,272L291,270L292,268L292,266L292,264L293,262L293,260L291,260L290,260L288,259L286,259L285,259L283,258L281,258L280,258L278,257L276,257L275,256L273,256L271,256L270,255L268,255L266,254L266,256L266,257L265,258L265,259L265,260L265,261L264,262L264,263L264,265L264,266L263,267L263,268L263,269L262,270L262,271L262,272L263,274L264,275L264,277L265,278L266,279L267,280L268,282L269,283L270,284L270,285L271,286L272,287L272,288L273,289L274,290L275,291L275,292L276,293L276,294L277,295L278,296L278,297L279,298L280,299L280,300L281,301L282,302L283,303Z " data-fips="US32" data-hasc="US.NV" data-name="Nevada" data-postal="NV" data-varname="NV|Nev."/><path d="M313,329L313,328L314,327L315,328L316,328L317,328L318,328L319,328L320,328L321,328L322,328L322,328L322,328L322,327L323,327L324,327L325,327L326,327L328,327L329,327L330,328L331,328L332,328L333,328L335,328L336,328L337,328L338,328L339,328L341,327L341,326L341,324L341,322L341,320L341,319L341,317L341,315L341,313L341,312L341,310L342,308L342,306L342,305L342,303L342,301L342,300L342,299L342,297L340,297L339,297L337,297L335,297L333,296L331,296L329,296L327,296L325,296L324,296L322,296L320,295L318,295L316,295L314,295L312,296L312,297L312,298L312,299L312,300L312,301L311,302L311,303L311,304L311,306L311,307L311,308L311,309L311,310L310,311L310,312L310,313L310,314L310,315L310,317L310,318L310,319L310,320L309,321L309,322L309,323L309,324L309,325L309,326L309,328L309,329L309,330L309,330L309,330L310,330L311,330L312,330Z " data-fips="US35" data-hasc="US.NM" data-name="New Mexico" data-postal="NM" data-varname="NM|N.M."/><path d="M280,256L280,255L280,254L281,252L281,251L281,250L282,249L282,247L282,246L283,245L283,244L282,244L282,242L283,242L283,241L284,240L285,239L285,238L286,237L286,236L287,235L286,234L286,233L286,233L285,233L283,233L282,232L281,232L280,232L279,232L278,231L277,231L275,231L274,231L273,231L271,231L270,231L269,231L268,231L267,231L266,230L265,230L263,230L262,230L261,229L261,228L261,227L261,226L260,225L259,225L258,225L257,225L257,224L257,225L256,226L256,228L255,228L255,230L255,231L254,231L254,232L253,234L253,235L252,236L252,237L251,238L251,239L250,241L249,241L249,242L248,243L248,244L248,246L247,247L247,248L248,249L249,250L250,250L251,250L252,251L254,251L255,251L256,252L257,252L258,252L259,253L260,253L262,253L263,254L264,254L265,254L266,254L268,255L270,255L271,256L273,256L275,256L276,257L278,257L280,258Z " data-fips="US41" data-hasc="US.OR" data-name="Oregon" data-postal="OR" data-varname="OR|Ore."/><path d="M312,293L313,291L313,290L313,288L313,287L313,285L314,284L314,282L314,281L314,279L314,277L314,276L315,274L315,273L315,271L315,270L314,270L313,269L312,269L310,269L309,269L308,269L307,269L306,268L306,267L306,266L306,265L307,263L305,262L303,262L302,262L300,261L298,261L296,261L295,260L293,260L293,262L292,264L292,266L292,268L291,270L291,272L291,274L290,276L290,277L290,279L289,281L289,283L289,285L288,287L288,289L288,291L289,291L291,292L292,292L294,292L295,292L297,292L298,293L300,293L302,293L303,293L305,294L306,294L308,294L309,294L311,294Z " data-fips="US49" data-hasc="US.UT" data-name="Utah" data-postal="UT" data-varname="UT"/><path d="M339,270L339,269L339,267L339,266L339,264L339,262L339,261L339,258L340,256L340,255L340,253L340,252L340,250L340,248L340,247L339,247L337,247L336,247L334,247L333,246L332,246L330,246L329,246L327,246L326,246L324,246L323,245L322,245L320,245L319,245L317,245L316,245L314,244L313,244L312,244L310,244L309,245L309,246L309,249L308,251L308,253L308,255L308,257L307,258L307,260L307,263L306,265L306,266L306,267L306,268L307,269L308,269L309,269L310,269L312,269L313,269L314,270L315,270L317,270L318,270L320,270L321,270L322,271L324,271L325,271L327,271L328,271L330,271L331,271L333,271L334,272L336,272L337,272L339,272Z " data-fips="US56" data-hasc="US.WY" data-name="Wyoming" data-postal="WY" data-varname="WY|Wyo."/><path d="M389,322L391,322L393,322L395,321L396,321L398,321L400,321L402,321L403,321L403,320L403,318L402,318L403,317L403,316L403,315L404,314L404,313L405,312L405,311L405,310L406,309L407,308L407,308L407,307L408,305L408,304L408,303L409,303L408,302L407,302L406,301L407,300L407,299L406,299L405,299L403,299L402,299L401,299L399,299L398,299L396,300L395,300L394,300L392,300L391,300L390,300L388,300L387,300L386,300L384,302L385,304L385,305L385,307L385,308L385,310L385,311L385,313L385,314L386,315L386,317L386,318L386,318L387,318L388,319L388,320L388,322Z " data-fips="US05" data-hasc="US.AR" data-name="Arkansas" data-postal="AR" data-varname="AR|Ark."/><path d="M379,275L380,275L381,275L382,275L383,275L384,275L385,275L386,275L387,275L389,274L390,274L391,274L393,274L394,274L396,274L397,274L397,274L398,275L398,274L399,273L400,272L400,271L400,270L399,270L400,268L402,268L403,267L403,266L403,265L403,264L402,263L402,262L401,261L400,261L399,260L398,259L398,258L398,257L397,256L396,256L394,256L393,256L392,256L390,256L389,256L387,256L386,256L384,256L383,257L381,257L380,257L378,257L377,257L375,257L374,257L374,258L374,259L374,260L374,261L373,262L374,264L375,265L375,266L376,267L376,268L376,269L377,270L377,271L377,272L377,273L377,274L378,275Z " data-fips="US19" data-hasc="US.IA" data-name="Iowa" data-postal="IA" data-varname="IA|Iowa"/><path d="M366,298L367,298L368,298L369,298L370,297L371,297L373,297L374,297L375,297L376,297L377,297L378,297L379,297L381,297L382,297L383,297L384,296L384,295L384,293L384,292L384,290L384,288L384,287L383,285L383,284L382,283L382,282L381,281L382,280L382,279L381,279L380,279L379,279L378,279L377,279L376,279L375,279L374,279L373,279L372,279L371,279L370,279L369,279L368,279L367,279L366,279L365,279L364,279L363,279L362,279L361,279L360,279L359,279L358,279L357,279L356,279L355,279L354,279L353,279L352,279L351,279L350,279L349,279L348,280L348,281L348,282L348,283L347,284L347,286L347,287L347,288L347,289L347,290L347,291L347,293L347,294L347,295L347,296L347,297L348,297L349,297L351,297L352,297L353,297L354,297L355,297L356,297L358,297L359,298L360,298L361,298L362,298L363,298L364,298Z " data-fips="US20" data-hasc="US.KS" data-name="Kansas" data-postal="KS" data-varname="KS|Kans."/><path d="M408,302L409,301L409,299L409,298L410,298L410,298L411,298L411,296L411,295L410,295L410,294L409,293L409,292L409,291L408,290L407,290L406,289L405,289L404,288L405,287L405,285L405,284L404,284L403,284L402,283L402,282L402,281L400,280L398,278L398,277L398,276L397,274L397,274L396,274L394,274L393,274L391,274L390,274L389,274L387,275L386,275L385,275L384,275L383,275L382,275L381,275L380,275L379,275L378,275L378,275L378,276L379,277L379,278L380,279L381,279L382,279L382,280L381,281L382,282L382,283L383,284L383,285L384,287L384,288L384,290L384,292L384,293L384,295L384,296L384,299L386,300L387,300L388,300L390,300L391,300L392,300L394,300L395,300L396,300L398,299L399,299L401,299L402,299L403,299L405,299L406,299L407,299L407,300L406,301L407,302Z " data-fips="US29" data-hasc="US.MO" data-name="Missouri" data-postal="MO" data-varname="MO"/><path d="M365,279L366,279L367,279L368,279L369,279L370,279L371,279L372,279L373,279L374,279L375,279L376,279L377,279L378,279L379,279L380,279L379,278L379,277L378,276L378,275L378,275L377,274L377,273L377,272L377,271L377,270L376,269L376,268L376,267L375,266L375,265L374,264L373,262L372,262L371,261L370,261L368,261L367,261L366,261L365,261L364,260L363,260L361,260L360,260L358,260L357,260L355,260L353,260L352,260L350,260L349,260L347,260L346,260L344,260L343,260L341,259L339,261L339,262L339,264L339,266L339,267L339,269L339,270L339,272L340,272L341,272L342,272L343,272L344,272L345,272L347,272L348,272L348,273L348,275L348,276L348,277L348,278L349,279L350,279L351,279L352,279L353,279L354,279L355,279L356,279L357,279L358,279L359,279L360,279L361,279L362,279L363,279L364,279Z " data-fips="US31" data-hasc="US.NE" data-name="Nebraska" data-postal="NE" data-varname="NE|Nebr."/><path d="M386,317L386,315L385,314L385,313L385,311L385,310L385,308L385,307L385,305L385,304L384,302L384,299L383,297L382,297L381,297L379,297L378,297L377,297L376,297L375,297L374,297L373,297L371,297L370,297L369,298L368,298L367,298L366,298L364,298L363,298L362,298L361,298L360,298L359,298L358,297L356,297L355,297L354,297L353,297L352,297L351,297L349,297L348,297L347,297L346,297L345,297L343,297L342,297L342,299L342,300L342,300L343,300L344,300L346,300L347,300L348,300L349,300L351,300L352,300L353,301L355,301L357,301L357,302L357,303L357,304L357,306L357,307L357,309L357,310L357,312L358,313L359,314L360,314L361,314L361,315L362,315L364,315L364,316L366,315L367,316L368,316L368,317L369,316L370,317L371,317L372,317L373,316L374,317L375,317L376,318L377,317L378,317L379,317L380,316L381,317L382,316L383,317L384,317L385,318L386,318Z " data-fips="US40" data-hasc="US.OK" data-name="Oklahoma" data-postal="OK" data-varname="OK|Okla."/><path d="M373,262L374,261L374,260L374,259L374,258L374,257L374,256L374,254L374,253L374,251L374,250L374,249L374,247L374,246L373,245L372,244L372,243L373,242L372,242L371,242L370,242L369,242L368,242L367,242L366,242L365,242L364,242L363,242L362,242L361,242L360,242L359,242L358,242L357,242L356,242L355,242L354,242L353,242L352,242L351,242L350,242L349,241L348,241L347,241L346,241L345,241L344,241L343,241L342,241L340,242L340,244L340,245L340,246L340,247L340,248L340,250L340,252L340,253L340,255L340,256L339,258L341,259L343,260L344,260L346,260L347,260L349,260L350,260L352,260L353,260L355,260L357,260L358,260L360,260L361,260L363,260L364,260L365,261L366,261L367,261L368,261L370,261L371,261L372,262L373,262Z " data-fips="US46" data-hasc="US.SD" data-name="South Dakota" data-postal="SD" data-varname="SD|S.D."/><path d="M411,344L411,343L411,342L412,342L412,343L413,343L414,343L415,345L416,344L416,343L416,343L415,342L414,342L413,342L412,341L413,340L414,339L414,338L413,339L412,340L412,339L412,338L411,338L410,339L409,339L408,338L409,337L410,337L411,337L412,338L413,338L413,338L413,338L413,338L413,337L412,336L411,335L411,334L411,333L410,333L409,333L407,333L406,333L404,333L403,333L402,333L401,332L402,331L402,330L402,329L403,328L404,327L404,326L404,325L404,324L403,323L403,322L403,321L402,321L400,321L398,321L396,321L395,321L393,322L391,322L389,322L388,322L388,323L388,325L388,326L388,328L389,329L389,329L390,331L390,331L391,332L391,333L391,334L391,335L391,336L391,337L390,338L391,340L390,341L390,341L390,342L391,342L392,342L393,342L394,342L395,342L396,343L398,343L399,343L400,342L400,341L401,342L402,341L402,342L403,343L404,342L404,343L404,344L406,344L407,345L408,345L408,344L409,343L410,344L410,345Z " data-fips="US22" data-hasc="US.LA" data-name="Louisiana" data-postal="LA" data-varname="LA"/><path d="M372,364L372,363L371,361L371,360L371,359L371,360L371,361L371,362L372,363L372,364L372,365Z M372,357L372,356L372,355L372,356L371,357L371,358Z M375,352L376,351L376,351L375,352L374,353Z M372,366L372,366L371,365L371,364L371,363L371,362L370,361L370,360L370,359L370,358L369,358L369,357L370,358L371,357L371,356L372,355L371,354L372,355L373,354L372,353L373,353L374,352L374,351L376,351L376,350L375,349L376,349L377,350L379,349L378,350L379,350L380,349L379,349L380,349L381,348L382,347L383,347L384,346L384,345L384,344L384,343L385,342L385,344L387,344L386,344L387,343L389,343L390,342L389,341L390,341L391,340L390,338L391,337L391,336L391,335L391,334L391,333L391,332L390,331L390,331L389,329L389,329L388,328L388,326L388,325L388,323L388,322L388,320L388,319L387,318L386,318L386,318L385,318L384,317L383,317L382,316L381,317L380,316L379,317L378,317L377,317L376,318L375,317L374,317L373,316L372,317L371,317L370,317L369,316L368,317L368,316L367,316L366,315L364,316L364,315L362,315L361,315L361,314L360,314L359,314L358,313L357,312L357,310L357,309L357,307L357,306L357,304L357,303L357,302L357,301L355,301L353,301L352,300L351,300L349,300L348,300L347,300L346,300L344,300L343,300L342,300L342,300L342,301L342,303L342,305L342,306L342,308L341,310L341,312L341,313L341,315L341,317L341,319L341,320L341,322L341,324L341,326L341,327L339,328L338,328L337,328L336,328L335,328L333,328L332,328L331,328L330,328L329,327L328,327L326,327L325,327L324,327L323,327L322,327L322,328L322,328L322,328L322,328L323,329L324,330L325,331L325,332L326,333L327,333L328,334L329,335L329,336L330,336L330,337L331,338L331,339L331,340L332,341L332,342L333,343L334,344L334,344L335,345L336,346L337,346L338,347L339,347L340,346L341,345L341,344L342,343L342,342L344,342L345,342L346,342L347,342L348,342L349,343L350,343L350,344L351,345L352,346L353,347L353,348L354,348L354,350L355,350L355,351L355,352L356,353L357,354L358,355L358,356L359,356L359,357L360,358L359,360L360,360L361,361L361,363L362,363L363,364L364,364L365,364L366,365L367,366L368,366L369,366L370,366L371,367Z M384,346L384,345L384,346L383,346Z " data-fips="US48" data-hasc="US.TX" data-name="Texas" data-postal="TX" data-varname="TX|Tex."/><path d="M480,256L481,255L481,255L482,254L483,253L484,253L485,253L486,252L487,252L487,251L486,250L486,249L486,248L486,248L485,248L483,248L482,248L482,249L482,249L481,249L481,249L481,249L479,249L478,250L479,250L479,252L479,253L479,254L480,255L480,256Z " data-fips="US09" data-hasc="US.CT" data-name="Connecticut" data-postal="CT" data-varname="CT|Conn."/><path d="M482,244L483,244L483,244L484,243L485,243L486,243L487,243L487,243L487,242L487,242L487,242L487,242L487,242L487,242L487,242L487,242L487,242L487,241L488,241L488,241L488,241L488,241L488,240L488,239L487,238L486,237L486,236L486,235L485,234L485,233L485,232L484,231L484,231L483,230L483,229L483,228L482,227L482,227L481,228L481,229L481,230L481,231L482,232L482,233L481,234L480,235L481,236L481,237L480,238L480,239L481,241L481,242L481,243L482,244Z " data-fips="US33" data-hasc="US.NH" data-name="New Hampshire" data-postal="NH" data-varname="NH|N.H."/><path d="M490,249L490,249L489,249L489,249L489,249L489,249L489,249L490,250Z M487,252L488,251L488,249L489,248L488,248L488,248L488,248L488,248L488,248L488,248L488,248L488,248L488,248L488,248L488,247L488,247L487,247L487,247L486,247L486,248L486,249L486,250L487,251L487,252Z " data-fips="US44" data-hasc="US.RI" data-name="Rhode Island" data-postal="RI" data-varname="State of Rhode Island and Providence Plantations|RI|R.I."/><path d="M479,245L479,245L479,245L480,245L480,244L481,244L481,244L482,244L481,243L481,242L481,241L480,239L480,238L481,237L481,236L480,235L481,234L482,233L482,232L481,231L481,230L481,229L481,229L479,230L478,230L477,230L476,231L475,231L474,232L474,232L474,233L474,234L475,235L475,237L475,238L476,239L476,240L477,241L477,242L477,243L478,244L478,245Z " data-fips="US50" data-hasc="US.VT" data-name="Vermont" data-postal="VT" data-varname="VT"/><path d="M422,336L424,336L424,335L424,335L424,333L423,332L423,331L425,331L427,331L428,331L430,331L432,330L433,330L435,330L437,330L436,329L436,328L436,326L436,325L435,324L436,323L436,322L436,322L435,320L435,319L434,318L434,317L434,316L433,315L433,314L433,313L432,312L432,311L432,310L431,309L431,308L431,306L430,305L429,306L428,306L426,306L425,306L423,306L421,306L420,307L418,307L417,307L418,308L418,309L418,310L418,311L418,313L418,315L418,316L418,318L418,320L418,321L418,323L418,324L418,325L418,326L418,328L418,329L418,330L418,331L419,332L419,333L419,335L419,336L420,336L421,336L421,335L421,334L422,334L422,335L422,336L421,337Z " data-fips="US01" data-hasc="US.AL" data-name="Alabama" data-postal="AL" data-varname="AL|Ala."/><path d="M467,361L467,361L467,360L467,361L467,362Z M464,362L465,362L466,361L467,361L467,359L467,358L468,357L468,355L468,353L468,352L467,351L467,350L466,349L465,346L462,342L461,341L461,340L462,341L462,341L462,341L462,341L462,341L462,341L462,342L462,341L463,341L463,342L463,344L464,345L463,343L463,342L463,341L462,340L461,339L460,338L460,337L459,336L458,335L458,334L457,333L457,331L456,330L456,329L455,328L455,328L453,328L453,329L453,330L453,331L452,330L451,330L450,330L449,330L448,330L446,331L445,331L444,331L443,331L442,331L441,331L439,331L438,331L437,331L437,330L435,330L433,330L432,330L430,331L428,331L427,331L425,331L423,331L423,332L424,333L424,335L424,335L425,335L424,336L425,335L425,334L426,335L426,334L427,334L426,335L427,335L428,334L429,334L430,334L431,334L430,334L429,334L431,335L432,335L434,335L433,334L434,334L434,335L435,336L434,336L435,336L436,337L436,338L435,337L436,338L436,338L436,338L437,338L438,337L439,337L440,336L441,336L441,335L442,335L443,335L444,335L445,336L446,337L446,337L447,338L448,339L449,339L450,339L451,340L451,341L451,342L451,343L451,344L451,345L451,347L451,348L452,348L451,347L452,348L452,347L452,346L453,347L454,347L453,348L453,349L453,350L453,351L454,352L455,352L456,353L455,352L456,353L456,354L457,355L457,354L457,355L458,356L458,357L459,358L460,358L461,358L462,359L462,360L463,361L464,362L463,361L463,362Z M465,346L464,345L465,346L465,348L466,349Z M429,334L429,334L427,335L426,335L425,335Z " data-fips="US12" data-hasc="US.FL" data-name="Florida" data-postal="FL" data-varname="FL|Fla."/><path d="M439,331L441,331L442,331L443,331L444,331L445,331L446,331L448,330L449,330L450,330L451,330L452,330L453,331L453,330L453,329L453,328L455,328L455,328L455,328L455,327L456,326L456,325L455,324L456,324L456,323L457,322L457,321L457,320L457,319L456,319L455,318L455,317L454,317L454,316L453,315L453,314L452,313L451,313L450,312L449,311L449,310L448,310L447,309L446,308L445,308L445,307L444,306L443,306L442,305L442,304L443,303L442,303L441,304L440,304L439,304L438,304L437,304L436,304L435,305L434,305L433,305L432,305L430,305L431,306L431,308L431,309L432,310L432,311L432,312L433,313L433,314L433,315L434,316L434,317L434,318L435,319L435,320L436,322L436,322L436,323L435,324L436,325L436,326L436,328L436,329L437,330L437,331L438,331Z " data-fips="US13" data-hasc="US.GA" data-name="Georgia" data-postal="GA" data-varname="GA|Ga."/><path d="M413,338L414,337L415,337L416,336L417,336L418,336L419,336L419,335L419,333L419,332L418,331L418,330L418,329L418,328L418,326L418,325L418,324L418,323L418,321L418,320L418,318L418,316L418,315L418,313L418,311L418,310L418,309L418,308L417,307L416,307L416,307L414,307L413,307L412,308L410,308L409,308L408,308L407,308L406,309L405,310L405,311L405,312L404,313L404,314L403,315L403,316L403,317L402,318L403,318L403,320L403,321L403,322L403,323L404,324L404,325L404,326L404,327L403,328L402,329L402,330L402,331L401,332L402,333L403,333L404,333L406,333L407,333L409,333L410,333L411,333L411,334L411,335L412,336L413,337L413,338Z " data-fips="US28" data-hasc="US.MS" data-name="Mississippi" data-postal="MS" data-varname="MS|Miss."/><path d="M458,319L458,318L457,317L457,317L458,317L459,317L459,316L460,316L461,315L461,315L462,314L463,313L464,312L464,311L464,310L464,309L465,310L465,309L465,308L466,307L467,306L467,305L465,305L464,304L463,303L462,302L461,301L459,301L458,302L457,302L456,302L455,302L454,301L453,301L452,301L451,301L450,301L449,301L448,301L446,301L446,301L445,302L444,303L443,303L442,304L442,305L443,306L444,306L445,307L445,308L446,308L447,309L448,310L449,310L449,311L450,312L451,313L452,313L453,314L453,315L454,316L454,317L455,317L455,318L456,319L457,319L457,320Z " data-fips="US45" data-hasc="US.SC" data-name="South Carolina" data-postal="SC" data-varname="SC|S.C."/><path d="M411,294L412,294L414,294L415,294L414,293L415,292L416,291L416,290L416,289L416,288L416,287L416,286L417,286L417,285L418,284L418,283L417,282L417,281L417,280L417,278L417,277L417,275L417,273L416,271L416,269L416,268L416,266L416,265L417,264L417,263L417,262L415,260L414,260L412,260L410,261L409,261L407,261L406,261L404,261L402,261L402,262L402,263L403,264L403,265L403,266L403,267L402,268L400,268L399,270L400,270L400,271L400,272L399,273L398,274L398,275L398,276L398,277L398,278L400,280L402,281L402,282L402,283L403,284L404,284L405,284L405,285L405,287L404,288L405,289L406,289L407,290L408,290L409,291L409,292L409,293L410,294L410,295L411,295Z " data-fips="US17" data-hasc="US.IL" data-name="Illinois" data-postal="IL" data-varname="IL|Ill."/><path d="M417,289L418,289L419,288L421,289L421,288L422,288L423,288L423,287L424,287L425,287L426,287L426,285L427,285L428,284L428,283L428,282L429,282L430,282L430,280L431,279L430,278L430,277L430,276L430,275L430,274L430,273L429,272L429,271L429,270L429,269L429,268L429,267L429,266L428,265L428,264L428,263L428,263L427,263L426,263L425,263L423,264L422,264L421,264L420,264L419,264L418,264L416,265L416,266L416,268L416,269L416,271L417,273L417,275L417,277L417,278L417,280L417,281L417,282L418,283L418,284L417,285L417,286L416,286L416,287L416,288L416,289L417,290Z " data-fips="US18" data-hasc="US.IN" data-name="Indiana" data-postal="IN" data-varname="IN|Ind."/><path d="M412,298L414,298L415,298L417,297L417,296L419,296L420,296L421,296L422,296L423,296L425,296L426,296L428,295L429,295L430,295L431,295L433,295L434,295L435,294L436,294L437,294L439,294L440,293L441,292L442,292L442,291L443,290L444,289L445,288L446,287L445,287L444,286L443,285L443,284L442,283L442,282L442,281L441,281L440,280L439,281L438,281L437,281L436,281L435,281L434,281L433,280L432,279L431,279L431,279L430,280L430,282L429,282L428,282L428,283L428,284L427,285L426,285L426,287L425,287L424,287L423,287L423,288L422,288L421,288L421,289L419,288L418,289L417,289L417,290L416,289L416,290L416,291L415,292L414,293L415,294L414,294L412,294L411,294L411,295L411,296L411,298L410,298L410,298Z " data-fips="US21" data-hasc="US.KY" data-name="Kentucky" data-postal="KY" data-varname="Commonwealth of Kentucky|KY"/><path d="M468,305L469,305L470,304L470,303L470,304L470,303L471,302L472,300L472,299L473,300L473,299L474,299L475,298L476,298L476,297L477,296L476,296L475,297L474,297L473,297L475,297L475,295L475,295L474,294L473,294L474,294L474,293L475,293L476,294L477,293L478,293L478,292L478,291L478,290L477,290L477,292L477,291L476,290L475,291L474,291L473,291L473,290L473,289L473,290L474,290L475,289L476,289L476,288L477,288L477,289L476,287L476,286L476,286L474,287L473,287L472,287L471,288L470,288L469,288L467,288L466,289L464,289L463,289L461,290L460,290L459,290L458,291L457,291L455,291L455,291L454,291L453,292L452,292L451,292L450,292L448,292L448,293L448,294L447,294L447,295L446,295L445,296L444,296L443,297L443,298L442,299L441,299L440,300L439,300L439,301L438,302L438,303L437,303L437,304L438,304L439,304L440,304L441,304L442,303L443,303L444,303L445,302L446,301L446,301L448,301L449,301L450,301L451,301L452,301L453,301L454,301L455,302L456,302L457,302L458,302L459,301L461,301L462,302L463,303L464,304L465,305L467,305L467,306L467,306Z M477,298L477,297L476,298L476,299Z M480,294L480,293L480,292L480,294L479,294Z M478,289L477,287L477,287L477,286L476,286L477,286L477,287L478,288L478,289L479,290Z " data-fips="US37" data-hasc="US.NC" data-name="North Carolina" data-postal="NC" data-varname="NC|N.C."/><path d="M443,281L443,280L443,279L443,278L444,278L445,278L445,277L445,276L446,275L446,275L447,274L448,274L449,272L449,271L449,270L449,269L449,268L449,267L449,266L449,265L448,264L448,262L448,261L448,260L447,258L447,257L447,256L446,256L445,257L444,257L442,258L441,259L440,260L439,262L438,262L436,261L435,260L434,262L433,262L432,263L430,263L429,263L428,263L428,264L428,265L429,266L429,267L429,268L429,269L429,270L429,271L429,272L430,273L430,274L430,275L430,276L430,277L430,278L431,279L431,279L432,279L433,280L434,281L435,281L436,281L437,281L438,281L439,281L440,280L441,281L442,281L442,282L442,282Z " data-fips="US39" data-hasc="US.OH" data-name="Ohio" data-postal="OH" data-varname="OH|Ohio"/><path d="M408,308L409,308L410,308L412,308L413,307L414,307L416,307L416,307L417,307L418,307L420,307L421,306L423,306L425,306L426,306L428,306L429,306L430,305L432,305L433,305L434,305L435,305L436,304L437,304L437,303L438,303L438,302L439,301L439,300L440,300L441,299L442,299L443,298L443,297L444,296L445,296L446,295L447,295L447,294L448,294L448,293L448,292L448,292L447,292L446,293L445,293L444,293L443,293L442,293L441,294L440,294L437,294L436,294L435,294L434,295L433,295L431,295L430,295L429,295L428,295L426,296L425,296L423,296L422,296L421,296L420,296L419,296L417,296L417,297L415,298L414,298L412,298L410,298L409,298L409,299L409,301L409,303L408,303L408,304L408,305L407,307L407,308L407,308Z " data-fips="US47" data-hasc="US.TN" data-name="Tennessee" data-postal="TN" data-varname="TN|Tenn."/><path d="M441,294L442,293L443,293L444,293L445,293L446,293L447,292L448,292L448,292L450,292L451,292L452,292L453,292L454,291L455,291L455,291L457,291L458,291L459,290L460,290L461,290L463,289L464,289L466,289L467,288L469,288L470,288L471,288L472,287L473,287L474,287L476,286L476,286L476,286L476,286L476,285L476,286L477,286L476,286L476,285L475,284L474,285L473,284L472,284L471,283L470,283L469,283L470,283L471,283L472,283L472,284L474,284L473,283L472,283L471,282L473,282L473,281L473,280L472,280L471,280L470,279L469,278L468,278L469,278L470,279L471,279L472,280L473,280L473,279L472,278L471,278L470,277L469,277L468,276L467,277L467,276L467,275L468,274L467,273L467,273L466,273L465,273L465,272L464,271L464,271L463,273L463,272L462,272L461,272L461,273L460,274L460,275L459,276L458,276L458,277L458,278L457,278L456,278L456,279L455,280L455,281L455,282L454,283L454,284L454,285L453,286L452,286L451,287L450,287L449,288L448,288L447,288L446,288L446,287L445,288L444,289L443,290L442,291L442,292L441,292L440,293L439,294L440,294Z M475,281L476,280L476,279L477,277L477,277L476,277L475,277L475,278L475,279L475,280L475,281L475,282Z M477,276L477,276L477,276L477,277Z " data-fips="US51" data-hasc="US.VA" data-name="Virginia" data-postal="VA" data-varname="VA"/><path d="M404,261L406,261L407,261L409,261L410,261L412,260L414,260L415,260L417,259L417,257L416,256L416,255L416,254L416,253L416,251L416,250L416,249L416,247L416,246L417,245L417,244L418,243L417,242L416,242L415,241L414,242L414,243L413,244L412,243L412,242L411,242L411,241L411,240L410,240L409,239L408,239L407,239L406,239L405,238L404,238L403,238L402,238L401,237L400,237L399,236L400,235L400,234L400,233L400,232L399,232L397,232L397,233L396,233L395,234L394,235L393,235L392,236L391,236L391,238L391,239L391,240L391,241L390,241L389,242L390,243L390,244L390,245L390,246L390,247L390,249L392,249L392,250L394,251L394,252L395,252L396,252L397,253L397,254L397,255L397,256L398,257L398,258L398,259L399,260L400,261L401,261L402,261Z " data-fips="US55" data-hasc="US.WI" data-name="Wisconsin" data-postal="WI" data-varname="WI|Wis."/><path d="M449,288L450,287L451,287L452,286L453,286L454,285L454,284L454,283L455,282L455,281L455,280L456,279L456,278L457,278L458,278L458,277L458,276L459,276L460,275L460,274L461,273L461,272L462,272L463,272L463,273L464,271L464,271L463,271L463,270L462,270L461,270L460,270L459,271L458,271L458,272L457,272L456,273L456,274L454,271L453,271L451,272L450,271L450,270L450,269L449,268L449,267L449,266L449,267L449,268L449,269L449,270L449,271L449,272L448,274L447,274L446,275L446,275L445,276L445,277L445,278L444,278L443,278L443,279L443,280L443,281L442,282L442,282L442,282L442,283L443,284L443,285L444,286L445,287L446,287L446,288L447,288L448,288Z " data-fips="US54" data-hasc="US.WV" data-name="West Virginia" data-postal="WV" data-varname="WV|W.Va."/><path d="M476,274L477,274L477,274L477,273L477,273L477,272L476,271L475,271L475,270L474,269L473,268L473,267L474,266L473,266L472,267L472,268L473,269L473,271L474,272L474,273L475,274Z " data-fips="US10" data-hasc="US.DE" data-name="Delaware" data-postal="DE" data-varname="DE|Del."/><path d="M468,273L467,273L467,273L468,274Z " data-fips="US11" data-hasc="US.DC" data-name="District of Columbia" data-postal="DC" data-varname="DC|D.C."/><path d="M477,276L477,276L477,276L477,275L477,276Z M475,277L476,277L477,277L477,276L477,275L477,274L476,274L475,274L474,273L474,272L473,271L473,269L472,268L472,267L471,267L470,267L469,268L468,268L467,268L466,268L465,269L464,269L462,269L461,269L460,270L459,270L458,270L457,270L456,271L456,274L456,273L457,272L458,272L458,271L459,271L460,270L461,270L462,270L463,270L463,271L464,271L465,272L465,273L466,273L468,273L468,274L468,275L467,276L467,277L468,276L469,276L470,277L471,277L472,277L472,277L471,276L470,275L470,274L470,275L471,275L470,275L470,273L470,272L470,271L469,270L470,270L470,269L471,269L471,268L472,268L472,269L471,270L471,271L471,271L471,272L472,272L471,273L472,273L473,274L472,274L472,275L473,276L474,275L474,276L475,277L474,278Z " data-fips="US24" data-hasc="US.MD" data-name="Maryland" data-postal="MD" data-varname="MD"/><path d="M478,269L478,268L479,267L479,265L479,264L479,263L479,262L480,263L479,262L479,261L479,260L478,260L478,259L478,258L478,257L477,256L476,256L475,256L474,255L474,256L474,257L473,258L473,259L473,260L473,261L474,261L475,262L476,263L475,264L475,264L474,265L473,266L473,267L474,268L475,269L476,269L477,269L478,270Z " data-fips="US34" data-hasc="US.NJ" data-name="New Jersey" data-postal="NJ" data-varname="NJ|N.J."/><path d="M480,259L481,258L482,257L483,257L484,256L485,256L485,255L486,254L487,253L486,254L485,254L484,255L485,254L485,253L485,254L484,254L484,255L482,256L481,256L480,257L479,257L479,258L479,257L480,256L480,255L479,254L479,253L479,252L479,250L478,250L478,249L478,249L478,248L478,247L478,246L478,245L478,245L478,244L477,243L477,242L477,241L476,240L476,239L475,238L475,237L475,235L474,234L474,233L474,232L474,232L473,232L472,232L471,232L470,233L468,233L467,233L467,233L466,234L466,235L465,236L464,237L464,238L463,239L462,240L462,242L462,243L461,244L460,244L459,245L458,245L457,245L456,245L455,246L454,246L453,246L452,247L452,248L452,249L453,250L453,251L452,252L451,253L450,254L450,255L450,256L451,257L451,257L452,257L453,257L454,256L456,256L457,256L458,255L459,255L461,255L462,254L463,254L464,254L465,254L467,253L468,253L469,253L470,252L471,253L472,253L472,254L473,255L474,255L475,256L476,256L477,256L478,257L478,256L478,255L478,256L479,257L479,258L479,258L479,259Z " data-fips="US36" data-hasc="US.NY" data-name="New York" data-postal="NY" data-varname="NY|N.Y."/><path d="M453,271L454,271L456,271L457,270L458,270L459,270L460,270L461,269L462,269L464,269L465,269L466,268L467,268L468,268L469,268L470,267L471,267L472,267L473,266L474,266L474,265L475,264L476,263L475,262L474,261L473,261L473,260L473,259L473,258L474,257L474,256L474,255L473,255L472,254L472,253L471,253L470,252L469,253L468,253L467,253L465,254L464,254L463,254L462,254L461,255L459,255L458,255L457,256L456,256L454,256L453,257L452,257L451,257L451,257L450,256L450,255L450,254L449,254L448,255L447,256L447,257L447,258L448,260L448,261L448,262L448,264L449,265L449,266L449,267L449,268L450,269L450,270L450,271L451,272Z " data-fips="US42" data-hasc="US.PA" data-name="Pennsylvania" data-postal="PA" data-varname="Commonwealth of Pennsylvania|PA"/><path d="M489,239L489,238L489,237L489,236L489,235L490,235L491,234L490,233L491,233L491,232L492,233L492,232L493,232L493,231L493,230L493,229L493,228L494,229L495,229L495,228L496,227L497,227L497,226L498,226L499,225L499,225L499,224L499,223L498,222L497,222L497,221L496,220L495,220L494,219L494,218L494,217L493,216L492,214L492,213L491,211L490,211L489,210L488,211L487,212L486,212L486,212L486,211L485,212L484,213L484,215L484,216L484,217L484,219L484,220L484,221L484,222L484,223L484,224L483,225L484,226L483,226L482,227L483,228L483,229L483,230L484,231L484,231L485,232L485,233L485,234L486,235L486,236L486,237L487,238L488,239L488,240Z " data-fips="US23" data-hasc="US.ME" data-name="Maine" data-postal="ME" data-varname="ME|Maine"/><path d="M418,264L419,264L420,264L421,264L422,264L423,264L425,263L426,263L427,263L428,263L428,263L429,263L430,263L432,263L433,262L434,262L435,260L435,259L435,258L436,257L437,256L437,255L437,254L437,253L438,252L438,251L438,249L437,248L437,247L437,246L436,244L436,243L435,242L435,241L434,239L433,239L431,238L430,237L429,236L429,235L428,235L427,235L426,234L426,233L425,233L424,234L423,233L423,232L422,231L421,230L420,230L418,229L417,229L416,229L415,228L414,228L413,227L412,227L410,226L409,226L408,225L406,225L406,225L405,226L403,227L402,227L402,228L401,229L401,230L400,233L400,234L400,235L399,236L400,237L401,237L402,238L403,238L404,238L405,238L406,239L407,239L408,239L409,239L410,240L411,240L411,241L411,242L412,242L412,243L413,244L414,243L414,242L415,241L416,242L417,242L418,243L417,244L417,245L416,246L416,247L416,249L416,250L416,251L416,253L416,254L416,255L416,256L417,257L417,259L417,262L417,263L417,264Z " data-fips="US26" data-hasc="US.MI" data-name="Michigan" data-postal="MI" data-varname="MI|Mich."/><path d="M254,164L254,163L255,163L256,161L256,160L256,159L257,158L257,158L256,157L256,156L255,155L254,154L254,153L253,152L253,151L254,150L253,149L254,148L254,147L254,146L254,145L254,143L254,142L254,140L253,138L253,137L253,135L253,134L252,133L252,132L253,131L252,130L251,130L250,129L249,130L248,131L247,131L244,131L245,130L244,128L244,124L243,123L245,121L243,120L242,121L241,120L240,118L241,117L242,115L243,114L244,112L245,111L246,109L247,108L248,106L249,105L251,103L252,102L253,100L254,99L255,97L256,96L257,94L258,93L260,91L261,90L262,88L263,87L264,85L265,84L266,82L268,81L269,79L270,78L271,76L272,75L273,73L275,72L276,71L275,70L275,69L274,68L274,67L274,66L273,65L272,65L271,65L270,64L270,63L269,62L268,61L267,60L267,59L266,58L266,57L266,56L265,55L264,55L263,54L262,54L262,52L261,51L262,52L262,51L263,51L263,50L262,49L260,48L260,47L261,47L261,46L260,46L259,46L258,46L258,45L260,45L260,45L260,44L261,43L260,42L258,43L257,43L256,43L255,42L254,41L254,41L253,40L252,41L252,42L251,41L250,42L251,41L252,40L250,40L249,40L248,39L247,39L248,39L247,39L246,39L245,39L244,39L243,39L242,40L241,40L239,40L238,40L237,39L236,38L235,37L234,37L233,38L233,38L231,38L231,39L231,40L231,42L231,43L230,44L230,46L229,47L228,48L228,49L229,50L230,50L229,50L230,51L230,52L229,52L228,52L228,54L229,54L229,55L230,56L229,57L228,56L228,54L227,54L228,52L228,52L229,50L228,51L228,52L227,53L226,54L227,54L227,56L226,56L227,55L226,55L224,55L224,54L223,53L223,52L222,51L223,50L224,50L225,49L224,48L223,48L222,48L222,47L220,47L220,48L219,47L219,46L217,46L216,45L215,45L215,44L214,45L214,47L214,48L214,49L213,49L213,48L212,49L212,50L211,51L211,52L211,53L211,54L212,55L213,56L213,57L214,58L214,59L215,58L215,59L215,60L216,60L217,60L218,60L218,61L220,61L219,62L218,63L217,63L216,62L216,63L216,64L215,65L214,66L213,67L212,67L211,66L210,64L209,64L208,64L207,65L206,64L205,63L206,63L206,62L205,61L204,62L203,61L202,62L202,63L203,63L201,63L201,64L201,63L200,62L199,62L198,62L197,63L196,64L195,63L195,64L194,63L193,65L193,66L193,67L194,66L195,67L196,67L195,67L194,67L193,67L193,68L192,69L192,69L192,69L192,69L192,69L191,69L190,70L189,70L190,70L189,71L189,73L188,74L188,75L188,76L189,77L190,78L191,78L192,78L193,77L194,77L195,76L196,77L195,77L194,77L193,78L192,78L192,79L191,80L190,81L189,82L188,82L188,83L188,84L187,84L186,85L185,85L186,86L187,86L188,87L189,87L190,88L190,89L190,90L191,89L191,90L190,91L190,93L190,94L191,93L192,92L193,92L194,92L194,93L194,92L193,92L193,93L193,94L194,94L195,95L196,95L197,95L196,95L195,96L194,96L193,96L192,97L192,98L191,98L191,98L190,99L189,100L188,101L188,100L187,100L186,100L184,100L183,101L182,101L182,100L181,100L180,100L178,100L177,99L176,100L175,100L174,101L174,102L174,101L173,101L174,100L173,99L172,98L171,98L170,98L168,98L167,98L166,97L164,98L164,99L165,98L165,99L166,99L167,99L166,100L166,100L168,100L169,100L170,100L171,100L171,101L170,100L170,101L171,102L172,102L172,103L173,102L174,103L175,103L176,103L175,104L176,104L177,104L178,105L179,105L180,105L179,105L180,105L181,105L181,104L182,103L183,104L184,104L185,104L186,104L187,105L188,105L189,105L189,105L190,104L191,104L192,104L193,104L194,104L195,104L196,104L197,104L198,104L199,105L199,104L200,104L201,104L202,104L203,104L204,103L204,102L204,101L203,100L204,100L205,100L206,99L207,99L208,99L208,100L209,100L209,99L210,100L211,99L211,98L211,97L212,98L213,98L214,98L215,97L216,98L217,97L218,97L219,97L220,97L222,97L222,98L223,98L224,98L225,99L223,98L222,99L222,100L222,101L223,102L222,100L221,100L220,99L219,99L218,99L217,99L216,100L215,100L214,101L213,101L212,102L211,103L212,103L213,104L212,104L211,104L210,104L209,105L210,105L211,105L212,106L213,106L214,106L215,106L214,106L215,106L216,106L217,105L217,106L218,106L219,105L218,106L219,107L219,107L221,107L221,106L222,106L223,106L224,105L223,105L222,104L224,105L224,104L223,104L223,103L225,103L225,102L226,103L227,103L226,103L225,104L226,104L227,104L226,105L227,105L228,105L229,105L230,106L229,105L228,106L228,107L227,107L228,107L229,108L229,109L228,110L229,110L229,111L231,111L232,111L231,112L230,112L230,113L231,114L230,115L231,115L232,116L233,116L234,117L235,118L236,119L237,119L238,120L237,121L238,122L239,123L240,123L241,123L242,123L243,124L243,125L242,124L242,125L242,124L242,123L241,123L241,124L240,124L240,126L241,127L241,128L242,129L242,130L242,131L243,132L243,134L243,135L244,136L244,137L245,136L246,137L246,135L246,135L246,134L246,133L245,132L246,132L246,133L247,134L247,134L248,133L248,134L247,135L247,136L247,137L248,137L248,138L249,139L249,138L249,137L250,136L250,135L250,134L250,133L251,134L251,133L251,132L251,133L251,135L250,135L250,137L250,138L250,139L251,139L251,140L252,140L253,139L252,140L251,141L251,142L252,142L251,142L251,143L252,143L253,143L252,143L252,144L252,145L251,144L252,145L251,146L251,147L250,147L251,148L251,149L251,150L252,151L251,152L251,153L252,154L252,155L253,155L252,155L251,156L250,157L249,157L250,159L251,158L251,157L252,157L253,157L254,157L253,157L254,159L253,160L253,161L253,162L252,162L252,162L253,162L254,162L253,162L252,163L251,163L251,164L252,164L253,165Z M252,161L253,160L253,159L253,158L253,157L252,157L251,158L251,159L250,159L251,160L252,160L252,159L252,160L251,161L252,160L251,161Z M245,161L245,160L245,159L245,159L244,160L245,161L245,162Z M251,155L250,154L250,153L249,154L250,155L250,156Z M251,154L251,153L251,154L252,155Z M248,162L247,161L249,161L248,160L249,159L248,158L247,158L248,158L249,159L249,158L249,156L249,155L248,154L248,153L248,152L247,152L247,152L247,153L247,153L247,153L247,153L247,153L247,153L246,154L247,154L247,153L247,153L247,154L246,155L246,156L247,157L246,158L245,158L246,159L247,160L246,161L247,162L246,163L247,163Z M250,152L250,152L249,153L250,153Z M246,151L247,151L247,150L247,149L247,148L247,148L246,147L246,148L246,149L246,151L245,151L245,152L246,151L245,152Z M251,151L251,150L250,150L250,151L250,152Z M244,150L245,149L245,148L245,147L246,146L246,144L246,143L245,143L245,143L244,143L244,145L244,146L243,147L244,147L243,148L244,148L243,148L243,149L244,151Z M249,151L249,150L250,151L251,150L250,149L249,148L249,147L248,147L248,148L248,149L247,150L248,151L249,152Z M244,144L243,143L243,144L243,145Z M247,143L247,142L246,141L246,140L247,141L248,141L248,140L248,139L247,139L247,138L246,138L245,137L245,138L244,138L244,139L244,140L244,139L244,140L244,141L243,142L244,143L245,142L245,141L246,142L246,143Z M247,146L248,146L248,145L249,145L250,144L250,143L249,142L250,142L250,143L250,144L250,143L251,141L250,140L249,139L249,138L249,139L249,140L249,141L248,142L248,143L248,144L247,145L246,145L246,146Z M201,112L201,111L202,110L201,109L200,109L201,109L200,108L199,108L198,109L199,108L198,107L197,108L197,109L196,109L196,110L196,109L197,108L196,107L195,107L195,107L194,108L193,109L193,110L194,111L194,110L193,109L194,110L195,111L194,111L193,112L194,112L195,112L195,112L196,111L197,111L198,112L199,112L199,111L199,111L200,112Z M227,109L227,109L226,108L226,109Z M223,109L224,109L225,108L225,108L224,109L223,109L222,109L221,110L222,110Z M204,109L205,108L204,108L203,107L203,107L203,107L202,108L201,107L201,108L202,109L203,109Z M224,107L224,106L224,106L223,107L223,108Z M171,106L172,105L172,105L171,105L170,106Z M171,103L170,103L170,104L171,104Z M163,99L163,97L163,96L162,96L161,96L160,95L159,95L158,96L158,97L159,97L160,97L161,99L162,99L163,100Z M151,95L152,95L153,94L151,94L152,93L151,92L150,93L150,94L149,93L148,94L148,94L147,93L146,94L147,94L148,94L149,95L150,95L151,96Z M147,91L147,91L145,91L144,91L143,91L142,91L141,91L142,92L143,92L144,92L145,92L147,92Z M188,88L188,87L187,87L186,88L187,88Z M129,81L129,80L129,80L128,79L128,80L129,81L129,82L130,83Z M129,78L130,78L129,77L128,78L127,77L126,76L126,75L126,76L127,77L128,78L128,79Z M123,73L123,72L123,71L122,71L121,72L122,73Z M193,73L192,73L193,72L191,71L192,71L192,70L192,69L192,69L193,70L193,71L194,72L193,72Z M121,68L120,67L120,68L120,69Z M186,71L187,70L187,69L187,68L187,68L186,67L185,67L184,66L184,67L184,68L183,69L184,70L185,71Z M115,59L115,58L115,57L115,57L115,58L115,59L115,61Z M117,52L116,52L115,52L116,52Z M178,53L178,51L177,53L178,54Z M200,51L199,50L199,49L199,48L200,47L200,46L199,46L199,45L198,44L198,43L197,44L197,44L197,45L198,46L198,46L198,47L197,48L197,49L197,50L198,51L199,52Z M115,38L115,38L114,37L114,38Z M118,34L118,33L117,33L116,33L117,34L117,35Z " data-fips="US02" data-hasc="US.AK" data-name="Alaska" data-postal="AK" data-varname="AK|Alaska"/></g></svg>