<?xml version="1.0" ?><!DOCTYPE svg  PUBLIC '-//W3C//DTD SVG 1.1//EN'  'http://www.w3.org/Graphics/SVG/1.1/DTD/svg11.dtd'><svg enable_background="new 0 0 500 401" height="401px" style="stroke-linejoin: round; stroke:#000; fill:#f6f3f0;" version="1.1" viewBox="0 0 500 401" width="500px" xmlns="http://www.w3.org/2000/svg" xmlns:xlink="http://www.w3.org/1999/xlink"><defs><style type="text/css"><![CDATA[path { fill-rule: evenodd; }
#context path { fill: #eee; stroke: #bbb; } ]]></style></defs><metadata><views><view h="401" padding="0" w="500"><proj id="laea" lat0="3.9" lon0="-73.076"/><bbox h="220.17" w="180.86" x="895.62" y="880.13"/><llbbox lat0="-90" lat1="90" lon0="-180" lon1="180"/></view></views></metadata><g id="admin1"><path d="M356,339L356,338L357,336L357,335L357,333L357,332L356,331L355,331L354,330L352,330L352,329L352,328L351,327L350,327L349,328L347,327L346,328L345,327L346,326L346,325L345,325L344,325L343,326L342,325L341,326L342,327L342,328L341,328L340,327L340,326L338,326L338,325L339,324L339,323L338,322L338,321L339,320L339,319L339,317L337,317L338,316L339,314L338,313L337,314L336,315L335,315L334,314L334,313L333,312L331,312L330,312L329,312L328,311L327,311L326,312L325,311L324,310L324,309L323,307L323,306L322,304L321,304L320,304L318,303L317,302L316,302L315,302L315,301L313,303L312,304L308,305L306,306L305,307L305,308L304,309L303,310L300,310L299,310L298,311L296,312L295,314L294,315L294,316L294,318L293,318L291,318L290,317L289,318L288,319L287,320L286,319L283,317L281,318L280,318L277,316L275,318L274,318L272,318L272,317L271,316L269,316L268,316L266,316L264,316L264,315L263,315L262,314L261,313L259,314L258,313L245,317L245,317L246,320L246,321L248,322L248,323L247,324L248,324L248,326L249,326L251,327L252,327L253,327L254,329L255,328L255,329L256,329L257,330L258,331L259,332L260,331L261,332L262,332L263,333L264,334L264,335L264,336L265,336L266,337L266,338L266,340L265,341L266,342L267,344L268,344L269,344L270,344L271,343L273,345L273,346L273,347L273,349L274,350L274,351L274,352L273,354L273,355L274,356L275,357L276,356L278,357L279,359L280,358L282,358L283,358L284,358L285,357L286,357L287,358L290,359L291,359L293,359L294,358L296,358L297,357L299,356L300,356L301,355L302,355L303,353L305,352L305,353L307,353L308,353L308,354L310,355L311,356L311,355L312,356L312,357L313,357L315,357L316,356L317,357L318,356L319,355L320,355L321,354L322,354L323,354L325,354L326,356L328,356L328,357L329,358L330,359L331,359L331,358L332,359L333,359L334,360L335,360L336,360L336,362L337,361L338,362L339,363L340,363L341,364L342,363L343,365L342,366L329,389L332,391L333,391L334,391L336,390L337,390L338,391L339,392L340,394L340,395L343,397L344,398L345,398Z " data-fips="CO01" data-hasc="CO.AM" data-name="Amazonas" data-postal="AM" data-varname=""/><path d="M227,181L228,181L229,180L230,179L230,178L232,177L233,177L235,176L236,176L237,177L238,176L239,175L240,175L241,173L242,172L241,171L242,170L242,168L241,168L242,166L242,165L243,164L245,163L246,161L246,160L246,157L247,156L248,156L253,152L253,151L255,149L256,148L257,147L257,146L256,145L256,142L256,141L249,148L248,148L247,147L246,146L246,144L246,143L246,141L246,140L247,139L247,138L247,137L246,138L245,139L244,140L243,139L242,138L242,137L242,136L242,134L243,133L244,132L243,131L243,130L243,128L242,127L242,126L235,122L235,123L234,124L232,124L231,124L230,124L228,124L227,126L225,127L224,129L222,130L221,132L220,132L220,135L218,136L217,136L216,137L214,139L213,140L211,140L210,139L201,139L201,137L199,134L199,133L199,131L200,128L201,127L201,125L202,122L202,121L203,119L205,118L206,116L206,114L205,112L204,111L203,110L202,109L202,107L201,106L201,106L199,107L198,108L196,109L196,110L193,111L191,112L190,113L191,114L192,115L193,116L193,116L194,120L194,122L194,123L194,124L194,126L194,127L193,127L192,127L190,126L191,124L192,124L191,123L192,122L191,123L190,122L190,121L189,121L189,120L189,120L189,122L189,123L189,124L188,125L188,128L187,129L186,130L186,131L189,133L191,135L193,138L195,140L196,141L197,141L199,142L199,144L199,147L198,148L197,148L195,147L193,147L192,148L193,149L193,151L192,151L191,151L190,152L189,152L189,153L189,155L190,155L191,156L191,157L191,158L192,159L192,160L193,161L193,162L193,163L193,164L194,165L195,166L196,167L198,166L199,166L200,166L202,166L203,166L205,167L205,168L205,169L207,170L208,171L208,172L207,174L207,175L208,177L208,179L209,180L210,180L211,181L212,181L215,181L216,180L217,181L218,181L219,181L219,180L219,178L219,177L219,176L220,176L221,177L222,178L223,177L224,178L224,179L225,179L225,181L225,182L227,182Z " data-fips="CO02" data-hasc="CO.AN" data-name="Antioquia" data-postal="AN" data-varname=""/><path d="M275,200L276,198L275,196L276,195L276,194L276,193L278,193L279,192L279,190L278,189L278,188L279,187L280,185L281,184L282,184L283,186L284,186L285,185L286,185L287,183L289,181L290,180L291,181L292,181L293,179L293,178L294,177L293,176L292,175L291,175L290,173L291,172L291,171L291,170L292,169L291,167L290,166L290,164L292,162L293,162L293,161L294,161L295,160L296,159L296,158L297,154L298,153L299,151L300,148L300,148L299,148L299,148L298,147L297,147L295,147L294,148L293,148L292,149L292,150L291,150L290,151L288,150L289,151L288,153L288,154L288,156L287,158L287,159L286,160L285,160L284,161L284,159L283,158L281,158L282,159L283,160L283,162L283,164L282,165L281,166L281,167L280,167L279,168L277,170L276,172L273,171L272,171L272,172L270,174L269,174L268,175L267,176L266,174L267,173L268,172L268,171L268,170L267,169L266,168L265,169L264,171L263,172L263,173L263,174L263,176L262,176L261,176L260,176L257,176L256,176L255,176L254,175L253,174L252,173L251,172L250,173L249,174L249,172L249,170L249,169L248,169L247,169L246,169L245,168L244,167L243,165L243,164L242,165L242,166L241,168L242,168L242,170L241,171L242,172L241,173L240,175L240,176L241,176L242,175L243,175L244,175L245,175L246,175L247,174L248,175L248,176L248,177L248,178L248,180L249,180L249,181L250,182L251,182L253,183L254,184L255,184L256,183L257,182L258,181L259,180L259,181L261,182L262,182L263,183L264,184L264,186L265,186L265,187L265,189L266,190L266,191L266,193L265,194L265,195L267,195L268,196L269,197L270,197L271,199L272,199L272,200L274,200Z " data-fips="CO36" data-hasc="CO.BY" data-name="Boyac" data-postal="BY" data-varname=""/><path d="M214,139L216,137L217,136L218,136L220,135L220,132L221,132L222,130L224,129L225,127L227,126L228,124L230,124L231,124L232,124L234,124L235,123L235,122L237,120L237,117L236,117L235,116L234,115L233,115L231,115L229,117L227,115L226,115L226,114L226,112L225,110L225,109L225,108L225,106L227,105L228,105L228,103L228,102L227,102L223,100L223,99L222,98L221,97L220,96L219,96L217,95L217,94L216,94L215,94L214,94L215,93L213,93L212,94L211,95L209,95L208,96L208,97L207,98L206,100L205,101L205,102L205,103L204,104L203,105L201,106L202,107L202,109L203,110L204,111L205,112L206,114L206,116L205,118L203,119L202,121L202,122L201,125L201,127L200,128L199,131L199,133L199,134L201,137L201,139L210,139L211,140L213,140Z " data-fips="CO12" data-hasc="CO.CO" data-name="Crdoba" data-postal="CO" data-varname=""/><path d="M263,176L263,174L263,173L263,172L264,171L265,169L266,168L267,169L268,170L268,171L268,172L267,173L266,174L267,176L268,175L269,174L270,174L272,172L272,171L273,171L276,172L277,170L279,168L280,167L281,167L281,166L282,165L283,164L283,162L283,160L282,159L281,158L283,158L284,159L284,161L285,160L286,160L287,159L287,158L288,156L288,154L288,153L289,151L288,150L287,150L287,149L287,148L286,148L285,148L284,148L283,148L281,147L280,147L279,146L281,144L280,143L280,142L280,141L280,139L279,138L279,137L277,135L277,134L276,134L274,134L273,134L272,134L271,135L271,136L269,136L268,135L266,135L266,134L265,133L264,132L260,131L261,130L261,129L261,128L262,128L262,126L261,125L260,123L260,122L259,122L258,123L258,124L258,125L258,127L259,129L259,130L258,132L259,134L258,135L257,137L257,138L257,139L256,141L256,142L256,145L257,146L257,147L256,148L255,149L253,151L253,152L248,156L247,156L246,157L246,160L246,161L245,163L243,164L243,165L244,167L245,168L246,169L247,169L248,169L249,169L249,170L249,172L249,174L250,173L251,172L252,173L253,174L254,175L255,176L256,176L257,176L260,176L261,176L262,176Z " data-fips="CO26" data-hasc="CO.ST" data-name="Santander" data-postal="ST" data-varname=""/><path d="M275,72L276,72L277,72L279,71L279,71L279,70L280,70L280,68L282,67L282,66L283,63L284,61L285,60L286,59L287,57L288,56L288,56L290,55L292,55L293,55L299,45L300,44L311,41L313,40L314,39L315,38L316,37L317,36L318,35L318,34L317,32L316,30L315,29L314,28L313,28L312,27L311,27L309,26L308,26L306,26L305,26L305,27L306,26L306,27L305,28L305,27L304,28L304,29L303,29L303,28L302,29L301,30L302,30L301,32L300,32L300,33L299,32L299,30L296,30L295,31L296,32L296,34L295,36L294,37L294,38L293,39L292,39L290,40L289,41L287,41L286,42L285,42L283,42L282,43L278,46L276,48L274,49L273,50L272,51L272,51L271,52L268,52L265,52L265,53L264,55L263,55L263,56L263,58L263,59L263,60L264,62L267,62L268,62L270,62L271,62L271,63L271,64L272,65L273,65L274,66L275,67L274,68L274,69L273,71L274,72Z " data-fips="CO17" data-hasc="CO.LG" data-name="La Guajira" data-postal="LG" data-varname="Guajira|Goagira|La Goajira"/><path d="M225,196L225,195L225,193L225,192L225,191L226,190L227,190L228,189L229,189L230,188L231,187L232,186L233,186L234,186L236,186L237,186L239,185L239,184L240,183L240,182L240,181L240,180L240,178L240,177L240,176L239,175L238,176L237,177L236,176L235,176L233,177L232,177L230,178L230,179L229,180L228,181L227,181L227,182L225,182L225,181L225,179L224,179L224,178L223,177L222,178L221,177L220,176L219,176L219,177L219,178L219,180L219,181L218,181L217,181L216,180L215,181L213,184L215,184L216,184L217,184L218,185L218,186L217,187L216,186L215,186L214,187L214,188L213,190L212,190L212,192L212,192L213,193L214,194L215,194L215,193L216,192L217,194L218,193L219,194L220,194L221,194L222,195L223,196L224,197Z " data-fips="CO37" data-hasc="CO.CL" data-name="Caldas" data-postal="CL" data-varname=""/><path d="M245,219L246,218L247,217L246,215L246,214L248,212L249,213L249,211L250,210L250,209L250,207L250,206L251,203L250,201L250,200L251,199L252,199L252,197L253,196L254,196L254,198L254,200L255,201L254,203L253,204L252,205L252,206L252,207L251,209L252,211L253,212L252,213L252,214L252,215L253,214L255,213L256,212L257,211L259,210L260,210L260,209L259,208L259,206L259,205L260,204L261,203L262,204L263,204L264,205L264,206L265,208L266,209L267,208L269,208L272,209L273,209L274,209L275,204L275,200L274,200L272,200L272,199L271,199L270,197L269,197L268,196L267,195L265,195L265,194L266,193L266,191L266,190L265,189L265,187L265,186L264,186L264,184L263,183L262,182L261,182L259,181L259,180L258,181L257,182L256,183L255,184L254,184L253,183L251,182L250,182L249,181L249,180L248,180L248,178L248,177L248,176L248,175L247,174L246,175L245,175L244,175L243,175L242,175L241,176L240,176L240,177L240,178L240,180L240,181L240,182L240,183L239,184L239,185L238,187L238,190L238,192L238,193L238,194L238,195L238,196L237,198L236,199L237,200L237,201L236,202L237,203L236,205L235,209L236,209L237,209L238,210L239,210L240,210L241,209L242,209L243,210L244,211L244,212L243,213L243,214L243,215L243,216L243,217L242,218L242,220L243,221Z " data-fips="" data-hasc="CO.CU" data-name="Cundinamarca" data-postal="CU" data-varname=""/><path d="M246,221L247,219L248,218L248,217L249,216L250,215L252,214L252,213L253,212L252,211L251,209L252,207L252,206L252,205L253,204L254,203L255,201L254,200L254,198L254,196L253,196L252,197L252,199L251,199L250,200L250,201L251,203L250,206L250,207L250,209L250,210L249,211L249,213L248,212L246,214L246,215L247,217L246,218L245,219L245,222Z " data-fips="CO34" data-hasc="CO.CU" data-name="Bogota" data-postal="CU" data-varname="Bogota Capital District"/><path d="M217,211L218,210L218,209L219,208L219,207L219,205L220,204L221,203L221,202L222,202L223,201L223,200L222,200L221,200L220,199L217,199L217,200L216,200L214,200L213,201L213,203L213,205L213,206L214,206L215,207L215,208L214,209L214,210L214,211L214,212L215,213Z " data-fips="CO23" data-hasc="CO.QD" data-name="Quindo" data-postal="QD" data-varname=""/><path d="M222,200L224,197L223,196L222,195L221,194L220,194L219,194L218,193L217,194L216,192L215,193L215,194L214,194L213,193L212,192L212,192L212,190L213,190L214,188L214,187L215,186L216,186L217,187L218,186L218,185L217,184L216,184L215,184L213,184L212,181L211,181L210,180L209,180L208,181L208,182L206,183L206,186L208,189L208,191L208,192L209,192L210,194L210,195L211,195L212,196L212,197L212,198L213,198L214,198L215,199L217,199L220,199L221,200Z " data-fips="CO24" data-hasc="CO.RI" data-name="Risaralda" data-postal="RI" data-varname=""/><path d="M214,239L215,238L216,238L218,236L218,235L219,233L220,232L220,231L221,230L222,229L223,229L224,228L225,228L227,229L227,228L228,228L229,228L232,228L231,229L231,230L231,231L232,231L233,231L234,231L236,230L236,228L237,227L237,226L238,225L238,224L239,223L240,222L241,222L242,220L242,218L243,217L243,216L243,215L243,214L243,213L244,212L244,211L243,210L242,209L241,209L240,210L239,210L238,210L237,209L236,209L235,209L236,205L237,203L236,202L237,201L237,200L236,199L237,198L238,196L238,195L238,194L238,193L238,192L238,190L238,187L237,186L236,186L234,186L233,186L232,186L231,187L230,188L229,189L228,189L227,190L226,190L225,191L225,192L225,193L225,195L225,196L224,197L223,200L223,201L222,202L221,202L221,203L220,204L219,205L219,207L219,208L218,209L218,210L217,211L215,213L216,214L215,214L214,216L214,217L213,218L212,220L211,221L210,223L210,224L210,225L209,226L209,227L209,229L209,230L209,231L208,232L208,234L207,235L207,235L209,236L209,237L209,239L211,238L211,239L213,240Z " data-fips="CO28" data-hasc="CO.TO" data-name="Tolima" data-postal="TO" data-varname=""/><path d="M288,319L289,318L290,317L291,318L293,318L294,318L294,316L294,315L295,314L296,312L298,311L299,310L300,310L303,310L304,309L305,308L305,307L306,306L308,305L312,304L313,303L315,301L314,301L312,300L311,300L310,300L309,300L306,299L306,298L305,297L304,296L303,296L302,295L301,294L301,293L301,292L299,291L299,290L298,289L297,289L296,288L294,288L293,287L292,286L293,285L291,285L291,283L290,283L290,281L288,280L287,280L285,279L284,278L283,278L282,278L281,278L280,278L280,279L280,280L279,281L278,282L277,283L276,284L275,284L274,283L273,283L272,282L271,281L269,279L267,277L267,276L267,275L266,274L264,272L260,268L258,268L256,268L243,263L242,263L242,262L241,261L241,260L241,258L242,257L242,256L242,255L241,253L240,252L240,250L240,249L241,244L241,243L240,242L239,240L238,239L237,239L235,238L234,239L233,240L231,242L231,243L232,244L232,245L231,246L229,248L228,247L227,248L226,251L225,252L224,253L223,254L222,255L222,256L220,259L218,260L217,263L216,264L214,266L213,267L212,268L211,269L210,269L209,269L208,269L207,269L206,270L205,272L204,273L203,275L203,278L204,279L205,279L206,279L209,281L210,281L211,281L212,282L212,283L214,285L215,285L216,285L218,285L220,286L222,288L224,288L226,288L227,289L227,290L227,291L227,292L228,293L229,293L230,293L231,294L233,295L232,296L233,297L233,298L234,299L235,299L238,300L239,301L239,303L240,303L240,305L240,306L241,307L242,307L243,307L244,307L245,306L246,307L247,307L248,308L249,309L250,309L251,310L252,310L254,311L255,312L256,313L258,313L259,314L261,313L262,314L263,315L264,315L264,316L266,316L268,316L269,316L271,316L272,317L272,318L274,318L275,318L277,316L280,318L281,318L283,317L286,319L287,320Z " data-fips="CO08" data-hasc="CO.CQ" data-name="Caquet" data-postal="CQ" data-varname=""/><path d="M206,282L208,282L209,281L206,279L205,279L204,279L203,278L203,275L204,273L205,272L206,270L207,269L206,269L204,268L203,268L202,268L201,267L200,265L199,264L197,261L197,260L197,258L198,257L199,257L200,257L201,256L201,255L202,253L201,251L201,250L202,251L205,252L207,251L209,250L210,249L211,249L212,250L213,250L215,249L214,248L214,246L215,244L214,243L213,243L212,241L209,239L209,237L209,236L207,235L207,235L208,234L208,232L207,232L206,232L204,231L202,231L200,230L200,232L200,233L199,233L198,234L197,234L196,235L195,235L194,234L193,233L192,234L191,235L190,235L188,234L187,233L186,233L185,233L184,233L183,234L182,234L181,234L180,233L179,233L179,232L178,231L177,232L176,232L176,233L176,234L175,236L174,236L172,236L172,237L171,238L173,238L174,238L174,239L173,239L172,239L172,240L173,240L172,240L171,241L172,242L171,241L170,242L171,242L170,242L170,243L170,244L171,245L171,246L170,247L169,247L167,246L168,245L167,245L166,246L166,247L166,248L167,250L166,251L167,252L168,254L169,256L170,256L172,256L173,256L174,256L175,255L177,255L178,255L179,255L181,256L180,257L180,258L182,259L183,260L183,261L182,262L181,263L181,264L181,265L180,266L182,267L183,267L185,267L186,267L187,266L188,266L189,266L190,267L191,269L190,270L189,271L189,273L190,275L190,275L193,275L194,274L195,272L196,273L197,273L198,275L198,276L198,277L198,280L199,281L200,282L202,282L205,283Z M170,246L169,245L167,245L168,245L168,246L170,247Z M169,244L168,243L168,244L169,245L170,245Z " data-fips="CO09" data-hasc="CO.CA" data-name="Cauca" data-postal="CA" data-varname=""/><path d="M210,269L211,269L212,268L213,267L214,266L216,264L217,263L218,260L220,259L222,256L222,255L223,254L224,253L225,252L226,251L227,248L228,247L229,248L231,246L232,245L232,244L231,243L231,242L233,240L234,239L235,238L235,238L235,237L236,235L237,235L238,234L239,233L240,232L240,230L241,228L241,226L243,223L243,221L242,220L241,222L240,222L239,223L238,224L238,225L237,226L237,227L236,228L236,230L234,231L233,231L232,231L231,231L231,230L231,229L232,228L229,228L228,228L227,228L227,229L225,228L224,228L223,229L222,229L221,230L220,231L220,232L219,233L218,235L218,236L216,238L215,238L214,239L213,240L211,239L211,238L209,239L212,241L213,243L214,243L215,244L214,246L214,248L215,249L213,250L212,250L211,249L210,249L209,250L207,251L205,252L202,251L201,250L201,251L202,253L201,255L201,256L200,257L199,257L198,257L197,258L197,260L197,261L199,264L200,265L201,267L202,268L203,268L204,268L206,269L207,269L208,269L209,269Z " data-fips="CO16" data-hasc="CO.HU" data-name="Huila" data-postal="HU" data-varname=""/><path d="M185,296L186,296L185,295L185,294L185,292L185,291L184,290L183,290L183,288L184,286L185,286L185,285L187,282L187,281L186,280L185,279L186,278L188,277L188,276L190,275L189,273L189,271L190,270L191,269L190,267L189,266L188,266L187,266L186,267L185,267L183,267L182,267L180,266L181,265L181,264L181,263L182,262L183,261L183,260L182,259L180,258L180,257L181,256L179,255L178,255L177,255L175,255L174,256L173,256L172,256L170,256L169,256L168,254L167,252L166,251L167,250L166,248L166,247L165,248L165,247L164,247L163,248L162,248L161,248L160,247L159,248L158,249L157,249L155,248L155,250L153,250L153,250L153,249L152,250L152,251L151,253L150,254L150,255L151,257L151,258L151,259L152,259L152,261L153,261L153,262L153,263L152,265L151,264L150,264L148,264L147,263L146,263L145,264L143,265L143,266L142,268L143,268L144,269L145,269L146,270L146,271L147,272L148,274L149,274L150,275L151,276L152,277L153,277L155,278L157,281L158,281L160,281L162,284L163,284L165,284L167,285L167,285L168,286L169,286L171,285L172,286L173,288L175,289L176,289L177,290L177,291L178,294L178,295L179,296L182,297L183,297Z M163,247L163,246L162,245L161,246L161,247L162,248L163,248Z " data-fips="CO20" data-hasc="CO.NA" data-name="Nario" data-postal="NA" data-varname=""/><path d="M258,313L256,313L255,312L254,311L252,310L251,310L250,309L249,309L248,308L247,307L246,307L245,306L244,307L243,307L242,307L241,307L240,306L240,305L240,303L239,303L239,301L238,300L235,299L234,299L233,298L233,297L232,296L233,295L231,294L230,293L229,293L228,293L227,292L227,291L227,290L227,289L226,288L224,288L222,288L220,286L218,285L216,285L215,285L214,285L212,283L212,282L211,281L210,281L209,281L208,282L206,282L205,283L202,282L200,282L199,281L198,280L198,277L198,276L198,275L197,273L196,273L195,272L194,274L193,275L190,275L190,275L188,276L188,277L186,278L185,279L186,280L187,281L187,282L185,285L185,286L184,286L183,288L183,290L184,290L185,291L185,292L185,294L185,295L186,296L185,296L186,296L187,298L189,298L190,299L191,299L192,299L193,298L194,298L196,299L197,299L198,299L199,299L201,299L200,297L201,295L202,295L202,294L203,294L205,295L206,295L207,296L208,296L209,297L211,299L211,300L213,301L215,302L216,303L217,303L219,303L219,304L221,304L222,305L223,306L224,306L225,307L227,306L227,305L228,305L229,305L230,306L231,307L232,308L234,309L235,309L236,308L237,309L238,311L237,311L238,312L239,312L240,312L241,313L243,315L244,316L245,317Z " data-fips="CO22" data-hasc="CO.PU" data-name="Putumayo" data-postal="PU" data-varname=""/><path d="M192,234L193,233L194,234L195,235L196,235L197,234L198,234L199,233L200,233L200,232L200,230L202,231L204,231L206,232L207,232L208,232L209,231L209,230L209,229L209,227L209,226L210,225L210,224L210,223L211,221L212,220L213,218L214,217L214,216L215,214L216,214L215,213L214,212L214,211L214,210L214,209L215,208L215,207L214,206L213,206L213,205L213,203L213,201L214,200L216,200L217,200L215,199L214,198L213,198L212,198L212,197L212,196L211,195L210,195L210,194L209,192L208,192L208,192L207,193L206,195L205,196L204,198L203,199L203,200L202,201L200,202L200,203L200,204L199,206L198,206L198,207L199,208L199,210L200,211L199,212L198,212L197,214L195,213L194,214L193,215L192,215L191,214L190,214L189,212L188,212L187,213L186,212L184,211L183,211L182,211L182,209L181,210L181,211L180,210L178,211L178,212L178,213L178,215L180,216L180,215L181,214L181,213L182,212L183,213L183,214L183,215L181,215L181,217L181,218L182,218L184,218L186,217L187,217L186,218L185,219L185,220L184,221L183,220L184,221L185,221L184,222L185,222L184,223L183,223L182,224L181,225L180,225L182,225L181,226L180,227L180,228L180,229L181,230L180,229L178,229L177,230L178,230L178,231L179,232L179,233L180,233L181,234L182,234L183,234L184,233L185,233L186,233L187,233L188,234L190,235L191,235Z " data-fips="CO11" data-hasc="CO.VC" data-name="Valle del Cauca" data-postal="VC" data-varname="Valle"/><path d="M236,73L237,71L237,69L238,69L239,67L239,66L239,63L239,62L239,61L238,60L238,59L237,58L237,57L236,56L235,56L234,57L233,59L232,59L232,61L231,61L229,62L228,63L228,63L228,64L228,64L227,65L227,66L228,66L228,67L227,68L227,69L227,70L228,70L229,71L230,72L231,72L232,73L233,73Z " data-fips="CO04" data-hasc="CO.AT" data-name="Atlntico" data-postal="AT" data-varname=""/><path d="M256,141L257,139L257,138L257,137L258,135L259,134L258,132L259,130L259,129L258,127L258,125L258,124L258,123L259,122L260,122L260,122L260,120L260,119L260,118L260,117L260,115L259,113L259,112L259,111L259,109L259,108L259,107L258,106L257,105L257,104L255,103L254,102L253,103L251,102L250,101L250,100L248,99L248,98L247,98L246,98L245,97L244,98L243,97L242,96L241,96L241,95L240,94L239,94L238,93L237,92L237,90L238,89L237,88L237,87L237,86L236,85L236,84L236,83L236,82L237,81L237,80L236,79L235,78L234,77L234,76L233,73L232,73L231,72L230,72L229,71L228,70L227,70L227,69L227,68L228,67L228,66L227,66L227,65L227,64L226,65L225,65L224,66L223,67L222,67L221,68L222,69L222,70L221,71L222,70L221,71L221,73L221,74L220,74L219,75L219,76L218,76L217,77L218,77L219,76L221,76L221,77L220,78L220,79L220,79L222,78L221,80L222,81L223,82L223,83L225,84L225,84L225,86L225,87L225,88L225,89L227,88L228,89L229,89L230,90L231,91L233,91L232,93L233,93L234,93L235,94L234,95L234,96L235,97L235,99L236,100L237,101L238,102L240,104L241,105L243,107L242,108L241,109L242,112L242,113L242,114L243,115L242,117L241,117L241,118L240,119L238,119L237,120L242,126L242,127L243,128L243,130L243,131L244,132L243,133L242,134L242,136L242,137L242,138L243,139L244,140L245,139L246,138L247,137L247,138L247,139L246,140L246,141L246,143L246,144L246,146L247,147L248,148L249,148Z M228,63L228,63L228,63L227,63L228,64Z " data-fips="CO35" data-hasc="CO.BL" data-name="Bolvar" data-postal="BL" data-varname=""/><path d="M268,132L268,131L269,129L269,128L270,127L271,126L270,125L269,125L269,124L268,123L268,121L268,120L269,118L269,117L269,115L268,116L268,117L267,118L265,117L266,116L266,115L265,114L265,113L265,112L265,111L266,109L267,109L267,107L267,106L267,105L267,101L268,100L269,100L268,99L269,98L270,97L271,95L273,93L273,91L275,90L275,88L277,86L277,85L277,84L277,83L277,81L278,77L279,71L277,72L276,72L275,72L274,72L273,71L274,69L274,68L275,67L274,66L273,65L272,65L271,64L271,63L271,62L270,62L268,62L267,62L264,62L264,62L264,64L265,64L264,65L264,67L264,69L264,70L263,71L262,71L261,72L259,72L258,72L257,73L256,74L256,75L254,76L254,77L254,78L253,80L254,81L255,82L256,83L257,85L258,86L258,87L259,88L259,90L257,90L256,90L255,90L254,90L252,92L253,93L254,94L255,94L255,96L256,97L256,98L256,99L258,99L258,101L259,102L259,103L258,104L258,106L259,107L259,108L259,109L259,111L259,112L259,113L260,115L260,117L260,118L260,119L260,120L260,122L260,122L260,123L261,125L262,126L262,128L261,128L261,129L261,130L260,131L263,131L264,132L265,132L266,133Z " data-fips="CO10" data-hasc="CO.CE" data-name="Cesar" data-postal="CE" data-varname="El Cesar"/><path d="M194,214L195,213L197,214L198,212L199,212L200,211L199,210L199,208L198,207L198,206L199,206L200,204L200,203L200,202L202,201L203,200L203,199L204,198L205,196L206,195L207,193L208,192L208,192L208,191L208,189L206,186L206,183L208,182L208,181L209,180L208,179L208,177L207,175L207,174L208,172L208,171L207,170L205,169L205,168L205,167L203,166L202,166L200,166L199,166L198,166L196,167L195,166L194,165L193,164L193,163L193,162L193,161L192,160L192,159L191,158L191,157L191,156L190,155L189,155L189,153L189,152L190,152L191,151L192,151L193,151L193,149L192,148L193,147L195,147L197,148L198,148L199,147L199,144L199,142L197,141L196,141L195,140L193,138L191,135L189,133L186,131L186,130L187,129L188,128L188,125L189,124L189,123L189,122L189,120L189,120L189,120L187,119L185,116L184,115L182,114L182,114L182,112L181,111L180,111L179,111L179,113L178,113L178,115L179,115L180,116L180,118L180,119L181,120L182,121L183,122L183,123L184,126L184,127L182,127L181,128L181,129L180,130L181,131L180,132L177,134L176,135L175,136L174,134L173,133L172,131L171,133L171,134L172,135L172,136L171,137L170,137L169,143L170,144L171,144L173,146L173,147L173,148L173,149L173,150L174,151L175,152L176,154L176,155L177,154L178,154L179,154L179,156L179,156L180,158L180,159L180,160L179,161L180,162L180,163L179,165L177,164L177,165L178,166L179,168L180,169L181,173L182,175L182,176L182,177L181,178L181,178L180,179L179,178L178,179L177,179L176,180L176,181L177,181L178,181L179,182L179,183L179,184L179,185L180,186L180,188L180,189L180,193L180,196L181,197L182,199L181,198L181,199L181,203L181,204L180,205L180,206L179,207L181,209L181,209L180,209L179,208L178,207L178,208L177,209L176,209L176,210L177,209L178,210L180,209L181,210L181,209L182,209L182,211L183,211L184,211L186,212L187,213L188,212L189,212L190,214L191,214L192,215L193,215Z M180,210L181,211L181,210L181,210L180,210L179,210L178,211Z " data-fips="CO11" data-hasc="CO.CH" data-name="Choc" data-postal="CH" data-varname=""/><path d="M258,104L259,103L259,102L258,101L258,99L256,99L256,98L256,97L255,96L255,94L254,94L253,93L252,92L254,90L255,90L256,90L257,90L259,90L259,88L258,87L258,86L257,85L256,83L255,82L254,81L253,80L254,78L254,77L254,76L256,75L256,74L257,73L258,72L259,72L261,72L262,71L263,71L264,70L264,69L264,67L264,65L265,64L264,64L264,62L264,62L263,60L263,59L263,58L263,56L263,55L264,55L265,53L265,52L264,52L261,53L259,52L257,52L256,51L255,51L254,51L253,51L252,51L251,51L250,53L250,54L250,55L250,56L250,57L249,59L248,61L248,62L247,64L246,64L245,64L244,62L244,63L243,64L243,62L242,63L242,62L242,61L243,61L244,62L244,61L244,59L245,59L247,59L249,58L248,59L246,59L245,59L243,58L242,58L238,56L236,56L237,57L237,58L238,59L238,60L239,61L239,62L239,63L239,66L239,67L238,69L237,69L237,71L236,73L234,76L234,77L235,78L236,79L237,80L237,81L236,82L236,83L236,84L236,85L237,86L237,87L237,88L238,89L237,90L237,92L238,93L239,94L240,94L241,95L241,96L242,96L243,97L244,98L245,97L246,98L247,98L248,98L248,99L250,100L250,101L251,102L253,103L254,102L255,103L257,104L257,105L258,106Z " data-fips="CO18" data-hasc="CO.MA" data-name="Magdalena" data-postal="MA" data-varname="La Magdalena"/><path d="M240,119L241,118L241,117L242,117L243,115L242,114L242,113L242,112L241,109L242,108L243,107L241,105L240,104L238,102L237,101L236,100L235,99L235,97L234,96L234,95L235,94L234,93L233,93L232,93L233,91L231,91L230,90L229,89L228,89L227,88L225,89L225,88L225,87L225,86L225,84L225,84L223,83L223,82L222,81L221,80L222,78L220,79L220,79L220,80L219,82L219,84L219,85L217,87L219,87L219,88L220,89L220,91L219,93L217,94L217,95L219,96L220,96L221,97L222,98L223,99L223,100L227,102L228,102L228,103L228,105L227,105L225,106L225,108L225,109L225,110L226,112L226,114L226,115L227,115L229,117L231,115L233,115L234,115L235,116L236,117L237,117L238,119Z " data-fips="CO27" data-hasc="CO.SU" data-name="Sucre" data-postal="SU" data-varname=""/><path d="M348,169L354,169L356,167L356,167L341,149L340,148L338,148L336,149L333,148L332,147L331,146L330,146L329,146L328,146L327,146L326,146L324,146L323,147L322,148L321,148L320,148L318,149L317,148L315,148L315,147L313,147L312,147L311,148L310,147L309,147L308,147L307,147L306,147L305,147L304,148L303,148L302,148L300,148L300,148L299,151L298,153L297,154L296,158L296,159L295,160L294,161L293,161L293,162L292,162L291,164L292,165L293,166L294,167L295,168L297,169L298,168L299,168L301,167L302,167L305,166L308,166L309,166L310,166L311,166L313,165L314,165L315,164L316,164L318,164L319,165L321,165L322,165L325,165L327,165L328,166L329,166L330,165L332,165L333,165L334,165L335,164L336,164L337,164L339,164L340,164L341,165L343,166L343,167L345,168L346,169L347,169Z " data-fips="CO03" data-hasc="CO.AR" data-name="Arauca" data-postal="AR" data-varname=""/><path d="M291,150L292,150L292,149L293,148L294,148L295,147L297,147L298,147L299,148L299,148L299,147L298,147L297,146L296,143L295,141L295,140L294,139L292,139L291,139L290,139L289,138L289,136L289,135L288,133L289,131L289,129L289,128L289,126L290,126L290,125L291,125L292,123L291,122L290,119L291,118L290,117L289,117L284,111L282,102L282,101L281,100L280,100L278,101L278,100L277,99L277,98L276,97L275,98L274,98L273,99L271,99L269,100L268,100L267,101L267,105L267,106L267,107L267,109L266,109L265,111L265,112L265,113L265,114L266,115L266,116L265,117L267,118L268,117L268,116L269,115L269,117L269,118L268,120L268,121L268,123L269,124L269,125L270,125L271,126L270,127L269,128L269,129L268,131L268,132L266,133L265,132L264,132L263,131L264,132L265,133L266,134L266,135L268,135L269,136L271,136L271,135L272,134L273,134L274,134L276,134L277,134L277,135L279,137L279,138L280,139L280,141L280,142L280,143L281,144L279,146L280,147L281,147L283,148L284,148L285,148L286,148L287,148L287,149L287,150L288,150L290,151Z " data-fips="CO21" data-hasc="CO.NS" data-name="Norte de Santander" data-postal="NS" data-varname="Santander del Norte"/><path d="M284,208L286,208L287,207L289,208L290,207L291,207L292,206L296,205L298,206L299,206L300,206L302,204L303,202L304,202L306,201L307,201L309,200L315,197L317,197L318,196L319,195L320,194L321,193L323,190L324,189L328,185L329,184L330,183L331,183L332,182L335,180L337,180L340,179L341,179L342,178L343,176L344,174L346,171L346,169L345,168L343,167L343,166L341,165L340,164L339,164L337,164L336,164L335,164L334,165L333,165L332,165L330,165L329,166L328,166L327,165L325,165L322,165L321,165L319,165L318,164L316,164L315,164L314,165L313,165L311,166L310,166L309,166L308,166L305,166L302,167L301,167L299,168L298,168L297,169L295,168L294,167L293,166L292,165L291,164L292,162L290,164L290,166L291,167L292,169L291,170L291,171L291,172L290,173L291,175L292,175L293,176L294,177L293,178L293,179L292,181L291,181L290,180L289,181L287,183L286,185L285,185L284,186L283,186L282,184L281,184L280,185L279,187L278,188L278,189L279,190L279,192L278,193L276,193L276,194L276,195L275,196L276,198L276,199L277,200L279,203L281,206L282,207L282,207L283,208Z " data-fips="CO32" data-hasc="CO.CS" data-name="Casanare" data-postal="CS" data-varname=""/><path d="M303,285L304,283L306,282L307,282L308,281L309,280L309,279L309,278L310,279L310,278L309,277L310,276L311,273L311,272L312,270L313,269L313,268L313,266L314,266L315,267L316,267L317,266L318,265L320,264L321,264L322,263L323,262L324,262L326,261L328,262L329,262L330,261L332,261L333,261L334,260L335,260L336,260L337,259L338,259L340,259L341,258L342,257L342,256L343,256L344,255L343,253L342,254L340,254L339,254L338,254L337,255L336,254L334,254L333,254L332,253L330,253L330,252L329,250L327,248L326,247L325,247L324,246L333,242L331,241L329,241L328,240L329,241L328,242L327,242L325,241L324,241L323,241L322,240L322,241L322,240L320,240L319,240L318,240L317,241L316,240L315,240L314,240L313,241L312,240L311,240L310,240L309,241L307,241L307,240L306,241L305,240L304,241L304,240L303,241L300,242L299,241L297,241L296,240L295,242L294,242L293,243L292,244L291,243L290,244L289,244L288,245L287,245L286,247L285,246L285,247L284,246L283,247L282,247L281,246L279,248L279,249L278,250L277,250L276,250L274,251L273,251L272,251L271,252L269,252L268,252L267,252L266,252L265,251L264,251L263,252L263,253L262,254L262,257L264,272L266,274L267,275L267,276L267,277L269,279L271,281L272,282L273,283L274,283L275,284L276,284L277,283L278,282L279,281L280,280L280,279L280,278L281,278L282,278L283,278L284,278L285,279L287,280L288,280L290,281L290,283L291,283L291,285L293,285L292,286L293,287L294,288L296,288L297,289L298,289L299,290Z " data-fips="CO14" data-hasc="CO.GV" data-name="Guaviare" data-postal="GV" data-varname=""/><path d="M414,277L413,275L414,274L414,273L413,272L413,271L412,270L412,268L411,267L409,261L409,260L408,259L409,258L408,256L407,256L407,254L406,253L407,252L407,250L406,250L405,249L404,249L403,248L402,247L402,246L401,246L400,245L399,244L398,243L398,242L397,241L396,241L394,241L393,241L392,242L392,240L401,231L402,231L403,229L404,227L403,227L402,226L400,222L400,221L398,221L397,220L397,219L396,218L395,216L395,216L395,214L394,214L393,216L391,216L390,216L388,216L388,215L387,215L386,215L386,216L384,216L384,215L383,216L382,214L380,214L381,215L380,217L378,217L378,218L377,218L376,219L375,220L374,220L373,220L372,221L371,221L371,222L370,221L369,222L367,222L367,223L365,223L364,223L363,222L362,222L361,222L360,221L359,221L358,222L357,222L356,221L355,222L354,222L353,222L352,224L351,225L350,225L349,225L348,225L347,225L346,225L345,225L345,226L344,225L342,226L343,227L342,228L341,229L341,230L341,231L340,232L340,233L339,233L338,234L337,236L338,236L338,237L338,239L336,240L335,241L333,242L324,246L325,247L326,247L327,248L329,250L330,252L330,253L332,253L333,254L334,254L336,254L337,255L338,254L339,254L340,254L342,254L343,253L344,255L343,256L342,256L342,257L342,258L341,259L341,263L343,265L345,265L346,265L348,266L349,266L350,265L352,265L354,265L356,265L359,266L385,266L384,265L383,264L383,263L385,259L385,260L386,261L387,263L387,264L389,265L390,265L392,265L393,264L396,260L399,258L400,257L401,257L402,256L403,257L404,258L405,260L405,261L408,264L408,266L409,268L409,270L409,276L410,278Z " data-fips="CO15" data-hasc="CO.GN" data-name="Guaina" data-postal="GN" data-varname="Guania"/><path d="M260,268L262,257L262,254L263,253L263,252L264,251L265,251L266,252L267,252L268,252L269,252L271,252L272,251L273,251L274,251L276,250L277,250L278,250L279,249L279,248L281,246L282,247L283,247L284,246L285,247L285,246L286,247L287,245L288,245L289,244L290,244L291,243L292,244L293,243L294,242L295,242L296,240L297,241L299,241L300,242L303,241L304,240L304,241L305,240L306,241L307,240L307,241L309,241L310,240L311,240L312,240L313,241L314,240L315,240L316,240L317,241L318,240L319,240L320,240L320,229L320,194L319,195L318,196L317,197L315,197L309,200L307,201L306,201L304,202L303,202L302,204L300,206L299,206L298,206L296,205L292,206L291,207L290,207L289,208L287,207L286,208L284,208L283,208L282,207L282,207L281,206L279,203L277,200L276,199L275,204L274,209L273,209L272,209L269,208L267,208L266,209L265,208L264,206L264,205L263,204L262,204L261,203L260,204L259,205L259,206L259,208L260,209L260,210L259,210L257,211L256,212L255,213L253,214L252,215L250,215L249,216L248,217L248,218L247,219L246,221L245,222L243,223L241,226L241,228L240,230L240,232L239,233L238,234L237,235L236,235L235,237L235,238L235,238L237,239L238,239L239,240L240,242L241,243L241,244L240,249L240,250L240,252L241,253L242,255L242,256L242,257L241,258L241,260L241,261L242,262L242,263L243,263L256,268L258,268Z " data-fips="CO19" data-hasc="CO.ME" data-name="Meta" data-postal="ME" data-varname=""/><path d="M357,330L357,328L356,327L355,326L355,325L354,324L354,323L353,322L353,320L353,319L353,318L353,316L352,315L349,314L349,313L348,313L347,312L346,311L345,310L344,309L343,308L342,307L344,291L345,291L346,291L348,291L350,290L351,289L352,290L353,289L354,289L355,288L357,288L359,290L360,290L361,291L362,290L363,290L363,289L362,288L363,287L362,286L363,285L362,284L362,283L361,282L360,281L358,281L357,281L356,281L354,281L353,280L350,280L349,280L347,281L348,266L346,265L345,265L343,265L341,263L341,259L342,258L342,257L341,258L340,259L338,259L337,259L336,260L335,260L334,260L333,261L332,261L330,261L329,262L328,262L326,261L324,262L323,262L322,263L321,264L320,264L318,265L317,266L316,267L315,267L314,266L313,266L313,268L313,269L312,270L311,272L311,273L310,276L309,277L310,278L310,279L309,278L309,279L309,280L308,281L307,282L306,282L304,283L303,285L299,290L299,291L301,292L301,293L301,294L302,295L303,296L304,296L305,297L306,298L306,299L309,300L310,300L311,300L312,300L314,301L315,301L315,302L316,302L317,302L318,303L320,304L321,304L322,304L323,306L323,307L324,309L324,310L325,311L326,312L327,311L328,311L329,312L330,312L331,312L333,312L334,313L334,314L335,315L336,315L337,314L338,313L339,314L338,316L337,317L339,317L339,319L339,320L338,321L338,322L339,323L339,324L338,325L338,326L340,326L340,327L341,328L342,328L342,327L341,326L342,325L343,326L344,325L345,325L346,325L346,326L345,327L346,328L347,327L349,328L350,327L351,327L352,328L352,329L352,330L354,330L355,331L356,331L357,332Z " data-fips="CO30" data-hasc="CO.VP" data-name="Vaups" data-postal="VP" data-varname=""/><path d="M329,241L328,240L329,241L331,241L333,242L335,241L336,240L338,239L338,237L338,236L337,236L338,234L339,233L340,233L340,232L341,231L341,230L341,229L342,228L343,227L342,226L344,225L345,226L345,225L346,225L347,225L348,225L349,225L350,225L351,225L352,224L353,222L354,222L355,222L356,221L357,222L358,222L359,221L360,221L361,222L362,222L363,222L364,223L365,223L367,223L367,222L369,222L370,221L371,222L371,221L372,221L373,220L374,220L375,220L376,219L377,218L378,218L378,217L380,217L381,215L380,214L382,214L383,216L384,215L384,216L386,216L386,215L387,215L388,215L388,216L390,216L391,216L393,216L394,214L395,214L395,213L394,212L393,211L393,209L393,208L393,207L393,206L393,205L392,204L391,203L392,202L392,200L392,199L392,198L392,196L392,195L392,194L393,192L393,191L392,190L392,189L392,188L392,186L392,185L392,184L394,183L395,182L396,181L397,180L396,179L396,178L396,176L397,174L399,172L400,171L401,171L401,169L400,169L399,167L400,166L400,165L399,165L398,164L394,163L392,163L391,163L390,164L389,165L388,165L384,165L381,166L378,166L377,166L375,166L373,167L372,166L370,166L368,166L367,165L366,165L364,165L363,166L362,168L360,168L359,167L358,167L356,167L354,169L348,169L347,169L346,171L344,174L343,176L342,178L341,179L340,179L337,180L335,180L332,182L331,183L330,183L329,184L328,185L324,189L323,190L321,193L320,194L320,229L322,240L322,241L322,240L323,241L324,241L325,241L327,242L328,242Z " data-fips="CO31" data-hasc="CO.VD" data-name="Vichada" data-postal="VD" data-varname=""/></g></svg>