<?xml version="1.0" ?><!DOCTYPE svg  PUBLIC '-//W3C//DTD SVG 1.1//EN'  'http://www.w3.org/Graphics/SVG/1.1/DTD/svg11.dtd'><svg enable_background="new 0 0 500 401" height="401px" style="stroke-linejoin: round; stroke:#000; fill:#f6f3f0;" version="1.1" viewBox="0 0 500 401" width="500px" xmlns="http://www.w3.org/2000/svg" xmlns:xlink="http://www.w3.org/1999/xlink"><defs><style type="text/css"><![CDATA[path { fill-rule: evenodd; }
#context path { fill: #eee; stroke: #bbb; } ]]></style></defs><metadata><views><view h="401" padding="0" w="500"><proj id="laea" lat0="-1.385" lon0="-78.497"/><bbox h="82.16" w="206.73" x="833.61" y="962.58"/><llbbox lat0="-90" lat1="90" lon0="-180" lon1="180"/></view></views></metadata><g id="admin1"><path d="M386,257L386,255L386,254L386,253L386,252L386,251L387,250L389,248L389,247L394,244L395,244L396,242L397,242L398,240L398,239L399,237L400,234L400,233L399,232L401,230L405,228L404,227L403,226L402,226L402,228L401,227L400,226L399,227L398,228L397,228L396,229L395,230L394,230L394,230L394,232L393,233L392,234L391,234L389,233L389,232L388,231L387,230L386,229L385,229L384,230L383,231L382,231L379,227L378,226L377,226L376,225L375,224L374,224L375,226L373,227L367,234L366,235L367,236L367,238L365,240L365,241L368,243L370,244L370,245L369,247L369,248L368,249L369,249L371,248L373,248L374,249L375,249L377,249L378,249L378,251L379,252L380,253L381,253L382,252L383,253L384,255L384,256L384,258Z " data-fips="EC02" data-hasc="EC.AZ" data-name="Azuay" data-postal="AZ" data-varname=""/><path d="M353,265L355,265L357,265L360,264L362,264L363,264L365,264L366,263L368,262L369,261L370,262L371,263L372,262L374,263L375,263L376,261L375,260L376,260L377,258L376,257L375,257L374,257L373,257L373,255L374,254L375,252L374,251L374,250L374,249L373,248L371,248L369,249L368,249L369,248L369,247L370,245L370,244L368,243L365,241L363,240L361,240L360,241L360,242L359,244L359,245L357,246L356,247L357,245L356,245L354,248L354,249L352,249L350,249L349,248L348,249L347,250L348,251L350,252L350,253L350,254L350,255L350,256L351,257L351,258L351,260L351,261L351,262L352,263L352,264L353,265Z " data-fips="EC08" data-hasc="EC.EO" data-name="El Oro" data-postal="EO" data-varname=""/><path d="M374,292L375,290L377,288L378,286L378,285L378,284L379,283L380,283L381,284L382,283L383,282L384,281L384,279L384,278L384,276L384,274L384,274L383,273L383,272L383,270L383,268L383,266L384,265L383,264L383,263L382,261L382,260L383,260L384,259L384,258L384,256L384,255L383,253L382,252L381,253L380,253L379,252L378,251L378,249L377,249L375,249L374,249L374,250L374,251L375,252L374,254L373,255L373,257L374,257L375,257L376,257L377,258L376,260L375,260L376,261L375,263L374,263L372,262L371,263L370,262L369,261L368,262L366,263L365,264L363,264L362,264L360,264L357,265L355,265L353,265L353,265L352,266L350,268L349,269L347,269L346,268L344,268L343,269L343,270L343,272L343,273L343,274L344,275L345,275L346,275L347,275L343,281L344,282L346,283L347,283L348,282L350,280L351,279L351,278L352,277L354,277L355,278L356,278L357,280L359,280L361,281L361,281L362,282L363,283L364,283L366,283L367,282L369,282L370,284L372,284L372,285L372,287L373,288L373,290L374,292Z " data-fips="EC12" data-hasc="EC.LJ" data-name="Loja" data-postal="LJ" data-varname=""/><path d="M386,298L387,297L388,295L389,295L390,294L390,293L390,291L390,289L392,288L393,287L396,286L397,285L397,284L398,283L398,282L397,281L397,280L397,278L398,277L398,275L400,272L400,270L400,268L401,268L402,267L403,264L404,263L405,262L405,259L405,258L405,257L405,256L406,255L406,255L402,255L400,255L397,255L397,256L396,256L395,256L394,255L392,255L392,254L391,253L391,251L392,250L389,248L387,250L386,251L386,252L386,253L386,254L386,255L386,257L384,258L384,259L383,260L382,260L382,261L383,263L383,264L384,265L383,266L383,268L383,270L383,272L383,273L384,274L384,274L384,276L384,278L384,279L384,281L383,282L382,283L381,284L380,283L379,283L378,284L378,285L378,286L377,288L375,290L374,292L374,292L374,292L375,293L376,294L376,295L377,296L378,297L379,298L381,297L382,298L384,298L385,298L386,299Z " data-fips="EC20" data-hasc="EC.ZC" data-name="Zamora Chinchipe" data-postal="ZC" data-varname=""/><path d="M71,191L70,190L69,190L68,190L67,191L70,192Z M48,190L49,189L48,188L47,187L46,186L45,187L45,188L45,190L46,190L47,190Z M29,180L30,179L31,179L32,179L33,178L34,177L34,176L35,173L36,172L35,171L34,170L33,169L33,168L31,168L31,167L31,166L31,164L31,162L30,161L26,159L26,158L24,156L24,153L24,152L24,150L22,150L22,149L21,148L21,147L20,145L19,146L18,146L17,147L15,147L14,149L12,151L13,151L14,152L15,151L16,150L17,151L18,152L18,153L18,154L18,155L18,156L18,157L19,159L20,159L22,161L23,161L23,163L23,164L24,165L24,166L26,166L27,167L27,168L26,169L26,170L25,171L24,170L23,170L22,170L21,171L17,173L16,174L15,176L15,177L16,178L17,179L17,180L18,181L22,181L24,181L25,181Z M75,178L76,178L77,177L78,176L78,175L80,174L80,174L81,173L82,171L81,170L80,170L80,170L78,171L77,172L76,173L75,174L73,174L73,176L71,177L71,178L72,178L74,178Z M50,173L50,172L52,172L53,172L53,171L54,169L54,168L54,167L54,166L53,165L52,165L51,165L48,165L47,165L46,165L45,166L44,167L44,169L44,170L44,171L46,171L47,173L48,173L49,173Z M42,160L43,159L43,158L42,158L41,156L39,156L37,154L36,154L35,155L35,156L34,158L35,159L35,160L37,160L38,161L40,161L42,161Z M16,165L18,164L18,161L18,160L17,159L16,158L15,158L14,158L13,159L10,159L10,160L11,162L11,163L12,164L13,164L15,165Z M47,141L47,140L46,139L45,139L44,140L44,141L45,142L46,142Z M38,132L37,131L36,131L36,133L37,133Z " data-fips="EC01" data-hasc="EC.GA" data-name="Galpagos" data-postal="GA" data-varname=""/><path d="M386,213L387,212L387,210L387,206L387,205L387,202L388,202L390,202L391,201L391,200L392,198L392,196L392,195L391,194L391,193L390,192L390,191L390,189L391,187L391,186L390,185L389,185L388,185L386,185L385,184L384,184L383,184L380,185L379,185L377,187L376,188L376,189L377,188L378,189L379,189L378,190L378,193L379,194L380,195L380,196L379,197L377,198L379,199L379,200L380,201L380,203L381,204L380,205L380,207L379,208L380,209L381,211L381,212L381,213L380,214L383,214L384,214L385,214Z " data-fips="EC03" data-hasc="EC.BO" data-name="Bolivar" data-postal="BO" data-varname=""/><path d="M392,234L393,233L394,232L394,230L394,230L395,230L396,229L397,228L398,228L399,227L400,226L402,225L403,224L403,223L403,221L402,220L399,218L396,218L394,219L393,220L392,221L390,221L389,221L387,220L387,219L386,218L385,217L384,216L383,216L382,217L380,217L376,218L375,219L375,220L375,222L374,222L373,224L374,224L375,224L376,225L377,226L378,226L379,227L382,231L383,231L384,230L385,229L386,229L387,230L388,231L389,232L389,233L391,234Z " data-fips="EC04" data-hasc="EC.CN" data-name="Caar" data-postal="CN" data-varname=""/><path d="M389,185L390,185L392,184L394,183L395,183L397,183L398,183L399,182L400,182L400,181L402,181L403,182L404,181L404,180L405,179L406,178L405,178L404,177L405,176L405,175L406,174L406,173L406,172L405,171L403,168L402,167L401,167L399,167L398,168L397,168L396,169L396,168L395,166L392,164L392,163L391,162L390,161L389,160L389,160L388,161L387,162L387,164L387,164L387,165L387,166L386,167L385,167L382,172L382,173L381,174L380,176L379,177L378,178L378,179L378,182L378,183L379,185L380,185L383,184L384,184L385,184L386,185L388,185Z " data-fips="EC07" data-hasc="EC.CT" data-name="Cotopaxi" data-postal="CT" data-varname="Len"/><path d="M353,239L354,239L355,238L354,237L354,235L353,235L354,234L355,234L356,234L358,233L358,233L358,232L360,232L361,230L359,230L357,229L355,229L354,230L351,231L351,232L350,234L349,239L350,240L352,240Z M365,240L367,238L367,236L366,235L367,234L373,227L375,226L374,224L373,224L374,222L375,222L375,220L375,219L376,218L380,217L382,217L383,216L384,214L383,214L380,214L379,212L376,208L375,207L374,207L372,206L371,206L370,206L368,206L368,205L367,204L366,203L366,202L365,201L364,200L362,197L362,196L361,195L362,192L363,190L363,189L365,186L365,185L366,184L367,183L368,182L368,182L369,181L370,180L370,179L371,178L371,177L372,175L371,174L370,174L369,175L367,175L366,176L365,178L364,178L364,180L363,181L362,182L360,183L359,183L358,183L357,184L357,186L356,188L355,189L354,190L354,191L353,191L352,192L352,193L352,194L352,195L351,196L349,197L350,197L351,198L351,200L349,200L348,200L347,201L346,201L345,202L345,203L345,204L343,204L342,204L341,203L341,202L341,201L341,200L340,199L339,199L337,199L335,199L333,199L333,200L334,201L334,202L335,203L336,206L336,207L335,208L335,210L335,211L334,212L331,215L330,215L329,214L328,215L329,216L330,217L331,219L332,219L334,220L335,220L337,221L338,221L341,224L344,227L345,228L346,229L347,229L348,230L350,231L350,229L349,228L350,227L351,228L351,227L352,227L353,226L355,223L357,219L358,219L359,218L359,219L357,220L357,221L357,222L357,223L358,223L360,223L359,224L358,223L357,224L357,225L356,225L356,227L357,227L358,227L360,226L361,225L361,224L362,217L361,215L361,214L361,212L361,212L362,211L363,210L364,210L363,211L363,212L362,212L362,213L362,214L362,216L362,217L362,218L362,220L363,221L364,223L365,224L366,225L366,226L366,227L364,229L364,230L363,232L363,233L362,237L361,238L361,239L361,240L363,240L365,241Z " data-fips="EC10" data-hasc="EC.GU" data-name="Guayas" data-postal="GU" data-varname=""/><path d="M381,213L381,212L381,211L380,209L379,208L380,207L380,205L381,204L380,203L380,201L379,200L379,199L377,198L379,197L380,196L380,195L379,194L378,193L378,190L379,189L378,189L377,188L376,189L376,188L377,187L379,185L378,183L378,182L378,179L378,178L379,177L380,176L381,174L382,173L382,172L385,167L384,166L381,168L380,169L379,169L378,170L377,170L377,169L377,168L377,167L376,166L375,166L373,166L372,168L372,169L371,170L370,171L370,171L370,173L369,175L370,174L371,174L372,175L371,177L371,178L370,179L370,180L369,181L368,182L368,182L367,183L366,184L365,185L365,186L363,189L363,190L362,192L361,195L362,196L362,197L364,200L365,201L366,202L366,203L367,204L368,205L368,206L370,206L371,206L372,206L374,207L375,207L376,208L379,212L380,214Z " data-fips="EC13" data-hasc="EC.LR" data-name="Los Rios" data-postal="LR" data-varname=""/><path d="M345,204L345,203L345,202L346,201L347,201L348,200L349,200L351,200L351,198L350,197L349,197L351,196L352,195L352,194L352,193L352,192L353,191L354,191L354,190L355,189L356,188L357,186L357,184L358,183L359,183L360,183L362,182L363,181L364,180L364,178L365,178L366,176L367,175L369,175L370,173L370,171L370,171L371,170L372,169L372,168L373,166L374,165L374,163L375,161L375,155L374,155L373,154L372,153L371,152L370,152L369,151L369,149L369,148L370,147L370,146L369,145L368,145L367,144L366,144L367,142L368,141L366,140L367,139L366,138L365,138L364,139L363,140L362,140L361,140L360,141L359,142L358,141L358,139L357,140L356,139L356,140L356,142L356,144L356,146L355,147L355,149L354,150L352,151L350,153L349,154L348,154L347,155L346,156L346,158L345,158L344,160L343,161L344,162L344,164L345,165L346,166L346,167L347,168L350,168L346,168L346,168L344,167L344,168L343,169L342,171L342,174L340,176L339,177L338,176L337,177L334,177L333,177L332,177L332,178L331,179L330,180L330,181L331,182L331,184L335,188L335,190L334,191L334,192L334,193L333,194L333,195L332,197L333,198L333,199L335,199L337,199L339,199L340,199L341,200L341,201L341,202L341,203L342,204L343,204Z " data-fips="EC14" data-hasc="EC.MN" data-name="Manabi" data-postal="MN" data-varname=""/><path d="M392,221L393,220L394,219L396,218L399,218L401,217L402,216L402,215L402,213L403,212L404,211L404,210L403,209L403,208L404,206L405,205L405,204L404,203L404,202L404,201L404,200L405,199L406,198L407,197L406,196L406,194L405,193L404,193L403,192L402,193L401,193L400,194L398,194L396,193L395,193L394,192L393,192L391,193L391,194L392,195L392,196L392,198L391,200L391,201L390,202L388,202L387,202L387,205L387,206L387,210L387,212L386,213L385,214L384,216L385,217L386,218L387,219L387,220L389,221L390,221Z " data-fips="EC06" data-hasc="EC.CB" data-name="Chimborazo" data-postal="CB" data-varname=""/><path d="M397,255L400,255L402,255L406,255L406,255L406,253L407,252L407,250L408,250L410,252L411,254L412,253L413,252L412,251L411,250L412,249L413,248L415,246L416,245L419,240L422,238L423,238L457,226L456,226L455,226L454,226L453,225L452,225L451,225L450,225L448,225L447,224L447,223L446,222L445,221L444,220L444,219L442,218L436,214L427,210L426,210L426,209L425,208L424,207L423,207L422,206L422,205L421,204L421,203L421,202L420,199L419,199L417,199L416,198L416,197L415,194L414,193L413,193L412,192L411,194L410,194L409,194L408,194L406,196L407,197L406,198L405,199L404,200L404,201L404,202L404,203L405,204L405,205L404,206L403,208L403,209L404,210L404,211L403,212L402,213L402,215L402,216L401,217L402,220L403,221L403,223L403,224L402,225L401,227L402,228L402,226L403,226L404,227L405,228L401,230L399,232L400,233L400,234L399,237L398,239L398,240L397,242L396,242L395,244L394,244L389,247L389,248L392,250L391,251L391,253L392,254L392,255L394,255L395,256L396,256L397,256Z " data-fips="EC15" data-hasc="EC.MS" data-name="Morona Santiago" data-postal="MS" data-varname=""/><path d="M490,195L490,194L495,177L496,178L497,178L498,178L500,178L499,177L499,176L498,172L498,170L498,169L499,169L498,168L497,168L496,168L495,167L495,166L493,166L492,166L491,166L490,164L489,164L488,163L487,163L486,163L485,162L484,162L483,162L481,162L480,162L479,162L478,163L479,166L478,166L476,165L474,164L474,163L471,162L468,163L467,163L465,165L464,164L462,163L460,162L460,161L458,162L458,161L456,159L455,158L454,157L453,156L450,152L449,151L448,152L446,152L445,152L443,152L442,152L441,152L440,151L438,153L438,155L439,156L439,157L440,158L439,159L438,160L437,161L436,162L436,163L435,164L434,164L432,164L430,163L430,164L429,165L429,166L430,167L431,168L432,169L432,171L431,172L431,173L431,174L430,177L430,178L432,178L433,177L434,177L438,175L440,174L441,172L442,171L443,170L443,171L442,173L441,175L442,175L444,176L446,177L445,178L446,179L445,181L446,182L448,183L452,184L452,182L454,182L455,182L456,182L458,181L458,181L460,180L461,181L461,181L461,183L462,184L462,185L463,187L464,187L465,187L466,187L467,188L468,188L469,188L470,188L471,188L472,188L473,187L474,188L475,188L476,188L477,189L478,189L479,190L481,189L482,190L482,191L484,191L485,192L485,193L486,193L488,194L489,194L489,195Z " data-fips="EC24" data-hasc="EC.NA" data-name="Orellana" data-postal="NA" data-varname=""/><path d="M379,169L380,169L381,168L384,166L386,167L387,166L387,165L387,164L387,164L387,162L388,161L389,160L389,160L390,161L391,162L392,163L392,164L395,166L396,168L396,169L397,168L398,168L399,167L401,167L402,167L403,168L406,169L408,168L408,167L409,166L409,165L410,164L410,163L410,162L410,161L411,160L412,158L412,155L413,155L414,155L415,154L416,153L417,153L418,152L418,151L419,150L422,149L422,148L422,148L421,147L420,147L419,146L418,146L419,144L415,144L413,144L411,145L410,145L409,144L408,144L407,143L406,142L405,142L403,142L402,142L401,143L399,143L398,143L394,142L391,142L390,143L389,143L388,142L386,140L382,140L381,140L380,140L379,141L378,142L377,143L378,144L378,145L377,146L377,148L376,149L374,149L374,150L373,150L371,150L369,151L370,152L371,152L372,153L373,154L374,155L375,155L375,161L374,163L374,165L373,166L375,166L376,166L377,167L377,168L377,169L377,170L378,170Z " data-fips="EC19" data-hasc="EC.PI" data-name="Pichincha" data-postal="PI" data-varname=""/><path d="M456,226L457,226L458,225L474,213L487,198L489,195L489,194L488,194L486,193L485,193L485,192L484,191L482,191L482,190L481,189L479,190L478,189L477,189L476,188L475,188L474,188L473,187L472,188L471,188L470,188L469,188L468,188L467,188L466,187L465,187L464,187L463,187L462,185L462,184L461,183L461,181L461,181L460,180L458,181L458,181L456,182L455,182L454,182L452,182L452,184L448,183L446,182L445,181L446,179L440,180L439,181L435,182L433,182L431,183L429,183L428,184L427,184L425,184L424,185L423,185L422,186L421,186L419,186L418,186L415,186L414,190L412,192L413,193L414,193L415,194L416,197L416,198L417,199L419,199L420,199L421,202L421,203L421,204L422,205L422,206L423,207L424,207L425,208L426,209L426,210L427,210L436,214L442,218L444,219L444,220L445,221L446,222L447,223L447,224L448,225L450,225L451,225L452,225L453,225L454,226L455,226Z " data-fips="EC17" data-hasc="EC.PA" data-name="Pastaza" data-postal="PA" data-varname=""/><path d="M409,194L410,194L411,194L412,192L414,190L413,185L412,185L412,184L411,183L410,183L408,183L407,184L407,182L407,181L407,180L406,179L406,178L405,179L404,180L404,181L403,182L402,181L400,181L400,182L399,182L398,183L397,183L395,183L394,183L392,184L391,186L391,187L390,189L390,191L390,192L391,193L393,192L394,192L395,193L396,193L398,194L400,194L401,193L402,193L403,192L404,193L405,193L406,194L408,194Z " data-fips="" data-hasc="" data-name="Napo" data-postal="" data-varname=""/><path d="M418,186L419,186L421,186L422,186L423,185L424,185L425,184L427,184L428,184L429,183L431,183L433,182L435,182L439,181L440,180L446,179L445,178L446,177L444,176L442,175L441,175L442,173L443,171L443,170L442,171L441,172L440,174L438,175L434,177L433,177L432,178L430,178L430,177L431,174L431,173L431,172L432,171L432,169L431,168L430,167L429,166L429,165L430,164L430,163L432,164L434,164L435,164L436,163L436,162L437,161L438,160L439,159L440,158L439,157L439,156L438,155L438,153L437,152L436,153L435,153L434,153L434,152L434,151L433,150L432,151L431,151L429,152L428,152L424,152L424,151L424,150L424,149L422,148L422,149L419,150L418,151L418,152L417,153L416,153L415,154L414,155L413,155L412,155L412,158L411,160L410,161L410,162L410,163L410,164L409,165L409,166L408,167L408,168L406,169L405,171L406,172L406,173L406,174L405,175L405,176L404,177L405,178L406,178L406,179L407,180L407,181L407,182L407,184L408,183L410,183L411,183L412,184L412,185L413,185L415,186Z " data-fips="EC23" data-hasc="EC.TU" data-name="Tungurahua" data-postal="TU" data-varname=""/><path d="M374,149L376,149L377,148L377,146L378,145L378,144L377,143L378,142L379,141L380,140L381,140L382,140L386,140L388,141L390,139L390,138L391,137L392,137L393,137L395,137L396,138L398,138L399,137L400,136L401,135L401,134L402,133L403,133L405,133L404,131L403,130L403,129L403,126L404,126L404,124L404,123L404,123L403,122L402,122L401,121L402,118L403,116L402,115L403,114L403,114L400,114L399,112L399,111L398,112L397,111L396,110L396,109L395,109L394,108L392,107L392,108L391,110L392,111L393,111L391,111L391,112L390,112L389,113L389,115L388,116L387,114L386,113L385,113L383,116L382,117L380,117L379,117L378,117L377,117L374,117L372,119L370,120L369,120L368,120L368,122L369,123L369,124L368,123L367,122L367,120L365,121L364,122L362,123L361,123L359,124L358,124L356,124L355,125L355,126L354,127L354,129L355,130L356,130L357,131L357,133L356,134L356,135L356,136L358,138L358,139L358,141L359,142L360,141L361,140L362,140L363,140L364,139L365,138L366,138L367,139L366,140L368,141L367,142L366,144L367,144L368,145L369,145L370,146L370,147L369,148L369,149L371,150L373,150L374,150Z M389,112L390,111L391,110L390,108L388,111L388,112Z " data-fips="EC09" data-hasc="EC.ES" data-name="Esmeraldas" data-postal="ES" data-varname=""/><path d="M424,137L424,136L426,133L427,131L427,130L428,130L430,130L431,131L432,130L431,130L430,129L428,128L427,127L427,124L425,124L423,125L422,125L421,125L420,124L419,123L417,122L415,122L414,122L409,119L408,118L407,118L406,117L403,114L402,115L403,116L402,118L401,121L402,122L403,122L404,123L404,123L405,124L407,124L407,124L409,125L410,126L410,127L411,128L412,130L413,132L413,133L413,134L415,135L416,135L417,135L419,136L420,137L422,138L423,138Z " data-fips="EC05" data-hasc="EC.CR" data-name="Carchi" data-postal="CR" data-varname=""/><path d="M413,144L415,144L419,144L420,143L421,143L422,141L422,140L422,138L420,137L419,136L417,135L416,135L415,135L413,134L413,133L413,132L412,130L411,128L410,127L410,126L409,125L407,124L407,124L405,124L404,123L404,124L404,126L403,126L403,129L403,130L404,131L405,133L403,133L402,133L401,134L401,135L400,136L399,137L398,138L396,138L395,137L393,137L392,137L391,137L390,138L390,139L388,141L388,142L389,143L390,143L391,142L394,142L398,143L399,143L401,143L402,142L403,142L405,142L406,142L407,143L408,144L409,144L410,145L411,145Z " data-fips="EC11" data-hasc="EC.IM" data-name="Imbabura" data-postal="IM" data-varname=""/><path d="M499,169L499,167L499,166L499,165L498,164L497,164L496,163L495,163L494,161L493,160L492,157L492,156L491,156L489,155L488,154L488,153L489,153L490,153L491,153L494,154L495,154L496,154L497,153L498,152L496,152L494,151L493,151L491,149L489,148L488,147L487,147L485,147L484,147L482,146L481,145L479,144L478,143L478,142L475,138L474,139L473,139L473,137L472,137L470,137L469,137L468,136L467,136L466,137L465,138L464,140L464,142L463,142L461,143L460,143L459,142L458,141L456,141L455,141L455,142L453,142L452,142L450,142L449,141L448,140L446,140L445,139L443,139L442,139L440,139L439,139L436,138L435,138L434,137L434,135L434,134L434,131L433,130L432,130L431,131L430,130L428,130L427,130L427,131L426,133L424,136L424,137L423,138L422,140L422,141L421,143L420,143L419,144L418,146L419,146L420,147L421,147L422,148L422,148L424,149L424,150L424,151L424,152L428,152L429,152L431,151L432,151L433,150L434,151L434,152L434,153L435,153L436,153L437,152L440,151L441,152L442,152L443,152L445,152L446,152L448,152L449,151L450,152L453,156L454,157L455,158L456,159L458,161L458,162L460,161L460,162L462,163L464,164L465,165L467,163L468,163L471,162L474,163L474,164L476,165L478,166L479,166L478,163L479,162L480,162L481,162L483,162L484,162L485,162L486,163L487,163L488,163L489,164L490,164L491,166L492,166L493,166L495,166L495,167L496,168L497,168L498,168L499,169Z " data-fips="EC22" data-hasc="EC.SU" data-name="Sucumbios" data-postal="SU" data-varname=""/></g></svg>