<?xml version="1.0" ?><!DOCTYPE svg  PUBLIC '-//W3C//DTD SVG 1.1//EN'  'http://www.w3.org/Graphics/SVG/1.1/DTD/svg11.dtd'><svg enable_background="new 0 0 500 401" height="401px" style="stroke-linejoin: round; stroke:#000; fill:#f6f3f0;" version="1.1" viewBox="0 0 500 401" width="500px" xmlns="http://www.w3.org/2000/svg" xmlns:xlink="http://www.w3.org/1999/xlink"><defs><style type="text/css"><![CDATA[path { fill-rule: evenodd; }
#context path { fill: #eee; stroke: #bbb; } ]]></style></defs><metadata><views><view h="401" padding="0" w="500"><proj id="laea" lat0="4.792" lon0="-58.974"/><bbox h="90.98" w="60.48" x="970.25" y="953.52"/><llbbox lat0="-90" lat1="90" lon0="-180" lon1="180"/></view></views></metadata><g id="admin1"><path d="M274,384L278,384L280,382L280,380L281,379L282,378L283,377L284,378L285,378L286,379L288,379L289,379L290,378L292,379L292,381L294,381L297,381L299,381L300,380L301,378L301,376L301,375L301,374L302,374L304,374L306,374L307,373L312,371L314,370L315,371L320,371L322,371L324,371L326,369L329,365L330,364L331,360L333,360L334,359L335,358L335,357L336,357L337,356L339,356L341,357L342,358L346,355L349,354L351,355L351,357L352,358L353,358L354,359L356,359L358,359L359,359L360,360L361,361L365,362L366,361L370,359L371,359L372,359L374,358L375,358L377,359L378,360L380,359L382,357L382,356L380,356L379,355L377,354L372,354L371,353L365,346L365,344L365,343L364,341L363,339L362,339L361,338L361,336L360,335L358,334L358,332L358,331L357,330L357,329L357,328L357,326L356,327L355,327L355,325L353,323L353,321L353,320L352,320L351,318L351,317L349,315L349,314L349,313L347,313L347,312L348,310L347,310L346,310L344,310L344,309L343,308L343,305L344,304L344,303L342,302L343,301L342,299L343,299L343,298L342,296L342,296L341,295L341,293L340,294L339,293L340,292L339,290L339,289L339,288L339,287L339,286L339,285L339,282L338,279L336,281L335,281L333,281L331,280L331,281L329,282L328,282L327,281L326,281L325,282L324,282L321,280L319,280L319,279L319,278L319,276L319,275L320,273L319,272L317,271L316,270L316,269L315,268L313,267L310,266L310,265L309,264L309,263L309,260L308,259L307,257L304,253L304,252L300,249L299,247L298,245L297,241L297,238L297,237L298,236L302,231L303,230L303,229L303,227L303,225L303,224L305,222L305,220L306,218L307,217L308,214L309,212L309,211L309,210L309,209L307,208L307,205L306,205L304,204L305,202L306,201L307,199L307,199L309,196L310,196L311,197L313,196L314,194L315,193L317,192L319,192L321,193L324,192L325,192L327,192L328,193L329,193L334,192L335,192L336,191L338,191L339,191L337,189L337,187L338,186L339,183L340,183L341,184L342,185L343,184L344,183L344,181L342,179L341,178L340,179L341,180L340,180L339,180L339,176L338,176L336,175L337,174L339,171L340,171L340,169L340,167L341,166L344,162L344,161L345,159L345,153L344,150L345,149L346,148L346,147L346,145L347,142L346,140L345,138L346,136L345,134L344,132L343,130L337,124L336,124L335,123L334,122L331,121L330,121L328,120L327,120L327,121L327,123L326,124L326,124L326,125L326,126L326,127L324,128L322,128L321,129L320,129L320,131L321,133L322,134L322,135L321,137L319,138L318,137L317,137L316,138L317,139L317,141L318,143L317,145L319,149L321,150L321,151L321,152L320,154L318,167L317,172L317,174L315,176L314,177L313,180L311,183L310,185L307,192L302,198L301,200L300,202L299,205L297,211L296,212L294,212L285,212L285,214L280,222L279,226L277,232L277,233L277,235L281,239L283,247L283,248L283,249L283,251L284,258L285,260L290,268L292,272L292,273L292,274L294,282L294,283L294,285L294,287L294,288L295,290L301,298L304,306L304,307L300,313L299,315L299,317L299,324L299,325L299,326L299,327L298,329L295,336L286,361L284,364L282,368L279,374L279,375L276,377L274,380L274,381L273,384Z " data-fips="GY13" data-hasc="GY.MA" data-name="Mahaica-Berbice" data-postal="MA" data-varname=""/><path d="M253,246L254,246L256,244L257,243L264,236L265,234L266,233L267,233L268,232L270,231L271,231L273,231L277,233L277,232L279,226L280,222L285,214L285,212L284,212L280,213L272,213L270,213L268,212L267,212L265,211L264,210L262,209L261,206L261,205L258,206L258,205L256,198L255,194L255,192L256,184L256,180L255,179L253,175L253,174L253,172L254,172L255,170L253,168L252,167L251,167L249,167L248,166L246,164L245,164L243,165L242,165L241,164L241,161L240,160L239,160L238,158L237,157L236,155L235,154L234,154L232,156L230,157L229,158L229,159L228,160L227,161L226,161L224,161L219,160L217,161L215,163L215,164L215,166L216,171L215,172L211,172L205,171L204,171L200,171L196,173L195,174L195,175L194,177L193,179L193,180L192,181L189,183L188,184L188,185L190,186L192,187L193,188L193,189L193,193L192,195L192,196L192,197L191,198L191,202L191,203L191,204L191,206L191,207L190,209L188,212L188,213L187,214L186,214L185,215L184,216L184,217L184,218L185,219L187,219L188,218L189,219L189,220L190,220L191,220L193,220L194,219L195,219L196,220L198,221L200,221L200,222L201,222L202,222L203,221L203,222L207,224L207,225L209,226L209,227L210,226L212,227L214,226L215,225L217,221L218,220L219,219L220,219L221,220L222,221L223,224L223,225L222,226L222,227L222,230L222,233L221,234L221,235L221,236L222,237L224,238L226,238L233,239L237,238L238,238L239,238L242,237L243,237L244,237L244,239L245,240L245,241L249,246L250,247L252,247Z " data-fips="GY17" data-hasc="GY.PT" data-name="Potaro-Siparuni" data-postal="PT" data-varname=""/><path d="M280,213L284,212L285,212L294,212L296,212L297,211L299,205L300,202L301,200L302,198L307,192L310,185L311,183L313,180L314,177L315,176L317,174L317,172L318,167L320,154L321,152L321,151L321,150L319,149L317,145L317,145L315,145L314,146L311,146L310,147L309,147L308,146L306,146L305,145L304,144L303,142L300,142L298,142L294,140L293,139L294,136L294,134L292,134L291,132L289,133L287,133L285,132L284,132L281,132L281,131L280,128L280,126L279,125L279,124L277,121L274,120L273,119L270,114L269,113L269,113L268,116L268,117L268,119L268,120L270,124L269,125L269,126L270,127L269,134L269,136L270,137L270,142L269,143L269,144L267,147L267,148L267,152L267,155L267,159L267,161L266,163L265,166L264,168L263,169L262,169L257,170L255,170L254,172L253,172L253,174L253,175L255,179L256,180L256,184L255,192L255,194L256,198L258,205L258,206L261,205L261,206L262,209L264,210L265,211L267,212L268,212L270,213L272,213Z " data-fips="GY18" data-hasc="GY.UT" data-name="Upper Takutu-Upper Essequibo" data-postal="UT" data-varname="Upper Takutu-Upper Essequibo"/><path d="M257,399L259,398L260,397L261,396L262,394L264,394L269,394L270,394L271,394L272,395L274,392L274,391L274,390L274,389L273,386L273,385L273,384L274,381L274,380L276,377L279,375L279,374L282,368L284,364L286,361L295,336L298,329L299,327L299,326L299,325L299,324L299,317L299,315L300,313L304,307L304,306L301,298L295,290L294,288L294,287L294,285L294,283L294,282L292,274L292,273L292,272L290,268L285,260L284,258L283,251L283,249L283,248L283,247L281,239L277,235L277,233L273,231L271,231L270,231L268,232L267,233L266,233L265,234L264,236L257,243L256,244L254,246L253,246L252,247L250,247L249,246L245,241L245,240L244,239L244,237L243,237L242,237L239,238L238,238L237,238L233,239L226,238L224,238L222,237L221,236L221,235L221,234L222,233L222,230L222,227L222,226L223,225L223,224L222,221L221,220L220,219L219,219L218,220L217,221L215,225L214,226L212,227L210,226L209,227L209,227L209,228L207,230L207,231L207,232L207,233L206,235L207,236L207,237L208,238L210,239L211,240L211,241L211,243L213,245L214,247L215,248L217,249L218,250L217,251L216,251L215,252L214,253L214,255L214,256L214,257L213,258L210,260L210,262L210,263L209,264L208,264L206,266L201,268L200,269L200,271L201,272L202,273L202,275L202,277L202,280L202,282L201,282L200,284L199,287L198,290L197,290L197,291L198,292L197,293L197,294L196,295L195,297L194,298L194,300L194,301L194,303L194,304L193,309L192,317L192,318L194,322L194,323L195,324L196,324L196,326L196,327L197,331L197,332L198,333L197,334L198,335L199,336L201,337L202,339L204,339L205,339L206,341L206,343L206,345L206,347L207,348L206,349L206,350L206,352L206,353L206,354L206,355L206,357L206,358L205,359L205,360L205,361L205,362L206,363L208,363L210,363L211,364L210,366L210,368L211,370L212,370L213,370L215,370L217,370L218,371L219,373L220,375L222,377L223,378L224,379L225,380L226,381L228,381L229,381L229,383L230,385L232,387L232,388L233,389L237,390L246,391L248,392L249,393L250,394L251,395L251,396L252,397L253,398L255,399L256,399Z " data-fips="GY19" data-hasc="GY.UD" data-name="Upper Demerara-Berbice" data-postal="UD" data-varname="Upper Demerara-Berbice"/><path d="M230,86L231,85L231,84L233,83L235,84L238,85L238,85L237,80L237,78L240,69L241,68L242,67L243,66L242,65L241,63L241,62L242,61L246,57L252,54L254,54L256,52L259,48L258,46L253,41L247,36L241,31L241,29L239,28L238,27L228,21L222,17L217,15L214,13L212,11L211,11L209,10L206,8L205,9L206,11L209,13L214,16L218,18L220,19L222,21L223,23L218,19L217,18L214,17L214,17L213,16L212,15L210,15L207,12L206,12L203,11L202,10L200,8L196,4L195,2L193,0L192,0L195,5L201,11L203,15L203,16L202,17L201,18L200,18L199,18L196,19L195,20L193,21L193,23L193,24L192,25L192,27L191,28L190,28L189,28L187,28L186,29L185,29L184,30L183,31L180,33L179,34L178,35L176,36L174,37L174,39L173,40L170,40L166,40L165,40L164,41L163,43L162,44L161,45L161,47L161,48L160,50L159,50L158,51L158,53L157,54L154,54L154,56L154,57L155,60L157,60L157,61L158,63L159,63L159,64L160,66L160,67L160,68L159,69L158,71L158,72L160,74L164,77L165,75L166,74L167,74L169,74L170,75L171,75L173,75L174,76L175,76L176,76L178,77L180,78L182,79L183,79L184,79L186,80L188,81L189,80L190,79L191,78L192,78L195,79L196,78L197,77L198,76L198,75L199,74L200,74L202,74L210,78L216,80L221,85L223,85L224,86L227,87L229,87Z " data-fips="GY10" data-hasc="GY.BA" data-name="Barima-Waini" data-postal="BA" data-varname=""/><path d="M189,183L192,181L193,180L193,179L194,177L195,175L195,174L196,173L200,171L204,171L205,171L211,172L215,172L216,171L215,166L215,164L215,163L217,161L219,160L224,161L226,161L227,161L228,160L229,159L229,158L230,157L232,156L234,154L235,154L236,155L237,157L238,158L239,160L240,160L241,161L241,164L242,165L243,165L245,164L246,164L248,166L249,167L251,167L252,167L253,168L255,170L257,170L262,169L263,169L264,168L265,166L266,163L267,161L267,159L267,155L267,152L267,148L267,147L269,144L269,143L270,142L270,137L269,136L269,134L270,127L269,126L269,125L270,124L268,120L268,119L268,117L268,116L268,116L266,116L265,117L263,118L267,112L267,112L265,112L264,112L261,110L260,110L256,109L256,108L256,106L256,105L256,101L255,100L255,98L254,97L252,97L251,97L250,97L249,96L249,93L248,92L246,92L245,93L244,93L242,93L240,92L239,92L237,91L237,90L238,86L238,85L235,84L233,83L231,84L231,85L230,86L229,87L227,87L224,86L223,85L221,85L216,80L210,78L202,74L200,74L199,74L198,75L198,76L197,77L196,78L195,79L192,78L191,78L190,79L189,80L188,81L186,80L184,79L183,79L182,79L180,78L178,77L176,76L175,76L174,76L174,76L177,78L177,79L176,81L175,83L174,83L173,84L173,85L172,88L171,87L170,87L163,92L159,93L158,93L157,94L156,96L155,97L153,97L151,96L149,95L148,96L147,96L146,95L145,94L144,94L144,96L144,97L142,99L141,99L139,99L138,99L137,99L136,99L135,100L134,99L133,99L131,100L130,102L129,104L128,106L127,108L128,109L129,110L130,112L131,113L131,114L131,116L130,117L130,120L131,122L132,123L133,125L132,127L132,128L131,128L129,129L128,131L127,132L125,132L124,133L123,135L121,139L120,140L117,141L118,143L153,182L155,181L156,181L160,181L162,182L163,182L166,182L167,182L168,183L169,183L170,181L171,181L173,182L175,182L176,181L178,179L179,179L182,178L182,180L183,180L186,180L188,184Z " data-fips="GY11" data-hasc="GY.PM" data-name="Pomeroon-Supenaam" data-postal="PM" data-varname=""/><path d="M293,132L293,129L293,127L296,119L298,118L299,117L300,115L301,115L303,114L304,113L304,112L304,110L304,109L306,110L307,109L306,108L306,106L305,104L305,103L305,100L303,97L302,96L300,95L298,94L292,93L291,94L291,94L290,97L290,98L290,100L291,102L290,104L287,110L285,112L284,113L285,115L284,117L284,118L284,119L285,121L286,122L286,123L285,125L285,126L285,127L286,129L286,130L286,131L287,133L289,133L291,132L292,134L294,134Z " data-fips="GY12" data-hasc="GY.EB" data-name="East Berbice-Corentyne" data-postal="EB" data-varname=""/><path d="M286,131L286,130L286,129L285,127L285,126L285,125L286,123L286,122L285,121L284,119L284,118L284,117L285,115L284,113L285,112L287,110L290,104L291,102L290,100L290,98L290,97L291,94L291,94L291,94L290,93L289,92L285,91L283,90L281,90L279,91L277,92L275,94L270,104L269,106L269,113L270,114L273,119L274,120L277,121L279,124L279,125L280,126L280,128L281,131L281,132L284,132L285,132Z M276,89L279,89L282,86L280,86L278,86L277,87L276,87L276,89L275,91Z M267,111L267,101L268,99L268,96L268,95L269,91L270,89L270,88L271,87L271,86L272,86L271,86L268,88L266,89L266,92L265,93L264,93L263,94L262,94L260,97L259,98L258,98L255,100L256,101L256,105L256,106L256,108L256,109L260,110L261,110L264,112L265,112L267,112L267,112Z " data-fips="GY14" data-hasc="GY.DE" data-name="Demerara-Mahaica" data-postal="DE" data-varname="Essequibo Islands-West Demerara"/><path d="M310,147L311,146L314,146L315,145L317,145L317,145L318,143L317,141L317,139L316,138L317,137L318,137L319,138L321,137L322,135L322,134L321,133L320,131L320,129L321,129L322,128L324,128L326,127L326,126L326,125L326,124L326,124L326,124L326,121L323,118L322,115L321,113L320,112L318,112L316,110L313,108L305,100L305,103L305,104L306,106L306,108L307,109L306,110L304,109L304,110L304,112L304,113L303,114L301,115L300,115L299,117L298,118L296,119L293,127L293,129L293,132L294,134L294,136L293,139L294,140L298,142L300,142L303,142L304,144L305,145L306,146L308,146L309,147Z " data-fips="GY15" data-hasc="GY.ES" data-name="Essequibo Islands-West Demerara" data-postal="ES" data-varname="Mahaica-Berbice"/><path d="M258,98L259,98L260,97L262,94L263,94L264,93L265,93L266,92L266,89L268,88L271,86L272,86L273,85L274,84L275,78L275,71L275,69L275,67L275,66L274,64L269,59L268,57L266,54L265,52L264,51L261,49L261,51L262,52L261,51L259,48L256,52L254,54L252,54L246,57L242,61L241,62L241,63L242,65L243,66L242,67L241,68L240,69L237,78L237,80L238,85L238,85L238,86L237,90L237,91L239,92L240,92L242,93L244,93L245,93L246,92L248,92L249,93L249,96L250,97L251,97L252,97L254,97L255,98L255,100Z " data-fips="GY16" data-hasc="GY.CU" data-name="Cuyuni-Mazaruni" data-postal="CU" data-varname=""/></g></svg>