<?xml version="1.0" ?><!DOCTYPE svg  PUBLIC '-//W3C//DTD SVG 1.1//EN'  'http://www.w3.org/Graphics/SVG/1.1/DTD/svg11.dtd'><svg enable_background="new 0 0 500 401" height="401px" style="stroke-linejoin: round; stroke:#000; fill:#f6f3f0;" version="1.1" viewBox="0 0 500 401" width="500px" xmlns="http://www.w3.org/2000/svg" xmlns:xlink="http://www.w3.org/1999/xlink"><defs><style type="text/css"><![CDATA[path { fill-rule: evenodd; }
#context path { fill: #eee; stroke: #bbb; } ]]></style></defs><metadata><views><view h="401" padding="0" w="500"><proj id="laea" lat0="4.127" lon0="-55.912"/><bbox h="51.5" w="50.22" x="973.46" y="976.8"/><llbbox lat0="-90" lat1="90" lon0="-180" lon1="180"/></view></views></metadata><g id="admin1"><path d="M133,74L132,72L132,72L133,70L134,70L135,71L140,71L146,70L184,64L207,66L208,64L209,63L208,62L208,60L207,59L206,58L205,58L204,59L204,61L202,60L201,60L200,59L201,58L201,57L202,55L203,55L203,53L202,51L199,48L199,47L200,47L201,46L202,45L203,45L205,46L205,44L205,43L201,38L199,34L199,33L198,30L197,28L196,25L195,22L195,6L194,6L188,4L162,1L159,1L158,2L156,3L155,4L154,4L151,5L151,6L150,7L149,13L148,16L147,18L145,20L145,23L144,33L142,43L141,44L140,45L139,46L136,48L135,48L134,50L133,52L133,53L133,55L132,58L131,59L127,64L126,65L125,66L127,67L128,66L130,67L130,73L131,75L132,75Z " data-fips="NS14" data-hasc="SR.NI" data-name="Nickerie" data-postal="NI" data-varname=""/><path d="M323,191L324,190L330,187L331,186L336,182L337,182L338,181L339,181L343,180L344,180L344,179L346,177L347,175L348,175L350,176L351,179L352,180L353,179L354,178L354,177L355,175L355,174L358,170L360,163L360,160L358,155L358,153L358,152L358,151L358,150L358,149L359,147L362,145L364,142L365,141L365,140L365,138L365,130L365,129L366,128L367,125L367,124L368,122L368,121L368,119L369,117L370,116L370,115L370,113L371,112L371,111L372,109L373,107L372,105L371,103L369,100L361,99L360,98L360,97L360,95L360,91L360,89L358,88L358,86L358,84L358,83L358,82L357,81L356,80L356,79L351,76L350,75L349,74L349,73L348,67L347,66L345,65L317,66L315,66L313,68L314,70L315,71L314,73L311,78L308,81L303,85L300,89L310,104L311,107L312,110L314,126L313,145L314,146L316,149L316,150L316,151L318,185L319,188L320,189L320,190L321,191L322,191Z " data-fips="NS10" data-hasc="SR.BR" data-name="Brokopondo" data-postal="BR" data-varname=""/><path d="M413,74L417,70L425,65L427,63L431,56L432,54L433,53L434,51L436,49L437,47L438,43L438,36L439,32L441,29L444,25L443,24L441,19L440,17L439,17L436,17L435,17L427,13L417,11L409,9L397,8L376,4L375,4L375,6L375,14L375,15L373,17L373,18L372,20L373,23L374,25L374,26L375,29L376,31L379,35L381,39L383,43L385,46L385,49L385,51L385,53L385,54L384,55L384,56L381,60L398,67L399,68L405,71L408,72L409,73L410,73L413,76Z " data-fips="NS13" data-hasc="SR.MA" data-name="Marowijne" data-postal="MA" data-varname=""/><path d="M364,93L365,88L367,80L368,79L371,76L372,75L373,72L378,61L379,60L381,60L384,56L384,55L385,54L385,53L385,51L385,49L385,46L383,43L347,45L345,45L343,45L343,39L343,38L342,37L341,37L339,37L340,36L341,34L339,31L337,31L327,33L324,33L314,32L315,34L315,35L314,35L312,36L311,37L312,38L312,39L311,41L310,42L310,43L309,45L310,46L311,47L312,48L311,50L310,51L310,52L309,53L308,54L306,54L306,55L305,55L304,54L302,55L301,55L272,57L269,56L267,56L263,58L262,57L261,55L261,54L261,53L262,51L263,50L263,48L262,47L262,46L256,60L253,82L253,85L253,86L258,88L259,88L264,86L266,86L268,86L270,86L276,88L277,88L278,89L280,90L280,91L280,92L280,94L281,95L281,97L282,98L284,98L288,97L291,96L292,95L294,95L295,94L296,93L296,92L297,91L298,89L300,89L303,85L308,81L311,78L314,73L315,71L314,70L313,68L315,66L317,66L345,65L347,66L348,67L349,73L349,74L350,75L351,76L356,79L356,80L357,81L358,82L358,83L358,84L358,86L358,88L360,89L360,91L360,95L360,97L360,98L361,99Z " data-fips="NS15" data-hasc="SR.PR" data-name="Para" data-postal="PR" data-varname=""/><path d="M257,397L260,394L261,391L260,387L260,382L260,381L261,379L260,378L260,377L256,374L253,370L252,369L250,367L248,365L247,362L246,360L244,360L240,359L239,359L239,357L240,354L241,351L243,350L244,349L246,350L247,350L248,350L249,349L251,345L252,343L252,339L253,335L254,333L255,332L258,333L260,334L265,338L267,339L273,341L274,341L275,342L276,344L277,345L279,345L287,343L290,342L292,342L294,342L299,341L303,341L307,342L310,342L313,341L314,339L314,338L314,336L316,334L318,334L319,333L321,334L322,335L324,335L332,330L335,330L335,332L336,333L337,333L341,331L345,328L346,327L350,325L352,325L353,326L352,327L350,329L350,331L360,340L363,342L368,340L371,338L373,338L375,339L377,340L377,343L377,344L377,345L376,345L375,347L376,349L376,350L376,352L378,353L379,353L381,353L383,352L385,352L386,350L388,350L391,351L393,350L394,350L397,343L398,343L399,342L401,342L402,342L403,341L408,337L409,334L413,325L416,318L423,309L424,307L426,303L426,302L427,301L426,300L425,299L425,298L426,297L427,294L428,292L427,290L426,289L426,288L427,286L427,285L426,282L426,281L427,280L427,278L427,276L426,275L423,275L425,270L427,268L430,264L433,260L436,258L437,256L438,254L438,252L438,251L442,248L443,244L443,236L444,232L444,230L445,229L444,228L442,226L441,226L440,226L439,226L436,223L434,216L433,215L431,212L430,211L427,210L426,209L425,208L424,206L423,205L422,204L420,204L417,198L416,197L415,196L414,193L414,192L411,189L410,188L410,185L410,184L411,181L411,179L411,177L410,176L407,176L406,175L405,173L404,172L405,170L406,168L406,166L405,162L402,156L400,145L401,143L402,139L403,138L403,134L403,133L402,130L401,127L402,126L402,124L401,122L400,122L398,121L398,120L398,108L397,105L397,104L400,102L400,101L400,97L400,95L400,94L402,91L408,85L408,83L410,81L411,77L413,76L410,73L409,73L408,72L405,71L399,68L398,67L381,60L379,60L378,61L373,72L372,75L371,76L368,79L367,80L365,88L364,93L369,100L371,103L372,105L373,107L372,109L371,111L371,112L370,113L370,115L370,116L369,117L368,119L368,121L368,122L367,124L367,125L366,128L365,129L365,130L365,138L365,140L365,141L364,142L362,145L359,147L358,149L358,150L358,151L358,152L358,153L358,155L360,160L360,163L358,170L355,174L355,175L354,177L354,178L353,179L352,180L351,179L350,176L348,175L347,175L346,177L344,179L344,180L343,180L339,181L338,181L337,182L336,182L331,186L330,187L324,190L323,191L322,191L321,191L320,190L320,189L319,188L318,185L316,151L316,150L316,149L314,146L313,145L314,126L312,110L311,107L310,104L300,89L298,89L297,91L296,92L296,93L295,94L294,95L292,95L291,96L288,97L284,98L282,98L281,97L281,95L280,94L280,92L280,91L280,90L278,89L277,88L276,88L270,86L268,86L266,86L264,86L259,88L258,88L253,86L253,85L253,82L256,60L257,46L255,48L256,49L256,51L255,51L252,53L250,55L249,55L246,59L240,59L231,59L225,59L223,60L222,61L220,62L218,64L217,65L216,66L207,66L184,64L146,70L140,71L135,71L136,73L139,77L140,79L139,80L138,81L137,82L135,83L135,81L134,80L133,79L131,79L130,80L129,81L129,84L127,87L127,88L127,89L127,90L131,94L129,94L127,94L126,94L124,95L123,95L121,96L114,96L112,97L110,97L108,95L106,95L103,95L99,97L96,95L92,95L89,97L86,99L85,102L84,103L81,103L80,103L78,102L76,103L74,107L73,108L71,110L70,112L69,115L70,117L71,118L73,119L74,123L77,126L78,128L78,129L77,131L75,134L74,138L72,141L70,145L69,148L69,150L67,151L66,152L66,154L66,156L67,157L67,159L67,161L66,163L65,165L57,173L56,175L55,177L57,181L58,189L59,193L61,196L67,201L69,202L74,210L76,214L76,216L76,220L77,222L78,224L80,225L84,227L88,230L89,232L90,234L91,234L92,235L94,236L96,238L96,240L94,243L94,245L94,247L94,248L95,250L96,251L99,251L103,254L105,254L106,252L107,252L109,254L111,254L111,254L112,255L113,254L116,253L117,252L117,250L120,252L122,252L125,252L128,250L130,254L130,256L130,260L129,261L130,263L130,264L130,265L130,267L130,268L130,269L131,271L131,272L130,274L131,275L133,274L134,274L135,274L133,277L134,278L136,280L137,283L137,284L137,285L136,285L136,286L136,288L136,289L135,290L136,291L139,291L140,293L139,294L137,295L136,296L137,301L139,302L139,304L141,304L143,304L145,304L143,307L144,309L148,309L149,309L148,310L148,311L147,312L148,313L150,316L151,318L153,322L154,321L155,322L155,323L154,325L155,327L158,331L157,334L158,335L159,334L161,333L162,334L162,335L161,337L162,339L163,340L164,341L164,342L163,344L164,345L167,348L168,351L168,354L169,355L172,356L174,358L175,362L175,364L176,367L185,380L188,381L197,381L201,384L203,385L205,386L206,387L206,388L207,389L212,390L213,391L215,391L218,390L219,390L221,391L225,393L226,394L228,394L233,394L239,395L245,398L251,399Z " data-fips="NS18" data-hasc="SR.SI" data-name="Sipaliwini" data-postal="SI" data-varname=""/><path d="M383,43L381,39L379,35L376,31L375,29L374,26L374,25L373,23L372,20L373,18L373,17L375,15L375,14L375,6L375,4L376,4L374,4L371,2L369,2L347,1L345,0L343,0L341,1L337,2L333,3L332,4L333,5L334,6L334,7L336,8L338,9L343,11L345,12L346,13L354,13L356,13L357,12L358,12L360,13L361,14L359,13L357,12L356,13L354,14L353,15L352,15L350,13L348,14L347,14L345,14L342,12L340,12L339,13L338,15L337,17L336,18L334,19L333,20L334,22L334,23L334,24L336,25L337,27L339,28L343,29L344,30L345,31L341,34L340,36L339,37L341,37L342,37L343,38L343,39L343,45L345,45L347,45Z " data-fips="NS13" data-hasc="SR.CM" data-name="Commewijne" data-postal="CM" data-varname=""/><path d="M216,66L217,65L218,64L220,62L222,61L223,60L225,59L231,59L240,59L246,59L249,55L250,55L252,53L255,51L256,51L256,49L255,48L257,46L260,43L259,42L256,39L255,37L255,36L256,35L257,34L260,34L261,33L262,32L262,32L262,23L262,22L261,21L257,20L250,18L249,17L247,18L245,17L241,15L234,14L231,12L229,11L216,8L202,5L195,6L195,22L196,25L197,28L198,30L199,33L199,34L201,38L205,43L205,44L205,46L203,45L202,45L201,46L200,47L199,47L199,48L202,51L203,53L203,55L202,55L201,57L201,58L200,59L201,60L202,60L204,61L204,59L205,58L206,58L207,59L208,60L208,62L209,63L208,64L207,66Z " data-fips="NS12" data-hasc="SR.CR" data-name="Coronie" data-postal="CR" data-varname=""/><path d="M334,22L333,20L334,19L336,18L336,18L337,14L337,12L335,11L333,10L332,9L331,9L329,10L328,10L326,10L326,10L326,12L326,15L327,18L327,19L328,20L328,21L330,22L334,23Z " data-fips="NS16" data-hasc="SR.PM" data-name="Paramaribo" data-postal="PM" data-varname=""/><path d="M267,56L269,56L272,57L301,55L302,55L304,54L305,55L306,55L306,54L308,54L309,53L310,52L310,51L311,50L312,48L311,47L310,46L309,45L310,43L310,42L311,41L312,39L312,38L311,37L312,36L314,35L315,35L315,34L314,32L314,28L314,26L315,25L318,22L324,8L322,7L320,7L319,7L315,5L312,4L287,2L283,2L279,3L270,4L267,5L266,6L265,7L260,11L260,12L261,13L262,14L262,15L262,20L263,24L264,25L264,29L264,30L262,32L261,33L260,34L257,34L256,35L255,36L255,37L256,39L259,42L260,43L262,46L262,47L263,48L263,50L262,51L261,53L261,54L261,55L262,57L263,58Z " data-fips="NS17" data-hasc="SR.SA" data-name="Saramacca" data-postal="SA" data-varname=""/><path d="M327,33L337,31L339,31L345,31L344,30L343,29L339,28L337,27L336,25L334,24L334,23L330,22L328,21L328,20L327,19L327,18L326,15L326,12L326,10L326,10L326,10L325,9L324,8L318,22L315,25L314,26L314,28L314,32L324,33Z " data-fips="NS19" data-hasc="SR.WA" data-name="Wanica" data-postal="WA" data-varname=""/></g></svg>