<?xml version="1.0" ?><!DOCTYPE svg  PUBLIC '-//W3C//DTD SVG 1.1//EN'  'http://www.w3.org/Graphics/SVG/1.1/DTD/svg11.dtd'><svg enable_background="new 0 0 500 401" height="401px" style="stroke-linejoin: round; stroke:#000; fill:#f6f3f0;" version="1.1" viewBox="0 0 500 401" width="500px" xmlns="http://www.w3.org/2000/svg" xmlns:xlink="http://www.w3.org/1999/xlink"><defs><style type="text/css"><![CDATA[path { fill-rule: evenodd; }
#context path { fill: #eee; stroke: #bbb; } ]]></style></defs><metadata><views><view h="401" padding="0" w="500"><proj id="laea" lat0="-32.8" lon0="-56.012"/><bbox h="60.19" w="55.06" x="975.05" y="966.69"/><llbbox lat0="-90" lat1="90" lon0="-180" lon1="180"/></view></views></metadata><g id="admin1"><path d="M117,358L123,357L125,356L127,356L128,356L130,357L132,357L135,356L143,356L149,356L153,357L154,357L154,357L159,352L160,351L159,349L160,347L161,346L161,345L161,344L159,341L159,340L159,339L160,338L162,337L163,336L166,335L169,332L170,331L170,330L167,326L164,323L163,322L162,321L162,318L153,315L148,315L146,315L144,314L143,313L142,312L140,311L139,311L127,314L123,315L121,315L112,312L111,311L111,310L110,309L108,309L103,309L101,309L99,309L98,309L97,308L96,306L96,305L95,304L87,302L86,302L85,303L79,307L72,310L70,311L70,313L71,315L72,316L73,317L75,319L77,320L83,328L83,330L84,333L85,334L87,334L88,334L90,334L92,335L93,336L94,339L95,340L97,341L102,347L104,349L107,355L109,359L110,360Z " data-fips="UY04" data-hasc="UY.CO" data-name="Colonia" data-postal="CO" data-varname=""/><path d="M210,383L210,382L209,379L209,378L208,377L205,375L203,373L202,372L202,370L202,367L203,366L204,365L205,365L206,363L207,362L207,361L206,359L206,358L207,356L207,354L206,353L202,348L203,347L205,345L205,344L205,338L205,337L204,333L204,332L205,329L206,327L205,324L203,314L195,307L193,307L190,309L189,310L187,311L182,312L181,313L178,317L177,317L175,318L173,318L163,316L162,318L162,321L163,322L164,323L167,326L170,330L170,331L169,332L166,335L163,336L162,337L160,338L159,339L159,340L159,341L161,344L161,345L161,346L160,347L159,349L160,351L159,352L154,357L154,357L157,357L158,357L159,358L161,360L163,361L163,363L164,364L165,365L166,366L168,367L170,369L172,370L173,371L174,373L175,374L180,377L186,378L190,379L191,379L193,380L195,381L196,382L197,382L202,382L203,382L205,383L208,384L209,384Z " data-fips="UY16" data-hasc="UY.SJ" data-name="San Jos" data-postal="SJ" data-varname=""/><path d="M161,80L162,79L164,78L168,77L170,77L179,79L181,78L185,78L186,77L190,74L192,73L194,73L196,72L197,71L198,70L199,69L200,69L201,68L201,66L202,65L203,65L205,64L206,65L210,66L221,69L222,69L224,71L225,73L226,74L229,76L230,78L232,80L232,79L232,77L233,74L233,68L233,66L234,64L234,62L234,59L233,57L228,53L227,52L225,47L224,46L222,45L221,44L221,42L219,39L217,38L215,37L211,33L207,32L206,31L205,29L204,26L203,25L199,23L198,22L197,21L194,18L193,17L192,16L190,16L189,15L189,14L189,12L188,11L187,10L186,9L184,8L179,5L179,4L177,2L175,0L172,0L170,1L166,0L165,0L162,1L159,2L157,1L156,2L154,4L152,7L152,9L151,12L150,14L148,16L145,16L144,15L142,16L141,16L140,15L139,15L137,15L135,17L134,17L133,15L132,14L130,15L127,15L125,15L123,14L121,9L120,8L118,8L118,10L119,14L118,17L117,20L103,33L101,35L101,38L101,41L103,44L104,46L105,49L106,51L107,54L107,56L107,58L107,58L109,55L110,54L113,55L114,55L119,59L120,60L122,62L122,63L124,63L125,64L127,63L129,64L130,64L131,65L134,67L143,72L147,73L148,74L151,77L153,78L154,79L159,80Z " data-fips="UY01" data-hasc="UY.AR" data-name="Artigas" data-postal="AR" data-varname=""/><path d="M175,318L177,317L178,317L181,313L182,312L187,311L189,310L190,309L193,307L195,307L203,310L204,309L204,308L205,307L205,300L205,298L203,296L202,294L198,280L196,276L196,275L195,273L195,272L195,271L194,270L189,265L188,263L187,262L183,260L181,260L178,260L177,259L176,258L176,257L175,255L174,254L173,253L169,252L167,252L163,252L160,251L155,251L150,257L149,258L142,267L142,268L142,269L142,270L144,272L145,273L146,277L147,279L148,281L148,282L149,283L151,285L152,286L154,287L155,288L154,289L154,290L153,298L153,300L156,305L157,307L158,309L158,310L158,312L159,314L160,315L163,316L173,318Z " data-fips="UY06" data-hasc="UY.FS" data-name="Flores" data-postal="FS" data-varname=""/><path d="M111,206L112,205L112,203L113,202L125,200L125,199L126,198L127,196L128,195L130,195L131,194L131,193L132,193L134,192L137,193L139,193L140,192L141,191L142,191L144,192L145,192L146,192L147,192L152,188L153,188L158,188L160,187L162,186L163,186L164,186L167,188L170,189L171,189L173,189L174,189L177,189L180,189L181,189L182,189L184,189L188,191L192,194L193,195L199,185L200,183L202,181L205,179L207,177L209,174L209,173L211,164L212,163L213,161L213,159L214,155L214,151L214,150L215,149L217,149L217,148L216,147L215,145L214,144L214,142L214,139L214,138L211,135L208,136L207,137L206,138L206,139L203,142L203,143L202,144L201,145L200,145L198,145L193,143L190,143L188,143L185,141L184,140L180,140L178,139L177,139L175,139L168,140L167,140L164,139L163,139L162,140L160,140L159,140L152,139L149,137L143,135L141,134L140,133L138,131L137,130L136,130L134,130L132,130L130,128L128,127L123,124L112,122L111,122L110,121L109,117L108,117L104,114L102,113L101,113L98,114L97,116L96,116L95,116L94,115L93,116L92,117L93,118L95,120L96,124L95,127L91,140L91,141L89,142L86,143L84,143L83,144L81,147L81,148L82,150L84,152L85,155L85,158L85,162L84,165L83,168L82,169L83,171L88,177L89,180L88,182L84,189L82,192L82,193L82,195L83,197L85,197L88,196L89,197L90,198L93,200L95,201L95,202L96,204L98,205L99,205L101,205L102,206L109,207L110,207Z " data-fips="UY11" data-hasc="UY.PA" data-name="Paysand" data-postal="PA" data-varname=""/><path d="M77,270L80,265L82,264L85,264L88,264L88,262L88,259L89,258L92,257L93,258L95,258L95,257L95,255L94,254L93,253L93,252L93,250L93,249L94,249L95,249L96,249L98,250L99,248L99,247L100,246L102,245L103,245L104,244L105,243L106,242L107,242L108,242L110,243L112,243L113,243L115,243L116,244L118,244L121,245L122,244L124,242L126,241L128,240L129,240L131,240L134,242L135,244L135,245L137,245L139,244L140,244L143,245L144,246L145,247L146,250L147,249L148,248L149,247L150,250L151,250L154,249L156,247L156,244L154,244L153,243L153,242L155,241L156,240L157,239L158,238L159,238L161,238L163,240L165,240L166,240L167,239L166,237L167,237L170,236L169,235L170,234L171,235L172,235L173,236L174,235L174,234L174,232L176,232L178,232L178,230L179,228L180,227L181,226L183,226L185,226L185,225L187,224L188,225L188,222L190,220L190,217L190,215L190,214L190,213L191,211L192,210L193,209L195,200L193,195L192,194L188,191L184,189L182,189L181,189L180,189L177,189L174,189L173,189L171,189L170,189L167,188L164,186L163,186L162,186L160,187L158,188L153,188L152,188L147,192L146,192L145,192L144,192L142,191L141,191L140,192L139,193L137,193L134,192L132,193L131,193L131,194L130,195L128,195L127,196L126,198L125,199L125,200L113,202L112,203L112,205L111,206L110,207L109,207L102,206L101,205L99,205L98,205L96,204L95,202L95,201L93,200L90,198L89,197L88,196L85,197L83,197L84,202L84,203L85,204L86,210L86,212L87,214L87,216L87,219L87,221L87,223L88,224L91,227L92,229L93,231L93,235L92,238L91,239L91,241L91,242L90,244L87,246L85,248L82,248L75,248L73,249L72,252L72,255L73,262L73,264L72,266L70,268L69,269L69,271L69,273L70,274Z " data-fips="UY12" data-hasc="UY.RN" data-name="Ro Negro" data-postal="RN" data-varname=""/><path d="M201,145L202,144L203,143L203,142L206,139L206,138L207,137L208,136L211,135L211,133L211,132L211,130L211,126L210,124L209,123L209,122L212,116L214,113L215,110L216,110L218,109L219,108L219,107L221,106L221,105L222,101L222,100L223,99L222,98L221,96L221,95L221,93L222,93L223,92L228,91L230,90L231,88L231,87L233,80L232,80L230,78L229,76L226,74L225,73L224,71L222,69L221,69L210,66L206,65L205,64L203,65L202,65L201,66L201,68L200,69L199,69L198,70L197,71L196,72L194,73L192,73L190,74L186,77L185,78L181,78L179,79L170,77L168,77L164,78L162,79L161,80L159,80L154,79L153,78L151,77L148,74L147,73L143,72L134,67L131,65L130,64L129,64L127,63L125,64L124,63L122,63L122,62L120,60L119,59L114,55L113,55L110,54L109,55L107,58L107,58L107,60L108,64L107,66L106,67L104,67L101,68L100,69L100,70L100,71L103,76L104,80L102,82L101,85L100,89L100,92L100,94L100,95L98,99L96,101L96,102L95,106L95,108L94,109L91,110L90,111L89,114L91,116L92,117L93,116L94,115L95,116L96,116L97,116L98,114L101,113L102,113L104,114L108,117L109,117L110,121L111,122L112,122L123,124L128,127L130,128L132,130L134,130L136,130L137,130L138,131L140,133L141,134L143,135L149,137L152,139L159,140L160,140L162,140L163,139L164,139L167,140L168,140L175,139L177,139L178,139L180,140L184,140L185,141L188,143L190,143L193,143L198,145L200,145Z " data-fips="UY15" data-hasc="UY.SA" data-name="Salto" data-postal="SA" data-varname=""/><path d="M159,314L158,312L158,310L158,309L157,307L156,305L153,300L153,298L154,290L154,289L155,288L154,287L152,286L151,285L149,283L148,282L148,281L147,279L146,277L145,273L144,272L142,270L142,269L142,268L142,267L149,258L150,257L155,251L154,249L151,250L150,250L149,247L148,248L147,249L146,250L145,247L144,246L143,245L140,244L139,244L137,245L135,245L135,244L134,242L131,240L129,240L128,240L126,241L124,242L122,244L121,245L118,244L116,244L115,243L113,243L112,243L110,243L108,242L107,242L106,242L105,243L104,244L103,245L102,245L100,246L99,247L99,248L98,250L96,249L95,249L94,249L93,249L93,250L93,252L93,253L94,254L95,255L95,257L95,258L93,258L92,257L89,258L88,259L88,262L88,264L85,264L82,264L80,265L77,270L70,274L71,274L71,276L71,278L69,281L68,282L67,284L68,286L68,288L68,289L68,296L68,303L70,311L72,310L79,307L85,303L86,302L87,302L95,304L96,305L96,306L97,308L98,309L99,309L101,309L103,309L108,309L110,309L111,310L111,311L112,312L121,315L123,315L127,314L139,311L140,311L142,312L143,313L144,314L146,315L148,315L153,315L160,315Z " data-fips="UY17" data-hasc="UY.SO" data-name="Soriano" data-postal="SO" data-varname=""/><path d="M302,238L301,236L300,234L301,233L302,233L304,231L305,230L308,229L309,229L310,227L311,226L316,224L318,224L320,224L321,224L325,222L327,223L328,223L329,223L330,223L331,223L332,221L333,221L334,221L335,221L336,220L337,219L338,218L339,218L343,218L344,217L348,215L350,215L351,216L352,216L354,217L356,217L358,218L359,218L360,218L362,218L363,219L367,222L368,222L369,222L369,220L369,219L369,218L371,217L372,216L374,215L375,214L376,215L380,219L382,220L383,220L394,219L397,219L398,220L406,219L407,219L407,220L409,221L410,221L411,221L412,222L414,222L415,222L416,221L417,221L419,221L427,223L429,222L431,220L432,219L433,217L432,216L427,211L426,210L424,209L422,208L420,207L419,207L416,205L412,204L408,199L404,196L402,194L401,192L400,190L399,189L397,187L396,186L396,185L396,181L396,178L395,176L391,170L390,166L390,163L389,162L388,161L384,160L382,159L381,158L380,156L380,154L379,153L377,152L376,152L375,151L373,151L371,150L370,148L369,147L368,147L366,147L365,147L364,148L362,149L361,148L357,145L354,142L349,137L347,135L345,133L343,131L340,129L340,129L338,132L338,133L337,134L337,136L338,140L338,142L338,143L336,147L335,149L334,151L332,155L333,156L335,156L335,158L335,159L333,160L332,161L333,162L332,164L331,165L330,166L328,166L325,166L324,167L322,165L320,164L319,165L319,167L318,168L317,170L316,172L316,174L316,174L316,176L315,178L314,181L312,183L310,184L309,185L308,187L306,188L305,189L303,191L302,193L300,194L298,195L295,195L293,195L289,193L286,193L281,199L282,201L282,202L281,207L280,210L280,212L281,217L281,218L279,218L279,219L279,220L280,222L281,224L281,225L280,228L281,229L281,231L283,232L284,233L290,237L291,239L292,239L293,239L298,239L302,240Z " data-fips="UY03" data-hasc="UY.CL" data-name="Cerro Largo" data-postal="CL" data-varname=""/><path d="M204,278L205,277L205,276L205,274L205,271L206,270L207,270L208,271L209,272L210,273L214,272L215,273L216,274L216,275L217,276L218,277L222,276L224,277L228,277L229,277L230,276L231,275L231,273L232,273L235,272L238,272L240,272L242,273L243,273L245,272L250,270L251,269L252,268L253,267L255,267L258,267L260,267L273,259L275,257L278,255L280,254L281,253L282,254L284,254L285,254L286,253L290,250L291,249L295,247L296,245L300,242L301,241L302,240L298,239L293,239L292,239L291,239L290,237L284,233L283,232L281,231L281,229L280,228L281,225L281,224L280,222L279,220L279,219L279,218L281,218L281,217L280,212L280,210L281,207L282,202L282,201L281,199L278,196L277,196L274,194L273,194L272,193L271,191L270,190L269,191L269,192L268,193L268,194L268,196L267,197L265,197L264,197L262,197L260,197L259,196L258,196L257,197L256,200L255,200L254,200L253,199L251,198L250,198L249,199L249,201L249,202L249,203L248,204L248,205L247,206L245,207L244,207L242,205L240,205L239,206L238,207L237,209L235,210L233,213L230,213L228,213L225,214L222,215L221,216L220,218L219,220L218,223L216,223L213,223L211,222L209,222L206,224L206,226L204,226L203,224L201,223L200,223L198,224L197,224L195,224L194,224L193,224L191,225L190,226L188,225L187,224L185,225L185,226L183,226L181,226L180,227L179,228L178,230L178,232L176,232L174,232L174,234L174,235L173,236L172,235L171,235L170,234L169,235L170,236L167,237L166,237L167,239L166,240L165,240L163,240L161,238L159,238L158,238L157,239L156,240L155,241L153,242L153,243L154,244L156,244L156,247L160,251L163,252L167,252L169,252L173,253L174,254L175,255L176,257L176,258L177,259L178,260L181,260L183,260L187,262L188,263L189,265L194,270L195,271L195,272L195,273L196,275L196,276L203,278Z " data-fips="UY05" data-hasc="UY.DU" data-name="Durazno" data-postal="DU" data-varname=""/><path d="M330,166L331,165L332,164L333,162L332,161L333,160L335,159L335,158L335,156L333,156L332,155L334,151L335,149L336,147L338,143L338,142L338,140L337,136L337,134L338,133L338,132L340,129L340,129L340,127L340,124L339,122L339,121L338,119L334,116L333,115L332,113L331,112L330,111L328,111L316,110L314,109L313,108L312,107L311,106L311,105L308,104L306,102L304,99L303,97L301,96L299,99L298,100L297,101L296,100L295,99L292,96L290,96L288,95L287,94L285,92L285,91L284,88L283,86L281,85L280,84L280,83L279,80L279,78L278,77L273,71L270,68L268,66L267,65L264,64L262,61L261,61L259,61L258,62L258,64L258,67L258,69L257,69L256,69L254,69L253,69L252,70L251,73L250,74L249,75L245,78L244,79L243,80L242,80L239,80L235,80L233,80L231,87L231,88L230,90L228,91L223,92L222,93L221,93L221,95L221,96L222,98L223,99L224,96L225,95L227,95L228,95L230,95L235,100L239,101L244,104L246,105L246,107L247,108L247,109L247,111L248,115L249,116L251,118L252,119L254,119L256,120L257,121L257,122L258,126L258,127L257,130L257,131L258,132L258,134L258,135L258,136L259,138L260,139L261,140L262,139L264,139L266,139L268,140L274,139L276,139L277,139L279,139L286,141L290,141L293,141L295,141L296,141L299,142L300,143L306,144L309,145L312,146L313,148L315,150L316,151L317,153L320,157L321,158L324,161L325,162L326,165L328,166Z " data-fips="UY13" data-hasc="UY.RV" data-name="Rivera" data-postal="RV" data-varname=""/><path d="M206,224L209,222L211,222L213,223L216,223L218,223L219,220L220,218L221,216L222,215L225,214L228,213L230,213L233,213L235,210L237,209L238,207L239,206L240,205L242,205L244,207L245,207L247,206L248,205L248,204L249,203L249,202L249,201L249,199L250,198L251,198L253,199L254,200L255,200L256,200L257,197L258,196L259,196L260,197L262,197L264,197L265,197L267,197L268,196L268,194L268,193L269,192L269,191L270,190L271,191L272,193L273,194L274,194L277,196L278,196L286,193L289,193L293,195L295,195L298,195L300,194L302,193L303,191L305,189L306,188L308,187L309,185L310,184L312,183L314,181L315,178L316,176L316,174L316,174L316,172L317,170L318,168L319,167L319,165L320,164L322,165L324,167L325,166L326,165L325,162L324,161L321,158L320,157L317,153L316,151L315,150L313,148L312,146L309,145L306,144L300,143L299,142L296,141L295,141L293,141L290,141L286,141L279,139L277,139L276,139L274,139L268,140L266,139L264,139L262,139L261,140L260,139L259,138L258,136L258,135L258,134L258,132L257,131L257,130L258,127L258,126L257,122L257,121L256,120L254,119L252,119L251,118L249,116L248,115L247,111L247,109L247,108L246,107L246,105L244,104L239,101L235,100L230,95L228,95L227,95L225,95L224,96L223,99L222,100L222,101L221,105L221,106L219,107L219,108L218,109L216,110L215,110L214,113L212,116L209,122L209,123L210,124L211,126L211,130L211,132L211,133L211,135L214,138L214,139L214,142L214,144L215,145L216,147L217,148L217,149L215,149L214,150L214,151L214,155L213,159L213,161L212,163L211,164L209,173L209,174L207,177L205,179L202,181L200,183L199,185L195,200L193,209L192,210L191,211L190,213L190,214L190,215L190,217L190,220L188,222L188,225L190,226L191,225L193,224L194,224L195,224L197,224L198,224L200,223L201,223L203,224L204,226L206,226Z " data-fips="UY18" data-hasc="UY.TA" data-name="Tacuaremb" data-postal="TA" data-varname=""/><path d="M363,275L366,274L368,273L370,272L371,270L373,267L374,266L376,266L378,265L380,262L381,260L382,260L384,259L385,257L385,256L386,254L392,253L397,251L404,249L404,247L406,245L409,243L417,237L418,237L418,235L419,232L419,231L421,229L426,225L427,223L419,221L417,221L416,221L415,222L414,222L412,222L411,221L410,221L409,221L407,220L407,219L406,219L398,220L397,219L394,219L383,220L382,220L380,219L376,215L375,214L374,215L372,216L371,217L369,218L369,219L369,220L369,222L368,222L367,222L363,219L362,218L360,218L359,218L358,218L356,217L354,217L352,216L351,216L350,215L348,215L344,217L343,218L339,218L338,218L337,219L336,220L335,221L334,221L333,221L332,221L331,223L330,223L329,223L328,223L327,223L325,222L321,224L320,224L318,224L316,224L311,226L310,227L309,229L308,229L305,230L304,231L302,233L301,233L300,234L301,236L302,238L302,240L301,241L300,242L296,245L295,247L295,252L295,254L296,259L296,260L295,262L294,263L292,265L292,266L292,267L297,267L298,266L302,266L303,266L305,267L306,267L307,268L308,267L312,266L313,265L314,265L316,266L317,266L319,269L322,270L324,271L330,272L331,273L336,275L337,275L340,274L341,273L341,272L342,270L343,270L344,269L347,267L349,267L350,267L351,267L352,269L353,271L354,272L356,273L358,274L360,276L362,276Z " data-fips="UY19" data-hasc="UY.TT" data-name="Treinta y Tres" data-postal="TT" data-varname=""/><path d="M234,390L236,390L237,389L239,387L240,386L251,383L257,382L263,384L268,385L269,385L274,385L276,385L276,384L275,382L274,380L273,379L273,378L273,376L273,375L272,374L271,373L270,372L269,368L269,367L268,364L265,361L264,360L264,357L265,353L265,351L262,346L261,343L259,336L251,337L249,338L245,341L243,341L242,341L240,341L237,339L235,339L234,339L227,344L227,344L226,347L225,348L224,349L221,350L219,350L215,348L213,348L211,348L210,348L208,349L208,350L207,354L207,356L206,358L206,359L207,361L207,362L206,363L205,365L204,365L203,366L202,367L202,370L202,372L203,373L205,375L208,377L209,378L209,379L211,378L213,377L215,378L216,379L217,381L219,381L220,381L221,381L221,380L222,379L225,378L225,379L226,380L227,381L228,382L229,382L230,382L231,383L231,384L230,387L230,388L230,390L231,391Z " data-fips="UY02" data-hasc="UY.CA" data-name="Canelones" data-postal="CA" data-varname=""/><path d="M208,350L208,349L210,348L211,348L213,348L215,348L219,350L221,350L224,349L225,348L226,347L227,344L227,344L234,339L235,339L237,339L240,341L242,341L243,341L245,341L249,338L251,337L259,336L261,333L263,331L264,330L265,328L265,327L266,326L267,325L270,322L271,320L271,319L271,318L272,317L273,316L274,315L274,313L275,312L276,311L277,310L278,309L279,308L279,305L281,299L282,298L282,295L281,294L279,291L279,289L280,288L280,287L281,286L284,285L285,285L286,284L287,280L288,279L289,278L290,277L292,277L293,276L294,275L294,273L295,272L294,270L292,267L292,266L292,265L294,263L295,262L296,260L296,259L295,254L295,252L295,247L291,249L290,250L286,253L285,254L284,254L282,254L281,253L280,254L278,255L275,257L273,259L260,267L258,267L255,267L253,267L252,268L251,269L250,270L245,272L243,273L242,273L240,272L238,272L235,272L232,273L231,273L231,275L230,276L229,277L228,277L224,277L222,276L218,277L217,276L216,275L216,274L215,273L214,272L210,273L209,272L208,271L207,270L206,270L205,271L205,274L205,276L205,277L204,278L203,278L198,280L202,294L203,296L205,298L205,300L205,307L204,308L204,309L203,310L203,314L205,324L206,327L205,329L204,332L204,333L205,337L205,338L205,344L205,345L203,347L202,348L206,353L207,354Z " data-fips="UY07" data-hasc="UY.FD" data-name="Florida" data-postal="FD" data-varname=""/><path d="M280,369L282,368L291,361L292,361L294,361L296,361L296,361L300,357L301,356L302,356L305,355L307,354L308,354L309,353L310,352L312,352L312,350L312,349L313,348L314,344L314,343L316,342L316,340L317,338L316,337L316,335L318,333L319,331L321,328L321,327L323,325L324,325L325,324L329,324L330,323L331,322L332,320L333,318L333,317L334,316L337,314L338,311L341,309L341,307L341,305L342,303L342,302L344,299L344,298L344,293L344,291L345,290L346,289L352,285L354,283L356,278L357,278L359,278L360,277L360,276L358,274L356,273L354,272L353,271L352,269L351,267L350,267L349,267L347,267L344,269L343,270L342,270L341,272L341,273L340,274L337,275L336,275L331,273L330,272L324,271L322,270L319,269L317,266L316,266L314,265L313,265L312,266L308,267L307,268L306,267L305,267L303,266L302,266L298,266L297,267L294,270L295,272L294,273L294,275L293,276L292,277L290,277L289,278L288,279L287,280L286,284L285,285L284,285L281,286L280,287L280,288L279,289L279,291L281,294L282,295L282,298L281,299L279,305L279,308L278,309L277,310L276,311L275,312L274,313L274,315L273,316L272,317L271,318L271,319L271,320L270,322L267,325L266,326L265,327L265,328L264,330L263,331L261,333L259,336L261,343L262,346L265,351L265,353L264,357L264,360L265,361L268,364L269,367L269,368L278,370Z " data-fips="UY08" data-hasc="UY.LA" data-name="Lavalleja" data-postal="LA" data-varname=""/><path d="M305,399L307,397L308,396L309,396L321,391L324,390L325,389L327,387L332,386L332,386L332,384L332,383L333,382L333,381L332,377L332,373L332,372L333,369L334,367L335,366L335,364L335,363L334,362L333,361L333,358L333,357L332,356L332,354L333,353L333,352L334,352L335,352L336,349L336,345L336,343L336,341L336,336L337,331L338,329L338,328L337,314L334,316L333,317L333,318L332,320L331,322L330,323L329,324L325,324L324,325L323,325L321,327L321,328L319,331L318,333L316,335L316,337L317,338L316,340L316,342L314,343L314,344L313,348L312,349L312,350L312,352L310,352L309,353L308,354L307,354L305,355L302,356L301,356L300,357L296,361L296,361L294,361L292,361L291,361L282,368L280,369L278,370L270,372L271,373L272,374L273,375L273,376L273,378L273,379L274,380L275,382L276,384L276,385L278,386L282,391L283,393L286,393L292,392L295,392L297,392L298,393L299,394L301,395L302,395L303,396L304,398L304,399Z " data-fips="UY09" data-hasc="UY.MA" data-name="Maldonado" data-postal="MA" data-varname=""/><path d="M224,394L226,394L231,391L230,390L230,388L230,387L231,384L231,383L230,382L229,382L228,382L227,381L226,380L225,379L225,378L222,379L221,380L221,381L220,381L219,381L217,381L216,379L215,378L213,377L211,378L209,379L210,382L210,383L209,384L209,384L206,386L205,387L206,388L207,389L211,391L213,393L214,394L217,393L218,392L219,392L220,393L219,394L222,395Z " data-fips="UY10" data-hasc="UY.MO" data-name="Montevideo" data-postal="MO" data-varname="Montevidu"/><path d="M348,378L349,377L349,376L349,374L347,373L345,373L346,371L347,371L348,370L349,369L350,368L346,366L348,366L350,366L351,367L352,369L351,371L351,372L352,373L353,374L352,375L351,376L352,376L359,374L359,373L359,371L360,370L370,360L376,357L382,353L385,353L385,351L384,348L385,343L386,342L389,337L390,336L394,333L397,329L398,328L400,326L401,325L402,321L403,317L405,310L405,308L407,305L410,302L411,301L412,300L410,300L409,299L408,298L408,296L407,296L406,296L404,296L403,296L401,292L402,285L403,272L402,259L402,253L404,249L397,251L392,253L386,254L385,256L385,257L384,259L382,260L381,260L380,262L378,265L376,266L374,266L373,267L371,270L370,272L368,273L366,274L363,275L362,276L360,277L359,278L357,278L356,278L354,283L352,285L346,289L345,290L344,291L344,293L344,298L344,299L342,302L342,303L341,305L341,307L341,309L338,311L337,314L338,328L338,329L337,331L336,336L336,341L336,343L336,345L336,349L335,352L334,352L333,352L333,353L332,354L332,356L333,357L333,358L333,361L334,362L335,363L335,364L335,366L334,367L333,369L332,372L332,373L332,377L333,381L333,382L332,383L332,384L332,386L332,386Z " data-fips="UY14" data-hasc="UY.RO" data-name="Rocha" data-postal="RO" data-varname=""/></g></svg>