<?xml version="1.0" ?><!DOCTYPE svg  PUBLIC '-//W3C//DTD SVG 1.1//EN'  'http://www.w3.org/Graphics/SVG/1.1/DTD/svg11.dtd'><svg enable_background="new 0 0 500 401" height="401px" style="stroke-linejoin: round; stroke:#000; fill:#f6f3f0;" version="1.1" viewBox="0 0 500 401" width="500px" xmlns="http://www.w3.org/2000/svg" xmlns:xlink="http://www.w3.org/1999/xlink"><defs><style type="text/css"><![CDATA[path { fill-rule: evenodd; }
#context path { fill: #eee; stroke: #bbb; } ]]></style></defs><metadata><views><view h="401" padding="0" w="500"><proj id="laea" lat0="7.125" lon0="-66.166"/><bbox h="142.7" w="165.5" x="912.01" y="937.17"/><llbbox lat0="-90" lat1="90" lon0="-180" lon1="180"/></view></views></metadata><g id="admin1"><path d="M112,65L114,64L115,63L116,63L117,62L118,61L119,60L120,59L121,59L122,58L123,57L124,56L125,56L127,56L128,55L129,54L129,53L131,53L133,54L134,53L136,52L137,52L138,52L139,52L140,51L141,51L141,52L142,52L143,51L144,51L147,50L149,50L150,50L151,51L152,52L154,51L159,52L161,52L164,53L167,52L168,52L170,52L172,52L175,52L176,51L177,51L178,51L180,51L181,51L182,51L182,53L185,54L193,54L192,51L191,48L192,47L193,47L194,46L194,45L190,44L192,44L193,44L193,43L191,39L189,36L188,36L186,35L186,34L184,33L182,31L181,31L180,30L179,29L178,29L177,29L176,28L175,27L173,26L168,26L167,26L166,25L165,25L162,24L161,24L160,23L158,23L157,24L156,25L155,24L152,24L151,24L150,25L149,26L148,25L146,24L145,23L144,20L142,14L141,12L141,9L141,8L141,6L137,1L136,0L135,0L133,1L131,2L130,3L128,3L128,4L128,5L127,7L126,8L126,9L125,10L126,12L126,13L127,15L127,14L128,15L128,16L128,18L127,19L127,20L129,21L130,20L132,20L134,19L135,19L137,19L139,18L140,17L141,17L142,19L142,20L143,22L143,23L144,24L143,25L142,26L141,27L140,27L138,26L137,25L136,25L136,24L135,24L133,23L132,22L130,22L131,22L132,23L134,24L134,25L134,26L133,26L132,26L130,26L130,27L130,27L128,29L125,29L124,30L120,31L118,31L118,32L119,31L117,32L114,33L112,33L111,33L105,34L99,38L96,39L95,40L91,41L91,41L92,43L93,44L94,45L95,47L96,48L98,50L98,52L98,53L98,54L99,55L100,57L100,58L102,60L103,60L104,60L106,60L107,60L109,60L109,61L109,63L110,64L111,65Z " data-fips="VE11" data-hasc="VE.FA" data-name="Falcn" data-postal="FA" data-varname=""/><path d="M161,210L164,208L165,207L167,207L168,207L170,207L171,208L174,208L176,209L178,209L179,209L180,209L182,208L184,208L186,208L188,208L190,208L191,208L195,207L197,207L201,207L202,207L204,206L205,206L205,205L206,205L207,204L209,204L211,204L216,205L217,206L218,207L219,207L221,208L221,208L222,206L223,206L224,206L225,205L226,203L227,202L228,201L229,200L231,199L231,198L231,196L232,192L233,190L234,189L235,187L234,185L234,184L235,183L235,182L234,181L233,179L233,178L234,177L236,175L238,174L239,174L240,173L241,172L244,171L246,170L246,170L247,169L249,169L250,168L252,165L253,164L254,163L255,161L255,160L256,159L258,158L259,158L259,157L259,156L258,154L257,155L256,155L254,153L253,153L252,152L251,153L249,153L248,153L243,154L242,154L238,153L237,153L236,153L233,153L231,153L230,153L228,152L227,151L225,150L225,149L223,148L221,149L220,149L218,148L217,148L218,147L217,147L216,146L215,146L213,145L212,145L208,145L207,144L205,144L204,143L199,144L198,144L197,145L196,146L195,146L194,146L193,147L192,146L190,146L189,146L187,146L186,147L185,147L182,146L180,146L178,148L177,148L174,149L172,148L170,147L169,146L168,145L166,145L165,145L164,145L163,144L161,143L161,143L157,143L155,143L154,143L152,143L148,147L142,151L141,151L140,151L138,151L137,152L136,153L135,153L133,153L131,155L130,156L129,157L128,158L127,159L126,158L124,158L123,159L123,162L122,163L121,164L119,165L118,165L117,166L116,167L115,167L114,168L113,168L112,169L111,169L109,169L107,169L106,169L104,169L102,169L101,169L100,167L99,167L97,166L95,166L94,165L92,165L92,164L90,164L89,163L88,163L85,163L83,163L82,164L81,164L80,163L79,164L78,164L77,164L75,163L74,162L72,162L71,162L71,162L70,163L69,165L68,165L65,166L64,166L63,166L62,165L60,164L60,164L59,163L57,163L54,163L53,164L52,164L52,165L54,165L57,165L58,165L59,167L59,169L59,170L59,171L60,172L62,176L63,177L64,177L65,178L66,179L69,179L70,179L71,179L73,178L74,178L75,178L76,178L77,177L78,177L79,178L80,178L82,178L83,179L84,178L85,178L87,178L89,178L89,179L90,180L92,180L93,180L94,179L97,180L99,179L100,179L102,177L103,177L105,176L106,176L108,176L109,176L110,176L112,177L114,177L116,179L117,179L118,179L119,180L122,181L123,182L125,180L127,180L128,180L129,180L130,181L152,210L153,210L155,209L157,209L159,211Z " data-fips="VE03" data-hasc="VE.AP" data-name="Apure" data-postal="AP" data-varname=""/><path d="M112,169L113,168L114,168L115,167L116,167L117,166L118,165L119,165L121,164L122,163L123,162L123,159L124,158L126,158L127,159L128,158L129,157L130,156L131,155L133,153L135,153L136,153L137,152L138,151L140,151L141,151L142,151L148,147L152,143L154,143L155,143L157,143L161,143L161,143L163,144L164,145L165,145L166,145L168,145L169,146L170,147L172,148L174,149L177,148L178,148L180,146L182,146L185,147L186,147L187,146L189,146L190,146L192,146L193,147L194,146L195,146L196,146L197,145L198,144L199,144L204,143L205,144L207,144L208,145L212,145L213,145L215,146L216,146L217,147L218,147L218,147L218,146L217,146L217,144L216,142L215,142L214,141L213,140L213,138L212,137L210,137L209,136L208,135L208,134L207,134L207,132L206,133L205,131L204,131L203,130L203,129L202,128L201,127L200,126L200,125L199,125L196,124L195,124L194,125L192,124L190,124L189,124L188,124L187,124L185,124L183,123L182,124L182,126L182,127L181,128L180,131L179,132L177,133L175,134L174,136L174,139L174,140L173,141L172,141L172,140L170,139L168,137L167,136L165,134L163,133L163,131L164,130L163,130L162,129L162,128L161,127L159,125L159,124L158,123L157,123L154,122L153,122L152,122L150,121L148,120L147,119L146,118L145,119L144,120L143,120L142,119L140,119L137,118L133,115L133,114L127,110L125,110L124,110L122,110L120,110L119,110L117,111L115,113L114,115L113,115L111,116L110,116L110,117L109,118L108,118L106,119L105,120L103,122L102,123L101,124L101,125L101,126L100,128L99,128L99,129L98,130L97,132L97,133L98,134L99,135L99,136L99,137L99,138L98,140L98,141L96,142L94,145L92,146L90,147L90,148L85,151L84,153L84,155L83,156L83,158L84,158L85,159L86,160L87,161L88,162L87,162L86,162L83,161L82,161L80,161L78,160L76,160L73,160L72,160L70,161L71,162L72,162L74,162L75,163L77,164L78,164L79,164L80,163L81,164L82,164L83,163L85,163L88,163L89,163L90,164L92,164L92,165L94,165L95,166L97,166L99,167L100,167L101,169L102,169L104,169L106,169L107,169L109,169L111,169Z " data-fips="VE05" data-hasc="VE.BA" data-name="Barinas" data-postal="BA" data-varname=""/><path d="M84,153L85,151L90,148L90,147L92,146L94,145L96,142L98,141L98,140L99,138L99,137L99,136L99,135L98,134L97,133L97,132L98,130L99,129L99,128L100,128L101,126L101,125L101,124L102,123L103,122L105,120L106,119L108,118L109,118L110,117L110,116L111,116L113,115L114,115L115,113L116,111L115,110L114,109L113,109L112,110L110,111L110,110L109,108L108,108L107,107L106,106L105,105L104,104L103,102L103,100L102,99L101,98L100,98L98,98L98,99L97,99L96,100L95,100L93,102L93,104L93,104L94,105L95,106L95,108L95,110L93,110L93,109L92,108L90,109L89,110L88,111L79,118L77,119L76,121L74,123L73,123L72,123L72,122L72,121L71,121L70,122L69,122L68,123L72,124L72,125L73,126L73,127L73,128L71,131L72,133L72,134L71,134L70,135L69,136L69,137L69,138L71,138L72,138L72,139L74,142L75,142L76,142L77,142L78,142L79,142L82,144L82,145L82,147L82,148L82,150L82,151L81,153L83,154L84,155Z " data-fips="VE14" data-hasc="VE.ME" data-name="Mrida" data-postal="ME" data-varname=""/><path d="M65,166L68,165L69,165L70,163L71,162L71,162L70,161L72,160L73,160L76,160L78,160L80,161L82,161L83,161L86,162L87,162L88,162L87,161L86,160L85,159L84,158L83,158L83,156L83,154L81,153L82,151L82,150L82,148L82,147L82,145L82,144L79,142L78,142L77,142L76,142L75,142L74,142L72,139L72,138L71,138L69,138L69,137L69,136L70,135L71,134L72,134L72,133L71,131L73,128L73,127L73,126L72,125L72,124L68,123L66,126L65,127L64,127L62,128L61,128L59,129L57,130L57,129L57,127L57,126L56,125L55,126L54,127L54,128L52,129L52,130L51,131L52,131L52,132L52,133L52,135L52,136L53,138L54,140L54,142L53,143L51,142L51,144L50,145L49,145L49,146L49,147L50,148L50,150L49,152L49,157L49,159L49,160L49,162L50,163L52,164L53,164L54,163L57,163L59,163L60,164L60,164L62,165L63,166L64,166Z " data-fips="VE20" data-hasc="VE.TA" data-name="Tchira" data-postal="TA" data-varname=""/><path d="M119,110L120,110L122,110L124,110L125,110L127,110L129,110L130,109L130,108L131,107L132,105L132,102L131,102L130,102L130,101L130,100L131,99L132,98L132,93L131,93L130,92L130,89L130,88L132,87L133,87L134,87L133,85L131,84L130,83L129,83L128,82L126,81L125,81L125,80L123,79L122,78L120,79L119,79L117,78L116,78L116,77L115,76L115,75L114,75L113,76L112,77L112,79L113,81L112,83L111,84L110,84L109,84L108,86L107,87L106,88L106,89L105,89L103,89L102,89L101,89L100,89L98,89L98,90L97,91L97,92L97,93L98,96L98,98L100,98L101,98L102,99L103,100L103,102L104,104L105,105L106,106L107,107L108,108L109,108L110,110L110,111L112,110L113,109L114,109L115,110L116,111L117,111Z " data-fips="VE21" data-hasc="VE.TR" data-name="Trujillo" data-postal="TR" data-varname=""/><path d="M106,89L106,88L107,87L108,86L109,84L110,84L111,84L112,83L113,81L112,79L111,79L109,77L108,77L107,76L106,75L105,73L106,72L106,71L110,69L111,69L111,67L111,66L111,65L110,64L109,63L109,61L109,60L107,60L106,60L104,60L103,60L102,60L100,58L100,57L99,55L98,54L98,53L98,52L98,50L96,48L95,47L94,45L93,44L92,43L91,41L91,41L91,41L89,42L87,42L85,42L84,42L86,44L87,44L85,45L86,46L86,48L85,47L83,47L82,48L83,49L83,50L83,52L84,54L82,55L83,57L84,58L85,58L85,61L85,62L86,64L86,65L87,66L88,68L90,69L91,70L92,71L93,73L93,76L95,76L97,79L97,80L97,81L98,83L99,84L99,85L99,87L98,89L100,89L101,89L102,89L103,89L105,89Z " data-fips="VE23" data-hasc="VE.TR" data-name="Trujillo" data-postal="TR" data-varname=""/><path d="M52,130L52,129L54,128L54,127L55,126L56,125L57,126L57,127L57,129L57,130L59,129L61,128L62,128L64,127L65,127L66,126L68,123L69,122L70,122L71,121L72,121L72,122L72,123L73,123L74,123L76,121L77,119L79,118L88,111L89,110L90,109L92,108L93,109L93,110L95,110L95,108L95,106L94,105L93,104L93,104L92,104L92,105L91,105L87,107L82,108L81,108L79,108L78,108L77,108L76,107L75,106L74,105L75,104L75,102L74,101L73,101L72,102L74,100L75,100L75,99L75,97L75,96L74,97L73,97L73,96L72,95L70,95L69,96L69,95L71,94L70,94L69,93L68,93L67,93L66,93L66,92L67,92L67,92L67,90L66,90L67,89L67,90L68,91L66,87L66,86L63,83L62,81L63,80L65,78L66,76L66,74L67,72L68,71L69,71L70,70L72,67L74,63L75,62L76,62L77,61L78,60L79,59L79,57L80,56L80,55L80,54L81,53L81,50L80,50L79,49L78,48L77,46L77,45L76,43L76,42L75,40L76,40L77,40L78,41L80,40L79,39L75,37L74,36L72,33L69,27L68,23L68,21L69,20L71,19L72,19L78,17L84,16L85,16L88,15L89,14L90,13L90,12L89,12L87,13L86,13L68,18L67,19L58,35L57,35L56,35L55,35L53,36L51,36L50,36L50,38L49,39L47,42L46,43L45,44L44,45L43,47L41,51L40,53L38,55L37,57L36,58L36,60L36,61L35,69L33,75L33,76L32,78L33,80L33,81L32,83L30,86L29,88L28,90L26,91L25,92L23,96L21,99L20,101L19,102L19,103L23,103L25,103L26,102L28,101L29,100L31,99L32,99L32,100L33,102L33,103L33,105L33,106L35,105L36,105L37,105L38,105L39,106L39,107L43,121L43,123L50,130L51,131Z " data-fips="VE23" data-hasc="VE.ZU" data-name="Zulia" data-postal="ZU" data-varname=""/><path d="M202,126L202,125L202,124L202,123L202,122L202,121L202,119L203,116L203,114L204,113L205,113L205,112L207,110L207,108L207,105L205,102L204,100L205,98L205,97L205,95L205,94L204,93L204,92L205,91L205,90L206,89L207,89L208,89L210,87L210,86L210,84L208,82L206,83L204,82L203,82L202,81L202,80L201,81L200,81L199,80L198,80L197,79L195,77L194,76L194,75L195,74L195,73L194,72L192,74L192,75L191,76L190,77L189,77L186,79L184,80L184,79L183,78L182,77L182,76L180,76L180,77L178,77L177,77L175,78L174,79L174,80L173,81L172,81L169,81L169,84L169,85L169,86L169,87L170,88L170,90L171,91L171,92L172,94L173,96L174,96L176,97L177,98L178,99L180,101L181,102L182,103L181,105L181,110L180,112L180,113L180,114L181,115L182,116L181,116L180,117L179,117L178,117L177,118L178,119L179,120L179,121L180,121L181,122L183,123L185,124L187,124L188,124L189,124L190,124L192,124L194,125L195,124L196,124L199,125L200,125L200,126L201,127Z " data-fips="VE08" data-hasc="VE.CO" data-name="Cojedes" data-postal="CO" data-varname=""/><path d="M208,82L209,81L209,79L210,79L211,79L212,80L212,81L213,82L215,81L216,81L216,80L217,79L218,79L218,78L217,77L216,76L213,76L213,74L214,74L214,73L214,68L214,67L214,66L213,65L212,65L211,65L210,65L209,65L207,64L207,63L207,60L206,60L205,60L204,60L202,59L198,59L197,59L195,58L194,56L194,56L193,57L192,58L190,57L190,58L189,59L189,64L190,67L189,68L188,70L188,73L189,74L189,76L190,77L191,76L192,75L192,74L194,72L195,73L195,74L194,75L194,76L195,77L197,79L198,80L199,80L200,81L201,81L202,80L202,81L203,82L204,82L206,83Z " data-fips="VE07" data-hasc="VE.CA" data-name="Carabobo" data-postal="CA" data-varname=""/><path d="M146,96L147,95L147,94L147,92L147,91L147,90L148,89L149,89L150,89L152,89L155,88L155,88L156,87L157,84L158,83L159,82L159,83L159,84L159,85L160,86L161,87L162,87L164,87L166,86L167,85L168,85L169,81L170,79L171,78L170,77L169,76L166,78L166,79L166,80L165,80L164,79L164,78L163,76L163,75L161,73L160,72L160,71L162,71L163,71L164,70L164,69L166,68L167,68L168,67L168,66L167,63L167,62L166,61L166,60L167,59L167,58L168,57L169,57L170,57L172,55L172,52L170,52L168,52L167,52L164,53L161,52L159,52L154,51L152,52L151,51L150,50L149,50L147,50L144,51L143,51L142,52L141,52L141,51L140,51L139,52L138,52L137,52L136,52L134,53L133,54L131,53L129,53L129,54L128,55L127,56L125,56L124,56L123,57L122,58L121,59L120,59L119,60L118,61L117,62L116,63L115,63L114,64L112,65L111,66L111,67L111,69L110,69L106,71L106,72L105,73L106,75L107,76L108,77L109,77L111,79L112,79L112,77L113,76L114,75L115,75L115,76L116,77L116,78L117,78L119,79L120,79L122,78L123,79L125,80L125,81L126,81L128,82L129,83L130,83L131,84L133,85L134,87L133,87L132,87L130,88L130,89L130,92L131,93L132,93L133,95L134,93L137,91L138,91L140,91L141,91L141,92L140,93L139,95L138,95L139,96L142,96L144,96L144,97Z " data-fips="VE13" data-hasc="VE.LA" data-name="Lara" data-postal="LA" data-varname=""/><path d="M174,140L174,139L174,136L175,134L177,133L179,132L180,131L181,128L182,127L182,126L182,124L183,123L181,122L180,121L179,121L179,120L178,119L177,118L178,117L179,117L180,117L181,116L182,116L181,115L180,114L180,113L180,112L181,110L181,105L182,103L181,102L180,101L178,99L177,98L176,97L174,96L173,96L172,94L171,92L171,91L170,90L170,88L169,87L169,86L169,85L169,84L168,85L167,85L166,86L164,87L162,87L161,87L160,86L159,85L159,84L159,83L159,82L158,83L157,84L156,87L155,88L155,88L152,89L150,89L149,89L148,89L147,90L147,91L147,92L147,94L147,95L146,96L144,97L144,96L142,96L139,96L138,95L139,95L140,93L141,92L141,91L140,91L138,91L137,91L134,93L133,95L132,98L131,99L130,100L130,101L130,102L131,102L132,102L132,105L131,107L130,108L130,109L129,110L133,114L133,115L137,118L140,119L142,119L143,120L144,120L145,119L146,118L147,119L148,120L150,121L152,122L153,122L154,122L157,123L158,123L159,124L159,125L161,127L162,128L162,129L163,130L164,130L163,131L163,133L165,134L167,136L168,137L170,139L172,140L172,141L173,141Z " data-fips="VE18" data-hasc="VE.PO" data-name="Portuguesa" data-postal="PO" data-varname=""/><path d="M173,81L174,80L174,79L175,78L177,77L178,77L180,77L180,76L182,76L182,77L183,78L184,79L184,80L186,79L189,77L190,77L189,76L189,74L188,73L188,70L189,68L190,67L189,64L189,59L190,58L190,57L192,58L193,57L194,56L194,56L185,54L182,53L182,51L181,51L180,51L178,51L177,51L176,51L175,52L172,55L170,57L169,57L168,57L167,58L167,59L166,60L166,61L167,62L167,63L168,66L168,67L167,68L166,68L164,69L164,70L163,71L162,71L160,71L160,72L161,73L163,75L163,76L164,78L164,79L165,80L166,80L166,79L166,78L169,76L170,77L171,78L170,79L169,81L172,81Z " data-fips="VE22" data-hasc="VE.YA" data-name="Yaracuy" data-postal="YA" data-varname=""/><path d="M288,399L289,398L290,397L291,395L291,394L291,393L294,390L295,390L297,390L298,390L299,388L299,387L299,384L300,383L301,382L303,382L304,382L305,381L306,380L308,379L309,379L310,378L311,378L313,378L314,378L319,375L320,373L321,372L323,371L324,370L326,369L327,370L326,372L326,373L327,374L328,374L328,372L329,371L331,370L332,369L334,367L336,366L337,364L337,363L337,361L337,359L338,356L338,355L340,354L341,353L342,353L346,353L348,353L353,349L355,348L356,348L359,348L360,346L360,345L361,343L361,340L361,338L361,338L356,338L354,337L350,337L347,337L345,338L341,336L338,336L337,335L338,334L339,331L339,329L339,328L339,327L338,325L336,320L335,318L333,316L332,315L332,314L332,312L332,309L332,308L331,303L331,302L332,301L333,299L333,298L332,297L330,295L329,294L327,292L326,292L324,291L321,288L319,286L319,286L318,285L317,284L316,284L316,282L315,280L314,279L313,278L312,277L311,276L311,275L312,274L314,274L315,274L317,276L317,276L318,273L318,272L317,271L317,266L316,265L316,264L315,263L314,263L311,263L307,262L302,256L301,255L301,254L300,252L298,249L297,243L296,242L295,240L295,239L296,239L299,239L300,238L301,237L300,236L299,234L299,233L300,233L300,232L300,230L296,228L296,227L296,225L297,224L297,222L296,222L290,222L288,223L287,224L286,225L285,225L284,224L283,222L283,219L283,218L284,216L284,214L284,213L285,212L285,211L284,210L283,209L282,209L281,210L278,210L276,211L276,212L275,213L271,220L271,221L271,222L269,222L266,222L265,222L264,223L263,224L262,223L261,222L260,218L258,217L254,221L251,223L250,224L249,224L246,225L242,225L240,226L238,227L236,228L235,227L234,227L234,225L233,224L231,224L230,225L229,224L229,223L229,222L231,217L231,215L231,214L230,212L230,211L229,211L227,211L226,210L225,209L224,210L223,210L222,210L221,209L220,208L220,208L219,209L219,210L220,212L221,213L222,215L221,216L219,216L217,219L215,221L215,222L214,223L214,225L214,226L214,229L215,230L214,231L214,232L213,233L212,234L211,234L209,235L208,236L207,237L207,239L207,240L208,241L208,242L208,244L208,245L208,246L209,247L208,248L208,250L208,251L208,253L208,254L208,255L208,256L207,258L207,260L207,262L206,264L206,265L207,266L208,267L208,268L209,269L209,270L209,272L208,273L208,274L208,275L209,276L209,278L210,279L211,281L211,282L212,283L212,286L214,289L214,291L215,292L216,293L217,293L219,293L220,294L222,301L223,302L224,302L225,303L225,305L224,306L221,309L220,310L207,322L206,323L206,325L207,324L208,324L209,324L211,324L212,325L214,325L215,325L216,326L216,328L216,329L219,329L219,330L220,331L221,332L222,333L223,334L224,335L225,336L226,337L227,337L228,338L229,339L229,340L230,341L229,342L228,343L229,345L229,346L230,348L231,348L232,349L232,352L231,353L232,354L233,355L234,356L237,365L237,366L237,368L238,369L238,370L238,372L239,373L240,374L240,376L239,378L240,379L256,394L258,395L261,396L262,395L264,395L265,396L267,396L268,394L270,394L271,394L272,393L273,391L275,390L278,389L279,388L281,387L283,388L285,388L286,388L287,390L287,392L286,393L285,395L285,396L285,398L286,399Z " data-fips="VE01" data-hasc="VE.AM" data-name="Amazonas" data-postal="AM" data-varname=""/><path d="M378,298L380,297L381,297L382,296L382,295L383,293L383,292L382,291L382,289L381,288L381,287L381,285L382,284L382,282L383,282L385,282L389,282L389,280L389,279L390,278L392,278L392,277L393,277L395,277L398,278L401,280L403,280L404,279L407,277L409,277L410,278L412,278L413,277L414,277L416,274L418,274L419,274L420,274L421,274L423,274L424,274L424,272L425,270L425,269L427,268L430,268L432,268L432,267L431,265L432,265L435,265L436,266L437,266L439,265L442,265L443,264L444,262L445,261L446,258L447,258L450,256L452,255L453,254L456,251L456,250L456,248L454,242L452,241L451,241L429,217L429,215L430,214L432,212L432,210L433,210L435,209L435,209L436,207L438,207L438,206L438,205L437,204L437,203L436,202L437,200L437,199L436,198L436,196L435,195L434,194L435,193L435,192L436,191L437,189L438,189L439,189L440,188L442,188L444,188L445,187L445,185L446,186L447,186L448,186L449,186L451,187L452,186L453,185L455,184L457,184L461,181L463,181L463,179L464,178L465,177L466,176L466,175L465,174L464,173L463,173L462,173L461,172L459,172L458,173L457,174L454,172L454,171L454,170L454,169L455,168L455,167L454,166L453,165L453,164L452,163L451,162L451,161L451,160L453,159L454,158L455,157L455,156L455,155L455,153L456,152L457,151L458,150L461,150L463,150L464,149L464,148L466,147L466,147L457,147L456,148L455,148L452,150L451,151L450,152L449,153L448,153L443,146L442,146L440,147L439,148L438,148L437,148L435,149L434,150L433,150L431,150L430,151L429,150L428,149L422,143L421,141L420,141L419,138L419,137L419,135L398,134L396,133L390,131L386,130L383,132L382,132L381,132L380,132L379,133L378,135L376,136L374,135L374,134L370,134L368,134L367,134L365,135L363,136L361,138L359,138L358,138L357,140L356,140L354,140L351,140L350,140L349,140L347,141L346,141L345,141L344,141L343,144L342,145L341,145L340,146L339,146L336,146L335,146L334,146L333,145L331,143L330,142L328,143L328,143L327,145L323,146L321,146L320,146L320,148L321,150L322,151L322,152L322,153L321,153L319,153L317,153L316,154L315,155L313,156L311,157L309,157L308,157L308,156L307,155L305,153L303,152L301,151L300,151L298,151L296,150L294,150L292,150L290,150L288,150L286,149L284,149L282,149L279,150L278,152L276,154L272,157L271,157L268,156L266,156L264,157L263,158L261,158L259,158L258,158L256,159L255,160L255,161L254,163L253,164L252,165L250,168L249,169L247,169L246,170L246,170L244,171L241,172L240,173L239,174L238,174L236,175L234,177L233,178L233,179L234,181L235,182L235,183L234,184L234,185L235,187L234,189L233,190L232,192L231,196L231,198L231,199L229,200L228,201L227,202L226,203L225,205L224,206L223,206L222,206L221,208L221,208L220,208L221,209L222,210L223,210L224,210L225,209L226,210L227,211L229,211L230,211L230,212L231,214L231,215L231,217L229,222L229,223L229,224L230,225L231,224L233,224L234,225L234,227L235,227L236,228L238,227L240,226L242,225L246,225L249,224L250,224L251,223L254,221L258,217L260,218L261,222L262,223L263,224L264,223L265,222L266,222L269,222L271,222L271,221L271,220L275,213L276,212L276,211L278,210L281,210L282,209L283,209L284,210L285,211L285,212L284,213L284,214L284,216L283,218L283,219L283,222L284,224L285,225L286,225L287,224L288,223L290,222L296,222L297,222L297,224L296,225L296,227L296,228L300,230L300,232L300,233L299,233L299,234L300,236L301,237L300,238L299,239L296,239L295,239L295,240L296,242L297,243L298,249L300,252L301,254L301,255L302,256L307,262L311,263L314,263L315,263L316,264L316,265L317,266L317,271L318,272L318,273L317,276L317,276L317,277L318,279L319,279L327,278L331,278L334,280L335,280L335,281L336,283L336,285L337,286L338,287L339,287L341,287L342,286L344,285L346,285L347,286L349,285L351,285L352,286L355,288L356,288L358,288L358,287L358,285L359,284L360,284L362,285L364,286L365,287L367,290L369,291L373,296L374,297L375,298L377,298Z " data-fips="VE06" data-hasc="VE.BO" data-name="Bolvar" data-postal="BO" data-varname=""/><path d="M311,157L313,156L315,155L316,154L317,153L319,153L321,153L322,153L322,152L322,151L321,150L320,148L320,146L321,146L323,146L327,145L328,143L328,143L330,142L331,143L333,145L334,146L335,146L336,146L339,146L340,146L341,145L342,145L343,144L344,141L345,141L346,141L347,141L349,140L350,140L351,140L354,140L356,140L357,140L358,138L359,138L361,138L363,136L365,135L367,134L368,134L370,134L374,134L374,135L376,136L378,135L379,133L380,132L381,132L382,132L383,132L383,131L381,130L381,129L373,126L371,125L371,123L371,121L372,119L372,119L374,119L375,118L373,118L363,118L362,118L361,117L360,113L358,110L357,110L356,109L355,108L353,107L352,106L351,105L350,105L349,104L346,103L345,103L343,103L342,104L341,102L339,100L340,98L340,96L344,92L340,87L340,85L340,84L340,83L340,82L341,81L340,80L339,79L338,78L337,78L336,77L336,75L337,74L339,74L340,73L339,72L337,72L336,72L335,73L333,74L331,74L329,74L328,73L326,73L325,72L324,72L323,71L323,70L323,69L321,69L320,68L319,68L318,67L317,68L316,69L316,70L315,69L314,69L314,70L313,72L313,73L312,73L311,73L308,73L306,73L305,73L304,74L303,74L301,75L300,75L299,74L301,74L300,74L299,73L294,72L290,72L290,72L289,74L288,75L287,75L286,76L285,76L283,77L283,77L282,77L280,81L281,82L282,84L281,86L281,87L288,91L290,89L292,92L293,92L295,93L296,93L297,93L297,94L297,96L297,97L295,98L295,99L295,100L295,101L296,102L297,103L298,104L299,105L301,105L302,105L304,106L305,107L306,108L306,109L307,111L308,111L309,112L310,113L311,114L312,115L310,116L309,117L310,119L309,120L308,120L307,120L304,120L303,120L302,119L301,120L299,120L299,121L299,123L299,124L299,125L299,126L299,128L298,129L298,131L297,133L295,135L294,137L292,139L291,140L291,142L289,144L288,145L288,146L288,147L288,148L290,148L291,148L292,149L292,150L294,150L296,150L298,151L300,151L301,151L303,152L305,153L307,155L308,156L308,157L309,157Z " data-fips="VE02" data-hasc="VE.AN" data-name="Anzotegui" data-postal="AN" data-varname=""/><path d="M251,97L251,94L251,93L251,92L252,91L252,89L251,88L250,87L249,87L249,85L250,84L250,84L250,82L249,78L247,77L246,77L244,76L243,76L242,76L240,76L239,76L238,75L237,74L236,74L235,75L233,74L232,73L232,71L232,70L233,67L232,67L230,66L230,65L230,64L228,62L227,62L226,62L225,63L224,61L224,60L223,59L223,58L220,58L217,58L214,59L210,59L209,60L207,60L207,63L207,64L209,65L210,65L211,65L212,65L213,65L214,66L214,67L214,68L214,73L214,74L213,74L213,76L216,76L217,77L218,78L221,77L222,77L224,79L226,79L227,79L228,79L229,79L231,80L232,82L233,83L234,84L235,84L236,85L237,86L239,87L240,88L241,88L241,89L241,90L240,92L240,93L238,93L237,94L237,95L238,95L241,95L242,96L243,96L244,96L246,97L247,97L250,97Z " data-fips="VE04" data-hasc="VE.AR" data-name="Aragua" data-postal="AR" data-varname=""/><path d="M226,62L227,62L228,62L231,61L233,60L234,60L235,59L235,58L236,58L236,57L237,57L238,57L240,57L242,58L243,57L246,58L250,58L251,57L252,57L253,58L254,58L255,58L258,58L260,58L260,56L260,55L259,55L258,55L256,55L252,55L244,55L240,55L235,55L234,56L233,56L231,57L228,58L225,57L223,58L223,59L224,60L224,61L225,63Z " data-fips="VE26" data-hasc="" data-name="Vargas" data-postal="" data-varname=""/><path d="M236,63L238,62L239,62L240,62L240,60L241,59L240,57L238,57L237,57L236,57L236,58L235,58L235,59L234,60L233,60L231,61L231,62L232,62L235,63Z " data-fips="VE26" data-hasc="VE.DF" data-name="Distrito Capital" data-postal="DF" data-varname=""/><path d="M295,46L297,46L297,45L297,44L296,44L296,43L293,43L291,43L290,45L291,45L292,45L293,46Z M250,15L250,15L249,14L249,15L247,15L246,15L247,16L249,16Z M267,14L266,14L265,14L264,14L266,15Z M245,12L243,12L243,12L244,12Z M319,13L319,13L319,12L317,11L316,12L316,13L317,14Z " data-fips="VE00" data-hasc="VE.DP" data-name="Dependencias Federales" data-postal="DP" data-varname=""/><path d="M263,158L264,157L266,156L268,156L271,157L272,157L276,154L278,152L279,150L282,149L284,149L286,149L288,150L290,150L292,150L292,149L291,148L290,148L288,148L288,147L288,146L288,145L289,144L291,142L291,140L292,139L294,137L295,135L297,133L298,131L298,129L299,128L299,126L299,125L299,124L299,123L299,121L299,120L301,120L302,119L303,120L304,120L307,120L308,120L309,120L310,119L309,117L310,116L312,115L311,114L310,113L309,112L308,111L307,111L306,109L306,108L305,107L304,106L302,105L301,105L299,105L298,104L297,103L296,102L295,101L295,100L295,99L295,98L297,97L297,96L297,94L297,93L296,93L295,93L293,92L292,92L290,89L288,91L281,87L281,86L282,84L281,82L280,81L278,79L277,78L275,78L274,78L273,79L271,79L269,78L267,78L266,78L265,78L264,78L262,77L261,77L260,77L258,76L257,76L256,76L255,77L254,77L252,78L249,78L250,82L250,84L250,84L249,85L249,87L250,87L251,88L252,89L252,91L251,92L251,93L251,94L251,97L250,97L247,97L246,97L244,96L243,96L242,96L241,95L238,95L237,95L237,94L238,93L240,93L240,92L241,90L241,89L241,88L240,88L239,87L237,86L236,85L235,84L234,84L233,83L232,82L231,80L229,79L228,79L227,79L226,79L224,79L222,77L221,77L218,78L218,79L217,79L216,80L216,81L215,81L213,82L212,81L212,80L211,79L210,79L209,79L209,81L210,84L210,86L210,87L208,89L207,89L206,89L205,90L205,91L204,92L204,93L205,94L205,95L205,97L205,98L204,100L205,102L207,105L207,108L207,110L205,112L205,113L204,113L203,114L203,116L202,119L202,121L202,122L202,123L202,124L202,125L202,126L201,127L202,128L203,129L203,130L204,131L205,131L206,133L207,132L207,134L208,134L208,135L209,136L210,137L212,137L213,138L213,140L214,141L215,142L216,142L217,144L217,146L218,146L218,147L218,147L217,148L218,148L220,149L221,149L223,148L225,149L225,150L227,151L228,152L230,153L231,153L233,153L236,153L237,153L238,153L242,154L243,154L248,153L249,153L251,153L252,152L253,153L254,153L256,155L257,155L258,154L259,156L259,157L259,158L261,158Z " data-fips="VE12" data-hasc="VE.GU" data-name="Gurico" data-postal="GU" data-varname=""/><path d="M386,130L387,129L388,128L389,128L390,127L392,127L394,126L395,125L396,124L398,124L399,124L400,122L401,121L403,120L404,120L404,119L405,117L407,115L406,114L404,113L404,112L404,111L405,109L404,108L403,108L402,108L401,107L400,108L399,107L398,107L397,106L396,106L396,105L396,103L396,102L396,101L396,99L395,98L393,96L393,95L392,94L391,93L391,92L392,91L394,89L394,88L395,87L395,86L395,85L395,84L395,83L393,80L392,79L391,78L392,77L391,76L391,75L390,74L389,71L389,70L386,68L385,68L385,70L386,71L385,73L384,74L381,74L380,73L379,74L380,75L379,76L378,75L377,74L376,74L375,74L375,73L375,74L375,76L374,75L374,73L373,74L372,73L372,73L371,72L370,70L370,69L369,70L368,69L367,70L366,70L365,70L364,69L363,69L361,69L361,68L360,68L359,67L358,66L357,66L356,65L354,66L354,67L353,68L351,69L350,69L348,69L347,69L346,70L345,72L344,72L340,73L339,74L337,74L336,75L336,77L337,78L338,78L339,79L340,80L341,81L340,82L340,83L340,84L340,85L340,87L344,92L340,96L340,98L339,100L341,102L342,104L343,103L345,103L346,103L349,104L350,105L351,105L352,106L353,107L355,108L356,109L357,110L358,110L360,113L361,117L362,118L363,118L373,118L375,118L374,119L372,119L372,119L371,121L371,123L371,125L373,126L381,129L381,130L383,131L383,132Z M396,80L394,79L394,80L395,81Z M393,76L391,75L392,76L393,77Z " data-fips="VE16" data-hasc="VE.MO" data-name="Monagas" data-postal="MO" data-varname=""/><path d="M273,79L274,78L275,78L277,78L278,79L282,77L283,77L283,77L285,76L286,76L287,75L288,75L289,74L290,72L290,72L289,71L285,70L275,66L275,67L279,68L280,69L278,69L276,68L275,67L273,67L273,66L274,66L272,64L271,63L270,62L267,60L266,59L266,58L268,58L268,56L266,56L264,55L261,54L260,55L260,56L260,58L258,58L255,58L254,58L253,58L252,57L251,57L250,58L246,58L243,57L242,58L241,59L240,60L240,62L239,62L238,62L236,63L235,63L232,62L231,62L231,61L230,64L230,65L230,66L232,67L233,67L232,70L232,71L232,73L233,74L235,75L236,74L237,74L238,75L239,76L240,76L242,76L243,76L244,76L246,77L247,77L249,78L252,78L254,77L255,77L256,76L257,76L258,76L260,77L261,77L262,77L264,78L265,78L266,78L267,78L269,78L271,79Z " data-fips="VE15" data-hasc="VE.MI" data-name="Miranda" data-postal="MI" data-varname=""/><path d="M342,50L341,49L339,48L338,49L339,50L340,51L341,51Z M333,48L332,48L331,49L332,49Z M340,45L342,46L342,44L343,43L344,42L345,42L344,39L343,38L343,37L342,36L340,38L339,38L338,39L337,40L337,41L336,42L334,42L333,41L332,41L332,39L331,39L329,39L328,39L327,40L325,40L325,41L325,43L327,43L328,44L331,44L333,43L334,44L336,46L337,46Z " data-fips="VE00" data-hasc="VE.NE" data-name="Nueva Esparta" data-postal="NE" data-varname=""/><path d="M379,74L380,73L381,73L382,74L384,73L385,72L385,71L384,69L383,68L383,67L383,66L382,65L381,64L381,63L380,62L379,62L377,63L376,63L375,62L374,62L374,63L374,64L375,66L374,66L372,67L373,66L373,65L373,63L372,62L373,62L376,62L377,62L378,61L378,59L377,58L376,58L375,58L373,59L374,58L376,57L384,56L385,57L388,57L389,57L390,57L391,57L393,57L394,58L395,57L397,54L398,54L400,54L404,54L406,53L408,53L409,53L410,52L410,51L411,50L410,50L408,51L407,51L406,51L405,51L402,51L401,52L400,52L399,52L397,52L395,52L392,51L388,50L384,50L383,50L382,50L378,51L377,51L375,52L374,52L372,51L369,51L368,52L367,52L366,51L364,52L363,52L362,53L361,52L360,52L359,52L358,53L357,53L355,53L353,54L350,54L346,53L344,52L344,53L343,54L342,54L340,54L337,54L336,54L333,55L331,54L330,54L329,54L328,55L329,56L329,58L331,58L331,57L333,57L335,57L337,57L338,56L340,56L342,57L344,57L347,59L348,59L350,59L349,60L344,61L342,61L340,60L337,61L336,61L334,60L333,60L331,60L331,61L330,62L328,62L327,64L326,65L326,63L325,64L325,64L324,65L323,66L324,66L325,66L324,67L323,67L322,68L321,68L320,68L321,69L323,69L323,70L323,71L324,72L325,72L326,73L328,73L329,74L331,74L333,74L335,73L336,72L337,72L339,72L340,73L344,72L345,72L346,70L347,69L348,69L350,69L351,69L353,68L354,67L354,66L356,65L357,66L358,66L359,67L360,68L361,68L361,69L363,69L364,69L365,70L366,70L367,70L368,69L369,70L370,69L370,70L371,72L372,73L372,73L373,73L373,72L375,73L376,73L376,74L377,73L378,74Z M384,65L384,63L382,61L381,60L379,59L379,61L380,62L381,62L382,63L383,64L384,65Z " data-fips="VE19" data-hasc="VE.SU" data-name="Sucre" data-postal="SU" data-varname=""/><path d="M449,153L450,152L451,151L452,150L455,148L456,148L457,147L466,147L466,147L467,146L467,145L469,145L470,144L472,143L474,143L475,142L475,141L475,139L475,138L476,137L477,137L480,136L481,135L481,134L480,132L476,128L474,125L472,124L471,123L470,123L468,123L462,122L461,123L460,124L460,125L459,126L456,125L454,125L453,125L452,124L451,123L447,124L444,124L442,125L441,125L441,126L441,127L440,128L439,129L438,130L438,128L440,128L439,127L438,127L435,127L434,128L433,129L432,130L431,130L430,129L429,129L428,128L426,128L425,127L424,126L423,126L422,126L420,126L418,124L419,123L420,123L422,124L423,124L429,124L431,124L433,124L434,124L434,122L434,121L435,119L436,116L437,115L437,113L437,111L438,110L440,109L441,108L441,106L441,105L441,104L438,107L438,108L437,109L438,106L438,105L440,105L442,103L443,102L443,102L445,101L446,101L447,100L447,99L448,99L448,97L447,96L446,95L445,94L444,93L443,93L442,93L442,92L441,91L440,90L438,90L436,90L434,89L433,90L432,90L429,88L428,87L427,86L426,85L425,82L424,81L422,80L421,80L418,79L419,80L420,81L421,82L420,83L417,83L413,81L413,82L413,84L415,84L415,86L416,87L416,88L415,90L415,86L414,85L413,84L413,86L412,87L412,86L413,85L412,84L412,82L409,80L405,77L404,76L402,76L400,75L399,76L398,77L399,78L401,78L402,78L404,79L404,80L403,79L402,78L400,79L401,81L401,85L401,87L400,88L399,88L400,87L400,86L400,80L399,78L398,77L398,78L398,80L398,81L397,84L396,85L395,86L395,87L394,88L394,89L392,91L391,92L391,93L392,94L393,95L393,96L395,98L396,99L396,101L396,102L396,103L396,105L396,106L397,106L398,107L399,107L400,108L401,107L402,108L403,108L404,108L405,109L404,111L404,112L404,113L406,114L407,115L405,117L404,119L404,120L403,120L401,121L400,122L399,124L398,124L396,124L395,125L394,126L392,127L390,127L389,128L388,128L387,129L386,130L390,131L396,133L398,134L419,135L419,137L419,138L420,141L421,141L422,143L428,149L429,150L430,151L431,150L433,150L434,150L435,149L437,148L438,148L439,148L440,147L442,146L443,146L448,153Z M440,126L441,125L440,123L438,124L437,125L436,126L434,125L433,125L432,127L433,127L437,127Z M443,114L444,113L445,112L446,111L446,110L445,109L443,109L443,110L442,111L441,112L440,115L438,116Z M439,113L440,112L443,109L444,108L445,108L446,107L446,107L444,107L442,108L441,110L439,110L438,111L438,113L438,114Z M444,106L445,106L446,105L446,104L445,103L444,103L443,105L443,107Z M447,105L448,104L448,103L450,103L450,103L449,102L447,102L446,103L446,106Z M397,76L398,75L398,74L397,75L396,76Z " data-fips="VE09" data-hasc="VE.DA" data-name="Delta Amacuro" data-postal="DA" data-varname=""/></g></svg>